<?xml version="1.0" standalone="no"?>
<svg width="567.429" height="384.969" viewBox="0 0 567.429 384.969" xmlns="http://www.w3.org/2000/svg" shape-rendering="crispEdges">
<title>
img/week1/high_gain_clb/Am_009_withpara.svg
</title>
<desc>
Creator: ROOT Version 6.22/09
CreationDate: Wed Jul 14 00:14:26 2021</desc>
<defs>
</defs>
<rect x="0.5" y="0" width="566.929" height="384.469" fill="white"/>
<rect x="57.1929" y="38.4469" width="453.543" height="307.575" fill="white"/>
<rect x="57.1929" y="38.4469" width="453.543" height="307.575" fill="none" stroke="black"/>
<rect x="57.1929" y="38.4469" width="453.543" height="307.575" fill="white"/>
<rect x="57.1929" y="38.4469" width="453.543" height="307.575" fill="none" stroke="black"/>
<path d="M57.1929,346.022h 66.155v -0.294598h 0.636106v -2.25859h 0.636106v -11.1947h 0.636106v 1.17839h 0.636106v 0.981994h 0.636106v 0.883795h 0.636106v -3.33878h 0.636106v -1.17839h 0.636106v 4.12438h 0.636106v -0.589197h 0.636106v -1.17839h
 0.636106v 1.57119h 0.636106v -1.76759h 0.636106v 0.785595h 0.636106v 0.490997h 0.636106v -1.57119h 0.636106v 0.490997h 0.636106v 1.08019h 0.636106v 1.57119h 0.636106v -0.490997h 0.636106v -1.27659h 0.636106v -0.490997h 0.636106v 2.55318h 0.636106v
 0.0981994h 0.636106v -1.37479h 0.636106v -1.27659h 0.636106v -0.392798h 0.636106v 1.76759h 0.636106v 0.0981994h 0.636106v -2.65138h 0.636106v 0.392798h 0.636106v 2.55318h 0.636106v -1.66939h 0.636106v 0.981994h 0.636106v 0.981994h 0.636106v
 -0.589197h 0.636106v -0.0981994h 0.636106v -0.589197h 0.636106v 0.589197h 0.636106v 0.392798h 0.636106v -0.392798h 0.636106v 0.490997h 0.636106v -0.589197h 0.636106v -0.196399h 0.636106v -1.96399h 0.636106v 0.589197h 0.636106v 1.57119h 0.636106v
 0.785595h 0.636106v -0.392798h 0.636106v -0.883795h 0.636106v 2.45499h 0.636106v -2.06219h 0.636106v -2.45499h 0.636106v 3.82978h 0.636106v -1.08019h 0.636106v -0.0981994h 0.636106v 0.785595h 0.636106v -2.45499h 0.636106v 0.883795h 0.636106v
 2.84778h 0.636106v -3.14238h 0.636106v 0.0981994h 0.636106v 2.06219h 0.636106v -1.37479h 0.636106v 0.883795h 0.636106v -1.47299h 0.636106v 0.196399h 0.636106v 0.0981994h 0.636106v 1.66939h 0.636106v -0.294598h 0.636106v -0.883795h 0.636106v
 0.196399h 0.636106v 1.08019h 0.636106v -1.27659h 0.636106v 0.392798h 0.636106v -0.294598h 0.636106v -1.47299h 0.636106v 1.08019h 0.636106v 1.47299h 0.636106v -0.883795h 0.636106v -0.785595h 0.636106v -1.08019h 0.636106v 3.04418h 0.636106v 0.589197h
 0.636106v -1.86579h 0.636106v -1.37479h 0.636106v 4.02618h 0.636106v -2.74958h 0.636106v -1.47299h 0.636106v -0.0981994h 0.636106v 1.08019h 0.636106v 0.981994h 0.636106v 2.84778h 0.636106v -2.84778h 0.636106v -1.57119h 0.636106v -0.490997h 0.636106v
 2.84778h 0.636106v 1.47299h 0.636106v -3.43698h 0.636106v 1.66939h 0.636106v 0.294598h 0.636106v -0.294598h 0.636106v -0.490997h 0.636106v -0.785595h 0.636106v -0.589197h 0.636106v -0.0981994h 0.636106v 2.74958h 0.636106v -2.16039h 0.636106v
 -0.490997h 0.636106v 1.47299h 0.636106v 1.17839h 0.636106v -3.73158h 0.636106v 1.08019h 0.636106v -0.294598h 0.636106v 0.589197h 0.636106v 2.35679h 0.636106v -1.08019h 0.636106v -4.51717h 0.636106v -0.392798h 0.636106v 1.86579h 0.636106v 2.55318h
 0.636106v -3.63338h 0.636106v -0.785595h 0.636106v -1.17839h 0.636106v 3.53518h 0.636106v -1.76759h 0.636106v -2.16039h 0.636106v 0.589197h 0.636106v 1.08019h 0.636106v 0.589197h 0.636106v -1.47299h 0.636106v -1.86579h 0.636106v 1.08019h 0.636106v
 -0.785595h 0.636106v 0.0981994h 0.636106v -2.74958h 0.636106v 1.17839h 0.636106v 3.14238h 0.636106v -2.65138h 0.636106v -1.37479h 1.27221v -1.08019h 0.636106v 1.66939h 0.636106v -1.08019h 0.636106v -0.196399h 0.636106v 0.0981994h 0.636106v -1.27659h
 0.636106v 1.66939h 0.636106v -2.35679h 0.636106v -0.0981994h 0.636106v -2.25859h 0.636106v 4.81177h 0.636106v -2.84778h 0.636106v -0.490997h 0.636106v -0.883795h 0.636106v 1.86579h 0.636106v 1.66939h 0.636106v -4.12438h 0.636106v 1.08019h 0.636106v
 -1.47299h 0.636106v 0.687396h 0.636106v 4.41897h 0.636106v -5.59737h 0.636106v 1.17839h 0.636106v -1.57119h 0.636106v 3.43698h 0.636106v -4.12438h 0.636106v -0.981994h 0.636106v -3.33878h 0.636106v 4.81177h 0.636106v 0.883795h 0.636106v -5.49917h
 0.636106v -1.76759h 0.636106v -1.66939h 0.636106v 4.90997h 0.636106v 1.17839h 0.636106v -5.99017h 0.636106v -1.08019h 1.27221v 3.24058h 0.636106v 1.27659h 0.636106v -9.81994h 0.636106v 4.22258h 0.636106v -1.47299h 0.636106v 5.89197h 0.636106v
 -7.07036h 0.636106v -0.196399h 0.636106v -4.22258h 0.636106v 5.40097h 0.636106v -2.45499h 0.636106v -5.49917h 0.636106v 0.294598h 0.636106v 1.17839h 0.636106v 3.73158h 0.636106v -9.13255h 0.636106v -3.24058h 0.636106v -0.981994h 0.636106v 6.48116h
 0.636106v -2.74958h 0.636106v -6.97216h 0.636106v 1.86579h 0.636106v -1.37479h 0.636106v 3.24058h 0.636106v -3.14238h 0.636106v -6.57936h 0.636106v 1.76759h 0.636106v 3.04418h 0.636106v 8.64155h 0.636106v -9.03435h 0.636106v -7.95415h 0.636106v
 5.30277h 0.636106v 0.883795h 0.636106v 1.47299h 0.636106v -2.84778h 0.636106v -6.97216h 0.636106v 1.27659h 0.636106v 6.18656h 0.636106v -1.27659h 0.636106v -16.3011h 0.636106v 7.56136h 0.636106v 11.6857h 0.636106v 1.76759h 0.636106v -15.1227h
 0.636106v -2.94598h 0.636106v 7.75775h 0.636106v 13.9443h 0.636106v -7.36496h 0.636106v -7.07036h 0.636106v 1.96399h 0.636106v 10.6055h 0.636106v -0.883795h 0.636106v 2.84778h 0.636106v -10.8019h 0.636106v 1.66939h 0.636106v 11.5875h 0.636106v
 1.27659h 0.636106v -7.07036h 0.636106v 0.883795h 0.636106v 1.27659h 0.636106v 11.5875h 0.636106v -12.8641h 0.636106v 3.04418h 0.636106v 2.74958h 0.636106v 3.43698h 0.636106v 2.25859h 0.636106v -6.77576h 0.636106v 3.92798h 0.636106v -0.294598h
 0.636106v 12.7659h 0.636106v -3.82978h 0.636106v -8.15055h 0.636106v 1.47299h 0.636106v 9.13255h 0.636106v 2.25859h 0.636106v -4.12438h 0.636106v -1.17839h 0.636106v 1.47299h 0.636106v 3.33878h 0.636106v -0.0981994h 0.636106v -3.24058h 0.636106v
 -2.06219h 0.636106v 4.61537h 0.636106v 3.24058h 0.636106v -1.37479h 0.636106v -3.24058h 0.636106v 4.22258h 0.636106v 3.63338h 0.636106v -0.981994h 0.636106v 0.196399h 0.636106v -6.38296h 0.636106v 4.22258h 0.636106v 4.12438h 0.636106v -2.94598h
 0.636106v -2.25859h 0.636106v 0.785595h 0.636106v 3.43698h 0.636106v 3.24058h 0.636106v -8.83795h 0.636106v 2.06219h 0.636106v 1.86579h 0.636106v 1.57119h 0.636106v 0.589197h 0.636106v -3.14238h 0.636106v 0.392798h 0.636106v 1.86579h 0.636106v
 1.86579h 0.636106v -1.47299h 0.636106v -2.94598h 0.636106v 3.04418h 0.636106v 2.16039h 0.636106v 2.45499h 0.636106v -5.10637h 0.636106v 0.196399h 0.636106v 2.65138h 0.636106v 1.37479h 0.636106v 0.0981994h 0.636106v -3.24058h 0.636106v 0.490997h
 0.636106v 3.43698h 0.636106v -0.0981994h 1.27221v -2.25859h 0.636106v 1.27659h 0.636106v 2.84778h 0.636106v 3.24058h 0.636106v -4.51717h 0.636106v -2.94598h 0.636106v 4.32077h 0.636106v 2.65138h 0.636106v -0.294598h 0.636106v 0.490997h 0.636106v
 -3.04418h 0.636106v 5.49917h 0.636106v -1.47299h 0.636106v 0.294598h 0.636106v -0.490997h 0.636106v 0.589197h 0.636106v 2.25859h 0.636106v 0.785595h 0.636106v 0.294598h 0.636106v -2.65138h 0.636106v 2.35679h 0.636106v 3.14238h 0.636106v -4.02618h
 0.636106v 0.392798h 0.636106v 0.883795h 0.636106v 1.17839h 0.636106v 2.06219h 0.636106v -2.06219h 0.636106v 0.294598h 0.636106v 1.96399h 0.636106v 1.66939h 0.636106v -0.981994h 0.636106v 0.392798h 0.636106v -0.294598h 0.636106v 0.196399h 0.636106v
 4.22258h 0.636106v -4.12438h 0.636106v -0.490997h 0.636106v 0.687396h 0.636106v 2.25859h 0.636106v -0.392798h 0.636106v -0.589197h 1.27221v -2.06219h 0.636106v 1.96399h 0.636106v -0.0981994h 0.636106v 0.490997h 1.27221v 0.196399h 0.636106v
 -0.490997h 0.636106v -0.392798h 0.636106v -0.392798h 0.636106v 2.35679h 0.636106v -0.490997h 0.636106v 0.294598h 0.636106v -0.981994h 1.27221v 0.0981994h 0.636106v 1.37479h 0.636106v -0.490997h 0.636106v -1.47299h 0.636106v -0.392798h 0.636106v
 3.33878h 0.636106v -1.76759h 0.636106v -2.94598h 0.636106v -1.57119h 0.636106v 3.43698h 0.636106v 1.57119h 0.636106v -3.82978h 0.636106v 1.17839h 0.636106v -1.17839h 0.636106v 2.35679h 0.636106v 0.196399h 0.636106v -0.196399h 0.636106v -1.08019h
 0.636106v -0.196399h 0.636106v -0.392798h 0.636106v 2.25859h 0.636106v -2.94598h 0.636106v -0.196399h 0.636106v 1.08019h 0.636106v 1.96399h 0.636106v -3.92798h 0.636106v 0.687396h 0.636106v 1.37479h 0.636106v 1.96399h 0.636106v -0.981994h 0.636106v
 -0.589197h 0.636106v 0.589197h 0.636106v 0.196399h 1.27221v 0.0981994h 0.636106v -1.17839h 0.636106v 0.490997h 0.636106v 2.16039h 0.636106v -0.785595h 0.636106v 0.883795h 0.636106v -0.687396h 1.27221v -0.687396h 0.636106v 2.45499h 0.636106v
 -1.76759h 0.636106v 0.981994h 0.636106v 0.883795h 0.636106v -0.392798h 0.636106v 0.981994h 0.636106v 0.883795h 0.636106v -1.47299h 0.636106v 0.294598h 0.636106v 2.06219h 0.636106v -2.16039h 0.636106v -0.490997h 0.636106v 1.08019h 0.636106v 2.45499h
 0.636106v -0.981994h 0.636106v -0.294598h 0.636106v -0.981994h 0.636106v 1.66939h 0.636106v 0.196399h 0.636106v -0.294598h 1.27221v 0.883795h 0.636106v -0.687396h 0.636106v -0.589197h 0.636106v 0.687396h 0.636106v 0.981994h 0.636106v -0.196399h
 0.636106v 0.785595h 0.636106v -1.08019h 0.636106v 0.196399h 0.636106v 0.294598h 0.636106v 0.589197h 0.636106v -0.196399h 0.636106v 0.196399h 1.27221v -0.0981994h 0.636106v 0.490997h 0.636106v 0.196399h 0.636106v -0.196399h 0.636106v 0.0981994h
 0.636106v -0.883795h 0.636106v 1.17839h 0.636106v -0.0981994h 0.636106v -0.294598h 0.636106v 0.883795h 0.636106v 0.294598h 1.27221v -0.785595h 0.636106v 0.589197h 0.636106v -0.392798h 0.636106v -0.0981994h 0.636106v -0.0981994h 0.636106v 0.392798h
 1.27221v 0.294598h 0.636106v -0.196399h 0.636106v -0.196399h 0.636106v 0.392798h 0.636106v -0.196399h 1.27221v -0.196399h 0.636106v 0.785595h 0.636106v -0.196399h 0.636106v -0.687396h 0.636106v 0.392798h 0.636106v -0.0981994h 0.636106v -0.0981994h
 0.636106v 0.687396h 0.636106v -0.392798h 0.636106v -0.0981994h 0.636106v -0.196399h 0.636106v -0.0981994h 0.636106v -0.196399h 0.636106v 0.687396h 0.636106v 0.392798h 0.636106v -0.490997h 0.636106v -0.0981994h 0.636106v 0.392798h 0.636106v
 -0.785595h 0.636106v 0.589197h 1.27221v -0.196399h 0.636106v 0.294598h 0.636106v -0.196399h 0.636106v -0.490997h 0.636106v 0.196399h 0.636106v 0.785595h 0.636106v -0.589197h 0.636106v -0.294598h 0.636106v 0.490997h 0.636106v -0.294598h 0.636106v
 0.490997h 0.636106v -0.196399h 1.27221v -0.392798h 1.27221v 0.392798h 1.90832v -0.0981994h 0.636106v 0.392798h 0.636106v -0.196399h 0.636106v -0.589197h 0.636106v 0.0981994h 0.636106v 0.589197h 0.636106v 0.0981994h 0.636106v -0.0981994h 0.636106v
 -0.196399h 0.636106v 0.0981994h 0.636106v -0.0981994h 0.636106v -0.0981994h 0.636106v 0.0981994h 1.27221v -0.294598h 0.636106v 0.0981994h 1.27221v 0.294598h 0.636106v -0.589197h 0.636106v -0.0981994h 0.636106v 0.294598h 0.636106v 0.196399h 0.636106v
 0.392798h 0.636106v -0.785595h 0.636106v 0.294598h 0.636106v -0.196399h 0.636106v 0.196399h 0.636106v 0.490997h 0.636106v -0.196399h 1.27221v -0.294598h 0.636106v 0.392798h 0.636106v -0.294598h 0.636106v -0.294598h 1.27221v 0.0981994h 0.636106v
 -0.294598h 0.636106v 0.589197h 0.636106v -0.490997h 0.636106v -0.0981994h 0.636106v 1.17839h 0.636106v -0.294598h 0.636106v -0.392798h 0.636106v 0.294598h 0.636106v 0.392798h 0.636106v -0.687396h 0.636106v 0.196399h 0.636106v 0.0981994h 1.27221v
 -0.589197h 0.636106v 0.294598h 0.636106v -0.196399h 0.636106v 0.0981994h 0.636106v 0.687396h 0.636106v -0.589197h 0.636106v 0.196399h 0.636106v 0.0981994h 0.636106v -0.294598h 0.636106v 0.196399h 0.636106v 0.196399h 0.636106v -0.294598h 0.636106v
 -0.0981994h 0.636106v 0.294598h 0.636106v -0.0981994h 0.636106v -0.589197h 0.636106v 0.490997h 0.636106v 0.196399h 1.27221v -0.785595h 1.27221v 0.981994h 0.636106v -1.37479h 0.636106v -9.32895h 0.636106v -82.1929h 0.636106v -199.639h 0.636106v
 49.7871h 0.636106v 43.1095h 0.636106v 31.522h 0.636106v 57.3485h 0.636106v 25.3355h 0.636106v 9.32895h 0.636106v -13.0605h 0.636106v -2.84778h 0.636106v 11.9803h 0.636106v 8.93615h 0.636106v -5.20457h 0.636106v 23.4697h 0.636106v 37.3158h 0.636106v
 12.9623h 0.636106v 2.16039h 0.636106v 0.0981994h 0.636106v 0.490997h 0.636106v -0.196399h 0.636106v -0.0981994h 0.636106v 0.490997h 1.90832v -0.0981994h 0.636106v 0.0981994h 6.36106v -0.0981994h 0.636106" fill="none" stroke="#000099"/>
<rect x="442.705" y="24.9905" width="113.386" height="61.5151" fill="white"/>
<path d="M442.705,86.5056h 113.386" fill="none" stroke="black"/>
<path d="M556.091,86.5056v -61.5151" fill="none" stroke="black"/>
<path d="M556.091,24.9905h -113.386" fill="none" stroke="black"/>
<path d="M442.705,24.9905v 61.5151" fill="none" stroke="black"/>
<text xml:space="preserve" x="492.49" y="27.6948" fill="black" font-size="3.3845" font-family="Helvetica">Am_009</text>
<path d="M442.705,28.408h 113.386" fill="none" stroke="black"/>
<text xml:space="preserve" x="447.69" y="30.953" fill="black" font-size="3.3845" font-family="Helvetica">Entries </text>
<text xml:space="preserve" x="538.105" y="30.953" fill="black" font-size="3.3845" font-family="Helvetica"> 116742</text>
<text xml:space="preserve" x="447.69" y="35.0258" fill="black" font-size="3.3845" font-family="Helvetica">Mean  </text>
<text xml:space="preserve" x="539.734" y="35.0258" fill="black" font-size="3.3845" font-family="Helvetica">   1133</text>
<text xml:space="preserve" x="447.69" y="38.284" fill="black" font-size="3.3845" font-family="Helvetica">Std Dev   </text>
<text xml:space="preserve" x="539.734" y="38.284" fill="black" font-size="3.3845" font-family="Helvetica">  467.5</text>
<text xml:space="preserve" x="451.763" y="41.5422" fill="black" font-size="3.3845" font-family="Helvetica"> / ndf </text>
<text xml:space="preserve" x="450.133" y="39.9131" fill="black" font-size="2.423" font-family="Helvetica">2</text>
<text xml:space="preserve" x="447.69" y="41.5422" fill="black" font-size="3.3845" font-family="Times">&#0967;</text>
<text xml:space="preserve" x="534.032" y="41.5422" fill="black" font-size="3.3845" font-family="Helvetica">   637 / 272</text>
<text xml:space="preserve" x="447.69" y="44.8004" fill="black" font-size="3.3845" font-family="Helvetica">Prob  </text>
<text xml:space="preserve" x="547.065" y="44.8004" fill="black" font-size="3.3845" font-family="Helvetica">31</text>
<text xml:space="preserve" x="545.436" y="44.8004" fill="black" font-size="3.3845" font-family="Times">&#8722;</text>
<text xml:space="preserve" x="534.032" y="44.8004" fill="black" font-size="3.3845" font-family="Helvetica"> 2.507e</text>
<text xml:space="preserve" x="447.69" y="48.0586" fill="black" font-size="3.3845" font-family="Helvetica">0th Const </text>
<text xml:space="preserve" x="542.993" y="48.0586" fill="black" font-size="3.3845" font-family="Helvetica"> 30.5</text>
<text xml:space="preserve" x="540.549" y="48.0586" fill="black" font-size="3.3845" font-family="Times">&#0177;</text>
<text xml:space="preserve" x="530.774" y="48.0586" fill="black" font-size="3.3845" font-family="Helvetica"> 231.5 </text>
<text xml:space="preserve" x="447.69" y="52.1314" fill="black" font-size="3.3845" font-family="Helvetica">0th Mean </text>
<text xml:space="preserve" x="542.993" y="52.1314" fill="black" font-size="3.3845" font-family="Helvetica"> 62.5</text>
<text xml:space="preserve" x="540.549" y="52.1314" fill="black" font-size="3.3845" font-family="Times">&#0177;</text>
<text xml:space="preserve" x="530.774" y="52.1314" fill="black" font-size="3.3845" font-family="Helvetica"> 813.8 </text>
<text xml:space="preserve" x="447.69" y="55.3896" fill="black" font-size="3.3845" font-family="Helvetica">0th Sigma </text>
<text xml:space="preserve" x="542.993" y="55.3896" fill="black" font-size="3.3845" font-family="Helvetica"> 58.2</text>
<text xml:space="preserve" x="540.549" y="55.3896" fill="black" font-size="3.3845" font-family="Times">&#0177;</text>
<text xml:space="preserve" x="530.774" y="55.3896" fill="black" font-size="3.3845" font-family="Helvetica"> 146.6 </text>
<text xml:space="preserve" x="447.69" y="58.6478" fill="black" font-size="3.3845" font-family="Helvetica">1th Const </text>
<text xml:space="preserve" x="541.363" y="58.6478" fill="black" font-size="3.3845" font-family="Helvetica"> 120.0</text>
<text xml:space="preserve" x="538.92" y="58.6478" fill="black" font-size="3.3845" font-family="Times">&#0177;</text>
<text xml:space="preserve" x="529.145" y="58.6478" fill="black" font-size="3.3845" font-family="Helvetica"> 493.7 </text>
<text xml:space="preserve" x="447.69" y="61.9061" fill="black" font-size="3.3845" font-family="Helvetica">1th Mean </text>
<text xml:space="preserve" x="544.622" y="61.9061" fill="black" font-size="3.3845" font-family="Helvetica"> 2.5</text>
<text xml:space="preserve" x="542.178" y="61.9061" fill="black" font-size="3.3845" font-family="Times">&#0177;</text>
<text xml:space="preserve" x="532.403" y="61.9061" fill="black" font-size="3.3845" font-family="Helvetica"> 968.1 </text>
<text xml:space="preserve" x="447.69" y="65.1643" fill="black" font-size="3.3845" font-family="Helvetica">1th Sigma </text>
<text xml:space="preserve" x="542.993" y="65.1643" fill="black" font-size="3.3845" font-family="Helvetica"> 5.20</text>
<text xml:space="preserve" x="540.549" y="65.1643" fill="black" font-size="3.3845" font-family="Times">&#0177;</text>
<text xml:space="preserve" x="530.774" y="65.1643" fill="black" font-size="3.3845" font-family="Helvetica"> 70.94 </text>
<text xml:space="preserve" x="447.69" y="69.237" fill="black" font-size="3.3845" font-family="Helvetica">2th Const </text>
<text xml:space="preserve" x="542.993" y="69.237" fill="black" font-size="3.3845" font-family="Helvetica"> 38.4</text>
<text xml:space="preserve" x="540.549" y="69.237" fill="black" font-size="3.3845" font-family="Times">&#0177;</text>
<text xml:space="preserve" x="530.774" y="69.237" fill="black" font-size="3.3845" font-family="Helvetica"> 279.2 </text>
<text xml:space="preserve" x="447.69" y="72.4952" fill="black" font-size="3.3845" font-family="Helvetica">2th Mean </text>
<text xml:space="preserve" x="542.993" y="72.4952" fill="black" font-size="3.3845" font-family="Helvetica"> 11.3</text>
<text xml:space="preserve" x="540.549" y="72.4952" fill="black" font-size="3.3845" font-family="Times">&#0177;</text>
<text xml:space="preserve" x="530.774" y="72.4952" fill="black" font-size="3.3845" font-family="Helvetica">  1164 </text>
<text xml:space="preserve" x="447.69" y="75.7535" fill="black" font-size="3.3845" font-family="Helvetica">2th Sigma </text>
<text xml:space="preserve" x="542.993" y="75.7535" fill="black" font-size="3.3845" font-family="Helvetica"> 6.14</text>
<text xml:space="preserve" x="540.549" y="75.7535" fill="black" font-size="3.3845" font-family="Times">&#0177;</text>
<text xml:space="preserve" x="530.774" y="75.7535" fill="black" font-size="3.3845" font-family="Helvetica"> 99.35 </text>
<text xml:space="preserve" x="447.69" y="79.0117" fill="black" font-size="3.3845" font-family="Helvetica">3th Const </text>
<text xml:space="preserve" x="545.436" y="79.0117" fill="black" font-size="3.3845" font-family="Helvetica"> 2.1</text>
<text xml:space="preserve" x="542.993" y="79.0117" fill="black" font-size="3.3845" font-family="Times">&#0177;</text>
<text xml:space="preserve" x="533.218" y="79.0117" fill="black" font-size="3.3845" font-family="Helvetica"> 102.3 </text>
<text xml:space="preserve" x="447.69" y="82.2699" fill="black" font-size="3.3845" font-family="Helvetica">3th Mean </text>
<text xml:space="preserve" x="544.622" y="82.2699" fill="black" font-size="3.3845" font-family="Helvetica"> 3.5</text>
<text xml:space="preserve" x="542.178" y="82.2699" fill="black" font-size="3.3845" font-family="Times">&#0177;</text>
<text xml:space="preserve" x="532.403" y="82.2699" fill="black" font-size="3.3845" font-family="Helvetica">  1457 </text>
<text xml:space="preserve" x="447.69" y="86.3427" fill="black" font-size="3.3845" font-family="Helvetica">3th Sigma </text>
<text xml:space="preserve" x="542.993" y="86.3427" fill="black" font-size="3.3845" font-family="Helvetica"> 4.39</text>
<text xml:space="preserve" x="540.549" y="86.3427" fill="black" font-size="3.3845" font-family="Times">&#0177;</text>
<text xml:space="preserve" x="530.774" y="86.3427" fill="black" font-size="3.3845" font-family="Helvetica"> 80.52 </text>
<path d="M57.1929,346.022h 453.543" fill="none" stroke="black"/>
<path d="M57.829,336.795v 9.22726" fill="none" stroke="black"/>
<path d="M79.0325,341.409v 4.61363" fill="none" stroke="black"/>
<path d="M100.236,341.409v 4.61363" fill="none" stroke="black"/>
<path d="M121.44,341.409v 4.61363" fill="none" stroke="black"/>
<path d="M142.643,341.409v 4.61363" fill="none" stroke="black"/>
<path d="M163.847,336.795v 9.22726" fill="none" stroke="black"/>
<path d="M185.05,341.409v 4.61363" fill="none" stroke="black"/>
<path d="M206.254,341.409v 4.61363" fill="none" stroke="black"/>
<path d="M227.457,341.409v 4.61363" fill="none" stroke="black"/>
<path d="M248.661,341.409v 4.61363" fill="none" stroke="black"/>
<path d="M269.864,336.795v 9.22726" fill="none" stroke="black"/>
<path d="M291.068,341.409v 4.61363" fill="none" stroke="black"/>
<path d="M312.271,341.409v 4.61363" fill="none" stroke="black"/>
<path d="M333.475,341.409v 4.61363" fill="none" stroke="black"/>
<path d="M354.678,341.409v 4.61363" fill="none" stroke="black"/>
<path d="M375.882,336.795v 9.22726" fill="none" stroke="black"/>
<path d="M397.085,341.409v 4.61363" fill="none" stroke="black"/>
<path d="M418.289,341.409v 4.61363" fill="none" stroke="black"/>
<path d="M439.492,341.409v 4.61363" fill="none" stroke="black"/>
<path d="M460.696,341.409v 4.61363" fill="none" stroke="black"/>
<path d="M481.899,336.795v 9.22726" fill="none" stroke="black"/>
<path d="M57.829,336.795v 9.22726" fill="none" stroke="black"/>
<path d="M481.899,336.795v 9.22726" fill="none" stroke="black"/>
<path d="M503.103,341.409v 4.61363" fill="none" stroke="black"/>
<text xml:space="preserve" x="54.2605" y="358.403" fill="black" font-size="12.8453" font-family="Helvetica">0</text>
<text xml:space="preserve" x="152.821" y="358.403" fill="black" font-size="12.8453" font-family="Helvetica">500</text>
<text xml:space="preserve" x="255.455" y="358.403" fill="black" font-size="12.8453" font-family="Helvetica">1000</text>
<text xml:space="preserve" x="361.347" y="358.403" fill="black" font-size="12.8453" font-family="Helvetica">1500</text>
<text xml:space="preserve" x="467.239" y="358.403" fill="black" font-size="12.8453" font-family="Helvetica">2000</text>
<text xml:space="preserve" x="451.763" y="372.251" fill="black" font-size="12.8453" font-family="Helvetica">ADC value</text>
<path d="M57.1929,346.022v -307.575" fill="none" stroke="black"/>
<path d="M70.7992,346.022h -13.6063" fill="none" stroke="black"/>
<path d="M63.9961,336.202h -6.80315" fill="none" stroke="black"/>
<path d="M63.9961,326.382h -6.80315" fill="none" stroke="black"/>
<path d="M63.9961,316.562h -6.80315" fill="none" stroke="black"/>
<path d="M63.9961,306.742h -6.80315" fill="none" stroke="black"/>
<path d="M70.7992,296.923h -13.6063" fill="none" stroke="black"/>
<path d="M63.9961,287.103h -6.80315" fill="none" stroke="black"/>
<path d="M63.9961,277.283h -6.80315" fill="none" stroke="black"/>
<path d="M63.9961,267.463h -6.80315" fill="none" stroke="black"/>
<path d="M63.9961,257.643h -6.80315" fill="none" stroke="black"/>
<path d="M70.7992,247.823h -13.6063" fill="none" stroke="black"/>
<path d="M63.9961,238.003h -6.80315" fill="none" stroke="black"/>
<path d="M63.9961,228.183h -6.80315" fill="none" stroke="black"/>
<path d="M63.9961,218.363h -6.80315" fill="none" stroke="black"/>
<path d="M63.9961,208.543h -6.80315" fill="none" stroke="black"/>
<path d="M70.7992,198.723h -13.6063" fill="none" stroke="black"/>
<path d="M63.9961,188.903h -6.80315" fill="none" stroke="black"/>
<path d="M63.9961,179.083h -6.80315" fill="none" stroke="black"/>
<path d="M63.9961,169.263h -6.80315" fill="none" stroke="black"/>
<path d="M63.9961,159.443h -6.80315" fill="none" stroke="black"/>
<path d="M70.7992,149.623h -13.6063" fill="none" stroke="black"/>
<path d="M63.9961,139.803h -6.80315" fill="none" stroke="black"/>
<path d="M63.9961,129.984h -6.80315" fill="none" stroke="black"/>
<path d="M63.9961,120.164h -6.80315" fill="none" stroke="black"/>
<path d="M63.9961,110.344h -6.80315" fill="none" stroke="black"/>
<path d="M70.7992,100.524h -13.6063" fill="none" stroke="black"/>
<path d="M63.9961,90.7037h -6.80315" fill="none" stroke="black"/>
<path d="M63.9961,80.8838h -6.80315" fill="none" stroke="black"/>
<path d="M63.9961,71.0639h -6.80315" fill="none" stroke="black"/>
<path d="M63.9961,61.2439h -6.80315" fill="none" stroke="black"/>
<path d="M70.7992,51.424h -13.6063" fill="none" stroke="black"/>
<path d="M70.7992,51.424h -13.6063" fill="none" stroke="black"/>
<path d="M63.9961,41.604h -6.80315" fill="none" stroke="black"/>
<text xml:space="preserve" x="47.7441" y="350.258" fill="black" font-size="12.8453" font-family="Helvetica">0</text>
<text xml:space="preserve" x="33.8967" y="301.385" fill="black" font-size="12.8453" font-family="Helvetica">500</text>
<text xml:space="preserve" x="27.3803" y="252.512" fill="black" font-size="12.8453" font-family="Helvetica">1000</text>
<text xml:space="preserve" x="27.3803" y="202.824" fill="black" font-size="12.8453" font-family="Helvetica">1500</text>
<text xml:space="preserve" x="27.3803" y="153.951" fill="black" font-size="12.8453" font-family="Helvetica">2000</text>
<text xml:space="preserve" x="27.3803" y="105.077" fill="black" font-size="12.8453" font-family="Helvetica">2500</text>
<text xml:space="preserve" x="27.3803" y="56.2042" fill="black" font-size="12.8453" font-family="Helvetica">3000</text>
<g transform="rotate(-90,14.3474,70.0516)">
<text xml:space="preserve" x="14.3474" y="70.0516" fill="black" font-size="12.8453" font-family="Helvetica">Event</text>
</g>
<rect x="442.705" y="24.9905" width="113.386" height="61.5151" fill="white"/>
<path d="M442.705,86.5056h 113.386" fill="none" stroke="black"/>
<path d="M556.091,86.5056v -61.5151" fill="none" stroke="black"/>
<path d="M556.091,24.9905h -113.386" fill="none" stroke="black"/>
<path d="M442.705,24.9905v 61.5151" fill="none" stroke="black"/>
<text xml:space="preserve" x="492.49" y="27.6948" fill="black" font-size="3.3845" font-family="Helvetica">Am_009</text>
<path d="M442.705,28.408h 113.386" fill="none" stroke="black"/>
<text xml:space="preserve" x="447.69" y="30.953" fill="black" font-size="3.3845" font-family="Helvetica">Entries </text>
<text xml:space="preserve" x="538.105" y="30.953" fill="black" font-size="3.3845" font-family="Helvetica"> 116742</text>
<text xml:space="preserve" x="447.69" y="35.0258" fill="black" font-size="3.3845" font-family="Helvetica">Mean  </text>
<text xml:space="preserve" x="539.734" y="35.0258" fill="black" font-size="3.3845" font-family="Helvetica">   1133</text>
<text xml:space="preserve" x="447.69" y="38.284" fill="black" font-size="3.3845" font-family="Helvetica">Std Dev   </text>
<text xml:space="preserve" x="539.734" y="38.284" fill="black" font-size="3.3845" font-family="Helvetica">  467.5</text>
<text xml:space="preserve" x="451.763" y="41.5422" fill="black" font-size="3.3845" font-family="Helvetica"> / ndf </text>
<text xml:space="preserve" x="450.133" y="39.9131" fill="black" font-size="2.423" font-family="Helvetica">2</text>
<text xml:space="preserve" x="447.69" y="41.5422" fill="black" font-size="3.3845" font-family="Times">&#0967;</text>
<text xml:space="preserve" x="534.032" y="41.5422" fill="black" font-size="3.3845" font-family="Helvetica">   637 / 272</text>
<text xml:space="preserve" x="447.69" y="44.8004" fill="black" font-size="3.3845" font-family="Helvetica">Prob  </text>
<text xml:space="preserve" x="547.065" y="44.8004" fill="black" font-size="3.3845" font-family="Helvetica">31</text>
<text xml:space="preserve" x="545.436" y="44.8004" fill="black" font-size="3.3845" font-family="Times">&#8722;</text>
<text xml:space="preserve" x="534.032" y="44.8004" fill="black" font-size="3.3845" font-family="Helvetica"> 2.507e</text>
<text xml:space="preserve" x="447.69" y="48.0586" fill="black" font-size="3.3845" font-family="Helvetica">0th Const </text>
<text xml:space="preserve" x="542.993" y="48.0586" fill="black" font-size="3.3845" font-family="Helvetica"> 30.5</text>
<text xml:space="preserve" x="540.549" y="48.0586" fill="black" font-size="3.3845" font-family="Times">&#0177;</text>
<text xml:space="preserve" x="530.774" y="48.0586" fill="black" font-size="3.3845" font-family="Helvetica"> 231.5 </text>
<text xml:space="preserve" x="447.69" y="52.1314" fill="black" font-size="3.3845" font-family="Helvetica">0th Mean </text>
<text xml:space="preserve" x="542.993" y="52.1314" fill="black" font-size="3.3845" font-family="Helvetica"> 62.5</text>
<text xml:space="preserve" x="540.549" y="52.1314" fill="black" font-size="3.3845" font-family="Times">&#0177;</text>
<text xml:space="preserve" x="530.774" y="52.1314" fill="black" font-size="3.3845" font-family="Helvetica"> 813.8 </text>
<text xml:space="preserve" x="447.69" y="55.3896" fill="black" font-size="3.3845" font-family="Helvetica">0th Sigma </text>
<text xml:space="preserve" x="542.993" y="55.3896" fill="black" font-size="3.3845" font-family="Helvetica"> 58.2</text>
<text xml:space="preserve" x="540.549" y="55.3896" fill="black" font-size="3.3845" font-family="Times">&#0177;</text>
<text xml:space="preserve" x="530.774" y="55.3896" fill="black" font-size="3.3845" font-family="Helvetica"> 146.6 </text>
<text xml:space="preserve" x="447.69" y="58.6478" fill="black" font-size="3.3845" font-family="Helvetica">1th Const </text>
<text xml:space="preserve" x="541.363" y="58.6478" fill="black" font-size="3.3845" font-family="Helvetica"> 120.0</text>
<text xml:space="preserve" x="538.92" y="58.6478" fill="black" font-size="3.3845" font-family="Times">&#0177;</text>
<text xml:space="preserve" x="529.145" y="58.6478" fill="black" font-size="3.3845" font-family="Helvetica"> 493.7 </text>
<text xml:space="preserve" x="447.69" y="61.9061" fill="black" font-size="3.3845" font-family="Helvetica">1th Mean </text>
<text xml:space="preserve" x="544.622" y="61.9061" fill="black" font-size="3.3845" font-family="Helvetica"> 2.5</text>
<text xml:space="preserve" x="542.178" y="61.9061" fill="black" font-size="3.3845" font-family="Times">&#0177;</text>
<text xml:space="preserve" x="532.403" y="61.9061" fill="black" font-size="3.3845" font-family="Helvetica"> 968.1 </text>
<text xml:space="preserve" x="447.69" y="65.1643" fill="black" font-size="3.3845" font-family="Helvetica">1th Sigma </text>
<text xml:space="preserve" x="542.993" y="65.1643" fill="black" font-size="3.3845" font-family="Helvetica"> 5.20</text>
<text xml:space="preserve" x="540.549" y="65.1643" fill="black" font-size="3.3845" font-family="Times">&#0177;</text>
<text xml:space="preserve" x="530.774" y="65.1643" fill="black" font-size="3.3845" font-family="Helvetica"> 70.94 </text>
<text xml:space="preserve" x="447.69" y="69.237" fill="black" font-size="3.3845" font-family="Helvetica">2th Const </text>
<text xml:space="preserve" x="542.993" y="69.237" fill="black" font-size="3.3845" font-family="Helvetica"> 38.4</text>
<text xml:space="preserve" x="540.549" y="69.237" fill="black" font-size="3.3845" font-family="Times">&#0177;</text>
<text xml:space="preserve" x="530.774" y="69.237" fill="black" font-size="3.3845" font-family="Helvetica"> 279.2 </text>
<text xml:space="preserve" x="447.69" y="72.4952" fill="black" font-size="3.3845" font-family="Helvetica">2th Mean </text>
<text xml:space="preserve" x="542.993" y="72.4952" fill="black" font-size="3.3845" font-family="Helvetica"> 11.3</text>
<text xml:space="preserve" x="540.549" y="72.4952" fill="black" font-size="3.3845" font-family="Times">&#0177;</text>
<text xml:space="preserve" x="530.774" y="72.4952" fill="black" font-size="3.3845" font-family="Helvetica">  1164 </text>
<text xml:space="preserve" x="447.69" y="75.7535" fill="black" font-size="3.3845" font-family="Helvetica">2th Sigma </text>
<text xml:space="preserve" x="542.993" y="75.7535" fill="black" font-size="3.3845" font-family="Helvetica"> 6.14</text>
<text xml:space="preserve" x="540.549" y="75.7535" fill="black" font-size="3.3845" font-family="Times">&#0177;</text>
<text xml:space="preserve" x="530.774" y="75.7535" fill="black" font-size="3.3845" font-family="Helvetica"> 99.35 </text>
<text xml:space="preserve" x="447.69" y="79.0117" fill="black" font-size="3.3845" font-family="Helvetica">3th Const </text>
<text xml:space="preserve" x="545.436" y="79.0117" fill="black" font-size="3.3845" font-family="Helvetica"> 2.1</text>
<text xml:space="preserve" x="542.993" y="79.0117" fill="black" font-size="3.3845" font-family="Times">&#0177;</text>
<text xml:space="preserve" x="533.218" y="79.0117" fill="black" font-size="3.3845" font-family="Helvetica"> 102.3 </text>
<text xml:space="preserve" x="447.69" y="82.2699" fill="black" font-size="3.3845" font-family="Helvetica">3th Mean </text>
<text xml:space="preserve" x="544.622" y="82.2699" fill="black" font-size="3.3845" font-family="Helvetica"> 3.5</text>
<text xml:space="preserve" x="542.178" y="82.2699" fill="black" font-size="3.3845" font-family="Times">&#0177;</text>
<text xml:space="preserve" x="532.403" y="82.2699" fill="black" font-size="3.3845" font-family="Helvetica">  1457 </text>
<text xml:space="preserve" x="447.69" y="86.3427" fill="black" font-size="3.3845" font-family="Helvetica">3th Sigma </text>
<text xml:space="preserve" x="542.993" y="86.3427" fill="black" font-size="3.3845" font-family="Helvetica"> 4.39</text>
<text xml:space="preserve" x="540.549" y="86.3427" fill="black" font-size="3.3845" font-family="Times">&#0177;</text>
<text xml:space="preserve" x="530.774" y="86.3427" fill="black" font-size="3.3845" font-family="Helvetica"> 80.52 </text>
<path d="M207.155,328.775l 1.8023, -0.758084l 1.8023, -0.739493l 1.8023, -0.720336l 1.8023, -0.702611l 1.8023, -0.688809l 1.8023, -0.68193l 1.8023, -0.685445l 1.8023, -0.703208l 1.8023, -0.739295l 1.8023, -0.797763l 1.8023, -0.882331l 1.8023,
 -0.995969l 1.8023, -1.14044l 1.8023, -1.31578l 1.8023, -1.51984l 1.8023, -1.74787l 1.8023, -1.99222l 1.8023, -2.24231l 1.8023, -2.48481l 1.8023, -2.70416l 1.8023, -2.88338l 1.8023, -3.00519l 1.8023, -3.05336l 1.8023, -3.01415l 1.8023, -2.87773l
 1.8023, -2.63945l 1.8023, -2.30075l 1.8023, -1.86961l 1.8023, -1.36043l 1.8023, -0.793346l 1.8023, -0.19298l 1.8023, 0.413267l 1.8023, 0.997218l 1.8023, 1.53202l 1.8023, 1.99414l 1.8023, 2.36504l 1.8023, 2.63242l 1.8023, 2.79085l 1.8023, 2.84183l
 1.8023, 2.79325l 1.8023, 2.65835l 1.8023, 2.4544l 1.8023, 2.20107l 1.8023, 1.91889l 1.8023, 1.62774l 1.8023, 1.34557l 1.8023, 1.08752l 1.8023, 0.865269l 1.8023, 0.686786" fill="none" stroke="#ff0000" stroke-width="2"/>
<path d="M295.467,313.748l 1.8023, 0.556365l 1.8023, 0.47491l 1.8023, 0.440393l 1.8023, 0.448424l 1.8023, 0.492861l 1.8023, 0.566414l 1.8023, 0.661202l 1.8023, 0.769233l 1.8023, 0.882801l 1.8023, 0.994794l 1.8023, 1.09891l 1.8023, 1.18981l 1.8023,
 1.2632l 1.8023, 1.31582l 1.8023, 1.3455l 1.8023, 1.35105l 1.8023, 1.33222l 1.8023, 1.28961l 1.8023, 1.22462l 1.8023, 1.13931l 1.8023, 1.03631l 1.8023, 0.918763l 1.8023, 0.790215l 1.8023, 0.654504l 1.8023, 0.515679l 1.8023, 0.377879l 1.8023,
 0.245228l 1.8023, 0.121705l 1.8023, 0.0110132l 1.8023, -0.0835532l 1.8023, -0.159244l 1.8023, -0.213979l 1.8023, -0.246448l 1.8023, -0.256197l 1.8023, -0.243664l 1.8023, -0.210183l 1.8023, -0.157932l 1.8023, -0.0898379l 1.8023, -0.00943381l 1.8023,
 0.0793185l 1.8023, 0.172235l 1.8023, 0.265128l 1.8023, 0.354018l 1.8023, 0.435338l 1.8023, 0.506092l 1.8023, 0.563984l 1.8023, 0.60749l 1.8023, 0.635878l 1.8023, 0.649182" fill="none" stroke="#ff0000" stroke-width="2"/>
<path d="M383.78,339.855l 1.8023, 0.648127" fill="none" stroke="#ff0000" stroke-width="2"/>
<path d="M207.155,328.824l 1.8023, -0.731311l 1.8023, -0.699667l 1.8023, -0.661999l 1.8023, -0.618469l 1.8023, -0.569326l 1.8023, -0.514901l 1.8023, -0.455608l 1.8023, -0.391936l 1.8023, -0.324445l 1.8023, -0.253758l 1.8023, -0.180548l 1.8023,
 -0.105532l 1.8023, -0.0294557l 1.8023, 0.0469174l 1.8023, 0.122818l 1.8023, 0.197486l 1.8023, 0.27018l 1.8023, 0.340194l 1.8023, 0.406863l 1.8023, 0.46958l 1.8023, 0.5278l 1.8023, 0.58105l 1.8023, 0.628935l 1.8023, 0.671142l 1.8023, 0.707443l
 1.8023, 0.737695l 1.8023, 0.761842l 1.8023, 0.779909l 1.8023, 0.791999l 1.8023, 0.79829l 1.8023, 0.799026l 1.8023, 0.79451l 1.8023, 0.785096l 1.8023, 0.77118l 1.8023, 0.753193l 1.8023, 0.731588l 1.8023, 0.706833l 1.8023, 0.679403l 1.8023, 0.649773l
 1.8023, 0.618405l 1.8023, 0.585749l 1.8023, 0.55223l 1.8023, 0.518248l 1.8023, 0.484173l 1.8023, 0.45034l 1.8023, 0.417047l 1.8023, 0.384558l 1.8023, 0.353097l 1.8023, 0.322853" fill="none" stroke="#ff0000" stroke-width="2"/>
<path d="M295.467,343.484l 1.8023, 0.293976l 1.8023, 0.266585l 1.8023, 0.240765l 1.8023, 0.21657l 1.8023, 0.19403l 1.8023, 0.173147l 1.8023, 0.153904l 1.8023, 0.136266l 1.8023, 0.120181l 1.8023, 0.105586l 1.8023, 0.0924076l 1.8023, 0.0805657l 1.8023,
 0.0699747l 1.8023, 0.0605464l 1.8023, 0.0521915l 1.8023, 0.044821l 1.8023, 0.0383478l 1.8023, 0.0326876l 1.8023, 0.0277596l 1.8023, 0.0234877l 1.8023, 0.0198l 1.8023, 0.0166302l 1.8023, 0.0139167l 1.8023, 0.0116035l 1.8023, 0.00963966l 1.8023,
 0.00797912l 1.8023, 0.0346651h 39.6506" fill="none" stroke="#ff0000" stroke-width="2"/>
<path d="M383.78,346.022h 1.8023" fill="none" stroke="#ff0000" stroke-width="2"/>
<path d="M207.155,345.974l 1.8023, -0.0264775l 1.8023, -0.0393983l 1.8023, -0.0577237l 1.8023, -0.0832663l 1.8023, -0.118245l 1.8023, -0.165293l 1.8023, -0.227421l 1.8023, -0.307934l 1.8023, -0.410272l 1.8023, -0.53778l 1.8023, -0.69338l 1.8023,
 -0.879186l 1.8023, -1.09603l 1.8023, -1.34299l 1.8023, -1.61689l 1.8023, -1.91193l 1.8023, -2.21938l 1.8023, -2.52758l 1.8023, -2.82212l 1.8023, -3.08636l 1.8023, -3.30229l 1.8023, -3.45167l 1.8023, -3.51736l 1.8023, -3.4848l 1.8023, -3.3435l
 1.8023, -3.08829l 1.8023, -2.72028l 1.8023, -2.24733l 1.8023, -1.68401l 1.8023, -1.05087l 1.8023, -0.373313l 1.8023, 0.32019l 1.8023, 1.00002l 1.8023, 1.63751l 1.8023, 2.20701l 1.8023, 2.6875l 1.8023, 3.06394l 1.8023, 3.32795l 1.8023, 3.4779l
 1.8023, 3.5185l 1.8023, 3.4599l 1.8023, 3.31637l 1.8023, 3.1049l 1.8023, 2.84373l 1.8023, 2.55091l 1.8023, 2.24321l 1.8023, 1.93525l 1.8023, 1.63892l 1.8023, 1.36315" fill="none" stroke="#ff0000" stroke-width="2"/>
<path d="M295.467,341.238l 1.8023, 1.11397l 1.8023, 0.894754l 1.8023, 0.706573l 1.8023, 0.548711l 1.8023, 0.419141l 1.8023, 0.314983l 1.8023, 0.232914l 1.8023, 0.169493l 1.8023, 0.121398l 1.8023, 0.0855894l 1.8023, 0.0594054l 1.8023, 0.0405946l
 1.8023, 0.0273138l 1.8023, 0.0180968l 1.8023, 0.031697h 61.2782" fill="none" stroke="#ff0000" stroke-width="2"/>
<path d="M383.78,346.022h 1.8023" fill="none" stroke="#ff0000" stroke-width="2"/>
<path d="M207.155,346.022h 18.023l 1.8023, -0.030761l 1.8023, -0.0112507l 1.8023, -0.014947l 1.8023, -0.0197017l 1.8023, -0.0257639l 1.8023, -0.0334244l 1.8023, -0.0430178l 1.8023, -0.0549221l 1.8023, -0.0695575l 1.8023, -0.0873817l 1.8023,
 -0.108882l 1.8023, -0.134564l 1.8023, -0.164937l 1.8023, -0.200489l 1.8023, -0.24167l 1.8023, -0.288856l 1.8023, -0.342319l 1.8023, -0.40219l 1.8023, -0.468424l 1.8023, -0.540761l 1.8023, -0.618693l 1.8023, -0.701433l 1.8023, -0.787893l 1.8023,
 -0.876673l 1.8023, -0.96606l 1.8023, -1.05404l 1.8023, -1.13835l 1.8023, -1.21649l 1.8023, -1.28583l 1.8023, -1.34365l 1.8023, -1.38728l 1.8023, -1.41418l 1.8023, -1.42204l 1.8023, -1.40895l 1.8023, -1.37341l 1.8023, -1.31454l 1.8023, -1.23205l
 1.8023, -1.12637l 1.8023, -0.998635" fill="none" stroke="#ff0000" stroke-width="2"/>
<path d="M295.467,321.072l 1.8023, -0.850706l 1.8023, -0.685113l 1.8023, -0.504997l 1.8023, -0.314009l 1.8023, -0.116192l 1.8023, 0.0841644l 1.8023, 0.282681l 1.8023, 0.475042l 1.8023, 0.657157l 1.8023, 0.825301l 1.8023, 0.976246l 1.8023, 1.10735l
 1.8023, 1.21666l 1.8023, 1.30291l 1.8023, 1.36557l 1.8023, 1.4048l 1.8023, 1.4214l 1.8023, 1.41677l 1.8023, 1.39278l 1.8023, 1.35166l 1.8023, 1.29593l 1.8023, 1.22826l 1.8023, 1.15135l 1.8023, 1.06786l 1.8023, 0.980301l 1.8023, 0.890996l 1.8023,
 0.801996l 1.8023, 0.715062l 1.8023, 0.631645l 1.8023, 0.552882l 1.8023, 0.479608l 1.8023, 0.412373l 1.8023, 0.351474l 1.8023, 0.29699l 1.8023, 0.248814l 1.8023, 0.206695l 1.8023, 0.170269l 1.8023, 0.1391l 1.8023, 0.1127l 1.8023, 0.0905646l 1.8023,
 0.0721851l 1.8023, 0.0570707l 1.8023, 0.0447583l 1.8023, 0.0348214l 1.8023, 0.026875l 1.8023, 0.0205775l 1.8023, 0.0156313l 1.8023, 0.0117806l 1.8023, 0.0323514" fill="none" stroke="#ff0000" stroke-width="2"/>
<path d="M383.78,346.022h 1.8023" fill="none" stroke="#ff0000" stroke-width="2"/>
<path d="M207.155,346.022h 88.3127" fill="none" stroke="#ff0000" stroke-width="2"/>
<path d="M295.467,346.022h 12.6161l 1.8023, -0.0384602l 1.8023, -0.015934l 1.8023, -0.0216828l 1.8023, -0.0291468l 1.8023, -0.0387008l 1.8023, -0.050753l 1.8023, -0.0657321l 1.8023, -0.0840659l 1.8023, -0.106154l 1.8023, -0.132334l 1.8023, -0.162837l
 1.8023, -0.197748l 1.8023, -0.236952l 1.8023, -0.280088l 1.8023, -0.326515l 1.8023, -0.375275l 1.8023, -0.425083l 1.8023, -0.474333l 1.8023, -0.521136l 1.8023, -0.56337l 1.8023, -0.598776l 1.8023, -0.625066l 1.8023, -0.640051l 1.8023, -0.64179l
 1.8023, -0.628731l 1.8023, -0.599843l 1.8023, -0.554731l 1.8023, -0.493716l 1.8023, -0.417866l 1.8023, -0.328988l 1.8023, -0.229561l 1.8023, -0.122627l 1.8023, -0.0116339l 1.8023, 0.0997458l 1.8023, 0.207819l 1.8023, 0.309075l 1.8023, 0.400373l
 1.8023, 0.479106l 1.8023, 0.543321l 1.8023, 0.591793l 1.8023, 0.624047l 1.8023, 0.640335" fill="none" stroke="#ff0000" stroke-width="2"/>
<path d="M383.78,339.878l 1.8023, 0.641563" fill="none" stroke="#ff0000" stroke-width="2"/>
<text xml:space="preserve" x="250.568" y="18.7347" fill="black" font-size="18.0316" font-family="Helvetica">Am_009</text></svg>
