<?xml version="1.0" standalone="no"?>
<svg width="567.429" height="384.68" viewBox="0 0 567.429 384.68" xmlns="http://www.w3.org/2000/svg" shape-rendering="crispEdges">
<title>
img/week1/high_gain_clb/Am_009_withpara.svg
</title>
<desc>
Creator: ROOT Version 6.22/09
CreationDate: Tue Jul 13 18:41:15 2021</desc>
<defs>
</defs>
<rect x="0.5" y="0" width="566.929" height="384.18" fill="white"/>
<rect x="57.1929" y="38.418" width="453.543" height="307.344" fill="white"/>
<rect x="57.1929" y="38.418" width="453.543" height="307.344" fill="none" stroke="black"/>
<rect x="57.1929" y="38.418" width="453.543" height="307.344" fill="white"/>
<rect x="57.1929" y="38.418" width="453.543" height="307.344" fill="none" stroke="black"/>
<path d="M57.1929,345.762h 66.155v -0.294377h 0.636106v -2.25689h 0.636106v -11.1863h 0.636106v 1.17751h 0.636106v 0.981255h 0.636106v 0.88313h 0.636106v -3.33627h 0.636106v -1.17751h 0.636106v 4.12127h 0.636106v -0.588753h 0.636106v -1.17751h
 0.636106v 1.57001h 0.636106v -1.76626h 0.636106v 0.785004h 0.636106v 0.490628h 0.636106v -1.57001h 0.636106v 0.490628h 0.636106v 1.07938h 0.636106v 1.57001h 0.636106v -0.490628h 0.636106v -1.27563h 0.636106v -0.490628h 0.636106v 2.55126h 0.636106v
 0.0981255h 0.636106v -1.37376h 0.636106v -1.27563h 0.636106v -0.392502h 0.636106v 1.76626h 0.636106v 0.0981255h 0.636106v -2.64939h 0.636106v 0.392502h 0.636106v 2.55126h 0.636106v -1.66813h 0.636106v 0.981255h 0.636106v 0.981255h 0.636106v
 -0.588753h 0.636106v -0.0981255h 0.636106v -0.588753h 0.636106v 0.588753h 0.636106v 0.392502h 0.636106v -0.392502h 0.636106v 0.490628h 0.636106v -0.588753h 0.636106v -0.196251h 0.636106v -1.96251h 0.636106v 0.588753h 0.636106v 1.57001h 0.636106v
 0.785004h 0.636106v -0.392502h 0.636106v -0.88313h 0.636106v 2.45314h 0.636106v -2.06064h 0.636106v -2.45314h 0.636106v 3.82689h 0.636106v -1.07938h 0.636106v -0.0981255h 0.636106v 0.785004h 0.636106v -2.45314h 0.636106v 0.88313h 0.636106v 2.84564h
 0.636106v -3.14002h 0.636106v 0.0981255h 0.636106v 2.06064h 0.636106v -1.37376h 0.636106v 0.88313h 0.636106v -1.47188h 0.636106v 0.196251h 0.636106v 0.0981255h 0.636106v 1.66813h 0.636106v -0.294377h 0.636106v -0.88313h 0.636106v 0.196251h 0.636106v
 1.07938h 0.636106v -1.27563h 0.636106v 0.392502h 0.636106v -0.294377h 0.636106v -1.47188h 0.636106v 1.07938h 0.636106v 1.47188h 0.636106v -0.88313h 0.636106v -0.785004h 0.636106v -1.07938h 0.636106v 3.04189h 0.636106v 0.588753h 0.636106v -1.86438h
 0.636106v -1.37376h 0.636106v 4.02315h 0.636106v -2.74751h 0.636106v -1.47188h 0.636106v -0.0981255h 0.636106v 1.07938h 0.636106v 0.981255h 0.636106v 2.84564h 0.636106v -2.84564h 0.636106v -1.57001h 0.636106v -0.490628h 0.636106v 2.84564h 0.636106v
 1.47188h 0.636106v -3.43439h 0.636106v 1.66813h 0.636106v 0.294377h 0.636106v -0.294377h 0.636106v -0.490628h 0.636106v -0.785004h 0.636106v -0.588753h 0.636106v -0.0981255h 0.636106v 2.74751h 0.636106v -2.15876h 0.636106v -0.490628h 0.636106v
 1.47188h 0.636106v 1.17751h 0.636106v -3.72877h 0.636106v 1.07938h 0.636106v -0.294377h 0.636106v 0.588753h 0.636106v 2.35501h 0.636106v -1.07938h 0.636106v -4.51377h 0.636106v -0.392502h 0.636106v 1.86438h 0.636106v 2.55126h 0.636106v -3.63064h
 0.636106v -0.785004h 0.636106v -1.17751h 0.636106v 3.53252h 0.636106v -1.76626h 0.636106v -2.15876h 0.636106v 0.588753h 0.636106v 1.07938h 0.636106v 0.588753h 0.636106v -1.47188h 0.636106v -1.86438h 0.636106v 1.07938h 0.636106v -0.785004h 0.636106v
 0.0981255h 0.636106v -2.74751h 0.636106v 1.17751h 0.636106v 3.14002h 0.636106v -2.64939h 0.636106v -1.37376h 1.27221v -1.07938h 0.636106v 1.66813h 0.636106v -1.07938h 0.636106v -0.196251h 0.636106v 0.0981255h 0.636106v -1.27563h 0.636106v 1.66813h
 0.636106v -2.35501h 0.636106v -0.0981255h 0.636106v -2.25689h 0.636106v 4.80815h 0.636106v -2.84564h 0.636106v -0.490628h 0.636106v -0.88313h 0.636106v 1.86438h 0.636106v 1.66813h 0.636106v -4.12127h 0.636106v 1.07938h 0.636106v -1.47188h 0.636106v
 0.686879h 0.636106v 4.41565h 0.636106v -5.59315h 0.636106v 1.17751h 0.636106v -1.57001h 0.636106v 3.43439h 0.636106v -4.12127h 0.636106v -0.981255h 0.636106v -3.33627h 0.636106v 4.80815h 0.636106v 0.88313h 0.636106v -5.49503h 0.636106v -1.76626h
 0.636106v -1.66813h 0.636106v 4.90628h 0.636106v 1.17751h 0.636106v -5.98566h 0.636106v -1.07938h 1.27221v 3.23814h 0.636106v 1.27563h 0.636106v -9.81255h 0.636106v 4.2194h 0.636106v -1.47188h 0.636106v 5.88753h 0.636106v -7.06504h 0.636106v
 -0.196251h 0.636106v -4.2194h 0.636106v 5.3969h 0.636106v -2.45314h 0.636106v -5.49503h 0.636106v 0.294377h 0.636106v 1.17751h 0.636106v 3.72877h 0.636106v -9.12567h 0.636106v -3.23814h 0.636106v -0.981255h 0.636106v 6.47628h 0.636106v -2.74751h
 0.636106v -6.96691h 0.636106v 1.86438h 0.636106v -1.37376h 0.636106v 3.23814h 0.636106v -3.14002h 0.636106v -6.57441h 0.636106v 1.76626h 0.636106v 3.04189h 0.636106v 8.63505h 0.636106v -9.02755h 0.636106v -7.94817h 0.636106v 5.29878h 0.636106v
 0.88313h 0.636106v 1.47188h 0.636106v -2.84564h 0.636106v -6.96691h 0.636106v 1.27563h 0.636106v 6.18191h 0.636106v -1.27563h 0.636106v -16.2888h 0.636106v 7.55566h 0.636106v 11.6769h 0.636106v 1.76626h 0.636106v -15.1113h 0.636106v -2.94377h
 0.636106v 7.75192h 0.636106v 13.9338h 0.636106v -7.35941h 0.636106v -7.06504h 0.636106v 1.96251h 0.636106v 10.5976h 0.636106v -0.88313h 0.636106v 2.84564h 0.636106v -10.7938h 0.636106v 1.66813h 0.636106v 11.5788h 0.636106v 1.27563h 0.636106v
 -7.06504h 0.636106v 0.88313h 0.636106v 1.27563h 0.636106v 11.5788h 0.636106v -12.8544h 0.636106v 3.04189h 0.636106v 2.74751h 0.636106v 3.43439h 0.636106v 2.25689h 0.636106v -6.77066h 0.636106v 3.92502h 0.636106v -0.294377h 0.636106v 12.7563h
 0.636106v -3.82689h 0.636106v -8.14442h 0.636106v 1.47188h 0.636106v 9.12567h 0.636106v 2.25689h 0.636106v -4.12127h 0.636106v -1.17751h 0.636106v 1.47188h 0.636106v 3.33627h 0.636106v -0.0981255h 0.636106v -3.23814h 0.636106v -2.06064h 0.636106v
 4.6119h 0.636106v 3.23814h 0.636106v -1.37376h 0.636106v -3.23814h 0.636106v 4.2194h 0.636106v 3.63064h 0.636106v -0.981255h 0.636106v 0.196251h 0.636106v -6.37816h 0.636106v 4.2194h 0.636106v 4.12127h 0.636106v -2.94377h 0.636106v -2.25689h
 0.636106v 0.785004h 0.636106v 3.43439h 0.636106v 3.23814h 0.636106v -8.8313h 0.636106v 2.06064h 0.636106v 1.86438h 0.636106v 1.57001h 0.636106v 0.588753h 0.636106v -3.14002h 0.636106v 0.392502h 0.636106v 1.86438h 0.636106v 1.86438h 0.636106v
 -1.47188h 0.636106v -2.94377h 0.636106v 3.04189h 0.636106v 2.15876h 0.636106v 2.45314h 0.636106v -5.10253h 0.636106v 0.196251h 0.636106v 2.64939h 0.636106v 1.37376h 0.636106v 0.0981255h 0.636106v -3.23814h 0.636106v 0.490628h 0.636106v 3.43439h
 0.636106v -0.0981255h 1.27221v -2.25689h 0.636106v 1.27563h 0.636106v 2.84564h 0.636106v 3.23814h 0.636106v -4.51377h 0.636106v -2.94377h 0.636106v 4.31752h 0.636106v 2.64939h 0.636106v -0.294377h 0.636106v 0.490628h 0.636106v -3.04189h 0.636106v
 5.49503h 0.636106v -1.47188h 0.636106v 0.294377h 0.636106v -0.490628h 0.636106v 0.588753h 0.636106v 2.25689h 0.636106v 0.785004h 0.636106v 0.294377h 0.636106v -2.64939h 0.636106v 2.35501h 0.636106v 3.14002h 0.636106v -4.02315h 0.636106v 0.392502h
 0.636106v 0.88313h 0.636106v 1.17751h 0.636106v 2.06064h 0.636106v -2.06064h 0.636106v 0.294377h 0.636106v 1.96251h 0.636106v 1.66813h 0.636106v -0.981255h 0.636106v 0.392502h 0.636106v -0.294377h 0.636106v 0.196251h 0.636106v 4.2194h 0.636106v
 -4.12127h 0.636106v -0.490628h 0.636106v 0.686879h 0.636106v 2.25689h 0.636106v -0.392502h 0.636106v -0.588753h 1.27221v -2.06064h 0.636106v 1.96251h 0.636106v -0.0981255h 0.636106v 0.490628h 1.27221v 0.196251h 0.636106v -0.490628h 0.636106v
 -0.392502h 0.636106v -0.392502h 0.636106v 2.35501h 0.636106v -0.490628h 0.636106v 0.294377h 0.636106v -0.981255h 1.27221v 0.0981255h 0.636106v 1.37376h 0.636106v -0.490628h 0.636106v -1.47188h 0.636106v -0.392502h 0.636106v 3.33627h 0.636106v
 -1.76626h 0.636106v -2.94377h 0.636106v -1.57001h 0.636106v 3.43439h 0.636106v 1.57001h 0.636106v -3.82689h 0.636106v 1.17751h 0.636106v -1.17751h 0.636106v 2.35501h 0.636106v 0.196251h 0.636106v -0.196251h 0.636106v -1.07938h 0.636106v -0.196251h
 0.636106v -0.392502h 0.636106v 2.25689h 0.636106v -2.94377h 0.636106v -0.196251h 0.636106v 1.07938h 0.636106v 1.96251h 0.636106v -3.92502h 0.636106v 0.686879h 0.636106v 1.37376h 0.636106v 1.96251h 0.636106v -0.981255h 0.636106v -0.588753h 0.636106v
 0.588753h 0.636106v 0.196251h 1.27221v 0.0981255h 0.636106v -1.17751h 0.636106v 0.490628h 0.636106v 2.15876h 0.636106v -0.785004h 0.636106v 0.88313h 0.636106v -0.686879h 1.27221v -0.686879h 0.636106v 2.45314h 0.636106v -1.76626h 0.636106v 0.981255h
 0.636106v 0.88313h 0.636106v -0.392502h 0.636106v 0.981255h 0.636106v 0.88313h 0.636106v -1.47188h 0.636106v 0.294377h 0.636106v 2.06064h 0.636106v -2.15876h 0.636106v -0.490628h 0.636106v 1.07938h 0.636106v 2.45314h 0.636106v -0.981255h 0.636106v
 -0.294377h 0.636106v -0.981255h 0.636106v 1.66813h 0.636106v 0.196251h 0.636106v -0.294377h 1.27221v 0.88313h 0.636106v -0.686879h 0.636106v -0.588753h 0.636106v 0.686879h 0.636106v 0.981255h 0.636106v -0.196251h 0.636106v 0.785004h 0.636106v
 -1.07938h 0.636106v 0.196251h 0.636106v 0.294377h 0.636106v 0.588753h 0.636106v -0.196251h 0.636106v 0.196251h 1.27221v -0.0981255h 0.636106v 0.490628h 0.636106v 0.196251h 0.636106v -0.196251h 0.636106v 0.0981255h 0.636106v -0.88313h 0.636106v
 1.17751h 0.636106v -0.0981255h 0.636106v -0.294377h 0.636106v 0.88313h 0.636106v 0.294377h 1.27221v -0.785004h 0.636106v 0.588753h 0.636106v -0.392502h 0.636106v -0.0981255h 0.636106v -0.0981255h 0.636106v 0.392502h 1.27221v 0.294377h 0.636106v
 -0.196251h 0.636106v -0.196251h 0.636106v 0.392502h 0.636106v -0.196251h 1.27221v -0.196251h 0.636106v 0.785004h 0.636106v -0.196251h 0.636106v -0.686879h 0.636106v 0.392502h 0.636106v -0.0981255h 0.636106v -0.0981255h 0.636106v 0.686879h 0.636106v
 -0.392502h 0.636106v -0.0981255h 0.636106v -0.196251h 0.636106v -0.0981255h 0.636106v -0.196251h 0.636106v 0.686879h 0.636106v 0.392502h 0.636106v -0.490628h 0.636106v -0.0981255h 0.636106v 0.392502h 0.636106v -0.785004h 0.636106v 0.588753h 1.27221v
 -0.196251h 0.636106v 0.294377h 0.636106v -0.196251h 0.636106v -0.490628h 0.636106v 0.196251h 0.636106v 0.785004h 0.636106v -0.588753h 0.636106v -0.294377h 0.636106v 0.490628h 0.636106v -0.294377h 0.636106v 0.490628h 0.636106v -0.196251h 1.27221v
 -0.392502h 1.27221v 0.392502h 1.90832v -0.0981255h 0.636106v 0.392502h 0.636106v -0.196251h 0.636106v -0.588753h 0.636106v 0.0981255h 0.636106v 0.588753h 0.636106v 0.0981255h 0.636106v -0.0981255h 0.636106v -0.196251h 0.636106v 0.0981255h 0.636106v
 -0.0981255h 0.636106v -0.0981255h 0.636106v 0.0981255h 1.27221v -0.294377h 0.636106v 0.0981255h 1.27221v 0.294377h 0.636106v -0.588753h 0.636106v -0.0981255h 0.636106v 0.294377h 0.636106v 0.196251h 0.636106v 0.392502h 0.636106v -0.785004h 0.636106v
 0.294377h 0.636106v -0.196251h 0.636106v 0.196251h 0.636106v 0.490628h 0.636106v -0.196251h 1.27221v -0.294377h 0.636106v 0.392502h 0.636106v -0.294377h 0.636106v -0.294377h 1.27221v 0.0981255h 0.636106v -0.294377h 0.636106v 0.588753h 0.636106v
 -0.490628h 0.636106v -0.0981255h 0.636106v 1.17751h 0.636106v -0.294377h 0.636106v -0.392502h 0.636106v 0.294377h 0.636106v 0.392502h 0.636106v -0.686879h 0.636106v 0.196251h 0.636106v 0.0981255h 1.27221v -0.588753h 0.636106v 0.294377h 0.636106v
 -0.196251h 0.636106v 0.0981255h 0.636106v 0.686879h 0.636106v -0.588753h 0.636106v 0.196251h 0.636106v 0.0981255h 0.636106v -0.294377h 0.636106v 0.196251h 0.636106v 0.196251h 0.636106v -0.294377h 0.636106v -0.0981255h 0.636106v 0.294377h 0.636106v
 -0.0981255h 0.636106v -0.588753h 0.636106v 0.490628h 0.636106v 0.196251h 1.27221v -0.785004h 1.27221v 0.981255h 0.636106v -1.37376h 0.636106v -9.32192h 0.636106v -82.1311h 0.636106v -199.489h 0.636106v 49.7496h 0.636106v 43.0771h 0.636106v 31.4983h
 0.636106v 57.3053h 0.636106v 25.3164h 0.636106v 9.32192h 0.636106v -13.0507h 0.636106v -2.84564h 0.636106v 11.9713h 0.636106v 8.92942h 0.636106v -5.20065h 0.636106v 23.452h 0.636106v 37.2877h 0.636106v 12.9526h 0.636106v 2.15876h 0.636106v
 0.0981255h 0.636106v 0.490628h 0.636106v -0.196251h 0.636106v -0.0981255h 0.636106v 0.490628h 1.90832v -0.0981255h 0.636106v 0.0981255h 6.36106v -0.0981255h 0.636106" fill="none" stroke="#000099"/>
<rect x="442.705" y="24.9717" width="113.386" height="61.4688" fill="white"/>
<path d="M442.705,86.4405h 113.386" fill="none" stroke="black"/>
<path d="M556.091,86.4405v -61.4688" fill="none" stroke="black"/>
<path d="M556.091,24.9717h -113.386" fill="none" stroke="black"/>
<path d="M442.705,24.9717v 61.4688" fill="none" stroke="black"/>
<text xml:space="preserve" x="492.705" y="28.4277" fill="black" font-size="3.95879" font-family="Helvetica">Am_009</text>
<path d="M442.705,29.0696h 113.386" fill="none" stroke="black"/>
<text xml:space="preserve" x="448.033" y="32.4888" fill="black" font-size="3.95879" font-family="Helvetica">Entries </text>
<text xml:space="preserve" x="538.189" y="32.4888" fill="black" font-size="3.95879" font-family="Helvetica"> 116742</text>
<text xml:space="preserve" x="448.033" y="36.5499" fill="black" font-size="3.95879" font-family="Helvetica">Mean  </text>
<text xml:space="preserve" x="539.814" y="36.5499" fill="black" font-size="3.95879" font-family="Helvetica">   1133</text>
<text xml:space="preserve" x="448.033" y="40.611" fill="black" font-size="3.95879" font-family="Helvetica">Std Dev   </text>
<text xml:space="preserve" x="539.814" y="40.611" fill="black" font-size="3.95879" font-family="Helvetica">  467.5</text>
<text xml:space="preserve" x="452.094" y="44.6721" fill="black" font-size="3.95879" font-family="Helvetica"> / ndf </text>
<text xml:space="preserve" x="450.47" y="43.8598" fill="black" font-size="2.80586" font-family="Helvetica">2</text>
<text xml:space="preserve" x="448.033" y="44.6721" fill="black" font-size="3.95879" font-family="Times">&#0967;</text>
<text xml:space="preserve" x="533.316" y="44.6721" fill="black" font-size="3.95879" font-family="Helvetica"> 868.6 / 291</text>
<text xml:space="preserve" x="448.033" y="48.7332" fill="black" font-size="3.95879" font-family="Helvetica">Prob  </text>
<text xml:space="preserve" x="543.875" y="48.7332" fill="black" font-size="3.95879" font-family="Helvetica">     0</text>
<text xml:space="preserve" x="448.033" y="52.7943" fill="black" font-size="3.95879" font-family="Helvetica">0th Const </text>
<text xml:space="preserve" x="544.687" y="52.7943" fill="black" font-size="3.95879" font-family="Helvetica"> 1.4</text>
<text xml:space="preserve" x="542.25" y="52.7943" fill="black" font-size="3.95879" font-family="Times">&#0177;</text>
<text xml:space="preserve" x="533.316" y="52.7943" fill="black" font-size="3.95879" font-family="Helvetica">   600 </text>
<text xml:space="preserve" x="448.033" y="56.8554" fill="black" font-size="3.95879" font-family="Helvetica">0th Mean </text>
<text xml:space="preserve" x="544.687" y="56.8554" fill="black" font-size="3.95879" font-family="Helvetica"> 1.2</text>
<text xml:space="preserve" x="542.25" y="56.8554" fill="black" font-size="3.95879" font-family="Times">&#0177;</text>
<text xml:space="preserve" x="533.316" y="56.8554" fill="black" font-size="3.95879" font-family="Helvetica">   953 </text>
<text xml:space="preserve" x="448.033" y="60.9165" fill="black" font-size="3.95879" font-family="Helvetica">0th Sigma </text>
<text xml:space="preserve" x="543.063" y="60.9165" fill="black" font-size="3.95879" font-family="Helvetica"> 1.65</text>
<text xml:space="preserve" x="540.626" y="60.9165" fill="black" font-size="3.95879" font-family="Times">&#0177;</text>
<text xml:space="preserve" x="530.879" y="60.9165" fill="black" font-size="3.95879" font-family="Helvetica"> 72.59 </text>
<text xml:space="preserve" x="448.033" y="64.9776" fill="black" font-size="3.95879" font-family="Helvetica">1th Const </text>
<text xml:space="preserve" x="544.687" y="64.9776" fill="black" font-size="3.95879" font-family="Helvetica"> 4.9</text>
<text xml:space="preserve" x="542.25" y="64.9776" fill="black" font-size="3.95879" font-family="Times">&#0177;</text>
<text xml:space="preserve" x="532.504" y="64.9776" fill="black" font-size="3.95879" font-family="Helvetica"> 302.6 </text>
<text xml:space="preserve" x="448.033" y="69.0387" fill="black" font-size="3.95879" font-family="Helvetica">1th Mean </text>
<text xml:space="preserve" x="544.687" y="69.0387" fill="black" font-size="3.95879" font-family="Helvetica"> 2.8</text>
<text xml:space="preserve" x="542.25" y="69.0387" fill="black" font-size="3.95879" font-family="Times">&#0177;</text>
<text xml:space="preserve" x="532.504" y="69.0387" fill="black" font-size="3.95879" font-family="Helvetica">  1140 </text>
<text xml:space="preserve" x="448.033" y="73.0997" fill="black" font-size="3.95879" font-family="Helvetica">1th Sigma </text>
<text xml:space="preserve" x="544.687" y="73.0997" fill="black" font-size="3.95879" font-family="Helvetica"> 1.8</text>
<text xml:space="preserve" x="542.25" y="73.0997" fill="black" font-size="3.95879" font-family="Times">&#0177;</text>
<text xml:space="preserve" x="532.504" y="73.0997" fill="black" font-size="3.95879" font-family="Helvetica"> 105.1 </text>
<text xml:space="preserve" x="448.033" y="77.1608" fill="black" font-size="3.95879" font-family="Helvetica">2th Const </text>
<text xml:space="preserve" x="543.063" y="77.1608" fill="black" font-size="3.95879" font-family="Helvetica"> 1.64</text>
<text xml:space="preserve" x="540.626" y="77.1608" fill="black" font-size="3.95879" font-family="Times">&#0177;</text>
<text xml:space="preserve" x="530.879" y="77.1608" fill="black" font-size="3.95879" font-family="Helvetica"> 91.86 </text>
<text xml:space="preserve" x="448.033" y="81.2219" fill="black" font-size="3.95879" font-family="Helvetica">2th Mean </text>
<text xml:space="preserve" x="544.687" y="81.2219" fill="black" font-size="3.95879" font-family="Helvetica"> 3.8</text>
<text xml:space="preserve" x="542.25" y="81.2219" fill="black" font-size="3.95879" font-family="Times">&#0177;</text>
<text xml:space="preserve" x="532.504" y="81.2219" fill="black" font-size="3.95879" font-family="Helvetica">  1450 </text>
<text xml:space="preserve" x="448.033" y="85.283" fill="black" font-size="3.95879" font-family="Helvetica">2th Sigma </text>
<text xml:space="preserve" x="544.687" y="85.283" fill="black" font-size="3.95879" font-family="Helvetica"> 3.0</text>
<text xml:space="preserve" x="542.25" y="85.283" fill="black" font-size="3.95879" font-family="Times">&#0177;</text>
<text xml:space="preserve" x="532.504" y="85.283" fill="black" font-size="3.95879" font-family="Helvetica"> 105.2 </text>
<path d="M57.1929,345.762h 453.543" fill="none" stroke="black"/>
<path d="M57.829,336.541v 9.22031" fill="none" stroke="black"/>
<path d="M79.0325,341.152v 4.61016" fill="none" stroke="black"/>
<path d="M100.236,341.152v 4.61016" fill="none" stroke="black"/>
<path d="M121.44,341.152v 4.61016" fill="none" stroke="black"/>
<path d="M142.643,341.152v 4.61016" fill="none" stroke="black"/>
<path d="M163.847,336.541v 9.22031" fill="none" stroke="black"/>
<path d="M185.05,341.152v 4.61016" fill="none" stroke="black"/>
<path d="M206.254,341.152v 4.61016" fill="none" stroke="black"/>
<path d="M227.457,341.152v 4.61016" fill="none" stroke="black"/>
<path d="M248.661,341.152v 4.61016" fill="none" stroke="black"/>
<path d="M269.864,336.541v 9.22031" fill="none" stroke="black"/>
<path d="M291.068,341.152v 4.61016" fill="none" stroke="black"/>
<path d="M312.271,341.152v 4.61016" fill="none" stroke="black"/>
<path d="M333.475,341.152v 4.61016" fill="none" stroke="black"/>
<path d="M354.678,341.152v 4.61016" fill="none" stroke="black"/>
<path d="M375.882,336.541v 9.22031" fill="none" stroke="black"/>
<path d="M397.085,341.152v 4.61016" fill="none" stroke="black"/>
<path d="M418.289,341.152v 4.61016" fill="none" stroke="black"/>
<path d="M439.492,341.152v 4.61016" fill="none" stroke="black"/>
<path d="M460.696,341.152v 4.61016" fill="none" stroke="black"/>
<path d="M481.899,336.541v 9.22031" fill="none" stroke="black"/>
<path d="M57.829,336.541v 9.22031" fill="none" stroke="black"/>
<path d="M481.899,336.541v 9.22031" fill="none" stroke="black"/>
<path d="M503.103,341.152v 4.61016" fill="none" stroke="black"/>
<text xml:space="preserve" x="54.1065" y="358.189" fill="black" font-size="12.836" font-family="Helvetica">0</text>
<text xml:space="preserve" x="153.197" y="358.189" fill="black" font-size="12.836" font-family="Helvetica">500</text>
<text xml:space="preserve" x="255.537" y="358.189" fill="black" font-size="12.836" font-family="Helvetica">1000</text>
<text xml:space="preserve" x="361.938" y="358.189" fill="black" font-size="12.836" font-family="Helvetica">1500</text>
<text xml:space="preserve" x="467.526" y="358.189" fill="black" font-size="12.836" font-family="Helvetica">2000</text>
<text xml:space="preserve" x="452.094" y="371.996" fill="black" font-size="12.836" font-family="Helvetica">ADC value</text>
<path d="M57.1929,345.762v -307.344" fill="none" stroke="black"/>
<path d="M70.7992,345.762h -13.6063" fill="none" stroke="black"/>
<path d="M63.9961,335.949h -6.80315" fill="none" stroke="black"/>
<path d="M63.9961,326.137h -6.80315" fill="none" stroke="black"/>
<path d="M63.9961,316.324h -6.80315" fill="none" stroke="black"/>
<path d="M63.9961,306.512h -6.80315" fill="none" stroke="black"/>
<path d="M70.7992,296.699h -13.6063" fill="none" stroke="black"/>
<path d="M63.9961,286.887h -6.80315" fill="none" stroke="black"/>
<path d="M63.9961,277.074h -6.80315" fill="none" stroke="black"/>
<path d="M63.9961,267.261h -6.80315" fill="none" stroke="black"/>
<path d="M63.9961,257.449h -6.80315" fill="none" stroke="black"/>
<path d="M70.7992,247.636h -13.6063" fill="none" stroke="black"/>
<path d="M63.9961,237.824h -6.80315" fill="none" stroke="black"/>
<path d="M63.9961,228.011h -6.80315" fill="none" stroke="black"/>
<path d="M63.9961,218.199h -6.80315" fill="none" stroke="black"/>
<path d="M63.9961,208.386h -6.80315" fill="none" stroke="black"/>
<path d="M70.7992,198.574h -13.6063" fill="none" stroke="black"/>
<path d="M63.9961,188.761h -6.80315" fill="none" stroke="black"/>
<path d="M63.9961,178.948h -6.80315" fill="none" stroke="black"/>
<path d="M63.9961,169.136h -6.80315" fill="none" stroke="black"/>
<path d="M63.9961,159.323h -6.80315" fill="none" stroke="black"/>
<path d="M70.7992,149.511h -13.6063" fill="none" stroke="black"/>
<path d="M63.9961,139.698h -6.80315" fill="none" stroke="black"/>
<path d="M63.9961,129.886h -6.80315" fill="none" stroke="black"/>
<path d="M63.9961,120.073h -6.80315" fill="none" stroke="black"/>
<path d="M63.9961,110.261h -6.80315" fill="none" stroke="black"/>
<path d="M70.7992,100.448h -13.6063" fill="none" stroke="black"/>
<path d="M63.9961,90.6355h -6.80315" fill="none" stroke="black"/>
<path d="M63.9961,80.8229h -6.80315" fill="none" stroke="black"/>
<path d="M63.9961,71.0104h -6.80315" fill="none" stroke="black"/>
<path d="M63.9961,61.1978h -6.80315" fill="none" stroke="black"/>
<path d="M70.7992,51.3853h -13.6063" fill="none" stroke="black"/>
<path d="M70.7992,51.3853h -13.6063" fill="none" stroke="black"/>
<path d="M63.9961,41.5727h -6.80315" fill="none" stroke="black"/>
<text xml:space="preserve" x="47.6087" y="350.067" fill="black" font-size="12.836" font-family="Helvetica">0</text>
<text xml:space="preserve" x="33.801" y="301.333" fill="black" font-size="12.836" font-family="Helvetica">500</text>
<text xml:space="preserve" x="27.3032" y="251.788" fill="black" font-size="12.836" font-family="Helvetica">1000</text>
<text xml:space="preserve" x="27.3032" y="203.055" fill="black" font-size="12.836" font-family="Helvetica">1500</text>
<text xml:space="preserve" x="27.3032" y="154.322" fill="black" font-size="12.836" font-family="Helvetica">2000</text>
<text xml:space="preserve" x="27.3032" y="104.776" fill="black" font-size="12.836" font-family="Helvetica">2500</text>
<text xml:space="preserve" x="27.3032" y="56.0431" fill="black" font-size="12.836" font-family="Helvetica">3000</text>
<g transform="rotate(-90,14.3077,69.8509)">
<text xml:space="preserve" x="14.3077" y="69.8509" fill="black" font-size="12.836" font-family="Helvetica">Event</text>
</g>
<rect x="442.705" y="24.9717" width="113.386" height="61.4688" fill="white"/>
<path d="M442.705,86.4405h 113.386" fill="none" stroke="black"/>
<path d="M556.091,86.4405v -61.4688" fill="none" stroke="black"/>
<path d="M556.091,24.9717h -113.386" fill="none" stroke="black"/>
<path d="M442.705,24.9717v 61.4688" fill="none" stroke="black"/>
<text xml:space="preserve" x="492.705" y="28.4277" fill="black" font-size="3.95879" font-family="Helvetica">Am_009</text>
<path d="M442.705,29.0696h 113.386" fill="none" stroke="black"/>
<text xml:space="preserve" x="448.033" y="32.4888" fill="black" font-size="3.95879" font-family="Helvetica">Entries </text>
<text xml:space="preserve" x="538.189" y="32.4888" fill="black" font-size="3.95879" font-family="Helvetica"> 116742</text>
<text xml:space="preserve" x="448.033" y="36.5499" fill="black" font-size="3.95879" font-family="Helvetica">Mean  </text>
<text xml:space="preserve" x="539.814" y="36.5499" fill="black" font-size="3.95879" font-family="Helvetica">   1133</text>
<text xml:space="preserve" x="448.033" y="40.611" fill="black" font-size="3.95879" font-family="Helvetica">Std Dev   </text>
<text xml:space="preserve" x="539.814" y="40.611" fill="black" font-size="3.95879" font-family="Helvetica">  467.5</text>
<text xml:space="preserve" x="452.094" y="44.6721" fill="black" font-size="3.95879" font-family="Helvetica"> / ndf </text>
<text xml:space="preserve" x="450.47" y="43.8598" fill="black" font-size="2.80586" font-family="Helvetica">2</text>
<text xml:space="preserve" x="448.033" y="44.6721" fill="black" font-size="3.95879" font-family="Times">&#0967;</text>
<text xml:space="preserve" x="533.316" y="44.6721" fill="black" font-size="3.95879" font-family="Helvetica"> 868.6 / 291</text>
<text xml:space="preserve" x="448.033" y="48.7332" fill="black" font-size="3.95879" font-family="Helvetica">Prob  </text>
<text xml:space="preserve" x="543.875" y="48.7332" fill="black" font-size="3.95879" font-family="Helvetica">     0</text>
<text xml:space="preserve" x="448.033" y="52.7943" fill="black" font-size="3.95879" font-family="Helvetica">0th Const </text>
<text xml:space="preserve" x="544.687" y="52.7943" fill="black" font-size="3.95879" font-family="Helvetica"> 1.4</text>
<text xml:space="preserve" x="542.25" y="52.7943" fill="black" font-size="3.95879" font-family="Times">&#0177;</text>
<text xml:space="preserve" x="533.316" y="52.7943" fill="black" font-size="3.95879" font-family="Helvetica">   600 </text>
<text xml:space="preserve" x="448.033" y="56.8554" fill="black" font-size="3.95879" font-family="Helvetica">0th Mean </text>
<text xml:space="preserve" x="544.687" y="56.8554" fill="black" font-size="3.95879" font-family="Helvetica"> 1.2</text>
<text xml:space="preserve" x="542.25" y="56.8554" fill="black" font-size="3.95879" font-family="Times">&#0177;</text>
<text xml:space="preserve" x="533.316" y="56.8554" fill="black" font-size="3.95879" font-family="Helvetica">   953 </text>
<text xml:space="preserve" x="448.033" y="60.9165" fill="black" font-size="3.95879" font-family="Helvetica">0th Sigma </text>
<text xml:space="preserve" x="543.063" y="60.9165" fill="black" font-size="3.95879" font-family="Helvetica"> 1.65</text>
<text xml:space="preserve" x="540.626" y="60.9165" fill="black" font-size="3.95879" font-family="Times">&#0177;</text>
<text xml:space="preserve" x="530.879" y="60.9165" fill="black" font-size="3.95879" font-family="Helvetica"> 72.59 </text>
<text xml:space="preserve" x="448.033" y="64.9776" fill="black" font-size="3.95879" font-family="Helvetica">1th Const </text>
<text xml:space="preserve" x="544.687" y="64.9776" fill="black" font-size="3.95879" font-family="Helvetica"> 4.9</text>
<text xml:space="preserve" x="542.25" y="64.9776" fill="black" font-size="3.95879" font-family="Times">&#0177;</text>
<text xml:space="preserve" x="532.504" y="64.9776" fill="black" font-size="3.95879" font-family="Helvetica"> 302.6 </text>
<text xml:space="preserve" x="448.033" y="69.0387" fill="black" font-size="3.95879" font-family="Helvetica">1th Mean </text>
<text xml:space="preserve" x="544.687" y="69.0387" fill="black" font-size="3.95879" font-family="Helvetica"> 2.8</text>
<text xml:space="preserve" x="542.25" y="69.0387" fill="black" font-size="3.95879" font-family="Times">&#0177;</text>
<text xml:space="preserve" x="532.504" y="69.0387" fill="black" font-size="3.95879" font-family="Helvetica">  1140 </text>
<text xml:space="preserve" x="448.033" y="73.0997" fill="black" font-size="3.95879" font-family="Helvetica">1th Sigma </text>
<text xml:space="preserve" x="544.687" y="73.0997" fill="black" font-size="3.95879" font-family="Helvetica"> 1.8</text>
<text xml:space="preserve" x="542.25" y="73.0997" fill="black" font-size="3.95879" font-family="Times">&#0177;</text>
<text xml:space="preserve" x="532.504" y="73.0997" fill="black" font-size="3.95879" font-family="Helvetica"> 105.1 </text>
<text xml:space="preserve" x="448.033" y="77.1608" fill="black" font-size="3.95879" font-family="Helvetica">2th Const </text>
<text xml:space="preserve" x="543.063" y="77.1608" fill="black" font-size="3.95879" font-family="Helvetica"> 1.64</text>
<text xml:space="preserve" x="540.626" y="77.1608" fill="black" font-size="3.95879" font-family="Times">&#0177;</text>
<text xml:space="preserve" x="530.879" y="77.1608" fill="black" font-size="3.95879" font-family="Helvetica"> 91.86 </text>
<text xml:space="preserve" x="448.033" y="81.2219" fill="black" font-size="3.95879" font-family="Helvetica">2th Mean </text>
<text xml:space="preserve" x="544.687" y="81.2219" fill="black" font-size="3.95879" font-family="Helvetica"> 3.8</text>
<text xml:space="preserve" x="542.25" y="81.2219" fill="black" font-size="3.95879" font-family="Times">&#0177;</text>
<text xml:space="preserve" x="532.504" y="81.2219" fill="black" font-size="3.95879" font-family="Helvetica">  1450 </text>
<text xml:space="preserve" x="448.033" y="85.283" fill="black" font-size="3.95879" font-family="Helvetica">2th Sigma </text>
<text xml:space="preserve" x="544.687" y="85.283" fill="black" font-size="3.95879" font-family="Helvetica"> 3.0</text>
<text xml:space="preserve" x="542.25" y="85.283" fill="black" font-size="3.95879" font-family="Times">&#0177;</text>
<text xml:space="preserve" x="532.504" y="85.283" fill="black" font-size="3.95879" font-family="Helvetica"> 105.2 </text>
<path d="M249.615,296.251l 1.90832, -4.17719l 1.90832, -3.7071l 1.90832, -3.11097l 1.90832, -2.41285l 1.90832, -1.64425l 1.90832, -0.841888l 1.90832, -0.0449254l 1.90832, 0.708165l 1.90832, 1.3826l 1.90832, 1.94996l 1.90832, 2.39015l 1.90832,
 2.69262l 1.90832, 2.85656l 1.90832, 2.89027l 1.90832, 2.80974l 1.90832, 2.63671l 1.90832, 2.39638l 1.90832, 2.11511l 1.90832, 1.81828l 1.90832, 1.52855l 1.90832, 1.26457l 1.90832, 1.04023l 1.90832, 0.864386l 1.90832, 0.741076l 1.90832, 0.670036l
 1.90832, 0.647464l 1.90832, 0.666887l 1.90832, 0.720062l 1.90832, 0.797813l 1.90832, 0.890763l 1.90832, 0.989932l 1.90832, 1.08718l 1.90832, 1.17554l 1.90832, 1.24936l 1.90832, 1.30443l 1.90832, 1.33793l 1.90832, 1.34837l 1.90832, 1.33552l 1.90832,
 1.30017l 1.90832, 1.24404l 1.90832, 1.16958l 1.90832, 1.07977l 1.90832, 0.977968l 1.90832, 0.867761l 1.90832, 0.752786l 1.90832, 0.636613l 1.90832, 0.522621l 1.90832, 0.413904l 1.90832, 0.313185" fill="none" stroke="#ff0000" stroke-width="2"/>
<path d="M343.122,335.897l 1.90832, 0.222762l 1.90832, 0.144457l 1.90832, 0.0796008l 1.90832, 0.0290167l 1.90832, -0.00696618l 1.90832, -0.0284923l 1.90832, -0.0361442l 1.90832, -0.0308963l 1.90832, -0.0140585l 1.90832, 0.0127863l 1.90832, 0.0478512l
 1.90832, 0.0892161l 1.90832, 0.1349l 1.90832, 0.18293l 1.90832, 0.231409l 1.90832, 0.278573l 1.90832, 0.322841l 1.90832, 0.362859l 1.90832, 0.397528l 1.90832, 0.42602l 1.90832, 0.447789l 1.90832, 0.46256l 1.90832, 0.470318l 1.90832, 0.471281l
 1.90832, 0.465871l 1.90832, 0.454674l 1.90832, 0.438404l 1.90832, 0.417861l 1.90832, 0.39389l 1.90832, 0.367349l 1.90832, 0.33907l 1.90832, 0.30984l 1.90832, 0.280369l 1.90832, 0.251285l 1.90832, 0.223115l 1.90832, 0.196287l 1.90832, 0.171128l
 1.90832, 0.147868l 1.90832, 0.12665l 1.90832, 0.107537l 1.90832, 0.0905261l 1.90832, 0.0755602l 1.90832, 0.0625386l 1.90832, 0.0513298l 1.90832, 0.0417817l 1.90832, 0.0337304l 1.90832, 0.0270085l 1.90832, 0.0214509l 1.90832, 0.0168995" fill="none"
 stroke="#ff0000" stroke-width="2"/>
<path d="M436.63,345.707l 1.90832, 0.013207" fill="none" stroke="#ff0000" stroke-width="2"/>
<text xml:space="preserve" x="250.664" y="18.681" fill="black" font-size="17.9813" font-family="Helvetica">Am_009</text></svg>
