<?xml version="1.0" standalone="no"?>
<svg width="567.429" height="384.969" viewBox="0 0 567.429 384.969" xmlns="http://www.w3.org/2000/svg" shape-rendering="crispEdges">
<title>
img/week1/high_gain_clb/Am_009.svg
</title>
<desc>
Creator: ROOT Version 6.22/09
CreationDate: Tue Jul 13 19:14:41 2021</desc>
<defs>
</defs>
<rect x="0.5" y="0" width="566.929" height="384.469" fill="white"/>
<rect x="57.1929" y="38.4469" width="453.543" height="307.575" fill="white"/>
<rect x="57.1929" y="38.4469" width="453.543" height="307.575" fill="none" stroke="black"/>
<rect x="57.1929" y="38.4469" width="453.543" height="307.575" fill="white"/>
<rect x="57.1929" y="38.4469" width="453.543" height="307.575" fill="none" stroke="black"/>
<path d="M57.1929,346.022h 66.155v -0.294598h 0.636106v -2.25859h 0.636106v -11.1947h 0.636106v 1.17839h 0.636106v 0.981994h 0.636106v 0.883795h 0.636106v -3.33878h 0.636106v -1.17839h 0.636106v 4.12438h 0.636106v -0.589197h 0.636106v -1.17839h
 0.636106v 1.57119h 0.636106v -1.76759h 0.636106v 0.785595h 0.636106v 0.490997h 0.636106v -1.57119h 0.636106v 0.490997h 0.636106v 1.08019h 0.636106v 1.57119h 0.636106v -0.490997h 0.636106v -1.27659h 0.636106v -0.490997h 0.636106v 2.55318h 0.636106v
 0.0981994h 0.636106v -1.37479h 0.636106v -1.27659h 0.636106v -0.392798h 0.636106v 1.76759h 0.636106v 0.0981994h 0.636106v -2.65138h 0.636106v 0.392798h 0.636106v 2.55318h 0.636106v -1.66939h 0.636106v 0.981994h 0.636106v 0.981994h 0.636106v
 -0.589197h 0.636106v -0.0981994h 0.636106v -0.589197h 0.636106v 0.589197h 0.636106v 0.392798h 0.636106v -0.392798h 0.636106v 0.490997h 0.636106v -0.589197h 0.636106v -0.196399h 0.636106v -1.96399h 0.636106v 0.589197h 0.636106v 1.57119h 0.636106v
 0.785595h 0.636106v -0.392798h 0.636106v -0.883795h 0.636106v 2.45499h 0.636106v -2.06219h 0.636106v -2.45499h 0.636106v 3.82978h 0.636106v -1.08019h 0.636106v -0.0981994h 0.636106v 0.785595h 0.636106v -2.45499h 0.636106v 0.883795h 0.636106v
 2.84778h 0.636106v -3.14238h 0.636106v 0.0981994h 0.636106v 2.06219h 0.636106v -1.37479h 0.636106v 0.883795h 0.636106v -1.47299h 0.636106v 0.196399h 0.636106v 0.0981994h 0.636106v 1.66939h 0.636106v -0.294598h 0.636106v -0.883795h 0.636106v
 0.196399h 0.636106v 1.08019h 0.636106v -1.27659h 0.636106v 0.392798h 0.636106v -0.294598h 0.636106v -1.47299h 0.636106v 1.08019h 0.636106v 1.47299h 0.636106v -0.883795h 0.636106v -0.785595h 0.636106v -1.08019h 0.636106v 3.04418h 0.636106v 0.589197h
 0.636106v -1.86579h 0.636106v -1.37479h 0.636106v 4.02618h 0.636106v -2.74958h 0.636106v -1.47299h 0.636106v -0.0981994h 0.636106v 1.08019h 0.636106v 0.981994h 0.636106v 2.84778h 0.636106v -2.84778h 0.636106v -1.57119h 0.636106v -0.490997h 0.636106v
 2.84778h 0.636106v 1.47299h 0.636106v -3.43698h 0.636106v 1.66939h 0.636106v 0.294598h 0.636106v -0.294598h 0.636106v -0.490997h 0.636106v -0.785595h 0.636106v -0.589197h 0.636106v -0.0981994h 0.636106v 2.74958h 0.636106v -2.16039h 0.636106v
 -0.490997h 0.636106v 1.47299h 0.636106v 1.17839h 0.636106v -3.73158h 0.636106v 1.08019h 0.636106v -0.294598h 0.636106v 0.589197h 0.636106v 2.35679h 0.636106v -1.08019h 0.636106v -4.51717h 0.636106v -0.392798h 0.636106v 1.86579h 0.636106v 2.55318h
 0.636106v -3.63338h 0.636106v -0.785595h 0.636106v -1.17839h 0.636106v 3.53518h 0.636106v -1.76759h 0.636106v -2.16039h 0.636106v 0.589197h 0.636106v 1.08019h 0.636106v 0.589197h 0.636106v -1.47299h 0.636106v -1.86579h 0.636106v 1.08019h 0.636106v
 -0.785595h 0.636106v 0.0981994h 0.636106v -2.74958h 0.636106v 1.17839h 0.636106v 3.14238h 0.636106v -2.65138h 0.636106v -1.37479h 1.27221v -1.08019h 0.636106v 1.66939h 0.636106v -1.08019h 0.636106v -0.196399h 0.636106v 0.0981994h 0.636106v -1.27659h
 0.636106v 1.66939h 0.636106v -2.35679h 0.636106v -0.0981994h 0.636106v -2.25859h 0.636106v 4.81177h 0.636106v -2.84778h 0.636106v -0.490997h 0.636106v -0.883795h 0.636106v 1.86579h 0.636106v 1.66939h 0.636106v -4.12438h 0.636106v 1.08019h 0.636106v
 -1.47299h 0.636106v 0.687396h 0.636106v 4.41897h 0.636106v -5.59737h 0.636106v 1.17839h 0.636106v -1.57119h 0.636106v 3.43698h 0.636106v -4.12438h 0.636106v -0.981994h 0.636106v -3.33878h 0.636106v 4.81177h 0.636106v 0.883795h 0.636106v -5.49917h
 0.636106v -1.76759h 0.636106v -1.66939h 0.636106v 4.90997h 0.636106v 1.17839h 0.636106v -5.99017h 0.636106v -1.08019h 1.27221v 3.24058h 0.636106v 1.27659h 0.636106v -9.81994h 0.636106v 4.22258h 0.636106v -1.47299h 0.636106v 5.89197h 0.636106v
 -7.07036h 0.636106v -0.196399h 0.636106v -4.22258h 0.636106v 5.40097h 0.636106v -2.45499h 0.636106v -5.49917h 0.636106v 0.294598h 0.636106v 1.17839h 0.636106v 3.73158h 0.636106v -9.13255h 0.636106v -3.24058h 0.636106v -0.981994h 0.636106v 6.48116h
 0.636106v -2.74958h 0.636106v -6.97216h 0.636106v 1.86579h 0.636106v -1.37479h 0.636106v 3.24058h 0.636106v -3.14238h 0.636106v -6.57936h 0.636106v 1.76759h 0.636106v 3.04418h 0.636106v 8.64155h 0.636106v -9.03435h 0.636106v -7.95415h 0.636106v
 5.30277h 0.636106v 0.883795h 0.636106v 1.47299h 0.636106v -2.84778h 0.636106v -6.97216h 0.636106v 1.27659h 0.636106v 6.18656h 0.636106v -1.27659h 0.636106v -16.3011h 0.636106v 7.56136h 0.636106v 11.6857h 0.636106v 1.76759h 0.636106v -15.1227h
 0.636106v -2.94598h 0.636106v 7.75775h 0.636106v 13.9443h 0.636106v -7.36496h 0.636106v -7.07036h 0.636106v 1.96399h 0.636106v 10.6055h 0.636106v -0.883795h 0.636106v 2.84778h 0.636106v -10.8019h 0.636106v 1.66939h 0.636106v 11.5875h 0.636106v
 1.27659h 0.636106v -7.07036h 0.636106v 0.883795h 0.636106v 1.27659h 0.636106v 11.5875h 0.636106v -12.8641h 0.636106v 3.04418h 0.636106v 2.74958h 0.636106v 3.43698h 0.636106v 2.25859h 0.636106v -6.77576h 0.636106v 3.92798h 0.636106v -0.294598h
 0.636106v 12.7659h 0.636106v -3.82978h 0.636106v -8.15055h 0.636106v 1.47299h 0.636106v 9.13255h 0.636106v 2.25859h 0.636106v -4.12438h 0.636106v -1.17839h 0.636106v 1.47299h 0.636106v 3.33878h 0.636106v -0.0981994h 0.636106v -3.24058h 0.636106v
 -2.06219h 0.636106v 4.61537h 0.636106v 3.24058h 0.636106v -1.37479h 0.636106v -3.24058h 0.636106v 4.22258h 0.636106v 3.63338h 0.636106v -0.981994h 0.636106v 0.196399h 0.636106v -6.38296h 0.636106v 4.22258h 0.636106v 4.12438h 0.636106v -2.94598h
 0.636106v -2.25859h 0.636106v 0.785595h 0.636106v 3.43698h 0.636106v 3.24058h 0.636106v -8.83795h 0.636106v 2.06219h 0.636106v 1.86579h 0.636106v 1.57119h 0.636106v 0.589197h 0.636106v -3.14238h 0.636106v 0.392798h 0.636106v 1.86579h 0.636106v
 1.86579h 0.636106v -1.47299h 0.636106v -2.94598h 0.636106v 3.04418h 0.636106v 2.16039h 0.636106v 2.45499h 0.636106v -5.10637h 0.636106v 0.196399h 0.636106v 2.65138h 0.636106v 1.37479h 0.636106v 0.0981994h 0.636106v -3.24058h 0.636106v 0.490997h
 0.636106v 3.43698h 0.636106v -0.0981994h 1.27221v -2.25859h 0.636106v 1.27659h 0.636106v 2.84778h 0.636106v 3.24058h 0.636106v -4.51717h 0.636106v -2.94598h 0.636106v 4.32077h 0.636106v 2.65138h 0.636106v -0.294598h 0.636106v 0.490997h 0.636106v
 -3.04418h 0.636106v 5.49917h 0.636106v -1.47299h 0.636106v 0.294598h 0.636106v -0.490997h 0.636106v 0.589197h 0.636106v 2.25859h 0.636106v 0.785595h 0.636106v 0.294598h 0.636106v -2.65138h 0.636106v 2.35679h 0.636106v 3.14238h 0.636106v -4.02618h
 0.636106v 0.392798h 0.636106v 0.883795h 0.636106v 1.17839h 0.636106v 2.06219h 0.636106v -2.06219h 0.636106v 0.294598h 0.636106v 1.96399h 0.636106v 1.66939h 0.636106v -0.981994h 0.636106v 0.392798h 0.636106v -0.294598h 0.636106v 0.196399h 0.636106v
 4.22258h 0.636106v -4.12438h 0.636106v -0.490997h 0.636106v 0.687396h 0.636106v 2.25859h 0.636106v -0.392798h 0.636106v -0.589197h 1.27221v -2.06219h 0.636106v 1.96399h 0.636106v -0.0981994h 0.636106v 0.490997h 1.27221v 0.196399h 0.636106v
 -0.490997h 0.636106v -0.392798h 0.636106v -0.392798h 0.636106v 2.35679h 0.636106v -0.490997h 0.636106v 0.294598h 0.636106v -0.981994h 1.27221v 0.0981994h 0.636106v 1.37479h 0.636106v -0.490997h 0.636106v -1.47299h 0.636106v -0.392798h 0.636106v
 3.33878h 0.636106v -1.76759h 0.636106v -2.94598h 0.636106v -1.57119h 0.636106v 3.43698h 0.636106v 1.57119h 0.636106v -3.82978h 0.636106v 1.17839h 0.636106v -1.17839h 0.636106v 2.35679h 0.636106v 0.196399h 0.636106v -0.196399h 0.636106v -1.08019h
 0.636106v -0.196399h 0.636106v -0.392798h 0.636106v 2.25859h 0.636106v -2.94598h 0.636106v -0.196399h 0.636106v 1.08019h 0.636106v 1.96399h 0.636106v -3.92798h 0.636106v 0.687396h 0.636106v 1.37479h 0.636106v 1.96399h 0.636106v -0.981994h 0.636106v
 -0.589197h 0.636106v 0.589197h 0.636106v 0.196399h 1.27221v 0.0981994h 0.636106v -1.17839h 0.636106v 0.490997h 0.636106v 2.16039h 0.636106v -0.785595h 0.636106v 0.883795h 0.636106v -0.687396h 1.27221v -0.687396h 0.636106v 2.45499h 0.636106v
 -1.76759h 0.636106v 0.981994h 0.636106v 0.883795h 0.636106v -0.392798h 0.636106v 0.981994h 0.636106v 0.883795h 0.636106v -1.47299h 0.636106v 0.294598h 0.636106v 2.06219h 0.636106v -2.16039h 0.636106v -0.490997h 0.636106v 1.08019h 0.636106v 2.45499h
 0.636106v -0.981994h 0.636106v -0.294598h 0.636106v -0.981994h 0.636106v 1.66939h 0.636106v 0.196399h 0.636106v -0.294598h 1.27221v 0.883795h 0.636106v -0.687396h 0.636106v -0.589197h 0.636106v 0.687396h 0.636106v 0.981994h 0.636106v -0.196399h
 0.636106v 0.785595h 0.636106v -1.08019h 0.636106v 0.196399h 0.636106v 0.294598h 0.636106v 0.589197h 0.636106v -0.196399h 0.636106v 0.196399h 1.27221v -0.0981994h 0.636106v 0.490997h 0.636106v 0.196399h 0.636106v -0.196399h 0.636106v 0.0981994h
 0.636106v -0.883795h 0.636106v 1.17839h 0.636106v -0.0981994h 0.636106v -0.294598h 0.636106v 0.883795h 0.636106v 0.294598h 1.27221v -0.785595h 0.636106v 0.589197h 0.636106v -0.392798h 0.636106v -0.0981994h 0.636106v -0.0981994h 0.636106v 0.392798h
 1.27221v 0.294598h 0.636106v -0.196399h 0.636106v -0.196399h 0.636106v 0.392798h 0.636106v -0.196399h 1.27221v -0.196399h 0.636106v 0.785595h 0.636106v -0.196399h 0.636106v -0.687396h 0.636106v 0.392798h 0.636106v -0.0981994h 0.636106v -0.0981994h
 0.636106v 0.687396h 0.636106v -0.392798h 0.636106v -0.0981994h 0.636106v -0.196399h 0.636106v -0.0981994h 0.636106v -0.196399h 0.636106v 0.687396h 0.636106v 0.392798h 0.636106v -0.490997h 0.636106v -0.0981994h 0.636106v 0.392798h 0.636106v
 -0.785595h 0.636106v 0.589197h 1.27221v -0.196399h 0.636106v 0.294598h 0.636106v -0.196399h 0.636106v -0.490997h 0.636106v 0.196399h 0.636106v 0.785595h 0.636106v -0.589197h 0.636106v -0.294598h 0.636106v 0.490997h 0.636106v -0.294598h 0.636106v
 0.490997h 0.636106v -0.196399h 1.27221v -0.392798h 1.27221v 0.392798h 1.90832v -0.0981994h 0.636106v 0.392798h 0.636106v -0.196399h 0.636106v -0.589197h 0.636106v 0.0981994h 0.636106v 0.589197h 0.636106v 0.0981994h 0.636106v -0.0981994h 0.636106v
 -0.196399h 0.636106v 0.0981994h 0.636106v -0.0981994h 0.636106v -0.0981994h 0.636106v 0.0981994h 1.27221v -0.294598h 0.636106v 0.0981994h 1.27221v 0.294598h 0.636106v -0.589197h 0.636106v -0.0981994h 0.636106v 0.294598h 0.636106v 0.196399h 0.636106v
 0.392798h 0.636106v -0.785595h 0.636106v 0.294598h 0.636106v -0.196399h 0.636106v 0.196399h 0.636106v 0.490997h 0.636106v -0.196399h 1.27221v -0.294598h 0.636106v 0.392798h 0.636106v -0.294598h 0.636106v -0.294598h 1.27221v 0.0981994h 0.636106v
 -0.294598h 0.636106v 0.589197h 0.636106v -0.490997h 0.636106v -0.0981994h 0.636106v 1.17839h 0.636106v -0.294598h 0.636106v -0.392798h 0.636106v 0.294598h 0.636106v 0.392798h 0.636106v -0.687396h 0.636106v 0.196399h 0.636106v 0.0981994h 1.27221v
 -0.589197h 0.636106v 0.294598h 0.636106v -0.196399h 0.636106v 0.0981994h 0.636106v 0.687396h 0.636106v -0.589197h 0.636106v 0.196399h 0.636106v 0.0981994h 0.636106v -0.294598h 0.636106v 0.196399h 0.636106v 0.196399h 0.636106v -0.294598h 0.636106v
 -0.0981994h 0.636106v 0.294598h 0.636106v -0.0981994h 0.636106v -0.589197h 0.636106v 0.490997h 0.636106v 0.196399h 1.27221v -0.785595h 1.27221v 0.981994h 0.636106v -1.37479h 0.636106v -9.32895h 0.636106v -82.1929h 0.636106v -199.639h 0.636106v
 49.7871h 0.636106v 43.1095h 0.636106v 31.522h 0.636106v 57.3485h 0.636106v 25.3355h 0.636106v 9.32895h 0.636106v -13.0605h 0.636106v -2.84778h 0.636106v 11.9803h 0.636106v 8.93615h 0.636106v -5.20457h 0.636106v 23.4697h 0.636106v 37.3158h 0.636106v
 12.9623h 0.636106v 2.16039h 0.636106v 0.0981994h 0.636106v 0.490997h 0.636106v -0.196399h 0.636106v -0.0981994h 0.636106v 0.490997h 1.90832v -0.0981994h 0.636106v 0.0981994h 6.36106v -0.0981994h 0.636106" fill="none" stroke="#000099"/>
<rect x="442.705" y="24.9905" width="113.386" height="61.5151" fill="white"/>
<path d="M442.705,86.5056h 113.386" fill="none" stroke="black"/>
<path d="M556.091,86.5056v -61.5151" fill="none" stroke="black"/>
<path d="M556.091,24.9905h -113.386" fill="none" stroke="black"/>
<path d="M442.705,24.9905v 61.5151" fill="none" stroke="black"/>
<text xml:space="preserve" x="474.57" y="36.6549" fill="black" font-size="13.4802" font-family="Helvetica">Am_009</text>
<path d="M442.705,40.3693h 113.386" fill="none" stroke="black"/>
<text xml:space="preserve" x="447.69" y="52.946" fill="black" font-size="12.3904" font-family="Helvetica">Entries </text>
<text xml:space="preserve" x="506.338" y="52.946" fill="black" font-size="12.3904" font-family="Helvetica"> 116742</text>
<text xml:space="preserve" x="447.69" y="67.6079" fill="black" font-size="12.3904" font-family="Helvetica">Mean  </text>
<text xml:space="preserve" x="512.854" y="67.6079" fill="black" font-size="12.3904" font-family="Helvetica">   1133</text>
<text xml:space="preserve" x="447.69" y="83.0844" fill="black" font-size="12.3904" font-family="Helvetica">Std Dev   </text>
<text xml:space="preserve" x="512.854" y="83.0844" fill="black" font-size="12.3904" font-family="Helvetica">  467.5</text>
<path d="M57.1929,346.022h 453.543" fill="none" stroke="black"/>
<path d="M57.829,336.795v 9.22726" fill="none" stroke="black"/>
<path d="M79.0325,341.409v 4.61363" fill="none" stroke="black"/>
<path d="M100.236,341.409v 4.61363" fill="none" stroke="black"/>
<path d="M121.44,341.409v 4.61363" fill="none" stroke="black"/>
<path d="M142.643,341.409v 4.61363" fill="none" stroke="black"/>
<path d="M163.847,336.795v 9.22726" fill="none" stroke="black"/>
<path d="M185.05,341.409v 4.61363" fill="none" stroke="black"/>
<path d="M206.254,341.409v 4.61363" fill="none" stroke="black"/>
<path d="M227.457,341.409v 4.61363" fill="none" stroke="black"/>
<path d="M248.661,341.409v 4.61363" fill="none" stroke="black"/>
<path d="M269.864,336.795v 9.22726" fill="none" stroke="black"/>
<path d="M291.068,341.409v 4.61363" fill="none" stroke="black"/>
<path d="M312.271,341.409v 4.61363" fill="none" stroke="black"/>
<path d="M333.475,341.409v 4.61363" fill="none" stroke="black"/>
<path d="M354.678,341.409v 4.61363" fill="none" stroke="black"/>
<path d="M375.882,336.795v 9.22726" fill="none" stroke="black"/>
<path d="M397.085,341.409v 4.61363" fill="none" stroke="black"/>
<path d="M418.289,341.409v 4.61363" fill="none" stroke="black"/>
<path d="M439.492,341.409v 4.61363" fill="none" stroke="black"/>
<path d="M460.696,341.409v 4.61363" fill="none" stroke="black"/>
<path d="M481.899,336.795v 9.22726" fill="none" stroke="black"/>
<path d="M57.829,336.795v 9.22726" fill="none" stroke="black"/>
<path d="M481.899,336.795v 9.22726" fill="none" stroke="black"/>
<path d="M503.103,341.409v 4.61363" fill="none" stroke="black"/>
<text xml:space="preserve" x="54.2605" y="358.403" fill="black" font-size="12.8453" font-family="Helvetica">0</text>
<text xml:space="preserve" x="152.821" y="358.403" fill="black" font-size="12.8453" font-family="Helvetica">500</text>
<text xml:space="preserve" x="255.455" y="358.403" fill="black" font-size="12.8453" font-family="Helvetica">1000</text>
<text xml:space="preserve" x="361.347" y="358.403" fill="black" font-size="12.8453" font-family="Helvetica">1500</text>
<text xml:space="preserve" x="467.239" y="358.403" fill="black" font-size="12.8453" font-family="Helvetica">2000</text>
<text xml:space="preserve" x="451.763" y="372.251" fill="black" font-size="12.8453" font-family="Helvetica">ADC value</text>
<path d="M57.1929,346.022v -307.575" fill="none" stroke="black"/>
<path d="M70.7992,346.022h -13.6063" fill="none" stroke="black"/>
<path d="M63.9961,336.202h -6.80315" fill="none" stroke="black"/>
<path d="M63.9961,326.382h -6.80315" fill="none" stroke="black"/>
<path d="M63.9961,316.562h -6.80315" fill="none" stroke="black"/>
<path d="M63.9961,306.742h -6.80315" fill="none" stroke="black"/>
<path d="M70.7992,296.923h -13.6063" fill="none" stroke="black"/>
<path d="M63.9961,287.103h -6.80315" fill="none" stroke="black"/>
<path d="M63.9961,277.283h -6.80315" fill="none" stroke="black"/>
<path d="M63.9961,267.463h -6.80315" fill="none" stroke="black"/>
<path d="M63.9961,257.643h -6.80315" fill="none" stroke="black"/>
<path d="M70.7992,247.823h -13.6063" fill="none" stroke="black"/>
<path d="M63.9961,238.003h -6.80315" fill="none" stroke="black"/>
<path d="M63.9961,228.183h -6.80315" fill="none" stroke="black"/>
<path d="M63.9961,218.363h -6.80315" fill="none" stroke="black"/>
<path d="M63.9961,208.543h -6.80315" fill="none" stroke="black"/>
<path d="M70.7992,198.723h -13.6063" fill="none" stroke="black"/>
<path d="M63.9961,188.903h -6.80315" fill="none" stroke="black"/>
<path d="M63.9961,179.083h -6.80315" fill="none" stroke="black"/>
<path d="M63.9961,169.263h -6.80315" fill="none" stroke="black"/>
<path d="M63.9961,159.443h -6.80315" fill="none" stroke="black"/>
<path d="M70.7992,149.623h -13.6063" fill="none" stroke="black"/>
<path d="M63.9961,139.803h -6.80315" fill="none" stroke="black"/>
<path d="M63.9961,129.984h -6.80315" fill="none" stroke="black"/>
<path d="M63.9961,120.164h -6.80315" fill="none" stroke="black"/>
<path d="M63.9961,110.344h -6.80315" fill="none" stroke="black"/>
<path d="M70.7992,100.524h -13.6063" fill="none" stroke="black"/>
<path d="M63.9961,90.7037h -6.80315" fill="none" stroke="black"/>
<path d="M63.9961,80.8838h -6.80315" fill="none" stroke="black"/>
<path d="M63.9961,71.0639h -6.80315" fill="none" stroke="black"/>
<path d="M63.9961,61.2439h -6.80315" fill="none" stroke="black"/>
<path d="M70.7992,51.424h -13.6063" fill="none" stroke="black"/>
<path d="M70.7992,51.424h -13.6063" fill="none" stroke="black"/>
<path d="M63.9961,41.604h -6.80315" fill="none" stroke="black"/>
<text xml:space="preserve" x="47.7441" y="350.258" fill="black" font-size="12.8453" font-family="Helvetica">0</text>
<text xml:space="preserve" x="33.8967" y="301.385" fill="black" font-size="12.8453" font-family="Helvetica">500</text>
<text xml:space="preserve" x="27.3803" y="252.512" fill="black" font-size="12.8453" font-family="Helvetica">1000</text>
<text xml:space="preserve" x="27.3803" y="202.824" fill="black" font-size="12.8453" font-family="Helvetica">1500</text>
<text xml:space="preserve" x="27.3803" y="153.951" fill="black" font-size="12.8453" font-family="Helvetica">2000</text>
<text xml:space="preserve" x="27.3803" y="105.077" fill="black" font-size="12.8453" font-family="Helvetica">2500</text>
<text xml:space="preserve" x="27.3803" y="56.2042" fill="black" font-size="12.8453" font-family="Helvetica">3000</text>
<g transform="rotate(-90,14.3474,70.0516)">
<text xml:space="preserve" x="14.3474" y="70.0516" fill="black" font-size="12.8453" font-family="Helvetica">Event</text>
</g>
<rect x="442.705" y="24.9905" width="113.386" height="61.5151" fill="white"/>
<path d="M442.705,86.5056h 113.386" fill="none" stroke="black"/>
<path d="M556.091,86.5056v -61.5151" fill="none" stroke="black"/>
<path d="M556.091,24.9905h -113.386" fill="none" stroke="black"/>
<path d="M442.705,24.9905v 61.5151" fill="none" stroke="black"/>
<text xml:space="preserve" x="474.57" y="36.6549" fill="black" font-size="13.4802" font-family="Helvetica">Am_009</text>
<path d="M442.705,40.3693h 113.386" fill="none" stroke="black"/>
<text xml:space="preserve" x="447.69" y="52.946" fill="black" font-size="12.3904" font-family="Helvetica">Entries </text>
<text xml:space="preserve" x="506.338" y="52.946" fill="black" font-size="12.3904" font-family="Helvetica"> 116742</text>
<text xml:space="preserve" x="447.69" y="67.6079" fill="black" font-size="12.3904" font-family="Helvetica">Mean  </text>
<text xml:space="preserve" x="512.854" y="67.6079" fill="black" font-size="12.3904" font-family="Helvetica">   1133</text>
<text xml:space="preserve" x="447.69" y="83.0844" fill="black" font-size="12.3904" font-family="Helvetica">Std Dev   </text>
<text xml:space="preserve" x="512.854" y="83.0844" fill="black" font-size="12.3904" font-family="Helvetica">  467.5</text>
<path d="M249.615,296.474l 1.90832, -4.18034l 1.90832, -3.70989l 1.90832, -3.11332l 1.90832, -2.41467l 1.90832, -1.64548l 1.90832, -0.842522l 1.90832, -0.0449593l 1.90832, 0.708698l 1.90832, 1.38364l 1.90832, 1.95143l 1.90832, 2.39195l 1.90832,
 2.69465l 1.90832, 2.85871l 1.90832, 2.89245l 1.90832, 2.81186l 1.90832, 2.6387l 1.90832, 2.39819l 1.90832, 2.1167l 1.90832, 1.81965l 1.90832, 1.5297l 1.90832, 1.26552l 1.90832, 1.04101l 1.90832, 0.865037l 1.90832, 0.741634l 1.90832, 0.670541l
 1.90832, 0.647952l 1.90832, 0.66739l 1.90832, 0.720605l 1.90832, 0.798414l 1.90832, 0.891434l 1.90832, 0.990678l 1.90832, 1.088l 1.90832, 1.17643l 1.90832, 1.25031l 1.90832, 1.30541l 1.90832, 1.33893l 1.90832, 1.34939l 1.90832, 1.33652l 1.90832,
 1.30115l 1.90832, 1.24498l 1.90832, 1.17046l 1.90832, 1.08058l 1.90832, 0.978704l 1.90832, 0.868414l 1.90832, 0.753353l 1.90832, 0.637092l 1.90832, 0.523015l 1.90832, 0.414216l 1.90832, 0.313421" fill="none" stroke="#ff0000" stroke-width="2"/>
<path d="M343.122,336.15l 1.90832, 0.222929l 1.90832, 0.144566l 1.90832, 0.0796608l 1.90832, 0.0290386l 1.90832, -0.00697143l 1.90832, -0.0285138l 1.90832, -0.0361715l 1.90832, -0.0309195l 1.90832, -0.0140691l 1.90832, 0.0127959l 1.90832, 0.0478872l
 1.90832, 0.0892833l 1.90832, 0.135002l 1.90832, 0.183068l 1.90832, 0.231584l 1.90832, 0.278783l 1.90832, 0.323084l 1.90832, 0.363132l 1.90832, 0.397827l 1.90832, 0.426341l 1.90832, 0.448126l 1.90832, 0.462908l 1.90832, 0.470672l 1.90832, 0.471636l
 1.90832, 0.466222l 1.90832, 0.455017l 1.90832, 0.438734l 1.90832, 0.418175l 1.90832, 0.394187l 1.90832, 0.367625l 1.90832, 0.339326l 1.90832, 0.310073l 1.90832, 0.28058l 1.90832, 0.251474l 1.90832, 0.223283l 1.90832, 0.196435l 1.90832, 0.171257l
 1.90832, 0.147979l 1.90832, 0.126745l 1.90832, 0.107618l 1.90832, 0.0905943l 1.90832, 0.0756171l 1.90832, 0.0625857l 1.90832, 0.0513685l 1.90832, 0.0418131l 1.90832, 0.0337558l 1.90832, 0.0270289l 1.90832, 0.021467l 1.90832, 0.0169122" fill="none"
 stroke="#ff0000" stroke-width="2"/>
<path d="M436.63,345.968l 1.90832, 0.0132169" fill="none" stroke="#ff0000" stroke-width="2"/>
<text xml:space="preserve" x="250.568" y="18.7347" fill="black" font-size="18.0316" font-family="Helvetica">Am_009</text></svg>
