<?xml version="1.0" standalone="no"?>
<svg width="567.429" height="384.68" viewBox="0 0 567.429 384.68" xmlns="http://www.w3.org/2000/svg" shape-rendering="crispEdges">
<title>
img/week1/high_gain_clb/Am_009.svg
</title>
<desc>
Creator: ROOT Version 6.22/09
CreationDate: Thu Jul  8 21:07:20 2021</desc>
<defs>
</defs>
<rect x="0.5" y="0" width="566.929" height="384.18" fill="white"/>
<rect x="57.1929" y="38.418" width="453.543" height="307.344" fill="white"/>
<rect x="57.1929" y="38.418" width="453.543" height="307.344" fill="none" stroke="black"/>
<path d="M57.1929,345.762h 71.7401v -0.0836071h 0.607967v 0.0836071h 0.607967v -0.836071h 0.607967v -0.58525h 0.607967v -0.919678h 0.607967v 0.668857h 0.607967v -0.668857h 0.607967v 1.00329h 0.607967v -0.58525h 0.607967v -0.501643h 0.607967v
 0.334428h 0.607967v 0.418035h 0.607967v -1.08689h 0.607967v 0.250821h 0.607967v -0.418035h 0.607967v 1.25411h 0.607967v -0.58525h 0.607967v 0.0836071h 0.607967v -0.167214h 0.607967v 0.334428h 0.607967v 0.250821h 1.21593v -0.836071h 0.607967v 1.1705h
 0.607967v -0.58525h 0.607967v -0.167214h 0.607967v -0.167214h 0.607967v -0.0836071h 0.607967v 0.334428h 0.607967v -0.501643h 0.607967v 0.836071h 1.21593v -0.919678h 0.607967v 0.668857h 0.607967v -0.668857h 0.607967v -0.0836071h 0.607967v 0.418035h
 1.21593v 0.418035h 0.607967v 0.167214h 0.607967v -1.25411h 0.607967v 0.919678h 0.607967v -0.418035h 0.607967v 0.501643h 0.607967v -0.418035h 0.607967v 0.250821h 0.607967v -0.0836071h 1.21593v 0.334428h 0.607967v -0.0836071h 0.607967v -0.501643h
 0.607967v 0.501643h 0.607967v -0.501643h 0.607967v -0.334428h 0.607967v 0.501643h 0.607967v -0.0836071h 0.607967v 0.752464h 0.607967v 0.0836071h 0.607967v -1.08689h 0.607967v -0.501643h 0.607967v 0.58525h 0.607967v 0.0836071h 1.21593v 0.0836071h
 0.607967v -0.250821h 0.607967v 0.250821h 0.607967v -0.167214h 0.607967v 0.668857h 0.607967v -1.1705h 0.607967v 1.42132h 0.607967v -0.0836071h 0.607967v -0.752464h 0.607967v 0.334428h 0.607967v 0.167214h 0.607967v 0.0836071h 0.607967v -1.08689h
 0.607967v 0.668857h 0.607967v -0.0836071h 0.607967v -0.0836071h 0.607967v -0.0836071h 0.607967v 0.167214h 0.607967v 0.167214h 0.607967v -0.167214h 0.607967v 0.501643h 0.607967v -1.33771h 0.607967v 1.08689h 0.607967v -0.167214h 1.21593v -0.752464h
 0.607967v 0.501643h 0.607967v 0.167214h 0.607967v 0.167214h 0.607967v -1.25411h 0.607967v 1.58853h 0.607967v -0.167214h 0.607967v 0.0836071h 0.607967v -0.250821h 0.607967v 0.58525h 0.607967v -0.668857h 0.607967v -0.836071h 0.607967v 1.25411h
 0.607967v -0.0836071h 0.607967v -0.334428h 0.607967v -0.334428h 0.607967v 0.250821h 0.607967v 0.752464h 0.607967v -0.752464h 0.607967v -0.418035h 0.607967v 0.0836071h 0.607967v -0.752464h 0.607967v 0.250821h 0.607967v 0.58525h 0.607967v 0.250821h
 0.607967v -0.752464h 0.607967v 0.836071h 0.607967v 0.167214h 0.607967v -1.00329h 0.607967v -0.334428h 0.607967v 0.836071h 0.607967v -0.58525h 0.607967v -0.668857h 0.607967v -0.167214h 0.607967v 0.836071h 0.607967v 0.0836071h 0.607967v -0.418035h
 0.607967v -0.167214h 0.607967v 0.668857h 0.607967v -1.33771h 0.607967v 0.334428h 0.607967v -0.752464h 0.607967v 0.668857h 0.607967v 0.167214h 0.607967v 0.752464h 0.607967v -1.75575h 0.607967v 1.25411h 0.607967v -0.836071h 0.607967v -0.501643h
 0.607967v 0.334428h 0.607967v 0.250821h 0.607967v -0.668857h 0.607967v 0.418035h 0.607967v -1.42132h 0.607967v 1.50493h 0.607967v -0.752464h 0.607967v -0.334428h 0.607967v 0.334428h 0.607967v 0.334428h 0.607967v 0.167214h 0.607967v 0.334428h
 0.607967v -0.250821h 0.607967v -0.919678h 0.607967v -0.58525h 0.607967v 0.250821h 0.607967v 0.418035h 0.607967v -0.836071h 0.607967v -1.83936h 0.607967v 0.919678h 0.607967v 1.25411h 0.607967v 0.334428h 0.607967v -1.08689h 0.607967v -0.418035h
 0.607967v -0.668857h 0.607967v 0.501643h 0.607967v 0.58525h 0.607967v -0.919678h 0.607967v 1.00329h 0.607967v -1.25411h 0.607967v -0.167214h 0.607967v 0.919678h 0.607967v -0.418035h 0.607967v -2.92625h 0.607967v 0.668857h 0.607967v -0.501643h
 0.607967v 0.919678h 0.607967v -1.58853h 0.607967v 2.00657h 0.607967v -0.919678h 0.607967v -0.668857h 0.607967v -0.668857h 0.607967v -2.00657h 0.607967v 0.836071h 0.607967v 1.83936h 0.607967v -2.09018h 0.607967v 0.919678h 0.607967v -2.42461h
 0.607967v 2.42461h 0.607967v -1.1705h 0.607967v -3.34428h 0.607967v 2.17378h 0.607967v -1.1705h 0.607967v -2.42461h 0.607967v 2.25739h 0.607967v -0.836071h 0.607967v -4.51478h 0.607967v 5.18364h 0.607967v -2.42461h 0.607967v -2.75903h 0.607967v
 1.08689h 0.607967v -4.34757h 0.607967v 0.668857h 1.21593v -1.50493h 0.607967v 0.250821h 0.607967v 1.83936h 0.607967v -4.43118h 0.607967v 1.08689h 0.607967v -2.09018h 1.21593v 4.43118h 0.607967v -5.68528h 0.607967v -1.83936h 0.607967v 1.75575h
 0.607967v -3.5951h 0.607967v 0.668857h 0.607967v 0.752464h 0.607967v -6.27053h 0.607967v -0.752464h 0.607967v 3.5115h 0.607967v -0.501643h 0.607967v -2.92625h 0.607967v 4.01314h 0.607967v -4.26396h 0.607967v 1.25411h 0.607967v -2.42461h 0.607967v
 -3.67871h 0.607967v 3.76232h 0.607967v 3.84593h 0.607967v -3.92953h 0.607967v -2.00657h 0.607967v 3.84593h 0.607967v -3.17707h 0.607967v 1.33771h 0.607967v 1.1705h 0.607967v -0.836071h 0.607967v -1.33771h 0.607967v 2.00657h 0.607967v 1.58853h
 0.607967v -3.5115h 0.607967v 2.341h 0.607967v -3.42789h 0.607967v 3.00986h 0.607967v -3.67871h 0.607967v 0.501643h 0.607967v 2.67543h 0.607967v 2.50821h 0.607967v -1.83936h 0.607967v -1.83936h 0.607967v 3.17707h 0.607967v -1.83936h 0.607967v
 4.43118h 0.607967v 2.00657h 0.607967v -0.836071h 0.607967v -1.67214h 0.607967v -0.167214h 0.607967v 6.18692h 0.607967v -5.76889h 0.607967v 1.50493h 0.607967v 1.00329h 0.607967v -1.58853h 0.607967v 0.752464h 0.607967v 0.167214h 0.607967v -2.92625h
 0.607967v 4.682h 0.607967v 1.00329h 0.607967v -2.92625h 0.607967v -0.668857h 0.607967v 3.5951h 0.607967v 0.334428h 0.607967v 0.0836071h 0.607967v -0.58525h 0.607967v -1.67214h 0.607967v 1.42132h 0.607967v 0.334428h 0.607967v 0.836071h 0.607967v
 0.334428h 0.607967v -1.75575h 0.607967v 1.08689h 0.607967v 1.00329h 0.607967v -3.34428h 0.607967v 1.33771h 0.607967v 0.334428h 0.607967v 2.67543h 0.607967v -3.34428h 0.607967v -2.00657h 0.607967v 3.76232h 0.607967v -0.836071h 0.607967v 0.334428h
 0.607967v -0.752464h 0.607967v -0.836071h 0.607967v 1.83936h 0.607967v 2.25739h 0.607967v -0.836071h 0.607967v -0.250821h 0.607967v -2.67543h 0.607967v 1.08689h 0.607967v 1.1705h 0.607967v -0.167214h 0.607967v 2.59182h 0.607967v -1.1705h 0.607967v
 0.919678h 0.607967v -0.752464h 0.607967v 0.919678h 0.607967v -0.919678h 0.607967v -0.167214h 0.607967v 1.00329h 0.607967v 0.334428h 0.607967v 0.0836071h 0.607967v -1.08689h 0.607967v 1.33771h 0.607967v 0.668857h 0.607967v -0.58525h 0.607967v
 1.67214h 0.607967v 0.418035h 0.607967v 0.58525h 0.607967v 2.00657h 0.607967v -2.00657h 0.607967v 4.01314h 0.607967v -1.25411h 0.607967v 2.17378h 0.607967v -1.58853h 0.607967v 1.67214h 0.607967v -0.836071h 0.607967v 2.09018h 0.607967v 0.334428h
 0.607967v -0.418035h 0.607967v -2.75903h 0.607967v 2.00657h 0.607967v 2.75903h 0.607967v -1.33771h 0.607967v 0.668857h 0.607967v 0.250821h 0.607967v 3.00986h 0.607967v -1.1705h 0.607967v 0.58525h 0.607967v -0.501643h 0.607967v -1.50493h 0.607967v
 3.34428h 0.607967v -2.75903h 0.607967v 1.67214h 0.607967v 0.334428h 0.607967v -0.752464h 0.607967v 2.67543h 0.607967v -1.67214h 0.607967v -1.08689h 0.607967v 3.09346h 0.607967v -1.92296h 0.607967v 0.919678h 0.607967v -0.919678h 0.607967v -0.167214h
 0.607967v 0.836071h 0.607967v -0.501643h 0.607967v 0.919678h 0.607967v -1.1705h 0.607967v -0.752464h 0.607967v -0.167214h 0.607967v 1.50493h 0.607967v 0.752464h 0.607967v -2.59182h 0.607967v 1.00329h 0.607967v -0.0836071h 0.607967v 0.167214h
 0.607967v 2.00657h 0.607967v -2.00657h 0.607967v 2.67543h 0.607967v -0.167214h 0.607967v -0.836071h 0.607967v -2.25739h 0.607967v -2.50821h 0.607967v 1.50493h 0.607967v 0.668857h 0.607967v 0.58525h 0.607967v 0.167214h 0.607967v -1.00329h 0.607967v
 -0.0836071h 0.607967v 0.919678h 0.607967v 1.25411h 0.607967v -2.92625h 0.607967v 0.334428h 0.607967v -0.58525h 0.607967v 0.919678h 0.607967v -1.08689h 0.607967v -1.33771h 0.607967v 2.00657h 0.607967v 1.92296h 0.607967v -1.75575h 0.607967v -2.09018h
 0.607967v 2.50821h 0.607967v -0.334428h 0.607967v 0.167214h 0.607967v 0.58525h 0.607967v 0.250821h 0.607967v -0.334428h 0.607967v 1.75575h 0.607967v -1.75575h 0.607967v -0.0836071h 0.607967v -0.167214h 0.607967v 1.92296h 0.607967v -0.167214h
 0.607967v -0.836071h 0.607967v 1.42132h 0.607967v -0.418035h 0.607967v 1.1705h 0.607967v -0.501643h 0.607967v 1.00329h 0.607967v -1.08689h 0.607967v 0.919678h 0.607967v 1.00329h 0.607967v 0.250821h 0.607967v 1.33771h 0.607967v 0.0836071h 0.607967v
 -0.668857h 0.607967v -0.334428h 0.607967v 0.334428h 0.607967v 1.50493h 0.607967v -1.58853h 0.607967v 2.00657h 0.607967v 0.250821h 0.607967v 0.334428h 0.607967v -0.418035h 0.607967v 0.250821h 0.607967v -0.334428h 0.607967v 0.0836071h 0.607967v
 -0.0836071h 0.607967v 1.08689h 0.607967v 0.919678h 0.607967v 0.0836071h 0.607967v -0.836071h 0.607967v 0.836071h 0.607967v 1.08689h 0.607967v -0.668857h 0.607967v -0.836071h 0.607967v 0.919678h 0.607967v 1.25411h 0.607967v -1.1705h 0.607967v
 -0.250821h 0.607967v 1.67214h 0.607967v -0.836071h 0.607967v 0.334428h 0.607967v 0.167214h 0.607967v 0.250821h 0.607967v -0.836071h 0.607967v 0.58525h 0.607967v 1.1705h 0.607967v -0.668857h 0.607967v 0.250821h 0.607967v -0.836071h 0.607967v
 0.836071h 0.607967v -0.752464h 0.607967v 1.1705h 0.607967v -1.00329h 0.607967v 0.58525h 0.607967v -0.167214h 0.607967v 0.668857h 0.607967v -0.250821h 0.607967v 0.250821h 0.607967v 0.250821h 1.21593v -0.167214h 0.607967v -0.501643h 0.607967v
 0.418035h 0.607967v 0.0836071h 0.607967v -0.418035h 0.607967v 0.752464h 0.607967v -0.58525h 0.607967v 0.58525h 0.607967v -0.418035h 0.607967v 0.250821h 0.607967v -0.0836071h 0.607967v -0.167214h 0.607967v -0.0836071h 0.607967v 0.334428h 1.21593v
 0.0836071h 1.21593v -0.0836071h 0.607967v -0.418035h 0.607967v 0.919678h 0.607967v -0.752464h 0.607967v 0.836071h 0.607967v -0.668857h 0.607967v 0.250821h 0.607967v -0.334428h 0.607967v 0.501643h 0.607967v -0.418035h 0.607967v -0.0836071h 0.607967v
 -0.0836071h 0.607967v 0.501643h 0.607967v 0.0836071h 0.607967v -0.0836071h 0.607967v -0.167214h 1.21593v -0.752464h 0.607967v 0.418035h 0.607967v 0.250821h 1.21593v -0.418035h 0.607967v -0.167214h 0.607967v -0.250821h 0.607967v 1.00329h 0.607967v
 0.334428h 0.607967v -0.418035h 0.607967v -0.58525h 0.607967v 0.418035h 0.607967v 0.501643h 0.607967v -0.752464h 0.607967v 0.418035h 0.607967v 0.334428h 0.607967v -0.250821h 0.607967v -0.250821h 0.607967v 0.501643h 0.607967v -0.167214h 0.607967v
 -0.167214h 0.607967v 0.167214h 0.607967v -0.836071h 0.607967v 1.00329h 0.607967v -0.836071h 0.607967v -0.167214h 0.607967v 0.334428h 0.607967v -0.836071h 0.607967v 1.25411h 0.607967v -0.167214h 0.607967v 0.0836071h 0.607967v 0.250821h 0.607967v
 -0.501643h 0.607967v -0.418035h 0.607967v 0.418035h 0.607967v -0.167214h 0.607967v -0.0836071h 0.607967v 0.334428h 0.607967v 0.250821h 1.8239v -0.752464h 0.607967v 0.752464h 0.607967v 0.250821h 0.607967v -0.334428h 0.607967v -0.836071h 0.607967v
 0.836071h 0.607967v -1.00329h 0.607967v 0.836071h 0.607967v -0.167214h 0.607967v -0.0836071h 0.607967v 1.00329h 0.607967v -0.501643h 1.21593v -0.250821h 0.607967v 0.334428h 1.8239v -0.250821h 0.607967v 0.58525h 0.607967v -0.752464h 0.607967v
 0.167214h 0.607967v -0.58525h 0.607967v 0.919678h 0.607967v -0.167214h 0.607967v 0.0836071h 0.607967v -0.668857h 0.607967v -0.334428h 0.607967v 0.250821h 0.607967v -0.250821h 0.607967v -0.836071h 0.607967v 0.0836071h 0.607967v 0.167214h 0.607967v
 -2.00657h 0.607967v 0.250821h 0.607967v 0.501643h 0.607967v -2.75903h 0.607967v -1.33771h 0.607967v -1.08689h 0.607967v -3.5115h 0.607967v -3.76232h 0.607967v -9.4476h 0.607967v -28.51h 0.607967v -66.6348h 0.607967v -93.9744h 0.607967v -61.284h
 0.607967v -16.4706h 0.607967v 7.27382h 0.607967v 33.3592h 0.607967v 32.0215h 0.607967v 24.9985h 0.607967v 2.67543h 0.607967v 9.4476h 0.607967v 7.35742h 0.607967v 17.8919h 0.607967v 8.61153h 0.607967v 23.3264h 0.607967v 32.1887h 0.607967v 28.51h
 0.607967v 19.146h 0.607967v 9.19678h 0.607967v 7.94267h 0.607967v 11.5378h 0.607967v 3.92953h 0.607967v 3.26068h 0.607967v 2.25739h 0.607967v 2.341h 0.607967v 1.00329h 0.607967v 0.167214h 0.607967v 0.919678h 0.607967v 1.33771h 0.607967v 0.0836071h
 0.607967v 0.0836071h 0.607967v 0.836071h 0.607967v -0.250821h 0.607967v 0.334428h 0.607967v 0.334428h 0.607967v 0.167214h 0.607967v -0.167214h 0.607967v 0.167214h 0.607967v 0.167214h 1.21593v 0.167214h 1.8239v 0.0836071h 0.607967v -0.0836071h
 1.21593v 0.0836071h 1.21593v -0.0836071h 1.21593v 0.0836071h 1.8239v -0.0836071h 1.21593" fill="none" stroke="#000099"/>
<path d="M57.1929,345.762h 453.543" fill="none" stroke="black"/>
<path d="M57.8009,336.541v 9.22031" fill="none" stroke="black"/>
<path d="M78.0664,341.152v 4.61016" fill="none" stroke="black"/>
<path d="M98.332,341.152v 4.61016" fill="none" stroke="black"/>
<path d="M118.598,341.152v 4.61016" fill="none" stroke="black"/>
<path d="M138.863,341.152v 4.61016" fill="none" stroke="black"/>
<path d="M159.129,336.541v 9.22031" fill="none" stroke="black"/>
<path d="M179.394,341.152v 4.61016" fill="none" stroke="black"/>
<path d="M199.66,341.152v 4.61016" fill="none" stroke="black"/>
<path d="M219.925,341.152v 4.61016" fill="none" stroke="black"/>
<path d="M240.191,341.152v 4.61016" fill="none" stroke="black"/>
<path d="M260.457,336.541v 9.22031" fill="none" stroke="black"/>
<path d="M280.722,341.152v 4.61016" fill="none" stroke="black"/>
<path d="M300.988,341.152v 4.61016" fill="none" stroke="black"/>
<path d="M321.253,341.152v 4.61016" fill="none" stroke="black"/>
<path d="M341.519,341.152v 4.61016" fill="none" stroke="black"/>
<path d="M361.784,336.541v 9.22031" fill="none" stroke="black"/>
<path d="M382.05,341.152v 4.61016" fill="none" stroke="black"/>
<path d="M402.315,341.152v 4.61016" fill="none" stroke="black"/>
<path d="M422.581,341.152v 4.61016" fill="none" stroke="black"/>
<path d="M442.847,341.152v 4.61016" fill="none" stroke="black"/>
<path d="M463.112,336.541v 9.22031" fill="none" stroke="black"/>
<path d="M57.8009,336.541v 9.22031" fill="none" stroke="black"/>
<path d="M463.112,336.541v 9.22031" fill="none" stroke="black"/>
<path d="M483.378,341.152v 4.61016" fill="none" stroke="black"/>
<path d="M503.643,341.152v 4.61016" fill="none" stroke="black"/>
<text xml:space="preserve" x="54.1065" y="358.189" fill="black" font-size="12.836" font-family="Helvetica">0</text>
<text xml:space="preserve" x="148.324" y="358.189" fill="black" font-size="12.836" font-family="Helvetica">500</text>
<text xml:space="preserve" x="246.602" y="358.189" fill="black" font-size="12.836" font-family="Helvetica">1000</text>
<text xml:space="preserve" x="347.318" y="358.189" fill="black" font-size="12.836" font-family="Helvetica">1500</text>
<text xml:space="preserve" x="448.845" y="358.189" fill="black" font-size="12.836" font-family="Helvetica">2000</text>
<text xml:space="preserve" x="452.094" y="371.996" fill="black" font-size="12.836" font-family="Helvetica">ADC value</text>
<path d="M57.1929,345.762v -307.344" fill="none" stroke="black"/>
<path d="M70.7992,345.762h -13.6063" fill="none" stroke="black"/>
<path d="M63.9961,337.401h -6.80315" fill="none" stroke="black"/>
<path d="M63.9961,329.04h -6.80315" fill="none" stroke="black"/>
<path d="M63.9961,320.68h -6.80315" fill="none" stroke="black"/>
<path d="M63.9961,312.319h -6.80315" fill="none" stroke="black"/>
<path d="M70.7992,303.958h -13.6063" fill="none" stroke="black"/>
<path d="M63.9961,295.598h -6.80315" fill="none" stroke="black"/>
<path d="M63.9961,287.237h -6.80315" fill="none" stroke="black"/>
<path d="M63.9961,278.876h -6.80315" fill="none" stroke="black"/>
<path d="M63.9961,270.515h -6.80315" fill="none" stroke="black"/>
<path d="M70.7992,262.155h -13.6063" fill="none" stroke="black"/>
<path d="M63.9961,253.794h -6.80315" fill="none" stroke="black"/>
<path d="M63.9961,245.433h -6.80315" fill="none" stroke="black"/>
<path d="M63.9961,237.073h -6.80315" fill="none" stroke="black"/>
<path d="M63.9961,228.712h -6.80315" fill="none" stroke="black"/>
<path d="M70.7992,220.351h -13.6063" fill="none" stroke="black"/>
<path d="M63.9961,211.99h -6.80315" fill="none" stroke="black"/>
<path d="M63.9961,203.63h -6.80315" fill="none" stroke="black"/>
<path d="M63.9961,195.269h -6.80315" fill="none" stroke="black"/>
<path d="M63.9961,186.908h -6.80315" fill="none" stroke="black"/>
<path d="M70.7992,178.548h -13.6063" fill="none" stroke="black"/>
<path d="M63.9961,170.187h -6.80315" fill="none" stroke="black"/>
<path d="M63.9961,161.826h -6.80315" fill="none" stroke="black"/>
<path d="M63.9961,153.466h -6.80315" fill="none" stroke="black"/>
<path d="M63.9961,145.105h -6.80315" fill="none" stroke="black"/>
<path d="M70.7992,136.744h -13.6063" fill="none" stroke="black"/>
<path d="M63.9961,128.383h -6.80315" fill="none" stroke="black"/>
<path d="M63.9961,120.023h -6.80315" fill="none" stroke="black"/>
<path d="M63.9961,111.662h -6.80315" fill="none" stroke="black"/>
<path d="M63.9961,103.301h -6.80315" fill="none" stroke="black"/>
<path d="M70.7992,94.9406h -13.6063" fill="none" stroke="black"/>
<path d="M63.9961,86.5798h -6.80315" fill="none" stroke="black"/>
<path d="M63.9961,78.2191h -6.80315" fill="none" stroke="black"/>
<path d="M63.9961,69.8584h -6.80315" fill="none" stroke="black"/>
<path d="M63.9961,61.4977h -6.80315" fill="none" stroke="black"/>
<path d="M70.7992,53.137h -13.6063" fill="none" stroke="black"/>
<path d="M70.7992,53.137h -13.6063" fill="none" stroke="black"/>
<path d="M63.9961,44.7763h -6.80315" fill="none" stroke="black"/>
<text xml:space="preserve" x="47.6087" y="350.067" fill="black" font-size="12.836" font-family="Helvetica">0</text>
<text xml:space="preserve" x="33.801" y="308.643" fill="black" font-size="12.836" font-family="Helvetica">500</text>
<text xml:space="preserve" x="27.3032" y="266.408" fill="black" font-size="12.836" font-family="Helvetica">1000</text>
<text xml:space="preserve" x="27.3032" y="224.985" fill="black" font-size="12.836" font-family="Helvetica">1500</text>
<text xml:space="preserve" x="27.3032" y="182.749" fill="black" font-size="12.836" font-family="Helvetica">2000</text>
<text xml:space="preserve" x="27.3032" y="141.326" fill="black" font-size="12.836" font-family="Helvetica">2500</text>
<text xml:space="preserve" x="27.3032" y="99.0908" fill="black" font-size="12.836" font-family="Helvetica">3000</text>
<text xml:space="preserve" x="27.3032" y="57.6676" fill="black" font-size="12.836" font-family="Helvetica">3500</text>
<g transform="rotate(-90,14.3077,69.8509)">
<text xml:space="preserve" x="14.3077" y="69.8509" fill="black" font-size="12.836" font-family="Helvetica">Event</text>
</g>
<text xml:space="preserve" x="250.664" y="18.681" fill="black" font-size="17.9813" font-family="Helvetica">Am_009</text>
<rect x="442.705" y="24.9717" width="113.386" height="61.4688" fill="white"/>
<path d="M442.705,86.4405h 113.386" fill="none" stroke="black"/>
<path d="M556.091,86.4405v -61.4688" fill="none" stroke="black"/>
<path d="M556.091,24.9717h -113.386" fill="none" stroke="black"/>
<path d="M442.705,24.9717v 61.4688" fill="none" stroke="black"/>
<text xml:space="preserve" x="474.836" y="36.5499" fill="black" font-size="13.4705" font-family="Helvetica">Am_009</text>
<path d="M442.705,40.3389h 113.386" fill="none" stroke="black"/>
<text xml:space="preserve" x="448.033" y="52.7943" fill="black" font-size="12.4124" font-family="Helvetica">Entries </text>
<text xml:space="preserve" x="506.513" y="52.7943" fill="black" font-size="12.4124" font-family="Helvetica"> 116742</text>
<text xml:space="preserve" x="448.033" y="68.2264" fill="black" font-size="12.4124" font-family="Helvetica">Mean  </text>
<text xml:space="preserve" x="515.447" y="68.2264" fill="black" font-size="12.4124" font-family="Helvetica">   1481</text>
<text xml:space="preserve" x="448.033" y="82.8464" fill="black" font-size="12.4124" font-family="Helvetica">Std Dev   </text>
<text xml:space="preserve" x="513.01" y="82.8464" fill="black" font-size="12.4124" font-family="Helvetica">  490.9</text>
<path d="M241.103,333.586l 1.8239, -1.86469l 1.8239, -2.00424l 1.8239, -2.12498l 1.8239, -2.22089l 1.8239, -2.2861l 1.8239, -2.31522l 1.8239, -2.30367l 1.8239, -2.24801l 1.8239, -2.14623l 1.8239, -1.99801l 1.8239, -1.80493l 1.8239, -1.57058l 1.8239,
 -1.30057l 1.8239, -1.0025l 1.8239, -0.685746l 1.8239, -0.361165l 1.8239, -0.0406949l 1.8239, 0.263169l 1.8239, 0.537995l 1.8239, 0.772121l 1.8239, 0.955423l 1.8239, 1.0801l 1.8239, 1.14144l 1.8239, 1.13844l 1.8239, 1.07429l 1.8239, 0.956557l 1.8239,
 0.797002l 1.8239, 0.611013l 1.8239, 0.416605l 1.8239, 0.233035l 1.8239, 0.0791364l 1.8239, -0.0284725l 1.8239, -0.0771098l 1.8239, -0.0594519l 1.8239, 0.0255403l 1.8239, 0.172348l 1.8239, 0.369346l 1.8239, 0.599953l 1.8239, 0.844352l 1.8239,
 1.08157l 1.8239, 1.29164l 1.8239, 1.45762l 1.8239, 1.56708l 1.8239, 1.61313l 1.8239, 1.59467l 1.8239, 1.51599l 1.8239, 1.38586l 1.8239, 1.21623l 1.8239, 1.02078" fill="none" stroke="#ff0000" stroke-width="2"/>
<path d="M330.474,330.955l 1.8239, 0.813466l 1.8239, 0.607288l 1.8239, 0.413375l 1.8239, 0.240392l 1.8239, 0.0943204l 1.8239, -0.0214705l 1.8239, -0.105934l 1.8239, -0.159916l 1.8239, -0.185671l 1.8239, -0.186398l 1.8239, -0.165817l 1.8239,
 -0.127843l 1.8239, -0.0763384l 1.8239, -0.0149522l 1.8239, 0.0529791l 1.8239, 0.124475l 1.8239, 0.196922l 1.8239, 0.268068l 1.8239, 0.336004l 1.8239, 0.399144l 1.8239, 0.45621l 1.8239, 0.506211l 1.8239, 0.548429l 1.8239, 0.582406l 1.8239, 0.607929l
 1.8239, 0.625008l 1.8239, 0.633858l 1.8239, 0.634875l 1.8239, 0.628612l 1.8239, 0.615743l 1.8239, 0.597041l 1.8239, 0.573345l 1.8239, 0.545525l 1.8239, 0.514464l 1.8239, 0.481023l 1.8239, 0.446023l 1.8239, 0.41023l 1.8239, 0.374333l 1.8239, 0.33894l
 1.8239, 0.304569l 1.8239, 0.271646l 1.8239, 0.240505l 1.8239, 0.211396l 1.8239, 0.184483l 1.8239, 0.159862l 1.8239, 0.13756l 1.8239, 0.117551l 1.8239, 0.0997645l 1.8239, 0.0840942" fill="none" stroke="#ff0000" stroke-width="2"/>
<path d="M419.845,345.389l 1.8239, 0.0704073" fill="none" stroke="#ff0000" stroke-width="2"/>
<text xml:space="preserve" x="250.664" y="18.681" fill="black" font-size="17.9813" font-family="Helvetica">Am_009</text></svg>
