<?xml version="1.0" standalone="no"?>
<svg width="567.429" height="384.68" viewBox="0 0 567.429 384.68" xmlns="http://www.w3.org/2000/svg" shape-rendering="crispEdges">
<title>
img/week1/high_gain_clb/Cs_015.svg
</title>
<desc>
Creator: ROOT Version 6.22/09
CreationDate: Tue Jul 13 18:41:17 2021</desc>
<defs>
</defs>
<rect x="0.5" y="0" width="566.929" height="384.18" fill="white"/>
<rect x="57.1929" y="38.418" width="453.543" height="307.344" fill="white"/>
<rect x="57.1929" y="38.418" width="453.543" height="307.344" fill="none" stroke="black"/>
<rect x="57.1929" y="38.418" width="453.543" height="307.344" fill="white"/>
<rect x="57.1929" y="38.418" width="453.543" height="307.344" fill="none" stroke="black"/>
<path d="M57.1929,345.762h 61.9009v -0.0392739h 0.595201v -0.667656h 0.595201v -7.38349h 0.595201v -10.604h 0.595201v 0.942574h 0.595201v 2.78845h 0.595201v 2.67063h 0.595201v 0.471287h 0.595201v 1.37459h 0.595201v 1.6495h 0.595201v 2.47426h
 0.595201v 0.942574h 0.595201v -0.70693h 0.595201v 1.25676h 0.595201v 0.549835h 0.595201v 0.942574h 0.595201v -0.549835h 0.595201v 0.628382h 0.595201v -0.117822h 0.595201v 0.981848h 0.595201v 0.628382h 0.595201v -1.02112h 0.595201v 0.785478h
 0.595201v -0.549835h 0.595201v 0.746204h 0.595201v -0.432013h 0.595201v -0.19637h 0.595201v 0.510561h 0.595201v 0.471287h 0.595201v -0.314191h 0.595201v -0.824752h 0.595201v 0.117822h 0.595201v 0.70693h 0.595201v 0.235643h 0.595201v -0.274917h
 0.595201v -0.746204h 0.595201v 0.628382h 0.595201v 0.157096h 0.595201v 0.157096h 0.595201v 0.0785478h 0.595201v -0.471287h 0.595201v -0.157096h 0.595201v 0.392739h 0.595201v 0.589109h 0.595201v -0.981848h 0.595201v 0.628382h 0.595201v -0.274917h
 0.595201v 0.19637h 0.595201v 0.0785478h 0.595201v -0.0785478h 0.595201v -0.157096h 0.595201v -0.235643h 0.595201v 0.274917h 0.595201v 0.19637h 0.595201v -0.432013h 0.595201v 0.117822h 0.595201v -0.432013h 0.595201v 0.314191h 0.595201v 0.157096h
 0.595201v -0.589109h 0.595201v 0.942574h 0.595201v -0.510561h 0.595201v -0.0392739h 0.595201v 0.510561h 0.595201v -0.314191h 0.595201v 0.510561h 0.595201v -0.0392739h 0.595201v -0.432013h 0.595201v -0.549835h 1.1904v 0.628382h 0.595201v 0.274917h
 1.1904v -0.314191h 0.595201v -0.314191h 0.595201v -0.0392739h 0.595201v 0.392739h 0.595201v -0.235643h 0.595201v 0.117822h 0.595201v -0.157096h 0.595201v 0.274917h 0.595201v -0.117822h 0.595201v -0.274917h 0.595201v 0.19637h 0.595201v 0.157096h
 0.595201v 0.274917h 0.595201v -0.589109h 0.595201v 0.314191h 0.595201v -0.471287h 0.595201v 0.746204h 0.595201v -0.235643h 0.595201v -0.235643h 0.595201v -0.19637h 0.595201v 0.117822h 0.595201v 0.70693h 0.595201v -0.589109h 0.595201v 0.274917h
 1.1904v -0.392739h 0.595201v 0.392739h 0.595201v -0.314191h 0.595201v -0.353465h 0.595201v 0.70693h 0.595201v 0.19637h 0.595201v -0.235643h 0.595201v 0.157096h 0.595201v -0.117822h 0.595201v -0.235643h 0.595201v 0.235643h 0.595201v -0.117822h
 0.595201v 0.19637h 0.595201v -0.432013h 0.595201v 0.157096h 0.595201v 0.432013h 0.595201v -0.432013h 0.595201v -0.157096h 0.595201v 0.432013h 0.595201v -0.746204h 0.595201v 0.19637h 0.595201v 0.274917h 0.595201v 0.314191h 0.595201v -0.117822h
 0.595201v 0.19637h 1.1904v -0.549835h 0.595201v 0.392739h 0.595201v 0.392739h 0.595201v -0.274917h 0.595201v -0.274917h 0.595201v -0.0785478h 1.1904v 0.628382h 0.595201v -0.392739h 0.595201v -0.549835h 0.595201v 0.235643h 0.595201v 0.628382h
 0.595201v -0.157096h 0.595201v -0.432013h 0.595201v 0.510561h 0.595201v -0.432013h 0.595201v 0.117822h 0.595201v 0.235643h 0.595201v 0.0392739h 0.595201v -0.314191h 0.595201v -0.0785478h 0.595201v 0.353465h 0.595201v 0.19637h 0.595201v -0.353465h
 0.595201v 0.0785478h 0.595201v 0.392739h 0.595201v -0.235643h 0.595201v -0.274917h 0.595201v 0.0392739h 0.595201v 0.471287h 0.595201v -0.0392739h 0.595201v -0.392739h 0.595201v 0.274917h 0.595201v -0.274917h 0.595201v -0.0785478h 0.595201v 0.314191h
 0.595201v 0.0392739h 0.595201v -0.746204h 0.595201v 0.392739h 0.595201v 0.157096h 1.1904v 0.157096h 0.595201v -0.19637h 0.595201v 0.0785478h 0.595201v -0.19637h 0.595201v 0.157096h 0.595201v -0.117822h 0.595201v 0.274917h 0.595201v -0.589109h
 0.595201v 0.157096h 0.595201v 0.432013h 0.595201v -0.471287h 1.1904v 0.0785478h 0.595201v 0.0785478h 0.595201v 0.432013h 0.595201v -0.392739h 0.595201v 0.0785478h 0.595201v 0.0392739h 0.595201v 0.235643h 0.595201v -0.274917h 0.595201v 0.19637h
 0.595201v -0.0785478h 0.595201v 0.471287h 0.595201v -0.353465h 0.595201v -0.117822h 0.595201v -0.628382h 0.595201v 0.471287h 0.595201v 0.274917h 0.595201v -0.274917h 0.595201v -0.157096h 0.595201v 0.0392739h 0.595201v 0.549835h 0.595201v -0.510561h
 1.1904v 0.0785478h 0.595201v -0.157096h 0.595201v 0.471287h 0.595201v -0.824752h 0.595201v 0.314191h 0.595201v -0.0392739h 0.595201v 0.432013h 0.595201v 0.235643h 0.595201v -0.19637h 0.595201v 0.117822h 0.595201v -0.0785478h 0.595201v 0.471287h
 0.595201v -0.70693h 0.595201v 0.235643h 0.595201v 0.117822h 0.595201v -0.274917h 0.595201v -0.353465h 0.595201v 0.19637h 0.595201v -0.274917h 0.595201v -0.0785478h 0.595201v 0.432013h 0.595201v 0.549835h 0.595201v -0.942574h 0.595201v 0.0392739h
 0.595201v 0.274917h 0.595201v 0.628382h 0.595201v -0.746204h 0.595201v -0.157096h 0.595201v 0.235643h 0.595201v 0.157096h 0.595201v 0.432013h 0.595201v -0.432013h 0.595201v -0.392739h 0.595201v -0.0785478h 0.595201v 0.9033h 0.595201v -0.471287h
 0.595201v 0.117822h 0.595201v -0.117822h 0.595201v 0.235643h 0.595201v 0.392739h 0.595201v -0.432013h 0.595201v -0.549835h 0.595201v 0.510561h 1.1904v -0.117822h 0.595201v -0.117822h 0.595201v 0.235643h 0.595201v -0.0785478h 0.595201v 0.0392739h
 0.595201v 0.392739h 0.595201v -0.628382h 0.595201v 0.432013h 0.595201v -0.392739h 0.595201v 0.274917h 0.595201v -0.432013h 0.595201v 0.0392739h 0.595201v 0.432013h 0.595201v -0.235643h 0.595201v -0.157096h 0.595201v 0.117822h 0.595201v -0.353465h
 0.595201v 0.353465h 0.595201v -0.235643h 0.595201v -0.117822h 0.595201v -0.274917h 0.595201v 0.117822h 0.595201v 0.157096h 0.595201v 0.235643h 0.595201v -0.70693h 0.595201v 0.432013h 0.595201v 0.274917h 0.595201v -0.274917h 0.595201v 0.432013h
 0.595201v -0.510561h 0.595201v -0.314191h 0.595201v 0.628382h 0.595201v -0.0785478h 0.595201v 0.353465h 0.595201v -0.785478h 0.595201v -0.392739h 0.595201v 0.274917h 0.595201v 0.19637h 0.595201v 0.0392739h 0.595201v -1.13894h 0.595201v 0.432013h
 0.595201v 0.628382h 0.595201v -0.314191h 0.595201v 0.0785478h 0.595201v -0.981848h 0.595201v 0.432013h 0.595201v 0.235643h 0.595201v 0.549835h 0.595201v -1.21749h 0.595201v 0.70693h 0.595201v -0.510561h 0.595201v 0.117822h 0.595201v 0.0392739h
 0.595201v -0.864026h 0.595201v 0.432013h 0.595201v 0.628382h 0.595201v 0.70693h 0.595201v -1.0604h 0.595201v -0.785478h 0.595201v 0.824752h 0.595201v 0.117822h 0.595201v 0.235643h 0.595201v 0.19637h 0.595201v -0.628382h 0.595201v -0.0785478h
 0.595201v 0.628382h 0.595201v -0.0785478h 0.595201v -0.746204h 0.595201v 0.19637h 0.595201v 0.510561h 0.595201v -0.235643h 0.595201v -0.314191h 0.595201v -0.117822h 0.595201v 0.785478h 0.595201v -0.0392739h 0.595201v -0.785478h 0.595201v 0.274917h
 0.595201v 0.510561h 1.1904v 0.589109h 0.595201v -0.589109h 0.595201v 0.0392739h 0.595201v -0.19637h 0.595201v 0.549835h 0.595201v -0.0392739h 0.595201v -0.942574h 0.595201v 0.353465h 0.595201v -0.117822h 0.595201v 0.981848h 0.595201v -0.589109h
 0.595201v -0.19637h 0.595201v 0.589109h 0.595201v 0.353465h 0.595201v -0.510561h 0.595201v -0.117822h 0.595201v 0.117822h 0.595201v 0.314191h 0.595201v 0.314191h 0.595201v -0.235643h 0.595201v -0.274917h 0.595201v 0.392739h 0.595201v 0.392739h
 0.595201v -0.70693h 0.595201v 0.353465h 0.595201v -0.157096h 0.595201v -0.824752h 0.595201v 1.09967h 0.595201v -0.0392739h 0.595201v -0.0785478h 0.595201v 0.628382h 0.595201v -0.549835h 0.595201v 0.19637h 0.595201v 0.117822h 0.595201v -0.0785478h
 0.595201v -0.0392739h 0.595201v -0.314191h 0.595201v 0.19637h 0.595201v -0.510561h 0.595201v 0.117822h 0.595201v 0.0785478h 0.595201v 0.785478h 0.595201v -0.0785478h 0.595201v -0.0785478h 0.595201v -0.432013h 1.1904v 0.471287h 0.595201v -0.235643h
 0.595201v -0.0785478h 0.595201v -0.0785478h 0.595201v 0.0785478h 0.595201v 0.471287h 0.595201v -0.70693h 0.595201v 0.353465h 0.595201v 0.19637h 0.595201v 0.235643h 0.595201v -0.0392739h 0.595201v -0.824752h 0.595201v 0.0785478h 0.595201v 0.9033h
 0.595201v -0.549835h 0.595201v -0.314191h 0.595201v 0.274917h 1.1904v 0.314191h 0.595201v -0.274917h 0.595201v -0.117822h 1.1904v 0.432013h 0.595201v 0.0785478h 0.595201v -0.746204h 0.595201v 0.824752h 0.595201v -0.549835h 0.595201v 0.314191h
 0.595201v 0.0392739h 0.595201v -0.510561h 0.595201v 0.0392739h 0.595201v 0.0392739h 0.595201v 0.117822h 1.1904v -0.117822h 0.595201v 0.117822h 0.595201v -0.549835h 0.595201v 0.589109h 0.595201v -0.353465h 0.595201v 0.549835h 0.595201v -0.667656h
 0.595201v 0.628382h 0.595201v 0.117822h 0.595201v -0.746204h 0.595201v 0.157096h 0.595201v 0.274917h 0.595201v 0.274917h 0.595201v -0.353465h 0.595201v -0.314191h 0.595201v 0.392739h 0.595201v -0.628382h 0.595201v 0.628382h 0.595201v -0.19637h
 0.595201v -0.667656h 0.595201v 0.746204h 0.595201v -0.824752h 0.595201v 1.0604h 0.595201v -0.942574h 1.1904v 0.19637h 0.595201v 0.157096h 0.595201v -0.274917h 1.1904v 0.0785478h 0.595201v 0.274917h 1.1904v -0.432013h 1.7856v -0.510561h 0.595201v
 0.0392739h 0.595201v 0.117822h 0.595201v -0.0392739h 0.595201v -0.471287h 0.595201v 0.864026h 0.595201v -0.70693h 0.595201v -0.157096h 0.595201v -0.353465h 0.595201v -0.0785478h 0.595201v 0.70693h 0.595201v -1.17822h 0.595201v -0.117822h 1.1904v
 0.314191h 0.595201v 0.392739h 0.595201v -1.53168h 0.595201v 0.353465h 0.595201v -0.70693h 0.595201v 1.76733h 0.595201v -0.942574h 0.595201v -2.04224h 0.595201v 1.8066h 0.595201v -0.70693h 0.595201v 1.25676h 0.595201v -0.510561h 0.595201v -1.68878h
 0.595201v 0.235643h 0.595201v 0.549835h 0.595201v -0.432013h 0.595201v -0.589109h 1.1904v -0.117822h 0.595201v 0.314191h 0.595201v -0.157096h 0.595201v -0.510561h 0.595201v -1.13894h 0.595201v 1.21749h 0.595201v 0.274917h 0.595201v -1.88515h
 0.595201v -0.510561h 0.595201v 0.942574h 0.595201v 1.49241h 0.595201v -1.09967h 0.595201v -0.785478h 0.595201v -0.9033h 0.595201v 0.9033h 0.595201v 1.0604h 0.595201v -2.47426h 0.595201v -0.9033h 0.595201v 1.17822h 0.595201v 1.45313h 0.595201v
 0.432013h 0.595201v -0.746204h 0.595201v -2.39571h 0.595201v 1.41386h 0.595201v 0.392739h 0.595201v 0.353465h 0.595201v -2.19934h 0.595201v 1.45313h 0.595201v 0.942574h 0.595201v 1.41386h 0.595201v -2.31716h 0.595201v -0.785478h 0.595201v 0.746204h
 0.595201v 0.746204h 0.595201v 0.824752h 0.595201v -0.314191h 0.595201v -1.41386h 0.595201v 1.49241h 0.595201v 0.157096h 0.595201v 0.314191h 0.595201v -0.824752h 0.595201v -0.70693h 0.595201v 0.667656h 0.595201v 2.00297h 0.595201v -0.589109h
 0.595201v -0.392739h 0.595201v 0.471287h 0.595201v 0.667656h 0.595201v 1.09967h 0.595201v -1.25676h 0.595201v -0.70693h 0.595201v 0.785478h 0.595201v 1.02112h 0.595201v 1.02112h 0.595201v -1.33531h 0.595201v 0.353465h 0.595201v 0.392739h 0.595201v
 1.02112h 0.595201v -0.981848h 0.595201v -0.864026h 0.595201v 1.88515h 0.595201v 0.0785478h 0.595201v 0.0785478h 0.595201v -0.314191h 0.595201v 0.70693h 0.595201v -0.510561h 0.595201v 0.9033h 0.595201v 0.19637h 0.595201v -1.49241h 0.595201v 1.45313h
 1.1904v 0.628382h 0.595201v -0.589109h 0.595201v 0.942574h 0.595201v -0.589109h 0.595201v 0.70693h 0.595201v -1.45313h 0.595201v 0.628382h 0.595201v -0.432013h 0.595201v 0.589109h 0.595201v 0.353465h 0.595201v -0.157096h 0.595201v -0.353465h
 0.595201v 0.471287h 0.595201v -0.19637h 0.595201v 0.510561h 0.595201v -0.785478h 0.595201v 0.353465h 0.595201v 0.19637h 0.595201v 0.0785478h 0.595201v 0.235643h 0.595201v -0.157096h 0.595201v -0.746204h 0.595201v 0.589109h 0.595201v 0.510561h
 0.595201v -1.21749h 0.595201v 0.746204h 0.595201v -0.314191h 0.595201v 0.117822h 0.595201v -0.0785478h 0.595201v -0.589109h 0.595201v -0.432013h 0.595201v -1.6495h 0.595201v -3.37756h 0.595201v -62.092h 0.595201v -222.094h 0.595201v 57.1435h
 0.595201v 89.191h 0.595201v 7.14785h 0.595201v -7.18712h 0.595201v 33.5792h 0.595201v 36.2498h 0.595201v 29.7303h 0.595201v 5.49835h 0.595201v -0.471287h 0.595201v 2.39571h 0.595201v 4.08449h 0.595201v 3.22046h 0.595201v -4.63432h 0.595201v
 -0.353465h 0.595201v 1.49241h 0.595201v 5.22343h 0.595201v 0.746204h 0.595201v -4.3594h 0.595201v 1.68878h 0.595201v 0.117822h 0.595201v 5.34125h 0.595201v -2.16006h 0.595201v -4.43795h 0.595201v 0.9033h 0.595201v 1.57096h 0.595201v 3.96666h
 0.595201v -7.18712h 0.595201v 1.84587h 0.595201v -0.471287h 0.595201v 4.12376h 0.595201v -0.432013h 0.595201v -3.57393h 0.595201v 1.02112h 0.595201v 0.510561h 0.595201v 8.32607h 0.595201v -5.65544h 0.595201v 0.9033h 0.595201v 4.63432h 0.595201v
 6.79439h 0.595201v 5.65544h 0.595201v 2.19934h 0.595201v 4.94851h 0.595201v 2.08152h 0.595201v 0.981848h 0.595201v 0.314191h 7.14241v -0.0392739h 0.595201v 0.0392739h 14.88v -0.0392739h 0.595201" fill="none" stroke="#000099"/>
<rect x="442.705" y="24.9717" width="113.386" height="61.4688" fill="white"/>
<path d="M442.705,86.4405h 113.386" fill="none" stroke="black"/>
<path d="M556.091,86.4405v -61.4688" fill="none" stroke="black"/>
<path d="M556.091,24.9717h -113.386" fill="none" stroke="black"/>
<path d="M442.705,24.9717v 61.4688" fill="none" stroke="black"/>
<text xml:space="preserve" x="476.461" y="36.5499" fill="black" font-size="13.4705" font-family="Helvetica">Cs_015</text>
<path d="M442.705,40.3389h 113.386" fill="none" stroke="black"/>
<text xml:space="preserve" x="448.033" y="52.7943" fill="black" font-size="12.4124" font-family="Helvetica">Entries </text>
<text xml:space="preserve" x="506.513" y="52.7943" fill="black" font-size="12.4124" font-family="Helvetica"> 100820</text>
<text xml:space="preserve" x="448.033" y="68.2264" fill="black" font-size="12.4124" font-family="Helvetica">Mean  </text>
<text xml:space="preserve" x="515.447" y="68.2264" fill="black" font-size="12.4124" font-family="Helvetica">   1751</text>
<text xml:space="preserve" x="448.033" y="82.8464" fill="black" font-size="12.4124" font-family="Helvetica">Std Dev   </text>
<text xml:space="preserve" x="513.01" y="82.8464" fill="black" font-size="12.4124" font-family="Helvetica">  514.6</text>
<path d="M57.1929,345.762h 453.543" fill="none" stroke="black"/>
<path d="M57.7881,336.541v 9.22031" fill="none" stroke="black"/>
<path d="M77.6282,341.152v 4.61016" fill="none" stroke="black"/>
<path d="M97.4682,341.152v 4.61016" fill="none" stroke="black"/>
<path d="M117.308,341.152v 4.61016" fill="none" stroke="black"/>
<path d="M137.148,341.152v 4.61016" fill="none" stroke="black"/>
<path d="M156.988,336.541v 9.22031" fill="none" stroke="black"/>
<path d="M176.828,341.152v 4.61016" fill="none" stroke="black"/>
<path d="M196.668,341.152v 4.61016" fill="none" stroke="black"/>
<path d="M216.508,341.152v 4.61016" fill="none" stroke="black"/>
<path d="M236.348,341.152v 4.61016" fill="none" stroke="black"/>
<path d="M256.189,336.541v 9.22031" fill="none" stroke="black"/>
<path d="M276.029,341.152v 4.61016" fill="none" stroke="black"/>
<path d="M295.869,341.152v 4.61016" fill="none" stroke="black"/>
<path d="M315.709,341.152v 4.61016" fill="none" stroke="black"/>
<path d="M335.549,341.152v 4.61016" fill="none" stroke="black"/>
<path d="M355.389,336.541v 9.22031" fill="none" stroke="black"/>
<path d="M375.229,341.152v 4.61016" fill="none" stroke="black"/>
<path d="M395.069,341.152v 4.61016" fill="none" stroke="black"/>
<path d="M414.909,341.152v 4.61016" fill="none" stroke="black"/>
<path d="M434.749,341.152v 4.61016" fill="none" stroke="black"/>
<path d="M454.589,336.541v 9.22031" fill="none" stroke="black"/>
<path d="M57.7881,336.541v 9.22031" fill="none" stroke="black"/>
<path d="M454.589,336.541v 9.22031" fill="none" stroke="black"/>
<path d="M474.429,341.152v 4.61016" fill="none" stroke="black"/>
<path d="M494.269,341.152v 4.61016" fill="none" stroke="black"/>
<text xml:space="preserve" x="54.1065" y="358.189" fill="black" font-size="12.836" font-family="Helvetica">0</text>
<text xml:space="preserve" x="145.887" y="358.189" fill="black" font-size="12.836" font-family="Helvetica">500</text>
<text xml:space="preserve" x="241.729" y="358.189" fill="black" font-size="12.836" font-family="Helvetica">1000</text>
<text xml:space="preserve" x="340.82" y="358.189" fill="black" font-size="12.836" font-family="Helvetica">1500</text>
<text xml:space="preserve" x="440.723" y="358.189" fill="black" font-size="12.836" font-family="Helvetica">2000</text>
<text xml:space="preserve" x="452.094" y="371.996" fill="black" font-size="12.836" font-family="Helvetica">ADC value</text>
<path d="M57.1929,345.762v -307.344" fill="none" stroke="black"/>
<path d="M70.7992,345.762h -13.6063" fill="none" stroke="black"/>
<path d="M63.9961,337.907h -6.80315" fill="none" stroke="black"/>
<path d="M63.9961,330.052h -6.80315" fill="none" stroke="black"/>
<path d="M63.9961,322.197h -6.80315" fill="none" stroke="black"/>
<path d="M63.9961,314.343h -6.80315" fill="none" stroke="black"/>
<path d="M70.7992,306.488h -13.6063" fill="none" stroke="black"/>
<path d="M63.9961,298.633h -6.80315" fill="none" stroke="black"/>
<path d="M63.9961,290.778h -6.80315" fill="none" stroke="black"/>
<path d="M63.9961,282.924h -6.80315" fill="none" stroke="black"/>
<path d="M63.9961,275.069h -6.80315" fill="none" stroke="black"/>
<path d="M70.7992,267.214h -13.6063" fill="none" stroke="black"/>
<path d="M63.9961,259.359h -6.80315" fill="none" stroke="black"/>
<path d="M63.9961,251.504h -6.80315" fill="none" stroke="black"/>
<path d="M63.9961,243.65h -6.80315" fill="none" stroke="black"/>
<path d="M63.9961,235.795h -6.80315" fill="none" stroke="black"/>
<path d="M70.7992,227.94h -13.6063" fill="none" stroke="black"/>
<path d="M63.9961,220.085h -6.80315" fill="none" stroke="black"/>
<path d="M63.9961,212.231h -6.80315" fill="none" stroke="black"/>
<path d="M63.9961,204.376h -6.80315" fill="none" stroke="black"/>
<path d="M63.9961,196.521h -6.80315" fill="none" stroke="black"/>
<path d="M70.7992,188.666h -13.6063" fill="none" stroke="black"/>
<path d="M63.9961,180.811h -6.80315" fill="none" stroke="black"/>
<path d="M63.9961,172.957h -6.80315" fill="none" stroke="black"/>
<path d="M63.9961,165.102h -6.80315" fill="none" stroke="black"/>
<path d="M63.9961,157.247h -6.80315" fill="none" stroke="black"/>
<path d="M70.7992,149.392h -13.6063" fill="none" stroke="black"/>
<path d="M63.9961,141.538h -6.80315" fill="none" stroke="black"/>
<path d="M63.9961,133.683h -6.80315" fill="none" stroke="black"/>
<path d="M63.9961,125.828h -6.80315" fill="none" stroke="black"/>
<path d="M63.9961,117.973h -6.80315" fill="none" stroke="black"/>
<path d="M70.7992,110.118h -13.6063" fill="none" stroke="black"/>
<path d="M63.9961,102.264h -6.80315" fill="none" stroke="black"/>
<path d="M63.9961,94.4088h -6.80315" fill="none" stroke="black"/>
<path d="M63.9961,86.554h -6.80315" fill="none" stroke="black"/>
<path d="M63.9961,78.6993h -6.80315" fill="none" stroke="black"/>
<path d="M70.7992,70.8445h -13.6063" fill="none" stroke="black"/>
<path d="M70.7992,70.8445h -13.6063" fill="none" stroke="black"/>
<path d="M63.9961,62.9897h -6.80315" fill="none" stroke="black"/>
<path d="M63.9961,55.1349h -6.80315" fill="none" stroke="black"/>
<path d="M63.9961,47.2801h -6.80315" fill="none" stroke="black"/>
<path d="M63.9961,39.4254h -6.80315" fill="none" stroke="black"/>
<text xml:space="preserve" x="47.6087" y="350.067" fill="black" font-size="12.836" font-family="Helvetica">0</text>
<text xml:space="preserve" x="27.3032" y="311.08" fill="black" font-size="12.836" font-family="Helvetica">1000</text>
<text xml:space="preserve" x="27.3032" y="271.281" fill="black" font-size="12.836" font-family="Helvetica">2000</text>
<text xml:space="preserve" x="27.3032" y="232.295" fill="black" font-size="12.836" font-family="Helvetica">3000</text>
<text xml:space="preserve" x="27.3032" y="193.308" fill="black" font-size="12.836" font-family="Helvetica">4000</text>
<text xml:space="preserve" x="27.3032" y="153.509" fill="black" font-size="12.836" font-family="Helvetica">5000</text>
<text xml:space="preserve" x="27.3032" y="114.523" fill="black" font-size="12.836" font-family="Helvetica">6000</text>
<text xml:space="preserve" x="27.3032" y="75.5364" fill="black" font-size="12.836" font-family="Helvetica">7000</text>
<g transform="rotate(-90,14.3077,69.8509)">
<text xml:space="preserve" x="14.3077" y="69.8509" fill="black" font-size="12.836" font-family="Helvetica">Event</text>
</g>
<rect x="442.705" y="24.9717" width="113.386" height="61.4688" fill="white"/>
<path d="M442.705,86.4405h 113.386" fill="none" stroke="black"/>
<path d="M556.091,86.4405v -61.4688" fill="none" stroke="black"/>
<path d="M556.091,24.9717h -113.386" fill="none" stroke="black"/>
<path d="M442.705,24.9717v 61.4688" fill="none" stroke="black"/>
<text xml:space="preserve" x="476.461" y="36.5499" fill="black" font-size="13.4705" font-family="Helvetica">Cs_015</text>
<path d="M442.705,40.3389h 113.386" fill="none" stroke="black"/>
<text xml:space="preserve" x="448.033" y="52.7943" fill="black" font-size="12.4124" font-family="Helvetica">Entries </text>
<text xml:space="preserve" x="506.513" y="52.7943" fill="black" font-size="12.4124" font-family="Helvetica"> 100820</text>
<text xml:space="preserve" x="448.033" y="68.2264" fill="black" font-size="12.4124" font-family="Helvetica">Mean  </text>
<text xml:space="preserve" x="515.447" y="68.2264" fill="black" font-size="12.4124" font-family="Helvetica">   1751</text>
<text xml:space="preserve" x="448.033" y="82.8464" fill="black" font-size="12.4124" font-family="Helvetica">Std Dev   </text>
<text xml:space="preserve" x="513.01" y="82.8464" fill="black" font-size="12.4124" font-family="Helvetica">  514.6</text>
<path d="M375.576,344.183l 0.694401, -0.107869l 0.694401, -0.11294l 0.694401, -0.118053l 0.694401, -0.123191l 0.694401, -0.128335l 0.694401, -0.133464l 0.694401, -0.138559l 0.694401, -0.143596l 0.694401, -0.148553l 0.694401, -0.153405l 0.694401,
 -0.158127l 0.694401, -0.162694l 0.694401, -0.167079l 0.694401, -0.171255l 0.694401, -0.175196l 0.694401, -0.178874l 0.694401, -0.182262l 0.694401, -0.185332l 0.694401, -0.188059l 0.694401, -0.190416l 0.694401, -0.192378l 0.694401, -0.193921l
 0.694401, -0.195021l 0.694401, -0.195657l 0.694401, -0.195809l 0.694401, -0.195458l 0.694401, -0.194589l 0.694401, -0.193185l 0.694401, -0.191237l 0.694401, -0.188733l 0.694401, -0.185667l 0.694401, -0.182035l 0.694401, -0.177835l 0.694401,
 -0.173068l 0.694401, -0.167739l 0.694401, -0.161855l 0.694401, -0.155427l 0.694401, -0.148467l 0.694401, -0.140993l 0.694401, -0.133023l 0.694401, -0.12458l 0.694401, -0.115689l 0.694401, -0.106377l 0.694401, -0.0966759l 0.694401, -0.0866169l
 0.694401, -0.0762353l 0.694401, -0.065568l 0.694401, -0.0546536l 0.694401, -0.0435322" fill="none" stroke="#ff0000" stroke-width="2"/>
<path d="M409.602,336.783l 0.694401, -0.0322455l 0.694401, -0.0208358l 0.694401, -0.00934663l 0.694401, 0.00217829l 0.694401, 0.0136949l 0.694401, 0.0251592l 0.694401, 0.0365274l 0.694401, 0.0477566l 0.694401, 0.0588046l 0.694401, 0.0696303l
 0.694401, 0.0801941l 0.694401, 0.090458l 0.694401, 0.100386l 0.694401, 0.109944l 0.694401, 0.1191l 0.694401, 0.127825l 0.694401, 0.136091l 0.694401, 0.143877l 0.694401, 0.151159l 0.694401, 0.157919l 0.694401, 0.164143l 0.694401, 0.169819l 0.694401,
 0.174936l 0.694401, 0.179489l 0.694401, 0.183474l 0.694401, 0.186892l 0.694401, 0.189745l 0.694401, 0.192038l 0.694401, 0.193779l 0.694401, 0.194979l 0.694401, 0.195651l 0.694401, 0.19581l 0.694401, 0.195473l 0.694401, 0.194659l 0.694401, 0.193388l
 0.694401, 0.191685l 0.694401, 0.18957l 0.694401, 0.187071l 0.694401, 0.184211l 0.694401, 0.181017l 0.694401, 0.177517l 0.694401, 0.173736l 0.694401, 0.169703l 0.694401, 0.165445l 0.694401, 0.160988l 0.694401, 0.156359l 0.694401, 0.151585l 0.694401,
 0.146691l 0.694401, 0.141701" fill="none" stroke="#ff0000" stroke-width="2"/>
<path d="M443.627,343.373l 0.694401, 0.136639" fill="none" stroke="#ff0000" stroke-width="2"/>
<text xml:space="preserve" x="253.1" y="18.681" fill="black" font-size="17.9813" font-family="Helvetica">Cs_015</text></svg>
