<?xml version="1.0" standalone="no"?>
<svg width="567.429" height="384.68" viewBox="0 0 567.429 384.68" xmlns="http://www.w3.org/2000/svg" shape-rendering="crispEdges">
<title>
img/week1/high_gain_clb/Cs_015.svg
</title>
<desc>
Creator: ROOT Version 6.22/09
CreationDate: Thu Jul  8 21:07:25 2021</desc>
<defs>
</defs>
<rect x="0.5" y="0" width="566.929" height="384.18" fill="white"/>
<rect x="57.1929" y="38.418" width="453.543" height="307.344" fill="white"/>
<rect x="57.1929" y="38.418" width="453.543" height="307.344" fill="none" stroke="black"/>
<path d="M57.1929,345.762h 67.7105v -0.114406h 0.583711v 0.0572031h 0.583711v -0.686438h 0.583711v -3.14617h 0.583711v -7.49361h 0.583711v -6.86438h 0.583711v -3.03177h 0.583711v -1.43008h 0.583711v 3.31778h 0.583711v 0.972453h 0.583711v 3.08897h
 0.583711v 3.26058h 0.583711v 1.54448h 0.583711v 0.286016h 0.583711v 2.11652h 0.583711v 1.60169h 0.583711v -1.43008h 0.583711v 2.17372h 0.583711v 1.8305h 0.583711v -1.02966h 0.583711v 0.743641h 0.583711v 0.171609h 0.583711v 0.228813h 0.583711v
 0.629234h 0.583711v -0.228813h 0.583711v 0.400422h 0.583711v 0.0572031h 0.583711v -0.686438h 0.583711v 0.629234h 0.583711v 0.114406h 0.583711v 0.629234h 0.583711v -0.572031h 0.583711v 0.228813h 0.583711v -0.171609h 0.583711v -0.686438h 0.583711v
 0.686438h 0.583711v -0.228813h 0.583711v 0.171609h 0.583711v -0.457625h 0.583711v 1.14406h 0.583711v -0.228813h 0.583711v 0.228813h 1.16742v -1.54448h 0.583711v 1.31567h 0.583711v 0.343219h 0.583711v 0.114406h 0.583711v -1.08686h 0.583711v 0.457625h
 0.583711v -0.0572031h 0.583711v 0.91525h 0.583711v -1.71609h 0.583711v 1.31567h 0.583711v -0.800844h 0.583711v 0.91525h 0.583711v -0.400422h 0.583711v -0.171609h 0.583711v -0.572031h 0.583711v 0.343219h 1.16742v -0.343219h 0.583711v 0.228813h
 0.583711v 0.0572031h 0.583711v 0.343219h 0.583711v 0.171609h 0.583711v -0.0572031h 0.583711v -0.0572031h 0.583711v 0.171609h 0.583711v -0.286016h 0.583711v 1.08686h 0.583711v -2.11652h 0.583711v 0.800844h 0.583711v 0.171609h 0.583711v 0.114406h
 0.583711v 0.286016h 0.583711v -0.228813h 0.583711v -0.286016h 0.583711v -0.228813h 0.583711v -0.286016h 0.583711v 0.91525h 0.583711v -0.171609h 0.583711v 0.286016h 0.583711v -0.572031h 1.16742v -0.171609h 0.583711v 0.400422h 0.583711v -0.0572031h
 0.583711v -0.457625h 0.583711v 0.286016h 0.583711v 0.800844h 0.583711v -0.457625h 0.583711v 0.0572031h 0.583711v -0.400422h 0.583711v 0.457625h 0.583711v -0.114406h 0.583711v -0.514828h 0.583711v -0.114406h 0.583711v 1.02966h 0.583711v 0.0572031h
 0.583711v -0.572031h 1.16742v -0.228813h 1.16742v 0.286016h 1.16742v 0.972453h 0.583711v -1.02966h 0.583711v -0.114406h 0.583711v 0.171609h 0.583711v 0.228813h 0.583711v -0.228813h 0.583711v 0.400422h 0.583711v -0.286016h 0.583711v 0.0572031h
 0.583711v 0.0572031h 0.583711v -0.0572031h 0.583711v -0.400422h 0.583711v 0.228813h 0.583711v 0.400422h 0.583711v -0.457625h 0.583711v 0.286016h 0.583711v -0.629234h 0.583711v 0.0572031h 0.583711v 0.286016h 0.583711v 0.858047h 0.583711v -0.572031h
 0.583711v 0.400422h 0.583711v -0.972453h 0.583711v 0.800844h 0.583711v -0.228813h 0.583711v 0.228813h 0.583711v -0.400422h 0.583711v 0.686438h 0.583711v -0.686438h 0.583711v 0.286016h 0.583711v -0.286016h 0.583711v 0.171609h 0.583711v -0.114406h
 0.583711v 0.171609h 0.583711v -0.0572031h 1.16742v -0.0572031h 0.583711v 0.400422h 0.583711v -0.286016h 1.16742v -0.114406h 0.583711v 0.228813h 0.583711v 0.343219h 0.583711v -0.572031h 0.583711v 0.171609h 0.583711v 0.171609h 0.583711v -0.0572031h
 0.583711v 0.457625h 0.583711v -0.514828h 0.583711v -0.0572031h 0.583711v 0.800844h 0.583711v 0.114406h 0.583711v -0.514828h 0.583711v -0.686438h 0.583711v 0.171609h 0.583711v 0.400422h 0.583711v -0.0572031h 0.583711v -0.629234h 0.583711v 0.743641h
 0.583711v -0.800844h 0.583711v 0.228813h 0.583711v 0.743641h 0.583711v -0.171609h 0.583711v -0.343219h 0.583711v -0.0572031h 0.583711v -0.114406h 0.583711v 0.343219h 0.583711v 0.343219h 0.583711v -0.0572031h 0.583711v -0.286016h 0.583711v -0.457625h
 0.583711v -0.114406h 0.583711v 0.228813h 0.583711v -0.0572031h 0.583711v -0.0572031h 0.583711v -0.171609h 0.583711v 0.686438h 0.583711v -0.286016h 0.583711v 0.286016h 1.16742v 0.743641h 0.583711v -0.686438h 0.583711v -0.228813h 0.583711v 0.114406h
 0.583711v 0.286016h 0.583711v -0.572031h 0.583711v 0.572031h 0.583711v -0.343219h 0.583711v 0.114406h 0.583711v -0.629234h 0.583711v 0.686438h 0.583711v -0.343219h 1.16742v 0.800844h 0.583711v -0.457625h 0.583711v -0.286016h 0.583711v -0.114406h
 0.583711v 0.114406h 0.583711v -0.457625h 0.583711v 0.114406h 0.583711v 0.171609h 0.583711v 0.171609h 0.583711v 0.171609h 0.583711v 0.400422h 0.583711v -0.572031h 0.583711v 0.514828h 0.583711v -0.114406h 0.583711v 0.0572031h 0.583711v 0.343219h
 0.583711v -0.686438h 0.583711v 0.572031h 0.583711v -0.686438h 0.583711v 0.228813h 0.583711v -0.629234h 0.583711v -0.114406h 0.583711v -0.171609h 0.583711v 1.08686h 0.583711v -0.114406h 0.583711v 0.114406h 0.583711v -0.572031h 0.583711v 0.114406h
 0.583711v 0.0572031h 0.583711v 0.171609h 0.583711v -0.457625h 0.583711v 0.514828h 0.583711v -0.286016h 0.583711v -0.171609h 0.583711v 0.343219h 0.583711v 0.171609h 0.583711v -0.228813h 0.583711v 0.114406h 0.583711v -0.228813h 0.583711v 0.514828h
 0.583711v -0.343219h 0.583711v 0.343219h 0.583711v 0.0572031h 0.583711v -0.457625h 0.583711v 0.514828h 0.583711v -0.743641h 0.583711v 0.400422h 0.583711v -0.400422h 0.583711v 0.400422h 0.583711v 0.0572031h 1.16742v 0.0572031h 0.583711v -0.343219h
 0.583711v 0.114406h 0.583711v 0.400422h 0.583711v -0.0572031h 0.583711v -0.572031h 0.583711v -0.114406h 0.583711v 0.343219h 0.583711v 0.572031h 0.583711v -0.629234h 0.583711v -0.228813h 0.583711v -0.286016h 0.583711v 0.91525h 0.583711v -0.686438h
 0.583711v -0.343219h 0.583711v 0.228813h 0.583711v 0.228813h 0.583711v -1.31567h 0.583711v 0.972453h 0.583711v -0.514828h 0.583711v 0.629234h 0.583711v -0.514828h 0.583711v 0.286016h 0.583711v 0.743641h 0.583711v -0.686438h 0.583711v 0.286016h
 0.583711v -0.629234h 0.583711v 0.629234h 1.75113v -0.686438h 0.583711v -0.228813h 0.583711v -0.114406h 0.583711v 0.514828h 0.583711v -0.572031h 0.583711v 0.0572031h 0.583711v 0.343219h 0.583711v -0.514828h 0.583711v -0.171609h 0.583711v -0.514828h
 0.583711v 0.171609h 0.583711v 0.629234h 0.583711v -0.457625h 0.583711v -0.743641h 0.583711v 1.20127h 0.583711v -0.514828h 0.583711v -0.343219h 1.16742v -0.343219h 0.583711v 0.514828h 0.583711v -1.37288h 0.583711v 1.14406h 0.583711v 1.02966h
 0.583711v -1.71609h 0.583711v 0.972453h 0.583711v -0.743641h 0.583711v 1.14406h 0.583711v -0.91525h 0.583711v 0.286016h 0.583711v 0.0572031h 0.583711v 0.114406h 0.583711v 0.171609h 0.583711v -0.343219h 0.583711v -0.286016h 0.583711v 0.400422h
 0.583711v -0.228813h 0.583711v 0.686438h 0.583711v -0.858047h 0.583711v -0.0572031h 0.583711v 0.286016h 0.583711v 0.400422h 0.583711v -0.171609h 0.583711v -0.514828h 0.583711v -0.114406h 0.583711v 0.91525h 0.583711v 0.686438h 0.583711v -0.286016h
 0.583711v -0.343219h 0.583711v 0.0572031h 0.583711v -0.686438h 0.583711v 1.02966h 0.583711v -0.457625h 0.583711v -0.0572031h 0.583711v 0.572031h 0.583711v -1.54448h 0.583711v 1.31567h 0.583711v 0.114406h 0.583711v -0.0572031h 0.583711v 1.14406h
 0.583711v -1.20127h 0.583711v 0.514828h 0.583711v -0.286016h 0.583711v 0.286016h 1.16742v -0.286016h 0.583711v 0.686438h 1.16742v 0.228813h 0.583711v -0.0572031h 0.583711v -0.572031h 0.583711v -0.114406h 0.583711v -0.286016h 0.583711v 0.286016h
 0.583711v 0.400422h 0.583711v 0.400422h 0.583711v 0.286016h 0.583711v -0.114406h 0.583711v -0.400422h 0.583711v 0.800844h 0.583711v -0.171609h 0.583711v -0.114406h 0.583711v -0.572031h 0.583711v 0.457625h 0.583711v -0.457625h 0.583711v -0.514828h
 0.583711v 0.686438h 0.583711v 0.286016h 0.583711v -0.171609h 0.583711v -0.0572031h 0.583711v 0.572031h 0.583711v -0.800844h 0.583711v 0.686438h 0.583711v -0.343219h 0.583711v -0.114406h 0.583711v 0.457625h 0.583711v -0.457625h 0.583711v -0.0572031h
 0.583711v -0.0572031h 0.583711v 0.228813h 0.583711v 0.171609h 0.583711v 0.629234h 0.583711v -0.514828h 0.583711v 0.572031h 0.583711v -0.743641h 0.583711v 0.0572031h 0.583711v -0.171609h 0.583711v 0.114406h 0.583711v -0.572031h 0.583711v 0.572031h
 0.583711v 0.228813h 0.583711v -0.286016h 0.583711v 0.286016h 0.583711v 0.228813h 0.583711v -0.858047h 0.583711v 0.743641h 0.583711v 0.114406h 0.583711v -0.572031h 0.583711v 0.228813h 0.583711v 0.0572031h 0.583711v -0.0572031h 0.583711v 0.114406h
 0.583711v 0.0572031h 0.583711v -0.228813h 0.583711v -0.972453h 0.583711v 1.08686h 0.583711v -0.629234h 0.583711v 0.171609h 0.583711v -0.0572031h 0.583711v 0.228813h 0.583711v 0.228813h 1.16742v -0.514828h 0.583711v 0.0572031h 0.583711v 0.800844h
 0.583711v -0.743641h 0.583711v 0.286016h 0.583711v -0.286016h 0.583711v -0.114406h 0.583711v 0.457625h 0.583711v -0.514828h 0.583711v 0.286016h 0.583711v -0.286016h 0.583711v -0.0572031h 0.583711v 0.114406h 0.583711v 0.0572031h 0.583711v -0.171609h
 0.583711v -0.286016h 0.583711v -0.228813h 0.583711v 0.114406h 0.583711v -0.400422h 0.583711v 0.514828h 0.583711v 0.400422h 0.583711v -0.171609h 0.583711v -0.858047h 1.16742v 0.572031h 0.583711v -0.114406h 0.583711v -0.286016h 0.583711v 0.0572031h
 1.16742v -0.114406h 0.583711v -0.343219h 0.583711v -0.0572031h 0.583711v -0.0572031h 0.583711v -0.686438h 0.583711v 0.0572031h 0.583711v 0.572031h 0.583711v -0.686438h 0.583711v -0.686438h 0.583711v 0.514828h 0.583711v 0.286016h 0.583711v -0.457625h
 0.583711v -0.572031h 0.583711v -0.629234h 0.583711v 0.514828h 0.583711v -0.0572031h 0.583711v -0.286016h 0.583711v 0.286016h 0.583711v -1.60169h 0.583711v -1.08686h 0.583711v 2.34533h 0.583711v -1.25847h 0.583711v -0.457625h 0.583711v 0.114406h
 0.583711v 0.743641h 0.583711v -1.20127h 0.583711v 2.00211h 0.583711v -3.08897h 0.583711v -0.629234h 0.583711v 1.8877h 0.583711v -0.572031h 0.583711v -1.37288h 0.583711v -0.972453h 0.583711v 1.14406h 0.583711v 0.400422h 0.583711v -0.514828h 0.583711v
 -0.800844h 0.583711v -0.572031h 0.583711v 0.686438h 0.583711v -0.629234h 0.583711v -1.7733h 0.583711v 2.00211h 0.583711v -1.14406h 0.583711v 0.457625h 0.583711v 0.457625h 0.583711v -0.228813h 0.583711v -2.91736h 0.583711v 2.17372h 0.583711v
 -1.65889h 0.583711v -0.858047h 0.583711v 0.286016h 0.583711v 1.31567h 0.583711v 0.686438h 0.583711v -0.629234h 0.583711v 0.286016h 0.583711v -0.686438h 0.583711v -0.114406h 0.583711v -2.34533h 0.583711v 3.37498h 0.583711v -2.51694h 0.583711v
 1.14406h 0.583711v 1.43008h 0.583711v 0.171609h 0.583711v -1.8305h 0.583711v 0.228813h 0.583711v 1.65889h 0.583711v -0.743641h 0.583711v -0.972453h 0.583711v 1.65889h 0.583711v -0.514828h 0.583711v 0.858047h 0.583711v 0.800844h 0.583711v -2.11652h
 0.583711v 0.800844h 0.583711v 0.629234h 0.583711v -0.743641h 0.583711v 2.17372h 0.583711v -0.743641h 0.583711v 2.34533h 0.583711v -1.43008h 0.583711v 0.114406h 0.583711v 0.686438h 0.583711v 0.286016h 0.583711v -0.743641h 0.583711v 1.48728h 0.583711v
 -0.0572031h 0.583711v 0.572031h 0.583711v -0.400422h 0.583711v 1.25847h 0.583711v -0.286016h 0.583711v 0.572031h 0.583711v -2.17372h 0.583711v 2.28813h 0.583711v 0.457625h 0.583711v 1.43008h 0.583711v -1.8877h 0.583711v 0.91525h 0.583711v -0.114406h
 0.583711v 0.91525h 0.583711v -0.400422h 0.583711v -0.629234h 0.583711v 1.54448h 0.583711v -0.400422h 0.583711v 0.800844h 0.583711v 0.286016h 0.583711v -0.171609h 0.583711v 0.171609h 0.583711v 0.572031h 0.583711v -0.171609h 0.583711v -1.37288h
 0.583711v 0.171609h 0.583711v 0.972453h 0.583711v -0.457625h 0.583711v 0.286016h 0.583711v 0.171609h 0.583711v -0.286016h 0.583711v 0.972453h 0.583711v -0.743641h 0.583711v 0.400422h 0.583711v 0.0572031h 0.583711v -0.572031h 0.583711v 0.286016h
 0.583711v -0.171609h 0.583711v 0.800844h 0.583711v -0.514828h 0.583711v -0.514828h 0.583711v 0.743641h 0.583711v -0.171609h 0.583711v 0.171609h 0.583711v 0.0572031h 0.583711v -0.343219h 0.583711v -0.114406h 0.583711v -0.91525h 0.583711v -0.91525h
 0.583711v -3.31778h 0.583711v -15.216h 0.583711v -42.8451h 0.583711v -97.3597h 0.583711v -99.9339h 0.583711v -28.6588h 0.583711v 33.6926h 0.583711v 45.8769h 0.583711v 25.9702h 0.583711v 29.1736h 0.583711v 39.8706h 0.583711v 24.3113h 0.583711v
 24.4829h 0.583711v 3.83261h 0.583711v 5.26269h 0.583711v 8.35166h 0.583711v -0.343219h 0.583711v -0.686438h 0.583711v 1.02966h 0.583711v 3.14617h 0.583711v 0.114406h 0.583711v 4.91947h 0.583711v -1.60169h 0.583711v -2.80295h 0.583711v 3.94702h
 0.583711v -0.0572031h 0.583711v -1.71609h 0.583711v -0.743641h 0.583711v 1.37288h 0.583711v 1.02966h 0.583711v -0.457625h 0.583711v -1.37288h 0.583711v 0.171609h 0.583711v -2.00211h 0.583711v 2.63134h 0.583711v 3.48939h 0.583711v -1.31567h 0.583711v
 -3.83261h 0.583711v 4.86227h 0.583711v 0.972453h 0.583711v 0.686438h 0.583711v 4.74786h 0.583711v 1.94491h 0.583711v 6.86438h 0.583711v 6.74997h 0.583711v 7.2648h 0.583711v 5.60591h 0.583711v 2.17372h 0.583711v 3.26058h 0.583711v 1.31567h 0.583711v
 0.171609h 0.583711v 0.114406h 0.583711v 0.228813h 5.83711v -0.0572031h 0.583711v 0.0572031h 14.0091v -0.0572031h 0.583711" fill="none" stroke="#000099"/>
<path d="M57.1929,345.762h 453.543" fill="none" stroke="black"/>
<path d="M57.7766,336.541v 9.22031" fill="none" stroke="black"/>
<path d="M77.2337,341.152v 4.61016" fill="none" stroke="black"/>
<path d="M96.6907,341.152v 4.61016" fill="none" stroke="black"/>
<path d="M116.148,341.152v 4.61016" fill="none" stroke="black"/>
<path d="M135.605,341.152v 4.61016" fill="none" stroke="black"/>
<path d="M155.062,336.541v 9.22031" fill="none" stroke="black"/>
<path d="M174.519,341.152v 4.61016" fill="none" stroke="black"/>
<path d="M193.976,341.152v 4.61016" fill="none" stroke="black"/>
<path d="M213.433,341.152v 4.61016" fill="none" stroke="black"/>
<path d="M232.89,341.152v 4.61016" fill="none" stroke="black"/>
<path d="M252.347,336.541v 9.22031" fill="none" stroke="black"/>
<path d="M271.804,341.152v 4.61016" fill="none" stroke="black"/>
<path d="M291.261,341.152v 4.61016" fill="none" stroke="black"/>
<path d="M310.718,341.152v 4.61016" fill="none" stroke="black"/>
<path d="M330.175,341.152v 4.61016" fill="none" stroke="black"/>
<path d="M349.632,336.541v 9.22031" fill="none" stroke="black"/>
<path d="M369.089,341.152v 4.61016" fill="none" stroke="black"/>
<path d="M388.546,341.152v 4.61016" fill="none" stroke="black"/>
<path d="M408.003,341.152v 4.61016" fill="none" stroke="black"/>
<path d="M427.46,341.152v 4.61016" fill="none" stroke="black"/>
<path d="M446.917,336.541v 9.22031" fill="none" stroke="black"/>
<path d="M57.7766,336.541v 9.22031" fill="none" stroke="black"/>
<path d="M446.917,336.541v 9.22031" fill="none" stroke="black"/>
<path d="M466.374,341.152v 4.61016" fill="none" stroke="black"/>
<path d="M485.831,341.152v 4.61016" fill="none" stroke="black"/>
<path d="M505.288,341.152v 4.61016" fill="none" stroke="black"/>
<text xml:space="preserve" x="54.1065" y="358.189" fill="black" font-size="12.836" font-family="Helvetica">0</text>
<text xml:space="preserve" x="144.263" y="358.189" fill="black" font-size="12.836" font-family="Helvetica">500</text>
<text xml:space="preserve" x="238.48" y="358.189" fill="black" font-size="12.836" font-family="Helvetica">1000</text>
<text xml:space="preserve" x="335.134" y="358.189" fill="black" font-size="12.836" font-family="Helvetica">1500</text>
<text xml:space="preserve" x="432.601" y="358.189" fill="black" font-size="12.836" font-family="Helvetica">2000</text>
<text xml:space="preserve" x="452.094" y="371.996" fill="black" font-size="12.836" font-family="Helvetica">ADC value</text>
<path d="M57.1929,345.762v -307.344" fill="none" stroke="black"/>
<path d="M70.7992,345.762h -13.6063" fill="none" stroke="black"/>
<path d="M63.9961,334.321h -6.80315" fill="none" stroke="black"/>
<path d="M63.9961,322.881h -6.80315" fill="none" stroke="black"/>
<path d="M63.9961,311.44h -6.80315" fill="none" stroke="black"/>
<path d="M63.9961,299.999h -6.80315" fill="none" stroke="black"/>
<path d="M70.7992,288.559h -13.6063" fill="none" stroke="black"/>
<path d="M63.9961,277.118h -6.80315" fill="none" stroke="black"/>
<path d="M63.9961,265.677h -6.80315" fill="none" stroke="black"/>
<path d="M63.9961,254.237h -6.80315" fill="none" stroke="black"/>
<path d="M63.9961,242.796h -6.80315" fill="none" stroke="black"/>
<path d="M70.7992,231.356h -13.6063" fill="none" stroke="black"/>
<path d="M63.9961,219.915h -6.80315" fill="none" stroke="black"/>
<path d="M63.9961,208.474h -6.80315" fill="none" stroke="black"/>
<path d="M63.9961,197.034h -6.80315" fill="none" stroke="black"/>
<path d="M63.9961,185.593h -6.80315" fill="none" stroke="black"/>
<path d="M70.7992,174.152h -13.6063" fill="none" stroke="black"/>
<path d="M63.9961,162.712h -6.80315" fill="none" stroke="black"/>
<path d="M63.9961,151.271h -6.80315" fill="none" stroke="black"/>
<path d="M63.9961,139.831h -6.80315" fill="none" stroke="black"/>
<path d="M63.9961,128.39h -6.80315" fill="none" stroke="black"/>
<path d="M70.7992,116.949h -13.6063" fill="none" stroke="black"/>
<path d="M63.9961,105.509h -6.80315" fill="none" stroke="black"/>
<path d="M63.9961,94.068h -6.80315" fill="none" stroke="black"/>
<path d="M63.9961,82.6274h -6.80315" fill="none" stroke="black"/>
<path d="M63.9961,71.1868h -6.80315" fill="none" stroke="black"/>
<path d="M70.7992,59.7462h -13.6063" fill="none" stroke="black"/>
<path d="M70.7992,59.7462h -13.6063" fill="none" stroke="black"/>
<path d="M63.9961,48.3055h -6.80315" fill="none" stroke="black"/>
<text xml:space="preserve" x="47.6087" y="350.067" fill="black" font-size="12.836" font-family="Helvetica">0</text>
<text xml:space="preserve" x="27.3032" y="293.211" fill="black" font-size="12.836" font-family="Helvetica">1000</text>
<text xml:space="preserve" x="27.3032" y="235.544" fill="black" font-size="12.836" font-family="Helvetica">2000</text>
<text xml:space="preserve" x="27.3032" y="178.688" fill="black" font-size="12.836" font-family="Helvetica">3000</text>
<text xml:space="preserve" x="27.3032" y="121.021" fill="black" font-size="12.836" font-family="Helvetica">4000</text>
<text xml:space="preserve" x="27.3032" y="64.1653" fill="black" font-size="12.836" font-family="Helvetica">5000</text>
<g transform="rotate(-90,14.3077,69.8509)">
<text xml:space="preserve" x="14.3077" y="69.8509" fill="black" font-size="12.836" font-family="Helvetica">Event</text>
</g>
<text xml:space="preserve" x="253.1" y="18.681" fill="black" font-size="17.9813" font-family="Helvetica">Cs_015</text>
<rect x="442.705" y="24.9717" width="113.386" height="61.4688" fill="white"/>
<path d="M442.705,86.4405h 113.386" fill="none" stroke="black"/>
<path d="M556.091,86.4405v -61.4688" fill="none" stroke="black"/>
<path d="M556.091,24.9717h -113.386" fill="none" stroke="black"/>
<path d="M442.705,24.9717v 61.4688" fill="none" stroke="black"/>
<text xml:space="preserve" x="476.461" y="36.5499" fill="black" font-size="13.4705" font-family="Helvetica">Cs_015</text>
<path d="M442.705,40.3389h 113.386" fill="none" stroke="black"/>
<text xml:space="preserve" x="448.033" y="52.7943" fill="black" font-size="12.4124" font-family="Helvetica">Entries </text>
<text xml:space="preserve" x="506.513" y="52.7943" fill="black" font-size="12.4124" font-family="Helvetica"> 100820</text>
<text xml:space="preserve" x="448.033" y="68.2264" fill="black" font-size="12.4124" font-family="Helvetica">Mean  </text>
<text xml:space="preserve" x="513.01" y="68.2264" fill="black" font-size="12.4124" font-family="Helvetica">   1799</text>
<text xml:space="preserve" x="448.033" y="82.8464" fill="black" font-size="12.4124" font-family="Helvetica">Std Dev   </text>
<text xml:space="preserve" x="513.01" y="82.8464" fill="black" font-size="12.4124" font-family="Helvetica">  513.8</text>
<path d="M369.43,344.398l 0.680996, -0.0957241l 0.680996, -0.100803l 0.680996, -0.106014l 0.680996, -0.111348l 0.680996, -0.116798l 0.680996, -0.122352l 0.680996, -0.128l 0.680996, -0.133729l 0.680996, -0.139525l 0.680996, -0.145375l 0.680996,
 -0.151262l 0.680996, -0.157169l 0.680996, -0.163078l 0.680996, -0.168971l 0.680996, -0.174828l 0.680996, -0.180626l 0.680996, -0.186346l 0.680996, -0.191963l 0.680996, -0.197455l 0.680996, -0.202797l 0.680996, -0.207965l 0.680996, -0.212934l
 0.680996, -0.217677l 0.680996, -0.222171l 0.680996, -0.226387l 0.680996, -0.230302l 0.680996, -0.233889l 0.680996, -0.237124l 0.680996, -0.23998l 0.680996, -0.242435l 0.680996, -0.244464l 0.680996, -0.246046l 0.680996, -0.247158l 0.680996,
 -0.247781l 0.680996, -0.247896l 0.680996, -0.247486l 0.680996, -0.246535l 0.680996, -0.24503l 0.680996, -0.242958l 0.680996, -0.240311l 0.680996, -0.237079l 0.680996, -0.233259l 0.680996, -0.228847l 0.680996, -0.223843l 0.680996, -0.218249l
 0.680996, -0.212069l 0.680996, -0.205311l 0.680996, -0.197985l 0.680996, -0.190102" fill="none" stroke="#ff0000" stroke-width="2"/>
<path d="M402.798,334.751l 0.680996, -0.181678l 0.680996, -0.172731l 0.680996, -0.16328l 0.680996, -0.153348l 0.680996, -0.142959l 0.680996, -0.132142l 0.680996, -0.120924l 0.680996, -0.109338l 0.680996, -0.0974167l 0.680996, -0.0851945l 0.680996,
 -0.072708l 0.680996, -0.059995l 0.680996, -0.0470945l 0.680996, -0.0340463l 0.680996, -0.0208911l 0.680996, -0.00767013l 0.680996, 0.00557496l 0.680996, 0.0188025l 0.680996, 0.0319709l 0.680996, 0.0450387l 0.680996, 0.0579653l 0.680996, 0.0707106l
 0.680996, 0.0832354l 0.680996, 0.0955019l 0.680996, 0.107473l 0.680996, 0.119115l 0.680996, 0.130393l 0.680996, 0.141275l 0.680996, 0.151734l 0.680996, 0.16174l 0.680996, 0.171268l 0.680996, 0.180297l 0.680996, 0.188805l 0.680996, 0.196774l
 0.680996, 0.20419l 0.680996, 0.211038l 0.680996, 0.21731l 0.680996, 0.222997l 0.680996, 0.228095l 0.680996, 0.232601l 0.680996, 0.236514l 0.680996, 0.239838l 0.680996, 0.242578l 0.680996, 0.24474l 0.680996, 0.246335l 0.680996, 0.247372l 0.680996,
 0.247867l 0.680996, 0.247834l 0.680996, 0.24729" fill="none" stroke="#ff0000" stroke-width="2"/>
<path d="M436.167,338.623l 0.680996, 0.246253" fill="none" stroke="#ff0000" stroke-width="2"/>
<text xml:space="preserve" x="253.1" y="18.681" fill="black" font-size="17.9813" font-family="Helvetica">Cs_015</text></svg>
