<?xml version="1.0" standalone="no"?>
<svg width="567.429" height="384.969" viewBox="0 0 567.429 384.969" xmlns="http://www.w3.org/2000/svg" shape-rendering="crispEdges">
<title>
img/week1/high_gain_clb/final.svg
</title>
<desc>
Creator: ROOT Version 6.22/09
CreationDate: Tue Jul 13 19:33:21 2021</desc>
<defs>
</defs>
<rect x="0.5" y="0" width="566.929" height="384.469" fill="white"/>
<rect x="57.1929" y="38.4469" width="453.543" height="307.575" fill="white"/>
<rect x="57.1929" y="38.4469" width="453.543" height="307.575" fill="none" stroke="black"/>
<rect x="57.1929" y="38.4469" width="453.543" height="307.575" fill="white"/>
<rect x="57.1929" y="38.4469" width="453.543" height="307.575" fill="none" stroke="black"/>
<path d="M57.1929,346.022h 453.543" fill="none" stroke="black"/>
<path d="M57.1929,336.795v 9.22726" fill="none" stroke="black"/>
<path d="M66.2638,341.409v 4.61363" fill="none" stroke="black"/>
<path d="M75.3346,341.409v 4.61363" fill="none" stroke="black"/>
<path d="M84.4055,341.409v 4.61363" fill="none" stroke="black"/>
<path d="M93.4764,341.409v 4.61363" fill="none" stroke="black"/>
<path d="M102.547,336.795v 9.22726" fill="none" stroke="black"/>
<path d="M111.618,341.409v 4.61363" fill="none" stroke="black"/>
<path d="M120.689,341.409v 4.61363" fill="none" stroke="black"/>
<path d="M129.76,341.409v 4.61363" fill="none" stroke="black"/>
<path d="M138.831,341.409v 4.61363" fill="none" stroke="black"/>
<path d="M147.902,336.795v 9.22726" fill="none" stroke="black"/>
<path d="M156.972,341.409v 4.61363" fill="none" stroke="black"/>
<path d="M166.043,341.409v 4.61363" fill="none" stroke="black"/>
<path d="M175.114,341.409v 4.61363" fill="none" stroke="black"/>
<path d="M184.185,341.409v 4.61363" fill="none" stroke="black"/>
<path d="M193.256,336.795v 9.22726" fill="none" stroke="black"/>
<path d="M202.327,341.409v 4.61363" fill="none" stroke="black"/>
<path d="M211.398,341.409v 4.61363" fill="none" stroke="black"/>
<path d="M220.469,341.409v 4.61363" fill="none" stroke="black"/>
<path d="M229.539,341.409v 4.61363" fill="none" stroke="black"/>
<path d="M238.61,336.795v 9.22726" fill="none" stroke="black"/>
<path d="M247.681,341.409v 4.61363" fill="none" stroke="black"/>
<path d="M256.752,341.409v 4.61363" fill="none" stroke="black"/>
<path d="M265.823,341.409v 4.61363" fill="none" stroke="black"/>
<path d="M274.894,341.409v 4.61363" fill="none" stroke="black"/>
<path d="M283.965,336.795v 9.22726" fill="none" stroke="black"/>
<path d="M293.035,341.409v 4.61363" fill="none" stroke="black"/>
<path d="M302.106,341.409v 4.61363" fill="none" stroke="black"/>
<path d="M311.177,341.409v 4.61363" fill="none" stroke="black"/>
<path d="M320.248,341.409v 4.61363" fill="none" stroke="black"/>
<path d="M329.319,336.795v 9.22726" fill="none" stroke="black"/>
<path d="M338.39,341.409v 4.61363" fill="none" stroke="black"/>
<path d="M347.461,341.409v 4.61363" fill="none" stroke="black"/>
<path d="M356.531,341.409v 4.61363" fill="none" stroke="black"/>
<path d="M365.602,341.409v 4.61363" fill="none" stroke="black"/>
<path d="M374.673,336.795v 9.22726" fill="none" stroke="black"/>
<path d="M383.744,341.409v 4.61363" fill="none" stroke="black"/>
<path d="M392.815,341.409v 4.61363" fill="none" stroke="black"/>
<path d="M401.886,341.409v 4.61363" fill="none" stroke="black"/>
<path d="M410.957,341.409v 4.61363" fill="none" stroke="black"/>
<path d="M420.028,336.795v 9.22726" fill="none" stroke="black"/>
<path d="M429.098,341.409v 4.61363" fill="none" stroke="black"/>
<path d="M438.169,341.409v 4.61363" fill="none" stroke="black"/>
<path d="M447.24,341.409v 4.61363" fill="none" stroke="black"/>
<path d="M456.311,341.409v 4.61363" fill="none" stroke="black"/>
<path d="M465.382,336.795v 9.22726" fill="none" stroke="black"/>
<path d="M474.453,341.409v 4.61363" fill="none" stroke="black"/>
<path d="M483.524,341.409v 4.61363" fill="none" stroke="black"/>
<path d="M492.594,341.409v 4.61363" fill="none" stroke="black"/>
<path d="M501.665,341.409v 4.61363" fill="none" stroke="black"/>
<path d="M510.736,336.795v 9.22726" fill="none" stroke="black"/>
<text xml:space="preserve" x="53.446" y="358.403" fill="black" font-size="12.8453" font-family="Helvetica">0</text>
<text xml:space="preserve" x="99.061" y="358.403" fill="black" font-size="12.8453" font-family="Helvetica">5</text>
<text xml:space="preserve" x="140.603" y="358.403" fill="black" font-size="12.8453" font-family="Helvetica">10</text>
<text xml:space="preserve" x="185.404" y="358.403" fill="black" font-size="12.8453" font-family="Helvetica">15</text>
<text xml:space="preserve" x="231.833" y="358.403" fill="black" font-size="12.8453" font-family="Helvetica">20</text>
<text xml:space="preserve" x="276.634" y="358.403" fill="black" font-size="12.8453" font-family="Helvetica">25</text>
<text xml:space="preserve" x="322.249" y="358.403" fill="black" font-size="12.8453" font-family="Helvetica">30</text>
<text xml:space="preserve" x="367.049" y="358.403" fill="black" font-size="12.8453" font-family="Helvetica">35</text>
<text xml:space="preserve" x="413.479" y="358.403" fill="black" font-size="12.8453" font-family="Helvetica">40</text>
<text xml:space="preserve" x="457.464" y="358.403" fill="black" font-size="12.8453" font-family="Helvetica">45</text>
<text xml:space="preserve" x="503.894" y="358.403" fill="black" font-size="12.8453" font-family="Helvetica">50</text>
<text xml:space="preserve" x="441.173" y="370.622" fill="black" font-size="12.8453" font-family="Helvetica">Energy [keV]</text>
<path d="M57.1929,346.022v -307.575" fill="none" stroke="black"/>
<path d="M70.7992,346.022h -13.6063" fill="none" stroke="black"/>
<path d="M63.9961,338.333h -6.80315" fill="none" stroke="black"/>
<path d="M63.9961,330.643h -6.80315" fill="none" stroke="black"/>
<path d="M63.9961,322.954h -6.80315" fill="none" stroke="black"/>
<path d="M70.7992,315.265h -13.6063" fill="none" stroke="black"/>
<path d="M63.9961,307.575h -6.80315" fill="none" stroke="black"/>
<path d="M63.9961,299.886h -6.80315" fill="none" stroke="black"/>
<path d="M63.9961,292.197h -6.80315" fill="none" stroke="black"/>
<path d="M70.7992,284.507h -13.6063" fill="none" stroke="black"/>
<path d="M63.9961,276.818h -6.80315" fill="none" stroke="black"/>
<path d="M63.9961,269.128h -6.80315" fill="none" stroke="black"/>
<path d="M63.9961,261.439h -6.80315" fill="none" stroke="black"/>
<path d="M70.7992,253.75h -13.6063" fill="none" stroke="black"/>
<path d="M63.9961,246.06h -6.80315" fill="none" stroke="black"/>
<path d="M63.9961,238.371h -6.80315" fill="none" stroke="black"/>
<path d="M63.9961,230.682h -6.80315" fill="none" stroke="black"/>
<path d="M70.7992,222.992h -13.6063" fill="none" stroke="black"/>
<path d="M63.9961,215.303h -6.80315" fill="none" stroke="black"/>
<path d="M63.9961,207.613h -6.80315" fill="none" stroke="black"/>
<path d="M63.9961,199.924h -6.80315" fill="none" stroke="black"/>
<path d="M70.7992,192.235h -13.6063" fill="none" stroke="black"/>
<path d="M63.9961,184.545h -6.80315" fill="none" stroke="black"/>
<path d="M63.9961,176.856h -6.80315" fill="none" stroke="black"/>
<path d="M63.9961,169.166h -6.80315" fill="none" stroke="black"/>
<path d="M70.7992,161.477h -13.6063" fill="none" stroke="black"/>
<path d="M63.9961,153.788h -6.80315" fill="none" stroke="black"/>
<path d="M63.9961,146.098h -6.80315" fill="none" stroke="black"/>
<path d="M63.9961,138.409h -6.80315" fill="none" stroke="black"/>
<path d="M70.7992,130.72h -13.6063" fill="none" stroke="black"/>
<path d="M63.9961,123.03h -6.80315" fill="none" stroke="black"/>
<path d="M63.9961,115.341h -6.80315" fill="none" stroke="black"/>
<path d="M63.9961,107.651h -6.80315" fill="none" stroke="black"/>
<path d="M70.7992,99.962h -13.6063" fill="none" stroke="black"/>
<path d="M63.9961,92.2726h -6.80315" fill="none" stroke="black"/>
<path d="M63.9961,84.5832h -6.80315" fill="none" stroke="black"/>
<path d="M63.9961,76.8938h -6.80315" fill="none" stroke="black"/>
<path d="M70.7992,69.2045h -13.6063" fill="none" stroke="black"/>
<path d="M63.9961,61.5151h -6.80315" fill="none" stroke="black"/>
<path d="M63.9961,53.8257h -6.80315" fill="none" stroke="black"/>
<path d="M63.9961,46.1363h -6.80315" fill="none" stroke="black"/>
<path d="M70.7992,38.4469h -13.6063" fill="none" stroke="black"/>
<text xml:space="preserve" x="47.7441" y="350.258" fill="black" font-size="12.8453" font-family="Helvetica">0</text>
<text xml:space="preserve" x="33.8967" y="320.119" fill="black" font-size="12.8453" font-family="Helvetica">200</text>
<text xml:space="preserve" x="33.8967" y="289.166" fill="black" font-size="12.8453" font-family="Helvetica">400</text>
<text xml:space="preserve" x="33.8967" y="258.213" fill="black" font-size="12.8453" font-family="Helvetica">600</text>
<text xml:space="preserve" x="33.8967" y="227.26" fill="black" font-size="12.8453" font-family="Helvetica">800</text>
<text xml:space="preserve" x="27.3803" y="197.122" fill="black" font-size="12.8453" font-family="Helvetica">1000</text>
<text xml:space="preserve" x="27.3803" y="166.169" fill="black" font-size="12.8453" font-family="Helvetica">1200</text>
<text xml:space="preserve" x="27.3803" y="135.216" fill="black" font-size="12.8453" font-family="Helvetica">1400</text>
<text xml:space="preserve" x="27.3803" y="104.263" fill="black" font-size="12.8453" font-family="Helvetica">1600</text>
<text xml:space="preserve" x="27.3803" y="73.3098" fill="black" font-size="12.8453" font-family="Helvetica">1800</text>
<text xml:space="preserve" x="27.3803" y="43.1713" fill="black" font-size="12.8453" font-family="Helvetica">2000</text>
<g transform="rotate(-90,15.162,98.561)">
<text xml:space="preserve" x="15.162" y="98.561" fill="black" font-size="12.8453" font-family="Helvetica">ADC Value</text>
</g>
<path d="M216.84,199.461v -0.184296" fill="none" stroke="black"/>
<path d="M215.211,199.277h 3.25821" fill="none" stroke="black"/>
<path d="M216.84,199.461v 0.184296" fill="none" stroke="black"/>
<path d="M215.211,199.645h 3.25821" fill="none" stroke="black"/>
<path d="M245.867,170.722v -0.42523" fill="none" stroke="black"/>
<path d="M244.238,170.297h 3.25821" fill="none" stroke="black"/>
<path d="M245.867,170.722v 0.42523" fill="none" stroke="black"/>
<path d="M244.238,171.148h 3.25821" fill="none" stroke="black"/>
<path d="M295.757,122.976v -0.59061" fill="none" stroke="black"/>
<path d="M294.128,122.385h 3.25821" fill="none" stroke="black"/>
<path d="M295.757,122.976v 0.59061" fill="none" stroke="black"/>
<path d="M294.128,123.566h 3.25821" fill="none" stroke="black"/>
<path d="M355.624,71.5361v -0.137741" fill="none" stroke="black"/>
<path d="M353.995,71.3983h 3.25821" fill="none" stroke="black"/>
<path d="M355.624,71.5361v 0.137741" fill="none" stroke="black"/>
<path d="M353.995,71.6738h 3.25821" fill="none" stroke="black"/>
<g fill="black">
<circle cx="216.84" cy="199.461" r="3.25821"/>
<circle cx="245.867" cy="170.722" r="3.25821"/>
<circle cx="295.757" cy="122.976" r="3.25821"/>
<circle cx="355.624" cy="71.5361" r="3.25821"/>
</g>
<path d="M59.4606,343.855l 4.53543, -4.17249l 4.53543, -4.17249l 4.53543, -4.17249l 4.53543, -4.17249l 4.53543, -4.17249l 4.53543, -4.17249l 4.53543, -4.17249l 4.53543, -4.17249l 4.53543, -4.17249l 4.53543, -4.17249l 4.53543, -4.17249l 4.53543,
 -4.17249l 4.53543, -4.17249l 4.53543, -4.17249l 4.53543, -4.17249l 4.53543, -4.17249l 4.53543, -4.17249l 4.53543, -4.17249l 4.53543, -4.17249l 4.53543, -4.17249l 4.53543, -4.17249l 4.53543, -4.17249l 4.53543, -4.17249l 4.53543, -4.17249l 4.53543,
 -4.17249l 4.53543, -4.17249l 4.53543, -4.17249l 4.53543, -4.17249l 4.53543, -4.17249l 4.53543, -4.17249l 4.53543, -4.17249l 4.53543, -4.17249l 4.53543, -4.17249l 4.53543, -4.17249l 4.53543, -4.17249l 4.53543, -4.17249l 4.53543, -4.17249l 4.53543,
 -4.17249l 4.53543, -4.17249l 4.53543, -4.17249l 4.53543, -4.17249l 4.53543, -4.17249l 4.53543, -4.17249l 4.53543, -4.17249l 4.53543, -4.17249l 4.53543, -4.17249l 4.53543, -4.17249l 4.53543, -4.17249l 4.53543, -4.17249" fill="none" stroke="#ff0000"
 stroke-width="2"/>
<path d="M281.697,139.404l 4.53543, -4.17249l 4.53543, -4.17249l 4.53543, -4.17249l 4.53543, -4.17249l 4.53543, -4.17249l 4.53543, -4.17249l 4.53543, -4.17249l 4.53543, -4.17249l 4.53543, -4.17249l 4.53543, -4.17249l 4.53543, -4.17249l 4.53543,
 -4.17249l 4.53543, -4.17249l 4.53543, -4.17249l 4.53543, -4.17249l 4.53543, -4.17249l 4.53543, -4.17249l 4.53543, -4.17249l 4.53543, -4.17249l 4.53543, -4.17249l 4.53543, -4.17249l 4.53543, -4.17249l 4.53543, -4.17249l 4.53543, -4.17249l 0.887933,
 -0.816877" fill="none" stroke="#ff0000" stroke-width="2"/>
<text xml:space="preserve" x="199.251" y="17.9202" fill="black" font-size="18.7938" font-family="Helvetica">High gain calibration</text></svg>
