<?xml version="1.0" standalone="no"?>
<svg width="567.429" height="384.969" viewBox="0 0 567.429 384.969" xmlns="http://www.w3.org/2000/svg" shape-rendering="crispEdges">
<title>
img/week1/calibrated_hist_low_gain/Am_007.svg
</title>
<desc>
Creator: ROOT Version 6.22/09
CreationDate: Tue Jul 13 15:55:58 2021</desc>
<defs>
</defs>
<rect x="0.5" y="0" width="566.929" height="384.469" fill="white"/>
<rect x="57.1929" y="38.4469" width="453.543" height="307.575" fill="white"/>
<rect x="57.1929" y="38.4469" width="453.543" height="307.575" fill="none" stroke="black"/>
<path d="M57.1929,346.022h 34.1043v -2.07751h 0.442913v -14.5426h 0.442913v -27.0076h 0.442913v 10.3875h 0.442913v -8.31004h 0.442913v 6.23253h 0.442913v -14.5426h 0.442913v 6.23253h 0.442913v -24.9301h 0.442913v 18.6976h 0.442913v -2.07751h
 0.442913v 10.3875h 0.442913v -4.15502h 0.442913v 10.3875h 0.442913v -20.7751h 0.442913v 16.6201h 0.442913v -2.07751h 0.442913v 12.4651h 0.442913v -2.07751h 0.442913v -14.5426h 0.442913v -6.23253h 0.442913v 22.8526h 0.442913v -16.6201h 0.442913v
 20.7751h 0.442913v 2.07751h 0.442913v -14.5426h 0.442913v -14.5426h 0.442913v -8.31004h 0.442913v 16.6201h 0.442913v 6.23253h 0.442913v 8.31004h 0.442913v -22.8526h 0.442913v 4.15502h 0.885827v 14.5426h 0.885827v -2.07751h 0.442913v -12.4651h
 0.885827v -2.07751h 0.442913v 4.15502h 0.442913v 12.4651h 0.442913v -4.15502h 0.885827v -6.23253h 0.442913v -8.31004h 0.442913v -4.15502h 0.442913v 22.8526h 0.442913v 2.07751h 0.442913v -2.07751h 0.442913v -33.2402h 0.442913v 31.1626h 0.442913v
 -12.4651h 0.442913v 2.07751h 0.442913v -4.15502h 0.442913v 6.23253h 0.442913v -4.15502h 0.442913v -33.2402h 0.442913v 27.0076h 0.442913v 4.15502h 0.885827v -2.07751h 0.442913v -14.5426h 0.442913v -8.31004h 0.442913v 27.0076h 0.442913v -4.15502h
 0.442913v 4.15502h 0.442913v -14.5426h 0.442913v -35.3177h 0.442913v 6.23253h 0.442913v 2.07751h 0.442913v 22.8526h 0.442913v 6.23253h 0.442913v -18.6976h 0.442913v -27.0076h 0.442913v 20.7751h 0.442913v -16.6201h 0.442913v 22.8526h 0.442913v
 14.5426h 0.442913v -31.1626h 0.442913v -10.3875h 0.442913v -8.31004h 0.442913v 2.07751h 0.442913v 20.7751h 0.442913v 14.5426h 0.442913v -33.2402h 0.442913v 27.0076h 0.442913v -39.4727h 0.442913v 12.4651h 0.442913v 6.23253h 0.442913v 2.07751h
 0.442913v -47.7827h 0.442913v -4.15502h 0.442913v -18.6976h 0.442913v 6.23253h 0.442913v 2.07751h 0.442913v 20.7751h 0.442913v -43.6277h 0.885827v -2.07751h 0.442913v -24.9301h 0.442913v -10.3875h 0.442913v 41.5502h 0.442913v -64.4028h 0.885827v
 -29.0851h 0.442913v 4.15502h 0.442913v 54.0153h 0.885827v -8.31004h 0.442913v -18.6976h 0.442913v -14.5426h 0.442913v -33.2402h 0.442913v 49.8602h 0.442913v 54.0153h 0.442913v -33.2402h 0.442913v 2.07751h 0.442913v -14.5426h 0.442913v 24.9301h
 0.442913v 6.23253h 0.442913v 14.5426h 0.442913v 4.15502h 0.442913v -20.7751h 0.442913v -20.7751h 0.442913v 45.7052h 0.442913v -20.7751h 0.442913v 43.6277h 0.442913v -33.2402h 0.442913v 8.31004h 0.442913v 27.0076h 0.442913v -20.7751h 0.442913v
 60.2478h 0.442913v 2.07751h 0.442913v -6.23253h 0.442913v -56.0928h 0.442913v 70.6353h 0.442913v -49.8602h 0.442913v 24.9301h 0.442913v 18.6976h 0.442913v -12.4651h 0.442913v -10.3875h 0.442913v 16.6201h 0.442913v -8.31004h 0.442913v -2.07751h
 0.442913v 58.1703h 0.442913v -45.7052h 0.442913v -33.2402h 0.442913v 24.9301h 0.442913v 10.3875h 0.442913v -6.23253h 0.442913v 37.3952h 0.442913v -37.3952h 0.442913v 29.0851h 0.442913v -14.5426h 0.442913v -10.3875h 0.442913v 6.23253h 0.442913v
 43.6277h 0.442913v -33.2402h 0.442913v -4.15502h 0.442913v 31.1626h 0.442913v -12.4651h 0.442913v 18.6976h 0.885827v 10.3875h 0.442913v -27.0076h 0.442913v 16.6201h 0.442913v 2.07751h 0.442913v -12.4651h 0.442913v 43.6277h 0.442913v 6.23253h
 0.442913v -24.9301h 0.442913v 4.15502h 0.442913v 6.23253h 1.32874v 14.5426h 0.442913v -14.5426h 0.442913v 18.6976h 0.442913v -6.23253h 0.442913v 10.3875h 0.442913v 2.07751h 0.442913v -12.4651h 0.442913v -12.4651h 0.442913v -2.07751h 0.442913v
 2.07751h 0.442913v -10.3875h 0.442913v 22.8526h 0.442913v -4.15502h 0.442913v -6.23253h 0.442913v -6.23253h 0.442913v 2.07751h 0.442913v 8.31004h 0.442913v 18.6976h 0.442913v -14.5426h 0.442913v -18.6976h 0.885827v 6.23253h 0.442913v 8.31004h
 0.442913v -8.31004h 0.442913v 8.31004h 0.442913v -10.3875h 0.885827v 14.5426h 0.442913v -10.3875h 0.442913v 20.7751h 0.442913v -12.4651h 0.442913v -6.23253h 0.442913v 8.31004h 0.442913v 4.15502h 0.442913v -24.9301h 0.442913v 29.0851h 0.442913v
 -2.07751h 0.442913v 4.15502h 0.442913v -6.23253h 0.442913v -2.07751h 0.442913v 8.31004h 0.442913v 10.3875h 0.442913v -6.23253h 0.442913v 8.31004h 0.442913v -10.3875h 0.442913v 4.15502h 0.442913v 10.3875h 0.442913v -8.31004h 0.442913v 2.07751h
 0.885827v -2.07751h 0.442913v -10.3875h 0.442913v 16.6201h 0.442913v 4.15502h 0.442913v -2.07751h 0.442913v -4.15502h 0.442913v 4.15502h 0.442913v -2.07751h 0.442913v 2.07751h 0.442913v 4.15502h 0.442913v -6.23253h 0.442913v 4.15502h 0.442913v
 2.07751h 0.442913v -4.15502h 0.442913v -4.15502h 0.442913v -2.07751h 0.442913v 6.23253h 0.442913v -4.15502h 0.442913v 6.23253h 0.885827v -2.07751h 0.442913v 2.07751h 0.442913v -4.15502h 1.32874v 2.07751h 0.442913v -2.07751h 0.442913v 4.15502h
 0.885827v -4.15502h 0.442913v 4.15502h 0.442913v 2.07751h 0.442913v -4.15502h 0.442913v 2.07751h 0.442913v -2.07751h 0.442913v 4.15502h 0.442913v -6.23253h 0.442913v 2.07751h 0.885827v 2.07751h 0.442913v 2.07751h 0.442913v -2.07751h 0.442913v
 -6.23253h 0.442913v 2.07751h 0.885827v 6.23253h 0.885827v -6.23253h 0.442913v 2.07751h 0.442913v -6.23253h 0.885827v 8.31004h 0.442913v 2.07751h 2.21457v -2.07751h 0.442913v 2.07751h 0.442913v -2.07751h 0.442913v -8.31004h 0.442913v 8.31004h
 0.885827v -2.07751h 0.442913v 2.07751h 0.442913v 2.07751h 0.442913v -2.07751h 0.442913v 2.07751h 0.442913v -2.07751h 0.885827v 2.07751h 0.885827v -2.07751h 0.885827v 2.07751h 0.885827v -2.07751h 0.885827v 2.07751h 0.442913v -4.15502h 0.442913v
 2.07751h 0.442913v 2.07751h 0.442913v -2.07751h 0.442913v 2.07751h 0.442913v -6.23253h 0.442913v 2.07751h 0.885827v 4.15502h 0.442913v -6.23253h 0.442913v 2.07751h 0.442913v 2.07751h 0.442913v -4.15502h 0.442913v 6.23253h 0.442913v -4.15502h
 0.442913v 4.15502h 0.442913v -2.07751h 0.442913v 2.07751h 0.885827v -2.07751h 0.442913v -2.07751h 0.885827v -2.07751h 0.442913v 6.23253h 0.885827v -2.07751h 0.442913v 2.07751h 0.442913v -2.07751h 0.885827v -2.07751h 0.442913v -2.07751h 0.442913v
 4.15502h 0.442913v 2.07751h 1.32874v -4.15502h 0.442913v 4.15502h 0.442913v -4.15502h 0.442913v 2.07751h 0.885827v -2.07751h 0.442913v 4.15502h 0.442913v -4.15502h 1.32874v -2.07751h 0.442913v 2.07751h 0.442913v 2.07751h 0.885827v -2.07751h
 0.442913v -2.07751h 0.442913v 4.15502h 0.442913v -2.07751h 0.442913v -4.15502h 0.442913v 6.23253h 0.442913v -4.15502h 0.442913v 4.15502h 0.442913v 2.07751h 0.442913v -2.07751h 0.442913v 2.07751h 0.442913v -2.07751h 0.442913v -2.07751h 0.442913v
 2.07751h 0.442913v 2.07751h 0.885827v -4.15502h 0.442913v 4.15502h 0.442913v -4.15502h 0.442913v 2.07751h 0.442913v -4.15502h 0.442913v -2.07751h 0.442913v 6.23253h 0.442913v -4.15502h 0.442913v 2.07751h 0.442913v -4.15502h 0.442913v 6.23253h
 0.885827v -2.07751h 0.885827v -2.07751h 0.442913v 4.15502h 0.442913v -2.07751h 0.442913v 2.07751h 0.442913v -4.15502h 0.442913v 4.15502h 0.442913v -2.07751h 1.32874v 2.07751h 0.442913v 2.07751h 0.442913v -4.15502h 0.885827v 2.07751h 0.442913v
 -2.07751h 0.442913v 4.15502h 0.442913v -2.07751h 0.442913v -2.07751h 0.442913v 4.15502h 0.442913v -4.15502h 0.442913v -4.15502h 0.442913v 6.23253h 0.442913v -4.15502h 0.442913v -2.07751h 0.442913v -10.3875h 0.442913v 16.6201h 0.442913v -4.15502h
 0.885827v 2.07751h 0.442913v -8.31004h 0.442913v 10.3875h 0.442913v -6.23253h 0.442913v -2.07751h 1.32874v 4.15502h 0.885827v -4.15502h 0.442913v 6.23253h 0.442913v -6.23253h 0.442913v 2.07751h 0.442913v -18.6976h 0.442913v 18.6976h 0.442913v
 -2.07751h 0.885827v -10.3875h 0.442913v 2.07751h 0.442913v 8.31004h 0.442913v -10.3875h 0.442913v 8.31004h 0.442913v 8.31004h 0.442913v -4.15502h 0.442913v -8.31004h 0.442913v 8.31004h 0.442913v -10.3875h 0.442913v 12.4651h 0.442913v -6.23253h
 0.442913v -4.15502h 0.442913v 4.15502h 0.885827v 8.31004h 0.442913v -10.3875h 0.442913v 8.31004h 0.442913v 4.15502h 0.442913v -14.5426h 0.442913v 4.15502h 0.442913v 6.23253h 0.442913v 2.07751h 0.442913v -10.3875h 0.442913v 2.07751h 0.442913v
 2.07751h 0.442913v -4.15502h 0.885827v 10.3875h 0.442913v -14.5426h 0.442913v 10.3875h 0.442913v 2.07751h 0.442913v 2.07751h 0.442913v -8.31004h 0.442913v -2.07751h 0.442913v 4.15502h 0.442913v 6.23253h 0.442913v -14.5426h 0.442913v 8.31004h
 0.442913v -2.07751h 0.442913v 4.15502h 0.442913v -10.3875h 0.442913v 10.3875h 0.442913v 8.31004h 0.442913v -8.31004h 0.442913v 2.07751h 0.442913v 2.07751h 0.442913v 2.07751h 0.442913v -2.07751h 0.442913v -6.23253h 0.442913v 6.23253h 0.442913v
 -4.15502h 0.442913v 6.23253h 0.442913v -6.23253h 0.442913v 2.07751h 0.442913v -8.31004h 0.442913v 10.3875h 0.442913v -2.07751h 0.885827v 2.07751h 0.442913v -2.07751h 0.442913v 4.15502h 0.442913v -12.4651h 0.442913v 4.15502h 0.442913v 2.07751h
 0.442913v 4.15502h 0.442913v -6.23253h 1.32874v 8.31004h 0.442913v -8.31004h 1.77165v 6.23253h 0.442913v -12.4651h 0.442913v -2.07751h 0.442913v 14.5426h 0.442913v -14.5426h 0.442913v 12.4651h 0.442913v -18.6976h 0.442913v 2.07751h 0.442913v
 12.4651h 0.442913v -27.0076h 0.442913v 16.6201h 0.442913v -8.31004h 0.442913v 8.31004h 0.442913v -2.07751h 0.442913v -6.23253h 0.442913v -4.15502h 0.442913v 6.23253h 0.442913v -16.6201h 0.442913v -6.23253h 0.442913v 2.07751h 0.442913v 16.6201h
 0.442913v -14.5426h 0.442913v -2.07751h 0.442913v -16.6201h 0.442913v -2.07751h 0.442913v -8.31004h 0.442913v 35.3177h 0.442913v -8.31004h 0.442913v -31.1626h 0.442913v 10.3875h 0.442913v 2.07751h 0.442913v -2.07751h 0.442913v 4.15502h 0.442913v
 6.23253h 0.442913v -6.23253h 0.442913v -8.31004h 0.442913v 10.3875h 0.442913v 8.31004h 0.442913v 12.4651h 0.442913v 6.23253h 0.442913v -33.2402h 0.442913v -2.07751h 0.442913v 16.6201h 0.442913v 12.4651h 0.442913v 2.07751h 0.442913v -14.5426h
 0.442913v 20.7751h 0.442913v 6.23253h 0.442913v -10.3875h 0.442913v 12.4651h 0.442913v -2.07751h 0.442913v -6.23253h 0.442913v 8.31004h 0.885827v 18.6976h 0.442913v -12.4651h 0.442913v 4.15502h 0.442913v 6.23253h 0.442913v 4.15502h 0.442913v
 -4.15502h 0.442913v -6.23253h 0.442913v 10.3875h 0.442913v -2.07751h 0.442913v 6.23253h 0.442913v -4.15502h 0.442913v -4.15502h 0.442913v -4.15502h 0.442913v 10.3875h 0.442913v 2.07751h 0.442913v -4.15502h 0.442913v 2.07751h 0.442913v 2.07751h
 0.442913v -2.07751h 0.885827v 2.07751h 0.885827v -2.07751h 0.442913v 2.07751h 1.77165v -4.15502h 0.442913v 4.15502h 1.32874v -2.07751h 0.885827v 2.07751h 0.885827v -2.07751h 0.442913v 2.07751h 0.442913v -2.07751h 0.885827v 2.07751h 3.10039v
 -2.07751h 0.442913v 2.07751h 3.10039v -2.07751h 0.442913v 2.07751h 1.32874v -2.07751h 0.442913v 2.07751h 0.442913v -2.07751h 0.885827v 2.07751h 4.87205v -2.07751h 1.32874v 2.07751h 0.442913v -2.07751h 0.442913v 2.07751h 2.21457v -2.07751h 0.442913v
 2.07751h 5.75787v -2.07751h 0.442913v 2.07751h 0.442913v -2.07751h 0.442913v 2.07751h 4.42913v -2.07751h 0.885827v 2.07751h 3.54331v -2.07751h 0.442913v 2.07751h 2.21457v -2.07751h 0.885827v 2.07751h 0.885827v -2.07751h 0.885827v 2.07751h 5.75787v
 -2.07751h 0.442913v 2.07751h 2.65748v -2.07751h 0.442913v 2.07751h 4.87205v -2.07751h 0.885827v 2.07751h 2.21457v -2.07751h 0.442913v 2.07751h 1.77165v -2.07751h 0.442913v 2.07751h 0.885827v -2.07751h 0.442913v 2.07751h 21.2598v -2.07751h 0.442913v
 2.07751h 5.75787v -2.07751h 0.442913v 2.07751h 6.6437v -2.07751h 0.442913v -2.07751h 0.442913v 2.07751h 0.442913v 2.07751h 0.885827v -2.07751h 0.442913v 2.07751h 0.442913v -2.07751h 0.442913v 2.07751h 55.3642" fill="none" stroke="#000099"/>
<path d="M57.1929,346.022h 453.543" fill="none" stroke="black"/>
<path d="M57.1929,336.795v 9.22726" fill="none" stroke="black"/>
<path d="M66.2638,341.409v 4.61363" fill="none" stroke="black"/>
<path d="M75.3346,341.409v 4.61363" fill="none" stroke="black"/>
<path d="M84.4055,341.409v 4.61363" fill="none" stroke="black"/>
<path d="M93.4764,341.409v 4.61363" fill="none" stroke="black"/>
<path d="M102.547,336.795v 9.22726" fill="none" stroke="black"/>
<path d="M111.618,341.409v 4.61363" fill="none" stroke="black"/>
<path d="M120.689,341.409v 4.61363" fill="none" stroke="black"/>
<path d="M129.76,341.409v 4.61363" fill="none" stroke="black"/>
<path d="M138.831,341.409v 4.61363" fill="none" stroke="black"/>
<path d="M147.902,336.795v 9.22726" fill="none" stroke="black"/>
<path d="M156.972,341.409v 4.61363" fill="none" stroke="black"/>
<path d="M166.043,341.409v 4.61363" fill="none" stroke="black"/>
<path d="M175.114,341.409v 4.61363" fill="none" stroke="black"/>
<path d="M184.185,341.409v 4.61363" fill="none" stroke="black"/>
<path d="M193.256,336.795v 9.22726" fill="none" stroke="black"/>
<path d="M202.327,341.409v 4.61363" fill="none" stroke="black"/>
<path d="M211.398,341.409v 4.61363" fill="none" stroke="black"/>
<path d="M220.469,341.409v 4.61363" fill="none" stroke="black"/>
<path d="M229.539,341.409v 4.61363" fill="none" stroke="black"/>
<path d="M238.61,336.795v 9.22726" fill="none" stroke="black"/>
<path d="M247.681,341.409v 4.61363" fill="none" stroke="black"/>
<path d="M256.752,341.409v 4.61363" fill="none" stroke="black"/>
<path d="M265.823,341.409v 4.61363" fill="none" stroke="black"/>
<path d="M274.894,341.409v 4.61363" fill="none" stroke="black"/>
<path d="M283.965,336.795v 9.22726" fill="none" stroke="black"/>
<path d="M293.035,341.409v 4.61363" fill="none" stroke="black"/>
<path d="M302.106,341.409v 4.61363" fill="none" stroke="black"/>
<path d="M311.177,341.409v 4.61363" fill="none" stroke="black"/>
<path d="M320.248,341.409v 4.61363" fill="none" stroke="black"/>
<path d="M329.319,336.795v 9.22726" fill="none" stroke="black"/>
<path d="M338.39,341.409v 4.61363" fill="none" stroke="black"/>
<path d="M347.461,341.409v 4.61363" fill="none" stroke="black"/>
<path d="M356.531,341.409v 4.61363" fill="none" stroke="black"/>
<path d="M365.602,341.409v 4.61363" fill="none" stroke="black"/>
<path d="M374.673,336.795v 9.22726" fill="none" stroke="black"/>
<path d="M383.744,341.409v 4.61363" fill="none" stroke="black"/>
<path d="M392.815,341.409v 4.61363" fill="none" stroke="black"/>
<path d="M401.886,341.409v 4.61363" fill="none" stroke="black"/>
<path d="M410.957,341.409v 4.61363" fill="none" stroke="black"/>
<path d="M420.028,336.795v 9.22726" fill="none" stroke="black"/>
<path d="M429.098,341.409v 4.61363" fill="none" stroke="black"/>
<path d="M438.169,341.409v 4.61363" fill="none" stroke="black"/>
<path d="M447.24,341.409v 4.61363" fill="none" stroke="black"/>
<path d="M456.311,341.409v 4.61363" fill="none" stroke="black"/>
<path d="M465.382,336.795v 9.22726" fill="none" stroke="black"/>
<path d="M474.453,341.409v 4.61363" fill="none" stroke="black"/>
<path d="M483.524,341.409v 4.61363" fill="none" stroke="black"/>
<path d="M492.594,341.409v 4.61363" fill="none" stroke="black"/>
<path d="M501.665,341.409v 4.61363" fill="none" stroke="black"/>
<path d="M510.736,336.795v 9.22726" fill="none" stroke="black"/>
<text xml:space="preserve" x="53.446" y="358.403" fill="black" font-size="12.8453" font-family="Helvetica">0</text>
<text xml:space="preserve" x="95.8027" y="358.403" fill="black" font-size="12.8453" font-family="Helvetica">10</text>
<text xml:space="preserve" x="140.603" y="358.403" fill="black" font-size="12.8453" font-family="Helvetica">20</text>
<text xml:space="preserve" x="186.218" y="358.403" fill="black" font-size="12.8453" font-family="Helvetica">30</text>
<text xml:space="preserve" x="231.833" y="358.403" fill="black" font-size="12.8453" font-family="Helvetica">40</text>
<text xml:space="preserve" x="277.448" y="358.403" fill="black" font-size="12.8453" font-family="Helvetica">50</text>
<text xml:space="preserve" x="322.249" y="358.403" fill="black" font-size="12.8453" font-family="Helvetica">60</text>
<text xml:space="preserve" x="367.864" y="358.403" fill="black" font-size="12.8453" font-family="Helvetica">70</text>
<text xml:space="preserve" x="413.479" y="358.403" fill="black" font-size="12.8453" font-family="Helvetica">80</text>
<text xml:space="preserve" x="458.279" y="358.403" fill="black" font-size="12.8453" font-family="Helvetica">90</text>
<text xml:space="preserve" x="499.821" y="358.403" fill="black" font-size="12.8453" font-family="Helvetica">100</text>
<text xml:space="preserve" x="441.173" y="370.622" fill="black" font-size="12.8453" font-family="Helvetica">Energy [keV]</text>
<path d="M57.1929,346.022v -307.575" fill="none" stroke="black"/>
<path d="M70.7992,346.022h -13.6063" fill="none" stroke="black"/>
<path d="M63.9961,335.635h -6.80315" fill="none" stroke="black"/>
<path d="M63.9961,325.247h -6.80315" fill="none" stroke="black"/>
<path d="M63.9961,314.86h -6.80315" fill="none" stroke="black"/>
<path d="M70.7992,304.472h -13.6063" fill="none" stroke="black"/>
<path d="M63.9961,294.085h -6.80315" fill="none" stroke="black"/>
<path d="M63.9961,283.697h -6.80315" fill="none" stroke="black"/>
<path d="M63.9961,273.309h -6.80315" fill="none" stroke="black"/>
<path d="M70.7992,262.922h -13.6063" fill="none" stroke="black"/>
<path d="M63.9961,252.534h -6.80315" fill="none" stroke="black"/>
<path d="M63.9961,242.147h -6.80315" fill="none" stroke="black"/>
<path d="M63.9961,231.759h -6.80315" fill="none" stroke="black"/>
<path d="M70.7992,221.372h -13.6063" fill="none" stroke="black"/>
<path d="M63.9961,210.984h -6.80315" fill="none" stroke="black"/>
<path d="M63.9961,200.597h -6.80315" fill="none" stroke="black"/>
<path d="M63.9961,190.209h -6.80315" fill="none" stroke="black"/>
<path d="M70.7992,179.821h -13.6063" fill="none" stroke="black"/>
<path d="M63.9961,169.434h -6.80315" fill="none" stroke="black"/>
<path d="M63.9961,159.046h -6.80315" fill="none" stroke="black"/>
<path d="M63.9961,148.659h -6.80315" fill="none" stroke="black"/>
<path d="M70.7992,138.271h -13.6063" fill="none" stroke="black"/>
<path d="M63.9961,127.884h -6.80315" fill="none" stroke="black"/>
<path d="M63.9961,117.496h -6.80315" fill="none" stroke="black"/>
<path d="M63.9961,107.109h -6.80315" fill="none" stroke="black"/>
<path d="M70.7992,96.7211h -13.6063" fill="none" stroke="black"/>
<path d="M63.9961,86.3335h -6.80315" fill="none" stroke="black"/>
<path d="M63.9961,75.946h -6.80315" fill="none" stroke="black"/>
<path d="M63.9961,65.5584h -6.80315" fill="none" stroke="black"/>
<path d="M70.7992,55.1709h -13.6063" fill="none" stroke="black"/>
<path d="M70.7992,55.1709h -13.6063" fill="none" stroke="black"/>
<path d="M63.9961,44.7833h -6.80315" fill="none" stroke="black"/>
<text xml:space="preserve" x="47.7441" y="350.258" fill="black" font-size="12.8453" font-family="Helvetica">0</text>
<text xml:space="preserve" x="41.2277" y="308.716" fill="black" font-size="12.8453" font-family="Helvetica">20</text>
<text xml:space="preserve" x="41.2277" y="267.173" fill="black" font-size="12.8453" font-family="Helvetica">40</text>
<text xml:space="preserve" x="41.2277" y="225.631" fill="black" font-size="12.8453" font-family="Helvetica">60</text>
<text xml:space="preserve" x="41.2277" y="184.089" fill="black" font-size="12.8453" font-family="Helvetica">80</text>
<text xml:space="preserve" x="33.8967" y="142.547" fill="black" font-size="12.8453" font-family="Helvetica">100</text>
<text xml:space="preserve" x="33.8967" y="101.005" fill="black" font-size="12.8453" font-family="Helvetica">120</text>
<text xml:space="preserve" x="33.8967" y="59.4624" fill="black" font-size="12.8453" font-family="Helvetica">140</text>
<g transform="rotate(-90,20.8638,70.0516)">
<text xml:space="preserve" x="20.8638" y="70.0516" fill="black" font-size="12.8453" font-family="Helvetica">Event</text>
</g>
<text xml:space="preserve" x="206.582" y="18.7347" fill="black" font-size="18.0316" font-family="Helvetica">Am_007_calibrated</text>
<rect x="442.705" y="24.9905" width="113.386" height="61.5151" fill="white"/>
<path d="M442.705,86.5056h 113.386" fill="none" stroke="black"/>
<path d="M556.091,86.5056v -61.5151" fill="none" stroke="black"/>
<path d="M556.091,24.9905h -113.386" fill="none" stroke="black"/>
<path d="M442.705,24.9905v 61.5151" fill="none" stroke="black"/>
<text xml:space="preserve" x="446.061" y="36.6549" fill="black" font-size="12.1556" font-family="Helvetica">Am_007_calibrated</text>
<path d="M442.705,40.3693h 113.386" fill="none" stroke="black"/>
<text xml:space="preserve" x="447.69" y="52.946" fill="black" font-size="12.7186" font-family="Helvetica">Entries </text>
<text xml:space="preserve" x="512.854" y="52.946" fill="black" font-size="12.7186" font-family="Helvetica"> 11066</text>
<text xml:space="preserve" x="447.69" y="67.6079" fill="black" font-size="12.7186" font-family="Helvetica">Mean  </text>
<text xml:space="preserve" x="512.854" y="67.6079" fill="black" font-size="12.7186" font-family="Helvetica">  24.57</text>
<text xml:space="preserve" x="447.69" y="83.0844" fill="black" font-size="12.7186" font-family="Helvetica">Std Dev   </text>
<text xml:space="preserve" x="512.854" y="83.0844" fill="black" font-size="12.7186" font-family="Helvetica">  14.73</text>
<text xml:space="preserve" x="206.582" y="18.7347" fill="black" font-size="18.0316" font-family="Helvetica">Am_007_calibrated</text></svg>
