<?xml version="1.0" standalone="no"?>
<svg width="567.429" height="384.969" viewBox="0 0 567.429 384.969" xmlns="http://www.w3.org/2000/svg" shape-rendering="crispEdges">
<title>
img/week1/calibrated_hist_low_gain/Am_007_calibrated_fit_gaus.svg
</title>
<desc>
Creator: ROOT Version 6.22/09
CreationDate: Wed Jul 14 10:00:31 2021</desc>
<defs>
</defs>
<rect x="0.5" y="0" width="566.929" height="384.469" fill="white"/>
<rect x="57.1929" y="38.4469" width="453.543" height="307.575" fill="white"/>
<rect x="57.1929" y="38.4469" width="453.543" height="307.575" fill="none" stroke="black"/>
<rect x="57.1929" y="38.4469" width="453.543" height="307.575" fill="white"/>
<rect x="57.1929" y="38.4469" width="453.543" height="307.575" fill="none" stroke="black"/>
<path d="M57.1929,346.022h 102.331v -2.03423h 1.26335v -6.10269h 1.26335v -18.3081h 1.26335v -14.2396h 1.26335v -2.03423h 3.79006v 2.03423h 1.26335v -22.3765h 2.5267v 28.4792h 1.26335v -10.1711h 2.5267v 4.06846h 1.26335v -12.2054h 1.26335v 14.2396h
 1.26335v -10.1711h 1.26335v 24.4107h 1.26335v -6.10269h 1.26335v -12.2054h 1.26335v -10.1711h 1.26335v 18.3081h 1.26335v -6.10269h 1.26335v 14.2396h 1.26335v 2.03423h 1.26335v -10.1711h 1.26335v -20.3423h 1.26335v 4.06846h 1.26335v 2.03423h 1.26335v
 14.2396h 1.26335v 4.06846h 1.26335v -16.2738h 1.26335v -4.06846h 1.26335v 4.06846h 1.26335v 14.2396h 1.26335v -2.03423h 1.26335v 4.06846h 1.26335v -18.3081h 3.79006v 6.10269h 1.26335v 10.1711h 1.26335v -6.10269h 1.26335v 2.03423h 1.26335v -6.10269h
 1.26335v -8.13691h 1.26335v -4.06846h 1.26335v 20.3423h 1.26335v 6.10269h 1.26335v -8.13691h 1.26335v -26.445h 1.26335v 26.445h 1.26335v -10.1711h 1.26335v 4.06846h 1.26335v -14.2396h 1.26335v 20.3423h 1.26335v -22.3765h 1.26335v -12.2054h 1.26335v
 16.2738h 1.26335v 10.1711h 1.26335v -12.2054h 1.26335v 12.2054h 1.26335v -26.445h 2.5267v 28.4792h 1.26335v -8.13691h 1.26335v -10.1711h 1.26335v 6.10269h 1.26335v -40.6846h 1.26335v -10.1711h 1.26335v 40.6846h 1.26335v -4.06846h 1.26335v 8.13691h
 1.26335v -22.3765h 1.26335v -26.445h 1.26335v 18.3081h 1.26335v 2.03423h 1.26335v 22.3765h 1.26335v -6.10269h 1.26335v -22.3765h 1.26335v -16.2738h 1.26335v -4.06846h 1.26335v 10.1711h 1.26335v 28.4792h 1.26335v -6.10269h 1.26335v -18.3081h 2.5267v
 -12.2054h 1.26335v 8.13691h 2.5267v -6.10269h 1.26335v -34.5819h 1.26335v -32.5477h 1.26335v 16.2738h 1.26335v -2.03423h 1.26335v 16.2738h 1.26335v -8.13691h 1.26335v -24.4107h 1.26335v -20.3423h 1.26335v 20.3423h 1.26335v -44.753h 1.26335v 4.06846h
 1.26335v 16.2738h 1.26335v -34.5819h 1.26335v -32.5477h 1.26335v 22.3765h 1.26335v 6.10269h 1.26335v 24.4107h 1.26335v 2.03423h 1.26335v -6.10269h 1.26335v -26.445h 1.26335v -30.5134h 1.26335v -12.2054h 1.26335v 107.814h 1.26335v -4.06846h 1.26335v
 -38.6503h 1.26335v -8.13691h 1.26335v 30.5134h 1.26335v -10.1711h 1.26335v 40.6846h 1.26335v -22.3765h 1.26335v 16.2738h 1.26335v -38.6503h 1.26335v 38.6503h 1.26335v -36.6161h 1.26335v 67.1295h 1.26335v -34.5819h 1.26335v -4.06846h 1.26335v
 28.4792h 1.26335v -4.06846h 1.26335v 36.6161h 1.26335v 4.06846h 1.26335v 4.06846h 1.26335v -36.6161h 1.26335v 36.6161h 1.26335v -12.2054h 1.26335v -8.13691h 1.26335v 24.4107h 1.26335v -4.06846h 1.26335v -10.1711h 1.26335v 14.2396h 1.26335v -12.2054h
 1.26335v -4.06846h 1.26335v 63.0611h 1.26335v -48.8215h 1.26335v -28.4792h 1.26335v 30.5134h 1.26335v -2.03423h 1.26335v -2.03423h 1.26335v 38.6503h 1.26335v -36.6161h 1.26335v 34.5819h 1.26335v -26.445h 1.26335v -4.06846h 1.26335v 6.10269h 1.26335v
 40.6846h 1.26335v -38.6503h 1.26335v 8.13691h 1.26335v 26.445h 1.26335v -12.2054h 1.26335v 16.2738h 1.26335v 8.13691h 1.26335v 2.03423h 1.26335v -26.445h 1.26335v 18.3081h 1.26335v -4.06846h 1.26335v 6.10269h 1.26335v 28.4792h 1.26335v 2.03423h
 1.26335v -16.2738h 1.26335v 6.10269h 1.26335v -2.03423h 1.26335v 4.06846h 1.26335v 2.03423h 1.26335v 12.2054h 1.26335v -12.2054h 1.26335v 16.2738h 1.26335v -12.2054h 1.26335v 20.3423h 1.26335v -2.03423h 1.26335v -14.2396h 1.26335v -12.2054h 3.79006v
 -4.06846h 1.26335v 14.2396h 1.26335v -6.10269h 1.26335v 4.06846h 1.26335v -8.13691h 2.5267v 12.2054h 1.26335v 8.13691h 1.26335v -24.4107h 1.26335v 6.10269h 1.26335v -4.06846h 1.26335v 4.06846h 1.26335v -6.10269h 1.26335v 14.2396h 1.26335v -4.06846h
 1.26335v -14.2396h 1.26335v 14.2396h 1.26335v -8.13691h 1.26335v 24.4107h 1.26335v -6.10269h 1.26335v -10.1711h 1.26335v -2.03423h 1.26335v 16.2738h 1.26335v -18.3081h 1.26335v 2.03423h 1.26335v 26.445h 1.26335v -22.3765h 1.26335v 14.2396h 1.26335v
 -8.13691h 1.26335v 10.1711h 1.26335v -2.03423h 1.26335v 8.13691h 1.26335v 2.03423h 1.26335v -6.10269h 2.5267v 8.13691h 1.26335v -4.06846h 1.26335v 2.03423h 1.26335v 4.06846h 1.26335v -10.1711h 1.26335v 4.06846h 1.26335v -4.06846h 1.26335v 14.2396h
 1.26335v -2.03423h 1.26335v -4.06846h 1.26335v 2.03423h 1.26335v 2.03423h 2.5267v 2.03423h 1.26335v -4.06846h 1.26335v 4.06846h 1.26335v 2.03423h 1.26335v -4.06846h 1.26335v -2.03423h 1.26335v -4.06846h 1.26335v 6.10269h 1.26335v -4.06846h 1.26335v
 4.06846h 1.26335v 2.03423h 1.26335v -2.03423h 1.26335v 4.06846h 1.26335v -8.13691h 1.26335v 6.10269h 1.26335v -8.13691h 1.26335v 6.10269h 1.26335v -2.03423h 1.26335v 4.06846h 2.5267v -4.06846h 1.26335v 4.06846h 1.26335v 2.03423h 1.26335v -4.06846h
 1.26335v 2.03423h 1.26335v -2.03423h 1.26335v 4.06846h 1.26335v -6.10269h 1.26335v 2.03423h 1.26335v 2.03423h 1.26335v -2.03423h 1.26335v 4.06846h 1.26335v -2.03423h 1.26335v -6.10269h 1.26335v 2.03423h 2.5267v 6.10269h 2.5267v -6.10269h 1.26335v
 2.03423h 1.26335v -6.10269h 2.5267v 8.13691h 1.26335v 2.03423h 3.79006" fill="none" stroke="#000099"/>
<rect x="442.705" y="24.9905" width="113.386" height="61.5151" fill="white"/>
<path d="M442.705,86.5056h 113.386" fill="none" stroke="black"/>
<path d="M556.091,86.5056v -61.5151" fill="none" stroke="black"/>
<path d="M556.091,24.9905h -113.386" fill="none" stroke="black"/>
<path d="M442.705,24.9905v 61.5151" fill="none" stroke="black"/>
<text xml:space="preserve" x="446.061" y="36.6549" fill="black" font-size="12.1556" font-family="Helvetica">Am_007_calibrated</text>
<path d="M442.705,40.3693h 113.386" fill="none" stroke="black"/>
<text xml:space="preserve" x="447.69" y="52.946" fill="black" font-size="12.7186" font-family="Helvetica">Entries </text>
<text xml:space="preserve" x="512.854" y="52.946" fill="black" font-size="12.7186" font-family="Helvetica"> 11066</text>
<text xml:space="preserve" x="447.69" y="67.6079" fill="black" font-size="12.7186" font-family="Helvetica">Mean  </text>
<text xml:space="preserve" x="512.854" y="67.6079" fill="black" font-size="12.7186" font-family="Helvetica">  18.86</text>
<text xml:space="preserve" x="447.69" y="83.0844" fill="black" font-size="12.7186" font-family="Helvetica">Std Dev   </text>
<text xml:space="preserve" x="512.854" y="83.0844" fill="black" font-size="12.7186" font-family="Helvetica">  4.607</text>
<path d="M57.1929,346.022h 453.543" fill="none" stroke="black"/>
<path d="M57.1929,336.795v 9.22726" fill="none" stroke="black"/>
<path d="M70.1296,341.409v 4.61363" fill="none" stroke="black"/>
<path d="M83.0664,341.409v 4.61363" fill="none" stroke="black"/>
<path d="M96.0031,341.409v 4.61363" fill="none" stroke="black"/>
<path d="M108.94,341.409v 4.61363" fill="none" stroke="black"/>
<path d="M121.877,336.795v 9.22726" fill="none" stroke="black"/>
<path d="M134.813,341.409v 4.61363" fill="none" stroke="black"/>
<path d="M147.75,341.409v 4.61363" fill="none" stroke="black"/>
<path d="M160.687,341.409v 4.61363" fill="none" stroke="black"/>
<path d="M173.623,341.409v 4.61363" fill="none" stroke="black"/>
<path d="M186.56,336.795v 9.22726" fill="none" stroke="black"/>
<path d="M199.497,341.409v 4.61363" fill="none" stroke="black"/>
<path d="M212.434,341.409v 4.61363" fill="none" stroke="black"/>
<path d="M225.37,341.409v 4.61363" fill="none" stroke="black"/>
<path d="M238.307,341.409v 4.61363" fill="none" stroke="black"/>
<path d="M251.244,336.795v 9.22726" fill="none" stroke="black"/>
<path d="M264.18,341.409v 4.61363" fill="none" stroke="black"/>
<path d="M277.117,341.409v 4.61363" fill="none" stroke="black"/>
<path d="M290.054,341.409v 4.61363" fill="none" stroke="black"/>
<path d="M302.991,341.409v 4.61363" fill="none" stroke="black"/>
<path d="M315.927,336.795v 9.22726" fill="none" stroke="black"/>
<path d="M328.864,341.409v 4.61363" fill="none" stroke="black"/>
<path d="M341.801,341.409v 4.61363" fill="none" stroke="black"/>
<path d="M354.738,341.409v 4.61363" fill="none" stroke="black"/>
<path d="M367.674,341.409v 4.61363" fill="none" stroke="black"/>
<path d="M380.611,336.795v 9.22726" fill="none" stroke="black"/>
<path d="M393.548,341.409v 4.61363" fill="none" stroke="black"/>
<path d="M406.484,341.409v 4.61363" fill="none" stroke="black"/>
<path d="M419.421,341.409v 4.61363" fill="none" stroke="black"/>
<path d="M432.358,341.409v 4.61363" fill="none" stroke="black"/>
<path d="M445.295,336.795v 9.22726" fill="none" stroke="black"/>
<path d="M458.231,341.409v 4.61363" fill="none" stroke="black"/>
<path d="M471.168,341.409v 4.61363" fill="none" stroke="black"/>
<path d="M484.105,341.409v 4.61363" fill="none" stroke="black"/>
<path d="M497.041,341.409v 4.61363" fill="none" stroke="black"/>
<path d="M509.978,336.795v 9.22726" fill="none" stroke="black"/>
<path d="M509.978,336.795v 9.22726" fill="none" stroke="black"/>
<text xml:space="preserve" x="53.446" y="358.403" fill="black" font-size="12.8453" font-family="Helvetica">0</text>
<text xml:space="preserve" x="118.61" y="358.403" fill="black" font-size="12.8453" font-family="Helvetica">5</text>
<text xml:space="preserve" x="179.702" y="358.403" fill="black" font-size="12.8453" font-family="Helvetica">10</text>
<text xml:space="preserve" x="243.237" y="358.403" fill="black" font-size="12.8453" font-family="Helvetica">15</text>
<text xml:space="preserve" x="309.216" y="358.403" fill="black" font-size="12.8453" font-family="Helvetica">20</text>
<text xml:space="preserve" x="372.751" y="358.403" fill="black" font-size="12.8453" font-family="Helvetica">25</text>
<text xml:space="preserve" x="438.73" y="358.403" fill="black" font-size="12.8453" font-family="Helvetica">30</text>
<text xml:space="preserve" x="502.265" y="358.403" fill="black" font-size="12.8453" font-family="Helvetica">35</text>
<text xml:space="preserve" x="441.173" y="370.622" fill="black" font-size="12.8453" font-family="Helvetica">Energy [keV]</text>
<path d="M57.1929,346.022v -307.575" fill="none" stroke="black"/>
<path d="M70.7992,346.022h -13.6063" fill="none" stroke="black"/>
<path d="M63.9961,335.851h -6.80315" fill="none" stroke="black"/>
<path d="M63.9961,325.68h -6.80315" fill="none" stroke="black"/>
<path d="M63.9961,315.509h -6.80315" fill="none" stroke="black"/>
<path d="M70.7992,305.338h -13.6063" fill="none" stroke="black"/>
<path d="M63.9961,295.167h -6.80315" fill="none" stroke="black"/>
<path d="M63.9961,284.995h -6.80315" fill="none" stroke="black"/>
<path d="M63.9961,274.824h -6.80315" fill="none" stroke="black"/>
<path d="M70.7992,264.653h -13.6063" fill="none" stroke="black"/>
<path d="M63.9961,254.482h -6.80315" fill="none" stroke="black"/>
<path d="M63.9961,244.311h -6.80315" fill="none" stroke="black"/>
<path d="M63.9961,234.14h -6.80315" fill="none" stroke="black"/>
<path d="M70.7992,223.969h -13.6063" fill="none" stroke="black"/>
<path d="M63.9961,213.797h -6.80315" fill="none" stroke="black"/>
<path d="M63.9961,203.626h -6.80315" fill="none" stroke="black"/>
<path d="M63.9961,193.455h -6.80315" fill="none" stroke="black"/>
<path d="M70.7992,183.284h -13.6063" fill="none" stroke="black"/>
<path d="M63.9961,173.113h -6.80315" fill="none" stroke="black"/>
<path d="M63.9961,162.942h -6.80315" fill="none" stroke="black"/>
<path d="M63.9961,152.771h -6.80315" fill="none" stroke="black"/>
<path d="M70.7992,142.599h -13.6063" fill="none" stroke="black"/>
<path d="M63.9961,132.428h -6.80315" fill="none" stroke="black"/>
<path d="M63.9961,122.257h -6.80315" fill="none" stroke="black"/>
<path d="M63.9961,112.086h -6.80315" fill="none" stroke="black"/>
<path d="M70.7992,101.915h -13.6063" fill="none" stroke="black"/>
<path d="M63.9961,91.7437h -6.80315" fill="none" stroke="black"/>
<path d="M63.9961,81.5726h -6.80315" fill="none" stroke="black"/>
<path d="M63.9961,71.4014h -6.80315" fill="none" stroke="black"/>
<path d="M70.7992,61.2303h -13.6063" fill="none" stroke="black"/>
<path d="M70.7992,61.2303h -13.6063" fill="none" stroke="black"/>
<path d="M63.9961,51.0591h -6.80315" fill="none" stroke="black"/>
<path d="M63.9961,40.888h -6.80315" fill="none" stroke="black"/>
<text xml:space="preserve" x="47.7441" y="350.258" fill="black" font-size="12.8453" font-family="Helvetica">0</text>
<text xml:space="preserve" x="41.2277" y="309.53" fill="black" font-size="12.8453" font-family="Helvetica">20</text>
<text xml:space="preserve" x="41.2277" y="268.803" fill="black" font-size="12.8453" font-family="Helvetica">40</text>
<text xml:space="preserve" x="41.2277" y="228.075" fill="black" font-size="12.8453" font-family="Helvetica">60</text>
<text xml:space="preserve" x="41.2277" y="188.162" fill="black" font-size="12.8453" font-family="Helvetica">80</text>
<text xml:space="preserve" x="33.8967" y="147.434" fill="black" font-size="12.8453" font-family="Helvetica">100</text>
<text xml:space="preserve" x="33.8967" y="106.706" fill="black" font-size="12.8453" font-family="Helvetica">120</text>
<text xml:space="preserve" x="33.8967" y="65.9788" fill="black" font-size="12.8453" font-family="Helvetica">140</text>
<g transform="rotate(-90,20.8638,70.0516)">
<text xml:space="preserve" x="20.8638" y="70.0516" fill="black" font-size="12.8453" font-family="Helvetica">Event</text>
</g>
<rect x="442.705" y="24.9905" width="113.386" height="61.5151" fill="white"/>
<path d="M442.705,86.5056h 113.386" fill="none" stroke="black"/>
<path d="M556.091,86.5056v -61.5151" fill="none" stroke="black"/>
<path d="M556.091,24.9905h -113.386" fill="none" stroke="black"/>
<path d="M442.705,24.9905v 61.5151" fill="none" stroke="black"/>
<text xml:space="preserve" x="446.061" y="36.6549" fill="black" font-size="12.1556" font-family="Helvetica">Am_007_calibrated</text>
<path d="M442.705,40.3693h 113.386" fill="none" stroke="black"/>
<text xml:space="preserve" x="447.69" y="52.946" fill="black" font-size="12.7186" font-family="Helvetica">Entries </text>
<text xml:space="preserve" x="512.854" y="52.946" fill="black" font-size="12.7186" font-family="Helvetica"> 11066</text>
<text xml:space="preserve" x="447.69" y="67.6079" fill="black" font-size="12.7186" font-family="Helvetica">Mean  </text>
<text xml:space="preserve" x="512.854" y="67.6079" fill="black" font-size="12.7186" font-family="Helvetica">  18.86</text>
<text xml:space="preserve" x="447.69" y="83.0844" fill="black" font-size="12.7186" font-family="Helvetica">Std Dev   </text>
<text xml:space="preserve" x="512.854" y="83.0844" fill="black" font-size="12.7186" font-family="Helvetica">  4.607</text>
<path d="M252.085,305.344l 1.68177, -12.0828l 1.68177, -11.5389l 1.68177, -10.9956l 1.68177, -10.4536l 1.68177, -9.91381l 1.68177, -9.37686l 1.68177, -8.84358l 1.68177, -8.3147l 1.68177, -7.79098l 1.68177, -7.27313l 1.68177, -6.76185l 1.68177,
 -6.25785l 1.68177, -5.76177l 1.68177, -5.27426l 1.68177, -4.79594l 1.68177, -4.3274l 1.68177, -3.86919l 1.68177, -3.42185l 1.68177, -2.98587l 1.68177, -2.56173l 1.68177, -2.14985l 1.68177, -1.75063l 1.68177, -1.36444l 1.68177, -0.991599l 1.68177,
 -0.632399l 1.68177, -0.287091l 1.68177, 0.0441105l 1.68177, 0.361029l 1.68177, 0.663527l 1.68177, 0.951501l 1.68177, 1.22489l 1.68177, 1.48366l 1.68177, 1.72782l 1.68177, 1.95742l 1.68177, 2.17254l 1.68177, 2.37328l 1.68177, 2.5598l 1.68177,
 2.73226l 1.68177, 2.89087l 1.68177, 3.03586l 1.68177, 3.16749l 1.68177, 3.28606l 1.68177, 3.39186l 1.68177, 3.48523l 1.68177, 3.56652l 1.68177, 3.63611l 1.68177, 3.69437l 1.68177, 3.74171l 1.68177, 3.77854" fill="none" stroke="#0000ff"
 stroke-width="2"/>
<path d="M334.492,211.493l 1.68177, 3.80529l 1.68177, 3.8224l 1.68177, 3.83031l 1.68177, 3.82947l 1.68177, 3.82034l 1.68177, 3.80336l 1.68177, 3.779l 1.68177, 3.74771l 1.68177, 3.70995l 1.68177, 3.66617l 1.68177, 3.61681l 1.68177, 3.56232l 1.68177,
 3.50313l 1.68177, 3.43966l 1.68177, 3.37233l 1.68177, 3.30153l 1.68177, 3.22767l 1.68177, 3.15112l 1.68177, 3.07225l 1.68177, 2.9914l 1.68177, 2.90893l 1.68177, 2.82516l 1.68177, 2.74038l 1.68177, 2.65491l 1.68177, 2.56901l 1.68177, 2.48295l
 1.68177, 2.39698l 1.68177, 2.31132l 1.68177, 2.2262l 1.68177, 2.14182l 1.68177, 2.05835l 1.68177, 1.97597l 1.68177, 1.89484l 1.68177, 1.8151l 1.68177, 1.73687l 1.68177, 1.66027l 1.68177, 1.58539l 1.68177, 1.51233l 1.68177, 1.44116l 1.68177, 1.37195l
 1.68177, 1.30475l 1.68177, 1.2396l 1.68177, 1.17653l 1.68177, 1.11557l 1.68177, 1.05673l 1.68177, 1.00001l 1.68177, 0.945426l 1.68177, 0.892957l 1.68177, 0.842592" fill="none" stroke="#0000ff" stroke-width="2"/>
<path d="M416.898,334.429l 1.68177, 0.794308" fill="none" stroke="#0000ff" stroke-width="2"/>
<path d="M59.1334,344.684l 3.88102, -0.313698l 3.88102, -0.378952l 3.88102, -0.455738l 3.88102, -0.545632l 3.88102, -0.650324l 3.88102, -0.77161l 3.88102, -0.91137l 3.88102, -1.07155l 3.88102, -1.25413l 3.88102, -1.46107l 3.88102, -1.69431l 3.88102,
 -1.95565l 3.88102, -2.24675l 3.88102, -2.56905l 3.88102, -2.92367l 3.88102, -3.31137l 3.88102, -3.73242l 3.88102, -4.1866l 3.88102, -4.67304l 3.88102, -5.19019l 3.88102, -5.73572l 3.88102, -6.30648l 3.88102, -6.89848l 3.88102, -7.50678l 3.88102,
 -8.12557l 3.88102, -8.74811l 3.88102, -9.3668l 3.88102, -9.97324l 3.88102, -10.5583l 3.88102, -11.1123l 3.88102, -11.6251l 3.88102, -12.0861l 3.88102, -12.485l 3.88102, -12.8112l 3.88102, -13.0548l 3.88102, -13.2063l 3.88102, -13.2572l 3.88102,
 -13.1999l 3.88102, -13.0283l 3.88102, -12.7378l 3.88102, -12.3255l 3.88102, -11.7904l 3.88102, -11.1334l 3.88102, -10.3576l 3.48826, -8.50992" fill="none" stroke="#ff0000" stroke-width="2"/>
<path d="M289.572,38.4469l 2.42269, 5.7413" fill="none" stroke="#ff0000" stroke-width="2"/>
<path d="M291.994,44.1882l 3.88102, 10.1176l 3.88102, 10.9261l 3.88102, 11.6171l 3.88102, 12.1868l 3.88102, 12.6338l 3.88102, 12.9585l 3.88102, 13.1633l 3.88102, 13.2522l 3.88102, 13.2312l 3.88102, 13.1073l 3.88102, 12.8888l 3.88102, 12.5849l
 3.88102, 12.2055l 3.88102, 11.761l 3.88102, 11.2617l 3.88102, 10.7184l 3.88102, 10.141l 3.88102, 9.53968l 3.88102, 8.92356l 3.88102, 8.30131l 3.88102, 7.68074l 3.88102, 7.06884l 3.88102, 6.47171l 3.88102, 5.8945l 3.88102, 5.34149l 3.88102, 4.81606l
 3.88102, 4.32076l 3.88102, 3.85735l 3.88102, 3.42689l 3.88102, 3.02978l 3.88102, 2.66588l 3.88102, 2.33455l 3.88102, 2.03477l 3.88102, 1.76518l 3.88102, 1.52419l 3.88102, 1.31001l 3.88102, 1.12075l 3.88102, 0.95445l 3.88102, 0.809122" fill="none"
 stroke="#ff0000" stroke-width="2"/>
<text xml:space="preserve" x="206.582" y="18.7347" fill="black" font-size="18.0316" font-family="Helvetica">Am_007_calibrated</text></svg>
