<?xml version="1.0" standalone="no"?>
<svg width="567.429" height="384.969" viewBox="0 0 567.429 384.969" xmlns="http://www.w3.org/2000/svg" shape-rendering="crispEdges">
<title>
img/week1/calibrated_hist_low_gain/Am_007_calibrated_fit_gaus_withpara.svg
</title>
<desc>
Creator: ROOT Version 6.22/09
CreationDate: Tue Jul 13 19:15:41 2021</desc>
<defs>
</defs>
<rect x="0.5" y="0" width="566.929" height="384.469" fill="white"/>
<rect x="57.1929" y="38.4469" width="453.543" height="307.575" fill="white"/>
<rect x="57.1929" y="38.4469" width="453.543" height="307.575" fill="none" stroke="black"/>
<rect x="57.1929" y="38.4469" width="453.543" height="307.575" fill="white"/>
<rect x="57.1929" y="38.4469" width="453.543" height="307.575" fill="none" stroke="black"/>
<path d="M57.1929,346.022h 97.2781v -2.07751h 1.26335v -14.5426h 1.26335v -27.0076h 1.26335v 10.3875h 1.26335v -8.31004h 1.26335v 6.23253h 1.26335v -14.5426h 1.26335v 6.23253h 1.26335v -24.9301h 1.26335v 18.6976h 1.26335v -2.07751h 1.26335v 10.3875h
 1.26335v -4.15502h 1.26335v 10.3875h 1.26335v -20.7751h 1.26335v 16.6201h 1.26335v -2.07751h 1.26335v 12.4651h 1.26335v -2.07751h 1.26335v -14.5426h 1.26335v -6.23253h 1.26335v 22.8526h 1.26335v -16.6201h 1.26335v 20.7751h 1.26335v 2.07751h 1.26335v
 -14.5426h 1.26335v -14.5426h 1.26335v -8.31004h 1.26335v 16.6201h 1.26335v 6.23253h 1.26335v 8.31004h 1.26335v -22.8526h 1.26335v 4.15502h 2.5267v 14.5426h 2.5267v -2.07751h 1.26335v -12.4651h 2.5267v -2.07751h 1.26335v 4.15502h 1.26335v 12.4651h
 1.26335v -4.15502h 2.5267v -6.23253h 1.26335v -8.31004h 1.26335v -4.15502h 1.26335v 22.8526h 1.26335v 2.07751h 1.26335v -2.07751h 1.26335v -33.2402h 1.26335v 31.1626h 1.26335v -12.4651h 1.26335v 2.07751h 1.26335v -4.15502h 1.26335v 6.23253h 1.26335v
 -4.15502h 1.26335v -33.2402h 1.26335v 27.0076h 1.26335v 4.15502h 2.5267v -2.07751h 1.26335v -14.5426h 1.26335v -8.31004h 1.26335v 27.0076h 1.26335v -4.15502h 1.26335v 4.15502h 1.26335v -14.5426h 1.26335v -35.3177h 1.26335v 6.23253h 1.26335v 2.07751h
 1.26335v 22.8526h 1.26335v 6.23253h 1.26335v -18.6976h 1.26335v -27.0076h 1.26335v 20.7751h 1.26335v -16.6201h 1.26335v 22.8526h 1.26335v 14.5426h 1.26335v -31.1626h 1.26335v -10.3875h 1.26335v -8.31004h 1.26335v 2.07751h 1.26335v 20.7751h 1.26335v
 14.5426h 1.26335v -33.2402h 1.26335v 27.0076h 1.26335v -39.4727h 1.26335v 12.4651h 1.26335v 6.23253h 1.26335v 2.07751h 1.26335v -47.7827h 1.26335v -4.15502h 1.26335v -18.6976h 1.26335v 6.23253h 1.26335v 2.07751h 1.26335v 20.7751h 1.26335v -43.6277h
 2.5267v -2.07751h 1.26335v -24.9301h 1.26335v -10.3875h 1.26335v 41.5502h 1.26335v -64.4028h 2.5267v -29.0851h 1.26335v 4.15502h 1.26335v 54.0153h 2.5267v -8.31004h 1.26335v -18.6976h 1.26335v -14.5426h 1.26335v -33.2402h 1.26335v 49.8602h 1.26335v
 54.0153h 1.26335v -33.2402h 1.26335v 2.07751h 1.26335v -14.5426h 1.26335v 24.9301h 1.26335v 6.23253h 1.26335v 14.5426h 1.26335v 4.15502h 1.26335v -20.7751h 1.26335v -20.7751h 1.26335v 45.7052h 1.26335v -20.7751h 1.26335v 43.6277h 1.26335v -33.2402h
 1.26335v 8.31004h 1.26335v 27.0076h 1.26335v -20.7751h 1.26335v 60.2478h 1.26335v 2.07751h 1.26335v -6.23253h 1.26335v -56.0928h 1.26335v 70.6353h 1.26335v -49.8602h 1.26335v 24.9301h 1.26335v 18.6976h 1.26335v -12.4651h 1.26335v -10.3875h 1.26335v
 16.6201h 1.26335v -8.31004h 1.26335v -2.07751h 1.26335v 58.1703h 1.26335v -45.7052h 1.26335v -33.2402h 1.26335v 24.9301h 1.26335v 10.3875h 1.26335v -6.23253h 1.26335v 37.3952h 1.26335v -37.3952h 1.26335v 29.0851h 1.26335v -14.5426h 1.26335v
 -10.3875h 1.26335v 6.23253h 1.26335v 43.6277h 1.26335v -33.2402h 1.26335v -4.15502h 1.26335v 31.1626h 1.26335v -12.4651h 1.26335v 18.6976h 2.5267v 10.3875h 1.26335v -27.0076h 1.26335v 16.6201h 1.26335v 2.07751h 1.26335v -12.4651h 1.26335v 43.6277h
 1.26335v 6.23253h 1.26335v -24.9301h 1.26335v 4.15502h 1.26335v 6.23253h 3.79006v 14.5426h 1.26335v -14.5426h 1.26335v 18.6976h 1.26335v -6.23253h 1.26335v 10.3875h 1.26335v 2.07751h 1.26335v -12.4651h 1.26335v -12.4651h 1.26335v -2.07751h 1.26335v
 2.07751h 1.26335v -10.3875h 1.26335v 22.8526h 1.26335v -4.15502h 1.26335v -6.23253h 1.26335v -6.23253h 1.26335v 2.07751h 1.26335v 8.31004h 1.26335v 18.6976h 1.26335v -14.5426h 1.26335v -18.6976h 2.5267v 6.23253h 1.26335v 8.31004h 1.26335v -8.31004h
 1.26335v 8.31004h 1.26335v -10.3875h 2.5267v 14.5426h 1.26335v -10.3875h 1.26335v 20.7751h 1.26335v -12.4651h 1.26335v -6.23253h 1.26335v 8.31004h 1.26335v 4.15502h 1.26335v -24.9301h 1.26335v 29.0851h 1.26335v -2.07751h 1.26335v 4.15502h 1.26335v
 -6.23253h 1.26335v -2.07751h 1.26335v 8.31004h 1.26335v 10.3875h 1.26335v -6.23253h 1.26335v 8.31004h 1.26335v -10.3875h 1.26335v 4.15502h 1.26335v 10.3875h 1.26335v -8.31004h 1.26335v 2.07751h 2.5267v -2.07751h 1.26335v -10.3875h 1.26335v 16.6201h
 1.26335v 4.15502h 1.26335v -2.07751h 1.26335v -4.15502h 1.26335v 4.15502h 1.26335v -2.07751h 1.26335v 2.07751h 1.26335v 4.15502h 1.26335v -6.23253h 1.26335v 4.15502h 1.26335v 2.07751h 1.26335v -4.15502h 1.26335v -4.15502h 1.26335v -2.07751h 1.26335v
 6.23253h 1.26335v -4.15502h 1.26335v 6.23253h 2.5267v -2.07751h 1.26335v 2.07751h 1.26335v -4.15502h 3.79006v 2.07751h 1.26335v -2.07751h 1.26335v 4.15502h 2.5267v -4.15502h 1.26335v 4.15502h 1.26335v 2.07751h 1.26335v -4.15502h 1.26335v 2.07751h
 1.26335v -2.07751h 1.26335v 4.15502h 1.26335v -6.23253h 1.26335v 2.07751h 2.5267v 2.07751h 1.26335v 2.07751h 1.26335v -2.07751h 1.26335v -6.23253h 1.26335v 2.07751h 2.5267v 6.23253h 2.5267v -6.23253h 1.26335v 2.07751h 1.26335v -6.23253h 2.5267v
 8.31004h 1.26335v 2.07751h 6.31676" fill="none" stroke="#000099"/>
<rect x="442.705" y="24.9905" width="113.386" height="61.5151" fill="white"/>
<path d="M442.705,86.5056h 113.386" fill="none" stroke="black"/>
<path d="M556.091,86.5056v -61.5151" fill="none" stroke="black"/>
<path d="M556.091,24.9905h -113.386" fill="none" stroke="black"/>
<path d="M442.705,24.9905v 61.5151" fill="none" stroke="black"/>
<text xml:space="preserve" x="484.345" y="28.5094" fill="black" font-size="3.9614" font-family="Helvetica">Am_007_calibrated</text>
<path d="M442.705,29.0915h 113.386" fill="none" stroke="black"/>
<text xml:space="preserve" x="447.69" y="32.5821" fill="black" font-size="3.9614" font-family="Helvetica">Entries </text>
<text xml:space="preserve" x="539.734" y="32.5821" fill="black" font-size="3.9614" font-family="Helvetica"> 11066</text>
<text xml:space="preserve" x="447.69" y="36.6549" fill="black" font-size="3.9614" font-family="Helvetica">Mean  </text>
<text xml:space="preserve" x="539.734" y="36.6549" fill="black" font-size="3.9614" font-family="Helvetica">  18.53</text>
<text xml:space="preserve" x="447.69" y="40.7277" fill="black" font-size="3.9614" font-family="Helvetica">Std Dev   </text>
<text xml:space="preserve" x="539.734" y="40.7277" fill="black" font-size="3.9614" font-family="Helvetica">  4.649</text>
<text xml:space="preserve" x="451.763" y="44.8004" fill="black" font-size="3.9614" font-family="Helvetica"> / ndf </text>
<text xml:space="preserve" x="450.133" y="43.9859" fill="black" font-size="2.8076" font-family="Helvetica">2</text>
<text xml:space="preserve" x="447.69" y="44.8004" fill="black" font-size="3.9614" font-family="Times">&#0967;</text>
<text xml:space="preserve" x="533.218" y="44.8004" fill="black" font-size="3.9614" font-family="Helvetica"> 446.5 / 124</text>
<text xml:space="preserve" x="447.69" y="48.8732" fill="black" font-size="3.9614" font-family="Helvetica">Prob  </text>
<text xml:space="preserve" x="546.251" y="48.8732" fill="black" font-size="3.9614" font-family="Helvetica">38</text>
<text xml:space="preserve" x="543.807" y="48.8732" fill="black" font-size="3.9614" font-family="Times">&#8722;</text>
<text xml:space="preserve" x="532.403" y="48.8732" fill="black" font-size="3.9614" font-family="Helvetica"> 5.577e</text>
<text xml:space="preserve" x="447.69" y="52.946" fill="black" font-size="3.9614" font-family="Helvetica">1st Const </text>
<text xml:space="preserve" x="542.993" y="52.946" fill="black" font-size="3.9614" font-family="Helvetica"> 54.4</text>
<text xml:space="preserve" x="540.549" y="52.946" fill="black" font-size="3.9614" font-family="Times">&#0177;</text>
<text xml:space="preserve" x="530.774" y="52.946" fill="black" font-size="3.9614" font-family="Helvetica"> 460.8 </text>
<text xml:space="preserve" x="447.69" y="57.0187" fill="black" font-size="3.9614" font-family="Helvetica">1st Mean </text>
<text xml:space="preserve" x="542.993" y="57.0187" fill="black" font-size="3.9614" font-family="Helvetica"> 0.80</text>
<text xml:space="preserve" x="540.549" y="57.0187" fill="black" font-size="3.9614" font-family="Times">&#0177;</text>
<text xml:space="preserve" x="530.774" y="57.0187" fill="black" font-size="3.9614" font-family="Helvetica"> 10.37 </text>
<text xml:space="preserve" x="447.69" y="61.0915" fill="black" font-size="3.9614" font-family="Helvetica">1st Sigma </text>
<text xml:space="preserve" x="541.363" y="61.0915" fill="black" font-size="3.9614" font-family="Helvetica"> 0.227</text>
<text xml:space="preserve" x="538.92" y="61.0915" fill="black" font-size="3.9614" font-family="Times">&#0177;</text>
<text xml:space="preserve" x="529.145" y="61.0915" fill="black" font-size="3.9614" font-family="Helvetica"> 6.084 </text>
<text xml:space="preserve" x="447.69" y="65.1643" fill="black" font-size="3.9614" font-family="Helvetica">2nd Const </text>
<text xml:space="preserve" x="534.032" y="65.1643" fill="black" font-size="3.9614" font-family="Helvetica"> 5.070e+02</text>
<text xml:space="preserve" x="531.589" y="65.1643" fill="black" font-size="3.9614" font-family="Times">&#0177;</text>
<text xml:space="preserve" x="515.298" y="65.1643" fill="black" font-size="3.9614" font-family="Helvetica">1.199e+04 </text>
<text xml:space="preserve" x="512.854" y="65.1643" fill="black" font-size="3.9614" font-family="Times">&#8722;</text>
<text xml:space="preserve" x="512.039" y="65.1643" fill="black" font-size="3.9614" font-family="Helvetica"> </text>
<text xml:space="preserve" x="447.69" y="69.237" fill="black" font-size="3.9614" font-family="Helvetica">2nd Mean </text>
<text xml:space="preserve" x="541.363" y="69.237" fill="black" font-size="3.9614" font-family="Helvetica"> 2.119</text>
<text xml:space="preserve" x="538.92" y="69.237" fill="black" font-size="3.9614" font-family="Times">&#0177;</text>
<text xml:space="preserve" x="529.96" y="69.237" fill="black" font-size="3.9614" font-family="Helvetica">6.647 </text>
<text xml:space="preserve" x="527.516" y="69.237" fill="black" font-size="3.9614" font-family="Times">&#8722;</text>
<text xml:space="preserve" x="526.701" y="69.237" fill="black" font-size="3.9614" font-family="Helvetica"> </text>
<text xml:space="preserve" x="447.69" y="73.3098" fill="black" font-size="3.9614" font-family="Helvetica">2nd Sigma </text>
<text xml:space="preserve" x="541.363" y="73.3098" fill="black" font-size="3.9614" font-family="Helvetica"> 0.961</text>
<text xml:space="preserve" x="538.92" y="73.3098" fill="black" font-size="3.9614" font-family="Times">&#0177;</text>
<text xml:space="preserve" x="529.145" y="73.3098" fill="black" font-size="3.9614" font-family="Helvetica"> 8.078 </text>
<text xml:space="preserve" x="447.69" y="77.3826" fill="black" font-size="3.9614" font-family="Helvetica">3rd Const </text>
<text xml:space="preserve" x="541.363" y="77.3826" fill="black" font-size="3.9614" font-family="Helvetica"> 10.25</text>
<text xml:space="preserve" x="538.92" y="77.3826" fill="black" font-size="3.9614" font-family="Times">&#0177;</text>
<text xml:space="preserve" x="529.96" y="77.3826" fill="black" font-size="3.9614" font-family="Helvetica">43.29 </text>
<text xml:space="preserve" x="527.516" y="77.3826" fill="black" font-size="3.9614" font-family="Times">&#8722;</text>
<text xml:space="preserve" x="526.701" y="77.3826" fill="black" font-size="3.9614" font-family="Helvetica"> </text>
<text xml:space="preserve" x="447.69" y="81.4553" fill="black" font-size="3.9614" font-family="Helvetica">3rd Mean </text>
<text xml:space="preserve" x="544.622" y="81.4553" fill="black" font-size="3.9614" font-family="Helvetica"> 0.6</text>
<text xml:space="preserve" x="542.178" y="81.4553" fill="black" font-size="3.9614" font-family="Times">&#0177;</text>
<text xml:space="preserve" x="533.218" y="81.4553" fill="black" font-size="3.9614" font-family="Helvetica">  36.4 </text>
<text xml:space="preserve" x="447.69" y="85.5281" fill="black" font-size="3.9614" font-family="Helvetica">3rd Sigma </text>
<text xml:space="preserve" x="538.92" y="85.5281" fill="black" font-size="3.9614" font-family="Helvetica"> 0.1844</text>
<text xml:space="preserve" x="536.476" y="85.5281" fill="black" font-size="3.9614" font-family="Times">&#0177;</text>
<text xml:space="preserve" x="524.258" y="85.5281" fill="black" font-size="3.9614" font-family="Helvetica"> 0.4019 </text>
<path d="M57.1929,346.022h 453.543" fill="none" stroke="black"/>
<path d="M57.1929,336.795v 9.22726" fill="none" stroke="black"/>
<path d="M70.1296,341.409v 4.61363" fill="none" stroke="black"/>
<path d="M83.0664,341.409v 4.61363" fill="none" stroke="black"/>
<path d="M96.0031,341.409v 4.61363" fill="none" stroke="black"/>
<path d="M108.94,341.409v 4.61363" fill="none" stroke="black"/>
<path d="M121.877,336.795v 9.22726" fill="none" stroke="black"/>
<path d="M134.813,341.409v 4.61363" fill="none" stroke="black"/>
<path d="M147.75,341.409v 4.61363" fill="none" stroke="black"/>
<path d="M160.687,341.409v 4.61363" fill="none" stroke="black"/>
<path d="M173.623,341.409v 4.61363" fill="none" stroke="black"/>
<path d="M186.56,336.795v 9.22726" fill="none" stroke="black"/>
<path d="M199.497,341.409v 4.61363" fill="none" stroke="black"/>
<path d="M212.434,341.409v 4.61363" fill="none" stroke="black"/>
<path d="M225.37,341.409v 4.61363" fill="none" stroke="black"/>
<path d="M238.307,341.409v 4.61363" fill="none" stroke="black"/>
<path d="M251.244,336.795v 9.22726" fill="none" stroke="black"/>
<path d="M264.18,341.409v 4.61363" fill="none" stroke="black"/>
<path d="M277.117,341.409v 4.61363" fill="none" stroke="black"/>
<path d="M290.054,341.409v 4.61363" fill="none" stroke="black"/>
<path d="M302.991,341.409v 4.61363" fill="none" stroke="black"/>
<path d="M315.927,336.795v 9.22726" fill="none" stroke="black"/>
<path d="M328.864,341.409v 4.61363" fill="none" stroke="black"/>
<path d="M341.801,341.409v 4.61363" fill="none" stroke="black"/>
<path d="M354.738,341.409v 4.61363" fill="none" stroke="black"/>
<path d="M367.674,341.409v 4.61363" fill="none" stroke="black"/>
<path d="M380.611,336.795v 9.22726" fill="none" stroke="black"/>
<path d="M393.548,341.409v 4.61363" fill="none" stroke="black"/>
<path d="M406.484,341.409v 4.61363" fill="none" stroke="black"/>
<path d="M419.421,341.409v 4.61363" fill="none" stroke="black"/>
<path d="M432.358,341.409v 4.61363" fill="none" stroke="black"/>
<path d="M445.295,336.795v 9.22726" fill="none" stroke="black"/>
<path d="M458.231,341.409v 4.61363" fill="none" stroke="black"/>
<path d="M471.168,341.409v 4.61363" fill="none" stroke="black"/>
<path d="M484.105,341.409v 4.61363" fill="none" stroke="black"/>
<path d="M497.041,341.409v 4.61363" fill="none" stroke="black"/>
<path d="M509.978,336.795v 9.22726" fill="none" stroke="black"/>
<path d="M509.978,336.795v 9.22726" fill="none" stroke="black"/>
<text xml:space="preserve" x="53.446" y="358.403" fill="black" font-size="12.8453" font-family="Helvetica">0</text>
<text xml:space="preserve" x="118.61" y="358.403" fill="black" font-size="12.8453" font-family="Helvetica">5</text>
<text xml:space="preserve" x="179.702" y="358.403" fill="black" font-size="12.8453" font-family="Helvetica">10</text>
<text xml:space="preserve" x="243.237" y="358.403" fill="black" font-size="12.8453" font-family="Helvetica">15</text>
<text xml:space="preserve" x="309.216" y="358.403" fill="black" font-size="12.8453" font-family="Helvetica">20</text>
<text xml:space="preserve" x="372.751" y="358.403" fill="black" font-size="12.8453" font-family="Helvetica">25</text>
<text xml:space="preserve" x="438.73" y="358.403" fill="black" font-size="12.8453" font-family="Helvetica">30</text>
<text xml:space="preserve" x="502.265" y="358.403" fill="black" font-size="12.8453" font-family="Helvetica">35</text>
<text xml:space="preserve" x="441.173" y="370.622" fill="black" font-size="12.8453" font-family="Helvetica">Energy [keV]</text>
<path d="M57.1929,346.022v -307.575" fill="none" stroke="black"/>
<path d="M70.7992,346.022h -13.6063" fill="none" stroke="black"/>
<path d="M63.9961,335.635h -6.80315" fill="none" stroke="black"/>
<path d="M63.9961,325.247h -6.80315" fill="none" stroke="black"/>
<path d="M63.9961,314.86h -6.80315" fill="none" stroke="black"/>
<path d="M70.7992,304.472h -13.6063" fill="none" stroke="black"/>
<path d="M63.9961,294.085h -6.80315" fill="none" stroke="black"/>
<path d="M63.9961,283.697h -6.80315" fill="none" stroke="black"/>
<path d="M63.9961,273.309h -6.80315" fill="none" stroke="black"/>
<path d="M70.7992,262.922h -13.6063" fill="none" stroke="black"/>
<path d="M63.9961,252.534h -6.80315" fill="none" stroke="black"/>
<path d="M63.9961,242.147h -6.80315" fill="none" stroke="black"/>
<path d="M63.9961,231.759h -6.80315" fill="none" stroke="black"/>
<path d="M70.7992,221.372h -13.6063" fill="none" stroke="black"/>
<path d="M63.9961,210.984h -6.80315" fill="none" stroke="black"/>
<path d="M63.9961,200.597h -6.80315" fill="none" stroke="black"/>
<path d="M63.9961,190.209h -6.80315" fill="none" stroke="black"/>
<path d="M70.7992,179.821h -13.6063" fill="none" stroke="black"/>
<path d="M63.9961,169.434h -6.80315" fill="none" stroke="black"/>
<path d="M63.9961,159.046h -6.80315" fill="none" stroke="black"/>
<path d="M63.9961,148.659h -6.80315" fill="none" stroke="black"/>
<path d="M70.7992,138.271h -13.6063" fill="none" stroke="black"/>
<path d="M63.9961,127.884h -6.80315" fill="none" stroke="black"/>
<path d="M63.9961,117.496h -6.80315" fill="none" stroke="black"/>
<path d="M63.9961,107.109h -6.80315" fill="none" stroke="black"/>
<path d="M70.7992,96.7211h -13.6063" fill="none" stroke="black"/>
<path d="M63.9961,86.3335h -6.80315" fill="none" stroke="black"/>
<path d="M63.9961,75.946h -6.80315" fill="none" stroke="black"/>
<path d="M63.9961,65.5584h -6.80315" fill="none" stroke="black"/>
<path d="M70.7992,55.1709h -13.6063" fill="none" stroke="black"/>
<path d="M70.7992,55.1709h -13.6063" fill="none" stroke="black"/>
<path d="M63.9961,44.7833h -6.80315" fill="none" stroke="black"/>
<text xml:space="preserve" x="47.7441" y="350.258" fill="black" font-size="12.8453" font-family="Helvetica">0</text>
<text xml:space="preserve" x="41.2277" y="308.716" fill="black" font-size="12.8453" font-family="Helvetica">20</text>
<text xml:space="preserve" x="41.2277" y="267.173" fill="black" font-size="12.8453" font-family="Helvetica">40</text>
<text xml:space="preserve" x="41.2277" y="225.631" fill="black" font-size="12.8453" font-family="Helvetica">60</text>
<text xml:space="preserve" x="41.2277" y="184.089" fill="black" font-size="12.8453" font-family="Helvetica">80</text>
<text xml:space="preserve" x="33.8967" y="142.547" fill="black" font-size="12.8453" font-family="Helvetica">100</text>
<text xml:space="preserve" x="33.8967" y="101.005" fill="black" font-size="12.8453" font-family="Helvetica">120</text>
<text xml:space="preserve" x="33.8967" y="59.4624" fill="black" font-size="12.8453" font-family="Helvetica">140</text>
<g transform="rotate(-90,20.8638,70.0516)">
<text xml:space="preserve" x="20.8638" y="70.0516" fill="black" font-size="12.8453" font-family="Helvetica">Event</text>
</g>
<rect x="442.705" y="24.9905" width="113.386" height="61.5151" fill="white"/>
<path d="M442.705,86.5056h 113.386" fill="none" stroke="black"/>
<path d="M556.091,86.5056v -61.5151" fill="none" stroke="black"/>
<path d="M556.091,24.9905h -113.386" fill="none" stroke="black"/>
<path d="M442.705,24.9905v 61.5151" fill="none" stroke="black"/>
<text xml:space="preserve" x="484.345" y="28.5094" fill="black" font-size="3.9614" font-family="Helvetica">Am_007_calibrated</text>
<path d="M442.705,29.0915h 113.386" fill="none" stroke="black"/>
<text xml:space="preserve" x="447.69" y="32.5821" fill="black" font-size="3.9614" font-family="Helvetica">Entries </text>
<text xml:space="preserve" x="539.734" y="32.5821" fill="black" font-size="3.9614" font-family="Helvetica"> 11066</text>
<text xml:space="preserve" x="447.69" y="36.6549" fill="black" font-size="3.9614" font-family="Helvetica">Mean  </text>
<text xml:space="preserve" x="539.734" y="36.6549" fill="black" font-size="3.9614" font-family="Helvetica">  18.53</text>
<text xml:space="preserve" x="447.69" y="40.7277" fill="black" font-size="3.9614" font-family="Helvetica">Std Dev   </text>
<text xml:space="preserve" x="539.734" y="40.7277" fill="black" font-size="3.9614" font-family="Helvetica">  4.649</text>
<text xml:space="preserve" x="451.763" y="44.8004" fill="black" font-size="3.9614" font-family="Helvetica"> / ndf </text>
<text xml:space="preserve" x="450.133" y="43.9859" fill="black" font-size="2.8076" font-family="Helvetica">2</text>
<text xml:space="preserve" x="447.69" y="44.8004" fill="black" font-size="3.9614" font-family="Times">&#0967;</text>
<text xml:space="preserve" x="533.218" y="44.8004" fill="black" font-size="3.9614" font-family="Helvetica"> 446.5 / 124</text>
<text xml:space="preserve" x="447.69" y="48.8732" fill="black" font-size="3.9614" font-family="Helvetica">Prob  </text>
<text xml:space="preserve" x="546.251" y="48.8732" fill="black" font-size="3.9614" font-family="Helvetica">38</text>
<text xml:space="preserve" x="543.807" y="48.8732" fill="black" font-size="3.9614" font-family="Times">&#8722;</text>
<text xml:space="preserve" x="532.403" y="48.8732" fill="black" font-size="3.9614" font-family="Helvetica"> 5.577e</text>
<text xml:space="preserve" x="447.69" y="52.946" fill="black" font-size="3.9614" font-family="Helvetica">1st Const </text>
<text xml:space="preserve" x="542.993" y="52.946" fill="black" font-size="3.9614" font-family="Helvetica"> 54.4</text>
<text xml:space="preserve" x="540.549" y="52.946" fill="black" font-size="3.9614" font-family="Times">&#0177;</text>
<text xml:space="preserve" x="530.774" y="52.946" fill="black" font-size="3.9614" font-family="Helvetica"> 460.8 </text>
<text xml:space="preserve" x="447.69" y="57.0187" fill="black" font-size="3.9614" font-family="Helvetica">1st Mean </text>
<text xml:space="preserve" x="542.993" y="57.0187" fill="black" font-size="3.9614" font-family="Helvetica"> 0.80</text>
<text xml:space="preserve" x="540.549" y="57.0187" fill="black" font-size="3.9614" font-family="Times">&#0177;</text>
<text xml:space="preserve" x="530.774" y="57.0187" fill="black" font-size="3.9614" font-family="Helvetica"> 10.37 </text>
<text xml:space="preserve" x="447.69" y="61.0915" fill="black" font-size="3.9614" font-family="Helvetica">1st Sigma </text>
<text xml:space="preserve" x="541.363" y="61.0915" fill="black" font-size="3.9614" font-family="Helvetica"> 0.227</text>
<text xml:space="preserve" x="538.92" y="61.0915" fill="black" font-size="3.9614" font-family="Times">&#0177;</text>
<text xml:space="preserve" x="529.145" y="61.0915" fill="black" font-size="3.9614" font-family="Helvetica"> 6.084 </text>
<text xml:space="preserve" x="447.69" y="65.1643" fill="black" font-size="3.9614" font-family="Helvetica">2nd Const </text>
<text xml:space="preserve" x="534.032" y="65.1643" fill="black" font-size="3.9614" font-family="Helvetica"> 5.070e+02</text>
<text xml:space="preserve" x="531.589" y="65.1643" fill="black" font-size="3.9614" font-family="Times">&#0177;</text>
<text xml:space="preserve" x="515.298" y="65.1643" fill="black" font-size="3.9614" font-family="Helvetica">1.199e+04 </text>
<text xml:space="preserve" x="512.854" y="65.1643" fill="black" font-size="3.9614" font-family="Times">&#8722;</text>
<text xml:space="preserve" x="512.039" y="65.1643" fill="black" font-size="3.9614" font-family="Helvetica"> </text>
<text xml:space="preserve" x="447.69" y="69.237" fill="black" font-size="3.9614" font-family="Helvetica">2nd Mean </text>
<text xml:space="preserve" x="541.363" y="69.237" fill="black" font-size="3.9614" font-family="Helvetica"> 2.119</text>
<text xml:space="preserve" x="538.92" y="69.237" fill="black" font-size="3.9614" font-family="Times">&#0177;</text>
<text xml:space="preserve" x="529.96" y="69.237" fill="black" font-size="3.9614" font-family="Helvetica">6.647 </text>
<text xml:space="preserve" x="527.516" y="69.237" fill="black" font-size="3.9614" font-family="Times">&#8722;</text>
<text xml:space="preserve" x="526.701" y="69.237" fill="black" font-size="3.9614" font-family="Helvetica"> </text>
<text xml:space="preserve" x="447.69" y="73.3098" fill="black" font-size="3.9614" font-family="Helvetica">2nd Sigma </text>
<text xml:space="preserve" x="541.363" y="73.3098" fill="black" font-size="3.9614" font-family="Helvetica"> 0.961</text>
<text xml:space="preserve" x="538.92" y="73.3098" fill="black" font-size="3.9614" font-family="Times">&#0177;</text>
<text xml:space="preserve" x="529.145" y="73.3098" fill="black" font-size="3.9614" font-family="Helvetica"> 8.078 </text>
<text xml:space="preserve" x="447.69" y="77.3826" fill="black" font-size="3.9614" font-family="Helvetica">3rd Const </text>
<text xml:space="preserve" x="541.363" y="77.3826" fill="black" font-size="3.9614" font-family="Helvetica"> 10.25</text>
<text xml:space="preserve" x="538.92" y="77.3826" fill="black" font-size="3.9614" font-family="Times">&#0177;</text>
<text xml:space="preserve" x="529.96" y="77.3826" fill="black" font-size="3.9614" font-family="Helvetica">43.29 </text>
<text xml:space="preserve" x="527.516" y="77.3826" fill="black" font-size="3.9614" font-family="Times">&#8722;</text>
<text xml:space="preserve" x="526.701" y="77.3826" fill="black" font-size="3.9614" font-family="Helvetica"> </text>
<text xml:space="preserve" x="447.69" y="81.4553" fill="black" font-size="3.9614" font-family="Helvetica">3rd Mean </text>
<text xml:space="preserve" x="544.622" y="81.4553" fill="black" font-size="3.9614" font-family="Helvetica"> 0.6</text>
<text xml:space="preserve" x="542.178" y="81.4553" fill="black" font-size="3.9614" font-family="Times">&#0177;</text>
<text xml:space="preserve" x="533.218" y="81.4553" fill="black" font-size="3.9614" font-family="Helvetica">  36.4 </text>
<text xml:space="preserve" x="447.69" y="85.5281" fill="black" font-size="3.9614" font-family="Helvetica">3rd Sigma </text>
<text xml:space="preserve" x="538.92" y="85.5281" fill="black" font-size="3.9614" font-family="Helvetica"> 0.1844</text>
<text xml:space="preserve" x="536.476" y="85.5281" fill="black" font-size="3.9614" font-family="Times">&#0177;</text>
<text xml:space="preserve" x="524.258" y="85.5281" fill="black" font-size="3.9614" font-family="Helvetica"> 0.4019 </text>
<path d="M252.085,308.129l 1.68177, -16.7734l 1.68177, -15.6025l 1.68177, -14.4754l 1.68177, -13.3915l 1.68177, -12.3501l 1.68177, -11.3505l 1.68177, -10.392l 1.68177, -9.47388l 1.68177, -8.5954l 1.68177, -7.75577l 1.68177, -6.95419l 1.68177,
 -6.18984l 1.68177, -5.4619l 1.68177, -4.76953l 1.68177, -4.11186l 1.68177, -3.48803l 1.68177, -2.89717l 1.68177, -2.33839l 1.68177, -1.8108l 1.68177, -1.31351l 1.68177, -0.845618l 1.68177, -0.406227l 1.68177, 0.00556431l 1.68177, 0.390654l 1.68177,
 0.749938l 1.68177, 1.08431l 1.68177, 1.39466l 1.68177, 1.68186l 1.68177, 1.9468l 1.68177, 2.19033l 1.68177, 2.41332l 1.68177, 2.61661l 1.68177, 2.80104l 1.68177, 2.96743l 1.68177, 3.11659l 1.68177, 3.24931l 1.68177, 3.36639l 1.68177, 3.46857l
 1.68177, 3.55663l 1.68177, 3.63128l 1.68177, 3.69324l 1.68177, 3.74323l 1.68177, 3.7819l 1.68177, 3.80994l 1.68177, 3.82798l 1.68177, 3.83666l 1.68177, 3.83657l 1.68177, 3.8283l 1.68177, 3.81242" fill="none" stroke="#0000ff" stroke-width="2"/>
<path d="M334.492,222.183l 1.68177, 3.78949l 1.68177, 3.76003l 1.68177, 3.72455l 1.68177, 3.68353l 1.68177, 3.63746l 1.68177, 3.58678l 1.68177, 3.53193l 1.68177, 3.47331l 1.68177, 3.41133l 1.68177, 3.34635l 1.68177, 3.27875l 1.68177, 3.20885l
 1.68177, 3.13698l 1.68177, 3.06345l 1.68177, 2.98854l 1.68177, 2.91254l 1.68177, 2.83568l 1.68177, 2.75822l 1.68177, 2.68038l 1.68177, 2.60237l 1.68177, 2.52439l 1.68177, 2.44662l 1.68177, 2.36922l 1.68177, 2.29237l 1.68177, 2.21618l 1.68177,
 2.14081l 1.68177, 2.06637l 1.68177, 1.99297l 1.68177, 1.92071l 1.68177, 1.84968l 1.68177, 1.77995l 1.68177, 1.7116l 1.68177, 1.64469l 1.68177, 1.57926l 1.68177, 1.51538l 1.68177, 1.45307l 1.68177, 1.39237l 1.68177, 1.33329l 1.68177, 1.27587l
 1.68177, 1.2201l 1.68177, 1.16601l 1.68177, 1.11359l 1.68177, 1.06284l 1.68177, 1.01375l 1.68177, 0.966312l 1.68177, 0.920516l 1.68177, 0.876343l 1.68177, 0.833771l 1.68177, 0.79278" fill="none" stroke="#0000ff" stroke-width="2"/>
<path d="M416.898,333.064l 1.68177, 0.753342" fill="none" stroke="#0000ff" stroke-width="2"/>
<path d="M59.1334,112.379l 3.88102, -19.8637l 3.88102, -20.8846l 3.88102, -21.8839l 1.91915, -11.3004" fill="none" stroke="#ff0000" stroke-width="2"/>
<path d="M309.948,38.4469l 1.45113, 8.58747" fill="none" stroke="#ff0000" stroke-width="2"/>
<path d="M311.4,47.0344l 3.88102, 22.0028l 3.88102, 21.0067l 3.88102, 19.988l 3.88102, 18.9556l 3.88102, 17.9177l 3.88102, 16.8821l 3.88102, 15.8558l 3.88102, 14.8451l 3.88102, 13.8557l 3.88102, 12.8925l 3.88102, 11.9599l 3.88102, 11.0613l 3.88102,
 10.1998l 3.88102, 9.37754l 3.88102, 8.59629l 3.88102, 7.85718l 3.88102, 7.16087l 3.88102, 6.50752l 3.88102, 5.89692l 3.88102, 5.32845l 3.88102, 4.8012l 3.88102, 4.314l 3.88102, 3.86541l 3.88102, 3.45385l 3.88102, 3.07758l 3.88102, 2.73475l 3.88102,
 2.42346l 3.88102, 2.14173l 3.88102, 1.8876l 3.88102, 1.65912l 3.88102, 1.45436l 3.88102, 1.27144l 3.88102, 1.10854l 3.88102, 0.963922" fill="none" stroke="#ff0000" stroke-width="2"/>
<path d="M59.1334,346.022h 190.17" fill="none" stroke="#ff0000" stroke-width="2"/>
<path d="M249.303,346.022h 81.5014" fill="none" stroke="#ff0000" stroke-width="2"/>
<text xml:space="preserve" x="206.582" y="18.7347" fill="black" font-size="18.0316" font-family="Helvetica">Am_007_calibrated</text></svg>
