<?xml version="1.0" standalone="no"?>
<svg width="567.429" height="384.68" viewBox="0 0 567.429 384.68" xmlns="http://www.w3.org/2000/svg" shape-rendering="crispEdges">
<title>
img/week1/calibrated_hist_low_gain/Am_007.svg
</title>
<desc>
Creator: ROOT Version 6.22/09
CreationDate: Mon Jul 12 17:32:31 2021</desc>
<defs>
</defs>
<rect x="0.5" y="0" width="566.929" height="384.18" fill="white"/>
<rect x="57.1929" y="38.418" width="453.543" height="307.344" fill="white"/>
<rect x="57.1929" y="38.418" width="453.543" height="307.344" fill="none" stroke="black"/>
<path d="M57.1929,345.762h 27.4606v -8.73756h 0.442913v -13.1063h 0.442913v -21.8439h 0.442913v 8.73756h 0.442913v -8.73756h 0.442913v 8.73756h 0.442913v -13.1063h 0.442913v 4.36878h 0.442913v -26.2127h 0.442913v 17.4751h 0.442913v 13.1063h 0.442913v
 -4.36878h 0.442913v -2.18439h 0.442913v 6.55317h 0.442913v -6.55317h 0.442913v -4.36878h 0.442913v 8.73756h 0.442913v 6.55317h 0.442913v 6.55317h 0.442913v -8.73756h 0.442913v -6.55317h 0.442913v -4.36878h 0.442913v 19.6595h 0.442913v -17.4751h
 0.442913v 19.6595h 0.442913v 2.18439h 0.442913v -13.1063h 0.442913v -4.36878h 0.442913v -17.4751h 0.442913v 6.55317h 0.442913v 15.2907h 0.442913v 8.73756h 0.442913v -6.55317h 0.442913v -19.6595h 0.442913v 6.55317h 0.442913v 2.18439h 0.442913v
 13.1063h 0.442913v 4.36878h 0.442913v -6.55317h 0.442913v -13.1063h 0.442913v 2.18439h 0.442913v -6.55317h 0.442913v 17.4751h 0.442913v -10.922h 0.442913v 21.8439h 0.442913v -17.4751h 0.442913v -2.18439h 0.442913v -4.36878h 0.442913v 13.1063h
 0.442913v -26.2127h 0.442913v 19.6595h 0.442913v 15.2907h 0.442913v -8.73756h 0.442913v -28.3971h 0.442913v 28.3971h 0.442913v -4.36878h 0.442913v -10.922h 0.442913v 4.36878h 0.442913v -4.36878h 0.442913v 6.55317h 0.442913v -17.4751h 0.442913v
 -10.922h 0.442913v 21.8439h 0.885827v -2.18439h 0.442913v 4.36878h 0.442913v -21.8439h 0.442913v -2.18439h 0.442913v 26.2127h 0.442913v -4.36878h 0.442913v 4.36878h 0.442913v -19.6595h 0.442913v -6.55317h 0.442913v -34.9503h 0.442913v 19.6595h
 0.442913v 15.2907h 0.442913v 6.55317h 0.442913v 2.18439h 0.442913v -19.6595h 0.442913v -19.6595h 0.442913v 8.73756h 0.442913v 10.922h 0.442913v 4.36878h 0.442913v 10.922h 0.442913v -21.8439h 0.442913v -19.6595h 0.885827v 6.55317h 0.442913v -6.55317h
 0.442913v 28.3971h 0.442913v -8.73756h 0.885827v -10.922h 0.442913v -13.1063h 0.442913v 2.18439h 0.442913v 10.922h 0.442913v -6.55317h 0.442913v -39.319h 0.442913v -6.55317h 0.442913v -10.922h 0.442913v -8.73756h 0.442913v 13.1063h 0.442913v 10.922h
 0.442913v -4.36878h 0.442913v -43.6878h 0.442913v 4.36878h 0.442913v 6.55317h 0.442913v -28.3971h 0.442913v -6.55317h 0.442913v 34.9503h 0.442913v -65.5317h 0.442913v 13.1063h 0.442913v -28.3971h 0.442913v -13.1063h 0.442913v 69.9005h 0.442913v
 -2.18439h 0.442913v -15.2907h 0.442913v -10.922h 0.442913v -2.18439h 0.442913v -41.5034h 0.442913v -10.922h 0.442913v 107.035h 0.442913v -4.36878h 0.442913v -28.3971h 0.442913v -8.73756h 0.442913v 6.55317h 0.442913v 19.6595h 0.442913v 2.18439h
 0.442913v 8.73756h 0.442913v 4.36878h 0.442913v 4.36878h 0.442913v -50.241h 0.442913v 45.8722h 0.442913v -21.8439h 0.442913v 67.7161h 0.442913v -43.6878h 0.442913v 2.18439h 0.442913v -15.2907h 0.442913v 50.241h 0.885827v 28.3971h 0.442913v 2.18439h
 0.442913v -4.36878h 0.442913v -54.6098h 0.442913v 69.9005h 0.442913v -43.6878h 0.442913v 15.2907h 0.442913v 24.0283h 0.442913v -13.1063h 0.442913v -15.2907h 0.442913v 28.3971h 0.442913v -8.73756h 0.442913v -39.319h 0.442913v 76.4537h 0.442913v
 -10.922h 0.442913v -32.7659h 0.442913v -4.36878h 0.442913v 4.36878h 0.442913v 15.2907h 0.442913v -13.1063h 0.442913v 39.319h 0.442913v -24.0283h 0.442913v 10.922h 0.442913v -17.4751h 0.442913v 21.8439h 0.442913v -45.8722h 0.442913v 67.7161h
 0.442913v -2.18439h 0.442913v -43.6878h 0.442913v 34.9503h 0.442913v 6.55317h 0.442913v -6.55317h 0.442913v 8.73756h 0.442913v 15.2907h 0.885827v -26.2127h 0.442913v 24.0283h 0.442913v -10.922h 0.442913v -10.922h 0.442913v 43.6878h 0.442913v 10.922h
 0.442913v -15.2907h 0.442913v -8.73756h 0.442913v 13.1063h 0.442913v -13.1063h 0.442913v 13.1063h 0.885827v 10.922h 0.442913v -17.4751h 0.442913v 21.8439h 0.442913v -8.73756h 0.442913v 15.2907h 0.442913v -2.18439h 0.442913v -15.2907h 0.885827v
 -8.73756h 0.442913v -2.18439h 0.442913v -4.36878h 0.442913v 15.2907h 0.885827v -6.55317h 0.442913v 2.18439h 0.885827v -8.73756h 0.442913v 8.73756h 0.442913v 19.6595h 0.442913v -8.73756h 0.442913v -28.3971h 0.442913v 4.36878h 0.442913v 13.1063h
 0.885827v -8.73756h 0.442913v 13.1063h 0.442913v -6.55317h 0.442913v -10.922h 0.442913v 8.73756h 0.442913v 2.18439h 0.442913v 13.1063h 1.32874v -13.1063h 0.442913v 4.36878h 0.442913v 8.73756h 0.442913v -24.0283h 0.442913v 26.2127h 0.442913v 2.18439h
 0.442913v -4.36878h 0.442913v 4.36878h 0.442913v -8.73756h 0.442913v 10.922h 0.442913v -2.18439h 0.442913v 13.1063h 0.442913v -4.36878h 0.885827v -4.36878h 0.442913v 4.36878h 0.442913v 8.73756h 0.442913v -8.73756h 0.442913v 4.36878h 0.885827v
 -6.55317h 0.442913v 2.18439h 0.442913v -2.18439h 0.442913v 10.922h 1.32874v -2.18439h 0.442913v 2.18439h 0.442913v -2.18439h 0.442913v 2.18439h 0.442913v 4.36878h 0.442913v -6.55317h 0.442913v 4.36878h 0.442913v 2.18439h 0.442913v -4.36878h
 0.442913v -2.18439h 0.442913v -4.36878h 0.442913v 6.55317h 0.885827v -4.36878h 0.442913v 8.73756h 0.442913v -4.36878h 0.442913v 2.18439h 0.885827v -4.36878h 1.32874v 2.18439h 0.442913v -2.18439h 0.442913v 4.36878h 0.885827v -2.18439h 0.442913v
 2.18439h 1.77165v -2.18439h 0.442913v 2.18439h 0.442913v -2.18439h 0.442913v 2.18439h 0.442913v -2.18439h 0.442913v 2.18439h 0.442913v -2.18439h 0.442913v 4.36878h 0.442913v -2.18439h 0.442913v -4.36878h 0.885827v 2.18439h 0.885827v 4.36878h
 0.885827v -6.55317h 0.885827v -4.36878h 0.442913v 2.18439h 0.442913v 6.55317h 0.442913v 2.18439h 2.21457v -2.18439h 0.442913v 2.18439h 0.885827v -6.55317h 0.442913v -2.18439h 0.442913v 8.73756h 0.442913v -2.18439h 0.442913v -2.18439h 0.442913v
 2.18439h 0.442913v 2.18439h 0.442913v -2.18439h 0.442913v 2.18439h 0.442913v -2.18439h 0.442913v 2.18439h 0.442913v -2.18439h 0.442913v 2.18439h 0.442913v -2.18439h 0.885827v 2.18439h 1.32874v -2.18439h 0.885827v 2.18439h 0.442913v -4.36878h
 0.442913v 2.18439h 0.442913v 2.18439h 0.442913v -2.18439h 0.442913v 2.18439h 0.442913v -4.36878h 1.32874v 2.18439h 0.885827v -4.36878h 0.442913v 2.18439h 0.442913v 4.36878h 0.442913v -6.55317h 0.442913v 6.55317h 0.442913v -4.36878h 0.442913v
 4.36878h 0.442913v -2.18439h 0.442913v 2.18439h 1.32874v -4.36878h 0.442913v 2.18439h 0.442913v -4.36878h 0.442913v 2.18439h 0.442913v 4.36878h 0.885827v -2.18439h 0.442913v 2.18439h 0.442913v -2.18439h 0.885827v -2.18439h 0.442913v -2.18439h
 0.442913v 4.36878h 0.442913v 2.18439h 1.77165v -4.36878h 0.885827v 2.18439h 0.442913v 2.18439h 0.442913v -2.18439h 0.442913v -2.18439h 0.442913v 2.18439h 0.885827v -2.18439h 0.885827v -2.18439h 0.442913v 4.36878h 0.442913v -2.18439h 0.442913v
 2.18439h 1.32874v -4.36878h 0.442913v 2.18439h 0.442913v -4.36878h 0.442913v 6.55317h 0.885827v -4.36878h 0.442913v 4.36878h 0.442913v 2.18439h 0.442913v -2.18439h 0.442913v 2.18439h 0.885827v -4.36878h 0.885827v 4.36878h 1.32874v -4.36878h
 0.442913v 4.36878h 0.442913v -4.36878h 1.32874v -4.36878h 0.442913v 6.55317h 0.442913v -4.36878h 0.442913v 2.18439h 0.442913v -4.36878h 0.442913v 6.55317h 1.32874v -2.18439h 0.442913v -2.18439h 0.442913v 2.18439h 0.442913v 2.18439h 0.885827v
 -2.18439h 0.885827v 2.18439h 0.442913v -2.18439h 1.32874v 2.18439h 0.442913v 2.18439h 0.442913v -4.36878h 0.442913v 2.18439h 0.442913v -2.18439h 0.442913v 2.18439h 0.885827v 2.18439h 0.442913v -2.18439h 0.442913v -2.18439h 0.442913v 4.36878h
 0.442913v -4.36878h 0.442913v -4.36878h 0.442913v 6.55317h 0.442913v -4.36878h 0.442913v -2.18439h 0.442913v -8.73756h 0.442913v 13.1063h 0.442913v -2.18439h 0.442913v 2.18439h 1.32874v -6.55317h 0.442913v 2.18439h 0.442913v 4.36878h 0.442913v
 -6.55317h 0.442913v 2.18439h 0.442913v -2.18439h 0.442913v 6.55317h 0.442913v -4.36878h 0.442913v 2.18439h 0.442913v -2.18439h 0.442913v 2.18439h 0.442913v -4.36878h 0.442913v -10.922h 0.442913v 13.1063h 0.442913v -2.18439h 0.442913v -2.18439h
 0.885827v -6.55317h 0.442913v -2.18439h 0.442913v 10.922h 0.442913v -6.55317h 0.442913v 6.55317h 0.442913v 6.55317h 0.442913v -2.18439h 0.442913v -8.73756h 0.442913v 6.55317h 0.442913v -4.36878h 0.442913v -2.18439h 0.442913v 10.922h 0.442913v
 -13.1063h 0.442913v 4.36878h 0.442913v -6.55317h 0.442913v 15.2907h 0.442913v -2.18439h 0.442913v -8.73756h 0.442913v 10.922h 0.442913v 2.18439h 0.442913v -15.2907h 0.442913v 4.36878h 0.442913v 6.55317h 0.442913v 4.36878h 0.442913v -8.73756h
 0.442913v -4.36878h 0.442913v 6.55317h 0.442913v -8.73756h 0.442913v 10.922h 0.442913v -8.73756h 0.442913v 6.55317h 0.442913v -8.73756h 0.442913v 10.922h 0.442913v 2.18439h 0.885827v -6.55317h 0.442913v -2.18439h 0.442913v -2.18439h 0.442913v
 13.1063h 0.442913v -13.1063h 0.442913v 4.36878h 0.885827v -4.36878h 0.442913v -2.18439h 0.442913v 8.73756h 0.442913v 4.36878h 1.32874v -2.18439h 0.442913v 2.18439h 0.442913v 2.18439h 0.442913v -2.18439h 0.442913v -6.55317h 0.442913v 6.55317h
 0.442913v -2.18439h 0.442913v 4.36878h 0.442913v -4.36878h 0.885827v -4.36878h 0.885827v 6.55317h 0.442913v -2.18439h 0.442913v 2.18439h 0.885827v -2.18439h 0.442913v 4.36878h 0.442913v -13.1063h 0.442913v 4.36878h 0.442913v 6.55317h 0.442913v
 -2.18439h 0.442913v 2.18439h 0.442913v -8.73756h 0.885827v 6.55317h 0.442913v 4.36878h 0.442913v -8.73756h 0.442913v -4.36878h 0.442913v 8.73756h 0.442913v -2.18439h 0.442913v 4.36878h 0.442913v -13.1063h 0.885827v 10.922h 0.442913v -10.922h
 0.442913v 15.2907h 0.442913v -24.0283h 0.442913v 4.36878h 0.442913v 6.55317h 0.442913v -10.922h 0.442913v -4.36878h 0.442913v 10.922h 0.442913v -2.18439h 0.885827v -4.36878h 0.442913v -2.18439h 0.442913v -4.36878h 0.442913v 8.73756h 0.442913v
 -13.1063h 0.442913v -17.4751h 0.442913v 6.55317h 0.442913v 17.4751h 0.442913v -17.4751h 0.442913v 6.55317h 0.442913v -17.4751h 0.442913v -15.2907h 0.442913v 24.0283h 0.442913v -19.6595h 0.442913v 32.7659h 0.442913v -15.2907h 0.442913v -21.8439h
 0.442913v 2.18439h 0.442913v 10.922h 0.442913v 2.18439h 0.442913v -17.4751h 0.442913v 15.2907h 0.442913v 10.922h 0.442913v -21.8439h 0.442913v 4.36878h 0.442913v 6.55317h 0.442913v 13.1063h 0.442913v 4.36878h 0.442913v 6.55317h 0.442913v -24.0283h
 0.442913v -8.73756h 0.442913v 15.2907h 0.442913v 15.2907h 0.442913v -2.18439h 0.442913v -8.73756h 0.442913v 8.73756h 0.442913v 26.2127h 0.442913v -24.0283h 0.442913v 17.4751h 0.442913v -13.1063h 0.442913v 10.922h 0.442913v -13.1063h 0.442913v
 15.2907h 0.442913v 4.36878h 0.442913v 8.73756h 0.442913v -8.73756h 0.442913v 4.36878h 0.442913v 4.36878h 0.442913v 4.36878h 0.442913v -4.36878h 0.442913v -4.36878h 0.442913v 8.73756h 0.442913v -4.36878h 0.442913v 8.73756h 0.442913v -4.36878h
 0.885827v -8.73756h 0.442913v 6.55317h 0.442913v 6.55317h 0.885827v -4.36878h 0.442913v 2.18439h 0.442913v 2.18439h 0.442913v -2.18439h 0.442913v 2.18439h 0.442913v -2.18439h 0.442913v 2.18439h 0.442913v -2.18439h 0.442913v 2.18439h 1.77165v
 -2.18439h 0.885827v 2.18439h 1.32874v -2.18439h 0.885827v 2.18439h 0.885827v -2.18439h 0.442913v 2.18439h 0.885827v -4.36878h 0.442913v 4.36878h 3.54331v -2.18439h 0.442913v 2.18439h 3.54331v -2.18439h 0.442913v 2.18439h 0.885827v -2.18439h
 0.442913v 2.18439h 0.885827v -2.18439h 0.885827v 2.18439h 5.31496v -2.18439h 1.32874v 2.18439h 0.885827v -2.18439h 0.442913v 2.18439h 1.77165v -2.18439h 0.442913v 2.18439h 6.6437v -2.18439h 0.442913v 2.18439h 0.442913v -2.18439h 0.442913v 2.18439h
 4.42913v -2.18439h 0.442913v 2.18439h 0.442913v -2.18439h 0.442913v 2.18439h 3.98622v -2.18439h 0.442913v 2.18439h 2.21457v -4.36878h 0.442913v 4.36878h 1.32874v -2.18439h 0.885827v 2.18439h 6.20079v -2.18439h 0.442913v 2.18439h 2.65748v -2.18439h
 0.442913v 2.18439h 5.31496v -2.18439h 0.442913v 2.18439h 0.442913v -2.18439h 0.442913v 2.18439h 2.21457v -2.18439h 0.442913v 2.18439h 2.21457v -2.18439h 0.442913v 2.18439h 0.885827v -2.18439h 0.442913v 2.18439h 22.5886v -2.18439h 0.442913v 2.18439h
 5.75787v -2.18439h 0.442913v 2.18439h 7.52953v -2.18439h 0.885827v -2.18439h 0.442913v 4.36878h 1.32874v -2.18439h 0.442913v 2.18439h 0.442913v -2.18439h 0.442913v 2.18439h 36.3189" fill="none" stroke="#000099"/>
<path d="M57.1929,345.762h 453.543" fill="none" stroke="black"/>
<path d="M57.1929,336.541v 9.22031" fill="none" stroke="black"/>
<path d="M66.2638,341.152v 4.61016" fill="none" stroke="black"/>
<path d="M75.3346,341.152v 4.61016" fill="none" stroke="black"/>
<path d="M84.4055,341.152v 4.61016" fill="none" stroke="black"/>
<path d="M93.4764,341.152v 4.61016" fill="none" stroke="black"/>
<path d="M102.547,336.541v 9.22031" fill="none" stroke="black"/>
<path d="M111.618,341.152v 4.61016" fill="none" stroke="black"/>
<path d="M120.689,341.152v 4.61016" fill="none" stroke="black"/>
<path d="M129.76,341.152v 4.61016" fill="none" stroke="black"/>
<path d="M138.831,341.152v 4.61016" fill="none" stroke="black"/>
<path d="M147.902,336.541v 9.22031" fill="none" stroke="black"/>
<path d="M156.972,341.152v 4.61016" fill="none" stroke="black"/>
<path d="M166.043,341.152v 4.61016" fill="none" stroke="black"/>
<path d="M175.114,341.152v 4.61016" fill="none" stroke="black"/>
<path d="M184.185,341.152v 4.61016" fill="none" stroke="black"/>
<path d="M193.256,336.541v 9.22031" fill="none" stroke="black"/>
<path d="M202.327,341.152v 4.61016" fill="none" stroke="black"/>
<path d="M211.398,341.152v 4.61016" fill="none" stroke="black"/>
<path d="M220.469,341.152v 4.61016" fill="none" stroke="black"/>
<path d="M229.539,341.152v 4.61016" fill="none" stroke="black"/>
<path d="M238.61,336.541v 9.22031" fill="none" stroke="black"/>
<path d="M247.681,341.152v 4.61016" fill="none" stroke="black"/>
<path d="M256.752,341.152v 4.61016" fill="none" stroke="black"/>
<path d="M265.823,341.152v 4.61016" fill="none" stroke="black"/>
<path d="M274.894,341.152v 4.61016" fill="none" stroke="black"/>
<path d="M283.965,336.541v 9.22031" fill="none" stroke="black"/>
<path d="M293.035,341.152v 4.61016" fill="none" stroke="black"/>
<path d="M302.106,341.152v 4.61016" fill="none" stroke="black"/>
<path d="M311.177,341.152v 4.61016" fill="none" stroke="black"/>
<path d="M320.248,341.152v 4.61016" fill="none" stroke="black"/>
<path d="M329.319,336.541v 9.22031" fill="none" stroke="black"/>
<path d="M338.39,341.152v 4.61016" fill="none" stroke="black"/>
<path d="M347.461,341.152v 4.61016" fill="none" stroke="black"/>
<path d="M356.531,341.152v 4.61016" fill="none" stroke="black"/>
<path d="M365.602,341.152v 4.61016" fill="none" stroke="black"/>
<path d="M374.673,336.541v 9.22031" fill="none" stroke="black"/>
<path d="M383.744,341.152v 4.61016" fill="none" stroke="black"/>
<path d="M392.815,341.152v 4.61016" fill="none" stroke="black"/>
<path d="M401.886,341.152v 4.61016" fill="none" stroke="black"/>
<path d="M410.957,341.152v 4.61016" fill="none" stroke="black"/>
<path d="M420.028,336.541v 9.22031" fill="none" stroke="black"/>
<path d="M429.098,341.152v 4.61016" fill="none" stroke="black"/>
<path d="M438.169,341.152v 4.61016" fill="none" stroke="black"/>
<path d="M447.24,341.152v 4.61016" fill="none" stroke="black"/>
<path d="M456.311,341.152v 4.61016" fill="none" stroke="black"/>
<path d="M465.382,336.541v 9.22031" fill="none" stroke="black"/>
<path d="M474.453,341.152v 4.61016" fill="none" stroke="black"/>
<path d="M483.524,341.152v 4.61016" fill="none" stroke="black"/>
<path d="M492.594,341.152v 4.61016" fill="none" stroke="black"/>
<path d="M501.665,341.152v 4.61016" fill="none" stroke="black"/>
<path d="M510.736,336.541v 9.22031" fill="none" stroke="black"/>
<text xml:space="preserve" x="53.2943" y="358.189" fill="black" font-size="12.836" font-family="Helvetica">0</text>
<text xml:space="preserve" x="95.5297" y="358.189" fill="black" font-size="12.836" font-family="Helvetica">10</text>
<text xml:space="preserve" x="141.014" y="358.189" fill="black" font-size="12.836" font-family="Helvetica">20</text>
<text xml:space="preserve" x="186.498" y="358.189" fill="black" font-size="12.836" font-family="Helvetica">30</text>
<text xml:space="preserve" x="231.983" y="358.189" fill="black" font-size="12.836" font-family="Helvetica">40</text>
<text xml:space="preserve" x="277.467" y="358.189" fill="black" font-size="12.836" font-family="Helvetica">50</text>
<text xml:space="preserve" x="322.139" y="358.189" fill="black" font-size="12.836" font-family="Helvetica">60</text>
<text xml:space="preserve" x="367.623" y="358.189" fill="black" font-size="12.836" font-family="Helvetica">70</text>
<text xml:space="preserve" x="413.107" y="358.189" fill="black" font-size="12.836" font-family="Helvetica">80</text>
<text xml:space="preserve" x="458.592" y="358.189" fill="black" font-size="12.836" font-family="Helvetica">90</text>
<text xml:space="preserve" x="500.015" y="358.189" fill="black" font-size="12.836" font-family="Helvetica">100</text>
<text xml:space="preserve" x="441.535" y="370.372" fill="black" font-size="12.836" font-family="Helvetica">Energy [keV]</text>
<path d="M57.1929,345.762v -307.344" fill="none" stroke="black"/>
<path d="M70.7992,345.762h -13.6063" fill="none" stroke="black"/>
<path d="M63.9961,334.84h -6.80315" fill="none" stroke="black"/>
<path d="M63.9961,323.918h -6.80315" fill="none" stroke="black"/>
<path d="M63.9961,312.996h -6.80315" fill="none" stroke="black"/>
<path d="M70.7992,302.074h -13.6063" fill="none" stroke="black"/>
<path d="M63.9961,291.152h -6.80315" fill="none" stroke="black"/>
<path d="M63.9961,280.23h -6.80315" fill="none" stroke="black"/>
<path d="M63.9961,269.308h -6.80315" fill="none" stroke="black"/>
<path d="M70.7992,258.386h -13.6063" fill="none" stroke="black"/>
<path d="M63.9961,247.464h -6.80315" fill="none" stroke="black"/>
<path d="M63.9961,236.542h -6.80315" fill="none" stroke="black"/>
<path d="M63.9961,225.62h -6.80315" fill="none" stroke="black"/>
<path d="M70.7992,214.698h -13.6063" fill="none" stroke="black"/>
<path d="M63.9961,203.776h -6.80315" fill="none" stroke="black"/>
<path d="M63.9961,192.854h -6.80315" fill="none" stroke="black"/>
<path d="M63.9961,181.932h -6.80315" fill="none" stroke="black"/>
<path d="M70.7992,171.011h -13.6063" fill="none" stroke="black"/>
<path d="M63.9961,160.089h -6.80315" fill="none" stroke="black"/>
<path d="M63.9961,149.167h -6.80315" fill="none" stroke="black"/>
<path d="M63.9961,138.245h -6.80315" fill="none" stroke="black"/>
<path d="M70.7992,127.323h -13.6063" fill="none" stroke="black"/>
<path d="M63.9961,116.401h -6.80315" fill="none" stroke="black"/>
<path d="M63.9961,105.479h -6.80315" fill="none" stroke="black"/>
<path d="M63.9961,94.5568h -6.80315" fill="none" stroke="black"/>
<path d="M70.7992,83.6349h -13.6063" fill="none" stroke="black"/>
<path d="M63.9961,72.7129h -6.80315" fill="none" stroke="black"/>
<path d="M63.9961,61.791h -6.80315" fill="none" stroke="black"/>
<path d="M63.9961,50.869h -6.80315" fill="none" stroke="black"/>
<path d="M70.7992,39.9471h -13.6063" fill="none" stroke="black"/>
<path d="M70.7992,39.9471h -13.6063" fill="none" stroke="black"/>
<text xml:space="preserve" x="47.6087" y="350.067" fill="black" font-size="12.836" font-family="Helvetica">0</text>
<text xml:space="preserve" x="41.111" y="306.207" fill="black" font-size="12.836" font-family="Helvetica">20</text>
<text xml:space="preserve" x="41.111" y="263.159" fill="black" font-size="12.836" font-family="Helvetica">40</text>
<text xml:space="preserve" x="41.111" y="219.299" fill="black" font-size="12.836" font-family="Helvetica">60</text>
<text xml:space="preserve" x="41.111" y="175.439" fill="black" font-size="12.836" font-family="Helvetica">80</text>
<text xml:space="preserve" x="33.801" y="131.58" fill="black" font-size="12.836" font-family="Helvetica">100</text>
<text xml:space="preserve" x="33.801" y="87.7197" fill="black" font-size="12.836" font-family="Helvetica">120</text>
<text xml:space="preserve" x="33.801" y="44.6721" fill="black" font-size="12.836" font-family="Helvetica">140</text>
<g transform="rotate(-90,20.8055,69.8509)">
<text xml:space="preserve" x="20.8055" y="69.8509" fill="black" font-size="12.836" font-family="Helvetica">Event</text>
</g>
<text xml:space="preserve" x="206.804" y="18.681" fill="black" font-size="17.9813" font-family="Helvetica">Am_007_calibrated</text>
<rect x="442.705" y="24.9717" width="113.386" height="61.4688" fill="white"/>
<path d="M442.705,86.4405h 113.386" fill="none" stroke="black"/>
<path d="M556.091,86.4405v -61.4688" fill="none" stroke="black"/>
<path d="M556.091,24.9717h -113.386" fill="none" stroke="black"/>
<path d="M442.705,24.9717v 61.4688" fill="none" stroke="black"/>
<text xml:space="preserve" x="446.408" y="36.5499" fill="black" font-size="12.1772" font-family="Helvetica">Am_007_calibrated</text>
<path d="M442.705,40.3389h 113.386" fill="none" stroke="black"/>
<text xml:space="preserve" x="448.033" y="52.7943" fill="black" font-size="12.7411" font-family="Helvetica">Entries </text>
<text xml:space="preserve" x="513.01" y="52.7943" fill="black" font-size="12.7411" font-family="Helvetica"> 11066</text>
<text xml:space="preserve" x="448.033" y="68.2264" fill="black" font-size="12.7411" font-family="Helvetica">Mean  </text>
<text xml:space="preserve" x="513.01" y="68.2264" fill="black" font-size="12.7411" font-family="Helvetica">  24.25</text>
<text xml:space="preserve" x="448.033" y="82.8464" fill="black" font-size="12.7411" font-family="Helvetica">Std Dev   </text>
<text xml:space="preserve" x="513.01" y="82.8464" fill="black" font-size="12.7411" font-family="Helvetica">  15.77</text>
<text xml:space="preserve" x="206.804" y="18.681" fill="black" font-size="17.9813" font-family="Helvetica">Am_007_calibrated</text></svg>
