<?xml version="1.0" standalone="no"?>
<svg width="567.429" height="384.68" viewBox="0 0 567.429 384.68" xmlns="http://www.w3.org/2000/svg" shape-rendering="crispEdges">
<title>
img/week1/calibrated_hist_low_gain/Am_007.svg
</title>
<desc>
Creator: ROOT Version 6.22/09
CreationDate: Tue Jul 13 18:39:51 2021</desc>
<defs>
</defs>
<rect x="0.5" y="0" width="566.929" height="384.18" fill="white"/>
<rect x="57.1929" y="38.418" width="453.543" height="307.344" fill="white"/>
<rect x="57.1929" y="38.418" width="453.543" height="307.344" fill="none" stroke="black"/>
<path d="M57.1929,345.762h 34.1043v -2.07595h 0.442913v -14.5316h 0.442913v -26.9873h 0.442913v 10.3797h 0.442913v -8.30378h 0.442913v 6.22784h 0.442913v -14.5316h 0.442913v 6.22784h 0.442913v -24.9114h 0.442913v 18.6835h 0.442913v -2.07595h
 0.442913v 10.3797h 0.442913v -4.15189h 0.442913v 10.3797h 0.442913v -20.7595h 0.442913v 16.6076h 0.442913v -2.07595h 0.442913v 12.4557h 0.442913v -2.07595h 0.442913v -14.5316h 0.442913v -6.22784h 0.442913v 22.8354h 0.442913v -16.6076h 0.442913v
 20.7595h 0.442913v 2.07595h 0.442913v -14.5316h 0.442913v -14.5316h 0.442913v -8.30378h 0.442913v 16.6076h 0.442913v 6.22784h 0.442913v 8.30378h 0.442913v -22.8354h 0.442913v 4.15189h 0.885827v 14.5316h 0.885827v -2.07595h 0.442913v -12.4557h
 0.885827v -2.07595h 0.442913v 4.15189h 0.442913v 12.4557h 0.442913v -4.15189h 0.885827v -6.22784h 0.442913v -8.30378h 0.442913v -4.15189h 0.442913v 22.8354h 0.442913v 2.07595h 0.442913v -2.07595h 0.442913v -33.2151h 0.442913v 31.1392h 0.442913v
 -12.4557h 0.442913v 2.07595h 0.442913v -4.15189h 0.442913v 6.22784h 0.442913v -4.15189h 0.442913v -33.2151h 0.442913v 26.9873h 0.442913v 4.15189h 0.885827v -2.07595h 0.442913v -14.5316h 0.442913v -8.30378h 0.442913v 26.9873h 0.442913v -4.15189h
 0.442913v 4.15189h 0.442913v -14.5316h 0.442913v -35.2911h 0.442913v 6.22784h 0.442913v 2.07595h 0.442913v 22.8354h 0.442913v 6.22784h 0.442913v -18.6835h 0.442913v -26.9873h 0.442913v 20.7595h 0.442913v -16.6076h 0.442913v 22.8354h 0.442913v
 14.5316h 0.442913v -31.1392h 0.442913v -10.3797h 0.442913v -8.30378h 0.442913v 2.07595h 0.442913v 20.7595h 0.442913v 14.5316h 0.442913v -33.2151h 0.442913v 26.9873h 0.442913v -39.443h 0.442913v 12.4557h 0.442913v 6.22784h 0.442913v 2.07595h
 0.442913v -47.7468h 0.442913v -4.15189h 0.442913v -18.6835h 0.442913v 6.22784h 0.442913v 2.07595h 0.442913v 20.7595h 0.442913v -43.5949h 0.885827v -2.07595h 0.442913v -24.9114h 0.442913v -10.3797h 0.442913v 41.5189h 0.442913v -64.3543h 0.885827v
 -29.0632h 0.442913v 4.15189h 0.442913v 53.9746h 0.885827v -8.30378h 0.442913v -18.6835h 0.442913v -14.5316h 0.442913v -33.2151h 0.442913v 49.8227h 0.442913v 53.9746h 0.442913v -33.2151h 0.442913v 2.07595h 0.442913v -14.5316h 0.442913v 24.9114h
 0.442913v 6.22784h 0.442913v 14.5316h 0.442913v 4.15189h 0.442913v -20.7595h 0.442913v -20.7595h 0.442913v 45.6708h 0.442913v -20.7595h 0.442913v 43.5949h 0.442913v -33.2151h 0.442913v 8.30378h 0.442913v 26.9873h 0.442913v -20.7595h 0.442913v
 60.2024h 0.442913v 2.07595h 0.442913v -6.22784h 0.442913v -56.0505h 0.442913v 70.5822h 0.442913v -49.8227h 0.442913v 24.9114h 0.442913v 18.6835h 0.442913v -12.4557h 0.442913v -10.3797h 0.442913v 16.6076h 0.442913v -8.30378h 0.442913v -2.07595h
 0.442913v 58.1265h 0.442913v -45.6708h 0.442913v -33.2151h 0.442913v 24.9114h 0.442913v 10.3797h 0.442913v -6.22784h 0.442913v 37.367h 0.442913v -37.367h 0.442913v 29.0632h 0.442913v -14.5316h 0.442913v -10.3797h 0.442913v 6.22784h 0.442913v
 43.5949h 0.442913v -33.2151h 0.442913v -4.15189h 0.442913v 31.1392h 0.442913v -12.4557h 0.442913v 18.6835h 0.885827v 10.3797h 0.442913v -26.9873h 0.442913v 16.6076h 0.442913v 2.07595h 0.442913v -12.4557h 0.442913v 43.5949h 0.442913v 6.22784h
 0.442913v -24.9114h 0.442913v 4.15189h 0.442913v 6.22784h 1.32874v 14.5316h 0.442913v -14.5316h 0.442913v 18.6835h 0.442913v -6.22784h 0.442913v 10.3797h 0.442913v 2.07595h 0.442913v -12.4557h 0.442913v -12.4557h 0.442913v -2.07595h 0.442913v
 2.07595h 0.442913v -10.3797h 0.442913v 22.8354h 0.442913v -4.15189h 0.442913v -6.22784h 0.442913v -6.22784h 0.442913v 2.07595h 0.442913v 8.30378h 0.442913v 18.6835h 0.442913v -14.5316h 0.442913v -18.6835h 0.885827v 6.22784h 0.442913v 8.30378h
 0.442913v -8.30378h 0.442913v 8.30378h 0.442913v -10.3797h 0.885827v 14.5316h 0.442913v -10.3797h 0.442913v 20.7595h 0.442913v -12.4557h 0.442913v -6.22784h 0.442913v 8.30378h 0.442913v 4.15189h 0.442913v -24.9114h 0.442913v 29.0632h 0.442913v
 -2.07595h 0.442913v 4.15189h 0.442913v -6.22784h 0.442913v -2.07595h 0.442913v 8.30378h 0.442913v 10.3797h 0.442913v -6.22784h 0.442913v 8.30378h 0.442913v -10.3797h 0.442913v 4.15189h 0.442913v 10.3797h 0.442913v -8.30378h 0.442913v 2.07595h
 0.885827v -2.07595h 0.442913v -10.3797h 0.442913v 16.6076h 0.442913v 4.15189h 0.442913v -2.07595h 0.442913v -4.15189h 0.442913v 4.15189h 0.442913v -2.07595h 0.442913v 2.07595h 0.442913v 4.15189h 0.442913v -6.22784h 0.442913v 4.15189h 0.442913v
 2.07595h 0.442913v -4.15189h 0.442913v -4.15189h 0.442913v -2.07595h 0.442913v 6.22784h 0.442913v -4.15189h 0.442913v 6.22784h 0.885827v -2.07595h 0.442913v 2.07595h 0.442913v -4.15189h 1.32874v 2.07595h 0.442913v -2.07595h 0.442913v 4.15189h
 0.885827v -4.15189h 0.442913v 4.15189h 0.442913v 2.07595h 0.442913v -4.15189h 0.442913v 2.07595h 0.442913v -2.07595h 0.442913v 4.15189h 0.442913v -6.22784h 0.442913v 2.07595h 0.885827v 2.07595h 0.442913v 2.07595h 0.442913v -2.07595h 0.442913v
 -6.22784h 0.442913v 2.07595h 0.885827v 6.22784h 0.885827v -6.22784h 0.442913v 2.07595h 0.442913v -6.22784h 0.885827v 8.30378h 0.442913v 2.07595h 2.21457v -2.07595h 0.442913v 2.07595h 0.442913v -2.07595h 0.442913v -8.30378h 0.442913v 8.30378h
 0.885827v -2.07595h 0.442913v 2.07595h 0.442913v 2.07595h 0.442913v -2.07595h 0.442913v 2.07595h 0.442913v -2.07595h 0.885827v 2.07595h 0.885827v -2.07595h 0.885827v 2.07595h 0.885827v -2.07595h 0.885827v 2.07595h 0.442913v -4.15189h 0.442913v
 2.07595h 0.442913v 2.07595h 0.442913v -2.07595h 0.442913v 2.07595h 0.442913v -6.22784h 0.442913v 2.07595h 0.885827v 4.15189h 0.442913v -6.22784h 0.442913v 2.07595h 0.442913v 2.07595h 0.442913v -4.15189h 0.442913v 6.22784h 0.442913v -4.15189h
 0.442913v 4.15189h 0.442913v -2.07595h 0.442913v 2.07595h 0.885827v -2.07595h 0.442913v -2.07595h 0.885827v -2.07595h 0.442913v 6.22784h 0.885827v -2.07595h 0.442913v 2.07595h 0.442913v -2.07595h 0.885827v -2.07595h 0.442913v -2.07595h 0.442913v
 4.15189h 0.442913v 2.07595h 1.32874v -4.15189h 0.442913v 4.15189h 0.442913v -4.15189h 0.442913v 2.07595h 0.885827v -2.07595h 0.442913v 4.15189h 0.442913v -4.15189h 1.32874v -2.07595h 0.442913v 2.07595h 0.442913v 2.07595h 0.885827v -2.07595h
 0.442913v -2.07595h 0.442913v 4.15189h 0.442913v -2.07595h 0.442913v -4.15189h 0.442913v 6.22784h 0.442913v -4.15189h 0.442913v 4.15189h 0.442913v 2.07595h 0.442913v -2.07595h 0.442913v 2.07595h 0.442913v -2.07595h 0.442913v -2.07595h 0.442913v
 2.07595h 0.442913v 2.07595h 0.885827v -4.15189h 0.442913v 4.15189h 0.442913v -4.15189h 0.442913v 2.07595h 0.442913v -4.15189h 0.442913v -2.07595h 0.442913v 6.22784h 0.442913v -4.15189h 0.442913v 2.07595h 0.442913v -4.15189h 0.442913v 6.22784h
 0.885827v -2.07595h 0.885827v -2.07595h 0.442913v 4.15189h 0.442913v -2.07595h 0.442913v 2.07595h 0.442913v -4.15189h 0.442913v 4.15189h 0.442913v -2.07595h 1.32874v 2.07595h 0.442913v 2.07595h 0.442913v -4.15189h 0.885827v 2.07595h 0.442913v
 -2.07595h 0.442913v 4.15189h 0.442913v -2.07595h 0.442913v -2.07595h 0.442913v 4.15189h 0.442913v -4.15189h 0.442913v -4.15189h 0.442913v 6.22784h 0.442913v -4.15189h 0.442913v -2.07595h 0.442913v -10.3797h 0.442913v 16.6076h 0.442913v -4.15189h
 0.885827v 2.07595h 0.442913v -8.30378h 0.442913v 10.3797h 0.442913v -6.22784h 0.442913v -2.07595h 1.32874v 4.15189h 0.885827v -4.15189h 0.442913v 6.22784h 0.442913v -6.22784h 0.442913v 2.07595h 0.442913v -18.6835h 0.442913v 18.6835h 0.442913v
 -2.07595h 0.885827v -10.3797h 0.442913v 2.07595h 0.442913v 8.30378h 0.442913v -10.3797h 0.442913v 8.30378h 0.442913v 8.30378h 0.442913v -4.15189h 0.442913v -8.30378h 0.442913v 8.30378h 0.442913v -10.3797h 0.442913v 12.4557h 0.442913v -6.22784h
 0.442913v -4.15189h 0.442913v 4.15189h 0.885827v 8.30378h 0.442913v -10.3797h 0.442913v 8.30378h 0.442913v 4.15189h 0.442913v -14.5316h 0.442913v 4.15189h 0.442913v 6.22784h 0.442913v 2.07595h 0.442913v -10.3797h 0.442913v 2.07595h 0.442913v
 2.07595h 0.442913v -4.15189h 0.885827v 10.3797h 0.442913v -14.5316h 0.442913v 10.3797h 0.442913v 2.07595h 0.442913v 2.07595h 0.442913v -8.30378h 0.442913v -2.07595h 0.442913v 4.15189h 0.442913v 6.22784h 0.442913v -14.5316h 0.442913v 8.30378h
 0.442913v -2.07595h 0.442913v 4.15189h 0.442913v -10.3797h 0.442913v 10.3797h 0.442913v 8.30378h 0.442913v -8.30378h 0.442913v 2.07595h 0.442913v 2.07595h 0.442913v 2.07595h 0.442913v -2.07595h 0.442913v -6.22784h 0.442913v 6.22784h 0.442913v
 -4.15189h 0.442913v 6.22784h 0.442913v -6.22784h 0.442913v 2.07595h 0.442913v -8.30378h 0.442913v 10.3797h 0.442913v -2.07595h 0.885827v 2.07595h 0.442913v -2.07595h 0.442913v 4.15189h 0.442913v -12.4557h 0.442913v 4.15189h 0.442913v 2.07595h
 0.442913v 4.15189h 0.442913v -6.22784h 1.32874v 8.30378h 0.442913v -8.30378h 1.77165v 6.22784h 0.442913v -12.4557h 0.442913v -2.07595h 0.442913v 14.5316h 0.442913v -14.5316h 0.442913v 12.4557h 0.442913v -18.6835h 0.442913v 2.07595h 0.442913v
 12.4557h 0.442913v -26.9873h 0.442913v 16.6076h 0.442913v -8.30378h 0.442913v 8.30378h 0.442913v -2.07595h 0.442913v -6.22784h 0.442913v -4.15189h 0.442913v 6.22784h 0.442913v -16.6076h 0.442913v -6.22784h 0.442913v 2.07595h 0.442913v 16.6076h
 0.442913v -14.5316h 0.442913v -2.07595h 0.442913v -16.6076h 0.442913v -2.07595h 0.442913v -8.30378h 0.442913v 35.2911h 0.442913v -8.30378h 0.442913v -31.1392h 0.442913v 10.3797h 0.442913v 2.07595h 0.442913v -2.07595h 0.442913v 4.15189h 0.442913v
 6.22784h 0.442913v -6.22784h 0.442913v -8.30378h 0.442913v 10.3797h 0.442913v 8.30378h 0.442913v 12.4557h 0.442913v 6.22784h 0.442913v -33.2151h 0.442913v -2.07595h 0.442913v 16.6076h 0.442913v 12.4557h 0.442913v 2.07595h 0.442913v -14.5316h
 0.442913v 20.7595h 0.442913v 6.22784h 0.442913v -10.3797h 0.442913v 12.4557h 0.442913v -2.07595h 0.442913v -6.22784h 0.442913v 8.30378h 0.885827v 18.6835h 0.442913v -12.4557h 0.442913v 4.15189h 0.442913v 6.22784h 0.442913v 4.15189h 0.442913v
 -4.15189h 0.442913v -6.22784h 0.442913v 10.3797h 0.442913v -2.07595h 0.442913v 6.22784h 0.442913v -4.15189h 0.442913v -4.15189h 0.442913v -4.15189h 0.442913v 10.3797h 0.442913v 2.07595h 0.442913v -4.15189h 0.442913v 2.07595h 0.442913v 2.07595h
 0.442913v -2.07595h 0.885827v 2.07595h 0.885827v -2.07595h 0.442913v 2.07595h 1.77165v -4.15189h 0.442913v 4.15189h 1.32874v -2.07595h 0.885827v 2.07595h 0.885827v -2.07595h 0.442913v 2.07595h 0.442913v -2.07595h 0.885827v 2.07595h 3.10039v
 -2.07595h 0.442913v 2.07595h 3.10039v -2.07595h 0.442913v 2.07595h 1.32874v -2.07595h 0.442913v 2.07595h 0.442913v -2.07595h 0.885827v 2.07595h 4.87205v -2.07595h 1.32874v 2.07595h 0.442913v -2.07595h 0.442913v 2.07595h 2.21457v -2.07595h 0.442913v
 2.07595h 5.75787v -2.07595h 0.442913v 2.07595h 0.442913v -2.07595h 0.442913v 2.07595h 4.42913v -2.07595h 0.885827v 2.07595h 3.54331v -2.07595h 0.442913v 2.07595h 2.21457v -2.07595h 0.885827v 2.07595h 0.885827v -2.07595h 0.885827v 2.07595h 5.75787v
 -2.07595h 0.442913v 2.07595h 2.65748v -2.07595h 0.442913v 2.07595h 4.87205v -2.07595h 0.885827v 2.07595h 2.21457v -2.07595h 0.442913v 2.07595h 1.77165v -2.07595h 0.442913v 2.07595h 0.885827v -2.07595h 0.442913v 2.07595h 21.2598v -2.07595h 0.442913v
 2.07595h 5.75787v -2.07595h 0.442913v 2.07595h 6.6437v -2.07595h 0.442913v -2.07595h 0.442913v 2.07595h 0.442913v 2.07595h 0.885827v -2.07595h 0.442913v 2.07595h 0.442913v -2.07595h 0.442913v 2.07595h 55.3642" fill="none" stroke="#000099"/>
<path d="M57.1929,345.762h 453.543" fill="none" stroke="black"/>
<path d="M57.1929,336.541v 9.22031" fill="none" stroke="black"/>
<path d="M66.2638,341.152v 4.61016" fill="none" stroke="black"/>
<path d="M75.3346,341.152v 4.61016" fill="none" stroke="black"/>
<path d="M84.4055,341.152v 4.61016" fill="none" stroke="black"/>
<path d="M93.4764,341.152v 4.61016" fill="none" stroke="black"/>
<path d="M102.547,336.541v 9.22031" fill="none" stroke="black"/>
<path d="M111.618,341.152v 4.61016" fill="none" stroke="black"/>
<path d="M120.689,341.152v 4.61016" fill="none" stroke="black"/>
<path d="M129.76,341.152v 4.61016" fill="none" stroke="black"/>
<path d="M138.831,341.152v 4.61016" fill="none" stroke="black"/>
<path d="M147.902,336.541v 9.22031" fill="none" stroke="black"/>
<path d="M156.972,341.152v 4.61016" fill="none" stroke="black"/>
<path d="M166.043,341.152v 4.61016" fill="none" stroke="black"/>
<path d="M175.114,341.152v 4.61016" fill="none" stroke="black"/>
<path d="M184.185,341.152v 4.61016" fill="none" stroke="black"/>
<path d="M193.256,336.541v 9.22031" fill="none" stroke="black"/>
<path d="M202.327,341.152v 4.61016" fill="none" stroke="black"/>
<path d="M211.398,341.152v 4.61016" fill="none" stroke="black"/>
<path d="M220.469,341.152v 4.61016" fill="none" stroke="black"/>
<path d="M229.539,341.152v 4.61016" fill="none" stroke="black"/>
<path d="M238.61,336.541v 9.22031" fill="none" stroke="black"/>
<path d="M247.681,341.152v 4.61016" fill="none" stroke="black"/>
<path d="M256.752,341.152v 4.61016" fill="none" stroke="black"/>
<path d="M265.823,341.152v 4.61016" fill="none" stroke="black"/>
<path d="M274.894,341.152v 4.61016" fill="none" stroke="black"/>
<path d="M283.965,336.541v 9.22031" fill="none" stroke="black"/>
<path d="M293.035,341.152v 4.61016" fill="none" stroke="black"/>
<path d="M302.106,341.152v 4.61016" fill="none" stroke="black"/>
<path d="M311.177,341.152v 4.61016" fill="none" stroke="black"/>
<path d="M320.248,341.152v 4.61016" fill="none" stroke="black"/>
<path d="M329.319,336.541v 9.22031" fill="none" stroke="black"/>
<path d="M338.39,341.152v 4.61016" fill="none" stroke="black"/>
<path d="M347.461,341.152v 4.61016" fill="none" stroke="black"/>
<path d="M356.531,341.152v 4.61016" fill="none" stroke="black"/>
<path d="M365.602,341.152v 4.61016" fill="none" stroke="black"/>
<path d="M374.673,336.541v 9.22031" fill="none" stroke="black"/>
<path d="M383.744,341.152v 4.61016" fill="none" stroke="black"/>
<path d="M392.815,341.152v 4.61016" fill="none" stroke="black"/>
<path d="M401.886,341.152v 4.61016" fill="none" stroke="black"/>
<path d="M410.957,341.152v 4.61016" fill="none" stroke="black"/>
<path d="M420.028,336.541v 9.22031" fill="none" stroke="black"/>
<path d="M429.098,341.152v 4.61016" fill="none" stroke="black"/>
<path d="M438.169,341.152v 4.61016" fill="none" stroke="black"/>
<path d="M447.24,341.152v 4.61016" fill="none" stroke="black"/>
<path d="M456.311,341.152v 4.61016" fill="none" stroke="black"/>
<path d="M465.382,336.541v 9.22031" fill="none" stroke="black"/>
<path d="M474.453,341.152v 4.61016" fill="none" stroke="black"/>
<path d="M483.524,341.152v 4.61016" fill="none" stroke="black"/>
<path d="M492.594,341.152v 4.61016" fill="none" stroke="black"/>
<path d="M501.665,341.152v 4.61016" fill="none" stroke="black"/>
<path d="M510.736,336.541v 9.22031" fill="none" stroke="black"/>
<text xml:space="preserve" x="53.2943" y="358.189" fill="black" font-size="12.836" font-family="Helvetica">0</text>
<text xml:space="preserve" x="95.5297" y="358.189" fill="black" font-size="12.836" font-family="Helvetica">10</text>
<text xml:space="preserve" x="141.014" y="358.189" fill="black" font-size="12.836" font-family="Helvetica">20</text>
<text xml:space="preserve" x="186.498" y="358.189" fill="black" font-size="12.836" font-family="Helvetica">30</text>
<text xml:space="preserve" x="231.983" y="358.189" fill="black" font-size="12.836" font-family="Helvetica">40</text>
<text xml:space="preserve" x="277.467" y="358.189" fill="black" font-size="12.836" font-family="Helvetica">50</text>
<text xml:space="preserve" x="322.139" y="358.189" fill="black" font-size="12.836" font-family="Helvetica">60</text>
<text xml:space="preserve" x="367.623" y="358.189" fill="black" font-size="12.836" font-family="Helvetica">70</text>
<text xml:space="preserve" x="413.107" y="358.189" fill="black" font-size="12.836" font-family="Helvetica">80</text>
<text xml:space="preserve" x="458.592" y="358.189" fill="black" font-size="12.836" font-family="Helvetica">90</text>
<text xml:space="preserve" x="500.015" y="358.189" fill="black" font-size="12.836" font-family="Helvetica">100</text>
<text xml:space="preserve" x="441.535" y="370.372" fill="black" font-size="12.836" font-family="Helvetica">Energy [keV]</text>
<path d="M57.1929,345.762v -307.344" fill="none" stroke="black"/>
<path d="M70.7992,345.762h -13.6063" fill="none" stroke="black"/>
<path d="M63.9961,335.382h -6.80315" fill="none" stroke="black"/>
<path d="M63.9961,325.002h -6.80315" fill="none" stroke="black"/>
<path d="M63.9961,314.623h -6.80315" fill="none" stroke="black"/>
<path d="M70.7992,304.243h -13.6063" fill="none" stroke="black"/>
<path d="M63.9961,293.863h -6.80315" fill="none" stroke="black"/>
<path d="M63.9961,283.483h -6.80315" fill="none" stroke="black"/>
<path d="M63.9961,273.104h -6.80315" fill="none" stroke="black"/>
<path d="M70.7992,262.724h -13.6063" fill="none" stroke="black"/>
<path d="M63.9961,252.344h -6.80315" fill="none" stroke="black"/>
<path d="M63.9961,241.964h -6.80315" fill="none" stroke="black"/>
<path d="M63.9961,231.585h -6.80315" fill="none" stroke="black"/>
<path d="M70.7992,221.205h -13.6063" fill="none" stroke="black"/>
<path d="M63.9961,210.825h -6.80315" fill="none" stroke="black"/>
<path d="M63.9961,200.446h -6.80315" fill="none" stroke="black"/>
<path d="M63.9961,190.066h -6.80315" fill="none" stroke="black"/>
<path d="M70.7992,179.686h -13.6063" fill="none" stroke="black"/>
<path d="M63.9961,169.306h -6.80315" fill="none" stroke="black"/>
<path d="M63.9961,158.927h -6.80315" fill="none" stroke="black"/>
<path d="M63.9961,148.547h -6.80315" fill="none" stroke="black"/>
<path d="M70.7992,138.167h -13.6063" fill="none" stroke="black"/>
<path d="M63.9961,127.787h -6.80315" fill="none" stroke="black"/>
<path d="M63.9961,117.408h -6.80315" fill="none" stroke="black"/>
<path d="M63.9961,107.028h -6.80315" fill="none" stroke="black"/>
<path d="M70.7992,96.6483h -13.6063" fill="none" stroke="black"/>
<path d="M63.9961,86.2685h -6.80315" fill="none" stroke="black"/>
<path d="M63.9961,75.8888h -6.80315" fill="none" stroke="black"/>
<path d="M63.9961,65.5091h -6.80315" fill="none" stroke="black"/>
<path d="M70.7992,55.1293h -13.6063" fill="none" stroke="black"/>
<path d="M70.7992,55.1293h -13.6063" fill="none" stroke="black"/>
<path d="M63.9961,44.7496h -6.80315" fill="none" stroke="black"/>
<text xml:space="preserve" x="47.6087" y="350.067" fill="black" font-size="12.836" font-family="Helvetica">0</text>
<text xml:space="preserve" x="41.111" y="308.643" fill="black" font-size="12.836" font-family="Helvetica">20</text>
<text xml:space="preserve" x="41.111" y="267.22" fill="black" font-size="12.836" font-family="Helvetica">40</text>
<text xml:space="preserve" x="41.111" y="225.797" fill="black" font-size="12.836" font-family="Helvetica">60</text>
<text xml:space="preserve" x="41.111" y="184.374" fill="black" font-size="12.836" font-family="Helvetica">80</text>
<text xml:space="preserve" x="33.801" y="142.951" fill="black" font-size="12.836" font-family="Helvetica">100</text>
<text xml:space="preserve" x="33.801" y="100.715" fill="black" font-size="12.836" font-family="Helvetica">120</text>
<text xml:space="preserve" x="33.801" y="59.292" fill="black" font-size="12.836" font-family="Helvetica">140</text>
<g transform="rotate(-90,20.8055,69.8509)">
<text xml:space="preserve" x="20.8055" y="69.8509" fill="black" font-size="12.836" font-family="Helvetica">Event</text>
</g>
<text xml:space="preserve" x="206.804" y="18.681" fill="black" font-size="17.9813" font-family="Helvetica">Am_007_calibrated</text>
<rect x="442.705" y="24.9717" width="113.386" height="61.4688" fill="white"/>
<path d="M442.705,86.4405h 113.386" fill="none" stroke="black"/>
<path d="M556.091,86.4405v -61.4688" fill="none" stroke="black"/>
<path d="M556.091,24.9717h -113.386" fill="none" stroke="black"/>
<path d="M442.705,24.9717v 61.4688" fill="none" stroke="black"/>
<text xml:space="preserve" x="446.408" y="36.5499" fill="black" font-size="12.1772" font-family="Helvetica">Am_007_calibrated</text>
<path d="M442.705,40.3389h 113.386" fill="none" stroke="black"/>
<text xml:space="preserve" x="448.033" y="52.7943" fill="black" font-size="12.7411" font-family="Helvetica">Entries </text>
<text xml:space="preserve" x="513.01" y="52.7943" fill="black" font-size="12.7411" font-family="Helvetica"> 11066</text>
<text xml:space="preserve" x="448.033" y="68.2264" fill="black" font-size="12.7411" font-family="Helvetica">Mean  </text>
<text xml:space="preserve" x="513.01" y="68.2264" fill="black" font-size="12.7411" font-family="Helvetica">  24.57</text>
<text xml:space="preserve" x="448.033" y="82.8464" fill="black" font-size="12.7411" font-family="Helvetica">Std Dev   </text>
<text xml:space="preserve" x="513.01" y="82.8464" fill="black" font-size="12.7411" font-family="Helvetica">  14.73</text>
<text xml:space="preserve" x="206.804" y="18.681" fill="black" font-size="17.9813" font-family="Helvetica">Am_007_calibrated</text></svg>
