<?xml version="1.0" standalone="no"?>
<svg width="567.429" height="384.969" viewBox="0 0 567.429 384.969" xmlns="http://www.w3.org/2000/svg" shape-rendering="crispEdges">
<title>
img/week1/calibrated_hist_low_gain/Am_007.svg
</title>
<desc>
Creator: ROOT Version 6.22/09
CreationDate: Wed Jul 14 09:58:16 2021</desc>
<defs>
</defs>
<rect x="0.5" y="0" width="566.929" height="384.469" fill="white"/>
<rect x="57.1929" y="38.4469" width="453.543" height="307.575" fill="white"/>
<rect x="57.1929" y="38.4469" width="453.543" height="307.575" fill="none" stroke="black"/>
<path d="M57.1929,346.022h 35.876v -2.03423h 0.442913v -6.10269h 0.442913v -18.3081h 0.442913v -14.2396h 0.442913v -2.03423h 1.32874v 2.03423h 0.442913v -22.3765h 0.885827v 28.4792h 0.442913v -10.1711h 0.885827v 4.06846h 0.442913v -12.2054h 0.442913v
 14.2396h 0.442913v -10.1711h 0.442913v 24.4107h 0.442913v -6.10269h 0.442913v -12.2054h 0.442913v -10.1711h 0.442913v 18.3081h 0.442913v -6.10269h 0.442913v 14.2396h 0.442913v 2.03423h 0.442913v -10.1711h 0.442913v -20.3423h 0.442913v 4.06846h
 0.442913v 2.03423h 0.442913v 14.2396h 0.442913v 4.06846h 0.442913v -16.2738h 0.442913v -4.06846h 0.442913v 4.06846h 0.442913v 14.2396h 0.442913v -2.03423h 0.442913v 4.06846h 0.442913v -18.3081h 1.32874v 6.10269h 0.442913v 10.1711h 0.442913v
 -6.10269h 0.442913v 2.03423h 0.442913v -6.10269h 0.442913v -8.13691h 0.442913v -4.06846h 0.442913v 20.3423h 0.442913v 6.10269h 0.442913v -8.13691h 0.442913v -26.445h 0.442913v 26.445h 0.442913v -10.1711h 0.442913v 4.06846h 0.442913v -14.2396h
 0.442913v 20.3423h 0.442913v -22.3765h 0.442913v -12.2054h 0.442913v 16.2738h 0.442913v 10.1711h 0.442913v -12.2054h 0.442913v 12.2054h 0.442913v -26.445h 0.885827v 28.4792h 0.442913v -8.13691h 0.442913v -10.1711h 0.442913v 6.10269h 0.442913v
 -40.6846h 0.442913v -10.1711h 0.442913v 40.6846h 0.442913v -4.06846h 0.442913v 8.13691h 0.442913v -22.3765h 0.442913v -26.445h 0.442913v 18.3081h 0.442913v 2.03423h 0.442913v 22.3765h 0.442913v -6.10269h 0.442913v -22.3765h 0.442913v -16.2738h
 0.442913v -4.06846h 0.442913v 10.1711h 0.442913v 28.4792h 0.442913v -6.10269h 0.442913v -18.3081h 0.885827v -12.2054h 0.442913v 8.13691h 0.885827v -6.10269h 0.442913v -34.5819h 0.442913v -32.5477h 0.442913v 16.2738h 0.442913v -2.03423h 0.442913v
 16.2738h 0.442913v -8.13691h 0.442913v -24.4107h 0.442913v -20.3423h 0.442913v 20.3423h 0.442913v -44.753h 0.442913v 4.06846h 0.442913v 16.2738h 0.442913v -34.5819h 0.442913v -32.5477h 0.442913v 22.3765h 0.442913v 6.10269h 0.442913v 24.4107h
 0.442913v 2.03423h 0.442913v -6.10269h 0.442913v -26.445h 0.442913v -30.5134h 0.442913v -12.2054h 0.442913v 107.814h 0.442913v -4.06846h 0.442913v -38.6503h 0.442913v -8.13691h 0.442913v 30.5134h 0.442913v -10.1711h 0.442913v 40.6846h 0.442913v
 -22.3765h 0.442913v 16.2738h 0.442913v -38.6503h 0.442913v 38.6503h 0.442913v -36.6161h 0.442913v 67.1295h 0.442913v -34.5819h 0.442913v -4.06846h 0.442913v 28.4792h 0.442913v -4.06846h 0.442913v 36.6161h 0.442913v 4.06846h 0.442913v 4.06846h
 0.442913v -36.6161h 0.442913v 36.6161h 0.442913v -12.2054h 0.442913v -8.13691h 0.442913v 24.4107h 0.442913v -4.06846h 0.442913v -10.1711h 0.442913v 14.2396h 0.442913v -12.2054h 0.442913v -4.06846h 0.442913v 63.0611h 0.442913v -48.8215h 0.442913v
 -28.4792h 0.442913v 30.5134h 0.442913v -2.03423h 0.442913v -2.03423h 0.442913v 38.6503h 0.442913v -36.6161h 0.442913v 34.5819h 0.442913v -26.445h 0.442913v -4.06846h 0.442913v 6.10269h 0.442913v 40.6846h 0.442913v -38.6503h 0.442913v 8.13691h
 0.442913v 26.445h 0.442913v -12.2054h 0.442913v 16.2738h 0.442913v 8.13691h 0.442913v 2.03423h 0.442913v -26.445h 0.442913v 18.3081h 0.442913v -4.06846h 0.442913v 6.10269h 0.442913v 28.4792h 0.442913v 2.03423h 0.442913v -16.2738h 0.442913v 6.10269h
 0.442913v -2.03423h 0.442913v 4.06846h 0.442913v 2.03423h 0.442913v 12.2054h 0.442913v -12.2054h 0.442913v 16.2738h 0.442913v -12.2054h 0.442913v 20.3423h 0.442913v -2.03423h 0.442913v -14.2396h 0.442913v -12.2054h 1.32874v -4.06846h 0.442913v
 14.2396h 0.442913v -6.10269h 0.442913v 4.06846h 0.442913v -8.13691h 0.885827v 12.2054h 0.442913v 8.13691h 0.442913v -24.4107h 0.442913v 6.10269h 0.442913v -4.06846h 0.442913v 4.06846h 0.442913v -6.10269h 0.442913v 14.2396h 0.442913v -4.06846h
 0.442913v -14.2396h 0.442913v 14.2396h 0.442913v -8.13691h 0.442913v 24.4107h 0.442913v -6.10269h 0.442913v -10.1711h 0.442913v -2.03423h 0.442913v 16.2738h 0.442913v -18.3081h 0.442913v 2.03423h 0.442913v 26.445h 0.442913v -22.3765h 0.442913v
 14.2396h 0.442913v -8.13691h 0.442913v 10.1711h 0.442913v -2.03423h 0.442913v 8.13691h 0.442913v 2.03423h 0.442913v -6.10269h 0.885827v 8.13691h 0.442913v -4.06846h 0.442913v 2.03423h 0.442913v 4.06846h 0.442913v -10.1711h 0.442913v 4.06846h
 0.442913v -4.06846h 0.442913v 14.2396h 0.442913v -2.03423h 0.442913v -4.06846h 0.442913v 2.03423h 0.442913v 2.03423h 0.885827v 2.03423h 0.442913v -4.06846h 0.442913v 4.06846h 0.442913v 2.03423h 0.442913v -4.06846h 0.442913v -2.03423h 0.442913v
 -4.06846h 0.442913v 6.10269h 0.442913v -4.06846h 0.442913v 4.06846h 0.442913v 2.03423h 0.442913v -2.03423h 0.442913v 4.06846h 0.442913v -8.13691h 0.442913v 6.10269h 0.442913v -8.13691h 0.442913v 6.10269h 0.442913v -2.03423h 0.442913v 4.06846h
 0.885827v -4.06846h 0.442913v 4.06846h 0.442913v 2.03423h 0.442913v -4.06846h 0.442913v 2.03423h 0.442913v -2.03423h 0.442913v 4.06846h 0.442913v -6.10269h 0.442913v 2.03423h 0.442913v 2.03423h 0.442913v -2.03423h 0.442913v 4.06846h 0.442913v
 -2.03423h 0.442913v -6.10269h 0.442913v 2.03423h 0.885827v 6.10269h 0.885827v -6.10269h 0.442913v 2.03423h 0.442913v -6.10269h 0.885827v 8.13691h 0.442913v 2.03423h 2.21457v -2.03423h 0.442913v 2.03423h 0.442913v -2.03423h 0.442913v -10.1711h
 0.442913v 12.2054h 0.442913v -2.03423h 0.442913v -2.03423h 0.442913v 2.03423h 0.442913v 2.03423h 0.442913v -2.03423h 0.885827v 2.03423h 0.442913v -2.03423h 0.442913v 2.03423h 0.442913v -2.03423h 0.885827v 2.03423h 1.32874v -2.03423h 2.65748v
 2.03423h 0.442913v -4.06846h 0.442913v 2.03423h 0.442913v -4.06846h 0.442913v 4.06846h 0.885827v -4.06846h 0.442913v 2.03423h 0.885827v 2.03423h 0.442913v -2.03423h 0.442913v 4.06846h 0.885827v -2.03423h 0.442913v 2.03423h 0.885827v -4.06846h
 0.442913v 2.03423h 0.442913v -4.06846h 0.442913v 2.03423h 0.442913v 4.06846h 0.442913v -2.03423h 0.442913v 2.03423h 0.885827v -4.06846h 0.442913v 2.03423h 0.442913v -4.06846h 0.442913v 2.03423h 0.442913v 4.06846h 1.77165v -4.06846h 0.885827v
 2.03423h 0.885827v -2.03423h 0.442913v 4.06846h 0.442913v -2.03423h 0.442913v -2.03423h 0.442913v -2.03423h 0.442913v 2.03423h 0.442913v 2.03423h 0.442913v -4.06846h 0.442913v 4.06846h 0.442913v -2.03423h 1.77165v -4.06846h 0.442913v 6.10269h
 0.442913v -2.03423h 0.442913v 2.03423h 1.32874v 2.03423h 0.885827v -4.06846h 0.885827v 4.06846h 0.885827v -4.06846h 0.442913v 4.06846h 0.442913v -4.06846h 0.442913v 2.03423h 0.442913v -4.06846h 0.442913v -2.03423h 0.442913v 6.10269h 0.442913v
 -4.06846h 0.442913v 2.03423h 0.442913v -4.06846h 0.442913v 6.10269h 0.885827v -2.03423h 0.442913v -2.03423h 0.442913v 2.03423h 0.885827v 2.03423h 0.442913v -2.03423h 0.885827v 2.03423h 0.442913v -4.06846h 0.442913v 4.06846h 0.442913v -2.03423h
 0.442913v 2.03423h 0.442913v 2.03423h 0.442913v -4.06846h 0.442913v -2.03423h 0.442913v 4.06846h 0.885827v 2.03423h 0.442913v -2.03423h 0.442913v -2.03423h 0.442913v 4.06846h 0.442913v -4.06846h 0.442913v -4.06846h 0.442913v 6.10269h 0.442913v
 -8.13691h 0.885827v -2.03423h 0.442913v 4.06846h 0.442913v 6.10269h 0.442913v -4.06846h 0.442913v 2.03423h 0.442913v -6.10269h 0.442913v 2.03423h 0.442913v 4.06846h 0.442913v -6.10269h 0.442913v -2.03423h 0.442913v 6.10269h 0.442913v -2.03423h
 0.442913v 4.06846h 0.442913v -8.13691h 0.442913v 6.10269h 0.442913v -6.10269h 0.885827v -4.06846h 0.442913v 6.10269h 0.442913v -2.03423h 0.442913v -2.03423h 0.442913v -4.06846h 0.442913v -2.03423h 0.442913v 10.1711h 0.442913v -6.10269h 0.442913v
 6.10269h 0.442913v 6.10269h 0.442913v -10.1711h 0.442913v 2.03423h 1.32874v 6.10269h 0.442913v -12.2054h 0.442913v 6.10269h 0.442913v -6.10269h 0.442913v 14.2396h 0.442913v -2.03423h 0.442913v -10.1711h 0.442913v 14.2396h 0.442913v -12.2054h
 0.442913v 2.03423h 0.442913v 6.10269h 0.442913v 2.03423h 0.442913v -6.10269h 0.442913v -4.06846h 0.442913v 4.06846h 0.442913v -4.06846h 0.885827v 8.13691h 0.442913v -8.13691h 0.885827v 10.1711h 0.885827v -4.06846h 0.442913v -8.13691h 0.442913v
 2.03423h 0.442913v 12.2054h 0.442913v -12.2054h 0.442913v -2.03423h 0.442913v 4.06846h 0.442913v 4.06846h 0.442913v -10.1711h 0.442913v 10.1711h 0.442913v 8.13691h 0.442913v -6.10269h 0.442913v -2.03423h 0.442913v 4.06846h 0.442913v 2.03423h
 0.442913v -2.03423h 0.442913v -6.10269h 0.442913v 6.10269h 0.442913v -4.06846h 0.442913v 8.13691h 0.442913v -10.1711h 0.442913v 4.06846h 0.442913v -8.13691h 0.442913v 10.1711h 0.442913v -2.03423h 0.885827v 2.03423h 1.32874v -10.1711h 0.442913v
 4.06846h 0.885827v 8.13691h 0.442913v -10.1711h 0.442913v 4.06846h 0.442913v -4.06846h 0.442913v 12.2054h 0.442913v -12.2054h 0.442913v 2.03423h 0.885827v 2.03423h 0.442913v 4.06846h 0.442913v -14.2396h 0.885827v 16.2738h 0.442913v -16.2738h
 0.442913v 10.1711h 0.442913v -18.3081h 0.442913v 6.10269h 0.442913v -2.03423h 0.442913v -2.03423h 0.442913v -2.03423h 0.442913v 4.06846h 0.442913v 2.03423h 0.442913v -6.10269h 0.442913v -8.13691h 0.442913v 6.10269h 0.442913v 8.13691h 0.442913v
 -26.445h 0.442913v -8.13691h 0.442913v 16.2738h 0.442913v -2.03423h 0.442913v -6.10269h 0.885827v -34.5819h 0.442913v 30.5134h 0.442913v -14.2396h 0.442913v 24.4107h 0.442913v -16.2738h 0.442913v -6.10269h 0.442913v -18.3081h 0.442913v 20.3423h
 0.442913v -14.2396h 0.442913v 12.2054h 0.442913v 18.3081h 0.442913v -28.4792h 0.442913v 4.06846h 0.442913v 8.13691h 0.442913v 12.2054h 0.442913v 4.06846h 0.442913v 2.03423h 0.442913v -16.2738h 0.442913v -2.03423h 0.442913v 6.10269h 0.442913v
 10.1711h 0.885827v 6.10269h 0.442913v 12.2054h 0.442913v -4.06846h 0.442913v -2.03423h 0.442913v 2.03423h 0.442913v 4.06846h 0.442913v -12.2054h 0.442913v 16.2738h 0.442913v 12.2054h 0.885827v -10.1711h 0.442913v 12.2054h 0.442913v 2.03423h
 0.442913v -2.03423h 0.442913v -2.03423h 0.442913v 4.06846h 0.442913v -4.06846h 0.442913v 10.1711h 0.442913v -4.06846h 0.442913v -2.03423h 0.442913v -6.10269h 0.442913v 8.13691h 0.442913v 4.06846h 0.442913v -4.06846h 0.442913v 4.06846h 0.442913v
 -2.03423h 0.885827v 2.03423h 0.442913v -2.03423h 0.442913v 2.03423h 0.442913v -2.03423h 0.442913v 2.03423h 1.77165v -4.06846h 0.442913v 4.06846h 1.77165v -4.06846h 0.442913v 4.06846h 0.885827v -2.03423h 0.442913v 2.03423h 0.442913v -2.03423h
 0.885827v 2.03423h 3.10039v -2.03423h 0.442913v 2.03423h 3.10039v -2.03423h 0.442913v 2.03423h 1.32874v -2.03423h 0.442913v 2.03423h 0.442913v -2.03423h 0.885827v 2.03423h 4.42913v -2.03423h 0.442913v 2.03423h 0.442913v -2.03423h 0.885827v 2.03423h
 0.442913v -2.03423h 0.442913v 2.03423h 1.77165v -2.03423h 0.442913v 2.03423h 6.20079v -2.03423h 0.442913v 2.03423h 0.442913v -2.03423h 0.442913v 2.03423h 3.98622v -2.03423h 0.442913v 2.03423h 0.442913v -2.03423h 0.442913v 2.03423h 3.54331v -2.03423h
 0.442913v 2.03423h 1.77165v -2.03423h 0.885827v 2.03423h 1.32874v -4.06846h 0.442913v 4.06846h 5.75787v -2.03423h 0.442913v 2.03423h 2.65748v -2.03423h 0.442913v 2.03423h 4.87205v -2.03423h 0.885827v 2.03423h 2.21457v -2.03423h 0.442913v 2.03423h
 1.77165v -2.03423h 0.442913v 2.03423h 0.885827v -2.03423h 0.442913v 2.03423h 20.8169v -2.03423h 0.442913v 2.03423h 5.75787v -2.03423h 0.442913v 2.03423h 6.6437v -2.03423h 0.885827v -2.03423h 0.442913v 4.06846h 1.32874v -2.03423h 0.885827v 2.03423h
 56.6929" fill="none" stroke="#000099"/>
<path d="M57.1929,346.022h 453.543" fill="none" stroke="black"/>
<path d="M57.1929,336.795v 9.22726" fill="none" stroke="black"/>
<path d="M66.2638,341.409v 4.61363" fill="none" stroke="black"/>
<path d="M75.3346,341.409v 4.61363" fill="none" stroke="black"/>
<path d="M84.4055,341.409v 4.61363" fill="none" stroke="black"/>
<path d="M93.4764,341.409v 4.61363" fill="none" stroke="black"/>
<path d="M102.547,336.795v 9.22726" fill="none" stroke="black"/>
<path d="M111.618,341.409v 4.61363" fill="none" stroke="black"/>
<path d="M120.689,341.409v 4.61363" fill="none" stroke="black"/>
<path d="M129.76,341.409v 4.61363" fill="none" stroke="black"/>
<path d="M138.831,341.409v 4.61363" fill="none" stroke="black"/>
<path d="M147.902,336.795v 9.22726" fill="none" stroke="black"/>
<path d="M156.972,341.409v 4.61363" fill="none" stroke="black"/>
<path d="M166.043,341.409v 4.61363" fill="none" stroke="black"/>
<path d="M175.114,341.409v 4.61363" fill="none" stroke="black"/>
<path d="M184.185,341.409v 4.61363" fill="none" stroke="black"/>
<path d="M193.256,336.795v 9.22726" fill="none" stroke="black"/>
<path d="M202.327,341.409v 4.61363" fill="none" stroke="black"/>
<path d="M211.398,341.409v 4.61363" fill="none" stroke="black"/>
<path d="M220.469,341.409v 4.61363" fill="none" stroke="black"/>
<path d="M229.539,341.409v 4.61363" fill="none" stroke="black"/>
<path d="M238.61,336.795v 9.22726" fill="none" stroke="black"/>
<path d="M247.681,341.409v 4.61363" fill="none" stroke="black"/>
<path d="M256.752,341.409v 4.61363" fill="none" stroke="black"/>
<path d="M265.823,341.409v 4.61363" fill="none" stroke="black"/>
<path d="M274.894,341.409v 4.61363" fill="none" stroke="black"/>
<path d="M283.965,336.795v 9.22726" fill="none" stroke="black"/>
<path d="M293.035,341.409v 4.61363" fill="none" stroke="black"/>
<path d="M302.106,341.409v 4.61363" fill="none" stroke="black"/>
<path d="M311.177,341.409v 4.61363" fill="none" stroke="black"/>
<path d="M320.248,341.409v 4.61363" fill="none" stroke="black"/>
<path d="M329.319,336.795v 9.22726" fill="none" stroke="black"/>
<path d="M338.39,341.409v 4.61363" fill="none" stroke="black"/>
<path d="M347.461,341.409v 4.61363" fill="none" stroke="black"/>
<path d="M356.531,341.409v 4.61363" fill="none" stroke="black"/>
<path d="M365.602,341.409v 4.61363" fill="none" stroke="black"/>
<path d="M374.673,336.795v 9.22726" fill="none" stroke="black"/>
<path d="M383.744,341.409v 4.61363" fill="none" stroke="black"/>
<path d="M392.815,341.409v 4.61363" fill="none" stroke="black"/>
<path d="M401.886,341.409v 4.61363" fill="none" stroke="black"/>
<path d="M410.957,341.409v 4.61363" fill="none" stroke="black"/>
<path d="M420.028,336.795v 9.22726" fill="none" stroke="black"/>
<path d="M429.098,341.409v 4.61363" fill="none" stroke="black"/>
<path d="M438.169,341.409v 4.61363" fill="none" stroke="black"/>
<path d="M447.24,341.409v 4.61363" fill="none" stroke="black"/>
<path d="M456.311,341.409v 4.61363" fill="none" stroke="black"/>
<path d="M465.382,336.795v 9.22726" fill="none" stroke="black"/>
<path d="M474.453,341.409v 4.61363" fill="none" stroke="black"/>
<path d="M483.524,341.409v 4.61363" fill="none" stroke="black"/>
<path d="M492.594,341.409v 4.61363" fill="none" stroke="black"/>
<path d="M501.665,341.409v 4.61363" fill="none" stroke="black"/>
<path d="M510.736,336.795v 9.22726" fill="none" stroke="black"/>
<text xml:space="preserve" x="53.446" y="358.403" fill="black" font-size="12.8453" font-family="Helvetica">0</text>
<text xml:space="preserve" x="95.8027" y="358.403" fill="black" font-size="12.8453" font-family="Helvetica">10</text>
<text xml:space="preserve" x="140.603" y="358.403" fill="black" font-size="12.8453" font-family="Helvetica">20</text>
<text xml:space="preserve" x="186.218" y="358.403" fill="black" font-size="12.8453" font-family="Helvetica">30</text>
<text xml:space="preserve" x="231.833" y="358.403" fill="black" font-size="12.8453" font-family="Helvetica">40</text>
<text xml:space="preserve" x="277.448" y="358.403" fill="black" font-size="12.8453" font-family="Helvetica">50</text>
<text xml:space="preserve" x="322.249" y="358.403" fill="black" font-size="12.8453" font-family="Helvetica">60</text>
<text xml:space="preserve" x="367.864" y="358.403" fill="black" font-size="12.8453" font-family="Helvetica">70</text>
<text xml:space="preserve" x="413.479" y="358.403" fill="black" font-size="12.8453" font-family="Helvetica">80</text>
<text xml:space="preserve" x="458.279" y="358.403" fill="black" font-size="12.8453" font-family="Helvetica">90</text>
<text xml:space="preserve" x="499.821" y="358.403" fill="black" font-size="12.8453" font-family="Helvetica">100</text>
<text xml:space="preserve" x="441.173" y="370.622" fill="black" font-size="12.8453" font-family="Helvetica">Energy [keV]</text>
<path d="M57.1929,346.022v -307.575" fill="none" stroke="black"/>
<path d="M70.7992,346.022h -13.6063" fill="none" stroke="black"/>
<path d="M63.9961,335.851h -6.80315" fill="none" stroke="black"/>
<path d="M63.9961,325.68h -6.80315" fill="none" stroke="black"/>
<path d="M63.9961,315.509h -6.80315" fill="none" stroke="black"/>
<path d="M70.7992,305.338h -13.6063" fill="none" stroke="black"/>
<path d="M63.9961,295.167h -6.80315" fill="none" stroke="black"/>
<path d="M63.9961,284.995h -6.80315" fill="none" stroke="black"/>
<path d="M63.9961,274.824h -6.80315" fill="none" stroke="black"/>
<path d="M70.7992,264.653h -13.6063" fill="none" stroke="black"/>
<path d="M63.9961,254.482h -6.80315" fill="none" stroke="black"/>
<path d="M63.9961,244.311h -6.80315" fill="none" stroke="black"/>
<path d="M63.9961,234.14h -6.80315" fill="none" stroke="black"/>
<path d="M70.7992,223.969h -13.6063" fill="none" stroke="black"/>
<path d="M63.9961,213.797h -6.80315" fill="none" stroke="black"/>
<path d="M63.9961,203.626h -6.80315" fill="none" stroke="black"/>
<path d="M63.9961,193.455h -6.80315" fill="none" stroke="black"/>
<path d="M70.7992,183.284h -13.6063" fill="none" stroke="black"/>
<path d="M63.9961,173.113h -6.80315" fill="none" stroke="black"/>
<path d="M63.9961,162.942h -6.80315" fill="none" stroke="black"/>
<path d="M63.9961,152.771h -6.80315" fill="none" stroke="black"/>
<path d="M70.7992,142.599h -13.6063" fill="none" stroke="black"/>
<path d="M63.9961,132.428h -6.80315" fill="none" stroke="black"/>
<path d="M63.9961,122.257h -6.80315" fill="none" stroke="black"/>
<path d="M63.9961,112.086h -6.80315" fill="none" stroke="black"/>
<path d="M70.7992,101.915h -13.6063" fill="none" stroke="black"/>
<path d="M63.9961,91.7437h -6.80315" fill="none" stroke="black"/>
<path d="M63.9961,81.5726h -6.80315" fill="none" stroke="black"/>
<path d="M63.9961,71.4014h -6.80315" fill="none" stroke="black"/>
<path d="M70.7992,61.2303h -13.6063" fill="none" stroke="black"/>
<path d="M70.7992,61.2303h -13.6063" fill="none" stroke="black"/>
<path d="M63.9961,51.0591h -6.80315" fill="none" stroke="black"/>
<path d="M63.9961,40.888h -6.80315" fill="none" stroke="black"/>
<text xml:space="preserve" x="47.7441" y="350.258" fill="black" font-size="12.8453" font-family="Helvetica">0</text>
<text xml:space="preserve" x="41.2277" y="309.53" fill="black" font-size="12.8453" font-family="Helvetica">20</text>
<text xml:space="preserve" x="41.2277" y="268.803" fill="black" font-size="12.8453" font-family="Helvetica">40</text>
<text xml:space="preserve" x="41.2277" y="228.075" fill="black" font-size="12.8453" font-family="Helvetica">60</text>
<text xml:space="preserve" x="41.2277" y="188.162" fill="black" font-size="12.8453" font-family="Helvetica">80</text>
<text xml:space="preserve" x="33.8967" y="147.434" fill="black" font-size="12.8453" font-family="Helvetica">100</text>
<text xml:space="preserve" x="33.8967" y="106.706" fill="black" font-size="12.8453" font-family="Helvetica">120</text>
<text xml:space="preserve" x="33.8967" y="65.9788" fill="black" font-size="12.8453" font-family="Helvetica">140</text>
<g transform="rotate(-90,20.8638,70.0516)">
<text xml:space="preserve" x="20.8638" y="70.0516" fill="black" font-size="12.8453" font-family="Helvetica">Event</text>
</g>
<text xml:space="preserve" x="206.582" y="18.7347" fill="black" font-size="18.0316" font-family="Helvetica">Am_007_calibrated</text>
<rect x="442.705" y="24.9905" width="113.386" height="61.5151" fill="white"/>
<path d="M442.705,86.5056h 113.386" fill="none" stroke="black"/>
<path d="M556.091,86.5056v -61.5151" fill="none" stroke="black"/>
<path d="M556.091,24.9905h -113.386" fill="none" stroke="black"/>
<path d="M442.705,24.9905v 61.5151" fill="none" stroke="black"/>
<text xml:space="preserve" x="446.061" y="36.6549" fill="black" font-size="12.1556" font-family="Helvetica">Am_007_calibrated</text>
<path d="M442.705,40.3693h 113.386" fill="none" stroke="black"/>
<text xml:space="preserve" x="447.69" y="52.946" fill="black" font-size="12.7186" font-family="Helvetica">Entries </text>
<text xml:space="preserve" x="512.854" y="52.946" fill="black" font-size="12.7186" font-family="Helvetica"> 11066</text>
<text xml:space="preserve" x="447.69" y="67.6079" fill="black" font-size="12.7186" font-family="Helvetica">Mean  </text>
<text xml:space="preserve" x="512.854" y="67.6079" fill="black" font-size="12.7186" font-family="Helvetica">  24.84</text>
<text xml:space="preserve" x="447.69" y="83.0844" fill="black" font-size="12.7186" font-family="Helvetica">Std Dev   </text>
<text xml:space="preserve" x="516.112" y="83.0844" fill="black" font-size="12.7186" font-family="Helvetica">   14.6</text>
<text xml:space="preserve" x="206.582" y="18.7347" fill="black" font-size="18.0316" font-family="Helvetica">Am_007_calibrated</text></svg>
