<?xml version="1.0" standalone="no"?>
<svg width="567.429" height="384.969" viewBox="0 0 567.429 384.969" xmlns="http://www.w3.org/2000/svg" shape-rendering="crispEdges">
<title>
img/week1/calibrated_hist_low_gain/Am_007.svg
</title>
<desc>
Creator: ROOT Version 6.22/09
CreationDate: Thu Jul  8 17:44:26 2021</desc>
<defs>
</defs>
<rect x="0.5" y="0" width="566.929" height="384.469" fill="white"/>
<rect x="57.1929" y="38.4469" width="453.543" height="307.575" fill="white"/>
<rect x="57.1929" y="38.4469" width="453.543" height="307.575" fill="none" stroke="black"/>
<path d="M57.1929,346.022h 15.0591v -13.3149h 0.885827v -6.65747h 0.442913v 9.98621h 0.442913v 3.32874h 0.442913v -3.32874h 0.442913v -9.98621h 0.442913v 6.65747h 0.442913v -3.32874h 0.442913v -13.3149h 0.442913v 16.6437h 0.442913v -13.3149h
 0.442913v 19.9724h 0.442913v -9.98621h 0.442913v -13.3149h 0.442913v 23.3012h 0.442913v -13.3149h 0.442913v 6.65747h 0.885827v -13.3149h 0.442913v 3.32874h 1.32874v -6.65747h 0.442913v 23.3012h 0.885827v -9.98621h 0.442913v 6.65747h 0.442913v
 -13.3149h 0.442913v -9.98621h 0.442913v 16.6437h 0.442913v 3.32874h 0.442913v -13.3149h 0.442913v 16.6437h 0.442913v -13.3149h 0.442913v 16.6437h 0.442913v -9.98621h 0.442913v -6.65747h 0.442913v 9.98621h 0.442913v -3.32874h 0.442913v -3.32874h
 0.442913v 3.32874h 0.442913v -9.98621h 0.442913v 9.98621h 0.442913v -3.32874h 0.442913v 9.98621h 0.442913v -6.65747h 0.442913v 6.65747h 0.442913v -16.6437h 0.442913v 6.65747h 1.32874v 3.32874h 0.442913v -9.98621h 0.442913v 19.9724h 0.442913v
 -13.3149h 0.442913v 6.65747h 0.442913v -19.9724h 0.442913v 26.6299h 0.442913v -6.65747h 0.442913v -16.6437h 0.442913v 3.32874h 0.442913v 13.3149h 0.885827v -9.98621h 0.442913v -6.65747h 0.442913v -13.3149h 0.442913v 16.6437h 0.442913v 3.32874h
 0.442913v -3.32874h 0.442913v 9.98621h 0.442913v -6.65747h 0.442913v 6.65747h 0.442913v -19.9724h 0.442913v 9.98621h 0.442913v -3.32874h 0.442913v -13.3149h 0.442913v 16.6437h 0.442913v -13.3149h 0.442913v -13.3149h 0.442913v -3.32874h 0.885827v
 23.3012h 0.442913v 16.6437h 0.442913v -33.2874h 0.442913v 9.98621h 0.442913v 16.6437h 0.442913v -29.9586h 0.442913v -13.3149h 0.442913v 23.3012h 0.442913v -26.6299h 0.442913v 13.3149h 0.442913v 6.65747h 0.442913v -36.6161h 0.442913v 26.6299h
 0.442913v -13.3149h 0.442913v 13.3149h 0.442913v -6.65747h 0.442913v 3.32874h 0.442913v -56.5885h 0.442913v 9.98621h 0.442913v 33.2874h 0.442913v -33.2874h 0.442913v -6.65747h 0.442913v 26.6299h 0.442913v -23.3012h 0.442913v -16.6437h 0.442913v
 -33.2874h 0.442913v -13.3149h 0.442913v -13.3149h 0.442913v 66.5747h 0.442913v -69.9035h 0.442913v 3.32874h 0.442913v 33.2874h 0.442913v -93.2047h 0.442913v 59.9173h 0.442913v 6.65747h 0.442913v -59.9173h 0.442913v -39.9448h 0.442913v 59.9173h
 0.442913v -13.3149h 0.442913v -13.3149h 0.885827v 26.6299h 0.442913v -46.6023h 0.442913v 23.3012h 0.442913v -13.3149h 0.442913v 16.6437h 0.885827v 29.9586h 0.442913v -16.6437h 0.442913v 46.6023h 0.442913v -109.848h 0.442913v 9.98621h 0.442913v
 -3.32874h 0.442913v 29.9586h 0.442913v 36.6161h 0.442913v -6.65747h 0.885827v -26.6299h 0.442913v 39.9448h 0.442913v 3.32874h 0.442913v -16.6437h 0.442913v -6.65747h 0.442913v -39.9448h 0.442913v 96.5334h 0.442913v -39.9448h 0.442913v 9.98621h
 0.442913v -19.9724h 0.442913v 49.9311h 0.442913v 26.6299h 0.442913v -59.9173h 0.442913v 33.2874h 0.442913v -53.2598h 0.442913v 29.9586h 0.442913v -76.561h 0.442913v 76.561h 0.442913v 6.65747h 0.442913v 6.65747h 0.885827v -49.9311h 0.442913v 6.65747h
 0.442913v 19.9724h 0.442913v 3.32874h 0.442913v 16.6437h 0.442913v -16.6437h 0.442913v -36.6161h 0.442913v 76.561h 0.442913v 6.65747h 0.442913v 3.32874h 0.442913v -3.32874h 0.442913v 6.65747h 0.442913v -33.2874h 0.442913v 16.6437h 0.442913v
 -9.98621h 0.442913v 73.2322h 0.442913v 3.32874h 0.442913v -79.8897h 0.442913v 26.6299h 0.442913v 39.9448h 0.442913v 13.3149h 0.442913v -33.2874h 0.442913v 33.2874h 0.442913v 16.6437h 0.442913v -23.3012h 0.442913v -6.65747h 0.442913v 23.3012h
 0.442913v 13.3149h 0.442913v -9.98621h 0.442913v 9.98621h 0.442913v -9.98621h 0.442913v 29.9586h 0.442913v -13.3149h 0.885827v 16.6437h 0.442913v -26.6299h 0.442913v -6.65747h 0.442913v -26.6299h 0.442913v 23.3012h 0.885827v -9.98621h 0.442913v
 19.9724h 0.442913v 26.6299h 0.442913v -33.2874h 0.442913v 26.6299h 0.442913v -3.32874h 0.442913v -36.6161h 0.442913v 9.98621h 0.442913v 3.32874h 0.442913v 39.9448h 0.442913v -56.5885h 0.442913v 9.98621h 0.442913v -33.2874h 0.442913v 59.9173h
 0.442913v -26.6299h 0.442913v 19.9724h 0.442913v -36.6161h 0.442913v 39.9448h 0.885827v -13.3149h 0.442913v -19.9724h 0.442913v 29.9586h 0.442913v 19.9724h 0.442913v -13.3149h 0.442913v -9.98621h 0.442913v -3.32874h 0.442913v 9.98621h 0.442913v
 19.9724h 0.442913v 6.65747h 0.442913v 3.32874h 0.442913v -33.2874h 0.442913v 46.6023h 0.442913v -19.9724h 0.442913v 9.98621h 0.442913v -13.3149h 0.442913v 6.65747h 0.442913v 16.6437h 0.442913v -16.6437h 0.442913v 3.32874h 0.442913v 13.3149h
 0.442913v 16.6437h 0.442913v -16.6437h 0.442913v 13.3149h 0.442913v -19.9724h 0.442913v 23.3012h 0.442913v -9.98621h 0.442913v 6.65747h 0.442913v 3.32874h 0.442913v 6.65747h 0.442913v -19.9724h 0.442913v 9.98621h 0.442913v 3.32874h 0.442913v
 -3.32874h 0.442913v 6.65747h 0.885827v 6.65747h 0.442913v -9.98621h 0.442913v 9.98621h 0.442913v -6.65747h 0.442913v -13.3149h 0.442913v 16.6437h 0.885827v -6.65747h 0.442913v 9.98621h 0.442913v -6.65747h 0.442913v 3.32874h 0.885827v 6.65747h
 0.442913v -16.6437h 0.442913v -3.32874h 0.442913v 6.65747h 0.442913v 6.65747h 0.442913v -6.65747h 0.442913v 6.65747h 0.442913v -3.32874h 0.442913v -6.65747h 0.442913v -6.65747h 0.442913v 16.6437h 0.885827v 6.65747h 0.442913v -9.98621h 0.442913v
 9.98621h 0.885827v -23.3012h 0.442913v 9.98621h 0.442913v 6.65747h 0.442913v -3.32874h 0.442913v 3.32874h 0.885827v -9.98621h 0.442913v 9.98621h 0.442913v -13.3149h 0.442913v -3.32874h 0.442913v 9.98621h 0.442913v 6.65747h 0.885827v -9.98621h
 0.442913v 13.3149h 0.442913v -9.98621h 0.442913v -9.98621h 0.442913v 13.3149h 0.442913v 6.65747h 0.442913v -6.65747h 0.442913v 9.98621h 1.32874v -6.65747h 0.442913v 3.32874h 0.442913v -6.65747h 0.442913v 9.98621h 0.442913v -29.9586h 0.442913v
 23.3012h 0.885827v -3.32874h 0.442913v 9.98621h 0.442913v -6.65747h 0.442913v 6.65747h 0.442913v -6.65747h 0.442913v 3.32874h 0.442913v -3.32874h 0.885827v 6.65747h 0.885827v -9.98621h 0.885827v 3.32874h 0.885827v 3.32874h 0.442913v 3.32874h
 0.442913v -13.3149h 0.442913v 3.32874h 0.442913v 6.65747h 0.442913v -6.65747h 0.442913v 9.98621h 0.442913v -9.98621h 0.442913v 9.98621h 0.442913v -16.6437h 0.442913v 6.65747h 0.442913v 3.32874h 0.442913v 3.32874h 0.885827v -3.32874h 0.442913v
 -3.32874h 0.442913v 3.32874h 0.442913v 6.65747h 0.442913v -6.65747h 0.885827v 6.65747h 0.442913v -6.65747h 0.885827v 3.32874h 0.885827v -3.32874h 1.32874v -3.32874h 0.442913v 9.98621h 0.442913v -13.3149h 0.442913v 9.98621h 0.442913v 3.32874h
 0.442913v -9.98621h 0.885827v 9.98621h 0.442913v -19.9724h 0.442913v 3.32874h 0.442913v 9.98621h 0.442913v 3.32874h 0.442913v 3.32874h 0.442913v -9.98621h 0.442913v 3.32874h 1.77165v -3.32874h 0.442913v -6.65747h 0.442913v 16.6437h 0.442913v
 -6.65747h 0.442913v 6.65747h 0.885827v -9.98621h 0.442913v -6.65747h 0.442913v 9.98621h 0.885827v -3.32874h 0.442913v 6.65747h 0.442913v -3.32874h 0.885827v -9.98621h 0.442913v 6.65747h 0.442913v 6.65747h 0.442913v -3.32874h 0.442913v -3.32874h
 0.442913v 6.65747h 0.442913v -6.65747h 0.442913v -6.65747h 0.442913v 9.98621h 1.77165v 3.32874h 0.442913v -6.65747h 0.885827v 6.65747h 0.442913v -23.3012h 0.442913v 16.6437h 0.885827v -3.32874h 0.442913v 3.32874h 0.885827v -3.32874h 0.442913v
 -3.32874h 0.442913v 3.32874h 0.442913v 3.32874h 0.442913v 3.32874h 0.442913v -6.65747h 0.442913v 6.65747h 0.442913v -6.65747h 0.442913v 6.65747h 0.442913v -3.32874h 0.885827v -13.3149h 0.442913v 9.98621h 0.885827v 3.32874h 0.885827v -3.32874h
 0.885827v 6.65747h 0.442913v -3.32874h 0.442913v 6.65747h 0.442913v -9.98621h 0.885827v 6.65747h 0.442913v 3.32874h 0.442913v -6.65747h 0.442913v 6.65747h 0.442913v -3.32874h 0.442913v -3.32874h 0.442913v 3.32874h 0.442913v -13.3149h 0.442913v
 9.98621h 0.885827v -9.98621h 0.442913v -23.3012h 0.442913v 23.3012h 0.442913v -3.32874h 0.442913v 6.65747h 0.885827v -3.32874h 0.442913v -3.32874h 0.442913v 9.98621h 0.885827v 6.65747h 0.442913v -23.3012h 0.442913v 3.32874h 0.442913v 3.32874h
 0.885827v 3.32874h 0.885827v 6.65747h 0.442913v -13.3149h 0.442913v 3.32874h 0.442913v -9.98621h 0.442913v 9.98621h 0.442913v -9.98621h 0.442913v 16.6437h 0.442913v -6.65747h 0.442913v -13.3149h 0.442913v 6.65747h 0.442913v -13.3149h 0.442913v
 6.65747h 0.442913v 9.98621h 0.442913v 13.3149h 0.442913v -19.9724h 0.442913v -3.32874h 0.442913v 3.32874h 0.442913v -9.98621h 0.442913v 13.3149h 0.442913v -6.65747h 0.442913v 3.32874h 0.885827v 6.65747h 0.442913v -29.9586h 0.442913v 36.6161h
 0.442913v -9.98621h 0.442913v 3.32874h 0.442913v 13.3149h 0.442913v -13.3149h 0.442913v -26.6299h 0.442913v 33.2874h 0.442913v -23.3012h 0.442913v 23.3012h 0.442913v -6.65747h 0.885827v 19.9724h 0.442913v -33.2874h 0.442913v -13.3149h 0.442913v
 23.3012h 0.442913v 13.3149h 0.442913v -13.3149h 0.885827v 16.6437h 0.442913v -26.6299h 0.442913v 16.6437h 0.885827v -3.32874h 0.442913v -6.65747h 0.442913v 9.98621h 0.442913v -26.6299h 0.442913v 19.9724h 0.442913v 13.3149h 0.442913v -19.9724h
 0.442913v 23.3012h 0.442913v -13.3149h 0.885827v 6.65747h 0.442913v -6.65747h 0.442913v 6.65747h 0.442913v -9.98621h 0.442913v 9.98621h 0.442913v 3.32874h 0.442913v -6.65747h 0.442913v -3.32874h 0.442913v 19.9724h 0.442913v -13.3149h 0.442913v
 -3.32874h 0.442913v -3.32874h 0.442913v -23.3012h 0.442913v 26.6299h 0.885827v 16.6437h 0.442913v -6.65747h 0.442913v -3.32874h 0.442913v -19.9724h 0.885827v 33.2874h 0.442913v -33.2874h 0.442913v 6.65747h 0.442913v 3.32874h 0.442913v -23.3012h
 0.442913v 39.9448h 0.442913v -36.6161h 0.442913v 19.9724h 0.442913v -6.65747h 0.442913v 3.32874h 0.442913v -13.3149h 0.442913v 16.6437h 0.442913v -36.6161h 0.442913v 13.3149h 0.442913v -9.98621h 0.442913v 19.9724h 1.32874v -39.9448h 0.442913v
 6.65747h 0.442913v -13.3149h 0.442913v 13.3149h 0.442913v 6.65747h 0.442913v -59.9173h 0.442913v 29.9586h 0.442913v 19.9724h 0.442913v -49.9311h 0.442913v -3.32874h 0.442913v 16.6437h 0.442913v 6.65747h 0.442913v -16.6437h 0.442913v 9.98621h
 0.442913v -53.2598h 0.442913v 29.9586h 0.442913v -16.6437h 0.885827v -13.3149h 0.442913v -9.98621h 0.442913v -19.9724h 0.442913v 39.9448h 0.442913v 13.3149h 0.442913v -53.2598h 0.442913v 33.2874h 0.442913v -13.3149h 0.442913v -26.6299h 0.442913v
 26.6299h 0.442913v -59.9173h 0.442913v 49.9311h 0.442913v -13.3149h 0.442913v -23.3012h 0.442913v 9.98621h 0.442913v 29.9586h 0.442913v 23.3012h 0.442913v -83.2184h 0.442913v 79.8897h 0.442913v -29.9586h 0.442913v 19.9724h 0.442913v 29.9586h
 0.442913v -73.2322h 0.442913v 83.2184h 0.442913v 13.3149h 0.442913v -3.32874h 0.442913v -9.98621h 0.442913v -29.9586h 0.442913v 56.5885h 0.442913v 9.98621h 0.442913v 3.32874h 0.442913v -3.32874h 0.442913v -9.98621h 0.442913v 39.9448h 0.442913v
 -29.9586h 0.442913v 29.9586h 0.885827v 9.98621h 0.442913v 13.3149h 0.885827v 6.65747h 0.442913v 6.65747h 0.442913v 19.9724h 0.442913v -6.65747h 0.442913v -19.9724h 0.442913v 23.3012h 0.885827v -16.6437h 0.442913v 6.65747h 0.885827v 16.6437h
 0.442913v 3.32874h 0.442913v -6.65747h 0.442913v 6.65747h 0.442913v -13.3149h 0.442913v 3.32874h 0.442913v 3.32874h 0.442913v 3.32874h 0.442913v 6.65747h 0.442913v -3.32874h 2.21457v 3.32874h 0.442913v -6.65747h 0.885827v 6.65747h 0.442913v
 -3.32874h 0.442913v -3.32874h 0.442913v 6.65747h 0.885827v -3.32874h 0.885827v -6.65747h 0.442913v 9.98621h 0.885827v -3.32874h 0.442913v 3.32874h 0.442913v -6.65747h 0.442913v 6.65747h 0.442913v -6.65747h 0.442913v 3.32874h 0.885827v 3.32874h
 0.442913v -3.32874h 1.32874v 3.32874h 3.10039v -3.32874h 0.442913v 3.32874h 2.21457v -6.65747h 0.442913v 6.65747h 0.442913v -3.32874h 0.442913v 3.32874h 0.442913v -3.32874h 0.442913v 3.32874h 0.885827v -6.65747h 0.442913v 3.32874h 0.442913v 3.32874h
 0.442913v -3.32874h 1.32874v 3.32874h 0.885827v -6.65747h 0.885827v 6.65747h 0.885827v -3.32874h 0.442913v -3.32874h 0.442913v 6.65747h 1.32874v -3.32874h 0.885827v 3.32874h 0.885827v -6.65747h 0.442913v 6.65747h 1.32874v -3.32874h 0.442913v
 3.32874h 0.442913v -3.32874h 0.442913v 3.32874h 2.65748v -3.32874h 0.442913v 3.32874h 0.442913v -3.32874h 0.442913v 3.32874h 0.442913v -6.65747h 0.442913v 3.32874h 0.442913v -3.32874h 0.442913v 6.65747h 1.32874v -3.32874h 0.885827v 3.32874h
 0.885827v -3.32874h 0.442913v 3.32874h 0.885827v -6.65747h 0.442913v 6.65747h 1.32874v -3.32874h 0.442913v 3.32874h 2.21457v -3.32874h 0.442913v 3.32874h 0.442913v -3.32874h 0.442913v -3.32874h 0.442913v 6.65747h 0.885827v -3.32874h 0.442913v
 3.32874h 0.885827v -3.32874h 0.442913v 3.32874h 1.32874v -3.32874h 0.442913v 3.32874h 0.885827v -3.32874h 0.442913v 3.32874h 1.77165v -3.32874h 0.442913v 3.32874h 0.885827v -3.32874h 0.885827v 3.32874h 3.10039v -6.65747h 0.442913v 3.32874h 0.442913v
 3.32874h 4.42913v -3.32874h 0.885827v 3.32874h 1.32874v -3.32874h 0.442913v 3.32874h 1.32874v -3.32874h 0.442913v 3.32874h 0.885827v -3.32874h 0.885827v 3.32874h 0.885827v -3.32874h 0.885827v 3.32874h 0.885827v -3.32874h 0.442913v 3.32874h 0.885827v
 -3.32874h 0.442913v 3.32874h 20.374v -3.32874h 0.442913v 3.32874h 7.52953v -3.32874h 0.442913v 3.32874h 6.20079v -3.32874h 0.442913v 3.32874h 0.442913v -6.65747h 0.442913v 3.32874h 0.442913v -6.65747h 0.442913v 9.98621h 0.442913v -3.32874h 1.32874v
 3.32874h 0.885827v -3.32874h 0.442913v 3.32874h 39.8622" fill="none" stroke="#000099"/>
<path d="M57.1929,346.022h 453.543" fill="none" stroke="black"/>
<path d="M57.1929,336.795v 9.22726" fill="none" stroke="black"/>
<path d="M66.2638,341.409v 4.61363" fill="none" stroke="black"/>
<path d="M75.3346,341.409v 4.61363" fill="none" stroke="black"/>
<path d="M84.4055,341.409v 4.61363" fill="none" stroke="black"/>
<path d="M93.4764,341.409v 4.61363" fill="none" stroke="black"/>
<path d="M102.547,336.795v 9.22726" fill="none" stroke="black"/>
<path d="M111.618,341.409v 4.61363" fill="none" stroke="black"/>
<path d="M120.689,341.409v 4.61363" fill="none" stroke="black"/>
<path d="M129.76,341.409v 4.61363" fill="none" stroke="black"/>
<path d="M138.831,341.409v 4.61363" fill="none" stroke="black"/>
<path d="M147.902,336.795v 9.22726" fill="none" stroke="black"/>
<path d="M156.972,341.409v 4.61363" fill="none" stroke="black"/>
<path d="M166.043,341.409v 4.61363" fill="none" stroke="black"/>
<path d="M175.114,341.409v 4.61363" fill="none" stroke="black"/>
<path d="M184.185,341.409v 4.61363" fill="none" stroke="black"/>
<path d="M193.256,336.795v 9.22726" fill="none" stroke="black"/>
<path d="M202.327,341.409v 4.61363" fill="none" stroke="black"/>
<path d="M211.398,341.409v 4.61363" fill="none" stroke="black"/>
<path d="M220.469,341.409v 4.61363" fill="none" stroke="black"/>
<path d="M229.539,341.409v 4.61363" fill="none" stroke="black"/>
<path d="M238.61,336.795v 9.22726" fill="none" stroke="black"/>
<path d="M247.681,341.409v 4.61363" fill="none" stroke="black"/>
<path d="M256.752,341.409v 4.61363" fill="none" stroke="black"/>
<path d="M265.823,341.409v 4.61363" fill="none" stroke="black"/>
<path d="M274.894,341.409v 4.61363" fill="none" stroke="black"/>
<path d="M283.965,336.795v 9.22726" fill="none" stroke="black"/>
<path d="M293.035,341.409v 4.61363" fill="none" stroke="black"/>
<path d="M302.106,341.409v 4.61363" fill="none" stroke="black"/>
<path d="M311.177,341.409v 4.61363" fill="none" stroke="black"/>
<path d="M320.248,341.409v 4.61363" fill="none" stroke="black"/>
<path d="M329.319,336.795v 9.22726" fill="none" stroke="black"/>
<path d="M338.39,341.409v 4.61363" fill="none" stroke="black"/>
<path d="M347.461,341.409v 4.61363" fill="none" stroke="black"/>
<path d="M356.531,341.409v 4.61363" fill="none" stroke="black"/>
<path d="M365.602,341.409v 4.61363" fill="none" stroke="black"/>
<path d="M374.673,336.795v 9.22726" fill="none" stroke="black"/>
<path d="M383.744,341.409v 4.61363" fill="none" stroke="black"/>
<path d="M392.815,341.409v 4.61363" fill="none" stroke="black"/>
<path d="M401.886,341.409v 4.61363" fill="none" stroke="black"/>
<path d="M410.957,341.409v 4.61363" fill="none" stroke="black"/>
<path d="M420.028,336.795v 9.22726" fill="none" stroke="black"/>
<path d="M429.098,341.409v 4.61363" fill="none" stroke="black"/>
<path d="M438.169,341.409v 4.61363" fill="none" stroke="black"/>
<path d="M447.24,341.409v 4.61363" fill="none" stroke="black"/>
<path d="M456.311,341.409v 4.61363" fill="none" stroke="black"/>
<path d="M465.382,336.795v 9.22726" fill="none" stroke="black"/>
<path d="M474.453,341.409v 4.61363" fill="none" stroke="black"/>
<path d="M483.524,341.409v 4.61363" fill="none" stroke="black"/>
<path d="M492.594,341.409v 4.61363" fill="none" stroke="black"/>
<path d="M501.665,341.409v 4.61363" fill="none" stroke="black"/>
<path d="M510.736,336.795v 9.22726" fill="none" stroke="black"/>
<text xml:space="preserve" x="53.446" y="358.403" fill="black" font-size="12.8453" font-family="Helvetica">0</text>
<text xml:space="preserve" x="95.8027" y="358.403" fill="black" font-size="12.8453" font-family="Helvetica">10</text>
<text xml:space="preserve" x="140.603" y="358.403" fill="black" font-size="12.8453" font-family="Helvetica">20</text>
<text xml:space="preserve" x="186.218" y="358.403" fill="black" font-size="12.8453" font-family="Helvetica">30</text>
<text xml:space="preserve" x="231.833" y="358.403" fill="black" font-size="12.8453" font-family="Helvetica">40</text>
<text xml:space="preserve" x="277.448" y="358.403" fill="black" font-size="12.8453" font-family="Helvetica">50</text>
<text xml:space="preserve" x="322.249" y="358.403" fill="black" font-size="12.8453" font-family="Helvetica">60</text>
<text xml:space="preserve" x="367.864" y="358.403" fill="black" font-size="12.8453" font-family="Helvetica">70</text>
<text xml:space="preserve" x="413.479" y="358.403" fill="black" font-size="12.8453" font-family="Helvetica">80</text>
<text xml:space="preserve" x="458.279" y="358.403" fill="black" font-size="12.8453" font-family="Helvetica">90</text>
<text xml:space="preserve" x="499.821" y="358.403" fill="black" font-size="12.8453" font-family="Helvetica">100</text>
<path d="M57.1929,346.022v -307.575" fill="none" stroke="black"/>
<path d="M70.7992,346.022h -13.6063" fill="none" stroke="black"/>
<path d="M63.9961,339.365h -6.80315" fill="none" stroke="black"/>
<path d="M63.9961,332.707h -6.80315" fill="none" stroke="black"/>
<path d="M63.9961,326.05h -6.80315" fill="none" stroke="black"/>
<path d="M63.9961,319.392h -6.80315" fill="none" stroke="black"/>
<path d="M70.7992,312.735h -13.6063" fill="none" stroke="black"/>
<path d="M63.9961,306.077h -6.80315" fill="none" stroke="black"/>
<path d="M63.9961,299.42h -6.80315" fill="none" stroke="black"/>
<path d="M63.9961,292.762h -6.80315" fill="none" stroke="black"/>
<path d="M63.9961,286.105h -6.80315" fill="none" stroke="black"/>
<path d="M70.7992,279.448h -13.6063" fill="none" stroke="black"/>
<path d="M63.9961,272.79h -6.80315" fill="none" stroke="black"/>
<path d="M63.9961,266.133h -6.80315" fill="none" stroke="black"/>
<path d="M63.9961,259.475h -6.80315" fill="none" stroke="black"/>
<path d="M63.9961,252.818h -6.80315" fill="none" stroke="black"/>
<path d="M70.7992,246.16h -13.6063" fill="none" stroke="black"/>
<path d="M63.9961,239.503h -6.80315" fill="none" stroke="black"/>
<path d="M63.9961,232.845h -6.80315" fill="none" stroke="black"/>
<path d="M63.9961,226.188h -6.80315" fill="none" stroke="black"/>
<path d="M63.9961,219.53h -6.80315" fill="none" stroke="black"/>
<path d="M70.7992,212.873h -13.6063" fill="none" stroke="black"/>
<path d="M63.9961,206.215h -6.80315" fill="none" stroke="black"/>
<path d="M63.9961,199.558h -6.80315" fill="none" stroke="black"/>
<path d="M63.9961,192.9h -6.80315" fill="none" stroke="black"/>
<path d="M63.9961,186.243h -6.80315" fill="none" stroke="black"/>
<path d="M70.7992,179.585h -13.6063" fill="none" stroke="black"/>
<path d="M63.9961,172.928h -6.80315" fill="none" stroke="black"/>
<path d="M63.9961,166.27h -6.80315" fill="none" stroke="black"/>
<path d="M63.9961,159.613h -6.80315" fill="none" stroke="black"/>
<path d="M63.9961,152.955h -6.80315" fill="none" stroke="black"/>
<path d="M70.7992,146.298h -13.6063" fill="none" stroke="black"/>
<path d="M63.9961,139.641h -6.80315" fill="none" stroke="black"/>
<path d="M63.9961,132.983h -6.80315" fill="none" stroke="black"/>
<path d="M63.9961,126.326h -6.80315" fill="none" stroke="black"/>
<path d="M63.9961,119.668h -6.80315" fill="none" stroke="black"/>
<path d="M70.7992,113.011h -13.6063" fill="none" stroke="black"/>
<path d="M63.9961,106.353h -6.80315" fill="none" stroke="black"/>
<path d="M63.9961,99.6957h -6.80315" fill="none" stroke="black"/>
<path d="M63.9961,93.0382h -6.80315" fill="none" stroke="black"/>
<path d="M63.9961,86.3807h -6.80315" fill="none" stroke="black"/>
<path d="M70.7992,79.7233h -13.6063" fill="none" stroke="black"/>
<path d="M63.9961,73.0658h -6.80315" fill="none" stroke="black"/>
<path d="M63.9961,66.4083h -6.80315" fill="none" stroke="black"/>
<path d="M63.9961,59.7508h -6.80315" fill="none" stroke="black"/>
<path d="M63.9961,53.0934h -6.80315" fill="none" stroke="black"/>
<path d="M70.7992,46.4359h -13.6063" fill="none" stroke="black"/>
<path d="M70.7992,46.4359h -13.6063" fill="none" stroke="black"/>
<path d="M63.9961,39.7784h -6.80315" fill="none" stroke="black"/>
<text xml:space="preserve" x="47.7441" y="350.258" fill="black" font-size="12.8453" font-family="Helvetica">0</text>
<text xml:space="preserve" x="41.2277" y="316.861" fill="black" font-size="12.8453" font-family="Helvetica">10</text>
<text xml:space="preserve" x="41.2277" y="284.279" fill="black" font-size="12.8453" font-family="Helvetica">20</text>
<text xml:space="preserve" x="41.2277" y="250.882" fill="black" font-size="12.8453" font-family="Helvetica">30</text>
<text xml:space="preserve" x="41.2277" y="217.486" fill="black" font-size="12.8453" font-family="Helvetica">40</text>
<text xml:space="preserve" x="41.2277" y="184.089" fill="black" font-size="12.8453" font-family="Helvetica">50</text>
<text xml:space="preserve" x="41.2277" y="150.692" fill="black" font-size="12.8453" font-family="Helvetica">60</text>
<text xml:space="preserve" x="41.2277" y="117.296" fill="black" font-size="12.8453" font-family="Helvetica">70</text>
<text xml:space="preserve" x="41.2277" y="83.899" fill="black" font-size="12.8453" font-family="Helvetica">80</text>
<text xml:space="preserve" x="41.2277" y="51.3169" fill="black" font-size="12.8453" font-family="Helvetica">90</text>
<text xml:space="preserve" x="206.582" y="18.7347" fill="black" font-size="18.0316" font-family="Helvetica">Am_007_calibrated</text>
<rect x="442.705" y="24.9905" width="113.386" height="61.5151" fill="white"/>
<path d="M442.705,86.5056h 113.386" fill="none" stroke="black"/>
<path d="M556.091,86.5056v -61.5151" fill="none" stroke="black"/>
<path d="M556.091,24.9905h -113.386" fill="none" stroke="black"/>
<path d="M442.705,24.9905v 61.5151" fill="none" stroke="black"/>
<text xml:space="preserve" x="446.061" y="36.6549" fill="black" font-size="12.1556" font-family="Helvetica">Am_007_calibrated</text>
<path d="M442.705,40.3693h 113.386" fill="none" stroke="black"/>
<text xml:space="preserve" x="447.69" y="52.946" fill="black" font-size="12.7186" font-family="Helvetica">Entries </text>
<text xml:space="preserve" x="512.854" y="52.946" fill="black" font-size="12.7186" font-family="Helvetica"> 11066</text>
<text xml:space="preserve" x="447.69" y="67.6079" fill="black" font-size="12.7186" font-family="Helvetica">Mean  </text>
<text xml:space="preserve" x="512.854" y="67.6079" fill="black" font-size="12.7186" font-family="Helvetica">  31.36</text>
<text xml:space="preserve" x="447.69" y="83.0844" fill="black" font-size="12.7186" font-family="Helvetica">Std Dev   </text>
<text xml:space="preserve" x="512.854" y="83.0844" fill="black" font-size="12.7186" font-family="Helvetica">  19.48</text>
<text xml:space="preserve" x="206.582" y="18.7347" fill="black" font-size="18.0316" font-family="Helvetica">Am_007_calibrated</text></svg>
