<?xml version="1.0" standalone="no"?>
<svg width="567.429" height="384.969" viewBox="0 0 567.429 384.969" xmlns="http://www.w3.org/2000/svg" shape-rendering="crispEdges">
<title>
img/week1/calibrated_hist_low_gain/Am_007.svg
</title>
<desc>
Creator: ROOT Version 6.22/09
CreationDate: Tue Jul 13 11:02:17 2021</desc>
<defs>
</defs>
<rect x="0.5" y="0" width="566.929" height="384.469" fill="white"/>
<rect x="57.1929" y="38.4469" width="453.543" height="307.575" fill="white"/>
<rect x="57.1929" y="38.4469" width="453.543" height="307.575" fill="none" stroke="black"/>
<path d="M57.1929,346.022h 25.689v -4.33969h 0.442913v -15.1889h 0.442913v -23.8683h 0.442913v 6.50953h 0.442913v -2.16984h 0.442913v 4.33969h 0.442913v -17.3587h 0.442913v 19.5286h 0.442913v -34.7175h 0.442913v 6.50953h 0.442913v 26.0381h 0.442913v
 -13.0191h 0.442913v 6.50953h 0.442913v -2.16984h 0.442913v 6.50953h 0.442913v -21.6984h 0.442913v 28.208h 0.442913v -13.0191h 0.442913v 15.1889h 0.442913v 2.16984h 0.442913v -8.67937h 0.442913v -30.3778h 0.442913v 39.0572h 0.442913v -23.8683h
 0.442913v 23.8683h 0.442913v 8.67937h 0.442913v -13.0191h 0.442913v -4.33969h 0.442913v -17.3587h 0.442913v -6.50953h 0.442913v 15.1889h 0.442913v 6.50953h 0.442913v 4.33969h 0.442913v -6.50953h 0.442913v -10.8492h 0.442913v 4.33969h 0.442913v
 8.67937h 0.885827v 10.8492h 0.442913v -15.1889h 0.885827v -15.1889h 0.442913v 15.1889h 0.885827v 4.33969h 0.442913v 6.50953h 0.442913v -10.8492h 0.442913v 2.16984h 0.442913v -8.67937h 0.442913v 10.8492h 0.442913v -15.1889h 0.442913v 10.8492h
 0.442913v 15.1889h 0.442913v -10.8492h 0.442913v -23.8683h 0.442913v 28.208h 0.442913v -8.67937h 0.442913v -6.50953h 0.442913v 2.16984h 0.442913v -4.33969h 0.442913v 8.67937h 0.442913v -19.5286h 0.442913v -6.50953h 0.442913v 15.1889h 0.442913v
 2.16984h 0.442913v -4.33969h 0.442913v 13.0191h 0.442913v -19.5286h 0.442913v -15.1889h 0.442913v 19.5286h 0.442913v 13.0191h 0.885827v -19.5286h 0.442913v -2.16984h 0.442913v -30.3778h 0.442913v -2.16984h 0.442913v 30.3778h 0.885827v 13.0191h
 0.442913v -28.208h 0.442913v -21.6984h 0.442913v 23.8683h 0.442913v -15.1889h 0.442913v 17.3587h 0.442913v 15.1889h 0.442913v -15.1889h 0.442913v -26.0381h 0.885827v -6.50953h 0.442913v -2.16984h 0.442913v 39.0572h 0.442913v 2.16984h 0.442913v
 -41.227h 0.442913v 32.5477h 0.442913v -30.3778h 0.442913v -4.33969h 0.442913v 26.0381h 0.442913v -10.8492h 0.442913v -23.8683h 0.442913v -17.3587h 0.442913v -28.208h 0.442913v 10.8492h 0.442913v -13.0191h 0.442913v 28.208h 0.442913v -4.33969h
 0.442913v -32.5477h 0.442913v 2.16984h 0.442913v -13.0191h 0.442913v 13.0191h 0.442913v -36.8873h 0.442913v -2.16984h 0.442913v 23.8683h 0.442913v -47.7366h 0.442913v -2.16984h 0.442913v -13.0191h 0.442913v -15.1889h 0.442913v 71.6048h 0.442913v
 -8.67937h 0.442913v -10.8492h 0.442913v -17.3587h 0.442913v 4.33969h 0.442913v -43.3969h 0.442913v -17.3587h 0.442913v 119.341h 0.442913v -19.5286h 0.442913v -15.1889h 0.442913v -15.1889h 0.442913v 13.0191h 0.885827v 21.6984h 0.442913v 2.16984h
 0.442913v 2.16984h 0.442913v 10.8492h 0.442913v -47.7366h 0.442913v 54.2461h 0.442913v -30.3778h 0.442913v 23.8683h 0.442913v 15.1889h 0.442913v -36.8873h 0.442913v 17.3587h 0.442913v 26.0381h 0.442913v -6.50953h 0.442913v 45.5667h 0.885827v
 -10.8492h 0.442913v -26.0381h 0.442913v 26.0381h 0.442913v 6.50953h 0.442913v -30.3778h 0.442913v 30.3778h 0.442913v 15.1889h 0.442913v -34.7175h 0.442913v 23.8683h 0.442913v -13.0191h 0.442913v -6.50953h 0.442913v 13.0191h 0.442913v 52.0762h
 0.442913v -45.5667h 0.442913v -32.5477h 0.442913v 32.5477h 0.442913v -4.33969h 0.442913v 4.33969h 0.442913v 15.1889h 0.442913v 6.50953h 0.442913v -10.8492h 0.442913v 17.3587h 0.442913v -32.5477h 0.442913v 10.8492h 0.442913v -4.33969h 0.442913v
 49.9064h 0.442913v -28.208h 0.442913v -19.5286h 0.442913v 36.8873h 0.442913v -8.67937h 0.442913v 8.67937h 0.442913v -2.16984h 0.442913v 28.208h 0.442913v -30.3778h 0.442913v 6.50953h 0.442913v 8.67937h 0.442913v -4.33969h 0.442913v -8.67937h
 0.442913v 36.8873h 0.442913v 10.8492h 0.442913v -15.1889h 0.442913v -2.16984h 0.442913v 4.33969h 0.442913v -10.8492h 0.442913v 10.8492h 0.442913v 6.50953h 0.442913v 4.33969h 0.442913v -13.0191h 0.442913v 19.5286h 0.442913v -6.50953h 0.442913v
 10.8492h 0.885827v -6.50953h 0.442913v -13.0191h 0.442913v -6.50953h 0.442913v 4.33969h 0.885827v -6.50953h 0.442913v 13.0191h 0.885827v -4.33969h 0.442913v -6.50953h 0.885827v 6.50953h 0.442913v 19.5286h 0.885827v -32.5477h 0.885827v 4.33969h
 0.442913v 6.50953h 0.442913v 4.33969h 0.442913v -4.33969h 0.442913v 2.16984h 0.442913v -4.33969h 0.442913v -6.50953h 0.442913v 17.3587h 0.442913v -10.8492h 0.442913v 21.6984h 0.442913v -8.67937h 0.442913v -10.8492h 0.442913v 2.16984h 0.442913v
 17.3587h 0.442913v -21.6984h 0.442913v 4.33969h 0.442913v 17.3587h 0.442913v -8.67937h 0.442913v 8.67937h 0.442913v -4.33969h 0.442913v -8.67937h 0.442913v 19.5286h 0.442913v -8.67937h 0.442913v 13.0191h 0.885827v -8.67937h 0.442913v 2.16984h
 0.442913v 2.16984h 0.442913v 6.50953h 0.442913v -2.16984h 0.442913v -2.16984h 0.442913v 2.16984h 0.442913v -6.50953h 0.885827v 2.16984h 0.442913v 10.8492h 0.442913v -2.16984h 0.442913v -2.16984h 0.442913v 2.16984h 0.885827v -2.16984h 0.442913v
 2.16984h 0.442913v 4.33969h 0.442913v -6.50953h 0.442913v 4.33969h 0.442913v 2.16984h 0.442913v -4.33969h 0.442913v -2.16984h 0.442913v -4.33969h 0.442913v 6.50953h 0.885827v -4.33969h 0.442913v 8.67937h 0.442913v -4.33969h 0.442913v 2.16984h
 0.885827v -4.33969h 0.442913v 4.33969h 0.442913v -8.67937h 0.442913v 6.50953h 1.32874v 2.16984h 0.442913v -2.16984h 0.442913v 2.16984h 2.21457v -2.16984h 0.442913v 4.33969h 0.442913v -6.50953h 0.442913v 6.50953h 0.442913v -6.50953h 0.442913v
 4.33969h 1.32874v 2.16984h 0.442913v -10.8492h 0.442913v 6.50953h 0.442913v -2.16984h 0.442913v 6.50953h 0.885827v -4.33969h 0.442913v -2.16984h 0.885827v -8.67937h 0.442913v 15.1889h 0.442913v -2.16984h 0.442913v 2.16984h 2.21457v -2.16984h
 0.442913v 2.16984h 0.442913v -2.16984h 0.442913v -4.33969h 0.885827v 4.33969h 0.442913v 2.16984h 0.442913v -4.33969h 0.442913v 2.16984h 0.442913v 2.16984h 0.442913v -2.16984h 0.442913v 2.16984h 0.442913v -2.16984h 0.442913v 2.16984h 0.442913v
 -2.16984h 0.442913v 2.16984h 0.442913v -2.16984h 0.885827v 2.16984h 1.32874v -2.16984h 0.885827v 2.16984h 0.442913v -4.33969h 0.442913v 2.16984h 0.442913v 2.16984h 0.442913v -2.16984h 0.442913v 2.16984h 0.442913v -4.33969h 1.32874v 2.16984h
 0.442913v 2.16984h 0.442913v -6.50953h 0.442913v 2.16984h 0.442913v 2.16984h 0.442913v -4.33969h 0.442913v 6.50953h 0.442913v -4.33969h 0.442913v 4.33969h 0.885827v -2.16984h 0.442913v 2.16984h 0.885827v -4.33969h 0.442913v 2.16984h 0.442913v
 -2.16984h 0.442913v -2.16984h 0.442913v 6.50953h 0.885827v -2.16984h 0.442913v 2.16984h 0.885827v -4.33969h 0.442913v 4.33969h 0.442913v -8.67937h 0.442913v 6.50953h 0.885827v 2.16984h 1.32874v -4.33969h 0.442913v 4.33969h 0.442913v -4.33969h
 0.442913v 2.16984h 0.885827v -2.16984h 0.442913v 4.33969h 0.442913v -2.16984h 0.885827v -2.16984h 0.442913v -2.16984h 0.442913v 2.16984h 0.885827v 2.16984h 0.885827v -2.16984h 0.885827v 2.16984h 0.442913v -2.16984h 0.442913v -4.33969h 0.442913v
 6.50953h 0.885827v -4.33969h 0.442913v 4.33969h 0.442913v 2.16984h 0.442913v -2.16984h 0.442913v 2.16984h 0.885827v -4.33969h 0.885827v 4.33969h 1.32874v -4.33969h 0.442913v 4.33969h 0.442913v -4.33969h 0.442913v 2.16984h 0.442913v -4.33969h
 0.885827v 2.16984h 0.885827v -2.16984h 0.885827v 2.16984h 0.442913v 2.16984h 1.32874v -4.33969h 0.442913v 2.16984h 0.885827v 2.16984h 0.885827v -2.16984h 0.885827v 2.16984h 0.442913v -2.16984h 0.885827v 2.16984h 0.885827v 2.16984h 0.442913v
 -4.33969h 0.442913v -2.16984h 0.442913v 6.50953h 0.442913v -4.33969h 0.442913v 4.33969h 0.442913v -2.16984h 1.32874v 2.16984h 0.442913v -4.33969h 0.442913v -4.33969h 0.442913v 4.33969h 0.442913v -4.33969h 0.442913v 2.16984h 0.442913v -10.8492h
 0.442913v 15.1889h 0.442913v -4.33969h 0.442913v 2.16984h 0.442913v -2.16984h 1.32874v -2.16984h 0.885827v 2.16984h 0.442913v -4.33969h 0.442913v 2.16984h 0.885827v 4.33969h 0.442913v -2.16984h 0.442913v -2.16984h 0.442913v 2.16984h 0.442913v
 -4.33969h 0.442913v -13.0191h 0.442913v 17.3587h 0.442913v -4.33969h 0.442913v -2.16984h 0.885827v -6.50953h 0.442913v -2.16984h 0.442913v 17.3587h 0.442913v -15.1889h 0.442913v 4.33969h 0.442913v 10.8492h 0.885827v -13.0191h 0.442913v 8.67937h
 0.442913v -4.33969h 0.885827v 6.50953h 0.442913v -8.67937h 0.442913v 2.16984h 0.442913v -4.33969h 0.442913v 8.67937h 0.442913v 4.33969h 0.442913v -6.50953h 0.885827v 8.67937h 0.442913v -13.0191h 0.442913v 4.33969h 0.442913v 2.16984h 0.442913v
 6.50953h 0.442913v -4.33969h 0.442913v -6.50953h 0.442913v -2.16984h 0.442913v 6.50953h 0.442913v -6.50953h 0.885827v 10.8492h 0.442913v -10.8492h 0.442913v 2.16984h 0.442913v 8.67937h 0.442913v 2.16984h 0.442913v -4.33969h 0.442913v -10.8492h
 0.442913v 2.16984h 0.442913v 10.8492h 0.885827v -17.3587h 0.442913v 13.0191h 0.442913v -4.33969h 0.442913v 4.33969h 0.442913v -8.67937h 0.442913v 10.8492h 0.442913v 2.16984h 0.442913v -2.16984h 0.442913v 4.33969h 0.442913v -4.33969h 0.442913v
 2.16984h 0.442913v 2.16984h 0.442913v -4.33969h 0.442913v -2.16984h 0.442913v 4.33969h 0.442913v -4.33969h 0.442913v 8.67937h 0.442913v -6.50953h 0.885827v -4.33969h 0.442913v -2.16984h 0.442913v 10.8492h 0.442913v -4.33969h 0.442913v 2.16984h
 0.885827v -2.16984h 0.442913v 4.33969h 0.442913v -13.0191h 0.442913v 8.67937h 0.442913v -2.16984h 0.442913v 2.16984h 0.442913v 2.16984h 0.442913v -8.67937h 0.885827v 6.50953h 0.442913v 6.50953h 0.442913v -13.0191h 0.442913v 2.16984h 0.442913v
 2.16984h 0.885827v 2.16984h 0.442913v -10.8492h 0.442913v 6.50953h 0.885827v 2.16984h 0.442913v -4.33969h 0.442913v -4.33969h 0.442913v -6.50953h 0.442913v 6.50953h 0.442913v -2.16984h 0.442913v -8.67937h 0.442913v 6.50953h 0.442913v -4.33969h
 0.442913v 6.50953h 0.885827v -4.33969h 0.442913v -17.3587h 0.442913v 15.1889h 0.442913v -2.16984h 0.442913v -13.0191h 0.442913v -13.0191h 0.442913v 15.1889h 0.442913v 4.33969h 0.442913v -8.67937h 0.442913v -2.16984h 0.442913v -15.1889h 0.442913v
 -8.67937h 0.442913v 2.16984h 0.442913v 26.0381h 0.442913v -8.67937h 0.442913v -2.16984h 0.442913v -10.8492h 0.442913v -15.1889h 0.442913v 17.3587h 0.442913v -10.8492h 0.442913v 10.8492h 0.442913v 2.16984h 0.885827v -10.8492h 0.442913v 6.50953h
 0.442913v 2.16984h 0.442913v 19.5286h 1.32874v -15.1889h 0.442913v -8.67937h 0.442913v 4.33969h 0.442913v 26.0381h 0.442913v -4.33969h 0.442913v -15.1889h 0.442913v 17.3587h 0.442913v 21.6984h 0.442913v -21.6984h 0.442913v 13.0191h 0.442913v
 -8.67937h 0.442913v 6.50953h 0.442913v -8.67937h 0.442913v 10.8492h 0.442913v 6.50953h 0.442913v 8.67937h 0.442913v -6.50953h 0.885827v 6.50953h 0.442913v 6.50953h 0.442913v -6.50953h 0.442913v -2.16984h 0.442913v 4.33969h 0.442913v -4.33969h
 0.442913v 10.8492h 0.442913v -2.16984h 0.442913v -2.16984h 0.442913v -10.8492h 0.442913v 10.8492h 0.442913v 2.16984h 0.442913v 2.16984h 0.442913v -4.33969h 0.442913v 4.33969h 0.442913v -2.16984h 0.885827v 2.16984h 0.442913v -2.16984h 0.442913v
 2.16984h 0.885827v -2.16984h 0.442913v 2.16984h 1.77165v -4.33969h 0.442913v 4.33969h 1.77165v -2.16984h 0.885827v 2.16984h 0.885827v -2.16984h 0.442913v 2.16984h 0.442913v -2.16984h 0.885827v 2.16984h 3.10039v -2.16984h 0.442913v 2.16984h 3.98622v
 -2.16984h 0.442913v 2.16984h 0.885827v -2.16984h 0.442913v 2.16984h 0.885827v -2.16984h 0.885827v 2.16984h 5.31496v -2.16984h 0.885827v 2.16984h 0.442913v -2.16984h 0.442913v 2.16984h 0.442913v -2.16984h 0.442913v 2.16984h 2.21457v -2.16984h
 0.442913v 2.16984h 6.6437v -2.16984h 0.442913v 2.16984h 0.442913v -2.16984h 0.442913v 2.16984h 4.42913v -2.16984h 0.442913v 2.16984h 0.442913v -2.16984h 0.442913v 2.16984h 3.98622v -2.16984h 0.442913v 2.16984h 2.21457v -4.33969h 0.442913v 4.33969h
 1.77165v -4.33969h 0.442913v 4.33969h 6.20079v -2.16984h 0.442913v 2.16984h 3.10039v -2.16984h 0.442913v 2.16984h 5.31496v -2.16984h 0.442913v 2.16984h 0.442913v -2.16984h 0.442913v 2.16984h 2.21457v -2.16984h 0.442913v 2.16984h 2.21457v -2.16984h
 0.442913v 2.16984h 0.885827v -2.16984h 0.442913v 2.16984h 23.0315v -2.16984h 0.442913v 2.16984h 5.75787v -2.16984h 0.442913v 2.16984h 7.52953v -2.16984h 0.885827v -2.16984h 0.442913v 4.33969h 1.32874v -2.16984h 0.442913v 2.16984h 0.442913v -2.16984h
 0.442913v 2.16984h 32.3327" fill="none" stroke="#000099"/>
<path d="M57.1929,346.022h 453.543" fill="none" stroke="black"/>
<path d="M57.1929,336.795v 9.22726" fill="none" stroke="black"/>
<path d="M66.2638,341.409v 4.61363" fill="none" stroke="black"/>
<path d="M75.3346,341.409v 4.61363" fill="none" stroke="black"/>
<path d="M84.4055,341.409v 4.61363" fill="none" stroke="black"/>
<path d="M93.4764,341.409v 4.61363" fill="none" stroke="black"/>
<path d="M102.547,336.795v 9.22726" fill="none" stroke="black"/>
<path d="M111.618,341.409v 4.61363" fill="none" stroke="black"/>
<path d="M120.689,341.409v 4.61363" fill="none" stroke="black"/>
<path d="M129.76,341.409v 4.61363" fill="none" stroke="black"/>
<path d="M138.831,341.409v 4.61363" fill="none" stroke="black"/>
<path d="M147.902,336.795v 9.22726" fill="none" stroke="black"/>
<path d="M156.972,341.409v 4.61363" fill="none" stroke="black"/>
<path d="M166.043,341.409v 4.61363" fill="none" stroke="black"/>
<path d="M175.114,341.409v 4.61363" fill="none" stroke="black"/>
<path d="M184.185,341.409v 4.61363" fill="none" stroke="black"/>
<path d="M193.256,336.795v 9.22726" fill="none" stroke="black"/>
<path d="M202.327,341.409v 4.61363" fill="none" stroke="black"/>
<path d="M211.398,341.409v 4.61363" fill="none" stroke="black"/>
<path d="M220.469,341.409v 4.61363" fill="none" stroke="black"/>
<path d="M229.539,341.409v 4.61363" fill="none" stroke="black"/>
<path d="M238.61,336.795v 9.22726" fill="none" stroke="black"/>
<path d="M247.681,341.409v 4.61363" fill="none" stroke="black"/>
<path d="M256.752,341.409v 4.61363" fill="none" stroke="black"/>
<path d="M265.823,341.409v 4.61363" fill="none" stroke="black"/>
<path d="M274.894,341.409v 4.61363" fill="none" stroke="black"/>
<path d="M283.965,336.795v 9.22726" fill="none" stroke="black"/>
<path d="M293.035,341.409v 4.61363" fill="none" stroke="black"/>
<path d="M302.106,341.409v 4.61363" fill="none" stroke="black"/>
<path d="M311.177,341.409v 4.61363" fill="none" stroke="black"/>
<path d="M320.248,341.409v 4.61363" fill="none" stroke="black"/>
<path d="M329.319,336.795v 9.22726" fill="none" stroke="black"/>
<path d="M338.39,341.409v 4.61363" fill="none" stroke="black"/>
<path d="M347.461,341.409v 4.61363" fill="none" stroke="black"/>
<path d="M356.531,341.409v 4.61363" fill="none" stroke="black"/>
<path d="M365.602,341.409v 4.61363" fill="none" stroke="black"/>
<path d="M374.673,336.795v 9.22726" fill="none" stroke="black"/>
<path d="M383.744,341.409v 4.61363" fill="none" stroke="black"/>
<path d="M392.815,341.409v 4.61363" fill="none" stroke="black"/>
<path d="M401.886,341.409v 4.61363" fill="none" stroke="black"/>
<path d="M410.957,341.409v 4.61363" fill="none" stroke="black"/>
<path d="M420.028,336.795v 9.22726" fill="none" stroke="black"/>
<path d="M429.098,341.409v 4.61363" fill="none" stroke="black"/>
<path d="M438.169,341.409v 4.61363" fill="none" stroke="black"/>
<path d="M447.24,341.409v 4.61363" fill="none" stroke="black"/>
<path d="M456.311,341.409v 4.61363" fill="none" stroke="black"/>
<path d="M465.382,336.795v 9.22726" fill="none" stroke="black"/>
<path d="M474.453,341.409v 4.61363" fill="none" stroke="black"/>
<path d="M483.524,341.409v 4.61363" fill="none" stroke="black"/>
<path d="M492.594,341.409v 4.61363" fill="none" stroke="black"/>
<path d="M501.665,341.409v 4.61363" fill="none" stroke="black"/>
<path d="M510.736,336.795v 9.22726" fill="none" stroke="black"/>
<text xml:space="preserve" x="53.446" y="358.403" fill="black" font-size="12.8453" font-family="Helvetica">0</text>
<text xml:space="preserve" x="95.8027" y="358.403" fill="black" font-size="12.8453" font-family="Helvetica">10</text>
<text xml:space="preserve" x="140.603" y="358.403" fill="black" font-size="12.8453" font-family="Helvetica">20</text>
<text xml:space="preserve" x="186.218" y="358.403" fill="black" font-size="12.8453" font-family="Helvetica">30</text>
<text xml:space="preserve" x="231.833" y="358.403" fill="black" font-size="12.8453" font-family="Helvetica">40</text>
<text xml:space="preserve" x="277.448" y="358.403" fill="black" font-size="12.8453" font-family="Helvetica">50</text>
<text xml:space="preserve" x="322.249" y="358.403" fill="black" font-size="12.8453" font-family="Helvetica">60</text>
<text xml:space="preserve" x="367.864" y="358.403" fill="black" font-size="12.8453" font-family="Helvetica">70</text>
<text xml:space="preserve" x="413.479" y="358.403" fill="black" font-size="12.8453" font-family="Helvetica">80</text>
<text xml:space="preserve" x="458.279" y="358.403" fill="black" font-size="12.8453" font-family="Helvetica">90</text>
<text xml:space="preserve" x="499.821" y="358.403" fill="black" font-size="12.8453" font-family="Helvetica">100</text>
<text xml:space="preserve" x="441.173" y="370.622" fill="black" font-size="12.8453" font-family="Helvetica">Energy [keV]</text>
<path d="M57.1929,346.022v -307.575" fill="none" stroke="black"/>
<path d="M70.7992,346.022h -13.6063" fill="none" stroke="black"/>
<path d="M63.9961,335.173h -6.80315" fill="none" stroke="black"/>
<path d="M63.9961,324.324h -6.80315" fill="none" stroke="black"/>
<path d="M63.9961,313.475h -6.80315" fill="none" stroke="black"/>
<path d="M70.7992,302.625h -13.6063" fill="none" stroke="black"/>
<path d="M63.9961,291.776h -6.80315" fill="none" stroke="black"/>
<path d="M63.9961,280.927h -6.80315" fill="none" stroke="black"/>
<path d="M63.9961,270.078h -6.80315" fill="none" stroke="black"/>
<path d="M70.7992,259.229h -13.6063" fill="none" stroke="black"/>
<path d="M63.9961,248.379h -6.80315" fill="none" stroke="black"/>
<path d="M63.9961,237.53h -6.80315" fill="none" stroke="black"/>
<path d="M63.9961,226.681h -6.80315" fill="none" stroke="black"/>
<path d="M70.7992,215.832h -13.6063" fill="none" stroke="black"/>
<path d="M63.9961,204.982h -6.80315" fill="none" stroke="black"/>
<path d="M63.9961,194.133h -6.80315" fill="none" stroke="black"/>
<path d="M63.9961,183.284h -6.80315" fill="none" stroke="black"/>
<path d="M70.7992,172.435h -13.6063" fill="none" stroke="black"/>
<path d="M63.9961,161.586h -6.80315" fill="none" stroke="black"/>
<path d="M63.9961,150.736h -6.80315" fill="none" stroke="black"/>
<path d="M63.9961,139.887h -6.80315" fill="none" stroke="black"/>
<path d="M70.7992,129.038h -13.6063" fill="none" stroke="black"/>
<path d="M63.9961,118.189h -6.80315" fill="none" stroke="black"/>
<path d="M63.9961,107.339h -6.80315" fill="none" stroke="black"/>
<path d="M63.9961,96.4902h -6.80315" fill="none" stroke="black"/>
<path d="M70.7992,85.641h -13.6063" fill="none" stroke="black"/>
<path d="M63.9961,74.7918h -6.80315" fill="none" stroke="black"/>
<path d="M63.9961,63.9426h -6.80315" fill="none" stroke="black"/>
<path d="M63.9961,53.0934h -6.80315" fill="none" stroke="black"/>
<path d="M70.7992,42.2441h -13.6063" fill="none" stroke="black"/>
<path d="M70.7992,42.2441h -13.6063" fill="none" stroke="black"/>
<text xml:space="preserve" x="47.7441" y="350.258" fill="black" font-size="12.8453" font-family="Helvetica">0</text>
<text xml:space="preserve" x="41.2277" y="307.087" fill="black" font-size="12.8453" font-family="Helvetica">20</text>
<text xml:space="preserve" x="41.2277" y="263.915" fill="black" font-size="12.8453" font-family="Helvetica">40</text>
<text xml:space="preserve" x="41.2277" y="219.929" fill="black" font-size="12.8453" font-family="Helvetica">60</text>
<text xml:space="preserve" x="41.2277" y="176.758" fill="black" font-size="12.8453" font-family="Helvetica">80</text>
<text xml:space="preserve" x="33.8967" y="133.587" fill="black" font-size="12.8453" font-family="Helvetica">100</text>
<text xml:space="preserve" x="33.8967" y="90.4154" fill="black" font-size="12.8453" font-family="Helvetica">120</text>
<text xml:space="preserve" x="33.8967" y="46.4295" fill="black" font-size="12.8453" font-family="Helvetica">140</text>
<g transform="rotate(-90,20.8638,70.0516)">
<text xml:space="preserve" x="20.8638" y="70.0516" fill="black" font-size="12.8453" font-family="Helvetica">Event</text>
</g>
<text xml:space="preserve" x="206.582" y="18.7347" fill="black" font-size="18.0316" font-family="Helvetica">Am_007_calibrated</text>
<rect x="442.705" y="24.9905" width="113.386" height="61.5151" fill="white"/>
<path d="M442.705,86.5056h 113.386" fill="none" stroke="black"/>
<path d="M556.091,86.5056v -61.5151" fill="none" stroke="black"/>
<path d="M556.091,24.9905h -113.386" fill="none" stroke="black"/>
<path d="M442.705,24.9905v 61.5151" fill="none" stroke="black"/>
<text xml:space="preserve" x="446.061" y="36.6549" fill="black" font-size="12.1556" font-family="Helvetica">Am_007_calibrated</text>
<path d="M442.705,40.3693h 113.386" fill="none" stroke="black"/>
<text xml:space="preserve" x="447.69" y="52.946" fill="black" font-size="12.7186" font-family="Helvetica">Entries </text>
<text xml:space="preserve" x="512.854" y="52.946" fill="black" font-size="12.7186" font-family="Helvetica"> 11066</text>
<text xml:space="preserve" x="447.69" y="67.6079" fill="black" font-size="12.7186" font-family="Helvetica">Mean  </text>
<text xml:space="preserve" x="512.854" y="67.6079" fill="black" font-size="12.7186" font-family="Helvetica">  24.14</text>
<text xml:space="preserve" x="447.69" y="83.0844" fill="black" font-size="12.7186" font-family="Helvetica">Std Dev   </text>
<text xml:space="preserve" x="520.185" y="83.0844" fill="black" font-size="12.7186" font-family="Helvetica">     16</text>
<text xml:space="preserve" x="206.582" y="18.7347" fill="black" font-size="18.0316" font-family="Helvetica">Am_007_calibrated</text></svg>
