<?xml version="1.0" standalone="no"?>
<svg width="567.429" height="384.969" viewBox="0 0 567.429 384.969" xmlns="http://www.w3.org/2000/svg" shape-rendering="crispEdges">
<title>
img/week1/calibrated_hist_low_gain/Cs_006.svg
</title>
<desc>
Creator: ROOT Version 6.22/09
CreationDate: Tue Jul 13 19:32:13 2021</desc>
<defs>
</defs>
<rect x="0.5" y="0" width="566.929" height="384.469" fill="white"/>
<rect x="57.1929" y="38.4469" width="453.543" height="307.575" fill="white"/>
<rect x="57.1929" y="38.4469" width="453.543" height="307.575" fill="none" stroke="black"/>
<path d="M57.1929,346.022h 34.5472v -8.50831h 0.442913v -1.21547h 0.885827v 3.03868h 0.442913v 2.43095h 0.442913v -1.21547h 0.442913v -1.82321h 0.442913v -1.21547h 0.442913v 0.607736h 0.442913v 3.03868h 0.442913v -3.64642h 0.442913v 1.82321h
 0.442913v 4.25415h 0.442913v -4.86189h 0.442913v 0.607736h 0.442913v 3.64642h 0.442913v -3.03868h 0.442913v 0.607736h 0.442913v 3.03868h 0.442913v -4.25415h 0.442913v 2.43095h 0.885827v -3.64642h 0.442913v 1.21547h 0.442913v -3.64642h 0.442913v
 6.07736h 0.442913v -2.43095h 0.442913v 4.25415h 0.442913v -4.25415h 0.442913v -1.21547h 0.442913v 3.03868h 0.442913v -1.21547h 0.442913v 0.607736h 0.442913v -1.21547h 1.32874v 2.43095h 0.442913v -2.43095h 0.442913v 1.82321h 0.442913v 1.82321h
 0.442913v -1.21547h 0.442913v -0.607736h 0.442913v -1.82321h 0.442913v -1.21547h 0.442913v 1.21547h 0.442913v 3.64642h 0.442913v -5.46963h 0.442913v 2.43095h 0.442913v -1.82321h 0.442913v 3.03868h 0.442913v -3.64642h 0.442913v 4.86189h 0.442913v
 -1.21547h 0.442913v 2.43095h 0.442913v -1.21547h 0.442913v -0.607736h 0.442913v -1.82321h 0.442913v -0.607736h 0.885827v 1.82321h 0.442913v -0.607736h 0.442913v 1.82321h 0.442913v 1.82321h 0.442913v -1.82321h 0.442913v -1.21547h 0.442913v 1.82321h
 0.442913v -2.43095h 0.442913v -0.607736h 0.442913v -0.607736h 0.442913v 1.21547h 0.442913v 2.43095h 0.442913v -3.03868h 0.442913v -0.607736h 0.442913v 3.64642h 0.442913v -4.25415h 0.442913v 4.25415h 0.442913v -1.21547h 0.442913v 1.21547h 0.442913v
 -0.607736h 0.442913v -4.25415h 0.442913v 3.64642h 0.442913v -0.607736h 0.442913v -0.607736h 0.442913v 2.43095h 0.442913v -3.64642h 0.442913v 1.21547h 0.442913v -1.82321h 0.442913v 6.07736h 0.442913v -3.64642h 0.885827v 0.607736h 0.442913v 0.607736h
 0.442913v -6.07736h 0.442913v 3.64642h 0.442913v 0.607736h 0.442913v -6.07736h 0.442913v 7.90057h 0.442913v -4.25415h 0.442913v 1.82321h 0.442913v 3.03868h 0.442913v -1.82321h 0.442913v -2.43095h 0.442913v 1.21547h 0.442913v 1.82321h 1.32874v
 -1.82321h 0.442913v -4.25415h 0.442913v 6.07736h 0.442913v 1.82321h 0.442913v -0.607736h 0.885827v -1.82321h 0.885827v 1.21547h 0.442913v -3.03868h 0.442913v 3.03868h 0.885827v -1.21547h 0.442913v -0.607736h 0.442913v -2.43095h 0.442913v 1.82321h
 0.442913v 3.64642h 0.442913v -0.607736h 0.442913v -1.82321h 0.442913v -1.82321h 0.442913v -3.03868h 0.442913v 3.64642h 0.442913v 0.607736h 0.442913v 1.21547h 0.442913v 0.607736h 0.442913v -3.64642h 0.442913v 1.82321h 0.442913v 1.82321h 0.442913v
 0.607736h 0.442913v -2.43095h 0.442913v 3.03868h 0.442913v -6.6851h 0.442913v 4.86189h 0.442913v -7.90057h 0.442913v 3.03868h 0.885827v 3.03868h 0.442913v -6.07736h 0.442913v 3.64642h 0.442913v 2.43095h 0.442913v -1.21547h 0.442913v -0.607736h
 0.442913v -0.607736h 0.885827v -4.25415h 0.442913v 4.25415h 0.442913v 1.21547h 0.442913v -0.607736h 0.442913v -3.03868h 0.442913v 1.82321h 0.442913v 0.607736h 0.442913v 1.82321h 0.442913v -3.64642h 0.442913v 5.46963h 0.442913v -4.25415h 0.442913v
 3.64642h 0.442913v -9.11604h 0.885827v 7.90057h 0.442913v -1.21547h 0.442913v 1.21547h 0.442913v -4.25415h 1.77165v 7.29284h 0.442913v -4.86189h 0.442913v -3.03868h 0.442913v 7.29284h 0.442913v -0.607736h 0.442913v -2.43095h 0.442913v 1.21547h
 0.442913v -1.21547h 0.442913v 3.03868h 0.442913v 0.607736h 0.442913v -2.43095h 0.442913v 1.21547h 0.442913v 1.21547h 0.442913v -2.43095h 0.442913v 0.607736h 0.442913v 1.21547h 0.442913v -0.607736h 0.885827v -1.82321h 0.442913v 1.21547h 0.885827v
 -1.21547h 0.442913v 3.64642h 0.442913v -0.607736h 0.442913v -1.82321h 0.442913v 1.82321h 0.442913v -0.607736h 0.442913v -1.82321h 0.442913v 3.03868h 0.442913v -1.21547h 0.885827v -1.21547h 0.442913v -1.82321h 0.442913v -0.607736h 0.442913v 4.25415h
 0.885827v 1.82321h 0.442913v -5.46963h 0.442913v -2.43095h 0.442913v 8.50831h 0.442913v -5.46963h 0.442913v 3.64642h 0.442913v -3.64642h 0.442913v -1.82321h 0.442913v 4.86189h 0.442913v -1.82321h 0.885827v -1.21547h 0.442913v 1.21547h 0.442913v
 -2.43095h 0.442913v 1.21547h 0.442913v -1.21547h 0.442913v -3.64642h 0.442913v 7.90057h 0.442913v -1.21547h 0.442913v -3.03868h 0.442913v 1.21547h 0.442913v -6.07736h 0.442913v 2.43095h 0.442913v 0.607736h 0.442913v 1.82321h 0.442913v -6.07736h
 0.442913v 2.43095h 0.442913v -2.43095h 0.442913v -2.43095h 0.442913v 7.29284h 0.442913v -13.3702h 0.442913v 5.46963h 0.442913v -5.46963h 0.442913v -2.43095h 0.442913v 10.9393h 0.442913v -0.607736h 0.442913v -11.547h 0.442913v 1.21547h 0.442913v
 -0.607736h 0.442913v -8.50831h 0.442913v 6.07736h 0.442913v 9.11604h 0.442913v -10.9393h 0.442913v -1.82321h 0.442913v -2.43095h 0.442913v 7.29284h 0.442913v 5.46963h 0.442913v -0.607736h 0.442913v -11.547h 0.442913v -2.43095h 0.442913v 4.25415h
 0.442913v -15.1934h 0.442913v 20.0553h 0.442913v 10.3315h 0.442913v -14.5857h 0.442913v 3.03868h 0.442913v 4.86189h 0.442913v -3.03868h 0.442913v -5.46963h 0.442913v 12.1547h 0.442913v -5.46963h 0.442913v -0.607736h 0.442913v 3.64642h 0.442913v
 2.43095h 0.442913v 5.46963h 0.442913v 4.25415h 0.442913v -7.90057h 0.885827v -2.43095h 0.442913v 8.50831h 0.885827v 3.03868h 0.442913v -6.07736h 0.442913v 4.25415h 0.442913v -1.21547h 0.442913v -1.82321h 0.442913v 6.6851h 0.442913v 1.82321h
 0.442913v 0.607736h 0.442913v -2.43095h 0.442913v 0.607736h 0.442913v 1.21547h 0.442913v -1.82321h 0.442913v -1.82321h 0.442913v 1.21547h 0.442913v 1.21547h 0.442913v -9.72378h 0.442913v 8.50831h 0.885827v -1.82321h 0.442913v -0.607736h 0.442913v
 3.03868h 0.442913v -0.607736h 0.885827v 3.03868h 0.442913v -1.82321h 0.442913v -0.607736h 0.442913v -0.607736h 0.442913v 1.21547h 0.442913v -1.21547h 0.442913v 2.43095h 0.442913v -0.607736h 0.442913v 0.607736h 1.32874v -3.03868h 0.442913v 4.86189h
 0.442913v -1.21547h 0.442913v -2.43095h 0.442913v -0.607736h 0.442913v 1.21547h 0.442913v 1.21547h 0.442913v 3.03868h 0.885827v -2.43095h 0.442913v 1.82321h 0.442913v -0.607736h 0.442913v 1.82321h 0.442913v -1.21547h 0.442913v -2.43095h 0.442913v
 3.03868h 0.442913v -6.07736h 0.442913v 4.86189h 0.442913v -0.607736h 0.442913v -0.607736h 0.442913v 1.82321h 0.442913v 1.82321h 0.442913v -0.607736h 0.442913v -1.21547h 0.442913v 0.607736h 0.442913v -2.43095h 0.442913v 1.82321h 0.442913v -1.21547h
 0.442913v 1.21547h 0.442913v 0.607736h 0.442913v -1.21547h 0.442913v 3.03868h 0.442913v -1.82321h 0.442913v -3.03868h 0.442913v 4.25415h 0.442913v -3.03868h 0.442913v 2.43095h 0.442913v -1.21547h 0.442913v 0.607736h 0.442913v 1.21547h 0.442913v
 -1.21547h 0.442913v -1.82321h 0.442913v 2.43095h 0.442913v 1.21547h 0.442913v -0.607736h 0.885827v -1.21547h 0.442913v 1.21547h 0.442913v -1.82321h 0.442913v 0.607736h 0.442913v -1.82321h 0.442913v 1.82321h 0.442913v -3.03868h 0.442913v 2.43095h
 0.442913v 0.607736h 0.442913v -0.607736h 0.442913v 1.82321h 0.442913v -0.607736h 0.442913v -1.82321h 0.885827v 0.607736h 0.442913v 1.21547h 0.442913v -1.82321h 0.442913v 2.43095h 0.442913v -0.607736h 0.442913v -1.21547h 0.442913v 1.21547h 0.442913v
 -2.43095h 0.442913v 2.43095h 0.442913v -1.82321h 0.442913v 1.82321h 0.885827v -1.21547h 0.442913v 1.82321h 0.442913v 0.607736h 0.442913v -2.43095h 0.442913v -3.64642h 0.442913v 4.86189h 0.442913v 0.607736h 0.442913v -1.21547h 0.442913v -2.43095h
 0.442913v 3.03868h 1.32874v -1.21547h 0.442913v 0.607736h 0.442913v -1.21547h 0.442913v 0.607736h 0.442913v 0.607736h 0.442913v -1.21547h 0.442913v 1.82321h 0.885827v -0.607736h 0.442913v -0.607736h 0.442913v 0.607736h 0.442913v 1.21547h 0.442913v
 -1.21547h 0.442913v -0.607736h 0.885827v 0.607736h 0.885827v 0.607736h 0.442913v -0.607736h 0.442913v 1.21547h 0.885827v -1.82321h 0.885827v 0.607736h 0.885827v -2.43095h 0.442913v 1.82321h 0.442913v -1.21547h 0.442913v 0.607736h 0.442913v 1.82321h
 0.442913v -0.607736h 0.442913v 0.607736h 0.442913v -2.43095h 0.442913v 1.82321h 0.442913v -1.82321h 0.885827v 3.03868h 0.442913v -2.43095h 0.442913v 3.03868h 0.442913v -2.43095h 0.442913v 1.82321h 0.442913v -3.03868h 0.442913v 0.607736h 0.442913v
 2.43095h 0.442913v 0.607736h 0.885827v -3.03868h 0.442913v 1.82321h 0.885827v -0.607736h 0.885827v 0.607736h 0.442913v -0.607736h 0.885827v 1.21547h 0.442913v -1.21547h 0.442913v -0.607736h 0.442913v 0.607736h 0.442913v 1.82321h 0.442913v -1.82321h
 0.442913v -1.21547h 0.442913v 0.607736h 0.442913v 1.21547h 0.442913v 0.607736h 0.442913v -1.21547h 0.442913v 0.607736h 0.885827v -0.607736h 0.442913v 0.607736h 0.442913v -1.21547h 0.442913v 0.607736h 0.442913v -1.21547h 0.442913v 1.82321h 0.885827v
 0.607736h 0.442913v -1.21547h 0.885827v -3.03868h 0.442913v 3.64642h 0.442913v 0.607736h 0.442913v -0.607736h 0.885827v -0.607736h 0.442913v 1.21547h 0.442913v -1.21547h 0.442913v -1.21547h 0.442913v 1.82321h 0.885827v 0.607736h 0.885827v -1.21547h
 0.442913v -0.607736h 0.442913v 0.607736h 1.77165v -0.607736h 0.442913v 0.607736h 0.442913v -1.82321h 0.442913v 2.43095h 0.442913v 1.21547h 0.442913v -1.82321h 1.32874v 1.21547h 0.442913v -2.43095h 0.442913v 0.607736h 0.442913v 1.21547h 0.885827v
 -1.21547h 0.442913v -0.607736h 0.442913v 1.82321h 0.442913v -1.21547h 0.442913v 1.82321h 0.442913v -0.607736h 0.885827v -3.03868h 0.442913v 3.03868h 1.32874v -0.607736h 0.442913v 0.607736h 0.442913v 0.607736h 0.442913v -0.607736h 0.442913v -1.82321h
 0.442913v 1.21547h 0.442913v 1.82321h 0.442913v -2.43095h 0.442913v -0.607736h 0.442913v 0.607736h 0.442913v -1.82321h 0.442913v 3.64642h 0.442913v -2.43095h 0.885827v 1.82321h 0.442913v -1.82321h 0.442913v 2.43095h 0.442913v -0.607736h 0.442913v
 -0.607736h 0.442913v -0.607736h 0.442913v 1.21547h 1.32874v -3.03868h 0.442913v 3.64642h 0.442913v -2.43095h 0.885827v 1.82321h 0.442913v -2.43095h 0.442913v 3.03868h 0.442913v -1.21547h 0.442913v 1.21547h 0.442913v -0.607736h 0.442913v -2.43095h
 0.442913v 1.21547h 1.77165v -0.607736h 0.442913v 1.21547h 0.442913v -1.21547h 0.442913v 1.21547h 0.442913v 1.82321h 0.442913v -1.21547h 0.442913v -0.607736h 0.442913v 1.21547h 0.442913v -0.607736h 0.442913v -1.21547h 0.442913v -0.607736h 0.442913v
 1.82321h 0.442913v -0.607736h 1.32874v 1.21547h 0.442913v -0.607736h 0.442913v -1.82321h 0.442913v 2.43095h 0.442913v -1.21547h 0.442913v 1.21547h 0.442913v -0.607736h 0.442913v -0.607736h 0.885827v 0.607736h 0.885827v 1.21547h 0.885827v -0.607736h
 0.885827v -0.607736h 0.442913v -0.607736h 0.442913v 0.607736h 0.442913v 1.21547h 0.442913v -0.607736h 1.32874v -0.607736h 0.442913v -1.21547h 0.442913v 1.82321h 0.442913v -1.82321h 0.442913v 1.82321h 0.442913v -0.607736h 0.442913v 0.607736h
 0.442913v -1.82321h 0.442913v 0.607736h 0.885827v 1.21547h 0.442913v -2.43095h 0.885827v 1.82321h 0.885827v -1.21547h 0.442913v 1.21547h 0.442913v -1.21547h 0.442913v 1.82321h 0.442913v -3.64642h 0.442913v 2.43095h 0.442913v -0.607736h 0.442913v
 1.82321h 0.442913v -3.64642h 0.442913v 3.03868h 0.442913v -0.607736h 0.442913v 1.21547h 0.442913v -1.82321h 0.442913v 1.21547h 0.442913v -0.607736h 0.442913v -1.21547h 0.442913v 0.607736h 0.442913v 1.21547h 0.442913v -1.21547h 0.442913v 0.607736h
 0.442913v 1.82321h 0.442913v -5.46963h 0.442913v 4.86189h 0.442913v -1.21547h 0.442913v 1.21547h 1.32874v -3.03868h 0.442913v 1.82321h 0.885827v 0.607736h 0.442913v -0.607736h 0.885827v -0.607736h 0.442913v 1.82321h 0.442913v -0.607736h 0.442913v
 0.607736h 0.885827v -1.82321h 0.442913v 1.21547h 0.885827v -1.21547h 0.442913v 1.21547h 0.442913v -1.21547h 0.885827v 0.607736h 1.32874v 1.21547h 0.442913v -1.21547h 1.32874v -1.82321h 0.442913v 3.03868h 0.442913v -1.21547h 1.32874v -2.43095h
 0.442913v 3.64642h 0.442913v -0.607736h 0.442913v 0.607736h 0.442913v -1.21547h 0.442913v 0.607736h 0.442913v -0.607736h 0.442913v 0.607736h 0.442913v -1.21547h 0.442913v 1.21547h 0.885827v -2.43095h 0.442913v 1.21547h 0.442913v 1.21547h 0.442913v
 0.607736h 0.442913v -0.607736h 0.442913v 0.607736h 0.442913v -1.21547h 2.21457v -2.43095h 0.442913v 3.64642h 0.442913v -1.21547h 0.442913v -1.82321h 0.442913v 2.43095h 0.442913v -1.82321h 0.442913v 2.43095h 0.885827v -1.21547h 0.442913v 1.82321h
 0.442913v -1.21547h 0.442913v -1.21547h 0.885827v 2.43095h 0.442913v -2.43095h 0.442913v 0.607736h 0.885827v -0.607736h 0.442913v -0.607736h 0.442913v 1.82321h 0.442913v 0.607736h 0.442913v -1.82321h 0.442913v 1.21547h 0.442913v -1.21547h 0.442913v
 0.607736h 0.442913v 0.607736h 0.442913v 1.21547h 0.442913v -1.21547h 0.442913v -0.607736h 0.442913v 0.607736h 0.442913v -2.43095h 0.442913v 3.64642h 0.885827v -1.21547h 0.442913v 0.607736h 0.442913v -0.607736h 0.442913v -0.607736h 0.442913v
 0.607736h 1.77165v -0.607736h 0.442913v -0.607736h 0.442913v -0.607736h 0.885827v 1.82321h 0.442913v 0.607736h 0.442913v -0.607736h 0.442913v -1.82321h 0.442913v 1.82321h 0.442913v 0.607736h 0.442913v -1.21547h 0.442913v 1.21547h 0.442913v -3.03868h
 0.442913v 2.43095h 1.32874v -1.21547h 0.885827v 1.82321h 0.442913v -0.607736h 0.442913v -1.21547h 0.442913v 1.21547h 0.442913v 0.607736h 0.442913v -0.607736h 0.442913v -0.607736h 0.442913v -0.607736h 0.442913v 1.21547h 0.442913v -0.607736h 0.442913v
 1.21547h 0.442913v -0.607736h 0.442913v -1.21547h 0.442913v 1.21547h 0.442913v -0.607736h 0.442913v 0.607736h 0.442913v 0.607736h 0.442913v -1.21547h 1.77165v 1.82321h 0.442913v -1.21547h 0.885827v -0.607736h 0.442913v -0.607736h 0.442913v 0.607736h
 0.442913v -0.607736h 0.442913v 1.21547h 0.442913v 1.21547h 0.442913v -2.43095h 0.442913v -0.607736h 0.885827v 2.43095h 0.885827v -1.21547h 0.442913v 0.607736h 0.885827v -1.21547h 0.442913v -1.21547h 0.442913v 3.64642h 0.442913v -1.21547h 0.442913v
 1.21547h 0.442913v -2.43095h 0.885827v -1.21547h 0.442913v 1.82321h 0.442913v 1.21547h 0.442913v -1.82321h 0.442913v 1.21547h 0.442913v -0.607736h 0.885827v 1.21547h 0.442913v -1.21547h 0.442913v -1.82321h 0.442913v 2.43095h 1.32874v -0.607736h
 0.442913v 1.82321h 0.442913v -0.607736h 0.442913v -1.21547h 0.885827v -1.21547h 0.442913v 0.607736h 0.442913v -2.43095h 0.442913v -3.64642h 0.442913v -33.4255h 0.442913v -250.995h 0.442913v 20.0553h 0.442913v 99.6688h 0.442913v -51.0498h 0.442913v
 -10.9393h 0.442913v 41.9338h 0.442913v 94.1991h 0.442913v 48.6189h 0.442913v 6.07736h 0.442913v -13.9779h 0.442913v -3.03868h 0.442913v 15.1934h 0.442913v -10.3315h 0.442913v 13.3702h 0.442913v 3.64642h 0.442913v -6.6851h 0.442913v -4.25415h
 0.442913v 10.9393h 0.442913v -3.64642h 0.442913v 13.9779h 0.442913v -5.46963h 0.442913v 4.25415h 0.442913v -6.6851h 0.442913v -1.82321h 0.442913v 0.607736h 0.442913v 9.72378h 0.442913v 1.82321h 0.442913v -8.50831h 0.442913v -1.82321h 0.442913v
 5.46963h 0.442913v 4.25415h 0.442913v 12.1547h 0.442913v -15.1934h 0.442913v -4.86189h 0.442913v 16.4089h 0.442913v -1.21547h 0.442913v 1.21547h 0.442913v 5.46963h 0.442913v -7.29284h 0.442913v 6.07736h 0.442913v -3.64642h 0.442913v 7.29284h
 0.442913v 1.82321h 0.442913v 3.03868h 0.442913v -1.21547h 0.442913v 4.86189h 0.442913v -1.21547h 0.442913v 3.03868h 1.32874v 0.607736h 37.2047" fill="none" stroke="#000099"/>
<path d="M57.1929,346.022h 453.543" fill="none" stroke="black"/>
<path d="M57.1929,336.795v 9.22726" fill="none" stroke="black"/>
<path d="M66.2638,341.409v 4.61363" fill="none" stroke="black"/>
<path d="M75.3346,341.409v 4.61363" fill="none" stroke="black"/>
<path d="M84.4055,341.409v 4.61363" fill="none" stroke="black"/>
<path d="M93.4764,341.409v 4.61363" fill="none" stroke="black"/>
<path d="M102.547,336.795v 9.22726" fill="none" stroke="black"/>
<path d="M111.618,341.409v 4.61363" fill="none" stroke="black"/>
<path d="M120.689,341.409v 4.61363" fill="none" stroke="black"/>
<path d="M129.76,341.409v 4.61363" fill="none" stroke="black"/>
<path d="M138.831,341.409v 4.61363" fill="none" stroke="black"/>
<path d="M147.902,336.795v 9.22726" fill="none" stroke="black"/>
<path d="M156.972,341.409v 4.61363" fill="none" stroke="black"/>
<path d="M166.043,341.409v 4.61363" fill="none" stroke="black"/>
<path d="M175.114,341.409v 4.61363" fill="none" stroke="black"/>
<path d="M184.185,341.409v 4.61363" fill="none" stroke="black"/>
<path d="M193.256,336.795v 9.22726" fill="none" stroke="black"/>
<path d="M202.327,341.409v 4.61363" fill="none" stroke="black"/>
<path d="M211.398,341.409v 4.61363" fill="none" stroke="black"/>
<path d="M220.469,341.409v 4.61363" fill="none" stroke="black"/>
<path d="M229.539,341.409v 4.61363" fill="none" stroke="black"/>
<path d="M238.61,336.795v 9.22726" fill="none" stroke="black"/>
<path d="M247.681,341.409v 4.61363" fill="none" stroke="black"/>
<path d="M256.752,341.409v 4.61363" fill="none" stroke="black"/>
<path d="M265.823,341.409v 4.61363" fill="none" stroke="black"/>
<path d="M274.894,341.409v 4.61363" fill="none" stroke="black"/>
<path d="M283.965,336.795v 9.22726" fill="none" stroke="black"/>
<path d="M293.035,341.409v 4.61363" fill="none" stroke="black"/>
<path d="M302.106,341.409v 4.61363" fill="none" stroke="black"/>
<path d="M311.177,341.409v 4.61363" fill="none" stroke="black"/>
<path d="M320.248,341.409v 4.61363" fill="none" stroke="black"/>
<path d="M329.319,336.795v 9.22726" fill="none" stroke="black"/>
<path d="M338.39,341.409v 4.61363" fill="none" stroke="black"/>
<path d="M347.461,341.409v 4.61363" fill="none" stroke="black"/>
<path d="M356.531,341.409v 4.61363" fill="none" stroke="black"/>
<path d="M365.602,341.409v 4.61363" fill="none" stroke="black"/>
<path d="M374.673,336.795v 9.22726" fill="none" stroke="black"/>
<path d="M383.744,341.409v 4.61363" fill="none" stroke="black"/>
<path d="M392.815,341.409v 4.61363" fill="none" stroke="black"/>
<path d="M401.886,341.409v 4.61363" fill="none" stroke="black"/>
<path d="M410.957,341.409v 4.61363" fill="none" stroke="black"/>
<path d="M420.028,336.795v 9.22726" fill="none" stroke="black"/>
<path d="M429.098,341.409v 4.61363" fill="none" stroke="black"/>
<path d="M438.169,341.409v 4.61363" fill="none" stroke="black"/>
<path d="M447.24,341.409v 4.61363" fill="none" stroke="black"/>
<path d="M456.311,341.409v 4.61363" fill="none" stroke="black"/>
<path d="M465.382,336.795v 9.22726" fill="none" stroke="black"/>
<path d="M474.453,341.409v 4.61363" fill="none" stroke="black"/>
<path d="M483.524,341.409v 4.61363" fill="none" stroke="black"/>
<path d="M492.594,341.409v 4.61363" fill="none" stroke="black"/>
<path d="M501.665,341.409v 4.61363" fill="none" stroke="black"/>
<path d="M510.736,336.795v 9.22726" fill="none" stroke="black"/>
<text xml:space="preserve" x="53.446" y="358.403" fill="black" font-size="12.8453" font-family="Helvetica">0</text>
<text xml:space="preserve" x="95.8027" y="358.403" fill="black" font-size="12.8453" font-family="Helvetica">10</text>
<text xml:space="preserve" x="140.603" y="358.403" fill="black" font-size="12.8453" font-family="Helvetica">20</text>
<text xml:space="preserve" x="186.218" y="358.403" fill="black" font-size="12.8453" font-family="Helvetica">30</text>
<text xml:space="preserve" x="231.833" y="358.403" fill="black" font-size="12.8453" font-family="Helvetica">40</text>
<text xml:space="preserve" x="277.448" y="358.403" fill="black" font-size="12.8453" font-family="Helvetica">50</text>
<text xml:space="preserve" x="322.249" y="358.403" fill="black" font-size="12.8453" font-family="Helvetica">60</text>
<text xml:space="preserve" x="367.864" y="358.403" fill="black" font-size="12.8453" font-family="Helvetica">70</text>
<text xml:space="preserve" x="413.479" y="358.403" fill="black" font-size="12.8453" font-family="Helvetica">80</text>
<text xml:space="preserve" x="458.279" y="358.403" fill="black" font-size="12.8453" font-family="Helvetica">90</text>
<text xml:space="preserve" x="499.821" y="358.403" fill="black" font-size="12.8453" font-family="Helvetica">100</text>
<text xml:space="preserve" x="441.173" y="370.622" fill="black" font-size="12.8453" font-family="Helvetica">Energy [keV]</text>
<path d="M57.1929,346.022v -307.575" fill="none" stroke="black"/>
<path d="M70.7992,346.022h -13.6063" fill="none" stroke="black"/>
<path d="M63.9961,333.868h -6.80315" fill="none" stroke="black"/>
<path d="M63.9961,321.713h -6.80315" fill="none" stroke="black"/>
<path d="M63.9961,309.558h -6.80315" fill="none" stroke="black"/>
<path d="M63.9961,297.403h -6.80315" fill="none" stroke="black"/>
<path d="M70.7992,285.249h -13.6063" fill="none" stroke="black"/>
<path d="M63.9961,273.094h -6.80315" fill="none" stroke="black"/>
<path d="M63.9961,260.939h -6.80315" fill="none" stroke="black"/>
<path d="M63.9961,248.784h -6.80315" fill="none" stroke="black"/>
<path d="M63.9961,236.63h -6.80315" fill="none" stroke="black"/>
<path d="M70.7992,224.475h -13.6063" fill="none" stroke="black"/>
<path d="M63.9961,212.32h -6.80315" fill="none" stroke="black"/>
<path d="M63.9961,200.166h -6.80315" fill="none" stroke="black"/>
<path d="M63.9961,188.011h -6.80315" fill="none" stroke="black"/>
<path d="M63.9961,175.856h -6.80315" fill="none" stroke="black"/>
<path d="M70.7992,163.701h -13.6063" fill="none" stroke="black"/>
<path d="M63.9961,151.547h -6.80315" fill="none" stroke="black"/>
<path d="M63.9961,139.392h -6.80315" fill="none" stroke="black"/>
<path d="M63.9961,127.237h -6.80315" fill="none" stroke="black"/>
<path d="M63.9961,115.082h -6.80315" fill="none" stroke="black"/>
<path d="M70.7992,102.928h -13.6063" fill="none" stroke="black"/>
<path d="M63.9961,90.773h -6.80315" fill="none" stroke="black"/>
<path d="M63.9961,78.6183h -6.80315" fill="none" stroke="black"/>
<path d="M63.9961,66.4636h -6.80315" fill="none" stroke="black"/>
<path d="M63.9961,54.3088h -6.80315" fill="none" stroke="black"/>
<path d="M70.7992,42.1541h -13.6063" fill="none" stroke="black"/>
<path d="M70.7992,42.1541h -13.6063" fill="none" stroke="black"/>
<text xml:space="preserve" x="47.7441" y="350.258" fill="black" font-size="12.8453" font-family="Helvetica">0</text>
<text xml:space="preserve" x="33.8967" y="289.981" fill="black" font-size="12.8453" font-family="Helvetica">100</text>
<text xml:space="preserve" x="33.8967" y="228.889" fill="black" font-size="12.8453" font-family="Helvetica">200</text>
<text xml:space="preserve" x="33.8967" y="167.798" fill="black" font-size="12.8453" font-family="Helvetica">300</text>
<text xml:space="preserve" x="33.8967" y="107.521" fill="black" font-size="12.8453" font-family="Helvetica">400</text>
<text xml:space="preserve" x="33.8967" y="46.4295" fill="black" font-size="12.8453" font-family="Helvetica">500</text>
<g transform="rotate(-90,20.8638,70.0516)">
<text xml:space="preserve" x="20.8638" y="70.0516" fill="black" font-size="12.8453" font-family="Helvetica">Event</text>
</g>
<text xml:space="preserve" x="209.026" y="18.7347" fill="black" font-size="18.0316" font-family="Helvetica">Cs_006_calibrated</text>
<rect x="442.705" y="24.9905" width="113.386" height="61.5151" fill="white"/>
<path d="M442.705,86.5056h 113.386" fill="none" stroke="black"/>
<path d="M556.091,86.5056v -61.5151" fill="none" stroke="black"/>
<path d="M556.091,24.9905h -113.386" fill="none" stroke="black"/>
<path d="M442.705,24.9905v 61.5151" fill="none" stroke="black"/>
<text xml:space="preserve" x="447.69" y="36.6549" fill="black" font-size="12.5522" font-family="Helvetica">Cs_006_calibrated</text>
<path d="M442.705,40.3693h 113.386" fill="none" stroke="black"/>
<text xml:space="preserve" x="447.69" y="52.946" fill="black" font-size="12.7186" font-family="Helvetica">Entries </text>
<text xml:space="preserve" x="512.854" y="52.946" fill="black" font-size="12.7186" font-family="Helvetica"> 10524</text>
<text xml:space="preserve" x="447.69" y="67.6079" fill="black" font-size="12.7186" font-family="Helvetica">Mean  </text>
<text xml:space="preserve" x="512.854" y="67.6079" fill="black" font-size="12.7186" font-family="Helvetica">  57.73</text>
<text xml:space="preserve" x="447.69" y="83.0844" fill="black" font-size="12.7186" font-family="Helvetica">Std Dev   </text>
<text xml:space="preserve" x="512.854" y="83.0844" fill="black" font-size="12.7186" font-family="Helvetica">  29.77</text>
<text xml:space="preserve" x="209.026" y="18.7347" fill="black" font-size="18.0316" font-family="Helvetica">Cs_006_calibrated</text></svg>
