<?xml version="1.0" standalone="no"?>
<svg width="567.429" height="384.969" viewBox="0 0 567.429 384.969" xmlns="http://www.w3.org/2000/svg" shape-rendering="crispEdges">
<title>
img/week1/calibrated_hist_low_gain/Cs_006.svg
</title>
<desc>
Creator: ROOT Version 6.22/09
CreationDate: Tue Jul 13 11:02:26 2021</desc>
<defs>
</defs>
<rect x="0.5" y="0" width="566.929" height="384.469" fill="white"/>
<rect x="57.1929" y="38.4469" width="453.543" height="307.575" fill="white"/>
<rect x="57.1929" y="38.4469" width="453.543" height="307.575" fill="none" stroke="black"/>
<path d="M57.1929,346.022h 25.689v -1.86184h 0.442913v -6.82673h 0.442913v -0.620612h 0.442913v 0.620612h 0.442913v 1.86184h 0.442913v 3.10306h 0.442913v -1.24122h 0.442913v -2.48245h 0.442913v -0.620612h 0.442913v 1.86184h 0.442913v 1.24122h
 0.442913v -3.10306h 0.442913v 1.86184h 0.442913v 0.620612h 0.442913v 1.86184h 0.442913v -1.86184h 0.442913v -1.24122h 0.442913v 3.72367h 0.442913v -1.86184h 0.442913v -1.86184h 0.442913v 5.58551h 0.442913v -4.34428h 0.885827v 1.86184h 0.442913v
 -1.86184h 0.885827v -2.48245h 0.442913v -1.24122h 0.442913v 3.10306h 0.442913v 2.48245h 0.442913v 1.24122h 0.442913v -2.48245h 0.442913v -3.10306h 0.442913v 3.10306h 0.442913v -1.24122h 0.442913v 2.48245h 0.442913v -3.10306h 0.442913v -1.24122h
 0.442913v 5.58551h 0.442913v -4.9649h 0.442913v 3.10306h 0.442913v -2.48245h 0.442913v 3.10306h 0.442913v 0.620612h 0.442913v -1.24122h 0.885827v -1.86184h 0.442913v 0.620612h 0.442913v -3.10306h 0.442913v 4.34428h 0.885827v -1.86184h 0.885827v
 -1.86184h 0.442913v 3.72367h 0.442913v -4.34428h 0.442913v 5.58551h 0.442913v -1.86184h 0.442913v 2.48245h 0.442913v 0.620612h 0.442913v -2.48245h 0.442913v -1.24122h 0.442913v -0.620612h 0.885827v 0.620612h 0.442913v 1.24122h 0.442913v -0.620612h
 0.442913v 1.24122h 0.442913v 1.86184h 0.442913v -1.24122h 0.442913v -1.86184h 0.442913v 1.24122h 0.442913v 0.620612h 0.442913v -2.48245h 0.442913v -1.24122h 0.442913v 1.24122h 0.442913v 2.48245h 0.442913v -0.620612h 0.442913v -2.48245h 0.885827v
 4.34428h 0.442913v -6.20612h 0.442913v 4.9649h 0.442913v -0.620612h 0.442913v 1.24122h 0.442913v -1.86184h 0.442913v 0.620612h 0.442913v -4.34428h 0.442913v 4.9649h 0.442913v -1.86184h 0.885827v 1.24122h 0.442913v -1.86184h 0.442913v 0.620612h
 0.442913v -1.86184h 0.442913v 4.34428h 0.442913v -1.86184h 0.442913v 1.86184h 0.442913v -1.86184h 0.885827v -2.48245h 0.442913v -1.86184h 0.442913v 3.72367h 0.442913v -1.24122h 0.442913v -3.10306h 0.442913v 6.20612h 0.442913v -4.9649h 0.442913v
 1.24122h 0.442913v 3.72367h 0.442913v 0.620612h 0.442913v -4.34428h 0.442913v 0.620612h 0.442913v 0.620612h 0.442913v 3.10306h 0.442913v -1.86184h 0.442913v 0.620612h 0.442913v -2.48245h 0.442913v -4.34428h 0.442913v 6.82673h 0.442913v 0.620612h
 0.442913v 0.620612h 0.442913v -0.620612h 0.442913v -1.24122h 0.442913v 0.620612h 0.442913v 1.24122h 0.442913v -3.72367h 0.442913v 1.24122h 0.442913v 0.620612h 0.442913v 1.86184h 0.442913v -2.48245h 0.442913v -0.620612h 0.442913v -2.48245h 0.442913v
 3.10306h 0.442913v 1.86184h 0.442913v 0.620612h 0.442913v -1.24122h 0.442913v -1.24122h 0.442913v -3.10306h 0.885827v 2.48245h 0.442913v 0.620612h 0.442913v 1.24122h 0.885827v -3.10306h 0.442913v 0.620612h 0.442913v 3.72367h 0.442913v -0.620612h
 0.442913v -1.24122h 0.885827v 1.86184h 0.442913v -8.68857h 0.442913v 6.82673h 0.442913v -4.9649h 0.442913v 0.620612h 0.442913v -0.620612h 0.442913v 3.10306h 0.442913v -5.58551h 0.442913v 4.34428h 0.442913v 0.620612h 0.885827v 0.620612h 0.885827v
 -2.48245h 0.442913v -1.24122h 0.442913v -1.86184h 0.442913v 3.72367h 0.442913v 1.24122h 0.885827v -4.34428h 0.442913v 3.10306h 0.442913v 0.620612h 0.442913v 1.24122h 0.442913v -2.48245h 0.885827v 3.10306h 0.442913v -0.620612h 0.442913v -3.72367h
 0.442913v -3.10306h 0.885827v 8.06796h 0.442913v -3.10306h 0.442913v 1.24122h 0.442913v -3.10306h 0.885827v 1.86184h 0.442913v -3.72367h 0.442913v 5.58551h 0.442913v 1.86184h 0.442913v -7.44734h 0.442913v 2.48245h 0.442913v 6.82673h 0.442913v
 -3.10306h 0.442913v -0.620612h 0.442913v 1.24122h 0.442913v -2.48245h 0.442913v 3.72367h 0.442913v 0.620612h 0.442913v -3.10306h 0.885827v 3.72367h 0.442913v -1.24122h 0.442913v -3.10306h 0.442913v 3.10306h 0.442913v -1.24122h 0.442913v 0.620612h
 0.442913v -0.620612h 0.442913v -1.24122h 0.442913v 1.86184h 0.442913v -1.86184h 0.885827v 1.86184h 0.442913v 0.620612h 0.442913v 1.86184h 0.442913v -3.72367h 0.442913v 3.10306h 0.442913v -2.48245h 0.442913v -1.24122h 0.442913v 3.72367h 0.442913v
 -1.86184h 0.442913v 0.620612h 0.442913v -1.24122h 0.442913v -1.86184h 0.442913v 1.24122h 0.885827v 1.24122h 0.442913v 1.86184h 0.442913v -3.72367h 0.442913v 0.620612h 0.442913v -1.24122h 0.442913v 4.9649h 0.442913v -4.34428h 0.442913v 3.72367h
 0.442913v -4.34428h 0.885827v 1.86184h 0.442913v 0.620612h 0.442913v -2.48245h 0.442913v 2.48245h 0.442913v 0.620612h 0.442913v -4.9649h 0.442913v 3.10306h 0.442913v -1.24122h 0.442913v -0.620612h 0.442913v -3.10306h 0.442913v 6.20612h 0.442913v
 -0.620612h 0.442913v -2.48245h 1.32874v -6.20612h 0.442913v 7.44734h 0.442913v -3.72367h 0.442913v 1.86184h 0.442913v -6.82673h 0.442913v 6.20612h 0.442913v -4.9649h 0.885827v 2.48245h 0.442913v -6.20612h 0.442913v -0.620612h 0.442913v -4.34428h
 0.442913v 1.86184h 0.442913v 3.10306h 0.442913v 3.10306h 0.442913v -1.86184h 0.442913v -8.68857h 0.442913v 1.86184h 0.442913v -2.48245h 0.442913v -6.20612h 0.442913v 3.10306h 0.442913v 16.1359h 0.442913v -19.239h 0.442913v 4.9649h 0.442913v
 -5.58551h 0.442913v 3.10306h 0.442913v 8.06796h 0.442913v 0.620612h 0.885827v -13.6535h 0.442913v 1.24122h 0.442913v 2.48245h 0.442913v -15.5153h 0.442913v 20.4802h 0.442913v 10.5504h 0.442913v -12.4122h 0.442913v 1.86184h 0.442913v -1.86184h
 0.442913v 3.10306h 0.442913v -0.620612h 0.885827v 8.68857h 0.442913v -11.171h 0.442913v 3.72367h 0.442913v 4.34428h 0.885827v 4.34428h 0.442913v 4.34428h 0.442913v -3.72367h 0.442913v -3.10306h 0.442913v 1.24122h 0.442913v 1.24122h 0.442913v
 3.72367h 0.442913v 0.620612h 0.442913v 1.24122h 0.442913v -3.72367h 0.442913v 3.72367h 0.442913v -1.86184h 0.442913v -0.620612h 0.442913v 4.9649h 0.442913v 1.24122h 0.442913v 0.620612h 0.442913v 1.24122h 0.442913v -3.10306h 0.442913v 1.86184h
 0.442913v -1.24122h 0.885827v -0.620612h 0.442913v -0.620612h 0.442913v 1.24122h 0.442913v -7.44734h 0.442913v 5.58551h 0.442913v 0.620612h 0.442913v -1.24122h 1.32874v 2.48245h 0.442913v -0.620612h 0.442913v 2.48245h 0.885827v -1.24122h 0.442913v
 -1.24122h 0.442913v -0.620612h 0.442913v 2.48245h 0.442913v -1.86184h 0.442913v 0.620612h 0.442913v 3.10306h 0.442913v -2.48245h 0.442913v 1.86184h 0.442913v -1.24122h 0.442913v -0.620612h 0.442913v -1.24122h 0.442913v 3.10306h 0.442913v 0.620612h
 0.442913v -3.72367h 0.442913v 0.620612h 0.442913v -1.24122h 0.442913v 3.72367h 0.442913v 0.620612h 0.442913v 2.48245h 0.442913v -3.10306h 0.442913v 1.86184h 0.442913v -1.86184h 0.442913v 1.24122h 0.442913v 1.24122h 0.442913v -1.86184h 0.442913v
 -1.24122h 0.442913v 3.10306h 0.442913v -6.20612h 0.442913v 3.72367h 0.442913v 1.86184h 0.442913v -3.10306h 0.442913v 3.72367h 0.442913v -1.24122h 0.442913v 1.24122h 0.885827v -1.24122h 0.442913v 1.24122h 0.442913v -3.10306h 0.442913v 2.48245h
 0.442913v -2.48245h 0.442913v 2.48245h 0.442913v -0.620612h 0.885827v 1.86184h 0.442913v 0.620612h 0.442913v -4.9649h 0.442913v 3.10306h 0.442913v -0.620612h 0.442913v 0.620612h 0.442913v 0.620612h 0.442913v -1.24122h 0.442913v 0.620612h 0.442913v
 1.24122h 0.442913v -1.24122h 0.442913v 0.620612h 0.442913v -2.48245h 0.442913v 3.72367h 0.885827v -0.620612h 0.442913v -0.620612h 0.885827v 0.620612h 0.442913v -1.86184h 0.442913v 0.620612h 0.442913v -1.86184h 0.442913v 2.48245h 0.442913v -3.10306h
 0.442913v 1.86184h 1.32874v 1.24122h 0.442913v 0.620612h 0.442913v -0.620612h 0.442913v -2.48245h 0.442913v 1.24122h 0.442913v 0.620612h 0.442913v 0.620612h 0.442913v -0.620612h 0.885827v 1.24122h 0.442913v -0.620612h 0.442913v -1.24122h 0.442913v
 1.24122h 0.442913v -2.48245h 0.442913v 2.48245h 0.442913v -1.24122h 0.442913v 1.24122h 0.885827v -1.24122h 0.442913v 2.48245h 0.442913v -0.620612h 0.442913v -1.86184h 0.442913v -1.86184h 0.442913v 2.48245h 0.885827v 0.620612h 0.442913v 0.620612h
 0.442913v -4.34428h 0.442913v 4.34428h 0.442913v -0.620612h 0.885827v -1.24122h 0.442913v 0.620612h 1.32874v -1.86184h 0.442913v 1.86184h 0.885827v 0.620612h 0.885827v -0.620612h 1.32874v 1.24122h 0.442913v -1.24122h 0.442913v 0.620612h 0.442913v
 -1.24122h 0.442913v -0.620612h 0.442913v 2.48245h 0.442913v -1.86184h 0.442913v 1.86184h 0.442913v -1.24122h 0.442913v 1.86184h 0.442913v -0.620612h 0.442913v -1.86184h 0.885827v 0.620612h 0.442913v 0.620612h 0.442913v -1.24122h 0.442913v -1.86184h
 0.442913v 1.24122h 0.442913v 0.620612h 0.885827v 0.620612h 0.442913v 1.24122h 0.442913v -1.24122h 0.442913v -1.86184h 0.442913v 2.48245h 0.442913v -2.48245h 0.442913v 1.24122h 0.442913v 0.620612h 0.885827v 0.620612h 0.442913v 1.24122h 0.442913v
 -3.10306h 0.442913v 2.48245h 0.442913v -4.34428h 0.442913v 3.72367h 0.442913v 0.620612h 0.442913v 0.620612h 0.885827v -3.10306h 0.442913v 1.86184h 0.442913v 0.620612h 0.442913v -1.24122h 0.442913v -0.620612h 0.442913v 1.86184h 0.442913v -0.620612h
 0.442913v -0.620612h 0.442913v 0.620612h 0.442913v 0.620612h 0.442913v -1.24122h 0.442913v -0.620612h 0.442913v 0.620612h 0.442913v 1.86184h 0.442913v -1.86184h 0.442913v -1.24122h 0.442913v 1.86184h 0.442913v -0.620612h 0.442913v 0.620612h 1.32874v
 0.620612h 0.442913v -1.86184h 0.442913v 1.24122h 0.442913v 0.620612h 0.442913v -1.86184h 0.442913v 0.620612h 0.442913v -0.620612h 0.442913v 0.620612h 0.442913v 1.24122h 0.885827v -1.24122h 0.442913v 0.620612h 0.442913v -1.86184h 0.885827v 1.86184h
 0.885827v 0.620612h 0.442913v -0.620612h 0.885827v 0.620612h 0.442913v -0.620612h 0.442913v -2.48245h 0.442913v 3.10306h 0.442913v -1.24122h 0.442913v 1.24122h 0.442913v -0.620612h 0.442913v 0.620612h 0.442913v -1.24122h 1.77165v 0.620612h 0.442913v
 -1.24122h 0.442913v 0.620612h 0.442913v 0.620612h 0.442913v -2.48245h 0.442913v 1.24122h 0.442913v 2.48245h 0.885827v -1.86184h 1.32874v 1.24122h 0.442913v -1.24122h 0.442913v -0.620612h 0.442913v 0.620612h 1.32874v 0.620612h 0.442913v -1.86184h
 0.442913v 1.24122h 0.442913v 0.620612h 0.442913v 0.620612h 0.442913v -0.620612h 0.885827v -1.86184h 0.442913v 0.620612h 0.442913v 1.24122h 0.442913v 1.24122h 0.442913v -2.48245h 0.442913v 1.86184h 0.442913v -1.24122h 0.442913v 1.24122h 0.442913v
 -1.24122h 0.442913v -0.620612h 0.442913v 1.24122h 0.442913v 1.24122h 0.442913v -2.48245h 0.442913v -0.620612h 0.442913v 1.24122h 0.442913v -2.48245h 0.442913v 3.72367h 0.442913v -0.620612h 0.442913v -3.10306h 0.442913v 2.48245h 0.442913v 1.24122h
 0.442913v -2.48245h 0.442913v 2.48245h 0.442913v -0.620612h 0.442913v -0.620612h 0.442913v -0.620612h 0.442913v 1.24122h 0.885827v 1.24122h 0.442913v -1.86184h 0.442913v -1.86184h 0.442913v 1.24122h 0.442913v 0.620612h 0.442913v -0.620612h 0.442913v
 1.24122h 0.442913v -2.48245h 0.442913v 3.10306h 0.442913v -1.24122h 0.442913v 1.24122h 0.885827v -3.10306h 0.442913v 2.48245h 0.442913v -2.48245h 0.442913v 1.86184h 0.442913v -0.620612h 1.32874v 0.620612h 0.442913v -0.620612h 0.442913v 0.620612h
 0.442913v 1.86184h 0.442913v -0.620612h 0.442913v -1.24122h 0.442913v 1.24122h 0.442913v -0.620612h 0.885827v -2.48245h 0.442913v 1.86184h 0.442913v 1.24122h 0.442913v -1.24122h 1.32874v 1.24122h 0.442913v -0.620612h 0.442913v -1.86184h 0.442913v
 2.48245h 0.442913v -0.620612h 1.32874v 1.24122h 0.442913v -3.10306h 0.442913v 2.48245h 0.442913v -0.620612h 0.885827v 1.24122h 0.885827v -0.620612h 0.885827v -0.620612h 0.442913v 0.620612h 0.442913v -0.620612h 0.885827v 0.620612h 0.442913v 0.620612h
 0.442913v -1.24122h 0.442913v 0.620612h 0.885827v -1.86184h 0.442913v 1.86184h 0.442913v -1.24122h 0.442913v 0.620612h 0.885827v 1.24122h 0.442913v -2.48245h 0.442913v 1.86184h 0.442913v -1.86184h 0.442913v 0.620612h 0.442913v 1.24122h 0.442913v
 -1.86184h 0.885827v 0.620612h 0.442913v 0.620612h 0.442913v -1.24122h 0.442913v 1.86184h 0.442913v -1.24122h 0.885827v -1.24122h 0.442913v 1.86184h 0.442913v -0.620612h 0.442913v -0.620612h 1.32874v 1.24122h 0.442913v -0.620612h 0.442913v 1.24122h
 0.885827v -1.86184h 0.442913v 0.620612h 0.442913v 1.24122h 0.442913v -2.48245h 0.442913v 0.620612h 0.885827v 1.24122h 0.442913v -0.620612h 0.442913v 1.86184h 0.442913v -4.34428h 0.442913v 2.48245h 0.885827v 1.24122h 0.885827v 0.620612h 0.442913v
 -1.86184h 0.442913v -0.620612h 0.442913v -0.620612h 0.442913v 1.86184h 0.442913v 0.620612h 0.442913v -1.24122h 1.32874v 1.24122h 0.442913v -0.620612h 0.885827v 1.24122h 0.442913v -1.86184h 0.442913v 0.620612h 1.32874v -1.24122h 0.442913v 1.24122h
 0.442913v -1.24122h 0.885827v 1.24122h 0.442913v -0.620612h 0.442913v 1.24122h 0.442913v -1.86184h 0.442913v 1.24122h 0.442913v -0.620612h 0.442913v 0.620612h 0.442913v -1.24122h 0.885827v 1.86184h 0.442913v -1.24122h 1.32874v -1.86184h 0.442913v
 2.48245h 0.442913v 1.24122h 0.442913v -1.24122h 0.442913v 0.620612h 0.442913v -1.86184h 0.442913v 0.620612h 0.442913v 0.620612h 0.885827v -0.620612h 0.442913v 0.620612h 0.885827v -0.620612h 0.442913v -1.24122h 0.442913v 1.24122h 0.442913v 1.24122h
 0.442913v -0.620612h 0.885827v 0.620612h 0.442913v -0.620612h 0.442913v -0.620612h 2.21457v -0.620612h 0.885827v -0.620612h 0.442913v 1.24122h 0.442913v -0.620612h 0.442913v 1.86184h 0.442913v -0.620612h 0.442913v 1.24122h 0.442913v -1.86184h
 0.442913v 1.86184h 0.442913v -1.24122h 0.442913v -0.620612h 0.442913v -1.24122h 0.442913v 3.10306h 0.442913v -1.86184h 0.442913v -0.620612h 0.442913v 2.48245h 0.442913v -2.48245h 0.442913v -0.620612h 0.442913v 1.24122h 0.442913v 0.620612h 0.442913v
 0.620612h 0.442913v -1.86184h 0.442913v 1.24122h 0.442913v -0.620612h 0.442913v -0.620612h 0.442913v 1.24122h 0.442913v 1.24122h 0.442913v -1.24122h 0.442913v 0.620612h 0.442913v -1.24122h 0.442913v -0.620612h 0.442913v 0.620612h 0.442913v 1.86184h
 0.885827v -1.24122h 0.442913v 0.620612h 0.442913v -0.620612h 0.442913v 0.620612h 0.442913v -1.24122h 0.885827v 1.24122h 0.442913v -0.620612h 0.442913v -0.620612h 0.442913v -0.620612h 0.442913v 1.86184h 0.442913v -3.72367h 0.442913v 2.48245h
 0.442913v 0.620612h 0.442913v 0.620612h 0.442913v -0.620612h 0.442913v -1.24122h 0.442913v 1.24122h 0.885827v -0.620612h 0.442913v 1.24122h 0.442913v -1.86184h 0.442913v 1.24122h 1.32874v -0.620612h 0.442913v 0.620612h 0.885827v -0.620612h 0.442913v
 1.24122h 0.442913v -1.24122h 0.442913v -0.620612h 0.442913v 1.24122h 0.442913v 0.620612h 0.442913v -0.620612h 0.885827v -1.24122h 0.442913v 1.24122h 0.442913v -0.620612h 0.442913v 1.24122h 0.442913v 0.620612h 0.442913v -2.48245h 0.442913v 1.24122h
 0.442913v -0.620612h 0.885827v 0.620612h 0.442913v 1.24122h 0.442913v -2.48245h 0.442913v 1.24122h 0.442913v -0.620612h 0.885827v 1.86184h 0.442913v -1.24122h 0.442913v 0.620612h 0.442913v -1.24122h 0.442913v -0.620612h 0.442913v 0.620612h 0.442913v
 1.24122h 0.442913v -1.86184h 0.442913v 1.24122h 0.442913v 1.24122h 0.442913v -2.48245h 0.442913v -0.620612h 0.885827v 2.48245h 0.442913v 0.620612h 0.442913v -2.48245h 0.442913v 1.24122h 1.32874v -2.48245h 0.442913v 2.48245h 0.442913v 1.24122h
 0.442913v -1.24122h 0.442913v 1.24122h 0.442913v -2.48245h 1.77165v 1.24122h 0.442913v -1.24122h 0.442913v 1.24122h 0.442913v 0.620612h 0.442913v -1.24122h 0.442913v 0.620612h 0.442913v 0.620612h 0.442913v -1.86184h 0.442913v -0.620612h 0.442913v
 1.86184h 0.442913v 0.620612h 0.442913v -0.620612h 0.442913v -0.620612h 0.442913v 1.24122h 0.885827v -0.620612h 0.885827v -1.86184h 0.442913v 0.620612h 0.442913v 1.24122h 0.442913v -5.58551h 0.885827v -29.1688h 0.442913v -221.559h 0.442913v -35.3749h
 0.442913v 139.017h 0.442913v -52.752h 0.442913v -7.44734h 0.442913v 11.171h 0.442913v 60.1994h 0.442913v 64.5437h 0.442913v 35.3749h 0.885827v -13.6535h 0.885827v 14.2741h 0.442913v -14.8947h 0.442913v 18.6184h 0.442913v -5.58551h 0.442913v 9.30918h
 0.442913v -8.68857h 0.442913v -1.24122h 0.442913v 4.9649h 0.442913v 3.10306h 0.442913v 5.58551h 0.442913v 1.24122h 0.442913v 2.48245h 0.442913v -10.5504h 0.442913v 1.24122h 0.442913v 2.48245h 0.442913v 5.58551h 0.442913v 3.72367h 0.442913v -9.92979h
 0.442913v 6.20612h 0.442913v -8.68857h 0.442913v 8.68857h 0.442913v 9.30918h 0.442913v 2.48245h 0.442913v -13.0329h 0.442913v -2.48245h 0.442913v 14.8947h 0.885827v -3.10306h 0.442913v 7.44734h 0.442913v -1.86184h 0.442913v -5.58551h 0.442913v
 7.44734h 0.442913v -3.72367h 0.442913v 8.06796h 0.442913v 0.620612h 0.442913v 2.48245h 0.442913v -0.620612h 0.442913v 3.72367h 0.442913v -0.620612h 0.442913v 1.86184h 0.442913v 0.620612h 0.885827v 0.620612h 12.8445" fill="none" stroke="#000099"/>
<path d="M57.1929,346.022h 453.543" fill="none" stroke="black"/>
<path d="M57.1929,336.795v 9.22726" fill="none" stroke="black"/>
<path d="M66.2638,341.409v 4.61363" fill="none" stroke="black"/>
<path d="M75.3346,341.409v 4.61363" fill="none" stroke="black"/>
<path d="M84.4055,341.409v 4.61363" fill="none" stroke="black"/>
<path d="M93.4764,341.409v 4.61363" fill="none" stroke="black"/>
<path d="M102.547,336.795v 9.22726" fill="none" stroke="black"/>
<path d="M111.618,341.409v 4.61363" fill="none" stroke="black"/>
<path d="M120.689,341.409v 4.61363" fill="none" stroke="black"/>
<path d="M129.76,341.409v 4.61363" fill="none" stroke="black"/>
<path d="M138.831,341.409v 4.61363" fill="none" stroke="black"/>
<path d="M147.902,336.795v 9.22726" fill="none" stroke="black"/>
<path d="M156.972,341.409v 4.61363" fill="none" stroke="black"/>
<path d="M166.043,341.409v 4.61363" fill="none" stroke="black"/>
<path d="M175.114,341.409v 4.61363" fill="none" stroke="black"/>
<path d="M184.185,341.409v 4.61363" fill="none" stroke="black"/>
<path d="M193.256,336.795v 9.22726" fill="none" stroke="black"/>
<path d="M202.327,341.409v 4.61363" fill="none" stroke="black"/>
<path d="M211.398,341.409v 4.61363" fill="none" stroke="black"/>
<path d="M220.469,341.409v 4.61363" fill="none" stroke="black"/>
<path d="M229.539,341.409v 4.61363" fill="none" stroke="black"/>
<path d="M238.61,336.795v 9.22726" fill="none" stroke="black"/>
<path d="M247.681,341.409v 4.61363" fill="none" stroke="black"/>
<path d="M256.752,341.409v 4.61363" fill="none" stroke="black"/>
<path d="M265.823,341.409v 4.61363" fill="none" stroke="black"/>
<path d="M274.894,341.409v 4.61363" fill="none" stroke="black"/>
<path d="M283.965,336.795v 9.22726" fill="none" stroke="black"/>
<path d="M293.035,341.409v 4.61363" fill="none" stroke="black"/>
<path d="M302.106,341.409v 4.61363" fill="none" stroke="black"/>
<path d="M311.177,341.409v 4.61363" fill="none" stroke="black"/>
<path d="M320.248,341.409v 4.61363" fill="none" stroke="black"/>
<path d="M329.319,336.795v 9.22726" fill="none" stroke="black"/>
<path d="M338.39,341.409v 4.61363" fill="none" stroke="black"/>
<path d="M347.461,341.409v 4.61363" fill="none" stroke="black"/>
<path d="M356.531,341.409v 4.61363" fill="none" stroke="black"/>
<path d="M365.602,341.409v 4.61363" fill="none" stroke="black"/>
<path d="M374.673,336.795v 9.22726" fill="none" stroke="black"/>
<path d="M383.744,341.409v 4.61363" fill="none" stroke="black"/>
<path d="M392.815,341.409v 4.61363" fill="none" stroke="black"/>
<path d="M401.886,341.409v 4.61363" fill="none" stroke="black"/>
<path d="M410.957,341.409v 4.61363" fill="none" stroke="black"/>
<path d="M420.028,336.795v 9.22726" fill="none" stroke="black"/>
<path d="M429.098,341.409v 4.61363" fill="none" stroke="black"/>
<path d="M438.169,341.409v 4.61363" fill="none" stroke="black"/>
<path d="M447.24,341.409v 4.61363" fill="none" stroke="black"/>
<path d="M456.311,341.409v 4.61363" fill="none" stroke="black"/>
<path d="M465.382,336.795v 9.22726" fill="none" stroke="black"/>
<path d="M474.453,341.409v 4.61363" fill="none" stroke="black"/>
<path d="M483.524,341.409v 4.61363" fill="none" stroke="black"/>
<path d="M492.594,341.409v 4.61363" fill="none" stroke="black"/>
<path d="M501.665,341.409v 4.61363" fill="none" stroke="black"/>
<path d="M510.736,336.795v 9.22726" fill="none" stroke="black"/>
<text xml:space="preserve" x="53.446" y="358.403" fill="black" font-size="12.8453" font-family="Helvetica">0</text>
<text xml:space="preserve" x="95.8027" y="358.403" fill="black" font-size="12.8453" font-family="Helvetica">10</text>
<text xml:space="preserve" x="140.603" y="358.403" fill="black" font-size="12.8453" font-family="Helvetica">20</text>
<text xml:space="preserve" x="186.218" y="358.403" fill="black" font-size="12.8453" font-family="Helvetica">30</text>
<text xml:space="preserve" x="231.833" y="358.403" fill="black" font-size="12.8453" font-family="Helvetica">40</text>
<text xml:space="preserve" x="277.448" y="358.403" fill="black" font-size="12.8453" font-family="Helvetica">50</text>
<text xml:space="preserve" x="322.249" y="358.403" fill="black" font-size="12.8453" font-family="Helvetica">60</text>
<text xml:space="preserve" x="367.864" y="358.403" fill="black" font-size="12.8453" font-family="Helvetica">70</text>
<text xml:space="preserve" x="413.479" y="358.403" fill="black" font-size="12.8453" font-family="Helvetica">80</text>
<text xml:space="preserve" x="458.279" y="358.403" fill="black" font-size="12.8453" font-family="Helvetica">90</text>
<text xml:space="preserve" x="499.821" y="358.403" fill="black" font-size="12.8453" font-family="Helvetica">100</text>
<text xml:space="preserve" x="441.173" y="370.622" fill="black" font-size="12.8453" font-family="Helvetica">Energy [keV]</text>
<path d="M57.1929,346.022v -307.575" fill="none" stroke="black"/>
<path d="M70.7992,346.022h -13.6063" fill="none" stroke="black"/>
<path d="M63.9961,339.816h -6.80315" fill="none" stroke="black"/>
<path d="M63.9961,333.61h -6.80315" fill="none" stroke="black"/>
<path d="M63.9961,327.404h -6.80315" fill="none" stroke="black"/>
<path d="M63.9961,321.198h -6.80315" fill="none" stroke="black"/>
<path d="M70.7992,314.992h -13.6063" fill="none" stroke="black"/>
<path d="M63.9961,308.786h -6.80315" fill="none" stroke="black"/>
<path d="M63.9961,302.579h -6.80315" fill="none" stroke="black"/>
<path d="M63.9961,296.373h -6.80315" fill="none" stroke="black"/>
<path d="M63.9961,290.167h -6.80315" fill="none" stroke="black"/>
<path d="M70.7992,283.961h -13.6063" fill="none" stroke="black"/>
<path d="M63.9961,277.755h -6.80315" fill="none" stroke="black"/>
<path d="M63.9961,271.549h -6.80315" fill="none" stroke="black"/>
<path d="M63.9961,265.343h -6.80315" fill="none" stroke="black"/>
<path d="M63.9961,259.137h -6.80315" fill="none" stroke="black"/>
<path d="M70.7992,252.93h -13.6063" fill="none" stroke="black"/>
<path d="M63.9961,246.724h -6.80315" fill="none" stroke="black"/>
<path d="M63.9961,240.518h -6.80315" fill="none" stroke="black"/>
<path d="M63.9961,234.312h -6.80315" fill="none" stroke="black"/>
<path d="M63.9961,228.106h -6.80315" fill="none" stroke="black"/>
<path d="M70.7992,221.9h -13.6063" fill="none" stroke="black"/>
<path d="M63.9961,215.694h -6.80315" fill="none" stroke="black"/>
<path d="M63.9961,209.488h -6.80315" fill="none" stroke="black"/>
<path d="M63.9961,203.281h -6.80315" fill="none" stroke="black"/>
<path d="M63.9961,197.075h -6.80315" fill="none" stroke="black"/>
<path d="M70.7992,190.869h -13.6063" fill="none" stroke="black"/>
<path d="M63.9961,184.663h -6.80315" fill="none" stroke="black"/>
<path d="M63.9961,178.457h -6.80315" fill="none" stroke="black"/>
<path d="M63.9961,172.251h -6.80315" fill="none" stroke="black"/>
<path d="M63.9961,166.045h -6.80315" fill="none" stroke="black"/>
<path d="M70.7992,159.839h -13.6063" fill="none" stroke="black"/>
<path d="M63.9961,153.633h -6.80315" fill="none" stroke="black"/>
<path d="M63.9961,147.426h -6.80315" fill="none" stroke="black"/>
<path d="M63.9961,141.22h -6.80315" fill="none" stroke="black"/>
<path d="M63.9961,135.014h -6.80315" fill="none" stroke="black"/>
<path d="M70.7992,128.808h -13.6063" fill="none" stroke="black"/>
<path d="M63.9961,122.602h -6.80315" fill="none" stroke="black"/>
<path d="M63.9961,116.396h -6.80315" fill="none" stroke="black"/>
<path d="M63.9961,110.19h -6.80315" fill="none" stroke="black"/>
<path d="M63.9961,103.984h -6.80315" fill="none" stroke="black"/>
<path d="M70.7992,97.7774h -13.6063" fill="none" stroke="black"/>
<path d="M63.9961,91.5713h -6.80315" fill="none" stroke="black"/>
<path d="M63.9961,85.3652h -6.80315" fill="none" stroke="black"/>
<path d="M63.9961,79.1591h -6.80315" fill="none" stroke="black"/>
<path d="M63.9961,72.9529h -6.80315" fill="none" stroke="black"/>
<path d="M70.7992,66.7468h -13.6063" fill="none" stroke="black"/>
<path d="M70.7992,66.7468h -13.6063" fill="none" stroke="black"/>
<path d="M63.9961,60.5407h -6.80315" fill="none" stroke="black"/>
<path d="M63.9961,54.3346h -6.80315" fill="none" stroke="black"/>
<path d="M63.9961,48.1285h -6.80315" fill="none" stroke="black"/>
<path d="M63.9961,41.9223h -6.80315" fill="none" stroke="black"/>
<text xml:space="preserve" x="47.7441" y="350.258" fill="black" font-size="12.8453" font-family="Helvetica">0</text>
<text xml:space="preserve" x="41.2277" y="319.305" fill="black" font-size="12.8453" font-family="Helvetica">50</text>
<text xml:space="preserve" x="33.8967" y="288.352" fill="black" font-size="12.8453" font-family="Helvetica">100</text>
<text xml:space="preserve" x="33.8967" y="257.399" fill="black" font-size="12.8453" font-family="Helvetica">150</text>
<text xml:space="preserve" x="33.8967" y="226.446" fill="black" font-size="12.8453" font-family="Helvetica">200</text>
<text xml:space="preserve" x="33.8967" y="195.493" fill="black" font-size="12.8453" font-family="Helvetica">250</text>
<text xml:space="preserve" x="33.8967" y="164.54" fill="black" font-size="12.8453" font-family="Helvetica">300</text>
<text xml:space="preserve" x="33.8967" y="133.587" fill="black" font-size="12.8453" font-family="Helvetica">350</text>
<text xml:space="preserve" x="33.8967" y="102.634" fill="black" font-size="12.8453" font-family="Helvetica">400</text>
<text xml:space="preserve" x="33.8967" y="70.8661" fill="black" font-size="12.8453" font-family="Helvetica">450</text>
<g transform="rotate(-90,20.8638,70.0516)">
<text xml:space="preserve" x="20.8638" y="70.0516" fill="black" font-size="12.8453" font-family="Helvetica">Event</text>
</g>
<text xml:space="preserve" x="209.026" y="18.7347" fill="black" font-size="18.0316" font-family="Helvetica">Cs_006_calibrated</text>
<rect x="442.705" y="24.9905" width="113.386" height="61.5151" fill="white"/>
<path d="M442.705,86.5056h 113.386" fill="none" stroke="black"/>
<path d="M556.091,86.5056v -61.5151" fill="none" stroke="black"/>
<path d="M556.091,24.9905h -113.386" fill="none" stroke="black"/>
<path d="M442.705,24.9905v 61.5151" fill="none" stroke="black"/>
<text xml:space="preserve" x="447.69" y="36.6549" fill="black" font-size="12.5522" font-family="Helvetica">Cs_006_calibrated</text>
<path d="M442.705,40.3693h 113.386" fill="none" stroke="black"/>
<text xml:space="preserve" x="447.69" y="52.946" fill="black" font-size="12.7186" font-family="Helvetica">Entries </text>
<text xml:space="preserve" x="512.854" y="52.946" fill="black" font-size="12.7186" font-family="Helvetica"> 10524</text>
<text xml:space="preserve" x="447.69" y="67.6079" fill="black" font-size="12.7186" font-family="Helvetica">Mean  </text>
<text xml:space="preserve" x="512.854" y="67.6079" fill="black" font-size="12.7186" font-family="Helvetica">  60.19</text>
<text xml:space="preserve" x="447.69" y="83.0844" fill="black" font-size="12.7186" font-family="Helvetica">Std Dev   </text>
<text xml:space="preserve" x="512.854" y="83.0844" fill="black" font-size="12.7186" font-family="Helvetica">  32.35</text>
<text xml:space="preserve" x="209.026" y="18.7347" fill="black" font-size="18.0316" font-family="Helvetica">Cs_006_calibrated</text></svg>
