<?xml version="1.0" standalone="no"?>
<svg width="567.429" height="384.68" viewBox="0 0 567.429 384.68" xmlns="http://www.w3.org/2000/svg" shape-rendering="crispEdges">
<title>
img/week1/calibrated_hist_low_gain/Cs_006.svg
</title>
<desc>
Creator: ROOT Version 6.22/09
CreationDate: Tue Jul 13 18:40:01 2021</desc>
<defs>
</defs>
<rect x="0.5" y="0" width="566.929" height="384.18" fill="white"/>
<rect x="57.1929" y="38.418" width="453.543" height="307.344" fill="white"/>
<rect x="57.1929" y="38.418" width="453.543" height="307.344" fill="none" stroke="black"/>
<path d="M57.1929,345.762h 34.5472v -8.5019h 0.442913v -1.21456h 0.885827v 3.03639h 0.442913v 2.42912h 0.442913v -1.21456h 0.442913v -1.82184h 0.442913v -1.21456h 0.442913v 0.607279h 0.442913v 3.03639h 0.442913v -3.64367h 0.442913v 1.82184h 0.442913v
 4.25095h 0.442913v -4.85823h 0.442913v 0.607279h 0.442913v 3.64367h 0.442913v -3.03639h 0.442913v 0.607279h 0.442913v 3.03639h 0.442913v -4.25095h 0.442913v 2.42912h 0.885827v -3.64367h 0.442913v 1.21456h 0.442913v -3.64367h 0.442913v 6.07279h
 0.442913v -2.42912h 0.442913v 4.25095h 0.442913v -4.25095h 0.442913v -1.21456h 0.442913v 3.03639h 0.442913v -1.21456h 0.442913v 0.607279h 0.442913v -1.21456h 1.32874v 2.42912h 0.442913v -2.42912h 0.442913v 1.82184h 0.442913v 1.82184h 0.442913v
 -1.21456h 0.442913v -0.607279h 0.442913v -1.82184h 0.442913v -1.21456h 0.442913v 1.21456h 0.442913v 3.64367h 0.442913v -5.46551h 0.442913v 2.42912h 0.442913v -1.82184h 0.442913v 3.03639h 0.442913v -3.64367h 0.442913v 4.85823h 0.442913v -1.21456h
 0.442913v 2.42912h 0.442913v -1.21456h 0.442913v -0.607279h 0.442913v -1.82184h 0.442913v -0.607279h 0.885827v 1.82184h 0.442913v -0.607279h 0.442913v 1.82184h 0.442913v 1.82184h 0.442913v -1.82184h 0.442913v -1.21456h 0.442913v 1.82184h 0.442913v
 -2.42912h 0.442913v -0.607279h 0.442913v -0.607279h 0.442913v 1.21456h 0.442913v 2.42912h 0.442913v -3.03639h 0.442913v -0.607279h 0.442913v 3.64367h 0.442913v -4.25095h 0.442913v 4.25095h 0.442913v -1.21456h 0.442913v 1.21456h 0.442913v -0.607279h
 0.442913v -4.25095h 0.442913v 3.64367h 0.442913v -0.607279h 0.442913v -0.607279h 0.442913v 2.42912h 0.442913v -3.64367h 0.442913v 1.21456h 0.442913v -1.82184h 0.442913v 6.07279h 0.442913v -3.64367h 0.885827v 0.607279h 0.442913v 0.607279h 0.442913v
 -6.07279h 0.442913v 3.64367h 0.442913v 0.607279h 0.442913v -6.07279h 0.442913v 7.89463h 0.442913v -4.25095h 0.442913v 1.82184h 0.442913v 3.03639h 0.442913v -1.82184h 0.442913v -2.42912h 0.442913v 1.21456h 0.442913v 1.82184h 1.32874v -1.82184h
 0.442913v -4.25095h 0.442913v 6.07279h 0.442913v 1.82184h 0.442913v -0.607279h 0.885827v -1.82184h 0.885827v 1.21456h 0.442913v -3.03639h 0.442913v 3.03639h 0.885827v -1.21456h 0.442913v -0.607279h 0.442913v -2.42912h 0.442913v 1.82184h 0.442913v
 3.64367h 0.442913v -0.607279h 0.442913v -1.82184h 0.442913v -1.82184h 0.442913v -3.03639h 0.442913v 3.64367h 0.442913v 0.607279h 0.442913v 1.21456h 0.442913v 0.607279h 0.442913v -3.64367h 0.442913v 1.82184h 0.442913v 1.82184h 0.442913v 0.607279h
 0.442913v -2.42912h 0.442913v 3.03639h 0.442913v -6.68007h 0.442913v 4.85823h 0.442913v -7.89463h 0.442913v 3.03639h 0.885827v 3.03639h 0.442913v -6.07279h 0.442913v 3.64367h 0.442913v 2.42912h 0.442913v -1.21456h 0.442913v -0.607279h 0.442913v
 -0.607279h 0.885827v -4.25095h 0.442913v 4.25095h 0.442913v 1.21456h 0.442913v -0.607279h 0.442913v -3.03639h 0.442913v 1.82184h 0.442913v 0.607279h 0.442913v 1.82184h 0.442913v -3.64367h 0.442913v 5.46551h 0.442913v -4.25095h 0.442913v 3.64367h
 0.442913v -9.10918h 0.885827v 7.89463h 0.442913v -1.21456h 0.442913v 1.21456h 0.442913v -4.25095h 1.77165v 7.28735h 0.442913v -4.85823h 0.442913v -3.03639h 0.442913v 7.28735h 0.442913v -0.607279h 0.442913v -2.42912h 0.442913v 1.21456h 0.442913v
 -1.21456h 0.442913v 3.03639h 0.442913v 0.607279h 0.442913v -2.42912h 0.442913v 1.21456h 0.442913v 1.21456h 0.442913v -2.42912h 0.442913v 0.607279h 0.442913v 1.21456h 0.442913v -0.607279h 0.885827v -1.82184h 0.442913v 1.21456h 0.885827v -1.21456h
 0.442913v 3.64367h 0.442913v -0.607279h 0.442913v -1.82184h 0.442913v 1.82184h 0.442913v -0.607279h 0.442913v -1.82184h 0.442913v 3.03639h 0.442913v -1.21456h 0.885827v -1.21456h 0.442913v -1.82184h 0.442913v -0.607279h 0.442913v 4.25095h 0.885827v
 1.82184h 0.442913v -5.46551h 0.442913v -2.42912h 0.442913v 8.5019h 0.442913v -5.46551h 0.442913v 3.64367h 0.442913v -3.64367h 0.442913v -1.82184h 0.442913v 4.85823h 0.442913v -1.82184h 0.885827v -1.21456h 0.442913v 1.21456h 0.442913v -2.42912h
 0.442913v 1.21456h 0.442913v -1.21456h 0.442913v -3.64367h 0.442913v 7.89463h 0.442913v -1.21456h 0.442913v -3.03639h 0.442913v 1.21456h 0.442913v -6.07279h 0.442913v 2.42912h 0.442913v 0.607279h 0.442913v 1.82184h 0.442913v -6.07279h 0.442913v
 2.42912h 0.442913v -2.42912h 0.442913v -2.42912h 0.442913v 7.28735h 0.442913v -13.3601h 0.442913v 5.46551h 0.442913v -5.46551h 0.442913v -2.42912h 0.442913v 10.931h 0.442913v -0.607279h 0.442913v -11.5383h 0.442913v 1.21456h 0.442913v -0.607279h
 0.442913v -8.5019h 0.442913v 6.07279h 0.442913v 9.10918h 0.442913v -10.931h 0.442913v -1.82184h 0.442913v -2.42912h 0.442913v 7.28735h 0.442913v 5.46551h 0.442913v -0.607279h 0.442913v -11.5383h 0.442913v -2.42912h 0.442913v 4.25095h 0.442913v
 -15.182h 0.442913v 20.0402h 0.442913v 10.3237h 0.442913v -14.5747h 0.442913v 3.03639h 0.442913v 4.85823h 0.442913v -3.03639h 0.442913v -5.46551h 0.442913v 12.1456h 0.442913v -5.46551h 0.442913v -0.607279h 0.442913v 3.64367h 0.442913v 2.42912h
 0.442913v 5.46551h 0.442913v 4.25095h 0.442913v -7.89463h 0.885827v -2.42912h 0.442913v 8.5019h 0.885827v 3.03639h 0.442913v -6.07279h 0.442913v 4.25095h 0.442913v -1.21456h 0.442913v -1.82184h 0.442913v 6.68007h 0.442913v 1.82184h 0.442913v
 0.607279h 0.442913v -2.42912h 0.442913v 0.607279h 0.442913v 1.21456h 0.442913v -1.82184h 0.442913v -1.82184h 0.442913v 1.21456h 0.442913v 1.21456h 0.442913v -9.71646h 0.442913v 8.5019h 0.885827v -1.82184h 0.442913v -0.607279h 0.442913v 3.03639h
 0.442913v -0.607279h 0.885827v 3.03639h 0.442913v -1.82184h 0.442913v -0.607279h 0.442913v -0.607279h 0.442913v 1.21456h 0.442913v -1.21456h 0.442913v 2.42912h 0.442913v -0.607279h 0.442913v 0.607279h 1.32874v -3.03639h 0.442913v 4.85823h 0.442913v
 -1.21456h 0.442913v -2.42912h 0.442913v -0.607279h 0.442913v 1.21456h 0.442913v 1.21456h 0.442913v 3.03639h 0.885827v -2.42912h 0.442913v 1.82184h 0.442913v -0.607279h 0.442913v 1.82184h 0.442913v -1.21456h 0.442913v -2.42912h 0.442913v 3.03639h
 0.442913v -6.07279h 0.442913v 4.85823h 0.442913v -0.607279h 0.442913v -0.607279h 0.442913v 1.82184h 0.442913v 1.82184h 0.442913v -0.607279h 0.442913v -1.21456h 0.442913v 0.607279h 0.442913v -2.42912h 0.442913v 1.82184h 0.442913v -1.21456h 0.442913v
 1.21456h 0.442913v 0.607279h 0.442913v -1.21456h 0.442913v 3.03639h 0.442913v -1.82184h 0.442913v -3.03639h 0.442913v 4.25095h 0.442913v -3.03639h 0.442913v 2.42912h 0.442913v -1.21456h 0.442913v 0.607279h 0.442913v 1.21456h 0.442913v -1.21456h
 0.442913v -1.82184h 0.442913v 2.42912h 0.442913v 1.21456h 0.442913v -0.607279h 0.885827v -1.21456h 0.442913v 1.21456h 0.442913v -1.82184h 0.442913v 0.607279h 0.442913v -1.82184h 0.442913v 1.82184h 0.442913v -3.03639h 0.442913v 2.42912h 0.442913v
 0.607279h 0.442913v -0.607279h 0.442913v 1.82184h 0.442913v -0.607279h 0.442913v -1.82184h 0.885827v 0.607279h 0.442913v 1.21456h 0.442913v -1.82184h 0.442913v 2.42912h 0.442913v -0.607279h 0.442913v -1.21456h 0.442913v 1.21456h 0.442913v -2.42912h
 0.442913v 2.42912h 0.442913v -1.82184h 0.442913v 1.82184h 0.885827v -1.21456h 0.442913v 1.82184h 0.442913v 0.607279h 0.442913v -2.42912h 0.442913v -3.64367h 0.442913v 4.85823h 0.442913v 0.607279h 0.442913v -1.21456h 0.442913v -2.42912h 0.442913v
 3.03639h 1.32874v -1.21456h 0.442913v 0.607279h 0.442913v -1.21456h 0.442913v 0.607279h 0.442913v 0.607279h 0.442913v -1.21456h 0.442913v 1.82184h 0.885827v -0.607279h 0.442913v -0.607279h 0.442913v 0.607279h 0.442913v 1.21456h 0.442913v -1.21456h
 0.442913v -0.607279h 0.885827v 0.607279h 0.885827v 0.607279h 0.442913v -0.607279h 0.442913v 1.21456h 0.885827v -1.82184h 0.885827v 0.607279h 0.885827v -2.42912h 0.442913v 1.82184h 0.442913v -1.21456h 0.442913v 0.607279h 0.442913v 1.82184h 0.442913v
 -0.607279h 0.442913v 0.607279h 0.442913v -2.42912h 0.442913v 1.82184h 0.442913v -1.82184h 0.885827v 3.03639h 0.442913v -2.42912h 0.442913v 3.03639h 0.442913v -2.42912h 0.442913v 1.82184h 0.442913v -3.03639h 0.442913v 0.607279h 0.442913v 2.42912h
 0.442913v 0.607279h 0.885827v -3.03639h 0.442913v 1.82184h 0.885827v -0.607279h 0.885827v 0.607279h 0.442913v -0.607279h 0.885827v 1.21456h 0.442913v -1.21456h 0.442913v -0.607279h 0.442913v 0.607279h 0.442913v 1.82184h 0.442913v -1.82184h 0.442913v
 -1.21456h 0.442913v 0.607279h 0.442913v 1.21456h 0.442913v 0.607279h 0.442913v -1.21456h 0.442913v 0.607279h 0.885827v -0.607279h 0.442913v 0.607279h 0.442913v -1.21456h 0.442913v 0.607279h 0.442913v -1.21456h 0.442913v 1.82184h 0.885827v 0.607279h
 0.442913v -1.21456h 0.885827v -3.03639h 0.442913v 3.64367h 0.442913v 0.607279h 0.442913v -0.607279h 0.885827v -0.607279h 0.442913v 1.21456h 0.442913v -1.21456h 0.442913v -1.21456h 0.442913v 1.82184h 0.885827v 0.607279h 0.885827v -1.21456h 0.442913v
 -0.607279h 0.442913v 0.607279h 1.77165v -0.607279h 0.442913v 0.607279h 0.442913v -1.82184h 0.442913v 2.42912h 0.442913v 1.21456h 0.442913v -1.82184h 1.32874v 1.21456h 0.442913v -2.42912h 0.442913v 0.607279h 0.442913v 1.21456h 0.885827v -1.21456h
 0.442913v -0.607279h 0.442913v 1.82184h 0.442913v -1.21456h 0.442913v 1.82184h 0.442913v -0.607279h 0.885827v -3.03639h 0.442913v 3.03639h 1.32874v -0.607279h 0.442913v 0.607279h 0.442913v 0.607279h 0.442913v -0.607279h 0.442913v -1.82184h 0.442913v
 1.21456h 0.442913v 1.82184h 0.442913v -2.42912h 0.442913v -0.607279h 0.442913v 0.607279h 0.442913v -1.82184h 0.442913v 3.64367h 0.442913v -2.42912h 0.885827v 1.82184h 0.442913v -1.82184h 0.442913v 2.42912h 0.442913v -0.607279h 0.442913v -0.607279h
 0.442913v -0.607279h 0.442913v 1.21456h 1.32874v -3.03639h 0.442913v 3.64367h 0.442913v -2.42912h 0.885827v 1.82184h 0.442913v -2.42912h 0.442913v 3.03639h 0.442913v -1.21456h 0.442913v 1.21456h 0.442913v -0.607279h 0.442913v -2.42912h 0.442913v
 1.21456h 1.77165v -0.607279h 0.442913v 1.21456h 0.442913v -1.21456h 0.442913v 1.21456h 0.442913v 1.82184h 0.442913v -1.21456h 0.442913v -0.607279h 0.442913v 1.21456h 0.442913v -0.607279h 0.442913v -1.21456h 0.442913v -0.607279h 0.442913v 1.82184h
 0.442913v -0.607279h 1.32874v 1.21456h 0.442913v -0.607279h 0.442913v -1.82184h 0.442913v 2.42912h 0.442913v -1.21456h 0.442913v 1.21456h 0.442913v -0.607279h 0.442913v -0.607279h 0.885827v 0.607279h 0.885827v 1.21456h 0.885827v -0.607279h 0.885827v
 -0.607279h 0.442913v -0.607279h 0.442913v 0.607279h 0.442913v 1.21456h 0.442913v -0.607279h 1.32874v -0.607279h 0.442913v -1.21456h 0.442913v 1.82184h 0.442913v -1.82184h 0.442913v 1.82184h 0.442913v -0.607279h 0.442913v 0.607279h 0.442913v
 -1.82184h 0.442913v 0.607279h 0.885827v 1.21456h 0.442913v -2.42912h 0.885827v 1.82184h 0.885827v -1.21456h 0.442913v 1.21456h 0.442913v -1.21456h 0.442913v 1.82184h 0.442913v -3.64367h 0.442913v 2.42912h 0.442913v -0.607279h 0.442913v 1.82184h
 0.442913v -3.64367h 0.442913v 3.03639h 0.442913v -0.607279h 0.442913v 1.21456h 0.442913v -1.82184h 0.442913v 1.21456h 0.442913v -0.607279h 0.442913v -1.21456h 0.442913v 0.607279h 0.442913v 1.21456h 0.442913v -1.21456h 0.442913v 0.607279h 0.442913v
 1.82184h 0.442913v -5.46551h 0.442913v 4.85823h 0.442913v -1.21456h 0.442913v 1.21456h 1.32874v -3.03639h 0.442913v 1.82184h 0.885827v 0.607279h 0.442913v -0.607279h 0.885827v -0.607279h 0.442913v 1.82184h 0.442913v -0.607279h 0.442913v 0.607279h
 0.885827v -1.82184h 0.442913v 1.21456h 0.885827v -1.21456h 0.442913v 1.21456h 0.442913v -1.21456h 0.885827v 0.607279h 1.32874v 1.21456h 0.442913v -1.21456h 1.32874v -1.82184h 0.442913v 3.03639h 0.442913v -1.21456h 1.32874v -2.42912h 0.442913v
 3.64367h 0.442913v -0.607279h 0.442913v 0.607279h 0.442913v -1.21456h 0.442913v 0.607279h 0.442913v -0.607279h 0.442913v 0.607279h 0.442913v -1.21456h 0.442913v 1.21456h 0.885827v -2.42912h 0.442913v 1.21456h 0.442913v 1.21456h 0.442913v 0.607279h
 0.442913v -0.607279h 0.442913v 0.607279h 0.442913v -1.21456h 2.21457v -2.42912h 0.442913v 3.64367h 0.442913v -1.21456h 0.442913v -1.82184h 0.442913v 2.42912h 0.442913v -1.82184h 0.442913v 2.42912h 0.885827v -1.21456h 0.442913v 1.82184h 0.442913v
 -1.21456h 0.442913v -1.21456h 0.885827v 2.42912h 0.442913v -2.42912h 0.442913v 0.607279h 0.885827v -0.607279h 0.442913v -0.607279h 0.442913v 1.82184h 0.442913v 0.607279h 0.442913v -1.82184h 0.442913v 1.21456h 0.442913v -1.21456h 0.442913v 0.607279h
 0.442913v 0.607279h 0.442913v 1.21456h 0.442913v -1.21456h 0.442913v -0.607279h 0.442913v 0.607279h 0.442913v -2.42912h 0.442913v 3.64367h 0.885827v -1.21456h 0.442913v 0.607279h 0.442913v -0.607279h 0.442913v -0.607279h 0.442913v 0.607279h 1.77165v
 -0.607279h 0.442913v -0.607279h 0.442913v -0.607279h 0.885827v 1.82184h 0.442913v 0.607279h 0.442913v -0.607279h 0.442913v -1.82184h 0.442913v 1.82184h 0.442913v 0.607279h 0.442913v -1.21456h 0.442913v 1.21456h 0.442913v -3.03639h 0.442913v 2.42912h
 1.32874v -1.21456h 0.885827v 1.82184h 0.442913v -0.607279h 0.442913v -1.21456h 0.442913v 1.21456h 0.442913v 0.607279h 0.442913v -0.607279h 0.442913v -0.607279h 0.442913v -0.607279h 0.442913v 1.21456h 0.442913v -0.607279h 0.442913v 1.21456h 0.442913v
 -0.607279h 0.442913v -1.21456h 0.442913v 1.21456h 0.442913v -0.607279h 0.442913v 0.607279h 0.442913v 0.607279h 0.442913v -1.21456h 1.77165v 1.82184h 0.442913v -1.21456h 0.885827v -0.607279h 0.442913v -0.607279h 0.442913v 0.607279h 0.442913v
 -0.607279h 0.442913v 1.21456h 0.442913v 1.21456h 0.442913v -2.42912h 0.442913v -0.607279h 0.885827v 2.42912h 0.885827v -1.21456h 0.442913v 0.607279h 0.885827v -1.21456h 0.442913v -1.21456h 0.442913v 3.64367h 0.442913v -1.21456h 0.442913v 1.21456h
 0.442913v -2.42912h 0.885827v -1.21456h 0.442913v 1.82184h 0.442913v 1.21456h 0.442913v -1.82184h 0.442913v 1.21456h 0.442913v -0.607279h 0.885827v 1.21456h 0.442913v -1.21456h 0.442913v -1.82184h 0.442913v 2.42912h 1.32874v -0.607279h 0.442913v
 1.82184h 0.442913v -0.607279h 0.442913v -1.21456h 0.885827v -1.21456h 0.442913v 0.607279h 0.442913v -2.42912h 0.442913v -3.64367h 0.442913v -33.4003h 0.442913v -250.806h 0.442913v 20.0402h 0.442913v 99.5937h 0.442913v -51.0114h 0.442913v -10.931h
 0.442913v 41.9022h 0.442913v 94.1282h 0.442913v 48.5823h 0.442913v 6.07279h 0.442913v -13.9674h 0.442913v -3.03639h 0.442913v 15.182h 0.442913v -10.3237h 0.442913v 13.3601h 0.442913v 3.64367h 0.442913v -6.68007h 0.442913v -4.25095h 0.442913v 10.931h
 0.442913v -3.64367h 0.442913v 13.9674h 0.442913v -5.46551h 0.442913v 4.25095h 0.442913v -6.68007h 0.442913v -1.82184h 0.442913v 0.607279h 0.442913v 9.71646h 0.442913v 1.82184h 0.442913v -8.5019h 0.442913v -1.82184h 0.442913v 5.46551h 0.442913v
 4.25095h 0.442913v 12.1456h 0.442913v -15.182h 0.442913v -4.85823h 0.442913v 16.3965h 0.442913v -1.21456h 0.442913v 1.21456h 0.442913v 5.46551h 0.442913v -7.28735h 0.442913v 6.07279h 0.442913v -3.64367h 0.442913v 7.28735h 0.442913v 1.82184h
 0.442913v 3.03639h 0.442913v -1.21456h 0.442913v 4.85823h 0.442913v -1.21456h 0.442913v 3.03639h 1.32874v 0.607279h 37.2047" fill="none" stroke="#000099"/>
<path d="M57.1929,345.762h 453.543" fill="none" stroke="black"/>
<path d="M57.1929,336.541v 9.22031" fill="none" stroke="black"/>
<path d="M66.2638,341.152v 4.61016" fill="none" stroke="black"/>
<path d="M75.3346,341.152v 4.61016" fill="none" stroke="black"/>
<path d="M84.4055,341.152v 4.61016" fill="none" stroke="black"/>
<path d="M93.4764,341.152v 4.61016" fill="none" stroke="black"/>
<path d="M102.547,336.541v 9.22031" fill="none" stroke="black"/>
<path d="M111.618,341.152v 4.61016" fill="none" stroke="black"/>
<path d="M120.689,341.152v 4.61016" fill="none" stroke="black"/>
<path d="M129.76,341.152v 4.61016" fill="none" stroke="black"/>
<path d="M138.831,341.152v 4.61016" fill="none" stroke="black"/>
<path d="M147.902,336.541v 9.22031" fill="none" stroke="black"/>
<path d="M156.972,341.152v 4.61016" fill="none" stroke="black"/>
<path d="M166.043,341.152v 4.61016" fill="none" stroke="black"/>
<path d="M175.114,341.152v 4.61016" fill="none" stroke="black"/>
<path d="M184.185,341.152v 4.61016" fill="none" stroke="black"/>
<path d="M193.256,336.541v 9.22031" fill="none" stroke="black"/>
<path d="M202.327,341.152v 4.61016" fill="none" stroke="black"/>
<path d="M211.398,341.152v 4.61016" fill="none" stroke="black"/>
<path d="M220.469,341.152v 4.61016" fill="none" stroke="black"/>
<path d="M229.539,341.152v 4.61016" fill="none" stroke="black"/>
<path d="M238.61,336.541v 9.22031" fill="none" stroke="black"/>
<path d="M247.681,341.152v 4.61016" fill="none" stroke="black"/>
<path d="M256.752,341.152v 4.61016" fill="none" stroke="black"/>
<path d="M265.823,341.152v 4.61016" fill="none" stroke="black"/>
<path d="M274.894,341.152v 4.61016" fill="none" stroke="black"/>
<path d="M283.965,336.541v 9.22031" fill="none" stroke="black"/>
<path d="M293.035,341.152v 4.61016" fill="none" stroke="black"/>
<path d="M302.106,341.152v 4.61016" fill="none" stroke="black"/>
<path d="M311.177,341.152v 4.61016" fill="none" stroke="black"/>
<path d="M320.248,341.152v 4.61016" fill="none" stroke="black"/>
<path d="M329.319,336.541v 9.22031" fill="none" stroke="black"/>
<path d="M338.39,341.152v 4.61016" fill="none" stroke="black"/>
<path d="M347.461,341.152v 4.61016" fill="none" stroke="black"/>
<path d="M356.531,341.152v 4.61016" fill="none" stroke="black"/>
<path d="M365.602,341.152v 4.61016" fill="none" stroke="black"/>
<path d="M374.673,336.541v 9.22031" fill="none" stroke="black"/>
<path d="M383.744,341.152v 4.61016" fill="none" stroke="black"/>
<path d="M392.815,341.152v 4.61016" fill="none" stroke="black"/>
<path d="M401.886,341.152v 4.61016" fill="none" stroke="black"/>
<path d="M410.957,341.152v 4.61016" fill="none" stroke="black"/>
<path d="M420.028,336.541v 9.22031" fill="none" stroke="black"/>
<path d="M429.098,341.152v 4.61016" fill="none" stroke="black"/>
<path d="M438.169,341.152v 4.61016" fill="none" stroke="black"/>
<path d="M447.24,341.152v 4.61016" fill="none" stroke="black"/>
<path d="M456.311,341.152v 4.61016" fill="none" stroke="black"/>
<path d="M465.382,336.541v 9.22031" fill="none" stroke="black"/>
<path d="M474.453,341.152v 4.61016" fill="none" stroke="black"/>
<path d="M483.524,341.152v 4.61016" fill="none" stroke="black"/>
<path d="M492.594,341.152v 4.61016" fill="none" stroke="black"/>
<path d="M501.665,341.152v 4.61016" fill="none" stroke="black"/>
<path d="M510.736,336.541v 9.22031" fill="none" stroke="black"/>
<text xml:space="preserve" x="53.2943" y="358.189" fill="black" font-size="12.836" font-family="Helvetica">0</text>
<text xml:space="preserve" x="95.5297" y="358.189" fill="black" font-size="12.836" font-family="Helvetica">10</text>
<text xml:space="preserve" x="141.014" y="358.189" fill="black" font-size="12.836" font-family="Helvetica">20</text>
<text xml:space="preserve" x="186.498" y="358.189" fill="black" font-size="12.836" font-family="Helvetica">30</text>
<text xml:space="preserve" x="231.983" y="358.189" fill="black" font-size="12.836" font-family="Helvetica">40</text>
<text xml:space="preserve" x="277.467" y="358.189" fill="black" font-size="12.836" font-family="Helvetica">50</text>
<text xml:space="preserve" x="322.139" y="358.189" fill="black" font-size="12.836" font-family="Helvetica">60</text>
<text xml:space="preserve" x="367.623" y="358.189" fill="black" font-size="12.836" font-family="Helvetica">70</text>
<text xml:space="preserve" x="413.107" y="358.189" fill="black" font-size="12.836" font-family="Helvetica">80</text>
<text xml:space="preserve" x="458.592" y="358.189" fill="black" font-size="12.836" font-family="Helvetica">90</text>
<text xml:space="preserve" x="500.015" y="358.189" fill="black" font-size="12.836" font-family="Helvetica">100</text>
<text xml:space="preserve" x="441.535" y="370.372" fill="black" font-size="12.836" font-family="Helvetica">Energy [keV]</text>
<path d="M57.1929,345.762v -307.344" fill="none" stroke="black"/>
<path d="M70.7992,345.762h -13.6063" fill="none" stroke="black"/>
<path d="M63.9961,333.616h -6.80315" fill="none" stroke="black"/>
<path d="M63.9961,321.471h -6.80315" fill="none" stroke="black"/>
<path d="M63.9961,309.325h -6.80315" fill="none" stroke="black"/>
<path d="M63.9961,297.18h -6.80315" fill="none" stroke="black"/>
<path d="M70.7992,285.034h -13.6063" fill="none" stroke="black"/>
<path d="M63.9961,272.888h -6.80315" fill="none" stroke="black"/>
<path d="M63.9961,260.743h -6.80315" fill="none" stroke="black"/>
<path d="M63.9961,248.597h -6.80315" fill="none" stroke="black"/>
<path d="M63.9961,236.452h -6.80315" fill="none" stroke="black"/>
<path d="M70.7992,224.306h -13.6063" fill="none" stroke="black"/>
<path d="M63.9961,212.16h -6.80315" fill="none" stroke="black"/>
<path d="M63.9961,200.015h -6.80315" fill="none" stroke="black"/>
<path d="M63.9961,187.869h -6.80315" fill="none" stroke="black"/>
<path d="M63.9961,175.724h -6.80315" fill="none" stroke="black"/>
<path d="M70.7992,163.578h -13.6063" fill="none" stroke="black"/>
<path d="M63.9961,151.433h -6.80315" fill="none" stroke="black"/>
<path d="M63.9961,139.287h -6.80315" fill="none" stroke="black"/>
<path d="M63.9961,127.141h -6.80315" fill="none" stroke="black"/>
<path d="M63.9961,114.996h -6.80315" fill="none" stroke="black"/>
<path d="M70.7992,102.85h -13.6063" fill="none" stroke="black"/>
<path d="M63.9961,90.7047h -6.80315" fill="none" stroke="black"/>
<path d="M63.9961,78.5591h -6.80315" fill="none" stroke="black"/>
<path d="M63.9961,66.4135h -6.80315" fill="none" stroke="black"/>
<path d="M63.9961,54.268h -6.80315" fill="none" stroke="black"/>
<path d="M70.7992,42.1224h -13.6063" fill="none" stroke="black"/>
<path d="M70.7992,42.1224h -13.6063" fill="none" stroke="black"/>
<text xml:space="preserve" x="47.6087" y="350.067" fill="black" font-size="12.836" font-family="Helvetica">0</text>
<text xml:space="preserve" x="33.801" y="289.15" fill="black" font-size="12.836" font-family="Helvetica">100</text>
<text xml:space="preserve" x="33.801" y="229.046" fill="black" font-size="12.836" font-family="Helvetica">200</text>
<text xml:space="preserve" x="33.801" y="168.129" fill="black" font-size="12.836" font-family="Helvetica">300</text>
<text xml:space="preserve" x="33.801" y="107.213" fill="black" font-size="12.836" font-family="Helvetica">400</text>
<text xml:space="preserve" x="33.801" y="46.2965" fill="black" font-size="12.836" font-family="Helvetica">500</text>
<g transform="rotate(-90,20.8055,69.8509)">
<text xml:space="preserve" x="20.8055" y="69.8509" fill="black" font-size="12.836" font-family="Helvetica">Event</text>
</g>
<text xml:space="preserve" x="209.24" y="18.681" fill="black" font-size="17.9813" font-family="Helvetica">Cs_006_calibrated</text>
<rect x="442.705" y="24.9717" width="113.386" height="61.4688" fill="white"/>
<path d="M442.705,86.4405h 113.386" fill="none" stroke="black"/>
<path d="M556.091,86.4405v -61.4688" fill="none" stroke="black"/>
<path d="M556.091,24.9717h -113.386" fill="none" stroke="black"/>
<path d="M442.705,24.9717v 61.4688" fill="none" stroke="black"/>
<text xml:space="preserve" x="448.033" y="36.5499" fill="black" font-size="12.5745" font-family="Helvetica">Cs_006_calibrated</text>
<path d="M442.705,40.3389h 113.386" fill="none" stroke="black"/>
<text xml:space="preserve" x="448.033" y="52.7943" fill="black" font-size="12.7411" font-family="Helvetica">Entries </text>
<text xml:space="preserve" x="513.01" y="52.7943" fill="black" font-size="12.7411" font-family="Helvetica"> 10524</text>
<text xml:space="preserve" x="448.033" y="68.2264" fill="black" font-size="12.7411" font-family="Helvetica">Mean  </text>
<text xml:space="preserve" x="513.01" y="68.2264" fill="black" font-size="12.7411" font-family="Helvetica">  57.73</text>
<text xml:space="preserve" x="448.033" y="82.8464" fill="black" font-size="12.7411" font-family="Helvetica">Std Dev   </text>
<text xml:space="preserve" x="513.01" y="82.8464" fill="black" font-size="12.7411" font-family="Helvetica">  29.77</text>
<text xml:space="preserve" x="209.24" y="18.681" fill="black" font-size="17.9813" font-family="Helvetica">Cs_006_calibrated</text></svg>
