<?xml version="1.0" standalone="no"?>
<svg width="567.429" height="384.969" viewBox="0 0 567.429 384.969" xmlns="http://www.w3.org/2000/svg" shape-rendering="crispEdges">
<title>
img/week1/calibrated_hist_low_gain/Cs_006.svg
</title>
<desc>
Creator: ROOT Version 6.22/09
CreationDate: Sun Jul 11 19:00:39 2021</desc>
<defs>
</defs>
<rect x="0.5" y="0" width="566.929" height="384.469" fill="white"/>
<rect x="57.1929" y="38.4469" width="453.543" height="307.575" fill="white"/>
<rect x="57.1929" y="38.4469" width="453.543" height="307.575" fill="none" stroke="black"/>
<path d="M57.1929,346.022h 14.6161v -2.03423h 0.442913v -2.7123h 0.442913v -7.45884h 0.442913v 3.39038h 0.442913v 4.74653h 0.442913v -4.06846h 0.442913v 3.39038h 0.442913v -3.39038h 0.442913v 2.7123h 0.885827v -8.13691h 0.442913v 8.13691h 0.885827v
 -1.35615h 0.442913v 2.03423h 0.442913v 0.678076h 0.442913v -3.39038h 0.442913v 2.7123h 0.442913v -0.678076h 0.442913v -1.35615h 0.442913v 2.03423h 0.442913v 2.7123h 0.442913v -4.06846h 0.885827v 2.7123h 0.442913v -6.78076h 0.442913v 1.35615h
 0.442913v -0.678076h 0.442913v 4.06846h 0.442913v 1.35615h 0.442913v -1.35615h 0.442913v 3.39038h 0.442913v -1.35615h 0.442913v -6.78076h 0.442913v 4.06846h 0.442913v 1.35615h 0.442913v -0.678076h 0.885827v -4.06846h 0.442913v 2.7123h 0.442913v
 0.678076h 0.885827v 2.03423h 0.885827v 1.35615h 0.442913v -3.39038h 0.442913v 1.35615h 0.442913v -2.03423h 0.442913v 1.35615h 0.442913v -1.35615h 0.442913v 0.678076h 0.442913v -1.35615h 0.442913v -0.678076h 0.442913v 1.35615h 0.442913v 2.03423h
 0.442913v -1.35615h 0.442913v -1.35615h 0.442913v 2.03423h 0.442913v 2.7123h 0.442913v -2.03423h 0.442913v 0.678076h 0.442913v 0.678076h 0.442913v -2.7123h 0.442913v -0.678076h 0.442913v 1.35615h 0.442913v -0.678076h 0.442913v 2.03423h 0.442913v
 -2.03423h 0.442913v 2.7123h 0.442913v 2.03423h 0.442913v -2.03423h 0.442913v -4.06846h 0.442913v 4.06846h 0.442913v -0.678076h 0.442913v -1.35615h 0.885827v -2.7123h 0.442913v 4.06846h 0.442913v 2.7123h 0.442913v -7.45884h 0.442913v 2.7123h
 0.885827v 4.06846h 0.442913v -2.7123h 0.442913v 0.678076h 0.442913v 1.35615h 0.442913v -4.74653h 0.442913v 5.42461h 0.442913v -3.39038h 0.442913v 0.678076h 0.442913v -2.7123h 0.442913v 2.03423h 0.442913v 2.03423h 0.442913v -2.03423h 0.442913v
 -1.35615h 0.442913v 4.06846h 0.442913v -2.03423h 0.442913v -1.35615h 0.442913v 2.03423h 0.442913v -0.678076h 0.442913v -2.7123h 0.885827v 0.678076h 0.442913v 0.678076h 0.442913v -2.7123h 0.442913v 2.03423h 0.442913v 2.03423h 0.442913v 0.678076h
 0.442913v -4.74653h 0.442913v 5.42461h 0.442913v -2.03423h 0.442913v -2.03423h 0.442913v 0.678076h 0.442913v 2.7123h 0.885827v 0.678076h 0.442913v -2.7123h 0.442913v -1.35615h 0.442913v -2.7123h 0.442913v 6.78076h 0.442913v 2.03423h 0.442913v
 -2.7123h 0.442913v 1.35615h 0.442913v -1.35615h 0.442913v -2.03423h 0.885827v 3.39038h 0.442913v -1.35615h 0.442913v -0.678076h 0.442913v 0.678076h 0.442913v -2.7123h 0.442913v 2.03423h 0.442913v -2.7123h 0.442913v 2.7123h 0.442913v 2.03423h
 0.442913v -2.7123h 0.442913v 2.7123h 0.442913v -5.42461h 0.442913v 1.35615h 0.442913v -0.678076h 0.442913v -1.35615h 0.442913v 4.06846h 0.442913v 2.03423h 0.885827v -4.06846h 0.442913v 0.678076h 0.442913v 1.35615h 0.442913v 1.35615h 0.442913v
 -1.35615h 0.442913v 0.678076h 0.442913v -0.678076h 0.442913v -6.10269h 0.442913v 2.7123h 0.442913v -2.7123h 0.442913v 5.42461h 0.442913v -2.03423h 0.442913v -0.678076h 0.442913v -4.74653h 0.442913v 7.45884h 0.442913v -6.78076h 0.442913v 6.78076h
 0.442913v -3.39038h 0.442913v 2.03423h 1.32874v -8.81499h 0.442913v 4.74653h 0.442913v 4.06846h 0.442913v -2.03423h 0.442913v 1.35615h 0.442913v -1.35615h 0.442913v 1.35615h 0.442913v -3.39038h 0.442913v 2.03423h 0.442913v 2.7123h 0.442913v
 -0.678076h 0.442913v 0.678076h 0.442913v -5.42461h 0.442913v -0.678076h 0.442913v 0.678076h 0.442913v 1.35615h 0.442913v 4.06846h 0.442913v -2.7123h 0.442913v -2.7123h 0.442913v 0.678076h 0.442913v -1.35615h 0.442913v 4.74653h 0.442913v -0.678076h
 0.442913v 3.39038h 0.442913v -3.39038h 0.442913v -4.06846h 0.442913v 5.42461h 0.442913v 2.03423h 0.442913v -1.35615h 0.442913v 1.35615h 0.442913v -2.7123h 0.442913v 2.03423h 0.442913v 4.06846h 0.442913v -8.13691h 0.442913v 4.06846h 0.442913v
 1.35615h 0.885827v -3.39038h 0.442913v 2.7123h 0.442913v 2.7123h 0.442913v -3.39038h 0.442913v -2.7123h 0.442913v 3.39038h 0.442913v -1.35615h 0.442913v 1.35615h 0.442913v -1.35615h 0.442913v 2.03423h 0.442913v -2.03423h 0.442913v 2.03423h 0.442913v
 1.35615h 0.442913v -1.35615h 0.442913v -2.03423h 0.442913v 1.35615h 0.885827v 2.7123h 0.442913v -4.06846h 0.442913v -0.678076h 0.442913v 2.03423h 0.442913v -4.74653h 0.442913v 5.42461h 0.442913v -0.678076h 0.442913v 0.678076h 0.442913v 2.03423h
 0.442913v -4.74653h 0.442913v 2.03423h 0.442913v -4.06846h 0.442913v 4.74653h 0.442913v -1.35615h 0.442913v 3.39038h 0.442913v -5.42461h 0.442913v 3.39038h 0.442913v -3.39038h 0.442913v 2.03423h 0.442913v -0.678076h 0.442913v 0.678076h 0.442913v
 0.678076h 0.442913v -4.74653h 0.442913v -0.678076h 0.442913v 3.39038h 0.442913v 1.35615h 0.442913v -6.10269h 0.442913v 7.45884h 0.442913v -0.678076h 0.442913v -4.74653h 0.442913v 2.7123h 0.442913v -2.7123h 0.442913v -1.35615h 0.442913v 2.03423h
 0.442913v -2.03423h 0.442913v -2.7123h 0.442913v -3.39038h 0.442913v 9.49307h 0.442913v -6.10269h 0.442913v -5.42461h 0.442913v 7.45884h 0.442913v -7.45884h 0.442913v -1.35615h 0.442913v -4.06846h 0.442913v 2.03423h 0.442913v 4.06846h 0.442913v
 4.06846h 0.442913v -6.10269h 0.442913v -4.06846h 0.442913v 0.678076h 0.442913v -2.03423h 0.442913v -9.49307h 0.442913v 8.81499h 0.442913v 5.42461h 0.442913v -8.81499h 0.442913v -4.06846h 0.442913v 2.7123h 0.442913v -1.35615h 0.442913v 4.74653h
 0.442913v 6.10269h 0.885827v -10.8492h 0.442913v -6.78076h 0.442913v 4.06846h 0.442913v -3.39038h 0.442913v 4.74653h 0.442913v 15.5958h 0.442913v -5.42461h 0.442913v -6.78076h 0.442913v 6.78076h 0.442913v -3.39038h 0.442913v -6.78076h 0.442913v
 10.8492h 0.442913v 2.03423h 0.442913v -5.42461h 0.442913v -2.03423h 0.442913v 12.8834h 0.442913v -8.81499h 0.442913v 6.10269h 0.442913v 3.39038h 0.442913v 2.7123h 0.442913v 0.678076h 0.442913v -3.39038h 0.442913v -6.78076h 0.442913v 6.78076h
 0.442913v 5.42461h 0.885827v -2.7123h 0.442913v -0.678076h 0.442913v -1.35615h 0.442913v 4.06846h 0.442913v -1.35615h 0.442913v 8.13691h 0.442913v -2.7123h 0.885827v -2.03423h 0.442913v 4.74653h 0.442913v -2.03423h 0.442913v -2.03423h 0.442913v
 2.03423h 0.442913v -4.06846h 0.442913v -3.39038h 0.442913v 2.7123h 0.442913v 0.678076h 0.442913v 0.678076h 0.442913v 2.7123h 0.442913v -2.03423h 0.885827v -1.35615h 0.442913v 2.03423h 0.442913v 2.03423h 0.442913v 1.35615h 0.442913v -3.39038h
 0.442913v 2.03423h 0.442913v -4.06846h 0.442913v 2.7123h 0.442913v 2.03423h 0.442913v -3.39038h 0.442913v 2.03423h 0.442913v 1.35615h 0.885827v -2.03423h 0.442913v 0.678076h 0.442913v 0.678076h 0.442913v 2.03423h 0.442913v -1.35615h 0.885827v
 -1.35615h 0.442913v -0.678076h 0.442913v 0.678076h 0.442913v 1.35615h 0.442913v 3.39038h 0.442913v -0.678076h 0.442913v -1.35615h 0.442913v -1.35615h 0.442913v 4.74653h 0.442913v -4.06846h 0.442913v 1.35615h 0.442913v 1.35615h 0.442913v -3.39038h
 0.885827v -0.678076h 0.442913v 2.03423h 0.442913v 0.678076h 0.442913v -0.678076h 0.442913v -0.678076h 0.442913v 2.7123h 0.442913v 0.678076h 0.442913v -2.7123h 0.442913v 1.35615h 0.885827v -1.35615h 0.442913v 1.35615h 0.442913v -2.7123h 0.442913v
 2.7123h 0.442913v -0.678076h 0.442913v 0.678076h 0.442913v 1.35615h 0.442913v 0.678076h 0.442913v -4.74653h 0.442913v 0.678076h 0.442913v 2.03423h 0.442913v -1.35615h 0.442913v 2.03423h 0.442913v 0.678076h 0.442913v -0.678076h 0.442913v 0.678076h
 0.442913v -0.678076h 0.442913v -2.7123h 0.442913v 2.7123h 0.885827v 1.35615h 0.442913v -1.35615h 0.442913v -0.678076h 0.442913v 2.03423h 0.442913v -1.35615h 0.885827v -2.7123h 0.442913v 0.678076h 0.442913v 1.35615h 0.442913v -1.35615h 0.442913v
 -1.35615h 0.442913v 3.39038h 0.885827v -2.03423h 0.442913v 2.7123h 0.885827v -2.7123h 0.442913v -0.678076h 0.442913v 2.7123h 1.32874v -0.678076h 0.442913v 0.678076h 0.442913v 0.678076h 0.885827v -2.7123h 0.442913v 0.678076h 0.442913v -0.678076h
 0.442913v 2.7123h 0.442913v -0.678076h 0.442913v -2.03423h 0.442913v 1.35615h 0.442913v 1.35615h 1.32874v -2.03423h 0.442913v -2.03423h 0.442913v 2.03423h 0.442913v 2.03423h 0.442913v -2.03423h 0.442913v -0.678076h 0.442913v 1.35615h 0.442913v
 0.678076h 0.442913v 0.678076h 0.442913v -2.03423h 0.442913v 2.03423h 0.442913v -3.39038h 0.442913v 4.06846h 0.442913v -4.74653h 0.442913v 1.35615h 0.442913v 3.39038h 0.442913v -1.35615h 0.442913v -1.35615h 0.885827v 1.35615h 0.442913v -0.678076h
 0.442913v 0.678076h 0.442913v -0.678076h 0.442913v 2.03423h 0.442913v -2.7123h 0.442913v 0.678076h 0.442913v -0.678076h 0.885827v 2.03423h 0.442913v 0.678076h 0.442913v -2.03423h 0.442913v 1.35615h 0.442913v -2.7123h 0.442913v 2.7123h 0.442913v
 -2.03423h 0.442913v 2.03423h 0.442913v -2.7123h 0.442913v -3.39038h 0.442913v 4.74653h 0.442913v 0.678076h 0.442913v -1.35615h 0.885827v 0.678076h 0.442913v 1.35615h 0.442913v -2.7123h 0.442913v 2.7123h 0.442913v -2.7123h 0.442913v 0.678076h
 0.442913v -1.35615h 0.442913v 2.7123h 0.442913v 0.678076h 0.442913v -3.39038h 0.442913v 3.39038h 0.442913v -1.35615h 0.442913v -0.678076h 0.442913v 1.35615h 0.442913v -0.678076h 0.442913v 2.03423h 0.442913v -1.35615h 0.442913v -0.678076h 0.885827v
 0.678076h 0.442913v 0.678076h 0.442913v -0.678076h 0.442913v -0.678076h 0.442913v 1.35615h 0.442913v -0.678076h 1.32874v -1.35615h 0.442913v 1.35615h 0.442913v -2.03423h 0.442913v 3.39038h 0.885827v -2.7123h 0.442913v -0.678076h 0.442913v 1.35615h
 0.885827v 0.678076h 0.442913v 0.678076h 0.442913v -2.03423h 0.442913v 2.03423h 0.442913v -0.678076h 0.442913v -0.678076h 0.885827v 0.678076h 0.442913v -1.35615h 0.442913v 0.678076h 0.442913v 0.678076h 0.442913v -1.35615h 0.442913v 2.7123h 0.442913v
 -1.35615h 0.442913v -1.35615h 0.442913v -0.678076h 0.442913v 1.35615h 0.885827v 1.35615h 0.885827v -0.678076h 0.442913v 0.678076h 0.885827v -2.7123h 0.442913v 0.678076h 0.442913v 1.35615h 0.885827v 0.678076h 0.885827v -1.35615h 0.885827v 1.35615h
 0.442913v -0.678076h 0.442913v -1.35615h 0.442913v -0.678076h 0.442913v 1.35615h 1.32874v -0.678076h 0.442913v 1.35615h 0.885827v -0.678076h 0.442913v 1.35615h 0.442913v -0.678076h 0.442913v -1.35615h 0.442913v 2.03423h 0.442913v -1.35615h 0.442913v
 0.678076h 0.442913v -1.35615h 0.442913v 2.03423h 0.442913v -3.39038h 0.442913v 2.7123h 0.442913v -1.35615h 0.442913v 1.35615h 0.442913v 1.35615h 0.442913v -2.03423h 0.442913v 0.678076h 0.442913v 0.678076h 0.442913v -2.03423h 0.442913v 1.35615h
 0.442913v -2.03423h 0.442913v 2.03423h 0.442913v 0.678076h 0.442913v -0.678076h 0.442913v -0.678076h 0.885827v 1.35615h 0.442913v -0.678076h 0.442913v -1.35615h 0.442913v 2.7123h 0.442913v -2.7123h 0.442913v 0.678076h 0.442913v -1.35615h 0.442913v
 0.678076h 0.442913v 0.678076h 0.885827v 0.678076h 0.442913v -1.35615h 0.442913v 1.35615h 0.442913v -1.35615h 0.442913v -0.678076h 0.442913v 1.35615h 0.442913v 2.03423h 0.442913v -2.7123h 0.442913v 1.35615h 0.442913v 0.678076h 0.442913v -2.03423h
 0.442913v 1.35615h 0.442913v -2.03423h 0.442913v 2.03423h 0.442913v -0.678076h 0.442913v -1.35615h 0.442913v 2.03423h 0.442913v -2.7123h 0.442913v 2.7123h 0.442913v 0.678076h 0.442913v -1.35615h 0.885827v -0.678076h 0.885827v 0.678076h 0.442913v
 -1.35615h 0.442913v 2.7123h 0.442913v -1.35615h 0.442913v -2.03423h 0.442913v 3.39038h 0.442913v -1.35615h 1.32874v 1.35615h 0.442913v -1.35615h 0.442913v 0.678076h 1.32874v -2.03423h 0.442913v 2.03423h 0.442913v 0.678076h 0.442913v -1.35615h
 0.442913v 0.678076h 0.885827v -0.678076h 0.442913v 0.678076h 0.442913v -0.678076h 0.885827v 1.35615h 0.442913v -1.35615h 0.442913v 0.678076h 0.442913v 0.678076h 0.442913v -0.678076h 0.442913v -0.678076h 0.885827v 1.35615h 0.885827v 0.678076h
 0.442913v -1.35615h 0.442913v 1.35615h 0.442913v -0.678076h 1.32874v -0.678076h 0.885827v 1.35615h 0.442913v -1.35615h 0.885827v 1.35615h 0.442913v -2.7123h 0.442913v 2.03423h 0.442913v -2.03423h 0.442913v 2.03423h 0.442913v -0.678076h 0.442913v
 1.35615h 0.442913v -0.678076h 0.442913v -2.03423h 0.442913v 1.35615h 0.442913v -1.35615h 0.442913v 1.35615h 0.442913v -1.35615h 0.442913v 0.678076h 0.442913v -0.678076h 0.885827v 2.03423h 0.442913v -0.678076h 0.885827v 0.678076h 0.442913v -2.03423h
 0.442913v -0.678076h 0.442913v 2.03423h 0.442913v -2.7123h 0.442913v 2.7123h 0.885827v -0.678076h 0.442913v -1.35615h 0.442913v 2.03423h 0.442913v 0.678076h 0.442913v -0.678076h 0.885827v -1.35615h 0.442913v 0.678076h 0.442913v 0.678076h 0.442913v
 -2.03423h 0.442913v 1.35615h 0.442913v 0.678076h 0.442913v -0.678076h 0.442913v 0.678076h 0.442913v -2.03423h 0.442913v 0.678076h 0.442913v 1.35615h 0.442913v 1.35615h 0.442913v -1.35615h 0.442913v -1.35615h 0.885827v 2.03423h 0.442913v -2.03423h
 0.442913v 1.35615h 0.885827v -0.678076h 0.885827v 2.03423h 0.442913v -2.03423h 0.442913v 1.35615h 1.32874v -1.35615h 0.885827v 0.678076h 0.442913v 0.678076h 0.442913v -3.39038h 0.442913v 2.03423h 0.442913v 0.678076h 0.885827v -0.678076h 0.442913v
 0.678076h 0.442913v -0.678076h 0.442913v 0.678076h 0.885827v -1.35615h 0.442913v 0.678076h 0.442913v 1.35615h 0.442913v -2.03423h 0.885827v 0.678076h 0.442913v 0.678076h 0.885827v -0.678076h 0.442913v -0.678076h 0.442913v 2.03423h 0.442913v
 -0.678076h 1.77165v -1.35615h 0.442913v 1.35615h 0.442913v 0.678076h 0.442913v -1.35615h 0.885827v 0.678076h 0.442913v -2.03423h 0.442913v 1.35615h 0.442913v 1.35615h 0.442913v 0.678076h 0.442913v -1.35615h 0.442913v -0.678076h 0.442913v 0.678076h
 1.32874v -1.35615h 0.885827v 2.03423h 0.442913v -2.03423h 0.442913v -0.678076h 0.442913v -0.678076h 0.442913v 2.7123h 0.442913v -0.678076h 0.442913v -0.678076h 0.442913v 2.7123h 0.442913v -2.03423h 0.442913v 2.03423h 0.442913v -0.678076h 0.442913v
 -0.678076h 0.442913v -1.35615h 0.442913v 0.678076h 0.442913v 0.678076h 0.442913v 0.678076h 0.442913v -2.03423h 0.442913v 0.678076h 0.442913v 0.678076h 0.885827v -2.03423h 0.442913v 1.35615h 0.442913v 1.35615h 0.442913v -0.678076h 0.442913v
 -0.678076h 1.32874v 0.678076h 0.442913v -0.678076h 0.442913v 2.03423h 0.442913v -1.35615h 1.32874v -1.35615h 0.442913v 1.35615h 0.442913v 1.35615h 0.442913v -2.03423h 0.442913v 1.35615h 0.442913v -0.678076h 0.885827v -0.678076h 0.442913v 1.35615h
 0.885827v -0.678076h 0.442913v -1.35615h 0.442913v 2.03423h 0.442913v -3.39038h 0.442913v 2.7123h 0.442913v -1.35615h 0.442913v 1.35615h 0.885827v 0.678076h 0.442913v -1.35615h 0.442913v 0.678076h 0.442913v -1.35615h 0.442913v 0.678076h 0.442913v
 0.678076h 0.885827v -1.35615h 0.885827v 2.03423h 0.442913v 0.678076h 0.442913v -3.39038h 0.442913v 3.39038h 0.442913v -2.7123h 0.442913v 2.03423h 0.442913v -0.678076h 0.442913v -1.35615h 0.885827v 2.03423h 0.442913v 0.678076h 0.442913v -1.35615h
 0.442913v -0.678076h 0.442913v 1.35615h 0.442913v -3.39038h 0.442913v 2.7123h 0.442913v 1.35615h 0.442913v -1.35615h 0.442913v -1.35615h 0.442913v 2.03423h 0.442913v -1.35615h 0.442913v 1.35615h 0.442913v -2.03423h 0.442913v 0.678076h 0.442913v
 1.35615h 0.442913v -0.678076h 0.885827v -0.678076h 0.442913v 2.03423h 0.442913v -0.678076h 0.442913v -1.35615h 0.442913v 0.678076h 0.442913v -2.03423h 0.442913v 2.03423h 0.442913v -0.678076h 0.442913v -0.678076h 0.442913v 2.7123h 0.442913v
 -0.678076h 0.442913v -2.7123h 0.442913v 2.03423h 0.442913v -2.03423h 0.442913v 1.35615h 0.442913v 2.03423h 0.442913v -2.03423h 0.442913v 0.678076h 0.442913v -0.678076h 0.442913v -0.678076h 0.442913v 0.678076h 0.885827v 1.35615h 0.442913v 0.678076h
 0.442913v -1.35615h 0.442913v -0.678076h 0.442913v -0.678076h 0.885827v -0.678076h 0.442913v 3.39038h 0.442913v -2.7123h 0.442913v 1.35615h 0.885827v -2.03423h 0.442913v 3.39038h 0.442913v -1.35615h 0.442913v -1.35615h 0.442913v -0.678076h 0.442913v
 2.7123h 0.442913v 0.678076h 0.442913v -2.03423h 0.885827v 1.35615h 0.442913v 0.678076h 0.442913v -2.03423h 0.442913v 1.35615h 0.442913v -2.03423h 0.442913v 0.678076h 0.442913v -2.7123h 0.442913v -0.678076h 0.442913v -4.06846h 0.442913v -10.1711h
 0.442913v -103.746h 0.442913v -169.519h 0.442913v 19.6642h 0.442913v 45.4311h 0.442913v 25.0888h 0.442913v -25.7669h 0.442913v 44.753h 0.442913v 52.8899h 0.442913v 60.3488h 0.442913v 29.1573h 0.442913v -9.49307h 0.442913v -16.2738h 0.442913v
 16.2738h 0.442913v -6.78076h 0.442913v 1.35615h 0.442913v 12.2054h 0.442913v 7.45884h 0.442913v -18.3081h 0.442913v 12.8834h 0.442913v -5.42461h 0.442913v -0.678076h 0.442913v 12.8834h 0.442913v 4.74653h 0.442913v -8.13691h 0.442913v 6.10269h
 0.442913v -8.13691h 0.442913v 3.39038h 0.442913v 2.7123h 0.442913v 4.74653h 0.442913v 1.35615h 0.442913v -8.13691h 0.442913v 4.74653h 0.442913v -6.10269h 0.442913v 9.49307h 0.442913v 6.78076h 0.885827v -12.2054h 0.442913v 4.74653h 0.442913v 8.13691h
 0.442913v -0.678076h 0.442913v -2.7123h 0.442913v 11.5273h 0.885827v -7.45884h 0.442913v 6.78076h 0.442913v -1.35615h 0.442913v -0.678076h 0.442913v 4.06846h 0.442913v 4.06846h 0.442913v 4.74653h 0.442913v -2.03423h 0.442913v 0.678076h 0.442913v
 1.35615h 0.442913v 2.03423h 0.885827v 0.678076h 20.8169" fill="none" stroke="#000099"/>
<path d="M57.1929,346.022h 453.543" fill="none" stroke="black"/>
<path d="M57.1929,336.795v 9.22726" fill="none" stroke="black"/>
<path d="M66.2638,341.409v 4.61363" fill="none" stroke="black"/>
<path d="M75.3346,341.409v 4.61363" fill="none" stroke="black"/>
<path d="M84.4055,341.409v 4.61363" fill="none" stroke="black"/>
<path d="M93.4764,341.409v 4.61363" fill="none" stroke="black"/>
<path d="M102.547,336.795v 9.22726" fill="none" stroke="black"/>
<path d="M111.618,341.409v 4.61363" fill="none" stroke="black"/>
<path d="M120.689,341.409v 4.61363" fill="none" stroke="black"/>
<path d="M129.76,341.409v 4.61363" fill="none" stroke="black"/>
<path d="M138.831,341.409v 4.61363" fill="none" stroke="black"/>
<path d="M147.902,336.795v 9.22726" fill="none" stroke="black"/>
<path d="M156.972,341.409v 4.61363" fill="none" stroke="black"/>
<path d="M166.043,341.409v 4.61363" fill="none" stroke="black"/>
<path d="M175.114,341.409v 4.61363" fill="none" stroke="black"/>
<path d="M184.185,341.409v 4.61363" fill="none" stroke="black"/>
<path d="M193.256,336.795v 9.22726" fill="none" stroke="black"/>
<path d="M202.327,341.409v 4.61363" fill="none" stroke="black"/>
<path d="M211.398,341.409v 4.61363" fill="none" stroke="black"/>
<path d="M220.469,341.409v 4.61363" fill="none" stroke="black"/>
<path d="M229.539,341.409v 4.61363" fill="none" stroke="black"/>
<path d="M238.61,336.795v 9.22726" fill="none" stroke="black"/>
<path d="M247.681,341.409v 4.61363" fill="none" stroke="black"/>
<path d="M256.752,341.409v 4.61363" fill="none" stroke="black"/>
<path d="M265.823,341.409v 4.61363" fill="none" stroke="black"/>
<path d="M274.894,341.409v 4.61363" fill="none" stroke="black"/>
<path d="M283.965,336.795v 9.22726" fill="none" stroke="black"/>
<path d="M293.035,341.409v 4.61363" fill="none" stroke="black"/>
<path d="M302.106,341.409v 4.61363" fill="none" stroke="black"/>
<path d="M311.177,341.409v 4.61363" fill="none" stroke="black"/>
<path d="M320.248,341.409v 4.61363" fill="none" stroke="black"/>
<path d="M329.319,336.795v 9.22726" fill="none" stroke="black"/>
<path d="M338.39,341.409v 4.61363" fill="none" stroke="black"/>
<path d="M347.461,341.409v 4.61363" fill="none" stroke="black"/>
<path d="M356.531,341.409v 4.61363" fill="none" stroke="black"/>
<path d="M365.602,341.409v 4.61363" fill="none" stroke="black"/>
<path d="M374.673,336.795v 9.22726" fill="none" stroke="black"/>
<path d="M383.744,341.409v 4.61363" fill="none" stroke="black"/>
<path d="M392.815,341.409v 4.61363" fill="none" stroke="black"/>
<path d="M401.886,341.409v 4.61363" fill="none" stroke="black"/>
<path d="M410.957,341.409v 4.61363" fill="none" stroke="black"/>
<path d="M420.028,336.795v 9.22726" fill="none" stroke="black"/>
<path d="M429.098,341.409v 4.61363" fill="none" stroke="black"/>
<path d="M438.169,341.409v 4.61363" fill="none" stroke="black"/>
<path d="M447.24,341.409v 4.61363" fill="none" stroke="black"/>
<path d="M456.311,341.409v 4.61363" fill="none" stroke="black"/>
<path d="M465.382,336.795v 9.22726" fill="none" stroke="black"/>
<path d="M474.453,341.409v 4.61363" fill="none" stroke="black"/>
<path d="M483.524,341.409v 4.61363" fill="none" stroke="black"/>
<path d="M492.594,341.409v 4.61363" fill="none" stroke="black"/>
<path d="M501.665,341.409v 4.61363" fill="none" stroke="black"/>
<path d="M510.736,336.795v 9.22726" fill="none" stroke="black"/>
<text xml:space="preserve" x="53.446" y="358.403" fill="black" font-size="12.8453" font-family="Helvetica">0</text>
<text xml:space="preserve" x="95.8027" y="358.403" fill="black" font-size="12.8453" font-family="Helvetica">10</text>
<text xml:space="preserve" x="140.603" y="358.403" fill="black" font-size="12.8453" font-family="Helvetica">20</text>
<text xml:space="preserve" x="186.218" y="358.403" fill="black" font-size="12.8453" font-family="Helvetica">30</text>
<text xml:space="preserve" x="231.833" y="358.403" fill="black" font-size="12.8453" font-family="Helvetica">40</text>
<text xml:space="preserve" x="277.448" y="358.403" fill="black" font-size="12.8453" font-family="Helvetica">50</text>
<text xml:space="preserve" x="322.249" y="358.403" fill="black" font-size="12.8453" font-family="Helvetica">60</text>
<text xml:space="preserve" x="367.864" y="358.403" fill="black" font-size="12.8453" font-family="Helvetica">70</text>
<text xml:space="preserve" x="413.479" y="358.403" fill="black" font-size="12.8453" font-family="Helvetica">80</text>
<text xml:space="preserve" x="458.279" y="358.403" fill="black" font-size="12.8453" font-family="Helvetica">90</text>
<text xml:space="preserve" x="499.821" y="358.403" fill="black" font-size="12.8453" font-family="Helvetica">100</text>
<path d="M57.1929,346.022v -307.575" fill="none" stroke="black"/>
<path d="M70.7992,346.022h -13.6063" fill="none" stroke="black"/>
<path d="M63.9961,339.241h -6.80315" fill="none" stroke="black"/>
<path d="M63.9961,332.461h -6.80315" fill="none" stroke="black"/>
<path d="M63.9961,325.68h -6.80315" fill="none" stroke="black"/>
<path d="M63.9961,318.899h -6.80315" fill="none" stroke="black"/>
<path d="M70.7992,312.118h -13.6063" fill="none" stroke="black"/>
<path d="M63.9961,305.338h -6.80315" fill="none" stroke="black"/>
<path d="M63.9961,298.557h -6.80315" fill="none" stroke="black"/>
<path d="M63.9961,291.776h -6.80315" fill="none" stroke="black"/>
<path d="M63.9961,284.995h -6.80315" fill="none" stroke="black"/>
<path d="M70.7992,278.215h -13.6063" fill="none" stroke="black"/>
<path d="M63.9961,271.434h -6.80315" fill="none" stroke="black"/>
<path d="M63.9961,264.653h -6.80315" fill="none" stroke="black"/>
<path d="M63.9961,257.872h -6.80315" fill="none" stroke="black"/>
<path d="M63.9961,251.092h -6.80315" fill="none" stroke="black"/>
<path d="M70.7992,244.311h -13.6063" fill="none" stroke="black"/>
<path d="M63.9961,237.53h -6.80315" fill="none" stroke="black"/>
<path d="M63.9961,230.749h -6.80315" fill="none" stroke="black"/>
<path d="M63.9961,223.969h -6.80315" fill="none" stroke="black"/>
<path d="M63.9961,217.188h -6.80315" fill="none" stroke="black"/>
<path d="M70.7992,210.407h -13.6063" fill="none" stroke="black"/>
<path d="M63.9961,203.626h -6.80315" fill="none" stroke="black"/>
<path d="M63.9961,196.846h -6.80315" fill="none" stroke="black"/>
<path d="M63.9961,190.065h -6.80315" fill="none" stroke="black"/>
<path d="M63.9961,183.284h -6.80315" fill="none" stroke="black"/>
<path d="M70.7992,176.503h -13.6063" fill="none" stroke="black"/>
<path d="M63.9961,169.722h -6.80315" fill="none" stroke="black"/>
<path d="M63.9961,162.942h -6.80315" fill="none" stroke="black"/>
<path d="M63.9961,156.161h -6.80315" fill="none" stroke="black"/>
<path d="M63.9961,149.38h -6.80315" fill="none" stroke="black"/>
<path d="M70.7992,142.599h -13.6063" fill="none" stroke="black"/>
<path d="M63.9961,135.819h -6.80315" fill="none" stroke="black"/>
<path d="M63.9961,129.038h -6.80315" fill="none" stroke="black"/>
<path d="M63.9961,122.257h -6.80315" fill="none" stroke="black"/>
<path d="M63.9961,115.476h -6.80315" fill="none" stroke="black"/>
<path d="M70.7992,108.696h -13.6063" fill="none" stroke="black"/>
<path d="M63.9961,101.915h -6.80315" fill="none" stroke="black"/>
<path d="M63.9961,95.1341h -6.80315" fill="none" stroke="black"/>
<path d="M63.9961,88.3533h -6.80315" fill="none" stroke="black"/>
<path d="M63.9961,81.5726h -6.80315" fill="none" stroke="black"/>
<path d="M70.7992,74.7918h -13.6063" fill="none" stroke="black"/>
<path d="M63.9961,68.011h -6.80315" fill="none" stroke="black"/>
<path d="M63.9961,61.2303h -6.80315" fill="none" stroke="black"/>
<path d="M63.9961,54.4495h -6.80315" fill="none" stroke="black"/>
<path d="M63.9961,47.6688h -6.80315" fill="none" stroke="black"/>
<path d="M70.7992,40.888h -13.6063" fill="none" stroke="black"/>
<path d="M70.7992,40.888h -13.6063" fill="none" stroke="black"/>
<text xml:space="preserve" x="47.7441" y="350.258" fill="black" font-size="12.8453" font-family="Helvetica">0</text>
<text xml:space="preserve" x="41.2277" y="316.861" fill="black" font-size="12.8453" font-family="Helvetica">50</text>
<text xml:space="preserve" x="33.8967" y="282.65" fill="black" font-size="12.8453" font-family="Helvetica">100</text>
<text xml:space="preserve" x="33.8967" y="248.439" fill="black" font-size="12.8453" font-family="Helvetica">150</text>
<text xml:space="preserve" x="33.8967" y="215.042" fill="black" font-size="12.8453" font-family="Helvetica">200</text>
<text xml:space="preserve" x="33.8967" y="180.831" fill="black" font-size="12.8453" font-family="Helvetica">250</text>
<text xml:space="preserve" x="33.8967" y="147.434" fill="black" font-size="12.8453" font-family="Helvetica">300</text>
<text xml:space="preserve" x="33.8967" y="113.223" fill="black" font-size="12.8453" font-family="Helvetica">350</text>
<text xml:space="preserve" x="33.8967" y="79.0117" fill="black" font-size="12.8453" font-family="Helvetica">400</text>
<text xml:space="preserve" x="33.8967" y="45.615" fill="black" font-size="12.8453" font-family="Helvetica">450</text>
<text xml:space="preserve" x="209.026" y="18.7347" fill="black" font-size="18.0316" font-family="Helvetica">Cs_006_calibrated</text>
<rect x="442.705" y="24.9905" width="113.386" height="61.5151" fill="white"/>
<path d="M442.705,86.5056h 113.386" fill="none" stroke="black"/>
<path d="M556.091,86.5056v -61.5151" fill="none" stroke="black"/>
<path d="M556.091,24.9905h -113.386" fill="none" stroke="black"/>
<path d="M442.705,24.9905v 61.5151" fill="none" stroke="black"/>
<text xml:space="preserve" x="447.69" y="36.6549" fill="black" font-size="12.5522" font-family="Helvetica">Cs_006_calibrated</text>
<path d="M442.705,40.3693h 113.386" fill="none" stroke="black"/>
<text xml:space="preserve" x="447.69" y="52.946" fill="black" font-size="12.7186" font-family="Helvetica">Entries </text>
<text xml:space="preserve" x="512.854" y="52.946" fill="black" font-size="12.7186" font-family="Helvetica"> 10524</text>
<text xml:space="preserve" x="447.69" y="67.6079" fill="black" font-size="12.7186" font-family="Helvetica">Mean  </text>
<text xml:space="preserve" x="512.854" y="67.6079" fill="black" font-size="12.7186" font-family="Helvetica">  58.36</text>
<text xml:space="preserve" x="447.69" y="83.0844" fill="black" font-size="12.7186" font-family="Helvetica">Std Dev   </text>
<text xml:space="preserve" x="512.854" y="83.0844" fill="black" font-size="12.7186" font-family="Helvetica">  32.58</text>
<text xml:space="preserve" x="209.026" y="18.7347" fill="black" font-size="18.0316" font-family="Helvetica">Cs_006_calibrated</text></svg>
