<?xml version="1.0" standalone="no"?>
<svg width="567.429" height="384.68" viewBox="0 0 567.429 384.68" xmlns="http://www.w3.org/2000/svg" shape-rendering="crispEdges">
<title>
img/week1/calibrated_hist_low_gain/Cs_006.svg
</title>
<desc>
Creator: ROOT Version 6.22/09
CreationDate: Mon Jul 12 17:32:56 2021</desc>
<defs>
</defs>
<rect x="0.5" y="0" width="566.929" height="384.18" fill="white"/>
<rect x="57.1929" y="38.418" width="453.543" height="307.344" fill="white"/>
<rect x="57.1929" y="38.418" width="453.543" height="307.344" fill="none" stroke="black"/>
<path d="M57.1929,345.762h 27.4606v -2.40418h 0.442913v -8.41462h 0.442913v 2.40418h 0.442913v 1.20209h 0.442913v 0.601044h 0.442913v 3.00522h 0.442913v -2.40418h 0.885827v -1.80313h 0.442913v 3.00522h 0.442913v -2.40418h 0.442913v -0.601044h
 0.442913v 0.601044h 0.442913v 4.20731h 0.442913v -0.601044h 0.442913v -3.00522h 0.442913v 0.601044h 0.442913v 3.00522h 0.442913v -1.80313h 0.442913v -0.601044h 0.442913v 2.40418h 0.442913v -2.40418h 0.442913v 1.20209h 0.885827v -3.60626h 0.442913v
 1.20209h 0.442913v -3.60626h 0.442913v 6.01044h 0.442913v -0.601044h 0.442913v 1.20209h 0.442913v 0.601044h 0.442913v -4.20731h 0.442913v 1.80313h 0.442913v -1.80313h 0.442913v 3.60626h 0.442913v -1.80313h 0.442913v -1.80313h 0.442913v 1.80313h
 0.442913v -1.20209h 0.442913v 3.00522h 0.442913v -2.40418h 0.442913v 1.80313h 0.885827v 1.80313h 0.442913v -2.40418h 0.442913v -1.20209h 1.32874v -0.601044h 0.442913v 1.80313h 0.442913v -1.20209h 0.885827v -1.80313h 0.442913v 4.20731h 0.442913v
 -4.80835h 0.442913v 4.80835h 0.442913v -1.20209h 0.442913v 2.40418h 0.885827v -1.20209h 0.442913v -2.40418h 0.885827v -0.601044h 0.442913v 1.80313h 0.442913v 1.20209h 0.442913v -1.20209h 0.442913v 1.20209h 0.442913v 1.20209h 0.442913v -0.601044h
 0.442913v -1.80313h 0.442913v 1.80313h 0.442913v -1.20209h 0.442913v -0.601044h 0.442913v -4.20731h 0.442913v 6.01044h 0.442913v -0.601044h 0.442913v -1.80313h 0.885827v 0.601044h 0.442913v -0.601044h 0.442913v 1.80313h 0.442913v 0.601044h 0.442913v
 -1.20209h 0.442913v 1.20209h 0.442913v -0.601044h 0.442913v -1.20209h 0.442913v -2.40418h 0.442913v 3.60626h 0.442913v -1.80313h 0.442913v 2.40418h 0.442913v -2.40418h 0.442913v -0.601044h 0.442913v 1.80313h 0.442913v -1.20209h 0.442913v 3.00522h
 0.442913v -1.80313h 0.442913v 0.601044h 0.442913v -1.20209h 0.442913v 1.80313h 0.442913v -5.4094h 0.442913v 1.20209h 0.442913v 3.00522h 0.442913v -6.61148h 0.442913v 6.01044h 0.442913v 1.20209h 0.442913v -6.01044h 0.442913v 6.61148h 0.442913v
 0.601044h 0.442913v -4.20731h 0.442913v -0.601044h 0.442913v 2.40418h 0.442913v 1.80313h 0.442913v -0.601044h 0.442913v -0.601044h 0.442913v -1.20209h 0.442913v -3.60626h 0.442913v 3.60626h 0.442913v 2.40418h 0.442913v 0.601044h 0.442913v -0.601044h
 0.442913v -0.601044h 0.442913v -0.601044h 0.442913v 1.80313h 0.442913v -3.60626h 0.442913v 1.20209h 0.442913v 0.601044h 0.442913v 1.20209h 0.442913v -1.20209h 0.442913v -1.80313h 0.442913v -1.20209h 0.442913v 1.80313h 0.442913v 3.00522h 0.442913v
 -0.601044h 0.442913v -0.601044h 0.442913v -1.80313h 0.442913v -3.00522h 0.442913v 0.601044h 0.442913v 1.20209h 0.442913v 4.20731h 0.442913v -0.601044h 0.442913v -1.80313h 0.442913v -3.00522h 0.442913v 4.20731h 0.442913v -0.601044h 0.442913v 1.80313h
 0.442913v -3.00522h 0.442913v 3.00522h 0.442913v -4.20731h 0.885827v -0.601044h 0.442913v -0.601044h 0.885827v -3.00522h 0.442913v 5.4094h 0.442913v -4.80835h 0.442913v 1.20209h 0.442913v 4.20731h 0.442913v -3.00522h 0.442913v 0.601044h 0.442913v
 -0.601044h 0.442913v 0.601044h 0.442913v -4.20731h 0.442913v 2.40418h 0.442913v 1.20209h 0.442913v 3.00522h 0.442913v -6.01044h 0.442913v 2.40418h 0.885827v 0.601044h 0.442913v 0.601044h 0.442913v -1.20209h 0.442913v 3.00522h 0.442913v -1.80313h
 0.885827v -4.80835h 0.442913v -2.40418h 0.442913v 7.81357h 0.885827v -0.601044h 0.442913v -1.80313h 0.442913v -0.601044h 0.442913v 1.20209h 0.442913v -2.40418h 0.442913v 3.60626h 0.442913v 3.60626h 0.442913v -8.41462h 0.442913v 3.60626h 0.442913v
 5.4094h 0.442913v -2.40418h 0.442913v -0.601044h 0.442913v 0.601044h 0.442913v -1.20209h 0.442913v 3.00522h 0.885827v -3.00522h 0.442913v 1.20209h 0.442913v 3.60626h 0.442913v -2.40418h 0.442913v -2.40418h 0.442913v 2.40418h 0.442913v -1.20209h
 0.442913v 2.40418h 0.442913v -1.20209h 0.442913v -2.40418h 0.442913v 0.601044h 0.442913v 1.20209h 0.442913v -1.80313h 0.442913v 3.60626h 0.442913v -0.601044h 0.442913v 0.601044h 0.442913v -2.40418h 0.442913v 3.00522h 0.442913v -3.60626h 0.442913v
 1.20209h 0.442913v 1.80313h 0.442913v 0.601044h 0.442913v -1.20209h 0.442913v -2.40418h 0.442913v -1.80313h 0.442913v 1.20209h 0.442913v 3.00522h 0.442913v 0.601044h 0.442913v 0.601044h 0.442913v -3.60626h 0.442913v -3.00522h 0.442913v 6.61148h
 0.442913v -1.80313h 0.885827v -1.20209h 0.442913v -1.20209h 0.442913v 0.601044h 0.442913v 1.80313h 0.442913v -0.601044h 0.885827v -1.20209h 0.442913v 0.601044h 0.442913v -1.20209h 0.885827v -1.80313h 0.885827v 3.60626h 0.442913v -1.20209h 0.442913v
 -1.80313h 0.442913v 3.60626h 0.442913v -4.80835h 0.442913v -4.20731h 0.442913v 7.21253h 0.442913v -4.20731h 0.442913v 2.40418h 0.442913v -5.4094h 0.442913v 3.60626h 0.442913v -3.00522h 0.442913v -1.80313h 0.442913v 3.60626h 0.442913v -5.4094h
 0.442913v -1.80313h 0.442913v -3.60626h 0.442913v 1.80313h 0.442913v 2.40418h 0.442913v 4.20731h 0.442913v -3.00522h 0.442913v -9.01566h 0.442913v 3.00522h 0.442913v -4.20731h 0.442913v -5.4094h 0.442913v 7.81357h 0.442913v 7.21253h 0.442913v
 -11.4198h 0.442913v 0.601044h 0.442913v -5.4094h 0.442913v 7.21253h 0.442913v 4.20731h 0.442913v 3.00522h 0.442913v -6.61148h 0.442913v -5.4094h 0.442913v -1.20209h 0.442913v -4.80835h 0.442913v -1.80313h 0.442913v 16.2282h 0.442913v 5.4094h
 0.442913v -11.4198h 0.442913v 4.20731h 0.442913v 1.20209h 0.442913v -1.20209h 0.442913v -4.20731h 0.442913v 5.4094h 0.442913v 7.81357h 0.442913v -10.8188h 0.442913v 4.20731h 0.442913v -1.20209h 0.442913v 6.61148h 0.442913v 6.61148h 0.442913v
 -3.60626h 0.885827v -6.01044h 0.442913v 3.00522h 0.442913v 5.4094h 0.885827v 2.40418h 0.442913v -4.80835h 0.442913v 4.20731h 0.442913v -1.80313h 0.442913v -0.601044h 0.442913v 4.20731h 0.442913v -1.20209h 0.442913v 4.80835h 0.442913v 0.601044h
 0.442913v -4.20731h 0.442913v 1.80313h 0.442913v 0.601044h 0.442913v -1.20209h 0.442913v -2.40418h 0.442913v 2.40418h 0.442913v 1.80313h 0.442913v -9.6167h 0.442913v 4.80835h 0.442913v 0.601044h 0.885827v 0.601044h 0.442913v -0.601044h 0.442913v
 1.80313h 0.885827v 2.40418h 0.885827v -1.80313h 0.885827v -1.20209h 0.442913v 2.40418h 0.442913v -2.40418h 0.442913v 1.80313h 0.442913v 2.40418h 0.442913v -2.40418h 0.885827v 1.80313h 0.442913v -2.40418h 0.885827v 1.80313h 0.442913v 1.20209h
 0.442913v -2.40418h 0.442913v -1.80313h 0.442913v 1.20209h 0.442913v 1.80313h 0.442913v 1.80313h 0.442913v 0.601044h 0.442913v -1.20209h 0.442913v 0.601044h 0.442913v -0.601044h 0.442913v 1.20209h 0.885827v -2.40418h 0.442913v 1.20209h 0.442913v
 -0.601044h 0.442913v -1.80313h 0.442913v 2.40418h 0.885827v -1.20209h 0.442913v 1.80313h 0.442913v 1.80313h 0.442913v -0.601044h 0.442913v -1.20209h 0.442913v 0.601044h 0.442913v -1.20209h 0.442913v 1.20209h 0.442913v -1.20209h 1.32874v 0.601044h
 0.442913v 1.20209h 0.442913v 1.20209h 0.442913v -1.80313h 0.442913v -3.00522h 0.442913v 4.20731h 0.442913v -3.00522h 0.442913v 3.00522h 0.442913v -1.80313h 0.885827v 1.80313h 0.442913v -1.20209h 0.442913v 1.20209h 0.442913v -3.00522h 0.442913v
 3.00522h 0.442913v 0.601044h 0.442913v -0.601044h 0.442913v -0.601044h 0.885827v 0.601044h 0.442913v -1.80313h 0.442913v 0.601044h 0.442913v -1.80313h 0.442913v 2.40418h 0.442913v -3.00522h 0.442913v 1.80313h 1.32874v 1.20209h 0.442913v 0.601044h
 0.442913v -0.601044h 0.442913v -2.40418h 0.442913v 1.20209h 0.442913v 0.601044h 0.442913v 0.601044h 0.442913v -1.80313h 0.442913v 2.40418h 0.442913v -0.601044h 0.442913v -0.601044h 0.442913v 0.601044h 0.442913v -1.80313h 0.442913v 0.601044h
 0.885827v 1.80313h 0.442913v -0.601044h 0.442913v -1.20209h 0.442913v 1.20209h 0.442913v 0.601044h 0.885827v -1.80313h 0.442913v -3.00522h 0.442913v 4.20731h 0.442913v 0.601044h 0.442913v -1.20209h 0.442913v -1.20209h 0.442913v 0.601044h 0.442913v
 1.20209h 0.885827v -0.601044h 0.442913v 0.601044h 0.442913v -1.20209h 1.32874v 0.601044h 0.442913v -0.601044h 0.442913v 1.20209h 1.32874v -1.80313h 0.442913v 1.20209h 0.442913v 1.80313h 0.442913v -2.40418h 0.442913v 1.20209h 0.442913v -1.20209h
 0.885827v 1.20209h 0.442913v -0.601044h 0.442913v 0.601044h 0.885827v 0.601044h 0.885827v -1.80313h 0.885827v 0.601044h 0.442913v 1.20209h 0.442913v -1.80313h 0.442913v -2.40418h 0.442913v 1.80313h 0.442913v 0.601044h 0.885827v 0.601044h 0.442913v
 1.20209h 0.442913v -1.20209h 0.442913v -2.40418h 0.442913v 3.60626h 0.442913v -3.60626h 0.442913v 1.20209h 0.442913v 2.40418h 0.442913v -2.40418h 0.442913v 3.00522h 0.442913v -0.601044h 0.442913v -1.80313h 0.442913v 0.601044h 0.442913v -1.80313h
 0.442913v 2.40418h 0.442913v 0.601044h 0.442913v 0.601044h 0.885827v -3.00522h 0.442913v 1.80313h 0.885827v -0.601044h 0.885827v 0.601044h 0.442913v -0.601044h 0.885827v 1.20209h 0.442913v -0.601044h 0.885827v -1.80313h 0.442913v 2.40418h 0.885827v
 -1.80313h 0.442913v 0.601044h 0.442913v -1.20209h 0.442913v 2.40418h 0.442913v -0.601044h 1.77165v -0.601044h 0.442913v 0.601044h 0.442913v -1.20209h 0.442913v 1.20209h 0.442913v -1.20209h 0.442913v 0.601044h 0.442913v 1.20209h 0.442913v -0.601044h
 0.885827v -0.601044h 0.885827v -2.40418h 0.442913v 3.00522h 0.442913v 0.601044h 0.442913v -0.601044h 0.885827v 1.20209h 0.442913v -1.80313h 0.442913v 0.601044h 0.442913v -2.40418h 0.442913v 3.00522h 0.442913v -1.20209h 0.442913v 1.20209h 0.442913v
 -0.601044h 0.442913v 0.601044h 0.442913v -1.20209h 3.10039v 0.601044h 0.442913v -3.60626h 0.442913v 3.60626h 0.442913v 1.20209h 0.442913v -0.601044h 0.442913v -0.601044h 0.442913v -0.601044h 0.885827v 1.20209h 0.442913v -2.40418h 0.442913v 1.20209h
 0.442913v 0.601044h 0.442913v -0.601044h 0.442913v -0.601044h 0.442913v 1.20209h 0.442913v -1.20209h 0.885827v 1.80313h 0.442913v -0.601044h 0.442913v 0.601044h 0.442913v -1.80313h 0.442913v -1.80313h 0.442913v 4.20731h 0.442913v -1.20209h 0.885827v
 -0.601044h 0.442913v 0.601044h 0.442913v 0.601044h 0.442913v -0.601044h 0.442913v -1.20209h 0.442913v 0.601044h 0.442913v 1.20209h 0.442913v -1.20209h 0.442913v -1.20209h 0.442913v 1.20209h 0.885827v -1.80313h 0.442913v 3.00522h 0.442913v -3.60626h
 0.442913v 1.80313h 0.442913v 1.80313h 0.442913v -1.80313h 0.442913v 1.20209h 0.442913v 0.601044h 0.442913v -1.20209h 0.442913v -0.601044h 0.442913v 1.20209h 0.442913v -0.601044h 0.442913v 1.80313h 0.442913v -1.80313h 0.442913v -1.80313h 0.442913v
 1.20209h 0.442913v 0.601044h 0.442913v -0.601044h 0.442913v 1.20209h 0.442913v -2.40418h 0.442913v 3.00522h 0.442913v -1.20209h 0.442913v 1.20209h 0.885827v -3.00522h 0.442913v 2.40418h 0.442913v -2.40418h 0.442913v 1.80313h 0.442913v -0.601044h
 1.32874v 0.601044h 0.442913v -1.20209h 0.442913v 1.80313h 0.442913v 1.20209h 0.442913v -1.20209h 1.77165v -0.601044h 0.442913v -0.601044h 0.442913v 0.601044h 0.885827v 0.601044h 0.442913v -0.601044h 0.442913v 0.601044h 0.442913v 0.601044h 0.442913v
 -1.80313h 0.442913v 0.601044h 0.442913v 0.601044h 0.885827v 0.601044h 0.442913v -0.601044h 0.885827v -1.20209h 0.442913v 2.40418h 0.442913v -2.40418h 0.442913v 2.40418h 1.32874v -1.20209h 0.442913v 0.601044h 0.885827v -1.20209h 0.442913v 0.601044h
 0.442913v 1.20209h 0.442913v -0.601044h 1.32874v -0.601044h 0.442913v 0.601044h 0.442913v -1.20209h 0.442913v -0.601044h 0.442913v 1.80313h 0.885827v -0.601044h 0.885827v -0.601044h 0.442913v -0.601044h 0.442913v 1.20209h 0.442913v 0.601044h
 0.442913v -1.80313h 1.32874v 1.20209h 0.442913v -1.20209h 0.442913v 1.80313h 0.442913v -1.20209h 0.885827v -1.20209h 0.442913v 1.80313h 0.442913v -0.601044h 0.442913v -0.601044h 1.32874v 1.20209h 0.442913v -0.601044h 0.442913v 1.20209h 0.442913v
 -1.20209h 0.442913v 0.601044h 0.442913v -0.601044h 0.442913v -0.601044h 0.442913v 1.20209h 0.442913v -1.80313h 0.442913v 1.20209h 0.442913v 0.601044h 0.442913v -0.601044h 0.442913v 1.20209h 0.442913v -4.80835h 0.442913v 5.4094h 0.442913v -1.80313h
 0.442913v 1.20209h 1.32874v -3.00522h 0.442913v 1.80313h 0.442913v 0.601044h 0.885827v -0.601044h 0.442913v 0.601044h 0.442913v -1.20209h 0.442913v 1.20209h 1.32874v 1.20209h 0.442913v -0.601044h 0.442913v -1.80313h 0.442913v 1.20209h 0.442913v
 0.601044h 0.442913v -1.20209h 0.885827v 0.601044h 0.442913v -1.80313h 0.442913v 1.20209h 0.885827v 0.601044h 0.442913v -0.601044h 0.885827v 0.601044h 0.442913v -0.601044h 0.885827v -1.20209h 0.442913v 2.40418h 0.442913v -1.20209h 1.32874v -1.20209h
 0.442913v 1.20209h 0.442913v 1.80313h 0.442913v -1.20209h 0.442913v 0.601044h 0.442913v -1.80313h 0.442913v 1.80313h 0.442913v -1.80313h 0.442913v 1.20209h 0.442913v -0.601044h 0.442913v 0.601044h 0.885827v -0.601044h 0.442913v -1.20209h 0.442913v
 1.20209h 0.442913v 1.20209h 0.442913v -0.601044h 2.21457v -0.601044h 0.442913v -0.601044h 0.442913v 0.601044h 0.442913v -1.80313h 0.442913v 3.00522h 0.442913v -1.20209h 0.442913v -1.80313h 0.442913v 2.40418h 0.442913v -1.20209h 0.442913v 1.20209h
 0.442913v 0.601044h 0.442913v -0.601044h 0.442913v 0.601044h 0.442913v -0.601044h 1.32874v -1.20209h 0.442913v 1.80313h 0.442913v -1.80313h 0.442913v 1.20209h 0.442913v -0.601044h 0.885827v -1.80313h 0.442913v 3.00522h 0.885827v -0.601044h 0.442913v
 -0.601044h 0.442913v -1.20209h 0.442913v 1.20209h 0.442913v 0.601044h 0.442913v 0.601044h 0.442913v 0.601044h 0.442913v -1.80313h 0.885827v 1.20209h 0.442913v -3.00522h 0.442913v 3.60626h 0.885827v -1.20209h 0.442913v 0.601044h 0.885827v -0.601044h
 0.442913v -0.601044h 0.442913v 0.601044h 1.32874v 0.601044h 0.442913v -2.40418h 0.442913v 1.80313h 0.442913v -1.80313h 0.885827v 1.80313h 0.442913v 0.601044h 0.442913v -0.601044h 0.442913v -1.20209h 0.442913v 1.20209h 0.885827v -0.601044h 0.442913v
 1.20209h 0.442913v -1.80313h 0.442913v 1.20209h 1.32874v -1.20209h 0.442913v 1.20209h 0.442913v -1.20209h 0.442913v 1.80313h 0.885827v -1.80313h 0.442913v 1.20209h 0.885827v 0.601044h 0.442913v -1.80313h 0.442913v 1.80313h 0.442913v -1.80313h
 0.442913v 1.20209h 0.885827v 0.601044h 0.442913v -0.601044h 0.442913v -1.20209h 0.442913v 1.20209h 0.442913v -0.601044h 0.442913v 0.601044h 0.442913v 0.601044h 0.442913v -0.601044h 0.442913v -1.20209h 0.442913v 1.80313h 0.442913v -1.80313h 0.442913v
 1.80313h 1.32874v -1.20209h 0.442913v 0.601044h 0.442913v -1.20209h 0.442913v 0.601044h 0.442913v -0.601044h 0.442913v 1.80313h 0.885827v -0.601044h 0.442913v -1.20209h 0.442913v -0.601044h 0.442913v 0.601044h 0.442913v 2.40418h 0.442913v -1.80313h
 0.442913v 0.601044h 0.442913v -0.601044h 0.442913v 1.20209h 0.442913v -3.00522h 0.442913v 1.80313h 0.442913v 1.80313h 0.442913v -1.20209h 0.442913v 1.20209h 0.442913v -1.80313h 0.442913v -0.601044h 0.442913v -0.601044h 0.442913v 0.601044h 0.442913v
 1.80313h 0.442913v -1.20209h 0.442913v -0.601044h 0.442913v 1.80313h 0.442913v -1.20209h 0.442913v 0.601044h 0.442913v 0.601044h 0.442913v -1.80313h 0.442913v -0.601044h 0.442913v 1.80313h 0.885827v 0.601044h 0.442913v -1.20209h 0.442913v 1.20209h
 0.885827v -0.601044h 0.442913v -0.601044h 0.442913v -1.20209h 0.442913v 1.20209h 0.442913v -0.601044h 0.442913v -3.60626h 0.442913v -2.40418h 0.442913v -58.3013h 0.442913v -225.993h 0.442913v 47.4825h 0.442913v 86.5503h 0.442913v -54.695h 0.442913v
 5.4094h 0.442913v 9.6167h 0.442913v 90.7576h 0.442913v 53.4929h 0.442913v 10.8188h 0.442913v -2.40418h 0.442913v -9.6167h 0.442913v -1.80313h 0.442913v 14.4251h 0.442913v -4.20731h 0.442913v 7.21253h 0.442913v 0.601044h 0.442913v -3.60626h 0.442913v
 -3.60626h 0.442913v 12.6219h 0.442913v -6.61148h 0.442913v 7.21253h 0.442913v 5.4094h 0.442913v -5.4094h 0.442913v 4.80835h 0.442913v -7.21253h 0.442913v -4.20731h 0.442913v 9.6167h 0.442913v 7.81357h 0.442913v -9.01566h 0.442913v -1.20209h
 0.442913v -1.20209h 0.442913v 4.80835h 0.442913v 5.4094h 0.442913v 8.41462h 0.442913v -9.01566h 0.442913v -7.81357h 0.442913v 9.6167h 0.442913v 6.61148h 0.442913v -6.01044h 0.442913v 7.81357h 0.442913v 1.20209h 0.442913v -8.41462h 0.442913v 7.81357h
 0.442913v -3.00522h 0.442913v 6.61148h 0.442913v 3.00522h 1.32874v 4.20731h 0.442913v -0.601044h 0.442913v 1.80313h 0.442913v 0.601044h 0.885827v 0.601044h 17.2736" fill="none" stroke="#000099"/>
<path d="M57.1929,345.762h 453.543" fill="none" stroke="black"/>
<path d="M57.1929,336.541v 9.22031" fill="none" stroke="black"/>
<path d="M66.2638,341.152v 4.61016" fill="none" stroke="black"/>
<path d="M75.3346,341.152v 4.61016" fill="none" stroke="black"/>
<path d="M84.4055,341.152v 4.61016" fill="none" stroke="black"/>
<path d="M93.4764,341.152v 4.61016" fill="none" stroke="black"/>
<path d="M102.547,336.541v 9.22031" fill="none" stroke="black"/>
<path d="M111.618,341.152v 4.61016" fill="none" stroke="black"/>
<path d="M120.689,341.152v 4.61016" fill="none" stroke="black"/>
<path d="M129.76,341.152v 4.61016" fill="none" stroke="black"/>
<path d="M138.831,341.152v 4.61016" fill="none" stroke="black"/>
<path d="M147.902,336.541v 9.22031" fill="none" stroke="black"/>
<path d="M156.972,341.152v 4.61016" fill="none" stroke="black"/>
<path d="M166.043,341.152v 4.61016" fill="none" stroke="black"/>
<path d="M175.114,341.152v 4.61016" fill="none" stroke="black"/>
<path d="M184.185,341.152v 4.61016" fill="none" stroke="black"/>
<path d="M193.256,336.541v 9.22031" fill="none" stroke="black"/>
<path d="M202.327,341.152v 4.61016" fill="none" stroke="black"/>
<path d="M211.398,341.152v 4.61016" fill="none" stroke="black"/>
<path d="M220.469,341.152v 4.61016" fill="none" stroke="black"/>
<path d="M229.539,341.152v 4.61016" fill="none" stroke="black"/>
<path d="M238.61,336.541v 9.22031" fill="none" stroke="black"/>
<path d="M247.681,341.152v 4.61016" fill="none" stroke="black"/>
<path d="M256.752,341.152v 4.61016" fill="none" stroke="black"/>
<path d="M265.823,341.152v 4.61016" fill="none" stroke="black"/>
<path d="M274.894,341.152v 4.61016" fill="none" stroke="black"/>
<path d="M283.965,336.541v 9.22031" fill="none" stroke="black"/>
<path d="M293.035,341.152v 4.61016" fill="none" stroke="black"/>
<path d="M302.106,341.152v 4.61016" fill="none" stroke="black"/>
<path d="M311.177,341.152v 4.61016" fill="none" stroke="black"/>
<path d="M320.248,341.152v 4.61016" fill="none" stroke="black"/>
<path d="M329.319,336.541v 9.22031" fill="none" stroke="black"/>
<path d="M338.39,341.152v 4.61016" fill="none" stroke="black"/>
<path d="M347.461,341.152v 4.61016" fill="none" stroke="black"/>
<path d="M356.531,341.152v 4.61016" fill="none" stroke="black"/>
<path d="M365.602,341.152v 4.61016" fill="none" stroke="black"/>
<path d="M374.673,336.541v 9.22031" fill="none" stroke="black"/>
<path d="M383.744,341.152v 4.61016" fill="none" stroke="black"/>
<path d="M392.815,341.152v 4.61016" fill="none" stroke="black"/>
<path d="M401.886,341.152v 4.61016" fill="none" stroke="black"/>
<path d="M410.957,341.152v 4.61016" fill="none" stroke="black"/>
<path d="M420.028,336.541v 9.22031" fill="none" stroke="black"/>
<path d="M429.098,341.152v 4.61016" fill="none" stroke="black"/>
<path d="M438.169,341.152v 4.61016" fill="none" stroke="black"/>
<path d="M447.24,341.152v 4.61016" fill="none" stroke="black"/>
<path d="M456.311,341.152v 4.61016" fill="none" stroke="black"/>
<path d="M465.382,336.541v 9.22031" fill="none" stroke="black"/>
<path d="M474.453,341.152v 4.61016" fill="none" stroke="black"/>
<path d="M483.524,341.152v 4.61016" fill="none" stroke="black"/>
<path d="M492.594,341.152v 4.61016" fill="none" stroke="black"/>
<path d="M501.665,341.152v 4.61016" fill="none" stroke="black"/>
<path d="M510.736,336.541v 9.22031" fill="none" stroke="black"/>
<text xml:space="preserve" x="53.2943" y="358.189" fill="black" font-size="12.836" font-family="Helvetica">0</text>
<text xml:space="preserve" x="95.5297" y="358.189" fill="black" font-size="12.836" font-family="Helvetica">10</text>
<text xml:space="preserve" x="141.014" y="358.189" fill="black" font-size="12.836" font-family="Helvetica">20</text>
<text xml:space="preserve" x="186.498" y="358.189" fill="black" font-size="12.836" font-family="Helvetica">30</text>
<text xml:space="preserve" x="231.983" y="358.189" fill="black" font-size="12.836" font-family="Helvetica">40</text>
<text xml:space="preserve" x="277.467" y="358.189" fill="black" font-size="12.836" font-family="Helvetica">50</text>
<text xml:space="preserve" x="322.139" y="358.189" fill="black" font-size="12.836" font-family="Helvetica">60</text>
<text xml:space="preserve" x="367.623" y="358.189" fill="black" font-size="12.836" font-family="Helvetica">70</text>
<text xml:space="preserve" x="413.107" y="358.189" fill="black" font-size="12.836" font-family="Helvetica">80</text>
<text xml:space="preserve" x="458.592" y="358.189" fill="black" font-size="12.836" font-family="Helvetica">90</text>
<text xml:space="preserve" x="500.015" y="358.189" fill="black" font-size="12.836" font-family="Helvetica">100</text>
<text xml:space="preserve" x="441.535" y="370.372" fill="black" font-size="12.836" font-family="Helvetica">Energy [keV]</text>
<path d="M57.1929,345.762v -307.344" fill="none" stroke="black"/>
<path d="M70.7992,345.762h -13.6063" fill="none" stroke="black"/>
<path d="M63.9961,333.741h -6.80315" fill="none" stroke="black"/>
<path d="M63.9961,321.72h -6.80315" fill="none" stroke="black"/>
<path d="M63.9961,309.699h -6.80315" fill="none" stroke="black"/>
<path d="M63.9961,297.678h -6.80315" fill="none" stroke="black"/>
<path d="M70.7992,285.657h -13.6063" fill="none" stroke="black"/>
<path d="M63.9961,273.637h -6.80315" fill="none" stroke="black"/>
<path d="M63.9961,261.616h -6.80315" fill="none" stroke="black"/>
<path d="M63.9961,249.595h -6.80315" fill="none" stroke="black"/>
<path d="M63.9961,237.574h -6.80315" fill="none" stroke="black"/>
<path d="M70.7992,225.553h -13.6063" fill="none" stroke="black"/>
<path d="M63.9961,213.532h -6.80315" fill="none" stroke="black"/>
<path d="M63.9961,201.511h -6.80315" fill="none" stroke="black"/>
<path d="M63.9961,189.49h -6.80315" fill="none" stroke="black"/>
<path d="M63.9961,177.469h -6.80315" fill="none" stroke="black"/>
<path d="M70.7992,165.449h -13.6063" fill="none" stroke="black"/>
<path d="M63.9961,153.428h -6.80315" fill="none" stroke="black"/>
<path d="M63.9961,141.407h -6.80315" fill="none" stroke="black"/>
<path d="M63.9961,129.386h -6.80315" fill="none" stroke="black"/>
<path d="M63.9961,117.365h -6.80315" fill="none" stroke="black"/>
<path d="M70.7992,105.344h -13.6063" fill="none" stroke="black"/>
<path d="M63.9961,93.3233h -6.80315" fill="none" stroke="black"/>
<path d="M63.9961,81.3025h -6.80315" fill="none" stroke="black"/>
<path d="M63.9961,69.2816h -6.80315" fill="none" stroke="black"/>
<path d="M63.9961,57.2607h -6.80315" fill="none" stroke="black"/>
<path d="M70.7992,45.2398h -13.6063" fill="none" stroke="black"/>
<path d="M70.7992,45.2398h -13.6063" fill="none" stroke="black"/>
<text xml:space="preserve" x="47.6087" y="350.067" fill="black" font-size="12.836" font-family="Helvetica">0</text>
<text xml:space="preserve" x="33.801" y="289.962" fill="black" font-size="12.836" font-family="Helvetica">100</text>
<text xml:space="preserve" x="33.801" y="229.858" fill="black" font-size="12.836" font-family="Helvetica">200</text>
<text xml:space="preserve" x="33.801" y="169.754" fill="black" font-size="12.836" font-family="Helvetica">300</text>
<text xml:space="preserve" x="33.801" y="109.65" fill="black" font-size="12.836" font-family="Helvetica">400</text>
<text xml:space="preserve" x="33.801" y="49.5454" fill="black" font-size="12.836" font-family="Helvetica">500</text>
<g transform="rotate(-90,20.8055,69.8509)">
<text xml:space="preserve" x="20.8055" y="69.8509" fill="black" font-size="12.836" font-family="Helvetica">Event</text>
</g>
<text xml:space="preserve" x="209.24" y="18.681" fill="black" font-size="17.9813" font-family="Helvetica">Cs_006_calibrated</text>
<rect x="442.705" y="24.9717" width="113.386" height="61.4688" fill="white"/>
<path d="M442.705,86.4405h 113.386" fill="none" stroke="black"/>
<path d="M556.091,86.4405v -61.4688" fill="none" stroke="black"/>
<path d="M556.091,24.9717h -113.386" fill="none" stroke="black"/>
<path d="M442.705,24.9717v 61.4688" fill="none" stroke="black"/>
<text xml:space="preserve" x="448.033" y="36.5499" fill="black" font-size="12.5745" font-family="Helvetica">Cs_006_calibrated</text>
<path d="M442.705,40.3389h 113.386" fill="none" stroke="black"/>
<text xml:space="preserve" x="448.033" y="52.7943" fill="black" font-size="12.7411" font-family="Helvetica">Entries </text>
<text xml:space="preserve" x="513.01" y="52.7943" fill="black" font-size="12.7411" font-family="Helvetica"> 10524</text>
<text xml:space="preserve" x="448.033" y="68.2264" fill="black" font-size="12.7411" font-family="Helvetica">Mean  </text>
<text xml:space="preserve" x="513.01" y="68.2264" fill="black" font-size="12.7411" font-family="Helvetica">  59.76</text>
<text xml:space="preserve" x="448.033" y="82.8464" fill="black" font-size="12.7411" font-family="Helvetica">Std Dev   </text>
<text xml:space="preserve" x="513.01" y="82.8464" fill="black" font-size="12.7411" font-family="Helvetica">  31.87</text>
<text xml:space="preserve" x="209.24" y="18.681" fill="black" font-size="17.9813" font-family="Helvetica">Cs_006_calibrated</text></svg>
