<?xml version="1.0" standalone="no"?>
<svg width="567.429" height="384.68" viewBox="0 0 567.429 384.68" xmlns="http://www.w3.org/2000/svg" shape-rendering="crispEdges">
<title>
img/week2/Am_alpha_001Hist.svg
</title>
<desc>
Creator: ROOT Version 6.22/09
CreationDate: Tue Jul 13 18:42:23 2021</desc>
<defs>
</defs>
<rect x="0.5" y="0" width="566.929" height="384.18" fill="white"/>
<rect x="57.1929" y="38.418" width="453.543" height="307.344" fill="white"/>
<rect x="57.1929" y="38.418" width="453.543" height="307.344" fill="none" stroke="black"/>
<path d="M57.1929,345.762h 48.521v -3.08114h 0.510747v 3.08114h 1.02149v -3.08114h 0.510747v 3.08114h 1.02149v -9.24342h 0.510747v 9.24342h 0.510747v -3.08114h 1.02149v -3.08114h 0.510747v 3.08114h 0.510747v 3.08114h 1.02149v -3.08114h 0.510747v
 3.08114h 1.02149v -3.08114h 1.02149v 3.08114h 0.510747v -3.08114h 0.510747v 3.08114h 0.510747v -6.16228h 1.02149v -3.08114h 1.02149v 6.16228h 0.510747v -15.4057h 0.510747v 9.24342h 0.510747v 6.16228h 1.02149v -3.08114h 0.510747v -9.24342h 0.510747v
 12.3246h 0.510747v -6.16228h 0.510747v 3.08114h 0.510747v -6.16228h 0.510747v 3.08114h 0.510747v 3.08114h 0.510747v -12.3246h 0.510747v 6.16228h 0.510747v 6.16228h 0.510747v 3.08114h 0.510747v -3.08114h 0.510747v -12.3246h 0.510747v 12.3246h
 0.510747v -6.16228h 0.510747v 6.16228h 2.04299v 3.08114h 0.510747v -15.4057h 0.510747v 9.24342h 0.510747v -6.16228h 1.02149v 3.08114h 0.510747v 3.08114h 0.510747v 3.08114h 0.510747v 3.08114h 0.510747v -21.568h 1.02149v 6.16228h 0.510747v 3.08114h
 0.510747v -6.16228h 0.510747v -18.4868h 0.510747v 12.3246h 0.510747v 3.08114h 0.510747v -6.16228h 0.510747v 9.24342h 0.510747v -9.24342h 0.510747v 15.4057h 0.510747v -21.568h 0.510747v -6.16228h 0.510747v 18.4868h 0.510747v -3.08114h 1.02149v
 -15.4057h 0.510747v -12.3246h 0.510747v 3.08114h 0.510747v 9.24342h 0.510747v -27.7303h 0.510747v 33.8926h 0.510747v -30.8114h 0.510747v -12.3246h 1.02149v -21.568h 0.510747v -15.4057h 0.510747v -3.08114h 0.510747v 30.8114h 0.510747v -21.568h
 0.510747v -18.4868h 0.510747v -61.6228h 0.510747v 58.5417h 0.510747v 18.4868h 0.510747v -67.7851h 1.02149v 3.08114h 0.510747v -49.2983h 0.510747v 3.08114h 0.510747v 9.24342h 0.510747v 33.8926h 0.510747v -6.16228h 0.510747v -77.0285h 0.510747v
 21.568h 0.510747v -18.4868h 0.510747v 58.5417h 0.510747v -61.6228h 0.510747v -27.7303h 0.510747v 18.4868h 0.510747v 15.4057h 0.510747v -12.3246h 0.510747v 15.4057h 0.510747v 18.4868h 0.510747v -6.16228h 0.510747v -18.4868h 0.510747v 64.704h
 0.510747v -36.9737h 0.510747v -6.16228h 0.510747v 12.3246h 0.510747v 43.136h 0.510747v -61.6228h 0.510747v 77.0285h 0.510747v 3.08114h 0.510747v -43.136h 0.510747v 30.8114h 0.510747v -6.16228h 0.510747v 40.0548h 0.510747v -6.16228h 0.510747v
 -12.3246h 0.510747v -12.3246h 0.510747v 43.136h 0.510747v -21.568h 0.510747v 30.8114h 0.510747v 12.3246h 0.510747v -33.8926h 0.510747v 12.3246h 0.510747v 30.8114h 0.510747v -9.24342h 0.510747v 12.3246h 0.510747v 9.24342h 0.510747v -3.08114h 1.02149v
 12.3246h 0.510747v -15.4057h 0.510747v 18.4868h 0.510747v -21.568h 0.510747v 43.136h 0.510747v -12.3246h 0.510747v 18.4868h 0.510747v -36.9737h 0.510747v 15.4057h 0.510747v 15.4057h 0.510747v -6.16228h 0.510747v -3.08114h 1.02149v 21.568h 0.510747v
 3.08114h 0.510747v -15.4057h 0.510747v 21.568h 0.510747v -9.24342h 0.510747v 6.16228h 0.510747v -3.08114h 0.510747v 18.4868h 0.510747v -43.136h 0.510747v 36.9737h 1.02149v -3.08114h 0.510747v -9.24342h 0.510747v 12.3246h 1.53224v 6.16228h 0.510747v
 15.4057h 0.510747v -18.4868h 0.510747v 9.24342h 1.02149v -6.16228h 0.510747v 9.24342h 0.510747v -3.08114h 0.510747v -6.16228h 0.510747v 3.08114h 0.510747v 3.08114h 0.510747v 3.08114h 0.510747v 3.08114h 0.510747v -6.16228h 0.510747v 12.3246h 1.02149v
 3.08114h 0.510747v -3.08114h 0.510747v -6.16228h 0.510747v 6.16228h 1.02149v -9.24342h 0.510747v 3.08114h 0.510747v 9.24342h 0.510747v -6.16228h 0.510747v -3.08114h 0.510747v 3.08114h 0.510747v -6.16228h 1.02149v 12.3246h 0.510747v -9.24342h
 0.510747v 6.16228h 1.02149v 3.08114h 0.510747v -3.08114h 1.02149v -3.08114h 0.510747v 3.08114h 2.04299v 3.08114h 0.510747v -3.08114h 1.02149v -6.16228h 0.510747v 9.24342h 1.53224v -6.16228h 0.510747v 3.08114h 1.53224v -3.08114h 0.510747v 6.16228h
 1.53224v -3.08114h 0.510747v 3.08114h 0.510747v -6.16228h 0.510747v 6.16228h 1.53224v -3.08114h 1.53224v 3.08114h 0.510747v -3.08114h 0.510747v 3.08114h 1.53224v -3.08114h 0.510747v 3.08114h 1.02149v -3.08114h 0.510747v -3.08114h 1.02149v 3.08114h
 0.510747v 3.08114h 3.06448v -3.08114h 0.510747v 3.08114h 1.02149v -3.08114h 1.02149v 3.08114h 1.02149v -3.08114h 0.510747v 3.08114h 2.55373v -3.08114h 0.510747v 3.08114h 0.510747v -3.08114h 0.510747v -9.24342h 0.510747v 12.3246h 0.510747v -3.08114h
 0.510747v 3.08114h 0.510747v -3.08114h 0.510747v 3.08114h 0.510747v -3.08114h 1.02149v 3.08114h 1.53224v -3.08114h 1.02149v 3.08114h 0.510747v -3.08114h 0.510747v 3.08114h 1.02149v -6.16228h 0.510747v 3.08114h 0.510747v 3.08114h 0.510747v -3.08114h
 1.02149v -3.08114h 0.510747v 3.08114h 1.02149v 3.08114h 0.510747v -6.16228h 0.510747v 6.16228h 0.510747v -3.08114h 0.510747v 3.08114h 3.06448v -3.08114h 1.02149v 3.08114h 1.02149v -3.08114h 1.53224v 3.08114h 1.53224v -3.08114h 0.510747v 3.08114h
 0.510747v -3.08114h 0.510747v 3.08114h 0.510747v -6.16228h 0.510747v 6.16228h 1.02149v -3.08114h 0.510747v -6.16228h 0.510747v 9.24342h 1.02149v -6.16228h 0.510747v 6.16228h 0.510747v -9.24342h 0.510747v 6.16228h 0.510747v 3.08114h 0.510747v
 -3.08114h 0.510747v 3.08114h 0.510747v -3.08114h 0.510747v 3.08114h 1.53224v -12.3246h 0.510747v 9.24342h 1.02149v 3.08114h 1.02149v -3.08114h 1.02149v 3.08114h 1.53224v -3.08114h 0.510747v 3.08114h 2.04299v -3.08114h 0.510747v 3.08114h 6.63971v
 -3.08114h 1.02149v 3.08114h 2.55373v -3.08114h 0.510747v 3.08114h 7.6612v -3.08114h 0.510747v 3.08114h 7.6612v -3.08114h 0.510747v 3.08114h 32.6878v -3.08114h 0.510747v 3.08114h 3.06448v -3.08114h 0.510747v 3.08114h 3.57523v -3.08114h 0.510747v
 3.08114h 56.1822v -3.08114h 0.510747v 3.08114h 0.510747v -3.08114h 0.510747v 3.08114h 9.70419v -3.08114h 0.510747v 3.08114h 53.1177v -3.08114h 0.510747v 3.08114h 34.22v -3.08114h 0.510747" fill="none" stroke="#000099"/>
<path d="M57.1929,345.762h 453.543" fill="none" stroke="black"/>
<path d="M57.7037,336.541v 9.22031" fill="none" stroke="black"/>
<path d="M68.1638,341.152v 4.61016" fill="none" stroke="black"/>
<path d="M78.6239,341.152v 4.61016" fill="none" stroke="black"/>
<path d="M89.084,341.152v 4.61016" fill="none" stroke="black"/>
<path d="M99.5441,341.152v 4.61016" fill="none" stroke="black"/>
<path d="M110.004,336.541v 9.22031" fill="none" stroke="black"/>
<path d="M120.464,341.152v 4.61016" fill="none" stroke="black"/>
<path d="M130.924,341.152v 4.61016" fill="none" stroke="black"/>
<path d="M141.384,341.152v 4.61016" fill="none" stroke="black"/>
<path d="M151.845,341.152v 4.61016" fill="none" stroke="black"/>
<path d="M162.305,336.541v 9.22031" fill="none" stroke="black"/>
<path d="M172.765,341.152v 4.61016" fill="none" stroke="black"/>
<path d="M183.225,341.152v 4.61016" fill="none" stroke="black"/>
<path d="M193.685,341.152v 4.61016" fill="none" stroke="black"/>
<path d="M204.145,341.152v 4.61016" fill="none" stroke="black"/>
<path d="M214.605,336.541v 9.22031" fill="none" stroke="black"/>
<path d="M225.065,341.152v 4.61016" fill="none" stroke="black"/>
<path d="M235.525,341.152v 4.61016" fill="none" stroke="black"/>
<path d="M245.985,341.152v 4.61016" fill="none" stroke="black"/>
<path d="M256.446,341.152v 4.61016" fill="none" stroke="black"/>
<path d="M266.906,336.541v 9.22031" fill="none" stroke="black"/>
<path d="M277.366,341.152v 4.61016" fill="none" stroke="black"/>
<path d="M287.826,341.152v 4.61016" fill="none" stroke="black"/>
<path d="M298.286,341.152v 4.61016" fill="none" stroke="black"/>
<path d="M308.746,341.152v 4.61016" fill="none" stroke="black"/>
<path d="M319.206,336.541v 9.22031" fill="none" stroke="black"/>
<path d="M329.666,341.152v 4.61016" fill="none" stroke="black"/>
<path d="M340.126,341.152v 4.61016" fill="none" stroke="black"/>
<path d="M350.586,341.152v 4.61016" fill="none" stroke="black"/>
<path d="M361.047,341.152v 4.61016" fill="none" stroke="black"/>
<path d="M371.507,336.541v 9.22031" fill="none" stroke="black"/>
<path d="M381.967,341.152v 4.61016" fill="none" stroke="black"/>
<path d="M392.427,341.152v 4.61016" fill="none" stroke="black"/>
<path d="M402.887,341.152v 4.61016" fill="none" stroke="black"/>
<path d="M413.347,341.152v 4.61016" fill="none" stroke="black"/>
<path d="M423.807,336.541v 9.22031" fill="none" stroke="black"/>
<path d="M434.267,341.152v 4.61016" fill="none" stroke="black"/>
<path d="M444.727,341.152v 4.61016" fill="none" stroke="black"/>
<path d="M455.187,341.152v 4.61016" fill="none" stroke="black"/>
<path d="M465.647,341.152v 4.61016" fill="none" stroke="black"/>
<path d="M476.108,336.541v 9.22031" fill="none" stroke="black"/>
<path d="M57.7037,336.541v 9.22031" fill="none" stroke="black"/>
<path d="M476.108,336.541v 9.22031" fill="none" stroke="black"/>
<path d="M486.568,341.152v 4.61016" fill="none" stroke="black"/>
<path d="M497.028,341.152v 4.61016" fill="none" stroke="black"/>
<path d="M507.488,341.152v 4.61016" fill="none" stroke="black"/>
<text xml:space="preserve" x="54.1065" y="358.189" fill="black" font-size="12.836" font-family="Helvetica">0</text>
<text xml:space="preserve" x="102.84" y="358.189" fill="black" font-size="12.836" font-family="Helvetica">10</text>
<text xml:space="preserve" x="155.634" y="358.189" fill="black" font-size="12.836" font-family="Helvetica">20</text>
<text xml:space="preserve" x="207.616" y="358.189" fill="black" font-size="12.836" font-family="Helvetica">30</text>
<text xml:space="preserve" x="259.598" y="358.189" fill="black" font-size="12.836" font-family="Helvetica">40</text>
<text xml:space="preserve" x="312.392" y="358.189" fill="black" font-size="12.836" font-family="Helvetica">50</text>
<text xml:space="preserve" x="364.374" y="358.189" fill="black" font-size="12.836" font-family="Helvetica">60</text>
<text xml:space="preserve" x="417.169" y="358.189" fill="black" font-size="12.836" font-family="Helvetica">70</text>
<text xml:space="preserve" x="469.151" y="358.189" fill="black" font-size="12.836" font-family="Helvetica">80</text>
<text xml:space="preserve" x="452.094" y="371.996" fill="black" font-size="12.836" font-family="Helvetica">ADC value</text>
<path d="M57.1929,345.762v -307.344" fill="none" stroke="black"/>
<path d="M70.7992,345.762h -13.6063" fill="none" stroke="black"/>
<path d="M63.9961,339.6h -6.80315" fill="none" stroke="black"/>
<path d="M63.9961,333.437h -6.80315" fill="none" stroke="black"/>
<path d="M63.9961,327.275h -6.80315" fill="none" stroke="black"/>
<path d="M63.9961,321.113h -6.80315" fill="none" stroke="black"/>
<path d="M70.7992,314.95h -13.6063" fill="none" stroke="black"/>
<path d="M63.9961,308.788h -6.80315" fill="none" stroke="black"/>
<path d="M63.9961,302.626h -6.80315" fill="none" stroke="black"/>
<path d="M63.9961,296.464h -6.80315" fill="none" stroke="black"/>
<path d="M63.9961,290.301h -6.80315" fill="none" stroke="black"/>
<path d="M70.7992,284.139h -13.6063" fill="none" stroke="black"/>
<path d="M63.9961,277.977h -6.80315" fill="none" stroke="black"/>
<path d="M63.9961,271.814h -6.80315" fill="none" stroke="black"/>
<path d="M63.9961,265.652h -6.80315" fill="none" stroke="black"/>
<path d="M63.9961,259.49h -6.80315" fill="none" stroke="black"/>
<path d="M70.7992,253.328h -13.6063" fill="none" stroke="black"/>
<path d="M63.9961,247.165h -6.80315" fill="none" stroke="black"/>
<path d="M63.9961,241.003h -6.80315" fill="none" stroke="black"/>
<path d="M63.9961,234.841h -6.80315" fill="none" stroke="black"/>
<path d="M63.9961,228.678h -6.80315" fill="none" stroke="black"/>
<path d="M70.7992,222.516h -13.6063" fill="none" stroke="black"/>
<path d="M63.9961,216.354h -6.80315" fill="none" stroke="black"/>
<path d="M63.9961,210.192h -6.80315" fill="none" stroke="black"/>
<path d="M63.9961,204.029h -6.80315" fill="none" stroke="black"/>
<path d="M63.9961,197.867h -6.80315" fill="none" stroke="black"/>
<path d="M70.7992,191.705h -13.6063" fill="none" stroke="black"/>
<path d="M63.9961,185.542h -6.80315" fill="none" stroke="black"/>
<path d="M63.9961,179.38h -6.80315" fill="none" stroke="black"/>
<path d="M63.9961,173.218h -6.80315" fill="none" stroke="black"/>
<path d="M63.9961,167.056h -6.80315" fill="none" stroke="black"/>
<path d="M70.7992,160.893h -13.6063" fill="none" stroke="black"/>
<path d="M63.9961,154.731h -6.80315" fill="none" stroke="black"/>
<path d="M63.9961,148.569h -6.80315" fill="none" stroke="black"/>
<path d="M63.9961,142.406h -6.80315" fill="none" stroke="black"/>
<path d="M63.9961,136.244h -6.80315" fill="none" stroke="black"/>
<path d="M70.7992,130.082h -13.6063" fill="none" stroke="black"/>
<path d="M63.9961,123.92h -6.80315" fill="none" stroke="black"/>
<path d="M63.9961,117.757h -6.80315" fill="none" stroke="black"/>
<path d="M63.9961,111.595h -6.80315" fill="none" stroke="black"/>
<path d="M63.9961,105.433h -6.80315" fill="none" stroke="black"/>
<path d="M70.7992,99.2705h -13.6063" fill="none" stroke="black"/>
<path d="M63.9961,93.1082h -6.80315" fill="none" stroke="black"/>
<path d="M63.9961,86.946h -6.80315" fill="none" stroke="black"/>
<path d="M63.9961,80.7837h -6.80315" fill="none" stroke="black"/>
<path d="M63.9961,74.6214h -6.80315" fill="none" stroke="black"/>
<path d="M70.7992,68.4591h -13.6063" fill="none" stroke="black"/>
<path d="M70.7992,68.4591h -13.6063" fill="none" stroke="black"/>
<path d="M63.9961,62.2968h -6.80315" fill="none" stroke="black"/>
<path d="M63.9961,56.1345h -6.80315" fill="none" stroke="black"/>
<path d="M63.9961,49.9723h -6.80315" fill="none" stroke="black"/>
<path d="M63.9961,43.81h -6.80315" fill="none" stroke="black"/>
<text xml:space="preserve" x="47.6087" y="350.067" fill="black" font-size="12.836" font-family="Helvetica">0</text>
<text xml:space="preserve" x="41.111" y="319.202" fill="black" font-size="12.836" font-family="Helvetica">10</text>
<text xml:space="preserve" x="41.111" y="288.338" fill="black" font-size="12.836" font-family="Helvetica">20</text>
<text xml:space="preserve" x="41.111" y="257.474" fill="black" font-size="12.836" font-family="Helvetica">30</text>
<text xml:space="preserve" x="41.111" y="226.609" fill="black" font-size="12.836" font-family="Helvetica">40</text>
<text xml:space="preserve" x="41.111" y="196.557" fill="black" font-size="12.836" font-family="Helvetica">50</text>
<text xml:space="preserve" x="41.111" y="165.693" fill="black" font-size="12.836" font-family="Helvetica">60</text>
<text xml:space="preserve" x="41.111" y="134.828" fill="black" font-size="12.836" font-family="Helvetica">70</text>
<text xml:space="preserve" x="41.111" y="103.964" fill="black" font-size="12.836" font-family="Helvetica">80</text>
<text xml:space="preserve" x="41.111" y="73.0997" fill="black" font-size="12.836" font-family="Helvetica">90</text>
<g transform="rotate(-90,28.9277,69.8509)">
<text xml:space="preserve" x="28.9277" y="69.8509" fill="black" font-size="12.836" font-family="Helvetica">Event</text>
</g>
<text xml:space="preserve" x="223.048" y="17.8688" fill="black" font-size="18.7414" font-family="Helvetica">Am_alpha_001</text>
<rect x="442.705" y="24.9717" width="113.386" height="61.4688" fill="white"/>
<path d="M442.705,86.4405h 113.386" fill="none" stroke="black"/>
<path d="M556.091,86.4405v -61.4688" fill="none" stroke="black"/>
<path d="M556.091,24.9717h -113.386" fill="none" stroke="black"/>
<path d="M442.705,24.9717v 61.4688" fill="none" stroke="black"/>
<text xml:space="preserve" x="456.155" y="36.5499" fill="black" font-size="13.4705" font-family="Helvetica">Am_alpha_001</text>
<path d="M442.705,40.3389h 113.386" fill="none" stroke="black"/>
<text xml:space="preserve" x="448.033" y="52.7943" fill="black" font-size="13.0884" font-family="Helvetica">Entries </text>
<text xml:space="preserve" x="517.884" y="52.7943" fill="black" font-size="13.0884" font-family="Helvetica"> 4486</text>
<text xml:space="preserve" x="448.033" y="68.2264" fill="black" font-size="13.0884" font-family="Helvetica">Mean  </text>
<text xml:space="preserve" x="510.574" y="68.2264" fill="black" font-size="13.0884" font-family="Helvetica">  20.84</text>
<text xml:space="preserve" x="448.033" y="82.8464" fill="black" font-size="13.0884" font-family="Helvetica">Std Dev   </text>
<text xml:space="preserve" x="510.574" y="82.8464" fill="black" font-size="13.0884" font-family="Helvetica">  4.159</text>
<text xml:space="preserve" x="223.048" y="17.8688" fill="black" font-size="18.7414" font-family="Helvetica">Am_alpha_001</text></svg>
