<?xml version="1.0" standalone="no"?>
<svg width="567.429" height="384.969" viewBox="0 0 567.429 384.969" xmlns="http://www.w3.org/2000/svg" shape-rendering="crispEdges">
<title>
img/week2/fitAm_alpha_001Hist.svg
</title>
<desc>
Creator: ROOT Version 6.22/09
CreationDate: Tue Jul 13 19:34:21 2021</desc>
<defs>
</defs>
<rect x="0.5" y="0" width="566.929" height="384.469" fill="white"/>
<rect x="57.1929" y="38.4469" width="453.543" height="307.575" fill="white"/>
<rect x="57.1929" y="38.4469" width="453.543" height="307.575" fill="none" stroke="black"/>
<rect x="57.1929" y="38.4469" width="453.543" height="307.575" fill="white"/>
<rect x="57.1929" y="38.4469" width="453.543" height="307.575" fill="none" stroke="black"/>
<path d="M57.1929,346.022h 48.521v -3.08346h 0.510747v 3.08346h 1.02149v -3.08346h 0.510747v 3.08346h 1.02149v -9.25039h 0.510747v 9.25039h 0.510747v -3.08346h 1.02149v -3.08346h 0.510747v 3.08346h 0.510747v 3.08346h 1.02149v -3.08346h 0.510747v
 3.08346h 1.02149v -3.08346h 1.02149v 3.08346h 0.510747v -3.08346h 0.510747v 3.08346h 0.510747v -6.16692h 1.02149v -3.08346h 1.02149v 6.16692h 0.510747v -15.4173h 0.510747v 9.25039h 0.510747v 6.16692h 1.02149v -3.08346h 0.510747v -9.25039h 0.510747v
 12.3338h 0.510747v -6.16692h 0.510747v 3.08346h 0.510747v -6.16692h 0.510747v 3.08346h 0.510747v 3.08346h 0.510747v -12.3338h 0.510747v 6.16692h 0.510747v 6.16692h 0.510747v 3.08346h 0.510747v -3.08346h 0.510747v -12.3338h 0.510747v 12.3338h
 0.510747v -6.16692h 0.510747v 6.16692h 2.04299v 3.08346h 0.510747v -15.4173h 0.510747v 9.25039h 0.510747v -6.16692h 1.02149v 3.08346h 0.510747v 3.08346h 0.510747v 3.08346h 0.510747v 3.08346h 0.510747v -21.5842h 1.02149v 6.16692h 0.510747v 3.08346h
 0.510747v -6.16692h 0.510747v -18.5008h 0.510747v 12.3338h 0.510747v 3.08346h 0.510747v -6.16692h 0.510747v 9.25039h 0.510747v -9.25039h 0.510747v 15.4173h 0.510747v -21.5842h 0.510747v -6.16692h 0.510747v 18.5008h 0.510747v -3.08346h 1.02149v
 -15.4173h 0.510747v -12.3338h 0.510747v 3.08346h 0.510747v 9.25039h 0.510747v -27.7512h 0.510747v 33.9181h 0.510747v -30.8346h 0.510747v -12.3338h 1.02149v -21.5842h 0.510747v -15.4173h 0.510747v -3.08346h 0.510747v 30.8346h 0.510747v -21.5842h
 0.510747v -18.5008h 0.510747v -61.6692h 0.510747v 58.5858h 0.510747v 18.5008h 0.510747v -67.8362h 1.02149v 3.08346h 0.510747v -49.3354h 0.510747v 3.08346h 0.510747v 9.25039h 0.510747v 33.9181h 0.510747v -6.16692h 0.510747v -77.0865h 0.510747v
 21.5842h 0.510747v -18.5008h 0.510747v 58.5858h 0.510747v -61.6692h 0.510747v -27.7512h 0.510747v 18.5008h 0.510747v 15.4173h 0.510747v -12.3338h 0.510747v 15.4173h 0.510747v 18.5008h 0.510747v -6.16692h 0.510747v -18.5008h 0.510747v 64.7527h
 0.510747v -37.0015h 0.510747v -6.16692h 0.510747v 12.3338h 0.510747v 43.1685h 0.510747v -61.6692h 0.510747v 77.0865h 0.510747v 3.08346h 0.510747v -43.1685h 0.510747v 30.8346h 0.510747v -6.16692h 0.510747v 40.085h 0.510747v -6.16692h 0.510747v
 -12.3338h 0.510747v -12.3338h 0.510747v 43.1685h 0.510747v -21.5842h 0.510747v 30.8346h 0.510747v 12.3338h 0.510747v -33.9181h 0.510747v 12.3338h 0.510747v 30.8346h 0.510747v -9.25039h 0.510747v 12.3338h 0.510747v 9.25039h 0.510747v -3.08346h
 1.02149v 12.3338h 0.510747v -15.4173h 0.510747v 18.5008h 0.510747v -21.5842h 0.510747v 43.1685h 0.510747v -12.3338h 0.510747v 18.5008h 0.510747v -37.0015h 0.510747v 15.4173h 0.510747v 15.4173h 0.510747v -6.16692h 0.510747v -3.08346h 1.02149v
 21.5842h 0.510747v 3.08346h 0.510747v -15.4173h 0.510747v 21.5842h 0.510747v -9.25039h 0.510747v 6.16692h 0.510747v -3.08346h 0.510747v 18.5008h 0.510747v -43.1685h 0.510747v 37.0015h 1.02149v -3.08346h 0.510747v -9.25039h 0.510747v 12.3338h
 1.53224v 6.16692h 0.510747v 15.4173h 0.510747v -18.5008h 0.510747v 9.25039h 1.02149v -6.16692h 0.510747v 9.25039h 0.510747v -3.08346h 0.510747v -6.16692h 0.510747v 3.08346h 0.510747v 3.08346h 0.510747v 3.08346h 0.510747v 3.08346h 0.510747v -6.16692h
 0.510747v 12.3338h 1.02149v 3.08346h 0.510747v -3.08346h 0.510747v -6.16692h 0.510747v 6.16692h 1.02149v -9.25039h 0.510747v 3.08346h 0.510747v 9.25039h 0.510747v -6.16692h 0.510747v -3.08346h 0.510747v 3.08346h 0.510747v -6.16692h 1.02149v 12.3338h
 0.510747v -9.25039h 0.510747v 6.16692h 1.02149v 3.08346h 0.510747v -3.08346h 1.02149v -3.08346h 0.510747v 3.08346h 2.04299v 3.08346h 0.510747v -3.08346h 1.02149v -6.16692h 0.510747v 9.25039h 1.53224v -6.16692h 0.510747v 3.08346h 1.53224v -3.08346h
 0.510747v 6.16692h 1.53224v -3.08346h 0.510747v 3.08346h 0.510747v -6.16692h 0.510747v 6.16692h 1.53224v -3.08346h 1.53224v 3.08346h 0.510747v -3.08346h 0.510747v 3.08346h 1.53224v -3.08346h 0.510747v 3.08346h 1.02149v -3.08346h 0.510747v -3.08346h
 1.02149v 3.08346h 0.510747v 3.08346h 3.06448v -3.08346h 0.510747v 3.08346h 1.02149v -3.08346h 1.02149v 3.08346h 1.02149v -3.08346h 0.510747v 3.08346h 2.55373v -3.08346h 0.510747v 3.08346h 0.510747v -3.08346h 0.510747v -9.25039h 0.510747v 12.3338h
 0.510747v -3.08346h 0.510747v 3.08346h 0.510747v -3.08346h 0.510747v 3.08346h 0.510747v -3.08346h 1.02149v 3.08346h 1.53224v -3.08346h 1.02149v 3.08346h 0.510747v -3.08346h 0.510747v 3.08346h 1.02149v -6.16692h 0.510747v 3.08346h 0.510747v 3.08346h
 0.510747v -3.08346h 1.02149v -3.08346h 0.510747v 3.08346h 1.02149v 3.08346h 0.510747v -6.16692h 0.510747v 6.16692h 0.510747v -3.08346h 0.510747v 3.08346h 3.06448v -3.08346h 1.02149v 3.08346h 1.02149v -3.08346h 1.53224v 3.08346h 1.53224v -3.08346h
 0.510747v 3.08346h 0.510747v -3.08346h 0.510747v 3.08346h 0.510747v -6.16692h 0.510747v 6.16692h 1.02149v -3.08346h 0.510747v -6.16692h 0.510747v 9.25039h 1.02149v -6.16692h 0.510747v 6.16692h 0.510747v -9.25039h 0.510747v 6.16692h 0.510747v
 3.08346h 0.510747v -3.08346h 0.510747v 3.08346h 0.510747v -3.08346h 0.510747v 3.08346h 1.53224v -12.3338h 0.510747v 9.25039h 1.02149v 3.08346h 1.02149v -3.08346h 1.02149v 3.08346h 1.53224v -3.08346h 0.510747v 3.08346h 2.04299v -3.08346h 0.510747v
 3.08346h 6.63971v -3.08346h 1.02149v 3.08346h 2.55373v -3.08346h 0.510747v 3.08346h 7.6612v -3.08346h 0.510747v 3.08346h 7.6612v -3.08346h 0.510747v 3.08346h 32.6878v -3.08346h 0.510747v 3.08346h 3.06448v -3.08346h 0.510747v 3.08346h 3.57523v
 -3.08346h 0.510747v 3.08346h 56.1822v -3.08346h 0.510747v 3.08346h 0.510747v -3.08346h 0.510747v 3.08346h 9.70419v -3.08346h 0.510747v 3.08346h 53.1177v -3.08346h 0.510747v 3.08346h 34.22v -3.08346h 0.510747" fill="none" stroke="#000099"/>
<rect x="351.996" y="24.9905" width="204.094" height="123.03" fill="white"/>
<path d="M351.996,148.021h 204.094" fill="none" stroke="black"/>
<path d="M556.091,148.021v -123.03" fill="none" stroke="black"/>
<path d="M556.091,24.9905h -204.094" fill="none" stroke="black"/>
<path d="M351.996,24.9905v 123.03" fill="none" stroke="black"/>
<text xml:space="preserve" x="384.155" y="42.3568" fill="black" font-size="21.2684" font-family="Helvetica">Am_alpha_001</text>
<path d="M351.996,49.5965h 204.094" fill="none" stroke="black"/>
<text xml:space="preserve" x="362.162" y="68.4225" fill="black" font-size="18.6446" font-family="Helvetica">Entries </text>
<text xml:space="preserve" x="499.007" y="68.4225" fill="black" font-size="18.6446" font-family="Helvetica"> 4486</text>
<text xml:space="preserve" x="362.162" y="93.6736" fill="black" font-size="18.6446" font-family="Helvetica">Mean  </text>
<text xml:space="preserve" x="488.417" y="93.6736" fill="black" font-size="18.6446" font-family="Helvetica">  20.84</text>
<text xml:space="preserve" x="362.162" y="118.11" fill="black" font-size="18.6446" font-family="Helvetica">Std Dev   </text>
<text xml:space="preserve" x="488.417" y="118.11" fill="black" font-size="18.6446" font-family="Helvetica">  4.159</text>
<text xml:space="preserve" x="378.453" y="140.918" fill="black" font-size="18.6446" font-family="Helvetica"> / ndf </text>
<text xml:space="preserve" x="371.936" y="135.216" fill="black" font-size="12.5964" font-family="Helvetica">2</text>
<text xml:space="preserve" x="362.162" y="140.918" fill="black" font-size="18.6446" font-family="Times">&#0967;</text>
<text xml:space="preserve" x="446.875" y="142.547" fill="black" font-size="18.6446" font-family="Helvetica"> 228.7 / 120</text>
<path d="M57.1929,346.022h 453.543" fill="none" stroke="black"/>
<path d="M57.7037,336.795v 9.22726" fill="none" stroke="black"/>
<path d="M68.1638,341.409v 4.61363" fill="none" stroke="black"/>
<path d="M78.6239,341.409v 4.61363" fill="none" stroke="black"/>
<path d="M89.084,341.409v 4.61363" fill="none" stroke="black"/>
<path d="M99.5441,341.409v 4.61363" fill="none" stroke="black"/>
<path d="M110.004,336.795v 9.22726" fill="none" stroke="black"/>
<path d="M120.464,341.409v 4.61363" fill="none" stroke="black"/>
<path d="M130.924,341.409v 4.61363" fill="none" stroke="black"/>
<path d="M141.384,341.409v 4.61363" fill="none" stroke="black"/>
<path d="M151.845,341.409v 4.61363" fill="none" stroke="black"/>
<path d="M162.305,336.795v 9.22726" fill="none" stroke="black"/>
<path d="M172.765,341.409v 4.61363" fill="none" stroke="black"/>
<path d="M183.225,341.409v 4.61363" fill="none" stroke="black"/>
<path d="M193.685,341.409v 4.61363" fill="none" stroke="black"/>
<path d="M204.145,341.409v 4.61363" fill="none" stroke="black"/>
<path d="M214.605,336.795v 9.22726" fill="none" stroke="black"/>
<path d="M225.065,341.409v 4.61363" fill="none" stroke="black"/>
<path d="M235.525,341.409v 4.61363" fill="none" stroke="black"/>
<path d="M245.985,341.409v 4.61363" fill="none" stroke="black"/>
<path d="M256.446,341.409v 4.61363" fill="none" stroke="black"/>
<path d="M266.906,336.795v 9.22726" fill="none" stroke="black"/>
<path d="M277.366,341.409v 4.61363" fill="none" stroke="black"/>
<path d="M287.826,341.409v 4.61363" fill="none" stroke="black"/>
<path d="M298.286,341.409v 4.61363" fill="none" stroke="black"/>
<path d="M308.746,341.409v 4.61363" fill="none" stroke="black"/>
<path d="M319.206,336.795v 9.22726" fill="none" stroke="black"/>
<path d="M329.666,341.409v 4.61363" fill="none" stroke="black"/>
<path d="M340.126,341.409v 4.61363" fill="none" stroke="black"/>
<path d="M350.586,341.409v 4.61363" fill="none" stroke="black"/>
<path d="M361.047,341.409v 4.61363" fill="none" stroke="black"/>
<path d="M371.507,336.795v 9.22726" fill="none" stroke="black"/>
<path d="M381.967,341.409v 4.61363" fill="none" stroke="black"/>
<path d="M392.427,341.409v 4.61363" fill="none" stroke="black"/>
<path d="M402.887,341.409v 4.61363" fill="none" stroke="black"/>
<path d="M413.347,341.409v 4.61363" fill="none" stroke="black"/>
<path d="M423.807,336.795v 9.22726" fill="none" stroke="black"/>
<path d="M434.267,341.409v 4.61363" fill="none" stroke="black"/>
<path d="M444.727,341.409v 4.61363" fill="none" stroke="black"/>
<path d="M455.187,341.409v 4.61363" fill="none" stroke="black"/>
<path d="M465.647,341.409v 4.61363" fill="none" stroke="black"/>
<path d="M476.108,336.795v 9.22726" fill="none" stroke="black"/>
<path d="M57.7037,336.795v 9.22726" fill="none" stroke="black"/>
<path d="M476.108,336.795v 9.22726" fill="none" stroke="black"/>
<path d="M486.568,341.409v 4.61363" fill="none" stroke="black"/>
<path d="M497.028,341.409v 4.61363" fill="none" stroke="black"/>
<path d="M507.488,341.409v 4.61363" fill="none" stroke="black"/>
<text xml:space="preserve" x="54.2605" y="358.403" fill="black" font-size="12.8453" font-family="Helvetica">0</text>
<text xml:space="preserve" x="103.134" y="358.403" fill="black" font-size="12.8453" font-family="Helvetica">10</text>
<text xml:space="preserve" x="155.265" y="358.403" fill="black" font-size="12.8453" font-family="Helvetica">20</text>
<text xml:space="preserve" x="207.397" y="358.403" fill="black" font-size="12.8453" font-family="Helvetica">30</text>
<text xml:space="preserve" x="260.343" y="358.403" fill="black" font-size="12.8453" font-family="Helvetica">40</text>
<text xml:space="preserve" x="312.474" y="358.403" fill="black" font-size="12.8453" font-family="Helvetica">50</text>
<text xml:space="preserve" x="364.605" y="358.403" fill="black" font-size="12.8453" font-family="Helvetica">60</text>
<text xml:space="preserve" x="416.737" y="358.403" fill="black" font-size="12.8453" font-family="Helvetica">70</text>
<text xml:space="preserve" x="468.868" y="358.403" fill="black" font-size="12.8453" font-family="Helvetica">80</text>
<text xml:space="preserve" x="451.763" y="372.251" fill="black" font-size="12.8453" font-family="Helvetica">ADC value</text>
<path d="M57.1929,346.022v -307.575" fill="none" stroke="black"/>
<path d="M70.7992,346.022h -13.6063" fill="none" stroke="black"/>
<path d="M63.9961,339.855h -6.80315" fill="none" stroke="black"/>
<path d="M63.9961,333.688h -6.80315" fill="none" stroke="black"/>
<path d="M63.9961,327.521h -6.80315" fill="none" stroke="black"/>
<path d="M63.9961,321.355h -6.80315" fill="none" stroke="black"/>
<path d="M70.7992,315.188h -13.6063" fill="none" stroke="black"/>
<path d="M63.9961,309.021h -6.80315" fill="none" stroke="black"/>
<path d="M63.9961,302.854h -6.80315" fill="none" stroke="black"/>
<path d="M63.9961,296.687h -6.80315" fill="none" stroke="black"/>
<path d="M63.9961,290.52h -6.80315" fill="none" stroke="black"/>
<path d="M70.7992,284.353h -13.6063" fill="none" stroke="black"/>
<path d="M63.9961,278.186h -6.80315" fill="none" stroke="black"/>
<path d="M63.9961,272.019h -6.80315" fill="none" stroke="black"/>
<path d="M63.9961,265.852h -6.80315" fill="none" stroke="black"/>
<path d="M63.9961,259.685h -6.80315" fill="none" stroke="black"/>
<path d="M70.7992,253.518h -13.6063" fill="none" stroke="black"/>
<path d="M63.9961,247.351h -6.80315" fill="none" stroke="black"/>
<path d="M63.9961,241.185h -6.80315" fill="none" stroke="black"/>
<path d="M63.9961,235.018h -6.80315" fill="none" stroke="black"/>
<path d="M63.9961,228.851h -6.80315" fill="none" stroke="black"/>
<path d="M70.7992,222.684h -13.6063" fill="none" stroke="black"/>
<path d="M63.9961,216.517h -6.80315" fill="none" stroke="black"/>
<path d="M63.9961,210.35h -6.80315" fill="none" stroke="black"/>
<path d="M63.9961,204.183h -6.80315" fill="none" stroke="black"/>
<path d="M63.9961,198.016h -6.80315" fill="none" stroke="black"/>
<path d="M70.7992,191.849h -13.6063" fill="none" stroke="black"/>
<path d="M63.9961,185.682h -6.80315" fill="none" stroke="black"/>
<path d="M63.9961,179.515h -6.80315" fill="none" stroke="black"/>
<path d="M63.9961,173.348h -6.80315" fill="none" stroke="black"/>
<path d="M63.9961,167.181h -6.80315" fill="none" stroke="black"/>
<path d="M70.7992,161.015h -13.6063" fill="none" stroke="black"/>
<path d="M63.9961,154.848h -6.80315" fill="none" stroke="black"/>
<path d="M63.9961,148.681h -6.80315" fill="none" stroke="black"/>
<path d="M63.9961,142.514h -6.80315" fill="none" stroke="black"/>
<path d="M63.9961,136.347h -6.80315" fill="none" stroke="black"/>
<path d="M70.7992,130.18h -13.6063" fill="none" stroke="black"/>
<path d="M63.9961,124.013h -6.80315" fill="none" stroke="black"/>
<path d="M63.9961,117.846h -6.80315" fill="none" stroke="black"/>
<path d="M63.9961,111.679h -6.80315" fill="none" stroke="black"/>
<path d="M63.9961,105.512h -6.80315" fill="none" stroke="black"/>
<path d="M70.7992,99.3453h -13.6063" fill="none" stroke="black"/>
<path d="M63.9961,93.1784h -6.80315" fill="none" stroke="black"/>
<path d="M63.9961,87.0114h -6.80315" fill="none" stroke="black"/>
<path d="M63.9961,80.8445h -6.80315" fill="none" stroke="black"/>
<path d="M63.9961,74.6776h -6.80315" fill="none" stroke="black"/>
<path d="M70.7992,68.5107h -13.6063" fill="none" stroke="black"/>
<path d="M70.7992,68.5107h -13.6063" fill="none" stroke="black"/>
<path d="M63.9961,62.3438h -6.80315" fill="none" stroke="black"/>
<path d="M63.9961,56.1768h -6.80315" fill="none" stroke="black"/>
<path d="M63.9961,50.0099h -6.80315" fill="none" stroke="black"/>
<path d="M63.9961,43.843h -6.80315" fill="none" stroke="black"/>
<text xml:space="preserve" x="47.7441" y="350.258" fill="black" font-size="12.8453" font-family="Helvetica">0</text>
<text xml:space="preserve" x="41.2277" y="319.305" fill="black" font-size="12.8453" font-family="Helvetica">10</text>
<text xml:space="preserve" x="41.2277" y="289.166" fill="black" font-size="12.8453" font-family="Helvetica">20</text>
<text xml:space="preserve" x="41.2277" y="258.213" fill="black" font-size="12.8453" font-family="Helvetica">30</text>
<text xml:space="preserve" x="41.2277" y="227.26" fill="black" font-size="12.8453" font-family="Helvetica">40</text>
<text xml:space="preserve" x="41.2277" y="196.307" fill="black" font-size="12.8453" font-family="Helvetica">50</text>
<text xml:space="preserve" x="41.2277" y="165.354" fill="black" font-size="12.8453" font-family="Helvetica">60</text>
<text xml:space="preserve" x="41.2277" y="134.401" fill="black" font-size="12.8453" font-family="Helvetica">70</text>
<text xml:space="preserve" x="41.2277" y="103.448" fill="black" font-size="12.8453" font-family="Helvetica">80</text>
<text xml:space="preserve" x="41.2277" y="73.3098" fill="black" font-size="12.8453" font-family="Helvetica">90</text>
<g transform="rotate(-90,29.0094,70.0516)">
<text xml:space="preserve" x="29.0094" y="70.0516" fill="black" font-size="12.8453" font-family="Helvetica">Event</text>
</g>
<rect x="351.996" y="24.9905" width="204.094" height="123.03" fill="white"/>
<path d="M351.996,148.021h 204.094" fill="none" stroke="black"/>
<path d="M556.091,148.021v -123.03" fill="none" stroke="black"/>
<path d="M556.091,24.9905h -204.094" fill="none" stroke="black"/>
<path d="M351.996,24.9905v 123.03" fill="none" stroke="black"/>
<text xml:space="preserve" x="384.155" y="42.3568" fill="black" font-size="21.2684" font-family="Helvetica">Am_alpha_001</text>
<path d="M351.996,49.5965h 204.094" fill="none" stroke="black"/>
<text xml:space="preserve" x="362.162" y="68.4225" fill="black" font-size="18.6446" font-family="Helvetica">Entries </text>
<text xml:space="preserve" x="499.007" y="68.4225" fill="black" font-size="18.6446" font-family="Helvetica"> 4486</text>
<text xml:space="preserve" x="362.162" y="93.6736" fill="black" font-size="18.6446" font-family="Helvetica">Mean  </text>
<text xml:space="preserve" x="488.417" y="93.6736" fill="black" font-size="18.6446" font-family="Helvetica">  20.84</text>
<text xml:space="preserve" x="362.162" y="118.11" fill="black" font-size="18.6446" font-family="Helvetica">Std Dev   </text>
<text xml:space="preserve" x="488.417" y="118.11" fill="black" font-size="18.6446" font-family="Helvetica">  4.159</text>
<text xml:space="preserve" x="378.453" y="140.918" fill="black" font-size="18.6446" font-family="Helvetica"> / ndf </text>
<text xml:space="preserve" x="371.936" y="135.216" fill="black" font-size="12.5964" font-family="Helvetica">2</text>
<text xml:space="preserve" x="362.162" y="140.918" fill="black" font-size="18.6446" font-family="Times">&#0967;</text>
<text xml:space="preserve" x="446.875" y="142.547" fill="black" font-size="18.6446" font-family="Helvetica"> 228.7 / 120</text>
<path d="M131.238,343.221l 0.627606, -0.498308l 0.627606, -0.574847l 0.627606, -0.660824l 0.627606, -0.756994l 0.627606, -0.864104l 0.627606, -0.982875l 0.627606, -1.11399l 0.627606, -1.25808l 0.627606, -1.41569l 0.627606, -1.58727l 0.627606,
 -1.77316l 0.627606, -1.97355l 0.627606, -2.18847l 0.627606, -2.41774l 0.627606, -2.661l 0.627606, -2.91762l 0.627606, -3.18675l 0.627606, -3.46724l 0.627606, -3.75766l 0.627606, -4.05628l 0.627606, -4.36109l 0.627606, -4.66974l 0.627606, -4.9796l
 0.627606, -5.28775l 0.627606, -5.59101l 0.627606, -5.88595l 0.627606, -6.16892l 0.627606, -6.43612l 0.627606, -6.68361l 0.627606, -6.90739l 0.627606, -7.10345l 0.627606, -7.26784l 0.627606, -7.39671l 0.627606, -7.48643l 0.627606, -7.53362l 0.627606,
 -7.53524l 0.627606, -7.48864l 0.627606, -7.39165l 0.627606, -7.24265l 0.627606, -7.04056l 0.627606, -6.78498l 0.627606, -6.47613l 0.627606, -6.11493l 0.627606, -5.703l 0.627606, -5.24266l 0.627606, -4.73691l 0.627606, -4.18939l 0.627606, -3.60437l
 0.627606, -2.98667" fill="none" stroke="#ff0000" stroke-width="2"/>
<path d="M161.991,128.812l 0.627606, -2.34161l 0.627606, -1.67491l 0.627606, -0.992634l 0.627606, -0.301096l 0.627606, 0.393257l 0.627606, 1.08393l 0.627606, 1.7645l 0.627606, 2.42867l 0.627606, 3.07042l 0.627606, 3.68407l 0.627606, 4.26438l
 0.627606, 4.80658l 0.627606, 5.3065l 0.627606, 5.76056l 0.627606, 6.16587l 0.627606, 6.52019l 0.627606, 6.82201l 0.627606, 7.07049l 0.627606, 7.26548l 0.627606, 7.4075l 0.627606, 7.49768l 0.627606, 7.53775l 0.627606, 7.52992l 0.627606, 7.4769l
 0.627606, 7.38177l 0.627606, 7.24797l 0.627606, 7.07915l 0.627606, 6.87917l 0.627606, 6.65201l 0.627606, 6.40167l 0.627606, 6.13216l 0.627606, 5.84738l 0.627606, 5.55113l 0.627606, 5.24703l 0.627606, 4.93847l 0.627606, 4.62861l 0.627606, 4.32032l
 0.627606, 4.01621l 0.627606, 3.71857l 0.627606, 3.42937l 0.627606, 3.15032l 0.627606, 2.8828l 0.627606, 2.6279l 0.627606, 2.38647l 0.627606, 2.15909l 0.627606, 1.9461l 0.627606, 1.74764l 0.627606, 1.56366l 0.627606, 1.39396" fill="none"
 stroke="#ff0000" stroke-width="2"/>
<path d="M192.744,336.687l 0.627606, 1.23817" fill="none" stroke="#ff0000" stroke-width="2"/>
<text xml:space="preserve" x="222.873" y="17.9202" fill="black" font-size="18.7938" font-family="Helvetica">Am_alpha_001</text></svg>
