<?xml version="1.0" standalone="no"?>
<svg width="567.429" height="384.68" viewBox="0 0 567.429 384.68" xmlns="http://www.w3.org/2000/svg" shape-rendering="crispEdges">
<title>
img/week2/fitAm_alpha_001Hist.svg
</title>
<desc>
Creator: ROOT Version 6.22/09
CreationDate: Tue Jul 13 18:42:24 2021</desc>
<defs>
</defs>
<rect x="0.5" y="0" width="566.929" height="384.18" fill="white"/>
<rect x="57.1929" y="38.418" width="453.543" height="307.344" fill="white"/>
<rect x="57.1929" y="38.418" width="453.543" height="307.344" fill="none" stroke="black"/>
<rect x="57.1929" y="38.418" width="453.543" height="307.344" fill="white"/>
<rect x="57.1929" y="38.418" width="453.543" height="307.344" fill="none" stroke="black"/>
<path d="M57.1929,345.762h 48.521v -3.08114h 0.510747v 3.08114h 1.02149v -3.08114h 0.510747v 3.08114h 1.02149v -9.24342h 0.510747v 9.24342h 0.510747v -3.08114h 1.02149v -3.08114h 0.510747v 3.08114h 0.510747v 3.08114h 1.02149v -3.08114h 0.510747v
 3.08114h 1.02149v -3.08114h 1.02149v 3.08114h 0.510747v -3.08114h 0.510747v 3.08114h 0.510747v -6.16228h 1.02149v -3.08114h 1.02149v 6.16228h 0.510747v -15.4057h 0.510747v 9.24342h 0.510747v 6.16228h 1.02149v -3.08114h 0.510747v -9.24342h 0.510747v
 12.3246h 0.510747v -6.16228h 0.510747v 3.08114h 0.510747v -6.16228h 0.510747v 3.08114h 0.510747v 3.08114h 0.510747v -12.3246h 0.510747v 6.16228h 0.510747v 6.16228h 0.510747v 3.08114h 0.510747v -3.08114h 0.510747v -12.3246h 0.510747v 12.3246h
 0.510747v -6.16228h 0.510747v 6.16228h 2.04299v 3.08114h 0.510747v -15.4057h 0.510747v 9.24342h 0.510747v -6.16228h 1.02149v 3.08114h 0.510747v 3.08114h 0.510747v 3.08114h 0.510747v 3.08114h 0.510747v -21.568h 1.02149v 6.16228h 0.510747v 3.08114h
 0.510747v -6.16228h 0.510747v -18.4868h 0.510747v 12.3246h 0.510747v 3.08114h 0.510747v -6.16228h 0.510747v 9.24342h 0.510747v -9.24342h 0.510747v 15.4057h 0.510747v -21.568h 0.510747v -6.16228h 0.510747v 18.4868h 0.510747v -3.08114h 1.02149v
 -15.4057h 0.510747v -12.3246h 0.510747v 3.08114h 0.510747v 9.24342h 0.510747v -27.7303h 0.510747v 33.8926h 0.510747v -30.8114h 0.510747v -12.3246h 1.02149v -21.568h 0.510747v -15.4057h 0.510747v -3.08114h 0.510747v 30.8114h 0.510747v -21.568h
 0.510747v -18.4868h 0.510747v -61.6228h 0.510747v 58.5417h 0.510747v 18.4868h 0.510747v -67.7851h 1.02149v 3.08114h 0.510747v -49.2983h 0.510747v 3.08114h 0.510747v 9.24342h 0.510747v 33.8926h 0.510747v -6.16228h 0.510747v -77.0285h 0.510747v
 21.568h 0.510747v -18.4868h 0.510747v 58.5417h 0.510747v -61.6228h 0.510747v -27.7303h 0.510747v 18.4868h 0.510747v 15.4057h 0.510747v -12.3246h 0.510747v 15.4057h 0.510747v 18.4868h 0.510747v -6.16228h 0.510747v -18.4868h 0.510747v 64.704h
 0.510747v -36.9737h 0.510747v -6.16228h 0.510747v 12.3246h 0.510747v 43.136h 0.510747v -61.6228h 0.510747v 77.0285h 0.510747v 3.08114h 0.510747v -43.136h 0.510747v 30.8114h 0.510747v -6.16228h 0.510747v 40.0548h 0.510747v -6.16228h 0.510747v
 -12.3246h 0.510747v -12.3246h 0.510747v 43.136h 0.510747v -21.568h 0.510747v 30.8114h 0.510747v 12.3246h 0.510747v -33.8926h 0.510747v 12.3246h 0.510747v 30.8114h 0.510747v -9.24342h 0.510747v 12.3246h 0.510747v 9.24342h 0.510747v -3.08114h 1.02149v
 12.3246h 0.510747v -15.4057h 0.510747v 18.4868h 0.510747v -21.568h 0.510747v 43.136h 0.510747v -12.3246h 0.510747v 18.4868h 0.510747v -36.9737h 0.510747v 15.4057h 0.510747v 15.4057h 0.510747v -6.16228h 0.510747v -3.08114h 1.02149v 21.568h 0.510747v
 3.08114h 0.510747v -15.4057h 0.510747v 21.568h 0.510747v -9.24342h 0.510747v 6.16228h 0.510747v -3.08114h 0.510747v 18.4868h 0.510747v -43.136h 0.510747v 36.9737h 1.02149v -3.08114h 0.510747v -9.24342h 0.510747v 12.3246h 1.53224v 6.16228h 0.510747v
 15.4057h 0.510747v -18.4868h 0.510747v 9.24342h 1.02149v -6.16228h 0.510747v 9.24342h 0.510747v -3.08114h 0.510747v -6.16228h 0.510747v 3.08114h 0.510747v 3.08114h 0.510747v 3.08114h 0.510747v 3.08114h 0.510747v -6.16228h 0.510747v 12.3246h 1.02149v
 3.08114h 0.510747v -3.08114h 0.510747v -6.16228h 0.510747v 6.16228h 1.02149v -9.24342h 0.510747v 3.08114h 0.510747v 9.24342h 0.510747v -6.16228h 0.510747v -3.08114h 0.510747v 3.08114h 0.510747v -6.16228h 1.02149v 12.3246h 0.510747v -9.24342h
 0.510747v 6.16228h 1.02149v 3.08114h 0.510747v -3.08114h 1.02149v -3.08114h 0.510747v 3.08114h 2.04299v 3.08114h 0.510747v -3.08114h 1.02149v -6.16228h 0.510747v 9.24342h 1.53224v -6.16228h 0.510747v 3.08114h 1.53224v -3.08114h 0.510747v 6.16228h
 1.53224v -3.08114h 0.510747v 3.08114h 0.510747v -6.16228h 0.510747v 6.16228h 1.53224v -3.08114h 1.53224v 3.08114h 0.510747v -3.08114h 0.510747v 3.08114h 1.53224v -3.08114h 0.510747v 3.08114h 1.02149v -3.08114h 0.510747v -3.08114h 1.02149v 3.08114h
 0.510747v 3.08114h 3.06448v -3.08114h 0.510747v 3.08114h 1.02149v -3.08114h 1.02149v 3.08114h 1.02149v -3.08114h 0.510747v 3.08114h 2.55373v -3.08114h 0.510747v 3.08114h 0.510747v -3.08114h 0.510747v -9.24342h 0.510747v 12.3246h 0.510747v -3.08114h
 0.510747v 3.08114h 0.510747v -3.08114h 0.510747v 3.08114h 0.510747v -3.08114h 1.02149v 3.08114h 1.53224v -3.08114h 1.02149v 3.08114h 0.510747v -3.08114h 0.510747v 3.08114h 1.02149v -6.16228h 0.510747v 3.08114h 0.510747v 3.08114h 0.510747v -3.08114h
 1.02149v -3.08114h 0.510747v 3.08114h 1.02149v 3.08114h 0.510747v -6.16228h 0.510747v 6.16228h 0.510747v -3.08114h 0.510747v 3.08114h 3.06448v -3.08114h 1.02149v 3.08114h 1.02149v -3.08114h 1.53224v 3.08114h 1.53224v -3.08114h 0.510747v 3.08114h
 0.510747v -3.08114h 0.510747v 3.08114h 0.510747v -6.16228h 0.510747v 6.16228h 1.02149v -3.08114h 0.510747v -6.16228h 0.510747v 9.24342h 1.02149v -6.16228h 0.510747v 6.16228h 0.510747v -9.24342h 0.510747v 6.16228h 0.510747v 3.08114h 0.510747v
 -3.08114h 0.510747v 3.08114h 0.510747v -3.08114h 0.510747v 3.08114h 1.53224v -12.3246h 0.510747v 9.24342h 1.02149v 3.08114h 1.02149v -3.08114h 1.02149v 3.08114h 1.53224v -3.08114h 0.510747v 3.08114h 2.04299v -3.08114h 0.510747v 3.08114h 6.63971v
 -3.08114h 1.02149v 3.08114h 2.55373v -3.08114h 0.510747v 3.08114h 7.6612v -3.08114h 0.510747v 3.08114h 7.6612v -3.08114h 0.510747v 3.08114h 32.6878v -3.08114h 0.510747v 3.08114h 3.06448v -3.08114h 0.510747v 3.08114h 3.57523v -3.08114h 0.510747v
 3.08114h 56.1822v -3.08114h 0.510747v 3.08114h 0.510747v -3.08114h 0.510747v 3.08114h 9.70419v -3.08114h 0.510747v 3.08114h 53.1177v -3.08114h 0.510747v 3.08114h 34.22v -3.08114h 0.510747" fill="none" stroke="#000099"/>
<rect x="351.996" y="24.9717" width="204.094" height="122.938" fill="white"/>
<path d="M351.996,147.909h 204.094" fill="none" stroke="black"/>
<path d="M556.091,147.909v -122.938" fill="none" stroke="black"/>
<path d="M556.091,24.9717h -204.094" fill="none" stroke="black"/>
<path d="M351.996,24.9717v 122.938" fill="none" stroke="black"/>
<text xml:space="preserve" x="384.68" y="42.2354" fill="black" font-size="21.2528" font-family="Helvetica">Am_alpha_001</text>
<path d="M351.996,49.5592h 204.094" fill="none" stroke="black"/>
<text xml:space="preserve" x="361.938" y="69.0387" fill="black" font-size="18.6784" font-family="Helvetica">Entries </text>
<text xml:space="preserve" x="499.203" y="69.0387" fill="black" font-size="18.6784" font-family="Helvetica"> 4486</text>
<text xml:space="preserve" x="361.938" y="93.4052" fill="black" font-size="18.6784" font-family="Helvetica">Mean  </text>
<text xml:space="preserve" x="488.644" y="93.4052" fill="black" font-size="18.6784" font-family="Helvetica">  20.84</text>
<text xml:space="preserve" x="361.938" y="117.772" fill="black" font-size="18.6784" font-family="Helvetica">Std Dev   </text>
<text xml:space="preserve" x="488.644" y="117.772" fill="black" font-size="18.6784" font-family="Helvetica">  4.159</text>
<text xml:space="preserve" x="378.182" y="140.514" fill="black" font-size="18.6784" font-family="Helvetica"> / ndf </text>
<text xml:space="preserve" x="371.684" y="134.828" fill="black" font-size="12.6189" font-family="Helvetica">2</text>
<text xml:space="preserve" x="361.938" y="140.514" fill="black" font-size="18.6784" font-family="Times">&#0967;</text>
<text xml:space="preserve" x="447.221" y="142.138" fill="black" font-size="18.6784" font-family="Helvetica"> 228.7 / 120</text>
<path d="M57.1929,345.762h 453.543" fill="none" stroke="black"/>
<path d="M57.7037,336.541v 9.22031" fill="none" stroke="black"/>
<path d="M68.1638,341.152v 4.61016" fill="none" stroke="black"/>
<path d="M78.6239,341.152v 4.61016" fill="none" stroke="black"/>
<path d="M89.084,341.152v 4.61016" fill="none" stroke="black"/>
<path d="M99.5441,341.152v 4.61016" fill="none" stroke="black"/>
<path d="M110.004,336.541v 9.22031" fill="none" stroke="black"/>
<path d="M120.464,341.152v 4.61016" fill="none" stroke="black"/>
<path d="M130.924,341.152v 4.61016" fill="none" stroke="black"/>
<path d="M141.384,341.152v 4.61016" fill="none" stroke="black"/>
<path d="M151.845,341.152v 4.61016" fill="none" stroke="black"/>
<path d="M162.305,336.541v 9.22031" fill="none" stroke="black"/>
<path d="M172.765,341.152v 4.61016" fill="none" stroke="black"/>
<path d="M183.225,341.152v 4.61016" fill="none" stroke="black"/>
<path d="M193.685,341.152v 4.61016" fill="none" stroke="black"/>
<path d="M204.145,341.152v 4.61016" fill="none" stroke="black"/>
<path d="M214.605,336.541v 9.22031" fill="none" stroke="black"/>
<path d="M225.065,341.152v 4.61016" fill="none" stroke="black"/>
<path d="M235.525,341.152v 4.61016" fill="none" stroke="black"/>
<path d="M245.985,341.152v 4.61016" fill="none" stroke="black"/>
<path d="M256.446,341.152v 4.61016" fill="none" stroke="black"/>
<path d="M266.906,336.541v 9.22031" fill="none" stroke="black"/>
<path d="M277.366,341.152v 4.61016" fill="none" stroke="black"/>
<path d="M287.826,341.152v 4.61016" fill="none" stroke="black"/>
<path d="M298.286,341.152v 4.61016" fill="none" stroke="black"/>
<path d="M308.746,341.152v 4.61016" fill="none" stroke="black"/>
<path d="M319.206,336.541v 9.22031" fill="none" stroke="black"/>
<path d="M329.666,341.152v 4.61016" fill="none" stroke="black"/>
<path d="M340.126,341.152v 4.61016" fill="none" stroke="black"/>
<path d="M350.586,341.152v 4.61016" fill="none" stroke="black"/>
<path d="M361.047,341.152v 4.61016" fill="none" stroke="black"/>
<path d="M371.507,336.541v 9.22031" fill="none" stroke="black"/>
<path d="M381.967,341.152v 4.61016" fill="none" stroke="black"/>
<path d="M392.427,341.152v 4.61016" fill="none" stroke="black"/>
<path d="M402.887,341.152v 4.61016" fill="none" stroke="black"/>
<path d="M413.347,341.152v 4.61016" fill="none" stroke="black"/>
<path d="M423.807,336.541v 9.22031" fill="none" stroke="black"/>
<path d="M434.267,341.152v 4.61016" fill="none" stroke="black"/>
<path d="M444.727,341.152v 4.61016" fill="none" stroke="black"/>
<path d="M455.187,341.152v 4.61016" fill="none" stroke="black"/>
<path d="M465.647,341.152v 4.61016" fill="none" stroke="black"/>
<path d="M476.108,336.541v 9.22031" fill="none" stroke="black"/>
<path d="M57.7037,336.541v 9.22031" fill="none" stroke="black"/>
<path d="M476.108,336.541v 9.22031" fill="none" stroke="black"/>
<path d="M486.568,341.152v 4.61016" fill="none" stroke="black"/>
<path d="M497.028,341.152v 4.61016" fill="none" stroke="black"/>
<path d="M507.488,341.152v 4.61016" fill="none" stroke="black"/>
<text xml:space="preserve" x="54.1065" y="358.189" fill="black" font-size="12.836" font-family="Helvetica">0</text>
<text xml:space="preserve" x="102.84" y="358.189" fill="black" font-size="12.836" font-family="Helvetica">10</text>
<text xml:space="preserve" x="155.634" y="358.189" fill="black" font-size="12.836" font-family="Helvetica">20</text>
<text xml:space="preserve" x="207.616" y="358.189" fill="black" font-size="12.836" font-family="Helvetica">30</text>
<text xml:space="preserve" x="259.598" y="358.189" fill="black" font-size="12.836" font-family="Helvetica">40</text>
<text xml:space="preserve" x="312.392" y="358.189" fill="black" font-size="12.836" font-family="Helvetica">50</text>
<text xml:space="preserve" x="364.374" y="358.189" fill="black" font-size="12.836" font-family="Helvetica">60</text>
<text xml:space="preserve" x="417.169" y="358.189" fill="black" font-size="12.836" font-family="Helvetica">70</text>
<text xml:space="preserve" x="469.151" y="358.189" fill="black" font-size="12.836" font-family="Helvetica">80</text>
<text xml:space="preserve" x="452.094" y="371.996" fill="black" font-size="12.836" font-family="Helvetica">ADC value</text>
<path d="M57.1929,345.762v -307.344" fill="none" stroke="black"/>
<path d="M70.7992,345.762h -13.6063" fill="none" stroke="black"/>
<path d="M63.9961,339.6h -6.80315" fill="none" stroke="black"/>
<path d="M63.9961,333.437h -6.80315" fill="none" stroke="black"/>
<path d="M63.9961,327.275h -6.80315" fill="none" stroke="black"/>
<path d="M63.9961,321.113h -6.80315" fill="none" stroke="black"/>
<path d="M70.7992,314.95h -13.6063" fill="none" stroke="black"/>
<path d="M63.9961,308.788h -6.80315" fill="none" stroke="black"/>
<path d="M63.9961,302.626h -6.80315" fill="none" stroke="black"/>
<path d="M63.9961,296.464h -6.80315" fill="none" stroke="black"/>
<path d="M63.9961,290.301h -6.80315" fill="none" stroke="black"/>
<path d="M70.7992,284.139h -13.6063" fill="none" stroke="black"/>
<path d="M63.9961,277.977h -6.80315" fill="none" stroke="black"/>
<path d="M63.9961,271.814h -6.80315" fill="none" stroke="black"/>
<path d="M63.9961,265.652h -6.80315" fill="none" stroke="black"/>
<path d="M63.9961,259.49h -6.80315" fill="none" stroke="black"/>
<path d="M70.7992,253.328h -13.6063" fill="none" stroke="black"/>
<path d="M63.9961,247.165h -6.80315" fill="none" stroke="black"/>
<path d="M63.9961,241.003h -6.80315" fill="none" stroke="black"/>
<path d="M63.9961,234.841h -6.80315" fill="none" stroke="black"/>
<path d="M63.9961,228.678h -6.80315" fill="none" stroke="black"/>
<path d="M70.7992,222.516h -13.6063" fill="none" stroke="black"/>
<path d="M63.9961,216.354h -6.80315" fill="none" stroke="black"/>
<path d="M63.9961,210.192h -6.80315" fill="none" stroke="black"/>
<path d="M63.9961,204.029h -6.80315" fill="none" stroke="black"/>
<path d="M63.9961,197.867h -6.80315" fill="none" stroke="black"/>
<path d="M70.7992,191.705h -13.6063" fill="none" stroke="black"/>
<path d="M63.9961,185.542h -6.80315" fill="none" stroke="black"/>
<path d="M63.9961,179.38h -6.80315" fill="none" stroke="black"/>
<path d="M63.9961,173.218h -6.80315" fill="none" stroke="black"/>
<path d="M63.9961,167.056h -6.80315" fill="none" stroke="black"/>
<path d="M70.7992,160.893h -13.6063" fill="none" stroke="black"/>
<path d="M63.9961,154.731h -6.80315" fill="none" stroke="black"/>
<path d="M63.9961,148.569h -6.80315" fill="none" stroke="black"/>
<path d="M63.9961,142.406h -6.80315" fill="none" stroke="black"/>
<path d="M63.9961,136.244h -6.80315" fill="none" stroke="black"/>
<path d="M70.7992,130.082h -13.6063" fill="none" stroke="black"/>
<path d="M63.9961,123.92h -6.80315" fill="none" stroke="black"/>
<path d="M63.9961,117.757h -6.80315" fill="none" stroke="black"/>
<path d="M63.9961,111.595h -6.80315" fill="none" stroke="black"/>
<path d="M63.9961,105.433h -6.80315" fill="none" stroke="black"/>
<path d="M70.7992,99.2705h -13.6063" fill="none" stroke="black"/>
<path d="M63.9961,93.1082h -6.80315" fill="none" stroke="black"/>
<path d="M63.9961,86.946h -6.80315" fill="none" stroke="black"/>
<path d="M63.9961,80.7837h -6.80315" fill="none" stroke="black"/>
<path d="M63.9961,74.6214h -6.80315" fill="none" stroke="black"/>
<path d="M70.7992,68.4591h -13.6063" fill="none" stroke="black"/>
<path d="M70.7992,68.4591h -13.6063" fill="none" stroke="black"/>
<path d="M63.9961,62.2968h -6.80315" fill="none" stroke="black"/>
<path d="M63.9961,56.1345h -6.80315" fill="none" stroke="black"/>
<path d="M63.9961,49.9723h -6.80315" fill="none" stroke="black"/>
<path d="M63.9961,43.81h -6.80315" fill="none" stroke="black"/>
<text xml:space="preserve" x="47.6087" y="350.067" fill="black" font-size="12.836" font-family="Helvetica">0</text>
<text xml:space="preserve" x="41.111" y="319.202" fill="black" font-size="12.836" font-family="Helvetica">10</text>
<text xml:space="preserve" x="41.111" y="288.338" fill="black" font-size="12.836" font-family="Helvetica">20</text>
<text xml:space="preserve" x="41.111" y="257.474" fill="black" font-size="12.836" font-family="Helvetica">30</text>
<text xml:space="preserve" x="41.111" y="226.609" fill="black" font-size="12.836" font-family="Helvetica">40</text>
<text xml:space="preserve" x="41.111" y="196.557" fill="black" font-size="12.836" font-family="Helvetica">50</text>
<text xml:space="preserve" x="41.111" y="165.693" fill="black" font-size="12.836" font-family="Helvetica">60</text>
<text xml:space="preserve" x="41.111" y="134.828" fill="black" font-size="12.836" font-family="Helvetica">70</text>
<text xml:space="preserve" x="41.111" y="103.964" fill="black" font-size="12.836" font-family="Helvetica">80</text>
<text xml:space="preserve" x="41.111" y="73.0997" fill="black" font-size="12.836" font-family="Helvetica">90</text>
<g transform="rotate(-90,28.9277,69.8509)">
<text xml:space="preserve" x="28.9277" y="69.8509" fill="black" font-size="12.836" font-family="Helvetica">Event</text>
</g>
<rect x="351.996" y="24.9717" width="204.094" height="122.938" fill="white"/>
<path d="M351.996,147.909h 204.094" fill="none" stroke="black"/>
<path d="M556.091,147.909v -122.938" fill="none" stroke="black"/>
<path d="M556.091,24.9717h -204.094" fill="none" stroke="black"/>
<path d="M351.996,24.9717v 122.938" fill="none" stroke="black"/>
<text xml:space="preserve" x="384.68" y="42.2354" fill="black" font-size="21.2528" font-family="Helvetica">Am_alpha_001</text>
<path d="M351.996,49.5592h 204.094" fill="none" stroke="black"/>
<text xml:space="preserve" x="361.938" y="69.0387" fill="black" font-size="18.6784" font-family="Helvetica">Entries </text>
<text xml:space="preserve" x="499.203" y="69.0387" fill="black" font-size="18.6784" font-family="Helvetica"> 4486</text>
<text xml:space="preserve" x="361.938" y="93.4052" fill="black" font-size="18.6784" font-family="Helvetica">Mean  </text>
<text xml:space="preserve" x="488.644" y="93.4052" fill="black" font-size="18.6784" font-family="Helvetica">  20.84</text>
<text xml:space="preserve" x="361.938" y="117.772" fill="black" font-size="18.6784" font-family="Helvetica">Std Dev   </text>
<text xml:space="preserve" x="488.644" y="117.772" fill="black" font-size="18.6784" font-family="Helvetica">  4.159</text>
<text xml:space="preserve" x="378.182" y="140.514" fill="black" font-size="18.6784" font-family="Helvetica"> / ndf </text>
<text xml:space="preserve" x="371.684" y="134.828" fill="black" font-size="12.6189" font-family="Helvetica">2</text>
<text xml:space="preserve" x="361.938" y="140.514" fill="black" font-size="18.6784" font-family="Times">&#0967;</text>
<text xml:space="preserve" x="447.221" y="142.138" fill="black" font-size="18.6784" font-family="Helvetica"> 228.7 / 120</text>
<path d="M131.238,342.963l 0.627606, -0.497933l 0.627606, -0.574414l 0.627606, -0.660326l 0.627606, -0.756425l 0.627606, -0.863454l 0.627606, -0.982135l 0.627606, -1.11315l 0.627606, -1.25713l 0.627606, -1.41462l 0.627606, -1.58608l 0.627606,
 -1.77183l 0.627606, -1.97207l 0.627606, -2.18682l 0.627606, -2.41592l 0.627606, -2.659l 0.627606, -2.91543l 0.627606, -3.18435l 0.627606, -3.46463l 0.627606, -3.75483l 0.627606, -4.05323l 0.627606, -4.3578l 0.627606, -4.66622l 0.627606, -4.97585l
 0.627606, -5.28377l 0.627606, -5.5868l 0.627606, -5.88152l 0.627606, -6.16428l 0.627606, -6.43127l 0.627606, -6.67858l 0.627606, -6.90219l 0.627606, -7.09811l 0.627606, -7.26237l 0.627606, -7.39115l 0.627606, -7.4808l 0.627606, -7.52795l 0.627606,
 -7.52956l 0.627606, -7.483l 0.627606, -7.38609l 0.627606, -7.23719l 0.627606, -7.03527l 0.627606, -6.77987l 0.627606, -6.47125l 0.627606, -6.11032l 0.627606, -5.69871l 0.627606, -5.23872l 0.627606, -4.73334l 0.627606, -4.18624l 0.627606, -3.60166l
 0.627606, -2.98443" fill="none" stroke="#ff0000" stroke-width="2"/>
<path d="M161.991,128.715l 0.627606, -2.33984l 0.627606, -1.67365l 0.627606, -0.991887l 0.627606, -0.30087l 0.627606, 0.392961l 0.627606, 1.08312l 0.627606, 1.76317l 0.627606, 2.42684l 0.627606, 3.06811l 0.627606, 3.6813l 0.627606, 4.26117l 0.627606,
 4.80296l 0.627606, 5.3025l 0.627606, 5.75623l 0.627606, 6.16123l 0.627606, 6.51529l 0.627606, 6.81687l 0.627606, 7.06516l 0.627606, 7.26001l 0.627606, 7.40192l 0.627606, 7.49204l 0.627606, 7.53207l 0.627606, 7.52425l 0.627606, 7.47127l 0.627606,
 7.37622l 0.627606, 7.24251l 0.627606, 7.07382l 0.627606, 6.874l 0.627606, 6.647l 0.627606, 6.39686l 0.627606, 6.12754l 0.627606, 5.84298l 0.627606, 5.54696l 0.627606, 5.24308l 0.627606, 4.93475l 0.627606, 4.62512l 0.627606, 4.31707l 0.627606,
 4.01319l 0.627606, 3.71577l 0.627606, 3.42679l 0.627606, 3.14795l 0.627606, 2.88063l 0.627606, 2.62592l 0.627606, 2.38468l 0.627606, 2.15746l 0.627606, 1.94463l 0.627606, 1.74632l 0.627606, 1.56248l 0.627606, 1.39291" fill="none" stroke="#ff0000"
 stroke-width="2"/>
<path d="M192.744,336.434l 0.627606, 1.23724" fill="none" stroke="#ff0000" stroke-width="2"/>
<text xml:space="preserve" x="223.048" y="17.8688" fill="black" font-size="18.7414" font-family="Helvetica">Am_alpha_001</text></svg>
