<?xml version="1.0" standalone="no"?>
<svg width="567.429" height="384.68" viewBox="0 0 567.429 384.68" xmlns="http://www.w3.org/2000/svg" shape-rendering="crispEdges">
<title>
img/week2/fitAm_alpha_002Hist.svg
</title>
<desc>
Creator: ROOT Version 6.22/09
CreationDate: Sun Jul 11 19:34:38 2021</desc>
<defs>
</defs>
<rect x="0.5" y="0" width="566.929" height="384.18" fill="white"/>
<rect x="57.1929" y="38.418" width="453.543" height="307.344" fill="white"/>
<rect x="57.1929" y="38.418" width="453.543" height="307.344" fill="none" stroke="black"/>
<rect x="57.1929" y="38.418" width="453.543" height="307.344" fill="white"/>
<rect x="57.1929" y="38.418" width="453.543" height="307.344" fill="none" stroke="black"/>
<path d="M57.1929,345.762h 74.0063v -10.0934h 0.678957v 10.0934h 19.0108v -10.0934h 0.678957v 10.0934h 3.39479v -10.0934h 0.678957v 10.0934h 2.71583v -10.0934h 0.678957v 10.0934h 2.03687v -10.0934h 0.678957v 10.0934h 0.678957v -10.0934h 1.35791v
 -10.0934h 0.678957v 20.1868h 0.678957v -20.1868h 1.35791v 20.1868h 0.678957v -20.1868h 0.678957v 20.1868h 0.678957v -50.467h 0.678957v 20.1868h 0.678957v 10.0934h 0.678957v 10.0934h 1.35791v -30.2802h 0.678957v 10.0934h 0.678957v 10.0934h 0.678957v
 -40.3736h 0.678957v 20.1868h 0.678957v 10.0934h 0.678957v -10.0934h 0.678957v -40.3736h 0.678957v 40.3736h 0.678957v -50.467h 0.678957v -30.2802h 0.678957v 30.2802h 0.678957v -10.0934h 0.678957v 30.2802h 0.678957v -80.7471h 0.678957v 40.3736h
 0.678957v -60.5604h 0.678957v -60.5604h 0.678957v 100.934h 0.678957v -100.934h 0.678957v 70.6538h 0.678957v -10.0934h 0.678957v 10.0934h 1.35791v -50.467h 1.35791v 50.467h 0.678957v -90.8405h 0.678957v 40.3736h 0.678957v 50.467h 0.678957v -131.214h
 0.678957v 40.3736h 1.35791v 70.6538h 0.678957v -30.2802h 0.678957v 50.467h 0.678957v -20.1868h 0.678957v -20.1868h 0.678957v -70.6538h 0.678957v 30.2802h 0.678957v -20.1868h 0.678957v 30.2802h 0.678957v 20.1868h 0.678957v 20.1868h 0.678957v
 -20.1868h 0.678957v -40.3736h 0.678957v 70.6538h 0.678957v 70.6538h 0.678957v -80.7471h 0.678957v 70.6538h 0.678957v -50.467h 0.678957v 30.2802h 0.678957v 40.3736h 0.678957v 10.0934h 1.35791v 30.2802h 0.678957v -30.2802h 0.678957v -40.3736h
 0.678957v 50.467h 0.678957v -30.2802h 0.678957v 50.467h 1.35791v -30.2802h 0.678957v 10.0934h 0.678957v -30.2802h 0.678957v 10.0934h 0.678957v 30.2802h 0.678957v 20.1868h 0.678957v 10.0934h 0.678957v 20.1868h 0.678957v -10.0934h 2.03687v 10.0934h
 0.678957v 10.0934h 1.35791v -30.2802h 0.678957v 40.3736h 1.35791v -30.2802h 0.678957v 20.1868h 0.678957v -20.1868h 0.678957v 20.1868h 0.678957v -20.1868h 0.678957v 20.1868h 1.35791v -10.0934h 0.678957v 10.0934h 1.35791v 10.0934h 0.678957v -20.1868h
 0.678957v 10.0934h 0.678957v -20.1868h 0.678957v 20.1868h 1.35791v -10.0934h 0.678957v 20.1868h 0.678957v -10.0934h 0.678957v 10.0934h 0.678957v -20.1868h 0.678957v 20.1868h 0.678957v -10.0934h 1.35791v -10.0934h 1.35791v 20.1868h 2.03687v -10.0934h
 0.678957v 10.0934h 0.678957v -10.0934h 0.678957v 10.0934h 2.03687v -10.0934h 1.35791v 10.0934h 2.71583v -10.0934h 0.678957v 10.0934h 2.71583v -10.0934h 0.678957v 10.0934h 3.39479v -10.0934h 0.678957v 10.0934h 18.3318v -10.0934h 0.678957v 10.0934h
 8.14748v -10.0934h 0.678957v 10.0934h 2.03687v -10.0934h 0.678957v 10.0934h 11.5423v -10.0934h 0.678957v 10.0934h 4.07374v -10.0934h 0.678957v 10.0934h 11.5423v -10.0934h 1.35791v 10.0934h 1.35791v -10.0934h 0.678957v 10.0934h 2.03687v -10.0934h
 0.678957v 10.0934h 1.35791v -10.0934h 0.678957v 10.0934h 8.82644v -10.0934h 0.678957v 10.0934h 15.616v -10.0934h 0.678957v 10.0934h 65.1799v -10.0934h 0.678957v 10.0934h 32.5899v -10.0934h 0.678957v 10.0934h 56.3534v -10.0934h 0.678957" fill="none"
 stroke="#000099"/>
<rect x="351.996" y="24.9717" width="204.094" height="122.938" fill="white"/>
<path d="M351.996,147.909h 204.094" fill="none" stroke="black"/>
<path d="M556.091,147.909v -122.938" fill="none" stroke="black"/>
<path d="M556.091,24.9717h -204.094" fill="none" stroke="black"/>
<path d="M351.996,24.9717v 122.938" fill="none" stroke="black"/>
<text xml:space="preserve" x="383.055" y="42.2354" fill="black" font-size="21.2528" font-family="Helvetica">Am_alpha_002</text>
<path d="M351.996,49.5592h 204.094" fill="none" stroke="black"/>
<text xml:space="preserve" x="361.938" y="69.0387" fill="black" font-size="18.614" font-family="Helvetica">Entries </text>
<text xml:space="preserve" x="499.203" y="69.0387" fill="black" font-size="18.614" font-family="Helvetica"> 1066</text>
<text xml:space="preserve" x="361.938" y="93.4052" fill="black" font-size="18.614" font-family="Helvetica">Mean  </text>
<text xml:space="preserve" x="491.893" y="93.4052" fill="black" font-size="18.614" font-family="Helvetica">  20.31</text>
<text xml:space="preserve" x="361.938" y="117.772" fill="black" font-size="18.614" font-family="Helvetica">Std Dev   </text>
<text xml:space="preserve" x="488.644" y="117.772" fill="black" font-size="18.614" font-family="Helvetica">  3.422</text>
<text xml:space="preserve" x="378.182" y="140.514" fill="black" font-size="18.614" font-family="Helvetica"> / ndf </text>
<text xml:space="preserve" x="371.684" y="134.828" fill="black" font-size="12.576" font-family="Helvetica">2</text>
<text xml:space="preserve" x="361.938" y="140.514" fill="black" font-size="18.614" font-family="Times">&#0967;</text>
<text xml:space="preserve" x="447.221" y="142.138" fill="black" font-size="18.614" font-family="Helvetica"> 94.27 / 105</text>
<path d="M57.1929,345.762h 453.543" fill="none" stroke="black"/>
<path d="M57.8719,336.541v 9.22031" fill="none" stroke="black"/>
<path d="M71.7769,341.152v 4.61016" fill="none" stroke="black"/>
<path d="M85.682,341.152v 4.61016" fill="none" stroke="black"/>
<path d="M99.587,341.152v 4.61016" fill="none" stroke="black"/>
<path d="M113.492,341.152v 4.61016" fill="none" stroke="black"/>
<path d="M127.397,336.541v 9.22031" fill="none" stroke="black"/>
<path d="M141.302,341.152v 4.61016" fill="none" stroke="black"/>
<path d="M155.207,341.152v 4.61016" fill="none" stroke="black"/>
<path d="M169.112,341.152v 4.61016" fill="none" stroke="black"/>
<path d="M183.017,341.152v 4.61016" fill="none" stroke="black"/>
<path d="M196.922,336.541v 9.22031" fill="none" stroke="black"/>
<path d="M210.827,341.152v 4.61016" fill="none" stroke="black"/>
<path d="M224.732,341.152v 4.61016" fill="none" stroke="black"/>
<path d="M238.637,341.152v 4.61016" fill="none" stroke="black"/>
<path d="M252.542,341.152v 4.61016" fill="none" stroke="black"/>
<path d="M266.447,336.541v 9.22031" fill="none" stroke="black"/>
<path d="M280.353,341.152v 4.61016" fill="none" stroke="black"/>
<path d="M294.258,341.152v 4.61016" fill="none" stroke="black"/>
<path d="M308.163,341.152v 4.61016" fill="none" stroke="black"/>
<path d="M322.068,341.152v 4.61016" fill="none" stroke="black"/>
<path d="M335.973,336.541v 9.22031" fill="none" stroke="black"/>
<path d="M349.878,341.152v 4.61016" fill="none" stroke="black"/>
<path d="M363.783,341.152v 4.61016" fill="none" stroke="black"/>
<path d="M377.688,341.152v 4.61016" fill="none" stroke="black"/>
<path d="M391.593,341.152v 4.61016" fill="none" stroke="black"/>
<path d="M405.498,336.541v 9.22031" fill="none" stroke="black"/>
<path d="M419.403,341.152v 4.61016" fill="none" stroke="black"/>
<path d="M433.308,341.152v 4.61016" fill="none" stroke="black"/>
<path d="M447.213,341.152v 4.61016" fill="none" stroke="black"/>
<path d="M461.118,341.152v 4.61016" fill="none" stroke="black"/>
<path d="M475.023,336.541v 9.22031" fill="none" stroke="black"/>
<path d="M57.8719,336.541v 9.22031" fill="none" stroke="black"/>
<path d="M475.023,336.541v 9.22031" fill="none" stroke="black"/>
<path d="M488.928,341.152v 4.61016" fill="none" stroke="black"/>
<path d="M502.833,341.152v 4.61016" fill="none" stroke="black"/>
<text xml:space="preserve" x="54.1065" y="358.189" fill="black" font-size="12.836" font-family="Helvetica">0</text>
<text xml:space="preserve" x="120.708" y="358.189" fill="black" font-size="12.836" font-family="Helvetica">10</text>
<text xml:space="preserve" x="189.747" y="358.189" fill="black" font-size="12.836" font-family="Helvetica">20</text>
<text xml:space="preserve" x="259.598" y="358.189" fill="black" font-size="12.836" font-family="Helvetica">30</text>
<text xml:space="preserve" x="329.449" y="358.189" fill="black" font-size="12.836" font-family="Helvetica">40</text>
<text xml:space="preserve" x="398.487" y="358.189" fill="black" font-size="12.836" font-family="Helvetica">50</text>
<text xml:space="preserve" x="468.338" y="358.189" fill="black" font-size="12.836" font-family="Helvetica">60</text>
<text xml:space="preserve" x="452.094" y="371.996" fill="black" font-size="12.836" font-family="Helvetica">ADC value</text>
<path d="M57.1929,345.762v -307.344" fill="none" stroke="black"/>
<path d="M70.7992,345.762h -13.6063" fill="none" stroke="black"/>
<path d="M63.9961,335.668h -6.80315" fill="none" stroke="black"/>
<path d="M63.9961,325.575h -6.80315" fill="none" stroke="black"/>
<path d="M63.9961,315.482h -6.80315" fill="none" stroke="black"/>
<path d="M63.9961,305.388h -6.80315" fill="none" stroke="black"/>
<path d="M70.7992,295.295h -13.6063" fill="none" stroke="black"/>
<path d="M63.9961,285.201h -6.80315" fill="none" stroke="black"/>
<path d="M63.9961,275.108h -6.80315" fill="none" stroke="black"/>
<path d="M63.9961,265.015h -6.80315" fill="none" stroke="black"/>
<path d="M63.9961,254.921h -6.80315" fill="none" stroke="black"/>
<path d="M70.7992,244.828h -13.6063" fill="none" stroke="black"/>
<path d="M63.9961,234.734h -6.80315" fill="none" stroke="black"/>
<path d="M63.9961,224.641h -6.80315" fill="none" stroke="black"/>
<path d="M63.9961,214.548h -6.80315" fill="none" stroke="black"/>
<path d="M63.9961,204.454h -6.80315" fill="none" stroke="black"/>
<path d="M70.7992,194.361h -13.6063" fill="none" stroke="black"/>
<path d="M63.9961,184.268h -6.80315" fill="none" stroke="black"/>
<path d="M63.9961,174.174h -6.80315" fill="none" stroke="black"/>
<path d="M63.9961,164.081h -6.80315" fill="none" stroke="black"/>
<path d="M63.9961,153.987h -6.80315" fill="none" stroke="black"/>
<path d="M70.7992,143.894h -13.6063" fill="none" stroke="black"/>
<path d="M63.9961,133.801h -6.80315" fill="none" stroke="black"/>
<path d="M63.9961,123.707h -6.80315" fill="none" stroke="black"/>
<path d="M63.9961,113.614h -6.80315" fill="none" stroke="black"/>
<path d="M63.9961,103.52h -6.80315" fill="none" stroke="black"/>
<path d="M70.7992,93.427h -13.6063" fill="none" stroke="black"/>
<path d="M63.9961,83.3336h -6.80315" fill="none" stroke="black"/>
<path d="M63.9961,73.2402h -6.80315" fill="none" stroke="black"/>
<path d="M63.9961,63.1468h -6.80315" fill="none" stroke="black"/>
<path d="M63.9961,53.0534h -6.80315" fill="none" stroke="black"/>
<path d="M70.7992,42.96h -13.6063" fill="none" stroke="black"/>
<path d="M70.7992,42.96h -13.6063" fill="none" stroke="black"/>
<text xml:space="preserve" x="47.6087" y="350.067" fill="black" font-size="12.836" font-family="Helvetica">0</text>
<text xml:space="preserve" x="47.6087" y="299.709" fill="black" font-size="12.836" font-family="Helvetica">5</text>
<text xml:space="preserve" x="41.111" y="249.351" fill="black" font-size="12.836" font-family="Helvetica">10</text>
<text xml:space="preserve" x="40.2988" y="198.994" fill="black" font-size="12.836" font-family="Helvetica">15</text>
<text xml:space="preserve" x="41.111" y="148.636" fill="black" font-size="12.836" font-family="Helvetica">20</text>
<text xml:space="preserve" x="40.2988" y="98.2785" fill="black" font-size="12.836" font-family="Helvetica">25</text>
<text xml:space="preserve" x="41.111" y="47.1087" fill="black" font-size="12.836" font-family="Helvetica">30</text>
<g transform="rotate(-90,28.1155,69.8509)">
<text xml:space="preserve" x="28.1155" y="69.8509" fill="black" font-size="12.836" font-family="Helvetica">Event</text>
</g>
<rect x="351.996" y="24.9717" width="204.094" height="122.938" fill="white"/>
<path d="M351.996,147.909h 204.094" fill="none" stroke="black"/>
<path d="M556.091,147.909v -122.938" fill="none" stroke="black"/>
<path d="M556.091,24.9717h -204.094" fill="none" stroke="black"/>
<path d="M351.996,24.9717v 122.938" fill="none" stroke="black"/>
<text xml:space="preserve" x="383.055" y="42.2354" fill="black" font-size="21.2528" font-family="Helvetica">Am_alpha_002</text>
<path d="M351.996,49.5592h 204.094" fill="none" stroke="black"/>
<text xml:space="preserve" x="361.938" y="69.0387" fill="black" font-size="18.614" font-family="Helvetica">Entries </text>
<text xml:space="preserve" x="499.203" y="69.0387" fill="black" font-size="18.614" font-family="Helvetica"> 1066</text>
<text xml:space="preserve" x="361.938" y="93.4052" fill="black" font-size="18.614" font-family="Helvetica">Mean  </text>
<text xml:space="preserve" x="491.893" y="93.4052" fill="black" font-size="18.614" font-family="Helvetica">  20.31</text>
<text xml:space="preserve" x="361.938" y="117.772" fill="black" font-size="18.614" font-family="Helvetica">Std Dev   </text>
<text xml:space="preserve" x="488.644" y="117.772" fill="black" font-size="18.614" font-family="Helvetica">  3.422</text>
<text xml:space="preserve" x="378.182" y="140.514" fill="black" font-size="18.614" font-family="Helvetica"> / ndf </text>
<text xml:space="preserve" x="371.684" y="134.828" fill="black" font-size="12.576" font-family="Helvetica">2</text>
<text xml:space="preserve" x="361.938" y="140.514" fill="black" font-size="18.614" font-family="Times">&#0967;</text>
<text xml:space="preserve" x="447.221" y="142.138" fill="black" font-size="18.614" font-family="Helvetica"> 94.27 / 105</text>
<path d="M155.624,344.995l 0.834302, -0.19939l 0.834302, -0.245388l 0.834302, -0.300401l 0.834302, -0.3658l 0.834302, -0.443065l 0.834302, -0.533783l 0.834302, -0.639624l 0.834302, -0.762316l 0.834302, -0.903615l 0.834302, -1.06526l 0.834302,
 -1.24894l 0.834302, -1.4562l 0.834302, -1.68841l 0.834302, -1.94669l 0.834302, -2.2318l 0.834302, -2.5441l 0.834302, -2.88341l 0.834302, -3.249l 0.834302, -3.63942l 0.834302, -4.05253l 0.834302, -4.48533l 0.834302, -4.93401l 0.834302, -5.39385l
 0.834302, -5.85927l 0.834302, -6.32384l 0.834302, -6.78031l 0.834302, -7.22072l 0.834302, -7.63651l 0.834302, -8.01869l 0.834302, -8.35796l 0.834302, -8.645l 0.834302, -8.87063l 0.834302, -9.0261l 0.834302, -9.10331l 0.834302, -9.09511l 0.834302,
 -8.99551l 0.834302, -8.79994l 0.834302, -8.50545l 0.834302, -8.11086l 0.834302, -7.61693l 0.834302, -7.02641l 0.834302, -6.34408l 0.834302, -5.57669l 0.834302, -4.73291l 0.834302, -3.82312l 0.834302, -2.85924l 0.834302, -1.85448l 0.834302,
 -0.822999l 0.834302, 0.220384" fill="none" stroke="#ff0000" stroke-width="2"/>
<path d="M196.505,129.997l 0.834302, 1.26058l 0.834302, 2.28256l 0.834302, 3.27175l 0.834302, 4.21434l 0.834302, 5.09765l 0.834302, 5.91037l 0.834302, 6.64282l 0.834302, 7.28712l 0.834302, 7.83734l 0.834302, 8.28957l 0.834302, 8.6419l 0.834302,
 8.8944l 0.834302, 9.04902l 0.834302, 9.1094l 0.834302, 9.08076l 0.834302, 8.96959l 0.834302, 8.78349l 0.834302, 8.53084l 0.834302, 8.22063l 0.834302, 7.86211l 0.834302, 7.46463l 0.834302, 7.03737l 0.834302, 6.58917l 0.834302, 6.12836l 0.834302,
 5.66259l 0.834302, 5.19878l 0.834302, 4.74302l 0.834302, 4.30052l 0.834302, 3.87562l 0.834302, 3.47176l 0.834302, 3.0916l 0.834302, 2.73697l 0.834302, 2.409l 0.834302, 2.10819l 0.834302, 1.83447l 0.834302, 1.5873l 0.834302, 1.36577l 0.834302,
 1.16864l 0.834302, 0.99446l 0.834302, 0.841608l 0.834302, 0.708375l 0.834302, 0.593007l 0.834302, 0.493756l 0.834302, 0.408914l 0.834302, 0.336844l 0.834302, 0.276002l 0.834302, 0.224953l 0.834302, 0.18238l 0.834302, 0.147087" fill="none"
 stroke="#ff0000" stroke-width="2"/>
<path d="M237.386,345.215l 0.834302, 0.118002" fill="none" stroke="#ff0000" stroke-width="2"/>
<text xml:space="preserve" x="221.424" y="17.8688" fill="black" font-size="18.7414" font-family="Helvetica">Am_alpha_002</text></svg>
