<?xml version="1.0" standalone="no"?>
<svg width="567.429" height="384.969" viewBox="0 0 567.429 384.969" xmlns="http://www.w3.org/2000/svg" shape-rendering="crispEdges">
<title>
img/week2/overWriteHistOfAmAlpha.svg
</title>
<desc>
Creator: ROOT Version 6.22/09
CreationDate: Tue Jul 13 14:07:00 2021</desc>
<defs>
</defs>
<rect x="0.5" y="0" width="566.929" height="384.469" fill="white"/>
<rect x="57.1929" y="38.4469" width="453.543" height="307.575" fill="white"/>
<rect x="57.1929" y="38.4469" width="453.543" height="307.575" fill="none" stroke="black"/>
<rect x="57.1929" y="38.4469" width="453.543" height="307.575" fill="white"/>
<rect x="57.1929" y="38.4469" width="453.543" height="307.575" fill="none" stroke="black"/>
<path d="M57.1929,346.022h 48.521v -3.08346h 0.510747v 3.08346h 1.02149v -3.08346h 0.510747v 3.08346h 1.02149v -9.25039h 0.510747v 9.25039h 0.510747v -3.08346h 1.02149v -3.08346h 0.510747v 3.08346h 0.510747v 3.08346h 1.02149v -3.08346h 0.510747v
 3.08346h 1.02149v -3.08346h 1.02149v 3.08346h 0.510747v -3.08346h 0.510747v 3.08346h 0.510747v -6.16692h 1.02149v -3.08346h 1.02149v 6.16692h 0.510747v -15.4173h 0.510747v 9.25039h 0.510747v 6.16692h 1.02149v -3.08346h 0.510747v -9.25039h 0.510747v
 12.3338h 0.510747v -6.16692h 0.510747v 3.08346h 0.510747v -6.16692h 0.510747v 3.08346h 0.510747v 3.08346h 0.510747v -12.3338h 0.510747v 6.16692h 0.510747v 6.16692h 0.510747v 3.08346h 0.510747v -3.08346h 0.510747v -12.3338h 0.510747v 12.3338h
 0.510747v -6.16692h 0.510747v 6.16692h 2.04299v 3.08346h 0.510747v -15.4173h 0.510747v 9.25039h 0.510747v -6.16692h 1.02149v 3.08346h 0.510747v 3.08346h 0.510747v 3.08346h 0.510747v 3.08346h 0.510747v -21.5842h 1.02149v 6.16692h 0.510747v 3.08346h
 0.510747v -6.16692h 0.510747v -18.5008h 0.510747v 12.3338h 0.510747v 3.08346h 0.510747v -6.16692h 0.510747v 9.25039h 0.510747v -9.25039h 0.510747v 15.4173h 0.510747v -21.5842h 0.510747v -6.16692h 0.510747v 18.5008h 0.510747v -3.08346h 1.02149v
 -15.4173h 0.510747v -12.3338h 0.510747v 3.08346h 0.510747v 9.25039h 0.510747v -27.7512h 0.510747v 33.9181h 0.510747v -30.8346h 0.510747v -12.3338h 1.02149v -21.5842h 0.510747v -15.4173h 0.510747v -3.08346h 0.510747v 30.8346h 0.510747v -21.5842h
 0.510747v -18.5008h 0.510747v -61.6692h 0.510747v 58.5858h 0.510747v 18.5008h 0.510747v -67.8362h 1.02149v 3.08346h 0.510747v -49.3354h 0.510747v 3.08346h 0.510747v 9.25039h 0.510747v 33.9181h 0.510747v -6.16692h 0.510747v -77.0865h 0.510747v
 21.5842h 0.510747v -18.5008h 0.510747v 58.5858h 0.510747v -61.6692h 0.510747v -27.7512h 0.510747v 18.5008h 0.510747v 15.4173h 0.510747v -12.3338h 0.510747v 15.4173h 0.510747v 18.5008h 0.510747v -6.16692h 0.510747v -18.5008h 0.510747v 64.7527h
 0.510747v -37.0015h 0.510747v -6.16692h 0.510747v 12.3338h 0.510747v 43.1685h 0.510747v -61.6692h 0.510747v 77.0865h 0.510747v 3.08346h 0.510747v -43.1685h 0.510747v 30.8346h 0.510747v -6.16692h 0.510747v 40.085h 0.510747v -6.16692h 0.510747v
 -12.3338h 0.510747v -12.3338h 0.510747v 43.1685h 0.510747v -21.5842h 0.510747v 30.8346h 0.510747v 12.3338h 0.510747v -33.9181h 0.510747v 12.3338h 0.510747v 30.8346h 0.510747v -9.25039h 0.510747v 12.3338h 0.510747v 9.25039h 0.510747v -3.08346h
 1.02149v 12.3338h 0.510747v -15.4173h 0.510747v 18.5008h 0.510747v -21.5842h 0.510747v 43.1685h 0.510747v -12.3338h 0.510747v 18.5008h 0.510747v -37.0015h 0.510747v 15.4173h 0.510747v 15.4173h 0.510747v -6.16692h 0.510747v -3.08346h 1.02149v
 21.5842h 0.510747v 3.08346h 0.510747v -15.4173h 0.510747v 21.5842h 0.510747v -9.25039h 0.510747v 6.16692h 0.510747v -3.08346h 0.510747v 18.5008h 0.510747v -43.1685h 0.510747v 37.0015h 1.02149v -3.08346h 0.510747v -9.25039h 0.510747v 12.3338h
 1.53224v 6.16692h 0.510747v 15.4173h 0.510747v -18.5008h 0.510747v 9.25039h 1.02149v -6.16692h 0.510747v 9.25039h 0.510747v -3.08346h 0.510747v -6.16692h 0.510747v 3.08346h 0.510747v 3.08346h 0.510747v 3.08346h 0.510747v 3.08346h 0.510747v -6.16692h
 0.510747v 12.3338h 1.02149v 3.08346h 0.510747v -3.08346h 0.510747v -6.16692h 0.510747v 6.16692h 1.02149v -9.25039h 0.510747v 3.08346h 0.510747v 9.25039h 0.510747v -6.16692h 0.510747v -3.08346h 0.510747v 3.08346h 0.510747v -6.16692h 1.02149v 12.3338h
 0.510747v -9.25039h 0.510747v 6.16692h 1.02149v 3.08346h 0.510747v -3.08346h 1.02149v -3.08346h 0.510747v 3.08346h 2.04299v 3.08346h 0.510747v -3.08346h 1.02149v -6.16692h 0.510747v 9.25039h 1.53224v -6.16692h 0.510747v 3.08346h 1.53224v -3.08346h
 0.510747v 6.16692h 1.53224v -3.08346h 0.510747v 3.08346h 0.510747v -6.16692h 0.510747v 6.16692h 1.53224v -3.08346h 1.53224v 3.08346h 0.510747v -3.08346h 0.510747v 3.08346h 1.53224v -3.08346h 0.510747v 3.08346h 1.02149v -3.08346h 0.510747v -3.08346h
 1.02149v 3.08346h 0.510747v 3.08346h 3.06448v -3.08346h 0.510747v 3.08346h 1.02149v -3.08346h 1.02149v 3.08346h 1.02149v -3.08346h 0.510747v 3.08346h 2.55373v -3.08346h 0.510747v 3.08346h 0.510747v -3.08346h 0.510747v -9.25039h 0.510747v 12.3338h
 0.510747v -3.08346h 0.510747v 3.08346h 0.510747v -3.08346h 0.510747v 3.08346h 0.510747v -3.08346h 1.02149v 3.08346h 1.53224v -3.08346h 1.02149v 3.08346h 0.510747v -3.08346h 0.510747v 3.08346h 1.02149v -6.16692h 0.510747v 3.08346h 0.510747v 3.08346h
 0.510747v -3.08346h 1.02149v -3.08346h 0.510747v 3.08346h 1.02149v 3.08346h 0.510747v -6.16692h 0.510747v 6.16692h 0.510747v -3.08346h 0.510747v 3.08346h 3.06448v -3.08346h 1.02149v 3.08346h 1.02149v -3.08346h 1.53224v 3.08346h 1.53224v -3.08346h
 0.510747v 3.08346h 0.510747v -3.08346h 0.510747v 3.08346h 0.510747v -6.16692h 0.510747v 6.16692h 1.02149v -3.08346h 0.510747v -6.16692h 0.510747v 9.25039h 1.02149v -6.16692h 0.510747v 6.16692h 0.510747v -9.25039h 0.510747v 6.16692h 0.510747v
 3.08346h 0.510747v -3.08346h 0.510747v 3.08346h 0.510747v -3.08346h 0.510747v 3.08346h 1.53224v -12.3338h 0.510747v 9.25039h 1.02149v 3.08346h 1.02149v -3.08346h 1.02149v 3.08346h 1.53224v -3.08346h 0.510747v 3.08346h 2.04299v -3.08346h 0.510747v
 3.08346h 6.63971v -3.08346h 1.02149v 3.08346h 2.55373v -3.08346h 0.510747v 3.08346h 7.6612v -3.08346h 0.510747v 3.08346h 7.6612v -3.08346h 0.510747v 3.08346h 32.6878v -3.08346h 0.510747v 3.08346h 3.06448v -3.08346h 0.510747v 3.08346h 3.57523v
 -3.08346h 0.510747v 3.08346h 56.1822v -3.08346h 0.510747v 3.08346h 0.510747v -3.08346h 0.510747v 3.08346h 9.70419v -3.08346h 0.510747v 3.08346h 53.1177v -3.08346h 0.510747v 3.08346h 34.22v -3.08346h 0.510747" fill="none" stroke="#0000ff"/>
<path d="M57.1929,346.022h 453.543" fill="none" stroke="black"/>
<path d="M57.7037,336.795v 9.22726" fill="none" stroke="black"/>
<path d="M68.1638,341.409v 4.61363" fill="none" stroke="black"/>
<path d="M78.6239,341.409v 4.61363" fill="none" stroke="black"/>
<path d="M89.084,341.409v 4.61363" fill="none" stroke="black"/>
<path d="M99.5441,341.409v 4.61363" fill="none" stroke="black"/>
<path d="M110.004,336.795v 9.22726" fill="none" stroke="black"/>
<path d="M120.464,341.409v 4.61363" fill="none" stroke="black"/>
<path d="M130.924,341.409v 4.61363" fill="none" stroke="black"/>
<path d="M141.384,341.409v 4.61363" fill="none" stroke="black"/>
<path d="M151.845,341.409v 4.61363" fill="none" stroke="black"/>
<path d="M162.305,336.795v 9.22726" fill="none" stroke="black"/>
<path d="M172.765,341.409v 4.61363" fill="none" stroke="black"/>
<path d="M183.225,341.409v 4.61363" fill="none" stroke="black"/>
<path d="M193.685,341.409v 4.61363" fill="none" stroke="black"/>
<path d="M204.145,341.409v 4.61363" fill="none" stroke="black"/>
<path d="M214.605,336.795v 9.22726" fill="none" stroke="black"/>
<path d="M225.065,341.409v 4.61363" fill="none" stroke="black"/>
<path d="M235.525,341.409v 4.61363" fill="none" stroke="black"/>
<path d="M245.985,341.409v 4.61363" fill="none" stroke="black"/>
<path d="M256.446,341.409v 4.61363" fill="none" stroke="black"/>
<path d="M266.906,336.795v 9.22726" fill="none" stroke="black"/>
<path d="M277.366,341.409v 4.61363" fill="none" stroke="black"/>
<path d="M287.826,341.409v 4.61363" fill="none" stroke="black"/>
<path d="M298.286,341.409v 4.61363" fill="none" stroke="black"/>
<path d="M308.746,341.409v 4.61363" fill="none" stroke="black"/>
<path d="M319.206,336.795v 9.22726" fill="none" stroke="black"/>
<path d="M329.666,341.409v 4.61363" fill="none" stroke="black"/>
<path d="M340.126,341.409v 4.61363" fill="none" stroke="black"/>
<path d="M350.586,341.409v 4.61363" fill="none" stroke="black"/>
<path d="M361.047,341.409v 4.61363" fill="none" stroke="black"/>
<path d="M371.507,336.795v 9.22726" fill="none" stroke="black"/>
<path d="M381.967,341.409v 4.61363" fill="none" stroke="black"/>
<path d="M392.427,341.409v 4.61363" fill="none" stroke="black"/>
<path d="M402.887,341.409v 4.61363" fill="none" stroke="black"/>
<path d="M413.347,341.409v 4.61363" fill="none" stroke="black"/>
<path d="M423.807,336.795v 9.22726" fill="none" stroke="black"/>
<path d="M434.267,341.409v 4.61363" fill="none" stroke="black"/>
<path d="M444.727,341.409v 4.61363" fill="none" stroke="black"/>
<path d="M455.187,341.409v 4.61363" fill="none" stroke="black"/>
<path d="M465.647,341.409v 4.61363" fill="none" stroke="black"/>
<path d="M476.108,336.795v 9.22726" fill="none" stroke="black"/>
<path d="M57.7037,336.795v 9.22726" fill="none" stroke="black"/>
<path d="M476.108,336.795v 9.22726" fill="none" stroke="black"/>
<path d="M486.568,341.409v 4.61363" fill="none" stroke="black"/>
<path d="M497.028,341.409v 4.61363" fill="none" stroke="black"/>
<path d="M507.488,341.409v 4.61363" fill="none" stroke="black"/>
<text xml:space="preserve" x="54.2605" y="358.403" fill="black" font-size="12.8453" font-family="Helvetica">0</text>
<text xml:space="preserve" x="103.134" y="358.403" fill="black" font-size="12.8453" font-family="Helvetica">10</text>
<text xml:space="preserve" x="155.265" y="358.403" fill="black" font-size="12.8453" font-family="Helvetica">20</text>
<text xml:space="preserve" x="207.397" y="358.403" fill="black" font-size="12.8453" font-family="Helvetica">30</text>
<text xml:space="preserve" x="260.343" y="358.403" fill="black" font-size="12.8453" font-family="Helvetica">40</text>
<text xml:space="preserve" x="312.474" y="358.403" fill="black" font-size="12.8453" font-family="Helvetica">50</text>
<text xml:space="preserve" x="364.605" y="358.403" fill="black" font-size="12.8453" font-family="Helvetica">60</text>
<text xml:space="preserve" x="416.737" y="358.403" fill="black" font-size="12.8453" font-family="Helvetica">70</text>
<text xml:space="preserve" x="468.868" y="358.403" fill="black" font-size="12.8453" font-family="Helvetica">80</text>
<text xml:space="preserve" x="446.875" y="372.251" fill="black" font-size="12.8453" font-family="Helvetica"> ADC Value</text>
<path d="M57.1929,346.022v -307.575" fill="none" stroke="black"/>
<path d="M70.7992,346.022h -13.6063" fill="none" stroke="black"/>
<path d="M63.9961,334.848h -6.80315" fill="none" stroke="black"/>
<path d="M63.9961,323.673h -6.80315" fill="none" stroke="black"/>
<path d="M63.9961,312.499h -6.80315" fill="none" stroke="black"/>
<path d="M63.9961,301.324h -6.80315" fill="none" stroke="black"/>
<path d="M70.7992,290.15h -13.6063" fill="none" stroke="black"/>
<path d="M63.9961,278.975h -6.80315" fill="none" stroke="black"/>
<path d="M63.9961,267.801h -6.80315" fill="none" stroke="black"/>
<path d="M63.9961,256.627h -6.80315" fill="none" stroke="black"/>
<path d="M63.9961,245.452h -6.80315" fill="none" stroke="black"/>
<path d="M70.7992,234.278h -13.6063" fill="none" stroke="black"/>
<path d="M63.9961,223.103h -6.80315" fill="none" stroke="black"/>
<path d="M63.9961,211.929h -6.80315" fill="none" stroke="black"/>
<path d="M63.9961,200.754h -6.80315" fill="none" stroke="black"/>
<path d="M63.9961,189.58h -6.80315" fill="none" stroke="black"/>
<path d="M70.7992,178.405h -13.6063" fill="none" stroke="black"/>
<path d="M63.9961,167.231h -6.80315" fill="none" stroke="black"/>
<path d="M63.9961,156.056h -6.80315" fill="none" stroke="black"/>
<path d="M63.9961,144.882h -6.80315" fill="none" stroke="black"/>
<path d="M63.9961,133.707h -6.80315" fill="none" stroke="black"/>
<path d="M70.7992,122.533h -13.6063" fill="none" stroke="black"/>
<path d="M63.9961,111.358h -6.80315" fill="none" stroke="black"/>
<path d="M63.9961,100.184h -6.80315" fill="none" stroke="black"/>
<path d="M63.9961,89.0095h -6.80315" fill="none" stroke="black"/>
<path d="M63.9961,77.8351h -6.80315" fill="none" stroke="black"/>
<path d="M70.7992,66.6606h -13.6063" fill="none" stroke="black"/>
<path d="M70.7992,66.6606h -13.6063" fill="none" stroke="black"/>
<path d="M63.9961,55.4861h -6.80315" fill="none" stroke="black"/>
<path d="M63.9961,44.3117h -6.80315" fill="none" stroke="black"/>
<text xml:space="preserve" x="47.7441" y="350.258" fill="black" font-size="12.8453" font-family="Helvetica">0</text>
<text xml:space="preserve" x="24.122" y="294.868" fill="black" font-size="12.8453" font-family="Helvetica">0.005</text>
<text xml:space="preserve" x="32.2676" y="238.664" fill="black" font-size="12.8453" font-family="Helvetica">0.01</text>
<text xml:space="preserve" x="24.122" y="183.275" fill="black" font-size="12.8453" font-family="Helvetica">0.015</text>
<text xml:space="preserve" x="30.6385" y="127.07" fill="black" font-size="12.8453" font-family="Helvetica">0.02</text>
<text xml:space="preserve" x="24.122" y="70.8661" fill="black" font-size="12.8453" font-family="Helvetica">0.025</text>
<g transform="rotate(-90,11.0892,117.296)">
<text xml:space="preserve" x="11.0892" y="117.296" fill="black" font-size="12.8453" font-family="Helvetica"> Entries / Time</text>
</g>
<path d="M57.1929,346.022h 55.6714v -1.939h 0.510747v 1.939h 14.3009v -1.939h 0.510747v 1.939h 2.55373v -1.939h 0.510747v 1.939h 2.04299v -1.939h 0.510747v 1.939h 1.53224v -1.939h 0.510747v 1.939h 0.510747v -1.939h 1.02149v -1.939h 0.510747v 3.878h
 0.510747v -3.878h 1.02149v 3.878h 0.510747v -3.878h 0.510747v 3.878h 0.510747v -9.69501h 0.510747v 3.878h 0.510747v 1.939h 0.510747v 1.939h 1.02149v -5.817h 0.510747v 1.939h 0.510747v 1.939h 0.510747v -7.75601h 0.510747v 3.878h 0.510747v 1.939h
 0.510747v -1.939h 0.510747v -7.75601h 0.510747v 7.75601h 0.510747v -9.69501h 0.510747v -5.817h 0.510747v 5.817h 0.510747v -1.939h 0.510747v 5.817h 0.510747v -15.512h 0.510747v 7.75601h 0.510747v -11.634h 0.510747v -11.634h 0.510747v 19.39h 0.510747v
 -19.39h 0.510747v 13.573h 0.510747v -1.939h 0.510747v 1.939h 1.02149v -9.69501h 1.02149v 9.69501h 0.510747v -17.451h 0.510747v 7.75601h 0.510747v 9.69501h 0.510747v -25.207h 0.510747v 7.75601h 1.02149v 13.573h 0.510747v -5.817h 0.510747v 9.69501h
 0.510747v -3.878h 0.510747v -3.878h 0.510747v -13.573h 0.510747v 5.817h 0.510747v -3.878h 0.510747v 5.817h 0.510747v 3.878h 0.510747v 3.878h 0.510747v -3.878h 0.510747v -7.75601h 0.510747v 13.573h 0.510747v 13.573h 0.510747v -15.512h 0.510747v
 13.573h 0.510747v -9.69501h 0.510747v 5.817h 0.510747v 7.75601h 0.510747v 1.939h 1.02149v 5.817h 0.510747v -5.817h 0.510747v -7.75601h 0.510747v 9.69501h 0.510747v -5.817h 0.510747v 9.69501h 1.02149v -5.817h 0.510747v 1.939h 0.510747v -5.817h
 0.510747v 1.939h 0.510747v 5.817h 0.510747v 3.878h 0.510747v 1.939h 0.510747v 3.878h 0.510747v -1.939h 1.53224v 1.939h 0.510747v 1.939h 1.02149v -5.817h 0.510747v 7.75601h 1.02149v -5.817h 0.510747v 3.878h 0.510747v -3.878h 0.510747v 3.878h
 0.510747v -3.878h 0.510747v 3.878h 1.02149v -1.939h 0.510747v 1.939h 1.02149v 1.939h 0.510747v -3.878h 0.510747v 1.939h 0.510747v -3.878h 0.510747v 3.878h 1.02149v -1.939h 0.510747v 3.878h 0.510747v -1.939h 0.510747v 1.939h 0.510747v -3.878h
 0.510747v 3.878h 0.510747v -1.939h 1.02149v -1.939h 1.02149v 3.878h 1.53224v -1.939h 0.510747v 1.939h 0.510747v -1.939h 0.510747v 1.939h 1.53224v -1.939h 1.02149v 1.939h 2.04299v -1.939h 0.510747v 1.939h 2.04299v -1.939h 0.510747v 1.939h 2.55373v
 -1.939h 0.510747v 1.939h 13.7902v -1.939h 0.510747v 1.939h 6.12896v -1.939h 0.510747v 1.939h 1.53224v -1.939h 0.510747v 1.939h 8.6827v -1.939h 0.510747v 1.939h 3.06448v -1.939h 0.510747v 1.939h 8.6827v -1.939h 1.02149v 1.939h 1.02149v -1.939h
 0.510747v 1.939h 1.53224v -1.939h 0.510747v 1.939h 1.02149v -1.939h 0.510747v 1.939h 6.63971v -1.939h 0.510747v 1.939h 11.7472v -1.939h 0.510747v 1.939h 49.0317v -1.939h 0.510747v 1.939h 24.5159v -1.939h 0.510747v 1.939h 42.392v -1.939h 0.510747v
 1.939" fill="none" stroke="#000099"/>
<path d="M141.646,319.714l 0.523005, -2.68323l 0.523005, -2.88518l 0.523005, -3.09364l 0.523005, -3.30777l 0.523005, -3.52659l 0.523005, -3.74902l 0.523005, -3.97381l 0.523005, -4.19959l 0.523005, -4.42486l 0.523005, -4.648l 0.523005, -4.86728l
 0.523005, -5.08086l 0.523005, -5.2868l 0.523005, -5.48312l 0.523005, -5.66775l 0.523005, -5.83861l 0.523005, -5.99358l 0.523005, -6.13057l 0.523005, -6.24751l 0.523005, -6.34241l 0.523005, -6.41335l 0.523005, -6.45853l 0.523005, -6.47628l 0.523005,
 -6.46512l 0.523005, -6.42374l 0.523005, -6.35106l 0.523005, -6.24623l 0.523005, -6.10867l 0.523005, -5.93808l 0.523005, -5.73443l 0.523005, -5.49801l 0.523005, -5.2294l 0.523005, -4.92951l 0.523005, -4.59956l 0.523005, -4.24105l 0.523005, -3.8558l
 0.523005, -3.44589l 0.523005, -3.01369l 0.523005, -2.56178l 0.523005, -2.09297l 0.523005, -1.61026l 0.523005, -1.11678l 0.523005, -0.615816l 0.523005, -0.110707l 0.523005, 0.395148l 0.523005, 0.898343l 0.523005, 1.3955l 0.523005, 1.88332l 0.523005,
 2.35859" fill="none" stroke="#ff0000" stroke-width="2"/>
<path d="M167.273,127.678l 0.523005, 2.81825l 0.523005, 3.25941l 0.523005, 3.67937l 0.523005, 4.07568l 0.523005, 4.44613l 0.523005, 4.78878l 0.523005, 5.10199l 0.523005, 5.38441l 0.523005, 5.635l 0.523005, 5.85304l 0.523005, 6.03812l 0.523005,
 6.1901l 0.523005, 6.30919l 0.523005, 6.39585l 0.523005, 6.4508l 0.523005, 6.47504l 0.523005, 6.46976l 0.523005, 6.43639l 0.523005, 6.37651l 0.523005, 6.29186l 0.523005, 6.18432l 0.523005, 6.05584l 0.523005, 5.90848l 0.523005, 5.74432l 0.523005,
 5.56546l 0.523005, 5.374l 0.523005, 5.17201l 0.523005, 4.96153l 0.523005, 4.74452l 0.523005, 4.52284l 0.523005, 4.2983l 0.523005, 4.07255l 0.523005, 3.84715l 0.523005, 3.62353l 0.523005, 3.40298l 0.523005, 3.18667l 0.523005, 2.97563l 0.523005,
 2.77073l 0.523005, 2.57275l 0.523005, 2.38231l 0.523005, 2.19992l 0.523005, 2.02597l 0.523005, 1.86073l 0.523005, 1.70439l 0.523005, 1.55703l 0.523005, 1.41864l 0.523005, 1.28915l 0.523005, 1.16842l 0.523005, 1.05623" fill="none" stroke="#ff0000"
 stroke-width="2"/>
<path d="M192.9,337.8l 0.523005, 0.952348" fill="none" stroke="#ff0000" stroke-width="2"/>
<path d="M151.949,318.858l 0.209202, -0.629771l 0.209202, -0.627818l 0.209202, -0.625083l 0.209202, -0.621551l 0.209202, -0.617212l 0.209202, -0.612058l 0.209202, -0.606079l 0.209202, -0.59927l 0.209202, -0.591628l 0.209202, -0.58315l 0.209202,
 -0.573836l 0.209202, -0.563687l 0.209202, -0.552708l 0.209202, -0.540903l 0.209202, -0.528282l 0.209202, -0.514853l 0.209202, -0.500629l 0.209202, -0.485623l 0.209202, -0.469852l 0.209202, -0.453332l 0.209202, -0.436085l 0.209202, -0.418131l
 0.209202, -0.399496l 0.209202, -0.380203l 0.209202, -0.360281l 0.209202, -0.339759l 0.209202, -0.318667l 0.209202, -0.297038l 0.209202, -0.274906l 0.209202, -0.252305l 0.209202, -0.229274l 0.209202, -0.205848l 0.209202, -0.182069l 0.209202,
 -0.157974l 0.209202, -0.133606l 0.209202, -0.109006l 0.209202, -0.0842161l 0.209202, -0.0592796l 0.209202, -0.0342397l 0.209202, -0.00914005l 0.209202, 0.0159756l 0.209202, 0.0410633l 0.209202, 0.0660794l 0.209202, 0.0909802l 0.209202, 0.115723l
 0.209202, 0.140264l 0.209202, 0.164561l 0.209202, 0.188574l 0.209202, 0.212262" fill="none" stroke="#ff0000" stroke-width="2"/>
<path d="M162.2,303.915l 0.209202, 0.235583l 0.209202, 0.258501l 0.209202, 0.280978l 0.209202, 0.302977l 0.209202, 0.324463l 0.209202, 0.345403l 0.209202, 0.365765l 0.209202, 0.385518l 0.209202, 0.404634l 0.209202, 0.423087l 0.209202, 0.44085l
 0.209202, 0.457902l 0.209202, 0.474219l 0.209202, 0.489784l 0.209202, 0.504579l 0.209202, 0.518588l 0.209202, 0.531798l 0.209202, 0.544198l 0.209202, 0.555778l 0.209202, 0.566532l 0.209202, 0.576454l 0.209202, 0.585541l 0.209202, 0.593791l 0.209202,
 0.601206l 0.209202, 0.607788l 0.209202, 0.613542l 0.209202, 0.618474l 0.209202, 0.622592l 0.209202, 0.625906l 0.209202, 0.628427l 0.209202, 0.630169l 0.209202, 0.631145l 0.209202, 0.631373l 0.209202, 0.630869l 0.209202, 0.629652l 0.209202, 0.627742l
 0.209202, 0.62516l 0.209202, 0.621927l 0.209202, 0.618066l 0.209202, 0.613601l 0.209202, 0.608556l 0.209202, 0.602957l 0.209202, 0.596829l 0.209202, 0.590198l 0.209202, 0.58309l 0.209202, 0.575532l 0.209202, 0.567552l 0.209202, 0.559175l 0.209202,
 0.55043" fill="none" stroke="#ff0000" stroke-width="2"/>
<path d="M172.451,329.894l 0.209202, 0.541344" fill="none" stroke="#ff0000" stroke-width="2"/>
<rect x="386.012" y="26.9128" width="175.748" height="34.6022" fill="white"/>
<path d="M386.012,61.5151h 175.748" fill="none" stroke="black"/>
<path d="M561.76,61.5151v -34.6022" fill="none" stroke="black"/>
<path d="M561.76,26.9128h -175.748" fill="none" stroke="black"/>
<path d="M386.012,26.9128v 34.6022" fill="none" stroke="black"/>
<text xml:space="preserve" x="429.77" y="39.0986" fill="black" font-size="13.9513" font-family="Helvetica">Am_alpha_001</text>
<path d="M392.602,35.5634h 30.7559" fill="none" stroke="#0000ff"/>
<g stroke="black" stroke-width="1" fill="none">
<line x1="406.98" y1="35.5634" x2="407.98" y2="35.5634"/>
</g>
<text xml:space="preserve" x="429.77" y="56.2042" fill="black" font-size="13.9513" font-family="Helvetica">Am_alpha_002</text>
<path d="M392.602,52.8645h 30.7559" fill="none" stroke="#000099"/>
<g stroke="black" stroke-width="1" fill="none">
<line x1="406.98" y1="52.8645" x2="407.98" y2="52.8645"/>
</g>
<text xml:space="preserve" x="241.608" y="17.9202" fill="black" font-size="18.7938" font-family="Helvetica">Am_alpha</text></svg>
