<?xml version="1.0" standalone="no"?>
<svg width="567.429" height="384.68" viewBox="0 0 567.429 384.68" xmlns="http://www.w3.org/2000/svg" shape-rendering="crispEdges">
<title>
img/week2/overWriteHistOfAmAlpha.svg
</title>
<desc>
Creator: ROOT Version 6.22/09
CreationDate: Sun Jul 11 19:23:34 2021</desc>
<defs>
</defs>
<rect x="0.5" y="0" width="566.929" height="384.18" fill="white"/>
<rect x="57.1929" y="38.418" width="453.543" height="307.344" fill="white"/>
<rect x="57.1929" y="38.418" width="453.543" height="307.344" fill="none" stroke="black"/>
<rect x="57.1929" y="38.418" width="453.543" height="307.344" fill="white"/>
<rect x="57.1929" y="38.418" width="453.543" height="307.344" fill="none" stroke="black"/>
<path d="M57.1929,345.762h 48.521v -3.08114h 0.510747v 3.08114h 1.02149v -3.08114h 0.510747v 3.08114h 1.02149v -9.24342h 0.510747v 9.24342h 0.510747v -3.08114h 1.02149v -3.08114h 0.510747v 3.08114h 0.510747v 3.08114h 1.02149v -3.08114h 0.510747v
 3.08114h 1.02149v -3.08114h 1.02149v 3.08114h 0.510747v -3.08114h 0.510747v 3.08114h 0.510747v -6.16228h 1.02149v -3.08114h 1.02149v 6.16228h 0.510747v -15.4057h 0.510747v 9.24342h 0.510747v 6.16228h 1.02149v -3.08114h 0.510747v -9.24342h 0.510747v
 12.3246h 0.510747v -6.16228h 0.510747v 3.08114h 0.510747v -6.16228h 0.510747v 3.08114h 0.510747v 3.08114h 0.510747v -12.3246h 0.510747v 6.16228h 0.510747v 6.16228h 0.510747v 3.08114h 0.510747v -3.08114h 0.510747v -12.3246h 0.510747v 12.3246h
 0.510747v -6.16228h 0.510747v 6.16228h 2.04299v 3.08114h 0.510747v -15.4057h 0.510747v 9.24342h 0.510747v -6.16228h 1.02149v 3.08114h 0.510747v 3.08114h 0.510747v 3.08114h 0.510747v 3.08114h 0.510747v -21.568h 1.02149v 6.16228h 0.510747v 3.08114h
 0.510747v -6.16228h 0.510747v -18.4868h 0.510747v 12.3246h 0.510747v 3.08114h 0.510747v -6.16228h 0.510747v 9.24342h 0.510747v -9.24342h 0.510747v 15.4057h 0.510747v -21.568h 0.510747v -6.16228h 0.510747v 18.4868h 0.510747v -3.08114h 1.02149v
 -15.4057h 0.510747v -12.3246h 0.510747v 3.08114h 0.510747v 9.24342h 0.510747v -27.7303h 0.510747v 33.8926h 0.510747v -30.8114h 0.510747v -12.3246h 1.02149v -21.568h 0.510747v -15.4057h 0.510747v -3.08114h 0.510747v 30.8114h 0.510747v -21.568h
 0.510747v -18.4868h 0.510747v -61.6228h 0.510747v 58.5417h 0.510747v 18.4868h 0.510747v -67.7851h 1.02149v 3.08114h 0.510747v -49.2983h 0.510747v 3.08114h 0.510747v 9.24342h 0.510747v 33.8926h 0.510747v -6.16228h 0.510747v -77.0285h 0.510747v
 21.568h 0.510747v -18.4868h 0.510747v 58.5417h 0.510747v -61.6228h 0.510747v -27.7303h 0.510747v 18.4868h 0.510747v 15.4057h 0.510747v -12.3246h 0.510747v 15.4057h 0.510747v 18.4868h 0.510747v -6.16228h 0.510747v -18.4868h 0.510747v 64.704h
 0.510747v -36.9737h 0.510747v -6.16228h 0.510747v 12.3246h 0.510747v 43.136h 0.510747v -61.6228h 0.510747v 77.0285h 0.510747v 3.08114h 0.510747v -43.136h 0.510747v 30.8114h 0.510747v -6.16228h 0.510747v 40.0548h 0.510747v -6.16228h 0.510747v
 -12.3246h 0.510747v -12.3246h 0.510747v 43.136h 0.510747v -21.568h 0.510747v 30.8114h 0.510747v 12.3246h 0.510747v -33.8926h 0.510747v 12.3246h 0.510747v 30.8114h 0.510747v -9.24342h 0.510747v 12.3246h 0.510747v 9.24342h 0.510747v -3.08114h 1.02149v
 12.3246h 0.510747v -15.4057h 0.510747v 18.4868h 0.510747v -21.568h 0.510747v 43.136h 0.510747v -12.3246h 0.510747v 18.4868h 0.510747v -36.9737h 0.510747v 15.4057h 0.510747v 15.4057h 0.510747v -6.16228h 0.510747v -3.08114h 1.02149v 21.568h 0.510747v
 3.08114h 0.510747v -15.4057h 0.510747v 21.568h 0.510747v -9.24342h 0.510747v 6.16228h 0.510747v -3.08114h 0.510747v 18.4868h 0.510747v -43.136h 0.510747v 36.9737h 1.02149v -3.08114h 0.510747v -9.24342h 0.510747v 12.3246h 1.53224v 6.16228h 0.510747v
 15.4057h 0.510747v -18.4868h 0.510747v 9.24342h 1.02149v -6.16228h 0.510747v 9.24342h 0.510747v -3.08114h 0.510747v -6.16228h 0.510747v 3.08114h 0.510747v 3.08114h 0.510747v 3.08114h 0.510747v 3.08114h 0.510747v -6.16228h 0.510747v 12.3246h 1.02149v
 3.08114h 0.510747v -3.08114h 0.510747v -6.16228h 0.510747v 6.16228h 1.02149v -9.24342h 0.510747v 3.08114h 0.510747v 9.24342h 0.510747v -6.16228h 0.510747v -3.08114h 0.510747v 3.08114h 0.510747v -6.16228h 1.02149v 12.3246h 0.510747v -9.24342h
 0.510747v 6.16228h 1.02149v 3.08114h 0.510747v -3.08114h 1.02149v -3.08114h 0.510747v 3.08114h 2.04299v 3.08114h 0.510747v -3.08114h 1.02149v -6.16228h 0.510747v 9.24342h 1.53224v -6.16228h 0.510747v 3.08114h 1.53224v -3.08114h 0.510747v 6.16228h
 1.53224v -3.08114h 0.510747v 3.08114h 0.510747v -6.16228h 0.510747v 6.16228h 1.53224v -3.08114h 1.53224v 3.08114h 0.510747v -3.08114h 0.510747v 3.08114h 1.53224v -3.08114h 0.510747v 3.08114h 1.02149v -3.08114h 0.510747v -3.08114h 1.02149v 3.08114h
 0.510747v 3.08114h 3.06448v -3.08114h 0.510747v 3.08114h 1.02149v -3.08114h 1.02149v 3.08114h 1.02149v -3.08114h 0.510747v 3.08114h 2.55373v -3.08114h 0.510747v 3.08114h 0.510747v -3.08114h 0.510747v -9.24342h 0.510747v 12.3246h 0.510747v -3.08114h
 0.510747v 3.08114h 0.510747v -3.08114h 0.510747v 3.08114h 0.510747v -3.08114h 1.02149v 3.08114h 1.53224v -3.08114h 1.02149v 3.08114h 0.510747v -3.08114h 0.510747v 3.08114h 1.02149v -6.16228h 0.510747v 3.08114h 0.510747v 3.08114h 0.510747v -3.08114h
 1.02149v -3.08114h 0.510747v 3.08114h 1.02149v 3.08114h 0.510747v -6.16228h 0.510747v 6.16228h 0.510747v -3.08114h 0.510747v 3.08114h 3.06448v -3.08114h 1.02149v 3.08114h 1.02149v -3.08114h 1.53224v 3.08114h 1.53224v -3.08114h 0.510747v 3.08114h
 0.510747v -3.08114h 0.510747v 3.08114h 0.510747v -6.16228h 0.510747v 6.16228h 1.02149v -3.08114h 0.510747v -6.16228h 0.510747v 9.24342h 1.02149v -6.16228h 0.510747v 6.16228h 0.510747v -9.24342h 0.510747v 6.16228h 0.510747v 3.08114h 0.510747v
 -3.08114h 0.510747v 3.08114h 0.510747v -3.08114h 0.510747v 3.08114h 1.53224v -12.3246h 0.510747v 9.24342h 1.02149v 3.08114h 1.02149v -3.08114h 1.02149v 3.08114h 1.53224v -3.08114h 0.510747v 3.08114h 2.04299v -3.08114h 0.510747v 3.08114h 6.63971v
 -3.08114h 1.02149v 3.08114h 2.55373v -3.08114h 0.510747v 3.08114h 7.6612v -3.08114h 0.510747v 3.08114h 7.6612v -3.08114h 0.510747v 3.08114h 32.6878v -3.08114h 0.510747v 3.08114h 3.06448v -3.08114h 0.510747v 3.08114h 3.57523v -3.08114h 0.510747v
 3.08114h 56.1822v -3.08114h 0.510747v 3.08114h 0.510747v -3.08114h 0.510747v 3.08114h 9.70419v -3.08114h 0.510747v 3.08114h 53.1177v -3.08114h 0.510747v 3.08114h 34.22v -3.08114h 0.510747" fill="none" stroke="#0000ff"/>
<path d="M57.1929,345.762h 453.543" fill="none" stroke="black"/>
<path d="M57.7037,336.541v 9.22031" fill="none" stroke="black"/>
<path d="M68.1638,341.152v 4.61016" fill="none" stroke="black"/>
<path d="M78.6239,341.152v 4.61016" fill="none" stroke="black"/>
<path d="M89.084,341.152v 4.61016" fill="none" stroke="black"/>
<path d="M99.5441,341.152v 4.61016" fill="none" stroke="black"/>
<path d="M110.004,336.541v 9.22031" fill="none" stroke="black"/>
<path d="M120.464,341.152v 4.61016" fill="none" stroke="black"/>
<path d="M130.924,341.152v 4.61016" fill="none" stroke="black"/>
<path d="M141.384,341.152v 4.61016" fill="none" stroke="black"/>
<path d="M151.845,341.152v 4.61016" fill="none" stroke="black"/>
<path d="M162.305,336.541v 9.22031" fill="none" stroke="black"/>
<path d="M172.765,341.152v 4.61016" fill="none" stroke="black"/>
<path d="M183.225,341.152v 4.61016" fill="none" stroke="black"/>
<path d="M193.685,341.152v 4.61016" fill="none" stroke="black"/>
<path d="M204.145,341.152v 4.61016" fill="none" stroke="black"/>
<path d="M214.605,336.541v 9.22031" fill="none" stroke="black"/>
<path d="M225.065,341.152v 4.61016" fill="none" stroke="black"/>
<path d="M235.525,341.152v 4.61016" fill="none" stroke="black"/>
<path d="M245.985,341.152v 4.61016" fill="none" stroke="black"/>
<path d="M256.446,341.152v 4.61016" fill="none" stroke="black"/>
<path d="M266.906,336.541v 9.22031" fill="none" stroke="black"/>
<path d="M277.366,341.152v 4.61016" fill="none" stroke="black"/>
<path d="M287.826,341.152v 4.61016" fill="none" stroke="black"/>
<path d="M298.286,341.152v 4.61016" fill="none" stroke="black"/>
<path d="M308.746,341.152v 4.61016" fill="none" stroke="black"/>
<path d="M319.206,336.541v 9.22031" fill="none" stroke="black"/>
<path d="M329.666,341.152v 4.61016" fill="none" stroke="black"/>
<path d="M340.126,341.152v 4.61016" fill="none" stroke="black"/>
<path d="M350.586,341.152v 4.61016" fill="none" stroke="black"/>
<path d="M361.047,341.152v 4.61016" fill="none" stroke="black"/>
<path d="M371.507,336.541v 9.22031" fill="none" stroke="black"/>
<path d="M381.967,341.152v 4.61016" fill="none" stroke="black"/>
<path d="M392.427,341.152v 4.61016" fill="none" stroke="black"/>
<path d="M402.887,341.152v 4.61016" fill="none" stroke="black"/>
<path d="M413.347,341.152v 4.61016" fill="none" stroke="black"/>
<path d="M423.807,336.541v 9.22031" fill="none" stroke="black"/>
<path d="M434.267,341.152v 4.61016" fill="none" stroke="black"/>
<path d="M444.727,341.152v 4.61016" fill="none" stroke="black"/>
<path d="M455.187,341.152v 4.61016" fill="none" stroke="black"/>
<path d="M465.647,341.152v 4.61016" fill="none" stroke="black"/>
<path d="M476.108,336.541v 9.22031" fill="none" stroke="black"/>
<path d="M57.7037,336.541v 9.22031" fill="none" stroke="black"/>
<path d="M476.108,336.541v 9.22031" fill="none" stroke="black"/>
<path d="M486.568,341.152v 4.61016" fill="none" stroke="black"/>
<path d="M497.028,341.152v 4.61016" fill="none" stroke="black"/>
<path d="M507.488,341.152v 4.61016" fill="none" stroke="black"/>
<text xml:space="preserve" x="54.1065" y="358.189" fill="black" font-size="12.836" font-family="Helvetica">0</text>
<text xml:space="preserve" x="102.84" y="358.189" fill="black" font-size="12.836" font-family="Helvetica">10</text>
<text xml:space="preserve" x="155.634" y="358.189" fill="black" font-size="12.836" font-family="Helvetica">20</text>
<text xml:space="preserve" x="207.616" y="358.189" fill="black" font-size="12.836" font-family="Helvetica">30</text>
<text xml:space="preserve" x="259.598" y="358.189" fill="black" font-size="12.836" font-family="Helvetica">40</text>
<text xml:space="preserve" x="312.392" y="358.189" fill="black" font-size="12.836" font-family="Helvetica">50</text>
<text xml:space="preserve" x="364.374" y="358.189" fill="black" font-size="12.836" font-family="Helvetica">60</text>
<text xml:space="preserve" x="417.169" y="358.189" fill="black" font-size="12.836" font-family="Helvetica">70</text>
<text xml:space="preserve" x="469.151" y="358.189" fill="black" font-size="12.836" font-family="Helvetica">80</text>
<text xml:space="preserve" x="447.221" y="371.996" fill="black" font-size="12.836" font-family="Helvetica"> ADC Value</text>
<path d="M57.1929,345.762v -307.344" fill="none" stroke="black"/>
<path d="M70.7992,345.762h -13.6063" fill="none" stroke="black"/>
<path d="M63.9961,334.596h -6.80315" fill="none" stroke="black"/>
<path d="M63.9961,323.43h -6.80315" fill="none" stroke="black"/>
<path d="M63.9961,312.264h -6.80315" fill="none" stroke="black"/>
<path d="M63.9961,301.098h -6.80315" fill="none" stroke="black"/>
<path d="M70.7992,289.932h -13.6063" fill="none" stroke="black"/>
<path d="M63.9961,278.765h -6.80315" fill="none" stroke="black"/>
<path d="M63.9961,267.599h -6.80315" fill="none" stroke="black"/>
<path d="M63.9961,256.433h -6.80315" fill="none" stroke="black"/>
<path d="M63.9961,245.267h -6.80315" fill="none" stroke="black"/>
<path d="M70.7992,234.101h -13.6063" fill="none" stroke="black"/>
<path d="M63.9961,222.935h -6.80315" fill="none" stroke="black"/>
<path d="M63.9961,211.769h -6.80315" fill="none" stroke="black"/>
<path d="M63.9961,200.603h -6.80315" fill="none" stroke="black"/>
<path d="M63.9961,189.437h -6.80315" fill="none" stroke="black"/>
<path d="M70.7992,178.271h -13.6063" fill="none" stroke="black"/>
<path d="M63.9961,167.105h -6.80315" fill="none" stroke="black"/>
<path d="M63.9961,155.939h -6.80315" fill="none" stroke="black"/>
<path d="M63.9961,144.773h -6.80315" fill="none" stroke="black"/>
<path d="M63.9961,133.607h -6.80315" fill="none" stroke="black"/>
<path d="M70.7992,122.441h -13.6063" fill="none" stroke="black"/>
<path d="M63.9961,111.275h -6.80315" fill="none" stroke="black"/>
<path d="M63.9961,100.109h -6.80315" fill="none" stroke="black"/>
<path d="M63.9961,88.9425h -6.80315" fill="none" stroke="black"/>
<path d="M63.9961,77.7765h -6.80315" fill="none" stroke="black"/>
<path d="M70.7992,66.6104h -13.6063" fill="none" stroke="black"/>
<path d="M70.7992,66.6104h -13.6063" fill="none" stroke="black"/>
<path d="M63.9961,55.4444h -6.80315" fill="none" stroke="black"/>
<path d="M63.9961,44.2783h -6.80315" fill="none" stroke="black"/>
<text xml:space="preserve" x="47.6087" y="350.067" fill="black" font-size="12.836" font-family="Helvetica">0</text>
<text xml:space="preserve" x="24.0544" y="294.023" fill="black" font-size="12.836" font-family="Helvetica">0.005</text>
<text xml:space="preserve" x="32.1766" y="238.793" fill="black" font-size="12.836" font-family="Helvetica">0.01</text>
<text xml:space="preserve" x="24.0544" y="182.749" fill="black" font-size="12.836" font-family="Helvetica">0.015</text>
<text xml:space="preserve" x="30.5521" y="126.706" fill="black" font-size="12.836" font-family="Helvetica">0.02</text>
<text xml:space="preserve" x="24.0544" y="71.4753" fill="black" font-size="12.836" font-family="Helvetica">0.025</text>
<g transform="rotate(-90,11.0589,116.96)">
<text xml:space="preserve" x="11.0589" y="116.96" fill="black" font-size="12.836" font-family="Helvetica"> Entries / Time</text>
</g>
<path d="M57.1929,345.762h 55.6714v -1.93754h 0.510747v 1.93754h 14.3009v -1.93754h 0.510747v 1.93754h 2.55373v -1.93754h 0.510747v 1.93754h 2.04299v -1.93754h 0.510747v 1.93754h 1.53224v -1.93754h 0.510747v 1.93754h 0.510747v -1.93754h 1.02149v
 -1.93754h 0.510747v 3.87508h 0.510747v -3.87508h 1.02149v 3.87508h 0.510747v -3.87508h 0.510747v 3.87508h 0.510747v -9.68771h 0.510747v 3.87508h 0.510747v 1.93754h 0.510747v 1.93754h 1.02149v -5.81263h 0.510747v 1.93754h 0.510747v 1.93754h 0.510747v
 -7.75017h 0.510747v 3.87508h 0.510747v 1.93754h 0.510747v -1.93754h 0.510747v -7.75017h 0.510747v 7.75017h 0.510747v -9.68771h 0.510747v -5.81263h 0.510747v 5.81263h 0.510747v -1.93754h 0.510747v 5.81263h 0.510747v -15.5003h 0.510747v 7.75017h
 0.510747v -11.6253h 0.510747v -11.6253h 0.510747v 19.3754h 0.510747v -19.3754h 0.510747v 13.5628h 0.510747v -1.93754h 0.510747v 1.93754h 1.02149v -9.68771h 1.02149v 9.68771h 0.510747v -17.4379h 0.510747v 7.75017h 0.510747v 9.68771h 0.510747v
 -25.188h 0.510747v 7.75017h 1.02149v 13.5628h 0.510747v -5.81263h 0.510747v 9.68771h 0.510747v -3.87508h 0.510747v -3.87508h 0.510747v -13.5628h 0.510747v 5.81263h 0.510747v -3.87508h 0.510747v 5.81263h 0.510747v 3.87508h 0.510747v 3.87508h
 0.510747v -3.87508h 0.510747v -7.75017h 0.510747v 13.5628h 0.510747v 13.5628h 0.510747v -15.5003h 0.510747v 13.5628h 0.510747v -9.68771h 0.510747v 5.81263h 0.510747v 7.75017h 0.510747v 1.93754h 1.02149v 5.81263h 0.510747v -5.81263h 0.510747v
 -7.75017h 0.510747v 9.68771h 0.510747v -5.81263h 0.510747v 9.68771h 1.02149v -5.81263h 0.510747v 1.93754h 0.510747v -5.81263h 0.510747v 1.93754h 0.510747v 5.81263h 0.510747v 3.87508h 0.510747v 1.93754h 0.510747v 3.87508h 0.510747v -1.93754h 1.53224v
 1.93754h 0.510747v 1.93754h 1.02149v -5.81263h 0.510747v 7.75017h 1.02149v -5.81263h 0.510747v 3.87508h 0.510747v -3.87508h 0.510747v 3.87508h 0.510747v -3.87508h 0.510747v 3.87508h 1.02149v -1.93754h 0.510747v 1.93754h 1.02149v 1.93754h 0.510747v
 -3.87508h 0.510747v 1.93754h 0.510747v -3.87508h 0.510747v 3.87508h 1.02149v -1.93754h 0.510747v 3.87508h 0.510747v -1.93754h 0.510747v 1.93754h 0.510747v -3.87508h 0.510747v 3.87508h 0.510747v -1.93754h 1.02149v -1.93754h 1.02149v 3.87508h 1.53224v
 -1.93754h 0.510747v 1.93754h 0.510747v -1.93754h 0.510747v 1.93754h 1.53224v -1.93754h 1.02149v 1.93754h 2.04299v -1.93754h 0.510747v 1.93754h 2.04299v -1.93754h 0.510747v 1.93754h 2.55373v -1.93754h 0.510747v 1.93754h 13.7902v -1.93754h 0.510747v
 1.93754h 6.12896v -1.93754h 0.510747v 1.93754h 1.53224v -1.93754h 0.510747v 1.93754h 8.6827v -1.93754h 0.510747v 1.93754h 3.06448v -1.93754h 0.510747v 1.93754h 8.6827v -1.93754h 1.02149v 1.93754h 1.02149v -1.93754h 0.510747v 1.93754h 1.53224v
 -1.93754h 0.510747v 1.93754h 1.02149v -1.93754h 0.510747v 1.93754h 6.63971v -1.93754h 0.510747v 1.93754h 11.7472v -1.93754h 0.510747v 1.93754h 49.0317v -1.93754h 0.510747v 1.93754h 24.5159v -1.93754h 0.510747v 1.93754h 42.392v -1.93754h 0.510747v
 1.93754" fill="none" stroke="#000099"/>
<path d="M141.646,319.473l 0.523005, -2.68121l 0.523005, -2.88301l 0.523005, -3.09131l 0.523005, -3.30528l 0.523005, -3.52394l 0.523005, -3.7462l 0.523005, -3.97082l 0.523005, -4.19643l 0.523005, -4.42153l 0.523005, -4.6445l 0.523005, -4.86362l
 0.523005, -5.07703l 0.523005, -5.28283l 0.523005, -5.479l 0.523005, -5.66349l 0.523005, -5.83421l 0.523005, -5.98907l 0.523005, -6.12595l 0.523005, -6.24281l 0.523005, -6.33764l 0.523005, -6.40853l 0.523005, -6.45367l 0.523005, -6.47141l 0.523005,
 -6.46025l 0.523005, -6.4189l 0.523005, -6.34628l 0.523005, -6.24153l 0.523005, -6.10408l 0.523005, -5.93361l 0.523005, -5.73011l 0.523005, -5.49387l 0.523005, -5.22546l 0.523005, -4.9258l 0.523005, -4.5961l 0.523005, -4.23786l 0.523005, -3.8529l
 0.523005, -3.4433l 0.523005, -3.01142l 0.523005, -2.55985l 0.523005, -2.0914l 0.523005, -1.60905l 0.523005, -1.11594l 0.523005, -0.615352l 0.523005, -0.110623l 0.523005, 0.394851l 0.523005, 0.897667l 0.523005, 1.39445l 0.523005, 1.8819l 0.523005,
 2.35682" fill="none" stroke="#ff0000" stroke-width="2"/>
<path d="M167.273,127.582l 0.523005, 2.81613l 0.523005, 3.25696l 0.523005, 3.6766l 0.523005, 4.07261l 0.523005, 4.44278l 0.523005, 4.78518l 0.523005, 5.09815l 0.523005, 5.38036l 0.523005, 5.63076l 0.523005, 5.84864l 0.523005, 6.03357l 0.523005,
 6.18544l 0.523005, 6.30444l 0.523005, 6.39103l 0.523005, 6.44595l 0.523005, 6.47016l 0.523005, 6.46489l 0.523005, 6.43154l 0.523005, 6.37171l 0.523005, 6.28712l 0.523005, 6.17966l 0.523005, 6.05129l 0.523005, 5.90404l 0.523005, 5.74l 0.523005,
 5.56127l 0.523005, 5.36995l 0.523005, 5.16812l 0.523005, 4.9578l 0.523005, 4.74094l 0.523005, 4.51944l 0.523005, 4.29506l 0.523005, 4.06948l 0.523005, 3.84425l 0.523005, 3.6208l 0.523005, 3.40042l 0.523005, 3.18427l 0.523005, 2.97339l 0.523005,
 2.76865l 0.523005, 2.57081l 0.523005, 2.38052l 0.523005, 2.19826l 0.523005, 2.02444l 0.523005, 1.85933l 0.523005, 1.70311l 0.523005, 1.55585l 0.523005, 1.41757l 0.523005, 1.28818l 0.523005, 1.16754l 0.523005, 1.05544" fill="none" stroke="#ff0000"
 stroke-width="2"/>
<path d="M192.9,337.546l 0.523005, 0.951631" fill="none" stroke="#ff0000" stroke-width="2"/>
<path d="M151.949,318.618l 0.209202, -0.629297l 0.209202, -0.627346l 0.209202, -0.624612l 0.209202, -0.621083l 0.209202, -0.616748l 0.209202, -0.611597l 0.209202, -0.605623l 0.209202, -0.598819l 0.209202, -0.591183l 0.209202, -0.582711l 0.209202,
 -0.573404l 0.209202, -0.563263l 0.209202, -0.552292l 0.209202, -0.540496l 0.209202, -0.527884l 0.209202, -0.514466l 0.209202, -0.500252l 0.209202, -0.485258l 0.209202, -0.469498l 0.209202, -0.452991l 0.209202, -0.435757l 0.209202, -0.417817l
 0.209202, -0.399195l 0.209202, -0.379917l 0.209202, -0.36001l 0.209202, -0.339503l 0.209202, -0.318427l 0.209202, -0.296814l 0.209202, -0.274699l 0.209202, -0.252115l 0.209202, -0.229101l 0.209202, -0.205693l 0.209202, -0.181931l 0.209202,
 -0.157855l 0.209202, -0.133505l 0.209202, -0.108924l 0.209202, -0.0841527l 0.209202, -0.059235l 0.209202, -0.0342139l 0.209202, -0.00913317l 0.209202, 0.0159636l 0.209202, 0.0410324l 0.209202, 0.0660296l 0.209202, 0.0909117l 0.209202, 0.115635l
 0.209202, 0.140158l 0.209202, 0.164438l 0.209202, 0.188432l 0.209202, 0.212102" fill="none" stroke="#ff0000" stroke-width="2"/>
<path d="M162.2,303.686l 0.209202, 0.235406l 0.209202, 0.258307l 0.209202, 0.280766l 0.209202, 0.302749l 0.209202, 0.324219l 0.209202, 0.345143l 0.209202, 0.365489l 0.209202, 0.385228l 0.209202, 0.40433l 0.209202, 0.422769l 0.209202, 0.440519l
 0.209202, 0.457557l 0.209202, 0.473862l 0.209202, 0.489416l 0.209202, 0.504199l 0.209202, 0.518198l 0.209202, 0.531398l 0.209202, 0.543788l 0.209202, 0.55536l 0.209202, 0.566106l 0.209202, 0.57602l 0.209202, 0.5851l 0.209202, 0.593344l 0.209202,
 0.600754l 0.209202, 0.607331l 0.209202, 0.61308l 0.209202, 0.618008l 0.209202, 0.622123l 0.209202, 0.625434l 0.209202, 0.627954l 0.209202, 0.629694l 0.209202, 0.63067l 0.209202, 0.630898l 0.209202, 0.630395l 0.209202, 0.629179l 0.209202, 0.62727l
 0.209202, 0.624689l 0.209202, 0.621458l 0.209202, 0.617601l 0.209202, 0.613139l 0.209202, 0.608098l 0.209202, 0.602503l 0.209202, 0.59638l 0.209202, 0.589753l 0.209202, 0.582651l 0.209202, 0.575099l 0.209202, 0.567124l 0.209202, 0.558754l 0.209202,
 0.550016" fill="none" stroke="#ff0000" stroke-width="2"/>
<path d="M172.451,329.645l 0.209202, 0.540936" fill="none" stroke="#ff0000" stroke-width="2"/>
<rect x="386.012" y="26.8926" width="175.748" height="34.5762" fill="white"/>
<path d="M386.012,61.4688h 175.748" fill="none" stroke="black"/>
<path d="M561.76,61.4688v -34.5762" fill="none" stroke="black"/>
<path d="M561.76,26.8926h -175.748" fill="none" stroke="black"/>
<path d="M386.012,26.8926v 34.5762" fill="none" stroke="black"/>
<text xml:space="preserve" x="429.352" y="38.9865" fill="black" font-size="13.9128" font-family="Helvetica">Am_alpha_001</text>
<path d="M392.602,35.5366h 30.7559" fill="none" stroke="#0000ff"/>
<g stroke="black" stroke-width="1" fill="none">
<line x1="406.98" y1="35.5366" x2="407.98" y2="35.5366"/>
</g>
<text xml:space="preserve" x="429.352" y="56.0431" fill="black" font-size="13.9128" font-family="Helvetica">Am_alpha_002</text>
<path d="M392.602,52.8247h 30.7559" fill="none" stroke="#000099"/>
<g stroke="black" stroke-width="1" fill="none">
<line x1="406.98" y1="52.8247" x2="407.98" y2="52.8247"/>
</g>
<text xml:space="preserve" x="241.729" y="17.8688" fill="black" font-size="18.7414" font-family="Helvetica">Am_alpha</text></svg>
