<?xml version="1.0" standalone="no"?>
<svg width="567.429" height="384.969" viewBox="0 0 567.429 384.969" xmlns="http://www.w3.org/2000/svg" shape-rendering="crispEdges">
<title>
img/week2/standardizedByTimeAm_alpha_002Hist.svg
</title>
<desc>
Creator: ROOT Version 6.22/09
CreationDate: Tue Jul 13 11:43:09 2021</desc>
<defs>
</defs>
<rect x="0.5" y="0" width="566.929" height="384.469" fill="white"/>
<rect x="57.1929" y="38.4469" width="453.543" height="307.575" fill="white"/>
<rect x="57.1929" y="38.4469" width="453.543" height="307.575" fill="none" stroke="black"/>
<path d="M57.1929,346.022h 74.0063v -10.101h 0.678957v 10.101h 19.0108v -10.101h 0.678957v 10.101h 3.39479v -10.101h 0.678957v 10.101h 2.71583v -10.101h 0.678957v 10.101h 2.03687v -10.101h 0.678957v 10.101h 0.678957v -10.101h 1.35791v -10.101h
 0.678957v 20.202h 0.678957v -20.202h 1.35791v 20.202h 0.678957v -20.202h 0.678957v 20.202h 0.678957v -50.505h 0.678957v 20.202h 0.678957v 10.101h 0.678957v 10.101h 1.35791v -30.303h 0.678957v 10.101h 0.678957v 10.101h 0.678957v -40.404h 0.678957v
 20.202h 0.678957v 10.101h 0.678957v -10.101h 0.678957v -40.404h 0.678957v 40.404h 0.678957v -50.505h 0.678957v -30.303h 0.678957v 30.303h 0.678957v -10.101h 0.678957v 30.303h 0.678957v -80.808h 0.678957v 40.404h 0.678957v -60.606h 0.678957v -60.606h
 0.678957v 101.01h 0.678957v -101.01h 0.678957v 70.707h 0.678957v -10.101h 0.678957v 10.101h 1.35791v -50.505h 1.35791v 50.505h 0.678957v -90.909h 0.678957v 40.404h 0.678957v 50.505h 0.678957v -131.313h 0.678957v 40.404h 1.35791v 70.707h 0.678957v
 -30.303h 0.678957v 50.505h 0.678957v -20.202h 0.678957v -20.202h 0.678957v -70.707h 0.678957v 30.303h 0.678957v -20.202h 0.678957v 30.303h 0.678957v 20.202h 0.678957v 20.202h 0.678957v -20.202h 0.678957v -40.404h 0.678957v 70.707h 0.678957v 70.707h
 0.678957v -80.808h 0.678957v 70.707h 0.678957v -50.505h 0.678957v 30.303h 0.678957v 40.404h 0.678957v 10.101h 1.35791v 30.303h 0.678957v -30.303h 0.678957v -40.404h 0.678957v 50.505h 0.678957v -30.303h 0.678957v 50.505h 1.35791v -30.303h 0.678957v
 10.101h 0.678957v -30.303h 0.678957v 10.101h 0.678957v 30.303h 0.678957v 20.202h 0.678957v 10.101h 0.678957v 20.202h 0.678957v -10.101h 2.03687v 10.101h 0.678957v 10.101h 1.35791v -30.303h 0.678957v 40.404h 1.35791v -30.303h 0.678957v 20.202h
 0.678957v -20.202h 0.678957v 20.202h 0.678957v -20.202h 0.678957v 20.202h 1.35791v -10.101h 0.678957v 10.101h 1.35791v 10.101h 0.678957v -20.202h 0.678957v 10.101h 0.678957v -20.202h 0.678957v 20.202h 1.35791v -10.101h 0.678957v 20.202h 0.678957v
 -10.101h 0.678957v 10.101h 0.678957v -20.202h 0.678957v 20.202h 0.678957v -10.101h 1.35791v -10.101h 1.35791v 20.202h 2.03687v -10.101h 0.678957v 10.101h 0.678957v -10.101h 0.678957v 10.101h 2.03687v -10.101h 1.35791v 10.101h 2.71583v -10.101h
 0.678957v 10.101h 2.71583v -10.101h 0.678957v 10.101h 3.39479v -10.101h 0.678957v 10.101h 18.3318v -10.101h 0.678957v 10.101h 8.14748v -10.101h 0.678957v 10.101h 2.03687v -10.101h 0.678957v 10.101h 11.5423v -10.101h 0.678957v 10.101h 4.07374v
 -10.101h 0.678957v 10.101h 11.5423v -10.101h 1.35791v 10.101h 1.35791v -10.101h 0.678957v 10.101h 2.03687v -10.101h 0.678957v 10.101h 1.35791v -10.101h 0.678957v 10.101h 8.82644v -10.101h 0.678957v 10.101h 15.616v -10.101h 0.678957v 10.101h 65.1799v
 -10.101h 0.678957v 10.101h 32.5899v -10.101h 0.678957v 10.101h 56.3534v -10.101h 0.678957" fill="none" stroke="#000099"/>
<path d="M57.1929,346.022h 453.543" fill="none" stroke="black"/>
<path d="M57.8719,336.795v 9.22726" fill="none" stroke="black"/>
<path d="M71.7769,341.409v 4.61363" fill="none" stroke="black"/>
<path d="M85.682,341.409v 4.61363" fill="none" stroke="black"/>
<path d="M99.587,341.409v 4.61363" fill="none" stroke="black"/>
<path d="M113.492,341.409v 4.61363" fill="none" stroke="black"/>
<path d="M127.397,336.795v 9.22726" fill="none" stroke="black"/>
<path d="M141.302,341.409v 4.61363" fill="none" stroke="black"/>
<path d="M155.207,341.409v 4.61363" fill="none" stroke="black"/>
<path d="M169.112,341.409v 4.61363" fill="none" stroke="black"/>
<path d="M183.017,341.409v 4.61363" fill="none" stroke="black"/>
<path d="M196.922,336.795v 9.22726" fill="none" stroke="black"/>
<path d="M210.827,341.409v 4.61363" fill="none" stroke="black"/>
<path d="M224.732,341.409v 4.61363" fill="none" stroke="black"/>
<path d="M238.637,341.409v 4.61363" fill="none" stroke="black"/>
<path d="M252.542,341.409v 4.61363" fill="none" stroke="black"/>
<path d="M266.447,336.795v 9.22726" fill="none" stroke="black"/>
<path d="M280.353,341.409v 4.61363" fill="none" stroke="black"/>
<path d="M294.258,341.409v 4.61363" fill="none" stroke="black"/>
<path d="M308.163,341.409v 4.61363" fill="none" stroke="black"/>
<path d="M322.068,341.409v 4.61363" fill="none" stroke="black"/>
<path d="M335.973,336.795v 9.22726" fill="none" stroke="black"/>
<path d="M349.878,341.409v 4.61363" fill="none" stroke="black"/>
<path d="M363.783,341.409v 4.61363" fill="none" stroke="black"/>
<path d="M377.688,341.409v 4.61363" fill="none" stroke="black"/>
<path d="M391.593,341.409v 4.61363" fill="none" stroke="black"/>
<path d="M405.498,336.795v 9.22726" fill="none" stroke="black"/>
<path d="M419.403,341.409v 4.61363" fill="none" stroke="black"/>
<path d="M433.308,341.409v 4.61363" fill="none" stroke="black"/>
<path d="M447.213,341.409v 4.61363" fill="none" stroke="black"/>
<path d="M461.118,341.409v 4.61363" fill="none" stroke="black"/>
<path d="M475.023,336.795v 9.22726" fill="none" stroke="black"/>
<path d="M57.8719,336.795v 9.22726" fill="none" stroke="black"/>
<path d="M475.023,336.795v 9.22726" fill="none" stroke="black"/>
<path d="M488.928,341.409v 4.61363" fill="none" stroke="black"/>
<path d="M502.833,341.409v 4.61363" fill="none" stroke="black"/>
<text xml:space="preserve" x="54.2605" y="358.403" fill="black" font-size="12.8453" font-family="Helvetica">0</text>
<text xml:space="preserve" x="120.239" y="358.403" fill="black" font-size="12.8453" font-family="Helvetica">10</text>
<text xml:space="preserve" x="190.291" y="358.403" fill="black" font-size="12.8453" font-family="Helvetica">20</text>
<text xml:space="preserve" x="259.528" y="358.403" fill="black" font-size="12.8453" font-family="Helvetica">30</text>
<text xml:space="preserve" x="328.765" y="358.403" fill="black" font-size="12.8453" font-family="Helvetica">40</text>
<text xml:space="preserve" x="398.817" y="358.403" fill="black" font-size="12.8453" font-family="Helvetica">50</text>
<text xml:space="preserve" x="468.054" y="358.403" fill="black" font-size="12.8453" font-family="Helvetica">60</text>
<text xml:space="preserve" x="435.471" y="372.251" fill="black" font-size="12.8453" font-family="Helvetica">Entries / Time</text>
<path d="M57.1929,346.022v -307.575" fill="none" stroke="black"/>
<path d="M70.7992,346.022h -13.6063" fill="none" stroke="black"/>
<path d="M63.9961,334.38h -6.80315" fill="none" stroke="black"/>
<path d="M63.9961,322.737h -6.80315" fill="none" stroke="black"/>
<path d="M63.9961,311.095h -6.80315" fill="none" stroke="black"/>
<path d="M63.9961,299.453h -6.80315" fill="none" stroke="black"/>
<path d="M70.7992,287.81h -13.6063" fill="none" stroke="black"/>
<path d="M63.9961,276.168h -6.80315" fill="none" stroke="black"/>
<path d="M63.9961,264.525h -6.80315" fill="none" stroke="black"/>
<path d="M63.9961,252.883h -6.80315" fill="none" stroke="black"/>
<path d="M63.9961,241.241h -6.80315" fill="none" stroke="black"/>
<path d="M70.7992,229.598h -13.6063" fill="none" stroke="black"/>
<path d="M63.9961,217.956h -6.80315" fill="none" stroke="black"/>
<path d="M63.9961,206.313h -6.80315" fill="none" stroke="black"/>
<path d="M63.9961,194.671h -6.80315" fill="none" stroke="black"/>
<path d="M63.9961,183.029h -6.80315" fill="none" stroke="black"/>
<path d="M70.7992,171.386h -13.6063" fill="none" stroke="black"/>
<path d="M63.9961,159.744h -6.80315" fill="none" stroke="black"/>
<path d="M63.9961,148.101h -6.80315" fill="none" stroke="black"/>
<path d="M63.9961,136.459h -6.80315" fill="none" stroke="black"/>
<path d="M63.9961,124.816h -6.80315" fill="none" stroke="black"/>
<path d="M70.7992,113.174h -13.6063" fill="none" stroke="black"/>
<path d="M63.9961,101.532h -6.80315" fill="none" stroke="black"/>
<path d="M63.9961,89.8893h -6.80315" fill="none" stroke="black"/>
<path d="M63.9961,78.2469h -6.80315" fill="none" stroke="black"/>
<path d="M63.9961,66.6045h -6.80315" fill="none" stroke="black"/>
<path d="M70.7992,54.962h -13.6063" fill="none" stroke="black"/>
<path d="M70.7992,54.962h -13.6063" fill="none" stroke="black"/>
<path d="M63.9961,43.3196h -6.80315" fill="none" stroke="black"/>
<text xml:space="preserve" x="47.7441" y="350.258" fill="black" font-size="12.8453" font-family="Helvetica">0</text>
<text xml:space="preserve" x="25.7512" y="292.425" fill="black" font-size="12.8453" font-family="Helvetica">0.001</text>
<text xml:space="preserve" x="24.122" y="233.777" fill="black" font-size="12.8453" font-family="Helvetica">0.002</text>
<text xml:space="preserve" x="24.122" y="175.944" fill="black" font-size="12.8453" font-family="Helvetica">0.003</text>
<text xml:space="preserve" x="24.122" y="117.296" fill="black" font-size="12.8453" font-family="Helvetica">0.004</text>
<text xml:space="preserve" x="24.122" y="59.4624" fill="black" font-size="12.8453" font-family="Helvetica">0.005</text>
<g transform="rotate(-90,11.0892,70.0516)">
<text xml:space="preserve" x="11.0892" y="70.0516" fill="black" font-size="12.8453" font-family="Helvetica">Event</text>
</g>
<text xml:space="preserve" x="221.244" y="17.9202" fill="black" font-size="18.7938" font-family="Helvetica">Am_alpha_002</text>
<rect x="442.705" y="24.9905" width="113.386" height="76.8938" fill="white"/>
<path d="M442.705,101.884h 113.386" fill="none" stroke="black"/>
<path d="M556.091,101.884v -76.8938" fill="none" stroke="black"/>
<path d="M556.091,24.9905h -113.386" fill="none" stroke="black"/>
<path d="M442.705,24.9905v 76.8938" fill="none" stroke="black"/>
<text xml:space="preserve" x="446.875" y="38.284" fill="black" font-size="15.4634" font-family="Helvetica">Am_alpha_002</text>
<path d="M442.705,44.214h 113.386" fill="none" stroke="black"/>
<text xml:space="preserve" x="447.69" y="58.6478" fill="black" font-size="13.0107" font-family="Helvetica">Entries </text>
<text xml:space="preserve" x="517.741" y="58.6478" fill="black" font-size="13.0107" font-family="Helvetica"> 2090</text>
<text xml:space="preserve" x="447.69" y="77.3826" fill="black" font-size="13.0107" font-family="Helvetica">Mean  </text>
<text xml:space="preserve" x="512.854" y="77.3826" fill="black" font-size="13.0107" font-family="Helvetica">  20.31</text>
<text xml:space="preserve" x="447.69" y="96.9318" fill="black" font-size="13.0107" font-family="Helvetica">Std Dev   </text>
<text xml:space="preserve" x="510.41" y="96.9318" fill="black" font-size="13.0107" font-family="Helvetica">  3.422</text>
<text xml:space="preserve" x="221.244" y="17.9202" fill="black" font-size="18.7938" font-family="Helvetica">Am_alpha_002</text></svg>
