<?xml version="1.0" standalone="no"?>
<svg width="567.429" height="384.68" viewBox="0 0 567.429 384.68" xmlns="http://www.w3.org/2000/svg" shape-rendering="crispEdges">
<title>
img/week2/standardizedByTimeAm_alpha_001Hist.svg
</title>
<desc>
Creator: ROOT Version 6.22/09
CreationDate: Tue Jul 13 18:42:24 2021</desc>
<defs>
</defs>
<rect x="0.5" y="0" width="566.929" height="384.18" fill="white"/>
<rect x="57.1929" y="38.418" width="453.543" height="307.344" fill="white"/>
<rect x="57.1929" y="38.418" width="453.543" height="307.344" fill="none" stroke="black"/>
<path d="M57.1929,345.762h 48.521v -3.08114h 0.510747v 3.08114h 1.02149v -3.08114h 0.510747v 3.08114h 1.02149v -9.24342h 0.510747v 9.24342h 0.510747v -3.08114h 1.02149v -3.08114h 0.510747v 3.08114h 0.510747v 3.08114h 1.02149v -3.08114h 0.510747v
 3.08114h 1.02149v -3.08114h 1.02149v 3.08114h 0.510747v -3.08114h 0.510747v 3.08114h 0.510747v -6.16228h 1.02149v -3.08114h 1.02149v 6.16228h 0.510747v -15.4057h 0.510747v 9.24342h 0.510747v 6.16228h 1.02149v -3.08114h 0.510747v -9.24342h 0.510747v
 12.3246h 0.510747v -6.16228h 0.510747v 3.08114h 0.510747v -6.16228h 0.510747v 3.08114h 0.510747v 3.08114h 0.510747v -12.3246h 0.510747v 6.16228h 0.510747v 6.16228h 0.510747v 3.08114h 0.510747v -3.08114h 0.510747v -12.3246h 0.510747v 12.3246h
 0.510747v -6.16228h 0.510747v 6.16228h 2.04299v 3.08114h 0.510747v -15.4057h 0.510747v 9.24342h 0.510747v -6.16228h 1.02149v 3.08114h 0.510747v 3.08114h 0.510747v 3.08114h 0.510747v 3.08114h 0.510747v -21.568h 1.02149v 6.16228h 0.510747v 3.08114h
 0.510747v -6.16228h 0.510747v -18.4868h 0.510747v 12.3246h 0.510747v 3.08114h 0.510747v -6.16228h 0.510747v 9.24342h 0.510747v -9.24342h 0.510747v 15.4057h 0.510747v -21.568h 0.510747v -6.16228h 0.510747v 18.4868h 0.510747v -3.08114h 1.02149v
 -15.4057h 0.510747v -12.3246h 0.510747v 3.08114h 0.510747v 9.24342h 0.510747v -27.7303h 0.510747v 33.8926h 0.510747v -30.8114h 0.510747v -12.3246h 1.02149v -21.568h 0.510747v -15.4057h 0.510747v -3.08114h 0.510747v 30.8114h 0.510747v -21.568h
 0.510747v -18.4868h 0.510747v -61.6228h 0.510747v 58.5417h 0.510747v 18.4868h 0.510747v -67.7851h 1.02149v 3.08114h 0.510747v -49.2983h 0.510747v 3.08114h 0.510747v 9.24342h 0.510747v 33.8926h 0.510747v -6.16228h 0.510747v -77.0285h 0.510747v
 21.568h 0.510747v -18.4868h 0.510747v 58.5417h 0.510747v -61.6228h 0.510747v -27.7303h 0.510747v 18.4868h 0.510747v 15.4057h 0.510747v -12.3246h 0.510747v 15.4057h 0.510747v 18.4868h 0.510747v -6.16228h 0.510747v -18.4868h 0.510747v 64.704h
 0.510747v -36.9737h 0.510747v -6.16228h 0.510747v 12.3246h 0.510747v 43.136h 0.510747v -61.6228h 0.510747v 77.0285h 0.510747v 3.08114h 0.510747v -43.136h 0.510747v 30.8114h 0.510747v -6.16228h 0.510747v 40.0548h 0.510747v -6.16228h 0.510747v
 -12.3246h 0.510747v -12.3246h 0.510747v 43.136h 0.510747v -21.568h 0.510747v 30.8114h 0.510747v 12.3246h 0.510747v -33.8926h 0.510747v 12.3246h 0.510747v 30.8114h 0.510747v -9.24342h 0.510747v 12.3246h 0.510747v 9.24342h 0.510747v -3.08114h 1.02149v
 12.3246h 0.510747v -15.4057h 0.510747v 18.4868h 0.510747v -21.568h 0.510747v 43.136h 0.510747v -12.3246h 0.510747v 18.4868h 0.510747v -36.9737h 0.510747v 15.4057h 0.510747v 15.4057h 0.510747v -6.16228h 0.510747v -3.08114h 1.02149v 21.568h 0.510747v
 3.08114h 0.510747v -15.4057h 0.510747v 21.568h 0.510747v -9.24342h 0.510747v 6.16228h 0.510747v -3.08114h 0.510747v 18.4868h 0.510747v -43.136h 0.510747v 36.9737h 1.02149v -3.08114h 0.510747v -9.24342h 0.510747v 12.3246h 1.53224v 6.16228h 0.510747v
 15.4057h 0.510747v -18.4868h 0.510747v 9.24342h 1.02149v -6.16228h 0.510747v 9.24342h 0.510747v -3.08114h 0.510747v -6.16228h 0.510747v 3.08114h 0.510747v 3.08114h 0.510747v 3.08114h 0.510747v 3.08114h 0.510747v -6.16228h 0.510747v 12.3246h 1.02149v
 3.08114h 0.510747v -3.08114h 0.510747v -6.16228h 0.510747v 6.16228h 1.02149v -9.24342h 0.510747v 3.08114h 0.510747v 9.24342h 0.510747v -6.16228h 0.510747v -3.08114h 0.510747v 3.08114h 0.510747v -6.16228h 1.02149v 12.3246h 0.510747v -9.24342h
 0.510747v 6.16228h 1.02149v 3.08114h 0.510747v -3.08114h 1.02149v -3.08114h 0.510747v 3.08114h 2.04299v 3.08114h 0.510747v -3.08114h 1.02149v -6.16228h 0.510747v 9.24342h 1.53224v -6.16228h 0.510747v 3.08114h 1.53224v -3.08114h 0.510747v 6.16228h
 1.53224v -3.08114h 0.510747v 3.08114h 0.510747v -6.16228h 0.510747v 6.16228h 1.53224v -3.08114h 1.53224v 3.08114h 0.510747v -3.08114h 0.510747v 3.08114h 1.53224v -3.08114h 0.510747v 3.08114h 1.02149v -3.08114h 0.510747v -3.08114h 1.02149v 3.08114h
 0.510747v 3.08114h 3.06448v -3.08114h 0.510747v 3.08114h 1.02149v -3.08114h 1.02149v 3.08114h 1.02149v -3.08114h 0.510747v 3.08114h 2.55373v -3.08114h 0.510747v 3.08114h 0.510747v -3.08114h 0.510747v -9.24342h 0.510747v 12.3246h 0.510747v -3.08114h
 0.510747v 3.08114h 0.510747v -3.08114h 0.510747v 3.08114h 0.510747v -3.08114h 1.02149v 3.08114h 1.53224v -3.08114h 1.02149v 3.08114h 0.510747v -3.08114h 0.510747v 3.08114h 1.02149v -6.16228h 0.510747v 3.08114h 0.510747v 3.08114h 0.510747v -3.08114h
 1.02149v -3.08114h 0.510747v 3.08114h 1.02149v 3.08114h 0.510747v -6.16228h 0.510747v 6.16228h 0.510747v -3.08114h 0.510747v 3.08114h 3.06448v -3.08114h 1.02149v 3.08114h 1.02149v -3.08114h 1.53224v 3.08114h 1.53224v -3.08114h 0.510747v 3.08114h
 0.510747v -3.08114h 0.510747v 3.08114h 0.510747v -6.16228h 0.510747v 6.16228h 1.02149v -3.08114h 0.510747v -6.16228h 0.510747v 9.24342h 1.02149v -6.16228h 0.510747v 6.16228h 0.510747v -9.24342h 0.510747v 6.16228h 0.510747v 3.08114h 0.510747v
 -3.08114h 0.510747v 3.08114h 0.510747v -3.08114h 0.510747v 3.08114h 1.53224v -12.3246h 0.510747v 9.24342h 1.02149v 3.08114h 1.02149v -3.08114h 1.02149v 3.08114h 1.53224v -3.08114h 0.510747v 3.08114h 2.04299v -3.08114h 0.510747v 3.08114h 6.63971v
 -3.08114h 1.02149v 3.08114h 2.55373v -3.08114h 0.510747v 3.08114h 7.6612v -3.08114h 0.510747v 3.08114h 7.6612v -3.08114h 0.510747v 3.08114h 32.6878v -3.08114h 0.510747v 3.08114h 3.06448v -3.08114h 0.510747v 3.08114h 3.57523v -3.08114h 0.510747v
 3.08114h 56.1822v -3.08114h 0.510747v 3.08114h 0.510747v -3.08114h 0.510747v 3.08114h 9.70419v -3.08114h 0.510747v 3.08114h 53.1177v -3.08114h 0.510747v 3.08114h 34.22v -3.08114h 0.510747" fill="none" stroke="#000099"/>
<path d="M57.1929,345.762h 453.543" fill="none" stroke="black"/>
<path d="M57.7037,336.541v 9.22031" fill="none" stroke="black"/>
<path d="M68.1638,341.152v 4.61016" fill="none" stroke="black"/>
<path d="M78.6239,341.152v 4.61016" fill="none" stroke="black"/>
<path d="M89.084,341.152v 4.61016" fill="none" stroke="black"/>
<path d="M99.5441,341.152v 4.61016" fill="none" stroke="black"/>
<path d="M110.004,336.541v 9.22031" fill="none" stroke="black"/>
<path d="M120.464,341.152v 4.61016" fill="none" stroke="black"/>
<path d="M130.924,341.152v 4.61016" fill="none" stroke="black"/>
<path d="M141.384,341.152v 4.61016" fill="none" stroke="black"/>
<path d="M151.845,341.152v 4.61016" fill="none" stroke="black"/>
<path d="M162.305,336.541v 9.22031" fill="none" stroke="black"/>
<path d="M172.765,341.152v 4.61016" fill="none" stroke="black"/>
<path d="M183.225,341.152v 4.61016" fill="none" stroke="black"/>
<path d="M193.685,341.152v 4.61016" fill="none" stroke="black"/>
<path d="M204.145,341.152v 4.61016" fill="none" stroke="black"/>
<path d="M214.605,336.541v 9.22031" fill="none" stroke="black"/>
<path d="M225.065,341.152v 4.61016" fill="none" stroke="black"/>
<path d="M235.525,341.152v 4.61016" fill="none" stroke="black"/>
<path d="M245.985,341.152v 4.61016" fill="none" stroke="black"/>
<path d="M256.446,341.152v 4.61016" fill="none" stroke="black"/>
<path d="M266.906,336.541v 9.22031" fill="none" stroke="black"/>
<path d="M277.366,341.152v 4.61016" fill="none" stroke="black"/>
<path d="M287.826,341.152v 4.61016" fill="none" stroke="black"/>
<path d="M298.286,341.152v 4.61016" fill="none" stroke="black"/>
<path d="M308.746,341.152v 4.61016" fill="none" stroke="black"/>
<path d="M319.206,336.541v 9.22031" fill="none" stroke="black"/>
<path d="M329.666,341.152v 4.61016" fill="none" stroke="black"/>
<path d="M340.126,341.152v 4.61016" fill="none" stroke="black"/>
<path d="M350.586,341.152v 4.61016" fill="none" stroke="black"/>
<path d="M361.047,341.152v 4.61016" fill="none" stroke="black"/>
<path d="M371.507,336.541v 9.22031" fill="none" stroke="black"/>
<path d="M381.967,341.152v 4.61016" fill="none" stroke="black"/>
<path d="M392.427,341.152v 4.61016" fill="none" stroke="black"/>
<path d="M402.887,341.152v 4.61016" fill="none" stroke="black"/>
<path d="M413.347,341.152v 4.61016" fill="none" stroke="black"/>
<path d="M423.807,336.541v 9.22031" fill="none" stroke="black"/>
<path d="M434.267,341.152v 4.61016" fill="none" stroke="black"/>
<path d="M444.727,341.152v 4.61016" fill="none" stroke="black"/>
<path d="M455.187,341.152v 4.61016" fill="none" stroke="black"/>
<path d="M465.647,341.152v 4.61016" fill="none" stroke="black"/>
<path d="M476.108,336.541v 9.22031" fill="none" stroke="black"/>
<path d="M57.7037,336.541v 9.22031" fill="none" stroke="black"/>
<path d="M476.108,336.541v 9.22031" fill="none" stroke="black"/>
<path d="M486.568,341.152v 4.61016" fill="none" stroke="black"/>
<path d="M497.028,341.152v 4.61016" fill="none" stroke="black"/>
<path d="M507.488,341.152v 4.61016" fill="none" stroke="black"/>
<text xml:space="preserve" x="54.1065" y="358.189" fill="black" font-size="12.836" font-family="Helvetica">0</text>
<text xml:space="preserve" x="102.84" y="358.189" fill="black" font-size="12.836" font-family="Helvetica">10</text>
<text xml:space="preserve" x="155.634" y="358.189" fill="black" font-size="12.836" font-family="Helvetica">20</text>
<text xml:space="preserve" x="207.616" y="358.189" fill="black" font-size="12.836" font-family="Helvetica">30</text>
<text xml:space="preserve" x="259.598" y="358.189" fill="black" font-size="12.836" font-family="Helvetica">40</text>
<text xml:space="preserve" x="312.392" y="358.189" fill="black" font-size="12.836" font-family="Helvetica">50</text>
<text xml:space="preserve" x="364.374" y="358.189" fill="black" font-size="12.836" font-family="Helvetica">60</text>
<text xml:space="preserve" x="417.169" y="358.189" fill="black" font-size="12.836" font-family="Helvetica">70</text>
<text xml:space="preserve" x="469.151" y="358.189" fill="black" font-size="12.836" font-family="Helvetica">80</text>
<text xml:space="preserve" x="435.85" y="371.996" fill="black" font-size="12.836" font-family="Helvetica">Entries / Time</text>
<path d="M57.1929,345.762v -307.344" fill="none" stroke="black"/>
<path d="M70.7992,345.762h -13.6063" fill="none" stroke="black"/>
<path d="M63.9961,334.596h -6.80315" fill="none" stroke="black"/>
<path d="M63.9961,323.43h -6.80315" fill="none" stroke="black"/>
<path d="M63.9961,312.264h -6.80315" fill="none" stroke="black"/>
<path d="M63.9961,301.098h -6.80315" fill="none" stroke="black"/>
<path d="M70.7992,289.932h -13.6063" fill="none" stroke="black"/>
<path d="M63.9961,278.765h -6.80315" fill="none" stroke="black"/>
<path d="M63.9961,267.599h -6.80315" fill="none" stroke="black"/>
<path d="M63.9961,256.433h -6.80315" fill="none" stroke="black"/>
<path d="M63.9961,245.267h -6.80315" fill="none" stroke="black"/>
<path d="M70.7992,234.101h -13.6063" fill="none" stroke="black"/>
<path d="M63.9961,222.935h -6.80315" fill="none" stroke="black"/>
<path d="M63.9961,211.769h -6.80315" fill="none" stroke="black"/>
<path d="M63.9961,200.603h -6.80315" fill="none" stroke="black"/>
<path d="M63.9961,189.437h -6.80315" fill="none" stroke="black"/>
<path d="M70.7992,178.271h -13.6063" fill="none" stroke="black"/>
<path d="M63.9961,167.105h -6.80315" fill="none" stroke="black"/>
<path d="M63.9961,155.939h -6.80315" fill="none" stroke="black"/>
<path d="M63.9961,144.773h -6.80315" fill="none" stroke="black"/>
<path d="M63.9961,133.607h -6.80315" fill="none" stroke="black"/>
<path d="M70.7992,122.441h -13.6063" fill="none" stroke="black"/>
<path d="M63.9961,111.275h -6.80315" fill="none" stroke="black"/>
<path d="M63.9961,100.109h -6.80315" fill="none" stroke="black"/>
<path d="M63.9961,88.9425h -6.80315" fill="none" stroke="black"/>
<path d="M63.9961,77.7765h -6.80315" fill="none" stroke="black"/>
<path d="M70.7992,66.6104h -13.6063" fill="none" stroke="black"/>
<path d="M70.7992,66.6104h -13.6063" fill="none" stroke="black"/>
<path d="M63.9961,55.4444h -6.80315" fill="none" stroke="black"/>
<path d="M63.9961,44.2783h -6.80315" fill="none" stroke="black"/>
<text xml:space="preserve" x="47.6087" y="350.067" fill="black" font-size="12.836" font-family="Helvetica">0</text>
<text xml:space="preserve" x="24.0544" y="294.023" fill="black" font-size="12.836" font-family="Helvetica">0.005</text>
<text xml:space="preserve" x="32.1766" y="238.793" fill="black" font-size="12.836" font-family="Helvetica">0.01</text>
<text xml:space="preserve" x="24.0544" y="182.749" fill="black" font-size="12.836" font-family="Helvetica">0.015</text>
<text xml:space="preserve" x="30.5521" y="126.706" fill="black" font-size="12.836" font-family="Helvetica">0.02</text>
<text xml:space="preserve" x="24.0544" y="71.4753" fill="black" font-size="12.836" font-family="Helvetica">0.025</text>
<g transform="rotate(-90,11.0589,69.8509)">
<text xml:space="preserve" x="11.0589" y="69.8509" fill="black" font-size="12.836" font-family="Helvetica">Event</text>
</g>
<text xml:space="preserve" x="223.048" y="17.8688" fill="black" font-size="18.7414" font-family="Helvetica">Am_alpha_001</text>
<rect x="442.705" y="24.9717" width="113.386" height="76.836" fill="white"/>
<path d="M442.705,101.808h 113.386" fill="none" stroke="black"/>
<path d="M556.091,101.808v -76.836" fill="none" stroke="black"/>
<path d="M556.091,24.9717h -113.386" fill="none" stroke="black"/>
<path d="M442.705,24.9717v 76.836" fill="none" stroke="black"/>
<text xml:space="preserve" x="448.845" y="38.1743" fill="black" font-size="15.8013" font-family="Helvetica">Am_alpha_001</text>
<path d="M442.705,44.1807h 113.386" fill="none" stroke="black"/>
<text xml:space="preserve" x="448.033" y="58.4798" fill="black" font-size="13.0344" font-family="Helvetica">Entries </text>
<text xml:space="preserve" x="517.884" y="58.4798" fill="black" font-size="13.0344" font-family="Helvetica"> 5510</text>
<text xml:space="preserve" x="448.033" y="77.1608" fill="black" font-size="13.0344" font-family="Helvetica">Mean  </text>
<text xml:space="preserve" x="510.574" y="77.1608" fill="black" font-size="13.0344" font-family="Helvetica">  20.84</text>
<text xml:space="preserve" x="448.033" y="96.6541" fill="black" font-size="13.0344" font-family="Helvetica">Std Dev   </text>
<text xml:space="preserve" x="510.574" y="96.6541" fill="black" font-size="13.0344" font-family="Helvetica">  4.159</text>
<text xml:space="preserve" x="223.048" y="17.8688" fill="black" font-size="18.7414" font-family="Helvetica">Am_alpha_001</text></svg>
