<?xml version="1.0" standalone="no"?>
<svg width="567.429" height="384.969" viewBox="0 0 567.429 384.969" xmlns="http://www.w3.org/2000/svg" shape-rendering="crispEdges">
<title>
img/week2/standardizedByTimeAm_alpha_001Hist.svg
</title>
<desc>
Creator: ROOT Version 6.22/09
CreationDate: Mon Jul 12 17:00:57 2021</desc>
<defs>
</defs>
<rect x="0.5" y="0" width="566.929" height="384.469" fill="white"/>
<rect x="57.1929" y="38.4469" width="453.543" height="307.575" fill="white"/>
<rect x="57.1929" y="38.4469" width="453.543" height="307.575" fill="none" stroke="black"/>
<path d="M57.1929,346.022h 48.521v -3.08346h 0.510747v 3.08346h 1.02149v -3.08346h 0.510747v 3.08346h 1.02149v -9.25039h 0.510747v 9.25039h 0.510747v -3.08346h 1.02149v -3.08346h 0.510747v 3.08346h 0.510747v 3.08346h 1.02149v -3.08346h 0.510747v
 3.08346h 1.02149v -3.08346h 1.02149v 3.08346h 0.510747v -3.08346h 0.510747v 3.08346h 0.510747v -6.16692h 1.02149v -3.08346h 1.02149v 6.16692h 0.510747v -15.4173h 0.510747v 9.25039h 0.510747v 6.16692h 1.02149v -3.08346h 0.510747v -9.25039h 0.510747v
 12.3338h 0.510747v -6.16692h 0.510747v 3.08346h 0.510747v -6.16692h 0.510747v 3.08346h 0.510747v 3.08346h 0.510747v -12.3338h 0.510747v 6.16692h 0.510747v 6.16692h 0.510747v 3.08346h 0.510747v -3.08346h 0.510747v -12.3338h 0.510747v 12.3338h
 0.510747v -6.16692h 0.510747v 6.16692h 2.04299v 3.08346h 0.510747v -15.4173h 0.510747v 9.25039h 0.510747v -6.16692h 1.02149v 3.08346h 0.510747v 3.08346h 0.510747v 3.08346h 0.510747v 3.08346h 0.510747v -21.5842h 1.02149v 6.16692h 0.510747v 3.08346h
 0.510747v -6.16692h 0.510747v -18.5008h 0.510747v 12.3338h 0.510747v 3.08346h 0.510747v -6.16692h 0.510747v 9.25039h 0.510747v -9.25039h 0.510747v 15.4173h 0.510747v -21.5842h 0.510747v -6.16692h 0.510747v 18.5008h 0.510747v -3.08346h 1.02149v
 -15.4173h 0.510747v -12.3338h 0.510747v 3.08346h 0.510747v 9.25039h 0.510747v -27.7512h 0.510747v 33.9181h 0.510747v -30.8346h 0.510747v -12.3338h 1.02149v -21.5842h 0.510747v -15.4173h 0.510747v -3.08346h 0.510747v 30.8346h 0.510747v -21.5842h
 0.510747v -18.5008h 0.510747v -61.6692h 0.510747v 58.5858h 0.510747v 18.5008h 0.510747v -67.8362h 1.02149v 3.08346h 0.510747v -49.3354h 0.510747v 3.08346h 0.510747v 9.25039h 0.510747v 33.9181h 0.510747v -6.16692h 0.510747v -77.0865h 0.510747v
 21.5842h 0.510747v -18.5008h 0.510747v 58.5858h 0.510747v -61.6692h 0.510747v -27.7512h 0.510747v 18.5008h 0.510747v 15.4173h 0.510747v -12.3338h 0.510747v 15.4173h 0.510747v 18.5008h 0.510747v -6.16692h 0.510747v -18.5008h 0.510747v 64.7527h
 0.510747v -37.0015h 0.510747v -6.16692h 0.510747v 12.3338h 0.510747v 43.1685h 0.510747v -61.6692h 0.510747v 77.0865h 0.510747v 3.08346h 0.510747v -43.1685h 0.510747v 30.8346h 0.510747v -6.16692h 0.510747v 40.085h 0.510747v -6.16692h 0.510747v
 -12.3338h 0.510747v -12.3338h 0.510747v 43.1685h 0.510747v -21.5842h 0.510747v 30.8346h 0.510747v 12.3338h 0.510747v -33.9181h 0.510747v 12.3338h 0.510747v 30.8346h 0.510747v -9.25039h 0.510747v 12.3338h 0.510747v 9.25039h 0.510747v -3.08346h
 1.02149v 12.3338h 0.510747v -15.4173h 0.510747v 18.5008h 0.510747v -21.5842h 0.510747v 43.1685h 0.510747v -12.3338h 0.510747v 18.5008h 0.510747v -37.0015h 0.510747v 15.4173h 0.510747v 15.4173h 0.510747v -6.16692h 0.510747v -3.08346h 1.02149v
 21.5842h 0.510747v 3.08346h 0.510747v -15.4173h 0.510747v 21.5842h 0.510747v -9.25039h 0.510747v 6.16692h 0.510747v -3.08346h 0.510747v 18.5008h 0.510747v -43.1685h 0.510747v 37.0015h 1.02149v -3.08346h 0.510747v -9.25039h 0.510747v 12.3338h
 1.53224v 6.16692h 0.510747v 15.4173h 0.510747v -18.5008h 0.510747v 9.25039h 1.02149v -6.16692h 0.510747v 9.25039h 0.510747v -3.08346h 0.510747v -6.16692h 0.510747v 3.08346h 0.510747v 3.08346h 0.510747v 3.08346h 0.510747v 3.08346h 0.510747v -6.16692h
 0.510747v 12.3338h 1.02149v 3.08346h 0.510747v -3.08346h 0.510747v -6.16692h 0.510747v 6.16692h 1.02149v -9.25039h 0.510747v 3.08346h 0.510747v 9.25039h 0.510747v -6.16692h 0.510747v -3.08346h 0.510747v 3.08346h 0.510747v -6.16692h 1.02149v 12.3338h
 0.510747v -9.25039h 0.510747v 6.16692h 1.02149v 3.08346h 0.510747v -3.08346h 1.02149v -3.08346h 0.510747v 3.08346h 2.04299v 3.08346h 0.510747v -3.08346h 1.02149v -6.16692h 0.510747v 9.25039h 1.53224v -6.16692h 0.510747v 3.08346h 1.53224v -3.08346h
 0.510747v 6.16692h 1.53224v -3.08346h 0.510747v 3.08346h 0.510747v -6.16692h 0.510747v 6.16692h 1.53224v -3.08346h 1.53224v 3.08346h 0.510747v -3.08346h 0.510747v 3.08346h 1.53224v -3.08346h 0.510747v 3.08346h 1.02149v -3.08346h 0.510747v -3.08346h
 1.02149v 3.08346h 0.510747v 3.08346h 3.06448v -3.08346h 0.510747v 3.08346h 1.02149v -3.08346h 1.02149v 3.08346h 1.02149v -3.08346h 0.510747v 3.08346h 2.55373v -3.08346h 0.510747v 3.08346h 0.510747v -3.08346h 0.510747v -9.25039h 0.510747v 12.3338h
 0.510747v -3.08346h 0.510747v 3.08346h 0.510747v -3.08346h 0.510747v 3.08346h 0.510747v -3.08346h 1.02149v 3.08346h 1.53224v -3.08346h 1.02149v 3.08346h 0.510747v -3.08346h 0.510747v 3.08346h 1.02149v -6.16692h 0.510747v 3.08346h 0.510747v 3.08346h
 0.510747v -3.08346h 1.02149v -3.08346h 0.510747v 3.08346h 1.02149v 3.08346h 0.510747v -6.16692h 0.510747v 6.16692h 0.510747v -3.08346h 0.510747v 3.08346h 3.06448v -3.08346h 1.02149v 3.08346h 1.02149v -3.08346h 1.53224v 3.08346h 1.53224v -3.08346h
 0.510747v 3.08346h 0.510747v -3.08346h 0.510747v 3.08346h 0.510747v -6.16692h 0.510747v 6.16692h 1.02149v -3.08346h 0.510747v -6.16692h 0.510747v 9.25039h 1.02149v -6.16692h 0.510747v 6.16692h 0.510747v -9.25039h 0.510747v 6.16692h 0.510747v
 3.08346h 0.510747v -3.08346h 0.510747v 3.08346h 0.510747v -3.08346h 0.510747v 3.08346h 1.53224v -12.3338h 0.510747v 9.25039h 1.02149v 3.08346h 1.02149v -3.08346h 1.02149v 3.08346h 1.53224v -3.08346h 0.510747v 3.08346h 2.04299v -3.08346h 0.510747v
 3.08346h 6.63971v -3.08346h 1.02149v 3.08346h 2.55373v -3.08346h 0.510747v 3.08346h 7.6612v -3.08346h 0.510747v 3.08346h 7.6612v -3.08346h 0.510747v 3.08346h 32.6878v -3.08346h 0.510747v 3.08346h 3.06448v -3.08346h 0.510747v 3.08346h 3.57523v
 -3.08346h 0.510747v 3.08346h 56.1822v -3.08346h 0.510747v 3.08346h 0.510747v -3.08346h 0.510747v 3.08346h 9.70419v -3.08346h 0.510747v 3.08346h 53.1177v -3.08346h 0.510747v 3.08346h 34.22v -3.08346h 0.510747" fill="none" stroke="#000099"/>
<path d="M57.1929,346.022h 453.543" fill="none" stroke="black"/>
<path d="M57.7037,336.795v 9.22726" fill="none" stroke="black"/>
<path d="M68.1638,341.409v 4.61363" fill="none" stroke="black"/>
<path d="M78.6239,341.409v 4.61363" fill="none" stroke="black"/>
<path d="M89.084,341.409v 4.61363" fill="none" stroke="black"/>
<path d="M99.5441,341.409v 4.61363" fill="none" stroke="black"/>
<path d="M110.004,336.795v 9.22726" fill="none" stroke="black"/>
<path d="M120.464,341.409v 4.61363" fill="none" stroke="black"/>
<path d="M130.924,341.409v 4.61363" fill="none" stroke="black"/>
<path d="M141.384,341.409v 4.61363" fill="none" stroke="black"/>
<path d="M151.845,341.409v 4.61363" fill="none" stroke="black"/>
<path d="M162.305,336.795v 9.22726" fill="none" stroke="black"/>
<path d="M172.765,341.409v 4.61363" fill="none" stroke="black"/>
<path d="M183.225,341.409v 4.61363" fill="none" stroke="black"/>
<path d="M193.685,341.409v 4.61363" fill="none" stroke="black"/>
<path d="M204.145,341.409v 4.61363" fill="none" stroke="black"/>
<path d="M214.605,336.795v 9.22726" fill="none" stroke="black"/>
<path d="M225.065,341.409v 4.61363" fill="none" stroke="black"/>
<path d="M235.525,341.409v 4.61363" fill="none" stroke="black"/>
<path d="M245.985,341.409v 4.61363" fill="none" stroke="black"/>
<path d="M256.446,341.409v 4.61363" fill="none" stroke="black"/>
<path d="M266.906,336.795v 9.22726" fill="none" stroke="black"/>
<path d="M277.366,341.409v 4.61363" fill="none" stroke="black"/>
<path d="M287.826,341.409v 4.61363" fill="none" stroke="black"/>
<path d="M298.286,341.409v 4.61363" fill="none" stroke="black"/>
<path d="M308.746,341.409v 4.61363" fill="none" stroke="black"/>
<path d="M319.206,336.795v 9.22726" fill="none" stroke="black"/>
<path d="M329.666,341.409v 4.61363" fill="none" stroke="black"/>
<path d="M340.126,341.409v 4.61363" fill="none" stroke="black"/>
<path d="M350.586,341.409v 4.61363" fill="none" stroke="black"/>
<path d="M361.047,341.409v 4.61363" fill="none" stroke="black"/>
<path d="M371.507,336.795v 9.22726" fill="none" stroke="black"/>
<path d="M381.967,341.409v 4.61363" fill="none" stroke="black"/>
<path d="M392.427,341.409v 4.61363" fill="none" stroke="black"/>
<path d="M402.887,341.409v 4.61363" fill="none" stroke="black"/>
<path d="M413.347,341.409v 4.61363" fill="none" stroke="black"/>
<path d="M423.807,336.795v 9.22726" fill="none" stroke="black"/>
<path d="M434.267,341.409v 4.61363" fill="none" stroke="black"/>
<path d="M444.727,341.409v 4.61363" fill="none" stroke="black"/>
<path d="M455.187,341.409v 4.61363" fill="none" stroke="black"/>
<path d="M465.647,341.409v 4.61363" fill="none" stroke="black"/>
<path d="M476.108,336.795v 9.22726" fill="none" stroke="black"/>
<path d="M57.7037,336.795v 9.22726" fill="none" stroke="black"/>
<path d="M476.108,336.795v 9.22726" fill="none" stroke="black"/>
<path d="M486.568,341.409v 4.61363" fill="none" stroke="black"/>
<path d="M497.028,341.409v 4.61363" fill="none" stroke="black"/>
<path d="M507.488,341.409v 4.61363" fill="none" stroke="black"/>
<text xml:space="preserve" x="54.2605" y="358.403" fill="black" font-size="12.8453" font-family="Helvetica">0</text>
<text xml:space="preserve" x="103.134" y="358.403" fill="black" font-size="12.8453" font-family="Helvetica">10</text>
<text xml:space="preserve" x="155.265" y="358.403" fill="black" font-size="12.8453" font-family="Helvetica">20</text>
<text xml:space="preserve" x="207.397" y="358.403" fill="black" font-size="12.8453" font-family="Helvetica">30</text>
<text xml:space="preserve" x="260.343" y="358.403" fill="black" font-size="12.8453" font-family="Helvetica">40</text>
<text xml:space="preserve" x="312.474" y="358.403" fill="black" font-size="12.8453" font-family="Helvetica">50</text>
<text xml:space="preserve" x="364.605" y="358.403" fill="black" font-size="12.8453" font-family="Helvetica">60</text>
<text xml:space="preserve" x="416.737" y="358.403" fill="black" font-size="12.8453" font-family="Helvetica">70</text>
<text xml:space="preserve" x="468.868" y="358.403" fill="black" font-size="12.8453" font-family="Helvetica">80</text>
<text xml:space="preserve" x="435.471" y="372.251" fill="black" font-size="12.8453" font-family="Helvetica">Entries / Time</text>
<path d="M57.1929,346.022v -307.575" fill="none" stroke="black"/>
<path d="M70.7992,346.022h -13.6063" fill="none" stroke="black"/>
<path d="M63.9961,334.848h -6.80315" fill="none" stroke="black"/>
<path d="M63.9961,323.673h -6.80315" fill="none" stroke="black"/>
<path d="M63.9961,312.499h -6.80315" fill="none" stroke="black"/>
<path d="M63.9961,301.324h -6.80315" fill="none" stroke="black"/>
<path d="M70.7992,290.15h -13.6063" fill="none" stroke="black"/>
<path d="M63.9961,278.975h -6.80315" fill="none" stroke="black"/>
<path d="M63.9961,267.801h -6.80315" fill="none" stroke="black"/>
<path d="M63.9961,256.627h -6.80315" fill="none" stroke="black"/>
<path d="M63.9961,245.452h -6.80315" fill="none" stroke="black"/>
<path d="M70.7992,234.278h -13.6063" fill="none" stroke="black"/>
<path d="M63.9961,223.103h -6.80315" fill="none" stroke="black"/>
<path d="M63.9961,211.929h -6.80315" fill="none" stroke="black"/>
<path d="M63.9961,200.754h -6.80315" fill="none" stroke="black"/>
<path d="M63.9961,189.58h -6.80315" fill="none" stroke="black"/>
<path d="M70.7992,178.405h -13.6063" fill="none" stroke="black"/>
<path d="M63.9961,167.231h -6.80315" fill="none" stroke="black"/>
<path d="M63.9961,156.056h -6.80315" fill="none" stroke="black"/>
<path d="M63.9961,144.882h -6.80315" fill="none" stroke="black"/>
<path d="M63.9961,133.707h -6.80315" fill="none" stroke="black"/>
<path d="M70.7992,122.533h -13.6063" fill="none" stroke="black"/>
<path d="M63.9961,111.358h -6.80315" fill="none" stroke="black"/>
<path d="M63.9961,100.184h -6.80315" fill="none" stroke="black"/>
<path d="M63.9961,89.0095h -6.80315" fill="none" stroke="black"/>
<path d="M63.9961,77.8351h -6.80315" fill="none" stroke="black"/>
<path d="M70.7992,66.6606h -13.6063" fill="none" stroke="black"/>
<path d="M70.7992,66.6606h -13.6063" fill="none" stroke="black"/>
<path d="M63.9961,55.4861h -6.80315" fill="none" stroke="black"/>
<path d="M63.9961,44.3117h -6.80315" fill="none" stroke="black"/>
<text xml:space="preserve" x="47.7441" y="350.258" fill="black" font-size="12.8453" font-family="Helvetica">0</text>
<text xml:space="preserve" x="24.122" y="294.868" fill="black" font-size="12.8453" font-family="Helvetica">0.005</text>
<text xml:space="preserve" x="32.2676" y="238.664" fill="black" font-size="12.8453" font-family="Helvetica">0.01</text>
<text xml:space="preserve" x="24.122" y="183.275" fill="black" font-size="12.8453" font-family="Helvetica">0.015</text>
<text xml:space="preserve" x="30.6385" y="127.07" fill="black" font-size="12.8453" font-family="Helvetica">0.02</text>
<text xml:space="preserve" x="24.122" y="70.8661" fill="black" font-size="12.8453" font-family="Helvetica">0.025</text>
<g transform="rotate(-90,11.0892,70.0516)">
<text xml:space="preserve" x="11.0892" y="70.0516" fill="black" font-size="12.8453" font-family="Helvetica">Event</text>
</g>
<text xml:space="preserve" x="222.873" y="17.9202" fill="black" font-size="18.7938" font-family="Helvetica">Am_alpha_001</text>
<rect x="442.705" y="24.9905" width="113.386" height="76.8938" fill="white"/>
<path d="M442.705,101.884h 113.386" fill="none" stroke="black"/>
<path d="M556.091,101.884v -76.8938" fill="none" stroke="black"/>
<path d="M556.091,24.9905h -113.386" fill="none" stroke="black"/>
<path d="M442.705,24.9905v 76.8938" fill="none" stroke="black"/>
<text xml:space="preserve" x="448.504" y="38.284" fill="black" font-size="15.7732" font-family="Helvetica">Am_alpha_001</text>
<path d="M442.705,44.214h 113.386" fill="none" stroke="black"/>
<text xml:space="preserve" x="447.69" y="58.6478" fill="black" font-size="13.0107" font-family="Helvetica">Entries </text>
<text xml:space="preserve" x="517.741" y="58.6478" fill="black" font-size="13.0107" font-family="Helvetica"> 5510</text>
<text xml:space="preserve" x="447.69" y="77.3826" fill="black" font-size="13.0107" font-family="Helvetica">Mean  </text>
<text xml:space="preserve" x="510.41" y="77.3826" fill="black" font-size="13.0107" font-family="Helvetica">  20.84</text>
<text xml:space="preserve" x="447.69" y="96.9318" fill="black" font-size="13.0107" font-family="Helvetica">Std Dev   </text>
<text xml:space="preserve" x="510.41" y="96.9318" fill="black" font-size="13.0107" font-family="Helvetica">  4.159</text>
<text xml:space="preserve" x="222.873" y="17.9202" fill="black" font-size="18.7938" font-family="Helvetica">Am_alpha_001</text></svg>
