<?xml version="1.0" standalone="no"?>
<svg width="567.429" height="384.68" viewBox="0 0 567.429 384.68" xmlns="http://www.w3.org/2000/svg" shape-rendering="crispEdges">
<title>
img/week1/plane_hist/Am_008.svg
</title>
<desc>
Creator: ROOT Version 6.22/09
CreationDate: Tue Jul 13 18:34:52 2021</desc>
<defs>
</defs>
<rect x="0.5" y="0" width="566.929" height="384.18" fill="white"/>
<rect x="57.1929" y="38.418" width="453.543" height="307.344" fill="white"/>
<rect x="57.1929" y="38.418" width="453.543" height="307.344" fill="none" stroke="black"/>
<path d="M57.1929,345.762h 68.6197v -2.12879h 0.653521v -19.1591h 0.653521v -4.25758h 0.653521v 11.7083h 0.653521v 2.12879h 0.653521v -2.12879h 1.30704v 2.12879h 0.653521v -2.12879h 0.653521v 2.12879h 0.653521v 2.12879h 0.653521v -1.06439h 0.653521v
 1.06439h 0.653521v 1.06439h 0.653521v -2.12879h 0.653521v 1.06439h 0.653521v -6.38636h 0.653521v 8.51515h 0.653521v -6.38636h 1.96056v 5.32197h 0.653521v 2.12879h 0.653521v -1.06439h 0.653521v -5.32197h 0.653521v -1.06439h 1.30704v 2.12879h
 0.653521v 1.06439h 0.653521v 1.06439h 0.653521v -3.19318h 0.653521v 5.32197h 0.653521v 1.06439h 0.653521v -2.12879h 0.653521v -3.19318h 0.653521v 1.06439h 0.653521v 1.06439h 0.653521v -2.12879h 0.653521v -2.12879h 0.653521v 2.12879h 0.653521v
 -2.12879h 0.653521v 4.25758h 0.653521v 1.06439h 0.653521v -1.06439h 0.653521v 2.12879h 0.653521v -8.51515h 0.653521v -1.06439h 0.653521v 6.38636h 0.653521v 4.25758h 0.653521v -3.19318h 0.653521v 1.06439h 0.653521v -6.38636h 0.653521v 2.12879h
 0.653521v 4.25758h 0.653521v -3.19318h 0.653521v 1.06439h 0.653521v 2.12879h 0.653521v -7.45076h 1.30704v 5.32197h 0.653521v 1.06439h 0.653521v 5.32197h 0.653521v -5.32197h 0.653521v -1.06439h 0.653521v -3.19318h 0.653521v 2.12879h 0.653521v
 3.19318h 0.653521v -3.19318h 0.653521v -1.06439h 0.653521v 4.25758h 0.653521v -1.06439h 0.653521v -4.25758h 0.653521v 2.12879h 0.653521v 3.19318h 0.653521v 3.19318h 0.653521v -3.19318h 0.653521v -1.06439h 1.30704v -2.12879h 0.653521v 4.25758h
 1.30704v -8.51515h 0.653521v 3.19318h 0.653521v 9.57955h 0.653521v -6.38636h 0.653521v -4.25758h 0.653521v 6.38636h 0.653521v -4.25758h 0.653521v 2.12879h 0.653521v 2.12879h 0.653521v -2.12879h 0.653521v -10.6439h 0.653521v 17.0303h 0.653521v
 -2.12879h 0.653521v -6.38636h 0.653521v -1.06439h 0.653521v 4.25758h 0.653521v 1.06439h 0.653521v -4.25758h 0.653521v 5.32197h 0.653521v -6.38636h 0.653521v -1.06439h 0.653521v 3.19318h 0.653521v 7.45076h 0.653521v -8.51515h 1.30704v 4.25758h
 0.653521v -7.45076h 0.653521v 9.57955h 0.653521v -12.7727h 0.653521v 5.32197h 1.30704v -3.19318h 0.653521v 3.19318h 0.653521v -8.51515h 0.653521v 12.7727h 0.653521v -5.32197h 0.653521v 4.25758h 0.653521v -3.19318h 0.653521v 3.19318h 0.653521v
 -1.06439h 1.30704v -4.25758h 0.653521v 1.06439h 0.653521v 3.19318h 0.653521v -6.38636h 0.653521v 4.25758h 0.653521v -1.06439h 0.653521v -8.51515h 0.653521v 9.57955h 0.653521v -7.45076h 0.653521v 4.25758h 0.653521v -3.19318h 0.653521v 4.25758h
 0.653521v 3.19318h 0.653521v 4.25758h 0.653521v -10.6439h 0.653521v -6.38636h 0.653521v 9.57955h 0.653521v -1.06439h 0.653521v -3.19318h 0.653521v 3.19318h 0.653521v -4.25758h 0.653521v -3.19318h 0.653521v -4.25758h 0.653521v 6.38636h 0.653521v
 -2.12879h 0.653521v 4.25758h 0.653521v 5.32197h 0.653521v -8.51515h 0.653521v 2.12879h 0.653521v 2.12879h 0.653521v -5.32197h 0.653521v -6.38636h 0.653521v 4.25758h 0.653521v 4.25758h 0.653521v -5.32197h 0.653521v 11.7083h 0.653521v -2.12879h
 0.653521v -1.06439h 0.653521v -8.51515h 0.653521v 10.6439h 0.653521v -7.45076h 0.653521v 2.12879h 0.653521v -4.25758h 1.30704v -6.38636h 0.653521v 7.45076h 0.653521v -5.32197h 0.653521v 4.25758h 0.653521v 5.32197h 0.653521v 4.25758h 0.653521v
 -3.19318h 0.653521v -12.7727h 0.653521v -8.51515h 0.653521v 8.51515h 1.30704v -7.45076h 0.653521v 2.12879h 0.653521v 1.06439h 0.653521v 11.7083h 0.653521v -18.0947h 0.653521v -6.38636h 0.653521v 8.51515h 0.653521v 12.7727h 0.653521v -10.6439h
 0.653521v 8.51515h 0.653521v 2.12879h 0.653521v -18.0947h 0.653521v 15.9659h 0.653521v -2.12879h 0.653521v -5.32197h 0.653521v 1.06439h 0.653521v -7.45076h 1.30704v 2.12879h 0.653521v -9.57955h 0.653521v 1.06439h 0.653521v -1.06439h 0.653521v
 19.1591h 0.653521v -14.9015h 0.653521v -5.32197h 1.30704v 3.19318h 0.653521v -4.25758h 0.653521v -3.19318h 0.653521v -9.57955h 0.653521v -7.45076h 0.653521v 31.9318h 0.653521v -4.25758h 0.653521v -4.25758h 0.653521v -14.9015h 0.653521v -10.6439h
 0.653521v 18.0947h 0.653521v 4.25758h 0.653521v -12.7727h 0.653521v -13.8371h 0.653521v 10.6439h 0.653521v 15.9659h 1.30704v -23.4167h 0.653521v -2.12879h 0.653521v 32.9962h 0.653521v -29.803h 0.653521v 23.4167h 0.653521v -8.51515h 0.653521v
 7.45076h 0.653521v 7.45076h 0.653521v -28.7386h 0.653521v 9.57955h 0.653521v 8.51515h 0.653521v 10.6439h 0.653521v 4.25758h 0.653521v -22.3523h 0.653521v 17.0303h 0.653521v -15.9659h 0.653521v 10.6439h 0.653521v -15.9659h 0.653521v 24.4811h
 0.653521v -2.12879h 0.653521v 8.51515h 0.653521v -22.3523h 0.653521v 11.7083h 0.653521v -5.32197h 0.653521v 26.6099h 0.653521v -2.12879h 0.653521v -21.2879h 0.653521v 8.51515h 0.653521v 6.38636h 0.653521v 5.32197h 0.653521v -2.12879h 0.653521v
 -14.9015h 0.653521v 15.9659h 0.653521v -18.0947h 0.653521v 10.6439h 0.653521v 7.45076h 0.653521v -1.06439h 0.653521v -13.8371h 0.653521v 12.7727h 0.653521v -3.19318h 0.653521v 3.19318h 0.653521v -10.6439h 0.653521v 5.32197h 0.653521v -2.12879h
 0.653521v 6.38636h 0.653521v 6.38636h 0.653521v -8.51515h 0.653521v -3.19318h 0.653521v 13.8371h 0.653521v -4.25758h 0.653521v 1.06439h 0.653521v 3.19318h 0.653521v -8.51515h 0.653521v 8.51515h 1.30704v -3.19318h 0.653521v 2.12879h 0.653521v
 -8.51515h 0.653521v 11.7083h 0.653521v -9.57955h 0.653521v 3.19318h 0.653521v -2.12879h 0.653521v 1.06439h 0.653521v 10.6439h 0.653521v -10.6439h 0.653521v -10.6439h 0.653521v 13.8371h 0.653521v -3.19318h 0.653521v 9.57955h 0.653521v -1.06439h
 0.653521v -9.57955h 0.653521v 4.25758h 1.96056v -7.45076h 0.653521v 14.9015h 0.653521v 4.25758h 0.653521v -7.45076h 0.653521v -6.38636h 0.653521v 5.32197h 0.653521v 1.06439h 0.653521v 2.12879h 0.653521v 1.06439h 0.653521v -9.57955h 0.653521v
 2.12879h 0.653521v 14.9015h 0.653521v -12.7727h 0.653521v 9.57955h 0.653521v -5.32197h 0.653521v 2.12879h 0.653521v -4.25758h 0.653521v 5.32197h 0.653521v -5.32197h 0.653521v -1.06439h 0.653521v 4.25758h 0.653521v 3.19318h 0.653521v 12.7727h
 0.653521v -12.7727h 0.653521v -4.25758h 0.653521v 9.57955h 0.653521v -1.06439h 0.653521v -8.51515h 0.653521v 2.12879h 0.653521v 6.38636h 0.653521v 5.32197h 0.653521v -3.19318h 0.653521v -2.12879h 0.653521v -2.12879h 0.653521v 3.19318h 0.653521v
 2.12879h 1.30704v -3.19318h 1.96056v 7.45076h 0.653521v -9.57955h 0.653521v 11.7083h 0.653521v -4.25758h 0.653521v -6.38636h 0.653521v 8.51515h 0.653521v -8.51515h 0.653521v 4.25758h 0.653521v -4.25758h 0.653521v 7.45076h 0.653521v 1.06439h
 0.653521v -2.12879h 0.653521v 3.19318h 0.653521v -6.38636h 0.653521v 1.06439h 0.653521v -2.12879h 0.653521v 6.38636h 0.653521v 2.12879h 0.653521v -4.25758h 0.653521v 1.06439h 0.653521v -5.32197h 0.653521v 6.38636h 0.653521v -10.6439h 0.653521v
 9.57955h 0.653521v 2.12879h 0.653521v -5.32197h 0.653521v -1.06439h 0.653521v 3.19318h 0.653521v -6.38636h 0.653521v 7.45076h 0.653521v -7.45076h 0.653521v 6.38636h 0.653521v -6.38636h 0.653521v 3.19318h 1.30704v 4.25758h 0.653521v 1.06439h
 0.653521v -1.06439h 0.653521v -5.32197h 0.653521v -4.25758h 0.653521v 3.19318h 0.653521v -2.12879h 0.653521v 8.51515h 0.653521v -1.06439h 0.653521v -8.51515h 0.653521v 2.12879h 0.653521v 2.12879h 0.653521v 2.12879h 0.653521v -4.25758h 0.653521v
 2.12879h 0.653521v 5.32197h 0.653521v -6.38636h 0.653521v 1.06439h 0.653521v 5.32197h 0.653521v 2.12879h 0.653521v 1.06439h 1.30704v -10.6439h 0.653521v 1.06439h 0.653521v 3.19318h 0.653521v -4.25758h 0.653521v 7.45076h 0.653521v -2.12879h 0.653521v
 -1.06439h 0.653521v 1.06439h 0.653521v -1.06439h 0.653521v 1.06439h 0.653521v 1.06439h 1.30704v 4.25758h 0.653521v -2.12879h 0.653521v -7.45076h 0.653521v 10.6439h 0.653521v -4.25758h 0.653521v 1.06439h 1.30704v 1.06439h 1.30704v 2.12879h 0.653521v
 -5.32197h 0.653521v 3.19318h 1.30704v 1.06439h 1.30704v -1.06439h 0.653521v 1.06439h 0.653521v -2.12879h 0.653521v 1.06439h 0.653521v 3.19318h 0.653521v -2.12879h 1.30704v 2.12879h 0.653521v -1.06439h 0.653521v 1.06439h 0.653521v -3.19318h 0.653521v
 1.06439h 1.30704v -1.06439h 0.653521v 1.06439h 0.653521v 1.06439h 2.61408v -1.06439h 1.30704v 2.12879h 0.653521v 1.06439h 1.30704v -3.19318h 1.30704v 2.12879h 0.653521v -1.06439h 0.653521v 1.06439h 2.61408v 1.06439h 0.653521v -2.12879h 0.653521v
 2.12879h 0.653521v -2.12879h 0.653521v 1.06439h 1.30704v 1.06439h 1.96056v -1.06439h 1.96056v 1.06439h 0.653521v -1.06439h 0.653521v 1.06439h 0.653521v -3.19318h 0.653521v 3.19318h 1.30704v -1.06439h 1.30704v -2.12879h 0.653521v 2.12879h 0.653521v
 -2.12879h 0.653521v 2.12879h 0.653521v -2.12879h 0.653521v 3.19318h 0.653521v -2.12879h 1.96056v 2.12879h 0.653521v -2.12879h 0.653521v 1.06439h 0.653521v -1.06439h 0.653521v 2.12879h 0.653521v -2.12879h 0.653521v 1.06439h 0.653521v 1.06439h
 1.30704v -3.19318h 0.653521v 1.06439h 0.653521v 1.06439h 1.30704v -3.19318h 0.653521v 4.25758h 0.653521v -1.06439h 1.96056v 1.06439h 0.653521v -1.06439h 0.653521v 1.06439h 0.653521v -3.19318h 0.653521v 1.06439h 0.653521v -1.06439h 0.653521v 3.19318h
 0.653521v -1.06439h 0.653521v -1.06439h 0.653521v -1.06439h 0.653521v 3.19318h 0.653521v -2.12879h 0.653521v 1.06439h 0.653521v 1.06439h 0.653521v -1.06439h 0.653521v -1.06439h 0.653521v 1.06439h 0.653521v 1.06439h 0.653521v -1.06439h 0.653521v
 1.06439h 1.30704v -1.06439h 0.653521v -1.06439h 0.653521v 1.06439h 1.30704v 1.06439h 0.653521v -2.12879h 0.653521v 1.06439h 0.653521v 1.06439h 0.653521v -2.12879h 0.653521v 2.12879h 0.653521v -2.12879h 0.653521v 2.12879h 1.96056v -1.06439h 0.653521v
 1.06439h 0.653521v -1.06439h 1.96056v 1.06439h 0.653521v -1.06439h 0.653521v 1.06439h 1.30704v -1.06439h 0.653521v 1.06439h 2.61408v -1.06439h 0.653521v 1.06439h 1.96056v -2.12879h 0.653521v 2.12879h 0.653521v -2.12879h 1.30704v 2.12879h 0.653521v
 -1.06439h 0.653521v 1.06439h 2.61408v -1.06439h 0.653521v 1.06439h 0.653521v -1.06439h 0.653521v 1.06439h 0.653521v -2.12879h 0.653521v 1.06439h 1.30704v 1.06439h 1.96056v -2.12879h 0.653521v -17.0303h 0.653521v -173.496h 0.653521v -100.053h
 0.653521v 55.3485h 0.653521v 70.25h 0.653521v 42.5758h 0.653521v 38.3182h 0.653521v -12.7727h 0.653521v 32.9962h 0.653521v -8.51515h 1.30704v -25.5455h 0.653521v 25.5455h 0.653521v 29.803h 0.653521v 25.5455h 0.653521v 11.7083h 0.653521v 3.19318h
 0.653521v 1.06439h 0.653521" fill="none" stroke="#000099"/>
<path d="M57.1929,345.762h 453.543" fill="none" stroke="black"/>
<path d="M57.8464,336.541v 9.22031" fill="none" stroke="black"/>
<path d="M79.6305,341.152v 4.61016" fill="none" stroke="black"/>
<path d="M101.414,341.152v 4.61016" fill="none" stroke="black"/>
<path d="M123.199,341.152v 4.61016" fill="none" stroke="black"/>
<path d="M144.983,341.152v 4.61016" fill="none" stroke="black"/>
<path d="M166.767,336.541v 9.22031" fill="none" stroke="black"/>
<path d="M188.551,341.152v 4.61016" fill="none" stroke="black"/>
<path d="M210.335,341.152v 4.61016" fill="none" stroke="black"/>
<path d="M232.119,341.152v 4.61016" fill="none" stroke="black"/>
<path d="M253.903,341.152v 4.61016" fill="none" stroke="black"/>
<path d="M275.687,336.541v 9.22031" fill="none" stroke="black"/>
<path d="M297.471,341.152v 4.61016" fill="none" stroke="black"/>
<path d="M319.255,341.152v 4.61016" fill="none" stroke="black"/>
<path d="M341.039,341.152v 4.61016" fill="none" stroke="black"/>
<path d="M362.823,341.152v 4.61016" fill="none" stroke="black"/>
<path d="M384.607,336.541v 9.22031" fill="none" stroke="black"/>
<path d="M406.391,341.152v 4.61016" fill="none" stroke="black"/>
<path d="M428.175,341.152v 4.61016" fill="none" stroke="black"/>
<path d="M449.959,341.152v 4.61016" fill="none" stroke="black"/>
<path d="M471.743,341.152v 4.61016" fill="none" stroke="black"/>
<path d="M493.527,336.541v 9.22031" fill="none" stroke="black"/>
<path d="M57.8464,336.541v 9.22031" fill="none" stroke="black"/>
<path d="M493.527,336.541v 9.22031" fill="none" stroke="black"/>
<text xml:space="preserve" x="54.1065" y="358.189" fill="black" font-size="12.836" font-family="Helvetica">0</text>
<text xml:space="preserve" x="155.634" y="358.189" fill="black" font-size="12.836" font-family="Helvetica">500</text>
<text xml:space="preserve" x="261.222" y="358.189" fill="black" font-size="12.836" font-family="Helvetica">1000</text>
<text xml:space="preserve" x="370.06" y="358.189" fill="black" font-size="12.836" font-family="Helvetica">1500</text>
<text xml:space="preserve" x="479.709" y="358.189" fill="black" font-size="12.836" font-family="Helvetica">2000</text>
<text xml:space="preserve" x="452.094" y="371.996" fill="black" font-size="12.836" font-family="Helvetica">ADC value</text>
<path d="M57.1929,345.762v -307.344" fill="none" stroke="black"/>
<path d="M70.7992,345.762h -13.6063" fill="none" stroke="black"/>
<path d="M63.9961,335.118h -6.80315" fill="none" stroke="black"/>
<path d="M63.9961,324.474h -6.80315" fill="none" stroke="black"/>
<path d="M63.9961,313.83h -6.80315" fill="none" stroke="black"/>
<path d="M63.9961,303.186h -6.80315" fill="none" stroke="black"/>
<path d="M70.7992,292.542h -13.6063" fill="none" stroke="black"/>
<path d="M63.9961,281.898h -6.80315" fill="none" stroke="black"/>
<path d="M63.9961,271.254h -6.80315" fill="none" stroke="black"/>
<path d="M63.9961,260.61h -6.80315" fill="none" stroke="black"/>
<path d="M63.9961,249.966h -6.80315" fill="none" stroke="black"/>
<path d="M70.7992,239.322h -13.6063" fill="none" stroke="black"/>
<path d="M63.9961,228.678h -6.80315" fill="none" stroke="black"/>
<path d="M63.9961,218.035h -6.80315" fill="none" stroke="black"/>
<path d="M63.9961,207.391h -6.80315" fill="none" stroke="black"/>
<path d="M63.9961,196.747h -6.80315" fill="none" stroke="black"/>
<path d="M70.7992,186.103h -13.6063" fill="none" stroke="black"/>
<path d="M63.9961,175.459h -6.80315" fill="none" stroke="black"/>
<path d="M63.9961,164.815h -6.80315" fill="none" stroke="black"/>
<path d="M63.9961,154.171h -6.80315" fill="none" stroke="black"/>
<path d="M63.9961,143.527h -6.80315" fill="none" stroke="black"/>
<path d="M70.7992,132.883h -13.6063" fill="none" stroke="black"/>
<path d="M63.9961,122.239h -6.80315" fill="none" stroke="black"/>
<path d="M63.9961,111.595h -6.80315" fill="none" stroke="black"/>
<path d="M63.9961,100.951h -6.80315" fill="none" stroke="black"/>
<path d="M63.9961,90.3072h -6.80315" fill="none" stroke="black"/>
<path d="M70.7992,79.6633h -13.6063" fill="none" stroke="black"/>
<path d="M70.7992,79.6633h -13.6063" fill="none" stroke="black"/>
<path d="M63.9961,69.0193h -6.80315" fill="none" stroke="black"/>
<path d="M63.9961,58.3754h -6.80315" fill="none" stroke="black"/>
<path d="M63.9961,47.7314h -6.80315" fill="none" stroke="black"/>
<text xml:space="preserve" x="47.6087" y="350.067" fill="black" font-size="12.836" font-family="Helvetica">0</text>
<text xml:space="preserve" x="41.111" y="297.272" fill="black" font-size="12.836" font-family="Helvetica">50</text>
<text xml:space="preserve" x="33.801" y="243.666" fill="black" font-size="12.836" font-family="Helvetica">100</text>
<text xml:space="preserve" x="33.801" y="190.872" fill="black" font-size="12.836" font-family="Helvetica">150</text>
<text xml:space="preserve" x="33.801" y="137.265" fill="black" font-size="12.836" font-family="Helvetica">200</text>
<text xml:space="preserve" x="33.801" y="84.4708" fill="black" font-size="12.836" font-family="Helvetica">250</text>
<g transform="rotate(-90,20.8055,69.8509)">
<text xml:space="preserve" x="20.8055" y="69.8509" fill="black" font-size="12.836" font-family="Helvetica">Event</text>
</g>
<text xml:space="preserve" x="250.664" y="18.681" fill="black" font-size="17.9813" font-family="Helvetica">Am_008</text>
<rect x="442.705" y="24.9717" width="113.386" height="61.4688" fill="white"/>
<path d="M442.705,86.4405h 113.386" fill="none" stroke="black"/>
<path d="M556.091,86.4405v -61.4688" fill="none" stroke="black"/>
<path d="M556.091,24.9717h -113.386" fill="none" stroke="black"/>
<path d="M442.705,24.9717v 61.4688" fill="none" stroke="black"/>
<text xml:space="preserve" x="474.836" y="36.5499" fill="black" font-size="13.4705" font-family="Helvetica">Am_008</text>
<path d="M442.705,40.3389h 113.386" fill="none" stroke="black"/>
<text xml:space="preserve" x="448.033" y="52.7943" fill="black" font-size="12.7411" font-family="Helvetica">Entries </text>
<text xml:space="preserve" x="513.01" y="52.7943" fill="black" font-size="12.7411" font-family="Helvetica"> 10177</text>
<text xml:space="preserve" x="448.033" y="68.2264" fill="black" font-size="12.7411" font-family="Helvetica">Mean  </text>
<text xml:space="preserve" x="513.01" y="68.2264" fill="black" font-size="12.7411" font-family="Helvetica">   1135</text>
<text xml:space="preserve" x="448.033" y="82.8464" fill="black" font-size="12.7411" font-family="Helvetica">Std Dev   </text>
<text xml:space="preserve" x="517.072" y="82.8464" fill="black" font-size="12.7411" font-family="Helvetica">    470</text>
<text xml:space="preserve" x="250.664" y="18.681" fill="black" font-size="17.9813" font-family="Helvetica">Am_008</text></svg>
