<?xml version="1.0" standalone="no"?>
<svg width="567.429" height="384.969" viewBox="0 0 567.429 384.969" xmlns="http://www.w3.org/2000/svg" shape-rendering="crispEdges">
<title>
img/week1/plane_hist/Am_001.svg
</title>
<desc>
Creator: ROOT Version 6.22/09
CreationDate: Sun Jul 11 17:55:37 2021</desc>
<defs>
</defs>
<rect x="0.5" y="0" width="566.929" height="384.469" fill="white"/>
<rect x="57.1929" y="38.4469" width="453.543" height="307.575" fill="white"/>
<rect x="57.1929" y="38.4469" width="453.543" height="307.575" fill="none" stroke="black"/>
<path d="M57.1929,346.022h 64.1308v -7.38476h 0.661142v -33.2314h 0.661142v -44.3086h 0.661142v -16.0003h 0.661142v 14.7695h 0.661142v -9.84635h 0.661142v 13.5387h 0.661142v -24.6159h 0.661142v -19.6927h 0.661142v -34.4622h 0.661142v 64.0013h
 0.661142v -24.6159h 0.661142v -25.8467h 0.661142v -30.7698h 0.661142v 9.84635h 0.661142v 17.2311h 0.661142v -52.9241h 0.661142v -9.84635h 0.661142v -25.8467h 0.661142v 35.693h 0.661142v 11.0771h 0.661142v -38.1546h 0.661142v -41.847h 0.661142v
 -19.6927h 0.661142v 87.3864h 0.661142v -29.539h 0.661142v -8.61556h 0.661142v 4.92317h 0.661142v -28.3083h 0.661142v 44.3086h 0.661142v 11.0771h 0.661142v 11.0771h 0.661142v -18.4619h 0.661142v 30.7698h 0.661142v 25.8467h 0.661142v -29.539h
 0.661142v 20.9235h 1.32228v 44.3086h 0.661142v 12.3079h 0.661142v -40.6162h 0.661142v 34.4622h 0.661142v -9.84635h 0.661142v 28.3083h 0.661142v -6.15397h 0.661142v -8.61556h 0.661142v -24.6159h 0.661142v 43.0778h 0.661142v -3.69238h 0.661142v
 -7.38476h 0.661142v -18.4619h 0.661142v -13.5387h 0.661142v 29.539h 0.661142v 22.1543h 0.661142v -30.7698h 0.661142v 24.6159h 0.661142v -2.46159h 0.661142v 28.3083h 0.661142v -9.84635h 0.661142v 16.0003h 0.661142v -24.6159h 0.661142v 13.5387h
 0.661142v 6.15397h 0.661142v 4.92317h 1.32228v 2.46159h 0.661142v 16.0003h 0.661142v 11.0771h 0.661142v -20.9235h 0.661142v 8.61556h 0.661142v -8.61556h 0.661142v 17.2311h 0.661142v 1.23079h 0.661142v -1.23079h 0.661142v -8.61556h 0.661142v 16.0003h
 0.661142v 11.0771h 0.661142v -11.0771h 0.661142v -9.84635h 0.661142v -9.84635h 0.661142v 17.2311h 0.661142v 6.15397h 0.661142v -24.6159h 0.661142v 8.61556h 0.661142v 7.38476h 0.661142v -2.46159h 0.661142v -6.15397h 0.661142v 4.92317h 0.661142v
 -6.15397h 0.661142v 19.6927h 0.661142v -7.38476h 0.661142v 12.3079h 0.661142v -4.92317h 0.661142v -4.92317h 0.661142v 17.2311h 0.661142v -8.61556h 0.661142v 3.69238h 0.661142v -2.46159h 0.661142v 9.84635h 0.661142v -1.23079h 0.661142v 2.46159h
 0.661142v -4.92317h 0.661142v 8.61556h 0.661142v -6.15397h 0.661142v 9.84635h 0.661142v -4.92317h 0.661142v 6.15397h 0.661142v -2.46159h 0.661142v -1.23079h 0.661142v -2.46159h 0.661142v 3.69238h 0.661142v -7.38476h 0.661142v 7.38476h 0.661142v
 2.46159h 0.661142v -1.23079h 0.661142v -2.46159h 1.32228v 1.23079h 0.661142v 1.23079h 0.661142v -2.46159h 0.661142v 1.23079h 0.661142v 2.46159h 0.661142v -1.23079h 0.661142v -3.69238h 0.661142v 2.46159h 0.661142v -1.23079h 1.32228v 1.23079h
 0.661142v -1.23079h 0.661142v -1.23079h 0.661142v 1.23079h 1.32228v 4.92317h 0.661142v -4.92317h 0.661142v 2.46159h 0.661142v -1.23079h 0.661142v -2.46159h 0.661142v 4.92317h 0.661142v -1.23079h 0.661142v -1.23079h 0.661142v -1.23079h 0.661142v
 1.23079h 0.661142v 1.23079h 0.661142v 2.46159h 0.661142v -6.15397h 0.661142v 2.46159h 0.661142v 2.46159h 0.661142v 1.23079h 0.661142v -1.23079h 0.661142v -3.69238h 0.661142v 2.46159h 0.661142v 1.23079h 0.661142v -1.23079h 0.661142v -2.46159h
 0.661142v 2.46159h 0.661142v 1.23079h 0.661142v 1.23079h 0.661142v -6.15397h 0.661142v 1.23079h 0.661142v 3.69238h 0.661142v -2.46159h 0.661142v -2.46159h 0.661142v 2.46159h 0.661142v 3.69238h 0.661142v -1.23079h 0.661142v 1.23079h 0.661142v
 -1.23079h 1.32228v -2.46159h 0.661142v 2.46159h 0.661142v -2.46159h 0.661142v 2.46159h 0.661142v -1.23079h 0.661142v -1.23079h 0.661142v 3.69238h 1.32228v -3.69238h 0.661142v 2.46159h 0.661142v 1.23079h 0.661142v -9.84635h 0.661142v 6.15397h
 1.32228v 1.23079h 1.32228v -1.23079h 0.661142v 2.46159h 1.32228v -1.23079h 1.32228v 2.46159h 0.661142v -2.46159h 1.32228v -1.23079h 0.661142v -3.69238h 0.661142v 6.15397h 0.661142v -4.92317h 0.661142v 2.46159h 0.661142v 3.69238h 0.661142v -2.46159h
 0.661142v -3.69238h 0.661142v 1.23079h 1.32228v 2.46159h 2.64457v -3.69238h 0.661142v -2.46159h 0.661142v 4.92317h 1.32228v -1.23079h 0.661142v 2.46159h 0.661142v 1.23079h 0.661142v -2.46159h 0.661142v -7.38476h 0.661142v 9.84635h 0.661142v
 -6.15397h 0.661142v 6.15397h 0.661142v -6.15397h 1.32228v 2.46159h 0.661142v -6.15397h 0.661142v 3.69238h 0.661142v 7.38476h 0.661142v -7.38476h 0.661142v 4.92317h 0.661142v -7.38476h 0.661142v 1.23079h 0.661142v 1.23079h 0.661142v -3.69238h
 0.661142v -2.46159h 0.661142v -1.23079h 0.661142v 9.84635h 0.661142v -3.69238h 0.661142v 1.23079h 0.661142v -9.84635h 0.661142v 7.38476h 0.661142v 2.46159h 0.661142v 1.23079h 0.661142v -4.92317h 0.661142v -2.46159h 0.661142v 3.69238h 0.661142v
 -1.23079h 0.661142v 3.69238h 0.661142v -11.0771h 0.661142v 12.3079h 0.661142v -4.92317h 0.661142v 4.92317h 0.661142v -4.92317h 0.661142v -7.38476h 0.661142v 6.15397h 0.661142v 2.46159h 0.661142v 4.92317h 0.661142v -7.38476h 0.661142v 2.46159h
 0.661142v 2.46159h 0.661142v -6.15397h 0.661142v 6.15397h 0.661142v -4.92317h 0.661142v -1.23079h 0.661142v 4.92317h 0.661142v -6.15397h 0.661142v 3.69238h 0.661142v 1.23079h 1.32228v -4.92317h 0.661142v 8.61556h 0.661142v -7.38476h 0.661142v
 4.92317h 0.661142v -9.84635h 0.661142v 13.5387h 0.661142v -1.23079h 0.661142v -4.92317h 0.661142v 2.46159h 0.661142v 2.46159h 0.661142v -1.23079h 0.661142v -1.23079h 0.661142v 1.23079h 0.661142v -1.23079h 0.661142v -3.69238h 0.661142v 2.46159h
 0.661142v -4.92317h 0.661142v 7.38476h 0.661142v 1.23079h 0.661142v -4.92317h 1.32228v -4.92317h 0.661142v 2.46159h 0.661142v -4.92317h 0.661142v 3.69238h 0.661142v -4.92317h 0.661142v -9.84635h 0.661142v -12.3079h 0.661142v 23.3851h 0.661142v
 -6.15397h 0.661142v -9.84635h 1.32228v -16.0003h 0.661142v 6.15397h 0.661142v -7.38476h 0.661142v -6.15397h 0.661142v -9.84635h 0.661142v -7.38476h 0.661142v 32.0006h 0.661142v -4.92317h 0.661142v -24.6159h 1.32228v 3.69238h 0.661142v 7.38476h
 0.661142v -14.7695h 0.661142v 3.69238h 0.661142v 8.61556h 0.661142v -11.0771h 0.661142v 22.1543h 0.661142v -2.46159h 0.661142v -2.46159h 0.661142v 3.69238h 0.661142v 3.69238h 0.661142v 14.7695h 0.661142v -8.61556h 0.661142v 8.61556h 0.661142v
 3.69238h 0.661142v 9.84635h 0.661142v -3.69238h 0.661142v 1.23079h 0.661142v 8.61556h 0.661142v 4.92317h 0.661142v -7.38476h 0.661142v 7.38476h 0.661142v -1.23079h 0.661142v 6.15397h 0.661142v -3.69238h 0.661142v -2.46159h 0.661142v 8.61556h
 1.98343v 1.23079h 0.661142v 1.23079h 0.661142v 1.23079h 0.661142v -1.23079h 0.661142v 1.23079h 0.661142v -1.23079h 1.32228v 1.23079h 0.661142v -2.46159h 0.661142v 2.46159h 0.661142v -1.23079h 1.32228v 1.23079h 1.98343v -1.23079h 0.661142v 1.23079h
 1.32228v -1.23079h 1.32228v 1.23079h 1.98343v -2.46159h 0.661142v 2.46159h 1.32228v -1.23079h 0.661142v 1.23079h 3.30571v -1.23079h 0.661142v 1.23079h 1.32228v -1.23079h 1.32228v 1.23079h 1.98343v -1.23079h 0.661142v 1.23079h 4.62799v -1.23079h
 1.98343v 1.23079h 0.661142v -1.23079h 0.661142v 1.23079h 3.96685v -2.46159h 0.661142v 2.46159h 1.98343v -1.23079h 0.661142v 1.23079h 1.98343v -1.23079h 0.661142v 1.23079h 3.96685v -1.23079h 0.661142v 1.23079h 0.661142v -1.23079h 0.661142v 1.23079h
 1.98343v -1.23079h 0.661142v 1.23079h 0.661142v -1.23079h 0.661142v 1.23079h 7.9337v -1.23079h 0.661142v 1.23079h 1.98343v -1.23079h 1.32228v 1.23079h 11.2394v -1.23079h 0.661142v 1.23079h 2.64457v -1.23079h 0.661142v 1.23079h 23.14v -1.23079h
 0.661142v 1.23079h 58.8416v -1.23079h 0.661142v 1.23079h 1.32228v -1.23079h 0.661142" fill="none" stroke="#000099"/>
<path d="M57.1929,346.022h 453.543" fill="none" stroke="black"/>
<path d="M57.8541,336.795v 9.22726" fill="none" stroke="black"/>
<path d="M79.8921,341.409v 4.61363" fill="none" stroke="black"/>
<path d="M101.93,341.409v 4.61363" fill="none" stroke="black"/>
<path d="M123.968,341.409v 4.61363" fill="none" stroke="black"/>
<path d="M146.006,341.409v 4.61363" fill="none" stroke="black"/>
<path d="M168.044,336.795v 9.22726" fill="none" stroke="black"/>
<path d="M190.082,341.409v 4.61363" fill="none" stroke="black"/>
<path d="M212.12,341.409v 4.61363" fill="none" stroke="black"/>
<path d="M234.159,341.409v 4.61363" fill="none" stroke="black"/>
<path d="M256.197,341.409v 4.61363" fill="none" stroke="black"/>
<path d="M278.235,336.795v 9.22726" fill="none" stroke="black"/>
<path d="M300.273,341.409v 4.61363" fill="none" stroke="black"/>
<path d="M322.311,341.409v 4.61363" fill="none" stroke="black"/>
<path d="M344.349,341.409v 4.61363" fill="none" stroke="black"/>
<path d="M366.387,341.409v 4.61363" fill="none" stroke="black"/>
<path d="M388.425,336.795v 9.22726" fill="none" stroke="black"/>
<path d="M410.463,341.409v 4.61363" fill="none" stroke="black"/>
<path d="M432.501,341.409v 4.61363" fill="none" stroke="black"/>
<path d="M454.539,341.409v 4.61363" fill="none" stroke="black"/>
<path d="M476.577,341.409v 4.61363" fill="none" stroke="black"/>
<path d="M498.615,336.795v 9.22726" fill="none" stroke="black"/>
<path d="M57.8541,336.795v 9.22726" fill="none" stroke="black"/>
<path d="M498.615,336.795v 9.22726" fill="none" stroke="black"/>
<text xml:space="preserve" x="54.2605" y="358.403" fill="black" font-size="12.8453" font-family="Helvetica">0</text>
<text xml:space="preserve" x="156.894" y="358.403" fill="black" font-size="12.8453" font-family="Helvetica">500</text>
<text xml:space="preserve" x="263.601" y="358.403" fill="black" font-size="12.8453" font-family="Helvetica">1000</text>
<text xml:space="preserve" x="374.38" y="358.403" fill="black" font-size="12.8453" font-family="Helvetica">1500</text>
<text xml:space="preserve" x="484.345" y="358.403" fill="black" font-size="12.8453" font-family="Helvetica">2000</text>
<text xml:space="preserve" x="451.763" y="372.251" fill="black" font-size="12.8453" font-family="Helvetica">ADC value</text>
<path d="M57.1929,346.022v -307.575" fill="none" stroke="black"/>
<path d="M70.7992,346.022h -13.6063" fill="none" stroke="black"/>
<path d="M63.9961,339.868h -6.80315" fill="none" stroke="black"/>
<path d="M63.9961,333.714h -6.80315" fill="none" stroke="black"/>
<path d="M63.9961,327.56h -6.80315" fill="none" stroke="black"/>
<path d="M70.7992,321.406h -13.6063" fill="none" stroke="black"/>
<path d="M63.9961,315.252h -6.80315" fill="none" stroke="black"/>
<path d="M63.9961,309.098h -6.80315" fill="none" stroke="black"/>
<path d="M63.9961,302.944h -6.80315" fill="none" stroke="black"/>
<path d="M70.7992,296.79h -13.6063" fill="none" stroke="black"/>
<path d="M63.9961,290.637h -6.80315" fill="none" stroke="black"/>
<path d="M63.9961,284.483h -6.80315" fill="none" stroke="black"/>
<path d="M63.9961,278.329h -6.80315" fill="none" stroke="black"/>
<path d="M70.7992,272.175h -13.6063" fill="none" stroke="black"/>
<path d="M63.9961,266.021h -6.80315" fill="none" stroke="black"/>
<path d="M63.9961,259.867h -6.80315" fill="none" stroke="black"/>
<path d="M63.9961,253.713h -6.80315" fill="none" stroke="black"/>
<path d="M70.7992,247.559h -13.6063" fill="none" stroke="black"/>
<path d="M63.9961,241.405h -6.80315" fill="none" stroke="black"/>
<path d="M63.9961,235.251h -6.80315" fill="none" stroke="black"/>
<path d="M63.9961,229.097h -6.80315" fill="none" stroke="black"/>
<path d="M70.7992,222.943h -13.6063" fill="none" stroke="black"/>
<path d="M63.9961,216.789h -6.80315" fill="none" stroke="black"/>
<path d="M63.9961,210.635h -6.80315" fill="none" stroke="black"/>
<path d="M63.9961,204.481h -6.80315" fill="none" stroke="black"/>
<path d="M70.7992,198.327h -13.6063" fill="none" stroke="black"/>
<path d="M63.9961,192.173h -6.80315" fill="none" stroke="black"/>
<path d="M63.9961,186.019h -6.80315" fill="none" stroke="black"/>
<path d="M63.9961,179.865h -6.80315" fill="none" stroke="black"/>
<path d="M70.7992,173.711h -13.6063" fill="none" stroke="black"/>
<path d="M63.9961,167.557h -6.80315" fill="none" stroke="black"/>
<path d="M63.9961,161.403h -6.80315" fill="none" stroke="black"/>
<path d="M63.9961,155.249h -6.80315" fill="none" stroke="black"/>
<path d="M70.7992,149.095h -13.6063" fill="none" stroke="black"/>
<path d="M63.9961,142.941h -6.80315" fill="none" stroke="black"/>
<path d="M63.9961,136.787h -6.80315" fill="none" stroke="black"/>
<path d="M63.9961,130.633h -6.80315" fill="none" stroke="black"/>
<path d="M70.7992,124.479h -13.6063" fill="none" stroke="black"/>
<path d="M63.9961,118.325h -6.80315" fill="none" stroke="black"/>
<path d="M63.9961,112.171h -6.80315" fill="none" stroke="black"/>
<path d="M63.9961,106.017h -6.80315" fill="none" stroke="black"/>
<path d="M70.7992,99.8635h -13.6063" fill="none" stroke="black"/>
<path d="M63.9961,93.7096h -6.80315" fill="none" stroke="black"/>
<path d="M63.9961,87.5556h -6.80315" fill="none" stroke="black"/>
<path d="M63.9961,81.4016h -6.80315" fill="none" stroke="black"/>
<path d="M70.7992,75.2477h -13.6063" fill="none" stroke="black"/>
<path d="M63.9961,69.0937h -6.80315" fill="none" stroke="black"/>
<path d="M63.9961,62.9397h -6.80315" fill="none" stroke="black"/>
<path d="M63.9961,56.7857h -6.80315" fill="none" stroke="black"/>
<path d="M70.7992,50.6318h -13.6063" fill="none" stroke="black"/>
<path d="M70.7992,50.6318h -13.6063" fill="none" stroke="black"/>
<path d="M63.9961,44.4778h -6.80315" fill="none" stroke="black"/>
<text xml:space="preserve" x="47.7441" y="350.258" fill="black" font-size="12.8453" font-family="Helvetica">0</text>
<text xml:space="preserve" x="41.2277" y="325.821" fill="black" font-size="12.8453" font-family="Helvetica">20</text>
<text xml:space="preserve" x="41.2277" y="301.385" fill="black" font-size="12.8453" font-family="Helvetica">40</text>
<text xml:space="preserve" x="41.2277" y="276.948" fill="black" font-size="12.8453" font-family="Helvetica">60</text>
<text xml:space="preserve" x="41.2277" y="251.697" fill="black" font-size="12.8453" font-family="Helvetica">80</text>
<text xml:space="preserve" x="33.8967" y="227.26" fill="black" font-size="12.8453" font-family="Helvetica">100</text>
<text xml:space="preserve" x="33.8967" y="202.824" fill="black" font-size="12.8453" font-family="Helvetica">120</text>
<text xml:space="preserve" x="33.8967" y="178.387" fill="black" font-size="12.8453" font-family="Helvetica">140</text>
<text xml:space="preserve" x="33.8967" y="153.951" fill="black" font-size="12.8453" font-family="Helvetica">160</text>
<text xml:space="preserve" x="33.8967" y="128.699" fill="black" font-size="12.8453" font-family="Helvetica">180</text>
<text xml:space="preserve" x="33.8967" y="104.263" fill="black" font-size="12.8453" font-family="Helvetica">200</text>
<text xml:space="preserve" x="33.8967" y="79.8262" fill="black" font-size="12.8453" font-family="Helvetica">220</text>
<text xml:space="preserve" x="33.8967" y="55.3896" fill="black" font-size="12.8453" font-family="Helvetica">240</text>
<g transform="rotate(-90,20.8638,70.0516)">
<text xml:space="preserve" x="20.8638" y="70.0516" fill="black" font-size="12.8453" font-family="Helvetica">Event</text>
</g>
<text xml:space="preserve" x="252.197" y="18.7347" fill="black" font-size="18.0316" font-family="Helvetica">Am_001</text>
<rect x="442.705" y="24.9905" width="113.386" height="61.5151" fill="white"/>
<path d="M442.705,86.5056h 113.386" fill="none" stroke="black"/>
<path d="M556.091,86.5056v -61.5151" fill="none" stroke="black"/>
<path d="M556.091,24.9905h -113.386" fill="none" stroke="black"/>
<path d="M442.705,24.9905v 61.5151" fill="none" stroke="black"/>
<text xml:space="preserve" x="475.385" y="36.6549" fill="black" font-size="13.4802" font-family="Helvetica">Am_001</text>
<path d="M442.705,40.3693h 113.386" fill="none" stroke="black"/>
<text xml:space="preserve" x="447.69" y="52.946" fill="black" font-size="12.7186" font-family="Helvetica">Entries </text>
<text xml:space="preserve" x="512.854" y="52.946" fill="black" font-size="12.7186" font-family="Helvetica"> 11015</text>
<text xml:space="preserve" x="447.69" y="67.6079" fill="black" font-size="12.7186" font-family="Helvetica">Mean  </text>
<text xml:space="preserve" x="512.854" y="67.6079" fill="black" font-size="12.7186" font-family="Helvetica">  555.5</text>
<text xml:space="preserve" x="447.69" y="83.0844" fill="black" font-size="12.7186" font-family="Helvetica">Std Dev   </text>
<text xml:space="preserve" x="512.854" y="83.0844" fill="black" font-size="12.7186" font-family="Helvetica">  315.2</text>
<text xml:space="preserve" x="252.197" y="18.7347" fill="black" font-size="18.0316" font-family="Helvetica">Am_001</text></svg>
