<?xml version="1.0" standalone="no"?>
<svg width="567.429" height="384.969" viewBox="0 0 567.429 384.969" xmlns="http://www.w3.org/2000/svg" shape-rendering="crispEdges">
<title>
img/week1/plane_hist/Am_002.svg
</title>
<desc>
Creator: ROOT Version 6.22/09
CreationDate: Tue Jul 13 14:00:54 2021</desc>
<defs>
</defs>
<rect x="0.5" y="0" width="566.929" height="384.469" fill="white"/>
<rect x="57.1929" y="38.4469" width="453.543" height="307.575" fill="white"/>
<rect x="57.1929" y="38.4469" width="453.543" height="307.575" fill="none" stroke="black"/>
<path d="M57.1929,346.022h 37.3169v -32.5477h 2.87053v -27.123h 2.87053v 8.13691h 2.87053v 16.2738h 2.87053v -27.123h 2.87053v -10.8492h 2.87053v 2.7123h 2.87053v -27.123h 2.87053v 29.8354h 2.87053v -84.0814h 2.87053v -56.9584h 2.87053v -10.8492h
 2.87053v -70.5199h 2.87053v 113.917h 2.87053v -116.629h 2.87053v 37.9723h 2.87053v 54.2461h 2.87053v 81.3691h 2.87053v -8.13691h 2.87053v 35.26h 2.87053v -2.7123h 2.87053v 37.9723h 2.87053v 27.123h 2.87053v -27.123h 2.87053v 18.9861h 2.87053v
 10.8492h 2.87053v -10.8492h 2.87053v 10.8492h 2.87053v 10.8492h 2.87053v -5.42461h 2.87053v 18.9861h 2.87053v 2.7123h 5.74105v -2.7123h 2.87053v 2.7123h 2.87053v -2.7123h 2.87053v 2.7123h 5.74105v -2.7123h 8.61158v -2.7123h 2.87053v 5.42461h
 8.61158v -13.5615h 2.87053v 8.13691h 11.4821v 2.7123h 2.87053v -2.7123h 2.87053v -5.42461h 2.87053v 5.42461h 5.74105v 5.42461h 2.87053v -10.8492h 2.87053v -8.13691h 2.87053v 10.8492h 2.87053v -2.7123h 2.87053v -5.42461h 2.87053v 8.13691h 2.87053v
 -5.42461h 5.74105v 8.13691h 2.87053v -2.7123h 5.74105v 5.42461h 2.87053v -5.42461h 2.87053v -24.4107h 2.87053v -5.42461h 2.87053v -10.8492h 2.87053v -13.5615h 2.87053v -24.4107h 2.87053v 54.2461h 2.87053v 16.2738h 2.87053v -8.13691h 2.87053v
 21.6984h 2.87053v 2.7123h 34.4463v -2.7123h 2.87053v 2.7123h 14.3526v -2.7123h 2.87053v 2.7123h 20.0937v -2.7123h 2.87053v 2.7123h 28.7053v -2.7123h 2.87053v 2.7123h 80.3748v -2.7123h 2.87053" fill="none" stroke="#000099"/>
<path d="M57.1929,346.022h 453.543" fill="none" stroke="black"/>
<path d="M60.0634,336.795v 9.22726" fill="none" stroke="black"/>
<path d="M69.6319,341.409v 4.61363" fill="none" stroke="black"/>
<path d="M79.2003,341.409v 4.61363" fill="none" stroke="black"/>
<path d="M88.7687,341.409v 4.61363" fill="none" stroke="black"/>
<path d="M98.3371,341.409v 4.61363" fill="none" stroke="black"/>
<path d="M107.906,336.795v 9.22726" fill="none" stroke="black"/>
<path d="M117.474,341.409v 4.61363" fill="none" stroke="black"/>
<path d="M127.042,341.409v 4.61363" fill="none" stroke="black"/>
<path d="M136.611,341.409v 4.61363" fill="none" stroke="black"/>
<path d="M146.179,341.409v 4.61363" fill="none" stroke="black"/>
<path d="M155.748,336.795v 9.22726" fill="none" stroke="black"/>
<path d="M165.316,341.409v 4.61363" fill="none" stroke="black"/>
<path d="M174.885,341.409v 4.61363" fill="none" stroke="black"/>
<path d="M184.453,341.409v 4.61363" fill="none" stroke="black"/>
<path d="M194.021,341.409v 4.61363" fill="none" stroke="black"/>
<path d="M203.59,336.795v 9.22726" fill="none" stroke="black"/>
<path d="M213.158,341.409v 4.61363" fill="none" stroke="black"/>
<path d="M222.727,341.409v 4.61363" fill="none" stroke="black"/>
<path d="M232.295,341.409v 4.61363" fill="none" stroke="black"/>
<path d="M241.863,341.409v 4.61363" fill="none" stroke="black"/>
<path d="M251.432,336.795v 9.22726" fill="none" stroke="black"/>
<path d="M261,341.409v 4.61363" fill="none" stroke="black"/>
<path d="M270.569,341.409v 4.61363" fill="none" stroke="black"/>
<path d="M280.137,341.409v 4.61363" fill="none" stroke="black"/>
<path d="M289.706,341.409v 4.61363" fill="none" stroke="black"/>
<path d="M299.274,336.795v 9.22726" fill="none" stroke="black"/>
<path d="M308.842,341.409v 4.61363" fill="none" stroke="black"/>
<path d="M318.411,341.409v 4.61363" fill="none" stroke="black"/>
<path d="M327.979,341.409v 4.61363" fill="none" stroke="black"/>
<path d="M337.548,341.409v 4.61363" fill="none" stroke="black"/>
<path d="M347.116,336.795v 9.22726" fill="none" stroke="black"/>
<path d="M356.685,341.409v 4.61363" fill="none" stroke="black"/>
<path d="M366.253,341.409v 4.61363" fill="none" stroke="black"/>
<path d="M375.821,341.409v 4.61363" fill="none" stroke="black"/>
<path d="M385.39,341.409v 4.61363" fill="none" stroke="black"/>
<path d="M394.958,336.795v 9.22726" fill="none" stroke="black"/>
<path d="M404.527,341.409v 4.61363" fill="none" stroke="black"/>
<path d="M414.095,341.409v 4.61363" fill="none" stroke="black"/>
<path d="M423.664,341.409v 4.61363" fill="none" stroke="black"/>
<path d="M433.232,341.409v 4.61363" fill="none" stroke="black"/>
<path d="M442.8,336.795v 9.22726" fill="none" stroke="black"/>
<path d="M452.369,341.409v 4.61363" fill="none" stroke="black"/>
<path d="M461.937,341.409v 4.61363" fill="none" stroke="black"/>
<path d="M471.506,341.409v 4.61363" fill="none" stroke="black"/>
<path d="M481.074,341.409v 4.61363" fill="none" stroke="black"/>
<path d="M490.643,336.795v 9.22726" fill="none" stroke="black"/>
<path d="M60.0634,336.795v 9.22726" fill="none" stroke="black"/>
<path d="M490.643,336.795v 9.22726" fill="none" stroke="black"/>
<path d="M500.211,341.409v 4.61363" fill="none" stroke="black"/>
<path d="M509.779,341.409v 4.61363" fill="none" stroke="black"/>
<text xml:space="preserve" x="56.7042" y="358.403" fill="black" font-size="12.8453" font-family="Helvetica">0</text>
<text xml:space="preserve" x="100.69" y="358.403" fill="black" font-size="12.8453" font-family="Helvetica">50</text>
<text xml:space="preserve" x="144.676" y="358.403" fill="black" font-size="12.8453" font-family="Helvetica">100</text>
<text xml:space="preserve" x="192.735" y="358.403" fill="black" font-size="12.8453" font-family="Helvetica">150</text>
<text xml:space="preserve" x="240.793" y="358.403" fill="black" font-size="12.8453" font-family="Helvetica">200</text>
<text xml:space="preserve" x="288.037" y="358.403" fill="black" font-size="12.8453" font-family="Helvetica">250</text>
<text xml:space="preserve" x="336.096" y="358.403" fill="black" font-size="12.8453" font-family="Helvetica">300</text>
<text xml:space="preserve" x="384.155" y="358.403" fill="black" font-size="12.8453" font-family="Helvetica">350</text>
<text xml:space="preserve" x="431.399" y="358.403" fill="black" font-size="12.8453" font-family="Helvetica">400</text>
<text xml:space="preserve" x="479.457" y="358.403" fill="black" font-size="12.8453" font-family="Helvetica">450</text>
<text xml:space="preserve" x="451.763" y="372.251" fill="black" font-size="12.8453" font-family="Helvetica">ADC value</text>
<path d="M57.1929,346.022v -307.575" fill="none" stroke="black"/>
<path d="M70.7992,346.022h -13.6063" fill="none" stroke="black"/>
<path d="M63.9961,332.461h -6.80315" fill="none" stroke="black"/>
<path d="M63.9961,318.899h -6.80315" fill="none" stroke="black"/>
<path d="M63.9961,305.338h -6.80315" fill="none" stroke="black"/>
<path d="M70.7992,291.776h -13.6063" fill="none" stroke="black"/>
<path d="M63.9961,278.215h -6.80315" fill="none" stroke="black"/>
<path d="M63.9961,264.653h -6.80315" fill="none" stroke="black"/>
<path d="M63.9961,251.092h -6.80315" fill="none" stroke="black"/>
<path d="M70.7992,237.53h -13.6063" fill="none" stroke="black"/>
<path d="M63.9961,223.969h -6.80315" fill="none" stroke="black"/>
<path d="M63.9961,210.407h -6.80315" fill="none" stroke="black"/>
<path d="M63.9961,196.846h -6.80315" fill="none" stroke="black"/>
<path d="M70.7992,183.284h -13.6063" fill="none" stroke="black"/>
<path d="M63.9961,169.722h -6.80315" fill="none" stroke="black"/>
<path d="M63.9961,156.161h -6.80315" fill="none" stroke="black"/>
<path d="M63.9961,142.599h -6.80315" fill="none" stroke="black"/>
<path d="M70.7992,129.038h -13.6063" fill="none" stroke="black"/>
<path d="M63.9961,115.476h -6.80315" fill="none" stroke="black"/>
<path d="M63.9961,101.915h -6.80315" fill="none" stroke="black"/>
<path d="M63.9961,88.3533h -6.80315" fill="none" stroke="black"/>
<path d="M70.7992,74.7918h -13.6063" fill="none" stroke="black"/>
<path d="M70.7992,74.7918h -13.6063" fill="none" stroke="black"/>
<path d="M63.9961,61.2303h -6.80315" fill="none" stroke="black"/>
<path d="M63.9961,47.6688h -6.80315" fill="none" stroke="black"/>
<text xml:space="preserve" x="47.7441" y="350.258" fill="black" font-size="12.8453" font-family="Helvetica">0</text>
<text xml:space="preserve" x="41.2277" y="296.497" fill="black" font-size="12.8453" font-family="Helvetica">20</text>
<text xml:space="preserve" x="41.2277" y="241.922" fill="black" font-size="12.8453" font-family="Helvetica">40</text>
<text xml:space="preserve" x="41.2277" y="188.162" fill="black" font-size="12.8453" font-family="Helvetica">60</text>
<text xml:space="preserve" x="41.2277" y="133.587" fill="black" font-size="12.8453" font-family="Helvetica">80</text>
<text xml:space="preserve" x="33.8967" y="79.0117" fill="black" font-size="12.8453" font-family="Helvetica">100</text>
<g transform="rotate(-90,20.8638,70.0516)">
<text xml:space="preserve" x="20.8638" y="70.0516" fill="black" font-size="12.8453" font-family="Helvetica">Event</text>
</g>
<text xml:space="preserve" x="250.568" y="18.7347" fill="black" font-size="18.0316" font-family="Helvetica">Am_002</text>
<rect x="442.705" y="24.9905" width="113.386" height="61.5151" fill="white"/>
<path d="M442.705,86.5056h 113.386" fill="none" stroke="black"/>
<path d="M556.091,86.5056v -61.5151" fill="none" stroke="black"/>
<path d="M556.091,24.9905h -113.386" fill="none" stroke="black"/>
<path d="M442.705,24.9905v 61.5151" fill="none" stroke="black"/>
<text xml:space="preserve" x="474.57" y="36.6549" fill="black" font-size="13.4802" font-family="Helvetica">Am_002</text>
<path d="M442.705,40.3693h 113.386" fill="none" stroke="black"/>
<text xml:space="preserve" x="447.69" y="52.946" fill="black" font-size="13.0654" font-family="Helvetica">Entries </text>
<text xml:space="preserve" x="517.741" y="52.946" fill="black" font-size="13.0654" font-family="Helvetica"> 1353</text>
<text xml:space="preserve" x="447.69" y="67.6079" fill="black" font-size="13.0654" font-family="Helvetica">Mean  </text>
<text xml:space="preserve" x="510.41" y="67.6079" fill="black" font-size="13.0654" font-family="Helvetica">  102.4</text>
<text xml:space="preserve" x="447.69" y="83.0844" fill="black" font-size="13.0654" font-family="Helvetica">Std Dev   </text>
<text xml:space="preserve" x="514.483" y="83.0844" fill="black" font-size="13.0654" font-family="Helvetica">   62.3</text>
<text xml:space="preserve" x="250.568" y="18.7347" fill="black" font-size="18.0316" font-family="Helvetica">Am_002</text></svg>
