<?xml version="1.0" standalone="no"?>
<svg width="567.429" height="384.969" viewBox="0 0 567.429 384.969" xmlns="http://www.w3.org/2000/svg" shape-rendering="crispEdges">
<title>
img/week1/plane_hist/Am_006.svg
</title>
<desc>
Creator: ROOT Version 6.22/09
CreationDate: Thu Jul  8 17:39:09 2021</desc>
<defs>
</defs>
<rect x="0.5" y="0" width="566.929" height="384.469" fill="white"/>
<rect x="57.1929" y="38.4469" width="453.543" height="307.575" fill="white"/>
<rect x="57.1929" y="38.4469" width="453.543" height="307.575" fill="none" stroke="black"/>
<path d="M57.1929,346.022h 13.0204v -49.5091h 2.17006v -40.7419h 2.17006v 39.7104h 2.17006v 24.7546h 2.17006v 8.25152h 2.17006v 2.06288h 2.17006v -4.64148h 2.17006v -6.70436h 2.17006v 4.64148h 2.17006v -4.64148h 2.17006v 16.503h 2.17006v -14.4402h
 2.17006v -5.1572h 2.17006v -12.3773h 2.17006v -17.0188h 2.17006v 7.22008h 2.17006v -67.5593h 2.17006v -65.4964h 2.17006v -81.4837h 2.17006v 39.7104h 2.17006v -66.0121h 2.17006v 10.8301h 2.17006v 60.3392h 2.17006v 4.12576h 2.17006v 58.2763h 2.17006v
 -24.2388h 2.17006v 75.8108h 2.17006v 15.4716h 2.17006v -4.64148h 2.17006v 21.1445h 2.17006v -19.5974h 2.17006v -15.9873h 2.17006v 48.9934h 2.17006v 31.9746h 2.17006v 8.76724h 2.17006v 3.61004h 2.17006v 9.79868h 2.17006v 0.51572h 2.17006v 2.06288h
 2.17006v -6.18864h 2.17006v 1.03144h 2.17006v 2.5786h 2.17006v -0.51572h 2.17006v 4.64148h 2.17006v -6.70436h 2.17006v 4.12576h 2.17006v 1.54716h 2.17006v -1.54716h 2.17006v -3.61004h 4.34013v 3.61004h 2.17006v -0.51572h 4.34013v -4.12576h 2.17006v
 -5.67292h 2.17006v 5.1572h 2.17006v -3.61004h 2.17006v 3.09432h 2.17006v -15.4716h 2.17006v 1.54716h 2.17006v -4.64148h 2.17006v 4.64148h 2.17006v -8.76724h 2.17006v -2.06288h 2.17006v -3.61004h 2.17006v 15.9873h 2.17006v 3.09432h 2.17006v -11.8616h
 2.17006v 10.8301h 2.17006v -5.1572h 2.17006v -7.22008h 2.17006v -7.22008h 2.17006v -55.6977h 2.17006v -44.8676h 2.17006v -81.4837h 2.17006v 67.0436h 2.17006v -34.5532h 2.17006v 56.7292h 2.17006v 60.8549h 2.17006v 41.2576h 2.17006v 23.2074h 2.17006v
 4.12576h 2.17006v 1.03144h 2.17006v 3.61004h 2.17006v -0.51572h 2.17006v -1.03144h 2.17006v -0.51572h 2.17006v 0.51572h 2.17006v 1.54716h 2.17006v -1.03144h 2.17006v 1.03144h 2.17006v -0.51572h 2.17006v 0.51572h 2.17006v -0.51572h 2.17006v -0.51572h
 2.17006v 1.03144h 2.17006v -1.03144h 4.34013v 1.54716h 2.17006v -0.51572h 2.17006v 0.51572h 2.17006v -0.51572h 4.34013v 1.03144h 2.17006v -1.03144h 2.17006v 1.03144h 41.2312v -0.51572h 2.17006v 0.51572h 4.34013v -0.51572h 2.17006v 0.51572h 4.34013v
 -0.51572h 2.17006v 0.51572h 36.8911v -0.51572h 2.17006v 0.51572h 6.51019v -0.51572h 2.17006v 0.51572h 106.333v -1.03144h 2.17006" fill="none" stroke="#000099"/>
<path d="M57.1929,346.022h 453.543" fill="none" stroke="black"/>
<path d="M59.363,336.795v 9.22726" fill="none" stroke="black"/>
<path d="M73.8301,341.409v 4.61363" fill="none" stroke="black"/>
<path d="M88.2972,341.409v 4.61363" fill="none" stroke="black"/>
<path d="M102.764,341.409v 4.61363" fill="none" stroke="black"/>
<path d="M117.231,341.409v 4.61363" fill="none" stroke="black"/>
<path d="M131.698,336.795v 9.22726" fill="none" stroke="black"/>
<path d="M146.166,341.409v 4.61363" fill="none" stroke="black"/>
<path d="M160.633,341.409v 4.61363" fill="none" stroke="black"/>
<path d="M175.1,341.409v 4.61363" fill="none" stroke="black"/>
<path d="M189.567,341.409v 4.61363" fill="none" stroke="black"/>
<path d="M204.034,336.795v 9.22726" fill="none" stroke="black"/>
<path d="M218.501,341.409v 4.61363" fill="none" stroke="black"/>
<path d="M232.968,341.409v 4.61363" fill="none" stroke="black"/>
<path d="M247.435,341.409v 4.61363" fill="none" stroke="black"/>
<path d="M261.902,341.409v 4.61363" fill="none" stroke="black"/>
<path d="M276.369,336.795v 9.22726" fill="none" stroke="black"/>
<path d="M290.836,341.409v 4.61363" fill="none" stroke="black"/>
<path d="M305.304,341.409v 4.61363" fill="none" stroke="black"/>
<path d="M319.771,341.409v 4.61363" fill="none" stroke="black"/>
<path d="M334.238,341.409v 4.61363" fill="none" stroke="black"/>
<path d="M348.705,336.795v 9.22726" fill="none" stroke="black"/>
<path d="M363.172,341.409v 4.61363" fill="none" stroke="black"/>
<path d="M377.639,341.409v 4.61363" fill="none" stroke="black"/>
<path d="M392.106,341.409v 4.61363" fill="none" stroke="black"/>
<path d="M406.573,341.409v 4.61363" fill="none" stroke="black"/>
<path d="M421.04,336.795v 9.22726" fill="none" stroke="black"/>
<path d="M435.507,341.409v 4.61363" fill="none" stroke="black"/>
<path d="M449.974,341.409v 4.61363" fill="none" stroke="black"/>
<path d="M464.442,341.409v 4.61363" fill="none" stroke="black"/>
<path d="M478.909,341.409v 4.61363" fill="none" stroke="black"/>
<path d="M493.376,336.795v 9.22726" fill="none" stroke="black"/>
<path d="M59.363,336.795v 9.22726" fill="none" stroke="black"/>
<path d="M493.376,336.795v 9.22726" fill="none" stroke="black"/>
<path d="M507.843,341.409v 4.61363" fill="none" stroke="black"/>
<text xml:space="preserve" x="55.8896" y="358.403" fill="black" font-size="12.8453" font-family="Helvetica">0</text>
<text xml:space="preserve" x="121.054" y="358.403" fill="black" font-size="12.8453" font-family="Helvetica">100</text>
<text xml:space="preserve" x="192.735" y="358.403" fill="black" font-size="12.8453" font-family="Helvetica">200</text>
<text xml:space="preserve" x="265.23" y="358.403" fill="black" font-size="12.8453" font-family="Helvetica">300</text>
<text xml:space="preserve" x="337.725" y="358.403" fill="black" font-size="12.8453" font-family="Helvetica">400</text>
<text xml:space="preserve" x="410.22" y="358.403" fill="black" font-size="12.8453" font-family="Helvetica">500</text>
<text xml:space="preserve" x="482.716" y="358.403" fill="black" font-size="12.8453" font-family="Helvetica">600</text>
<text xml:space="preserve" x="451.763" y="372.251" fill="black" font-size="12.8453" font-family="Helvetica">ADC value</text>
<path d="M57.1929,346.022v -307.575" fill="none" stroke="black"/>
<path d="M70.7992,346.022h -13.6063" fill="none" stroke="black"/>
<path d="M63.9961,335.708h -6.80315" fill="none" stroke="black"/>
<path d="M63.9961,325.393h -6.80315" fill="none" stroke="black"/>
<path d="M63.9961,315.079h -6.80315" fill="none" stroke="black"/>
<path d="M63.9961,304.765h -6.80315" fill="none" stroke="black"/>
<path d="M70.7992,294.45h -13.6063" fill="none" stroke="black"/>
<path d="M63.9961,284.136h -6.80315" fill="none" stroke="black"/>
<path d="M63.9961,273.821h -6.80315" fill="none" stroke="black"/>
<path d="M63.9961,263.507h -6.80315" fill="none" stroke="black"/>
<path d="M63.9961,253.193h -6.80315" fill="none" stroke="black"/>
<path d="M70.7992,242.878h -13.6063" fill="none" stroke="black"/>
<path d="M63.9961,232.564h -6.80315" fill="none" stroke="black"/>
<path d="M63.9961,222.249h -6.80315" fill="none" stroke="black"/>
<path d="M63.9961,211.935h -6.80315" fill="none" stroke="black"/>
<path d="M63.9961,201.621h -6.80315" fill="none" stroke="black"/>
<path d="M70.7992,191.306h -13.6063" fill="none" stroke="black"/>
<path d="M63.9961,180.992h -6.80315" fill="none" stroke="black"/>
<path d="M63.9961,170.677h -6.80315" fill="none" stroke="black"/>
<path d="M63.9961,160.363h -6.80315" fill="none" stroke="black"/>
<path d="M63.9961,150.049h -6.80315" fill="none" stroke="black"/>
<path d="M70.7992,139.734h -13.6063" fill="none" stroke="black"/>
<path d="M63.9961,129.42h -6.80315" fill="none" stroke="black"/>
<path d="M63.9961,119.106h -6.80315" fill="none" stroke="black"/>
<path d="M63.9961,108.791h -6.80315" fill="none" stroke="black"/>
<path d="M63.9961,98.4767h -6.80315" fill="none" stroke="black"/>
<path d="M70.7992,88.1623h -13.6063" fill="none" stroke="black"/>
<path d="M70.7992,88.1623h -13.6063" fill="none" stroke="black"/>
<path d="M63.9961,77.8479h -6.80315" fill="none" stroke="black"/>
<path d="M63.9961,67.5335h -6.80315" fill="none" stroke="black"/>
<path d="M63.9961,57.2191h -6.80315" fill="none" stroke="black"/>
<path d="M63.9961,46.9047h -6.80315" fill="none" stroke="black"/>
<text xml:space="preserve" x="47.7441" y="350.258" fill="black" font-size="12.8453" font-family="Helvetica">0</text>
<text xml:space="preserve" x="33.8967" y="298.941" fill="black" font-size="12.8453" font-family="Helvetica">100</text>
<text xml:space="preserve" x="33.8967" y="247.624" fill="black" font-size="12.8453" font-family="Helvetica">200</text>
<text xml:space="preserve" x="33.8967" y="195.493" fill="black" font-size="12.8453" font-family="Helvetica">300</text>
<text xml:space="preserve" x="33.8967" y="144.176" fill="black" font-size="12.8453" font-family="Helvetica">400</text>
<text xml:space="preserve" x="33.8967" y="92.8591" fill="black" font-size="12.8453" font-family="Helvetica">500</text>
<g transform="rotate(-90,20.8638,70.0516)">
<text xml:space="preserve" x="20.8638" y="70.0516" fill="black" font-size="12.8453" font-family="Helvetica">Event</text>
</g>
<text xml:space="preserve" x="250.568" y="18.7347" fill="black" font-size="18.0316" font-family="Helvetica">Am_006</text>
<rect x="442.705" y="24.9905" width="113.386" height="61.5151" fill="white"/>
<path d="M442.705,86.5056h 113.386" fill="none" stroke="black"/>
<path d="M556.091,86.5056v -61.5151" fill="none" stroke="black"/>
<path d="M556.091,24.9905h -113.386" fill="none" stroke="black"/>
<path d="M442.705,24.9905v 61.5151" fill="none" stroke="black"/>
<text xml:space="preserve" x="474.57" y="36.6549" fill="black" font-size="13.4802" font-family="Helvetica">Am_006</text>
<path d="M442.705,40.3693h 113.386" fill="none" stroke="black"/>
<text xml:space="preserve" x="447.69" y="52.946" fill="black" font-size="12.7186" font-family="Helvetica">Entries </text>
<text xml:space="preserve" x="512.854" y="52.946" fill="black" font-size="12.7186" font-family="Helvetica"> 10045</text>
<text xml:space="preserve" x="447.69" y="67.6079" fill="black" font-size="12.7186" font-family="Helvetica">Mean  </text>
<text xml:space="preserve" x="512.854" y="67.6079" fill="black" font-size="12.7186" font-family="Helvetica">  127.2</text>
<text xml:space="preserve" x="447.69" y="83.0844" fill="black" font-size="12.7186" font-family="Helvetica">Std Dev   </text>
<text xml:space="preserve" x="512.854" y="83.0844" fill="black" font-size="12.7186" font-family="Helvetica">  75.16</text>
<text xml:space="preserve" x="250.568" y="18.7347" fill="black" font-size="18.0316" font-family="Helvetica">Am_006</text></svg>
