<?xml version="1.0" standalone="no"?>
<svg width="567.429" height="384.969" viewBox="0 0 567.429 384.969" xmlns="http://www.w3.org/2000/svg" shape-rendering="crispEdges">
<title>
img/week1/plane_hist/Am_009.svg
</title>
<desc>
Creator: ROOT Version 6.22/09
CreationDate: Sun Jul 11 17:57:17 2021</desc>
<defs>
</defs>
<rect x="0.5" y="0" width="566.929" height="384.469" fill="white"/>
<rect x="57.1929" y="38.4469" width="453.543" height="307.575" fill="white"/>
<rect x="57.1929" y="38.4469" width="453.543" height="307.575" fill="none" stroke="black"/>
<path d="M57.1929,346.022h 66.155v -0.291956h 0.636106v -2.04369h 0.636106v -10.705h 0.636106v 0.875867h 0.636106v 0.875867h 0.636106v 1.0705h 0.636106v -3.50347h 0.636106v -1.26514h 0.636106v 4.08738h 0.636106v -0.486593h 0.636106v -1.36246h
 0.636106v 1.75173h 0.636106v -1.36246h 0.636106v 0.194637h 0.636106v 0.778549h 0.636106v -1.45978h 0.636106v 0.389274h 0.636106v 0.973186h 0.636106v 1.26514h 0.636106v -0.291956h 0.636106v -1.5571h 0.636106v -0.194637h 0.636106v 2.91956h 0.636106v
 -0.0973186h 0.636106v -1.16782h 0.636106v -1.75173h 0.636106v -0.389274h 0.636106v 2.14101h 0.636106v -0.389274h 0.636106v -2.43296h 0.636106v 0.778549h 0.636106v 2.43296h 0.636106v -1.94637h 0.636106v 1.26514h 0.636106v 0.68123h 0.636106v
 -0.778549h 0.636106v 0.194637h 0.636106v -0.0973186h 0.636106v 0.194637h 0.636106v 0.486593h 0.636106v -0.583911h 0.636106v 0.486593h 0.636106v -0.68123h 1.27221v -1.84905h 0.636106v 0.389274h 0.636106v 1.36246h 0.636106v 0.778549h 0.636106v
 -0.486593h 0.636106v -0.68123h 0.636106v 2.14101h 0.636106v -1.45978h 0.636106v -2.82224h 0.636106v 3.60079h 0.636106v -0.778549h 0.636106v 0.194637h 0.636106v 0.778549h 0.636106v -2.53028h 0.636106v 0.973186h 0.636106v 2.6276h 0.636106v -3.01688h
 0.636106v 0.194637h 0.636106v 1.84905h 0.636106v -0.875867h 0.636106v 0.194637h 0.636106v -1.45978h 0.636106v 0.291956h 0.636106v 0.486593h 0.636106v 1.45978h 0.636106v -0.194637h 0.636106v -0.973186h 1.27221v 0.973186h 0.636106v -0.973186h
 0.636106v 0.389274h 0.636106v -0.0973186h 0.636106v -1.5571h 0.636106v 0.778549h 0.636106v 1.36246h 0.636106v -0.486593h 0.636106v -0.875867h 0.636106v -1.16782h 0.636106v 2.91956h 0.636106v 0.583911h 0.636106v -1.65442h 0.636106v -1.36246h
 0.636106v 3.79542h 0.636106v -2.23833h 0.636106v -1.84905h 0.636106v -0.0973186h 0.636106v 0.973186h 0.636106v 1.26514h 0.636106v 2.6276h 0.636106v -2.91956h 0.636106v -1.16782h 0.636106v -0.973186h 0.636106v 3.40615h 0.636106v 0.875867h 0.636106v
 -3.01688h 0.636106v 1.5571h 0.636106v 0.194637h 0.636106v -0.194637h 0.636106v -0.291956h 0.636106v -1.16782h 1.27221v -0.778549h 0.636106v 3.01688h 0.636106v -2.23833h 0.636106v 0.0973186h 0.636106v 0.778549h 0.636106v 1.45978h 0.636106v -3.50347h
 0.636106v 0.68123h 1.27221v 0.194637h 0.636106v 2.14101h 0.636106v -0.778549h 0.636106v -4.57397h 0.636106v 0.291956h 0.636106v 1.36246h 0.636106v 2.23833h 0.636106v -3.11419h 0.636106v -0.583911h 0.636106v -2.04369h 0.636106v 3.40615h 0.636106v
 -1.16782h 0.636106v -2.23833h 0.636106v 0.486593h 0.636106v 1.45978h 0.636106v 0.291956h 0.636106v -0.875867h 0.636106v -2.04369h 0.636106v 1.16782h 0.636106v -0.973186h 0.636106v -0.0973186h 0.636106v -2.82224h 0.636106v 0.875867h 0.636106v
 3.79542h 0.636106v -2.82224h 0.636106v -1.5571h 0.636106v 0.0973186h 0.636106v -0.875867h 0.636106v 1.65442h 0.636106v -0.973186h 0.636106v -0.194637h 1.27221v -1.75173h 0.636106v 2.04369h 0.636106v -2.04369h 0.636106v -0.389274h 0.636106v -1.84905h
 0.636106v 4.47665h 0.636106v -2.72492h 0.636106v -0.389274h 0.636106v -1.0705h 0.636106v 1.5571h 0.636106v 1.45978h 0.636106v -3.69811h 0.636106v 1.36246h 0.636106v -1.45978h 0.636106v -0.0973186h 0.636106v 4.08738h 0.636106v -5.06057h 0.636106v
 1.45978h 0.636106v -1.36246h 0.636106v 3.40615h 0.636106v -4.08738h 0.636106v -0.973186h 0.636106v -2.6276h 0.636106v 4.28202h 0.636106v 0.68123h 0.636106v -5.64448h 0.636106v -1.45978h 0.636106v -1.36246h 0.636106v 4.86593h 0.636106v 1.36246h
 0.636106v -6.42303h 0.636106v -1.45978h 0.636106v 0.389274h 0.636106v 3.60079h 0.636106v 0.583911h 0.636106v -9.24526h 0.636106v 4.37934h 0.636106v -1.36246h 0.636106v 5.35252h 0.636106v -7.59085h 1.27221v -4.08738h 0.636106v 5.44984h 0.636106v
 -2.72492h 0.636106v -4.86593h 0.636106v 0.291956h 0.636106v 0.583911h 0.636106v 3.69811h 0.636106v -8.85599h 0.636106v -2.72492h 0.636106v -1.26514h 0.636106v 7.20157h 0.636106v -3.11419h 0.636106v -7.39621h 0.636106v 1.26514h 0.636106v -0.778549h
 0.636106v 3.11419h 0.636106v -3.79542h 0.636106v -6.32571h 0.636106v 1.84905h 0.636106v 2.91956h 0.636106v 8.56403h 0.636106v -9.53722h 0.636106v -7.20157h 0.636106v 5.83911h 0.636106v 0.291956h 0.636106v 1.75173h 0.636106v -3.11419h 0.636106v
 -6.90962h 0.636106v 1.36246h 0.636106v 6.52034h 0.636106v -1.45978h 0.636106v -17.42h 0.636106v 8.75867h 0.636106v 11.1916h 0.636106v 1.65442h 0.636106v -14.7924h 0.636106v -4.08738h 0.636106v 8.46672h 0.636106v 13.9166h 0.636106v -7.20157h
 0.636106v -6.52034h 0.636106v 1.5571h 0.636106v 10.705h 0.636106v -0.875867h 0.636106v 2.33565h 0.636106v -10.997h 0.636106v 1.94637h 0.636106v 11.6782h 0.636106v 1.65442h 0.636106v -7.59085h 0.636106v 1.36246h 0.636106v 0.583911h 0.636106v 11.9702h
 0.636106v -13.43h 0.636106v 4.37934h 0.636106v 2.14101h 0.636106v 2.82224h 0.636106v 2.6276h 0.636106v -6.90962h 0.636106v 4.08738h 0.636106v -0.68123h 0.636106v 13.3326h 0.636106v -4.57397h 0.636106v -7.68817h 0.636106v 1.5571h 0.636106v 8.56403h
 0.636106v 2.82224h 0.636106v -4.1847h 0.636106v -1.0705h 0.636106v 1.45978h 0.636106v 3.21151h 0.636106v -0.0973186h 0.636106v -3.30883h 0.636106v -1.84905h 0.636106v 4.28202h 0.636106v 3.40615h 0.636106v -1.16782h 0.636106v -3.60079h 0.636106v
 3.89274h 0.636106v 4.1847h 0.636106v -1.0705h 0.636106v 0.194637h 0.636106v -6.52034h 0.636106v 3.50347h 0.636106v 5.15788h 0.636106v -2.91956h 0.636106v -2.53028h 0.636106v 0.68123h 0.636106v 3.40615h 0.636106v 3.50347h 0.636106v -8.75867h
 0.636106v 1.5571h 0.636106v 2.23833h 0.636106v 1.5571h 0.636106v 0.291956h 0.636106v -2.91956h 0.636106v 0.194637h 0.636106v 1.94637h 0.636106v 2.14101h 0.636106v -1.5571h 0.636106v -3.11419h 0.636106v 3.21151h 0.636106v 1.94637h 0.636106v 2.23833h
 0.636106v -5.06057h 0.636106v 0.291956h 0.636106v 2.72492h 0.636106v 1.45978h 0.636106v -0.389274h 0.636106v -2.6276h 0.636106v 0.583911h 0.636106v 3.01688h 0.636106v 0.0973186h 0.636106v 0.0973186h 0.636106v -2.72492h 0.636106v 1.5571h 0.636106v
 3.11419h 0.636106v 3.21151h 0.636106v -4.47665h 0.636106v -2.82224h 0.636106v 3.89274h 0.636106v 2.82224h 0.636106v -0.291956h 0.636106v 0.389274h 0.636106v -2.72492h 0.636106v 5.44984h 0.636106v -1.45978h 0.636106v -0.194637h 0.636106v -0.291956h
 0.636106v 0.875867h 0.636106v 1.84905h 0.636106v 0.68123h 0.636106v 0.0973186h 0.636106v -1.94637h 0.636106v 2.33565h 0.636106v 2.91956h 0.636106v -3.89274h 1.27221v 1.36246h 0.636106v 1.0705h 0.636106v 2.23833h 0.636106v -2.04369h 0.636106v
 0.194637h 0.636106v 1.75173h 0.636106v 1.75173h 0.636106v -0.875867h 0.636106v 0.486593h 0.636106v -0.875867h 0.636106v 0.68123h 0.636106v 3.99006h 0.636106v -3.99006h 0.636106v -0.486593h 0.636106v 0.875867h 0.636106v 1.94637h 0.636106v -0.291956h
 0.636106v -0.68123h 0.636106v -0.0973186h 0.636106v -1.65442h 0.636106v 1.75173h 0.636106v -0.0973186h 0.636106v 0.389274h 0.636106v 0.486593h 0.636106v -0.389274h 0.636106v -0.0973186h 0.636106v -0.486593h 0.636106v -0.194637h 0.636106v 2.14101h
 0.636106v -0.583911h 0.636106v 0.291956h 0.636106v -0.973186h 0.636106v -0.389274h 0.636106v 0.486593h 0.636106v 1.45978h 0.636106v -0.973186h 0.636106v -1.16782h 0.636106v -0.194637h 0.636106v 3.11419h 0.636106v -1.45978h 0.636106v -3.21151h
 0.636106v -1.36246h 0.636106v 3.11419h 0.636106v 1.94637h 0.636106v -4.28202h 0.636106v 1.16782h 0.636106v -1.26514h 0.636106v 2.43296h 0.636106v 0.389274h 0.636106v -0.389274h 0.636106v -0.973186h 0.636106v -0.389274h 0.636106v 0.291956h 0.636106v
 1.65442h 0.636106v -2.6276h 0.636106v -0.486593h 0.636106v 1.45978h 0.636106v 1.84905h 0.636106v -3.99006h 0.636106v 0.875867h 0.636106v 1.0705h 0.636106v 2.04369h 0.636106v -1.0705h 0.636106v -0.389274h 0.636106v 0.389274h 0.636106v 0.389274h
 1.27221v -0.0973186h 0.636106v -0.973186h 0.636106v 0.389274h 0.636106v 2.14101h 0.636106v -0.778549h 0.636106v 1.0705h 0.636106v -0.875867h 1.27221v -0.68123h 0.636106v 2.53028h 0.636106v -1.65442h 0.636106v 0.875867h 0.636106v 0.973186h 0.636106v
 -0.68123h 0.636106v 1.26514h 0.636106v 0.68123h 0.636106v -1.36246h 0.636106v 0.583911h 0.636106v 1.65442h 0.636106v -2.23833h 0.636106v -0.389274h 0.636106v 1.26514h 0.636106v 2.43296h 0.636106v -0.973186h 0.636106v -0.389274h 0.636106v -0.875867h
 0.636106v 1.5571h 0.636106v 0.291956h 0.636106v -0.389274h 0.636106v 0.0973186h 0.636106v 0.973186h 0.636106v -0.875867h 0.636106v -0.583911h 0.636106v 0.875867h 0.636106v 0.875867h 0.636106v -0.194637h 0.636106v 0.778549h 0.636106v -1.0705h
 0.636106v 0.194637h 0.636106v 0.291956h 0.636106v 0.583911h 0.636106v -0.194637h 0.636106v 0.194637h 1.27221v -0.291956h 0.636106v 0.68123h 0.636106v 0.0973186h 0.636106v -0.0973186h 0.636106v 0.0973186h 0.636106v -0.973186h 0.636106v 1.16782h
 1.27221v -0.291956h 0.636106v 0.875867h 0.636106v 0.389274h 0.636106v -0.194637h 0.636106v -0.68123h 0.636106v 0.583911h 0.636106v -0.486593h 1.27221v 0.0973186h 0.636106v 0.194637h 0.636106v -0.0973186h 0.636106v 0.389274h 0.636106v -0.0973186h
 0.636106v -0.291956h 0.636106v 0.291956h 0.636106v -0.0973186h 0.636106v 0.0973186h 0.636106v -0.291956h 0.636106v 0.68123h 0.636106v -0.291956h 0.636106v -0.486593h 0.636106v 0.389274h 0.636106v -0.0973186h 0.636106v -0.0973186h 0.636106v 0.68123h
 0.636106v -0.486593h 1.27221v -0.194637h 0.636106v -0.0973186h 0.636106v -0.0973186h 0.636106v 0.68123h 0.636106v 0.291956h 0.636106v -0.486593h 1.27221v 0.291956h 0.636106v -0.875867h 0.636106v 0.68123h 1.27221v -0.194637h 0.636106v 0.291956h
 0.636106v -0.291956h 0.636106v -0.389274h 0.636106v 0.194637h 0.636106v 0.778549h 0.636106v -0.583911h 0.636106v -0.291956h 0.636106v 0.389274h 0.636106v -0.291956h 0.636106v 0.583911h 1.27221v -0.194637h 0.636106v -0.389274h 1.27221v 0.389274h
 1.90832v -0.0973186h 0.636106v 0.291956h 1.27221v -0.68123h 0.636106v 0.0973186h 0.636106v 0.583911h 0.636106v 0.0973186h 0.636106v -0.0973186h 0.636106v -0.291956h 0.636106v 0.194637h 0.636106v -0.0973186h 0.636106v -0.0973186h 0.636106v 0.0973186h
 1.27221v -0.291956h 0.636106v 0.0973186h 1.27221v 0.291956h 0.636106v -0.486593h 0.636106v -0.0973186h 0.636106v 0.0973186h 0.636106v 0.291956h 0.636106v 0.389274h 0.636106v -0.778549h 0.636106v 0.291956h 0.636106v -0.389274h 0.636106v 0.194637h
 0.636106v 0.68123h 0.636106v -0.194637h 0.636106v 0.0973186h 0.636106v -0.486593h 0.636106v 0.389274h 0.636106v -0.389274h 0.636106v -0.194637h 0.636106v 0.0973186h 0.636106v 0.194637h 0.636106v -0.389274h 0.636106v 0.389274h 0.636106v -0.291956h
 0.636106v -0.0973186h 0.636106v 1.16782h 0.636106v -0.291956h 0.636106v -0.389274h 0.636106v 0.194637h 0.636106v 0.389274h 0.636106v -0.583911h 0.636106v 0.194637h 1.27221v 0.291956h 0.636106v -0.68123h 0.636106v 0.194637h 0.636106v -0.194637h
 0.636106v 0.0973186h 0.636106v 0.68123h 0.636106v -0.68123h 0.636106v 0.194637h 0.636106v 0.194637h 0.636106v -0.291956h 0.636106v 0.0973186h 0.636106v 0.0973186h 0.636106v -0.0973186h 2.54442v -0.486593h 0.636106v 0.486593h 0.636106v 0.0973186h
 0.636106v 0.0973186h 0.636106v -0.583911h 1.27221v 0.583911h 0.636106v -1.16782h 0.636106v -10.0238h 0.636106v -82.6235h 0.636106v -198.53h 0.636106v 48.27h 0.636106v 44.5719h 0.636106v 30.7527h 0.636106v 57.3206h 0.636106v 26.3733h 0.636106v
 7.68817h 0.636106v -12.0675h 0.636106v -3.60079h 0.636106v 12.8461h 0.636106v 9.14795h 0.636106v -5.7418h 0.636106v 23.7457h 0.636106v 37.7596h 0.636106v 12.8461h 0.636106v 2.23833h 0.636106v 0.0973186h 0.636106v 0.389274h 0.636106v -0.0973186h
 0.636106v -0.0973186h 0.636106v 0.486593h 1.90832v -0.0973186h 0.636106v 0.0973186h 6.36106v -0.0973186h 0.636106" fill="none" stroke="#000099"/>
<path d="M57.1929,346.022h 453.543" fill="none" stroke="black"/>
<path d="M57.829,336.795v 9.22726" fill="none" stroke="black"/>
<path d="M79.0325,341.409v 4.61363" fill="none" stroke="black"/>
<path d="M100.236,341.409v 4.61363" fill="none" stroke="black"/>
<path d="M121.44,341.409v 4.61363" fill="none" stroke="black"/>
<path d="M142.643,341.409v 4.61363" fill="none" stroke="black"/>
<path d="M163.847,336.795v 9.22726" fill="none" stroke="black"/>
<path d="M185.05,341.409v 4.61363" fill="none" stroke="black"/>
<path d="M206.254,341.409v 4.61363" fill="none" stroke="black"/>
<path d="M227.457,341.409v 4.61363" fill="none" stroke="black"/>
<path d="M248.661,341.409v 4.61363" fill="none" stroke="black"/>
<path d="M269.864,336.795v 9.22726" fill="none" stroke="black"/>
<path d="M291.068,341.409v 4.61363" fill="none" stroke="black"/>
<path d="M312.271,341.409v 4.61363" fill="none" stroke="black"/>
<path d="M333.475,341.409v 4.61363" fill="none" stroke="black"/>
<path d="M354.678,341.409v 4.61363" fill="none" stroke="black"/>
<path d="M375.882,336.795v 9.22726" fill="none" stroke="black"/>
<path d="M397.085,341.409v 4.61363" fill="none" stroke="black"/>
<path d="M418.289,341.409v 4.61363" fill="none" stroke="black"/>
<path d="M439.492,341.409v 4.61363" fill="none" stroke="black"/>
<path d="M460.696,341.409v 4.61363" fill="none" stroke="black"/>
<path d="M481.899,336.795v 9.22726" fill="none" stroke="black"/>
<path d="M57.829,336.795v 9.22726" fill="none" stroke="black"/>
<path d="M481.899,336.795v 9.22726" fill="none" stroke="black"/>
<path d="M503.103,341.409v 4.61363" fill="none" stroke="black"/>
<text xml:space="preserve" x="54.2605" y="358.403" fill="black" font-size="12.8453" font-family="Helvetica">0</text>
<text xml:space="preserve" x="152.821" y="358.403" fill="black" font-size="12.8453" font-family="Helvetica">500</text>
<text xml:space="preserve" x="255.455" y="358.403" fill="black" font-size="12.8453" font-family="Helvetica">1000</text>
<text xml:space="preserve" x="361.347" y="358.403" fill="black" font-size="12.8453" font-family="Helvetica">1500</text>
<text xml:space="preserve" x="467.239" y="358.403" fill="black" font-size="12.8453" font-family="Helvetica">2000</text>
<text xml:space="preserve" x="451.763" y="372.251" fill="black" font-size="12.8453" font-family="Helvetica">ADC value</text>
<path d="M57.1929,346.022v -307.575" fill="none" stroke="black"/>
<path d="M70.7992,346.022h -13.6063" fill="none" stroke="black"/>
<path d="M63.9961,336.29h -6.80315" fill="none" stroke="black"/>
<path d="M63.9961,326.559h -6.80315" fill="none" stroke="black"/>
<path d="M63.9961,316.827h -6.80315" fill="none" stroke="black"/>
<path d="M63.9961,307.095h -6.80315" fill="none" stroke="black"/>
<path d="M70.7992,297.363h -13.6063" fill="none" stroke="black"/>
<path d="M63.9961,287.631h -6.80315" fill="none" stroke="black"/>
<path d="M63.9961,277.899h -6.80315" fill="none" stroke="black"/>
<path d="M63.9961,268.167h -6.80315" fill="none" stroke="black"/>
<path d="M63.9961,258.436h -6.80315" fill="none" stroke="black"/>
<path d="M70.7992,248.704h -13.6063" fill="none" stroke="black"/>
<path d="M63.9961,238.972h -6.80315" fill="none" stroke="black"/>
<path d="M63.9961,229.24h -6.80315" fill="none" stroke="black"/>
<path d="M63.9961,219.508h -6.80315" fill="none" stroke="black"/>
<path d="M63.9961,209.776h -6.80315" fill="none" stroke="black"/>
<path d="M70.7992,200.044h -13.6063" fill="none" stroke="black"/>
<path d="M63.9961,190.313h -6.80315" fill="none" stroke="black"/>
<path d="M63.9961,180.581h -6.80315" fill="none" stroke="black"/>
<path d="M63.9961,170.849h -6.80315" fill="none" stroke="black"/>
<path d="M63.9961,161.117h -6.80315" fill="none" stroke="black"/>
<path d="M70.7992,151.385h -13.6063" fill="none" stroke="black"/>
<path d="M63.9961,141.653h -6.80315" fill="none" stroke="black"/>
<path d="M63.9961,131.921h -6.80315" fill="none" stroke="black"/>
<path d="M63.9961,122.19h -6.80315" fill="none" stroke="black"/>
<path d="M63.9961,112.458h -6.80315" fill="none" stroke="black"/>
<path d="M70.7992,102.726h -13.6063" fill="none" stroke="black"/>
<path d="M63.9961,92.994h -6.80315" fill="none" stroke="black"/>
<path d="M63.9961,83.2621h -6.80315" fill="none" stroke="black"/>
<path d="M63.9961,73.5303h -6.80315" fill="none" stroke="black"/>
<path d="M63.9961,63.7984h -6.80315" fill="none" stroke="black"/>
<path d="M70.7992,54.0666h -13.6063" fill="none" stroke="black"/>
<path d="M70.7992,54.0666h -13.6063" fill="none" stroke="black"/>
<path d="M63.9961,44.3347h -6.80315" fill="none" stroke="black"/>
<text xml:space="preserve" x="47.7441" y="350.258" fill="black" font-size="12.8453" font-family="Helvetica">0</text>
<text xml:space="preserve" x="33.8967" y="302.199" fill="black" font-size="12.8453" font-family="Helvetica">500</text>
<text xml:space="preserve" x="27.3803" y="253.326" fill="black" font-size="12.8453" font-family="Helvetica">1000</text>
<text xml:space="preserve" x="27.3803" y="204.453" fill="black" font-size="12.8453" font-family="Helvetica">1500</text>
<text xml:space="preserve" x="27.3803" y="155.58" fill="black" font-size="12.8453" font-family="Helvetica">2000</text>
<text xml:space="preserve" x="27.3803" y="107.521" fill="black" font-size="12.8453" font-family="Helvetica">2500</text>
<text xml:space="preserve" x="27.3803" y="58.6478" fill="black" font-size="12.8453" font-family="Helvetica">3000</text>
<g transform="rotate(-90,14.3474,70.0516)">
<text xml:space="preserve" x="14.3474" y="70.0516" fill="black" font-size="12.8453" font-family="Helvetica">Event</text>
</g>
<text xml:space="preserve" x="250.568" y="18.7347" fill="black" font-size="18.0316" font-family="Helvetica">Am_009</text>
<rect x="442.705" y="24.9905" width="113.386" height="61.5151" fill="white"/>
<path d="M442.705,86.5056h 113.386" fill="none" stroke="black"/>
<path d="M556.091,86.5056v -61.5151" fill="none" stroke="black"/>
<path d="M556.091,24.9905h -113.386" fill="none" stroke="black"/>
<path d="M442.705,24.9905v 61.5151" fill="none" stroke="black"/>
<text xml:space="preserve" x="474.57" y="36.6549" fill="black" font-size="13.4802" font-family="Helvetica">Am_009</text>
<path d="M442.705,40.3693h 113.386" fill="none" stroke="black"/>
<text xml:space="preserve" x="447.69" y="52.946" fill="black" font-size="12.3904" font-family="Helvetica">Entries </text>
<text xml:space="preserve" x="506.338" y="52.946" fill="black" font-size="12.3904" font-family="Helvetica"> 116742</text>
<text xml:space="preserve" x="447.69" y="67.6079" fill="black" font-size="12.3904" font-family="Helvetica">Mean  </text>
<text xml:space="preserve" x="512.854" y="67.6079" fill="black" font-size="12.3904" font-family="Helvetica">   1138</text>
<text xml:space="preserve" x="447.69" y="83.0844" fill="black" font-size="12.3904" font-family="Helvetica">Std Dev   </text>
<text xml:space="preserve" x="512.854" y="83.0844" fill="black" font-size="12.3904" font-family="Helvetica">  468.3</text>
<text xml:space="preserve" x="250.568" y="18.7347" fill="black" font-size="18.0316" font-family="Helvetica">Am_009</text></svg>
