<?xml version="1.0" standalone="no"?>
<svg width="567.429" height="384.969" viewBox="0 0 567.429 384.969" xmlns="http://www.w3.org/2000/svg" shape-rendering="crispEdges">
<title>
img/week1/plane_hist/Am_004.svg
</title>
<desc>
Creator: ROOT Version 6.22/09
CreationDate: Fri Jul  2 19:46:24 2021</desc>
<defs>
</defs>
<rect x="0.5" y="0" width="566.929" height="384.469" fill="white"/>
<rect x="57.1929" y="38.4469" width="453.543" height="307.575" fill="white"/>
<rect x="57.1929" y="38.4469" width="453.543" height="307.575" fill="none" stroke="black"/>
<path d="M57.1929,346.022h 23.0315v -10.652h 0.885827v 5.32598h 0.442913v -5.32598h 1.32874v -10.652h 0.442913v 15.9779h 0.442913v -21.3039h 0.442913v 15.9779h 0.442913v -5.32598h 0.442913v -10.652h 0.442913v 10.652h 0.442913v -10.652h 0.442913v
 21.3039h 0.442913v 5.32598h 0.442913v -5.32598h 0.442913v -21.3039h 0.442913v 5.32598h 0.442913v 10.652h 0.885827v -5.32598h 0.885827v 5.32598h 0.442913v 10.652h 0.442913v -5.32598h 0.442913v 5.32598h 0.442913v -10.652h 0.885827v 10.652h 0.442913v
 -5.32598h 1.32874v -5.32598h 0.442913v 5.32598h 0.885827v 5.32598h 0.885827v -5.32598h 0.442913v 5.32598h 2.21457v -10.652h 0.442913v 5.32598h 0.442913v 5.32598h 0.442913v -5.32598h 0.885827v 5.32598h 0.442913v -5.32598h 0.442913v 5.32598h 3.98622v
 -5.32598h 0.885827v 5.32598h 0.885827v -10.652h 0.442913v 10.652h 1.32874v -5.32598h 0.442913v 5.32598h 0.442913v -10.652h 0.442913v 10.652h 0.442913v -5.32598h 0.885827v 5.32598h 5.31496v -5.32598h 0.442913v 5.32598h 0.885827v -5.32598h 0.442913v
 5.32598h 2.21457v -5.32598h 0.885827v 5.32598h 0.885827v -5.32598h 0.442913v 5.32598h 0.442913v -5.32598h 0.442913v 5.32598h 2.65748v -5.32598h 0.442913v 5.32598h 0.885827v -10.652h 0.442913v 5.32598h 0.442913v 5.32598h 3.54331v -5.32598h 0.442913v
 5.32598h 1.32874v -15.9779h 0.442913v 15.9779h 3.54331v -5.32598h 0.442913v -5.32598h 0.442913v 10.652h 3.10039v -5.32598h 0.442913v 5.32598h 0.442913v -5.32598h 0.885827v 5.32598h 2.21457v -5.32598h 0.442913v -10.652h 0.442913v 15.9779h 0.442913v
 -5.32598h 0.885827v 5.32598h 0.442913v -5.32598h 0.442913v 5.32598h 1.32874v -5.32598h 0.885827v -10.652h 0.442913v 5.32598h 0.442913v 5.32598h 1.32874v -5.32598h 0.442913v 10.652h 0.442913v -10.652h 0.442913v 5.32598h 0.885827v 5.32598h 0.442913v
 -10.652h 0.885827v 10.652h 0.885827v -15.9779h 0.442913v 5.32598h 0.885827v -10.652h 0.442913v 10.652h 0.442913v 5.32598h 0.442913v 5.32598h 0.442913v -10.652h 0.885827v -15.9779h 0.442913v 10.652h 0.442913v -15.9779h 0.442913v 26.6299h 0.885827v
 -15.9779h 0.442913v -10.652h 0.442913v 5.32598h 0.442913v 10.652h 0.442913v -21.3039h 0.442913v 37.2819h 0.442913v -15.9779h 0.442913v -10.652h 0.442913v -5.32598h 0.442913v 10.652h 0.885827v -10.652h 0.442913v 10.652h 0.442913v 5.32598h 0.442913v
 -10.652h 0.442913v -5.32598h 0.442913v 21.3039h 0.885827v -21.3039h 0.885827v 15.9779h 0.442913v -21.3039h 0.442913v 15.9779h 0.442913v -15.9779h 0.442913v 31.9559h 0.442913v -15.9779h 0.442913v 5.32598h 0.442913v -5.32598h 0.442913v -42.6078h
 0.442913v 31.9559h 0.442913v 5.32598h 0.442913v -10.652h 0.442913v 37.2819h 0.442913v -26.6299h 0.885827v -15.9779h 0.442913v 15.9779h 0.442913v -10.652h 0.442913v 26.6299h 0.442913v -15.9779h 0.442913v 15.9779h 0.442913v -15.9779h 0.442913v
 -26.6299h 0.442913v 42.6078h 0.442913v 5.32598h 0.442913v -5.32598h 0.442913v -21.3039h 0.442913v 5.32598h 0.442913v 5.32598h 0.442913v -10.652h 0.442913v 15.9779h 0.442913v -5.32598h 0.442913v -5.32598h 0.442913v 21.3039h 0.442913v -31.9559h
 0.885827v 21.3039h 0.885827v 10.652h 0.442913v -10.652h 0.442913v 10.652h 0.442913v -21.3039h 0.442913v -5.32598h 0.442913v 15.9779h 0.885827v -26.6299h 0.442913v 26.6299h 0.442913v -10.652h 0.442913v -5.32598h 0.442913v 5.32598h 0.442913v 10.652h
 0.885827v -10.652h 0.442913v 26.6299h 0.442913v -26.6299h 0.442913v 10.652h 0.885827v -5.32598h 0.442913v 5.32598h 0.442913v 10.652h 0.442913v -21.3039h 0.442913v -10.652h 0.442913v 21.3039h 0.442913v -5.32598h 0.442913v 5.32598h 0.442913v -5.32598h
 0.442913v 5.32598h 0.885827v 10.652h 0.442913v -5.32598h 0.442913v -21.3039h 0.442913v 15.9779h 0.442913v -5.32598h 0.442913v 5.32598h 0.442913v 10.652h 0.442913v -5.32598h 0.442913v 5.32598h 0.442913v -15.9779h 0.885827v 21.3039h 0.442913v -10.652h
 0.885827v -21.3039h 0.442913v 26.6299h 0.442913v -10.652h 0.442913v 15.9779h 0.442913v -5.32598h 0.442913v 5.32598h 0.442913v -10.652h 0.442913v 5.32598h 1.32874v -5.32598h 0.885827v 5.32598h 0.442913v -5.32598h 0.442913v -5.32598h 0.442913v
 15.9779h 0.442913v -15.9779h 0.442913v -5.32598h 0.442913v 21.3039h 0.442913v -15.9779h 0.442913v 5.32598h 0.442913v 5.32598h 0.885827v -10.652h 0.442913v -15.9779h 0.442913v 21.3039h 0.885827v 5.32598h 0.442913v -5.32598h 0.442913v 5.32598h
 0.885827v -5.32598h 0.442913v -5.32598h 0.885827v 15.9779h 0.885827v -15.9779h 0.442913v 5.32598h 0.885827v 5.32598h 0.442913v -10.652h 0.442913v -5.32598h 0.442913v 15.9779h 0.442913v -10.652h 0.442913v 10.652h 0.442913v 5.32598h 0.442913v
 -5.32598h 0.885827v -21.3039h 0.442913v 26.6299h 1.77165v -5.32598h 0.885827v 5.32598h 0.885827v -10.652h 0.442913v 10.652h 0.442913v -5.32598h 0.442913v 5.32598h 0.885827v -10.652h 0.442913v 5.32598h 0.442913v -5.32598h 0.442913v 5.32598h 0.442913v
 5.32598h 0.442913v -10.652h 0.442913v 10.652h 0.442913v -5.32598h 0.885827v -5.32598h 0.442913v 5.32598h 1.32874v -5.32598h 0.442913v 5.32598h 0.442913v 5.32598h 1.32874v -10.652h 0.442913v 10.652h 0.442913v -10.652h 0.442913v 10.652h 1.32874v
 -5.32598h 0.442913v 5.32598h 3.54331v -5.32598h 0.442913v 5.32598h 1.32874v -5.32598h 0.442913v 5.32598h 0.442913v -5.32598h 0.442913v 5.32598h 0.885827v -5.32598h 0.442913v 5.32598h 1.32874v -5.32598h 0.442913v 5.32598h 3.10039v -5.32598h 0.442913v
 5.32598h 3.10039v -10.652h 0.442913v 10.652h 1.32874v -5.32598h 0.442913v 5.32598h 0.442913v -5.32598h 0.442913v 5.32598h 1.32874v -5.32598h 0.885827v 5.32598h 0.442913v -10.652h 0.885827v 10.652h 1.77165v -5.32598h 0.442913v 5.32598h 0.885827v
 -10.652h 0.442913v 10.652h 0.885827v -5.32598h 0.885827v 5.32598h 2.21457v -5.32598h 0.442913v 5.32598h 1.77165v -5.32598h 0.442913v 5.32598h 7.08661v -5.32598h 0.442913v 5.32598h 1.77165v -5.32598h 0.442913v 5.32598h 7.08661v -10.652h 0.442913v
 10.652h 4.87205v -5.32598h 0.442913v 5.32598h 2.21457v -5.32598h 0.885827v 5.32598h 1.32874v -5.32598h 0.442913v 5.32598h 3.10039v -5.32598h 0.442913v 5.32598h 2.65748v -5.32598h 0.442913v 5.32598h 0.885827v -5.32598h 0.442913v 5.32598h 0.885827v
 -5.32598h 0.442913v 5.32598h 2.21457v -5.32598h 0.885827v 5.32598h 0.885827v -5.32598h 0.442913v 5.32598h 0.442913v -5.32598h 0.442913v 5.32598h 5.75787v -5.32598h 0.442913v 5.32598h 3.54331v -5.32598h 0.885827v 5.32598h 0.885827v -5.32598h
 0.442913v 5.32598h 1.32874v -10.652h 0.442913v 10.652h 2.65748v -10.652h 0.442913v 10.652h 4.42913v -5.32598h 0.442913v 5.32598h 3.54331v -5.32598h 0.885827v 5.32598h 2.65748v -5.32598h 0.442913v 5.32598h 1.32874v -5.32598h 0.442913v 5.32598h
 1.32874v -15.9779h 0.442913v 15.9779h 0.442913v -26.6299h 0.442913v 5.32598h 0.442913v 15.9779h 0.442913v -5.32598h 0.442913v -21.3039h 1.32874v -21.3039h 0.442913v -5.32598h 0.442913v -74.5637h 0.442913v -10.652h 0.442913v -74.5637h 0.442913v
 -74.5637h 0.442913v 117.172h 0.442913v 63.9118h 0.442913v -79.8897h 0.442913v 85.2157h 0.442913v 42.6078h 0.885827v 37.2819h 0.442913v -5.32598h 0.442913v 15.9779h 0.442913v 15.9779h 0.442913v -10.652h 0.885827v 10.652h 3.10039v -5.32598h 0.442913v
 5.32598h 138.189" fill="none" stroke="#000099"/>
<path d="M57.1929,346.022h 453.543" fill="none" stroke="black"/>
<path d="M57.1929,336.795v 9.22726" fill="none" stroke="black"/>
<path d="M71.9567,341.409v 4.61363" fill="none" stroke="black"/>
<path d="M86.7205,341.409v 4.61363" fill="none" stroke="black"/>
<path d="M101.484,341.409v 4.61363" fill="none" stroke="black"/>
<path d="M116.248,341.409v 4.61363" fill="none" stroke="black"/>
<path d="M131.012,336.795v 9.22726" fill="none" stroke="black"/>
<path d="M145.776,341.409v 4.61363" fill="none" stroke="black"/>
<path d="M160.539,341.409v 4.61363" fill="none" stroke="black"/>
<path d="M175.303,341.409v 4.61363" fill="none" stroke="black"/>
<path d="M190.067,341.409v 4.61363" fill="none" stroke="black"/>
<path d="M204.831,336.795v 9.22726" fill="none" stroke="black"/>
<path d="M219.594,341.409v 4.61363" fill="none" stroke="black"/>
<path d="M234.358,341.409v 4.61363" fill="none" stroke="black"/>
<path d="M249.122,341.409v 4.61363" fill="none" stroke="black"/>
<path d="M263.886,341.409v 4.61363" fill="none" stroke="black"/>
<path d="M278.65,336.795v 9.22726" fill="none" stroke="black"/>
<path d="M293.413,341.409v 4.61363" fill="none" stroke="black"/>
<path d="M308.177,341.409v 4.61363" fill="none" stroke="black"/>
<path d="M322.941,341.409v 4.61363" fill="none" stroke="black"/>
<path d="M337.705,341.409v 4.61363" fill="none" stroke="black"/>
<path d="M352.469,336.795v 9.22726" fill="none" stroke="black"/>
<path d="M367.232,341.409v 4.61363" fill="none" stroke="black"/>
<path d="M381.996,341.409v 4.61363" fill="none" stroke="black"/>
<path d="M396.76,341.409v 4.61363" fill="none" stroke="black"/>
<path d="M411.524,341.409v 4.61363" fill="none" stroke="black"/>
<path d="M426.287,336.795v 9.22726" fill="none" stroke="black"/>
<path d="M441.051,341.409v 4.61363" fill="none" stroke="black"/>
<path d="M455.815,341.409v 4.61363" fill="none" stroke="black"/>
<path d="M470.579,341.409v 4.61363" fill="none" stroke="black"/>
<path d="M485.343,341.409v 4.61363" fill="none" stroke="black"/>
<path d="M500.106,336.795v 9.22726" fill="none" stroke="black"/>
<path d="M500.106,336.795v 9.22726" fill="none" stroke="black"/>
<text xml:space="preserve" x="53.446" y="358.403" fill="black" font-size="12.8453" font-family="Helvetica">0</text>
<text xml:space="preserve" x="120.239" y="358.403" fill="black" font-size="12.8453" font-family="Helvetica">500</text>
<text xml:space="preserve" x="190.291" y="358.403" fill="black" font-size="12.8453" font-family="Helvetica">1000</text>
<text xml:space="preserve" x="264.415" y="358.403" fill="black" font-size="12.8453" font-family="Helvetica">1500</text>
<text xml:space="preserve" x="338.54" y="358.403" fill="black" font-size="12.8453" font-family="Helvetica">2000</text>
<text xml:space="preserve" x="411.849" y="358.403" fill="black" font-size="12.8453" font-family="Helvetica">2500</text>
<text xml:space="preserve" x="485.974" y="358.403" fill="black" font-size="12.8453" font-family="Helvetica">3000</text>
<text xml:space="preserve" x="451.763" y="372.251" fill="black" font-size="12.8453" font-family="Helvetica">ADC value</text>
<path d="M57.1929,346.022v -307.575" fill="none" stroke="black"/>
<path d="M70.7992,346.022h -13.6063" fill="none" stroke="black"/>
<path d="M63.9961,335.37h -6.80315" fill="none" stroke="black"/>
<path d="M63.9961,324.718h -6.80315" fill="none" stroke="black"/>
<path d="M63.9961,314.066h -6.80315" fill="none" stroke="black"/>
<path d="M63.9961,303.414h -6.80315" fill="none" stroke="black"/>
<path d="M70.7992,292.762h -13.6063" fill="none" stroke="black"/>
<path d="M63.9961,282.111h -6.80315" fill="none" stroke="black"/>
<path d="M63.9961,271.459h -6.80315" fill="none" stroke="black"/>
<path d="M63.9961,260.807h -6.80315" fill="none" stroke="black"/>
<path d="M63.9961,250.155h -6.80315" fill="none" stroke="black"/>
<path d="M70.7992,239.503h -13.6063" fill="none" stroke="black"/>
<path d="M63.9961,228.851h -6.80315" fill="none" stroke="black"/>
<path d="M63.9961,218.199h -6.80315" fill="none" stroke="black"/>
<path d="M63.9961,207.547h -6.80315" fill="none" stroke="black"/>
<path d="M63.9961,196.895h -6.80315" fill="none" stroke="black"/>
<path d="M70.7992,186.243h -13.6063" fill="none" stroke="black"/>
<path d="M63.9961,175.591h -6.80315" fill="none" stroke="black"/>
<path d="M63.9961,164.939h -6.80315" fill="none" stroke="black"/>
<path d="M63.9961,154.287h -6.80315" fill="none" stroke="black"/>
<path d="M63.9961,143.635h -6.80315" fill="none" stroke="black"/>
<path d="M70.7992,132.983h -13.6063" fill="none" stroke="black"/>
<path d="M63.9961,122.331h -6.80315" fill="none" stroke="black"/>
<path d="M63.9961,111.679h -6.80315" fill="none" stroke="black"/>
<path d="M63.9961,101.027h -6.80315" fill="none" stroke="black"/>
<path d="M63.9961,90.3752h -6.80315" fill="none" stroke="black"/>
<path d="M70.7992,79.7233h -13.6063" fill="none" stroke="black"/>
<path d="M70.7992,79.7233h -13.6063" fill="none" stroke="black"/>
<path d="M63.9961,69.0713h -6.80315" fill="none" stroke="black"/>
<path d="M63.9961,58.4193h -6.80315" fill="none" stroke="black"/>
<path d="M63.9961,47.7674h -6.80315" fill="none" stroke="black"/>
<text xml:space="preserve" x="47.7441" y="350.258" fill="black" font-size="12.8453" font-family="Helvetica">0</text>
<text xml:space="preserve" x="41.2277" y="297.312" fill="black" font-size="12.8453" font-family="Helvetica">10</text>
<text xml:space="preserve" x="41.2277" y="244.366" fill="black" font-size="12.8453" font-family="Helvetica">20</text>
<text xml:space="preserve" x="41.2277" y="190.605" fill="black" font-size="12.8453" font-family="Helvetica">30</text>
<text xml:space="preserve" x="41.2277" y="137.66" fill="black" font-size="12.8453" font-family="Helvetica">40</text>
<text xml:space="preserve" x="41.2277" y="83.899" fill="black" font-size="12.8453" font-family="Helvetica">50</text>
<g transform="rotate(-90,29.0094,70.0516)">
<text xml:space="preserve" x="29.0094" y="70.0516" fill="black" font-size="12.8453" font-family="Helvetica">Event</text>
</g>
<text xml:space="preserve" x="250.568" y="18.7347" fill="black" font-size="18.0316" font-family="Helvetica">Am_004</text>
<rect x="442.705" y="24.9905" width="113.386" height="61.5151" fill="white"/>
<path d="M442.705,86.5056h 113.386" fill="none" stroke="black"/>
<path d="M556.091,86.5056v -61.5151" fill="none" stroke="black"/>
<path d="M556.091,24.9905h -113.386" fill="none" stroke="black"/>
<path d="M442.705,24.9905v 61.5151" fill="none" stroke="black"/>
<text xml:space="preserve" x="474.57" y="36.6549" fill="black" font-size="13.4802" font-family="Helvetica">Am_004</text>
<path d="M442.705,40.3693h 113.386" fill="none" stroke="black"/>
<text xml:space="preserve" x="447.69" y="52.946" fill="black" font-size="13.0654" font-family="Helvetica">Entries </text>
<text xml:space="preserve" x="517.741" y="52.946" fill="black" font-size="13.0654" font-family="Helvetica"> 1108</text>
<text xml:space="preserve" x="447.69" y="67.6079" fill="black" font-size="13.0654" font-family="Helvetica">Mean  </text>
<text xml:space="preserve" x="510.41" y="67.6079" fill="black" font-size="13.0654" font-family="Helvetica">   1255</text>
<text xml:space="preserve" x="447.69" y="83.0844" fill="black" font-size="13.0654" font-family="Helvetica">Std Dev   </text>
<text xml:space="preserve" x="510.41" y="83.0844" fill="black" font-size="13.0654" font-family="Helvetica">  629.9</text>
<text xml:space="preserve" x="250.568" y="18.7347" fill="black" font-size="18.0316" font-family="Helvetica">Am_004</text></svg>
