<?xml version="1.0" standalone="no"?>
<svg width="567.429" height="384.969" viewBox="0 0 567.429 384.969" xmlns="http://www.w3.org/2000/svg" shape-rendering="crispEdges">
<title>
img/week1/plane_hist/Am_007.svg
</title>
<desc>
Creator: ROOT Version 6.22/09
CreationDate: Sun Jul 11 17:56:01 2021</desc>
<defs>
</defs>
<rect x="0.5" y="0" width="566.929" height="384.469" fill="white"/>
<rect x="57.1929" y="38.4469" width="453.543" height="307.575" fill="white"/>
<rect x="57.1929" y="38.4469" width="453.543" height="307.575" fill="none" stroke="black"/>
<path d="M57.1929,346.022h 35.5462v -10.6797h 0.658263v -25.9364h 0.658263v 6.10269h 0.658263v -12.2054h 0.658263v 1.52567h 0.658263v -12.2054h 0.658263v -6.10269h 0.658263v 22.8851h 0.658263v -7.62836h 0.658263v 3.05134h 0.658263v -6.10269h
 0.658263v 7.62836h 0.658263v 6.10269h 0.658263v 3.05134h 0.658263v -7.62836h 0.658263v -7.62836h 0.658263v 7.62836h 0.658263v 15.2567h 0.658263v -3.05134h 0.658263v -9.15403h 0.658263v -24.4107h 0.658263v 21.3594h 0.658263v 12.2054h 0.658263v
 -15.2567h 0.658263v -6.10269h 0.658263v 6.10269h 0.658263v 9.15403h 0.658263v 4.57701h 0.658263v -19.8337h 0.658263v -1.52567h 0.658263v 12.2054h 0.658263v -1.52567h 1.31653v 1.52567h 0.658263v -3.05134h 0.658263v -12.2054h 0.658263v 21.3594h
 1.31653v -24.4107h 0.658263v 21.3594h 0.658263v -13.731h 0.658263v 1.52567h 0.658263v 7.62836h 0.658263v -16.7824h 0.658263v -9.15403h 0.658263v 19.8337h 0.658263v -7.62836h 0.658263v 7.62836h 0.658263v -30.5134h 0.658263v 30.5134h 1.31653v -13.731h
 0.658263v -22.8851h 0.658263v -6.10269h 0.658263v 25.9364h 0.658263v 7.62836h 0.658263v -28.9878h 0.658263v -10.6797h 0.658263v 7.62836h 0.658263v 16.7824h 0.658263v 1.52567h 0.658263v -35.0904h 0.658263v 1.52567h 1.31653v 25.9364h 0.658263v
 -25.9364h 0.658263v 4.57701h 0.658263v 1.52567h 0.658263v -9.15403h 0.658263v 1.52567h 0.658263v -36.6161h 0.658263v -21.3594h 0.658263v -1.52567h 0.658263v 27.4621h 0.658263v -18.3081h 0.658263v -35.0904h 0.658263v 9.15403h 0.658263v -35.0904h
 0.658263v 30.5134h 0.658263v -42.7188h 0.658263v -21.3594h 0.658263v -3.05134h 0.658263v 24.4107h 0.658263v 13.731h 0.658263v -13.731h 0.658263v -7.62836h 0.658263v -59.5012h 0.658263v 83.9119h 0.658263v 15.2567h 0.658263v -15.2567h 0.658263v
 -10.6797h 0.658263v 13.731h 0.658263v 27.4621h 1.31653v -22.8851h 0.658263v 12.2054h 0.658263v -3.05134h 0.658263v 42.7188h 0.658263v -36.6161h 0.658263v 33.5648h 0.658263v -3.05134h 0.658263v 39.6675h 0.658263v 1.52567h 0.658263v -45.7701h
 0.658263v 51.8728h 0.658263v -30.5134h 0.658263v 36.6161h 0.658263v -28.9878h 0.658263v 10.6797h 0.658263v -1.52567h 0.658263v 6.10269h 0.658263v 16.7824h 0.658263v -24.4107h 0.658263v 4.57701h 0.658263v 4.57701h 0.658263v 15.2567h 0.658263v
 4.57701h 0.658263v 1.52567h 0.658263v -4.57701h 0.658263v -18.3081h 0.658263v 50.3472h 0.658263v -38.1418h 0.658263v 27.4621h 0.658263v -3.05134h 0.658263v 12.2054h 0.658263v 16.7824h 0.658263v -27.4621h 0.658263v 15.2567h 0.658263v -7.62836h
 0.658263v 27.4621h 0.658263v 10.6797h 0.658263v -12.2054h 0.658263v 4.57701h 0.658263v -4.57701h 0.658263v 13.731h 0.658263v -4.57701h 0.658263v 4.57701h 0.658263v 1.52567h 0.658263v 12.2054h 0.658263v -9.15403h 0.658263v -10.6797h 0.658263v
 -3.05134h 0.658263v -7.62836h 0.658263v 18.3081h 0.658263v -10.6797h 0.658263v 6.10269h 0.658263v -12.2054h 0.658263v 12.2054h 0.658263v 15.2567h 0.658263v -25.9364h 0.658263v 1.52567h 0.658263v -1.52567h 0.658263v 4.57701h 0.658263v 7.62836h
 0.658263v -16.7824h 0.658263v 13.731h 0.658263v -3.05134h 0.658263v 12.2054h 0.658263v -6.10269h 0.658263v -1.52567h 0.658263v 9.15403h 0.658263v -18.3081h 0.658263v 22.8851h 0.658263v -3.05134h 0.658263v -6.10269h 0.658263v 7.62836h 0.658263v
 3.05134h 0.658263v 6.10269h 0.658263v -1.52567h 0.658263v -1.52567h 0.658263v 7.62836h 0.658263v -3.05134h 0.658263v 1.52567h 0.658263v -4.57701h 0.658263v -3.05134h 0.658263v 12.2054h 1.31653v -3.05134h 0.658263v 4.57701h 0.658263v -1.52567h
 0.658263v 1.52567h 0.658263v -1.52567h 0.658263v 4.57701h 0.658263v -3.05134h 0.658263v -4.57701h 1.31653v 3.05134h 1.31653v 1.52567h 0.658263v 1.52567h 0.658263v -4.57701h 1.97479v 1.52567h 0.658263v 3.05134h 0.658263v -3.05134h 0.658263v 3.05134h
 1.31653v -1.52567h 0.658263v -1.52567h 0.658263v 4.57701h 0.658263v -4.57701h 0.658263v 1.52567h 0.658263v -1.52567h 0.658263v 4.57701h 0.658263v -1.52567h 0.658263v -7.62836h 0.658263v 3.05134h 0.658263v 6.10269h 1.31653v -7.62836h 1.97479v
 6.10269h 1.31653v 1.52567h 1.31653v -1.52567h 0.658263v 1.52567h 0.658263v -4.57701h 0.658263v -1.52567h 0.658263v 4.57701h 0.658263v -1.52567h 0.658263v 1.52567h 0.658263v -3.05134h 0.658263v 3.05134h 0.658263v 1.52567h 0.658263v -1.52567h
 0.658263v 1.52567h 0.658263v -3.05134h 0.658263v 3.05134h 1.31653v -1.52567h 1.31653v -1.52567h 0.658263v 1.52567h 1.31653v 1.52567h 0.658263v -4.57701h 0.658263v 1.52567h 1.31653v -1.52567h 0.658263v 1.52567h 0.658263v -3.05134h 0.658263v 6.10269h
 0.658263v -3.05134h 0.658263v 3.05134h 0.658263v -1.52567h 0.658263v 1.52567h 0.658263v -3.05134h 0.658263v 1.52567h 0.658263v -4.57701h 0.658263v 4.57701h 1.31653v 1.52567h 0.658263v -1.52567h 1.31653v -4.57701h 0.658263v 3.05134h 0.658263v
 3.05134h 1.31653v -3.05134h 0.658263v 3.05134h 0.658263v -4.57701h 0.658263v 3.05134h 0.658263v -1.52567h 0.658263v 1.52567h 1.31653v -4.57701h 0.658263v 1.52567h 1.31653v 1.52567h 1.31653v -1.52567h 0.658263v 1.52567h 0.658263v -3.05134h 0.658263v
 4.57701h 0.658263v -1.52567h 0.658263v 1.52567h 1.31653v 1.52567h 0.658263v -3.05134h 1.31653v 3.05134h 1.31653v -3.05134h 1.97479v -3.05134h 1.31653v 1.52567h 0.658263v -1.52567h 0.658263v 3.05134h 1.31653v 1.52567h 0.658263v -3.05134h 1.31653v
 1.52567h 1.97479v -1.52567h 0.658263v 1.52567h 1.31653v 1.52567h 0.658263v -3.05134h 0.658263v 1.52567h 1.31653v 3.05134h 0.658263v -1.52567h 1.97479v -4.57701h 1.31653v -1.52567h 0.658263v -4.57701h 0.658263v 6.10269h 0.658263v 1.52567h 1.31653v
 -3.05134h 1.31653v -1.52567h 0.658263v -1.52567h 0.658263v 4.57701h 1.31653v -3.05134h 0.658263v 3.05134h 0.658263v -3.05134h 0.658263v -9.15403h 0.658263v 10.6797h 0.658263v -3.05134h 0.658263v -9.15403h 0.658263v 1.52567h 0.658263v 7.62836h
 0.658263v -4.57701h 0.658263v 12.2054h 0.658263v -10.6797h 0.658263v 4.57701h 0.658263v -7.62836h 0.658263v 12.2054h 0.658263v -12.2054h 0.658263v 3.05134h 0.658263v 6.10269h 1.31653v -4.57701h 0.658263v 6.10269h 0.658263v -9.15403h 0.658263v
 7.62836h 0.658263v 3.05134h 0.658263v -9.15403h 0.658263v 3.05134h 0.658263v -3.05134h 0.658263v 1.52567h 0.658263v 3.05134h 0.658263v -3.05134h 0.658263v 7.62836h 0.658263v -1.52567h 0.658263v -9.15403h 0.658263v 3.05134h 0.658263v 6.10269h
 0.658263v -9.15403h 0.658263v 4.57701h 1.31653v -1.52567h 0.658263v 9.15403h 0.658263v -3.05134h 0.658263v 1.52567h 0.658263v 1.52567h 0.658263v -1.52567h 0.658263v -3.05134h 0.658263v 1.52567h 0.658263v 3.05134h 0.658263v -4.57701h 1.31653v
 -3.05134h 0.658263v 4.57701h 0.658263v 3.05134h 1.31653v -3.05134h 0.658263v -4.57701h 0.658263v 1.52567h 0.658263v 3.05134h 0.658263v -3.05134h 0.658263v -1.52567h 0.658263v 6.10269h 0.658263v -4.57701h 0.658263v -1.52567h 0.658263v 4.57701h
 1.31653v -9.15403h 0.658263v 3.05134h 0.658263v -1.52567h 0.658263v 7.62836h 0.658263v -21.3594h 0.658263v 15.2567h 0.658263v -19.8337h 0.658263v 7.62836h 0.658263v 4.57701h 0.658263v -4.57701h 0.658263v -7.62836h 0.658263v 6.10269h 0.658263v
 -1.52567h 0.658263v -27.4621h 0.658263v 18.3081h 0.658263v -9.15403h 0.658263v 3.05134h 0.658263v -33.5648h 0.658263v 19.8337h 0.658263v 4.57701h 0.658263v 1.52567h 0.658263v -15.2567h 1.31653v -9.15403h 0.658263v 16.7824h 0.658263v 6.10269h
 0.658263v -19.8337h 0.658263v 9.15403h 0.658263v 12.2054h 0.658263v 10.6797h 0.658263v -15.2567h 0.658263v -4.57701h 0.658263v 10.6797h 0.658263v 7.62836h 0.658263v -6.10269h 0.658263v 19.8337h 0.658263v -6.10269h 0.658263v 4.57701h 0.658263v
 4.57701h 0.658263v -7.62836h 0.658263v 12.2054h 0.658263v 12.2054h 0.658263v -10.6797h 0.658263v 9.15403h 0.658263v 6.10269h 0.658263v -7.62836h 0.658263v 3.05134h 0.658263v 1.52567h 0.658263v 3.05134h 0.658263v -1.52567h 0.658263v -7.62836h
 0.658263v 10.6797h 0.658263v -1.52567h 0.658263v 3.05134h 0.658263v -1.52567h 1.97479v 1.52567h 0.658263v -1.52567h 0.658263v 1.52567h 1.31653v -1.52567h 1.31653v 1.52567h 1.31653v -1.52567h 1.31653v 1.52567h 0.658263v -1.52567h 0.658263v 1.52567h
 0.658263v -3.05134h 0.658263v 3.05134h 3.29132v -1.52567h 0.658263v 1.52567h 3.94958v -1.52567h 0.658263v 1.52567h 0.658263v -1.52567h 0.658263v 1.52567h 0.658263v -1.52567h 1.31653v 1.52567h 5.26611v -1.52567h 1.97479v 1.52567h 0.658263v -1.52567h
 0.658263v 1.52567h 1.97479v -1.52567h 0.658263v 1.52567h 6.58263v -1.52567h 0.658263v 1.52567h 0.658263v -1.52567h 0.658263v 1.52567h 4.60784v -1.52567h 1.31653v 1.52567h 3.94958v -1.52567h 0.658263v 1.52567h 1.97479v -1.52567h 1.31653v 1.52567h
 1.31653v -3.05134h 0.658263v 3.05134h 6.58263v -1.52567h 0.658263v 1.52567h 2.63305v -1.52567h 0.658263v 1.52567h 5.26611v -1.52567h 0.658263v 1.52567h 0.658263v -1.52567h 0.658263v 1.52567h 1.97479v -1.52567h 0.658263v 1.52567h 1.97479v -1.52567h
 0.658263v 1.52567h 0.658263v -1.52567h 0.658263v 1.52567h 24.3557v -1.52567h 0.658263v 1.52567h 5.92437v -1.52567h 0.658263v 1.52567h 7.89916v -1.52567h 0.658263v -3.05134h 0.658263v 4.57701h 1.31653v -1.52567h 0.658263v 1.52567h 0.658263v -1.52567h
 0.658263" fill="none" stroke="#000099"/>
<path d="M57.1929,346.022h 453.543" fill="none" stroke="black"/>
<path d="M57.8512,336.795v 9.22726" fill="none" stroke="black"/>
<path d="M79.7933,341.409v 4.61363" fill="none" stroke="black"/>
<path d="M101.735,341.409v 4.61363" fill="none" stroke="black"/>
<path d="M123.677,341.409v 4.61363" fill="none" stroke="black"/>
<path d="M145.62,341.409v 4.61363" fill="none" stroke="black"/>
<path d="M167.562,336.795v 9.22726" fill="none" stroke="black"/>
<path d="M189.504,341.409v 4.61363" fill="none" stroke="black"/>
<path d="M211.446,341.409v 4.61363" fill="none" stroke="black"/>
<path d="M233.388,341.409v 4.61363" fill="none" stroke="black"/>
<path d="M255.33,341.409v 4.61363" fill="none" stroke="black"/>
<path d="M277.272,336.795v 9.22726" fill="none" stroke="black"/>
<path d="M299.214,341.409v 4.61363" fill="none" stroke="black"/>
<path d="M321.156,341.409v 4.61363" fill="none" stroke="black"/>
<path d="M343.099,341.409v 4.61363" fill="none" stroke="black"/>
<path d="M365.041,341.409v 4.61363" fill="none" stroke="black"/>
<path d="M386.983,336.795v 9.22726" fill="none" stroke="black"/>
<path d="M408.925,341.409v 4.61363" fill="none" stroke="black"/>
<path d="M430.867,341.409v 4.61363" fill="none" stroke="black"/>
<path d="M452.809,341.409v 4.61363" fill="none" stroke="black"/>
<path d="M474.751,341.409v 4.61363" fill="none" stroke="black"/>
<path d="M496.693,336.795v 9.22726" fill="none" stroke="black"/>
<path d="M57.8512,336.795v 9.22726" fill="none" stroke="black"/>
<path d="M496.693,336.795v 9.22726" fill="none" stroke="black"/>
<text xml:space="preserve" x="54.2605" y="358.403" fill="black" font-size="12.8453" font-family="Helvetica">0</text>
<text xml:space="preserve" x="156.894" y="358.403" fill="black" font-size="12.8453" font-family="Helvetica">500</text>
<text xml:space="preserve" x="262.786" y="358.403" fill="black" font-size="12.8453" font-family="Helvetica">1000</text>
<text xml:space="preserve" x="372.751" y="358.403" fill="black" font-size="12.8453" font-family="Helvetica">1500</text>
<text xml:space="preserve" x="482.716" y="358.403" fill="black" font-size="12.8453" font-family="Helvetica">2000</text>
<text xml:space="preserve" x="451.763" y="372.251" fill="black" font-size="12.8453" font-family="Helvetica">ADC value</text>
<path d="M57.1929,346.022v -307.575" fill="none" stroke="black"/>
<path d="M70.7992,346.022h -13.6063" fill="none" stroke="black"/>
<path d="M63.9961,338.394h -6.80315" fill="none" stroke="black"/>
<path d="M63.9961,330.766h -6.80315" fill="none" stroke="black"/>
<path d="M63.9961,323.137h -6.80315" fill="none" stroke="black"/>
<path d="M70.7992,315.509h -13.6063" fill="none" stroke="black"/>
<path d="M63.9961,307.88h -6.80315" fill="none" stroke="black"/>
<path d="M63.9961,300.252h -6.80315" fill="none" stroke="black"/>
<path d="M63.9961,292.624h -6.80315" fill="none" stroke="black"/>
<path d="M70.7992,284.995h -13.6063" fill="none" stroke="black"/>
<path d="M63.9961,277.367h -6.80315" fill="none" stroke="black"/>
<path d="M63.9961,269.739h -6.80315" fill="none" stroke="black"/>
<path d="M63.9961,262.11h -6.80315" fill="none" stroke="black"/>
<path d="M70.7992,254.482h -13.6063" fill="none" stroke="black"/>
<path d="M63.9961,246.854h -6.80315" fill="none" stroke="black"/>
<path d="M63.9961,239.225h -6.80315" fill="none" stroke="black"/>
<path d="M63.9961,231.597h -6.80315" fill="none" stroke="black"/>
<path d="M70.7992,223.969h -13.6063" fill="none" stroke="black"/>
<path d="M63.9961,216.34h -6.80315" fill="none" stroke="black"/>
<path d="M63.9961,208.712h -6.80315" fill="none" stroke="black"/>
<path d="M63.9961,201.083h -6.80315" fill="none" stroke="black"/>
<path d="M70.7992,193.455h -13.6063" fill="none" stroke="black"/>
<path d="M63.9961,185.827h -6.80315" fill="none" stroke="black"/>
<path d="M63.9961,178.198h -6.80315" fill="none" stroke="black"/>
<path d="M63.9961,170.57h -6.80315" fill="none" stroke="black"/>
<path d="M70.7992,162.942h -13.6063" fill="none" stroke="black"/>
<path d="M63.9961,155.313h -6.80315" fill="none" stroke="black"/>
<path d="M63.9961,147.685h -6.80315" fill="none" stroke="black"/>
<path d="M63.9961,140.057h -6.80315" fill="none" stroke="black"/>
<path d="M70.7992,132.428h -13.6063" fill="none" stroke="black"/>
<path d="M63.9961,124.8h -6.80315" fill="none" stroke="black"/>
<path d="M63.9961,117.172h -6.80315" fill="none" stroke="black"/>
<path d="M63.9961,109.543h -6.80315" fill="none" stroke="black"/>
<path d="M70.7992,101.915h -13.6063" fill="none" stroke="black"/>
<path d="M63.9961,94.2865h -6.80315" fill="none" stroke="black"/>
<path d="M63.9961,86.6581h -6.80315" fill="none" stroke="black"/>
<path d="M63.9961,79.0298h -6.80315" fill="none" stroke="black"/>
<path d="M70.7992,71.4014h -13.6063" fill="none" stroke="black"/>
<path d="M63.9961,63.7731h -6.80315" fill="none" stroke="black"/>
<path d="M63.9961,56.1447h -6.80315" fill="none" stroke="black"/>
<path d="M63.9961,48.5163h -6.80315" fill="none" stroke="black"/>
<path d="M70.7992,40.888h -13.6063" fill="none" stroke="black"/>
<path d="M70.7992,40.888h -13.6063" fill="none" stroke="black"/>
<text xml:space="preserve" x="47.7441" y="350.258" fill="black" font-size="12.8453" font-family="Helvetica">0</text>
<text xml:space="preserve" x="41.2277" y="320.119" fill="black" font-size="12.8453" font-family="Helvetica">20</text>
<text xml:space="preserve" x="41.2277" y="289.166" fill="black" font-size="12.8453" font-family="Helvetica">40</text>
<text xml:space="preserve" x="41.2277" y="259.028" fill="black" font-size="12.8453" font-family="Helvetica">60</text>
<text xml:space="preserve" x="41.2277" y="228.075" fill="black" font-size="12.8453" font-family="Helvetica">80</text>
<text xml:space="preserve" x="33.8967" y="197.936" fill="black" font-size="12.8453" font-family="Helvetica">100</text>
<text xml:space="preserve" x="33.8967" y="167.798" fill="black" font-size="12.8453" font-family="Helvetica">120</text>
<text xml:space="preserve" x="33.8967" y="136.845" fill="black" font-size="12.8453" font-family="Helvetica">140</text>
<text xml:space="preserve" x="33.8967" y="106.706" fill="black" font-size="12.8453" font-family="Helvetica">160</text>
<text xml:space="preserve" x="33.8967" y="75.7535" fill="black" font-size="12.8453" font-family="Helvetica">180</text>
<text xml:space="preserve" x="33.8967" y="45.615" fill="black" font-size="12.8453" font-family="Helvetica">200</text>
<g transform="rotate(-90,20.8638,70.0516)">
<text xml:space="preserve" x="20.8638" y="70.0516" fill="black" font-size="12.8453" font-family="Helvetica">Event</text>
</g>
<text xml:space="preserve" x="250.568" y="18.7347" fill="black" font-size="18.0316" font-family="Helvetica">Am_007</text>
<rect x="442.705" y="24.9905" width="113.386" height="61.5151" fill="white"/>
<path d="M442.705,86.5056h 113.386" fill="none" stroke="black"/>
<path d="M556.091,86.5056v -61.5151" fill="none" stroke="black"/>
<path d="M556.091,24.9905h -113.386" fill="none" stroke="black"/>
<path d="M442.705,24.9905v 61.5151" fill="none" stroke="black"/>
<text xml:space="preserve" x="474.57" y="36.6549" fill="black" font-size="13.4802" font-family="Helvetica">Am_007</text>
<path d="M442.705,40.3693h 113.386" fill="none" stroke="black"/>
<text xml:space="preserve" x="447.69" y="52.946" fill="black" font-size="12.7186" font-family="Helvetica">Entries </text>
<text xml:space="preserve" x="512.854" y="52.946" fill="black" font-size="12.7186" font-family="Helvetica"> 11066</text>
<text xml:space="preserve" x="447.69" y="67.6079" fill="black" font-size="12.7186" font-family="Helvetica">Mean  </text>
<text xml:space="preserve" x="515.298" y="67.6079" fill="black" font-size="12.7186" font-family="Helvetica">  565.1</text>
<text xml:space="preserve" x="447.69" y="83.0844" fill="black" font-size="12.7186" font-family="Helvetica">Std Dev   </text>
<text xml:space="preserve" x="512.854" y="83.0844" fill="black" font-size="12.7186" font-family="Helvetica">  350.8</text>
<text xml:space="preserve" x="250.568" y="18.7347" fill="black" font-size="18.0316" font-family="Helvetica">Am_007</text></svg>
