<?xml version="1.0" standalone="no"?>
<svg width="567.429" height="384.969" viewBox="0 0 567.429 384.969" xmlns="http://www.w3.org/2000/svg" shape-rendering="crispEdges">
<title>
img/week1/plane_hist/Am_009.svg
</title>
<desc>
Creator: ROOT Version 6.22/09
CreationDate: Thu Jul  8 17:39:09 2021</desc>
<defs>
</defs>
<rect x="0.5" y="0" width="566.929" height="384.469" fill="white"/>
<rect x="57.1929" y="38.4469" width="453.543" height="307.575" fill="white"/>
<rect x="57.1929" y="38.4469" width="453.543" height="307.575" fill="none" stroke="black"/>
<path d="M57.1929,346.022h 71.7401v -0.0836701h 0.607967v 0.0836701h 0.607967v -0.836701h 0.607967v -0.58569h 0.607967v -0.920371h 0.607967v 0.669361h 0.607967v -0.669361h 0.607967v 1.00404h 0.607967v -0.58569h 0.607967v -0.50202h 0.607967v 0.33468h
 0.607967v 0.41835h 0.607967v -1.08771h 0.607967v 0.25101h 0.607967v -0.41835h 0.607967v 1.25505h 0.607967v -0.58569h 0.607967v 0.0836701h 0.607967v -0.16734h 0.607967v 0.33468h 0.607967v 0.25101h 1.21593v -0.836701h 0.607967v 1.17138h 0.607967v
 -0.58569h 0.607967v -0.16734h 0.607967v -0.16734h 0.607967v -0.0836701h 0.607967v 0.33468h 0.607967v -0.50202h 0.607967v 0.836701h 1.21593v -0.920371h 0.607967v 0.669361h 0.607967v -0.669361h 0.607967v -0.0836701h 0.607967v 0.41835h 1.21593v
 0.41835h 0.607967v 0.16734h 0.607967v -1.25505h 0.607967v 0.920371h 0.607967v -0.41835h 0.607967v 0.50202h 0.607967v -0.41835h 0.607967v 0.25101h 0.607967v -0.0836701h 1.21593v 0.33468h 0.607967v -0.0836701h 0.607967v -0.50202h 0.607967v 0.50202h
 0.607967v -0.50202h 0.607967v -0.33468h 0.607967v 0.50202h 0.607967v -0.0836701h 0.607967v 0.753031h 0.607967v 0.0836701h 0.607967v -1.08771h 0.607967v -0.50202h 0.607967v 0.58569h 0.607967v 0.0836701h 1.21593v 0.0836701h 0.607967v -0.25101h
 0.607967v 0.25101h 0.607967v -0.16734h 0.607967v 0.669361h 0.607967v -1.17138h 0.607967v 1.42239h 0.607967v -0.0836701h 0.607967v -0.753031h 0.607967v 0.33468h 0.607967v 0.16734h 0.607967v 0.0836701h 0.607967v -1.08771h 0.607967v 0.669361h 0.607967v
 -0.0836701h 0.607967v -0.0836701h 0.607967v -0.0836701h 0.607967v 0.16734h 0.607967v 0.16734h 0.607967v -0.16734h 0.607967v 0.50202h 0.607967v -1.33872h 0.607967v 1.08771h 0.607967v -0.16734h 1.21593v -0.753031h 0.607967v 0.50202h 0.607967v 0.16734h
 0.607967v 0.16734h 0.607967v -1.25505h 0.607967v 1.58973h 0.607967v -0.16734h 0.607967v 0.0836701h 0.607967v -0.25101h 0.607967v 0.58569h 0.607967v -0.669361h 0.607967v -0.836701h 0.607967v 1.25505h 0.607967v -0.0836701h 0.607967v -0.33468h
 0.607967v -0.33468h 0.607967v 0.25101h 0.607967v 0.753031h 0.607967v -0.753031h 0.607967v -0.41835h 0.607967v 0.0836701h 0.607967v -0.753031h 0.607967v 0.25101h 0.607967v 0.58569h 0.607967v 0.25101h 0.607967v -0.753031h 0.607967v 0.836701h 0.607967v
 0.16734h 0.607967v -1.00404h 0.607967v -0.33468h 0.607967v 0.836701h 0.607967v -0.58569h 0.607967v -0.669361h 0.607967v -0.16734h 0.607967v 0.836701h 0.607967v 0.0836701h 0.607967v -0.41835h 0.607967v -0.16734h 0.607967v 0.669361h 0.607967v
 -1.33872h 0.607967v 0.33468h 0.607967v -0.753031h 0.607967v 0.669361h 0.607967v 0.16734h 0.607967v 0.753031h 0.607967v -1.75707h 0.607967v 1.25505h 0.607967v -0.836701h 0.607967v -0.50202h 0.607967v 0.33468h 0.607967v 0.25101h 0.607967v -0.669361h
 0.607967v 0.41835h 0.607967v -1.42239h 0.607967v 1.50606h 0.607967v -0.753031h 0.607967v -0.33468h 0.607967v 0.33468h 0.607967v 0.33468h 0.607967v 0.16734h 0.607967v 0.33468h 0.607967v -0.25101h 0.607967v -0.920371h 0.607967v -0.58569h 0.607967v
 0.25101h 0.607967v 0.41835h 0.607967v -0.836701h 0.607967v -1.84074h 0.607967v 0.920371h 0.607967v 1.25505h 0.607967v 0.33468h 0.607967v -1.08771h 0.607967v -0.41835h 0.607967v -0.669361h 0.607967v 0.50202h 0.607967v 0.58569h 0.607967v -0.920371h
 0.607967v 1.00404h 0.607967v -1.25505h 0.607967v -0.16734h 0.607967v 0.920371h 0.607967v -0.41835h 0.607967v -2.92845h 0.607967v 0.669361h 0.607967v -0.50202h 0.607967v 0.920371h 0.607967v -1.58973h 0.607967v 2.00808h 0.607967v -0.920371h 0.607967v
 -0.669361h 0.607967v -0.669361h 0.607967v -2.00808h 0.607967v 0.836701h 0.607967v 1.84074h 0.607967v -2.09175h 0.607967v 0.920371h 0.607967v -2.42643h 0.607967v 2.42643h 0.607967v -1.17138h 0.607967v -3.3468h 0.607967v 2.17542h 0.607967v -1.17138h
 0.607967v -2.42643h 0.607967v 2.25909h 0.607967v -0.836701h 0.607967v -4.51818h 0.607967v 5.18754h 0.607967v -2.42643h 0.607967v -2.76111h 0.607967v 1.08771h 0.607967v -4.35084h 0.607967v 0.669361h 1.21593v -1.50606h 0.607967v 0.25101h 0.607967v
 1.84074h 0.607967v -4.43451h 0.607967v 1.08771h 0.607967v -2.09175h 1.21593v 4.43451h 0.607967v -5.68956h 0.607967v -1.84074h 0.607967v 1.75707h 0.607967v -3.59781h 0.607967v 0.669361h 0.607967v 0.753031h 0.607967v -6.27525h 0.607967v -0.753031h
 0.607967v 3.51414h 0.607967v -0.50202h 0.607967v -2.92845h 0.607967v 4.01616h 0.607967v -4.26717h 0.607967v 1.25505h 0.607967v -2.42643h 0.607967v -3.68148h 0.607967v 3.76515h 0.607967v 3.84882h 0.607967v -3.93249h 0.607967v -2.00808h 0.607967v
 3.84882h 0.607967v -3.17946h 0.607967v 1.33872h 0.607967v 1.17138h 0.607967v -0.836701h 0.607967v -1.33872h 0.607967v 2.00808h 0.607967v 1.58973h 0.607967v -3.51414h 0.607967v 2.34276h 0.607967v -3.43047h 0.607967v 3.01212h 0.607967v -3.68148h
 0.607967v 0.50202h 0.607967v 2.67744h 0.607967v 2.5101h 0.607967v -1.84074h 0.607967v -1.84074h 0.607967v 3.17946h 0.607967v -1.84074h 0.607967v 4.43451h 0.607967v 2.00808h 0.607967v -0.836701h 0.607967v -1.6734h 0.607967v -0.16734h 0.607967v
 6.19158h 0.607967v -5.77323h 0.607967v 1.50606h 0.607967v 1.00404h 0.607967v -1.58973h 0.607967v 0.753031h 0.607967v 0.16734h 0.607967v -2.92845h 0.607967v 4.68552h 0.607967v 1.00404h 0.607967v -2.92845h 0.607967v -0.669361h 0.607967v 3.59781h
 0.607967v 0.33468h 0.607967v 0.0836701h 0.607967v -0.58569h 0.607967v -1.6734h 0.607967v 1.42239h 0.607967v 0.33468h 0.607967v 0.836701h 0.607967v 0.33468h 0.607967v -1.75707h 0.607967v 1.08771h 0.607967v 1.00404h 0.607967v -3.3468h 0.607967v
 1.33872h 0.607967v 0.33468h 0.607967v 2.67744h 0.607967v -3.3468h 0.607967v -2.00808h 0.607967v 3.76515h 0.607967v -0.836701h 0.607967v 0.33468h 0.607967v -0.753031h 0.607967v -0.836701h 0.607967v 1.84074h 0.607967v 2.25909h 0.607967v -0.836701h
 0.607967v -0.25101h 0.607967v -2.67744h 0.607967v 1.08771h 0.607967v 1.17138h 0.607967v -0.16734h 0.607967v 2.59377h 0.607967v -1.17138h 0.607967v 0.920371h 0.607967v -0.753031h 0.607967v 0.920371h 0.607967v -0.920371h 0.607967v -0.16734h 0.607967v
 1.00404h 0.607967v 0.33468h 0.607967v 0.0836701h 0.607967v -1.08771h 0.607967v 1.33872h 0.607967v 0.669361h 0.607967v -0.58569h 0.607967v 1.6734h 0.607967v 0.41835h 0.607967v 0.58569h 0.607967v 2.00808h 0.607967v -2.00808h 0.607967v 4.01616h
 0.607967v -1.25505h 0.607967v 2.17542h 0.607967v -1.58973h 0.607967v 1.6734h 0.607967v -0.836701h 0.607967v 2.09175h 0.607967v 0.33468h 0.607967v -0.41835h 0.607967v -2.76111h 0.607967v 2.00808h 0.607967v 2.76111h 0.607967v -1.33872h 0.607967v
 0.669361h 0.607967v 0.25101h 0.607967v 3.01212h 0.607967v -1.17138h 0.607967v 0.58569h 0.607967v -0.50202h 0.607967v -1.50606h 0.607967v 3.3468h 0.607967v -2.76111h 0.607967v 1.6734h 0.607967v 0.33468h 0.607967v -0.753031h 0.607967v 2.67744h
 0.607967v -1.6734h 0.607967v -1.08771h 0.607967v 3.09579h 0.607967v -1.92441h 0.607967v 0.920371h 0.607967v -0.920371h 0.607967v -0.16734h 0.607967v 0.836701h 0.607967v -0.50202h 0.607967v 0.920371h 0.607967v -1.17138h 0.607967v -0.753031h 0.607967v
 -0.16734h 0.607967v 1.50606h 0.607967v 0.753031h 0.607967v -2.59377h 0.607967v 1.00404h 0.607967v -0.0836701h 0.607967v 0.16734h 0.607967v 2.00808h 0.607967v -2.00808h 0.607967v 2.67744h 0.607967v -0.16734h 0.607967v -0.836701h 0.607967v -2.25909h
 0.607967v -2.5101h 0.607967v 1.50606h 0.607967v 0.669361h 0.607967v 0.58569h 0.607967v 0.16734h 0.607967v -1.00404h 0.607967v -0.0836701h 0.607967v 0.920371h 0.607967v 1.25505h 0.607967v -2.92845h 0.607967v 0.33468h 0.607967v -0.58569h 0.607967v
 0.920371h 0.607967v -1.08771h 0.607967v -1.33872h 0.607967v 2.00808h 0.607967v 1.92441h 0.607967v -1.75707h 0.607967v -2.09175h 0.607967v 2.5101h 0.607967v -0.33468h 0.607967v 0.16734h 0.607967v 0.58569h 0.607967v 0.25101h 0.607967v -0.33468h
 0.607967v 1.75707h 0.607967v -1.75707h 0.607967v -0.0836701h 0.607967v -0.16734h 0.607967v 1.92441h 0.607967v -0.16734h 0.607967v -0.836701h 0.607967v 1.42239h 0.607967v -0.41835h 0.607967v 1.17138h 0.607967v -0.50202h 0.607967v 1.00404h 0.607967v
 -1.08771h 0.607967v 0.920371h 0.607967v 1.00404h 0.607967v 0.25101h 0.607967v 1.33872h 0.607967v 0.0836701h 0.607967v -0.669361h 0.607967v -0.33468h 0.607967v 0.33468h 0.607967v 1.50606h 0.607967v -1.58973h 0.607967v 2.00808h 0.607967v 0.25101h
 0.607967v 0.33468h 0.607967v -0.41835h 0.607967v 0.25101h 0.607967v -0.33468h 0.607967v 0.0836701h 0.607967v -0.0836701h 0.607967v 1.08771h 0.607967v 0.920371h 0.607967v 0.0836701h 0.607967v -0.836701h 0.607967v 0.836701h 0.607967v 1.08771h
 0.607967v -0.669361h 0.607967v -0.836701h 0.607967v 0.920371h 0.607967v 1.25505h 0.607967v -1.17138h 0.607967v -0.25101h 0.607967v 1.6734h 0.607967v -0.836701h 0.607967v 0.33468h 0.607967v 0.16734h 0.607967v 0.25101h 0.607967v -0.836701h 0.607967v
 0.58569h 0.607967v 1.17138h 0.607967v -0.669361h 0.607967v 0.25101h 0.607967v -0.836701h 0.607967v 0.836701h 0.607967v -0.753031h 0.607967v 1.17138h 0.607967v -1.00404h 0.607967v 0.58569h 0.607967v -0.16734h 0.607967v 0.669361h 0.607967v -0.25101h
 0.607967v 0.25101h 0.607967v 0.25101h 1.21593v -0.16734h 0.607967v -0.50202h 0.607967v 0.41835h 0.607967v 0.0836701h 0.607967v -0.41835h 0.607967v 0.753031h 0.607967v -0.58569h 0.607967v 0.58569h 0.607967v -0.41835h 0.607967v 0.25101h 0.607967v
 -0.0836701h 0.607967v -0.16734h 0.607967v -0.0836701h 0.607967v 0.33468h 1.21593v 0.0836701h 1.21593v -0.0836701h 0.607967v -0.41835h 0.607967v 0.920371h 0.607967v -0.753031h 0.607967v 0.836701h 0.607967v -0.669361h 0.607967v 0.25101h 0.607967v
 -0.33468h 0.607967v 0.50202h 0.607967v -0.41835h 0.607967v -0.0836701h 0.607967v -0.0836701h 0.607967v 0.50202h 0.607967v 0.0836701h 0.607967v -0.0836701h 0.607967v -0.16734h 1.21593v -0.753031h 0.607967v 0.41835h 0.607967v 0.25101h 1.21593v
 -0.41835h 0.607967v -0.16734h 0.607967v -0.25101h 0.607967v 1.00404h 0.607967v 0.33468h 0.607967v -0.41835h 0.607967v -0.58569h 0.607967v 0.41835h 0.607967v 0.50202h 0.607967v -0.753031h 0.607967v 0.41835h 0.607967v 0.33468h 0.607967v -0.25101h
 0.607967v -0.25101h 0.607967v 0.50202h 0.607967v -0.16734h 0.607967v -0.16734h 0.607967v 0.16734h 0.607967v -0.836701h 0.607967v 1.00404h 0.607967v -0.836701h 0.607967v -0.16734h 0.607967v 0.33468h 0.607967v -0.836701h 0.607967v 1.25505h 0.607967v
 -0.16734h 0.607967v 0.0836701h 0.607967v 0.25101h 0.607967v -0.50202h 0.607967v -0.41835h 0.607967v 0.41835h 0.607967v -0.16734h 0.607967v -0.0836701h 0.607967v 0.33468h 0.607967v 0.25101h 1.8239v -0.753031h 0.607967v 0.753031h 0.607967v 0.25101h
 0.607967v -0.33468h 0.607967v -0.836701h 0.607967v 0.836701h 0.607967v -1.00404h 0.607967v 0.836701h 0.607967v -0.16734h 0.607967v -0.0836701h 0.607967v 1.00404h 0.607967v -0.50202h 1.21593v -0.25101h 0.607967v 0.33468h 1.8239v -0.25101h 0.607967v
 0.58569h 0.607967v -0.753031h 0.607967v 0.16734h 0.607967v -0.58569h 0.607967v 0.920371h 0.607967v -0.16734h 0.607967v 0.0836701h 0.607967v -0.669361h 0.607967v -0.33468h 0.607967v 0.25101h 0.607967v -0.25101h 0.607967v -0.836701h 0.607967v
 0.0836701h 0.607967v 0.16734h 0.607967v -2.00808h 0.607967v 0.25101h 0.607967v 0.50202h 0.607967v -2.76111h 0.607967v -1.33872h 0.607967v -1.08771h 0.607967v -3.51414h 0.607967v -3.76515h 0.607967v -9.45472h 0.607967v -28.5315h 0.607967v -66.685h
 0.607967v -94.0452h 0.607967v -61.3302h 0.607967v -16.483h 0.607967v 7.2793h 0.607967v 33.3844h 0.607967v 32.0456h 0.607967v 25.0173h 0.607967v 2.67744h 0.607967v 9.45472h 0.607967v 7.36297h 0.607967v 17.9054h 0.607967v 8.61802h 0.607967v 23.3439h
 0.607967v 32.213h 0.607967v 28.5315h 0.607967v 19.1604h 0.607967v 9.20371h 0.607967v 7.94866h 0.607967v 11.5465h 0.607967v 3.93249h 0.607967v 3.26313h 0.607967v 2.25909h 0.607967v 2.34276h 0.607967v 1.00404h 0.607967v 0.16734h 0.607967v 0.920371h
 0.607967v 1.33872h 0.607967v 0.0836701h 0.607967v 0.0836701h 0.607967v 0.836701h 0.607967v -0.25101h 0.607967v 0.33468h 0.607967v 0.33468h 0.607967v 0.16734h 0.607967v -0.16734h 0.607967v 0.16734h 0.607967v 0.16734h 1.21593v 0.16734h 1.8239v
 0.0836701h 0.607967v -0.0836701h 1.21593v 0.0836701h 1.21593v -0.0836701h 1.21593v 0.0836701h 1.8239v -0.0836701h 1.21593" fill="none" stroke="#000099"/>
<path d="M57.1929,346.022h 453.543" fill="none" stroke="black"/>
<path d="M57.8009,336.795v 9.22726" fill="none" stroke="black"/>
<path d="M78.0664,341.409v 4.61363" fill="none" stroke="black"/>
<path d="M98.332,341.409v 4.61363" fill="none" stroke="black"/>
<path d="M118.598,341.409v 4.61363" fill="none" stroke="black"/>
<path d="M138.863,341.409v 4.61363" fill="none" stroke="black"/>
<path d="M159.129,336.795v 9.22726" fill="none" stroke="black"/>
<path d="M179.394,341.409v 4.61363" fill="none" stroke="black"/>
<path d="M199.66,341.409v 4.61363" fill="none" stroke="black"/>
<path d="M219.925,341.409v 4.61363" fill="none" stroke="black"/>
<path d="M240.191,341.409v 4.61363" fill="none" stroke="black"/>
<path d="M260.457,336.795v 9.22726" fill="none" stroke="black"/>
<path d="M280.722,341.409v 4.61363" fill="none" stroke="black"/>
<path d="M300.988,341.409v 4.61363" fill="none" stroke="black"/>
<path d="M321.253,341.409v 4.61363" fill="none" stroke="black"/>
<path d="M341.519,341.409v 4.61363" fill="none" stroke="black"/>
<path d="M361.784,336.795v 9.22726" fill="none" stroke="black"/>
<path d="M382.05,341.409v 4.61363" fill="none" stroke="black"/>
<path d="M402.315,341.409v 4.61363" fill="none" stroke="black"/>
<path d="M422.581,341.409v 4.61363" fill="none" stroke="black"/>
<path d="M442.847,341.409v 4.61363" fill="none" stroke="black"/>
<path d="M463.112,336.795v 9.22726" fill="none" stroke="black"/>
<path d="M57.8009,336.795v 9.22726" fill="none" stroke="black"/>
<path d="M463.112,336.795v 9.22726" fill="none" stroke="black"/>
<path d="M483.378,341.409v 4.61363" fill="none" stroke="black"/>
<path d="M503.643,341.409v 4.61363" fill="none" stroke="black"/>
<text xml:space="preserve" x="54.2605" y="358.403" fill="black" font-size="12.8453" font-family="Helvetica">0</text>
<text xml:space="preserve" x="147.934" y="358.403" fill="black" font-size="12.8453" font-family="Helvetica">500</text>
<text xml:space="preserve" x="246.495" y="358.403" fill="black" font-size="12.8453" font-family="Helvetica">1000</text>
<text xml:space="preserve" x="347.5" y="358.403" fill="black" font-size="12.8453" font-family="Helvetica">1500</text>
<text xml:space="preserve" x="448.504" y="358.403" fill="black" font-size="12.8453" font-family="Helvetica">2000</text>
<text xml:space="preserve" x="451.763" y="372.251" fill="black" font-size="12.8453" font-family="Helvetica">ADC value</text>
<path d="M57.1929,346.022v -307.575" fill="none" stroke="black"/>
<path d="M70.7992,346.022h -13.6063" fill="none" stroke="black"/>
<path d="M63.9961,337.655h -6.80315" fill="none" stroke="black"/>
<path d="M63.9961,329.288h -6.80315" fill="none" stroke="black"/>
<path d="M63.9961,320.921h -6.80315" fill="none" stroke="black"/>
<path d="M63.9961,312.554h -6.80315" fill="none" stroke="black"/>
<path d="M70.7992,304.187h -13.6063" fill="none" stroke="black"/>
<path d="M63.9961,295.82h -6.80315" fill="none" stroke="black"/>
<path d="M63.9961,287.453h -6.80315" fill="none" stroke="black"/>
<path d="M63.9961,279.086h -6.80315" fill="none" stroke="black"/>
<path d="M63.9961,270.719h -6.80315" fill="none" stroke="black"/>
<path d="M70.7992,262.352h -13.6063" fill="none" stroke="black"/>
<path d="M63.9961,253.985h -6.80315" fill="none" stroke="black"/>
<path d="M63.9961,245.618h -6.80315" fill="none" stroke="black"/>
<path d="M63.9961,237.251h -6.80315" fill="none" stroke="black"/>
<path d="M63.9961,228.884h -6.80315" fill="none" stroke="black"/>
<path d="M70.7992,220.517h -13.6063" fill="none" stroke="black"/>
<path d="M63.9961,212.15h -6.80315" fill="none" stroke="black"/>
<path d="M63.9961,203.783h -6.80315" fill="none" stroke="black"/>
<path d="M63.9961,195.416h -6.80315" fill="none" stroke="black"/>
<path d="M63.9961,187.049h -6.80315" fill="none" stroke="black"/>
<path d="M70.7992,178.682h -13.6063" fill="none" stroke="black"/>
<path d="M63.9961,170.315h -6.80315" fill="none" stroke="black"/>
<path d="M63.9961,161.948h -6.80315" fill="none" stroke="black"/>
<path d="M63.9961,153.581h -6.80315" fill="none" stroke="black"/>
<path d="M63.9961,145.214h -6.80315" fill="none" stroke="black"/>
<path d="M70.7992,136.847h -13.6063" fill="none" stroke="black"/>
<path d="M63.9961,128.48h -6.80315" fill="none" stroke="black"/>
<path d="M63.9961,120.113h -6.80315" fill="none" stroke="black"/>
<path d="M63.9961,111.746h -6.80315" fill="none" stroke="black"/>
<path d="M63.9961,103.379h -6.80315" fill="none" stroke="black"/>
<path d="M70.7992,95.0121h -13.6063" fill="none" stroke="black"/>
<path d="M63.9961,86.6451h -6.80315" fill="none" stroke="black"/>
<path d="M63.9961,78.2781h -6.80315" fill="none" stroke="black"/>
<path d="M63.9961,69.911h -6.80315" fill="none" stroke="black"/>
<path d="M63.9961,61.544h -6.80315" fill="none" stroke="black"/>
<path d="M70.7992,53.177h -13.6063" fill="none" stroke="black"/>
<path d="M70.7992,53.177h -13.6063" fill="none" stroke="black"/>
<path d="M63.9961,44.81h -6.80315" fill="none" stroke="black"/>
<text xml:space="preserve" x="47.7441" y="350.258" fill="black" font-size="12.8453" font-family="Helvetica">0</text>
<text xml:space="preserve" x="33.8967" y="308.716" fill="black" font-size="12.8453" font-family="Helvetica">500</text>
<text xml:space="preserve" x="27.3803" y="267.173" fill="black" font-size="12.8453" font-family="Helvetica">1000</text>
<text xml:space="preserve" x="27.3803" y="224.817" fill="black" font-size="12.8453" font-family="Helvetica">1500</text>
<text xml:space="preserve" x="27.3803" y="183.275" fill="black" font-size="12.8453" font-family="Helvetica">2000</text>
<text xml:space="preserve" x="27.3803" y="141.732" fill="black" font-size="12.8453" font-family="Helvetica">2500</text>
<text xml:space="preserve" x="27.3803" y="99.3755" fill="black" font-size="12.8453" font-family="Helvetica">3000</text>
<text xml:space="preserve" x="27.3803" y="57.8333" fill="black" font-size="12.8453" font-family="Helvetica">3500</text>
<g transform="rotate(-90,14.3474,70.0516)">
<text xml:space="preserve" x="14.3474" y="70.0516" fill="black" font-size="12.8453" font-family="Helvetica">Event</text>
</g>
<text xml:space="preserve" x="250.568" y="18.7347" fill="black" font-size="18.0316" font-family="Helvetica">Am_009</text>
<rect x="442.705" y="24.9905" width="113.386" height="61.5151" fill="white"/>
<path d="M442.705,86.5056h 113.386" fill="none" stroke="black"/>
<path d="M556.091,86.5056v -61.5151" fill="none" stroke="black"/>
<path d="M556.091,24.9905h -113.386" fill="none" stroke="black"/>
<path d="M442.705,24.9905v 61.5151" fill="none" stroke="black"/>
<text xml:space="preserve" x="474.57" y="36.6549" fill="black" font-size="13.4802" font-family="Helvetica">Am_009</text>
<path d="M442.705,40.3693h 113.386" fill="none" stroke="black"/>
<text xml:space="preserve" x="447.69" y="52.946" fill="black" font-size="12.3904" font-family="Helvetica">Entries </text>
<text xml:space="preserve" x="506.338" y="52.946" fill="black" font-size="12.3904" font-family="Helvetica"> 116742</text>
<text xml:space="preserve" x="447.69" y="67.6079" fill="black" font-size="12.3904" font-family="Helvetica">Mean  </text>
<text xml:space="preserve" x="515.298" y="67.6079" fill="black" font-size="12.3904" font-family="Helvetica">   1481</text>
<text xml:space="preserve" x="447.69" y="83.0844" fill="black" font-size="12.3904" font-family="Helvetica">Std Dev   </text>
<text xml:space="preserve" x="512.854" y="83.0844" fill="black" font-size="12.3904" font-family="Helvetica">  490.9</text>
<text xml:space="preserve" x="250.568" y="18.7347" fill="black" font-size="18.0316" font-family="Helvetica">Am_009</text></svg>
