<?xml version="1.0" standalone="no"?>
<svg width="567.429" height="384.969" viewBox="0 0 567.429 384.969" xmlns="http://www.w3.org/2000/svg" shape-rendering="crispEdges">
<title>
img/week1/plane_hist/Am_004.svg
</title>
<desc>
Creator: ROOT Version 6.22/09
CreationDate: Wed Jul 14 09:53:06 2021</desc>
<defs>
</defs>
<rect x="0.5" y="0" width="566.929" height="384.469" fill="white"/>
<rect x="57.1929" y="38.4469" width="453.543" height="307.575" fill="white"/>
<rect x="57.1929" y="38.4469" width="453.543" height="307.575" fill="none" stroke="black"/>
<path d="M57.1929,346.022h 18.512v -10.4617h 0.661142v -36.6161h 0.661142v -162.157h 0.661142v -15.6926h 0.661142v -68.0014h 0.661142v 20.9235h 0.661142v 5.23087h 0.661142v 20.9235h 0.661142v 52.3087h 0.661142v -52.3087h 0.661142v 10.4617h 0.661142v
 62.7705h 0.661142v -15.6926h 0.661142v 10.4617h 0.661142v 41.847h 0.661142v -26.1544h 0.661142v 36.6161h 0.661142v -5.23087h 0.661142v 47.0779h 0.661142v -26.1544h 0.661142v 20.9235h 0.661142v 15.6926h 0.661142v 10.4617h 0.661142v -26.1544h
 0.661142v 26.1544h 0.661142v 5.23087h 0.661142v 10.4617h 0.661142v -5.23087h 0.661142v -5.23087h 0.661142v 20.9235h 0.661142v 10.4617h 0.661142v -10.4617h 0.661142v 15.6926h 0.661142v 5.23087h 0.661142v -5.23087h 0.661142v 15.6926h 1.32228v
 -10.4617h 1.32228v 10.4617h 0.661142v 5.23087h 1.32228v -10.4617h 0.661142v 5.23087h 0.661142v -5.23087h 0.661142v 10.4617h 1.98343v -5.23087h 0.661142v 5.23087h 1.32228v -5.23087h 1.32228v 5.23087h 3.30571v -5.23087h 0.661142v 5.23087h 1.98343v
 -5.23087h 0.661142v 5.23087h 0.661142v -5.23087h 0.661142v 5.23087h 1.32228v -5.23087h 0.661142v 5.23087h 4.62799v -5.23087h 1.32228v 5.23087h 1.32228v -5.23087h 0.661142v 5.23087h 2.64457v -5.23087h 0.661142v 5.23087h 2.64457v -15.6926h 0.661142v
 10.4617h 0.661142v 5.23087h 1.32228v -5.23087h 1.32228v 5.23087h 3.30571v -5.23087h 1.32228v 5.23087h 1.98343v -5.23087h 1.32228v 5.23087h 1.32228v -5.23087h 2.64457v 5.23087h 2.64457v -5.23087h 0.661142v 5.23087h 1.98343v -5.23087h 0.661142v
 5.23087h 0.661142v -5.23087h 0.661142v 5.23087h 1.32228v -5.23087h 1.32228v 5.23087h 0.661142v -5.23087h 0.661142v 5.23087h 0.661142v -5.23087h 1.32228v 5.23087h 3.30571v -5.23087h 1.32228v 5.23087h 1.98343v -5.23087h 0.661142v 5.23087h 1.32228v
 -5.23087h 0.661142v -5.23087h 0.661142v 10.4617h 1.98343v -5.23087h 0.661142v -5.23087h 0.661142v 10.4617h 0.661142v -5.23087h 0.661142v 5.23087h 0.661142v -10.4617h 0.661142v 10.4617h 1.32228v -5.23087h 0.661142v 5.23087h 1.32228v -5.23087h
 0.661142v 5.23087h 1.32228v -5.23087h 0.661142v 5.23087h 1.98343v -5.23087h 0.661142v 5.23087h 1.32228v -10.4617h 0.661142v 5.23087h 0.661142v 5.23087h 0.661142v -5.23087h 0.661142v 5.23087h 0.661142v -5.23087h 0.661142v 5.23087h 0.661142v -5.23087h
 0.661142v -10.4617h 0.661142v 15.6926h 0.661142v -5.23087h 0.661142v 5.23087h 0.661142v -5.23087h 0.661142v 5.23087h 0.661142v -10.4617h 1.98343v 5.23087h 0.661142v -20.9235h 0.661142v 26.1544h 0.661142v -5.23087h 0.661142v 5.23087h 0.661142v
 -10.4617h 0.661142v 5.23087h 1.32228v -5.23087h 0.661142v 5.23087h 0.661142v -10.4617h 0.661142v 10.4617h 0.661142v -5.23087h 0.661142v 5.23087h 0.661142v -5.23087h 0.661142v 10.4617h 0.661142v -5.23087h 0.661142v -10.4617h 0.661142v 10.4617h
 1.32228v -15.6926h 0.661142v 15.6926h 1.32228v -5.23087h 0.661142v -5.23087h 0.661142v -10.4617h 0.661142v 20.9235h 0.661142v 5.23087h 0.661142v -31.3852h 0.661142v 26.1544h 1.98343v -15.6926h 0.661142v 5.23087h 0.661142v -5.23087h 0.661142v
 15.6926h 0.661142v -5.23087h 0.661142v 10.4617h 0.661142v -10.4617h 0.661142v -5.23087h 0.661142v 15.6926h 0.661142v -10.4617h 1.32228v 5.23087h 1.32228v 5.23087h 0.661142v -10.4617h 0.661142v 10.4617h 0.661142v -10.4617h 0.661142v 5.23087h
 0.661142v 5.23087h 0.661142v -20.9235h 0.661142v 15.6926h 1.32228v 5.23087h 0.661142v -10.4617h 1.32228v 10.4617h 0.661142v -10.4617h 0.661142v -5.23087h 0.661142v 15.6926h 1.32228v -5.23087h 0.661142v -5.23087h 0.661142v 5.23087h 1.32228v -10.4617h
 0.661142v 10.4617h 0.661142v -5.23087h 0.661142v 10.4617h 0.661142v -5.23087h 0.661142v -20.9235h 0.661142v 20.9235h 1.32228v -10.4617h 0.661142v 15.6926h 1.32228v -5.23087h 1.32228v -5.23087h 0.661142v 5.23087h 1.98343v -5.23087h 1.32228v 5.23087h
 0.661142v -5.23087h 0.661142v 10.4617h 0.661142v -10.4617h 0.661142v 10.4617h 0.661142v -5.23087h 1.32228v 5.23087h 0.661142v -5.23087h 0.661142v 5.23087h 1.98343v -15.6926h 0.661142v 5.23087h 0.661142v 10.4617h 0.661142v -15.6926h 0.661142v
 15.6926h 3.30571v -5.23087h 0.661142v 5.23087h 0.661142v -5.23087h 0.661142v 5.23087h 0.661142v -5.23087h 1.98343v 5.23087h 4.62799v -5.23087h 0.661142v 5.23087h 1.98343v -5.23087h 1.98343v 5.23087h 3.30571v -5.23087h 0.661142v 5.23087h 2.64457v
 -10.4617h 0.661142v 10.4617h 7.27256v -5.23087h 0.661142v 5.23087h 0.661142v -5.23087h 0.661142v 5.23087h 0.661142v -10.4617h 0.661142v 5.23087h 0.661142v 5.23087h 15.8674v -5.23087h 0.661142v 5.23087h 1.32228v -5.23087h 0.661142v 5.23087h 17.1897v
 -5.23087h 0.661142v 5.23087h 6.61142v -5.23087h 0.661142v 5.23087h 52.8913v -5.23087h 0.661142v 5.23087h 44.9576v -5.23087h 0.661142v 5.23087h 19.1731v -5.23087h 0.661142v 5.23087h 27.1068v -5.23087h 0.661142v 5.23087h 11.2394v -10.4617h 0.661142v
 -10.4617h 0.661142v -20.9235h 0.661142v 15.6926h 1.32228v 10.4617h 0.661142v -20.9235h 0.661142v 31.3852h 1.32228" fill="none" stroke="#000099"/>
<path d="M57.1929,346.022h 453.543" fill="none" stroke="black"/>
<path d="M57.8541,336.795v 9.22726" fill="none" stroke="black"/>
<path d="M79.8921,341.409v 4.61363" fill="none" stroke="black"/>
<path d="M101.93,341.409v 4.61363" fill="none" stroke="black"/>
<path d="M123.968,341.409v 4.61363" fill="none" stroke="black"/>
<path d="M146.006,341.409v 4.61363" fill="none" stroke="black"/>
<path d="M168.044,336.795v 9.22726" fill="none" stroke="black"/>
<path d="M190.082,341.409v 4.61363" fill="none" stroke="black"/>
<path d="M212.12,341.409v 4.61363" fill="none" stroke="black"/>
<path d="M234.159,341.409v 4.61363" fill="none" stroke="black"/>
<path d="M256.197,341.409v 4.61363" fill="none" stroke="black"/>
<path d="M278.235,336.795v 9.22726" fill="none" stroke="black"/>
<path d="M300.273,341.409v 4.61363" fill="none" stroke="black"/>
<path d="M322.311,341.409v 4.61363" fill="none" stroke="black"/>
<path d="M344.349,341.409v 4.61363" fill="none" stroke="black"/>
<path d="M366.387,341.409v 4.61363" fill="none" stroke="black"/>
<path d="M388.425,336.795v 9.22726" fill="none" stroke="black"/>
<path d="M410.463,341.409v 4.61363" fill="none" stroke="black"/>
<path d="M432.501,341.409v 4.61363" fill="none" stroke="black"/>
<path d="M454.539,341.409v 4.61363" fill="none" stroke="black"/>
<path d="M476.577,341.409v 4.61363" fill="none" stroke="black"/>
<path d="M498.615,336.795v 9.22726" fill="none" stroke="black"/>
<path d="M57.8541,336.795v 9.22726" fill="none" stroke="black"/>
<path d="M498.615,336.795v 9.22726" fill="none" stroke="black"/>
<text xml:space="preserve" x="54.2605" y="358.403" fill="black" font-size="12.8453" font-family="Helvetica">0</text>
<text xml:space="preserve" x="156.894" y="358.403" fill="black" font-size="12.8453" font-family="Helvetica">500</text>
<text xml:space="preserve" x="263.601" y="358.403" fill="black" font-size="12.8453" font-family="Helvetica">1000</text>
<text xml:space="preserve" x="374.38" y="358.403" fill="black" font-size="12.8453" font-family="Helvetica">1500</text>
<text xml:space="preserve" x="484.345" y="358.403" fill="black" font-size="12.8453" font-family="Helvetica">2000</text>
<text xml:space="preserve" x="451.763" y="372.251" fill="black" font-size="12.8453" font-family="Helvetica">ADC value</text>
<path d="M57.1929,346.022v -307.575" fill="none" stroke="black"/>
<path d="M70.7992,346.022h -13.6063" fill="none" stroke="black"/>
<path d="M63.9961,335.561h -6.80315" fill="none" stroke="black"/>
<path d="M63.9961,325.099h -6.80315" fill="none" stroke="black"/>
<path d="M63.9961,314.637h -6.80315" fill="none" stroke="black"/>
<path d="M63.9961,304.175h -6.80315" fill="none" stroke="black"/>
<path d="M70.7992,293.714h -13.6063" fill="none" stroke="black"/>
<path d="M63.9961,283.252h -6.80315" fill="none" stroke="black"/>
<path d="M63.9961,272.79h -6.80315" fill="none" stroke="black"/>
<path d="M63.9961,262.328h -6.80315" fill="none" stroke="black"/>
<path d="M63.9961,251.867h -6.80315" fill="none" stroke="black"/>
<path d="M70.7992,241.405h -13.6063" fill="none" stroke="black"/>
<path d="M63.9961,230.943h -6.80315" fill="none" stroke="black"/>
<path d="M63.9961,220.481h -6.80315" fill="none" stroke="black"/>
<path d="M63.9961,210.02h -6.80315" fill="none" stroke="black"/>
<path d="M63.9961,199.558h -6.80315" fill="none" stroke="black"/>
<path d="M70.7992,189.096h -13.6063" fill="none" stroke="black"/>
<path d="M63.9961,178.634h -6.80315" fill="none" stroke="black"/>
<path d="M63.9961,168.173h -6.80315" fill="none" stroke="black"/>
<path d="M63.9961,157.711h -6.80315" fill="none" stroke="black"/>
<path d="M63.9961,147.249h -6.80315" fill="none" stroke="black"/>
<path d="M70.7992,136.787h -13.6063" fill="none" stroke="black"/>
<path d="M63.9961,126.326h -6.80315" fill="none" stroke="black"/>
<path d="M63.9961,115.864h -6.80315" fill="none" stroke="black"/>
<path d="M63.9961,105.402h -6.80315" fill="none" stroke="black"/>
<path d="M63.9961,94.9403h -6.80315" fill="none" stroke="black"/>
<path d="M70.7992,84.4786h -13.6063" fill="none" stroke="black"/>
<path d="M70.7992,84.4786h -13.6063" fill="none" stroke="black"/>
<path d="M63.9961,74.0169h -6.80315" fill="none" stroke="black"/>
<path d="M63.9961,63.5551h -6.80315" fill="none" stroke="black"/>
<path d="M63.9961,53.0934h -6.80315" fill="none" stroke="black"/>
<path d="M63.9961,42.6316h -6.80315" fill="none" stroke="black"/>
<text xml:space="preserve" x="47.7441" y="350.258" fill="black" font-size="12.8453" font-family="Helvetica">0</text>
<text xml:space="preserve" x="41.2277" y="298.127" fill="black" font-size="12.8453" font-family="Helvetica">10</text>
<text xml:space="preserve" x="41.2277" y="245.995" fill="black" font-size="12.8453" font-family="Helvetica">20</text>
<text xml:space="preserve" x="41.2277" y="193.864" fill="black" font-size="12.8453" font-family="Helvetica">30</text>
<text xml:space="preserve" x="41.2277" y="140.918" fill="black" font-size="12.8453" font-family="Helvetica">40</text>
<text xml:space="preserve" x="41.2277" y="88.7863" fill="black" font-size="12.8453" font-family="Helvetica">50</text>
<g transform="rotate(-90,29.0094,70.0516)">
<text xml:space="preserve" x="29.0094" y="70.0516" fill="black" font-size="12.8453" font-family="Helvetica">Event</text>
</g>
<text xml:space="preserve" x="250.568" y="18.7347" fill="black" font-size="18.0316" font-family="Helvetica">Am_004</text>
<rect x="442.705" y="24.9905" width="113.386" height="61.5151" fill="white"/>
<path d="M442.705,86.5056h 113.386" fill="none" stroke="black"/>
<path d="M556.091,86.5056v -61.5151" fill="none" stroke="black"/>
<path d="M556.091,24.9905h -113.386" fill="none" stroke="black"/>
<path d="M442.705,24.9905v 61.5151" fill="none" stroke="black"/>
<text xml:space="preserve" x="474.57" y="36.6549" fill="black" font-size="13.4802" font-family="Helvetica">Am_004</text>
<path d="M442.705,40.3693h 113.386" fill="none" stroke="black"/>
<text xml:space="preserve" x="447.69" y="52.946" fill="black" font-size="13.0654" font-family="Helvetica">Entries </text>
<text xml:space="preserve" x="517.741" y="52.946" fill="black" font-size="13.0654" font-family="Helvetica"> 1108</text>
<text xml:space="preserve" x="447.69" y="67.6079" fill="black" font-size="13.0654" font-family="Helvetica">Mean  </text>
<text xml:space="preserve" x="510.41" y="67.6079" fill="black" font-size="13.0654" font-family="Helvetica">  316.8</text>
<text xml:space="preserve" x="447.69" y="83.0844" fill="black" font-size="13.0654" font-family="Helvetica">Std Dev   </text>
<text xml:space="preserve" x="510.41" y="83.899" fill="black" font-size="13.0654" font-family="Helvetica">  422.2</text>
<text xml:space="preserve" x="250.568" y="18.7347" fill="black" font-size="18.0316" font-family="Helvetica">Am_004</text></svg>
