<?xml version="1.0" standalone="no"?>
<svg width="567.429" height="384.969" viewBox="0 0 567.429 384.969" xmlns="http://www.w3.org/2000/svg" shape-rendering="crispEdges">
<title>
img/week1/plane_hist/Am_008.svg
</title>
<desc>
Creator: ROOT Version 6.22/09
CreationDate: Fri Jul  2 19:46:41 2021</desc>
<defs>
</defs>
<rect x="0.5" y="0" width="566.929" height="384.469" fill="white"/>
<rect x="57.1929" y="38.4469" width="453.543" height="307.575" fill="white"/>
<rect x="57.1929" y="38.4469" width="453.543" height="307.575" fill="none" stroke="black"/>
<path d="M57.1929,346.022h 52.7067v -0.906901h 0.442913v -0.906901h 0.442913v 0.906901h 0.442913v -0.906901h 0.442913v -1.8138h 0.442913v 2.7207h 1.32874v -0.906901h 0.442913v 0.906901h 0.442913v -0.906901h 0.442913v -3.6276h 0.442913v 4.5345h
 0.442913v -3.6276h 0.442913v 1.8138h 0.442913v 0.906901h 0.442913v 0.906901h 0.442913v -1.8138h 0.442913v 2.7207h 0.442913v -0.906901h 0.442913v -1.8138h 0.442913v -1.8138h 0.442913v 2.7207h 0.442913v -0.906901h 0.442913v 0.906901h 0.442913v 1.8138h
 0.442913v -0.906901h 0.442913v -2.7207h 0.885827v -0.906901h 0.442913v 0.906901h 0.442913v 2.7207h 0.442913v -2.7207h 0.442913v 3.6276h 0.442913v -1.8138h 0.442913v -1.8138h 0.442913v -0.906901h 0.442913v 2.7207h 0.442913v -0.906901h 0.442913v
 -0.906901h 0.442913v 0.906901h 0.442913v 1.8138h 0.442913v -0.906901h 0.442913v -0.906901h 0.442913v -1.8138h 0.442913v 2.7207h 0.442913v 1.8138h 0.442913v -1.8138h 0.442913v 1.8138h 0.885827v -0.906901h 1.32874v -0.906901h 0.442913v 0.906901h
 0.442913v -2.7207h 0.442913v 1.8138h 0.885827v -1.8138h 0.885827v 2.7207h 0.442913v -0.906901h 0.442913v -1.8138h 0.442913v 0.906901h 0.442913v 2.7207h 0.885827v -4.5345h 0.442913v 2.7207h 0.442913v -1.8138h 0.442913v -1.8138h 0.442913v 4.5345h
 0.442913v -2.7207h 0.442913v 1.8138h 0.885827v -0.906901h 0.442913v 0.906901h 0.442913v 0.906901h 0.442913v -0.906901h 0.885827v -0.906901h 1.32874v 2.7207h 0.442913v -2.7207h 0.442913v -2.7207h 0.442913v 4.5345h 0.442913v -3.6276h 0.442913v 3.6276h
 0.885827v -2.7207h 0.442913v 0.906901h 0.442913v -0.906901h 0.885827v 0.906901h 0.442913v -0.906901h 0.442913v 0.906901h 0.442913v -0.906901h 0.442913v -3.6276h 0.442913v 3.6276h 0.442913v -1.8138h 0.442913v 0.906901h 0.442913v 2.7207h 0.442913v
 1.8138h 0.442913v -5.4414h 0.442913v 1.8138h 0.442913v 2.7207h 0.442913v -0.906901h 0.442913v -4.5345h 0.442913v 3.6276h 0.885827v -2.7207h 0.885827v 2.7207h 0.442913v -0.906901h 0.442913v -1.8138h 0.442913v 0.906901h 0.442913v 4.5345h 0.442913v
 -2.7207h 0.885827v -3.6276h 0.442913v 1.8138h 0.442913v 2.7207h 0.442913v 0.906901h 0.442913v -4.5345h 0.442913v 2.7207h 0.442913v 1.8138h 0.442913v -2.7207h 0.885827v -2.7207h 0.885827v 3.6276h 0.442913v -3.6276h 0.442913v 2.7207h 0.442913v
 0.906901h 0.885827v -2.7207h 0.442913v 0.906901h 1.77165v -2.7207h 0.442913v 1.8138h 0.885827v 0.906901h 0.442913v -1.8138h 0.442913v -0.906901h 0.442913v 1.8138h 0.442913v 1.8138h 0.442913v -4.5345h 0.442913v 1.8138h 0.442913v 1.8138h 0.442913v
 0.906901h 0.442913v 1.8138h 0.442913v -5.4414h 0.442913v -2.7207h 0.442913v 5.4414h 0.442913v 0.906901h 0.442913v -1.8138h 0.442913v -3.6276h 0.442913v 2.7207h 0.442913v -0.906901h 0.442913v 1.8138h 0.442913v 0.906901h 0.442913v 0.906901h 0.442913v
 -5.4414h 0.442913v 4.5345h 0.442913v -2.7207h 0.885827v 1.8138h 0.885827v 0.906901h 0.442913v -2.7207h 0.442913v 1.8138h 0.442913v -5.4414h 0.442913v -1.8138h 0.442913v -0.906901h 0.442913v -1.8138h 0.442913v 0.906901h 0.442913v 7.2552h 0.442913v
 -7.2552h 0.442913v 6.3483h 0.442913v -4.5345h 0.442913v -2.7207h 0.442913v -1.8138h 0.442913v 4.5345h 0.442913v 0.906901h 0.442913v 6.3483h 0.442913v -11.7897h 0.442913v 0.906901h 0.885827v 7.2552h 0.442913v -8.16211h 0.442913v -4.5345h 0.442913v
 -3.6276h 0.442913v 7.2552h 0.442913v 2.7207h 0.442913v -6.3483h 0.442913v -1.8138h 0.442913v 5.4414h 0.442913v 0.906901h 0.442913v -10.8828h 0.442913v 10.8828h 0.442913v 2.7207h 0.442913v -16.3242h 0.442913v 12.6966h 0.442913v -19.9518h 0.442913v
 6.3483h 0.442913v 0.906901h 0.442913v 9.06901h 0.442913v -13.6035h 0.442913v 3.6276h 0.442913v -4.5345h 0.442913v 3.6276h 0.442913v -0.906901h 0.442913v 1.8138h 0.442913v 10.8828h 0.442913v -11.7897h 0.442913v -15.4173h 0.442913v 4.5345h 0.442913v
 5.4414h 0.442913v -5.4414h 0.442913v -1.8138h 0.442913v 9.06901h 0.442913v 2.7207h 0.442913v 0.906901h 0.885827v -8.16211h 0.442913v 9.97591h 0.442913v -22.6725h 0.442913v 26.3001h 0.442913v -19.9518h 0.442913v 11.7897h 0.442913v 2.7207h 0.442913v
 -10.8828h 0.442913v 2.7207h 0.442913v 3.6276h 0.442913v 2.7207h 0.442913v -1.8138h 0.442913v 1.8138h 0.442913v 4.5345h 0.442913v -5.4414h 0.442913v -9.97591h 0.442913v 18.138h 0.442913v -4.5345h 0.442913v -2.7207h 0.442913v 12.6966h 0.442913v
 -10.8828h 0.442913v -1.8138h 0.442913v 6.3483h 0.442913v -10.8828h 0.442913v 9.06901h 0.442913v -3.6276h 0.442913v 5.4414h 0.442913v -7.2552h 0.885827v 9.97591h 0.442913v -7.2552h 0.442913v -0.906901h 0.885827v -12.6966h 0.442913v 18.138h 0.442913v
 -2.7207h 0.442913v -1.8138h 0.442913v 10.8828h 0.442913v -13.6035h 0.442913v 1.8138h 0.442913v -2.7207h 0.885827v 16.3242h 0.442913v 2.7207h 0.442913v -15.4173h 0.442913v 2.7207h 0.442913v 3.6276h 0.442913v 1.8138h 0.442913v -9.06901h 0.442913v
 4.5345h 0.442913v 0.906901h 0.442913v 6.3483h 0.442913v -9.97591h 0.442913v 5.4414h 0.442913v -9.97591h 0.442913v 2.7207h 0.442913v 0.906901h 0.442913v 8.16211h 0.442913v -1.8138h 0.442913v 0.906901h 0.442913v -9.97591h 0.442913v 6.3483h 0.442913v
 1.8138h 0.442913v 3.6276h 0.442913v -4.5345h 0.442913v -5.4414h 0.442913v 10.8828h 0.442913v -16.3242h 0.442913v 11.7897h 0.442913v 6.3483h 0.442913v -5.4414h 0.442913v 1.8138h 0.442913v -3.6276h 0.442913v 2.7207h 0.442913v -15.4173h 0.442913v
 26.3001h 0.442913v -7.2552h 0.442913v -7.2552h 0.442913v 5.4414h 0.442913v -6.3483h 0.442913v 6.3483h 0.442913v 3.6276h 0.442913v -5.4414h 0.442913v 6.3483h 0.442913v 1.8138h 0.442913v -18.138h 0.442913v 15.4173h 0.442913v 1.8138h 0.442913v
 -13.6035h 0.442913v 12.6966h 0.442913v -1.8138h 0.442913v -1.8138h 0.442913v -2.7207h 0.442913v 9.06901h 0.442913v 3.6276h 0.442913v -9.97591h 0.442913v 5.4414h 0.442913v -2.7207h 0.442913v 10.8828h 0.442913v -6.3483h 0.442913v 0.906901h 1.32874v
 0.906901h 0.442913v -3.6276h 0.442913v 10.8828h 0.442913v -12.6966h 0.442913v 7.2552h 0.442913v 0.906901h 0.885827v 1.8138h 0.442913v -4.5345h 0.442913v 5.4414h 0.442913v -7.2552h 0.442913v 4.5345h 0.442913v -7.2552h 0.442913v 7.2552h 0.442913v
 1.8138h 0.885827v 3.6276h 0.442913v -9.06901h 0.442913v 8.16211h 0.442913v -0.906901h 0.442913v -5.4414h 0.442913v -1.8138h 0.442913v 1.8138h 0.442913v 5.4414h 0.442913v -6.3483h 0.885827v 8.16211h 0.442913v -9.06901h 0.442913v 2.7207h 0.442913v
 6.3483h 0.442913v -2.7207h 0.442913v -12.6966h 0.442913v 7.2552h 0.885827v 0.906901h 0.442913v 3.6276h 0.442913v -3.6276h 0.442913v -2.7207h 0.442913v 5.4414h 0.442913v -6.3483h 0.442913v 2.7207h 0.442913v 2.7207h 0.442913v -4.5345h 0.442913v
 0.906901h 0.442913v 3.6276h 0.442913v -4.5345h 0.442913v -7.2552h 0.442913v 9.97591h 0.442913v 3.6276h 0.442913v -6.3483h 0.442913v 1.8138h 0.885827v 6.3483h 0.442913v -9.06901h 0.442913v 2.7207h 0.442913v -1.8138h 0.442913v 2.7207h 0.885827v
 -2.7207h 0.442913v 7.2552h 0.442913v 0.906901h 0.442913v -6.3483h 0.442913v 0.906901h 0.885827v 0.906901h 0.442913v 1.8138h 0.442913v -3.6276h 0.442913v 2.7207h 0.442913v -2.7207h 0.442913v 5.4414h 0.442913v -0.906901h 0.442913v 1.8138h 0.442913v
 -2.7207h 0.442913v -3.6276h 0.442913v 7.2552h 0.442913v -1.8138h 0.442913v -3.6276h 0.442913v 4.5345h 0.442913v -4.5345h 0.442913v -1.8138h 0.442913v 5.4414h 0.442913v 2.7207h 0.442913v -1.8138h 0.442913v -1.8138h 0.885827v 7.2552h 0.442913v
 -1.8138h 0.442913v -1.8138h 0.442913v 0.906901h 0.442913v -3.6276h 0.442913v 1.8138h 0.885827v 0.906901h 0.885827v 2.7207h 0.442913v -1.8138h 0.442913v -0.906901h 0.442913v 3.6276h 0.442913v -0.906901h 1.32874v 2.7207h 0.442913v -5.4414h 0.442913v
 0.906901h 0.442913v 0.906901h 0.442913v 1.8138h 0.442913v -5.4414h 0.442913v 4.5345h 0.442913v 1.8138h 0.442913v -1.8138h 0.885827v 1.8138h 0.442913v -0.906901h 0.442913v 0.906901h 0.442913v -0.906901h 0.442913v -3.6276h 0.442913v 4.5345h 0.442913v
 0.906901h 0.442913v -1.8138h 0.885827v 1.8138h 0.442913v -3.6276h 0.442913v 1.8138h 0.442913v 0.906901h 0.442913v -0.906901h 0.442913v 1.8138h 0.885827v -1.8138h 0.442913v 0.906901h 0.442913v 0.906901h 0.442913v -0.906901h 0.442913v -0.906901h
 1.32874v 0.906901h 0.442913v 0.906901h 0.442913v -0.906901h 0.442913v -1.8138h 0.442913v 0.906901h 0.442913v -0.906901h 0.442913v 2.7207h 0.442913v -0.906901h 0.442913v -1.8138h 0.442913v -0.906901h 0.442913v 1.8138h 0.885827v 1.8138h 0.442913v
 -1.8138h 0.442913v 0.906901h 0.442913v -4.5345h 0.442913v 3.6276h 0.442913v -0.906901h 0.442913v 0.906901h 0.442913v 0.906901h 0.442913v 0.906901h 1.32874v -0.906901h 0.885827v -1.8138h 0.442913v 1.8138h 0.442913v 0.906901h 0.442913v -1.8138h
 0.885827v 0.906901h 0.442913v -2.7207h 0.442913v 2.7207h 0.442913v -0.906901h 0.442913v 1.8138h 0.442913v -1.8138h 0.442913v 0.906901h 0.442913v 0.906901h 0.442913v -1.8138h 0.442913v 0.906901h 0.442913v -2.7207h 0.442913v 1.8138h 0.442913v
 0.906901h 0.885827v -2.7207h 0.442913v 2.7207h 0.885827v -1.8138h 0.885827v 2.7207h 0.885827v -0.906901h 0.885827v -0.906901h 1.77165v 0.906901h 0.442913v -0.906901h 0.442913v -1.8138h 0.442913v 1.8138h 0.442913v 0.906901h 0.442913v 0.906901h
 0.442913v -0.906901h 0.885827v 0.906901h 0.442913v -0.906901h 0.442913v -1.8138h 0.442913v 1.8138h 0.442913v -0.906901h 0.442913v 1.8138h 0.442913v -0.906901h 0.442913v -0.906901h 0.442913v 0.906901h 0.442913v -0.906901h 0.442913v 1.8138h 0.442913v
 -3.6276h 0.442913v 3.6276h 0.442913v -1.8138h 0.442913v 1.8138h 0.885827v -0.906901h 0.885827v 0.906901h 1.32874v -0.906901h 0.442913v 0.906901h 0.442913v -2.7207h 0.442913v 0.906901h 0.442913v 0.906901h 0.885827v -1.8138h 0.442913v -0.906901h
 0.442913v 1.8138h 0.442913v -0.906901h 0.442913v 1.8138h 0.442913v -1.8138h 0.442913v -0.906901h 0.442913v 0.906901h 0.442913v 0.906901h 0.442913v -2.7207h 0.442913v -4.5345h 0.442913v 1.8138h 0.885827v 0.906901h 0.442913v -11.7897h 0.442913v
 -9.97591h 0.442913v -44.4381h 0.442913v -66.2037h 0.442913v -120.618h 0.442913v -33.5553h 0.442913v 7.2552h 0.442913v 19.9518h 0.442913v 38.0898h 0.442913v 31.7415h 0.442913v 12.6966h 0.442913v 4.5345h 0.442913v 27.207h 0.442913v -4.5345h 0.442913v
 -24.4863h 0.442913v 58.9485h 0.442913v 18.138h 0.442913v 21.7656h 0.442913v 19.0449h 0.442913v 18.138h 0.442913v 18.138h 0.442913v 10.8828h 0.442913v 0.906901h 0.442913v -0.906901h 0.442913v 11.7897h 0.442913v 0.906901h 0.442913v -4.5345h 0.442913v
 2.7207h 0.442913v -3.6276h 0.442913v 7.2552h 1.32874v 0.906901h 0.442913v -1.8138h 0.442913v 0.906901h 0.442913v 0.906901h 2.65748v -0.906901h 0.442913v 0.906901h 130.217" fill="none" stroke="#000099"/>
<path d="M57.1929,346.022h 453.543" fill="none" stroke="black"/>
<path d="M57.1929,336.795v 9.22726" fill="none" stroke="black"/>
<path d="M71.9567,341.409v 4.61363" fill="none" stroke="black"/>
<path d="M86.7205,341.409v 4.61363" fill="none" stroke="black"/>
<path d="M101.484,341.409v 4.61363" fill="none" stroke="black"/>
<path d="M116.248,341.409v 4.61363" fill="none" stroke="black"/>
<path d="M131.012,336.795v 9.22726" fill="none" stroke="black"/>
<path d="M145.776,341.409v 4.61363" fill="none" stroke="black"/>
<path d="M160.539,341.409v 4.61363" fill="none" stroke="black"/>
<path d="M175.303,341.409v 4.61363" fill="none" stroke="black"/>
<path d="M190.067,341.409v 4.61363" fill="none" stroke="black"/>
<path d="M204.831,336.795v 9.22726" fill="none" stroke="black"/>
<path d="M219.594,341.409v 4.61363" fill="none" stroke="black"/>
<path d="M234.358,341.409v 4.61363" fill="none" stroke="black"/>
<path d="M249.122,341.409v 4.61363" fill="none" stroke="black"/>
<path d="M263.886,341.409v 4.61363" fill="none" stroke="black"/>
<path d="M278.65,336.795v 9.22726" fill="none" stroke="black"/>
<path d="M293.413,341.409v 4.61363" fill="none" stroke="black"/>
<path d="M308.177,341.409v 4.61363" fill="none" stroke="black"/>
<path d="M322.941,341.409v 4.61363" fill="none" stroke="black"/>
<path d="M337.705,341.409v 4.61363" fill="none" stroke="black"/>
<path d="M352.469,336.795v 9.22726" fill="none" stroke="black"/>
<path d="M367.232,341.409v 4.61363" fill="none" stroke="black"/>
<path d="M381.996,341.409v 4.61363" fill="none" stroke="black"/>
<path d="M396.76,341.409v 4.61363" fill="none" stroke="black"/>
<path d="M411.524,341.409v 4.61363" fill="none" stroke="black"/>
<path d="M426.287,336.795v 9.22726" fill="none" stroke="black"/>
<path d="M441.051,341.409v 4.61363" fill="none" stroke="black"/>
<path d="M455.815,341.409v 4.61363" fill="none" stroke="black"/>
<path d="M470.579,341.409v 4.61363" fill="none" stroke="black"/>
<path d="M485.343,341.409v 4.61363" fill="none" stroke="black"/>
<path d="M500.106,336.795v 9.22726" fill="none" stroke="black"/>
<path d="M500.106,336.795v 9.22726" fill="none" stroke="black"/>
<text xml:space="preserve" x="53.446" y="358.403" fill="black" font-size="12.8453" font-family="Helvetica">0</text>
<text xml:space="preserve" x="120.239" y="358.403" fill="black" font-size="12.8453" font-family="Helvetica">500</text>
<text xml:space="preserve" x="190.291" y="358.403" fill="black" font-size="12.8453" font-family="Helvetica">1000</text>
<text xml:space="preserve" x="264.415" y="358.403" fill="black" font-size="12.8453" font-family="Helvetica">1500</text>
<text xml:space="preserve" x="338.54" y="358.403" fill="black" font-size="12.8453" font-family="Helvetica">2000</text>
<text xml:space="preserve" x="411.849" y="358.403" fill="black" font-size="12.8453" font-family="Helvetica">2500</text>
<text xml:space="preserve" x="485.974" y="358.403" fill="black" font-size="12.8453" font-family="Helvetica">3000</text>
<text xml:space="preserve" x="451.763" y="372.251" fill="black" font-size="12.8453" font-family="Helvetica">ADC value</text>
<path d="M57.1929,346.022v -307.575" fill="none" stroke="black"/>
<path d="M70.7992,346.022h -13.6063" fill="none" stroke="black"/>
<path d="M63.9961,336.953h -6.80315" fill="none" stroke="black"/>
<path d="M63.9961,327.884h -6.80315" fill="none" stroke="black"/>
<path d="M63.9961,318.815h -6.80315" fill="none" stroke="black"/>
<path d="M63.9961,309.746h -6.80315" fill="none" stroke="black"/>
<path d="M70.7992,300.677h -13.6063" fill="none" stroke="black"/>
<path d="M63.9961,291.608h -6.80315" fill="none" stroke="black"/>
<path d="M63.9961,282.539h -6.80315" fill="none" stroke="black"/>
<path d="M63.9961,273.47h -6.80315" fill="none" stroke="black"/>
<path d="M63.9961,264.401h -6.80315" fill="none" stroke="black"/>
<path d="M70.7992,255.332h -13.6063" fill="none" stroke="black"/>
<path d="M63.9961,246.263h -6.80315" fill="none" stroke="black"/>
<path d="M63.9961,237.194h -6.80315" fill="none" stroke="black"/>
<path d="M63.9961,228.125h -6.80315" fill="none" stroke="black"/>
<path d="M63.9961,219.056h -6.80315" fill="none" stroke="black"/>
<path d="M70.7992,209.987h -13.6063" fill="none" stroke="black"/>
<path d="M63.9961,200.918h -6.80315" fill="none" stroke="black"/>
<path d="M63.9961,191.849h -6.80315" fill="none" stroke="black"/>
<path d="M63.9961,182.78h -6.80315" fill="none" stroke="black"/>
<path d="M63.9961,173.711h -6.80315" fill="none" stroke="black"/>
<path d="M70.7992,164.642h -13.6063" fill="none" stroke="black"/>
<path d="M63.9961,155.573h -6.80315" fill="none" stroke="black"/>
<path d="M63.9961,146.504h -6.80315" fill="none" stroke="black"/>
<path d="M63.9961,137.435h -6.80315" fill="none" stroke="black"/>
<path d="M63.9961,128.366h -6.80315" fill="none" stroke="black"/>
<path d="M70.7992,119.297h -13.6063" fill="none" stroke="black"/>
<path d="M63.9961,110.228h -6.80315" fill="none" stroke="black"/>
<path d="M63.9961,101.159h -6.80315" fill="none" stroke="black"/>
<path d="M63.9961,92.0901h -6.80315" fill="none" stroke="black"/>
<path d="M63.9961,83.0211h -6.80315" fill="none" stroke="black"/>
<path d="M70.7992,73.9521h -13.6063" fill="none" stroke="black"/>
<path d="M70.7992,73.9521h -13.6063" fill="none" stroke="black"/>
<path d="M63.9961,64.8831h -6.80315" fill="none" stroke="black"/>
<path d="M63.9961,55.8141h -6.80315" fill="none" stroke="black"/>
<path d="M63.9961,46.7451h -6.80315" fill="none" stroke="black"/>
<text xml:space="preserve" x="47.7441" y="350.258" fill="black" font-size="12.8453" font-family="Helvetica">0</text>
<text xml:space="preserve" x="41.2277" y="305.457" fill="black" font-size="12.8453" font-family="Helvetica">50</text>
<text xml:space="preserve" x="33.8967" y="259.843" fill="black" font-size="12.8453" font-family="Helvetica">100</text>
<text xml:space="preserve" x="33.8967" y="214.228" fill="black" font-size="12.8453" font-family="Helvetica">150</text>
<text xml:space="preserve" x="33.8967" y="169.427" fill="black" font-size="12.8453" font-family="Helvetica">200</text>
<text xml:space="preserve" x="33.8967" y="123.812" fill="black" font-size="12.8453" font-family="Helvetica">250</text>
<text xml:space="preserve" x="33.8967" y="78.1971" fill="black" font-size="12.8453" font-family="Helvetica">300</text>
<g transform="rotate(-90,20.8638,70.0516)">
<text xml:space="preserve" x="20.8638" y="70.0516" fill="black" font-size="12.8453" font-family="Helvetica">Event</text>
</g>
<text xml:space="preserve" x="250.568" y="18.7347" fill="black" font-size="18.0316" font-family="Helvetica">Am_008</text>
<rect x="442.705" y="24.9905" width="113.386" height="61.5151" fill="white"/>
<path d="M442.705,86.5056h 113.386" fill="none" stroke="black"/>
<path d="M556.091,86.5056v -61.5151" fill="none" stroke="black"/>
<path d="M556.091,24.9905h -113.386" fill="none" stroke="black"/>
<path d="M442.705,24.9905v 61.5151" fill="none" stroke="black"/>
<text xml:space="preserve" x="474.57" y="36.6549" fill="black" font-size="13.4802" font-family="Helvetica">Am_008</text>
<path d="M442.705,40.3693h 113.386" fill="none" stroke="black"/>
<text xml:space="preserve" x="447.69" y="52.946" fill="black" font-size="12.7186" font-family="Helvetica">Entries </text>
<text xml:space="preserve" x="512.854" y="52.946" fill="black" font-size="12.7186" font-family="Helvetica"> 10177</text>
<text xml:space="preserve" x="447.69" y="67.6079" fill="black" font-size="12.7186" font-family="Helvetica">Mean  </text>
<text xml:space="preserve" x="512.854" y="67.6079" fill="black" font-size="12.7186" font-family="Helvetica">   1482</text>
<text xml:space="preserve" x="447.69" y="83.0844" fill="black" font-size="12.7186" font-family="Helvetica">Std Dev   </text>
<text xml:space="preserve" x="515.298" y="83.0844" fill="black" font-size="12.7186" font-family="Helvetica">  493.1</text>
<text xml:space="preserve" x="250.568" y="18.7347" fill="black" font-size="18.0316" font-family="Helvetica">Am_008</text></svg>
