<?xml version="1.0" standalone="no"?>
<svg width="567.429" height="384.969" viewBox="0 0 567.429 384.969" xmlns="http://www.w3.org/2000/svg" shape-rendering="crispEdges">
<title>
img/week1/plane_hist/Am_005.svg
</title>
<desc>
Creator: ROOT Version 6.22/09
CreationDate: Fri Jul  2 19:46:28 2021</desc>
<defs>
</defs>
<rect x="0.5" y="0" width="566.929" height="384.469" fill="white"/>
<rect x="57.1929" y="38.4469" width="453.543" height="307.575" fill="white"/>
<rect x="57.1929" y="38.4469" width="453.543" height="307.575" fill="none" stroke="black"/>
<path d="M57.1929,346.022h 52.7067v -0.960423h 0.442913v 0.960423h 0.442913v -0.960423h 0.442913v -0.960423h 0.885827v -2.88127h 0.442913v -0.960423h 0.442913v 3.84169h 0.442913v -3.84169h 0.442913v 2.88127h 0.442913v 1.92085h 0.442913v -2.88127h
 0.442913v 2.88127h 2.21457v -0.960423h 0.442913v -0.960423h 0.442913v 1.92085h 0.442913v 0.960423h 0.442913v -2.88127h 0.442913v 1.92085h 0.442913v -0.960423h 1.32874v -0.960423h 0.442913v 0.960423h 0.442913v -0.960423h 0.442913v 0.960423h 0.442913v
 0.960423h 0.442913v 0.960423h 0.442913v -0.960423h 0.442913v 0.960423h 0.442913v -0.960423h 0.442913v -0.960423h 0.442913v -0.960423h 0.442913v 0.960423h 0.442913v 1.92085h 0.442913v -1.92085h 0.442913v 0.960423h 0.442913v -1.92085h 0.442913v
 2.88127h 0.442913v -0.960423h 0.442913v -2.88127h 0.442913v 3.84169h 0.442913v -1.92085h 0.442913v -1.92085h 0.442913v 1.92085h 0.442913v -0.960423h 0.442913v 1.92085h 0.442913v 0.960423h 0.442913v -1.92085h 0.442913v 0.960423h 0.442913v -0.960423h
 0.442913v -0.960423h 0.442913v 0.960423h 0.885827v 0.960423h 0.442913v -1.92085h 0.442913v 0.960423h 0.442913v -0.960423h 0.442913v -0.960423h 0.442913v 1.92085h 0.885827v -1.92085h 0.442913v 3.84169h 0.442913v -2.88127h 1.32874v 2.88127h 0.442913v
 -3.84169h 0.442913v 2.88127h 0.885827v -0.960423h 1.32874v -1.92085h 0.442913v 2.88127h 0.442913v -0.960423h 0.442913v -1.92085h 0.442913v 3.84169h 0.442913v -0.960423h 0.442913v -2.88127h 0.442913v 3.84169h 0.442913v -1.92085h 0.442913v 0.960423h
 0.442913v -0.960423h 0.442913v 0.960423h 0.442913v -2.88127h 0.442913v -0.960423h 1.32874v 3.84169h 0.442913v -0.960423h 0.442913v -3.84169h 0.442913v 3.84169h 0.442913v -3.84169h 0.442913v 4.80211h 0.442913v -1.92085h 0.442913v 0.960423h 0.442913v
 -0.960423h 0.442913v -0.960423h 0.442913v 0.960423h 0.442913v 2.88127h 0.442913v -0.960423h 0.442913v -1.92085h 0.442913v 1.92085h 0.442913v -1.92085h 0.442913v 0.960423h 0.885827v -4.80211h 0.442913v 5.76254h 0.442913v -0.960423h 0.442913v
 0.960423h 0.442913v -0.960423h 0.442913v -1.92085h 0.442913v 0.960423h 0.442913v -1.92085h 0.442913v 0.960423h 0.442913v 0.960423h 0.442913v 1.92085h 0.442913v -1.92085h 0.442913v 0.960423h 0.442913v -2.88127h 0.442913v 1.92085h 0.442913v 0.960423h
 0.885827v -1.92085h 0.442913v 2.88127h 0.442913v -0.960423h 0.885827v -1.92085h 0.885827v -0.960423h 0.442913v 3.84169h 0.442913v -0.960423h 0.885827v -4.80211h 0.442913v 2.88127h 0.442913v -2.88127h 0.442913v 1.92085h 0.442913v 0.960423h 0.885827v
 -0.960423h 0.442913v 4.80211h 0.442913v -4.80211h 1.32874v 2.88127h 0.442913v -1.92085h 0.442913v 1.92085h 0.442913v -6.72296h 0.442913v 7.68338h 0.442913v -4.80211h 0.442913v 2.88127h 0.442913v 1.92085h 0.442913v -3.84169h 0.885827v 0.960423h
 0.442913v -1.92085h 0.442913v -0.960423h 0.442913v 4.80211h 0.442913v -2.88127h 0.442913v 0.960423h 0.442913v -5.76254h 0.885827v 2.88127h 0.885827v 0.960423h 0.442913v -0.960423h 0.885827v 0.960423h 0.442913v 0.960423h 0.442913v -0.960423h
 0.885827v -0.960423h 0.442913v -0.960423h 0.442913v 0.960423h 0.442913v -1.92085h 0.442913v -0.960423h 0.442913v -0.960423h 0.442913v 0.960423h 0.442913v 7.68338h 0.442913v -7.68338h 0.442913v 4.80211h 0.442913v -3.84169h 0.442913v -0.960423h
 0.442913v -4.80211h 0.442913v 5.76254h 0.442913v -1.92085h 0.442913v 3.84169h 0.442913v -1.92085h 0.442913v 3.84169h 0.442913v -8.6438h 0.442913v -1.92085h 0.442913v -1.92085h 0.442913v 8.6438h 0.442913v -2.88127h 0.885827v 0.960423h 0.885827v
 -4.80211h 0.442913v 2.88127h 1.32874v -0.960423h 0.442913v 0.960423h 0.442913v -5.76254h 0.442913v 3.84169h 0.442913v -1.92085h 0.442913v 5.76254h 0.442913v -1.92085h 0.442913v -17.2876h 0.442913v 15.3668h 0.442913v -6.72296h 0.885827v 2.88127h
 0.442913v -3.84169h 0.442913v -2.88127h 0.442913v 1.92085h 0.442913v 1.92085h 0.442913v 8.6438h 0.442913v -5.76254h 0.442913v -7.68338h 0.442913v 3.84169h 0.442913v 3.84169h 0.442913v -1.92085h 0.442913v -11.5251h 0.442913v -5.76254h 0.442913v
 12.4855h 0.442913v 0.960423h 0.442913v -18.248h 0.442913v 18.248h 0.442913v -1.92085h 0.442913v 4.80211h 0.442913v -9.60423h 0.442913v -0.960423h 0.442913v 2.88127h 0.442913v -2.88127h 0.442913v -1.92085h 0.442913v 9.60423h 0.442913v -8.6438h
 0.442913v -1.92085h 0.442913v 0.960423h 0.442913v -7.68338h 0.442913v 8.6438h 0.442913v -2.88127h 0.442913v -0.960423h 0.885827v 8.6438h 0.442913v -7.68338h 0.442913v -2.88127h 0.442913v 2.88127h 0.442913v 4.80211h 0.442913v -8.6438h 0.442913v
 5.76254h 0.442913v 2.88127h 0.442913v -8.6438h 0.442913v 7.68338h 0.442913v -1.92085h 0.442913v 0.960423h 0.442913v 5.76254h 0.442913v -7.68338h 0.442913v 4.80211h 0.442913v -8.6438h 0.442913v 4.80211h 0.442913v -1.92085h 0.442913v 5.76254h
 0.442913v -7.68338h 0.442913v 4.80211h 0.442913v -6.72296h 0.442913v 1.92085h 0.442913v 2.88127h 0.442913v 4.80211h 0.442913v -6.72296h 0.442913v 10.5646h 0.442913v -9.60423h 0.442913v -2.88127h 0.442913v 9.60423h 0.442913v -10.5646h 0.442913v
 8.6438h 0.442913v 1.92085h 0.442913v 13.4459h 0.442913v -15.3668h 0.442913v 5.76254h 0.442913v -5.76254h 0.442913v -1.92085h 0.442913v 0.960423h 0.885827v -4.80211h 0.442913v 19.2085h 0.442913v -18.248h 0.442913v 6.72296h 0.442913v -3.84169h
 0.442913v 2.88127h 0.442913v -2.88127h 0.442913v 5.76254h 0.442913v 10.5646h 0.442913v -12.4855h 0.442913v -2.88127h 0.442913v 6.72296h 0.442913v -12.4855h 0.442913v 3.84169h 0.442913v 11.5251h 0.442913v -10.5646h 0.442913v 2.88127h 0.442913v
 2.88127h 0.442913v -8.6438h 0.885827v 5.76254h 0.442913v -2.88127h 0.442913v -0.960423h 0.442913v 15.3668h 0.442913v -5.76254h 0.442913v 1.92085h 0.442913v -11.5251h 0.442913v 16.3272h 0.442913v -5.76254h 0.442913v -9.60423h 0.442913v -2.88127h
 0.442913v 9.60423h 0.442913v -4.80211h 0.442913v -0.960423h 0.442913v 0.960423h 0.442913v 11.5251h 0.442913v -9.60423h 0.442913v 0.960423h 0.442913v 3.84169h 0.442913v 3.84169h 0.442913v 4.80211h 0.442913v -12.4855h 0.442913v 11.5251h 0.442913v
 0.960423h 0.442913v -9.60423h 0.442913v 2.88127h 0.442913v 2.88127h 0.442913v -12.4855h 0.442913v 14.4063h 0.442913v -5.76254h 0.442913v -1.92085h 0.442913v -2.88127h 0.442913v 11.5251h 0.885827v -6.72296h 0.442913v 7.68338h 0.442913v -3.84169h
 0.442913v -5.76254h 0.442913v 7.68338h 0.442913v -0.960423h 0.442913v -1.92085h 0.885827v 1.92085h 0.442913v 4.80211h 0.442913v -8.6438h 0.442913v 7.68338h 0.442913v -5.76254h 0.442913v 11.5251h 0.442913v -6.72296h 0.442913v -8.6438h 0.442913v
 11.5251h 0.442913v -3.84169h 0.442913v 4.80211h 0.442913v -7.68338h 0.442913v -0.960423h 0.442913v 7.68338h 0.442913v 0.960423h 0.442913v -4.80211h 0.442913v 3.84169h 0.442913v 1.92085h 0.442913v -1.92085h 0.885827v -2.88127h 0.442913v 4.80211h
 0.442913v -1.92085h 0.442913v -0.960423h 0.442913v 0.960423h 0.442913v -6.72296h 0.442913v 0.960423h 0.442913v 1.92085h 0.885827v 4.80211h 0.442913v -3.84169h 0.442913v 2.88127h 0.442913v 2.88127h 0.442913v -6.72296h 0.442913v 2.88127h 0.442913v
 2.88127h 0.442913v -3.84169h 0.442913v 2.88127h 0.442913v -0.960423h 0.442913v -0.960423h 0.442913v -0.960423h 0.442913v 0.960423h 0.442913v -2.88127h 0.442913v 4.80211h 0.442913v 0.960423h 0.442913v -2.88127h 0.442913v -4.80211h 0.442913v 11.5251h
 0.442913v -7.68338h 0.442913v -1.92085h 0.442913v 1.92085h 0.885827v 1.92085h 0.442913v 1.92085h 0.442913v -2.88127h 0.442913v -2.88127h 0.442913v -0.960423h 0.442913v 9.60423h 0.885827v -5.76254h 0.442913v -1.92085h 0.442913v 0.960423h 0.442913v
 0.960423h 0.442913v 0.960423h 0.442913v -0.960423h 0.442913v -1.92085h 0.442913v -2.88127h 0.442913v 8.6438h 0.442913v -5.76254h 0.442913v 1.92085h 0.442913v 9.60423h 0.442913v -7.68338h 0.442913v 1.92085h 0.442913v -9.60423h 0.442913v 8.6438h
 0.442913v 0.960423h 0.442913v -9.60423h 0.442913v 10.5646h 0.442913v -2.88127h 0.442913v 3.84169h 0.442913v -4.80211h 0.442913v -0.960423h 0.442913v -1.92085h 0.442913v 6.72296h 0.885827v -4.80211h 0.442913v 1.92085h 0.442913v -3.84169h 0.442913v
 4.80211h 0.442913v 0.960423h 0.442913v 4.80211h 0.442913v -2.88127h 0.442913v -1.92085h 0.442913v 1.92085h 0.442913v -2.88127h 0.442913v -1.92085h 0.442913v 2.88127h 0.442913v -2.88127h 0.442913v 0.960423h 0.442913v 5.76254h 0.442913v 2.88127h
 0.442913v -3.84169h 0.442913v 2.88127h 0.442913v -2.88127h 0.442913v -1.92085h 0.442913v 2.88127h 0.442913v 2.88127h 0.442913v 0.960423h 0.442913v -5.76254h 0.442913v 1.92085h 0.442913v 0.960423h 0.442913v 3.84169h 0.442913v -2.88127h 0.885827v
 -2.88127h 0.442913v 2.88127h 0.442913v -0.960423h 0.442913v 2.88127h 0.442913v -1.92085h 0.442913v -2.88127h 0.442913v 3.84169h 0.442913v -0.960423h 0.442913v 1.92085h 0.885827v -1.92085h 0.442913v 0.960423h 0.442913v 0.960423h 0.442913v -2.88127h
 0.442913v 1.92085h 0.442913v 0.960423h 0.442913v 1.92085h 1.32874v -1.92085h 0.442913v -3.84169h 0.442913v 2.88127h 0.442913v 1.92085h 0.442913v 0.960423h 0.885827v -0.960423h 1.77165v -2.88127h 0.442913v 1.92085h 0.442913v 0.960423h 0.442913v
 -2.88127h 0.442913v 0.960423h 0.442913v 2.88127h 0.442913v -0.960423h 0.442913v -0.960423h 0.442913v 1.92085h 0.885827v -2.88127h 0.442913v 1.92085h 0.442913v -2.88127h 0.442913v 2.88127h 0.442913v -0.960423h 0.442913v -0.960423h 0.442913v 2.88127h
 0.442913v -2.88127h 0.442913v 1.92085h 0.442913v -0.960423h 0.885827v 1.92085h 0.442913v -1.92085h 0.442913v -0.960423h 0.442913v 2.88127h 0.442913v -0.960423h 0.442913v -0.960423h 0.885827v 0.960423h 0.442913v -1.92085h 0.442913v 2.88127h 0.442913v
 -1.92085h 0.442913v 1.92085h 0.442913v -0.960423h 0.885827v 0.960423h 0.885827v -0.960423h 0.442913v -0.960423h 0.442913v 0.960423h 0.442913v -0.960423h 0.442913v 1.92085h 1.32874v -0.960423h 0.442913v 0.960423h 0.442913v -0.960423h 0.442913v
 0.960423h 0.442913v -1.92085h 0.442913v 1.92085h 0.442913v -0.960423h 0.442913v 0.960423h 0.442913v -0.960423h 0.885827v -0.960423h 0.442913v -0.960423h 0.442913v 1.92085h 0.442913v 0.960423h 0.442913v -0.960423h 0.442913v -0.960423h 0.885827v
 0.960423h 1.77165v -3.84169h 0.442913v 3.84169h 0.442913v -2.88127h 0.442913v -1.92085h 0.885827v 0.960423h 0.442913v 1.92085h 0.442913v -0.960423h 0.442913v -9.60423h 0.442913v 1.92085h 0.885827v -9.60423h 0.442913v -10.5646h 0.442913v -33.6148h
 0.442913v -44.1794h 0.442913v -67.2296h 0.442913v -67.2296h 0.442913v -36.4961h 0.442913v -12.4855h 0.442913v 44.1794h 0.442913v 59.5462h 0.442913v -18.248h 0.442913v 34.5752h 0.442913v -15.3668h 0.442913v 31.6939h 0.442913v 7.68338h 0.442913v
 -16.3272h 0.442913v 19.2085h 0.442913v -3.84169h 0.442913v 53.7837h 0.442913v 31.6939h 0.442913v 8.6438h 0.442913v 2.88127h 0.442913v 16.3272h 0.442913v 13.4459h 0.442913v 6.72296h 0.442913v -4.80211h 0.442913v 14.4063h 0.442913v -3.84169h 0.442913v
 7.68338h 0.442913v -1.92085h 0.442913v -0.960423h 0.442913v 2.88127h 0.442913v -3.84169h 0.442913v 3.84169h 0.442913v 2.88127h 0.442913v -0.960423h 0.442913v -3.84169h 0.442913v 3.84169h 0.442913v 0.960423h 0.442913v -0.960423h 1.77165v 0.960423h
 2.65748v -0.960423h 0.442913v 0.960423h 58.0217v -0.960423h 0.442913v 0.960423h 67.3228" fill="none" stroke="#000099"/>
<path d="M57.1929,346.022h 453.543" fill="none" stroke="black"/>
<path d="M57.1929,336.795v 9.22726" fill="none" stroke="black"/>
<path d="M71.9567,341.409v 4.61363" fill="none" stroke="black"/>
<path d="M86.7205,341.409v 4.61363" fill="none" stroke="black"/>
<path d="M101.484,341.409v 4.61363" fill="none" stroke="black"/>
<path d="M116.248,341.409v 4.61363" fill="none" stroke="black"/>
<path d="M131.012,336.795v 9.22726" fill="none" stroke="black"/>
<path d="M145.776,341.409v 4.61363" fill="none" stroke="black"/>
<path d="M160.539,341.409v 4.61363" fill="none" stroke="black"/>
<path d="M175.303,341.409v 4.61363" fill="none" stroke="black"/>
<path d="M190.067,341.409v 4.61363" fill="none" stroke="black"/>
<path d="M204.831,336.795v 9.22726" fill="none" stroke="black"/>
<path d="M219.594,341.409v 4.61363" fill="none" stroke="black"/>
<path d="M234.358,341.409v 4.61363" fill="none" stroke="black"/>
<path d="M249.122,341.409v 4.61363" fill="none" stroke="black"/>
<path d="M263.886,341.409v 4.61363" fill="none" stroke="black"/>
<path d="M278.65,336.795v 9.22726" fill="none" stroke="black"/>
<path d="M293.413,341.409v 4.61363" fill="none" stroke="black"/>
<path d="M308.177,341.409v 4.61363" fill="none" stroke="black"/>
<path d="M322.941,341.409v 4.61363" fill="none" stroke="black"/>
<path d="M337.705,341.409v 4.61363" fill="none" stroke="black"/>
<path d="M352.469,336.795v 9.22726" fill="none" stroke="black"/>
<path d="M367.232,341.409v 4.61363" fill="none" stroke="black"/>
<path d="M381.996,341.409v 4.61363" fill="none" stroke="black"/>
<path d="M396.76,341.409v 4.61363" fill="none" stroke="black"/>
<path d="M411.524,341.409v 4.61363" fill="none" stroke="black"/>
<path d="M426.287,336.795v 9.22726" fill="none" stroke="black"/>
<path d="M441.051,341.409v 4.61363" fill="none" stroke="black"/>
<path d="M455.815,341.409v 4.61363" fill="none" stroke="black"/>
<path d="M470.579,341.409v 4.61363" fill="none" stroke="black"/>
<path d="M485.343,341.409v 4.61363" fill="none" stroke="black"/>
<path d="M500.106,336.795v 9.22726" fill="none" stroke="black"/>
<path d="M500.106,336.795v 9.22726" fill="none" stroke="black"/>
<text xml:space="preserve" x="53.446" y="358.403" fill="black" font-size="12.8453" font-family="Helvetica">0</text>
<text xml:space="preserve" x="120.239" y="358.403" fill="black" font-size="12.8453" font-family="Helvetica">500</text>
<text xml:space="preserve" x="190.291" y="358.403" fill="black" font-size="12.8453" font-family="Helvetica">1000</text>
<text xml:space="preserve" x="264.415" y="358.403" fill="black" font-size="12.8453" font-family="Helvetica">1500</text>
<text xml:space="preserve" x="338.54" y="358.403" fill="black" font-size="12.8453" font-family="Helvetica">2000</text>
<text xml:space="preserve" x="411.849" y="358.403" fill="black" font-size="12.8453" font-family="Helvetica">2500</text>
<text xml:space="preserve" x="485.974" y="358.403" fill="black" font-size="12.8453" font-family="Helvetica">3000</text>
<text xml:space="preserve" x="451.763" y="372.251" fill="black" font-size="12.8453" font-family="Helvetica">ADC value</text>
<path d="M57.1929,346.022v -307.575" fill="none" stroke="black"/>
<path d="M70.7992,346.022h -13.6063" fill="none" stroke="black"/>
<path d="M63.9961,336.418h -6.80315" fill="none" stroke="black"/>
<path d="M63.9961,326.814h -6.80315" fill="none" stroke="black"/>
<path d="M63.9961,317.21h -6.80315" fill="none" stroke="black"/>
<path d="M63.9961,307.605h -6.80315" fill="none" stroke="black"/>
<path d="M70.7992,298.001h -13.6063" fill="none" stroke="black"/>
<path d="M63.9961,288.397h -6.80315" fill="none" stroke="black"/>
<path d="M63.9961,278.793h -6.80315" fill="none" stroke="black"/>
<path d="M63.9961,269.188h -6.80315" fill="none" stroke="black"/>
<path d="M63.9961,259.584h -6.80315" fill="none" stroke="black"/>
<path d="M70.7992,249.98h -13.6063" fill="none" stroke="black"/>
<path d="M63.9961,240.376h -6.80315" fill="none" stroke="black"/>
<path d="M63.9961,230.772h -6.80315" fill="none" stroke="black"/>
<path d="M63.9961,221.167h -6.80315" fill="none" stroke="black"/>
<path d="M63.9961,211.563h -6.80315" fill="none" stroke="black"/>
<path d="M70.7992,201.959h -13.6063" fill="none" stroke="black"/>
<path d="M63.9961,192.355h -6.80315" fill="none" stroke="black"/>
<path d="M63.9961,182.75h -6.80315" fill="none" stroke="black"/>
<path d="M63.9961,173.146h -6.80315" fill="none" stroke="black"/>
<path d="M63.9961,163.542h -6.80315" fill="none" stroke="black"/>
<path d="M70.7992,153.938h -13.6063" fill="none" stroke="black"/>
<path d="M63.9961,144.334h -6.80315" fill="none" stroke="black"/>
<path d="M63.9961,134.729h -6.80315" fill="none" stroke="black"/>
<path d="M63.9961,125.125h -6.80315" fill="none" stroke="black"/>
<path d="M63.9961,115.521h -6.80315" fill="none" stroke="black"/>
<path d="M70.7992,105.917h -13.6063" fill="none" stroke="black"/>
<path d="M63.9961,96.3124h -6.80315" fill="none" stroke="black"/>
<path d="M63.9961,86.7082h -6.80315" fill="none" stroke="black"/>
<path d="M63.9961,77.1039h -6.80315" fill="none" stroke="black"/>
<path d="M63.9961,67.4997h -6.80315" fill="none" stroke="black"/>
<path d="M70.7992,57.8955h -13.6063" fill="none" stroke="black"/>
<path d="M70.7992,57.8955h -13.6063" fill="none" stroke="black"/>
<path d="M63.9961,48.2913h -6.80315" fill="none" stroke="black"/>
<path d="M63.9961,38.687h -6.80315" fill="none" stroke="black"/>
<text xml:space="preserve" x="47.7441" y="350.258" fill="black" font-size="12.8453" font-family="Helvetica">0</text>
<text xml:space="preserve" x="41.2277" y="302.199" fill="black" font-size="12.8453" font-family="Helvetica">50</text>
<text xml:space="preserve" x="33.8967" y="254.141" fill="black" font-size="12.8453" font-family="Helvetica">100</text>
<text xml:space="preserve" x="33.8967" y="206.082" fill="black" font-size="12.8453" font-family="Helvetica">150</text>
<text xml:space="preserve" x="33.8967" y="158.023" fill="black" font-size="12.8453" font-family="Helvetica">200</text>
<text xml:space="preserve" x="33.8967" y="110.779" fill="black" font-size="12.8453" font-family="Helvetica">250</text>
<text xml:space="preserve" x="33.8967" y="62.7206" fill="black" font-size="12.8453" font-family="Helvetica">300</text>
<g transform="rotate(-90,20.8638,70.0516)">
<text xml:space="preserve" x="20.8638" y="70.0516" fill="black" font-size="12.8453" font-family="Helvetica">Event</text>
</g>
<text xml:space="preserve" x="250.568" y="18.7347" fill="black" font-size="18.0316" font-family="Helvetica">Am_005</text>
<rect x="442.705" y="24.9905" width="113.386" height="61.5151" fill="white"/>
<path d="M442.705,86.5056h 113.386" fill="none" stroke="black"/>
<path d="M556.091,86.5056v -61.5151" fill="none" stroke="black"/>
<path d="M556.091,24.9905h -113.386" fill="none" stroke="black"/>
<path d="M442.705,24.9905v 61.5151" fill="none" stroke="black"/>
<text xml:space="preserve" x="474.57" y="36.6549" fill="black" font-size="13.4802" font-family="Helvetica">Am_005</text>
<path d="M442.705,40.3693h 113.386" fill="none" stroke="black"/>
<text xml:space="preserve" x="447.69" y="52.946" fill="black" font-size="12.7186" font-family="Helvetica">Entries </text>
<text xml:space="preserve" x="512.854" y="52.946" fill="black" font-size="12.7186" font-family="Helvetica"> 10216</text>
<text xml:space="preserve" x="447.69" y="67.6079" fill="black" font-size="12.7186" font-family="Helvetica">Mean  </text>
<text xml:space="preserve" x="512.854" y="67.6079" fill="black" font-size="12.7186" font-family="Helvetica">   1544</text>
<text xml:space="preserve" x="447.69" y="83.0844" fill="black" font-size="12.7186" font-family="Helvetica">Std Dev   </text>
<text xml:space="preserve" x="516.927" y="83.0844" fill="black" font-size="12.7186" font-family="Helvetica">    469</text>
<text xml:space="preserve" x="250.568" y="18.7347" fill="black" font-size="18.0316" font-family="Helvetica">Am_005</text></svg>
