<?xml version="1.0" standalone="no"?>
<svg width="567.429" height="384.969" viewBox="0 0 567.429 384.969" xmlns="http://www.w3.org/2000/svg" shape-rendering="crispEdges">
<title>
img/week1/plane_hist/Am_008.svg
</title>
<desc>
Creator: ROOT Version 6.22/09
CreationDate: Wed Jul 14 09:53:30 2021</desc>
<defs>
</defs>
<rect x="0.5" y="0" width="566.929" height="384.469" fill="white"/>
<rect x="57.1929" y="38.4469" width="453.543" height="307.575" fill="white"/>
<rect x="57.1929" y="38.4469" width="453.543" height="307.575" fill="none" stroke="black"/>
<path d="M57.1929,346.022h 68.6197v -2.13039h 0.653521v -19.1735h 0.653521v -4.26078h 0.653521v 11.7172h 0.653521v 2.13039h 0.653521v -2.13039h 1.30704v 2.13039h 0.653521v -2.13039h 0.653521v 2.13039h 0.653521v 2.13039h 0.653521v -1.0652h 0.653521v
 1.0652h 0.653521v 1.0652h 0.653521v -2.13039h 0.653521v 1.0652h 0.653521v -6.39118h 0.653521v 8.52157h 0.653521v -6.39118h 1.96056v 5.32598h 0.653521v 2.13039h 0.653521v -1.0652h 0.653521v -5.32598h 0.653521v -1.0652h 1.30704v 2.13039h 0.653521v
 1.0652h 0.653521v 1.0652h 0.653521v -3.19559h 0.653521v 5.32598h 0.653521v 1.0652h 0.653521v -2.13039h 0.653521v -3.19559h 0.653521v 1.0652h 0.653521v 1.0652h 0.653521v -2.13039h 0.653521v -2.13039h 0.653521v 2.13039h 0.653521v -2.13039h 0.653521v
 4.26078h 0.653521v 1.0652h 0.653521v -1.0652h 0.653521v 2.13039h 0.653521v -8.52157h 0.653521v -1.0652h 0.653521v 6.39118h 0.653521v 4.26078h 0.653521v -3.19559h 0.653521v 1.0652h 0.653521v -6.39118h 0.653521v 2.13039h 0.653521v 4.26078h 0.653521v
 -3.19559h 0.653521v 1.0652h 0.653521v 2.13039h 0.653521v -7.45637h 1.30704v 5.32598h 0.653521v 1.0652h 0.653521v 5.32598h 0.653521v -5.32598h 0.653521v -1.0652h 0.653521v -3.19559h 0.653521v 2.13039h 0.653521v 3.19559h 0.653521v -3.19559h 0.653521v
 -1.0652h 0.653521v 4.26078h 0.653521v -1.0652h 0.653521v -4.26078h 0.653521v 2.13039h 0.653521v 3.19559h 0.653521v 3.19559h 0.653521v -3.19559h 0.653521v -1.0652h 1.30704v -2.13039h 0.653521v 4.26078h 1.30704v -8.52157h 0.653521v 3.19559h 0.653521v
 9.58676h 0.653521v -6.39118h 0.653521v -4.26078h 0.653521v 6.39118h 0.653521v -4.26078h 0.653521v 2.13039h 0.653521v 2.13039h 0.653521v -2.13039h 0.653521v -10.652h 0.653521v 17.0431h 0.653521v -2.13039h 0.653521v -6.39118h 0.653521v -1.0652h
 0.653521v 4.26078h 0.653521v 1.0652h 0.653521v -4.26078h 0.653521v 5.32598h 0.653521v -6.39118h 0.653521v -1.0652h 0.653521v 3.19559h 0.653521v 7.45637h 0.653521v -8.52157h 1.30704v 4.26078h 0.653521v -7.45637h 0.653521v 9.58676h 0.653521v -12.7824h
 0.653521v 5.32598h 1.30704v -3.19559h 0.653521v 3.19559h 0.653521v -8.52157h 0.653521v 12.7824h 0.653521v -5.32598h 0.653521v 4.26078h 0.653521v -3.19559h 0.653521v 3.19559h 0.653521v -1.0652h 1.30704v -4.26078h 0.653521v 1.0652h 0.653521v 3.19559h
 0.653521v -6.39118h 0.653521v 4.26078h 0.653521v -1.0652h 0.653521v -8.52157h 0.653521v 9.58676h 0.653521v -7.45637h 0.653521v 4.26078h 0.653521v -3.19559h 0.653521v 4.26078h 0.653521v 3.19559h 0.653521v 4.26078h 0.653521v -10.652h 0.653521v
 -6.39118h 0.653521v 9.58676h 0.653521v -1.0652h 0.653521v -3.19559h 0.653521v 3.19559h 0.653521v -4.26078h 0.653521v -3.19559h 0.653521v -4.26078h 0.653521v 6.39118h 0.653521v -2.13039h 0.653521v 4.26078h 0.653521v 5.32598h 0.653521v -8.52157h
 0.653521v 2.13039h 0.653521v 2.13039h 0.653521v -5.32598h 0.653521v -6.39118h 0.653521v 4.26078h 0.653521v 4.26078h 0.653521v -5.32598h 0.653521v 11.7172h 0.653521v -2.13039h 0.653521v -1.0652h 0.653521v -8.52157h 0.653521v 10.652h 0.653521v
 -7.45637h 0.653521v 2.13039h 0.653521v -4.26078h 1.30704v -6.39118h 0.653521v 7.45637h 0.653521v -5.32598h 0.653521v 4.26078h 0.653521v 5.32598h 0.653521v 4.26078h 0.653521v -3.19559h 0.653521v -12.7824h 0.653521v -8.52157h 0.653521v 8.52157h
 1.30704v -7.45637h 0.653521v 2.13039h 0.653521v 1.0652h 0.653521v 11.7172h 0.653521v -18.1083h 0.653521v -6.39118h 0.653521v 8.52157h 0.653521v 12.7824h 0.653521v -10.652h 0.653521v 8.52157h 0.653521v 2.13039h 0.653521v -18.1083h 0.653521v 15.9779h
 0.653521v -2.13039h 0.653521v -5.32598h 0.653521v 1.0652h 0.653521v -7.45637h 1.30704v 2.13039h 0.653521v -9.58676h 0.653521v 1.0652h 0.653521v -1.0652h 0.653521v 19.1735h 0.653521v -14.9127h 0.653521v -5.32598h 1.30704v 3.19559h 0.653521v -4.26078h
 0.653521v -3.19559h 0.653521v -9.58676h 0.653521v -7.45637h 0.653521v 31.9559h 0.653521v -4.26078h 0.653521v -4.26078h 0.653521v -14.9127h 0.653521v -10.652h 0.653521v 18.1083h 0.653521v 4.26078h 0.653521v -12.7824h 0.653521v -13.8475h 0.653521v
 10.652h 0.653521v 15.9779h 1.30704v -23.4343h 0.653521v -2.13039h 0.653521v 33.0211h 0.653521v -29.8255h 0.653521v 23.4343h 0.653521v -8.52157h 0.653521v 7.45637h 0.653521v 7.45637h 0.653521v -28.7603h 0.653521v 9.58676h 0.653521v 8.52157h 0.653521v
 10.652h 0.653521v 4.26078h 0.653521v -22.3691h 0.653521v 17.0431h 0.653521v -15.9779h 0.653521v 10.652h 0.653521v -15.9779h 0.653521v 24.4995h 0.653521v -2.13039h 0.653521v 8.52157h 0.653521v -22.3691h 0.653521v 11.7172h 0.653521v -5.32598h
 0.653521v 26.6299h 0.653521v -2.13039h 0.653521v -21.3039h 0.653521v 8.52157h 0.653521v 6.39118h 0.653521v 5.32598h 0.653521v -2.13039h 0.653521v -14.9127h 0.653521v 15.9779h 0.653521v -18.1083h 0.653521v 10.652h 0.653521v 7.45637h 0.653521v
 -1.0652h 0.653521v -13.8475h 0.653521v 12.7824h 0.653521v -3.19559h 0.653521v 3.19559h 0.653521v -10.652h 0.653521v 5.32598h 0.653521v -2.13039h 0.653521v 6.39118h 0.653521v 6.39118h 0.653521v -8.52157h 0.653521v -3.19559h 0.653521v 13.8475h
 0.653521v -4.26078h 0.653521v 1.0652h 0.653521v 3.19559h 0.653521v -8.52157h 0.653521v 8.52157h 1.30704v -3.19559h 0.653521v 2.13039h 0.653521v -8.52157h 0.653521v 11.7172h 0.653521v -9.58676h 0.653521v 3.19559h 0.653521v -2.13039h 0.653521v 1.0652h
 0.653521v 10.652h 0.653521v -10.652h 0.653521v -10.652h 0.653521v 13.8475h 0.653521v -3.19559h 0.653521v 9.58676h 0.653521v -1.0652h 0.653521v -9.58676h 0.653521v 4.26078h 1.96056v -7.45637h 0.653521v 14.9127h 0.653521v 4.26078h 0.653521v -7.45637h
 0.653521v -6.39118h 0.653521v 5.32598h 0.653521v 1.0652h 0.653521v 2.13039h 0.653521v 1.0652h 0.653521v -9.58676h 0.653521v 2.13039h 0.653521v 14.9127h 0.653521v -12.7824h 0.653521v 9.58676h 0.653521v -5.32598h 0.653521v 2.13039h 0.653521v -4.26078h
 0.653521v 5.32598h 0.653521v -5.32598h 0.653521v -1.0652h 0.653521v 4.26078h 0.653521v 3.19559h 0.653521v 12.7824h 0.653521v -12.7824h 0.653521v -4.26078h 0.653521v 9.58676h 0.653521v -1.0652h 0.653521v -8.52157h 0.653521v 2.13039h 0.653521v
 6.39118h 0.653521v 5.32598h 0.653521v -3.19559h 0.653521v -2.13039h 0.653521v -2.13039h 0.653521v 3.19559h 0.653521v 2.13039h 1.30704v -3.19559h 1.96056v 7.45637h 0.653521v -9.58676h 0.653521v 11.7172h 0.653521v -4.26078h 0.653521v -6.39118h
 0.653521v 8.52157h 0.653521v -8.52157h 0.653521v 4.26078h 0.653521v -4.26078h 0.653521v 7.45637h 0.653521v 1.0652h 0.653521v -2.13039h 0.653521v 3.19559h 0.653521v -6.39118h 0.653521v 1.0652h 0.653521v -2.13039h 0.653521v 6.39118h 0.653521v 2.13039h
 0.653521v -4.26078h 0.653521v 1.0652h 0.653521v -5.32598h 0.653521v 6.39118h 0.653521v -10.652h 0.653521v 9.58676h 0.653521v 2.13039h 0.653521v -5.32598h 0.653521v -1.0652h 0.653521v 3.19559h 0.653521v -6.39118h 0.653521v 7.45637h 0.653521v
 -7.45637h 0.653521v 6.39118h 0.653521v -6.39118h 0.653521v 3.19559h 1.30704v 4.26078h 0.653521v 1.0652h 0.653521v -1.0652h 0.653521v -5.32598h 0.653521v -4.26078h 0.653521v 3.19559h 0.653521v -2.13039h 0.653521v 8.52157h 0.653521v -1.0652h 0.653521v
 -8.52157h 0.653521v 2.13039h 0.653521v 2.13039h 0.653521v 2.13039h 0.653521v -4.26078h 0.653521v 2.13039h 0.653521v 5.32598h 0.653521v -6.39118h 0.653521v 1.0652h 0.653521v 5.32598h 0.653521v 2.13039h 0.653521v 1.0652h 1.30704v -10.652h 0.653521v
 1.0652h 0.653521v 3.19559h 0.653521v -4.26078h 0.653521v 7.45637h 0.653521v -2.13039h 0.653521v -1.0652h 0.653521v 1.0652h 0.653521v -1.0652h 0.653521v 1.0652h 0.653521v 1.0652h 1.30704v 4.26078h 0.653521v -2.13039h 0.653521v -7.45637h 0.653521v
 10.652h 0.653521v -4.26078h 0.653521v 1.0652h 1.30704v 1.0652h 1.30704v 2.13039h 0.653521v -5.32598h 0.653521v 3.19559h 1.30704v 1.0652h 1.30704v -1.0652h 0.653521v 1.0652h 0.653521v -2.13039h 0.653521v 1.0652h 0.653521v 3.19559h 0.653521v -2.13039h
 1.30704v 2.13039h 0.653521v -1.0652h 0.653521v 1.0652h 0.653521v -3.19559h 0.653521v 1.0652h 1.30704v -1.0652h 0.653521v 1.0652h 0.653521v 1.0652h 2.61408v -1.0652h 1.30704v 2.13039h 0.653521v 1.0652h 1.30704v -3.19559h 1.30704v 2.13039h 0.653521v
 -1.0652h 0.653521v 1.0652h 2.61408v 1.0652h 0.653521v -2.13039h 0.653521v 2.13039h 0.653521v -2.13039h 0.653521v 1.0652h 1.30704v 1.0652h 1.96056v -1.0652h 1.96056v 1.0652h 0.653521v -1.0652h 0.653521v 1.0652h 0.653521v -3.19559h 0.653521v 3.19559h
 1.30704v -1.0652h 1.30704v -2.13039h 0.653521v 2.13039h 0.653521v -2.13039h 0.653521v 2.13039h 0.653521v -2.13039h 0.653521v 3.19559h 0.653521v -2.13039h 1.96056v 2.13039h 0.653521v -2.13039h 0.653521v 1.0652h 0.653521v -1.0652h 0.653521v 2.13039h
 0.653521v -2.13039h 0.653521v 1.0652h 0.653521v 1.0652h 1.30704v -3.19559h 0.653521v 1.0652h 0.653521v 1.0652h 1.30704v -3.19559h 0.653521v 4.26078h 0.653521v -1.0652h 1.96056v 1.0652h 0.653521v -1.0652h 0.653521v 1.0652h 0.653521v -3.19559h
 0.653521v 1.0652h 0.653521v -1.0652h 0.653521v 3.19559h 0.653521v -1.0652h 0.653521v -1.0652h 0.653521v -1.0652h 0.653521v 3.19559h 0.653521v -2.13039h 0.653521v 1.0652h 0.653521v 1.0652h 0.653521v -1.0652h 0.653521v -1.0652h 0.653521v 1.0652h
 0.653521v 1.0652h 0.653521v -1.0652h 0.653521v 1.0652h 1.30704v -1.0652h 0.653521v -1.0652h 0.653521v 1.0652h 1.30704v 1.0652h 0.653521v -2.13039h 0.653521v 1.0652h 0.653521v 1.0652h 0.653521v -2.13039h 0.653521v 2.13039h 0.653521v -2.13039h
 0.653521v 2.13039h 1.96056v -1.0652h 0.653521v 1.0652h 0.653521v -1.0652h 1.96056v 1.0652h 0.653521v -1.0652h 0.653521v 1.0652h 1.30704v -1.0652h 0.653521v 1.0652h 2.61408v -1.0652h 0.653521v 1.0652h 1.96056v -2.13039h 0.653521v 2.13039h 0.653521v
 -2.13039h 1.30704v 2.13039h 0.653521v -1.0652h 0.653521v 1.0652h 2.61408v -1.0652h 0.653521v 1.0652h 0.653521v -1.0652h 0.653521v 1.0652h 0.653521v -2.13039h 0.653521v 1.0652h 1.30704v 1.0652h 1.96056v -2.13039h 0.653521v -17.0431h 0.653521v
 -173.627h 0.653521v -100.128h 0.653521v 55.3902h 0.653521v 70.3029h 0.653521v 42.6078h 0.653521v 38.3471h 0.653521v -12.7824h 0.653521v 33.0211h 0.653521v -8.52157h 1.30704v -25.5647h 0.653521v 25.5647h 0.653521v 29.8255h 0.653521v 25.5647h
 0.653521v 11.7172h 0.653521v 3.19559h 0.653521v 1.0652h 0.653521" fill="none" stroke="#000099"/>
<path d="M57.1929,346.022h 453.543" fill="none" stroke="black"/>
<path d="M57.8464,336.795v 9.22726" fill="none" stroke="black"/>
<path d="M79.6305,341.409v 4.61363" fill="none" stroke="black"/>
<path d="M101.414,341.409v 4.61363" fill="none" stroke="black"/>
<path d="M123.199,341.409v 4.61363" fill="none" stroke="black"/>
<path d="M144.983,341.409v 4.61363" fill="none" stroke="black"/>
<path d="M166.767,336.795v 9.22726" fill="none" stroke="black"/>
<path d="M188.551,341.409v 4.61363" fill="none" stroke="black"/>
<path d="M210.335,341.409v 4.61363" fill="none" stroke="black"/>
<path d="M232.119,341.409v 4.61363" fill="none" stroke="black"/>
<path d="M253.903,341.409v 4.61363" fill="none" stroke="black"/>
<path d="M275.687,336.795v 9.22726" fill="none" stroke="black"/>
<path d="M297.471,341.409v 4.61363" fill="none" stroke="black"/>
<path d="M319.255,341.409v 4.61363" fill="none" stroke="black"/>
<path d="M341.039,341.409v 4.61363" fill="none" stroke="black"/>
<path d="M362.823,341.409v 4.61363" fill="none" stroke="black"/>
<path d="M384.607,336.795v 9.22726" fill="none" stroke="black"/>
<path d="M406.391,341.409v 4.61363" fill="none" stroke="black"/>
<path d="M428.175,341.409v 4.61363" fill="none" stroke="black"/>
<path d="M449.959,341.409v 4.61363" fill="none" stroke="black"/>
<path d="M471.743,341.409v 4.61363" fill="none" stroke="black"/>
<path d="M493.527,336.795v 9.22726" fill="none" stroke="black"/>
<path d="M57.8464,336.795v 9.22726" fill="none" stroke="black"/>
<path d="M493.527,336.795v 9.22726" fill="none" stroke="black"/>
<text xml:space="preserve" x="54.2605" y="358.403" fill="black" font-size="12.8453" font-family="Helvetica">0</text>
<text xml:space="preserve" x="156.08" y="358.403" fill="black" font-size="12.8453" font-family="Helvetica">500</text>
<text xml:space="preserve" x="261.157" y="358.403" fill="black" font-size="12.8453" font-family="Helvetica">1000</text>
<text xml:space="preserve" x="370.307" y="358.403" fill="black" font-size="12.8453" font-family="Helvetica">1500</text>
<text xml:space="preserve" x="479.457" y="358.403" fill="black" font-size="12.8453" font-family="Helvetica">2000</text>
<text xml:space="preserve" x="451.763" y="372.251" fill="black" font-size="12.8453" font-family="Helvetica">ADC value</text>
<path d="M57.1929,346.022v -307.575" fill="none" stroke="black"/>
<path d="M70.7992,346.022h -13.6063" fill="none" stroke="black"/>
<path d="M63.9961,335.37h -6.80315" fill="none" stroke="black"/>
<path d="M63.9961,324.718h -6.80315" fill="none" stroke="black"/>
<path d="M63.9961,314.066h -6.80315" fill="none" stroke="black"/>
<path d="M63.9961,303.414h -6.80315" fill="none" stroke="black"/>
<path d="M70.7992,292.762h -13.6063" fill="none" stroke="black"/>
<path d="M63.9961,282.111h -6.80315" fill="none" stroke="black"/>
<path d="M63.9961,271.459h -6.80315" fill="none" stroke="black"/>
<path d="M63.9961,260.807h -6.80315" fill="none" stroke="black"/>
<path d="M63.9961,250.155h -6.80315" fill="none" stroke="black"/>
<path d="M70.7992,239.503h -13.6063" fill="none" stroke="black"/>
<path d="M63.9961,228.851h -6.80315" fill="none" stroke="black"/>
<path d="M63.9961,218.199h -6.80315" fill="none" stroke="black"/>
<path d="M63.9961,207.547h -6.80315" fill="none" stroke="black"/>
<path d="M63.9961,196.895h -6.80315" fill="none" stroke="black"/>
<path d="M70.7992,186.243h -13.6063" fill="none" stroke="black"/>
<path d="M63.9961,175.591h -6.80315" fill="none" stroke="black"/>
<path d="M63.9961,164.939h -6.80315" fill="none" stroke="black"/>
<path d="M63.9961,154.287h -6.80315" fill="none" stroke="black"/>
<path d="M63.9961,143.635h -6.80315" fill="none" stroke="black"/>
<path d="M70.7992,132.983h -13.6063" fill="none" stroke="black"/>
<path d="M63.9961,122.331h -6.80315" fill="none" stroke="black"/>
<path d="M63.9961,111.679h -6.80315" fill="none" stroke="black"/>
<path d="M63.9961,101.027h -6.80315" fill="none" stroke="black"/>
<path d="M63.9961,90.3752h -6.80315" fill="none" stroke="black"/>
<path d="M70.7992,79.7233h -13.6063" fill="none" stroke="black"/>
<path d="M70.7992,79.7233h -13.6063" fill="none" stroke="black"/>
<path d="M63.9961,69.0713h -6.80315" fill="none" stroke="black"/>
<path d="M63.9961,58.4193h -6.80315" fill="none" stroke="black"/>
<path d="M63.9961,47.7674h -6.80315" fill="none" stroke="black"/>
<text xml:space="preserve" x="47.7441" y="350.258" fill="black" font-size="12.8453" font-family="Helvetica">0</text>
<text xml:space="preserve" x="41.2277" y="297.312" fill="black" font-size="12.8453" font-family="Helvetica">50</text>
<text xml:space="preserve" x="33.8967" y="244.366" fill="black" font-size="12.8453" font-family="Helvetica">100</text>
<text xml:space="preserve" x="33.8967" y="190.605" fill="black" font-size="12.8453" font-family="Helvetica">150</text>
<text xml:space="preserve" x="33.8967" y="137.66" fill="black" font-size="12.8453" font-family="Helvetica">200</text>
<text xml:space="preserve" x="33.8967" y="83.899" fill="black" font-size="12.8453" font-family="Helvetica">250</text>
<g transform="rotate(-90,20.8638,70.0516)">
<text xml:space="preserve" x="20.8638" y="70.0516" fill="black" font-size="12.8453" font-family="Helvetica">Event</text>
</g>
<text xml:space="preserve" x="250.568" y="18.7347" fill="black" font-size="18.0316" font-family="Helvetica">Am_008</text>
<rect x="442.705" y="24.9905" width="113.386" height="61.5151" fill="white"/>
<path d="M442.705,86.5056h 113.386" fill="none" stroke="black"/>
<path d="M556.091,86.5056v -61.5151" fill="none" stroke="black"/>
<path d="M556.091,24.9905h -113.386" fill="none" stroke="black"/>
<path d="M442.705,24.9905v 61.5151" fill="none" stroke="black"/>
<text xml:space="preserve" x="474.57" y="36.6549" fill="black" font-size="13.4802" font-family="Helvetica">Am_008</text>
<path d="M442.705,40.3693h 113.386" fill="none" stroke="black"/>
<text xml:space="preserve" x="447.69" y="52.946" fill="black" font-size="12.7186" font-family="Helvetica">Entries </text>
<text xml:space="preserve" x="512.854" y="52.946" fill="black" font-size="12.7186" font-family="Helvetica"> 10177</text>
<text xml:space="preserve" x="447.69" y="67.6079" fill="black" font-size="12.7186" font-family="Helvetica">Mean  </text>
<text xml:space="preserve" x="512.854" y="67.6079" fill="black" font-size="12.7186" font-family="Helvetica">   1135</text>
<text xml:space="preserve" x="447.69" y="83.0844" fill="black" font-size="12.7186" font-family="Helvetica">Std Dev   </text>
<text xml:space="preserve" x="516.927" y="83.0844" fill="black" font-size="12.7186" font-family="Helvetica">    470</text>
<text xml:space="preserve" x="250.568" y="18.7347" fill="black" font-size="18.0316" font-family="Helvetica">Am_008</text></svg>
