<?xml version="1.0" standalone="no"?>
<svg width="567.429" height="384.68" viewBox="0 0 567.429 384.68" xmlns="http://www.w3.org/2000/svg" shape-rendering="crispEdges">
<title>
img/week1/plane_hist/Am_006.svg
</title>
<desc>
Creator: ROOT Version 6.22/09
CreationDate: Tue Jul 13 18:34:39 2021</desc>
<defs>
</defs>
<rect x="0.5" y="0" width="566.929" height="384.18" fill="white"/>
<rect x="57.1929" y="38.418" width="453.543" height="307.344" fill="white"/>
<rect x="57.1929" y="38.418" width="453.543" height="307.344" fill="none" stroke="black"/>
<path d="M57.1929,345.762h 12.9584v -151.458h 2.15973v -141.251h 2.15973v 131.702h 2.15973v 98.1182h 2.15973v 14.4873h 2.15973v 10.8654h 2.15973v -3.62181h 2.15973v -7.57288h 2.15973v 7.90214h 2.15973v 1.31702h 2.15973v 10.2069h 2.15973v -12.841h
 2.15973v -13.4995h 2.15973v -4.93884h 2.15973v -13.4995h 2.15973v 14.4873h 2.15973v -54.9857h 2.15973v -44.4495h 2.15973v -52.0224h 2.15973v 16.792h 2.15973v 26.3405h 2.15973v 14.158h 2.15973v 40.8277h 2.15973v 5.26809h 2.15973v 25.0234h 2.15973v
 13.4995h 2.15973v 20.7431h 2.15973v 7.57288h 2.15973v 9.87767h 2.15973v 10.8654h 2.15973v -15.475h 4.31946v 8.88991h 2.15973v 13.1702h 2.15973v 6.25586h 2.15973v 2.63405h 2.15973v 1.97553h 2.15973v 0.329256h 2.15973v 0.987767h 2.15973v -0.658512h
 2.15973v -2.30479h 2.15973v 0.987767h 2.15973v 0.329256h 2.15973v 1.31702h 2.15973v -0.329256h 2.15973v -0.658512h 2.15973v 1.31702h 2.15973v -1.97553h 2.15973v 1.64628h 2.15973v -1.31702h 2.15973v -0.329256h 2.15973v 1.64628h 2.15973v -1.97553h
 2.15973v 0.987767h 2.15973v -0.987767h 2.15973v -2.30479h 2.15973v 1.64628h 2.15973v 1.97553h 2.15973v -1.97553h 2.15973v -2.63405h 4.31946v -1.64628h 4.31946v 0.987767h 2.15973v 0.329256h 2.15973v -0.329256h 2.15973v -0.329256h 2.15973v 2.63405h
 2.15973v -1.97553h 4.31946v 0.329256h 2.15973v 0.987767h 2.15973v -6.25586h 2.15973v -11.1947h 2.15973v -18.7676h 2.15973v -9.54842h 2.15973v 16.4628h 2.15973v -5.9266h 2.15973v 13.1702h 2.15973v 13.1702h 2.15973v 8.88991h 2.15973v 3.62181h 2.15973v
 0.658512h 2.15973v 0.987767h 2.15973v 0.658512h 2.15973v -0.329256h 6.47919v 0.329256h 4.31946v -0.987767h 2.15973v 0.987767h 2.15973v -0.329256h 4.31946v 0.329256h 2.15973v -0.329256h 2.15973v 0.329256h 2.15973v -0.658512h 2.15973v 0.329256h
 6.47919v 0.329256h 4.31946v -0.329256h 2.15973v 0.329256h 2.15973v -0.329256h 2.15973v 0.329256h 41.0349v -0.329256h 2.15973v 0.329256h 4.31946v -0.329256h 2.15973v 0.329256h 43.1946v -0.329256h 2.15973v 0.329256h 114.466v -0.329256h 2.15973"
 fill="none" stroke="#000099"/>
<path d="M57.1929,345.762h 453.543" fill="none" stroke="black"/>
<path d="M59.3526,336.541v 9.22031" fill="none" stroke="black"/>
<path d="M73.7508,341.152v 4.61016" fill="none" stroke="black"/>
<path d="M88.149,341.152v 4.61016" fill="none" stroke="black"/>
<path d="M102.547,341.152v 4.61016" fill="none" stroke="black"/>
<path d="M116.945,341.152v 4.61016" fill="none" stroke="black"/>
<path d="M131.344,336.541v 9.22031" fill="none" stroke="black"/>
<path d="M145.742,341.152v 4.61016" fill="none" stroke="black"/>
<path d="M160.14,341.152v 4.61016" fill="none" stroke="black"/>
<path d="M174.538,341.152v 4.61016" fill="none" stroke="black"/>
<path d="M188.936,341.152v 4.61016" fill="none" stroke="black"/>
<path d="M203.335,336.541v 9.22031" fill="none" stroke="black"/>
<path d="M217.733,341.152v 4.61016" fill="none" stroke="black"/>
<path d="M232.131,341.152v 4.61016" fill="none" stroke="black"/>
<path d="M246.529,341.152v 4.61016" fill="none" stroke="black"/>
<path d="M260.927,341.152v 4.61016" fill="none" stroke="black"/>
<path d="M275.326,336.541v 9.22031" fill="none" stroke="black"/>
<path d="M289.724,341.152v 4.61016" fill="none" stroke="black"/>
<path d="M304.122,341.152v 4.61016" fill="none" stroke="black"/>
<path d="M318.52,341.152v 4.61016" fill="none" stroke="black"/>
<path d="M332.918,341.152v 4.61016" fill="none" stroke="black"/>
<path d="M347.317,336.541v 9.22031" fill="none" stroke="black"/>
<path d="M361.715,341.152v 4.61016" fill="none" stroke="black"/>
<path d="M376.113,341.152v 4.61016" fill="none" stroke="black"/>
<path d="M390.511,341.152v 4.61016" fill="none" stroke="black"/>
<path d="M404.909,341.152v 4.61016" fill="none" stroke="black"/>
<path d="M419.308,336.541v 9.22031" fill="none" stroke="black"/>
<path d="M433.706,341.152v 4.61016" fill="none" stroke="black"/>
<path d="M448.104,341.152v 4.61016" fill="none" stroke="black"/>
<path d="M462.502,341.152v 4.61016" fill="none" stroke="black"/>
<path d="M476.9,341.152v 4.61016" fill="none" stroke="black"/>
<path d="M491.299,336.541v 9.22031" fill="none" stroke="black"/>
<path d="M59.3526,336.541v 9.22031" fill="none" stroke="black"/>
<path d="M491.299,336.541v 9.22031" fill="none" stroke="black"/>
<path d="M505.697,341.152v 4.61016" fill="none" stroke="black"/>
<text xml:space="preserve" x="55.7309" y="358.189" fill="black" font-size="12.836" font-family="Helvetica">0</text>
<text xml:space="preserve" x="120.708" y="358.189" fill="black" font-size="12.836" font-family="Helvetica">100</text>
<text xml:space="preserve" x="192.184" y="358.189" fill="black" font-size="12.836" font-family="Helvetica">200</text>
<text xml:space="preserve" x="264.471" y="358.189" fill="black" font-size="12.836" font-family="Helvetica">300</text>
<text xml:space="preserve" x="335.947" y="358.189" fill="black" font-size="12.836" font-family="Helvetica">400</text>
<text xml:space="preserve" x="408.234" y="358.189" fill="black" font-size="12.836" font-family="Helvetica">500</text>
<text xml:space="preserve" x="480.522" y="358.189" fill="black" font-size="12.836" font-family="Helvetica">600</text>
<text xml:space="preserve" x="452.094" y="371.996" fill="black" font-size="12.836" font-family="Helvetica">ADC value</text>
<path d="M57.1929,345.762v -307.344" fill="none" stroke="black"/>
<path d="M70.7992,345.762h -13.6063" fill="none" stroke="black"/>
<path d="M63.9961,339.177h -6.80315" fill="none" stroke="black"/>
<path d="M63.9961,332.592h -6.80315" fill="none" stroke="black"/>
<path d="M63.9961,326.006h -6.80315" fill="none" stroke="black"/>
<path d="M63.9961,319.421h -6.80315" fill="none" stroke="black"/>
<path d="M70.7992,312.836h -13.6063" fill="none" stroke="black"/>
<path d="M63.9961,306.251h -6.80315" fill="none" stroke="black"/>
<path d="M63.9961,299.666h -6.80315" fill="none" stroke="black"/>
<path d="M63.9961,293.081h -6.80315" fill="none" stroke="black"/>
<path d="M63.9961,286.496h -6.80315" fill="none" stroke="black"/>
<path d="M70.7992,279.911h -13.6063" fill="none" stroke="black"/>
<path d="M63.9961,273.326h -6.80315" fill="none" stroke="black"/>
<path d="M63.9961,266.74h -6.80315" fill="none" stroke="black"/>
<path d="M63.9961,260.155h -6.80315" fill="none" stroke="black"/>
<path d="M63.9961,253.57h -6.80315" fill="none" stroke="black"/>
<path d="M70.7992,246.985h -13.6063" fill="none" stroke="black"/>
<path d="M63.9961,240.4h -6.80315" fill="none" stroke="black"/>
<path d="M63.9961,233.815h -6.80315" fill="none" stroke="black"/>
<path d="M63.9961,227.23h -6.80315" fill="none" stroke="black"/>
<path d="M63.9961,220.645h -6.80315" fill="none" stroke="black"/>
<path d="M70.7992,214.059h -13.6063" fill="none" stroke="black"/>
<path d="M63.9961,207.474h -6.80315" fill="none" stroke="black"/>
<path d="M63.9961,200.889h -6.80315" fill="none" stroke="black"/>
<path d="M63.9961,194.304h -6.80315" fill="none" stroke="black"/>
<path d="M63.9961,187.719h -6.80315" fill="none" stroke="black"/>
<path d="M70.7992,181.134h -13.6063" fill="none" stroke="black"/>
<path d="M63.9961,174.549h -6.80315" fill="none" stroke="black"/>
<path d="M63.9961,167.964h -6.80315" fill="none" stroke="black"/>
<path d="M63.9961,161.379h -6.80315" fill="none" stroke="black"/>
<path d="M63.9961,154.793h -6.80315" fill="none" stroke="black"/>
<path d="M70.7992,148.208h -13.6063" fill="none" stroke="black"/>
<path d="M63.9961,141.623h -6.80315" fill="none" stroke="black"/>
<path d="M63.9961,135.038h -6.80315" fill="none" stroke="black"/>
<path d="M63.9961,128.453h -6.80315" fill="none" stroke="black"/>
<path d="M63.9961,121.868h -6.80315" fill="none" stroke="black"/>
<path d="M70.7992,115.283h -13.6063" fill="none" stroke="black"/>
<path d="M63.9961,108.698h -6.80315" fill="none" stroke="black"/>
<path d="M63.9961,102.113h -6.80315" fill="none" stroke="black"/>
<path d="M63.9961,95.5274h -6.80315" fill="none" stroke="black"/>
<path d="M63.9961,88.9423h -6.80315" fill="none" stroke="black"/>
<path d="M70.7992,82.3572h -13.6063" fill="none" stroke="black"/>
<path d="M63.9961,75.772h -6.80315" fill="none" stroke="black"/>
<path d="M63.9961,69.1869h -6.80315" fill="none" stroke="black"/>
<path d="M63.9961,62.6018h -6.80315" fill="none" stroke="black"/>
<path d="M63.9961,56.0167h -6.80315" fill="none" stroke="black"/>
<path d="M70.7992,49.4316h -13.6063" fill="none" stroke="black"/>
<path d="M70.7992,49.4316h -13.6063" fill="none" stroke="black"/>
<path d="M63.9961,42.8465h -6.80315" fill="none" stroke="black"/>
<text xml:space="preserve" x="47.6087" y="350.067" fill="black" font-size="12.836" font-family="Helvetica">0</text>
<text xml:space="preserve" x="33.801" y="317.578" fill="black" font-size="12.836" font-family="Helvetica">100</text>
<text xml:space="preserve" x="33.801" y="284.277" fill="black" font-size="12.836" font-family="Helvetica">200</text>
<text xml:space="preserve" x="33.801" y="251.788" fill="black" font-size="12.836" font-family="Helvetica">300</text>
<text xml:space="preserve" x="33.801" y="218.487" fill="black" font-size="12.836" font-family="Helvetica">400</text>
<text xml:space="preserve" x="33.801" y="185.998" fill="black" font-size="12.836" font-family="Helvetica">500</text>
<text xml:space="preserve" x="33.801" y="152.697" fill="black" font-size="12.836" font-family="Helvetica">600</text>
<text xml:space="preserve" x="33.801" y="119.396" fill="black" font-size="12.836" font-family="Helvetica">700</text>
<text xml:space="preserve" x="33.801" y="86.9075" fill="black" font-size="12.836" font-family="Helvetica">800</text>
<text xml:space="preserve" x="33.801" y="53.6065" fill="black" font-size="12.836" font-family="Helvetica">900</text>
<g transform="rotate(-90,20.8055,69.8509)">
<text xml:space="preserve" x="20.8055" y="69.8509" fill="black" font-size="12.836" font-family="Helvetica">Event</text>
</g>
<text xml:space="preserve" x="250.664" y="18.681" fill="black" font-size="17.9813" font-family="Helvetica">Am_006</text>
<rect x="442.705" y="24.9717" width="113.386" height="61.4688" fill="white"/>
<path d="M442.705,86.4405h 113.386" fill="none" stroke="black"/>
<path d="M556.091,86.4405v -61.4688" fill="none" stroke="black"/>
<path d="M556.091,24.9717h -113.386" fill="none" stroke="black"/>
<path d="M442.705,24.9717v 61.4688" fill="none" stroke="black"/>
<text xml:space="preserve" x="474.836" y="36.5499" fill="black" font-size="13.4705" font-family="Helvetica">Am_006</text>
<path d="M442.705,40.3389h 113.386" fill="none" stroke="black"/>
<text xml:space="preserve" x="448.033" y="52.7943" fill="black" font-size="12.7411" font-family="Helvetica">Entries </text>
<text xml:space="preserve" x="513.01" y="52.7943" fill="black" font-size="12.7411" font-family="Helvetica"> 10045</text>
<text xml:space="preserve" x="448.033" y="68.2264" fill="black" font-size="12.7411" font-family="Helvetica">Mean  </text>
<text xml:space="preserve" x="513.01" y="68.2264" fill="black" font-size="12.7411" font-family="Helvetica">  81.04</text>
<text xml:space="preserve" x="448.033" y="82.8464" fill="black" font-size="12.7411" font-family="Helvetica">Std Dev   </text>
<text xml:space="preserve" x="515.447" y="82.8464" fill="black" font-size="12.7411" font-family="Helvetica">  62.41</text>
<text xml:space="preserve" x="250.664" y="18.681" fill="black" font-size="17.9813" font-family="Helvetica">Am_006</text></svg>
