<?xml version="1.0" standalone="no"?>
<svg width="567.429" height="384.969" viewBox="0 0 567.429 384.969" xmlns="http://www.w3.org/2000/svg" shape-rendering="crispEdges">
<title>
img/week1/plane_hist/Am_004.svg
</title>
<desc>
Creator: ROOT Version 6.22/09
CreationDate: Sun Jul 11 17:55:42 2021</desc>
<defs>
</defs>
<rect x="0.5" y="0" width="566.929" height="384.469" fill="white"/>
<rect x="57.1929" y="38.4469" width="453.543" height="307.575" fill="white"/>
<rect x="57.1929" y="38.4469" width="453.543" height="307.575" fill="none" stroke="black"/>
<path d="M57.1929,346.022h 18.512v -12.4651h 0.661142v -31.1626h 0.661142v -149.581h 0.661142v -12.4651h 0.661142v -56.0928h 0.661142v -31.1626h 0.661142v 62.3253h 0.661142v -24.9301h 0.661142v 49.8602h 0.661142v -74.7904h 0.661142v 6.23253h
 0.661142v 62.3253h 0.661142v -6.23253h 0.661142v -6.23253h 0.661142v 31.1626h 0.661142v -6.23253h 0.661142v 56.0928h 0.661142v -18.6976h 0.661142v 37.3952h 0.661142v -6.23253h 0.661142v 6.23253h 0.661142v 37.3952h 0.661142v 6.23253h 0.661142v
 -31.1626h 0.661142v 12.4651h 0.661142v 12.4651h 0.661142v 12.4651h 0.661142v 12.4651h 0.661142v -12.4651h 0.661142v 31.1626h 0.661142v -6.23253h 0.661142v -6.23253h 1.32228v 31.1626h 1.32228v 18.6976h 0.661142v -6.23253h 0.661142v -6.23253h
 0.661142v -6.23253h 0.661142v 18.6976h 0.661142v -6.23253h 0.661142v 12.4651h 0.661142v -6.23253h 1.32228v -12.4651h 0.661142v 18.6976h 1.98343v -6.23253h 0.661142v 6.23253h 1.32228v -6.23253h 0.661142v 6.23253h 3.96685v -6.23253h 0.661142v 6.23253h
 0.661142v -6.23253h 0.661142v 6.23253h 0.661142v -6.23253h 0.661142v 6.23253h 0.661142v -6.23253h 1.32228v 6.23253h 0.661142v -6.23253h 1.32228v 6.23253h 1.32228v -6.23253h 0.661142v 6.23253h 1.98343v -6.23253h 1.32228v 6.23253h 1.32228v -12.4651h
 0.661142v 12.4651h 1.32228v -6.23253h 0.661142v 6.23253h 2.64457v -6.23253h 0.661142v 6.23253h 0.661142v -18.6976h 0.661142v 12.4651h 0.661142v 6.23253h 1.32228v -6.23253h 0.661142v 6.23253h 3.96685v -6.23253h 1.32228v 6.23253h 1.32228v -6.23253h
 1.32228v 6.23253h 1.98343v -6.23253h 2.64457v 6.23253h 0.661142v -6.23253h 0.661142v 6.23253h 2.64457v -6.23253h 0.661142v 6.23253h 0.661142v -6.23253h 0.661142v 6.23253h 0.661142v -6.23253h 0.661142v 6.23253h 1.32228v -6.23253h 1.32228v 6.23253h
 0.661142v -6.23253h 0.661142v 6.23253h 0.661142v -6.23253h 1.32228v 6.23253h 3.96685v -6.23253h 0.661142v 6.23253h 3.96685v -6.23253h 0.661142v -6.23253h 0.661142v 12.4651h 2.64457v -12.4651h 0.661142v 12.4651h 0.661142v -6.23253h 0.661142v 6.23253h
 0.661142v -12.4651h 0.661142v 12.4651h 1.32228v -12.4651h 0.661142v 12.4651h 1.32228v -6.23253h 0.661142v 6.23253h 1.32228v -6.23253h 0.661142v 6.23253h 0.661142v -6.23253h 0.661142v 6.23253h 0.661142v -12.4651h 0.661142v 12.4651h 0.661142v
 -12.4651h 0.661142v 6.23253h 2.64457v 6.23253h 0.661142v -6.23253h 0.661142v 6.23253h 0.661142v -6.23253h 0.661142v -12.4651h 0.661142v 18.6976h 0.661142v -6.23253h 0.661142v 6.23253h 0.661142v -6.23253h 0.661142v 6.23253h 0.661142v -6.23253h
 1.32228v -6.23253h 0.661142v 6.23253h 0.661142v -24.9301h 0.661142v 31.1626h 0.661142v -6.23253h 0.661142v 6.23253h 0.661142v -12.4651h 1.32228v 6.23253h 0.661142v -6.23253h 0.661142v 6.23253h 0.661142v -12.4651h 0.661142v 12.4651h 0.661142v
 -18.6976h 0.661142v 18.6976h 0.661142v -6.23253h 0.661142v 6.23253h 0.661142v 6.23253h 0.661142v -18.6976h 0.661142v 12.4651h 1.32228v -24.9301h 0.661142v 31.1626h 0.661142v -6.23253h 0.661142v -6.23253h 0.661142v -6.23253h 0.661142v -12.4651h
 0.661142v 24.9301h 0.661142v 6.23253h 0.661142v -43.6277h 0.661142v 43.6277h 0.661142v -6.23253h 1.32228v -18.6976h 0.661142v 6.23253h 0.661142v -12.4651h 0.661142v 24.9301h 0.661142v -6.23253h 0.661142v 6.23253h 0.661142v -12.4651h 1.32228v
 18.6976h 0.661142v -12.4651h 1.32228v 12.4651h 0.661142v -12.4651h 0.661142v 12.4651h 0.661142v -12.4651h 0.661142v 6.23253h 0.661142v -6.23253h 1.32228v 12.4651h 0.661142v -24.9301h 0.661142v 18.6976h 1.32228v 6.23253h 0.661142v -6.23253h 0.661142v
 -6.23253h 0.661142v 12.4651h 0.661142v -12.4651h 0.661142v -6.23253h 0.661142v 18.6976h 1.32228v -6.23253h 0.661142v -6.23253h 0.661142v 6.23253h 1.32228v -12.4651h 0.661142v 12.4651h 0.661142v -6.23253h 0.661142v 12.4651h 1.32228v -31.1626h
 0.661142v 24.9301h 1.32228v -12.4651h 0.661142v 18.6976h 0.661142v -12.4651h 0.661142v 6.23253h 1.98343v -6.23253h 0.661142v 6.23253h 0.661142v -6.23253h 1.98343v 6.23253h 0.661142v -6.23253h 0.661142v 12.4651h 0.661142v -18.6976h 0.661142v 18.6976h
 0.661142v -6.23253h 1.32228v 6.23253h 0.661142v -6.23253h 0.661142v 6.23253h 1.98343v -18.6976h 0.661142v 6.23253h 0.661142v 12.4651h 0.661142v -18.6976h 0.661142v 18.6976h 1.32228v -6.23253h 3.96685v 6.23253h 0.661142v -6.23253h 1.32228v 6.23253h
 5.28913v -6.23253h 0.661142v 6.23253h 1.98343v -6.23253h 1.98343v 6.23253h 3.30571v -6.23253h 0.661142v 6.23253h 2.64457v -12.4651h 0.661142v 12.4651h 7.27256v -6.23253h 0.661142v 6.23253h 0.661142v -6.23253h 0.661142v 6.23253h 0.661142v -12.4651h
 0.661142v 6.23253h 0.661142v 6.23253h 0.661142v -6.23253h 0.661142v 6.23253h 4.62799v -6.23253h 0.661142v 6.23253h 9.25599v -6.23253h 0.661142v 6.23253h 1.32228v -6.23253h 0.661142v 6.23253h 17.1897v -6.23253h 0.661142v 6.23253h 6.61142v -6.23253h
 0.661142v 6.23253h 52.8913v -6.23253h 0.661142v 6.23253h 44.9576v -6.23253h 0.661142v 6.23253h 19.1731v -6.23253h 0.661142v 6.23253h 39.0074v -12.4651h 0.661142v -12.4651h 0.661142v -18.6976h 1.32228v -12.4651h 0.661142v 37.3952h 0.661142v -24.9301h
 0.661142v 37.3952h 1.32228" fill="none" stroke="#000099"/>
<path d="M57.1929,346.022h 453.543" fill="none" stroke="black"/>
<path d="M57.8541,336.795v 9.22726" fill="none" stroke="black"/>
<path d="M79.8921,341.409v 4.61363" fill="none" stroke="black"/>
<path d="M101.93,341.409v 4.61363" fill="none" stroke="black"/>
<path d="M123.968,341.409v 4.61363" fill="none" stroke="black"/>
<path d="M146.006,341.409v 4.61363" fill="none" stroke="black"/>
<path d="M168.044,336.795v 9.22726" fill="none" stroke="black"/>
<path d="M190.082,341.409v 4.61363" fill="none" stroke="black"/>
<path d="M212.12,341.409v 4.61363" fill="none" stroke="black"/>
<path d="M234.159,341.409v 4.61363" fill="none" stroke="black"/>
<path d="M256.197,341.409v 4.61363" fill="none" stroke="black"/>
<path d="M278.235,336.795v 9.22726" fill="none" stroke="black"/>
<path d="M300.273,341.409v 4.61363" fill="none" stroke="black"/>
<path d="M322.311,341.409v 4.61363" fill="none" stroke="black"/>
<path d="M344.349,341.409v 4.61363" fill="none" stroke="black"/>
<path d="M366.387,341.409v 4.61363" fill="none" stroke="black"/>
<path d="M388.425,336.795v 9.22726" fill="none" stroke="black"/>
<path d="M410.463,341.409v 4.61363" fill="none" stroke="black"/>
<path d="M432.501,341.409v 4.61363" fill="none" stroke="black"/>
<path d="M454.539,341.409v 4.61363" fill="none" stroke="black"/>
<path d="M476.577,341.409v 4.61363" fill="none" stroke="black"/>
<path d="M498.615,336.795v 9.22726" fill="none" stroke="black"/>
<path d="M57.8541,336.795v 9.22726" fill="none" stroke="black"/>
<path d="M498.615,336.795v 9.22726" fill="none" stroke="black"/>
<text xml:space="preserve" x="54.2605" y="358.403" fill="black" font-size="12.8453" font-family="Helvetica">0</text>
<text xml:space="preserve" x="156.894" y="358.403" fill="black" font-size="12.8453" font-family="Helvetica">500</text>
<text xml:space="preserve" x="263.601" y="358.403" fill="black" font-size="12.8453" font-family="Helvetica">1000</text>
<text xml:space="preserve" x="374.38" y="358.403" fill="black" font-size="12.8453" font-family="Helvetica">1500</text>
<text xml:space="preserve" x="484.345" y="358.403" fill="black" font-size="12.8453" font-family="Helvetica">2000</text>
<text xml:space="preserve" x="451.763" y="372.251" fill="black" font-size="12.8453" font-family="Helvetica">ADC value</text>
<path d="M57.1929,346.022v -307.575" fill="none" stroke="black"/>
<path d="M70.7992,346.022h -13.6063" fill="none" stroke="black"/>
<path d="M63.9961,339.79h -6.80315" fill="none" stroke="black"/>
<path d="M63.9961,333.557h -6.80315" fill="none" stroke="black"/>
<path d="M63.9961,327.325h -6.80315" fill="none" stroke="black"/>
<path d="M63.9961,321.092h -6.80315" fill="none" stroke="black"/>
<path d="M70.7992,314.86h -13.6063" fill="none" stroke="black"/>
<path d="M63.9961,308.627h -6.80315" fill="none" stroke="black"/>
<path d="M63.9961,302.395h -6.80315" fill="none" stroke="black"/>
<path d="M63.9961,296.162h -6.80315" fill="none" stroke="black"/>
<path d="M63.9961,289.929h -6.80315" fill="none" stroke="black"/>
<path d="M70.7992,283.697h -13.6063" fill="none" stroke="black"/>
<path d="M63.9961,277.464h -6.80315" fill="none" stroke="black"/>
<path d="M63.9961,271.232h -6.80315" fill="none" stroke="black"/>
<path d="M63.9961,264.999h -6.80315" fill="none" stroke="black"/>
<path d="M63.9961,258.767h -6.80315" fill="none" stroke="black"/>
<path d="M70.7992,252.534h -13.6063" fill="none" stroke="black"/>
<path d="M63.9961,246.302h -6.80315" fill="none" stroke="black"/>
<path d="M63.9961,240.069h -6.80315" fill="none" stroke="black"/>
<path d="M63.9961,233.837h -6.80315" fill="none" stroke="black"/>
<path d="M63.9961,227.604h -6.80315" fill="none" stroke="black"/>
<path d="M70.7992,221.372h -13.6063" fill="none" stroke="black"/>
<path d="M63.9961,215.139h -6.80315" fill="none" stroke="black"/>
<path d="M63.9961,208.907h -6.80315" fill="none" stroke="black"/>
<path d="M63.9961,202.674h -6.80315" fill="none" stroke="black"/>
<path d="M63.9961,196.442h -6.80315" fill="none" stroke="black"/>
<path d="M70.7992,190.209h -13.6063" fill="none" stroke="black"/>
<path d="M63.9961,183.976h -6.80315" fill="none" stroke="black"/>
<path d="M63.9961,177.744h -6.80315" fill="none" stroke="black"/>
<path d="M63.9961,171.511h -6.80315" fill="none" stroke="black"/>
<path d="M63.9961,165.279h -6.80315" fill="none" stroke="black"/>
<path d="M70.7992,159.046h -13.6063" fill="none" stroke="black"/>
<path d="M63.9961,152.814h -6.80315" fill="none" stroke="black"/>
<path d="M63.9961,146.581h -6.80315" fill="none" stroke="black"/>
<path d="M63.9961,140.349h -6.80315" fill="none" stroke="black"/>
<path d="M63.9961,134.116h -6.80315" fill="none" stroke="black"/>
<path d="M70.7992,127.884h -13.6063" fill="none" stroke="black"/>
<path d="M63.9961,121.651h -6.80315" fill="none" stroke="black"/>
<path d="M63.9961,115.419h -6.80315" fill="none" stroke="black"/>
<path d="M63.9961,109.186h -6.80315" fill="none" stroke="black"/>
<path d="M63.9961,102.954h -6.80315" fill="none" stroke="black"/>
<path d="M70.7992,96.7211h -13.6063" fill="none" stroke="black"/>
<path d="M63.9961,90.4885h -6.80315" fill="none" stroke="black"/>
<path d="M63.9961,84.256h -6.80315" fill="none" stroke="black"/>
<path d="M63.9961,78.0235h -6.80315" fill="none" stroke="black"/>
<path d="M63.9961,71.791h -6.80315" fill="none" stroke="black"/>
<path d="M70.7992,65.5584h -13.6063" fill="none" stroke="black"/>
<path d="M70.7992,65.5584h -13.6063" fill="none" stroke="black"/>
<path d="M63.9961,59.3259h -6.80315" fill="none" stroke="black"/>
<path d="M63.9961,53.0934h -6.80315" fill="none" stroke="black"/>
<path d="M63.9961,46.8608h -6.80315" fill="none" stroke="black"/>
<path d="M63.9961,40.6283h -6.80315" fill="none" stroke="black"/>
<text xml:space="preserve" x="47.7441" y="350.258" fill="black" font-size="12.8453" font-family="Helvetica">0</text>
<text xml:space="preserve" x="47.7441" y="319.305" fill="black" font-size="12.8453" font-family="Helvetica">5</text>
<text xml:space="preserve" x="41.2277" y="288.352" fill="black" font-size="12.8453" font-family="Helvetica">10</text>
<text xml:space="preserve" x="40.4131" y="257.399" fill="black" font-size="12.8453" font-family="Helvetica">15</text>
<text xml:space="preserve" x="41.2277" y="225.631" fill="black" font-size="12.8453" font-family="Helvetica">20</text>
<text xml:space="preserve" x="40.4131" y="194.678" fill="black" font-size="12.8453" font-family="Helvetica">25</text>
<text xml:space="preserve" x="41.2277" y="163.725" fill="black" font-size="12.8453" font-family="Helvetica">30</text>
<text xml:space="preserve" x="40.4131" y="131.958" fill="black" font-size="12.8453" font-family="Helvetica">35</text>
<text xml:space="preserve" x="41.2277" y="101.005" fill="black" font-size="12.8453" font-family="Helvetica">40</text>
<text xml:space="preserve" x="40.4131" y="70.0516" fill="black" font-size="12.8453" font-family="Helvetica">45</text>
<g transform="rotate(-90,28.1948,70.0516)">
<text xml:space="preserve" x="28.1948" y="70.0516" fill="black" font-size="12.8453" font-family="Helvetica">Event</text>
</g>
<text xml:space="preserve" x="250.568" y="18.7347" fill="black" font-size="18.0316" font-family="Helvetica">Am_004</text>
<rect x="442.705" y="24.9905" width="113.386" height="61.5151" fill="white"/>
<path d="M442.705,86.5056h 113.386" fill="none" stroke="black"/>
<path d="M556.091,86.5056v -61.5151" fill="none" stroke="black"/>
<path d="M556.091,24.9905h -113.386" fill="none" stroke="black"/>
<path d="M442.705,24.9905v 61.5151" fill="none" stroke="black"/>
<text xml:space="preserve" x="474.57" y="36.6549" fill="black" font-size="13.4802" font-family="Helvetica">Am_004</text>
<path d="M442.705,40.3693h 113.386" fill="none" stroke="black"/>
<text xml:space="preserve" x="447.69" y="52.946" fill="black" font-size="13.0654" font-family="Helvetica">Entries </text>
<text xml:space="preserve" x="517.741" y="52.946" fill="black" font-size="13.0654" font-family="Helvetica"> 1108</text>
<text xml:space="preserve" x="447.69" y="67.6079" fill="black" font-size="13.0654" font-family="Helvetica">Mean  </text>
<text xml:space="preserve" x="510.41" y="67.6079" fill="black" font-size="13.0654" font-family="Helvetica">  337.6</text>
<text xml:space="preserve" x="447.69" y="83.0844" fill="black" font-size="13.0654" font-family="Helvetica">Std Dev   </text>
<text xml:space="preserve" x="510.41" y="83.0844" fill="black" font-size="13.0654" font-family="Helvetica">  437.3</text>
<text xml:space="preserve" x="250.568" y="18.7347" fill="black" font-size="18.0316" font-family="Helvetica">Am_004</text></svg>
