<?xml version="1.0" standalone="no"?>
<svg width="567.429" height="384.969" viewBox="0 0 567.429 384.969" xmlns="http://www.w3.org/2000/svg" shape-rendering="crispEdges">
<title>
img/week1/plane_hist/Am_008.svg
</title>
<desc>
Creator: ROOT Version 6.22/09
CreationDate: Sun Jul 11 17:56:07 2021</desc>
<defs>
</defs>
<rect x="0.5" y="0" width="566.929" height="384.469" fill="white"/>
<rect x="57.1929" y="38.4469" width="453.543" height="307.575" fill="white"/>
<rect x="57.1929" y="38.4469" width="453.543" height="307.575" fill="none" stroke="black"/>
<path d="M57.1929,346.022h 68.6197v -2.1074h 0.653521v -18.9666h 0.653521v -4.2148h 0.653521v 11.5907h 0.653521v 2.1074h 0.653521v -2.1074h 0.653521v 1.0537h 0.653521v 1.0537h 0.653521v -2.1074h 0.653521v 2.1074h 0.653521v 2.1074h 0.653521v -1.0537h
 0.653521v 1.0537h 0.653521v 1.0537h 0.653521v -2.1074h 0.653521v 1.0537h 0.653521v -5.26851h 0.653521v 7.37591h 0.653521v -6.32221h 1.96056v 6.32221h 0.653521v 2.1074h 0.653521v -2.1074h 0.653521v -3.1611h 0.653521v -3.1611h 1.30704v 2.1074h
 0.653521v 1.0537h 0.653521v 1.0537h 0.653521v -2.1074h 0.653521v 4.2148h 0.653521v 2.1074h 0.653521v -3.1611h 0.653521v -3.1611h 0.653521v 1.0537h 0.653521v 1.0537h 0.653521v -2.1074h 0.653521v -2.1074h 0.653521v 2.1074h 0.653521v -1.0537h 0.653521v
 3.1611h 0.653521v 1.0537h 0.653521v -1.0537h 0.653521v 2.1074h 0.653521v -8.42961h 1.30704v 5.26851h 0.653521v 4.2148h 0.653521v -2.1074h 1.30704v -5.26851h 0.653521v 1.0537h 0.653521v 4.2148h 0.653521v -4.2148h 0.653521v 2.1074h 0.653521v 2.1074h
 0.653521v -6.32221h 1.30704v 3.1611h 0.653521v 3.1611h 0.653521v 4.2148h 0.653521v -5.26851h 0.653521v -1.0537h 0.653521v -2.1074h 0.653521v 1.0537h 0.653521v 4.2148h 0.653521v -4.2148h 0.653521v -1.0537h 0.653521v 5.26851h 0.653521v -2.1074h
 0.653521v -5.26851h 0.653521v 5.26851h 0.653521v 1.0537h 0.653521v 4.2148h 0.653521v -4.2148h 0.653521v -2.1074h 0.653521v 1.0537h 0.653521v -1.0537h 0.653521v 2.1074h 0.653521v 1.0537h 0.653521v -8.42961h 0.653521v 3.1611h 0.653521v 9.48331h
 0.653521v -6.32221h 0.653521v -3.1611h 0.653521v 5.26851h 0.653521v -4.2148h 0.653521v 1.0537h 0.653521v 4.2148h 0.653521v -2.1074h 0.653521v -11.5907h 0.653521v 16.8592h 0.653521v -2.1074h 0.653521v -6.32221h 0.653521v -1.0537h 0.653521v 4.2148h
 0.653521v -1.0537h 0.653521v -1.0537h 0.653521v 4.2148h 0.653521v -6.32221h 1.30704v 3.1611h 0.653521v 7.37591h 0.653521v -9.48331h 1.30704v 4.2148h 0.653521v -5.26851h 0.653521v 7.37591h 0.653521v -12.6444h 0.653521v 5.26851h 1.30704v -3.1611h
 0.653521v 3.1611h 0.653521v -8.42961h 0.653521v 12.6444h 0.653521v -5.26851h 0.653521v 6.32221h 0.653521v -4.2148h 0.653521v 3.1611h 0.653521v -2.1074h 0.653521v 1.0537h 0.653521v -4.2148h 0.653521v 1.0537h 0.653521v 3.1611h 0.653521v -7.37591h
 0.653521v 6.32221h 0.653521v -3.1611h 0.653521v -6.32221h 0.653521v 7.37591h 0.653521v -7.37591h 0.653521v 2.1074h 0.653521v -1.0537h 0.653521v 4.2148h 0.653521v 3.1611h 0.653521v 4.2148h 0.653521v -9.48331h 0.653521v -7.37591h 0.653521v 10.537h
 0.653521v -2.1074h 0.653521v -3.1611h 0.653521v 4.2148h 0.653521v -4.2148h 0.653521v -3.1611h 0.653521v -5.26851h 0.653521v 6.32221h 0.653521v -1.0537h 0.653521v 2.1074h 0.653521v 7.37591h 0.653521v -8.42961h 0.653521v 1.0537h 0.653521v 2.1074h
 0.653521v -3.1611h 0.653521v -6.32221h 0.653521v 4.2148h 0.653521v 2.1074h 0.653521v -5.26851h 0.653521v 12.6444h 0.653521v -3.1611h 0.653521v 1.0537h 0.653521v -10.537h 0.653521v 9.48331h 0.653521v -6.32221h 0.653521v 2.1074h 0.653521v -3.1611h
 0.653521v -1.0537h 0.653521v -5.26851h 0.653521v 5.26851h 0.653521v -3.1611h 0.653521v 1.0537h 0.653521v 7.37591h 0.653521v 5.26851h 0.653521v -4.2148h 0.653521v -10.537h 0.653521v -9.48331h 0.653521v 8.42961h 0.653521v -2.1074h 0.653521v -5.26851h
 1.30704v 2.1074h 0.653521v 12.6444h 0.653521v -18.9666h 0.653521v -6.32221h 0.653521v 11.5907h 0.653521v 11.5907h 0.653521v -13.6981h 0.653521v 9.48331h 0.653521v 2.1074h 0.653521v -17.9129h 0.653521v 15.8055h 0.653521v -1.0537h 0.653521v -6.32221h
 0.653521v 2.1074h 0.653521v -10.537h 0.653521v 2.1074h 0.653521v 3.1611h 0.653521v -9.48331h 1.96056v 18.9666h 0.653521v -13.6981h 0.653521v -5.26851h 0.653521v -2.1074h 0.653521v 3.1611h 0.653521v -4.2148h 0.653521v -5.26851h 0.653521v -8.42961h
 0.653521v -8.42961h 0.653521v 33.7184h 0.653521v -6.32221h 0.653521v -3.1611h 0.653521v -13.6981h 0.653521v -11.5907h 0.653521v 20.0203h 0.653521v 3.1611h 0.653521v -13.6981h 0.653521v -13.6981h 0.653521v 10.537h 0.653521v 17.9129h 0.653521v
 -1.0537h 0.653521v -22.1277h 0.653521v -5.26851h 0.653521v 35.8258h 0.653521v -30.5573h 0.653521v 21.074h 0.653521v -5.26851h 0.653521v 5.26851h 0.653521v 8.42961h 0.653521v -28.4499h 0.653521v 8.42961h 0.653521v 8.42961h 0.653521v 10.537h 0.653521v
 5.26851h 0.653521v -20.0203h 0.653521v 14.7518h 0.653521v -14.7518h 0.653521v 7.37591h 0.653521v -13.6981h 0.653521v 22.1277h 1.30704v 6.32221h 0.653521v -20.0203h 0.653521v 11.5907h 0.653521v -6.32221h 0.653521v 27.3962h 0.653521v -2.1074h
 0.653521v -21.074h 0.653521v 8.42961h 0.653521v 7.37591h 0.653521v 3.1611h 0.653521v -4.2148h 0.653521v -11.5907h 0.653521v 15.8055h 0.653521v -17.9129h 0.653521v 10.537h 0.653521v 6.32221h 0.653521v 2.1074h 0.653521v -16.8592h 0.653521v 12.6444h
 0.653521v -1.0537h 0.653521v 1.0537h 0.653521v -9.48331h 0.653521v 5.26851h 0.653521v -1.0537h 0.653521v 5.26851h 0.653521v 5.26851h 0.653521v -7.37591h 0.653521v -3.1611h 0.653521v 13.6981h 0.653521v -3.1611h 0.653521v -2.1074h 0.653521v 4.2148h
 0.653521v -6.32221h 0.653521v 6.32221h 0.653521v 1.0537h 0.653521v -3.1611h 0.653521v 1.0537h 0.653521v -7.37591h 0.653521v 11.5907h 0.653521v -9.48331h 0.653521v 3.1611h 0.653521v -2.1074h 0.653521v 1.0537h 0.653521v 9.48331h 0.653521v -9.48331h
 0.653521v -10.537h 0.653521v 13.6981h 0.653521v -3.1611h 0.653521v 8.42961h 0.653521v -1.0537h 0.653521v -9.48331h 0.653521v 5.26851h 0.653521v 1.0537h 0.653521v -2.1074h 0.653521v -6.32221h 0.653521v 14.7518h 0.653521v 4.2148h 0.653521v -6.32221h
 0.653521v -6.32221h 0.653521v 4.2148h 0.653521v 1.0537h 0.653521v 1.0537h 0.653521v 2.1074h 0.653521v -10.537h 0.653521v 3.1611h 0.653521v 14.7518h 0.653521v -12.6444h 0.653521v 9.48331h 0.653521v -5.26851h 0.653521v 2.1074h 0.653521v -4.2148h
 0.653521v 4.2148h 0.653521v -4.2148h 0.653521v -2.1074h 0.653521v 4.2148h 0.653521v 4.2148h 0.653521v 12.6444h 0.653521v -12.6444h 0.653521v -4.2148h 0.653521v 9.48331h 0.653521v -1.0537h 0.653521v -8.42961h 0.653521v 1.0537h 0.653521v 7.37591h
 0.653521v 5.26851h 0.653521v -3.1611h 0.653521v -2.1074h 0.653521v -2.1074h 0.653521v 3.1611h 0.653521v 1.0537h 0.653521v 2.1074h 0.653521v -4.2148h 1.96056v 7.37591h 0.653521v -9.48331h 0.653521v 11.5907h 0.653521v -4.2148h 0.653521v -6.32221h
 0.653521v 6.32221h 0.653521v -6.32221h 0.653521v 4.2148h 0.653521v -4.2148h 0.653521v 7.37591h 0.653521v 1.0537h 0.653521v -2.1074h 0.653521v 3.1611h 0.653521v -6.32221h 0.653521v 1.0537h 0.653521v -2.1074h 0.653521v 6.32221h 0.653521v 2.1074h
 0.653521v -4.2148h 0.653521v 1.0537h 0.653521v -5.26851h 0.653521v 6.32221h 0.653521v -11.5907h 0.653521v 9.48331h 0.653521v 3.1611h 0.653521v -5.26851h 0.653521v -1.0537h 0.653521v 3.1611h 0.653521v -6.32221h 0.653521v 7.37591h 0.653521v -7.37591h
 0.653521v 6.32221h 0.653521v -7.37591h 0.653521v 4.2148h 1.30704v 4.2148h 0.653521v 1.0537h 0.653521v -1.0537h 0.653521v -6.32221h 0.653521v -3.1611h 0.653521v 3.1611h 0.653521v -2.1074h 0.653521v 7.37591h 1.30704v -8.42961h 0.653521v 2.1074h
 0.653521v 2.1074h 0.653521v 2.1074h 0.653521v -4.2148h 0.653521v 2.1074h 0.653521v 5.26851h 0.653521v -6.32221h 0.653521v 1.0537h 0.653521v 5.26851h 0.653521v 2.1074h 0.653521v 1.0537h 0.653521v -1.0537h 0.653521v -9.48331h 0.653521v 2.1074h
 0.653521v 2.1074h 0.653521v -4.2148h 0.653521v 7.37591h 0.653521v -3.1611h 0.653521v -1.0537h 0.653521v 2.1074h 0.653521v -1.0537h 0.653521v 1.0537h 1.30704v 1.0537h 0.653521v 3.1611h 0.653521v -2.1074h 0.653521v -6.32221h 0.653521v 10.537h
 0.653521v -4.2148h 0.653521v 1.0537h 1.30704v 1.0537h 1.30704v 2.1074h 0.653521v -5.26851h 0.653521v 3.1611h 1.30704v 1.0537h 1.30704v -1.0537h 0.653521v 1.0537h 0.653521v -2.1074h 0.653521v 1.0537h 0.653521v 3.1611h 0.653521v -2.1074h 1.30704v
 2.1074h 0.653521v -1.0537h 0.653521v 1.0537h 0.653521v -3.1611h 0.653521v 2.1074h 0.653521v -1.0537h 0.653521v -1.0537h 0.653521v 1.0537h 0.653521v 1.0537h 2.61408v -1.0537h 1.30704v 2.1074h 0.653521v 1.0537h 1.30704v -3.1611h 1.30704v 2.1074h
 0.653521v -1.0537h 0.653521v 1.0537h 2.61408v 1.0537h 0.653521v -2.1074h 0.653521v 2.1074h 0.653521v -2.1074h 0.653521v 1.0537h 1.30704v 1.0537h 1.96056v -1.0537h 1.96056v 1.0537h 0.653521v -1.0537h 0.653521v 1.0537h 0.653521v -3.1611h 0.653521v
 3.1611h 1.30704v -1.0537h 1.30704v -2.1074h 0.653521v 2.1074h 0.653521v -2.1074h 0.653521v 2.1074h 0.653521v -2.1074h 0.653521v 3.1611h 0.653521v -3.1611h 0.653521v 1.0537h 1.30704v 2.1074h 0.653521v -2.1074h 0.653521v 1.0537h 0.653521v -1.0537h
 0.653521v 2.1074h 0.653521v -2.1074h 0.653521v 1.0537h 0.653521v 1.0537h 1.30704v -3.1611h 0.653521v 2.1074h 1.96056v -3.1611h 0.653521v 4.2148h 0.653521v -1.0537h 1.96056v 1.0537h 0.653521v -1.0537h 0.653521v 1.0537h 0.653521v -3.1611h 0.653521v
 1.0537h 0.653521v -1.0537h 0.653521v 3.1611h 0.653521v -1.0537h 0.653521v -1.0537h 0.653521v -1.0537h 0.653521v 3.1611h 0.653521v -2.1074h 0.653521v 1.0537h 0.653521v 1.0537h 0.653521v -1.0537h 0.653521v -1.0537h 0.653521v 1.0537h 0.653521v 1.0537h
 0.653521v -1.0537h 0.653521v 1.0537h 1.30704v -1.0537h 0.653521v -1.0537h 0.653521v 1.0537h 1.30704v 1.0537h 0.653521v -2.1074h 0.653521v 1.0537h 0.653521v 1.0537h 0.653521v -1.0537h 0.653521v 1.0537h 0.653521v -2.1074h 0.653521v 2.1074h 1.96056v
 -1.0537h 0.653521v 1.0537h 0.653521v -1.0537h 1.96056v 1.0537h 0.653521v -1.0537h 0.653521v 1.0537h 1.30704v -1.0537h 0.653521v 1.0537h 2.61408v -1.0537h 0.653521v 1.0537h 1.96056v -1.0537h 0.653521v 1.0537h 0.653521v -2.1074h 1.30704v 2.1074h
 0.653521v -1.0537h 0.653521v 1.0537h 2.61408v -1.0537h 0.653521v 1.0537h 0.653521v -1.0537h 0.653521v 1.0537h 0.653521v -2.1074h 0.653521v 1.0537h 0.653521v 1.0537h 2.61408v -1.0537h 0.653521v -18.9666h 0.653521v -170.7h 0.653521v -102.209h
 0.653521v 48.4702h 0.653521v 76.9202h 0.653521v 42.148h 0.653521v 37.9332h 0.653521v -11.5907h 0.653521v 30.5573h 0.653521v -4.2148h 0.653521v -3.1611h 0.653521v -24.2351h 0.653521v 26.3425h 0.653521v 29.5036h 0.653521v 25.2888h 0.653521v 11.5907h
 0.653521v 3.1611h 0.653521v 2.1074h 0.653521" fill="none" stroke="#000099"/>
<path d="M57.1929,346.022h 453.543" fill="none" stroke="black"/>
<path d="M57.8464,336.795v 9.22726" fill="none" stroke="black"/>
<path d="M79.6305,341.409v 4.61363" fill="none" stroke="black"/>
<path d="M101.414,341.409v 4.61363" fill="none" stroke="black"/>
<path d="M123.199,341.409v 4.61363" fill="none" stroke="black"/>
<path d="M144.983,341.409v 4.61363" fill="none" stroke="black"/>
<path d="M166.767,336.795v 9.22726" fill="none" stroke="black"/>
<path d="M188.551,341.409v 4.61363" fill="none" stroke="black"/>
<path d="M210.335,341.409v 4.61363" fill="none" stroke="black"/>
<path d="M232.119,341.409v 4.61363" fill="none" stroke="black"/>
<path d="M253.903,341.409v 4.61363" fill="none" stroke="black"/>
<path d="M275.687,336.795v 9.22726" fill="none" stroke="black"/>
<path d="M297.471,341.409v 4.61363" fill="none" stroke="black"/>
<path d="M319.255,341.409v 4.61363" fill="none" stroke="black"/>
<path d="M341.039,341.409v 4.61363" fill="none" stroke="black"/>
<path d="M362.823,341.409v 4.61363" fill="none" stroke="black"/>
<path d="M384.607,336.795v 9.22726" fill="none" stroke="black"/>
<path d="M406.391,341.409v 4.61363" fill="none" stroke="black"/>
<path d="M428.175,341.409v 4.61363" fill="none" stroke="black"/>
<path d="M449.959,341.409v 4.61363" fill="none" stroke="black"/>
<path d="M471.743,341.409v 4.61363" fill="none" stroke="black"/>
<path d="M493.527,336.795v 9.22726" fill="none" stroke="black"/>
<path d="M57.8464,336.795v 9.22726" fill="none" stroke="black"/>
<path d="M493.527,336.795v 9.22726" fill="none" stroke="black"/>
<text xml:space="preserve" x="54.2605" y="358.403" fill="black" font-size="12.8453" font-family="Helvetica">0</text>
<text xml:space="preserve" x="156.08" y="358.403" fill="black" font-size="12.8453" font-family="Helvetica">500</text>
<text xml:space="preserve" x="261.157" y="358.403" fill="black" font-size="12.8453" font-family="Helvetica">1000</text>
<text xml:space="preserve" x="370.307" y="358.403" fill="black" font-size="12.8453" font-family="Helvetica">1500</text>
<text xml:space="preserve" x="479.457" y="358.403" fill="black" font-size="12.8453" font-family="Helvetica">2000</text>
<text xml:space="preserve" x="451.763" y="372.251" fill="black" font-size="12.8453" font-family="Helvetica">ADC value</text>
<path d="M57.1929,346.022v -307.575" fill="none" stroke="black"/>
<path d="M70.7992,346.022h -13.6063" fill="none" stroke="black"/>
<path d="M63.9961,335.485h -6.80315" fill="none" stroke="black"/>
<path d="M63.9961,324.948h -6.80315" fill="none" stroke="black"/>
<path d="M63.9961,314.411h -6.80315" fill="none" stroke="black"/>
<path d="M63.9961,303.874h -6.80315" fill="none" stroke="black"/>
<path d="M70.7992,293.337h -13.6063" fill="none" stroke="black"/>
<path d="M63.9961,282.8h -6.80315" fill="none" stroke="black"/>
<path d="M63.9961,272.263h -6.80315" fill="none" stroke="black"/>
<path d="M63.9961,261.726h -6.80315" fill="none" stroke="black"/>
<path d="M63.9961,251.189h -6.80315" fill="none" stroke="black"/>
<path d="M70.7992,240.652h -13.6063" fill="none" stroke="black"/>
<path d="M63.9961,230.115h -6.80315" fill="none" stroke="black"/>
<path d="M63.9961,219.578h -6.80315" fill="none" stroke="black"/>
<path d="M63.9961,209.041h -6.80315" fill="none" stroke="black"/>
<path d="M63.9961,198.504h -6.80315" fill="none" stroke="black"/>
<path d="M70.7992,187.967h -13.6063" fill="none" stroke="black"/>
<path d="M63.9961,177.43h -6.80315" fill="none" stroke="black"/>
<path d="M63.9961,166.893h -6.80315" fill="none" stroke="black"/>
<path d="M63.9961,156.356h -6.80315" fill="none" stroke="black"/>
<path d="M63.9961,145.819h -6.80315" fill="none" stroke="black"/>
<path d="M70.7992,135.282h -13.6063" fill="none" stroke="black"/>
<path d="M63.9961,124.745h -6.80315" fill="none" stroke="black"/>
<path d="M63.9961,114.208h -6.80315" fill="none" stroke="black"/>
<path d="M63.9961,103.671h -6.80315" fill="none" stroke="black"/>
<path d="M63.9961,93.134h -6.80315" fill="none" stroke="black"/>
<path d="M70.7992,82.597h -13.6063" fill="none" stroke="black"/>
<path d="M70.7992,82.597h -13.6063" fill="none" stroke="black"/>
<path d="M63.9961,72.06h -6.80315" fill="none" stroke="black"/>
<path d="M63.9961,61.523h -6.80315" fill="none" stroke="black"/>
<path d="M63.9961,50.986h -6.80315" fill="none" stroke="black"/>
<path d="M63.9961,40.449h -6.80315" fill="none" stroke="black"/>
<text xml:space="preserve" x="47.7441" y="350.258" fill="black" font-size="12.8453" font-family="Helvetica">0</text>
<text xml:space="preserve" x="41.2277" y="298.127" fill="black" font-size="12.8453" font-family="Helvetica">50</text>
<text xml:space="preserve" x="33.8967" y="245.181" fill="black" font-size="12.8453" font-family="Helvetica">100</text>
<text xml:space="preserve" x="33.8967" y="192.235" fill="black" font-size="12.8453" font-family="Helvetica">150</text>
<text xml:space="preserve" x="33.8967" y="140.103" fill="black" font-size="12.8453" font-family="Helvetica">200</text>
<text xml:space="preserve" x="33.8967" y="87.1572" fill="black" font-size="12.8453" font-family="Helvetica">250</text>
<g transform="rotate(-90,20.8638,70.0516)">
<text xml:space="preserve" x="20.8638" y="70.0516" fill="black" font-size="12.8453" font-family="Helvetica">Event</text>
</g>
<text xml:space="preserve" x="250.568" y="18.7347" fill="black" font-size="18.0316" font-family="Helvetica">Am_008</text>
<rect x="442.705" y="24.9905" width="113.386" height="61.5151" fill="white"/>
<path d="M442.705,86.5056h 113.386" fill="none" stroke="black"/>
<path d="M556.091,86.5056v -61.5151" fill="none" stroke="black"/>
<path d="M556.091,24.9905h -113.386" fill="none" stroke="black"/>
<path d="M442.705,24.9905v 61.5151" fill="none" stroke="black"/>
<text xml:space="preserve" x="474.57" y="36.6549" fill="black" font-size="13.4802" font-family="Helvetica">Am_008</text>
<path d="M442.705,40.3693h 113.386" fill="none" stroke="black"/>
<text xml:space="preserve" x="447.69" y="52.946" fill="black" font-size="12.7186" font-family="Helvetica">Entries </text>
<text xml:space="preserve" x="512.854" y="52.946" fill="black" font-size="12.7186" font-family="Helvetica"> 10177</text>
<text xml:space="preserve" x="447.69" y="67.6079" fill="black" font-size="12.7186" font-family="Helvetica">Mean  </text>
<text xml:space="preserve" x="512.854" y="67.6079" fill="black" font-size="12.7186" font-family="Helvetica">   1140</text>
<text xml:space="preserve" x="447.69" y="83.0844" fill="black" font-size="12.7186" font-family="Helvetica">Std Dev   </text>
<text xml:space="preserve" x="512.854" y="83.0844" fill="black" font-size="12.7186" font-family="Helvetica">  470.3</text>
<text xml:space="preserve" x="250.568" y="18.7347" fill="black" font-size="18.0316" font-family="Helvetica">Am_008</text></svg>
