<?xml version="1.0" standalone="no"?>
<svg width="567.429" height="384.68" viewBox="0 0 567.429 384.68" xmlns="http://www.w3.org/2000/svg" shape-rendering="crispEdges">
<title>
img/week1/plane_hist/Am_003.svg
</title>
<desc>
Creator: ROOT Version 6.22/09
CreationDate: Tue Jul 13 18:34:26 2021</desc>
<defs>
</defs>
<rect x="0.5" y="0" width="566.929" height="384.18" fill="white"/>
<rect x="57.1929" y="38.418" width="453.543" height="307.344" fill="white"/>
<rect x="57.1929" y="38.418" width="453.543" height="307.344" fill="none" stroke="black"/>
<path d="M57.1929,345.762h 7.75288v -0.151349h 3.87644v -110.787h 3.87644v -163.759h 3.87644v -18.0105h 3.87644v 142.722h 3.87644v 106.701h 3.87644v 22.2483h 3.87644v 14.6808h 3.87644v 3.78372h 3.87644v 1.66484h 3.87644v -1.05944h 3.87644v 0.454046h
 3.87644v -0.151349h 3.87644v -0.151349h 3.87644v 0.302697h 3.87644v 0.302697h 3.87644v -1.21079h 3.87644v -0.756744h 3.87644v 0.151349h 7.75288v -0.302697h 3.87644v -1.05944h 3.87644v -0.454046h 3.87644v -3.48102h 3.87644v 3.63237h 3.87644v
 -1.21079h 3.87644v 1.21079h 3.87644v -0.302697h 3.87644v 1.81618h 3.87644v 1.66484h 3.87644v -0.908092h 3.87644v 1.36214h 3.87644v -0.756744h 3.87644v 0.756744h 3.87644v 0.151349h 3.87644v -0.605395h 3.87644v 1.05944h 3.87644v -0.454046h 3.87644v
 0.756744h 3.87644v -0.151349h 3.87644v -0.302697h 3.87644v -0.151349h 3.87644v 0.605395h 3.87644v 0.151349h 15.5058v -0.151349h 7.75288v 0.151349h 3.87644v -0.302697h 3.87644v 0.302697h 3.87644v -0.151349h 3.87644v 0.151349h 11.6293v -0.151349h
 3.87644v 0.151349h 3.87644v -0.151349h 3.87644v 0.151349h 3.87644v -0.302697h 3.87644v 0.302697h 7.75288v -0.454046h 3.87644v 0.151349h 3.87644v 0.151349h 3.87644v -0.302697h 3.87644v 0.302697h 3.87644v -0.302697h 3.87644v 0.151349h 3.87644v
 -0.151349h 3.87644v 0.151349h 3.87644v -0.151349h 3.87644v -0.151349h 3.87644v 0.302697h 3.87644v 0.151349h 3.87644v 0.151349h 3.87644v -0.908092h 3.87644v 0.605395h 3.87644v -0.605395h 3.87644v 0.454046h 3.87644v -0.151349h 3.87644v -0.908092h
 3.87644v 0.454046h 3.87644v -0.151349h 3.87644v -0.756744h 3.87644v 0.605395h 3.87644v 0.908092h 3.87644v 0.151349h 3.87644v 0.302697h 11.6293v -0.151349h 3.87644v 0.151349h 15.5058v -0.151349h 3.87644v 0.151349h 62.023v -0.151349h 3.87644"
 fill="none" stroke="#000099"/>
<path d="M57.1929,345.762h 453.543" fill="none" stroke="black"/>
<path d="M61.0694,336.541v 9.22031" fill="none" stroke="black"/>
<path d="M73.9908,341.152v 4.61016" fill="none" stroke="black"/>
<path d="M86.9123,341.152v 4.61016" fill="none" stroke="black"/>
<path d="M99.8337,341.152v 4.61016" fill="none" stroke="black"/>
<path d="M112.755,341.152v 4.61016" fill="none" stroke="black"/>
<path d="M125.677,336.541v 9.22031" fill="none" stroke="black"/>
<path d="M138.598,341.152v 4.61016" fill="none" stroke="black"/>
<path d="M151.52,341.152v 4.61016" fill="none" stroke="black"/>
<path d="M164.441,341.152v 4.61016" fill="none" stroke="black"/>
<path d="M177.363,341.152v 4.61016" fill="none" stroke="black"/>
<path d="M190.284,336.541v 9.22031" fill="none" stroke="black"/>
<path d="M203.205,341.152v 4.61016" fill="none" stroke="black"/>
<path d="M216.127,341.152v 4.61016" fill="none" stroke="black"/>
<path d="M229.048,341.152v 4.61016" fill="none" stroke="black"/>
<path d="M241.97,341.152v 4.61016" fill="none" stroke="black"/>
<path d="M254.891,336.541v 9.22031" fill="none" stroke="black"/>
<path d="M267.813,341.152v 4.61016" fill="none" stroke="black"/>
<path d="M280.734,341.152v 4.61016" fill="none" stroke="black"/>
<path d="M293.656,341.152v 4.61016" fill="none" stroke="black"/>
<path d="M306.577,341.152v 4.61016" fill="none" stroke="black"/>
<path d="M319.499,336.541v 9.22031" fill="none" stroke="black"/>
<path d="M332.42,341.152v 4.61016" fill="none" stroke="black"/>
<path d="M345.342,341.152v 4.61016" fill="none" stroke="black"/>
<path d="M358.263,341.152v 4.61016" fill="none" stroke="black"/>
<path d="M371.184,341.152v 4.61016" fill="none" stroke="black"/>
<path d="M384.106,336.541v 9.22031" fill="none" stroke="black"/>
<path d="M397.027,341.152v 4.61016" fill="none" stroke="black"/>
<path d="M409.949,341.152v 4.61016" fill="none" stroke="black"/>
<path d="M422.87,341.152v 4.61016" fill="none" stroke="black"/>
<path d="M435.792,341.152v 4.61016" fill="none" stroke="black"/>
<path d="M448.713,336.541v 9.22031" fill="none" stroke="black"/>
<path d="M61.0694,336.541v 9.22031" fill="none" stroke="black"/>
<path d="M448.713,336.541v 9.22031" fill="none" stroke="black"/>
<path d="M461.635,341.152v 4.61016" fill="none" stroke="black"/>
<path d="M474.556,341.152v 4.61016" fill="none" stroke="black"/>
<path d="M487.478,341.152v 4.61016" fill="none" stroke="black"/>
<path d="M500.399,341.152v 4.61016" fill="none" stroke="black"/>
<text xml:space="preserve" x="57.3554" y="358.189" fill="black" font-size="12.836" font-family="Helvetica">0</text>
<text xml:space="preserve" x="119.084" y="358.189" fill="black" font-size="12.836" font-family="Helvetica">50</text>
<text xml:space="preserve" x="179.188" y="358.189" fill="black" font-size="12.836" font-family="Helvetica">100</text>
<text xml:space="preserve" x="244.166" y="358.189" fill="black" font-size="12.836" font-family="Helvetica">150</text>
<text xml:space="preserve" x="308.331" y="358.189" fill="black" font-size="12.836" font-family="Helvetica">200</text>
<text xml:space="preserve" x="373.309" y="358.189" fill="black" font-size="12.836" font-family="Helvetica">250</text>
<text xml:space="preserve" x="437.474" y="358.189" fill="black" font-size="12.836" font-family="Helvetica">300</text>
<text xml:space="preserve" x="452.094" y="371.996" fill="black" font-size="12.836" font-family="Helvetica">ADC value</text>
<path d="M57.1929,345.762v -307.344" fill="none" stroke="black"/>
<path d="M70.7992,345.762h -13.6063" fill="none" stroke="black"/>
<path d="M63.9961,338.194h -6.80315" fill="none" stroke="black"/>
<path d="M63.9961,330.627h -6.80315" fill="none" stroke="black"/>
<path d="M63.9961,323.06h -6.80315" fill="none" stroke="black"/>
<path d="M70.7992,315.492h -13.6063" fill="none" stroke="black"/>
<path d="M63.9961,307.925h -6.80315" fill="none" stroke="black"/>
<path d="M63.9961,300.357h -6.80315" fill="none" stroke="black"/>
<path d="M63.9961,292.79h -6.80315" fill="none" stroke="black"/>
<path d="M70.7992,285.222h -13.6063" fill="none" stroke="black"/>
<path d="M63.9961,277.655h -6.80315" fill="none" stroke="black"/>
<path d="M63.9961,270.087h -6.80315" fill="none" stroke="black"/>
<path d="M63.9961,262.52h -6.80315" fill="none" stroke="black"/>
<path d="M70.7992,254.953h -13.6063" fill="none" stroke="black"/>
<path d="M63.9961,247.385h -6.80315" fill="none" stroke="black"/>
<path d="M63.9961,239.818h -6.80315" fill="none" stroke="black"/>
<path d="M63.9961,232.25h -6.80315" fill="none" stroke="black"/>
<path d="M70.7992,224.683h -13.6063" fill="none" stroke="black"/>
<path d="M63.9961,217.115h -6.80315" fill="none" stroke="black"/>
<path d="M63.9961,209.548h -6.80315" fill="none" stroke="black"/>
<path d="M63.9961,201.981h -6.80315" fill="none" stroke="black"/>
<path d="M70.7992,194.413h -13.6063" fill="none" stroke="black"/>
<path d="M63.9961,186.846h -6.80315" fill="none" stroke="black"/>
<path d="M63.9961,179.278h -6.80315" fill="none" stroke="black"/>
<path d="M63.9961,171.711h -6.80315" fill="none" stroke="black"/>
<path d="M70.7992,164.143h -13.6063" fill="none" stroke="black"/>
<path d="M63.9961,156.576h -6.80315" fill="none" stroke="black"/>
<path d="M63.9961,149.008h -6.80315" fill="none" stroke="black"/>
<path d="M63.9961,141.441h -6.80315" fill="none" stroke="black"/>
<path d="M70.7992,133.874h -13.6063" fill="none" stroke="black"/>
<path d="M63.9961,126.306h -6.80315" fill="none" stroke="black"/>
<path d="M63.9961,118.739h -6.80315" fill="none" stroke="black"/>
<path d="M63.9961,111.171h -6.80315" fill="none" stroke="black"/>
<path d="M70.7992,103.604h -13.6063" fill="none" stroke="black"/>
<path d="M63.9961,96.0364h -6.80315" fill="none" stroke="black"/>
<path d="M63.9961,88.469h -6.80315" fill="none" stroke="black"/>
<path d="M63.9961,80.9016h -6.80315" fill="none" stroke="black"/>
<path d="M70.7992,73.3341h -13.6063" fill="none" stroke="black"/>
<path d="M63.9961,65.7667h -6.80315" fill="none" stroke="black"/>
<path d="M63.9961,58.1993h -6.80315" fill="none" stroke="black"/>
<path d="M63.9961,50.6318h -6.80315" fill="none" stroke="black"/>
<path d="M70.7992,43.0644h -13.6063" fill="none" stroke="black"/>
<path d="M70.7992,43.0644h -13.6063" fill="none" stroke="black"/>
<text xml:space="preserve" x="47.6087" y="350.067" fill="black" font-size="12.836" font-family="Helvetica">0</text>
<text xml:space="preserve" x="33.801" y="320.014" fill="black" font-size="12.836" font-family="Helvetica">200</text>
<text xml:space="preserve" x="33.801" y="289.962" fill="black" font-size="12.836" font-family="Helvetica">400</text>
<text xml:space="preserve" x="33.801" y="259.098" fill="black" font-size="12.836" font-family="Helvetica">600</text>
<text xml:space="preserve" x="33.801" y="229.046" fill="black" font-size="12.836" font-family="Helvetica">800</text>
<text xml:space="preserve" x="27.3032" y="198.994" fill="black" font-size="12.836" font-family="Helvetica">1000</text>
<text xml:space="preserve" x="27.3032" y="168.942" fill="black" font-size="12.836" font-family="Helvetica">1200</text>
<text xml:space="preserve" x="27.3032" y="138.077" fill="black" font-size="12.836" font-family="Helvetica">1400</text>
<text xml:space="preserve" x="27.3032" y="108.025" fill="black" font-size="12.836" font-family="Helvetica">1600</text>
<text xml:space="preserve" x="27.3032" y="77.9731" fill="black" font-size="12.836" font-family="Helvetica">1800</text>
<text xml:space="preserve" x="27.3032" y="47.9209" fill="black" font-size="12.836" font-family="Helvetica">2000</text>
<g transform="rotate(-90,14.3077,69.8509)">
<text xml:space="preserve" x="14.3077" y="69.8509" fill="black" font-size="12.836" font-family="Helvetica">Event</text>
</g>
<text xml:space="preserve" x="250.664" y="18.681" fill="black" font-size="17.9813" font-family="Helvetica">Am_003</text>
<rect x="442.705" y="24.9717" width="113.386" height="61.4688" fill="white"/>
<path d="M442.705,86.4405h 113.386" fill="none" stroke="black"/>
<path d="M556.091,86.4405v -61.4688" fill="none" stroke="black"/>
<path d="M556.091,24.9717h -113.386" fill="none" stroke="black"/>
<path d="M442.705,24.9717v 61.4688" fill="none" stroke="black"/>
<text xml:space="preserve" x="474.836" y="36.5499" fill="black" font-size="13.4705" font-family="Helvetica">Am_003</text>
<path d="M442.705,40.3389h 113.386" fill="none" stroke="black"/>
<text xml:space="preserve" x="448.033" y="52.7943" fill="black" font-size="13.0884" font-family="Helvetica">Entries </text>
<text xml:space="preserve" x="517.884" y="52.7943" fill="black" font-size="13.0884" font-family="Helvetica"> 6603</text>
<text xml:space="preserve" x="448.033" y="68.2264" fill="black" font-size="13.0884" font-family="Helvetica">Mean  </text>
<text xml:space="preserve" x="510.574" y="69.0387" fill="black" font-size="13.0884" font-family="Helvetica">  21.74</text>
<text xml:space="preserve" x="448.033" y="82.8464" fill="black" font-size="13.0884" font-family="Helvetica">Std Dev   </text>
<text xml:space="preserve" x="510.574" y="82.8464" fill="black" font-size="13.0884" font-family="Helvetica">  33.95</text>
<text xml:space="preserve" x="250.664" y="18.681" fill="black" font-size="17.9813" font-family="Helvetica">Am_003</text></svg>
