<?xml version="1.0" standalone="no"?>
<svg width="567.429" height="384.969" viewBox="0 0 567.429 384.969" xmlns="http://www.w3.org/2000/svg" shape-rendering="crispEdges">
<title>
img/week1/plane_hist/Am_005.svg
</title>
<desc>
Creator: ROOT Version 6.22/09
CreationDate: Thu Jul  8 17:39:09 2021</desc>
<defs>
</defs>
<rect x="0.5" y="0" width="566.929" height="384.469" fill="white"/>
<rect x="57.1929" y="38.4469" width="453.543" height="307.575" fill="white"/>
<rect x="57.1929" y="38.4469" width="453.543" height="307.575" fill="none" stroke="black"/>
<path d="M57.1929,346.022h 62.3427v -0.960423h 0.519523v 0.960423h 0.519523v -0.960423h 0.519523v -0.960423h 1.03905v -2.88127h 0.519523v -0.960423h 0.519523v 3.84169h 0.519523v -3.84169h 0.519523v 2.88127h 0.519523v 1.92085h 0.519523v -2.88127h
 0.519523v 2.88127h 2.59761v -0.960423h 0.519523v -0.960423h 0.519523v 1.92085h 0.519523v 0.960423h 0.519523v -2.88127h 0.519523v 1.92085h 0.519523v -0.960423h 1.55857v -0.960423h 0.519523v 0.960423h 0.519523v -0.960423h 0.519523v 0.960423h 0.519523v
 0.960423h 0.519523v 0.960423h 0.519523v -0.960423h 0.519523v 0.960423h 0.519523v -0.960423h 0.519523v -0.960423h 0.519523v -0.960423h 0.519523v 0.960423h 0.519523v 1.92085h 0.519523v -1.92085h 0.519523v 0.960423h 0.519523v -1.92085h 0.519523v
 2.88127h 0.519523v -0.960423h 0.519523v -2.88127h 0.519523v 3.84169h 0.519523v -1.92085h 0.519523v -1.92085h 0.519523v 1.92085h 0.519523v -0.960423h 0.519523v 1.92085h 0.519523v 0.960423h 0.519523v -1.92085h 0.519523v 0.960423h 0.519523v -0.960423h
 0.519523v -0.960423h 0.519523v 0.960423h 1.03905v 0.960423h 0.519523v -1.92085h 0.519523v 0.960423h 0.519523v -0.960423h 0.519523v -0.960423h 0.519523v 1.92085h 1.03905v -1.92085h 0.519523v 3.84169h 0.519523v -2.88127h 1.55857v 2.88127h 0.519523v
 -3.84169h 0.519523v 2.88127h 1.03905v -0.960423h 1.55857v -1.92085h 0.519523v 2.88127h 0.519523v -0.960423h 0.519523v -1.92085h 0.519523v 3.84169h 0.519523v -0.960423h 0.519523v -2.88127h 0.519523v 3.84169h 0.519523v -1.92085h 0.519523v 0.960423h
 0.519523v -0.960423h 0.519523v 0.960423h 0.519523v -2.88127h 0.519523v -0.960423h 1.55857v 3.84169h 0.519523v -0.960423h 0.519523v -3.84169h 0.519523v 3.84169h 0.519523v -3.84169h 0.519523v 4.80211h 0.519523v -1.92085h 0.519523v 0.960423h 0.519523v
 -0.960423h 0.519523v -0.960423h 0.519523v 0.960423h 0.519523v 2.88127h 0.519523v -0.960423h 0.519523v -1.92085h 0.519523v 1.92085h 0.519523v -1.92085h 0.519523v 0.960423h 1.03905v -4.80211h 0.519523v 5.76254h 0.519523v -0.960423h 0.519523v 0.960423h
 0.519523v -0.960423h 0.519523v -1.92085h 0.519523v 0.960423h 0.519523v -1.92085h 0.519523v 0.960423h 0.519523v 0.960423h 0.519523v 1.92085h 0.519523v -1.92085h 0.519523v 0.960423h 0.519523v -2.88127h 0.519523v 1.92085h 0.519523v 0.960423h 1.03905v
 -1.92085h 0.519523v 2.88127h 0.519523v -0.960423h 1.03905v -1.92085h 1.03905v -0.960423h 0.519523v 3.84169h 0.519523v -0.960423h 1.03905v -4.80211h 0.519523v 2.88127h 0.519523v -2.88127h 0.519523v 1.92085h 0.519523v 0.960423h 1.03905v -0.960423h
 0.519523v 4.80211h 0.519523v -4.80211h 1.55857v 2.88127h 0.519523v -1.92085h 0.519523v 1.92085h 0.519523v -6.72296h 0.519523v 7.68338h 0.519523v -4.80211h 0.519523v 2.88127h 0.519523v 1.92085h 0.519523v -3.84169h 1.03905v 0.960423h 0.519523v
 -1.92085h 0.519523v -0.960423h 0.519523v 4.80211h 0.519523v -2.88127h 0.519523v 0.960423h 0.519523v -5.76254h 1.03905v 2.88127h 1.03905v 0.960423h 0.519523v -0.960423h 1.03905v 0.960423h 0.519523v 0.960423h 0.519523v -0.960423h 1.03905v -0.960423h
 0.519523v -0.960423h 0.519523v 0.960423h 0.519523v -1.92085h 0.519523v -0.960423h 0.519523v -0.960423h 0.519523v 0.960423h 0.519523v 7.68338h 0.519523v -7.68338h 0.519523v 4.80211h 0.519523v -3.84169h 0.519523v -0.960423h 0.519523v -4.80211h
 0.519523v 5.76254h 0.519523v -1.92085h 0.519523v 3.84169h 0.519523v -1.92085h 0.519523v 3.84169h 0.519523v -8.6438h 0.519523v -1.92085h 0.519523v -1.92085h 0.519523v 8.6438h 0.519523v -2.88127h 1.03905v 0.960423h 1.03905v -4.80211h 0.519523v
 2.88127h 1.55857v -0.960423h 0.519523v 0.960423h 0.519523v -5.76254h 0.519523v 3.84169h 0.519523v -1.92085h 0.519523v 5.76254h 0.519523v -1.92085h 0.519523v -17.2876h 0.519523v 15.3668h 0.519523v -6.72296h 1.03905v 2.88127h 0.519523v -3.84169h
 0.519523v -2.88127h 0.519523v 1.92085h 0.519523v 1.92085h 0.519523v 8.6438h 0.519523v -5.76254h 0.519523v -7.68338h 0.519523v 3.84169h 0.519523v 3.84169h 0.519523v -1.92085h 0.519523v -11.5251h 0.519523v -5.76254h 0.519523v 12.4855h 0.519523v
 0.960423h 0.519523v -18.248h 0.519523v 18.248h 0.519523v -1.92085h 0.519523v 4.80211h 0.519523v -9.60423h 0.519523v -0.960423h 0.519523v 2.88127h 0.519523v -2.88127h 0.519523v -1.92085h 0.519523v 9.60423h 0.519523v -8.6438h 0.519523v -1.92085h
 0.519523v 0.960423h 0.519523v -7.68338h 0.519523v 8.6438h 0.519523v -2.88127h 0.519523v -0.960423h 1.03905v 8.6438h 0.519523v -7.68338h 0.519523v -2.88127h 0.519523v 2.88127h 0.519523v 4.80211h 0.519523v -8.6438h 0.519523v 5.76254h 0.519523v
 2.88127h 0.519523v -8.6438h 0.519523v 7.68338h 0.519523v -1.92085h 0.519523v 0.960423h 0.519523v 5.76254h 0.519523v -7.68338h 0.519523v 4.80211h 0.519523v -8.6438h 0.519523v 4.80211h 0.519523v -1.92085h 0.519523v 5.76254h 0.519523v -7.68338h
 0.519523v 4.80211h 0.519523v -6.72296h 0.519523v 1.92085h 0.519523v 2.88127h 0.519523v 4.80211h 0.519523v -6.72296h 0.519523v 10.5646h 0.519523v -9.60423h 0.519523v -2.88127h 0.519523v 9.60423h 0.519523v -10.5646h 0.519523v 8.6438h 0.519523v
 1.92085h 0.519523v 13.4459h 0.519523v -15.3668h 0.519523v 5.76254h 0.519523v -5.76254h 0.519523v -1.92085h 0.519523v 0.960423h 1.03905v -4.80211h 0.519523v 19.2085h 0.519523v -18.248h 0.519523v 6.72296h 0.519523v -3.84169h 0.519523v 2.88127h
 0.519523v -2.88127h 0.519523v 5.76254h 0.519523v 10.5646h 0.519523v -12.4855h 0.519523v -2.88127h 0.519523v 6.72296h 0.519523v -12.4855h 0.519523v 3.84169h 0.519523v 11.5251h 0.519523v -10.5646h 0.519523v 2.88127h 0.519523v 2.88127h 0.519523v
 -8.6438h 1.03905v 5.76254h 0.519523v -2.88127h 0.519523v -0.960423h 0.519523v 15.3668h 0.519523v -5.76254h 0.519523v 1.92085h 0.519523v -11.5251h 0.519523v 16.3272h 0.519523v -5.76254h 0.519523v -9.60423h 0.519523v -2.88127h 0.519523v 9.60423h
 0.519523v -4.80211h 0.519523v -0.960423h 0.519523v 0.960423h 0.519523v 11.5251h 0.519523v -9.60423h 0.519523v 0.960423h 0.519523v 3.84169h 0.519523v 3.84169h 0.519523v 4.80211h 0.519523v -12.4855h 0.519523v 11.5251h 0.519523v 0.960423h 0.519523v
 -9.60423h 0.519523v 2.88127h 0.519523v 2.88127h 0.519523v -12.4855h 0.519523v 14.4063h 0.519523v -5.76254h 0.519523v -1.92085h 0.519523v -2.88127h 0.519523v 11.5251h 1.03905v -6.72296h 0.519523v 7.68338h 0.519523v -3.84169h 0.519523v -5.76254h
 0.519523v 7.68338h 0.519523v -0.960423h 0.519523v -1.92085h 1.03905v 1.92085h 0.519523v 4.80211h 0.519523v -8.6438h 0.519523v 7.68338h 0.519523v -5.76254h 0.519523v 11.5251h 0.519523v -6.72296h 0.519523v -8.6438h 0.519523v 11.5251h 0.519523v
 -3.84169h 0.519523v 4.80211h 0.519523v -7.68338h 0.519523v -0.960423h 0.519523v 7.68338h 0.519523v 0.960423h 0.519523v -4.80211h 0.519523v 3.84169h 0.519523v 1.92085h 0.519523v -1.92085h 1.03905v -2.88127h 0.519523v 4.80211h 0.519523v -1.92085h
 0.519523v -0.960423h 0.519523v 0.960423h 0.519523v -6.72296h 0.519523v 0.960423h 0.519523v 1.92085h 1.03905v 4.80211h 0.519523v -3.84169h 0.519523v 2.88127h 0.519523v 2.88127h 0.519523v -6.72296h 0.519523v 2.88127h 0.519523v 2.88127h 0.519523v
 -3.84169h 0.519523v 2.88127h 0.519523v -0.960423h 0.519523v -0.960423h 0.519523v -0.960423h 0.519523v 0.960423h 0.519523v -2.88127h 0.519523v 4.80211h 0.519523v 0.960423h 0.519523v -2.88127h 0.519523v -4.80211h 0.519523v 11.5251h 0.519523v -7.68338h
 0.519523v -1.92085h 0.519523v 1.92085h 1.03905v 1.92085h 0.519523v 1.92085h 0.519523v -2.88127h 0.519523v -2.88127h 0.519523v -0.960423h 0.519523v 9.60423h 1.03905v -5.76254h 0.519523v -1.92085h 0.519523v 0.960423h 0.519523v 0.960423h 0.519523v
 0.960423h 0.519523v -0.960423h 0.519523v -1.92085h 0.519523v -2.88127h 0.519523v 8.6438h 0.519523v -5.76254h 0.519523v 1.92085h 0.519523v 9.60423h 0.519523v -7.68338h 0.519523v 1.92085h 0.519523v -9.60423h 0.519523v 8.6438h 0.519523v 0.960423h
 0.519523v -9.60423h 0.519523v 10.5646h 0.519523v -2.88127h 0.519523v 3.84169h 0.519523v -4.80211h 0.519523v -0.960423h 0.519523v -1.92085h 0.519523v 6.72296h 1.03905v -4.80211h 0.519523v 1.92085h 0.519523v -3.84169h 0.519523v 4.80211h 0.519523v
 0.960423h 0.519523v 4.80211h 0.519523v -2.88127h 0.519523v -1.92085h 0.519523v 1.92085h 0.519523v -2.88127h 0.519523v -1.92085h 0.519523v 2.88127h 0.519523v -2.88127h 0.519523v 0.960423h 0.519523v 5.76254h 0.519523v 2.88127h 0.519523v -3.84169h
 0.519523v 2.88127h 0.519523v -2.88127h 0.519523v -1.92085h 0.519523v 2.88127h 0.519523v 2.88127h 0.519523v 0.960423h 0.519523v -5.76254h 0.519523v 1.92085h 0.519523v 0.960423h 0.519523v 3.84169h 0.519523v -2.88127h 1.03905v -2.88127h 0.519523v
 2.88127h 0.519523v -0.960423h 0.519523v 2.88127h 0.519523v -1.92085h 0.519523v -2.88127h 0.519523v 3.84169h 0.519523v -0.960423h 0.519523v 1.92085h 1.03905v -1.92085h 0.519523v 0.960423h 0.519523v 0.960423h 0.519523v -2.88127h 0.519523v 1.92085h
 0.519523v 0.960423h 0.519523v 1.92085h 1.55857v -1.92085h 0.519523v -3.84169h 0.519523v 2.88127h 0.519523v 1.92085h 0.519523v 0.960423h 1.03905v -0.960423h 2.07809v -2.88127h 0.519523v 1.92085h 0.519523v 0.960423h 0.519523v -2.88127h 0.519523v
 0.960423h 0.519523v 2.88127h 0.519523v -0.960423h 0.519523v -0.960423h 0.519523v 1.92085h 1.03905v -2.88127h 0.519523v 1.92085h 0.519523v -2.88127h 0.519523v 2.88127h 0.519523v -0.960423h 0.519523v -0.960423h 0.519523v 2.88127h 0.519523v -2.88127h
 0.519523v 1.92085h 0.519523v -0.960423h 1.03905v 1.92085h 0.519523v -1.92085h 0.519523v -0.960423h 0.519523v 2.88127h 0.519523v -0.960423h 0.519523v -0.960423h 1.03905v 0.960423h 0.519523v -1.92085h 0.519523v 2.88127h 0.519523v -1.92085h 0.519523v
 1.92085h 0.519523v -0.960423h 1.03905v 0.960423h 1.03905v -0.960423h 0.519523v -0.960423h 0.519523v 0.960423h 0.519523v -0.960423h 0.519523v 1.92085h 1.55857v -0.960423h 0.519523v 0.960423h 0.519523v -0.960423h 0.519523v 0.960423h 0.519523v
 -1.92085h 0.519523v 1.92085h 0.519523v -0.960423h 0.519523v 0.960423h 0.519523v -0.960423h 1.03905v -0.960423h 0.519523v -0.960423h 0.519523v 1.92085h 0.519523v 0.960423h 0.519523v -0.960423h 0.519523v -0.960423h 1.03905v 0.960423h 2.07809v
 -3.84169h 0.519523v 3.84169h 0.519523v -2.88127h 0.519523v -1.92085h 1.03905v 0.960423h 0.519523v 1.92085h 0.519523v -0.960423h 0.519523v -9.60423h 0.519523v 1.92085h 1.03905v -9.60423h 0.519523v -10.5646h 0.519523v -33.6148h 0.519523v -44.1794h
 0.519523v -67.2296h 0.519523v -67.2296h 0.519523v -36.4961h 0.519523v -12.4855h 0.519523v 44.1794h 0.519523v 59.5462h 0.519523v -18.248h 0.519523v 34.5752h 0.519523v -15.3668h 0.519523v 31.6939h 0.519523v 7.68338h 0.519523v -16.3272h 0.519523v
 19.2085h 0.519523v -3.84169h 0.519523v 53.7837h 0.519523v 31.6939h 0.519523v 8.6438h 0.519523v 2.88127h 0.519523v 16.3272h 0.519523v 13.4459h 0.519523v 6.72296h 0.519523v -4.80211h 0.519523v 14.4063h 0.519523v -3.84169h 0.519523v 7.68338h 0.519523v
 -1.92085h 0.519523v -0.960423h 0.519523v 2.88127h 0.519523v -3.84169h 0.519523v 3.84169h 0.519523v 2.88127h 0.519523v -0.960423h 0.519523v -3.84169h 0.519523v 3.84169h 0.519523v 0.960423h 0.519523v -0.960423h 2.07809v 0.960423h 3.11714v -0.960423h
 0.519523v 0.960423h 68.0575v -0.960423h 0.519523" fill="none" stroke="#000099"/>
<path d="M57.1929,346.022h 453.543" fill="none" stroke="black"/>
<path d="M57.7124,336.795v 9.22726" fill="none" stroke="black"/>
<path d="M75.0299,341.409v 4.61363" fill="none" stroke="black"/>
<path d="M92.3473,341.409v 4.61363" fill="none" stroke="black"/>
<path d="M109.665,341.409v 4.61363" fill="none" stroke="black"/>
<path d="M126.982,341.409v 4.61363" fill="none" stroke="black"/>
<path d="M144.3,336.795v 9.22726" fill="none" stroke="black"/>
<path d="M161.617,341.409v 4.61363" fill="none" stroke="black"/>
<path d="M178.934,341.409v 4.61363" fill="none" stroke="black"/>
<path d="M196.252,341.409v 4.61363" fill="none" stroke="black"/>
<path d="M213.569,341.409v 4.61363" fill="none" stroke="black"/>
<path d="M230.887,336.795v 9.22726" fill="none" stroke="black"/>
<path d="M248.204,341.409v 4.61363" fill="none" stroke="black"/>
<path d="M265.522,341.409v 4.61363" fill="none" stroke="black"/>
<path d="M282.839,341.409v 4.61363" fill="none" stroke="black"/>
<path d="M300.156,341.409v 4.61363" fill="none" stroke="black"/>
<path d="M317.474,336.795v 9.22726" fill="none" stroke="black"/>
<path d="M334.791,341.409v 4.61363" fill="none" stroke="black"/>
<path d="M352.109,341.409v 4.61363" fill="none" stroke="black"/>
<path d="M369.426,341.409v 4.61363" fill="none" stroke="black"/>
<path d="M386.743,341.409v 4.61363" fill="none" stroke="black"/>
<path d="M404.061,336.795v 9.22726" fill="none" stroke="black"/>
<path d="M421.378,341.409v 4.61363" fill="none" stroke="black"/>
<path d="M438.696,341.409v 4.61363" fill="none" stroke="black"/>
<path d="M456.013,341.409v 4.61363" fill="none" stroke="black"/>
<path d="M473.331,341.409v 4.61363" fill="none" stroke="black"/>
<path d="M490.648,336.795v 9.22726" fill="none" stroke="black"/>
<path d="M57.7124,336.795v 9.22726" fill="none" stroke="black"/>
<path d="M490.648,336.795v 9.22726" fill="none" stroke="black"/>
<path d="M507.965,341.409v 4.61363" fill="none" stroke="black"/>
<text xml:space="preserve" x="54.2605" y="358.403" fill="black" font-size="12.8453" font-family="Helvetica">0</text>
<text xml:space="preserve" x="133.272" y="358.403" fill="black" font-size="12.8453" font-family="Helvetica">500</text>
<text xml:space="preserve" x="216.357" y="358.403" fill="black" font-size="12.8453" font-family="Helvetica">1000</text>
<text xml:space="preserve" x="303.514" y="358.403" fill="black" font-size="12.8453" font-family="Helvetica">1500</text>
<text xml:space="preserve" x="389.857" y="358.403" fill="black" font-size="12.8453" font-family="Helvetica">2000</text>
<text xml:space="preserve" x="476.199" y="358.403" fill="black" font-size="12.8453" font-family="Helvetica">2500</text>
<text xml:space="preserve" x="451.763" y="372.251" fill="black" font-size="12.8453" font-family="Helvetica">ADC value</text>
<path d="M57.1929,346.022v -307.575" fill="none" stroke="black"/>
<path d="M70.7992,346.022h -13.6063" fill="none" stroke="black"/>
<path d="M63.9961,336.418h -6.80315" fill="none" stroke="black"/>
<path d="M63.9961,326.814h -6.80315" fill="none" stroke="black"/>
<path d="M63.9961,317.21h -6.80315" fill="none" stroke="black"/>
<path d="M63.9961,307.605h -6.80315" fill="none" stroke="black"/>
<path d="M70.7992,298.001h -13.6063" fill="none" stroke="black"/>
<path d="M63.9961,288.397h -6.80315" fill="none" stroke="black"/>
<path d="M63.9961,278.793h -6.80315" fill="none" stroke="black"/>
<path d="M63.9961,269.188h -6.80315" fill="none" stroke="black"/>
<path d="M63.9961,259.584h -6.80315" fill="none" stroke="black"/>
<path d="M70.7992,249.98h -13.6063" fill="none" stroke="black"/>
<path d="M63.9961,240.376h -6.80315" fill="none" stroke="black"/>
<path d="M63.9961,230.772h -6.80315" fill="none" stroke="black"/>
<path d="M63.9961,221.167h -6.80315" fill="none" stroke="black"/>
<path d="M63.9961,211.563h -6.80315" fill="none" stroke="black"/>
<path d="M70.7992,201.959h -13.6063" fill="none" stroke="black"/>
<path d="M63.9961,192.355h -6.80315" fill="none" stroke="black"/>
<path d="M63.9961,182.75h -6.80315" fill="none" stroke="black"/>
<path d="M63.9961,173.146h -6.80315" fill="none" stroke="black"/>
<path d="M63.9961,163.542h -6.80315" fill="none" stroke="black"/>
<path d="M70.7992,153.938h -13.6063" fill="none" stroke="black"/>
<path d="M63.9961,144.334h -6.80315" fill="none" stroke="black"/>
<path d="M63.9961,134.729h -6.80315" fill="none" stroke="black"/>
<path d="M63.9961,125.125h -6.80315" fill="none" stroke="black"/>
<path d="M63.9961,115.521h -6.80315" fill="none" stroke="black"/>
<path d="M70.7992,105.917h -13.6063" fill="none" stroke="black"/>
<path d="M63.9961,96.3124h -6.80315" fill="none" stroke="black"/>
<path d="M63.9961,86.7082h -6.80315" fill="none" stroke="black"/>
<path d="M63.9961,77.1039h -6.80315" fill="none" stroke="black"/>
<path d="M63.9961,67.4997h -6.80315" fill="none" stroke="black"/>
<path d="M70.7992,57.8955h -13.6063" fill="none" stroke="black"/>
<path d="M70.7992,57.8955h -13.6063" fill="none" stroke="black"/>
<path d="M63.9961,48.2913h -6.80315" fill="none" stroke="black"/>
<path d="M63.9961,38.687h -6.80315" fill="none" stroke="black"/>
<text xml:space="preserve" x="47.7441" y="350.258" fill="black" font-size="12.8453" font-family="Helvetica">0</text>
<text xml:space="preserve" x="41.2277" y="302.199" fill="black" font-size="12.8453" font-family="Helvetica">50</text>
<text xml:space="preserve" x="33.8967" y="254.141" fill="black" font-size="12.8453" font-family="Helvetica">100</text>
<text xml:space="preserve" x="33.8967" y="206.082" fill="black" font-size="12.8453" font-family="Helvetica">150</text>
<text xml:space="preserve" x="33.8967" y="158.023" fill="black" font-size="12.8453" font-family="Helvetica">200</text>
<text xml:space="preserve" x="33.8967" y="110.779" fill="black" font-size="12.8453" font-family="Helvetica">250</text>
<text xml:space="preserve" x="33.8967" y="62.7206" fill="black" font-size="12.8453" font-family="Helvetica">300</text>
<g transform="rotate(-90,20.8638,70.0516)">
<text xml:space="preserve" x="20.8638" y="70.0516" fill="black" font-size="12.8453" font-family="Helvetica">Event</text>
</g>
<text xml:space="preserve" x="250.568" y="18.7347" fill="black" font-size="18.0316" font-family="Helvetica">Am_005</text>
<rect x="442.705" y="24.9905" width="113.386" height="61.5151" fill="white"/>
<path d="M442.705,86.5056h 113.386" fill="none" stroke="black"/>
<path d="M556.091,86.5056v -61.5151" fill="none" stroke="black"/>
<path d="M556.091,24.9905h -113.386" fill="none" stroke="black"/>
<path d="M442.705,24.9905v 61.5151" fill="none" stroke="black"/>
<text xml:space="preserve" x="474.57" y="36.6549" fill="black" font-size="13.4802" font-family="Helvetica">Am_005</text>
<path d="M442.705,40.3693h 113.386" fill="none" stroke="black"/>
<text xml:space="preserve" x="447.69" y="52.946" fill="black" font-size="12.7186" font-family="Helvetica">Entries </text>
<text xml:space="preserve" x="512.854" y="52.946" fill="black" font-size="12.7186" font-family="Helvetica"> 10216</text>
<text xml:space="preserve" x="447.69" y="67.6079" fill="black" font-size="12.7186" font-family="Helvetica">Mean  </text>
<text xml:space="preserve" x="512.854" y="67.6079" fill="black" font-size="12.7186" font-family="Helvetica">   1544</text>
<text xml:space="preserve" x="447.69" y="83.0844" fill="black" font-size="12.7186" font-family="Helvetica">Std Dev   </text>
<text xml:space="preserve" x="516.927" y="83.0844" fill="black" font-size="12.7186" font-family="Helvetica">    469</text>
<text xml:space="preserve" x="250.568" y="18.7347" fill="black" font-size="18.0316" font-family="Helvetica">Am_005</text></svg>
