<?xml version="1.0" standalone="no"?>
<svg width="567.429" height="384.969" viewBox="0 0 567.429 384.969" xmlns="http://www.w3.org/2000/svg" shape-rendering="crispEdges">
<title>
img/week1/plane_hist/Am_005.svg
</title>
<desc>
Creator: ROOT Version 6.22/09
CreationDate: Wed Jul 14 09:53:12 2021</desc>
<defs>
</defs>
<rect x="0.5" y="0" width="566.929" height="384.469" fill="white"/>
<rect x="57.1929" y="38.4469" width="453.543" height="307.575" fill="white"/>
<rect x="57.1929" y="38.4469" width="453.543" height="307.575" fill="none" stroke="black"/>
<path d="M57.1929,346.022h 67.6736v -5.0505h 0.650708v -1.26262h 0.650708v -16.4141h 0.650708v 10.101h 0.650708v -7.57575h 0.650708v -7.57575h 0.650708v -3.78787h 0.650708v 18.9394h 0.650708v -1.26262h 0.650708v 5.0505h 0.650708v -8.83837h 0.650708v
 3.78787h 0.650708v 1.26262h 0.650708v -7.57575h 0.650708v 11.3636h 0.650708v -15.1515h 0.650708v 13.8889h 0.650708v 2.52525h 0.650708v -1.26262h 0.650708v -12.6262h 0.650708v 5.0505h 0.650708v 7.57575h 0.650708v -3.78787h 0.650708v 1.26262h
 0.650708v 2.52525h 1.30142v -1.26262h 0.650708v -2.52525h 0.650708v 3.78787h 0.650708v -11.3636h 0.650708v 12.6262h 0.650708v -5.0505h 0.650708v 6.31312h 0.650708v -3.78787h 0.650708v 1.26262h 1.30142v -8.83837h 0.650708v 2.52525h 0.650708v 6.31312h
 0.650708v -3.78787h 0.650708v -5.0505h 0.650708v 6.31312h 1.30142v 2.52525h 1.30142v 1.26262h 0.650708v -3.78787h 0.650708v 5.0505h 0.650708v -2.52525h 1.30142v -8.83837h 0.650708v 5.0505h 0.650708v 1.26262h 0.650708v 1.26262h 0.650708v -2.52525h
 0.650708v 1.26262h 0.650708v 2.52525h 0.650708v 3.78787h 0.650708v -10.101h 0.650708v 8.83837h 0.650708v -6.31312h 0.650708v 6.31312h 0.650708v -10.101h 0.650708v 8.83837h 0.650708v -6.31312h 0.650708v 3.78787h 1.30142v -5.0505h 0.650708v 3.78787h
 0.650708v -10.101h 0.650708v 11.3636h 0.650708v 3.78787h 0.650708v -10.101h 0.650708v 5.0505h 0.650708v -3.78787h 0.650708v 8.83837h 0.650708v -3.78787h 0.650708v -3.78787h 1.30142v -1.26262h 0.650708v 2.52525h 0.650708v 3.78787h 0.650708v -7.57575h
 0.650708v 8.83837h 0.650708v -3.78787h 0.650708v 1.26262h 1.30142v 3.78787h 0.650708v -8.83837h 0.650708v 6.31312h 0.650708v 5.0505h 0.650708v -15.1515h 0.650708v 6.31312h 0.650708v -8.83837h 0.650708v 8.83837h 0.650708v -6.31312h 0.650708v 3.78787h
 0.650708v 5.0505h 0.650708v -2.52525h 0.650708v 8.83837h 0.650708v -20.202h 0.650708v 12.6262h 0.650708v 1.26262h 1.30142v 1.26262h 0.650708v -5.0505h 0.650708v 7.57575h 0.650708v -5.0505h 0.650708v 3.78787h 0.650708v -8.83837h 0.650708v 3.78787h
 1.30142v 8.83837h 0.650708v -7.57575h 0.650708v 1.26262h 0.650708v -7.57575h 0.650708v 1.26262h 0.650708v -1.26262h 0.650708v 5.0505h 0.650708v 3.78787h 0.650708v -5.0505h 0.650708v 8.83837h 0.650708v -5.0505h 0.650708v 2.52525h 0.650708v -2.52525h
 0.650708v -3.78787h 0.650708v 3.78787h 0.650708v 2.52525h 0.650708v -1.26262h 0.650708v -1.26262h 1.30142v -8.83837h 0.650708v 1.26262h 0.650708v 2.52525h 0.650708v 6.31312h 0.650708v 5.0505h 0.650708v -5.0505h 0.650708v -7.57575h 0.650708v 7.57575h
 0.650708v -22.7272h 0.650708v 17.6767h 0.650708v -2.52525h 0.650708v -11.3636h 0.650708v 12.6262h 0.650708v -1.26262h 0.650708v 1.26262h 0.650708v 1.26262h 0.650708v -6.31312h 0.650708v -2.52525h 0.650708v 2.52525h 0.650708v 7.57575h 0.650708v
 -10.101h 0.650708v 5.0505h 0.650708v -10.101h 0.650708v 20.202h 0.650708v -13.8889h 0.650708v 5.0505h 0.650708v 5.0505h 0.650708v -2.52525h 0.650708v -8.83837h 0.650708v -3.78787h 0.650708v 2.52525h 0.650708v 5.0505h 0.650708v -7.57575h 0.650708v
 -3.78787h 0.650708v 8.83837h 0.650708v -7.57575h 0.650708v 5.0505h 0.650708v -5.0505h 0.650708v 8.83837h 0.650708v -1.26262h 0.650708v 3.78787h 0.650708v -2.52525h 0.650708v -8.83837h 0.650708v 3.78787h 0.650708v -2.52525h 0.650708v 12.6262h
 0.650708v -11.3636h 1.30142v -2.52525h 0.650708v 5.0505h 0.650708v -7.57575h 0.650708v 7.57575h 0.650708v -5.0505h 0.650708v -3.78787h 0.650708v 5.0505h 0.650708v -1.26262h 0.650708v 5.0505h 0.650708v -11.3636h 0.650708v 15.1515h 0.650708v 2.52525h
 0.650708v -6.31312h 0.650708v -5.0505h 0.650708v 6.31312h 0.650708v 2.52525h 0.650708v -10.101h 0.650708v -20.202h 0.650708v 10.101h 0.650708v 5.0505h 0.650708v 8.83837h 0.650708v -13.8889h 0.650708v 11.3636h 0.650708v -5.0505h 0.650708v -7.57575h
 0.650708v 3.78787h 0.650708v -1.26262h 0.650708v -12.6262h 0.650708v 10.101h 0.650708v 7.57575h 0.650708v -8.83837h 0.650708v -6.31312h 0.650708v 1.26262h 0.650708v 3.78787h 0.650708v 3.78787h 0.650708v -11.3636h 0.650708v 2.52525h 0.650708v
 -16.4141h 0.650708v 11.3636h 0.650708v -16.4141h 0.650708v 11.3636h 0.650708v -11.3636h 0.650708v 20.202h 0.650708v 6.31312h 0.650708v -13.8889h 0.650708v 3.78787h 0.650708v -12.6262h 0.650708v 18.9394h 0.650708v -10.101h 0.650708v -13.8889h
 0.650708v 7.57575h 0.650708v -7.57575h 0.650708v 11.3636h 0.650708v -20.202h 0.650708v 16.4141h 0.650708v 15.1515h 0.650708v -5.0505h 0.650708v 6.31312h 0.650708v -26.5151h 0.650708v 2.52525h 0.650708v 13.8889h 0.650708v 20.202h 0.650708v -23.9899h
 0.650708v -20.202h 0.650708v -1.26262h 0.650708v 8.83837h 0.650708v 13.8889h 0.650708v -10.101h 0.650708v -8.83837h 0.650708v 8.83837h 0.650708v 26.5151h 0.650708v -17.6767h 0.650708v 8.83837h 0.650708v -20.202h 0.650708v 17.6767h 0.650708v
 -6.31312h 0.650708v 3.78787h 0.650708v 3.78787h 0.650708v 6.31312h 0.650708v -7.57575h 0.650708v -16.4141h 0.650708v 11.3636h 0.650708v -7.57575h 0.650708v 20.202h 0.650708v 3.78787h 0.650708v -12.6262h 0.650708v 6.31312h 0.650708v -6.31312h
 0.650708v 10.101h 0.650708v -3.78787h 0.650708v 5.0505h 0.650708v -12.6262h 0.650708v 6.31312h 0.650708v 21.4646h 0.650708v -39.1414h 0.650708v 13.8889h 0.650708v 15.1515h 0.650708v -1.26262h 1.30142v 1.26262h 0.650708v -17.6767h 0.650708v 21.4646h
 0.650708v 5.0505h 0.650708v -12.6262h 0.650708v -5.0505h 0.650708v 16.4141h 0.650708v 8.83837h 0.650708v -6.31312h 0.650708v -13.8889h 1.30142v 2.52525h 0.650708v 17.6767h 0.650708v -12.6262h 0.650708v 5.0505h 0.650708v -11.3636h 0.650708v 6.31312h
 0.650708v 17.6767h 0.650708v -10.101h 0.650708v -11.3636h 0.650708v 7.57575h 0.650708v -2.52525h 0.650708v -11.3636h 0.650708v 10.101h 0.650708v 11.3636h 0.650708v -13.8889h 0.650708v 17.6767h 0.650708v -13.8889h 0.650708v 8.83837h 0.650708v
 -10.101h 0.650708v 6.31312h 0.650708v 5.0505h 0.650708v -13.8889h 0.650708v 2.52525h 0.650708v 10.101h 0.650708v 3.78787h 0.650708v -8.83837h 0.650708v 1.26262h 0.650708v -3.78787h 0.650708v 12.6262h 0.650708v -12.6262h 0.650708v 7.57575h 0.650708v
 -11.3636h 0.650708v 11.3636h 0.650708v 10.101h 0.650708v -11.3636h 0.650708v -2.52525h 0.650708v 5.0505h 0.650708v -5.0505h 0.650708v 11.3636h 0.650708v -3.78787h 0.650708v -8.83837h 0.650708v 12.6262h 1.30142v -6.31312h 0.650708v 10.101h 0.650708v
 -8.83837h 0.650708v 1.26262h 0.650708v 2.52525h 0.650708v -3.78787h 0.650708v -6.31312h 0.650708v 11.3636h 0.650708v -5.0505h 0.650708v 13.8889h 0.650708v -18.9394h 0.650708v 10.101h 1.30142v 2.52525h 0.650708v -11.3636h 0.650708v 7.57575h 0.650708v
 -2.52525h 0.650708v 11.3636h 0.650708v -6.31312h 0.650708v 5.0505h 0.650708v -3.78787h 0.650708v -1.26262h 0.650708v 3.78787h 0.650708v -2.52525h 0.650708v -1.26262h 0.650708v -6.31312h 0.650708v 8.83837h 0.650708v 1.26262h 0.650708v -3.78787h
 0.650708v 6.31312h 0.650708v -1.26262h 0.650708v 1.26262h 0.650708v 1.26262h 1.30142v -5.0505h 0.650708v 10.101h 0.650708v -6.31312h 0.650708v 2.52525h 0.650708v -2.52525h 0.650708v -3.78787h 0.650708v -2.52525h 0.650708v 2.52525h 0.650708v 1.26262h
 0.650708v 1.26262h 1.30142v -3.78787h 0.650708v 1.26262h 0.650708v -3.78787h 0.650708v 7.57575h 0.650708v 3.78787h 0.650708v -1.26262h 0.650708v -3.78787h 0.650708v 6.31312h 0.650708v -1.26262h 0.650708v -6.31312h 0.650708v 5.0505h 0.650708v
 1.26262h 0.650708v -2.52525h 0.650708v 1.26262h 1.30142v -3.78787h 0.650708v 5.0505h 0.650708v 5.0505h 0.650708v -10.101h 1.30142v 1.26262h 0.650708v 5.0505h 0.650708v -5.0505h 0.650708v 1.26262h 0.650708v 1.26262h 0.650708v -2.52525h 0.650708v
 2.52525h 0.650708v -5.0505h 0.650708v 8.83837h 0.650708v -6.31312h 0.650708v 3.78787h 0.650708v -6.31312h 0.650708v -2.52525h 0.650708v 5.0505h 0.650708v 2.52525h 0.650708v 1.26262h 0.650708v 1.26262h 0.650708v -3.78787h 1.30142v -5.0505h 0.650708v
 1.26262h 0.650708v 5.0505h 0.650708v -3.78787h 0.650708v 5.0505h 0.650708v -11.3636h 0.650708v 8.83837h 0.650708v 1.26262h 0.650708v 1.26262h 0.650708v 1.26262h 0.650708v -5.0505h 0.650708v 1.26262h 0.650708v -1.26262h 0.650708v -2.52525h 0.650708v
 2.52525h 0.650708v 3.78787h 0.650708v 3.78787h 0.650708v -5.0505h 0.650708v -3.78787h 0.650708v -1.26262h 0.650708v 10.101h 0.650708v -8.83837h 0.650708v 1.26262h 0.650708v 5.0505h 0.650708v -5.0505h 1.30142v 5.0505h 1.30142v -2.52525h 0.650708v
 3.78787h 0.650708v -1.26262h 0.650708v -2.52525h 0.650708v -5.0505h 0.650708v 1.26262h 0.650708v 6.31312h 1.30142v 1.26262h 0.650708v 2.52525h 0.650708v -1.26262h 0.650708v -1.26262h 0.650708v 2.52525h 0.650708v -1.26262h 0.650708v -2.52525h
 0.650708v 2.52525h 0.650708v 2.52525h 0.650708v -1.26262h 0.650708v -1.26262h 1.30142v 1.26262h 0.650708v 2.52525h 0.650708v -2.52525h 0.650708v 1.26262h 0.650708v -1.26262h 0.650708v -1.26262h 0.650708v 1.26262h 1.30142v 1.26262h 0.650708v
 -3.78787h 0.650708v 3.78787h 1.30142v -6.31312h 0.650708v 3.78787h 0.650708v 1.26262h 1.30142v 2.52525h 0.650708v -3.78787h 0.650708v 3.78787h 0.650708v -2.52525h 0.650708v 1.26262h 1.30142v -2.52525h 0.650708v 3.78787h 0.650708v -1.26262h 0.650708v
 -1.26262h 0.650708v 2.52525h 0.650708v -1.26262h 0.650708v -1.26262h 0.650708v 1.26262h 0.650708v -1.26262h 1.30142v 2.52525h 2.60283v -2.52525h 0.650708v 1.26262h 0.650708v 1.26262h 1.95212v -3.78787h 0.650708v 2.52525h 0.650708v -1.26262h
 0.650708v -2.52525h 0.650708v 3.78787h 2.60283v 1.26262h 2.60283v -1.26262h 1.30142v 1.26262h 0.650708v -1.26262h 0.650708v -1.26262h 1.95212v 2.52525h 2.60283v -1.26262h 0.650708v 1.26262h 0.650708v -1.26262h 0.650708v 1.26262h 1.30142v -1.26262h
 1.30142v 1.26262h 0.650708v -2.52525h 0.650708v 2.52525h 1.30142v -1.26262h 1.30142v 1.26262h 1.30142v -1.26262h 0.650708v 1.26262h 1.30142v -1.26262h 0.650708v -1.26262h 0.650708v 2.52525h 2.60283v -2.52525h 0.650708v 2.52525h 0.650708v -1.26262h
 0.650708v 1.26262h 1.30142v -1.26262h 0.650708v 1.26262h 1.30142v -1.26262h 1.95212v -1.26262h 0.650708v 2.52525h 0.650708v -1.26262h 1.30142v 1.26262h 0.650708v -1.26262h 0.650708v -1.26262h 0.650708v -1.26262h 0.650708v 1.26262h 0.650708v
 -2.52525h 0.650708v -61.8686h 0.650708v -195.707h 0.650708v -27.7777h 0.650708v -2.52525h 0.650708v 82.0706h 0.650708v 116.161h 0.650708v 15.1515h 0.650708v -5.0505h 0.650708v -7.57575h 0.650708v 12.6262h 1.30142v -25.2525h 0.650708v 17.6767h
 0.650708v 10.101h 0.650708v 16.4141h 0.650708v 27.7777h 0.650708v 20.202h 0.650708v 12.6262h 1.30142v -1.26262h 0.650708" fill="none" stroke="#000099"/>
<path d="M57.1929,346.022h 453.543" fill="none" stroke="black"/>
<path d="M57.8436,336.795v 9.22726" fill="none" stroke="black"/>
<path d="M79.5339,341.409v 4.61363" fill="none" stroke="black"/>
<path d="M101.224,341.409v 4.61363" fill="none" stroke="black"/>
<path d="M122.914,341.409v 4.61363" fill="none" stroke="black"/>
<path d="M144.605,341.409v 4.61363" fill="none" stroke="black"/>
<path d="M166.295,336.795v 9.22726" fill="none" stroke="black"/>
<path d="M187.985,341.409v 4.61363" fill="none" stroke="black"/>
<path d="M209.675,341.409v 4.61363" fill="none" stroke="black"/>
<path d="M231.366,341.409v 4.61363" fill="none" stroke="black"/>
<path d="M253.056,341.409v 4.61363" fill="none" stroke="black"/>
<path d="M274.746,336.795v 9.22726" fill="none" stroke="black"/>
<path d="M296.436,341.409v 4.61363" fill="none" stroke="black"/>
<path d="M318.127,341.409v 4.61363" fill="none" stroke="black"/>
<path d="M339.817,341.409v 4.61363" fill="none" stroke="black"/>
<path d="M361.507,341.409v 4.61363" fill="none" stroke="black"/>
<path d="M383.198,336.795v 9.22726" fill="none" stroke="black"/>
<path d="M404.888,341.409v 4.61363" fill="none" stroke="black"/>
<path d="M426.578,341.409v 4.61363" fill="none" stroke="black"/>
<path d="M448.268,341.409v 4.61363" fill="none" stroke="black"/>
<path d="M469.959,341.409v 4.61363" fill="none" stroke="black"/>
<path d="M491.649,336.795v 9.22726" fill="none" stroke="black"/>
<path d="M57.8436,336.795v 9.22726" fill="none" stroke="black"/>
<path d="M491.649,336.795v 9.22726" fill="none" stroke="black"/>
<text xml:space="preserve" x="54.2605" y="358.403" fill="black" font-size="12.8453" font-family="Helvetica">0</text>
<text xml:space="preserve" x="155.265" y="358.403" fill="black" font-size="12.8453" font-family="Helvetica">500</text>
<text xml:space="preserve" x="260.343" y="358.403" fill="black" font-size="12.8453" font-family="Helvetica">1000</text>
<text xml:space="preserve" x="368.678" y="358.403" fill="black" font-size="12.8453" font-family="Helvetica">1500</text>
<text xml:space="preserve" x="477.014" y="358.403" fill="black" font-size="12.8453" font-family="Helvetica">2000</text>
<text xml:space="preserve" x="451.763" y="372.251" fill="black" font-size="12.8453" font-family="Helvetica">ADC value</text>
<path d="M57.1929,346.022v -307.575" fill="none" stroke="black"/>
<path d="M70.7992,346.022h -13.6063" fill="none" stroke="black"/>
<path d="M63.9961,339.709h -6.80315" fill="none" stroke="black"/>
<path d="M63.9961,333.396h -6.80315" fill="none" stroke="black"/>
<path d="M63.9961,327.083h -6.80315" fill="none" stroke="black"/>
<path d="M70.7992,320.77h -13.6063" fill="none" stroke="black"/>
<path d="M63.9961,314.457h -6.80315" fill="none" stroke="black"/>
<path d="M63.9961,308.144h -6.80315" fill="none" stroke="black"/>
<path d="M63.9961,301.83h -6.80315" fill="none" stroke="black"/>
<path d="M70.7992,295.517h -13.6063" fill="none" stroke="black"/>
<path d="M63.9961,289.204h -6.80315" fill="none" stroke="black"/>
<path d="M63.9961,282.891h -6.80315" fill="none" stroke="black"/>
<path d="M63.9961,276.578h -6.80315" fill="none" stroke="black"/>
<path d="M70.7992,270.265h -13.6063" fill="none" stroke="black"/>
<path d="M63.9961,263.952h -6.80315" fill="none" stroke="black"/>
<path d="M63.9961,257.639h -6.80315" fill="none" stroke="black"/>
<path d="M63.9961,251.325h -6.80315" fill="none" stroke="black"/>
<path d="M70.7992,245.012h -13.6063" fill="none" stroke="black"/>
<path d="M63.9961,238.699h -6.80315" fill="none" stroke="black"/>
<path d="M63.9961,232.386h -6.80315" fill="none" stroke="black"/>
<path d="M63.9961,226.073h -6.80315" fill="none" stroke="black"/>
<path d="M70.7992,219.76h -13.6063" fill="none" stroke="black"/>
<path d="M63.9961,213.447h -6.80315" fill="none" stroke="black"/>
<path d="M63.9961,207.134h -6.80315" fill="none" stroke="black"/>
<path d="M63.9961,200.82h -6.80315" fill="none" stroke="black"/>
<path d="M70.7992,194.507h -13.6063" fill="none" stroke="black"/>
<path d="M63.9961,188.194h -6.80315" fill="none" stroke="black"/>
<path d="M63.9961,181.881h -6.80315" fill="none" stroke="black"/>
<path d="M63.9961,175.568h -6.80315" fill="none" stroke="black"/>
<path d="M70.7992,169.255h -13.6063" fill="none" stroke="black"/>
<path d="M63.9961,162.942h -6.80315" fill="none" stroke="black"/>
<path d="M63.9961,156.629h -6.80315" fill="none" stroke="black"/>
<path d="M63.9961,150.315h -6.80315" fill="none" stroke="black"/>
<path d="M70.7992,144.002h -13.6063" fill="none" stroke="black"/>
<path d="M63.9961,137.689h -6.80315" fill="none" stroke="black"/>
<path d="M63.9961,131.376h -6.80315" fill="none" stroke="black"/>
<path d="M63.9961,125.063h -6.80315" fill="none" stroke="black"/>
<path d="M70.7992,118.75h -13.6063" fill="none" stroke="black"/>
<path d="M63.9961,112.437h -6.80315" fill="none" stroke="black"/>
<path d="M63.9961,106.124h -6.80315" fill="none" stroke="black"/>
<path d="M63.9961,99.8105h -6.80315" fill="none" stroke="black"/>
<path d="M70.7992,93.4974h -13.6063" fill="none" stroke="black"/>
<path d="M63.9961,87.1842h -6.80315" fill="none" stroke="black"/>
<path d="M63.9961,80.8711h -6.80315" fill="none" stroke="black"/>
<path d="M63.9961,74.558h -6.80315" fill="none" stroke="black"/>
<path d="M70.7992,68.2449h -13.6063" fill="none" stroke="black"/>
<path d="M63.9961,61.9317h -6.80315" fill="none" stroke="black"/>
<path d="M63.9961,55.6186h -6.80315" fill="none" stroke="black"/>
<path d="M63.9961,49.3055h -6.80315" fill="none" stroke="black"/>
<path d="M70.7992,42.9924h -13.6063" fill="none" stroke="black"/>
<path d="M70.7992,42.9924h -13.6063" fill="none" stroke="black"/>
<text xml:space="preserve" x="47.7441" y="350.258" fill="black" font-size="12.8453" font-family="Helvetica">0</text>
<text xml:space="preserve" x="41.2277" y="325.007" fill="black" font-size="12.8453" font-family="Helvetica">20</text>
<text xml:space="preserve" x="41.2277" y="299.756" fill="black" font-size="12.8453" font-family="Helvetica">40</text>
<text xml:space="preserve" x="41.2277" y="274.504" fill="black" font-size="12.8453" font-family="Helvetica">60</text>
<text xml:space="preserve" x="41.2277" y="249.253" fill="black" font-size="12.8453" font-family="Helvetica">80</text>
<text xml:space="preserve" x="33.8967" y="224.002" fill="black" font-size="12.8453" font-family="Helvetica">100</text>
<text xml:space="preserve" x="33.8967" y="198.751" fill="black" font-size="12.8453" font-family="Helvetica">120</text>
<text xml:space="preserve" x="33.8967" y="173.5" fill="black" font-size="12.8453" font-family="Helvetica">140</text>
<text xml:space="preserve" x="33.8967" y="148.249" fill="black" font-size="12.8453" font-family="Helvetica">160</text>
<text xml:space="preserve" x="33.8967" y="122.998" fill="black" font-size="12.8453" font-family="Helvetica">180</text>
<text xml:space="preserve" x="33.8967" y="97.7464" fill="black" font-size="12.8453" font-family="Helvetica">200</text>
<text xml:space="preserve" x="33.8967" y="72.4952" fill="black" font-size="12.8453" font-family="Helvetica">220</text>
<text xml:space="preserve" x="33.8967" y="47.2441" fill="black" font-size="12.8453" font-family="Helvetica">240</text>
<g transform="rotate(-90,20.8638,70.0516)">
<text xml:space="preserve" x="20.8638" y="70.0516" fill="black" font-size="12.8453" font-family="Helvetica">Event</text>
</g>
<text xml:space="preserve" x="250.568" y="18.7347" fill="black" font-size="18.0316" font-family="Helvetica">Am_005</text>
<rect x="442.705" y="24.9905" width="113.386" height="61.5151" fill="white"/>
<path d="M442.705,86.5056h 113.386" fill="none" stroke="black"/>
<path d="M556.091,86.5056v -61.5151" fill="none" stroke="black"/>
<path d="M556.091,24.9905h -113.386" fill="none" stroke="black"/>
<path d="M442.705,24.9905v 61.5151" fill="none" stroke="black"/>
<text xml:space="preserve" x="474.57" y="36.6549" fill="black" font-size="13.4802" font-family="Helvetica">Am_005</text>
<path d="M442.705,40.3693h 113.386" fill="none" stroke="black"/>
<text xml:space="preserve" x="447.69" y="52.946" fill="black" font-size="12.7186" font-family="Helvetica">Entries </text>
<text xml:space="preserve" x="512.854" y="52.946" fill="black" font-size="12.7186" font-family="Helvetica"> 10216</text>
<text xml:space="preserve" x="447.69" y="67.6079" fill="black" font-size="12.7186" font-family="Helvetica">Mean  </text>
<text xml:space="preserve" x="512.854" y="67.6079" fill="black" font-size="12.7186" font-family="Helvetica">   1184</text>
<text xml:space="preserve" x="447.69" y="83.0844" fill="black" font-size="12.7186" font-family="Helvetica">Std Dev   </text>
<text xml:space="preserve" x="516.112" y="83.0844" fill="black" font-size="12.7186" font-family="Helvetica">    466</text>
<text xml:space="preserve" x="250.568" y="18.7347" fill="black" font-size="18.0316" font-family="Helvetica">Am_005</text></svg>
