<?xml version="1.0" standalone="no"?>
<svg width="567.429" height="384.969" viewBox="0 0 567.429 384.969" xmlns="http://www.w3.org/2000/svg" shape-rendering="crispEdges">
<title>
img/week1/plane_hist/Am_006.svg
</title>
<desc>
Creator: ROOT Version 6.22/09
CreationDate: Sun Jul 11 17:55:54 2021</desc>
<defs>
</defs>
<rect x="0.5" y="0" width="566.929" height="384.469" fill="white"/>
<rect x="57.1929" y="38.4469" width="453.543" height="307.575" fill="white"/>
<rect x="57.1929" y="38.4469" width="453.543" height="307.575" fill="none" stroke="black"/>
<path d="M57.1929,346.022h 12.9584v -152.257h 2.15973v -140.672h 2.15973v 131.404h 2.15973v 100.953h 2.15973v 12.5777h 2.15973v 11.2538h 2.15973v -4.30291h 2.15973v -6.95086h 2.15973v 8.27483h 2.15973v 0.992979h 2.15973v 10.2608h 2.15973v -13.2397h
 2.15973v -14.2327h 2.15973v -5.29589h 2.15973v -11.9158h 2.15973v 15.5567h 2.15973v -56.2688h 2.15973v -43.3601h 2.15973v -56.5998h 2.15973v 18.5356h 2.15973v 25.1555h 2.15973v 14.5637h 2.15973v 39.3882h 2.15973v 8.27483h 2.15973v 24.4935h 2.15973v
 14.2327h 2.15973v 20.5216h 2.15973v 8.27483h 2.15973v 9.26781h 2.15973v 10.5918h 2.15973v -15.8877h 2.15973v 0.330993h 2.15973v 8.93681h 2.15973v 13.2397h 2.15973v 6.61986h 2.15973v 2.31695h 2.15973v 2.31695h 2.15973v 0.330993h 2.15973v 0.992979h
 2.15973v -0.661986h 2.15973v -2.31695h 2.15973v 0.992979h 2.15973v -0.330993h 2.15973v 1.98596h 2.15973v -0.330993h 2.15973v -0.330993h 2.15973v 0.992979h 2.15973v -1.98596h 2.15973v 1.65497h 2.15973v -0.992979h 2.15973v -0.661986h 2.15973v 1.32397h
 2.15973v -1.65497h 2.15973v 0.661986h 2.15973v -0.992979h 2.15973v -1.98596h 2.15973v 1.65497h 2.15973v 1.98596h 2.15973v -1.98596h 2.15973v -2.64794h 2.15973v -0.330993h 2.15973v -1.65497h 4.31946v 0.330993h 2.15973v 0.661986h 4.31946v -0.330993h
 2.15973v 2.31695h 2.15973v -1.32397h 4.31946v 0.661986h 2.15973v 0.992979h 2.15973v -6.95086h 2.15973v -10.5918h 2.15973v -20.1906h 2.15973v -9.5988h 2.15973v 16.8806h 2.15973v -6.28887h 2.15973v 13.5707h 2.15973v 12.9087h 2.15973v 9.5988h 2.15973v
 3.64092h 2.15973v 0.992979h 2.15973v 0.992979h 2.15973v 0.330993h 8.63892v 0.330993h 4.31946v -0.992979h 2.15973v 0.992979h 2.15973v -0.330993h 4.31946v 0.330993h 2.15973v -0.330993h 2.15973v 0.330993h 2.15973v -0.661986h 2.15973v 0.330993h 6.47919v
 0.330993h 4.31946v -0.330993h 2.15973v 0.330993h 2.15973v -0.330993h 2.15973v 0.330993h 41.0349v -0.330993h 2.15973v 0.330993h 4.31946v -0.330993h 2.15973v 0.330993h 43.1946v -0.330993h 2.15973v 0.330993h 114.466v -0.330993h 2.15973" fill="none"
 stroke="#000099"/>
<path d="M57.1929,346.022h 453.543" fill="none" stroke="black"/>
<path d="M59.3526,336.795v 9.22726" fill="none" stroke="black"/>
<path d="M73.7508,341.409v 4.61363" fill="none" stroke="black"/>
<path d="M88.149,341.409v 4.61363" fill="none" stroke="black"/>
<path d="M102.547,341.409v 4.61363" fill="none" stroke="black"/>
<path d="M116.945,341.409v 4.61363" fill="none" stroke="black"/>
<path d="M131.344,336.795v 9.22726" fill="none" stroke="black"/>
<path d="M145.742,341.409v 4.61363" fill="none" stroke="black"/>
<path d="M160.14,341.409v 4.61363" fill="none" stroke="black"/>
<path d="M174.538,341.409v 4.61363" fill="none" stroke="black"/>
<path d="M188.936,341.409v 4.61363" fill="none" stroke="black"/>
<path d="M203.335,336.795v 9.22726" fill="none" stroke="black"/>
<path d="M217.733,341.409v 4.61363" fill="none" stroke="black"/>
<path d="M232.131,341.409v 4.61363" fill="none" stroke="black"/>
<path d="M246.529,341.409v 4.61363" fill="none" stroke="black"/>
<path d="M260.927,341.409v 4.61363" fill="none" stroke="black"/>
<path d="M275.326,336.795v 9.22726" fill="none" stroke="black"/>
<path d="M289.724,341.409v 4.61363" fill="none" stroke="black"/>
<path d="M304.122,341.409v 4.61363" fill="none" stroke="black"/>
<path d="M318.52,341.409v 4.61363" fill="none" stroke="black"/>
<path d="M332.918,341.409v 4.61363" fill="none" stroke="black"/>
<path d="M347.317,336.795v 9.22726" fill="none" stroke="black"/>
<path d="M361.715,341.409v 4.61363" fill="none" stroke="black"/>
<path d="M376.113,341.409v 4.61363" fill="none" stroke="black"/>
<path d="M390.511,341.409v 4.61363" fill="none" stroke="black"/>
<path d="M404.909,341.409v 4.61363" fill="none" stroke="black"/>
<path d="M419.308,336.795v 9.22726" fill="none" stroke="black"/>
<path d="M433.706,341.409v 4.61363" fill="none" stroke="black"/>
<path d="M448.104,341.409v 4.61363" fill="none" stroke="black"/>
<path d="M462.502,341.409v 4.61363" fill="none" stroke="black"/>
<path d="M476.9,341.409v 4.61363" fill="none" stroke="black"/>
<path d="M491.299,336.795v 9.22726" fill="none" stroke="black"/>
<path d="M59.3526,336.795v 9.22726" fill="none" stroke="black"/>
<path d="M491.299,336.795v 9.22726" fill="none" stroke="black"/>
<path d="M505.697,341.409v 4.61363" fill="none" stroke="black"/>
<text xml:space="preserve" x="55.8896" y="358.403" fill="black" font-size="12.8453" font-family="Helvetica">0</text>
<text xml:space="preserve" x="120.239" y="358.403" fill="black" font-size="12.8453" font-family="Helvetica">100</text>
<text xml:space="preserve" x="192.735" y="358.403" fill="black" font-size="12.8453" font-family="Helvetica">200</text>
<text xml:space="preserve" x="264.415" y="358.403" fill="black" font-size="12.8453" font-family="Helvetica">300</text>
<text xml:space="preserve" x="336.096" y="358.403" fill="black" font-size="12.8453" font-family="Helvetica">400</text>
<text xml:space="preserve" x="408.591" y="358.403" fill="black" font-size="12.8453" font-family="Helvetica">500</text>
<text xml:space="preserve" x="480.272" y="358.403" fill="black" font-size="12.8453" font-family="Helvetica">600</text>
<text xml:space="preserve" x="451.763" y="372.251" fill="black" font-size="12.8453" font-family="Helvetica">ADC value</text>
<path d="M57.1929,346.022v -307.575" fill="none" stroke="black"/>
<path d="M70.7992,346.022h -13.6063" fill="none" stroke="black"/>
<path d="M63.9961,339.402h -6.80315" fill="none" stroke="black"/>
<path d="M63.9961,332.783h -6.80315" fill="none" stroke="black"/>
<path d="M63.9961,326.163h -6.80315" fill="none" stroke="black"/>
<path d="M63.9961,319.543h -6.80315" fill="none" stroke="black"/>
<path d="M70.7992,312.923h -13.6063" fill="none" stroke="black"/>
<path d="M63.9961,306.303h -6.80315" fill="none" stroke="black"/>
<path d="M63.9961,299.683h -6.80315" fill="none" stroke="black"/>
<path d="M63.9961,293.063h -6.80315" fill="none" stroke="black"/>
<path d="M63.9961,286.444h -6.80315" fill="none" stroke="black"/>
<path d="M70.7992,279.824h -13.6063" fill="none" stroke="black"/>
<path d="M63.9961,273.204h -6.80315" fill="none" stroke="black"/>
<path d="M63.9961,266.584h -6.80315" fill="none" stroke="black"/>
<path d="M63.9961,259.964h -6.80315" fill="none" stroke="black"/>
<path d="M63.9961,253.344h -6.80315" fill="none" stroke="black"/>
<path d="M70.7992,246.724h -13.6063" fill="none" stroke="black"/>
<path d="M63.9961,240.104h -6.80315" fill="none" stroke="black"/>
<path d="M63.9961,233.485h -6.80315" fill="none" stroke="black"/>
<path d="M63.9961,226.865h -6.80315" fill="none" stroke="black"/>
<path d="M63.9961,220.245h -6.80315" fill="none" stroke="black"/>
<path d="M70.7992,213.625h -13.6063" fill="none" stroke="black"/>
<path d="M63.9961,207.005h -6.80315" fill="none" stroke="black"/>
<path d="M63.9961,200.385h -6.80315" fill="none" stroke="black"/>
<path d="M63.9961,193.765h -6.80315" fill="none" stroke="black"/>
<path d="M63.9961,187.146h -6.80315" fill="none" stroke="black"/>
<path d="M70.7992,180.526h -13.6063" fill="none" stroke="black"/>
<path d="M63.9961,173.906h -6.80315" fill="none" stroke="black"/>
<path d="M63.9961,167.286h -6.80315" fill="none" stroke="black"/>
<path d="M63.9961,160.666h -6.80315" fill="none" stroke="black"/>
<path d="M63.9961,154.046h -6.80315" fill="none" stroke="black"/>
<path d="M70.7992,147.426h -13.6063" fill="none" stroke="black"/>
<path d="M63.9961,140.807h -6.80315" fill="none" stroke="black"/>
<path d="M63.9961,134.187h -6.80315" fill="none" stroke="black"/>
<path d="M63.9961,127.567h -6.80315" fill="none" stroke="black"/>
<path d="M63.9961,120.947h -6.80315" fill="none" stroke="black"/>
<path d="M70.7992,114.327h -13.6063" fill="none" stroke="black"/>
<path d="M63.9961,107.707h -6.80315" fill="none" stroke="black"/>
<path d="M63.9961,101.087h -6.80315" fill="none" stroke="black"/>
<path d="M63.9961,94.4675h -6.80315" fill="none" stroke="black"/>
<path d="M63.9961,87.8476h -6.80315" fill="none" stroke="black"/>
<path d="M70.7992,81.2278h -13.6063" fill="none" stroke="black"/>
<path d="M63.9961,74.6079h -6.80315" fill="none" stroke="black"/>
<path d="M63.9961,67.9881h -6.80315" fill="none" stroke="black"/>
<path d="M63.9961,61.3682h -6.80315" fill="none" stroke="black"/>
<path d="M63.9961,54.7483h -6.80315" fill="none" stroke="black"/>
<path d="M70.7992,48.1285h -13.6063" fill="none" stroke="black"/>
<path d="M70.7992,48.1285h -13.6063" fill="none" stroke="black"/>
<path d="M63.9961,41.5086h -6.80315" fill="none" stroke="black"/>
<text xml:space="preserve" x="47.7441" y="350.258" fill="black" font-size="12.8453" font-family="Helvetica">0</text>
<text xml:space="preserve" x="33.8967" y="317.676" fill="black" font-size="12.8453" font-family="Helvetica">100</text>
<text xml:space="preserve" x="33.8967" y="284.279" fill="black" font-size="12.8453" font-family="Helvetica">200</text>
<text xml:space="preserve" x="33.8967" y="250.882" fill="black" font-size="12.8453" font-family="Helvetica">300</text>
<text xml:space="preserve" x="33.8967" y="218.3" fill="black" font-size="12.8453" font-family="Helvetica">400</text>
<text xml:space="preserve" x="33.8967" y="184.904" fill="black" font-size="12.8453" font-family="Helvetica">500</text>
<text xml:space="preserve" x="33.8967" y="151.507" fill="black" font-size="12.8453" font-family="Helvetica">600</text>
<text xml:space="preserve" x="33.8967" y="118.925" fill="black" font-size="12.8453" font-family="Helvetica">700</text>
<text xml:space="preserve" x="33.8967" y="85.5281" fill="black" font-size="12.8453" font-family="Helvetica">800</text>
<text xml:space="preserve" x="33.8967" y="52.946" fill="black" font-size="12.8453" font-family="Helvetica">900</text>
<g transform="rotate(-90,20.8638,70.0516)">
<text xml:space="preserve" x="20.8638" y="70.0516" fill="black" font-size="12.8453" font-family="Helvetica">Event</text>
</g>
<text xml:space="preserve" x="250.568" y="18.7347" fill="black" font-size="18.0316" font-family="Helvetica">Am_006</text>
<rect x="442.705" y="24.9905" width="113.386" height="61.5151" fill="white"/>
<path d="M442.705,86.5056h 113.386" fill="none" stroke="black"/>
<path d="M556.091,86.5056v -61.5151" fill="none" stroke="black"/>
<path d="M556.091,24.9905h -113.386" fill="none" stroke="black"/>
<path d="M442.705,24.9905v 61.5151" fill="none" stroke="black"/>
<text xml:space="preserve" x="474.57" y="36.6549" fill="black" font-size="13.4802" font-family="Helvetica">Am_006</text>
<path d="M442.705,40.3693h 113.386" fill="none" stroke="black"/>
<text xml:space="preserve" x="447.69" y="52.946" fill="black" font-size="12.7186" font-family="Helvetica">Entries </text>
<text xml:space="preserve" x="512.854" y="52.946" fill="black" font-size="12.7186" font-family="Helvetica"> 10045</text>
<text xml:space="preserve" x="447.69" y="67.6079" fill="black" font-size="12.7186" font-family="Helvetica">Mean  </text>
<text xml:space="preserve" x="515.298" y="67.6079" fill="black" font-size="12.7186" font-family="Helvetica">  81.71</text>
<text xml:space="preserve" x="447.69" y="83.0844" fill="black" font-size="12.7186" font-family="Helvetica">Std Dev   </text>
<text xml:space="preserve" x="516.927" y="83.0844" fill="black" font-size="12.7186" font-family="Helvetica">   62.9</text>
<text xml:space="preserve" x="250.568" y="18.7347" fill="black" font-size="18.0316" font-family="Helvetica">Am_006</text></svg>
