<?xml version="1.0" standalone="no"?>
<svg width="567.429" height="384.969" viewBox="0 0 567.429 384.969" xmlns="http://www.w3.org/2000/svg" shape-rendering="crispEdges">
<title>
img/week1/plane_hist/Am_007.svg
</title>
<desc>
Creator: ROOT Version 6.22/09
CreationDate: Fri Jul  2 19:46:36 2021</desc>
<defs>
</defs>
<rect x="0.5" y="0" width="566.929" height="384.469" fill="white"/>
<rect x="57.1929" y="38.4469" width="453.543" height="307.575" fill="white"/>
<rect x="57.1929" y="38.4469" width="453.543" height="307.575" fill="none" stroke="black"/>
<path d="M57.1929,346.022h 23.4744v -4.8418h 0.442913v -14.5254h 0.442913v 7.2627h 0.442913v 2.4209h 0.442913v -2.4209h 0.442913v -7.2627h 0.442913v -2.4209h 0.885827v 2.4209h 0.442913v 4.8418h 0.442913v -4.8418h 0.885827v 4.8418h 0.885827v -7.2627h
 0.442913v -4.8418h 0.885827v 9.6836h 0.442913v 12.1045h 0.442913v -12.1045h 0.442913v -2.4209h 0.442913v -12.1045h 0.442913v 19.3672h 0.442913v -12.1045h 0.442913v 4.8418h 0.442913v 12.1045h 0.442913v -14.5254h 0.442913v 4.8418h 0.442913v -2.4209h
 0.442913v 2.4209h 0.442913v -9.6836h 0.442913v 7.2627h 0.442913v 4.8418h 0.442913v 4.8418h 0.442913v -12.1045h 0.442913v -4.8418h 0.442913v 7.2627h 0.442913v 4.8418h 0.442913v -7.2627h 0.442913v 7.2627h 0.442913v -4.8418h 0.885827v 4.8418h 0.442913v
 -19.3672h 0.442913v 21.7881h 0.442913v -2.4209h 0.442913v -16.9463h 0.442913v -14.5254h 0.442913v 24.209h 0.885827v -2.4209h 0.442913v 7.2627h 0.442913v -19.3672h 0.442913v 12.1045h 0.442913v -14.5254h 0.442913v 2.4209h 0.442913v -14.5254h 0.442913v
 -4.8418h 0.442913v 16.9463h 0.442913v 14.5254h 0.442913v -33.8926h 0.442913v 29.0508h 0.442913v -33.8926h 0.442913v 12.1045h 0.442913v -16.9463h 0.442913v 16.9463h 0.442913v -31.4717h 0.442913v 24.209h 0.442913v -14.5254h 0.442913v 7.2627h 0.442913v
 -24.209h 0.442913v -38.7344h 0.442913v 36.3135h 0.442913v -16.9463h 0.442913v -4.8418h 0.442913v -7.2627h 0.442913v -41.1553h 0.442913v -38.7344h 0.442913v 70.2061h 0.442913v -65.3643h 0.442913v 16.9463h 0.442913v -60.5225h 0.442913v 67.7852h
 0.442913v -99.2569h 0.442913v 19.3672h 0.442913v 12.1045h 0.442913v -7.2627h 0.442913v -4.8418h 0.442913v -2.4209h 0.442913v -19.3672h 0.442913v 12.1045h 0.442913v 29.0508h 0.442913v -2.4209h 0.442913v 12.1045h 0.442913v -70.2061h 0.442913v 2.4209h
 0.442913v 31.4717h 0.442913v 45.9971h 0.442913v -24.209h 0.442913v -2.4209h 0.442913v 12.1045h 0.442913v 2.4209h 0.442913v -43.5762h 0.442913v 67.7852h 0.442913v -16.9463h 0.885827v 50.8389h 0.442913v -33.8926h 0.442913v -14.5254h 0.442913v 14.5254h
 0.442913v -53.2598h 0.442913v 45.9971h 0.442913v 21.7881h 0.442913v -7.2627h 0.442913v -75.0479h 0.442913v 55.6807h 0.442913v 12.1045h 0.442913v -19.3672h 0.442913v 14.5254h 0.442913v 33.8926h 0.442913v 36.3135h 0.442913v -43.5762h 0.442913v 4.8418h
 0.442913v -36.3135h 0.442913v 113.782h 0.442913v -53.2598h 0.442913v -16.9463h 0.442913v 50.8389h 0.442913v -9.6836h 0.442913v 24.209h 0.442913v -4.8418h 0.442913v -16.9463h 0.442913v 41.1553h 0.442913v -9.6836h 0.442913v 21.7881h 0.442913v
 -16.9463h 0.442913v 12.1045h 0.442913v 9.6836h 0.442913v -12.1045h 0.442913v -21.7881h 0.442913v -2.4209h 0.442913v 4.8418h 0.442913v -14.5254h 0.442913v 50.8389h 0.442913v -31.4717h 0.442913v 33.8926h 0.442913v -45.9971h 0.442913v 12.1045h
 0.442913v 21.7881h 0.442913v -31.4717h 0.442913v -19.3672h 0.442913v 41.1553h 0.442913v -4.8418h 0.442913v -21.7881h 0.442913v 29.0508h 0.442913v -4.8418h 0.442913v -26.6299h 0.442913v 50.8389h 0.442913v -26.6299h 0.442913v 19.3672h 0.442913v
 -19.3672h 0.442913v 33.8926h 0.442913v 4.8418h 0.442913v -16.9463h 0.442913v 16.9463h 0.442913v 2.4209h 0.442913v -9.6836h 0.442913v 21.7881h 0.442913v -16.9463h 0.442913v 9.6836h 0.442913v 21.7881h 0.442913v -9.6836h 0.885827v 7.2627h 0.885827v
 4.8418h 0.442913v 2.4209h 0.442913v -7.2627h 0.442913v 2.4209h 0.442913v 4.8418h 0.442913v 4.8418h 0.442913v -4.8418h 0.442913v 7.2627h 0.442913v -7.2627h 0.442913v -2.4209h 0.442913v 4.8418h 0.442913v 2.4209h 0.885827v -2.4209h 0.442913v 9.6836h
 0.442913v -21.7881h 0.442913v 7.2627h 0.442913v 2.4209h 0.442913v 4.8418h 0.442913v -2.4209h 0.442913v -9.6836h 0.442913v 7.2627h 0.442913v 7.2627h 0.442913v 2.4209h 0.442913v -2.4209h 0.442913v -7.2627h 0.442913v -4.8418h 0.442913v 12.1045h
 0.442913v -4.8418h 0.442913v -7.2627h 0.442913v 14.5254h 0.442913v -24.209h 0.442913v 14.5254h 0.442913v 2.4209h 0.885827v 2.4209h 0.442913v -12.1045h 0.442913v 2.4209h 0.442913v 14.5254h 0.442913v -4.8418h 0.442913v 7.2627h 0.885827v -7.2627h
 1.32874v -12.1045h 0.442913v 14.5254h 0.442913v -2.4209h 0.442913v 2.4209h 0.885827v 2.4209h 0.442913v -4.8418h 0.442913v 4.8418h 0.885827v -9.6836h 0.442913v 7.2627h 0.442913v -2.4209h 0.442913v 7.2627h 0.442913v -16.9463h 0.442913v 14.5254h
 0.442913v -4.8418h 0.442913v 4.8418h 0.442913v -4.8418h 0.442913v -4.8418h 0.442913v 4.8418h 0.442913v 2.4209h 0.442913v -2.4209h 0.885827v 2.4209h 1.32874v 2.4209h 0.442913v -4.8418h 0.442913v 2.4209h 0.885827v -4.8418h 0.442913v 4.8418h 0.442913v
 -2.4209h 0.442913v 2.4209h 0.885827v -7.2627h 0.442913v 12.1045h 0.442913v -19.3672h 0.442913v 7.2627h 0.442913v 9.6836h 0.885827v -7.2627h 0.442913v 2.4209h 0.885827v -4.8418h 0.442913v 4.8418h 0.442913v 2.4209h 0.442913v 4.8418h 0.442913v -7.2627h
 0.442913v -4.8418h 0.442913v 2.4209h 0.442913v 2.4209h 0.885827v 2.4209h 0.442913v -9.6836h 0.442913v 7.2627h 0.442913v 2.4209h 0.442913v -4.8418h 0.442913v 2.4209h 0.442913v -4.8418h 0.442913v 2.4209h 0.442913v 2.4209h 0.442913v 4.8418h 0.442913v
 -9.6836h 0.442913v 4.8418h 0.442913v -12.1045h 0.442913v 9.6836h 0.442913v -2.4209h 0.442913v 2.4209h 0.442913v -2.4209h 0.442913v -4.8418h 0.442913v 2.4209h 0.442913v 7.2627h 0.442913v -2.4209h 0.442913v 2.4209h 0.442913v -4.8418h 0.885827v
 -7.2627h 0.442913v 2.4209h 0.442913v 7.2627h 0.442913v 2.4209h 0.442913v -9.6836h 0.442913v 7.2627h 0.442913v 4.8418h 0.442913v -4.8418h 0.442913v -7.2627h 0.442913v 14.5254h 0.442913v -4.8418h 0.442913v 2.4209h 0.442913v -4.8418h 0.442913v 4.8418h
 0.442913v -16.9463h 0.442913v 9.6836h 0.442913v -21.7881h 0.442913v 12.1045h 0.885827v 7.2627h 0.442913v -7.2627h 0.442913v 2.4209h 0.442913v 4.8418h 0.442913v 2.4209h 0.442913v -21.7881h 0.442913v 9.6836h 0.442913v 2.4209h 0.442913v 2.4209h
 0.442913v 2.4209h 0.442913v -9.6836h 0.442913v -2.4209h 0.442913v -2.4209h 0.442913v 7.2627h 0.442913v 4.8418h 0.442913v -24.209h 0.442913v -2.4209h 0.442913v 19.3672h 0.442913v 7.2627h 0.442913v -21.7881h 0.442913v 9.6836h 0.442913v -9.6836h
 0.442913v 9.6836h 0.442913v -4.8418h 0.442913v 4.8418h 0.442913v -9.6836h 0.442913v 16.9463h 0.442913v -7.2627h 0.442913v 16.9463h 0.442913v -36.3135h 0.442913v 31.4717h 0.442913v -21.7881h 0.442913v 14.5254h 0.442913v 7.2627h 0.442913v -9.6836h
 0.442913v -19.3672h 0.442913v 24.209h 0.442913v -4.8418h 0.442913v 9.6836h 0.442913v -16.9463h 0.442913v 9.6836h 0.442913v 2.4209h 0.442913v -9.6836h 1.32874v 7.2627h 0.442913v 7.2627h 0.442913v -12.1045h 0.442913v 14.5254h 0.442913v -12.1045h
 0.442913v 4.8418h 0.442913v 2.4209h 0.442913v 2.4209h 0.442913v -9.6836h 0.442913v 21.7881h 0.442913v -19.3672h 0.442913v 4.8418h 0.442913v -21.7881h 0.442913v 19.3672h 0.442913v 14.5254h 0.442913v -4.8418h 0.442913v -24.209h 0.442913v 16.9463h
 0.442913v -4.8418h 0.885827v -21.7881h 0.442913v 29.0508h 0.442913v -16.9463h 0.442913v 2.4209h 0.442913v -7.2627h 0.442913v 14.5254h 0.442913v -29.0508h 0.442913v -7.2627h 0.442913v 19.3672h 0.885827v -24.209h 0.442913v -21.7881h 0.442913v 21.7881h
 0.442913v -7.2627h 0.442913v -53.2598h 0.442913v 45.9971h 0.442913v -58.1016h 0.442913v 31.4717h 0.442913v 9.6836h 0.442913v -38.7344h 0.442913v -26.6299h 0.442913v 24.209h 0.442913v -21.7881h 0.442913v -31.4717h 0.442913v 19.3672h 0.442913v 9.6836h
 0.442913v 7.2627h 0.442913v -33.8926h 0.442913v 12.1045h 0.442913v -21.7881h 0.442913v -38.7344h 0.442913v 50.8389h 0.442913v -29.0508h 0.442913v 4.8418h 0.442913v 41.1553h 0.442913v -50.8389h 0.442913v 38.7344h 0.442913v 2.4209h 0.442913v -7.2627h
 0.442913v 36.3135h 0.442913v 24.209h 0.442913v 9.6836h 0.442913v -36.3135h 0.442913v 41.1553h 0.442913v 21.7881h 0.442913v -14.5254h 0.442913v 26.6299h 0.442913v -16.9463h 0.442913v 26.6299h 0.442913v 19.3672h 0.442913v 7.2627h 0.442913v 4.8418h
 0.442913v 12.1045h 0.442913v 14.5254h 0.442913v -19.3672h 0.442913v 16.9463h 0.442913v -9.6836h 0.442913v -2.4209h 0.442913v 14.5254h 0.442913v 4.8418h 0.442913v 2.4209h 0.442913v -12.1045h 0.442913v 7.2627h 0.442913v 2.4209h 0.442913v 4.8418h
 2.21457v -4.8418h 0.442913v 4.8418h 0.885827v -2.4209h 0.442913v 2.4209h 0.442913v 2.4209h 0.442913v -9.6836h 0.442913v 9.6836h 0.442913v -2.4209h 0.442913v 2.4209h 0.442913v -4.8418h 0.885827v 2.4209h 0.885827v -2.4209h 0.442913v 2.4209h 0.442913v
 2.4209h 2.21457v -2.4209h 0.442913v 2.4209h 1.32874v -4.8418h 0.442913v 2.4209h 0.442913v 2.4209h 0.442913v -2.4209h 0.442913v 2.4209h 0.442913v -4.8418h 0.442913v 2.4209h 1.77165v 2.4209h 0.442913v -7.2627h 0.442913v 4.8418h 0.442913v 2.4209h
 0.442913v -4.8418h 0.442913v 2.4209h 0.442913v 2.4209h 0.442913v -2.4209h 0.885827v 2.4209h 0.442913v -4.8418h 0.442913v 4.8418h 0.885827v -2.4209h 0.885827v 2.4209h 1.77165v -2.4209h 0.885827v 2.4209h 0.442913v -4.8418h 0.885827v 2.4209h 0.442913v
 2.4209h 0.442913v -2.4209h 0.885827v 2.4209h 0.442913v -2.4209h 0.442913v 2.4209h 0.442913v -4.8418h 0.442913v 4.8418h 0.885827v -2.4209h 0.442913v 2.4209h 1.32874v -2.4209h 0.442913v 2.4209h 0.442913v -7.2627h 0.442913v 7.2627h 0.442913v -2.4209h
 0.442913v 2.4209h 0.885827v -2.4209h 0.442913v 2.4209h 0.885827v -2.4209h 0.442913v 2.4209h 0.442913v -2.4209h 0.442913v 2.4209h 0.885827v -2.4209h 0.442913v 2.4209h 0.442913v -2.4209h 0.885827v 2.4209h 2.21457v -4.8418h 0.442913v 2.4209h 0.442913v
 2.4209h 2.65748v -2.4209h 0.885827v 2.4209h 0.442913v -2.4209h 0.442913v 2.4209h 1.32874v -2.4209h 0.442913v 2.4209h 0.442913v -2.4209h 1.77165v 2.4209h 0.442913v -2.4209h 0.442913v 2.4209h 0.885827v -2.4209h 0.442913v 2.4209h 14.1732v -2.4209h
 0.442913v 2.4209h 4.87205v -2.4209h 0.442913v 2.4209h 4.42913v -2.4209h 0.442913v -2.4209h 1.32874v 2.4209h 1.32874v 2.4209h 0.442913v -2.4209h 0.442913v 2.4209h 147.933" fill="none" stroke="#000099"/>
<path d="M57.1929,346.022h 453.543" fill="none" stroke="black"/>
<path d="M57.1929,336.795v 9.22726" fill="none" stroke="black"/>
<path d="M71.9567,341.409v 4.61363" fill="none" stroke="black"/>
<path d="M86.7205,341.409v 4.61363" fill="none" stroke="black"/>
<path d="M101.484,341.409v 4.61363" fill="none" stroke="black"/>
<path d="M116.248,341.409v 4.61363" fill="none" stroke="black"/>
<path d="M131.012,336.795v 9.22726" fill="none" stroke="black"/>
<path d="M145.776,341.409v 4.61363" fill="none" stroke="black"/>
<path d="M160.539,341.409v 4.61363" fill="none" stroke="black"/>
<path d="M175.303,341.409v 4.61363" fill="none" stroke="black"/>
<path d="M190.067,341.409v 4.61363" fill="none" stroke="black"/>
<path d="M204.831,336.795v 9.22726" fill="none" stroke="black"/>
<path d="M219.594,341.409v 4.61363" fill="none" stroke="black"/>
<path d="M234.358,341.409v 4.61363" fill="none" stroke="black"/>
<path d="M249.122,341.409v 4.61363" fill="none" stroke="black"/>
<path d="M263.886,341.409v 4.61363" fill="none" stroke="black"/>
<path d="M278.65,336.795v 9.22726" fill="none" stroke="black"/>
<path d="M293.413,341.409v 4.61363" fill="none" stroke="black"/>
<path d="M308.177,341.409v 4.61363" fill="none" stroke="black"/>
<path d="M322.941,341.409v 4.61363" fill="none" stroke="black"/>
<path d="M337.705,341.409v 4.61363" fill="none" stroke="black"/>
<path d="M352.469,336.795v 9.22726" fill="none" stroke="black"/>
<path d="M367.232,341.409v 4.61363" fill="none" stroke="black"/>
<path d="M381.996,341.409v 4.61363" fill="none" stroke="black"/>
<path d="M396.76,341.409v 4.61363" fill="none" stroke="black"/>
<path d="M411.524,341.409v 4.61363" fill="none" stroke="black"/>
<path d="M426.287,336.795v 9.22726" fill="none" stroke="black"/>
<path d="M441.051,341.409v 4.61363" fill="none" stroke="black"/>
<path d="M455.815,341.409v 4.61363" fill="none" stroke="black"/>
<path d="M470.579,341.409v 4.61363" fill="none" stroke="black"/>
<path d="M485.343,341.409v 4.61363" fill="none" stroke="black"/>
<path d="M500.106,336.795v 9.22726" fill="none" stroke="black"/>
<path d="M500.106,336.795v 9.22726" fill="none" stroke="black"/>
<text xml:space="preserve" x="53.446" y="358.403" fill="black" font-size="12.8453" font-family="Helvetica">0</text>
<text xml:space="preserve" x="120.239" y="358.403" fill="black" font-size="12.8453" font-family="Helvetica">500</text>
<text xml:space="preserve" x="190.291" y="358.403" fill="black" font-size="12.8453" font-family="Helvetica">1000</text>
<text xml:space="preserve" x="264.415" y="358.403" fill="black" font-size="12.8453" font-family="Helvetica">1500</text>
<text xml:space="preserve" x="338.54" y="358.403" fill="black" font-size="12.8453" font-family="Helvetica">2000</text>
<text xml:space="preserve" x="411.849" y="358.403" fill="black" font-size="12.8453" font-family="Helvetica">2500</text>
<text xml:space="preserve" x="485.974" y="358.403" fill="black" font-size="12.8453" font-family="Helvetica">3000</text>
<text xml:space="preserve" x="451.763" y="372.251" fill="black" font-size="12.8453" font-family="Helvetica">ADC value</text>
<path d="M57.1929,346.022v -307.575" fill="none" stroke="black"/>
<path d="M70.7992,346.022h -13.6063" fill="none" stroke="black"/>
<path d="M63.9961,333.918h -6.80315" fill="none" stroke="black"/>
<path d="M63.9961,321.813h -6.80315" fill="none" stroke="black"/>
<path d="M63.9961,309.709h -6.80315" fill="none" stroke="black"/>
<path d="M70.7992,297.604h -13.6063" fill="none" stroke="black"/>
<path d="M63.9961,285.5h -6.80315" fill="none" stroke="black"/>
<path d="M63.9961,273.395h -6.80315" fill="none" stroke="black"/>
<path d="M63.9961,261.291h -6.80315" fill="none" stroke="black"/>
<path d="M70.7992,249.186h -13.6063" fill="none" stroke="black"/>
<path d="M63.9961,237.082h -6.80315" fill="none" stroke="black"/>
<path d="M63.9961,224.977h -6.80315" fill="none" stroke="black"/>
<path d="M63.9961,212.873h -6.80315" fill="none" stroke="black"/>
<path d="M70.7992,200.768h -13.6063" fill="none" stroke="black"/>
<path d="M63.9961,188.664h -6.80315" fill="none" stroke="black"/>
<path d="M63.9961,176.559h -6.80315" fill="none" stroke="black"/>
<path d="M63.9961,164.455h -6.80315" fill="none" stroke="black"/>
<path d="M70.7992,152.35h -13.6063" fill="none" stroke="black"/>
<path d="M63.9961,140.246h -6.80315" fill="none" stroke="black"/>
<path d="M63.9961,128.141h -6.80315" fill="none" stroke="black"/>
<path d="M63.9961,116.037h -6.80315" fill="none" stroke="black"/>
<path d="M70.7992,103.932h -13.6063" fill="none" stroke="black"/>
<path d="M63.9961,91.8278h -6.80315" fill="none" stroke="black"/>
<path d="M63.9961,79.7233h -6.80315" fill="none" stroke="black"/>
<path d="M63.9961,67.6188h -6.80315" fill="none" stroke="black"/>
<path d="M70.7992,55.5143h -13.6063" fill="none" stroke="black"/>
<path d="M70.7992,55.5143h -13.6063" fill="none" stroke="black"/>
<path d="M63.9961,43.4098h -6.80315" fill="none" stroke="black"/>
<text xml:space="preserve" x="47.7441" y="350.258" fill="black" font-size="12.8453" font-family="Helvetica">0</text>
<text xml:space="preserve" x="41.2277" y="302.199" fill="black" font-size="12.8453" font-family="Helvetica">20</text>
<text xml:space="preserve" x="41.2277" y="253.326" fill="black" font-size="12.8453" font-family="Helvetica">40</text>
<text xml:space="preserve" x="41.2277" y="205.267" fill="black" font-size="12.8453" font-family="Helvetica">60</text>
<text xml:space="preserve" x="41.2277" y="157.209" fill="black" font-size="12.8453" font-family="Helvetica">80</text>
<text xml:space="preserve" x="33.8967" y="108.336" fill="black" font-size="12.8453" font-family="Helvetica">100</text>
<text xml:space="preserve" x="33.8967" y="60.2769" fill="black" font-size="12.8453" font-family="Helvetica">120</text>
<g transform="rotate(-90,20.8638,70.0516)">
<text xml:space="preserve" x="20.8638" y="70.0516" fill="black" font-size="12.8453" font-family="Helvetica">Event</text>
</g>
<text xml:space="preserve" x="250.568" y="18.7347" fill="black" font-size="18.0316" font-family="Helvetica">Am_007</text>
<rect x="442.705" y="24.9905" width="113.386" height="61.5151" fill="white"/>
<path d="M442.705,86.5056h 113.386" fill="none" stroke="black"/>
<path d="M556.091,86.5056v -61.5151" fill="none" stroke="black"/>
<path d="M556.091,24.9905h -113.386" fill="none" stroke="black"/>
<path d="M442.705,24.9905v 61.5151" fill="none" stroke="black"/>
<text xml:space="preserve" x="474.57" y="36.6549" fill="black" font-size="13.4802" font-family="Helvetica">Am_007</text>
<path d="M442.705,40.3693h 113.386" fill="none" stroke="black"/>
<text xml:space="preserve" x="447.69" y="52.946" fill="black" font-size="12.7186" font-family="Helvetica">Entries </text>
<text xml:space="preserve" x="512.854" y="52.946" fill="black" font-size="12.7186" font-family="Helvetica"> 11066</text>
<text xml:space="preserve" x="447.69" y="67.6079" fill="black" font-size="12.7186" font-family="Helvetica">Mean  </text>
<text xml:space="preserve" x="515.298" y="67.6079" fill="black" font-size="12.7186" font-family="Helvetica">  769.1</text>
<text xml:space="preserve" x="447.69" y="83.0844" fill="black" font-size="12.7186" font-family="Helvetica">Std Dev   </text>
<text xml:space="preserve" x="512.854" y="83.0844" fill="black" font-size="12.7186" font-family="Helvetica">  422.9</text>
<text xml:space="preserve" x="250.568" y="18.7347" fill="black" font-size="18.0316" font-family="Helvetica">Am_007</text></svg>
