<?xml version="1.0" standalone="no"?>
<svg width="567.429" height="384.969" viewBox="0 0 567.429 384.969" xmlns="http://www.w3.org/2000/svg" shape-rendering="crispEdges">
<title>
img/week1/plane_hist/Am_003.svg
</title>
<desc>
Creator: ROOT Version 6.22/09
CreationDate: Sun Jul 11 17:55:41 2021</desc>
<defs>
</defs>
<rect x="0.5" y="0" width="566.929" height="384.469" fill="white"/>
<rect x="57.1929" y="38.4469" width="453.543" height="307.575" fill="white"/>
<rect x="57.1929" y="38.4469" width="453.543" height="307.575" fill="none" stroke="black"/>
<path d="M57.1929,346.022h 11.6293v -17.8911h 3.87644v -106.589h 3.87644v -168.449h 3.87644v 64.7415h 3.87644v 146.464h 3.87644v 44.2729h 3.87644v 26.5334h 3.87644v 5.76154h 3.87644v 1.21296h 3.87644v 0.606478h 3.87644v -0.606478h 3.87644v 0.454859h
 3.87644v 0.454859h 7.75288v -0.758098h 3.87644v -1.36458h 3.87644v 0.758098h 3.87644v -3.33563h 3.87644v 2.42591h 3.87644v -3.03239h 3.87644v -0.606478h 3.87644v -4.09373h 3.87644v -2.57753h 3.87644v 3.94211h 3.87644v -0.303239h 3.87644v -0.303239h
 3.87644v 1.21296h 3.87644v 5.4583h 3.87644v 0.15162h 3.87644v 0.303239h 3.87644v 0.909717h 3.87644v 1.66781h 3.87644v 0.758098h 7.75288v -1.66781h 3.87644v 1.36458h 3.87644v 0.758098h 3.87644v 0.606478h 3.87644v 0.15162h 3.87644v -0.303239h 3.87644v
 -0.15162h 3.87644v 0.909717h 3.87644v -0.15162h 3.87644v 0.303239h 3.87644v -0.15162h 3.87644v -0.15162h 3.87644v 0.15162h 3.87644v -0.303239h 3.87644v 0.454859h 3.87644v -0.454859h 11.6293v 0.303239h 15.5058v 0.15162h 3.87644v -0.15162h 3.87644v
 0.15162h 3.87644v -0.303239h 3.87644v 0.15162h 3.87644v -0.303239h 11.6293v 0.303239h 3.87644v -0.454859h 7.75288v -0.303239h 3.87644v 0.606478h 3.87644v -0.303239h 7.75288v 0.15162h 3.87644v -0.303239h 3.87644v 0.606478h 3.87644v -0.15162h 7.75288v
 -0.606478h 3.87644v 0.454859h 3.87644v -0.909717h 3.87644v 0.758098h 3.87644v -0.303239h 3.87644v -1.06134h 7.75288v 0.454859h 3.87644v -0.15162h 3.87644v 0.303239h 3.87644v 0.606478h 3.87644v 0.606478h 3.87644v 0.15162h 11.6293v -0.15162h 3.87644v
 0.15162h 15.5058v -0.15162h 3.87644v 0.15162h 62.023v -0.15162h 3.87644" fill="none" stroke="#000099"/>
<path d="M57.1929,346.022h 453.543" fill="none" stroke="black"/>
<path d="M61.0694,336.795v 9.22726" fill="none" stroke="black"/>
<path d="M73.9908,341.409v 4.61363" fill="none" stroke="black"/>
<path d="M86.9123,341.409v 4.61363" fill="none" stroke="black"/>
<path d="M99.8337,341.409v 4.61363" fill="none" stroke="black"/>
<path d="M112.755,341.409v 4.61363" fill="none" stroke="black"/>
<path d="M125.677,336.795v 9.22726" fill="none" stroke="black"/>
<path d="M138.598,341.409v 4.61363" fill="none" stroke="black"/>
<path d="M151.52,341.409v 4.61363" fill="none" stroke="black"/>
<path d="M164.441,341.409v 4.61363" fill="none" stroke="black"/>
<path d="M177.363,341.409v 4.61363" fill="none" stroke="black"/>
<path d="M190.284,336.795v 9.22726" fill="none" stroke="black"/>
<path d="M203.205,341.409v 4.61363" fill="none" stroke="black"/>
<path d="M216.127,341.409v 4.61363" fill="none" stroke="black"/>
<path d="M229.048,341.409v 4.61363" fill="none" stroke="black"/>
<path d="M241.97,341.409v 4.61363" fill="none" stroke="black"/>
<path d="M254.891,336.795v 9.22726" fill="none" stroke="black"/>
<path d="M267.813,341.409v 4.61363" fill="none" stroke="black"/>
<path d="M280.734,341.409v 4.61363" fill="none" stroke="black"/>
<path d="M293.656,341.409v 4.61363" fill="none" stroke="black"/>
<path d="M306.577,341.409v 4.61363" fill="none" stroke="black"/>
<path d="M319.499,336.795v 9.22726" fill="none" stroke="black"/>
<path d="M332.42,341.409v 4.61363" fill="none" stroke="black"/>
<path d="M345.342,341.409v 4.61363" fill="none" stroke="black"/>
<path d="M358.263,341.409v 4.61363" fill="none" stroke="black"/>
<path d="M371.184,341.409v 4.61363" fill="none" stroke="black"/>
<path d="M384.106,336.795v 9.22726" fill="none" stroke="black"/>
<path d="M397.027,341.409v 4.61363" fill="none" stroke="black"/>
<path d="M409.949,341.409v 4.61363" fill="none" stroke="black"/>
<path d="M422.87,341.409v 4.61363" fill="none" stroke="black"/>
<path d="M435.792,341.409v 4.61363" fill="none" stroke="black"/>
<path d="M448.713,336.795v 9.22726" fill="none" stroke="black"/>
<path d="M61.0694,336.795v 9.22726" fill="none" stroke="black"/>
<path d="M448.713,336.795v 9.22726" fill="none" stroke="black"/>
<path d="M461.635,341.409v 4.61363" fill="none" stroke="black"/>
<path d="M474.556,341.409v 4.61363" fill="none" stroke="black"/>
<path d="M487.478,341.409v 4.61363" fill="none" stroke="black"/>
<path d="M500.399,341.409v 4.61363" fill="none" stroke="black"/>
<text xml:space="preserve" x="57.5187" y="358.403" fill="black" font-size="12.8453" font-family="Helvetica">0</text>
<text xml:space="preserve" x="118.61" y="358.403" fill="black" font-size="12.8453" font-family="Helvetica">50</text>
<text xml:space="preserve" x="178.887" y="358.403" fill="black" font-size="12.8453" font-family="Helvetica">100</text>
<text xml:space="preserve" x="244.051" y="358.403" fill="black" font-size="12.8453" font-family="Helvetica">150</text>
<text xml:space="preserve" x="308.401" y="358.403" fill="black" font-size="12.8453" font-family="Helvetica">200</text>
<text xml:space="preserve" x="372.751" y="358.403" fill="black" font-size="12.8453" font-family="Helvetica">250</text>
<text xml:space="preserve" x="437.915" y="358.403" fill="black" font-size="12.8453" font-family="Helvetica">300</text>
<text xml:space="preserve" x="451.763" y="372.251" fill="black" font-size="12.8453" font-family="Helvetica">ADC value</text>
<path d="M57.1929,346.022v -307.575" fill="none" stroke="black"/>
<path d="M70.7992,346.022h -13.6063" fill="none" stroke="black"/>
<path d="M63.9961,338.441h -6.80315" fill="none" stroke="black"/>
<path d="M63.9961,330.86h -6.80315" fill="none" stroke="black"/>
<path d="M63.9961,323.279h -6.80315" fill="none" stroke="black"/>
<path d="M70.7992,315.698h -13.6063" fill="none" stroke="black"/>
<path d="M63.9961,308.117h -6.80315" fill="none" stroke="black"/>
<path d="M63.9961,300.536h -6.80315" fill="none" stroke="black"/>
<path d="M63.9961,292.955h -6.80315" fill="none" stroke="black"/>
<path d="M70.7992,285.374h -13.6063" fill="none" stroke="black"/>
<path d="M63.9961,277.793h -6.80315" fill="none" stroke="black"/>
<path d="M63.9961,270.212h -6.80315" fill="none" stroke="black"/>
<path d="M63.9961,262.632h -6.80315" fill="none" stroke="black"/>
<path d="M70.7992,255.051h -13.6063" fill="none" stroke="black"/>
<path d="M63.9961,247.47h -6.80315" fill="none" stroke="black"/>
<path d="M63.9961,239.889h -6.80315" fill="none" stroke="black"/>
<path d="M63.9961,232.308h -6.80315" fill="none" stroke="black"/>
<path d="M70.7992,224.727h -13.6063" fill="none" stroke="black"/>
<path d="M63.9961,217.146h -6.80315" fill="none" stroke="black"/>
<path d="M63.9961,209.565h -6.80315" fill="none" stroke="black"/>
<path d="M63.9961,201.984h -6.80315" fill="none" stroke="black"/>
<path d="M70.7992,194.403h -13.6063" fill="none" stroke="black"/>
<path d="M63.9961,186.822h -6.80315" fill="none" stroke="black"/>
<path d="M63.9961,179.241h -6.80315" fill="none" stroke="black"/>
<path d="M63.9961,171.66h -6.80315" fill="none" stroke="black"/>
<path d="M70.7992,164.079h -13.6063" fill="none" stroke="black"/>
<path d="M63.9961,156.498h -6.80315" fill="none" stroke="black"/>
<path d="M63.9961,148.917h -6.80315" fill="none" stroke="black"/>
<path d="M63.9961,141.336h -6.80315" fill="none" stroke="black"/>
<path d="M70.7992,133.755h -13.6063" fill="none" stroke="black"/>
<path d="M63.9961,126.174h -6.80315" fill="none" stroke="black"/>
<path d="M63.9961,118.593h -6.80315" fill="none" stroke="black"/>
<path d="M63.9961,111.012h -6.80315" fill="none" stroke="black"/>
<path d="M70.7992,103.431h -13.6063" fill="none" stroke="black"/>
<path d="M63.9961,95.8501h -6.80315" fill="none" stroke="black"/>
<path d="M63.9961,88.2691h -6.80315" fill="none" stroke="black"/>
<path d="M63.9961,80.6881h -6.80315" fill="none" stroke="black"/>
<path d="M70.7992,73.1071h -13.6063" fill="none" stroke="black"/>
<path d="M63.9961,65.5262h -6.80315" fill="none" stroke="black"/>
<path d="M63.9961,57.9452h -6.80315" fill="none" stroke="black"/>
<path d="M63.9961,50.3642h -6.80315" fill="none" stroke="black"/>
<path d="M70.7992,42.7832h -13.6063" fill="none" stroke="black"/>
<path d="M70.7992,42.7832h -13.6063" fill="none" stroke="black"/>
<text xml:space="preserve" x="47.7441" y="350.258" fill="black" font-size="12.8453" font-family="Helvetica">0</text>
<text xml:space="preserve" x="33.8967" y="320.119" fill="black" font-size="12.8453" font-family="Helvetica">200</text>
<text xml:space="preserve" x="33.8967" y="289.981" fill="black" font-size="12.8453" font-family="Helvetica">400</text>
<text xml:space="preserve" x="33.8967" y="259.843" fill="black" font-size="12.8453" font-family="Helvetica">600</text>
<text xml:space="preserve" x="33.8967" y="228.889" fill="black" font-size="12.8453" font-family="Helvetica">800</text>
<text xml:space="preserve" x="27.3803" y="198.751" fill="black" font-size="12.8453" font-family="Helvetica">1000</text>
<text xml:space="preserve" x="27.3803" y="168.613" fill="black" font-size="12.8453" font-family="Helvetica">1200</text>
<text xml:space="preserve" x="27.3803" y="138.474" fill="black" font-size="12.8453" font-family="Helvetica">1400</text>
<text xml:space="preserve" x="27.3803" y="107.521" fill="black" font-size="12.8453" font-family="Helvetica">1600</text>
<text xml:space="preserve" x="27.3803" y="77.3826" fill="black" font-size="12.8453" font-family="Helvetica">1800</text>
<text xml:space="preserve" x="27.3803" y="47.2441" fill="black" font-size="12.8453" font-family="Helvetica">2000</text>
<g transform="rotate(-90,14.3474,70.0516)">
<text xml:space="preserve" x="14.3474" y="70.0516" fill="black" font-size="12.8453" font-family="Helvetica">Event</text>
</g>
<text xml:space="preserve" x="250.568" y="18.7347" fill="black" font-size="18.0316" font-family="Helvetica">Am_003</text>
<rect x="442.705" y="24.9905" width="113.386" height="61.5151" fill="white"/>
<path d="M442.705,86.5056h 113.386" fill="none" stroke="black"/>
<path d="M556.091,86.5056v -61.5151" fill="none" stroke="black"/>
<path d="M556.091,24.9905h -113.386" fill="none" stroke="black"/>
<path d="M442.705,24.9905v 61.5151" fill="none" stroke="black"/>
<text xml:space="preserve" x="474.57" y="36.6549" fill="black" font-size="13.4802" font-family="Helvetica">Am_003</text>
<path d="M442.705,40.3693h 113.386" fill="none" stroke="black"/>
<text xml:space="preserve" x="447.69" y="52.946" fill="black" font-size="13.0654" font-family="Helvetica">Entries </text>
<text xml:space="preserve" x="517.741" y="52.946" fill="black" font-size="13.0654" font-family="Helvetica"> 6603</text>
<text xml:space="preserve" x="447.69" y="67.6079" fill="black" font-size="13.0654" font-family="Helvetica">Mean  </text>
<text xml:space="preserve" x="510.41" y="67.6079" fill="black" font-size="13.0654" font-family="Helvetica">  30.74</text>
<text xml:space="preserve" x="447.69" y="83.0844" fill="black" font-size="13.0654" font-family="Helvetica">Std Dev   </text>
<text xml:space="preserve" x="510.41" y="83.0844" fill="black" font-size="13.0654" font-family="Helvetica">  40.04</text>
<text xml:space="preserve" x="250.568" y="18.7347" fill="black" font-size="18.0316" font-family="Helvetica">Am_003</text></svg>
