<?xml version="1.0" standalone="no"?>
<svg width="567.429" height="384.969" viewBox="0 0 567.429 384.969" xmlns="http://www.w3.org/2000/svg" shape-rendering="crispEdges">
<title>
img/week1/plane_hist/Am_005.svg
</title>
<desc>
Creator: ROOT Version 6.22/09
CreationDate: Sun Jul 11 17:55:48 2021</desc>
<defs>
</defs>
<rect x="0.5" y="0" width="566.929" height="384.469" fill="white"/>
<rect x="57.1929" y="38.4469" width="453.543" height="307.575" fill="white"/>
<rect x="57.1929" y="38.4469" width="453.543" height="307.575" fill="none" stroke="black"/>
<path d="M57.1929,346.022h 67.6736v -4.98602h 0.650708v -1.24651h 0.650708v -16.2046h 0.650708v 9.97205h 0.650708v -7.47904h 0.650708v -8.72554h 0.650708v -2.49301h 0.650708v 19.9441h 0.650708v -2.49301h 0.650708v 4.98602h 0.650708v -8.72554h
 0.650708v 3.73952h 0.650708v 1.24651h 0.650708v -7.47904h 0.650708v 11.2186h 0.650708v -12.4651h 0.650708v 11.2186h 0.650708v 2.49301h 0.650708v -1.24651h 0.650708v -12.4651h 0.650708v 4.98602h 0.650708v 7.47904h 0.650708v -3.73952h 0.650708v
 1.24651h 0.650708v 3.73952h 0.650708v -1.24651h 0.650708v -1.24651h 0.650708v -2.49301h 0.650708v 3.73952h 0.650708v -11.2186h 0.650708v 12.4651h 0.650708v -4.98602h 0.650708v 6.23253h 0.650708v -3.73952h 0.650708v 1.24651h 1.30142v -8.72554h
 0.650708v 2.49301h 0.650708v 6.23253h 0.650708v -3.73952h 0.650708v -3.73952h 0.650708v 4.98602h 1.30142v 2.49301h 1.30142v 1.24651h 0.650708v -3.73952h 0.650708v 4.98602h 0.650708v -2.49301h 1.30142v -7.47904h 0.650708v 3.73952h 1.30142v 2.49301h
 0.650708v -2.49301h 0.650708v 2.49301h 0.650708v 2.49301h 0.650708v 2.49301h 0.650708v -9.97205h 0.650708v 8.72554h 0.650708v -6.23253h 0.650708v 7.47904h 0.650708v -9.97205h 0.650708v 7.47904h 0.650708v -6.23253h 0.650708v 3.73952h 0.650708v
 1.24651h 0.650708v -4.98602h 0.650708v 3.73952h 0.650708v -11.2186h 0.650708v 11.2186h 0.650708v 3.73952h 0.650708v -9.97205h 0.650708v 4.98602h 0.650708v -2.49301h 0.650708v 7.47904h 0.650708v -3.73952h 0.650708v -3.73952h 1.30142v -1.24651h
 0.650708v 2.49301h 0.650708v 3.73952h 0.650708v -7.47904h 0.650708v 8.72554h 0.650708v -3.73952h 0.650708v 1.24651h 1.30142v 3.73952h 0.650708v -8.72554h 0.650708v 6.23253h 0.650708v 4.98602h 0.650708v -14.9581h 0.650708v 6.23253h 0.650708v
 -7.47904h 0.650708v 7.47904h 0.650708v -6.23253h 0.650708v 3.73952h 0.650708v 4.98602h 0.650708v -2.49301h 0.650708v 8.72554h 0.650708v -19.9441h 0.650708v 13.7116h 0.650708v 1.24651h 0.650708v -1.24651h 0.650708v 1.24651h 0.650708v -4.98602h
 0.650708v 7.47904h 0.650708v -3.73952h 0.650708v 2.49301h 0.650708v -8.72554h 0.650708v 3.73952h 1.30142v 8.72554h 0.650708v -7.47904h 0.650708v 1.24651h 0.650708v -7.47904h 0.650708v 2.49301h 0.650708v -2.49301h 0.650708v 6.23253h 0.650708v
 2.49301h 0.650708v -4.98602h 0.650708v 8.72554h 0.650708v -4.98602h 0.650708v 3.73952h 0.650708v -3.73952h 0.650708v -3.73952h 0.650708v 3.73952h 0.650708v 2.49301h 0.650708v -1.24651h 0.650708v -1.24651h 1.30142v -7.47904h 0.650708v 1.24651h
 0.650708v 1.24651h 0.650708v 6.23253h 0.650708v 4.98602h 0.650708v -3.73952h 0.650708v -8.72554h 0.650708v 7.47904h 0.650708v -21.1906h 0.650708v 16.2046h 0.650708v -2.49301h 0.650708v -8.72554h 0.650708v 9.97205h 0.650708v -1.24651h 0.650708v
 3.73952h 1.30142v -8.72554h 0.650708v -1.24651h 0.650708v 2.49301h 0.650708v 7.47904h 0.650708v -8.72554h 0.650708v 3.73952h 0.650708v -9.97205h 0.650708v 19.9441h 0.650708v -13.7116h 0.650708v 6.23253h 0.650708v 3.73952h 0.650708v -1.24651h
 0.650708v -7.47904h 0.650708v -6.23253h 0.650708v 2.49301h 0.650708v 4.98602h 0.650708v -6.23253h 0.650708v -3.73952h 0.650708v 7.47904h 0.650708v -7.47904h 0.650708v 6.23253h 0.650708v -6.23253h 0.650708v 8.72554h 0.650708v -1.24651h 0.650708v
 4.98602h 0.650708v -3.73952h 0.650708v -8.72554h 0.650708v 3.73952h 1.30142v 11.2186h 0.650708v -11.2186h 1.30142v -1.24651h 0.650708v 3.73952h 0.650708v -7.47904h 0.650708v 6.23253h 0.650708v -3.73952h 0.650708v -4.98602h 0.650708v 3.73952h
 1.30142v 6.23253h 0.650708v -9.97205h 0.650708v 12.4651h 0.650708v 3.73952h 0.650708v -6.23253h 0.650708v -4.98602h 0.650708v 2.49301h 0.650708v 4.98602h 0.650708v -7.47904h 0.650708v -19.9441h 0.650708v 7.47904h 0.650708v 3.73952h 0.650708v
 11.2186h 0.650708v -13.7116h 0.650708v 9.97205h 0.650708v -3.73952h 0.650708v -6.23253h 0.650708v 2.49301h 1.30142v -16.2046h 0.650708v 12.4651h 0.650708v 7.47904h 0.650708v -9.97205h 0.650708v -7.47904h 1.30142v 6.23253h 0.650708v 4.98602h
 0.650708v -12.4651h 1.30142v -13.7116h 0.650708v 11.2186h 0.650708v -14.9581h 0.650708v 11.2186h 0.650708v -11.2186h 0.650708v 18.6976h 0.650708v 4.98602h 0.650708v -12.4651h 0.650708v 6.23253h 0.650708v -16.2046h 0.650708v 19.9441h 0.650708v
 -11.2186h 0.650708v -11.2186h 0.650708v 4.98602h 0.650708v -4.98602h 0.650708v 8.72554h 0.650708v -18.6976h 0.650708v 17.4511h 0.650708v 13.7116h 0.650708v -8.72554h 0.650708v 9.97205h 0.650708v -26.1766h 0.650708v 3.73952h 0.650708v 11.2186h
 0.650708v 18.6976h 0.650708v -22.4371h 0.650708v -17.4511h 0.650708v -3.73952h 0.650708v 12.4651h 0.650708v 11.2186h 0.650708v -9.97205h 0.650708v -8.72554h 0.650708v 9.97205h 0.650708v 23.6836h 0.650708v -16.2046h 0.650708v 9.97205h 0.650708v
 -21.1906h 0.650708v 17.4511h 0.650708v -6.23253h 0.650708v 1.24651h 0.650708v 6.23253h 0.650708v 7.47904h 0.650708v -9.97205h 0.650708v -13.7116h 0.650708v 8.72554h 0.650708v -6.23253h 0.650708v 21.1906h 0.650708v 2.49301h 0.650708v -13.7116h
 0.650708v 6.23253h 0.650708v -6.23253h 0.650708v 7.47904h 0.650708v -1.24651h 0.650708v 6.23253h 0.650708v -13.7116h 0.650708v 7.47904h 0.650708v 19.9441h 0.650708v -37.3952h 0.650708v 14.9581h 0.650708v 13.7116h 0.650708v -1.24651h 1.30142v
 1.24651h 0.650708v -17.4511h 0.650708v 21.1906h 0.650708v 4.98602h 0.650708v -12.4651h 0.650708v -4.98602h 0.650708v 16.2046h 0.650708v 8.72554h 0.650708v -8.72554h 0.650708v -13.7116h 0.650708v 2.49301h 0.650708v 2.49301h 0.650708v 17.4511h
 0.650708v -12.4651h 0.650708v 4.98602h 0.650708v -9.97205h 0.650708v 4.98602h 0.650708v 18.6976h 0.650708v -11.2186h 0.650708v -12.4651h 0.650708v 9.97205h 0.650708v -2.49301h 0.650708v -11.2186h 0.650708v 7.47904h 0.650708v 12.4651h 0.650708v
 -12.4651h 0.650708v 16.2046h 0.650708v -14.9581h 0.650708v 9.97205h 0.650708v -12.4651h 0.650708v 8.72554h 0.650708v 4.98602h 0.650708v -14.9581h 0.650708v 4.98602h 0.650708v 8.72554h 0.650708v 3.73952h 0.650708v -8.72554h 1.30142v -2.49301h
 0.650708v 12.4651h 0.650708v -12.4651h 0.650708v 7.47904h 0.650708v -12.4651h 0.650708v 12.4651h 0.650708v 9.97205h 0.650708v -11.2186h 0.650708v -2.49301h 0.650708v 3.73952h 0.650708v -3.73952h 0.650708v 11.2186h 0.650708v -4.98602h 0.650708v
 -7.47904h 0.650708v 12.4651h 1.30142v -7.47904h 0.650708v 9.97205h 0.650708v -7.47904h 0.650708v -1.24651h 0.650708v 3.73952h 0.650708v -2.49301h 0.650708v -7.47904h 0.650708v 12.4651h 0.650708v -4.98602h 0.650708v 13.7116h 0.650708v -17.4511h
 0.650708v 8.72554h 0.650708v -1.24651h 0.650708v 3.73952h 0.650708v -11.2186h 0.650708v 7.47904h 0.650708v -2.49301h 0.650708v 11.2186h 0.650708v -6.23253h 0.650708v 4.98602h 0.650708v -3.73952h 0.650708v -1.24651h 0.650708v 3.73952h 0.650708v
 -1.24651h 0.650708v -2.49301h 0.650708v -6.23253h 0.650708v 8.72554h 0.650708v 1.24651h 0.650708v -3.73952h 0.650708v 4.98602h 0.650708v -1.24651h 0.650708v 3.73952h 0.650708v 1.24651h 0.650708v -1.24651h 0.650708v -4.98602h 0.650708v 9.97205h
 0.650708v -4.98602h 0.650708v 1.24651h 0.650708v -1.24651h 0.650708v -3.73952h 0.650708v -3.73952h 0.650708v 2.49301h 0.650708v 1.24651h 0.650708v 1.24651h 1.30142v -3.73952h 0.650708v 1.24651h 0.650708v -2.49301h 0.650708v 6.23253h 0.650708v
 2.49301h 0.650708v -1.24651h 0.650708v -2.49301h 0.650708v 6.23253h 0.650708v -1.24651h 0.650708v -7.47904h 0.650708v 6.23253h 1.30142v -2.49301h 0.650708v 2.49301h 1.30142v -3.73952h 0.650708v 3.73952h 0.650708v 4.98602h 0.650708v -8.72554h
 1.30142v 1.24651h 0.650708v 4.98602h 0.650708v -4.98602h 0.650708v 1.24651h 0.650708v 1.24651h 0.650708v -1.24651h 1.30142v -3.73952h 0.650708v 8.72554h 0.650708v -6.23253h 0.650708v 2.49301h 0.650708v -4.98602h 0.650708v -2.49301h 0.650708v
 2.49301h 0.650708v 4.98602h 0.650708v 1.24651h 0.650708v 1.24651h 0.650708v -3.73952h 0.650708v -1.24651h 0.650708v -3.73952h 0.650708v 1.24651h 0.650708v 4.98602h 0.650708v -3.73952h 0.650708v 4.98602h 0.650708v -11.2186h 0.650708v 8.72554h
 0.650708v 1.24651h 0.650708v 1.24651h 0.650708v 1.24651h 0.650708v -4.98602h 0.650708v 1.24651h 0.650708v -1.24651h 0.650708v -2.49301h 0.650708v 1.24651h 0.650708v 4.98602h 0.650708v 3.73952h 0.650708v -4.98602h 0.650708v -3.73952h 0.650708v
 -1.24651h 0.650708v 9.97205h 0.650708v -8.72554h 0.650708v 1.24651h 0.650708v 4.98602h 0.650708v -4.98602h 1.30142v 4.98602h 0.650708v -1.24651h 0.650708v -1.24651h 0.650708v 3.73952h 0.650708v -1.24651h 0.650708v -2.49301h 0.650708v -4.98602h
 0.650708v 1.24651h 0.650708v 6.23253h 1.95212v 3.73952h 0.650708v -2.49301h 1.30142v 2.49301h 0.650708v -1.24651h 0.650708v -2.49301h 0.650708v 3.73952h 0.650708v 1.24651h 0.650708v -1.24651h 0.650708v -1.24651h 1.30142v 1.24651h 0.650708v 2.49301h
 0.650708v -2.49301h 0.650708v 1.24651h 0.650708v -1.24651h 0.650708v -1.24651h 0.650708v 1.24651h 1.30142v 1.24651h 0.650708v -3.73952h 0.650708v 2.49301h 0.650708v 1.24651h 0.650708v -6.23253h 0.650708v 3.73952h 0.650708v 1.24651h 0.650708v
 1.24651h 0.650708v 1.24651h 0.650708v -3.73952h 0.650708v 3.73952h 0.650708v -2.49301h 0.650708v 1.24651h 1.30142v -2.49301h 0.650708v 3.73952h 0.650708v -1.24651h 0.650708v -2.49301h 0.650708v 2.49301h 2.60283v -1.24651h 1.30142v 2.49301h 2.60283v
 -2.49301h 0.650708v 1.24651h 0.650708v 1.24651h 1.95212v -2.49301h 0.650708v 1.24651h 0.650708v -1.24651h 0.650708v -2.49301h 0.650708v 3.73952h 2.60283v 1.24651h 2.60283v -1.24651h 1.30142v 1.24651h 0.650708v -1.24651h 1.30142v -1.24651h 1.30142v
 2.49301h 2.60283v -1.24651h 0.650708v 1.24651h 0.650708v -1.24651h 0.650708v 1.24651h 1.30142v -2.49301h 0.650708v 1.24651h 0.650708v 1.24651h 0.650708v -2.49301h 0.650708v 2.49301h 1.30142v -1.24651h 1.30142v 1.24651h 1.30142v -1.24651h 0.650708v
 1.24651h 1.30142v -1.24651h 0.650708v -1.24651h 0.650708v 2.49301h 2.60283v -2.49301h 0.650708v 2.49301h 0.650708v -1.24651h 0.650708v 1.24651h 1.30142v -1.24651h 0.650708v 1.24651h 1.30142v -1.24651h 1.95212v -1.24651h 0.650708v 2.49301h 0.650708v
 -1.24651h 1.95212v -1.24651h 0.650708v 1.24651h 0.650708v -2.49301h 0.650708v 1.24651h 0.650708v -1.24651h 0.650708v -68.5578h 0.650708v -190.715h 0.650708v -24.9301h 0.650708v -4.98602h 0.650708v 83.5159h 0.650708v 114.679h 0.650708v 16.2046h
 0.650708v -8.72554h 0.650708v -3.73952h 0.650708v 12.4651h 0.650708v -1.24651h 0.650708v -28.6696h 0.650708v 21.1906h 0.650708v 7.47904h 0.650708v 19.9441h 0.650708v 27.4231h 0.650708v 19.9441h 0.650708v 12.4651h 1.30142v -1.24651h 0.650708"
 fill="none" stroke="#000099"/>
<path d="M57.1929,346.022h 453.543" fill="none" stroke="black"/>
<path d="M57.8436,336.795v 9.22726" fill="none" stroke="black"/>
<path d="M79.5339,341.409v 4.61363" fill="none" stroke="black"/>
<path d="M101.224,341.409v 4.61363" fill="none" stroke="black"/>
<path d="M122.914,341.409v 4.61363" fill="none" stroke="black"/>
<path d="M144.605,341.409v 4.61363" fill="none" stroke="black"/>
<path d="M166.295,336.795v 9.22726" fill="none" stroke="black"/>
<path d="M187.985,341.409v 4.61363" fill="none" stroke="black"/>
<path d="M209.675,341.409v 4.61363" fill="none" stroke="black"/>
<path d="M231.366,341.409v 4.61363" fill="none" stroke="black"/>
<path d="M253.056,341.409v 4.61363" fill="none" stroke="black"/>
<path d="M274.746,336.795v 9.22726" fill="none" stroke="black"/>
<path d="M296.436,341.409v 4.61363" fill="none" stroke="black"/>
<path d="M318.127,341.409v 4.61363" fill="none" stroke="black"/>
<path d="M339.817,341.409v 4.61363" fill="none" stroke="black"/>
<path d="M361.507,341.409v 4.61363" fill="none" stroke="black"/>
<path d="M383.198,336.795v 9.22726" fill="none" stroke="black"/>
<path d="M404.888,341.409v 4.61363" fill="none" stroke="black"/>
<path d="M426.578,341.409v 4.61363" fill="none" stroke="black"/>
<path d="M448.268,341.409v 4.61363" fill="none" stroke="black"/>
<path d="M469.959,341.409v 4.61363" fill="none" stroke="black"/>
<path d="M491.649,336.795v 9.22726" fill="none" stroke="black"/>
<path d="M57.8436,336.795v 9.22726" fill="none" stroke="black"/>
<path d="M491.649,336.795v 9.22726" fill="none" stroke="black"/>
<text xml:space="preserve" x="54.2605" y="358.403" fill="black" font-size="12.8453" font-family="Helvetica">0</text>
<text xml:space="preserve" x="155.265" y="358.403" fill="black" font-size="12.8453" font-family="Helvetica">500</text>
<text xml:space="preserve" x="260.343" y="358.403" fill="black" font-size="12.8453" font-family="Helvetica">1000</text>
<text xml:space="preserve" x="368.678" y="358.403" fill="black" font-size="12.8453" font-family="Helvetica">1500</text>
<text xml:space="preserve" x="477.014" y="358.403" fill="black" font-size="12.8453" font-family="Helvetica">2000</text>
<text xml:space="preserve" x="451.763" y="372.251" fill="black" font-size="12.8453" font-family="Helvetica">ADC value</text>
<path d="M57.1929,346.022v -307.575" fill="none" stroke="black"/>
<path d="M70.7992,346.022h -13.6063" fill="none" stroke="black"/>
<path d="M63.9961,339.79h -6.80315" fill="none" stroke="black"/>
<path d="M63.9961,333.557h -6.80315" fill="none" stroke="black"/>
<path d="M63.9961,327.325h -6.80315" fill="none" stroke="black"/>
<path d="M70.7992,321.092h -13.6063" fill="none" stroke="black"/>
<path d="M63.9961,314.86h -6.80315" fill="none" stroke="black"/>
<path d="M63.9961,308.627h -6.80315" fill="none" stroke="black"/>
<path d="M63.9961,302.395h -6.80315" fill="none" stroke="black"/>
<path d="M70.7992,296.162h -13.6063" fill="none" stroke="black"/>
<path d="M63.9961,289.929h -6.80315" fill="none" stroke="black"/>
<path d="M63.9961,283.697h -6.80315" fill="none" stroke="black"/>
<path d="M63.9961,277.464h -6.80315" fill="none" stroke="black"/>
<path d="M70.7992,271.232h -13.6063" fill="none" stroke="black"/>
<path d="M63.9961,264.999h -6.80315" fill="none" stroke="black"/>
<path d="M63.9961,258.767h -6.80315" fill="none" stroke="black"/>
<path d="M63.9961,252.534h -6.80315" fill="none" stroke="black"/>
<path d="M70.7992,246.302h -13.6063" fill="none" stroke="black"/>
<path d="M63.9961,240.069h -6.80315" fill="none" stroke="black"/>
<path d="M63.9961,233.837h -6.80315" fill="none" stroke="black"/>
<path d="M63.9961,227.604h -6.80315" fill="none" stroke="black"/>
<path d="M70.7992,221.372h -13.6063" fill="none" stroke="black"/>
<path d="M63.9961,215.139h -6.80315" fill="none" stroke="black"/>
<path d="M63.9961,208.907h -6.80315" fill="none" stroke="black"/>
<path d="M63.9961,202.674h -6.80315" fill="none" stroke="black"/>
<path d="M70.7992,196.442h -13.6063" fill="none" stroke="black"/>
<path d="M63.9961,190.209h -6.80315" fill="none" stroke="black"/>
<path d="M63.9961,183.976h -6.80315" fill="none" stroke="black"/>
<path d="M63.9961,177.744h -6.80315" fill="none" stroke="black"/>
<path d="M70.7992,171.511h -13.6063" fill="none" stroke="black"/>
<path d="M63.9961,165.279h -6.80315" fill="none" stroke="black"/>
<path d="M63.9961,159.046h -6.80315" fill="none" stroke="black"/>
<path d="M63.9961,152.814h -6.80315" fill="none" stroke="black"/>
<path d="M70.7992,146.581h -13.6063" fill="none" stroke="black"/>
<path d="M63.9961,140.349h -6.80315" fill="none" stroke="black"/>
<path d="M63.9961,134.116h -6.80315" fill="none" stroke="black"/>
<path d="M63.9961,127.884h -6.80315" fill="none" stroke="black"/>
<path d="M70.7992,121.651h -13.6063" fill="none" stroke="black"/>
<path d="M63.9961,115.419h -6.80315" fill="none" stroke="black"/>
<path d="M63.9961,109.186h -6.80315" fill="none" stroke="black"/>
<path d="M63.9961,102.954h -6.80315" fill="none" stroke="black"/>
<path d="M70.7992,96.7211h -13.6063" fill="none" stroke="black"/>
<path d="M63.9961,90.4885h -6.80315" fill="none" stroke="black"/>
<path d="M63.9961,84.256h -6.80315" fill="none" stroke="black"/>
<path d="M63.9961,78.0235h -6.80315" fill="none" stroke="black"/>
<path d="M70.7992,71.791h -13.6063" fill="none" stroke="black"/>
<path d="M63.9961,65.5584h -6.80315" fill="none" stroke="black"/>
<path d="M63.9961,59.3259h -6.80315" fill="none" stroke="black"/>
<path d="M63.9961,53.0934h -6.80315" fill="none" stroke="black"/>
<path d="M70.7992,46.8608h -13.6063" fill="none" stroke="black"/>
<path d="M70.7992,46.8608h -13.6063" fill="none" stroke="black"/>
<path d="M63.9961,40.6283h -6.80315" fill="none" stroke="black"/>
<text xml:space="preserve" x="47.7441" y="350.258" fill="black" font-size="12.8453" font-family="Helvetica">0</text>
<text xml:space="preserve" x="41.2277" y="325.821" fill="black" font-size="12.8453" font-family="Helvetica">20</text>
<text xml:space="preserve" x="41.2277" y="300.57" fill="black" font-size="12.8453" font-family="Helvetica">40</text>
<text xml:space="preserve" x="41.2277" y="275.319" fill="black" font-size="12.8453" font-family="Helvetica">60</text>
<text xml:space="preserve" x="41.2277" y="250.882" fill="black" font-size="12.8453" font-family="Helvetica">80</text>
<text xml:space="preserve" x="33.8967" y="225.631" fill="black" font-size="12.8453" font-family="Helvetica">100</text>
<text xml:space="preserve" x="33.8967" y="201.195" fill="black" font-size="12.8453" font-family="Helvetica">120</text>
<text xml:space="preserve" x="33.8967" y="175.944" fill="black" font-size="12.8453" font-family="Helvetica">140</text>
<text xml:space="preserve" x="33.8967" y="150.692" fill="black" font-size="12.8453" font-family="Helvetica">160</text>
<text xml:space="preserve" x="33.8967" y="126.256" fill="black" font-size="12.8453" font-family="Helvetica">180</text>
<text xml:space="preserve" x="33.8967" y="101.005" fill="black" font-size="12.8453" font-family="Helvetica">200</text>
<text xml:space="preserve" x="33.8967" y="76.568" fill="black" font-size="12.8453" font-family="Helvetica">220</text>
<text xml:space="preserve" x="33.8967" y="51.3169" fill="black" font-size="12.8453" font-family="Helvetica">240</text>
<g transform="rotate(-90,20.8638,70.0516)">
<text xml:space="preserve" x="20.8638" y="70.0516" fill="black" font-size="12.8453" font-family="Helvetica">Event</text>
</g>
<text xml:space="preserve" x="250.568" y="18.7347" fill="black" font-size="18.0316" font-family="Helvetica">Am_005</text>
<rect x="442.705" y="24.9905" width="113.386" height="61.5151" fill="white"/>
<path d="M442.705,86.5056h 113.386" fill="none" stroke="black"/>
<path d="M556.091,86.5056v -61.5151" fill="none" stroke="black"/>
<path d="M556.091,24.9905h -113.386" fill="none" stroke="black"/>
<path d="M442.705,24.9905v 61.5151" fill="none" stroke="black"/>
<text xml:space="preserve" x="474.57" y="36.6549" fill="black" font-size="13.4802" font-family="Helvetica">Am_005</text>
<path d="M442.705,40.3693h 113.386" fill="none" stroke="black"/>
<text xml:space="preserve" x="447.69" y="52.946" fill="black" font-size="12.7186" font-family="Helvetica">Entries </text>
<text xml:space="preserve" x="512.854" y="52.946" fill="black" font-size="12.7186" font-family="Helvetica"> 10216</text>
<text xml:space="preserve" x="447.69" y="67.6079" fill="black" font-size="12.7186" font-family="Helvetica">Mean  </text>
<text xml:space="preserve" x="512.854" y="67.6079" fill="black" font-size="12.7186" font-family="Helvetica">   1189</text>
<text xml:space="preserve" x="447.69" y="83.0844" fill="black" font-size="12.7186" font-family="Helvetica">Std Dev   </text>
<text xml:space="preserve" x="512.854" y="83.0844" fill="black" font-size="12.7186" font-family="Helvetica">  466.8</text>
<text xml:space="preserve" x="250.568" y="18.7347" fill="black" font-size="18.0316" font-family="Helvetica">Am_005</text></svg>
