<?xml version="1.0" standalone="no"?>
<svg width="567.429" height="384.68" viewBox="0 0 567.429 384.68" xmlns="http://www.w3.org/2000/svg" shape-rendering="crispEdges">
<title>
img/week1/plane_hist/Am_004.svg
</title>
<desc>
Creator: ROOT Version 6.22/09
CreationDate: Tue Jul 13 18:34:27 2021</desc>
<defs>
</defs>
<rect x="0.5" y="0" width="566.929" height="384.18" fill="white"/>
<rect x="57.1929" y="38.418" width="453.543" height="307.344" fill="white"/>
<rect x="57.1929" y="38.418" width="453.543" height="307.344" fill="none" stroke="black"/>
<path d="M57.1929,345.762h 18.512v -10.4539h 0.661142v -36.5886h 0.661142v -162.035h 0.661142v -15.6808h 0.661142v -67.9502h 0.661142v 20.9077h 0.661142v 5.22694h 0.661142v 20.9077h 0.661142v 52.2694h 0.661142v -52.2694h 0.661142v 10.4539h 0.661142v
 62.7232h 0.661142v -15.6808h 0.661142v 10.4539h 0.661142v 41.8155h 0.661142v -26.1347h 0.661142v 36.5886h 0.661142v -5.22694h 0.661142v 47.0424h 0.661142v -26.1347h 0.661142v 20.9077h 0.661142v 15.6808h 0.661142v 10.4539h 0.661142v -26.1347h
 0.661142v 26.1347h 0.661142v 5.22694h 0.661142v 10.4539h 0.661142v -5.22694h 0.661142v -5.22694h 0.661142v 20.9077h 0.661142v 10.4539h 0.661142v -10.4539h 0.661142v 15.6808h 0.661142v 5.22694h 0.661142v -5.22694h 0.661142v 15.6808h 1.32228v
 -10.4539h 1.32228v 10.4539h 0.661142v 5.22694h 1.32228v -10.4539h 0.661142v 5.22694h 0.661142v -5.22694h 0.661142v 10.4539h 1.98343v -5.22694h 0.661142v 5.22694h 1.32228v -5.22694h 1.32228v 5.22694h 3.30571v -5.22694h 0.661142v 5.22694h 1.98343v
 -5.22694h 0.661142v 5.22694h 0.661142v -5.22694h 0.661142v 5.22694h 1.32228v -5.22694h 0.661142v 5.22694h 4.62799v -5.22694h 1.32228v 5.22694h 1.32228v -5.22694h 0.661142v 5.22694h 2.64457v -5.22694h 0.661142v 5.22694h 2.64457v -15.6808h 0.661142v
 10.4539h 0.661142v 5.22694h 1.32228v -5.22694h 1.32228v 5.22694h 3.30571v -5.22694h 1.32228v 5.22694h 1.98343v -5.22694h 1.32228v 5.22694h 1.32228v -5.22694h 2.64457v 5.22694h 2.64457v -5.22694h 0.661142v 5.22694h 1.98343v -5.22694h 0.661142v
 5.22694h 0.661142v -5.22694h 0.661142v 5.22694h 1.32228v -5.22694h 1.32228v 5.22694h 0.661142v -5.22694h 0.661142v 5.22694h 0.661142v -5.22694h 1.32228v 5.22694h 3.30571v -5.22694h 1.32228v 5.22694h 1.98343v -5.22694h 0.661142v 5.22694h 1.32228v
 -5.22694h 0.661142v -5.22694h 0.661142v 10.4539h 1.98343v -5.22694h 0.661142v -5.22694h 0.661142v 10.4539h 0.661142v -5.22694h 0.661142v 5.22694h 0.661142v -10.4539h 0.661142v 10.4539h 1.32228v -5.22694h 0.661142v 5.22694h 1.32228v -5.22694h
 0.661142v 5.22694h 1.32228v -5.22694h 0.661142v 5.22694h 1.98343v -5.22694h 0.661142v 5.22694h 1.32228v -10.4539h 0.661142v 5.22694h 0.661142v 5.22694h 0.661142v -5.22694h 0.661142v 5.22694h 0.661142v -5.22694h 0.661142v 5.22694h 0.661142v -5.22694h
 0.661142v -10.4539h 0.661142v 15.6808h 0.661142v -5.22694h 0.661142v 5.22694h 0.661142v -5.22694h 0.661142v 5.22694h 0.661142v -10.4539h 1.98343v 5.22694h 0.661142v -20.9077h 0.661142v 26.1347h 0.661142v -5.22694h 0.661142v 5.22694h 0.661142v
 -10.4539h 0.661142v 5.22694h 1.32228v -5.22694h 0.661142v 5.22694h 0.661142v -10.4539h 0.661142v 10.4539h 0.661142v -5.22694h 0.661142v 5.22694h 0.661142v -5.22694h 0.661142v 10.4539h 0.661142v -5.22694h 0.661142v -10.4539h 0.661142v 10.4539h
 1.32228v -15.6808h 0.661142v 15.6808h 1.32228v -5.22694h 0.661142v -5.22694h 0.661142v -10.4539h 0.661142v 20.9077h 0.661142v 5.22694h 0.661142v -31.3616h 0.661142v 26.1347h 1.98343v -15.6808h 0.661142v 5.22694h 0.661142v -5.22694h 0.661142v
 15.6808h 0.661142v -5.22694h 0.661142v 10.4539h 0.661142v -10.4539h 0.661142v -5.22694h 0.661142v 15.6808h 0.661142v -10.4539h 1.32228v 5.22694h 1.32228v 5.22694h 0.661142v -10.4539h 0.661142v 10.4539h 0.661142v -10.4539h 0.661142v 5.22694h
 0.661142v 5.22694h 0.661142v -20.9077h 0.661142v 15.6808h 1.32228v 5.22694h 0.661142v -10.4539h 1.32228v 10.4539h 0.661142v -10.4539h 0.661142v -5.22694h 0.661142v 15.6808h 1.32228v -5.22694h 0.661142v -5.22694h 0.661142v 5.22694h 1.32228v -10.4539h
 0.661142v 10.4539h 0.661142v -5.22694h 0.661142v 10.4539h 0.661142v -5.22694h 0.661142v -20.9077h 0.661142v 20.9077h 1.32228v -10.4539h 0.661142v 15.6808h 1.32228v -5.22694h 1.32228v -5.22694h 0.661142v 5.22694h 1.98343v -5.22694h 1.32228v 5.22694h
 0.661142v -5.22694h 0.661142v 10.4539h 0.661142v -10.4539h 0.661142v 10.4539h 0.661142v -5.22694h 1.32228v 5.22694h 0.661142v -5.22694h 0.661142v 5.22694h 1.98343v -15.6808h 0.661142v 5.22694h 0.661142v 10.4539h 0.661142v -15.6808h 0.661142v
 15.6808h 3.30571v -5.22694h 0.661142v 5.22694h 0.661142v -5.22694h 0.661142v 5.22694h 0.661142v -5.22694h 1.98343v 5.22694h 4.62799v -5.22694h 0.661142v 5.22694h 1.98343v -5.22694h 1.98343v 5.22694h 3.30571v -5.22694h 0.661142v 5.22694h 2.64457v
 -10.4539h 0.661142v 10.4539h 7.27256v -5.22694h 0.661142v 5.22694h 0.661142v -5.22694h 0.661142v 5.22694h 0.661142v -10.4539h 0.661142v 5.22694h 0.661142v 5.22694h 15.8674v -5.22694h 0.661142v 5.22694h 1.32228v -5.22694h 0.661142v 5.22694h 17.1897v
 -5.22694h 0.661142v 5.22694h 6.61142v -5.22694h 0.661142v 5.22694h 52.8913v -5.22694h 0.661142v 5.22694h 44.9576v -5.22694h 0.661142v 5.22694h 19.1731v -5.22694h 0.661142v 5.22694h 27.1068v -5.22694h 0.661142v 5.22694h 11.2394v -10.4539h 0.661142v
 -10.4539h 0.661142v -20.9077h 0.661142v 15.6808h 1.32228v 10.4539h 0.661142v -20.9077h 0.661142v 31.3616h 1.32228" fill="none" stroke="#000099"/>
<path d="M57.1929,345.762h 453.543" fill="none" stroke="black"/>
<path d="M57.8541,336.541v 9.22031" fill="none" stroke="black"/>
<path d="M79.8921,341.152v 4.61016" fill="none" stroke="black"/>
<path d="M101.93,341.152v 4.61016" fill="none" stroke="black"/>
<path d="M123.968,341.152v 4.61016" fill="none" stroke="black"/>
<path d="M146.006,341.152v 4.61016" fill="none" stroke="black"/>
<path d="M168.044,336.541v 9.22031" fill="none" stroke="black"/>
<path d="M190.082,341.152v 4.61016" fill="none" stroke="black"/>
<path d="M212.12,341.152v 4.61016" fill="none" stroke="black"/>
<path d="M234.159,341.152v 4.61016" fill="none" stroke="black"/>
<path d="M256.197,341.152v 4.61016" fill="none" stroke="black"/>
<path d="M278.235,336.541v 9.22031" fill="none" stroke="black"/>
<path d="M300.273,341.152v 4.61016" fill="none" stroke="black"/>
<path d="M322.311,341.152v 4.61016" fill="none" stroke="black"/>
<path d="M344.349,341.152v 4.61016" fill="none" stroke="black"/>
<path d="M366.387,341.152v 4.61016" fill="none" stroke="black"/>
<path d="M388.425,336.541v 9.22031" fill="none" stroke="black"/>
<path d="M410.463,341.152v 4.61016" fill="none" stroke="black"/>
<path d="M432.501,341.152v 4.61016" fill="none" stroke="black"/>
<path d="M454.539,341.152v 4.61016" fill="none" stroke="black"/>
<path d="M476.577,341.152v 4.61016" fill="none" stroke="black"/>
<path d="M498.615,336.541v 9.22031" fill="none" stroke="black"/>
<path d="M57.8541,336.541v 9.22031" fill="none" stroke="black"/>
<path d="M498.615,336.541v 9.22031" fill="none" stroke="black"/>
<text xml:space="preserve" x="54.1065" y="358.189" fill="black" font-size="12.836" font-family="Helvetica">0</text>
<text xml:space="preserve" x="157.258" y="358.189" fill="black" font-size="12.836" font-family="Helvetica">500</text>
<text xml:space="preserve" x="263.659" y="358.189" fill="black" font-size="12.836" font-family="Helvetica">1000</text>
<text xml:space="preserve" x="374.121" y="358.189" fill="black" font-size="12.836" font-family="Helvetica">1500</text>
<text xml:space="preserve" x="484.583" y="358.189" fill="black" font-size="12.836" font-family="Helvetica">2000</text>
<text xml:space="preserve" x="452.094" y="371.996" fill="black" font-size="12.836" font-family="Helvetica">ADC value</text>
<path d="M57.1929,345.762v -307.344" fill="none" stroke="black"/>
<path d="M70.7992,345.762h -13.6063" fill="none" stroke="black"/>
<path d="M63.9961,335.308h -6.80315" fill="none" stroke="black"/>
<path d="M63.9961,324.854h -6.80315" fill="none" stroke="black"/>
<path d="M63.9961,314.4h -6.80315" fill="none" stroke="black"/>
<path d="M63.9961,303.946h -6.80315" fill="none" stroke="black"/>
<path d="M70.7992,293.492h -13.6063" fill="none" stroke="black"/>
<path d="M63.9961,283.039h -6.80315" fill="none" stroke="black"/>
<path d="M63.9961,272.585h -6.80315" fill="none" stroke="black"/>
<path d="M63.9961,262.131h -6.80315" fill="none" stroke="black"/>
<path d="M63.9961,251.677h -6.80315" fill="none" stroke="black"/>
<path d="M70.7992,241.223h -13.6063" fill="none" stroke="black"/>
<path d="M63.9961,230.769h -6.80315" fill="none" stroke="black"/>
<path d="M63.9961,220.315h -6.80315" fill="none" stroke="black"/>
<path d="M63.9961,209.861h -6.80315" fill="none" stroke="black"/>
<path d="M63.9961,199.408h -6.80315" fill="none" stroke="black"/>
<path d="M70.7992,188.954h -13.6063" fill="none" stroke="black"/>
<path d="M63.9961,178.5h -6.80315" fill="none" stroke="black"/>
<path d="M63.9961,168.046h -6.80315" fill="none" stroke="black"/>
<path d="M63.9961,157.592h -6.80315" fill="none" stroke="black"/>
<path d="M63.9961,147.138h -6.80315" fill="none" stroke="black"/>
<path d="M70.7992,136.684h -13.6063" fill="none" stroke="black"/>
<path d="M63.9961,126.23h -6.80315" fill="none" stroke="black"/>
<path d="M63.9961,115.777h -6.80315" fill="none" stroke="black"/>
<path d="M63.9961,105.323h -6.80315" fill="none" stroke="black"/>
<path d="M63.9961,94.8689h -6.80315" fill="none" stroke="black"/>
<path d="M70.7992,84.415h -13.6063" fill="none" stroke="black"/>
<path d="M70.7992,84.415h -13.6063" fill="none" stroke="black"/>
<path d="M63.9961,73.9611h -6.80315" fill="none" stroke="black"/>
<path d="M63.9961,63.5073h -6.80315" fill="none" stroke="black"/>
<path d="M63.9961,53.0534h -6.80315" fill="none" stroke="black"/>
<path d="M63.9961,42.5995h -6.80315" fill="none" stroke="black"/>
<text xml:space="preserve" x="47.6087" y="350.067" fill="black" font-size="12.836" font-family="Helvetica">0</text>
<text xml:space="preserve" x="41.111" y="298.085" fill="black" font-size="12.836" font-family="Helvetica">10</text>
<text xml:space="preserve" x="41.111" y="245.29" fill="black" font-size="12.836" font-family="Helvetica">20</text>
<text xml:space="preserve" x="41.111" y="193.308" fill="black" font-size="12.836" font-family="Helvetica">30</text>
<text xml:space="preserve" x="41.111" y="141.326" fill="black" font-size="12.836" font-family="Helvetica">40</text>
<text xml:space="preserve" x="41.111" y="88.5319" fill="black" font-size="12.836" font-family="Helvetica">50</text>
<g transform="rotate(-90,28.9277,69.8509)">
<text xml:space="preserve" x="28.9277" y="69.8509" fill="black" font-size="12.836" font-family="Helvetica">Event</text>
</g>
<text xml:space="preserve" x="250.664" y="18.681" fill="black" font-size="17.9813" font-family="Helvetica">Am_004</text>
<rect x="442.705" y="24.9717" width="113.386" height="61.4688" fill="white"/>
<path d="M442.705,86.4405h 113.386" fill="none" stroke="black"/>
<path d="M556.091,86.4405v -61.4688" fill="none" stroke="black"/>
<path d="M556.091,24.9717h -113.386" fill="none" stroke="black"/>
<path d="M442.705,24.9717v 61.4688" fill="none" stroke="black"/>
<text xml:space="preserve" x="474.836" y="36.5499" fill="black" font-size="13.4705" font-family="Helvetica">Am_004</text>
<path d="M442.705,40.3389h 113.386" fill="none" stroke="black"/>
<text xml:space="preserve" x="448.033" y="52.7943" fill="black" font-size="13.0884" font-family="Helvetica">Entries </text>
<text xml:space="preserve" x="517.884" y="52.7943" fill="black" font-size="13.0884" font-family="Helvetica"> 1108</text>
<text xml:space="preserve" x="448.033" y="68.2264" fill="black" font-size="13.0884" font-family="Helvetica">Mean  </text>
<text xml:space="preserve" x="510.574" y="68.2264" fill="black" font-size="13.0884" font-family="Helvetica">  316.8</text>
<text xml:space="preserve" x="448.033" y="82.8464" fill="black" font-size="13.0884" font-family="Helvetica">Std Dev   </text>
<text xml:space="preserve" x="510.574" y="83.6586" fill="black" font-size="13.0884" font-family="Helvetica">  422.2</text>
<text xml:space="preserve" x="250.664" y="18.681" fill="black" font-size="17.9813" font-family="Helvetica">Am_004</text></svg>
