<?xml version="1.0" standalone="no"?>
<svg width="567.429" height="384.969" viewBox="0 0 567.429 384.969" xmlns="http://www.w3.org/2000/svg" shape-rendering="crispEdges">
<title>
img/week1/plane_hist/Am_008.svg
</title>
<desc>
Creator: ROOT Version 6.22/09
CreationDate: Thu Jul  8 17:44:25 2021</desc>
<defs>
</defs>
<rect x="0.5" y="0" width="566.929" height="384.469" fill="white"/>
<rect x="57.1929" y="38.4469" width="453.543" height="307.575" fill="white"/>
<rect x="57.1929" y="38.4469" width="453.543" height="307.575" fill="none" stroke="black"/>
<path d="M57.1929,346.022h 74.4531v -0.906901h 0.620442v -0.906901h 0.620442v 0.906901h 0.620442v -0.906901h 0.620442v -1.8138h 0.620442v 2.7207h 1.86133v -0.906901h 0.620442v 0.906901h 0.620442v -0.906901h 0.620442v -3.6276h 0.620442v 4.5345h
 0.620442v -3.6276h 0.620442v 1.8138h 0.620442v 0.906901h 0.620442v 0.906901h 0.620442v -1.8138h 0.620442v 2.7207h 0.620442v -0.906901h 0.620442v -1.8138h 0.620442v -1.8138h 0.620442v 2.7207h 0.620442v -0.906901h 0.620442v 0.906901h 0.620442v 1.8138h
 0.620442v -0.906901h 0.620442v -2.7207h 1.24088v -0.906901h 0.620442v 0.906901h 0.620442v 2.7207h 0.620442v -2.7207h 0.620442v 3.6276h 0.620442v -1.8138h 0.620442v -1.8138h 0.620442v -0.906901h 0.620442v 2.7207h 0.620442v -0.906901h 0.620442v
 -0.906901h 0.620442v 0.906901h 0.620442v 1.8138h 0.620442v -0.906901h 0.620442v -0.906901h 0.620442v -1.8138h 0.620442v 2.7207h 0.620442v 1.8138h 0.620442v -1.8138h 0.620442v 1.8138h 1.24088v -0.906901h 1.86133v -0.906901h 0.620442v 0.906901h
 0.620442v -2.7207h 0.620442v 1.8138h 1.24088v -1.8138h 1.24088v 2.7207h 0.620442v -0.906901h 0.620442v -1.8138h 0.620442v 0.906901h 0.620442v 2.7207h 1.24088v -4.5345h 0.620442v 2.7207h 0.620442v -1.8138h 0.620442v -1.8138h 0.620442v 4.5345h
 0.620442v -2.7207h 0.620442v 1.8138h 1.24088v -0.906901h 0.620442v 0.906901h 0.620442v 0.906901h 0.620442v -0.906901h 1.24088v -0.906901h 1.86133v 2.7207h 0.620442v -2.7207h 0.620442v -2.7207h 0.620442v 4.5345h 0.620442v -3.6276h 0.620442v 3.6276h
 1.24088v -2.7207h 0.620442v 0.906901h 0.620442v -0.906901h 1.24088v 0.906901h 0.620442v -0.906901h 0.620442v 0.906901h 0.620442v -0.906901h 0.620442v -3.6276h 0.620442v 3.6276h 0.620442v -1.8138h 0.620442v 0.906901h 0.620442v 2.7207h 0.620442v
 1.8138h 0.620442v -5.4414h 0.620442v 1.8138h 0.620442v 2.7207h 0.620442v -0.906901h 0.620442v -4.5345h 0.620442v 3.6276h 1.24088v -2.7207h 1.24088v 2.7207h 0.620442v -0.906901h 0.620442v -1.8138h 0.620442v 0.906901h 0.620442v 4.5345h 0.620442v
 -2.7207h 1.24088v -3.6276h 0.620442v 1.8138h 0.620442v 2.7207h 0.620442v 0.906901h 0.620442v -4.5345h 0.620442v 2.7207h 0.620442v 1.8138h 0.620442v -2.7207h 1.24088v -2.7207h 1.24088v 3.6276h 0.620442v -3.6276h 0.620442v 2.7207h 0.620442v 0.906901h
 1.24088v -2.7207h 0.620442v 0.906901h 2.48177v -2.7207h 0.620442v 1.8138h 1.24088v 0.906901h 0.620442v -1.8138h 0.620442v -0.906901h 0.620442v 1.8138h 0.620442v 1.8138h 0.620442v -4.5345h 0.620442v 1.8138h 0.620442v 1.8138h 0.620442v 0.906901h
 0.620442v 1.8138h 0.620442v -5.4414h 0.620442v -2.7207h 0.620442v 5.4414h 0.620442v 0.906901h 0.620442v -1.8138h 0.620442v -3.6276h 0.620442v 2.7207h 0.620442v -0.906901h 0.620442v 1.8138h 0.620442v 0.906901h 0.620442v 0.906901h 0.620442v -5.4414h
 0.620442v 4.5345h 0.620442v -2.7207h 1.24088v 1.8138h 1.24088v 0.906901h 0.620442v -2.7207h 0.620442v 1.8138h 0.620442v -5.4414h 0.620442v -1.8138h 0.620442v -0.906901h 0.620442v -1.8138h 0.620442v 0.906901h 0.620442v 7.2552h 0.620442v -7.2552h
 0.620442v 6.3483h 0.620442v -4.5345h 0.620442v -2.7207h 0.620442v -1.8138h 0.620442v 4.5345h 0.620442v 0.906901h 0.620442v 6.3483h 0.620442v -11.7897h 0.620442v 0.906901h 1.24088v 7.2552h 0.620442v -8.16211h 0.620442v -4.5345h 0.620442v -3.6276h
 0.620442v 7.2552h 0.620442v 2.7207h 0.620442v -6.3483h 0.620442v -1.8138h 0.620442v 5.4414h 0.620442v 0.906901h 0.620442v -10.8828h 0.620442v 10.8828h 0.620442v 2.7207h 0.620442v -16.3242h 0.620442v 12.6966h 0.620442v -19.9518h 0.620442v 6.3483h
 0.620442v 0.906901h 0.620442v 9.06901h 0.620442v -13.6035h 0.620442v 3.6276h 0.620442v -4.5345h 0.620442v 3.6276h 0.620442v -0.906901h 0.620442v 1.8138h 0.620442v 10.8828h 0.620442v -11.7897h 0.620442v -15.4173h 0.620442v 4.5345h 0.620442v 5.4414h
 0.620442v -5.4414h 0.620442v -1.8138h 0.620442v 9.06901h 0.620442v 2.7207h 0.620442v 0.906901h 1.24088v -8.16211h 0.620442v 9.97591h 0.620442v -22.6725h 0.620442v 26.3001h 0.620442v -19.9518h 0.620442v 11.7897h 0.620442v 2.7207h 0.620442v -10.8828h
 0.620442v 2.7207h 0.620442v 3.6276h 0.620442v 2.7207h 0.620442v -1.8138h 0.620442v 1.8138h 0.620442v 4.5345h 0.620442v -5.4414h 0.620442v -9.97591h 0.620442v 18.138h 0.620442v -4.5345h 0.620442v -2.7207h 0.620442v 12.6966h 0.620442v -10.8828h
 0.620442v -1.8138h 0.620442v 6.3483h 0.620442v -10.8828h 0.620442v 9.06901h 0.620442v -3.6276h 0.620442v 5.4414h 0.620442v -7.2552h 1.24088v 9.97591h 0.620442v -7.2552h 0.620442v -0.906901h 1.24088v -12.6966h 0.620442v 18.138h 0.620442v -2.7207h
 0.620442v -1.8138h 0.620442v 10.8828h 0.620442v -13.6035h 0.620442v 1.8138h 0.620442v -2.7207h 1.24088v 16.3242h 0.620442v 2.7207h 0.620442v -15.4173h 0.620442v 2.7207h 0.620442v 3.6276h 0.620442v 1.8138h 0.620442v -9.06901h 0.620442v 4.5345h
 0.620442v 0.906901h 0.620442v 6.3483h 0.620442v -9.97591h 0.620442v 5.4414h 0.620442v -9.97591h 0.620442v 2.7207h 0.620442v 0.906901h 0.620442v 8.16211h 0.620442v -1.8138h 0.620442v 0.906901h 0.620442v -9.97591h 0.620442v 6.3483h 0.620442v 1.8138h
 0.620442v 3.6276h 0.620442v -4.5345h 0.620442v -5.4414h 0.620442v 10.8828h 0.620442v -16.3242h 0.620442v 11.7897h 0.620442v 6.3483h 0.620442v -5.4414h 0.620442v 1.8138h 0.620442v -3.6276h 0.620442v 2.7207h 0.620442v -15.4173h 0.620442v 26.3001h
 0.620442v -7.2552h 0.620442v -7.2552h 0.620442v 5.4414h 0.620442v -6.3483h 0.620442v 6.3483h 0.620442v 3.6276h 0.620442v -5.4414h 0.620442v 6.3483h 0.620442v 1.8138h 0.620442v -18.138h 0.620442v 15.4173h 0.620442v 1.8138h 0.620442v -13.6035h
 0.620442v 12.6966h 0.620442v -1.8138h 0.620442v -1.8138h 0.620442v -2.7207h 0.620442v 9.06901h 0.620442v 3.6276h 0.620442v -9.97591h 0.620442v 5.4414h 0.620442v -2.7207h 0.620442v 10.8828h 0.620442v -6.3483h 0.620442v 0.906901h 1.86133v 0.906901h
 0.620442v -3.6276h 0.620442v 10.8828h 0.620442v -12.6966h 0.620442v 7.2552h 0.620442v 0.906901h 1.24088v 1.8138h 0.620442v -4.5345h 0.620442v 5.4414h 0.620442v -7.2552h 0.620442v 4.5345h 0.620442v -7.2552h 0.620442v 7.2552h 0.620442v 1.8138h
 1.24088v 3.6276h 0.620442v -9.06901h 0.620442v 8.16211h 0.620442v -0.906901h 0.620442v -5.4414h 0.620442v -1.8138h 0.620442v 1.8138h 0.620442v 5.4414h 0.620442v -6.3483h 1.24088v 8.16211h 0.620442v -9.06901h 0.620442v 2.7207h 0.620442v 6.3483h
 0.620442v -2.7207h 0.620442v -12.6966h 0.620442v 7.2552h 1.24088v 0.906901h 0.620442v 3.6276h 0.620442v -3.6276h 0.620442v -2.7207h 0.620442v 5.4414h 0.620442v -6.3483h 0.620442v 2.7207h 0.620442v 2.7207h 0.620442v -4.5345h 0.620442v 0.906901h
 0.620442v 3.6276h 0.620442v -4.5345h 0.620442v -7.2552h 0.620442v 9.97591h 0.620442v 3.6276h 0.620442v -6.3483h 0.620442v 1.8138h 1.24088v 6.3483h 0.620442v -9.06901h 0.620442v 2.7207h 0.620442v -1.8138h 0.620442v 2.7207h 1.24088v -2.7207h 0.620442v
 7.2552h 0.620442v 0.906901h 0.620442v -6.3483h 0.620442v 0.906901h 1.24088v 0.906901h 0.620442v 1.8138h 0.620442v -3.6276h 0.620442v 2.7207h 0.620442v -2.7207h 0.620442v 5.4414h 0.620442v -0.906901h 0.620442v 1.8138h 0.620442v -2.7207h 0.620442v
 -3.6276h 0.620442v 7.2552h 0.620442v -1.8138h 0.620442v -3.6276h 0.620442v 4.5345h 0.620442v -4.5345h 0.620442v -1.8138h 0.620442v 5.4414h 0.620442v 2.7207h 0.620442v -1.8138h 0.620442v -1.8138h 1.24088v 7.2552h 0.620442v -1.8138h 0.620442v -1.8138h
 0.620442v 0.906901h 0.620442v -3.6276h 0.620442v 1.8138h 1.24088v 0.906901h 1.24088v 2.7207h 0.620442v -1.8138h 0.620442v -0.906901h 0.620442v 3.6276h 0.620442v -0.906901h 1.86133v 2.7207h 0.620442v -5.4414h 0.620442v 0.906901h 0.620442v 0.906901h
 0.620442v 1.8138h 0.620442v -5.4414h 0.620442v 4.5345h 0.620442v 1.8138h 0.620442v -1.8138h 1.24088v 1.8138h 0.620442v -0.906901h 0.620442v 0.906901h 0.620442v -0.906901h 0.620442v -3.6276h 0.620442v 4.5345h 0.620442v 0.906901h 0.620442v -1.8138h
 1.24088v 1.8138h 0.620442v -3.6276h 0.620442v 1.8138h 0.620442v 0.906901h 0.620442v -0.906901h 0.620442v 1.8138h 1.24088v -1.8138h 0.620442v 0.906901h 0.620442v 0.906901h 0.620442v -0.906901h 0.620442v -0.906901h 1.86133v 0.906901h 0.620442v
 0.906901h 0.620442v -0.906901h 0.620442v -1.8138h 0.620442v 0.906901h 0.620442v -0.906901h 0.620442v 2.7207h 0.620442v -0.906901h 0.620442v -1.8138h 0.620442v -0.906901h 0.620442v 1.8138h 1.24088v 1.8138h 0.620442v -1.8138h 0.620442v 0.906901h
 0.620442v -4.5345h 0.620442v 3.6276h 0.620442v -0.906901h 0.620442v 0.906901h 0.620442v 0.906901h 0.620442v 0.906901h 1.86133v -0.906901h 1.24088v -1.8138h 0.620442v 1.8138h 0.620442v 0.906901h 0.620442v -1.8138h 1.24088v 0.906901h 0.620442v
 -2.7207h 0.620442v 2.7207h 0.620442v -0.906901h 0.620442v 1.8138h 0.620442v -1.8138h 0.620442v 0.906901h 0.620442v 0.906901h 0.620442v -1.8138h 0.620442v 0.906901h 0.620442v -2.7207h 0.620442v 1.8138h 0.620442v 0.906901h 1.24088v -2.7207h 0.620442v
 2.7207h 1.24088v -1.8138h 1.24088v 2.7207h 1.24088v -0.906901h 1.24088v -0.906901h 2.48177v 0.906901h 0.620442v -0.906901h 0.620442v -1.8138h 0.620442v 1.8138h 0.620442v 0.906901h 0.620442v 0.906901h 0.620442v -0.906901h 1.24088v 0.906901h 0.620442v
 -0.906901h 0.620442v -1.8138h 0.620442v 1.8138h 0.620442v -0.906901h 0.620442v 1.8138h 0.620442v -0.906901h 0.620442v -0.906901h 0.620442v 0.906901h 0.620442v -0.906901h 0.620442v 1.8138h 0.620442v -3.6276h 0.620442v 3.6276h 0.620442v -1.8138h
 0.620442v 1.8138h 1.24088v -0.906901h 1.24088v 0.906901h 1.86133v -0.906901h 0.620442v 0.906901h 0.620442v -2.7207h 0.620442v 0.906901h 0.620442v 0.906901h 1.24088v -1.8138h 0.620442v -0.906901h 0.620442v 1.8138h 0.620442v -0.906901h 0.620442v
 1.8138h 0.620442v -1.8138h 0.620442v -0.906901h 0.620442v 0.906901h 0.620442v 0.906901h 0.620442v -2.7207h 0.620442v -4.5345h 0.620442v 1.8138h 1.24088v 0.906901h 0.620442v -11.7897h 0.620442v -9.97591h 0.620442v -44.4381h 0.620442v -66.2037h
 0.620442v -120.618h 0.620442v -33.5553h 0.620442v 7.2552h 0.620442v 19.9518h 0.620442v 38.0898h 0.620442v 31.7415h 0.620442v 12.6966h 0.620442v 4.5345h 0.620442v 27.207h 0.620442v -4.5345h 0.620442v -24.4863h 0.620442v 58.9485h 0.620442v 18.138h
 0.620442v 21.7656h 0.620442v 19.0449h 0.620442v 18.138h 0.620442v 18.138h 0.620442v 10.8828h 0.620442v 0.906901h 0.620442v -0.906901h 0.620442v 11.7897h 0.620442v 0.906901h 0.620442v -4.5345h 0.620442v 2.7207h 0.620442v -3.6276h 0.620442v 7.2552h
 1.86133v 0.906901h 0.620442v -1.8138h 0.620442v 0.906901h 0.620442v 0.906901h 3.72265v -0.906901h 0.620442" fill="none" stroke="#000099"/>
<path d="M57.1929,346.022h 453.543" fill="none" stroke="black"/>
<path d="M57.8134,336.795v 9.22726" fill="none" stroke="black"/>
<path d="M78.4948,341.409v 4.61363" fill="none" stroke="black"/>
<path d="M99.1762,341.409v 4.61363" fill="none" stroke="black"/>
<path d="M119.858,341.409v 4.61363" fill="none" stroke="black"/>
<path d="M140.539,341.409v 4.61363" fill="none" stroke="black"/>
<path d="M161.22,336.795v 9.22726" fill="none" stroke="black"/>
<path d="M181.902,341.409v 4.61363" fill="none" stroke="black"/>
<path d="M202.583,341.409v 4.61363" fill="none" stroke="black"/>
<path d="M223.265,341.409v 4.61363" fill="none" stroke="black"/>
<path d="M243.946,341.409v 4.61363" fill="none" stroke="black"/>
<path d="M264.627,336.795v 9.22726" fill="none" stroke="black"/>
<path d="M285.309,341.409v 4.61363" fill="none" stroke="black"/>
<path d="M305.99,341.409v 4.61363" fill="none" stroke="black"/>
<path d="M326.672,341.409v 4.61363" fill="none" stroke="black"/>
<path d="M347.353,341.409v 4.61363" fill="none" stroke="black"/>
<path d="M368.034,336.795v 9.22726" fill="none" stroke="black"/>
<path d="M388.716,341.409v 4.61363" fill="none" stroke="black"/>
<path d="M409.397,341.409v 4.61363" fill="none" stroke="black"/>
<path d="M430.079,341.409v 4.61363" fill="none" stroke="black"/>
<path d="M450.76,341.409v 4.61363" fill="none" stroke="black"/>
<path d="M471.442,336.795v 9.22726" fill="none" stroke="black"/>
<path d="M57.8134,336.795v 9.22726" fill="none" stroke="black"/>
<path d="M471.442,336.795v 9.22726" fill="none" stroke="black"/>
<path d="M492.123,341.409v 4.61363" fill="none" stroke="black"/>
<text xml:space="preserve" x="54.2605" y="358.403" fill="black" font-size="12.8453" font-family="Helvetica">0</text>
<text xml:space="preserve" x="150.378" y="358.403" fill="black" font-size="12.8453" font-family="Helvetica">500</text>
<text xml:space="preserve" x="250.568" y="358.403" fill="black" font-size="12.8453" font-family="Helvetica">1000</text>
<text xml:space="preserve" x="354.016" y="358.403" fill="black" font-size="12.8453" font-family="Helvetica">1500</text>
<text xml:space="preserve" x="457.464" y="358.403" fill="black" font-size="12.8453" font-family="Helvetica">2000</text>
<text xml:space="preserve" x="451.763" y="372.251" fill="black" font-size="12.8453" font-family="Helvetica">ADC value</text>
<path d="M57.1929,346.022v -307.575" fill="none" stroke="black"/>
<path d="M70.7992,346.022h -13.6063" fill="none" stroke="black"/>
<path d="M63.9961,336.953h -6.80315" fill="none" stroke="black"/>
<path d="M63.9961,327.884h -6.80315" fill="none" stroke="black"/>
<path d="M63.9961,318.815h -6.80315" fill="none" stroke="black"/>
<path d="M63.9961,309.746h -6.80315" fill="none" stroke="black"/>
<path d="M70.7992,300.677h -13.6063" fill="none" stroke="black"/>
<path d="M63.9961,291.608h -6.80315" fill="none" stroke="black"/>
<path d="M63.9961,282.539h -6.80315" fill="none" stroke="black"/>
<path d="M63.9961,273.47h -6.80315" fill="none" stroke="black"/>
<path d="M63.9961,264.401h -6.80315" fill="none" stroke="black"/>
<path d="M70.7992,255.332h -13.6063" fill="none" stroke="black"/>
<path d="M63.9961,246.263h -6.80315" fill="none" stroke="black"/>
<path d="M63.9961,237.194h -6.80315" fill="none" stroke="black"/>
<path d="M63.9961,228.125h -6.80315" fill="none" stroke="black"/>
<path d="M63.9961,219.056h -6.80315" fill="none" stroke="black"/>
<path d="M70.7992,209.987h -13.6063" fill="none" stroke="black"/>
<path d="M63.9961,200.918h -6.80315" fill="none" stroke="black"/>
<path d="M63.9961,191.849h -6.80315" fill="none" stroke="black"/>
<path d="M63.9961,182.78h -6.80315" fill="none" stroke="black"/>
<path d="M63.9961,173.711h -6.80315" fill="none" stroke="black"/>
<path d="M70.7992,164.642h -13.6063" fill="none" stroke="black"/>
<path d="M63.9961,155.573h -6.80315" fill="none" stroke="black"/>
<path d="M63.9961,146.504h -6.80315" fill="none" stroke="black"/>
<path d="M63.9961,137.435h -6.80315" fill="none" stroke="black"/>
<path d="M63.9961,128.366h -6.80315" fill="none" stroke="black"/>
<path d="M70.7992,119.297h -13.6063" fill="none" stroke="black"/>
<path d="M63.9961,110.228h -6.80315" fill="none" stroke="black"/>
<path d="M63.9961,101.159h -6.80315" fill="none" stroke="black"/>
<path d="M63.9961,92.0901h -6.80315" fill="none" stroke="black"/>
<path d="M63.9961,83.0211h -6.80315" fill="none" stroke="black"/>
<path d="M70.7992,73.9521h -13.6063" fill="none" stroke="black"/>
<path d="M70.7992,73.9521h -13.6063" fill="none" stroke="black"/>
<path d="M63.9961,64.8831h -6.80315" fill="none" stroke="black"/>
<path d="M63.9961,55.8141h -6.80315" fill="none" stroke="black"/>
<path d="M63.9961,46.7451h -6.80315" fill="none" stroke="black"/>
<text xml:space="preserve" x="47.7441" y="350.258" fill="black" font-size="12.8453" font-family="Helvetica">0</text>
<text xml:space="preserve" x="41.2277" y="305.457" fill="black" font-size="12.8453" font-family="Helvetica">50</text>
<text xml:space="preserve" x="33.8967" y="259.843" fill="black" font-size="12.8453" font-family="Helvetica">100</text>
<text xml:space="preserve" x="33.8967" y="214.228" fill="black" font-size="12.8453" font-family="Helvetica">150</text>
<text xml:space="preserve" x="33.8967" y="169.427" fill="black" font-size="12.8453" font-family="Helvetica">200</text>
<text xml:space="preserve" x="33.8967" y="123.812" fill="black" font-size="12.8453" font-family="Helvetica">250</text>
<text xml:space="preserve" x="33.8967" y="78.1971" fill="black" font-size="12.8453" font-family="Helvetica">300</text>
<g transform="rotate(-90,20.8638,70.0516)">
<text xml:space="preserve" x="20.8638" y="70.0516" fill="black" font-size="12.8453" font-family="Helvetica">Event</text>
</g>
<text xml:space="preserve" x="250.568" y="18.7347" fill="black" font-size="18.0316" font-family="Helvetica">Am_008</text>
<rect x="442.705" y="24.9905" width="113.386" height="61.5151" fill="white"/>
<path d="M442.705,86.5056h 113.386" fill="none" stroke="black"/>
<path d="M556.091,86.5056v -61.5151" fill="none" stroke="black"/>
<path d="M556.091,24.9905h -113.386" fill="none" stroke="black"/>
<path d="M442.705,24.9905v 61.5151" fill="none" stroke="black"/>
<text xml:space="preserve" x="474.57" y="36.6549" fill="black" font-size="13.4802" font-family="Helvetica">Am_008</text>
<path d="M442.705,40.3693h 113.386" fill="none" stroke="black"/>
<text xml:space="preserve" x="447.69" y="52.946" fill="black" font-size="12.7186" font-family="Helvetica">Entries </text>
<text xml:space="preserve" x="512.854" y="52.946" fill="black" font-size="12.7186" font-family="Helvetica"> 10177</text>
<text xml:space="preserve" x="447.69" y="67.6079" fill="black" font-size="12.7186" font-family="Helvetica">Mean  </text>
<text xml:space="preserve" x="512.854" y="67.6079" fill="black" font-size="12.7186" font-family="Helvetica">   1482</text>
<text xml:space="preserve" x="447.69" y="83.0844" fill="black" font-size="12.7186" font-family="Helvetica">Std Dev   </text>
<text xml:space="preserve" x="515.298" y="83.0844" fill="black" font-size="12.7186" font-family="Helvetica">  493.1</text>
<text xml:space="preserve" x="250.568" y="18.7347" fill="black" font-size="18.0316" font-family="Helvetica">Am_008</text></svg>
