<?xml version="1.0" standalone="no"?>
<svg width="567.429" height="384.969" viewBox="0 0 567.429 384.969" xmlns="http://www.w3.org/2000/svg" shape-rendering="crispEdges">
<title>
img/week1/plane_hist/Am_003.svg
</title>
<desc>
Creator: ROOT Version 6.22/09
CreationDate: Fri Jul  2 21:16:58 2021</desc>
<defs>
</defs>
<rect x="0.5" y="0" width="566.929" height="384.469" fill="white"/>
<rect x="57.1929" y="38.4469" width="453.543" height="307.575" fill="white"/>
<rect x="57.1929" y="38.4469" width="453.543" height="307.575" fill="none" stroke="black"/>
<path d="M57.1929,346.022h 15.8582v -3.34776h 3.17163v -169.899h 3.17163v -19.2496h 3.17163v 46.0317h 3.17163v 95.4111h 3.17163v 26.7821h 3.17163v 6.69552h 3.17163v 5.02164h 3.17163v -2.51082h 3.17163v -9.20634h 6.34326v 3.34776h 3.17163v -5.02164h
 3.17163v -4.1847h 3.17163v -8.3694h 3.17163v -12.5541h 3.17163v 1.67388h 3.17163v -34.3145h 3.17163v -38.4992h 3.17163v -81.1832h 3.17163v 10.0433h 3.17163v -52.7272h 3.17163v -37.6623h 3.17163v -9.20634h 3.17163v 59.4227h 3.17163v 96.2481h 3.17163v
 -49.3794h 3.17163v 20.9235h 3.17163v 31.8037h 3.17163v 47.7056h 3.17163v -4.1847h 3.17163v -17.5757h 3.17163v 26.7821h 3.17163v -10.0433h 3.17163v 41.01h 3.17163v -4.1847h 3.17163v 15.0649h 3.17163v 14.228h 3.17163v 10.0433h 3.17163v 5.02164h
 3.17163v -3.34776h 3.17163v 3.34776h 3.17163v 5.02164h 3.17163v -1.67388h 3.17163v 1.67388h 3.17163v -7.53246h 3.17163v 4.1847h 6.34326v 1.67388h 6.34326v 0.83694h 3.17163v -2.51082h 3.17163v 4.1847h 3.17163v 2.51082h 3.17163v -10.8802h 3.17163v
 5.85858h 3.17163v -6.69552h 3.17163v 5.02164h 3.17163v -4.1847h 3.17163v -4.1847h 3.17163v -2.51082h 3.17163v 5.02164h 3.17163v -7.53246h 3.17163v -5.85858h 3.17163v -4.1847h 3.17163v 0.83694h 3.17163v -10.8802h 3.17163v 13.391h 3.17163v -4.1847h
 3.17163v 1.67388h 3.17163v -4.1847h 3.17163v 13.391h 3.17163v 2.51082h 3.17163v -9.20634h 3.17163v -5.02164h 3.17163v -13.391h 3.17163v -20.9235h 3.17163v -60.2597h 3.17163v -65.2813h 3.17163v 22.5974h 3.17163v 43.5209h 3.17163v -30.1298h 3.17163v
 56.9119h 3.17163v 54.4011h 3.17163v 20.9235h 3.17163v 18.4127h 3.17163v 0.83694h 3.17163v 2.51082h 3.17163v 1.67388h 3.17163v 1.67388h 6.34326v -0.83694h 3.17163v -0.83694h 3.17163v -2.51082h 3.17163v 4.1847h 3.17163v -2.51082h 3.17163v 2.51082h
 6.34326v -2.51082h 3.17163v 2.51082h 3.17163v -1.67388h 3.17163v 1.67388h 3.17163v -1.67388h 3.17163v 0.83694h 6.34326v 0.83694h 6.34326v -0.83694h 6.34326v 0.83694h 3.17163v -0.83694h 3.17163v 0.83694h 6.34326v -0.83694h 3.17163v 0.83694h 72.9475v
 -0.83694h 3.17163" fill="none" stroke="#000099"/>
<path d="M57.1929,346.022h 453.543" fill="none" stroke="black"/>
<path d="M60.3645,336.795v 9.22726" fill="none" stroke="black"/>
<path d="M70.9367,341.409v 4.61363" fill="none" stroke="black"/>
<path d="M81.5088,341.409v 4.61363" fill="none" stroke="black"/>
<path d="M92.0809,341.409v 4.61363" fill="none" stroke="black"/>
<path d="M102.653,341.409v 4.61363" fill="none" stroke="black"/>
<path d="M113.225,336.795v 9.22726" fill="none" stroke="black"/>
<path d="M123.797,341.409v 4.61363" fill="none" stroke="black"/>
<path d="M134.369,341.409v 4.61363" fill="none" stroke="black"/>
<path d="M144.941,341.409v 4.61363" fill="none" stroke="black"/>
<path d="M155.513,341.409v 4.61363" fill="none" stroke="black"/>
<path d="M166.086,336.795v 9.22726" fill="none" stroke="black"/>
<path d="M176.658,341.409v 4.61363" fill="none" stroke="black"/>
<path d="M187.23,341.409v 4.61363" fill="none" stroke="black"/>
<path d="M197.802,341.409v 4.61363" fill="none" stroke="black"/>
<path d="M208.374,341.409v 4.61363" fill="none" stroke="black"/>
<path d="M218.946,336.795v 9.22726" fill="none" stroke="black"/>
<path d="M229.518,341.409v 4.61363" fill="none" stroke="black"/>
<path d="M240.09,341.409v 4.61363" fill="none" stroke="black"/>
<path d="M250.662,341.409v 4.61363" fill="none" stroke="black"/>
<path d="M261.235,341.409v 4.61363" fill="none" stroke="black"/>
<path d="M271.807,336.795v 9.22726" fill="none" stroke="black"/>
<path d="M282.379,341.409v 4.61363" fill="none" stroke="black"/>
<path d="M292.951,341.409v 4.61363" fill="none" stroke="black"/>
<path d="M303.523,341.409v 4.61363" fill="none" stroke="black"/>
<path d="M314.095,341.409v 4.61363" fill="none" stroke="black"/>
<path d="M324.667,336.795v 9.22726" fill="none" stroke="black"/>
<path d="M335.239,341.409v 4.61363" fill="none" stroke="black"/>
<path d="M345.811,341.409v 4.61363" fill="none" stroke="black"/>
<path d="M356.383,341.409v 4.61363" fill="none" stroke="black"/>
<path d="M366.956,341.409v 4.61363" fill="none" stroke="black"/>
<path d="M377.528,336.795v 9.22726" fill="none" stroke="black"/>
<path d="M388.1,341.409v 4.61363" fill="none" stroke="black"/>
<path d="M398.672,341.409v 4.61363" fill="none" stroke="black"/>
<path d="M409.244,341.409v 4.61363" fill="none" stroke="black"/>
<path d="M419.816,341.409v 4.61363" fill="none" stroke="black"/>
<path d="M430.388,336.795v 9.22726" fill="none" stroke="black"/>
<path d="M440.96,341.409v 4.61363" fill="none" stroke="black"/>
<path d="M451.532,341.409v 4.61363" fill="none" stroke="black"/>
<path d="M462.105,341.409v 4.61363" fill="none" stroke="black"/>
<path d="M472.677,341.409v 4.61363" fill="none" stroke="black"/>
<path d="M483.249,336.795v 9.22726" fill="none" stroke="black"/>
<path d="M60.3645,336.795v 9.22726" fill="none" stroke="black"/>
<path d="M483.249,336.795v 9.22726" fill="none" stroke="black"/>
<path d="M493.821,341.409v 4.61363" fill="none" stroke="black"/>
<path d="M504.393,341.409v 4.61363" fill="none" stroke="black"/>
<text xml:space="preserve" x="56.7042" y="358.403" fill="black" font-size="12.8453" font-family="Helvetica">0</text>
<text xml:space="preserve" x="106.392" y="358.403" fill="black" font-size="12.8453" font-family="Helvetica">50</text>
<text xml:space="preserve" x="155.265" y="358.403" fill="black" font-size="12.8453" font-family="Helvetica">100</text>
<text xml:space="preserve" x="208.211" y="358.403" fill="black" font-size="12.8453" font-family="Helvetica">150</text>
<text xml:space="preserve" x="261.157" y="358.403" fill="black" font-size="12.8453" font-family="Helvetica">200</text>
<text xml:space="preserve" x="313.288" y="358.403" fill="black" font-size="12.8453" font-family="Helvetica">250</text>
<text xml:space="preserve" x="366.234" y="358.403" fill="black" font-size="12.8453" font-family="Helvetica">300</text>
<text xml:space="preserve" x="419.18" y="358.403" fill="black" font-size="12.8453" font-family="Helvetica">350</text>
<text xml:space="preserve" x="472.126" y="358.403" fill="black" font-size="12.8453" font-family="Helvetica">400</text>
<text xml:space="preserve" x="451.763" y="372.251" fill="black" font-size="12.8453" font-family="Helvetica">ADC value</text>
<path d="M57.1929,346.022v -307.575" fill="none" stroke="black"/>
<path d="M70.7992,346.022h -13.6063" fill="none" stroke="black"/>
<path d="M63.9961,337.653h -6.80315" fill="none" stroke="black"/>
<path d="M63.9961,329.283h -6.80315" fill="none" stroke="black"/>
<path d="M63.9961,320.914h -6.80315" fill="none" stroke="black"/>
<path d="M63.9961,312.545h -6.80315" fill="none" stroke="black"/>
<path d="M70.7992,304.175h -13.6063" fill="none" stroke="black"/>
<path d="M63.9961,295.806h -6.80315" fill="none" stroke="black"/>
<path d="M63.9961,287.436h -6.80315" fill="none" stroke="black"/>
<path d="M63.9961,279.067h -6.80315" fill="none" stroke="black"/>
<path d="M63.9961,270.698h -6.80315" fill="none" stroke="black"/>
<path d="M70.7992,262.328h -13.6063" fill="none" stroke="black"/>
<path d="M63.9961,253.959h -6.80315" fill="none" stroke="black"/>
<path d="M63.9961,245.589h -6.80315" fill="none" stroke="black"/>
<path d="M63.9961,237.22h -6.80315" fill="none" stroke="black"/>
<path d="M63.9961,228.851h -6.80315" fill="none" stroke="black"/>
<path d="M70.7992,220.481h -13.6063" fill="none" stroke="black"/>
<path d="M63.9961,212.112h -6.80315" fill="none" stroke="black"/>
<path d="M63.9961,203.743h -6.80315" fill="none" stroke="black"/>
<path d="M63.9961,195.373h -6.80315" fill="none" stroke="black"/>
<path d="M63.9961,187.004h -6.80315" fill="none" stroke="black"/>
<path d="M70.7992,178.634h -13.6063" fill="none" stroke="black"/>
<path d="M63.9961,170.265h -6.80315" fill="none" stroke="black"/>
<path d="M63.9961,161.896h -6.80315" fill="none" stroke="black"/>
<path d="M63.9961,153.526h -6.80315" fill="none" stroke="black"/>
<path d="M63.9961,145.157h -6.80315" fill="none" stroke="black"/>
<path d="M70.7992,136.787h -13.6063" fill="none" stroke="black"/>
<path d="M63.9961,128.418h -6.80315" fill="none" stroke="black"/>
<path d="M63.9961,120.049h -6.80315" fill="none" stroke="black"/>
<path d="M63.9961,111.679h -6.80315" fill="none" stroke="black"/>
<path d="M63.9961,103.31h -6.80315" fill="none" stroke="black"/>
<path d="M70.7992,94.9403h -13.6063" fill="none" stroke="black"/>
<path d="M63.9961,86.571h -6.80315" fill="none" stroke="black"/>
<path d="M63.9961,78.2016h -6.80315" fill="none" stroke="black"/>
<path d="M63.9961,69.8322h -6.80315" fill="none" stroke="black"/>
<path d="M63.9961,61.4628h -6.80315" fill="none" stroke="black"/>
<path d="M70.7992,53.0934h -13.6063" fill="none" stroke="black"/>
<path d="M70.7992,53.0934h -13.6063" fill="none" stroke="black"/>
<path d="M63.9961,44.724h -6.80315" fill="none" stroke="black"/>
<text xml:space="preserve" x="47.7441" y="350.258" fill="black" font-size="12.8453" font-family="Helvetica">0</text>
<text xml:space="preserve" x="41.2277" y="308.716" fill="black" font-size="12.8453" font-family="Helvetica">50</text>
<text xml:space="preserve" x="33.8967" y="267.173" fill="black" font-size="12.8453" font-family="Helvetica">100</text>
<text xml:space="preserve" x="33.8967" y="224.817" fill="black" font-size="12.8453" font-family="Helvetica">150</text>
<text xml:space="preserve" x="33.8967" y="183.275" fill="black" font-size="12.8453" font-family="Helvetica">200</text>
<text xml:space="preserve" x="33.8967" y="140.918" fill="black" font-size="12.8453" font-family="Helvetica">250</text>
<text xml:space="preserve" x="33.8967" y="99.3755" fill="black" font-size="12.8453" font-family="Helvetica">300</text>
<text xml:space="preserve" x="33.8967" y="57.8333" fill="black" font-size="12.8453" font-family="Helvetica">350</text>
<g transform="rotate(-90,20.8638,70.0516)">
<text xml:space="preserve" x="20.8638" y="70.0516" fill="black" font-size="12.8453" font-family="Helvetica">Event</text>
</g>
<text xml:space="preserve" x="250.568" y="18.7347" fill="black" font-size="18.0316" font-family="Helvetica">Am_003</text>
<rect x="442.705" y="24.9905" width="113.386" height="61.5151" fill="white"/>
<path d="M442.705,86.5056h 113.386" fill="none" stroke="black"/>
<path d="M556.091,86.5056v -61.5151" fill="none" stroke="black"/>
<path d="M556.091,24.9905h -113.386" fill="none" stroke="black"/>
<path d="M442.705,24.9905v 61.5151" fill="none" stroke="black"/>
<text xml:space="preserve" x="474.57" y="36.6549" fill="black" font-size="13.4802" font-family="Helvetica">Am_003</text>
<path d="M442.705,40.3693h 113.386" fill="none" stroke="black"/>
<text xml:space="preserve" x="447.69" y="52.946" fill="black" font-size="13.0654" font-family="Helvetica">Entries </text>
<text xml:space="preserve" x="517.741" y="52.946" fill="black" font-size="13.0654" font-family="Helvetica"> 6603</text>
<text xml:space="preserve" x="447.69" y="67.6079" fill="black" font-size="13.0654" font-family="Helvetica">Mean  </text>
<text xml:space="preserve" x="510.41" y="67.6079" fill="black" font-size="13.0654" font-family="Helvetica">  123.4</text>
<text xml:space="preserve" x="447.69" y="83.0844" fill="black" font-size="13.0654" font-family="Helvetica">Std Dev   </text>
<text xml:space="preserve" x="514.483" y="83.0844" fill="black" font-size="13.0654" font-family="Helvetica">   79.4</text>
<text xml:space="preserve" x="250.568" y="18.7347" fill="black" font-size="18.0316" font-family="Helvetica">Am_003</text></svg>
