<?xml version="1.0" standalone="no"?>
<svg width="567.429" height="384.969" viewBox="0 0 567.429 384.969" xmlns="http://www.w3.org/2000/svg" shape-rendering="crispEdges">
<title>
img/week1/plane_hist/Am_006.svg
</title>
<desc>
Creator: ROOT Version 6.22/09
CreationDate: Fri Jul  2 19:46:32 2021</desc>
<defs>
</defs>
<rect x="0.5" y="0" width="566.929" height="384.469" fill="white"/>
<rect x="57.1929" y="38.4469" width="453.543" height="307.575" fill="white"/>
<rect x="57.1929" y="38.4469" width="453.543" height="307.575" fill="none" stroke="black"/>
<path d="M57.1929,346.022h 2.21457v -49.5091h 0.442913v -40.7419h 0.442913v 39.7104h 0.442913v 24.7546h 0.442913v 8.25152h 0.442913v 2.06288h 0.442913v -4.64148h 0.442913v -6.70436h 0.442913v 4.64148h 0.442913v -4.64148h 0.442913v 16.503h 0.442913v
 -14.4402h 0.442913v -5.1572h 0.442913v -12.3773h 0.442913v -17.0188h 0.442913v 7.22008h 0.442913v -67.5593h 0.442913v -65.4964h 0.442913v -81.4837h 0.442913v 39.7104h 0.442913v -66.0121h 0.442913v 10.8301h 0.442913v 60.3392h 0.442913v 4.12576h
 0.442913v 58.2763h 0.442913v -24.2388h 0.442913v 75.8108h 0.442913v 15.4716h 0.442913v -4.64148h 0.442913v 21.1445h 0.442913v -19.5974h 0.442913v -15.9873h 0.442913v 48.9934h 0.442913v 31.9746h 0.442913v 8.76724h 0.442913v 3.61004h 0.442913v
 9.79868h 0.442913v 0.51572h 0.442913v 2.06288h 0.442913v -6.18864h 0.442913v 1.03144h 0.442913v 2.5786h 0.442913v -0.51572h 0.442913v 4.64148h 0.442913v -6.70436h 0.442913v 4.12576h 0.442913v 1.54716h 0.442913v -1.54716h 0.442913v -3.61004h
 0.885827v 3.61004h 0.442913v -0.51572h 0.885827v -4.12576h 0.442913v -5.67292h 0.442913v 5.1572h 0.442913v -3.61004h 0.442913v 3.09432h 0.442913v -15.4716h 0.442913v 1.54716h 0.442913v -4.64148h 0.442913v 4.64148h 0.442913v -8.76724h 0.442913v
 -2.06288h 0.442913v -3.61004h 0.442913v 15.9873h 0.442913v 3.09432h 0.442913v -11.8616h 0.442913v 10.8301h 0.442913v -5.1572h 0.442913v -7.22008h 0.442913v -7.22008h 0.442913v -55.6977h 0.442913v -44.8676h 0.442913v -81.4837h 0.442913v 67.0436h
 0.442913v -34.5532h 0.442913v 56.7292h 0.442913v 60.8549h 0.442913v 41.2576h 0.442913v 23.2074h 0.442913v 4.12576h 0.442913v 1.03144h 0.442913v 3.61004h 0.442913v -0.51572h 0.442913v -1.03144h 0.442913v -0.51572h 0.442913v 0.51572h 0.442913v
 1.54716h 0.442913v -1.03144h 0.442913v 1.03144h 0.442913v -0.51572h 0.442913v 0.51572h 0.442913v -0.51572h 0.442913v -0.51572h 0.442913v 1.03144h 0.442913v -1.03144h 0.885827v 1.54716h 0.442913v -0.51572h 0.442913v 0.51572h 0.442913v -0.51572h
 0.885827v 1.03144h 0.442913v -1.03144h 0.442913v 1.03144h 8.41535v -0.51572h 0.442913v 0.51572h 0.885827v -0.51572h 0.442913v 0.51572h 0.885827v -0.51572h 0.442913v 0.51572h 7.52953v -0.51572h 0.442913v 0.51572h 1.32874v -0.51572h 0.442913v 0.51572h
 21.7028v -1.03144h 0.442913v 1.03144h 361.417" fill="none" stroke="#000099"/>
<path d="M57.1929,346.022h 453.543" fill="none" stroke="black"/>
<path d="M57.1929,336.795v 9.22726" fill="none" stroke="black"/>
<path d="M71.9567,341.409v 4.61363" fill="none" stroke="black"/>
<path d="M86.7205,341.409v 4.61363" fill="none" stroke="black"/>
<path d="M101.484,341.409v 4.61363" fill="none" stroke="black"/>
<path d="M116.248,341.409v 4.61363" fill="none" stroke="black"/>
<path d="M131.012,336.795v 9.22726" fill="none" stroke="black"/>
<path d="M145.776,341.409v 4.61363" fill="none" stroke="black"/>
<path d="M160.539,341.409v 4.61363" fill="none" stroke="black"/>
<path d="M175.303,341.409v 4.61363" fill="none" stroke="black"/>
<path d="M190.067,341.409v 4.61363" fill="none" stroke="black"/>
<path d="M204.831,336.795v 9.22726" fill="none" stroke="black"/>
<path d="M219.594,341.409v 4.61363" fill="none" stroke="black"/>
<path d="M234.358,341.409v 4.61363" fill="none" stroke="black"/>
<path d="M249.122,341.409v 4.61363" fill="none" stroke="black"/>
<path d="M263.886,341.409v 4.61363" fill="none" stroke="black"/>
<path d="M278.65,336.795v 9.22726" fill="none" stroke="black"/>
<path d="M293.413,341.409v 4.61363" fill="none" stroke="black"/>
<path d="M308.177,341.409v 4.61363" fill="none" stroke="black"/>
<path d="M322.941,341.409v 4.61363" fill="none" stroke="black"/>
<path d="M337.705,341.409v 4.61363" fill="none" stroke="black"/>
<path d="M352.469,336.795v 9.22726" fill="none" stroke="black"/>
<path d="M367.232,341.409v 4.61363" fill="none" stroke="black"/>
<path d="M381.996,341.409v 4.61363" fill="none" stroke="black"/>
<path d="M396.76,341.409v 4.61363" fill="none" stroke="black"/>
<path d="M411.524,341.409v 4.61363" fill="none" stroke="black"/>
<path d="M426.287,336.795v 9.22726" fill="none" stroke="black"/>
<path d="M441.051,341.409v 4.61363" fill="none" stroke="black"/>
<path d="M455.815,341.409v 4.61363" fill="none" stroke="black"/>
<path d="M470.579,341.409v 4.61363" fill="none" stroke="black"/>
<path d="M485.343,341.409v 4.61363" fill="none" stroke="black"/>
<path d="M500.106,336.795v 9.22726" fill="none" stroke="black"/>
<path d="M500.106,336.795v 9.22726" fill="none" stroke="black"/>
<text xml:space="preserve" x="53.446" y="358.403" fill="black" font-size="12.8453" font-family="Helvetica">0</text>
<text xml:space="preserve" x="120.239" y="358.403" fill="black" font-size="12.8453" font-family="Helvetica">500</text>
<text xml:space="preserve" x="190.291" y="358.403" fill="black" font-size="12.8453" font-family="Helvetica">1000</text>
<text xml:space="preserve" x="264.415" y="358.403" fill="black" font-size="12.8453" font-family="Helvetica">1500</text>
<text xml:space="preserve" x="338.54" y="358.403" fill="black" font-size="12.8453" font-family="Helvetica">2000</text>
<text xml:space="preserve" x="411.849" y="358.403" fill="black" font-size="12.8453" font-family="Helvetica">2500</text>
<text xml:space="preserve" x="485.974" y="358.403" fill="black" font-size="12.8453" font-family="Helvetica">3000</text>
<text xml:space="preserve" x="451.763" y="372.251" fill="black" font-size="12.8453" font-family="Helvetica">ADC value</text>
<path d="M57.1929,346.022v -307.575" fill="none" stroke="black"/>
<path d="M70.7992,346.022h -13.6063" fill="none" stroke="black"/>
<path d="M63.9961,335.708h -6.80315" fill="none" stroke="black"/>
<path d="M63.9961,325.393h -6.80315" fill="none" stroke="black"/>
<path d="M63.9961,315.079h -6.80315" fill="none" stroke="black"/>
<path d="M63.9961,304.765h -6.80315" fill="none" stroke="black"/>
<path d="M70.7992,294.45h -13.6063" fill="none" stroke="black"/>
<path d="M63.9961,284.136h -6.80315" fill="none" stroke="black"/>
<path d="M63.9961,273.821h -6.80315" fill="none" stroke="black"/>
<path d="M63.9961,263.507h -6.80315" fill="none" stroke="black"/>
<path d="M63.9961,253.193h -6.80315" fill="none" stroke="black"/>
<path d="M70.7992,242.878h -13.6063" fill="none" stroke="black"/>
<path d="M63.9961,232.564h -6.80315" fill="none" stroke="black"/>
<path d="M63.9961,222.249h -6.80315" fill="none" stroke="black"/>
<path d="M63.9961,211.935h -6.80315" fill="none" stroke="black"/>
<path d="M63.9961,201.621h -6.80315" fill="none" stroke="black"/>
<path d="M70.7992,191.306h -13.6063" fill="none" stroke="black"/>
<path d="M63.9961,180.992h -6.80315" fill="none" stroke="black"/>
<path d="M63.9961,170.677h -6.80315" fill="none" stroke="black"/>
<path d="M63.9961,160.363h -6.80315" fill="none" stroke="black"/>
<path d="M63.9961,150.049h -6.80315" fill="none" stroke="black"/>
<path d="M70.7992,139.734h -13.6063" fill="none" stroke="black"/>
<path d="M63.9961,129.42h -6.80315" fill="none" stroke="black"/>
<path d="M63.9961,119.106h -6.80315" fill="none" stroke="black"/>
<path d="M63.9961,108.791h -6.80315" fill="none" stroke="black"/>
<path d="M63.9961,98.4767h -6.80315" fill="none" stroke="black"/>
<path d="M70.7992,88.1623h -13.6063" fill="none" stroke="black"/>
<path d="M70.7992,88.1623h -13.6063" fill="none" stroke="black"/>
<path d="M63.9961,77.8479h -6.80315" fill="none" stroke="black"/>
<path d="M63.9961,67.5335h -6.80315" fill="none" stroke="black"/>
<path d="M63.9961,57.2191h -6.80315" fill="none" stroke="black"/>
<path d="M63.9961,46.9047h -6.80315" fill="none" stroke="black"/>
<text xml:space="preserve" x="47.7441" y="350.258" fill="black" font-size="12.8453" font-family="Helvetica">0</text>
<text xml:space="preserve" x="33.8967" y="298.941" fill="black" font-size="12.8453" font-family="Helvetica">100</text>
<text xml:space="preserve" x="33.8967" y="247.624" fill="black" font-size="12.8453" font-family="Helvetica">200</text>
<text xml:space="preserve" x="33.8967" y="195.493" fill="black" font-size="12.8453" font-family="Helvetica">300</text>
<text xml:space="preserve" x="33.8967" y="144.176" fill="black" font-size="12.8453" font-family="Helvetica">400</text>
<text xml:space="preserve" x="33.8967" y="92.8591" fill="black" font-size="12.8453" font-family="Helvetica">500</text>
<g transform="rotate(-90,20.8638,70.0516)">
<text xml:space="preserve" x="20.8638" y="70.0516" fill="black" font-size="12.8453" font-family="Helvetica">Event</text>
</g>
<text xml:space="preserve" x="250.568" y="18.7347" fill="black" font-size="18.0316" font-family="Helvetica">Am_006</text>
<rect x="442.705" y="24.9905" width="113.386" height="61.5151" fill="white"/>
<path d="M442.705,86.5056h 113.386" fill="none" stroke="black"/>
<path d="M556.091,86.5056v -61.5151" fill="none" stroke="black"/>
<path d="M556.091,24.9905h -113.386" fill="none" stroke="black"/>
<path d="M442.705,24.9905v 61.5151" fill="none" stroke="black"/>
<text xml:space="preserve" x="474.57" y="36.6549" fill="black" font-size="13.4802" font-family="Helvetica">Am_006</text>
<path d="M442.705,40.3693h 113.386" fill="none" stroke="black"/>
<text xml:space="preserve" x="447.69" y="52.946" fill="black" font-size="12.7186" font-family="Helvetica">Entries </text>
<text xml:space="preserve" x="512.854" y="52.946" fill="black" font-size="12.7186" font-family="Helvetica"> 10045</text>
<text xml:space="preserve" x="447.69" y="67.6079" fill="black" font-size="12.7186" font-family="Helvetica">Mean  </text>
<text xml:space="preserve" x="512.854" y="67.6079" fill="black" font-size="12.7186" font-family="Helvetica">  127.2</text>
<text xml:space="preserve" x="447.69" y="83.0844" fill="black" font-size="12.7186" font-family="Helvetica">Std Dev   </text>
<text xml:space="preserve" x="512.854" y="83.0844" fill="black" font-size="12.7186" font-family="Helvetica">  75.12</text>
<text xml:space="preserve" x="250.568" y="18.7347" fill="black" font-size="18.0316" font-family="Helvetica">Am_006</text></svg>
