<?xml version="1.0" standalone="no"?>
<svg width="567.429" height="384.969" viewBox="0 0 567.429 384.969" xmlns="http://www.w3.org/2000/svg" shape-rendering="crispEdges">
<title>
img/week1/plane_hist/Am_001.svg
</title>
<desc>
Creator: ROOT Version 6.22/09
CreationDate: Fri Jul  2 21:16:55 2021</desc>
<defs>
</defs>
<rect x="0.5" y="0" width="566.929" height="384.469" fill="white"/>
<rect x="57.1929" y="38.4469" width="453.543" height="307.575" fill="white"/>
<rect x="57.1929" y="38.4469" width="453.543" height="307.575" fill="none" stroke="black"/>
<path d="M57.1929,346.022h 63.4696v -1.93993h 0.661142v -7.75971h 0.661142v -36.8586h 0.661142v 3.87985h 0.661142v -9.69963h 0.661142v -11.6396h 0.661142v 13.5795h 0.661142v 1.93993h 0.661142v -13.5795h 0.661142v -27.159h 0.661142v 3.87985h 0.661142v
 -5.81978h 0.661142v -17.4593h 0.661142v -7.75971h 0.661142v 1.93993h 0.661142v 9.69963h 0.661142v -44.6183h 0.661142v -11.6396h 0.661142v -38.7985h 0.661142v 23.2791h 0.661142v 21.3392h 0.661142v -46.5582h 0.661142v -52.378h 0.661142v -38.7985h
 0.661142v 48.4982h 0.661142v 9.69963h 0.661142v -11.6396h 0.661142v -17.4593h 0.661142v 21.3392h 0.661142v 13.5795h 0.661142v -9.69963h 0.661142v 7.75971h 0.661142v -40.7385h 0.661142v -7.75971h 0.661142v 54.3179h 0.661142v -27.159h 0.661142v
 1.93993h 0.661142v 50.4381h 0.661142v -1.93993h 0.661142v 34.9187h 0.661142v -44.6183h 0.661142v 15.5194h 0.661142v -3.87985h 0.661142v 58.1978h 0.661142v -19.3993h 0.661142v -25.219h 0.661142v -38.7985h 0.661142v 31.0388h 0.661142v 19.3993h
 0.661142v -13.5795h 0.661142v -15.5194h 0.661142v 23.2791h 0.661142v 11.6396h 0.661142v 1.93993h 0.661142v -29.0989h 0.661142v 9.69963h 0.661142v -13.5795h 0.661142v 56.2579h 0.661142v 7.75971h 0.661142v -13.5795h 0.661142v 13.5795h 0.661142v
 -11.6396h 0.661142v 34.9187h 0.661142v -15.5194h 0.661142v -1.93993h 0.661142v 17.4593h 0.661142v 17.4593h 0.661142v 11.6396h 0.661142v -19.3993h 0.661142v 1.93993h 0.661142v -7.75971h 0.661142v 31.0388h 1.32228v -19.3993h 0.661142v 9.69963h
 0.661142v 21.3392h 0.661142v -5.81978h 0.661142v -1.93993h 0.661142v -11.6396h 0.661142v -17.4593h 0.661142v 36.8586h 0.661142v -13.5795h 0.661142v -15.5194h 0.661142v -9.69963h 0.661142v 13.5795h 0.661142v 15.5194h 0.661142v 11.6396h 0.661142v
 -50.4381h 0.661142v 52.378h 0.661142v 5.81978h 0.661142v 7.75971h 0.661142v -25.219h 0.661142v 7.75971h 0.661142v 21.3392h 0.661142v 3.87985h 0.661142v -3.87985h 0.661142v 3.87985h 0.661142v 1.93993h 1.32228v 13.5795h 0.661142v -3.87985h 0.661142v
 5.81978h 1.32228v -7.75971h 0.661142v 23.2791h 0.661142v 1.93993h 0.661142v -3.87985h 0.661142v -5.81978h 0.661142v 9.69963h 0.661142v -1.93993h 0.661142v -13.5795h 0.661142v 11.6396h 0.661142v -5.81978h 0.661142v 5.81978h 0.661142v -1.93993h
 0.661142v 5.81978h 0.661142v -3.87985h 0.661142v 5.81978h 0.661142v 1.93993h 0.661142v -1.93993h 0.661142v -11.6396h 1.32228v 13.5795h 0.661142v -5.81978h 0.661142v -1.93993h 1.32228v -3.87985h 1.32228v 7.75971h 0.661142v -7.75971h 0.661142v
 7.75971h 1.32228v -7.75971h 0.661142v 7.75971h 0.661142v -1.93993h 0.661142v 1.93993h 0.661142v -3.87985h 0.661142v 1.93993h 0.661142v -1.93993h 0.661142v -5.81978h 0.661142v 11.6396h 0.661142v -1.93993h 1.32228v 1.93993h 0.661142v -1.93993h
 0.661142v -3.87985h 0.661142v 7.75971h 0.661142v -5.81978h 0.661142v -1.93993h 0.661142v 5.81978h 0.661142v -5.81978h 0.661142v 9.69963h 0.661142v -3.87985h 0.661142v -1.93993h 0.661142v -5.81978h 0.661142v 9.69963h 0.661142v -5.81978h 1.32228v
 1.93993h 0.661142v -3.87985h 0.661142v 9.69963h 0.661142v -9.69963h 0.661142v -1.93993h 0.661142v 5.81978h 0.661142v 3.87985h 0.661142v -1.93993h 0.661142v -3.87985h 0.661142v -1.93993h 0.661142v 5.81978h 1.32228v -3.87985h 2.64457v 1.93993h
 0.661142v 1.93993h 0.661142v 1.93993h 0.661142v -1.93993h 0.661142v -1.93993h 0.661142v -7.75971h 0.661142v 5.81978h 0.661142v -5.81978h 0.661142v -1.93993h 0.661142v 13.5795h 0.661142v -3.87985h 0.661142v 5.81978h 0.661142v -11.6396h 0.661142v
 7.75971h 0.661142v -1.93993h 0.661142v 5.81978h 0.661142v -1.93993h 0.661142v -11.6396h 0.661142v 5.81978h 0.661142v -3.87985h 0.661142v 1.93993h 0.661142v 3.87985h 0.661142v -11.6396h 0.661142v 15.5194h 0.661142v -7.75971h 0.661142v -3.87985h
 0.661142v 5.81978h 0.661142v -9.69963h 0.661142v 7.75971h 0.661142v 3.87985h 0.661142v -5.81978h 1.32228v -5.81978h 0.661142v 9.69963h 0.661142v -3.87985h 0.661142v 1.93993h 1.98343v -3.87985h 1.32228v 5.81978h 0.661142v -5.81978h 0.661142v 1.93993h
 0.661142v -7.75971h 0.661142v 7.75971h 0.661142v -1.93993h 1.98343v -5.81978h 0.661142v 1.93993h 0.661142v 11.6396h 0.661142v -15.5194h 0.661142v 9.69963h 1.32228v -19.3993h 0.661142v 15.5194h 0.661142v -15.5194h 0.661142v 11.6396h 0.661142v
 -5.81978h 0.661142v 9.69963h 0.661142v -17.4593h 0.661142v -3.87985h 0.661142v 9.69963h 0.661142v 5.81978h 0.661142v 3.87985h 0.661142v -11.6396h 0.661142v -5.81978h 0.661142v 13.5795h 0.661142v -9.69963h 0.661142v 1.93993h 0.661142v -1.93993h
 0.661142v 7.75971h 0.661142v -17.4593h 0.661142v 15.5194h 0.661142v 5.81978h 0.661142v -17.4593h 0.661142v -5.81978h 0.661142v 1.93993h 0.661142v 23.2791h 0.661142v 3.87985h 0.661142v -1.93993h 0.661142v -1.93993h 0.661142v -11.6396h 0.661142v
 -7.75971h 0.661142v 15.5194h 1.98343v -17.4593h 0.661142v 23.2791h 1.32228v -25.219h 0.661142v 11.6396h 0.661142v 3.87985h 0.661142v -5.81978h 0.661142v 5.81978h 0.661142v -7.75971h 1.32228v 15.5194h 1.32228v -9.69963h 0.661142v 1.93993h 0.661142v
 17.4593h 0.661142v -27.159h 0.661142v 11.6396h 0.661142v 3.87985h 1.32228v -11.6396h 0.661142v 3.87985h 0.661142v -11.6396h 0.661142v 15.5194h 0.661142v -3.87985h 0.661142v -11.6396h 0.661142v -3.87985h 0.661142v -13.5795h 0.661142v 7.75971h
 0.661142v 5.81978h 0.661142v -23.2791h 0.661142v -3.87985h 0.661142v -32.9787h 0.661142v 7.75971h 0.661142v 11.6396h 0.661142v 27.159h 0.661142v -73.7172h 0.661142v 5.81978h 0.661142v -5.81978h 0.661142v -3.87985h 0.661142v -23.2791h 0.661142v
 -27.159h 0.661142v 29.0989h 1.32228v 11.6396h 0.661142v -27.159h 1.32228v -64.0176h 0.661142v 69.8373h 0.661142v 7.75971h 0.661142v -52.378h 0.661142v -5.81978h 0.661142v 58.1978h 0.661142v 3.87985h 0.661142v 17.4593h 0.661142v -40.7385h 0.661142v
 19.3993h 0.661142v 21.3392h 0.661142v 9.69963h 0.661142v 23.2791h 0.661142v -11.6396h 0.661142v 32.9787h 0.661142v 7.75971h 0.661142v 19.3993h 0.661142v 1.93993h 0.661142v -3.87985h 0.661142v 5.81978h 0.661142v 19.3993h 0.661142v -11.6396h 0.661142v
 3.87985h 0.661142v 13.5795h 0.661142v -5.81978h 0.661142v 21.3392h 0.661142v -9.69963h 0.661142v 5.81978h 0.661142v 5.81978h 0.661142v 1.93993h 0.661142v 1.93993h 0.661142v 3.87985h 0.661142v -1.93993h 0.661142v -5.81978h 0.661142v 5.81978h
 0.661142v 1.93993h 0.661142v -3.87985h 0.661142v 3.87985h 0.661142v -3.87985h 0.661142v 3.87985h 0.661142v -1.93993h 0.661142v -3.87985h 0.661142v 5.81978h 1.32228v -1.93993h 0.661142v 1.93993h 0.661142v -1.93993h 1.98343v 1.93993h 1.98343v
 -1.93993h 0.661142v -3.87985h 0.661142v 3.87985h 0.661142v 1.93993h 0.661142v -5.81978h 0.661142v 3.87985h 0.661142v 1.93993h 2.64457v -1.93993h 1.32228v 1.93993h 0.661142v -5.81978h 0.661142v 5.81978h 0.661142v -1.93993h 0.661142v 1.93993h
 0.661142v -3.87985h 0.661142v 3.87985h 3.30571v -1.93993h 0.661142v 1.93993h 1.98343v -1.93993h 0.661142v -1.93993h 0.661142v 3.87985h 1.32228v -1.93993h 1.32228v 1.93993h 1.98343v -1.93993h 1.32228v 1.93993h 0.661142v -1.93993h 0.661142v 1.93993h
 0.661142v -1.93993h 0.661142v 1.93993h 0.661142v -1.93993h 0.661142v 1.93993h 0.661142v -1.93993h 0.661142v 1.93993h 3.96685v -1.93993h 0.661142v 1.93993h 0.661142v -1.93993h 0.661142v 1.93993h 0.661142v -3.87985h 0.661142v 3.87985h 0.661142v
 -1.93993h 0.661142v 1.93993h 0.661142v -1.93993h 0.661142v -1.93993h 0.661142v 3.87985h 2.64457v -1.93993h 0.661142v 1.93993h 3.30571v -1.93993h 0.661142v 1.93993h 1.98343v -1.93993h 1.98343v 1.93993h 1.32228v -1.93993h 0.661142v 1.93993h 9.25599v
 -1.93993h 1.32228v 1.93993h 1.98343v -1.93993h 1.32228v 1.93993h 1.98343v -1.93993h 0.661142v 1.93993h 3.30571v -1.93993h 0.661142v 1.93993h 5.28913v -1.93993h 0.661142v 1.93993h 9.91713v -1.93993h 0.661142v 1.93993h 57.5193v -1.93993h 1.98343v
 1.93993h 1.32228v -1.93993h 0.661142" fill="none" stroke="#000099"/>
<path d="M57.1929,346.022h 453.543" fill="none" stroke="black"/>
<path d="M57.8541,336.795v 9.22726" fill="none" stroke="black"/>
<path d="M79.8921,341.409v 4.61363" fill="none" stroke="black"/>
<path d="M101.93,341.409v 4.61363" fill="none" stroke="black"/>
<path d="M123.968,341.409v 4.61363" fill="none" stroke="black"/>
<path d="M146.006,341.409v 4.61363" fill="none" stroke="black"/>
<path d="M168.044,336.795v 9.22726" fill="none" stroke="black"/>
<path d="M190.082,341.409v 4.61363" fill="none" stroke="black"/>
<path d="M212.12,341.409v 4.61363" fill="none" stroke="black"/>
<path d="M234.159,341.409v 4.61363" fill="none" stroke="black"/>
<path d="M256.197,341.409v 4.61363" fill="none" stroke="black"/>
<path d="M278.235,336.795v 9.22726" fill="none" stroke="black"/>
<path d="M300.273,341.409v 4.61363" fill="none" stroke="black"/>
<path d="M322.311,341.409v 4.61363" fill="none" stroke="black"/>
<path d="M344.349,341.409v 4.61363" fill="none" stroke="black"/>
<path d="M366.387,341.409v 4.61363" fill="none" stroke="black"/>
<path d="M388.425,336.795v 9.22726" fill="none" stroke="black"/>
<path d="M410.463,341.409v 4.61363" fill="none" stroke="black"/>
<path d="M432.501,341.409v 4.61363" fill="none" stroke="black"/>
<path d="M454.539,341.409v 4.61363" fill="none" stroke="black"/>
<path d="M476.577,341.409v 4.61363" fill="none" stroke="black"/>
<path d="M498.615,336.795v 9.22726" fill="none" stroke="black"/>
<path d="M57.8541,336.795v 9.22726" fill="none" stroke="black"/>
<path d="M498.615,336.795v 9.22726" fill="none" stroke="black"/>
<text xml:space="preserve" x="54.2605" y="358.403" fill="black" font-size="12.8453" font-family="Helvetica">0</text>
<text xml:space="preserve" x="156.894" y="358.403" fill="black" font-size="12.8453" font-family="Helvetica">500</text>
<text xml:space="preserve" x="263.601" y="358.403" fill="black" font-size="12.8453" font-family="Helvetica">1000</text>
<text xml:space="preserve" x="374.38" y="358.403" fill="black" font-size="12.8453" font-family="Helvetica">1500</text>
<text xml:space="preserve" x="484.345" y="358.403" fill="black" font-size="12.8453" font-family="Helvetica">2000</text>
<text xml:space="preserve" x="451.763" y="372.251" fill="black" font-size="12.8453" font-family="Helvetica">ADC value</text>
<path d="M57.1929,346.022v -307.575" fill="none" stroke="black"/>
<path d="M70.7992,346.022h -13.6063" fill="none" stroke="black"/>
<path d="M63.9961,336.323h -6.80315" fill="none" stroke="black"/>
<path d="M63.9961,326.623h -6.80315" fill="none" stroke="black"/>
<path d="M63.9961,316.923h -6.80315" fill="none" stroke="black"/>
<path d="M70.7992,307.224h -13.6063" fill="none" stroke="black"/>
<path d="M63.9961,297.524h -6.80315" fill="none" stroke="black"/>
<path d="M63.9961,287.824h -6.80315" fill="none" stroke="black"/>
<path d="M63.9961,278.125h -6.80315" fill="none" stroke="black"/>
<path d="M70.7992,268.425h -13.6063" fill="none" stroke="black"/>
<path d="M63.9961,258.726h -6.80315" fill="none" stroke="black"/>
<path d="M63.9961,249.026h -6.80315" fill="none" stroke="black"/>
<path d="M63.9961,239.326h -6.80315" fill="none" stroke="black"/>
<path d="M70.7992,229.627h -13.6063" fill="none" stroke="black"/>
<path d="M63.9961,219.927h -6.80315" fill="none" stroke="black"/>
<path d="M63.9961,210.227h -6.80315" fill="none" stroke="black"/>
<path d="M63.9961,200.528h -6.80315" fill="none" stroke="black"/>
<path d="M70.7992,190.828h -13.6063" fill="none" stroke="black"/>
<path d="M63.9961,181.129h -6.80315" fill="none" stroke="black"/>
<path d="M63.9961,171.429h -6.80315" fill="none" stroke="black"/>
<path d="M63.9961,161.729h -6.80315" fill="none" stroke="black"/>
<path d="M70.7992,152.03h -13.6063" fill="none" stroke="black"/>
<path d="M63.9961,142.33h -6.80315" fill="none" stroke="black"/>
<path d="M63.9961,132.63h -6.80315" fill="none" stroke="black"/>
<path d="M63.9961,122.931h -6.80315" fill="none" stroke="black"/>
<path d="M70.7992,113.231h -13.6063" fill="none" stroke="black"/>
<path d="M63.9961,103.531h -6.80315" fill="none" stroke="black"/>
<path d="M63.9961,93.8318h -6.80315" fill="none" stroke="black"/>
<path d="M63.9961,84.1322h -6.80315" fill="none" stroke="black"/>
<path d="M70.7992,74.4326h -13.6063" fill="none" stroke="black"/>
<path d="M70.7992,74.4326h -13.6063" fill="none" stroke="black"/>
<path d="M63.9961,64.7329h -6.80315" fill="none" stroke="black"/>
<path d="M63.9961,55.0333h -6.80315" fill="none" stroke="black"/>
<path d="M63.9961,45.3337h -6.80315" fill="none" stroke="black"/>
<text xml:space="preserve" x="47.7441" y="350.258" fill="black" font-size="12.8453" font-family="Helvetica">0</text>
<text xml:space="preserve" x="41.2277" y="311.974" fill="black" font-size="12.8453" font-family="Helvetica">20</text>
<text xml:space="preserve" x="41.2277" y="272.875" fill="black" font-size="12.8453" font-family="Helvetica">40</text>
<text xml:space="preserve" x="41.2277" y="233.777" fill="black" font-size="12.8453" font-family="Helvetica">60</text>
<text xml:space="preserve" x="41.2277" y="195.493" fill="black" font-size="12.8453" font-family="Helvetica">80</text>
<text xml:space="preserve" x="33.8967" y="156.394" fill="black" font-size="12.8453" font-family="Helvetica">100</text>
<text xml:space="preserve" x="33.8967" y="118.11" fill="black" font-size="12.8453" font-family="Helvetica">120</text>
<text xml:space="preserve" x="33.8967" y="79.0117" fill="black" font-size="12.8453" font-family="Helvetica">140</text>
<g transform="rotate(-90,20.8638,70.0516)">
<text xml:space="preserve" x="20.8638" y="70.0516" fill="black" font-size="12.8453" font-family="Helvetica">Event</text>
</g>
<text xml:space="preserve" x="252.197" y="18.7347" fill="black" font-size="18.0316" font-family="Helvetica">Am_001</text>
<rect x="442.705" y="24.9905" width="113.386" height="61.5151" fill="white"/>
<path d="M442.705,86.5056h 113.386" fill="none" stroke="black"/>
<path d="M556.091,86.5056v -61.5151" fill="none" stroke="black"/>
<path d="M556.091,24.9905h -113.386" fill="none" stroke="black"/>
<path d="M442.705,24.9905v 61.5151" fill="none" stroke="black"/>
<text xml:space="preserve" x="475.385" y="36.6549" fill="black" font-size="13.4802" font-family="Helvetica">Am_001</text>
<path d="M442.705,40.3693h 113.386" fill="none" stroke="black"/>
<text xml:space="preserve" x="447.69" y="52.946" fill="black" font-size="12.7186" font-family="Helvetica">Entries </text>
<text xml:space="preserve" x="512.854" y="52.946" fill="black" font-size="12.7186" font-family="Helvetica"> 11015</text>
<text xml:space="preserve" x="447.69" y="67.6079" fill="black" font-size="12.7186" font-family="Helvetica">Mean  </text>
<text xml:space="preserve" x="512.854" y="67.6079" fill="black" font-size="12.7186" font-family="Helvetica">  682.5</text>
<text xml:space="preserve" x="447.69" y="83.0844" fill="black" font-size="12.7186" font-family="Helvetica">Std Dev   </text>
<text xml:space="preserve" x="512.854" y="83.0844" fill="black" font-size="12.7186" font-family="Helvetica">  360.4</text>
<text xml:space="preserve" x="252.197" y="18.7347" fill="black" font-size="18.0316" font-family="Helvetica">Am_001</text></svg>
