<?xml version="1.0" standalone="no"?>
<svg width="567.429" height="384.68" viewBox="0 0 567.429 384.68" xmlns="http://www.w3.org/2000/svg" shape-rendering="crispEdges">
<title>
img/week1/plane_hist/Am_002.svg
</title>
<desc>
Creator: ROOT Version 6.22/09
CreationDate: Tue Jul 13 18:34:22 2021</desc>
<defs>
</defs>
<rect x="0.5" y="0" width="566.929" height="384.18" fill="white"/>
<rect x="57.1929" y="38.418" width="453.543" height="307.344" fill="white"/>
<rect x="57.1929" y="38.418" width="453.543" height="307.344" fill="none" stroke="black"/>
<path d="M57.1929,345.762h 37.3169v -32.5232h 2.87053v -27.1026h 2.87053v 8.13079h 2.87053v 16.2616h 2.87053v -27.1026h 2.87053v -10.8411h 2.87053v 2.71026h 2.87053v -27.1026h 2.87053v 29.8129h 2.87053v -84.0182h 2.87053v -56.9155h 2.87053v -10.8411h
 2.87053v -70.4668h 2.87053v 113.831h 2.87053v -116.541h 2.87053v 37.9437h 2.87053v 54.2053h 2.87053v 81.3079h 2.87053v -8.13079h 2.87053v 35.2334h 2.87053v -2.71026h 2.87053v 37.9437h 2.87053v 27.1026h 2.87053v -27.1026h 2.87053v 18.9718h 2.87053v
 10.8411h 2.87053v -10.8411h 2.87053v 10.8411h 2.87053v 10.8411h 2.87053v -5.42053h 2.87053v 18.9718h 2.87053v 2.71026h 5.74105v -2.71026h 2.87053v 2.71026h 2.87053v -2.71026h 2.87053v 2.71026h 5.74105v -2.71026h 8.61158v -2.71026h 2.87053v 5.42053h
 8.61158v -13.5513h 2.87053v 8.13079h 11.4821v 2.71026h 2.87053v -2.71026h 2.87053v -5.42053h 2.87053v 5.42053h 5.74105v 5.42053h 2.87053v -10.8411h 2.87053v -8.13079h 2.87053v 10.8411h 2.87053v -2.71026h 2.87053v -5.42053h 2.87053v 8.13079h 2.87053v
 -5.42053h 5.74105v 8.13079h 2.87053v -2.71026h 5.74105v 5.42053h 2.87053v -5.42053h 2.87053v -24.3924h 2.87053v -5.42053h 2.87053v -10.8411h 2.87053v -13.5513h 2.87053v -24.3924h 2.87053v 54.2053h 2.87053v 16.2616h 2.87053v -8.13079h 2.87053v
 21.6821h 2.87053v 2.71026h 34.4463v -2.71026h 2.87053v 2.71026h 14.3526v -2.71026h 2.87053v 2.71026h 20.0937v -2.71026h 2.87053v 2.71026h 28.7053v -2.71026h 2.87053v 2.71026h 80.3748v -2.71026h 2.87053" fill="none" stroke="#000099"/>
<path d="M57.1929,345.762h 453.543" fill="none" stroke="black"/>
<path d="M60.0634,336.541v 9.22031" fill="none" stroke="black"/>
<path d="M69.6319,341.152v 4.61016" fill="none" stroke="black"/>
<path d="M79.2003,341.152v 4.61016" fill="none" stroke="black"/>
<path d="M88.7687,341.152v 4.61016" fill="none" stroke="black"/>
<path d="M98.3371,341.152v 4.61016" fill="none" stroke="black"/>
<path d="M107.906,336.541v 9.22031" fill="none" stroke="black"/>
<path d="M117.474,341.152v 4.61016" fill="none" stroke="black"/>
<path d="M127.042,341.152v 4.61016" fill="none" stroke="black"/>
<path d="M136.611,341.152v 4.61016" fill="none" stroke="black"/>
<path d="M146.179,341.152v 4.61016" fill="none" stroke="black"/>
<path d="M155.748,336.541v 9.22031" fill="none" stroke="black"/>
<path d="M165.316,341.152v 4.61016" fill="none" stroke="black"/>
<path d="M174.885,341.152v 4.61016" fill="none" stroke="black"/>
<path d="M184.453,341.152v 4.61016" fill="none" stroke="black"/>
<path d="M194.021,341.152v 4.61016" fill="none" stroke="black"/>
<path d="M203.59,336.541v 9.22031" fill="none" stroke="black"/>
<path d="M213.158,341.152v 4.61016" fill="none" stroke="black"/>
<path d="M222.727,341.152v 4.61016" fill="none" stroke="black"/>
<path d="M232.295,341.152v 4.61016" fill="none" stroke="black"/>
<path d="M241.863,341.152v 4.61016" fill="none" stroke="black"/>
<path d="M251.432,336.541v 9.22031" fill="none" stroke="black"/>
<path d="M261,341.152v 4.61016" fill="none" stroke="black"/>
<path d="M270.569,341.152v 4.61016" fill="none" stroke="black"/>
<path d="M280.137,341.152v 4.61016" fill="none" stroke="black"/>
<path d="M289.706,341.152v 4.61016" fill="none" stroke="black"/>
<path d="M299.274,336.541v 9.22031" fill="none" stroke="black"/>
<path d="M308.842,341.152v 4.61016" fill="none" stroke="black"/>
<path d="M318.411,341.152v 4.61016" fill="none" stroke="black"/>
<path d="M327.979,341.152v 4.61016" fill="none" stroke="black"/>
<path d="M337.548,341.152v 4.61016" fill="none" stroke="black"/>
<path d="M347.116,336.541v 9.22031" fill="none" stroke="black"/>
<path d="M356.685,341.152v 4.61016" fill="none" stroke="black"/>
<path d="M366.253,341.152v 4.61016" fill="none" stroke="black"/>
<path d="M375.821,341.152v 4.61016" fill="none" stroke="black"/>
<path d="M385.39,341.152v 4.61016" fill="none" stroke="black"/>
<path d="M394.958,336.541v 9.22031" fill="none" stroke="black"/>
<path d="M404.527,341.152v 4.61016" fill="none" stroke="black"/>
<path d="M414.095,341.152v 4.61016" fill="none" stroke="black"/>
<path d="M423.664,341.152v 4.61016" fill="none" stroke="black"/>
<path d="M433.232,341.152v 4.61016" fill="none" stroke="black"/>
<path d="M442.8,336.541v 9.22031" fill="none" stroke="black"/>
<path d="M452.369,341.152v 4.61016" fill="none" stroke="black"/>
<path d="M461.937,341.152v 4.61016" fill="none" stroke="black"/>
<path d="M471.506,341.152v 4.61016" fill="none" stroke="black"/>
<path d="M481.074,341.152v 4.61016" fill="none" stroke="black"/>
<path d="M490.643,336.541v 9.22031" fill="none" stroke="black"/>
<path d="M60.0634,336.541v 9.22031" fill="none" stroke="black"/>
<path d="M490.643,336.541v 9.22031" fill="none" stroke="black"/>
<path d="M500.211,341.152v 4.61016" fill="none" stroke="black"/>
<path d="M509.779,341.152v 4.61016" fill="none" stroke="black"/>
<text xml:space="preserve" x="56.5431" y="358.189" fill="black" font-size="12.836" font-family="Helvetica">0</text>
<text xml:space="preserve" x="101.215" y="358.189" fill="black" font-size="12.836" font-family="Helvetica">50</text>
<text xml:space="preserve" x="145.075" y="358.189" fill="black" font-size="12.836" font-family="Helvetica">100</text>
<text xml:space="preserve" x="192.996" y="358.189" fill="black" font-size="12.836" font-family="Helvetica">150</text>
<text xml:space="preserve" x="240.105" y="358.189" fill="black" font-size="12.836" font-family="Helvetica">200</text>
<text xml:space="preserve" x="288.026" y="358.189" fill="black" font-size="12.836" font-family="Helvetica">250</text>
<text xml:space="preserve" x="335.947" y="358.189" fill="black" font-size="12.836" font-family="Helvetica">300</text>
<text xml:space="preserve" x="383.868" y="358.189" fill="black" font-size="12.836" font-family="Helvetica">350</text>
<text xml:space="preserve" x="431.788" y="358.189" fill="black" font-size="12.836" font-family="Helvetica">400</text>
<text xml:space="preserve" x="479.709" y="358.189" fill="black" font-size="12.836" font-family="Helvetica">450</text>
<text xml:space="preserve" x="452.094" y="371.996" fill="black" font-size="12.836" font-family="Helvetica">ADC value</text>
<path d="M57.1929,345.762v -307.344" fill="none" stroke="black"/>
<path d="M70.7992,345.762h -13.6063" fill="none" stroke="black"/>
<path d="M63.9961,332.21h -6.80315" fill="none" stroke="black"/>
<path d="M63.9961,318.659h -6.80315" fill="none" stroke="black"/>
<path d="M63.9961,305.108h -6.80315" fill="none" stroke="black"/>
<path d="M70.7992,291.557h -13.6063" fill="none" stroke="black"/>
<path d="M63.9961,278.005h -6.80315" fill="none" stroke="black"/>
<path d="M63.9961,264.454h -6.80315" fill="none" stroke="black"/>
<path d="M63.9961,250.903h -6.80315" fill="none" stroke="black"/>
<path d="M70.7992,237.351h -13.6063" fill="none" stroke="black"/>
<path d="M63.9961,223.8h -6.80315" fill="none" stroke="black"/>
<path d="M63.9961,210.249h -6.80315" fill="none" stroke="black"/>
<path d="M63.9961,196.697h -6.80315" fill="none" stroke="black"/>
<path d="M70.7992,183.146h -13.6063" fill="none" stroke="black"/>
<path d="M63.9961,169.595h -6.80315" fill="none" stroke="black"/>
<path d="M63.9961,156.043h -6.80315" fill="none" stroke="black"/>
<path d="M63.9961,142.492h -6.80315" fill="none" stroke="black"/>
<path d="M70.7992,128.941h -13.6063" fill="none" stroke="black"/>
<path d="M63.9961,115.389h -6.80315" fill="none" stroke="black"/>
<path d="M63.9961,101.838h -6.80315" fill="none" stroke="black"/>
<path d="M63.9961,88.2868h -6.80315" fill="none" stroke="black"/>
<path d="M70.7992,74.7355h -13.6063" fill="none" stroke="black"/>
<path d="M70.7992,74.7355h -13.6063" fill="none" stroke="black"/>
<path d="M63.9961,61.1842h -6.80315" fill="none" stroke="black"/>
<path d="M63.9961,47.6329h -6.80315" fill="none" stroke="black"/>
<text xml:space="preserve" x="47.6087" y="350.067" fill="black" font-size="12.836" font-family="Helvetica">0</text>
<text xml:space="preserve" x="41.111" y="295.648" fill="black" font-size="12.836" font-family="Helvetica">20</text>
<text xml:space="preserve" x="41.111" y="242.041" fill="black" font-size="12.836" font-family="Helvetica">40</text>
<text xml:space="preserve" x="41.111" y="187.623" fill="black" font-size="12.836" font-family="Helvetica">60</text>
<text xml:space="preserve" x="41.111" y="133.204" fill="black" font-size="12.836" font-family="Helvetica">80</text>
<text xml:space="preserve" x="33.801" y="79.5975" fill="black" font-size="12.836" font-family="Helvetica">100</text>
<g transform="rotate(-90,20.8055,69.8509)">
<text xml:space="preserve" x="20.8055" y="69.8509" fill="black" font-size="12.836" font-family="Helvetica">Event</text>
</g>
<text xml:space="preserve" x="250.664" y="18.681" fill="black" font-size="17.9813" font-family="Helvetica">Am_002</text>
<rect x="442.705" y="24.9717" width="113.386" height="61.4688" fill="white"/>
<path d="M442.705,86.4405h 113.386" fill="none" stroke="black"/>
<path d="M556.091,86.4405v -61.4688" fill="none" stroke="black"/>
<path d="M556.091,24.9717h -113.386" fill="none" stroke="black"/>
<path d="M442.705,24.9717v 61.4688" fill="none" stroke="black"/>
<text xml:space="preserve" x="474.836" y="36.5499" fill="black" font-size="13.4705" font-family="Helvetica">Am_002</text>
<path d="M442.705,40.3389h 113.386" fill="none" stroke="black"/>
<text xml:space="preserve" x="448.033" y="52.7943" fill="black" font-size="13.0884" font-family="Helvetica">Entries </text>
<text xml:space="preserve" x="517.884" y="52.7943" fill="black" font-size="13.0884" font-family="Helvetica"> 1353</text>
<text xml:space="preserve" x="448.033" y="68.2264" fill="black" font-size="13.0884" font-family="Helvetica">Mean  </text>
<text xml:space="preserve" x="510.574" y="68.2264" fill="black" font-size="13.0884" font-family="Helvetica">  102.4</text>
<text xml:space="preserve" x="448.033" y="82.8464" fill="black" font-size="13.0884" font-family="Helvetica">Std Dev   </text>
<text xml:space="preserve" x="514.635" y="82.8464" fill="black" font-size="13.0884" font-family="Helvetica">   62.3</text>
<text xml:space="preserve" x="250.664" y="18.681" fill="black" font-size="17.9813" font-family="Helvetica">Am_002</text></svg>
