<?xml version="1.0" standalone="no"?>
<svg width="567.429" height="384.68" viewBox="0 0 567.429 384.68" xmlns="http://www.w3.org/2000/svg" shape-rendering="crispEdges">
<title>
img/week1/plane_hist/Am_005.svg
</title>
<desc>
Creator: ROOT Version 6.22/09
CreationDate: Tue Jul 13 18:34:33 2021</desc>
<defs>
</defs>
<rect x="0.5" y="0" width="566.929" height="384.18" fill="white"/>
<rect x="57.1929" y="38.418" width="453.543" height="307.344" fill="white"/>
<rect x="57.1929" y="38.418" width="453.543" height="307.344" fill="none" stroke="black"/>
<path d="M57.1929,345.762h 67.6736v -5.0467h 0.650708v -1.26167h 0.650708v -16.4018h 0.650708v 10.0934h 0.650708v -7.57004h 0.650708v -7.57004h 0.650708v -3.78502h 0.650708v 18.9251h 0.650708v -1.26167h 0.650708v 5.0467h 0.650708v -8.83172h 0.650708v
 3.78502h 0.650708v 1.26167h 0.650708v -7.57004h 0.650708v 11.3551h 0.650708v -15.1401h 0.650708v 13.8784h 0.650708v 2.52335h 0.650708v -1.26167h 0.650708v -12.6167h 0.650708v 5.0467h 0.650708v 7.57004h 0.650708v -3.78502h 0.650708v 1.26167h
 0.650708v 2.52335h 1.30142v -1.26167h 0.650708v -2.52335h 0.650708v 3.78502h 0.650708v -11.3551h 0.650708v 12.6167h 0.650708v -5.0467h 0.650708v 6.30837h 0.650708v -3.78502h 0.650708v 1.26167h 1.30142v -8.83172h 0.650708v 2.52335h 0.650708v 6.30837h
 0.650708v -3.78502h 0.650708v -5.0467h 0.650708v 6.30837h 1.30142v 2.52335h 1.30142v 1.26167h 0.650708v -3.78502h 0.650708v 5.0467h 0.650708v -2.52335h 1.30142v -8.83172h 0.650708v 5.0467h 0.650708v 1.26167h 0.650708v 1.26167h 0.650708v -2.52335h
 0.650708v 1.26167h 0.650708v 2.52335h 0.650708v 3.78502h 0.650708v -10.0934h 0.650708v 8.83172h 0.650708v -6.30837h 0.650708v 6.30837h 0.650708v -10.0934h 0.650708v 8.83172h 0.650708v -6.30837h 0.650708v 3.78502h 1.30142v -5.0467h 0.650708v 3.78502h
 0.650708v -10.0934h 0.650708v 11.3551h 0.650708v 3.78502h 0.650708v -10.0934h 0.650708v 5.0467h 0.650708v -3.78502h 0.650708v 8.83172h 0.650708v -3.78502h 0.650708v -3.78502h 1.30142v -1.26167h 0.650708v 2.52335h 0.650708v 3.78502h 0.650708v
 -7.57004h 0.650708v 8.83172h 0.650708v -3.78502h 0.650708v 1.26167h 1.30142v 3.78502h 0.650708v -8.83172h 0.650708v 6.30837h 0.650708v 5.0467h 0.650708v -15.1401h 0.650708v 6.30837h 0.650708v -8.83172h 0.650708v 8.83172h 0.650708v -6.30837h
 0.650708v 3.78502h 0.650708v 5.0467h 0.650708v -2.52335h 0.650708v 8.83172h 0.650708v -20.1868h 0.650708v 12.6167h 0.650708v 1.26167h 1.30142v 1.26167h 0.650708v -5.0467h 0.650708v 7.57004h 0.650708v -5.0467h 0.650708v 3.78502h 0.650708v -8.83172h
 0.650708v 3.78502h 1.30142v 8.83172h 0.650708v -7.57004h 0.650708v 1.26167h 0.650708v -7.57004h 0.650708v 1.26167h 0.650708v -1.26167h 0.650708v 5.0467h 0.650708v 3.78502h 0.650708v -5.0467h 0.650708v 8.83172h 0.650708v -5.0467h 0.650708v 2.52335h
 0.650708v -2.52335h 0.650708v -3.78502h 0.650708v 3.78502h 0.650708v 2.52335h 0.650708v -1.26167h 0.650708v -1.26167h 1.30142v -8.83172h 0.650708v 1.26167h 0.650708v 2.52335h 0.650708v 6.30837h 0.650708v 5.0467h 0.650708v -5.0467h 0.650708v
 -7.57004h 0.650708v 7.57004h 0.650708v -22.7101h 0.650708v 17.6634h 0.650708v -2.52335h 0.650708v -11.3551h 0.650708v 12.6167h 0.650708v -1.26167h 0.650708v 1.26167h 0.650708v 1.26167h 0.650708v -6.30837h 0.650708v -2.52335h 0.650708v 2.52335h
 0.650708v 7.57004h 0.650708v -10.0934h 0.650708v 5.0467h 0.650708v -10.0934h 0.650708v 20.1868h 0.650708v -13.8784h 0.650708v 5.0467h 0.650708v 5.0467h 0.650708v -2.52335h 0.650708v -8.83172h 0.650708v -3.78502h 0.650708v 2.52335h 0.650708v 5.0467h
 0.650708v -7.57004h 0.650708v -3.78502h 0.650708v 8.83172h 0.650708v -7.57004h 0.650708v 5.0467h 0.650708v -5.0467h 0.650708v 8.83172h 0.650708v -1.26167h 0.650708v 3.78502h 0.650708v -2.52335h 0.650708v -8.83172h 0.650708v 3.78502h 0.650708v
 -2.52335h 0.650708v 12.6167h 0.650708v -11.3551h 1.30142v -2.52335h 0.650708v 5.0467h 0.650708v -7.57004h 0.650708v 7.57004h 0.650708v -5.0467h 0.650708v -3.78502h 0.650708v 5.0467h 0.650708v -1.26167h 0.650708v 5.0467h 0.650708v -11.3551h 0.650708v
 15.1401h 0.650708v 2.52335h 0.650708v -6.30837h 0.650708v -5.0467h 0.650708v 6.30837h 0.650708v 2.52335h 0.650708v -10.0934h 0.650708v -20.1868h 0.650708v 10.0934h 0.650708v 5.0467h 0.650708v 8.83172h 0.650708v -13.8784h 0.650708v 11.3551h 0.650708v
 -5.0467h 0.650708v -7.57004h 0.650708v 3.78502h 0.650708v -1.26167h 0.650708v -12.6167h 0.650708v 10.0934h 0.650708v 7.57004h 0.650708v -8.83172h 0.650708v -6.30837h 0.650708v 1.26167h 0.650708v 3.78502h 0.650708v 3.78502h 0.650708v -11.3551h
 0.650708v 2.52335h 0.650708v -16.4018h 0.650708v 11.3551h 0.650708v -16.4018h 0.650708v 11.3551h 0.650708v -11.3551h 0.650708v 20.1868h 0.650708v 6.30837h 0.650708v -13.8784h 0.650708v 3.78502h 0.650708v -12.6167h 0.650708v 18.9251h 0.650708v
 -10.0934h 0.650708v -13.8784h 0.650708v 7.57004h 0.650708v -7.57004h 0.650708v 11.3551h 0.650708v -20.1868h 0.650708v 16.4018h 0.650708v 15.1401h 0.650708v -5.0467h 0.650708v 6.30837h 0.650708v -26.4952h 0.650708v 2.52335h 0.650708v 13.8784h
 0.650708v 20.1868h 0.650708v -23.9718h 0.650708v -20.1868h 0.650708v -1.26167h 0.650708v 8.83172h 0.650708v 13.8784h 0.650708v -10.0934h 0.650708v -8.83172h 0.650708v 8.83172h 0.650708v 26.4952h 0.650708v -17.6634h 0.650708v 8.83172h 0.650708v
 -20.1868h 0.650708v 17.6634h 0.650708v -6.30837h 0.650708v 3.78502h 0.650708v 3.78502h 0.650708v 6.30837h 0.650708v -7.57004h 0.650708v -16.4018h 0.650708v 11.3551h 0.650708v -7.57004h 0.650708v 20.1868h 0.650708v 3.78502h 0.650708v -12.6167h
 0.650708v 6.30837h 0.650708v -6.30837h 0.650708v 10.0934h 0.650708v -3.78502h 0.650708v 5.0467h 0.650708v -12.6167h 0.650708v 6.30837h 0.650708v 21.4485h 0.650708v -39.1119h 0.650708v 13.8784h 0.650708v 15.1401h 0.650708v -1.26167h 1.30142v 1.26167h
 0.650708v -17.6634h 0.650708v 21.4485h 0.650708v 5.0467h 0.650708v -12.6167h 0.650708v -5.0467h 0.650708v 16.4018h 0.650708v 8.83172h 0.650708v -6.30837h 0.650708v -13.8784h 1.30142v 2.52335h 0.650708v 17.6634h 0.650708v -12.6167h 0.650708v 5.0467h
 0.650708v -11.3551h 0.650708v 6.30837h 0.650708v 17.6634h 0.650708v -10.0934h 0.650708v -11.3551h 0.650708v 7.57004h 0.650708v -2.52335h 0.650708v -11.3551h 0.650708v 10.0934h 0.650708v 11.3551h 0.650708v -13.8784h 0.650708v 17.6634h 0.650708v
 -13.8784h 0.650708v 8.83172h 0.650708v -10.0934h 0.650708v 6.30837h 0.650708v 5.0467h 0.650708v -13.8784h 0.650708v 2.52335h 0.650708v 10.0934h 0.650708v 3.78502h 0.650708v -8.83172h 0.650708v 1.26167h 0.650708v -3.78502h 0.650708v 12.6167h
 0.650708v -12.6167h 0.650708v 7.57004h 0.650708v -11.3551h 0.650708v 11.3551h 0.650708v 10.0934h 0.650708v -11.3551h 0.650708v -2.52335h 0.650708v 5.0467h 0.650708v -5.0467h 0.650708v 11.3551h 0.650708v -3.78502h 0.650708v -8.83172h 0.650708v
 12.6167h 1.30142v -6.30837h 0.650708v 10.0934h 0.650708v -8.83172h 0.650708v 1.26167h 0.650708v 2.52335h 0.650708v -3.78502h 0.650708v -6.30837h 0.650708v 11.3551h 0.650708v -5.0467h 0.650708v 13.8784h 0.650708v -18.9251h 0.650708v 10.0934h 1.30142v
 2.52335h 0.650708v -11.3551h 0.650708v 7.57004h 0.650708v -2.52335h 0.650708v 11.3551h 0.650708v -6.30837h 0.650708v 5.0467h 0.650708v -3.78502h 0.650708v -1.26167h 0.650708v 3.78502h 0.650708v -2.52335h 0.650708v -1.26167h 0.650708v -6.30837h
 0.650708v 8.83172h 0.650708v 1.26167h 0.650708v -3.78502h 0.650708v 6.30837h 0.650708v -1.26167h 0.650708v 1.26167h 0.650708v 1.26167h 1.30142v -5.0467h 0.650708v 10.0934h 0.650708v -6.30837h 0.650708v 2.52335h 0.650708v -2.52335h 0.650708v
 -3.78502h 0.650708v -2.52335h 0.650708v 2.52335h 0.650708v 1.26167h 0.650708v 1.26167h 1.30142v -3.78502h 0.650708v 1.26167h 0.650708v -3.78502h 0.650708v 7.57004h 0.650708v 3.78502h 0.650708v -1.26167h 0.650708v -3.78502h 0.650708v 6.30837h
 0.650708v -1.26167h 0.650708v -6.30837h 0.650708v 5.0467h 0.650708v 1.26167h 0.650708v -2.52335h 0.650708v 1.26167h 1.30142v -3.78502h 0.650708v 5.0467h 0.650708v 5.0467h 0.650708v -10.0934h 1.30142v 1.26167h 0.650708v 5.0467h 0.650708v -5.0467h
 0.650708v 1.26167h 0.650708v 1.26167h 0.650708v -2.52335h 0.650708v 2.52335h 0.650708v -5.0467h 0.650708v 8.83172h 0.650708v -6.30837h 0.650708v 3.78502h 0.650708v -6.30837h 0.650708v -2.52335h 0.650708v 5.0467h 0.650708v 2.52335h 0.650708v 1.26167h
 0.650708v 1.26167h 0.650708v -3.78502h 1.30142v -5.0467h 0.650708v 1.26167h 0.650708v 5.0467h 0.650708v -3.78502h 0.650708v 5.0467h 0.650708v -11.3551h 0.650708v 8.83172h 0.650708v 1.26167h 0.650708v 1.26167h 0.650708v 1.26167h 0.650708v -5.0467h
 0.650708v 1.26167h 0.650708v -1.26167h 0.650708v -2.52335h 0.650708v 2.52335h 0.650708v 3.78502h 0.650708v 3.78502h 0.650708v -5.0467h 0.650708v -3.78502h 0.650708v -1.26167h 0.650708v 10.0934h 0.650708v -8.83172h 0.650708v 1.26167h 0.650708v
 5.0467h 0.650708v -5.0467h 1.30142v 5.0467h 1.30142v -2.52335h 0.650708v 3.78502h 0.650708v -1.26167h 0.650708v -2.52335h 0.650708v -5.0467h 0.650708v 1.26167h 0.650708v 6.30837h 1.30142v 1.26167h 0.650708v 2.52335h 0.650708v -1.26167h 0.650708v
 -1.26167h 0.650708v 2.52335h 0.650708v -1.26167h 0.650708v -2.52335h 0.650708v 2.52335h 0.650708v 2.52335h 0.650708v -1.26167h 0.650708v -1.26167h 1.30142v 1.26167h 0.650708v 2.52335h 0.650708v -2.52335h 0.650708v 1.26167h 0.650708v -1.26167h
 0.650708v -1.26167h 0.650708v 1.26167h 1.30142v 1.26167h 0.650708v -3.78502h 0.650708v 3.78502h 1.30142v -6.30837h 0.650708v 3.78502h 0.650708v 1.26167h 1.30142v 2.52335h 0.650708v -3.78502h 0.650708v 3.78502h 0.650708v -2.52335h 0.650708v 1.26167h
 1.30142v -2.52335h 0.650708v 3.78502h 0.650708v -1.26167h 0.650708v -1.26167h 0.650708v 2.52335h 0.650708v -1.26167h 0.650708v -1.26167h 0.650708v 1.26167h 0.650708v -1.26167h 1.30142v 2.52335h 2.60283v -2.52335h 0.650708v 1.26167h 0.650708v
 1.26167h 1.95212v -3.78502h 0.650708v 2.52335h 0.650708v -1.26167h 0.650708v -2.52335h 0.650708v 3.78502h 2.60283v 1.26167h 2.60283v -1.26167h 1.30142v 1.26167h 0.650708v -1.26167h 0.650708v -1.26167h 1.95212v 2.52335h 2.60283v -1.26167h 0.650708v
 1.26167h 0.650708v -1.26167h 0.650708v 1.26167h 1.30142v -1.26167h 1.30142v 1.26167h 0.650708v -2.52335h 0.650708v 2.52335h 1.30142v -1.26167h 1.30142v 1.26167h 1.30142v -1.26167h 0.650708v 1.26167h 1.30142v -1.26167h 0.650708v -1.26167h 0.650708v
 2.52335h 2.60283v -2.52335h 0.650708v 2.52335h 0.650708v -1.26167h 0.650708v 1.26167h 1.30142v -1.26167h 0.650708v 1.26167h 1.30142v -1.26167h 1.95212v -1.26167h 0.650708v 2.52335h 0.650708v -1.26167h 1.30142v 1.26167h 0.650708v -1.26167h 0.650708v
 -1.26167h 0.650708v -1.26167h 0.650708v 1.26167h 0.650708v -2.52335h 0.650708v -61.822h 0.650708v -195.559h 0.650708v -27.7568h 0.650708v -2.52335h 0.650708v 82.0088h 0.650708v 116.074h 0.650708v 15.1401h 0.650708v -5.0467h 0.650708v -7.57004h
 0.650708v 12.6167h 1.30142v -25.2335h 0.650708v 17.6634h 0.650708v 10.0934h 0.650708v 16.4018h 0.650708v 27.7568h 0.650708v 20.1868h 0.650708v 12.6167h 1.30142v -1.26167h 0.650708" fill="none" stroke="#000099"/>
<path d="M57.1929,345.762h 453.543" fill="none" stroke="black"/>
<path d="M57.8436,336.541v 9.22031" fill="none" stroke="black"/>
<path d="M79.5339,341.152v 4.61016" fill="none" stroke="black"/>
<path d="M101.224,341.152v 4.61016" fill="none" stroke="black"/>
<path d="M122.914,341.152v 4.61016" fill="none" stroke="black"/>
<path d="M144.605,341.152v 4.61016" fill="none" stroke="black"/>
<path d="M166.295,336.541v 9.22031" fill="none" stroke="black"/>
<path d="M187.985,341.152v 4.61016" fill="none" stroke="black"/>
<path d="M209.675,341.152v 4.61016" fill="none" stroke="black"/>
<path d="M231.366,341.152v 4.61016" fill="none" stroke="black"/>
<path d="M253.056,341.152v 4.61016" fill="none" stroke="black"/>
<path d="M274.746,336.541v 9.22031" fill="none" stroke="black"/>
<path d="M296.436,341.152v 4.61016" fill="none" stroke="black"/>
<path d="M318.127,341.152v 4.61016" fill="none" stroke="black"/>
<path d="M339.817,341.152v 4.61016" fill="none" stroke="black"/>
<path d="M361.507,341.152v 4.61016" fill="none" stroke="black"/>
<path d="M383.198,336.541v 9.22031" fill="none" stroke="black"/>
<path d="M404.888,341.152v 4.61016" fill="none" stroke="black"/>
<path d="M426.578,341.152v 4.61016" fill="none" stroke="black"/>
<path d="M448.268,341.152v 4.61016" fill="none" stroke="black"/>
<path d="M469.959,341.152v 4.61016" fill="none" stroke="black"/>
<path d="M491.649,336.541v 9.22031" fill="none" stroke="black"/>
<path d="M57.8436,336.541v 9.22031" fill="none" stroke="black"/>
<path d="M491.649,336.541v 9.22031" fill="none" stroke="black"/>
<text xml:space="preserve" x="54.1065" y="358.189" fill="black" font-size="12.836" font-family="Helvetica">0</text>
<text xml:space="preserve" x="155.634" y="358.189" fill="black" font-size="12.836" font-family="Helvetica">500</text>
<text xml:space="preserve" x="260.41" y="358.189" fill="black" font-size="12.836" font-family="Helvetica">1000</text>
<text xml:space="preserve" x="369.248" y="358.189" fill="black" font-size="12.836" font-family="Helvetica">1500</text>
<text xml:space="preserve" x="477.273" y="358.189" fill="black" font-size="12.836" font-family="Helvetica">2000</text>
<text xml:space="preserve" x="452.094" y="371.996" fill="black" font-size="12.836" font-family="Helvetica">ADC value</text>
<path d="M57.1929,345.762v -307.344" fill="none" stroke="black"/>
<path d="M70.7992,345.762h -13.6063" fill="none" stroke="black"/>
<path d="M63.9961,339.453h -6.80315" fill="none" stroke="black"/>
<path d="M63.9961,333.145h -6.80315" fill="none" stroke="black"/>
<path d="M63.9961,326.837h -6.80315" fill="none" stroke="black"/>
<path d="M70.7992,320.528h -13.6063" fill="none" stroke="black"/>
<path d="M63.9961,314.22h -6.80315" fill="none" stroke="black"/>
<path d="M63.9961,307.912h -6.80315" fill="none" stroke="black"/>
<path d="M63.9961,301.603h -6.80315" fill="none" stroke="black"/>
<path d="M70.7992,295.295h -13.6063" fill="none" stroke="black"/>
<path d="M63.9961,288.986h -6.80315" fill="none" stroke="black"/>
<path d="M63.9961,282.678h -6.80315" fill="none" stroke="black"/>
<path d="M63.9961,276.37h -6.80315" fill="none" stroke="black"/>
<path d="M70.7992,270.061h -13.6063" fill="none" stroke="black"/>
<path d="M63.9961,263.753h -6.80315" fill="none" stroke="black"/>
<path d="M63.9961,257.445h -6.80315" fill="none" stroke="black"/>
<path d="M63.9961,251.136h -6.80315" fill="none" stroke="black"/>
<path d="M70.7992,244.828h -13.6063" fill="none" stroke="black"/>
<path d="M63.9961,238.52h -6.80315" fill="none" stroke="black"/>
<path d="M63.9961,232.211h -6.80315" fill="none" stroke="black"/>
<path d="M63.9961,225.903h -6.80315" fill="none" stroke="black"/>
<path d="M70.7992,219.594h -13.6063" fill="none" stroke="black"/>
<path d="M63.9961,213.286h -6.80315" fill="none" stroke="black"/>
<path d="M63.9961,206.978h -6.80315" fill="none" stroke="black"/>
<path d="M63.9961,200.669h -6.80315" fill="none" stroke="black"/>
<path d="M70.7992,194.361h -13.6063" fill="none" stroke="black"/>
<path d="M63.9961,188.053h -6.80315" fill="none" stroke="black"/>
<path d="M63.9961,181.744h -6.80315" fill="none" stroke="black"/>
<path d="M63.9961,175.436h -6.80315" fill="none" stroke="black"/>
<path d="M70.7992,169.127h -13.6063" fill="none" stroke="black"/>
<path d="M63.9961,162.819h -6.80315" fill="none" stroke="black"/>
<path d="M63.9961,156.511h -6.80315" fill="none" stroke="black"/>
<path d="M63.9961,150.202h -6.80315" fill="none" stroke="black"/>
<path d="M70.7992,143.894h -13.6063" fill="none" stroke="black"/>
<path d="M63.9961,137.586h -6.80315" fill="none" stroke="black"/>
<path d="M63.9961,131.277h -6.80315" fill="none" stroke="black"/>
<path d="M63.9961,124.969h -6.80315" fill="none" stroke="black"/>
<path d="M70.7992,118.66h -13.6063" fill="none" stroke="black"/>
<path d="M63.9961,112.352h -6.80315" fill="none" stroke="black"/>
<path d="M63.9961,106.044h -6.80315" fill="none" stroke="black"/>
<path d="M63.9961,99.7353h -6.80315" fill="none" stroke="black"/>
<path d="M70.7992,93.427h -13.6063" fill="none" stroke="black"/>
<path d="M63.9961,87.1186h -6.80315" fill="none" stroke="black"/>
<path d="M63.9961,80.8102h -6.80315" fill="none" stroke="black"/>
<path d="M63.9961,74.5019h -6.80315" fill="none" stroke="black"/>
<path d="M70.7992,68.1935h -13.6063" fill="none" stroke="black"/>
<path d="M63.9961,61.8851h -6.80315" fill="none" stroke="black"/>
<path d="M63.9961,55.5767h -6.80315" fill="none" stroke="black"/>
<path d="M63.9961,49.2684h -6.80315" fill="none" stroke="black"/>
<path d="M70.7992,42.96h -13.6063" fill="none" stroke="black"/>
<path d="M70.7992,42.96h -13.6063" fill="none" stroke="black"/>
<text xml:space="preserve" x="47.6087" y="350.067" fill="black" font-size="12.836" font-family="Helvetica">0</text>
<text xml:space="preserve" x="41.111" y="324.888" fill="black" font-size="12.836" font-family="Helvetica">20</text>
<text xml:space="preserve" x="41.111" y="299.709" fill="black" font-size="12.836" font-family="Helvetica">40</text>
<text xml:space="preserve" x="41.111" y="274.53" fill="black" font-size="12.836" font-family="Helvetica">60</text>
<text xml:space="preserve" x="41.111" y="249.351" fill="black" font-size="12.836" font-family="Helvetica">80</text>
<text xml:space="preserve" x="33.801" y="224.173" fill="black" font-size="12.836" font-family="Helvetica">100</text>
<text xml:space="preserve" x="33.801" y="198.994" fill="black" font-size="12.836" font-family="Helvetica">120</text>
<text xml:space="preserve" x="33.801" y="173.815" fill="black" font-size="12.836" font-family="Helvetica">140</text>
<text xml:space="preserve" x="33.801" y="148.636" fill="black" font-size="12.836" font-family="Helvetica">160</text>
<text xml:space="preserve" x="33.801" y="123.457" fill="black" font-size="12.836" font-family="Helvetica">180</text>
<text xml:space="preserve" x="33.801" y="98.2785" fill="black" font-size="12.836" font-family="Helvetica">200</text>
<text xml:space="preserve" x="33.801" y="72.2875" fill="black" font-size="12.836" font-family="Helvetica">220</text>
<text xml:space="preserve" x="33.801" y="47.1087" fill="black" font-size="12.836" font-family="Helvetica">240</text>
<g transform="rotate(-90,20.8055,69.8509)">
<text xml:space="preserve" x="20.8055" y="69.8509" fill="black" font-size="12.836" font-family="Helvetica">Event</text>
</g>
<text xml:space="preserve" x="250.664" y="18.681" fill="black" font-size="17.9813" font-family="Helvetica">Am_005</text>
<rect x="442.705" y="24.9717" width="113.386" height="61.4688" fill="white"/>
<path d="M442.705,86.4405h 113.386" fill="none" stroke="black"/>
<path d="M556.091,86.4405v -61.4688" fill="none" stroke="black"/>
<path d="M556.091,24.9717h -113.386" fill="none" stroke="black"/>
<path d="M442.705,24.9717v 61.4688" fill="none" stroke="black"/>
<text xml:space="preserve" x="474.836" y="36.5499" fill="black" font-size="13.4705" font-family="Helvetica">Am_005</text>
<path d="M442.705,40.3389h 113.386" fill="none" stroke="black"/>
<text xml:space="preserve" x="448.033" y="52.7943" fill="black" font-size="12.7411" font-family="Helvetica">Entries </text>
<text xml:space="preserve" x="513.01" y="52.7943" fill="black" font-size="12.7411" font-family="Helvetica"> 10216</text>
<text xml:space="preserve" x="448.033" y="68.2264" fill="black" font-size="12.7411" font-family="Helvetica">Mean  </text>
<text xml:space="preserve" x="513.01" y="68.2264" fill="black" font-size="12.7411" font-family="Helvetica">   1184</text>
<text xml:space="preserve" x="448.033" y="82.8464" fill="black" font-size="12.7411" font-family="Helvetica">Std Dev   </text>
<text xml:space="preserve" x="516.259" y="82.8464" fill="black" font-size="12.7411" font-family="Helvetica">    466</text>
<text xml:space="preserve" x="250.664" y="18.681" fill="black" font-size="17.9813" font-family="Helvetica">Am_005</text></svg>
