<?xml version="1.0" standalone="no"?>
<svg width="567.429" height="384.969" viewBox="0 0 567.429 384.969" xmlns="http://www.w3.org/2000/svg" shape-rendering="crispEdges">
<title>
img/week1/plane_hist/Am_002.svg
</title>
<desc>
Creator: ROOT Version 6.22/09
CreationDate: Thu Jul  8 17:44:25 2021</desc>
<defs>
</defs>
<rect x="0.5" y="0" width="566.929" height="384.469" fill="white"/>
<rect x="57.1929" y="38.4469" width="453.543" height="307.575" fill="white"/>
<rect x="57.1929" y="38.4469" width="453.543" height="307.575" fill="none" stroke="black"/>
<path d="M57.1929,346.022h 37.5545v -9.7643h 2.88881v -6.50953h 2.88881v 3.25477h 5.77762v -9.7643h 2.88881v -9.7643h 2.88881v 6.50953h 2.88881v 9.7643h 5.77762v -61.8405h 2.88881v -48.8215h 2.88881v -29.2929h 2.88881v -87.8787h 2.88881v 87.8787h
 2.88881v -136.7h 2.88881v 55.331h 2.88881v -42.312h 2.88881v 156.229h 2.88881v -107.407h 2.88881v 117.172h 2.88881v 6.50953h 2.88881v 13.0191h 2.88881v 26.0381h 2.88881v -16.2738h 2.88881v 16.2738h 2.88881v 16.2738h 2.88881v -26.0381h 2.88881v
 48.8215h 2.88881v -16.2738h 2.88881v 35.8024h 2.88881v -6.50953h 2.88881v 9.7643h 5.77762v -9.7643h 2.88881v 13.0191h 2.88881v -3.25477h 2.88881v 6.50953h 2.88881v -9.7643h 2.88881v -3.25477h 5.77762v 13.0191h 2.88881v -9.7643h 2.88881v 3.25477h
 2.88881v 3.25477h 2.88881v -6.50953h 2.88881v 3.25477h 5.77762v -9.7643h 2.88881v 9.7643h 2.88881v -9.7643h 2.88881v 13.0191h 2.88881v -19.5286h 2.88881v 3.25477h 2.88881v 13.0191h 2.88881v -6.50953h 5.77762v -42.312h 2.88881v 19.5286h 2.88881v
 26.0381h 2.88881v -26.0381h 2.88881v -13.0191h 2.88881v 22.7834h 2.88881v -6.50953h 2.88881v 16.2738h 2.88881v 3.25477h 2.88881v -16.2738h 2.88881v 6.50953h 2.88881v -9.7643h 2.88881v -32.5477h 2.88881v -9.7643h 2.88881v -78.1144h 2.88881v -3.25477h
 2.88881v -29.2929h 2.88881v 74.8596h 2.88881v 29.2929h 2.88881v 19.5286h 2.88881v 45.5667h 2.88881v 3.25477h 2.88881v 13.0191h 5.77762v -3.25477h 2.88881v 3.25477h 8.66643v -6.50953h 2.88881v 6.50953h 14.4441v -3.25477h 2.88881v 3.25477h 5.77762v
 -3.25477h 2.88881v 3.25477h 2.88881v -3.25477h 2.88881v 3.25477h 17.3329v -3.25477h 2.88881v 3.25477h 2.88881v -3.25477h 2.88881v 3.25477h 25.9993v -3.25477h 2.88881v 3.25477h 80.8867v -3.25477h 2.88881" fill="none" stroke="#000099"/>
<path d="M57.1929,346.022h 453.543" fill="none" stroke="black"/>
<path d="M60.0817,336.795v 9.22726" fill="none" stroke="black"/>
<path d="M69.7111,341.409v 4.61363" fill="none" stroke="black"/>
<path d="M79.3405,341.409v 4.61363" fill="none" stroke="black"/>
<path d="M88.9698,341.409v 4.61363" fill="none" stroke="black"/>
<path d="M98.5992,341.409v 4.61363" fill="none" stroke="black"/>
<path d="M108.229,336.795v 9.22726" fill="none" stroke="black"/>
<path d="M117.858,341.409v 4.61363" fill="none" stroke="black"/>
<path d="M127.487,341.409v 4.61363" fill="none" stroke="black"/>
<path d="M137.117,341.409v 4.61363" fill="none" stroke="black"/>
<path d="M146.746,341.409v 4.61363" fill="none" stroke="black"/>
<path d="M156.375,336.795v 9.22726" fill="none" stroke="black"/>
<path d="M166.005,341.409v 4.61363" fill="none" stroke="black"/>
<path d="M175.634,341.409v 4.61363" fill="none" stroke="black"/>
<path d="M185.264,341.409v 4.61363" fill="none" stroke="black"/>
<path d="M194.893,341.409v 4.61363" fill="none" stroke="black"/>
<path d="M204.522,336.795v 9.22726" fill="none" stroke="black"/>
<path d="M214.152,341.409v 4.61363" fill="none" stroke="black"/>
<path d="M223.781,341.409v 4.61363" fill="none" stroke="black"/>
<path d="M233.41,341.409v 4.61363" fill="none" stroke="black"/>
<path d="M243.04,341.409v 4.61363" fill="none" stroke="black"/>
<path d="M252.669,336.795v 9.22726" fill="none" stroke="black"/>
<path d="M262.298,341.409v 4.61363" fill="none" stroke="black"/>
<path d="M271.928,341.409v 4.61363" fill="none" stroke="black"/>
<path d="M281.557,341.409v 4.61363" fill="none" stroke="black"/>
<path d="M291.187,341.409v 4.61363" fill="none" stroke="black"/>
<path d="M300.816,336.795v 9.22726" fill="none" stroke="black"/>
<path d="M310.445,341.409v 4.61363" fill="none" stroke="black"/>
<path d="M320.075,341.409v 4.61363" fill="none" stroke="black"/>
<path d="M329.704,341.409v 4.61363" fill="none" stroke="black"/>
<path d="M339.333,341.409v 4.61363" fill="none" stroke="black"/>
<path d="M348.963,336.795v 9.22726" fill="none" stroke="black"/>
<path d="M358.592,341.409v 4.61363" fill="none" stroke="black"/>
<path d="M368.222,341.409v 4.61363" fill="none" stroke="black"/>
<path d="M377.851,341.409v 4.61363" fill="none" stroke="black"/>
<path d="M387.48,341.409v 4.61363" fill="none" stroke="black"/>
<path d="M397.11,336.795v 9.22726" fill="none" stroke="black"/>
<path d="M406.739,341.409v 4.61363" fill="none" stroke="black"/>
<path d="M416.368,341.409v 4.61363" fill="none" stroke="black"/>
<path d="M425.998,341.409v 4.61363" fill="none" stroke="black"/>
<path d="M435.627,341.409v 4.61363" fill="none" stroke="black"/>
<path d="M445.257,336.795v 9.22726" fill="none" stroke="black"/>
<path d="M454.886,341.409v 4.61363" fill="none" stroke="black"/>
<path d="M464.515,341.409v 4.61363" fill="none" stroke="black"/>
<path d="M474.145,341.409v 4.61363" fill="none" stroke="black"/>
<path d="M483.774,341.409v 4.61363" fill="none" stroke="black"/>
<path d="M493.403,336.795v 9.22726" fill="none" stroke="black"/>
<path d="M60.0817,336.795v 9.22726" fill="none" stroke="black"/>
<path d="M493.403,336.795v 9.22726" fill="none" stroke="black"/>
<path d="M503.033,341.409v 4.61363" fill="none" stroke="black"/>
<text xml:space="preserve" x="56.7042" y="358.403" fill="black" font-size="12.8453" font-family="Helvetica">0</text>
<text xml:space="preserve" x="101.505" y="358.403" fill="black" font-size="12.8453" font-family="Helvetica">50</text>
<text xml:space="preserve" x="145.49" y="358.403" fill="black" font-size="12.8453" font-family="Helvetica">100</text>
<text xml:space="preserve" x="193.549" y="358.403" fill="black" font-size="12.8453" font-family="Helvetica">150</text>
<text xml:space="preserve" x="241.608" y="358.403" fill="black" font-size="12.8453" font-family="Helvetica">200</text>
<text xml:space="preserve" x="289.666" y="358.403" fill="black" font-size="12.8453" font-family="Helvetica">250</text>
<text xml:space="preserve" x="337.725" y="358.403" fill="black" font-size="12.8453" font-family="Helvetica">300</text>
<text xml:space="preserve" x="385.784" y="358.403" fill="black" font-size="12.8453" font-family="Helvetica">350</text>
<text xml:space="preserve" x="434.657" y="358.403" fill="black" font-size="12.8453" font-family="Helvetica">400</text>
<text xml:space="preserve" x="482.716" y="358.403" fill="black" font-size="12.8453" font-family="Helvetica">450</text>
<text xml:space="preserve" x="451.763" y="372.251" fill="black" font-size="12.8453" font-family="Helvetica">ADC value</text>
<path d="M57.1929,346.022v -307.575" fill="none" stroke="black"/>
<path d="M70.7992,346.022h -13.6063" fill="none" stroke="black"/>
<path d="M63.9961,339.513h -6.80315" fill="none" stroke="black"/>
<path d="M63.9961,333.003h -6.80315" fill="none" stroke="black"/>
<path d="M63.9961,326.494h -6.80315" fill="none" stroke="black"/>
<path d="M63.9961,319.984h -6.80315" fill="none" stroke="black"/>
<path d="M70.7992,313.475h -13.6063" fill="none" stroke="black"/>
<path d="M63.9961,306.965h -6.80315" fill="none" stroke="black"/>
<path d="M63.9961,300.456h -6.80315" fill="none" stroke="black"/>
<path d="M63.9961,293.946h -6.80315" fill="none" stroke="black"/>
<path d="M63.9961,287.436h -6.80315" fill="none" stroke="black"/>
<path d="M70.7992,280.927h -13.6063" fill="none" stroke="black"/>
<path d="M63.9961,274.417h -6.80315" fill="none" stroke="black"/>
<path d="M63.9961,267.908h -6.80315" fill="none" stroke="black"/>
<path d="M63.9961,261.398h -6.80315" fill="none" stroke="black"/>
<path d="M63.9961,254.889h -6.80315" fill="none" stroke="black"/>
<path d="M70.7992,248.379h -13.6063" fill="none" stroke="black"/>
<path d="M63.9961,241.87h -6.80315" fill="none" stroke="black"/>
<path d="M63.9961,235.36h -6.80315" fill="none" stroke="black"/>
<path d="M63.9961,228.851h -6.80315" fill="none" stroke="black"/>
<path d="M63.9961,222.341h -6.80315" fill="none" stroke="black"/>
<path d="M70.7992,215.832h -13.6063" fill="none" stroke="black"/>
<path d="M63.9961,209.322h -6.80315" fill="none" stroke="black"/>
<path d="M63.9961,202.813h -6.80315" fill="none" stroke="black"/>
<path d="M63.9961,196.303h -6.80315" fill="none" stroke="black"/>
<path d="M63.9961,189.794h -6.80315" fill="none" stroke="black"/>
<path d="M70.7992,183.284h -13.6063" fill="none" stroke="black"/>
<path d="M63.9961,176.774h -6.80315" fill="none" stroke="black"/>
<path d="M63.9961,170.265h -6.80315" fill="none" stroke="black"/>
<path d="M63.9961,163.755h -6.80315" fill="none" stroke="black"/>
<path d="M63.9961,157.246h -6.80315" fill="none" stroke="black"/>
<path d="M70.7992,150.736h -13.6063" fill="none" stroke="black"/>
<path d="M63.9961,144.227h -6.80315" fill="none" stroke="black"/>
<path d="M63.9961,137.717h -6.80315" fill="none" stroke="black"/>
<path d="M63.9961,131.208h -6.80315" fill="none" stroke="black"/>
<path d="M63.9961,124.698h -6.80315" fill="none" stroke="black"/>
<path d="M70.7992,118.189h -13.6063" fill="none" stroke="black"/>
<path d="M63.9961,111.679h -6.80315" fill="none" stroke="black"/>
<path d="M63.9961,105.17h -6.80315" fill="none" stroke="black"/>
<path d="M63.9961,98.6601h -6.80315" fill="none" stroke="black"/>
<path d="M63.9961,92.1506h -6.80315" fill="none" stroke="black"/>
<path d="M70.7992,85.641h -13.6063" fill="none" stroke="black"/>
<path d="M63.9961,79.1315h -6.80315" fill="none" stroke="black"/>
<path d="M63.9961,72.622h -6.80315" fill="none" stroke="black"/>
<path d="M63.9961,66.1124h -6.80315" fill="none" stroke="black"/>
<path d="M63.9961,59.6029h -6.80315" fill="none" stroke="black"/>
<path d="M70.7992,53.0934h -13.6063" fill="none" stroke="black"/>
<path d="M70.7992,53.0934h -13.6063" fill="none" stroke="black"/>
<path d="M63.9961,46.5838h -6.80315" fill="none" stroke="black"/>
<path d="M63.9961,40.0743h -6.80315" fill="none" stroke="black"/>
<text xml:space="preserve" x="47.7441" y="350.258" fill="black" font-size="12.8453" font-family="Helvetica">0</text>
<text xml:space="preserve" x="41.2277" y="317.676" fill="black" font-size="12.8453" font-family="Helvetica">10</text>
<text xml:space="preserve" x="41.2277" y="285.094" fill="black" font-size="12.8453" font-family="Helvetica">20</text>
<text xml:space="preserve" x="41.2277" y="252.512" fill="black" font-size="12.8453" font-family="Helvetica">30</text>
<text xml:space="preserve" x="41.2277" y="219.929" fill="black" font-size="12.8453" font-family="Helvetica">40</text>
<text xml:space="preserve" x="41.2277" y="188.162" fill="black" font-size="12.8453" font-family="Helvetica">50</text>
<text xml:space="preserve" x="41.2277" y="155.58" fill="black" font-size="12.8453" font-family="Helvetica">60</text>
<text xml:space="preserve" x="41.2277" y="122.998" fill="black" font-size="12.8453" font-family="Helvetica">70</text>
<text xml:space="preserve" x="41.2277" y="90.4154" fill="black" font-size="12.8453" font-family="Helvetica">80</text>
<text xml:space="preserve" x="41.2277" y="57.8333" fill="black" font-size="12.8453" font-family="Helvetica">90</text>
<g transform="rotate(-90,29.0094,70.0516)">
<text xml:space="preserve" x="29.0094" y="70.0516" fill="black" font-size="12.8453" font-family="Helvetica">Event</text>
</g>
<text xml:space="preserve" x="250.568" y="18.7347" fill="black" font-size="18.0316" font-family="Helvetica">Am_002</text>
<rect x="442.705" y="24.9905" width="113.386" height="61.5151" fill="white"/>
<path d="M442.705,86.5056h 113.386" fill="none" stroke="black"/>
<path d="M556.091,86.5056v -61.5151" fill="none" stroke="black"/>
<path d="M556.091,24.9905h -113.386" fill="none" stroke="black"/>
<path d="M442.705,24.9905v 61.5151" fill="none" stroke="black"/>
<text xml:space="preserve" x="474.57" y="36.6549" fill="black" font-size="13.4802" font-family="Helvetica">Am_002</text>
<path d="M442.705,40.3693h 113.386" fill="none" stroke="black"/>
<text xml:space="preserve" x="447.69" y="52.946" fill="black" font-size="13.0654" font-family="Helvetica">Entries </text>
<text xml:space="preserve" x="517.741" y="52.946" fill="black" font-size="13.0654" font-family="Helvetica"> 1353</text>
<text xml:space="preserve" x="447.69" y="67.6079" fill="black" font-size="13.0654" font-family="Helvetica">Mean  </text>
<text xml:space="preserve" x="510.41" y="67.6079" fill="black" font-size="13.0654" font-family="Helvetica">  137.3</text>
<text xml:space="preserve" x="447.69" y="83.0844" fill="black" font-size="13.0654" font-family="Helvetica">Std Dev   </text>
<text xml:space="preserve" x="510.41" y="83.0844" fill="black" font-size="13.0654" font-family="Helvetica">  75.36</text>
<text xml:space="preserve" x="250.568" y="18.7347" fill="black" font-size="18.0316" font-family="Helvetica">Am_002</text></svg>
