<?xml version="1.0" standalone="no"?>
<svg width="567.429" height="384.68" viewBox="0 0 567.429 384.68" xmlns="http://www.w3.org/2000/svg" shape-rendering="crispEdges">
<title>
img/week1/plane_hist/Am_alpha_002.svg
</title>
<desc>
Creator: ROOT Version 6.22/09
CreationDate: Sun Jul 11 17:35:54 2021</desc>
<defs>
</defs>
<rect x="0.5" y="0" width="566.929" height="384.18" fill="white"/>
<rect x="57.1929" y="38.418" width="453.543" height="307.344" fill="white"/>
<rect x="57.1929" y="38.418" width="453.543" height="307.344" fill="none" stroke="black"/>
<path d="M57.1929,345.762h 74.0063v -10.0934h 0.678957v 10.0934h 19.0108v -10.0934h 0.678957v 10.0934h 3.39479v -10.0934h 0.678957v 10.0934h 2.71583v -10.0934h 0.678957v 10.0934h 2.03687v -10.0934h 0.678957v 10.0934h 0.678957v -10.0934h 1.35791v
 -10.0934h 0.678957v 20.1868h 0.678957v -20.1868h 1.35791v 20.1868h 0.678957v -20.1868h 0.678957v 20.1868h 0.678957v -50.467h 0.678957v 20.1868h 0.678957v 10.0934h 0.678957v 10.0934h 1.35791v -30.2802h 0.678957v 10.0934h 0.678957v 10.0934h 0.678957v
 -40.3736h 0.678957v 20.1868h 0.678957v 10.0934h 0.678957v -10.0934h 0.678957v -40.3736h 0.678957v 40.3736h 0.678957v -50.467h 0.678957v -30.2802h 0.678957v 30.2802h 0.678957v -10.0934h 0.678957v 30.2802h 0.678957v -80.7471h 0.678957v 40.3736h
 0.678957v -60.5604h 0.678957v -60.5604h 0.678957v 100.934h 0.678957v -100.934h 0.678957v 70.6538h 0.678957v -10.0934h 0.678957v 10.0934h 1.35791v -50.467h 1.35791v 50.467h 0.678957v -90.8405h 0.678957v 40.3736h 0.678957v 50.467h 0.678957v -131.214h
 0.678957v 40.3736h 1.35791v 70.6538h 0.678957v -30.2802h 0.678957v 50.467h 0.678957v -20.1868h 0.678957v -20.1868h 0.678957v -70.6538h 0.678957v 30.2802h 0.678957v -20.1868h 0.678957v 30.2802h 0.678957v 20.1868h 0.678957v 20.1868h 0.678957v
 -20.1868h 0.678957v -40.3736h 0.678957v 70.6538h 0.678957v 70.6538h 0.678957v -80.7471h 0.678957v 70.6538h 0.678957v -50.467h 0.678957v 30.2802h 0.678957v 40.3736h 0.678957v 10.0934h 1.35791v 30.2802h 0.678957v -30.2802h 0.678957v -40.3736h
 0.678957v 50.467h 0.678957v -30.2802h 0.678957v 50.467h 1.35791v -30.2802h 0.678957v 10.0934h 0.678957v -30.2802h 0.678957v 10.0934h 0.678957v 30.2802h 0.678957v 20.1868h 0.678957v 10.0934h 0.678957v 20.1868h 0.678957v -10.0934h 2.03687v 10.0934h
 0.678957v 10.0934h 1.35791v -30.2802h 0.678957v 40.3736h 1.35791v -30.2802h 0.678957v 20.1868h 0.678957v -20.1868h 0.678957v 20.1868h 0.678957v -20.1868h 0.678957v 20.1868h 1.35791v -10.0934h 0.678957v 10.0934h 1.35791v 10.0934h 0.678957v -20.1868h
 0.678957v 10.0934h 0.678957v -20.1868h 0.678957v 20.1868h 1.35791v -10.0934h 0.678957v 20.1868h 0.678957v -10.0934h 0.678957v 10.0934h 0.678957v -20.1868h 0.678957v 20.1868h 0.678957v -10.0934h 1.35791v -10.0934h 1.35791v 20.1868h 2.03687v -10.0934h
 0.678957v 10.0934h 0.678957v -10.0934h 0.678957v 10.0934h 2.03687v -10.0934h 1.35791v 10.0934h 2.71583v -10.0934h 0.678957v 10.0934h 2.71583v -10.0934h 0.678957v 10.0934h 3.39479v -10.0934h 0.678957v 10.0934h 18.3318v -10.0934h 0.678957v 10.0934h
 8.14748v -10.0934h 0.678957v 10.0934h 2.03687v -10.0934h 0.678957v 10.0934h 11.5423v -10.0934h 0.678957v 10.0934h 4.07374v -10.0934h 0.678957v 10.0934h 11.5423v -10.0934h 1.35791v 10.0934h 1.35791v -10.0934h 0.678957v 10.0934h 2.03687v -10.0934h
 0.678957v 10.0934h 1.35791v -10.0934h 0.678957v 10.0934h 8.82644v -10.0934h 0.678957v 10.0934h 15.616v -10.0934h 0.678957v 10.0934h 65.1799v -10.0934h 0.678957v 10.0934h 32.5899v -10.0934h 0.678957v 10.0934h 56.3534v -10.0934h 0.678957" fill="none"
 stroke="#000099"/>
<path d="M57.1929,345.762h 453.543" fill="none" stroke="black"/>
<path d="M57.8719,336.541v 9.22031" fill="none" stroke="black"/>
<path d="M71.7769,341.152v 4.61016" fill="none" stroke="black"/>
<path d="M85.682,341.152v 4.61016" fill="none" stroke="black"/>
<path d="M99.587,341.152v 4.61016" fill="none" stroke="black"/>
<path d="M113.492,341.152v 4.61016" fill="none" stroke="black"/>
<path d="M127.397,336.541v 9.22031" fill="none" stroke="black"/>
<path d="M141.302,341.152v 4.61016" fill="none" stroke="black"/>
<path d="M155.207,341.152v 4.61016" fill="none" stroke="black"/>
<path d="M169.112,341.152v 4.61016" fill="none" stroke="black"/>
<path d="M183.017,341.152v 4.61016" fill="none" stroke="black"/>
<path d="M196.922,336.541v 9.22031" fill="none" stroke="black"/>
<path d="M210.827,341.152v 4.61016" fill="none" stroke="black"/>
<path d="M224.732,341.152v 4.61016" fill="none" stroke="black"/>
<path d="M238.637,341.152v 4.61016" fill="none" stroke="black"/>
<path d="M252.542,341.152v 4.61016" fill="none" stroke="black"/>
<path d="M266.447,336.541v 9.22031" fill="none" stroke="black"/>
<path d="M280.353,341.152v 4.61016" fill="none" stroke="black"/>
<path d="M294.258,341.152v 4.61016" fill="none" stroke="black"/>
<path d="M308.163,341.152v 4.61016" fill="none" stroke="black"/>
<path d="M322.068,341.152v 4.61016" fill="none" stroke="black"/>
<path d="M335.973,336.541v 9.22031" fill="none" stroke="black"/>
<path d="M349.878,341.152v 4.61016" fill="none" stroke="black"/>
<path d="M363.783,341.152v 4.61016" fill="none" stroke="black"/>
<path d="M377.688,341.152v 4.61016" fill="none" stroke="black"/>
<path d="M391.593,341.152v 4.61016" fill="none" stroke="black"/>
<path d="M405.498,336.541v 9.22031" fill="none" stroke="black"/>
<path d="M419.403,341.152v 4.61016" fill="none" stroke="black"/>
<path d="M433.308,341.152v 4.61016" fill="none" stroke="black"/>
<path d="M447.213,341.152v 4.61016" fill="none" stroke="black"/>
<path d="M461.118,341.152v 4.61016" fill="none" stroke="black"/>
<path d="M475.023,336.541v 9.22031" fill="none" stroke="black"/>
<path d="M57.8719,336.541v 9.22031" fill="none" stroke="black"/>
<path d="M475.023,336.541v 9.22031" fill="none" stroke="black"/>
<path d="M488.928,341.152v 4.61016" fill="none" stroke="black"/>
<path d="M502.833,341.152v 4.61016" fill="none" stroke="black"/>
<text xml:space="preserve" x="54.1065" y="358.189" fill="black" font-size="12.836" font-family="Helvetica">0</text>
<text xml:space="preserve" x="120.708" y="358.189" fill="black" font-size="12.836" font-family="Helvetica">10</text>
<text xml:space="preserve" x="189.747" y="358.189" fill="black" font-size="12.836" font-family="Helvetica">20</text>
<text xml:space="preserve" x="259.598" y="358.189" fill="black" font-size="12.836" font-family="Helvetica">30</text>
<text xml:space="preserve" x="329.449" y="358.189" fill="black" font-size="12.836" font-family="Helvetica">40</text>
<text xml:space="preserve" x="398.487" y="358.189" fill="black" font-size="12.836" font-family="Helvetica">50</text>
<text xml:space="preserve" x="468.338" y="358.189" fill="black" font-size="12.836" font-family="Helvetica">60</text>
<text xml:space="preserve" x="452.094" y="371.996" fill="black" font-size="12.836" font-family="Helvetica">ADC value</text>
<path d="M57.1929,345.762v -307.344" fill="none" stroke="black"/>
<path d="M70.7992,345.762h -13.6063" fill="none" stroke="black"/>
<path d="M63.9961,335.668h -6.80315" fill="none" stroke="black"/>
<path d="M63.9961,325.575h -6.80315" fill="none" stroke="black"/>
<path d="M63.9961,315.482h -6.80315" fill="none" stroke="black"/>
<path d="M63.9961,305.388h -6.80315" fill="none" stroke="black"/>
<path d="M70.7992,295.295h -13.6063" fill="none" stroke="black"/>
<path d="M63.9961,285.201h -6.80315" fill="none" stroke="black"/>
<path d="M63.9961,275.108h -6.80315" fill="none" stroke="black"/>
<path d="M63.9961,265.015h -6.80315" fill="none" stroke="black"/>
<path d="M63.9961,254.921h -6.80315" fill="none" stroke="black"/>
<path d="M70.7992,244.828h -13.6063" fill="none" stroke="black"/>
<path d="M63.9961,234.734h -6.80315" fill="none" stroke="black"/>
<path d="M63.9961,224.641h -6.80315" fill="none" stroke="black"/>
<path d="M63.9961,214.548h -6.80315" fill="none" stroke="black"/>
<path d="M63.9961,204.454h -6.80315" fill="none" stroke="black"/>
<path d="M70.7992,194.361h -13.6063" fill="none" stroke="black"/>
<path d="M63.9961,184.268h -6.80315" fill="none" stroke="black"/>
<path d="M63.9961,174.174h -6.80315" fill="none" stroke="black"/>
<path d="M63.9961,164.081h -6.80315" fill="none" stroke="black"/>
<path d="M63.9961,153.987h -6.80315" fill="none" stroke="black"/>
<path d="M70.7992,143.894h -13.6063" fill="none" stroke="black"/>
<path d="M63.9961,133.801h -6.80315" fill="none" stroke="black"/>
<path d="M63.9961,123.707h -6.80315" fill="none" stroke="black"/>
<path d="M63.9961,113.614h -6.80315" fill="none" stroke="black"/>
<path d="M63.9961,103.52h -6.80315" fill="none" stroke="black"/>
<path d="M70.7992,93.427h -13.6063" fill="none" stroke="black"/>
<path d="M63.9961,83.3336h -6.80315" fill="none" stroke="black"/>
<path d="M63.9961,73.2402h -6.80315" fill="none" stroke="black"/>
<path d="M63.9961,63.1468h -6.80315" fill="none" stroke="black"/>
<path d="M63.9961,53.0534h -6.80315" fill="none" stroke="black"/>
<path d="M70.7992,42.96h -13.6063" fill="none" stroke="black"/>
<path d="M70.7992,42.96h -13.6063" fill="none" stroke="black"/>
<text xml:space="preserve" x="47.6087" y="350.067" fill="black" font-size="12.836" font-family="Helvetica">0</text>
<text xml:space="preserve" x="47.6087" y="299.709" fill="black" font-size="12.836" font-family="Helvetica">5</text>
<text xml:space="preserve" x="41.111" y="249.351" fill="black" font-size="12.836" font-family="Helvetica">10</text>
<text xml:space="preserve" x="40.2988" y="198.994" fill="black" font-size="12.836" font-family="Helvetica">15</text>
<text xml:space="preserve" x="41.111" y="148.636" fill="black" font-size="12.836" font-family="Helvetica">20</text>
<text xml:space="preserve" x="40.2988" y="98.2785" fill="black" font-size="12.836" font-family="Helvetica">25</text>
<text xml:space="preserve" x="41.111" y="47.1087" fill="black" font-size="12.836" font-family="Helvetica">30</text>
<g transform="rotate(-90,28.1155,69.8509)">
<text xml:space="preserve" x="28.1155" y="69.8509" fill="black" font-size="12.836" font-family="Helvetica">Event</text>
</g>
<text xml:space="preserve" x="221.424" y="17.8688" fill="black" font-size="18.7414" font-family="Helvetica">Am_alpha_002</text>
<rect x="442.705" y="24.9717" width="113.386" height="61.4688" fill="white"/>
<path d="M442.705,86.4405h 113.386" fill="none" stroke="black"/>
<path d="M556.091,86.4405v -61.4688" fill="none" stroke="black"/>
<path d="M556.091,24.9717h -113.386" fill="none" stroke="black"/>
<path d="M442.705,24.9717v 61.4688" fill="none" stroke="black"/>
<text xml:space="preserve" x="455.343" y="36.5499" fill="black" font-size="13.4705" font-family="Helvetica">Am_alpha_002</text>
<path d="M442.705,40.3389h 113.386" fill="none" stroke="black"/>
<text xml:space="preserve" x="448.033" y="52.7943" fill="black" font-size="13.0884" font-family="Helvetica">Entries </text>
<text xml:space="preserve" x="517.884" y="52.7943" fill="black" font-size="13.0884" font-family="Helvetica"> 1066</text>
<text xml:space="preserve" x="448.033" y="68.2264" fill="black" font-size="13.0884" font-family="Helvetica">Mean  </text>
<text xml:space="preserve" x="513.01" y="68.2264" fill="black" font-size="13.0884" font-family="Helvetica">  20.31</text>
<text xml:space="preserve" x="448.033" y="82.8464" fill="black" font-size="13.0884" font-family="Helvetica">Std Dev   </text>
<text xml:space="preserve" x="510.574" y="82.8464" fill="black" font-size="13.0884" font-family="Helvetica">  3.422</text>
<text xml:space="preserve" x="221.424" y="17.8688" fill="black" font-size="18.7414" font-family="Helvetica">Am_alpha_002</text></svg>
