<?xml version="1.0" standalone="no"?>
<svg width="567.429" height="384.969" viewBox="0 0 567.429 384.969" xmlns="http://www.w3.org/2000/svg" shape-rendering="crispEdges">
<title>
img/week1/plane_hist/Bg_004.svg
</title>
<desc>
Creator: ROOT Version 6.22/09
CreationDate: Sun Jul 11 18:00:25 2021</desc>
<defs>
</defs>
<rect x="0.5" y="0" width="566.929" height="384.469" fill="white"/>
<rect x="57.1929" y="38.4469" width="453.543" height="307.575" fill="white"/>
<rect x="57.1929" y="38.4469" width="453.543" height="307.575" fill="none" stroke="black"/>
<path d="M57.1929,346.022h 113.386v -10.3034h 37.7953v -108.12h 37.7953v -174.505h 37.7953v 84.6442h 37.7953v 150.768h 37.7953v 29.2146h 37.7953v 24.1282h 37.7953v 3.13014h 37.7953v 0.52169h 37.7953" fill="none" stroke="#000099"/>
<path d="M57.1929,346.022h 453.543" fill="none" stroke="black"/>
<path d="M94.9882,336.795v 9.22726" fill="none" stroke="black"/>
<path d="M107.587,341.409v 4.61363" fill="none" stroke="black"/>
<path d="M120.185,341.409v 4.61363" fill="none" stroke="black"/>
<path d="M132.783,341.409v 4.61363" fill="none" stroke="black"/>
<path d="M145.382,341.409v 4.61363" fill="none" stroke="black"/>
<path d="M157.98,336.795v 9.22726" fill="none" stroke="black"/>
<path d="M170.579,341.409v 4.61363" fill="none" stroke="black"/>
<path d="M183.177,341.409v 4.61363" fill="none" stroke="black"/>
<path d="M195.776,341.409v 4.61363" fill="none" stroke="black"/>
<path d="M208.374,341.409v 4.61363" fill="none" stroke="black"/>
<path d="M220.972,336.795v 9.22726" fill="none" stroke="black"/>
<path d="M233.571,341.409v 4.61363" fill="none" stroke="black"/>
<path d="M246.169,341.409v 4.61363" fill="none" stroke="black"/>
<path d="M258.768,341.409v 4.61363" fill="none" stroke="black"/>
<path d="M271.366,341.409v 4.61363" fill="none" stroke="black"/>
<path d="M283.965,336.795v 9.22726" fill="none" stroke="black"/>
<path d="M296.563,341.409v 4.61363" fill="none" stroke="black"/>
<path d="M309.161,341.409v 4.61363" fill="none" stroke="black"/>
<path d="M321.76,341.409v 4.61363" fill="none" stroke="black"/>
<path d="M334.358,341.409v 4.61363" fill="none" stroke="black"/>
<path d="M346.957,336.795v 9.22726" fill="none" stroke="black"/>
<path d="M359.555,341.409v 4.61363" fill="none" stroke="black"/>
<path d="M372.154,341.409v 4.61363" fill="none" stroke="black"/>
<path d="M384.752,341.409v 4.61363" fill="none" stroke="black"/>
<path d="M397.35,341.409v 4.61363" fill="none" stroke="black"/>
<path d="M409.949,336.795v 9.22726" fill="none" stroke="black"/>
<path d="M422.547,341.409v 4.61363" fill="none" stroke="black"/>
<path d="M435.146,341.409v 4.61363" fill="none" stroke="black"/>
<path d="M447.744,341.409v 4.61363" fill="none" stroke="black"/>
<path d="M460.343,341.409v 4.61363" fill="none" stroke="black"/>
<path d="M472.941,336.795v 9.22726" fill="none" stroke="black"/>
<path d="M94.9882,336.795v 9.22726" fill="none" stroke="black"/>
<path d="M82.3898,341.409v 4.61363" fill="none" stroke="black"/>
<path d="M69.7913,341.409v 4.61363" fill="none" stroke="black"/>
<path d="M57.1929,341.409v 4.61363" fill="none" stroke="black"/>
<path d="M472.941,336.795v 9.22726" fill="none" stroke="black"/>
<path d="M485.539,341.409v 4.61363" fill="none" stroke="black"/>
<path d="M498.138,341.409v 4.61363" fill="none" stroke="black"/>
<text xml:space="preserve" x="91.73" y="358.403" fill="black" font-size="12.8453" font-family="Helvetica">0</text>
<text xml:space="preserve" x="154.451" y="358.403" fill="black" font-size="12.8453" font-family="Helvetica">5</text>
<text xml:space="preserve" x="213.913" y="358.403" fill="black" font-size="12.8453" font-family="Helvetica">10</text>
<text xml:space="preserve" x="276.634" y="358.403" fill="black" font-size="12.8453" font-family="Helvetica">15</text>
<text xml:space="preserve" x="340.169" y="358.403" fill="black" font-size="12.8453" font-family="Helvetica">20</text>
<text xml:space="preserve" x="402.075" y="358.403" fill="black" font-size="12.8453" font-family="Helvetica">25</text>
<text xml:space="preserve" x="466.425" y="358.403" fill="black" font-size="12.8453" font-family="Helvetica">30</text>
<text xml:space="preserve" x="451.763" y="372.251" fill="black" font-size="12.8453" font-family="Helvetica">ADC value</text>
<path d="M57.1929,346.022v -307.575" fill="none" stroke="black"/>
<path d="M70.7992,346.022h -13.6063" fill="none" stroke="black"/>
<path d="M63.9961,339.501h -6.80315" fill="none" stroke="black"/>
<path d="M63.9961,332.98h -6.80315" fill="none" stroke="black"/>
<path d="M63.9961,326.459h -6.80315" fill="none" stroke="black"/>
<path d="M70.7992,319.938h -13.6063" fill="none" stroke="black"/>
<path d="M63.9961,313.417h -6.80315" fill="none" stroke="black"/>
<path d="M63.9961,306.896h -6.80315" fill="none" stroke="black"/>
<path d="M63.9961,300.374h -6.80315" fill="none" stroke="black"/>
<path d="M70.7992,293.853h -13.6063" fill="none" stroke="black"/>
<path d="M63.9961,287.332h -6.80315" fill="none" stroke="black"/>
<path d="M63.9961,280.811h -6.80315" fill="none" stroke="black"/>
<path d="M63.9961,274.29h -6.80315" fill="none" stroke="black"/>
<path d="M70.7992,267.769h -13.6063" fill="none" stroke="black"/>
<path d="M63.9961,261.248h -6.80315" fill="none" stroke="black"/>
<path d="M63.9961,254.727h -6.80315" fill="none" stroke="black"/>
<path d="M63.9961,248.205h -6.80315" fill="none" stroke="black"/>
<path d="M70.7992,241.684h -13.6063" fill="none" stroke="black"/>
<path d="M63.9961,235.163h -6.80315" fill="none" stroke="black"/>
<path d="M63.9961,228.642h -6.80315" fill="none" stroke="black"/>
<path d="M63.9961,222.121h -6.80315" fill="none" stroke="black"/>
<path d="M70.7992,215.6h -13.6063" fill="none" stroke="black"/>
<path d="M63.9961,209.079h -6.80315" fill="none" stroke="black"/>
<path d="M63.9961,202.558h -6.80315" fill="none" stroke="black"/>
<path d="M63.9961,196.036h -6.80315" fill="none" stroke="black"/>
<path d="M70.7992,189.515h -13.6063" fill="none" stroke="black"/>
<path d="M63.9961,182.994h -6.80315" fill="none" stroke="black"/>
<path d="M63.9961,176.473h -6.80315" fill="none" stroke="black"/>
<path d="M63.9961,169.952h -6.80315" fill="none" stroke="black"/>
<path d="M70.7992,163.431h -13.6063" fill="none" stroke="black"/>
<path d="M63.9961,156.91h -6.80315" fill="none" stroke="black"/>
<path d="M63.9961,150.389h -6.80315" fill="none" stroke="black"/>
<path d="M63.9961,143.867h -6.80315" fill="none" stroke="black"/>
<path d="M70.7992,137.346h -13.6063" fill="none" stroke="black"/>
<path d="M63.9961,130.825h -6.80315" fill="none" stroke="black"/>
<path d="M63.9961,124.304h -6.80315" fill="none" stroke="black"/>
<path d="M63.9961,117.783h -6.80315" fill="none" stroke="black"/>
<path d="M70.7992,111.262h -13.6063" fill="none" stroke="black"/>
<path d="M63.9961,104.741h -6.80315" fill="none" stroke="black"/>
<path d="M63.9961,98.2195h -6.80315" fill="none" stroke="black"/>
<path d="M63.9961,91.6984h -6.80315" fill="none" stroke="black"/>
<path d="M70.7992,85.1773h -13.6063" fill="none" stroke="black"/>
<path d="M63.9961,78.6562h -6.80315" fill="none" stroke="black"/>
<path d="M63.9961,72.135h -6.80315" fill="none" stroke="black"/>
<path d="M63.9961,65.6139h -6.80315" fill="none" stroke="black"/>
<path d="M70.7992,59.0928h -13.6063" fill="none" stroke="black"/>
<path d="M70.7992,59.0928h -13.6063" fill="none" stroke="black"/>
<path d="M63.9961,52.5717h -6.80315" fill="none" stroke="black"/>
<path d="M63.9961,46.0505h -6.80315" fill="none" stroke="black"/>
<path d="M63.9961,39.5294h -6.80315" fill="none" stroke="black"/>
<text xml:space="preserve" x="47.7441" y="350.258" fill="black" font-size="12.8453" font-family="Helvetica">0</text>
<text xml:space="preserve" x="33.8967" y="324.192" fill="black" font-size="12.8453" font-family="Helvetica">200</text>
<text xml:space="preserve" x="33.8967" y="298.127" fill="black" font-size="12.8453" font-family="Helvetica">400</text>
<text xml:space="preserve" x="33.8967" y="272.061" fill="black" font-size="12.8453" font-family="Helvetica">600</text>
<text xml:space="preserve" x="33.8967" y="245.995" fill="black" font-size="12.8453" font-family="Helvetica">800</text>
<text xml:space="preserve" x="27.3803" y="219.929" fill="black" font-size="12.8453" font-family="Helvetica">1000</text>
<text xml:space="preserve" x="27.3803" y="193.864" fill="black" font-size="12.8453" font-family="Helvetica">1200</text>
<text xml:space="preserve" x="27.3803" y="167.798" fill="black" font-size="12.8453" font-family="Helvetica">1400</text>
<text xml:space="preserve" x="27.3803" y="141.732" fill="black" font-size="12.8453" font-family="Helvetica">1600</text>
<text xml:space="preserve" x="27.3803" y="115.667" fill="black" font-size="12.8453" font-family="Helvetica">1800</text>
<text xml:space="preserve" x="27.3803" y="89.6009" fill="black" font-size="12.8453" font-family="Helvetica">2000</text>
<text xml:space="preserve" x="27.3803" y="63.5352" fill="black" font-size="12.8453" font-family="Helvetica">2200</text>
<g transform="rotate(-90,14.3474,70.0516)">
<text xml:space="preserve" x="14.3474" y="70.0516" fill="black" font-size="12.8453" font-family="Helvetica">Event</text>
</g>
<text xml:space="preserve" x="251.382" y="17.9202" fill="black" font-size="18.7938" font-family="Helvetica">Bg_004</text>
<rect x="442.705" y="24.9905" width="113.386" height="61.5151" fill="white"/>
<path d="M442.705,86.5056h 113.386" fill="none" stroke="black"/>
<path d="M556.091,86.5056v -61.5151" fill="none" stroke="black"/>
<path d="M556.091,24.9905h -113.386" fill="none" stroke="black"/>
<path d="M442.705,24.9905v 61.5151" fill="none" stroke="black"/>
<text xml:space="preserve" x="476.199" y="36.6549" fill="black" font-size="13.4802" font-family="Helvetica">Bg_004</text>
<path d="M442.705,40.3693h 113.386" fill="none" stroke="black"/>
<text xml:space="preserve" x="447.69" y="52.946" fill="black" font-size="13.0654" font-family="Helvetica">Entries </text>
<text xml:space="preserve" x="517.741" y="52.946" fill="black" font-size="13.0654" font-family="Helvetica"> 5532</text>
<text xml:space="preserve" x="447.69" y="67.6079" fill="black" font-size="13.0654" font-family="Helvetica">Mean  </text>
<text xml:space="preserve" x="510.41" y="68.4225" fill="black" font-size="13.0654" font-family="Helvetica">  14.72</text>
<text xml:space="preserve" x="447.69" y="83.0844" fill="black" font-size="13.0654" font-family="Helvetica">Std Dev   </text>
<text xml:space="preserve" x="510.41" y="83.0844" fill="black" font-size="13.0654" font-family="Helvetica">  3.245</text>
<text xml:space="preserve" x="251.382" y="17.9202" fill="black" font-size="18.7938" font-family="Helvetica">Bg_004</text></svg>
