<?xml version="1.0" standalone="no"?>
<svg width="567.429" height="384.969" viewBox="0 0 567.429 384.969" xmlns="http://www.w3.org/2000/svg" shape-rendering="crispEdges">
<title>
img/week1/plane_hist/Bg_015.svg
</title>
<desc>
Creator: ROOT Version 6.22/09
CreationDate: Tue Jul 13 19:32:00 2021</desc>
<defs>
</defs>
<rect x="0.5" y="0" width="566.929" height="384.469" fill="white"/>
<rect x="57.1929" y="38.4469" width="453.543" height="307.575" fill="white"/>
<rect x="57.1929" y="38.4469" width="453.543" height="307.575" fill="none" stroke="black"/>
<path d="M57.1929,346.022h 63.897v -0.0149134h 1.25288v -0.626363h 0.626441v -31.5866h 0.626441v -163.674h 0.626441v -97.0265h 0.626441v 56.0445h 0.626441v 56.7902h 0.626441v -1.74487h 0.626441v 22.8622h 0.626441v 37.8055h 0.626441v 31.5269h
 0.626441v 4.84685h 0.626441v 6.12941h 0.626441v 13.7501h 0.626441v 17.7022h 0.626441v 8.48572h 0.626441v 3.1169h 0.626441v 4.68281h 0.626441v 7.02421h 0.626441v 5.72674h 0.626441v 2.52036h 0.626441v 0.999197h 0.626441v 2.63967h 0.626441v 2.72915h
 0.626441v 2.77389h 0.626441v 0.208788h 0.626441v 0.462315h 0.626441v 1.47643h 0.626441v 1.04394h 0.626441v 0.626363h 0.626441v 0.0298268h 0.626441v 0.417575h 0.626441v 0.357921h 0.626441v 0.715843h 0.626441v 0.134221h 0.626441v 0.0447402h 0.626441v
 0.178961h 0.626441v 0.074567h 0.626441v 0.268441h 1.25288v 0.0298268h 0.626441v 0.149134h 0.626441v -0.119307h 0.626441v 0.178961h 0.626441v 0.0596536h 0.626441v -0.149134h 0.626441v 0.119307h 0.626441v -0.0447402h 0.626441v 0.119307h 1.25288v
 -0.0447402h 0.626441v 0.0298268h 0.626441v 0.0447402h 0.626441v -0.0596536h 0.626441v 0.104394h 0.626441v -0.0894804h 0.626441v 0.104394h 0.626441v -0.0298268h 0.626441v -0.0298268h 0.626441v -0.0894804h 0.626441v 0.0596536h 0.626441v 0.0596536h
 0.626441v -0.0149134h 1.25288v -0.0298268h 0.626441v 0.0596536h 0.626441v 0.0149134h 0.626441v -0.0447402h 0.626441v -0.0447402h 0.626441v -0.0298268h 0.626441v 0.119307h 0.626441v -0.119307h 0.626441v -0.0149134h 0.626441v 0.074567h 0.626441v
 0.074567h 0.626441v -0.134221h 0.626441v 0.0596536h 0.626441v 0.0149134h 0.626441v -0.0149134h 0.626441v 0.0298268h 1.25288v -0.074567h 0.626441v 0.0447402h 0.626441v 0.0298268h 0.626441v -0.0149134h 0.626441v -0.0596536h 0.626441v 0.104394h
 0.626441v -0.0447402h 0.626441v 0.0149134h 0.626441v -0.119307h 0.626441v 0.104394h 1.25288v -0.0149134h 0.626441v 0.0298268h 0.626441v -0.0298268h 1.25288v -0.0149134h 0.626441v 0.0149134h 0.626441v 0.0149134h 0.626441v 0.0149134h 1.25288v
 -0.074567h 0.626441v 0.0596536h 0.626441v -0.104394h 0.626441v 0.074567h 0.626441v -0.0447402h 0.626441v 0.104394h 1.25288v -0.0596536h 0.626441v 0.0149134h 0.626441v 0.0149134h 1.87932v -0.0149134h 0.626441v -0.0447402h 0.626441v 0.0298268h
 0.626441v -0.0149134h 0.626441v 0.0447402h 0.626441v 0.0447402h 0.626441v -0.149134h 0.626441v 0.134221h 0.626441v 0.0149134h 1.25288v -0.104394h 0.626441v 0.0596536h 0.626441v 0.074567h 0.626441v -0.074567h 0.626441v -0.0447402h 0.626441v
 -0.0149134h 0.626441v -0.0149134h 0.626441v 0.074567h 0.626441v -0.0298268h 0.626441v 0.0298268h 0.626441v -0.0298268h 0.626441v -0.0447402h 0.626441v 0.0596536h 1.25288v 0.0596536h 0.626441v -0.0447402h 0.626441v -0.0894804h 0.626441v 0.104394h
 0.626441v -0.0447402h 0.626441v -0.0298268h 0.626441v 0.0596536h 0.626441v 0.0149134h 0.626441v 0.0149134h 0.626441v -0.074567h 0.626441v 0.0298268h 0.626441v 0.0298268h 0.626441v -0.0596536h 0.626441v 0.074567h 0.626441v -0.0596536h 0.626441v
 0.0298268h 0.626441v -0.0149134h 0.626441v 0.0149134h 0.626441v 0.0149134h 0.626441v -0.0447402h 0.626441v 0.0447402h 0.626441v -0.0447402h 0.626441v 0.0149134h 0.626441v 0.0149134h 0.626441v 0.0149134h 0.626441v 0.0298268h 0.626441v -0.074567h
 0.626441v 0.0298268h 1.25288v 0.0149134h 0.626441v 0.0149134h 0.626441v -0.0149134h 0.626441v 0.0149134h 0.626441v -0.074567h 0.626441v -0.0447402h 0.626441v 0.134221h 0.626441v -0.0596536h 0.626441v 0.0298268h 0.626441v -0.0149134h 0.626441v
 0.0447402h 1.25288v -0.0149134h 0.626441v -0.0596536h 0.626441v 0.0447402h 0.626441v -0.0149134h 0.626441v 0.0298268h 0.626441v 0.0149134h 0.626441v 0.0149134h 0.626441v -0.0447402h 0.626441v -0.0596536h 0.626441v 0.074567h 0.626441v 0.0298268h
 1.25288v -0.0447402h 0.626441v -0.0149134h 0.626441v 0.0447402h 0.626441v -0.0596536h 0.626441v 0.0596536h 0.626441v -0.104394h 0.626441v 0.0149134h 0.626441v 0.119307h 0.626441v -0.0596536h 1.25288v 0.0298268h 0.626441v -0.074567h 0.626441v
 0.0298268h 0.626441v 0.0298268h 0.626441v -0.0596536h 0.626441v 0.074567h 0.626441v -0.0447402h 0.626441v 0.0894804h 0.626441v -0.074567h 2.50576v -0.0447402h 0.626441v 0.0596536h 0.626441v -0.0149134h 1.25288v -0.0447402h 1.25288v 0.0298268h
 0.626441v -0.0447402h 0.626441v 0.0298268h 0.626441v 0.0596536h 0.626441v -0.0149134h 0.626441v 0.0149134h 0.626441v -0.0149134h 0.626441v -0.0447402h 0.626441v 0.0596536h 0.626441v 0.0149134h 1.25288v -0.119307h 0.626441v 0.0894804h 0.626441v
 -0.0298268h 0.626441v 0.0298268h 0.626441v -0.0149134h 0.626441v 0.0149134h 0.626441v 0.0149134h 1.25288v 0.0149134h 0.626441v -0.074567h 0.626441v -0.0149134h 0.626441v 0.074567h 0.626441v -0.0894804h 1.25288v 0.074567h 0.626441v 0.0149134h
 0.626441v -0.0149134h 0.626441v -0.0298268h 0.626441v -0.0149134h 0.626441v 0.0298268h 0.626441v -0.0149134h 0.626441v 0.0298268h 0.626441v -0.0149134h 0.626441v -0.0298268h 0.626441v 0.0149134h 0.626441v 0.0447402h 0.626441v -0.074567h 0.626441v
 0.0298268h 0.626441v 0.0149134h 0.626441v 0.0596536h 0.626441v -0.074567h 0.626441v -0.0894804h 0.626441v 0.0894804h 0.626441v -0.0149134h 0.626441v 0.0298268h 1.25288v 0.0298268h 1.25288v -0.0447402h 0.626441v 0.0596536h 0.626441v -0.074567h
 0.626441v -0.0149134h 0.626441v 0.074567h 0.626441v -0.0447402h 0.626441v 0.0596536h 1.25288v -0.0596536h 0.626441v 0.0596536h 0.626441v -0.104394h 0.626441v 0.0298268h 0.626441v 0.0149134h 0.626441v 0.0149134h 0.626441v -0.0298268h 0.626441v
 0.0447402h 0.626441v -0.0447402h 0.626441v 0.074567h 0.626441v -0.0447402h 0.626441v -0.0298268h 0.626441v 0.0596536h 0.626441v -0.104394h 0.626441v 0.0298268h 0.626441v 0.0149134h 0.626441v 0.0447402h 0.626441v -0.0149134h 0.626441v -0.0298268h
 0.626441v 0.0298268h 0.626441v -0.0149134h 0.626441v 0.0447402h 1.25288v -0.074567h 0.626441v -0.0149134h 0.626441v 0.0894804h 0.626441v 0.0149134h 0.626441v -0.0894804h 0.626441v 0.0447402h 0.626441v -0.0298268h 0.626441v 0.0596536h 1.25288v
 -0.0149134h 1.25288v -0.0447402h 1.25288v 0.0298268h 0.626441v -0.0149134h 1.25288v 0.0298268h 0.626441v -0.0894804h 0.626441v 0.104394h 0.626441v -0.0596536h 0.626441v 0.0149134h 0.626441v -0.0298268h 0.626441v 0.0298268h 0.626441v -0.0298268h
 0.626441v 0.0298268h 0.626441v 0.0149134h 0.626441v -0.0298268h 0.626441v -0.0298268h 0.626441v 0.0596536h 0.626441v 0.0149134h 0.626441v -0.0596536h 1.25288v 0.0596536h 0.626441v -0.0298268h 0.626441v 0.0298268h 0.626441v -0.0298268h 0.626441v
 -0.0149134h 0.626441v 0.0447402h 0.626441v -0.0149134h 0.626441v -0.0149134h 0.626441v 0.0149134h 0.626441v -0.0149134h 0.626441v 0.0149134h 0.626441v -0.0149134h 0.626441v 0.074567h 1.25288v -0.074567h 0.626441v 0.0298268h 0.626441v 0.0149134h
 0.626441v 0.0149134h 0.626441v -0.0447402h 0.626441v 0.0596536h 0.626441v -0.0447402h 0.626441v -0.0596536h 0.626441v 0.0596536h 0.626441v 0.0298268h 0.626441v -0.0298268h 0.626441v 0.0298268h 0.626441v -0.0596536h 0.626441v 0.074567h 0.626441v
 -0.074567h 0.626441v -0.0149134h 0.626441v 0.074567h 0.626441v -0.0298268h 1.25288v -0.0447402h 0.626441v 0.0298268h 0.626441v 0.0298268h 0.626441v -0.0447402h 0.626441v 0.0298268h 1.25288v 0.0149134h 0.626441v -0.0447402h 0.626441v -0.0298268h
 0.626441v 0.0447402h 1.25288v 0.0447402h 0.626441v -0.0298268h 0.626441v -0.0298268h 0.626441v 0.0149134h 0.626441v 0.0149134h 0.626441v -0.0298268h 0.626441v 0.0149134h 0.626441v 0.0298268h 0.626441v -0.0149134h 0.626441v 0.0298268h 0.626441v
 0.0149134h 1.25288v -0.0596536h 0.626441v 0.0298268h 0.626441v -0.0447402h 0.626441v 0.0596536h 0.626441v 0.0149134h 0.626441v -0.0447402h 2.50576v -0.0149134h 0.626441v -0.0149134h 0.626441v 0.0447402h 0.626441v -0.0149134h 0.626441v 0.0447402h
 0.626441v -0.0894804h 0.626441v 0.0298268h 0.626441v 0.0447402h 1.25288v -0.0149134h 0.626441v -0.0298268h 0.626441v 0.0596536h 0.626441v -0.0596536h 0.626441v 0.0149134h 0.626441v -0.0149134h 0.626441v 0.0149134h 0.626441v 0.0149134h 1.25288v
 0.0149134h 0.626441v -0.0596536h 0.626441v 0.0149134h 0.626441v 0.0149134h 0.626441v 0.0298268h 1.25288v -0.0447402h 0.626441v 0.0298268h 0.626441v 0.0447402h 0.626441v -0.0596536h 0.626441v 0.0447402h 0.626441v -0.074567h 0.626441v 0.074567h
 0.626441v -0.074567h 0.626441v -0.0447402h 0.626441v 0.104394h 0.626441v -0.0149134h 0.626441v -0.0149134h 0.626441v 0.0149134h 1.25288v 0.0149134h 0.626441v -0.0298268h 0.626441v -0.0298268h 0.626441v 0.0149134h 0.626441v -0.0298268h 0.626441v
 0.074567h 0.626441v -0.0149134h 0.626441v -0.0447402h 0.626441v 0.0596536h 1.25288v -0.0149134h 0.626441v 0.0298268h 0.626441v -0.0298268h 0.626441v -0.0447402h 0.626441v 0.0596536h 0.626441v 0.0149134h 0.626441v -0.0596536h 0.626441v 0.0596536h
 0.626441v -0.0447402h 0.626441v 0.0149134h 0.626441v -0.0149134h 0.626441v -0.0447402h 0.626441v 0.0894804h 0.626441v -0.0596536h 0.626441v 0.0149134h 0.626441v 0.0298268h 0.626441v -0.0447402h 0.626441v 0.0298268h 0.626441v -0.0447402h 0.626441v
 0.0447402h 0.626441v -0.104394h 0.626441v 0.119307h 0.626441v -0.0149134h 0.626441v 0.0298268h 0.626441v -0.0298268h 0.626441v -0.0596536h 0.626441v 0.0298268h 0.626441v 0.0298268h 0.626441v -0.0298268h 0.626441v 0.0447402h 0.626441v -0.0447402h
 0.626441v 0.0447402h 0.626441v 0.0149134h 0.626441v -0.0149134h 0.626441v 0.0298268h 0.626441v -0.0149134h 0.626441v -0.0894804h 0.626441v 0.104394h 0.626441v -0.0596536h 0.626441v 0.0298268h 0.626441v -0.0596536h 0.626441v 0.0596536h 0.626441v
 0.0149134h 1.87932v -0.0149134h 0.626441v 0.0298268h 0.626441v -0.0298268h 0.626441v -0.0149134h 1.25288v 0.0298268h 0.626441v -0.0149134h 0.626441v -0.0149134h 0.626441v 0.0298268h 0.626441v -0.0298268h 1.25288v 0.0149134h 0.626441v -0.0298268h
 0.626441v -0.0447402h 0.626441v 0.074567h 0.626441v 0.0149134h 0.626441v 0.0149134h 0.626441v -0.0447402h 1.25288v 0.0447402h 0.626441v -0.0447402h 1.25288v -0.0596536h 0.626441v 0.0596536h 0.626441v 0.0149134h 0.626441v 0.0149134h 1.25288v
 -0.0298268h 0.626441v -0.0298268h 0.626441v 0.0596536h 0.626441v -0.0149134h 1.25288v -0.0298268h 0.626441v 0.0447402h 0.626441v -0.0149134h 0.626441v -0.0596536h 0.626441v 0.074567h 0.626441v -0.0596536h 0.626441v 0.0149134h 1.87932v 0.0149134h
 0.626441v 0.0298268h 0.626441v 0.0149134h 0.626441v -0.0447402h 0.626441v 0.0298268h 0.626441v -0.0447402h 0.626441v 0.0298268h 1.25288v 0.0298268h 0.626441v -0.0149134h 0.626441v -0.0596536h 0.626441v 0.0596536h 0.626441v -0.0298268h 0.626441v
 0.0298268h 1.25288v -0.0149134h 0.626441v -0.0149134h 0.626441v 0.0447402h 0.626441v -0.0447402h 0.626441v 0.0149134h 0.626441v -0.0149134h 0.626441v 0.0298268h 0.626441v -0.0894804h 0.626441v 0.0596536h 1.25288v 0.0149134h 1.25288v -0.0298268h
 0.626441v 0.0298268h 0.626441v 0.0149134h 0.626441v -0.0149134h 1.87932v 0.0149134h 0.626441v -0.0149134h 0.626441v -0.0149134h 0.626441v -0.0149134h 0.626441v 0.0149134h 0.626441v 0.0447402h 0.626441v -0.0298268h 0.626441v 0.0149134h 0.626441v
 -0.074567h 0.626441v 0.0149134h 0.626441v 0.0149134h 0.626441v -0.193874h 0.626441v -1.90891h 0.626441v -7.81462h 0.626441v 0.939544h 0.626441v 2.02822h 0.626441v -0.372835h 0.626441v 1.31238h 0.626441v 2.16244h 0.626441v 0.999197h 0.626441v
 0.596536h 0.626441v 0.178961h 0.626441v 0.149134h 0.626441v 0.477229h 0.626441v -0.119307h 0.626441v -0.193874h 0.626441v -0.0149134h 0.626441v 0.536882h 0.626441v 0.074567h 0.626441v 0.193874h 0.626441v -0.596536h 1.25288v 0.283354h 0.626441v
 0.0298268h 0.626441v 0.0149134h 0.626441v -0.104394h 0.626441v 0.178961h 0.626441v -0.074567h 0.626441v 0.0596536h 0.626441v 0.074567h 0.626441v -0.193874h 0.626441v 0.462315h 0.626441v -0.0298268h 0.626441v -0.298268h 0.626441v 0.119307h 0.626441v
 0.149134h 0.626441v 0.447402h 0.626441v -0.268441h 0.626441v -0.0298268h 0.626441v 0.0447402h 0.626441v 0.0894804h 0.626441v 0.149134h 0.626441v 0.0447402h 0.626441v -0.104394h 0.626441v 0.134221h 0.626441v 0.178961h 0.626441v 0.149134h 0.626441v
 0.0447402h 0.626441v 0.0596536h 0.626441" fill="none" stroke="#000099"/>
<path d="M57.1929,346.022h 453.543" fill="none" stroke="black"/>
<path d="M57.8194,336.795v 9.22726" fill="none" stroke="black"/>
<path d="M78.7007,341.409v 4.61363" fill="none" stroke="black"/>
<path d="M99.5821,341.409v 4.61363" fill="none" stroke="black"/>
<path d="M120.463,341.409v 4.61363" fill="none" stroke="black"/>
<path d="M141.345,341.409v 4.61363" fill="none" stroke="black"/>
<path d="M162.226,336.795v 9.22726" fill="none" stroke="black"/>
<path d="M183.108,341.409v 4.61363" fill="none" stroke="black"/>
<path d="M203.989,341.409v 4.61363" fill="none" stroke="black"/>
<path d="M224.87,341.409v 4.61363" fill="none" stroke="black"/>
<path d="M245.752,341.409v 4.61363" fill="none" stroke="black"/>
<path d="M266.633,336.795v 9.22726" fill="none" stroke="black"/>
<path d="M287.514,341.409v 4.61363" fill="none" stroke="black"/>
<path d="M308.396,341.409v 4.61363" fill="none" stroke="black"/>
<path d="M329.277,341.409v 4.61363" fill="none" stroke="black"/>
<path d="M350.159,341.409v 4.61363" fill="none" stroke="black"/>
<path d="M371.04,336.795v 9.22726" fill="none" stroke="black"/>
<path d="M391.921,341.409v 4.61363" fill="none" stroke="black"/>
<path d="M412.803,341.409v 4.61363" fill="none" stroke="black"/>
<path d="M433.684,341.409v 4.61363" fill="none" stroke="black"/>
<path d="M454.565,341.409v 4.61363" fill="none" stroke="black"/>
<path d="M475.447,336.795v 9.22726" fill="none" stroke="black"/>
<path d="M57.8194,336.795v 9.22726" fill="none" stroke="black"/>
<path d="M475.447,336.795v 9.22726" fill="none" stroke="black"/>
<path d="M496.328,341.409v 4.61363" fill="none" stroke="black"/>
<text xml:space="preserve" x="54.2605" y="358.403" fill="black" font-size="12.8453" font-family="Helvetica">0</text>
<text xml:space="preserve" x="151.192" y="358.403" fill="black" font-size="12.8453" font-family="Helvetica">500</text>
<text xml:space="preserve" x="252.197" y="358.403" fill="black" font-size="12.8453" font-family="Helvetica">1000</text>
<text xml:space="preserve" x="356.46" y="358.403" fill="black" font-size="12.8453" font-family="Helvetica">1500</text>
<text xml:space="preserve" x="461.537" y="358.403" fill="black" font-size="12.8453" font-family="Helvetica">2000</text>
<text xml:space="preserve" x="451.763" y="372.251" fill="black" font-size="12.8453" font-family="Helvetica">ADC value</text>
<path d="M57.1929,346.022v -307.575" fill="none" stroke="black"/>
<path d="M70.7992,346.022h -13.6063" fill="none" stroke="black"/>
<path d="M63.9961,338.566h -6.80315" fill="none" stroke="black"/>
<path d="M63.9961,331.109h -6.80315" fill="none" stroke="black"/>
<path d="M63.9961,323.652h -6.80315" fill="none" stroke="black"/>
<path d="M70.7992,316.195h -13.6063" fill="none" stroke="black"/>
<path d="M63.9961,308.739h -6.80315" fill="none" stroke="black"/>
<path d="M63.9961,301.282h -6.80315" fill="none" stroke="black"/>
<path d="M63.9961,293.825h -6.80315" fill="none" stroke="black"/>
<path d="M70.7992,286.369h -13.6063" fill="none" stroke="black"/>
<path d="M63.9961,278.912h -6.80315" fill="none" stroke="black"/>
<path d="M63.9961,271.455h -6.80315" fill="none" stroke="black"/>
<path d="M63.9961,263.999h -6.80315" fill="none" stroke="black"/>
<path d="M70.7992,256.542h -13.6063" fill="none" stroke="black"/>
<path d="M63.9961,249.085h -6.80315" fill="none" stroke="black"/>
<path d="M63.9961,241.628h -6.80315" fill="none" stroke="black"/>
<path d="M63.9961,234.172h -6.80315" fill="none" stroke="black"/>
<path d="M70.7992,226.715h -13.6063" fill="none" stroke="black"/>
<path d="M63.9961,219.258h -6.80315" fill="none" stroke="black"/>
<path d="M63.9961,211.802h -6.80315" fill="none" stroke="black"/>
<path d="M63.9961,204.345h -6.80315" fill="none" stroke="black"/>
<path d="M70.7992,196.888h -13.6063" fill="none" stroke="black"/>
<path d="M63.9961,189.432h -6.80315" fill="none" stroke="black"/>
<path d="M63.9961,181.975h -6.80315" fill="none" stroke="black"/>
<path d="M63.9961,174.518h -6.80315" fill="none" stroke="black"/>
<path d="M70.7992,167.062h -13.6063" fill="none" stroke="black"/>
<path d="M63.9961,159.605h -6.80315" fill="none" stroke="black"/>
<path d="M63.9961,152.148h -6.80315" fill="none" stroke="black"/>
<path d="M63.9961,144.691h -6.80315" fill="none" stroke="black"/>
<path d="M70.7992,137.235h -13.6063" fill="none" stroke="black"/>
<path d="M63.9961,129.778h -6.80315" fill="none" stroke="black"/>
<path d="M63.9961,122.321h -6.80315" fill="none" stroke="black"/>
<path d="M63.9961,114.865h -6.80315" fill="none" stroke="black"/>
<path d="M70.7992,107.408h -13.6063" fill="none" stroke="black"/>
<path d="M63.9961,99.9512h -6.80315" fill="none" stroke="black"/>
<path d="M63.9961,92.4946h -6.80315" fill="none" stroke="black"/>
<path d="M63.9961,85.0379h -6.80315" fill="none" stroke="black"/>
<path d="M70.7992,77.5812h -13.6063" fill="none" stroke="black"/>
<path d="M63.9961,70.1245h -6.80315" fill="none" stroke="black"/>
<path d="M63.9961,62.6678h -6.80315" fill="none" stroke="black"/>
<path d="M63.9961,55.2111h -6.80315" fill="none" stroke="black"/>
<path d="M70.7992,47.7544h -13.6063" fill="none" stroke="black"/>
<path d="M70.7992,47.7544h -13.6063" fill="none" stroke="black"/>
<path d="M63.9961,40.2977h -6.80315" fill="none" stroke="black"/>
<text xml:space="preserve" x="47.7441" y="350.258" fill="black" font-size="12.8453" font-family="Helvetica">0</text>
<text xml:space="preserve" x="27.3803" y="320.934" fill="black" font-size="12.8453" font-family="Helvetica">2000</text>
<text xml:space="preserve" x="27.3803" y="290.796" fill="black" font-size="12.8453" font-family="Helvetica">4000</text>
<text xml:space="preserve" x="27.3803" y="260.657" fill="black" font-size="12.8453" font-family="Helvetica">6000</text>
<text xml:space="preserve" x="27.3803" y="231.333" fill="black" font-size="12.8453" font-family="Helvetica">8000</text>
<text xml:space="preserve" x="20.8638" y="201.195" fill="black" font-size="12.8453" font-family="Helvetica">10000</text>
<text xml:space="preserve" x="20.8638" y="171.871" fill="black" font-size="12.8453" font-family="Helvetica">12000</text>
<text xml:space="preserve" x="20.8638" y="141.732" fill="black" font-size="12.8453" font-family="Helvetica">14000</text>
<text xml:space="preserve" x="20.8638" y="111.594" fill="black" font-size="12.8453" font-family="Helvetica">16000</text>
<text xml:space="preserve" x="20.8638" y="82.2699" fill="black" font-size="12.8453" font-family="Helvetica">18000</text>
<text xml:space="preserve" x="20.8638" y="52.1314" fill="black" font-size="12.8453" font-family="Helvetica">20000</text>
<g transform="rotate(-90,7.83098,70.0516)">
<text xml:space="preserve" x="7.83098" y="70.0516" fill="black" font-size="12.8453" font-family="Helvetica">Event</text>
</g>
<text xml:space="preserve" x="251.382" y="17.9202" fill="black" font-size="18.7938" font-family="Helvetica">Bg_015</text>
<rect x="442.705" y="24.9905" width="113.386" height="61.5151" fill="white"/>
<path d="M442.705,86.5056h 113.386" fill="none" stroke="black"/>
<path d="M556.091,86.5056v -61.5151" fill="none" stroke="black"/>
<path d="M556.091,24.9905h -113.386" fill="none" stroke="black"/>
<path d="M442.705,24.9905v 61.5151" fill="none" stroke="black"/>
<text xml:space="preserve" x="476.199" y="36.6549" fill="black" font-size="13.4802" font-family="Helvetica">Bg_015</text>
<path d="M442.705,40.3693h 113.386" fill="none" stroke="black"/>
<text xml:space="preserve" x="447.69" y="52.946" fill="black" font-size="12.3904" font-family="Helvetica">Entries </text>
<text xml:space="preserve" x="506.338" y="52.946" fill="black" font-size="12.3904" font-family="Helvetica"> 143352</text>
<text xml:space="preserve" x="447.69" y="67.6079" fill="black" font-size="12.3904" font-family="Helvetica">Mean  </text>
<text xml:space="preserve" x="515.298" y="67.6079" fill="black" font-size="12.3904" font-family="Helvetica">  420.1</text>
<text xml:space="preserve" x="447.69" y="83.0844" fill="black" font-size="12.3904" font-family="Helvetica">Std Dev   </text>
<text xml:space="preserve" x="512.854" y="83.0844" fill="black" font-size="12.3904" font-family="Helvetica">  366.7</text>
<text xml:space="preserve" x="251.382" y="17.9202" fill="black" font-size="18.7938" font-family="Helvetica">Bg_015</text></svg>
