<?xml version="1.0" standalone="no"?>
<svg width="567.429" height="384.68" viewBox="0 0 567.429 384.68" xmlns="http://www.w3.org/2000/svg" shape-rendering="crispEdges">
<title>
img/week1/plane_hist/Bg_002.svg
</title>
<desc>
Creator: ROOT Version 6.22/09
CreationDate: Tue Jul 13 18:38:12 2021</desc>
<defs>
</defs>
<rect x="0.5" y="0" width="566.929" height="384.18" fill="white"/>
<rect x="57.1929" y="38.418" width="453.543" height="307.344" fill="white"/>
<rect x="57.1929" y="38.418" width="453.543" height="307.344" fill="none" stroke="black"/>
<path d="M57.1929,345.762h 26.3389v -7.0411h 0.642413v -285.667h 0.642413v 25.1468h 0.642413v 93.546h 0.642413v 77.452h 0.642413v 40.2348h 0.642413v 9.05284h 0.642413v 21.1233h 0.642413v 6.03522h 0.642413v 5.02935h 0.642413v 11.0646h 1.28483v
 1.00587h 0.642413v 1.00587h 0.642413v 1.00587h 0.642413v 1.00587h 1.92724v -1.00587h 0.642413v 1.00587h 46.8961v -1.00587h 0.642413v 1.00587h 64.8837v -1.00587h 0.642413v 1.00587h 10.921v -1.00587h 0.642413v 1.00587h 86.0833v -1.00587h 0.642413v
 1.00587h 16.0603v -1.00587h 0.642413v 1.00587h 89.2953v -1.00587h 0.642413v 1.00587h 68.0957v -1.00587h 0.642413v 1.00587h 12.2058v -1.00587h 0.642413v 1.00587h 0.642413v -1.00587h 1.28483v 1.00587h 12.8483v -1.00587h 0.642413" fill="none"
 stroke="#000099"/>
<path d="M57.1929,345.762h 453.543" fill="none" stroke="black"/>
<path d="M57.8353,336.541v 9.22031" fill="none" stroke="black"/>
<path d="M79.2491,341.152v 4.61016" fill="none" stroke="black"/>
<path d="M100.663,341.152v 4.61016" fill="none" stroke="black"/>
<path d="M122.077,341.152v 4.61016" fill="none" stroke="black"/>
<path d="M143.49,341.152v 4.61016" fill="none" stroke="black"/>
<path d="M164.904,336.541v 9.22031" fill="none" stroke="black"/>
<path d="M186.318,341.152v 4.61016" fill="none" stroke="black"/>
<path d="M207.732,341.152v 4.61016" fill="none" stroke="black"/>
<path d="M229.145,341.152v 4.61016" fill="none" stroke="black"/>
<path d="M250.559,341.152v 4.61016" fill="none" stroke="black"/>
<path d="M271.973,336.541v 9.22031" fill="none" stroke="black"/>
<path d="M293.387,341.152v 4.61016" fill="none" stroke="black"/>
<path d="M314.8,341.152v 4.61016" fill="none" stroke="black"/>
<path d="M336.214,341.152v 4.61016" fill="none" stroke="black"/>
<path d="M357.628,341.152v 4.61016" fill="none" stroke="black"/>
<path d="M379.042,336.541v 9.22031" fill="none" stroke="black"/>
<path d="M400.455,341.152v 4.61016" fill="none" stroke="black"/>
<path d="M421.869,341.152v 4.61016" fill="none" stroke="black"/>
<path d="M443.283,341.152v 4.61016" fill="none" stroke="black"/>
<path d="M464.697,341.152v 4.61016" fill="none" stroke="black"/>
<path d="M486.11,336.541v 9.22031" fill="none" stroke="black"/>
<path d="M57.8353,336.541v 9.22031" fill="none" stroke="black"/>
<path d="M486.11,336.541v 9.22031" fill="none" stroke="black"/>
<path d="M507.524,341.152v 4.61016" fill="none" stroke="black"/>
<text xml:space="preserve" x="54.1065" y="358.189" fill="black" font-size="12.836" font-family="Helvetica">0</text>
<text xml:space="preserve" x="154.009" y="358.189" fill="black" font-size="12.836" font-family="Helvetica">500</text>
<text xml:space="preserve" x="257.974" y="358.189" fill="black" font-size="12.836" font-family="Helvetica">1000</text>
<text xml:space="preserve" x="365.186" y="358.189" fill="black" font-size="12.836" font-family="Helvetica">1500</text>
<text xml:space="preserve" x="471.587" y="358.189" fill="black" font-size="12.836" font-family="Helvetica">2000</text>
<text xml:space="preserve" x="452.094" y="371.996" fill="black" font-size="12.836" font-family="Helvetica">ADC value</text>
<path d="M57.1929,345.762v -307.344" fill="none" stroke="black"/>
<path d="M70.7992,345.762h -13.6063" fill="none" stroke="black"/>
<path d="M63.9961,335.703h -6.80315" fill="none" stroke="black"/>
<path d="M63.9961,325.644h -6.80315" fill="none" stroke="black"/>
<path d="M63.9961,315.586h -6.80315" fill="none" stroke="black"/>
<path d="M63.9961,305.527h -6.80315" fill="none" stroke="black"/>
<path d="M70.7992,295.468h -13.6063" fill="none" stroke="black"/>
<path d="M63.9961,285.41h -6.80315" fill="none" stroke="black"/>
<path d="M63.9961,275.351h -6.80315" fill="none" stroke="black"/>
<path d="M63.9961,265.292h -6.80315" fill="none" stroke="black"/>
<path d="M63.9961,255.233h -6.80315" fill="none" stroke="black"/>
<path d="M70.7992,245.175h -13.6063" fill="none" stroke="black"/>
<path d="M63.9961,235.116h -6.80315" fill="none" stroke="black"/>
<path d="M63.9961,225.057h -6.80315" fill="none" stroke="black"/>
<path d="M63.9961,214.999h -6.80315" fill="none" stroke="black"/>
<path d="M63.9961,204.94h -6.80315" fill="none" stroke="black"/>
<path d="M70.7992,194.881h -13.6063" fill="none" stroke="black"/>
<path d="M63.9961,184.822h -6.80315" fill="none" stroke="black"/>
<path d="M63.9961,174.764h -6.80315" fill="none" stroke="black"/>
<path d="M63.9961,164.705h -6.80315" fill="none" stroke="black"/>
<path d="M63.9961,154.646h -6.80315" fill="none" stroke="black"/>
<path d="M70.7992,144.588h -13.6063" fill="none" stroke="black"/>
<path d="M63.9961,134.529h -6.80315" fill="none" stroke="black"/>
<path d="M63.9961,124.47h -6.80315" fill="none" stroke="black"/>
<path d="M63.9961,114.412h -6.80315" fill="none" stroke="black"/>
<path d="M63.9961,104.353h -6.80315" fill="none" stroke="black"/>
<path d="M70.7992,94.2941h -13.6063" fill="none" stroke="black"/>
<path d="M63.9961,84.2354h -6.80315" fill="none" stroke="black"/>
<path d="M63.9961,74.1767h -6.80315" fill="none" stroke="black"/>
<path d="M63.9961,64.118h -6.80315" fill="none" stroke="black"/>
<path d="M63.9961,54.0593h -6.80315" fill="none" stroke="black"/>
<path d="M70.7992,44.0006h -13.6063" fill="none" stroke="black"/>
<path d="M70.7992,44.0006h -13.6063" fill="none" stroke="black"/>
<text xml:space="preserve" x="47.6087" y="350.067" fill="black" font-size="12.836" font-family="Helvetica">0</text>
<text xml:space="preserve" x="41.111" y="299.709" fill="black" font-size="12.836" font-family="Helvetica">50</text>
<text xml:space="preserve" x="33.801" y="249.351" fill="black" font-size="12.836" font-family="Helvetica">100</text>
<text xml:space="preserve" x="33.801" y="198.994" fill="black" font-size="12.836" font-family="Helvetica">150</text>
<text xml:space="preserve" x="33.801" y="149.448" fill="black" font-size="12.836" font-family="Helvetica">200</text>
<text xml:space="preserve" x="33.801" y="99.0908" fill="black" font-size="12.836" font-family="Helvetica">250</text>
<text xml:space="preserve" x="33.801" y="48.7332" fill="black" font-size="12.836" font-family="Helvetica">300</text>
<g transform="rotate(-90,20.8055,69.8509)">
<text xml:space="preserve" x="20.8055" y="69.8509" fill="black" font-size="12.836" font-family="Helvetica">Event</text>
</g>
<text xml:space="preserve" x="251.476" y="17.8688" fill="black" font-size="18.7414" font-family="Helvetica">Bg_002</text>
<rect x="442.705" y="24.9717" width="113.386" height="61.4688" fill="white"/>
<path d="M442.705,86.4405h 113.386" fill="none" stroke="black"/>
<path d="M556.091,86.4405v -61.4688" fill="none" stroke="black"/>
<path d="M556.091,24.9717h -113.386" fill="none" stroke="black"/>
<path d="M442.705,24.9717v 61.4688" fill="none" stroke="black"/>
<text xml:space="preserve" x="476.461" y="36.5499" fill="black" font-size="13.4705" font-family="Helvetica">Bg_002</text>
<path d="M442.705,40.3389h 113.386" fill="none" stroke="black"/>
<text xml:space="preserve" x="448.033" y="52.7943" fill="black" font-size="13.0884" font-family="Helvetica">Entries </text>
<text xml:space="preserve" x="517.884" y="52.7943" fill="black" font-size="13.0884" font-family="Helvetica"> 1023</text>
<text xml:space="preserve" x="448.033" y="68.2264" fill="black" font-size="13.0884" font-family="Helvetica">Mean  </text>
<text xml:space="preserve" x="510.574" y="68.2264" fill="black" font-size="13.0884" font-family="Helvetica">  144.6</text>
<text xml:space="preserve" x="448.033" y="82.8464" fill="black" font-size="13.0884" font-family="Helvetica">Std Dev   </text>
<text xml:space="preserve" x="514.635" y="82.8464" fill="black" font-size="13.0884" font-family="Helvetica">    152</text>
<text xml:space="preserve" x="251.476" y="17.8688" fill="black" font-size="18.7414" font-family="Helvetica">Bg_002</text></svg>
