<?xml version="1.0" standalone="no"?>
<svg width="567.429" height="384.969" viewBox="0 0 567.429 384.969" xmlns="http://www.w3.org/2000/svg" shape-rendering="crispEdges">
<title>
img/week1/plane_hist/Bg_003.svg
</title>
<desc>
Creator: ROOT Version 6.22/09
CreationDate: Fri Jul  2 21:19:44 2021</desc>
<defs>
</defs>
<rect x="0.5" y="0" width="566.929" height="384.469" fill="white"/>
<rect x="57.1929" y="38.4469" width="453.543" height="307.575" fill="white"/>
<rect x="57.1929" y="38.4469" width="453.543" height="307.575" fill="none" stroke="black"/>
<path d="M57.1929,346.022h 29.6475v -91.1765h 0.630797v -201.752h 0.630797v 37.8286h 0.630797v 121.245h 0.630797v 64.9875h 0.630797v 20.3692h 0.630797v 4.84982h 0.630797v 12.6095h 0.630797v 24.2491h 0.630797v -2.90989h 0.630797v 6.78974h 0.630797v
 0.969963h 0.630797v -0.969963h 0.630797v 1.93993h 1.26159v 0.969963h 0.630797v -0.969963h 0.630797v 0.969963h 1.89239v -1.93993h 0.630797v 0.969963h 1.26159v 0.969963h 0.630797v -0.969963h 1.26159v 0.969963h 1.26159v -0.969963h 0.630797v 0.969963h
 3.15399v -0.969963h 0.630797v 0.969963h 0.630797v -0.969963h 0.630797v 0.969963h 1.89239v -0.969963h 1.89239v 0.969963h 1.26159v -0.969963h 0.630797v -0.969963h 0.630797v 1.93993h 5.04638v -0.969963h 0.630797v 0.969963h 0.630797v -0.969963h
 0.630797v 0.969963h 3.15399v -0.969963h 0.630797v 0.969963h 1.26159v -0.969963h 1.89239v 0.969963h 0.630797v -0.969963h 0.630797v 0.969963h 3.15399v -0.969963h 0.630797v 0.969963h 10.7236v -1.93993h 0.630797v 0.969963h 1.89239v 0.969963h 5.67718v
 -0.969963h 0.630797v 0.969963h 1.26159v -0.969963h 0.630797v 0.969963h 0.630797v -0.969963h 0.630797v 0.969963h 9.46196v -0.969963h 1.26159v 0.969963h 13.8775v -1.93993h 0.630797v 1.93993h 1.26159v -0.969963h 0.630797v 0.969963h 13.8775v -0.969963h
 0.630797v 0.969963h 17.0315v -0.969963h 0.630797v 0.969963h 15.1391v -1.93993h 0.630797v 1.93993h 1.89239v -0.969963h 0.630797v 0.969963h 2.52319v -0.969963h 0.630797v 0.969963h 3.78478v -0.969963h 0.630797v 0.969963h 1.26159v -0.969963h 0.630797v
 0.969963h 3.15399v -1.93993h 0.630797v 1.93993h 6.93877v -0.969963h 0.630797v 0.969963h 1.89239v -0.969963h 0.630797v 0.969963h 1.26159v -0.969963h 1.26159v 0.969963h 0.630797v -0.969963h 0.630797v 0.969963h 2.52319v -0.969963h 0.630797v 0.969963h
 1.89239v -0.969963h 0.630797v 0.969963h 6.93877v -0.969963h 0.630797v 0.969963h 5.04638v -0.969963h 0.630797v 0.969963h 1.89239v -0.969963h 0.630797v 0.969963h 5.67718v -0.969963h 0.630797v 0.969963h 3.78478v -0.969963h 0.630797v 0.969963h 10.7236v
 -0.969963h 0.630797v 0.969963h 5.67718v -0.969963h 0.630797v 0.969963h 5.04638v -0.969963h 0.630797v 0.969963h 1.26159v -0.969963h 0.630797v 0.969963h 0.630797v -0.969963h 0.630797v 0.969963h 1.26159v -0.969963h 0.630797v 0.969963h 8.20037v
 -0.969963h 0.630797v 0.969963h 7.56957v -0.969963h 0.630797v 0.969963h 0.630797v -0.969963h 0.630797v 0.969963h 10.0928v -0.969963h 0.630797v 0.969963h 15.1391v -0.969963h 0.630797v 0.969963h 15.7699v -0.969963h 0.630797v 0.969963h 10.0928v
 -0.969963h 0.630797v 0.969963h 4.41558v -0.969963h 0.630797v 0.969963h 3.15399v -0.969963h 0.630797v 0.969963h 11.3544v -0.969963h 0.630797v 0.969963h 22.0779v -0.969963h 0.630797v 0.969963h 13.2467v -0.969963h 0.630797v 0.969963h 8.83116v
 -0.969963h 0.630797v 0.969963h 1.89239v -0.969963h 0.630797v 0.969963h 20.8163v -0.969963h 0.630797v -2.90989h 0.630797v -0.969963h 0.630797v -1.93993h 0.630797v 0.969963h 0.630797v -0.969963h 1.26159v 6.78974h 0.630797v -0.969963h 0.630797v
 -0.969963h 2.52319v 0.969963h 2.52319v 0.969963h 0.630797v -0.969963h 0.630797v -0.969963h 0.630797v 1.93993h 1.26159v -0.969963h 0.630797v 0.969963h 0.630797v -1.93993h 0.630797v 1.93993h 1.26159v -0.969963h 1.89239v 0.969963h 0.630797v -0.969963h
 0.630797v 0.969963h 0.630797v -0.969963h 0.630797v 0.969963h 0.630797v -0.969963h 0.630797v 0.969963h 1.89239v -0.969963h 0.630797" fill="none" stroke="#000099"/>
<path d="M57.1929,346.022h 453.543" fill="none" stroke="black"/>
<path d="M57.8237,336.795v 9.22726" fill="none" stroke="black"/>
<path d="M78.8503,341.409v 4.61363" fill="none" stroke="black"/>
<path d="M99.8769,341.409v 4.61363" fill="none" stroke="black"/>
<path d="M120.903,341.409v 4.61363" fill="none" stroke="black"/>
<path d="M141.93,341.409v 4.61363" fill="none" stroke="black"/>
<path d="M162.957,336.795v 9.22726" fill="none" stroke="black"/>
<path d="M183.983,341.409v 4.61363" fill="none" stroke="black"/>
<path d="M205.01,341.409v 4.61363" fill="none" stroke="black"/>
<path d="M226.036,341.409v 4.61363" fill="none" stroke="black"/>
<path d="M247.063,341.409v 4.61363" fill="none" stroke="black"/>
<path d="M268.09,336.795v 9.22726" fill="none" stroke="black"/>
<path d="M289.116,341.409v 4.61363" fill="none" stroke="black"/>
<path d="M310.143,341.409v 4.61363" fill="none" stroke="black"/>
<path d="M331.169,341.409v 4.61363" fill="none" stroke="black"/>
<path d="M352.196,341.409v 4.61363" fill="none" stroke="black"/>
<path d="M373.222,336.795v 9.22726" fill="none" stroke="black"/>
<path d="M394.249,341.409v 4.61363" fill="none" stroke="black"/>
<path d="M415.276,341.409v 4.61363" fill="none" stroke="black"/>
<path d="M436.302,341.409v 4.61363" fill="none" stroke="black"/>
<path d="M457.329,341.409v 4.61363" fill="none" stroke="black"/>
<path d="M478.355,336.795v 9.22726" fill="none" stroke="black"/>
<path d="M57.8237,336.795v 9.22726" fill="none" stroke="black"/>
<path d="M478.355,336.795v 9.22726" fill="none" stroke="black"/>
<path d="M499.382,341.409v 4.61363" fill="none" stroke="black"/>
<text xml:space="preserve" x="54.2605" y="358.403" fill="black" font-size="12.8453" font-family="Helvetica">0</text>
<text xml:space="preserve" x="152.007" y="358.403" fill="black" font-size="12.8453" font-family="Helvetica">500</text>
<text xml:space="preserve" x="253.826" y="358.403" fill="black" font-size="12.8453" font-family="Helvetica">1000</text>
<text xml:space="preserve" x="358.903" y="358.403" fill="black" font-size="12.8453" font-family="Helvetica">1500</text>
<text xml:space="preserve" x="463.981" y="358.403" fill="black" font-size="12.8453" font-family="Helvetica">2000</text>
<text xml:space="preserve" x="451.763" y="372.251" fill="black" font-size="12.8453" font-family="Helvetica">ADC value</text>
<path d="M57.1929,346.022v -307.575" fill="none" stroke="black"/>
<path d="M70.7992,346.022h -13.6063" fill="none" stroke="black"/>
<path d="M63.9961,336.323h -6.80315" fill="none" stroke="black"/>
<path d="M63.9961,326.623h -6.80315" fill="none" stroke="black"/>
<path d="M63.9961,316.923h -6.80315" fill="none" stroke="black"/>
<path d="M63.9961,307.224h -6.80315" fill="none" stroke="black"/>
<path d="M70.7992,297.524h -13.6063" fill="none" stroke="black"/>
<path d="M63.9961,287.824h -6.80315" fill="none" stroke="black"/>
<path d="M63.9961,278.125h -6.80315" fill="none" stroke="black"/>
<path d="M63.9961,268.425h -6.80315" fill="none" stroke="black"/>
<path d="M63.9961,258.726h -6.80315" fill="none" stroke="black"/>
<path d="M70.7992,249.026h -13.6063" fill="none" stroke="black"/>
<path d="M63.9961,239.326h -6.80315" fill="none" stroke="black"/>
<path d="M63.9961,229.627h -6.80315" fill="none" stroke="black"/>
<path d="M63.9961,219.927h -6.80315" fill="none" stroke="black"/>
<path d="M63.9961,210.227h -6.80315" fill="none" stroke="black"/>
<path d="M70.7992,200.528h -13.6063" fill="none" stroke="black"/>
<path d="M63.9961,190.828h -6.80315" fill="none" stroke="black"/>
<path d="M63.9961,181.129h -6.80315" fill="none" stroke="black"/>
<path d="M63.9961,171.429h -6.80315" fill="none" stroke="black"/>
<path d="M63.9961,161.729h -6.80315" fill="none" stroke="black"/>
<path d="M70.7992,152.03h -13.6063" fill="none" stroke="black"/>
<path d="M63.9961,142.33h -6.80315" fill="none" stroke="black"/>
<path d="M63.9961,132.63h -6.80315" fill="none" stroke="black"/>
<path d="M63.9961,122.931h -6.80315" fill="none" stroke="black"/>
<path d="M63.9961,113.231h -6.80315" fill="none" stroke="black"/>
<path d="M70.7992,103.531h -13.6063" fill="none" stroke="black"/>
<path d="M63.9961,93.8318h -6.80315" fill="none" stroke="black"/>
<path d="M63.9961,84.1322h -6.80315" fill="none" stroke="black"/>
<path d="M63.9961,74.4326h -6.80315" fill="none" stroke="black"/>
<path d="M63.9961,64.7329h -6.80315" fill="none" stroke="black"/>
<path d="M70.7992,55.0333h -13.6063" fill="none" stroke="black"/>
<path d="M70.7992,55.0333h -13.6063" fill="none" stroke="black"/>
<path d="M63.9961,45.3337h -6.80315" fill="none" stroke="black"/>
<text xml:space="preserve" x="47.7441" y="350.258" fill="black" font-size="12.8453" font-family="Helvetica">0</text>
<text xml:space="preserve" x="41.2277" y="302.199" fill="black" font-size="12.8453" font-family="Helvetica">50</text>
<text xml:space="preserve" x="33.8967" y="253.326" fill="black" font-size="12.8453" font-family="Helvetica">100</text>
<text xml:space="preserve" x="33.8967" y="205.267" fill="black" font-size="12.8453" font-family="Helvetica">150</text>
<text xml:space="preserve" x="33.8967" y="156.394" fill="black" font-size="12.8453" font-family="Helvetica">200</text>
<text xml:space="preserve" x="33.8967" y="108.336" fill="black" font-size="12.8453" font-family="Helvetica">250</text>
<text xml:space="preserve" x="33.8967" y="59.4624" fill="black" font-size="12.8453" font-family="Helvetica">300</text>
<g transform="rotate(-90,20.8638,70.0516)">
<text xml:space="preserve" x="20.8638" y="70.0516" fill="black" font-size="12.8453" font-family="Helvetica">Event</text>
</g>
<text xml:space="preserve" x="251.382" y="17.9202" fill="black" font-size="18.7938" font-family="Helvetica">Bg_003</text>
<rect x="442.705" y="24.9905" width="113.386" height="61.5151" fill="white"/>
<path d="M442.705,86.5056h 113.386" fill="none" stroke="black"/>
<path d="M556.091,86.5056v -61.5151" fill="none" stroke="black"/>
<path d="M556.091,24.9905h -113.386" fill="none" stroke="black"/>
<path d="M442.705,24.9905v 61.5151" fill="none" stroke="black"/>
<text xml:space="preserve" x="476.199" y="36.6549" fill="black" font-size="13.4802" font-family="Helvetica">Bg_003</text>
<path d="M442.705,40.3693h 113.386" fill="none" stroke="black"/>
<text xml:space="preserve" x="447.69" y="52.946" fill="black" font-size="13.0654" font-family="Helvetica">Entries </text>
<text xml:space="preserve" x="517.741" y="52.946" fill="black" font-size="13.0654" font-family="Helvetica"> 1164</text>
<text xml:space="preserve" x="447.69" y="67.6079" fill="black" font-size="13.0654" font-family="Helvetica">Mean  </text>
<text xml:space="preserve" x="510.41" y="67.6079" fill="black" font-size="13.0654" font-family="Helvetica">  295.2</text>
<text xml:space="preserve" x="447.69" y="83.0844" fill="black" font-size="13.0654" font-family="Helvetica">Std Dev   </text>
<text xml:space="preserve" x="510.41" y="83.899" fill="black" font-size="13.0654" font-family="Helvetica">  472.7</text>
<text xml:space="preserve" x="251.382" y="17.9202" fill="black" font-size="18.7938" font-family="Helvetica">Bg_003</text></svg>
