<?xml version="1.0" standalone="no"?>
<svg width="567.429" height="384.969" viewBox="0 0 567.429 384.969" xmlns="http://www.w3.org/2000/svg" shape-rendering="crispEdges">
<title>
img/week1/plane_hist/Bg_003.svg
</title>
<desc>
Creator: ROOT Version 6.22/09
CreationDate: Tue Jul 13 14:04:35 2021</desc>
<defs>
</defs>
<rect x="0.5" y="0" width="566.929" height="384.469" fill="white"/>
<rect x="57.1929" y="38.4469" width="453.543" height="307.575" fill="white"/>
<rect x="57.1929" y="38.4469" width="453.543" height="307.575" fill="none" stroke="black"/>
<path d="M57.1929,346.022h 29.6888v -48.1841h 0.631676v -244.745h 0.631676v 108.605h 0.631676v 87.9551h 0.631676v 52.0083h 0.631676v 4.58896h 0.631676v 3.82414h 0.631676v 16.8262h 0.631676v 11.4724h 0.631676v 2.29448h 0.631676v 3.05931h 0.631676v
 0.764827h 1.26335v 0.764827h 1.89503v 0.764827h 0.631676v -0.764827h 0.631676v 0.764827h 0.631676v -0.764827h 0.631676v -0.764827h 0.631676v 1.52965h 0.631676v -0.764827h 0.631676v 0.764827h 1.26335v -0.764827h 1.26335v 0.764827h 1.26335v -0.764827h
 0.631676v 0.764827h 2.5267v -0.764827h 0.631676v 0.764827h 1.89503v -0.764827h 0.631676v 0.764827h 0.631676v -0.764827h 0.631676v 0.764827h 0.631676v -1.52965h 0.631676v 1.52965h 1.89503v -1.52965h 0.631676v 1.52965h 0.631676v -0.764827h 0.631676v
 0.764827h 3.79006v -0.764827h 0.631676v 0.764827h 1.26335v -0.764827h 0.631676v 0.764827h 2.5267v -0.764827h 0.631676v 0.764827h 1.26335v -0.764827h 1.26335v 0.764827h 0.631676v -0.764827h 1.26335v 0.764827h 3.79006v -0.764827h 0.631676v 0.764827h
 10.7385v -3.05931h 0.631676v 3.05931h 1.89503v -0.764827h 0.631676v 0.764827h 4.42173v -0.764827h 0.631676v 0.764827h 1.89503v -0.764827h 0.631676v 0.764827h 0.631676v -0.764827h 0.631676v 0.764827h 9.47514v -1.52965h 0.631676v 1.52965h 14.5285v
 -1.52965h 0.631676v 1.52965h 0.631676v -0.764827h 0.631676v 0.764827h 13.8969v -0.764827h 0.631676v 0.764827h 16.4236v -0.764827h 0.631676v 0.764827h 15.7919v -0.764827h 1.26335v 0.764827h 1.26335v -0.764827h 0.631676v 0.764827h 2.5267v -0.764827h
 0.631676v 0.764827h 4.42173v -0.764827h 0.631676v 0.764827h 0.631676v -0.764827h 0.631676v 0.764827h 3.15838v -1.52965h 0.631676v 1.52965h 6.94843v -0.764827h 0.631676v 0.764827h 1.26335v -0.764827h 0.631676v 0.764827h 1.89503v -0.764827h 0.631676v
 0.764827h 0.631676v -0.764827h 1.26335v 0.764827h 1.89503v -0.764827h 0.631676v 0.764827h 3.15838v -0.764827h 0.631676v 0.764827h 6.31676v -0.764827h 0.631676v 0.764827h 5.68508v -0.764827h 0.631676v 0.764827h 1.89503v -0.764827h 0.631676v 0.764827h
 5.05341v -0.764827h 0.631676v 0.764827h 3.15838v -0.764827h 0.631676v 0.764827h 11.3702v -0.764827h 0.631676v 0.764827h 6.31676v -0.764827h 0.631676v 0.764827h 3.79006v -0.764827h 0.631676v 0.764827h 1.89503v -0.764827h 0.631676v 0.764827h 0.631676v
 -0.764827h 0.631676v 0.764827h 1.89503v -0.764827h 0.631676v 0.764827h 8.21179v -0.764827h 0.631676v 0.764827h 6.94843v -0.764827h 0.631676v 0.764827h 0.631676v -0.764827h 0.631676v 0.764827h 10.1068v -0.764827h 0.631676v 0.764827h 15.1602v
 -0.764827h 0.631676v 0.764827h 15.1602v -0.764827h 0.631676v 0.764827h 10.1068v -0.764827h 0.631676v 0.764827h 4.42173v -0.764827h 0.631676v 0.764827h 4.42173v -0.764827h 0.631676v 0.764827h 10.7385v -0.764827h 0.631676v 0.764827h 22.1087v
 -0.764827h 0.631676v 0.764827h 12.6335v -0.764827h 0.631676v 0.764827h 9.47514v -0.764827h 0.631676v 0.764827h 1.26335v -0.764827h 0.631676v 0.764827h 22.1087v -3.82414h 0.631676v -0.764827h 0.631676v -1.52965h 1.89503v 4.58896h 0.631676v 1.52965h
 0.631676v -1.52965h 0.631676v 0.764827h 0.631676v -0.764827h 1.26335v -0.764827h 0.631676v 1.52965h 0.631676v -0.764827h 0.631676v 1.52965h 1.89503v -2.29448h 0.631676v 2.29448h 1.89503v -0.764827h 0.631676v -0.764827h 0.631676v 1.52965h 0.631676v
 -0.764827h 1.26335v 0.764827h 1.26335v -0.764827h 1.89503v 0.764827h 1.26335v -0.764827h 0.631676v 0.764827h 1.89503v -0.764827h 0.631676" fill="none" stroke="#000099"/>
<path d="M57.1929,346.022h 453.543" fill="none" stroke="black"/>
<path d="M57.8246,336.795v 9.22726" fill="none" stroke="black"/>
<path d="M78.8805,341.409v 4.61363" fill="none" stroke="black"/>
<path d="M99.9363,341.409v 4.61363" fill="none" stroke="black"/>
<path d="M120.992,341.409v 4.61363" fill="none" stroke="black"/>
<path d="M142.048,341.409v 4.61363" fill="none" stroke="black"/>
<path d="M163.104,336.795v 9.22726" fill="none" stroke="black"/>
<path d="M184.16,341.409v 4.61363" fill="none" stroke="black"/>
<path d="M205.216,341.409v 4.61363" fill="none" stroke="black"/>
<path d="M226.271,341.409v 4.61363" fill="none" stroke="black"/>
<path d="M247.327,341.409v 4.61363" fill="none" stroke="black"/>
<path d="M268.383,336.795v 9.22726" fill="none" stroke="black"/>
<path d="M289.439,341.409v 4.61363" fill="none" stroke="black"/>
<path d="M310.495,341.409v 4.61363" fill="none" stroke="black"/>
<path d="M331.551,341.409v 4.61363" fill="none" stroke="black"/>
<path d="M352.607,341.409v 4.61363" fill="none" stroke="black"/>
<path d="M373.663,336.795v 9.22726" fill="none" stroke="black"/>
<path d="M394.718,341.409v 4.61363" fill="none" stroke="black"/>
<path d="M415.774,341.409v 4.61363" fill="none" stroke="black"/>
<path d="M436.83,341.409v 4.61363" fill="none" stroke="black"/>
<path d="M457.886,341.409v 4.61363" fill="none" stroke="black"/>
<path d="M478.942,336.795v 9.22726" fill="none" stroke="black"/>
<path d="M57.8246,336.795v 9.22726" fill="none" stroke="black"/>
<path d="M478.942,336.795v 9.22726" fill="none" stroke="black"/>
<path d="M499.998,341.409v 4.61363" fill="none" stroke="black"/>
<text xml:space="preserve" x="54.2605" y="358.403" fill="black" font-size="12.8453" font-family="Helvetica">0</text>
<text xml:space="preserve" x="152.007" y="358.403" fill="black" font-size="12.8453" font-family="Helvetica">500</text>
<text xml:space="preserve" x="253.826" y="358.403" fill="black" font-size="12.8453" font-family="Helvetica">1000</text>
<text xml:space="preserve" x="359.718" y="358.403" fill="black" font-size="12.8453" font-family="Helvetica">1500</text>
<text xml:space="preserve" x="464.795" y="358.403" fill="black" font-size="12.8453" font-family="Helvetica">2000</text>
<text xml:space="preserve" x="451.763" y="372.251" fill="black" font-size="12.8453" font-family="Helvetica">ADC value</text>
<path d="M57.1929,346.022v -307.575" fill="none" stroke="black"/>
<path d="M70.7992,346.022h -13.6063" fill="none" stroke="black"/>
<path d="M63.9961,338.374h -6.80315" fill="none" stroke="black"/>
<path d="M63.9961,330.726h -6.80315" fill="none" stroke="black"/>
<path d="M63.9961,323.077h -6.80315" fill="none" stroke="black"/>
<path d="M63.9961,315.429h -6.80315" fill="none" stroke="black"/>
<path d="M70.7992,307.781h -13.6063" fill="none" stroke="black"/>
<path d="M63.9961,300.133h -6.80315" fill="none" stroke="black"/>
<path d="M63.9961,292.484h -6.80315" fill="none" stroke="black"/>
<path d="M63.9961,284.836h -6.80315" fill="none" stroke="black"/>
<path d="M63.9961,277.188h -6.80315" fill="none" stroke="black"/>
<path d="M70.7992,269.54h -13.6063" fill="none" stroke="black"/>
<path d="M63.9961,261.891h -6.80315" fill="none" stroke="black"/>
<path d="M63.9961,254.243h -6.80315" fill="none" stroke="black"/>
<path d="M63.9961,246.595h -6.80315" fill="none" stroke="black"/>
<path d="M63.9961,238.946h -6.80315" fill="none" stroke="black"/>
<path d="M70.7992,231.298h -13.6063" fill="none" stroke="black"/>
<path d="M63.9961,223.65h -6.80315" fill="none" stroke="black"/>
<path d="M63.9961,216.002h -6.80315" fill="none" stroke="black"/>
<path d="M63.9961,208.353h -6.80315" fill="none" stroke="black"/>
<path d="M63.9961,200.705h -6.80315" fill="none" stroke="black"/>
<path d="M70.7992,193.057h -13.6063" fill="none" stroke="black"/>
<path d="M63.9961,185.409h -6.80315" fill="none" stroke="black"/>
<path d="M63.9961,177.76h -6.80315" fill="none" stroke="black"/>
<path d="M63.9961,170.112h -6.80315" fill="none" stroke="black"/>
<path d="M63.9961,162.464h -6.80315" fill="none" stroke="black"/>
<path d="M70.7992,154.815h -13.6063" fill="none" stroke="black"/>
<path d="M63.9961,147.167h -6.80315" fill="none" stroke="black"/>
<path d="M63.9961,139.519h -6.80315" fill="none" stroke="black"/>
<path d="M63.9961,131.871h -6.80315" fill="none" stroke="black"/>
<path d="M63.9961,124.222h -6.80315" fill="none" stroke="black"/>
<path d="M70.7992,116.574h -13.6063" fill="none" stroke="black"/>
<path d="M63.9961,108.926h -6.80315" fill="none" stroke="black"/>
<path d="M63.9961,101.277h -6.80315" fill="none" stroke="black"/>
<path d="M63.9961,93.6292h -6.80315" fill="none" stroke="black"/>
<path d="M63.9961,85.9809h -6.80315" fill="none" stroke="black"/>
<path d="M70.7992,78.3327h -13.6063" fill="none" stroke="black"/>
<path d="M63.9961,70.6844h -6.80315" fill="none" stroke="black"/>
<path d="M63.9961,63.0361h -6.80315" fill="none" stroke="black"/>
<path d="M63.9961,55.3878h -6.80315" fill="none" stroke="black"/>
<path d="M63.9961,47.7396h -6.80315" fill="none" stroke="black"/>
<path d="M70.7992,40.0913h -13.6063" fill="none" stroke="black"/>
<path d="M70.7992,40.0913h -13.6063" fill="none" stroke="black"/>
<text xml:space="preserve" x="47.7441" y="350.258" fill="black" font-size="12.8453" font-family="Helvetica">0</text>
<text xml:space="preserve" x="41.2277" y="311.974" fill="black" font-size="12.8453" font-family="Helvetica">50</text>
<text xml:space="preserve" x="33.8967" y="273.69" fill="black" font-size="12.8453" font-family="Helvetica">100</text>
<text xml:space="preserve" x="33.8967" y="235.406" fill="black" font-size="12.8453" font-family="Helvetica">150</text>
<text xml:space="preserve" x="33.8967" y="197.936" fill="black" font-size="12.8453" font-family="Helvetica">200</text>
<text xml:space="preserve" x="33.8967" y="159.652" fill="black" font-size="12.8453" font-family="Helvetica">250</text>
<text xml:space="preserve" x="33.8967" y="121.368" fill="black" font-size="12.8453" font-family="Helvetica">300</text>
<text xml:space="preserve" x="33.8967" y="83.0844" fill="black" font-size="12.8453" font-family="Helvetica">350</text>
<text xml:space="preserve" x="33.8967" y="44.8004" fill="black" font-size="12.8453" font-family="Helvetica">400</text>
<g transform="rotate(-90,20.8638,70.0516)">
<text xml:space="preserve" x="20.8638" y="70.0516" fill="black" font-size="12.8453" font-family="Helvetica">Event</text>
</g>
<text xml:space="preserve" x="251.382" y="17.9202" fill="black" font-size="18.7938" font-family="Helvetica">Bg_003</text>
<rect x="442.705" y="24.9905" width="113.386" height="61.5151" fill="white"/>
<path d="M442.705,86.5056h 113.386" fill="none" stroke="black"/>
<path d="M556.091,86.5056v -61.5151" fill="none" stroke="black"/>
<path d="M556.091,24.9905h -113.386" fill="none" stroke="black"/>
<path d="M442.705,24.9905v 61.5151" fill="none" stroke="black"/>
<text xml:space="preserve" x="476.199" y="36.6549" fill="black" font-size="13.4802" font-family="Helvetica">Bg_003</text>
<path d="M442.705,40.3693h 113.386" fill="none" stroke="black"/>
<text xml:space="preserve" x="447.69" y="52.946" fill="black" font-size="13.0654" font-family="Helvetica">Entries </text>
<text xml:space="preserve" x="517.741" y="52.946" fill="black" font-size="13.0654" font-family="Helvetica"> 1164</text>
<text xml:space="preserve" x="447.69" y="67.6079" fill="black" font-size="13.0654" font-family="Helvetica">Mean  </text>
<text xml:space="preserve" x="514.483" y="67.6079" fill="black" font-size="13.0654" font-family="Helvetica">    295</text>
<text xml:space="preserve" x="447.69" y="83.0844" fill="black" font-size="13.0654" font-family="Helvetica">Std Dev   </text>
<text xml:space="preserve" x="510.41" y="83.0844" fill="black" font-size="13.0654" font-family="Helvetica">  472.5</text>
<text xml:space="preserve" x="251.382" y="17.9202" fill="black" font-size="18.7938" font-family="Helvetica">Bg_003</text></svg>
