<?xml version="1.0" standalone="no"?>
<svg width="567.429" height="384.68" viewBox="0 0 567.429 384.68" xmlns="http://www.w3.org/2000/svg" shape-rendering="crispEdges">
<title>
img/week1/plane_hist/Bg_003.svg
</title>
<desc>
Creator: ROOT Version 6.22/09
CreationDate: Tue Jul 13 18:38:13 2021</desc>
<defs>
</defs>
<rect x="0.5" y="0" width="566.929" height="384.18" fill="white"/>
<rect x="57.1929" y="38.418" width="453.543" height="307.344" fill="white"/>
<rect x="57.1929" y="38.418" width="453.543" height="307.344" fill="none" stroke="black"/>
<path d="M57.1929,345.762h 29.6888v -48.1479h 0.631676v -244.561h 0.631676v 108.524h 0.631676v 87.8889h 0.631676v 51.9691h 0.631676v 4.58551h 0.631676v 3.82126h 0.631676v 16.8135h 0.631676v 11.4638h 0.631676v 2.29276h 0.631676v 3.05701h 0.631676v
 0.764252h 1.26335v 0.764252h 1.89503v 0.764252h 0.631676v -0.764252h 0.631676v 0.764252h 0.631676v -0.764252h 0.631676v -0.764252h 0.631676v 1.5285h 0.631676v -0.764252h 0.631676v 0.764252h 1.26335v -0.764252h 1.26335v 0.764252h 1.26335v -0.764252h
 0.631676v 0.764252h 2.5267v -0.764252h 0.631676v 0.764252h 1.89503v -0.764252h 0.631676v 0.764252h 0.631676v -0.764252h 0.631676v 0.764252h 0.631676v -1.5285h 0.631676v 1.5285h 1.89503v -1.5285h 0.631676v 1.5285h 0.631676v -0.764252h 0.631676v
 0.764252h 3.79006v -0.764252h 0.631676v 0.764252h 1.26335v -0.764252h 0.631676v 0.764252h 2.5267v -0.764252h 0.631676v 0.764252h 1.26335v -0.764252h 1.26335v 0.764252h 0.631676v -0.764252h 1.26335v 0.764252h 3.79006v -0.764252h 0.631676v 0.764252h
 10.7385v -3.05701h 0.631676v 3.05701h 1.89503v -0.764252h 0.631676v 0.764252h 4.42173v -0.764252h 0.631676v 0.764252h 1.89503v -0.764252h 0.631676v 0.764252h 0.631676v -0.764252h 0.631676v 0.764252h 9.47514v -1.5285h 0.631676v 1.5285h 14.5285v
 -1.5285h 0.631676v 1.5285h 0.631676v -0.764252h 0.631676v 0.764252h 13.8969v -0.764252h 0.631676v 0.764252h 16.4236v -0.764252h 0.631676v 0.764252h 15.7919v -0.764252h 1.26335v 0.764252h 1.26335v -0.764252h 0.631676v 0.764252h 2.5267v -0.764252h
 0.631676v 0.764252h 4.42173v -0.764252h 0.631676v 0.764252h 0.631676v -0.764252h 0.631676v 0.764252h 3.15838v -1.5285h 0.631676v 1.5285h 6.94843v -0.764252h 0.631676v 0.764252h 1.26335v -0.764252h 0.631676v 0.764252h 1.89503v -0.764252h 0.631676v
 0.764252h 0.631676v -0.764252h 1.26335v 0.764252h 1.89503v -0.764252h 0.631676v 0.764252h 3.15838v -0.764252h 0.631676v 0.764252h 6.31676v -0.764252h 0.631676v 0.764252h 5.68508v -0.764252h 0.631676v 0.764252h 1.89503v -0.764252h 0.631676v 0.764252h
 5.05341v -0.764252h 0.631676v 0.764252h 3.15838v -0.764252h 0.631676v 0.764252h 11.3702v -0.764252h 0.631676v 0.764252h 6.31676v -0.764252h 0.631676v 0.764252h 3.79006v -0.764252h 0.631676v 0.764252h 1.89503v -0.764252h 0.631676v 0.764252h 0.631676v
 -0.764252h 0.631676v 0.764252h 1.89503v -0.764252h 0.631676v 0.764252h 8.21179v -0.764252h 0.631676v 0.764252h 6.94843v -0.764252h 0.631676v 0.764252h 0.631676v -0.764252h 0.631676v 0.764252h 10.1068v -0.764252h 0.631676v 0.764252h 15.1602v
 -0.764252h 0.631676v 0.764252h 15.1602v -0.764252h 0.631676v 0.764252h 10.1068v -0.764252h 0.631676v 0.764252h 4.42173v -0.764252h 0.631676v 0.764252h 4.42173v -0.764252h 0.631676v 0.764252h 10.7385v -0.764252h 0.631676v 0.764252h 22.1087v
 -0.764252h 0.631676v 0.764252h 12.6335v -0.764252h 0.631676v 0.764252h 9.47514v -0.764252h 0.631676v 0.764252h 1.26335v -0.764252h 0.631676v 0.764252h 22.1087v -3.82126h 0.631676v -0.764252h 0.631676v -1.5285h 1.89503v 4.58551h 0.631676v 1.5285h
 0.631676v -1.5285h 0.631676v 0.764252h 0.631676v -0.764252h 1.26335v -0.764252h 0.631676v 1.5285h 0.631676v -0.764252h 0.631676v 1.5285h 1.89503v -2.29276h 0.631676v 2.29276h 1.89503v -0.764252h 0.631676v -0.764252h 0.631676v 1.5285h 0.631676v
 -0.764252h 1.26335v 0.764252h 1.26335v -0.764252h 1.89503v 0.764252h 1.26335v -0.764252h 0.631676v 0.764252h 1.89503v -0.764252h 0.631676" fill="none" stroke="#000099"/>
<path d="M57.1929,345.762h 453.543" fill="none" stroke="black"/>
<path d="M57.8246,336.541v 9.22031" fill="none" stroke="black"/>
<path d="M78.8805,341.152v 4.61016" fill="none" stroke="black"/>
<path d="M99.9363,341.152v 4.61016" fill="none" stroke="black"/>
<path d="M120.992,341.152v 4.61016" fill="none" stroke="black"/>
<path d="M142.048,341.152v 4.61016" fill="none" stroke="black"/>
<path d="M163.104,336.541v 9.22031" fill="none" stroke="black"/>
<path d="M184.16,341.152v 4.61016" fill="none" stroke="black"/>
<path d="M205.216,341.152v 4.61016" fill="none" stroke="black"/>
<path d="M226.271,341.152v 4.61016" fill="none" stroke="black"/>
<path d="M247.327,341.152v 4.61016" fill="none" stroke="black"/>
<path d="M268.383,336.541v 9.22031" fill="none" stroke="black"/>
<path d="M289.439,341.152v 4.61016" fill="none" stroke="black"/>
<path d="M310.495,341.152v 4.61016" fill="none" stroke="black"/>
<path d="M331.551,341.152v 4.61016" fill="none" stroke="black"/>
<path d="M352.607,341.152v 4.61016" fill="none" stroke="black"/>
<path d="M373.663,336.541v 9.22031" fill="none" stroke="black"/>
<path d="M394.718,341.152v 4.61016" fill="none" stroke="black"/>
<path d="M415.774,341.152v 4.61016" fill="none" stroke="black"/>
<path d="M436.83,341.152v 4.61016" fill="none" stroke="black"/>
<path d="M457.886,341.152v 4.61016" fill="none" stroke="black"/>
<path d="M478.942,336.541v 9.22031" fill="none" stroke="black"/>
<path d="M57.8246,336.541v 9.22031" fill="none" stroke="black"/>
<path d="M478.942,336.541v 9.22031" fill="none" stroke="black"/>
<path d="M499.998,341.152v 4.61016" fill="none" stroke="black"/>
<text xml:space="preserve" x="54.1065" y="358.189" fill="black" font-size="12.836" font-family="Helvetica">0</text>
<text xml:space="preserve" x="152.385" y="358.189" fill="black" font-size="12.836" font-family="Helvetica">500</text>
<text xml:space="preserve" x="253.912" y="358.189" fill="black" font-size="12.836" font-family="Helvetica">1000</text>
<text xml:space="preserve" x="359.501" y="358.189" fill="black" font-size="12.836" font-family="Helvetica">1500</text>
<text xml:space="preserve" x="465.089" y="358.189" fill="black" font-size="12.836" font-family="Helvetica">2000</text>
<text xml:space="preserve" x="452.094" y="371.996" fill="black" font-size="12.836" font-family="Helvetica">ADC value</text>
<path d="M57.1929,345.762v -307.344" fill="none" stroke="black"/>
<path d="M70.7992,345.762h -13.6063" fill="none" stroke="black"/>
<path d="M63.9961,338.119h -6.80315" fill="none" stroke="black"/>
<path d="M63.9961,330.477h -6.80315" fill="none" stroke="black"/>
<path d="M63.9961,322.834h -6.80315" fill="none" stroke="black"/>
<path d="M63.9961,315.192h -6.80315" fill="none" stroke="black"/>
<path d="M70.7992,307.549h -13.6063" fill="none" stroke="black"/>
<path d="M63.9961,299.907h -6.80315" fill="none" stroke="black"/>
<path d="M63.9961,292.264h -6.80315" fill="none" stroke="black"/>
<path d="M63.9961,284.622h -6.80315" fill="none" stroke="black"/>
<path d="M63.9961,276.979h -6.80315" fill="none" stroke="black"/>
<path d="M70.7992,269.337h -13.6063" fill="none" stroke="black"/>
<path d="M63.9961,261.694h -6.80315" fill="none" stroke="black"/>
<path d="M63.9961,254.052h -6.80315" fill="none" stroke="black"/>
<path d="M63.9961,246.409h -6.80315" fill="none" stroke="black"/>
<path d="M63.9961,238.767h -6.80315" fill="none" stroke="black"/>
<path d="M70.7992,231.124h -13.6063" fill="none" stroke="black"/>
<path d="M63.9961,223.482h -6.80315" fill="none" stroke="black"/>
<path d="M63.9961,215.839h -6.80315" fill="none" stroke="black"/>
<path d="M63.9961,208.197h -6.80315" fill="none" stroke="black"/>
<path d="M63.9961,200.554h -6.80315" fill="none" stroke="black"/>
<path d="M70.7992,192.911h -13.6063" fill="none" stroke="black"/>
<path d="M63.9961,185.269h -6.80315" fill="none" stroke="black"/>
<path d="M63.9961,177.626h -6.80315" fill="none" stroke="black"/>
<path d="M63.9961,169.984h -6.80315" fill="none" stroke="black"/>
<path d="M63.9961,162.341h -6.80315" fill="none" stroke="black"/>
<path d="M70.7992,154.699h -13.6063" fill="none" stroke="black"/>
<path d="M63.9961,147.056h -6.80315" fill="none" stroke="black"/>
<path d="M63.9961,139.414h -6.80315" fill="none" stroke="black"/>
<path d="M63.9961,131.771h -6.80315" fill="none" stroke="black"/>
<path d="M63.9961,124.129h -6.80315" fill="none" stroke="black"/>
<path d="M70.7992,116.486h -13.6063" fill="none" stroke="black"/>
<path d="M63.9961,108.844h -6.80315" fill="none" stroke="black"/>
<path d="M63.9961,101.201h -6.80315" fill="none" stroke="black"/>
<path d="M63.9961,93.5587h -6.80315" fill="none" stroke="black"/>
<path d="M63.9961,85.9162h -6.80315" fill="none" stroke="black"/>
<path d="M70.7992,78.2737h -13.6063" fill="none" stroke="black"/>
<path d="M63.9961,70.6312h -6.80315" fill="none" stroke="black"/>
<path d="M63.9961,62.9887h -6.80315" fill="none" stroke="black"/>
<path d="M63.9961,55.3462h -6.80315" fill="none" stroke="black"/>
<path d="M63.9961,47.7036h -6.80315" fill="none" stroke="black"/>
<path d="M70.7992,40.0611h -13.6063" fill="none" stroke="black"/>
<path d="M70.7992,40.0611h -13.6063" fill="none" stroke="black"/>
<text xml:space="preserve" x="47.6087" y="350.067" fill="black" font-size="12.836" font-family="Helvetica">0</text>
<text xml:space="preserve" x="41.111" y="311.892" fill="black" font-size="12.836" font-family="Helvetica">50</text>
<text xml:space="preserve" x="33.801" y="273.718" fill="black" font-size="12.836" font-family="Helvetica">100</text>
<text xml:space="preserve" x="33.801" y="235.544" fill="black" font-size="12.836" font-family="Helvetica">150</text>
<text xml:space="preserve" x="33.801" y="197.369" fill="black" font-size="12.836" font-family="Helvetica">200</text>
<text xml:space="preserve" x="33.801" y="159.195" fill="black" font-size="12.836" font-family="Helvetica">250</text>
<text xml:space="preserve" x="33.801" y="121.021" fill="black" font-size="12.836" font-family="Helvetica">300</text>
<text xml:space="preserve" x="33.801" y="82.8464" fill="black" font-size="12.836" font-family="Helvetica">350</text>
<text xml:space="preserve" x="33.801" y="44.6721" fill="black" font-size="12.836" font-family="Helvetica">400</text>
<g transform="rotate(-90,20.8055,69.8509)">
<text xml:space="preserve" x="20.8055" y="69.8509" fill="black" font-size="12.836" font-family="Helvetica">Event</text>
</g>
<text xml:space="preserve" x="251.476" y="17.8688" fill="black" font-size="18.7414" font-family="Helvetica">Bg_003</text>
<rect x="442.705" y="24.9717" width="113.386" height="61.4688" fill="white"/>
<path d="M442.705,86.4405h 113.386" fill="none" stroke="black"/>
<path d="M556.091,86.4405v -61.4688" fill="none" stroke="black"/>
<path d="M556.091,24.9717h -113.386" fill="none" stroke="black"/>
<path d="M442.705,24.9717v 61.4688" fill="none" stroke="black"/>
<text xml:space="preserve" x="476.461" y="36.5499" fill="black" font-size="13.4705" font-family="Helvetica">Bg_003</text>
<path d="M442.705,40.3389h 113.386" fill="none" stroke="black"/>
<text xml:space="preserve" x="448.033" y="52.7943" fill="black" font-size="13.0884" font-family="Helvetica">Entries </text>
<text xml:space="preserve" x="517.884" y="52.7943" fill="black" font-size="13.0884" font-family="Helvetica"> 1164</text>
<text xml:space="preserve" x="448.033" y="68.2264" fill="black" font-size="13.0884" font-family="Helvetica">Mean  </text>
<text xml:space="preserve" x="514.635" y="68.2264" fill="black" font-size="13.0884" font-family="Helvetica">    295</text>
<text xml:space="preserve" x="448.033" y="82.8464" fill="black" font-size="13.0884" font-family="Helvetica">Std Dev   </text>
<text xml:space="preserve" x="510.574" y="82.8464" fill="black" font-size="13.0884" font-family="Helvetica">  472.5</text>
<text xml:space="preserve" x="251.476" y="17.8688" fill="black" font-size="18.7414" font-family="Helvetica">Bg_003</text></svg>
