<?xml version="1.0" standalone="no"?>
<svg width="567.429" height="384.969" viewBox="0 0 567.429 384.969" xmlns="http://www.w3.org/2000/svg" shape-rendering="crispEdges">
<title>
img/week1/plane_hist/Bg_003.svg
</title>
<desc>
Creator: ROOT Version 6.22/09
CreationDate: Fri Jul  2 19:48:17 2021</desc>
<defs>
</defs>
<rect x="0.5" y="0" width="566.929" height="384.469" fill="white"/>
<rect x="57.1929" y="38.4469" width="453.543" height="307.575" fill="white"/>
<rect x="57.1929" y="38.4469" width="453.543" height="307.575" fill="none" stroke="black"/>
<path d="M57.1929,346.022h 20.374v -91.1765h 0.442913v -201.752h 0.442913v 37.8286h 0.442913v 121.245h 0.442913v 64.9875h 0.442913v 20.3692h 0.442913v 4.84982h 0.442913v 12.6095h 0.442913v 24.2491h 0.442913v -2.90989h 0.442913v 6.78974h 0.442913v
 0.969963h 0.442913v -0.969963h 0.442913v 1.93993h 0.885827v 0.969963h 0.442913v -0.969963h 0.442913v 0.969963h 1.32874v -1.93993h 0.442913v 0.969963h 0.885827v 0.969963h 0.442913v -0.969963h 0.885827v 0.969963h 0.885827v -0.969963h 0.442913v
 0.969963h 2.21457v -0.969963h 0.442913v 0.969963h 0.442913v -0.969963h 0.442913v 0.969963h 1.32874v -0.969963h 1.32874v 0.969963h 0.885827v -0.969963h 0.442913v -0.969963h 0.442913v 1.93993h 3.54331v -0.969963h 0.442913v 0.969963h 0.442913v
 -0.969963h 0.442913v 0.969963h 2.21457v -0.969963h 0.442913v 0.969963h 0.885827v -0.969963h 1.32874v 0.969963h 0.442913v -0.969963h 0.442913v 0.969963h 2.21457v -0.969963h 0.442913v 0.969963h 7.52953v -1.93993h 0.442913v 0.969963h 1.32874v 0.969963h
 3.98622v -0.969963h 0.442913v 0.969963h 0.885827v -0.969963h 0.442913v 0.969963h 0.442913v -0.969963h 0.442913v 0.969963h 6.6437v -0.969963h 0.885827v 0.969963h 9.74409v -1.93993h 0.442913v 1.93993h 0.885827v -0.969963h 0.442913v 0.969963h 9.74409v
 -0.969963h 0.442913v 0.969963h 11.9587v -0.969963h 0.442913v 0.969963h 10.6299v -1.93993h 0.442913v 1.93993h 1.32874v -0.969963h 0.442913v 0.969963h 1.77165v -0.969963h 0.442913v 0.969963h 2.65748v -0.969963h 0.442913v 0.969963h 0.885827v -0.969963h
 0.442913v 0.969963h 2.21457v -1.93993h 0.442913v 1.93993h 4.87205v -0.969963h 0.442913v 0.969963h 1.32874v -0.969963h 0.442913v 0.969963h 0.885827v -0.969963h 0.885827v 0.969963h 0.442913v -0.969963h 0.442913v 0.969963h 1.77165v -0.969963h 0.442913v
 0.969963h 1.32874v -0.969963h 0.442913v 0.969963h 4.87205v -0.969963h 0.442913v 0.969963h 3.54331v -0.969963h 0.442913v 0.969963h 1.32874v -0.969963h 0.442913v 0.969963h 3.98622v -0.969963h 0.442913v 0.969963h 2.65748v -0.969963h 0.442913v 0.969963h
 7.52953v -0.969963h 0.442913v 0.969963h 3.98622v -0.969963h 0.442913v 0.969963h 3.54331v -0.969963h 0.442913v 0.969963h 0.885827v -0.969963h 0.442913v 0.969963h 0.442913v -0.969963h 0.442913v 0.969963h 0.885827v -0.969963h 0.442913v 0.969963h
 5.75787v -0.969963h 0.442913v 0.969963h 5.31496v -0.969963h 0.442913v 0.969963h 0.442913v -0.969963h 0.442913v 0.969963h 7.08661v -0.969963h 0.442913v 0.969963h 10.6299v -0.969963h 0.442913v 0.969963h 11.0728v -0.969963h 0.442913v 0.969963h 7.08661v
 -0.969963h 0.442913v 0.969963h 3.10039v -0.969963h 0.442913v 0.969963h 2.21457v -0.969963h 0.442913v 0.969963h 7.97244v -0.969963h 0.442913v 0.969963h 15.502v -0.969963h 0.442913v 0.969963h 9.30118v -0.969963h 0.442913v 0.969963h 6.20079v -0.969963h
 0.442913v 0.969963h 1.32874v -0.969963h 0.442913v 0.969963h 14.6161v -0.969963h 0.442913v -2.90989h 0.442913v -0.969963h 0.442913v -1.93993h 0.442913v 0.969963h 0.442913v -0.969963h 0.885827v 6.78974h 0.442913v -0.969963h 0.442913v -0.969963h
 1.77165v 0.969963h 1.77165v 0.969963h 0.442913v -0.969963h 0.442913v -0.969963h 0.442913v 1.93993h 0.885827v -0.969963h 0.442913v 0.969963h 0.442913v -1.93993h 0.442913v 1.93993h 0.885827v -0.969963h 1.32874v 0.969963h 0.442913v -0.969963h 0.442913v
 0.969963h 0.442913v -0.969963h 0.442913v 0.969963h 0.442913v -0.969963h 0.442913v 0.969963h 1.32874v -0.969963h 0.442913v 0.969963h 135.531" fill="none" stroke="#000099"/>
<path d="M57.1929,346.022h 453.543" fill="none" stroke="black"/>
<path d="M57.1929,336.795v 9.22726" fill="none" stroke="black"/>
<path d="M71.9567,341.409v 4.61363" fill="none" stroke="black"/>
<path d="M86.7205,341.409v 4.61363" fill="none" stroke="black"/>
<path d="M101.484,341.409v 4.61363" fill="none" stroke="black"/>
<path d="M116.248,341.409v 4.61363" fill="none" stroke="black"/>
<path d="M131.012,336.795v 9.22726" fill="none" stroke="black"/>
<path d="M145.776,341.409v 4.61363" fill="none" stroke="black"/>
<path d="M160.539,341.409v 4.61363" fill="none" stroke="black"/>
<path d="M175.303,341.409v 4.61363" fill="none" stroke="black"/>
<path d="M190.067,341.409v 4.61363" fill="none" stroke="black"/>
<path d="M204.831,336.795v 9.22726" fill="none" stroke="black"/>
<path d="M219.594,341.409v 4.61363" fill="none" stroke="black"/>
<path d="M234.358,341.409v 4.61363" fill="none" stroke="black"/>
<path d="M249.122,341.409v 4.61363" fill="none" stroke="black"/>
<path d="M263.886,341.409v 4.61363" fill="none" stroke="black"/>
<path d="M278.65,336.795v 9.22726" fill="none" stroke="black"/>
<path d="M293.413,341.409v 4.61363" fill="none" stroke="black"/>
<path d="M308.177,341.409v 4.61363" fill="none" stroke="black"/>
<path d="M322.941,341.409v 4.61363" fill="none" stroke="black"/>
<path d="M337.705,341.409v 4.61363" fill="none" stroke="black"/>
<path d="M352.469,336.795v 9.22726" fill="none" stroke="black"/>
<path d="M367.232,341.409v 4.61363" fill="none" stroke="black"/>
<path d="M381.996,341.409v 4.61363" fill="none" stroke="black"/>
<path d="M396.76,341.409v 4.61363" fill="none" stroke="black"/>
<path d="M411.524,341.409v 4.61363" fill="none" stroke="black"/>
<path d="M426.287,336.795v 9.22726" fill="none" stroke="black"/>
<path d="M441.051,341.409v 4.61363" fill="none" stroke="black"/>
<path d="M455.815,341.409v 4.61363" fill="none" stroke="black"/>
<path d="M470.579,341.409v 4.61363" fill="none" stroke="black"/>
<path d="M485.343,341.409v 4.61363" fill="none" stroke="black"/>
<path d="M500.106,336.795v 9.22726" fill="none" stroke="black"/>
<path d="M500.106,336.795v 9.22726" fill="none" stroke="black"/>
<text xml:space="preserve" x="53.446" y="358.403" fill="black" font-size="12.8453" font-family="Helvetica">0</text>
<text xml:space="preserve" x="120.239" y="358.403" fill="black" font-size="12.8453" font-family="Helvetica">500</text>
<text xml:space="preserve" x="190.291" y="358.403" fill="black" font-size="12.8453" font-family="Helvetica">1000</text>
<text xml:space="preserve" x="264.415" y="358.403" fill="black" font-size="12.8453" font-family="Helvetica">1500</text>
<text xml:space="preserve" x="338.54" y="358.403" fill="black" font-size="12.8453" font-family="Helvetica">2000</text>
<text xml:space="preserve" x="411.849" y="358.403" fill="black" font-size="12.8453" font-family="Helvetica">2500</text>
<text xml:space="preserve" x="485.974" y="358.403" fill="black" font-size="12.8453" font-family="Helvetica">3000</text>
<text xml:space="preserve" x="451.763" y="372.251" fill="black" font-size="12.8453" font-family="Helvetica">ADC value</text>
<path d="M57.1929,346.022v -307.575" fill="none" stroke="black"/>
<path d="M70.7992,346.022h -13.6063" fill="none" stroke="black"/>
<path d="M63.9961,336.323h -6.80315" fill="none" stroke="black"/>
<path d="M63.9961,326.623h -6.80315" fill="none" stroke="black"/>
<path d="M63.9961,316.923h -6.80315" fill="none" stroke="black"/>
<path d="M63.9961,307.224h -6.80315" fill="none" stroke="black"/>
<path d="M70.7992,297.524h -13.6063" fill="none" stroke="black"/>
<path d="M63.9961,287.824h -6.80315" fill="none" stroke="black"/>
<path d="M63.9961,278.125h -6.80315" fill="none" stroke="black"/>
<path d="M63.9961,268.425h -6.80315" fill="none" stroke="black"/>
<path d="M63.9961,258.726h -6.80315" fill="none" stroke="black"/>
<path d="M70.7992,249.026h -13.6063" fill="none" stroke="black"/>
<path d="M63.9961,239.326h -6.80315" fill="none" stroke="black"/>
<path d="M63.9961,229.627h -6.80315" fill="none" stroke="black"/>
<path d="M63.9961,219.927h -6.80315" fill="none" stroke="black"/>
<path d="M63.9961,210.227h -6.80315" fill="none" stroke="black"/>
<path d="M70.7992,200.528h -13.6063" fill="none" stroke="black"/>
<path d="M63.9961,190.828h -6.80315" fill="none" stroke="black"/>
<path d="M63.9961,181.129h -6.80315" fill="none" stroke="black"/>
<path d="M63.9961,171.429h -6.80315" fill="none" stroke="black"/>
<path d="M63.9961,161.729h -6.80315" fill="none" stroke="black"/>
<path d="M70.7992,152.03h -13.6063" fill="none" stroke="black"/>
<path d="M63.9961,142.33h -6.80315" fill="none" stroke="black"/>
<path d="M63.9961,132.63h -6.80315" fill="none" stroke="black"/>
<path d="M63.9961,122.931h -6.80315" fill="none" stroke="black"/>
<path d="M63.9961,113.231h -6.80315" fill="none" stroke="black"/>
<path d="M70.7992,103.531h -13.6063" fill="none" stroke="black"/>
<path d="M63.9961,93.8318h -6.80315" fill="none" stroke="black"/>
<path d="M63.9961,84.1322h -6.80315" fill="none" stroke="black"/>
<path d="M63.9961,74.4326h -6.80315" fill="none" stroke="black"/>
<path d="M63.9961,64.7329h -6.80315" fill="none" stroke="black"/>
<path d="M70.7992,55.0333h -13.6063" fill="none" stroke="black"/>
<path d="M70.7992,55.0333h -13.6063" fill="none" stroke="black"/>
<path d="M63.9961,45.3337h -6.80315" fill="none" stroke="black"/>
<text xml:space="preserve" x="47.7441" y="350.258" fill="black" font-size="12.8453" font-family="Helvetica">0</text>
<text xml:space="preserve" x="41.2277" y="302.199" fill="black" font-size="12.8453" font-family="Helvetica">50</text>
<text xml:space="preserve" x="33.8967" y="253.326" fill="black" font-size="12.8453" font-family="Helvetica">100</text>
<text xml:space="preserve" x="33.8967" y="205.267" fill="black" font-size="12.8453" font-family="Helvetica">150</text>
<text xml:space="preserve" x="33.8967" y="156.394" fill="black" font-size="12.8453" font-family="Helvetica">200</text>
<text xml:space="preserve" x="33.8967" y="108.336" fill="black" font-size="12.8453" font-family="Helvetica">250</text>
<text xml:space="preserve" x="33.8967" y="59.4624" fill="black" font-size="12.8453" font-family="Helvetica">300</text>
<g transform="rotate(-90,20.8638,70.0516)">
<text xml:space="preserve" x="20.8638" y="70.0516" fill="black" font-size="12.8453" font-family="Helvetica">Event</text>
</g>
<text xml:space="preserve" x="251.382" y="17.9202" fill="black" font-size="18.7938" font-family="Helvetica">Bg_003</text>
<rect x="442.705" y="24.9905" width="113.386" height="61.5151" fill="white"/>
<path d="M442.705,86.5056h 113.386" fill="none" stroke="black"/>
<path d="M556.091,86.5056v -61.5151" fill="none" stroke="black"/>
<path d="M556.091,24.9905h -113.386" fill="none" stroke="black"/>
<path d="M442.705,24.9905v 61.5151" fill="none" stroke="black"/>
<text xml:space="preserve" x="476.199" y="36.6549" fill="black" font-size="13.4802" font-family="Helvetica">Bg_003</text>
<path d="M442.705,40.3693h 113.386" fill="none" stroke="black"/>
<text xml:space="preserve" x="447.69" y="52.946" fill="black" font-size="13.0654" font-family="Helvetica">Entries </text>
<text xml:space="preserve" x="517.741" y="52.946" fill="black" font-size="13.0654" font-family="Helvetica"> 1164</text>
<text xml:space="preserve" x="447.69" y="67.6079" fill="black" font-size="13.0654" font-family="Helvetica">Mean  </text>
<text xml:space="preserve" x="510.41" y="67.6079" fill="black" font-size="13.0654" font-family="Helvetica">  295.2</text>
<text xml:space="preserve" x="447.69" y="83.0844" fill="black" font-size="13.0654" font-family="Helvetica">Std Dev   </text>
<text xml:space="preserve" x="510.41" y="83.899" fill="black" font-size="13.0654" font-family="Helvetica">  472.7</text>
<text xml:space="preserve" x="251.382" y="17.9202" fill="black" font-size="18.7938" font-family="Helvetica">Bg_003</text></svg>
