<?xml version="1.0" standalone="no"?>
<svg width="567.429" height="384.969" viewBox="0 0 567.429 384.969" xmlns="http://www.w3.org/2000/svg" shape-rendering="crispEdges">
<title>
img/week1/plane_hist/Bg_001.svg
</title>
<desc>
Creator: ROOT Version 6.22/09
CreationDate: Thu Jul  8 17:39:09 2021</desc>
<defs>
</defs>
<rect x="0.5" y="0" width="566.929" height="384.469" fill="white"/>
<rect x="57.1929" y="38.4469" width="453.543" height="307.575" fill="white"/>
<rect x="57.1929" y="38.4469" width="453.543" height="307.575" fill="none" stroke="black"/>
<path d="M57.1929,346.022h 52.1935v -0.955722h 1.79978v -27.2381h 1.79978v -180.632h 1.79978v -84.1036h 1.79978v 12.9023h 1.79978v 36.7953h 1.79978v 54.954h 1.79978v 50.1754h 1.79978v 51.609h 1.79978v 3.82289h 1.79978v 23.8931h 1.79978v 17.203h
 1.79978v 16.2473h 1.79978v 10.5129h 1.79978v -0.477861h 1.79978v 9.07936h 1.79978v -0.955722h 1.79978v 2.38931h 1.79978v 3.82289h 1.79978v -2.86717h 1.79978v 2.38931h 1.79978v 0.477861h 1.79978v 0.955722h 359.955v -0.477861h 1.79978" fill="none"
 stroke="#000099"/>
<path d="M57.1929,346.022h 453.543" fill="none" stroke="black"/>
<path d="M58.9927,336.795v 9.22726" fill="none" stroke="black"/>
<path d="M70.9912,341.409v 4.61363" fill="none" stroke="black"/>
<path d="M82.9897,341.409v 4.61363" fill="none" stroke="black"/>
<path d="M94.9882,341.409v 4.61363" fill="none" stroke="black"/>
<path d="M106.987,341.409v 4.61363" fill="none" stroke="black"/>
<path d="M118.985,336.795v 9.22726" fill="none" stroke="black"/>
<path d="M130.984,341.409v 4.61363" fill="none" stroke="black"/>
<path d="M142.982,341.409v 4.61363" fill="none" stroke="black"/>
<path d="M154.981,341.409v 4.61363" fill="none" stroke="black"/>
<path d="M166.979,341.409v 4.61363" fill="none" stroke="black"/>
<path d="M178.978,336.795v 9.22726" fill="none" stroke="black"/>
<path d="M190.976,341.409v 4.61363" fill="none" stroke="black"/>
<path d="M202.975,341.409v 4.61363" fill="none" stroke="black"/>
<path d="M214.973,341.409v 4.61363" fill="none" stroke="black"/>
<path d="M226.972,341.409v 4.61363" fill="none" stroke="black"/>
<path d="M238.97,336.795v 9.22726" fill="none" stroke="black"/>
<path d="M250.969,341.409v 4.61363" fill="none" stroke="black"/>
<path d="M262.967,341.409v 4.61363" fill="none" stroke="black"/>
<path d="M274.966,341.409v 4.61363" fill="none" stroke="black"/>
<path d="M286.964,341.409v 4.61363" fill="none" stroke="black"/>
<path d="M298.963,336.795v 9.22726" fill="none" stroke="black"/>
<path d="M310.961,341.409v 4.61363" fill="none" stroke="black"/>
<path d="M322.96,341.409v 4.61363" fill="none" stroke="black"/>
<path d="M334.958,341.409v 4.61363" fill="none" stroke="black"/>
<path d="M346.957,341.409v 4.61363" fill="none" stroke="black"/>
<path d="M358.955,336.795v 9.22726" fill="none" stroke="black"/>
<path d="M370.954,341.409v 4.61363" fill="none" stroke="black"/>
<path d="M382.952,341.409v 4.61363" fill="none" stroke="black"/>
<path d="M394.951,341.409v 4.61363" fill="none" stroke="black"/>
<path d="M406.949,341.409v 4.61363" fill="none" stroke="black"/>
<path d="M418.948,336.795v 9.22726" fill="none" stroke="black"/>
<path d="M430.946,341.409v 4.61363" fill="none" stroke="black"/>
<path d="M442.945,341.409v 4.61363" fill="none" stroke="black"/>
<path d="M454.943,341.409v 4.61363" fill="none" stroke="black"/>
<path d="M466.942,341.409v 4.61363" fill="none" stroke="black"/>
<path d="M478.94,336.795v 9.22726" fill="none" stroke="black"/>
<path d="M58.9927,336.795v 9.22726" fill="none" stroke="black"/>
<path d="M478.94,336.795v 9.22726" fill="none" stroke="black"/>
<path d="M490.939,341.409v 4.61363" fill="none" stroke="black"/>
<path d="M502.937,341.409v 4.61363" fill="none" stroke="black"/>
<text xml:space="preserve" x="55.0751" y="358.403" fill="black" font-size="12.8453" font-family="Helvetica">0</text>
<text xml:space="preserve" x="108.021" y="358.403" fill="black" font-size="12.8453" font-family="Helvetica">100</text>
<text xml:space="preserve" x="168.298" y="358.403" fill="black" font-size="12.8453" font-family="Helvetica">200</text>
<text xml:space="preserve" x="227.76" y="358.403" fill="black" font-size="12.8453" font-family="Helvetica">300</text>
<text xml:space="preserve" x="288.037" y="358.403" fill="black" font-size="12.8453" font-family="Helvetica">400</text>
<text xml:space="preserve" x="348.314" y="358.403" fill="black" font-size="12.8453" font-family="Helvetica">500</text>
<text xml:space="preserve" x="407.777" y="358.403" fill="black" font-size="12.8453" font-family="Helvetica">600</text>
<text xml:space="preserve" x="468.054" y="358.403" fill="black" font-size="12.8453" font-family="Helvetica">700</text>
<text xml:space="preserve" x="451.763" y="372.251" fill="black" font-size="12.8453" font-family="Helvetica">ADC value</text>
<path d="M57.1929,346.022v -307.575" fill="none" stroke="black"/>
<path d="M70.7992,346.022h -13.6063" fill="none" stroke="black"/>
<path d="M63.9961,336.465h -6.80315" fill="none" stroke="black"/>
<path d="M63.9961,326.908h -6.80315" fill="none" stroke="black"/>
<path d="M63.9961,317.351h -6.80315" fill="none" stroke="black"/>
<path d="M63.9961,307.793h -6.80315" fill="none" stroke="black"/>
<path d="M70.7992,298.236h -13.6063" fill="none" stroke="black"/>
<path d="M63.9961,288.679h -6.80315" fill="none" stroke="black"/>
<path d="M63.9961,279.122h -6.80315" fill="none" stroke="black"/>
<path d="M63.9961,269.564h -6.80315" fill="none" stroke="black"/>
<path d="M63.9961,260.007h -6.80315" fill="none" stroke="black"/>
<path d="M70.7992,250.45h -13.6063" fill="none" stroke="black"/>
<path d="M63.9961,240.893h -6.80315" fill="none" stroke="black"/>
<path d="M63.9961,231.336h -6.80315" fill="none" stroke="black"/>
<path d="M63.9961,221.778h -6.80315" fill="none" stroke="black"/>
<path d="M63.9961,212.221h -6.80315" fill="none" stroke="black"/>
<path d="M70.7992,202.664h -13.6063" fill="none" stroke="black"/>
<path d="M63.9961,193.107h -6.80315" fill="none" stroke="black"/>
<path d="M63.9961,183.549h -6.80315" fill="none" stroke="black"/>
<path d="M63.9961,173.992h -6.80315" fill="none" stroke="black"/>
<path d="M63.9961,164.435h -6.80315" fill="none" stroke="black"/>
<path d="M70.7992,154.878h -13.6063" fill="none" stroke="black"/>
<path d="M63.9961,145.321h -6.80315" fill="none" stroke="black"/>
<path d="M63.9961,135.763h -6.80315" fill="none" stroke="black"/>
<path d="M63.9961,126.206h -6.80315" fill="none" stroke="black"/>
<path d="M63.9961,116.649h -6.80315" fill="none" stroke="black"/>
<path d="M70.7992,107.092h -13.6063" fill="none" stroke="black"/>
<path d="M63.9961,97.5345h -6.80315" fill="none" stroke="black"/>
<path d="M63.9961,87.9772h -6.80315" fill="none" stroke="black"/>
<path d="M63.9961,78.42h -6.80315" fill="none" stroke="black"/>
<path d="M63.9961,68.8628h -6.80315" fill="none" stroke="black"/>
<path d="M70.7992,59.3056h -13.6063" fill="none" stroke="black"/>
<path d="M70.7992,59.3056h -13.6063" fill="none" stroke="black"/>
<path d="M63.9961,49.7483h -6.80315" fill="none" stroke="black"/>
<path d="M63.9961,40.1911h -6.80315" fill="none" stroke="black"/>
<text xml:space="preserve" x="47.7441" y="350.258" fill="black" font-size="12.8453" font-family="Helvetica">0</text>
<text xml:space="preserve" x="33.8967" y="303.014" fill="black" font-size="12.8453" font-family="Helvetica">100</text>
<text xml:space="preserve" x="33.8967" y="254.955" fill="black" font-size="12.8453" font-family="Helvetica">200</text>
<text xml:space="preserve" x="33.8967" y="206.897" fill="black" font-size="12.8453" font-family="Helvetica">300</text>
<text xml:space="preserve" x="33.8967" y="159.652" fill="black" font-size="12.8453" font-family="Helvetica">400</text>
<text xml:space="preserve" x="33.8967" y="111.594" fill="black" font-size="12.8453" font-family="Helvetica">500</text>
<text xml:space="preserve" x="33.8967" y="63.5352" fill="black" font-size="12.8453" font-family="Helvetica">600</text>
<g transform="rotate(-90,20.8638,70.0516)">
<text xml:space="preserve" x="20.8638" y="70.0516" fill="black" font-size="12.8453" font-family="Helvetica">Event</text>
</g>
<text xml:space="preserve" x="253.012" y="17.9202" fill="black" font-size="18.7938" font-family="Helvetica">Bg_001</text>
<rect x="442.705" y="24.9905" width="113.386" height="61.5151" fill="white"/>
<path d="M442.705,86.5056h 113.386" fill="none" stroke="black"/>
<path d="M556.091,86.5056v -61.5151" fill="none" stroke="black"/>
<path d="M556.091,24.9905h -113.386" fill="none" stroke="black"/>
<path d="M442.705,24.9905v 61.5151" fill="none" stroke="black"/>
<text xml:space="preserve" x="477.828" y="36.6549" fill="black" font-size="13.4802" font-family="Helvetica">Bg_001</text>
<path d="M442.705,40.3693h 113.386" fill="none" stroke="black"/>
<text xml:space="preserve" x="447.69" y="52.946" fill="black" font-size="13.0654" font-family="Helvetica">Entries </text>
<text xml:space="preserve" x="517.741" y="52.946" fill="black" font-size="13.0654" font-family="Helvetica"> 3623</text>
<text xml:space="preserve" x="447.69" y="67.6079" fill="black" font-size="13.0654" font-family="Helvetica">Mean  </text>
<text xml:space="preserve" x="510.41" y="67.6079" fill="black" font-size="13.0654" font-family="Helvetica">  101.9</text>
<text xml:space="preserve" x="447.69" y="83.0844" fill="black" font-size="13.0654" font-family="Helvetica">Std Dev   </text>
<text xml:space="preserve" x="514.483" y="83.899" fill="black" font-size="13.0654" font-family="Helvetica">   14.2</text>
<text xml:space="preserve" x="253.012" y="17.9202" fill="black" font-size="18.7938" font-family="Helvetica">Bg_001</text></svg>
