<?xml version="1.0" standalone="no"?>
<svg width="567.429" height="384.969" viewBox="0 0 567.429 384.969" xmlns="http://www.w3.org/2000/svg" shape-rendering="crispEdges">
<title>
img/week1/plane_hist/Cs_014.svg
</title>
<desc>
Creator: ROOT Version 6.22/09
CreationDate: Fri Jul  2 19:48:15 2021</desc>
<defs>
</defs>
<rect x="0.5" y="0" width="566.929" height="384.469" fill="white"/>
<rect x="57.1929" y="38.4469" width="453.543" height="307.575" fill="white"/>
<rect x="57.1929" y="38.4469" width="453.543" height="307.575" fill="none" stroke="black"/>
<path d="M57.1929,346.022h 51.378v -0.429514h 0.442913v -0.429514h 0.442913v -6.44272h 0.442913v -8.59029h 0.442913v -20.1872h 0.442913v -1.28854h 0.442913v -4.72466h 0.442913v 10.3083h 0.442913v 3.43612h 0.442913v 6.0132h 0.442913v -3.86563h
 0.442913v 3.86563h 0.442913v 9.87883h 0.442913v 0.429514h 0.442913v 2.14757h 0.442913v -0.429514h 0.442913v 1.71806h 0.442913v 1.71806h 0.885827v 1.71806h 0.442913v -4.29515h 0.442913v 5.15417h 0.442913v -1.71806h 0.442913v 2.57709h 0.442913v
 -1.71806h 0.442913v -0.429514h 0.442913v 2.14757h 1.32874v 0.859029h 0.885827v -0.429514h 0.442913v 1.28854h 0.442913v -1.28854h 0.442913v 0.429514h 0.442913v 0.429514h 0.442913v -0.859029h 0.442913v -3.0066h 0.442913v 3.43612h 0.885827v -0.859029h
 0.442913v 1.28854h 0.442913v -0.859029h 0.442913v 0.859029h 0.442913v -0.429514h 0.442913v -1.71806h 0.442913v 3.0066h 0.885827v -2.14757h 0.442913v 0.859029h 0.885827v 0.859029h 0.442913v 0.859029h 0.442913v -1.71806h 0.885827v -0.429514h 0.442913v
 -0.429514h 0.442913v 1.28854h 0.885827v -3.43612h 0.442913v 1.71806h 0.442913v 0.429514h 0.442913v -1.28854h 0.442913v 2.14757h 0.442913v -1.28854h 0.885827v 2.14757h 0.442913v 0.859029h 0.442913v -1.28854h 0.442913v -1.28854h 0.442913v 0.429514h
 0.442913v 0.429514h 0.885827v -0.429514h 0.885827v -0.859029h 0.442913v 1.28854h 0.442913v 0.859029h 0.442913v -1.28854h 0.442913v 1.71806h 0.885827v -0.429514h 0.442913v -0.859029h 0.885827v -0.429514h 0.442913v 2.14757h 0.442913v -1.28854h
 0.442913v 0.429514h 0.442913v -0.859029h 0.885827v 2.14757h 0.442913v -3.43612h 0.442913v 2.14757h 0.885827v 0.859029h 0.442913v -2.57709h 0.442913v 0.429514h 1.32874v 0.429514h 0.442913v -1.28854h 0.442913v 2.14757h 0.442913v -0.859029h 0.442913v
 -0.429514h 0.442913v 1.28854h 0.442913v -1.28854h 0.442913v 0.429514h 0.442913v 0.859029h 0.442913v -1.71806h 0.442913v 0.859029h 0.442913v 0.429514h 0.885827v -0.429514h 0.442913v 0.859029h 0.885827v 0.429514h 0.442913v -2.14757h 0.442913v
 0.859029h 0.442913v 0.429514h 0.442913v -0.429514h 0.442913v -0.429514h 0.442913v 1.71806h 0.442913v -1.28854h 0.442913v 0.429514h 0.442913v -0.859029h 0.442913v 1.28854h 0.442913v -0.429514h 0.442913v 0.429514h 0.442913v -1.28854h 0.442913v
 1.28854h 0.442913v -0.859029h 0.442913v 1.71806h 0.442913v -1.71806h 0.442913v 0.859029h 0.442913v -0.859029h 0.442913v -0.429514h 0.442913v 0.429514h 0.442913v 1.71806h 0.442913v -0.859029h 0.442913v -0.429514h 0.442913v 0.859029h 0.442913v
 -2.14757h 0.442913v 0.859029h 0.442913v 0.859029h 0.442913v -0.859029h 0.442913v 0.429514h 0.442913v 0.859029h 0.442913v -1.71806h 0.442913v 1.28854h 0.442913v -0.859029h 0.885827v 1.71806h 0.885827v -1.71806h 0.442913v -0.859029h 0.442913v
 0.429514h 0.442913v 0.429514h 0.442913v 0.429514h 0.442913v 0.429514h 0.442913v -0.429514h 0.442913v 1.28854h 0.442913v -0.429514h 0.885827v -1.28854h 0.442913v 0.859029h 0.885827v 0.429514h 0.442913v -0.859029h 0.442913v -1.28854h 0.442913v
 1.71806h 0.442913v 0.859029h 0.442913v -1.28854h 0.442913v 0.859029h 0.442913v -0.429514h 0.442913v 0.429514h 0.442913v -2.14757h 0.442913v -0.859029h 0.442913v 2.14757h 0.885827v -2.57709h 0.442913v 1.28854h 0.442913v 1.71806h 0.442913v 0.429514h
 0.442913v -0.429514h 0.885827v -0.429514h 0.442913v 1.28854h 0.442913v -2.14757h 0.442913v 0.859029h 0.442913v -0.429514h 0.442913v 1.71806h 0.442913v -2.14757h 0.885827v 0.429514h 0.442913v -0.859029h 0.442913v 1.71806h 0.442913v -0.429514h
 0.442913v 0.859029h 0.442913v -1.71806h 0.442913v 1.28854h 0.442913v -0.429514h 0.442913v 0.429514h 0.885827v -0.859029h 0.442913v 0.859029h 0.885827v -0.429514h 0.442913v -1.71806h 0.442913v 2.57709h 0.442913v -2.14757h 0.442913v 1.71806h 0.442913v
 1.28854h 0.442913v -4.72466h 0.442913v 4.29515h 0.442913v -3.0066h 0.442913v 0.429514h 0.442913v 2.57709h 0.442913v -3.0066h 0.442913v 2.14757h 0.442913v -0.429514h 0.442913v -0.429514h 0.442913v 0.429514h 0.442913v 1.28854h 0.442913v -1.71806h
 0.442913v 1.71806h 0.442913v -0.859029h 0.442913v 0.429514h 0.885827v -0.429514h 0.885827v 0.859029h 0.442913v 0.429514h 0.442913v -3.43612h 0.442913v 1.71806h 0.442913v 0.859029h 0.442913v -1.28854h 0.442913v 0.429514h 0.442913v -1.28854h 0.442913v
 2.57709h 1.32874v -0.859029h 0.442913v -1.71806h 0.442913v 1.71806h 0.442913v -1.28854h 0.442913v 1.71806h 0.442913v -0.859029h 0.442913v -1.28854h 0.442913v 2.14757h 0.442913v -2.14757h 0.442913v 0.429514h 0.442913v -0.429514h 0.442913v 1.28854h
 0.442913v -0.859029h 0.442913v 2.14757h 0.442913v -3.0066h 0.442913v 0.429514h 0.885827v 1.28854h 0.442913v 0.429514h 0.885827v 0.429514h 0.442913v -1.28854h 1.77165v 0.859029h 0.442913v -1.28854h 0.442913v 0.859029h 0.442913v 0.429514h 0.442913v
 -0.859029h 0.442913v -0.859029h 0.442913v 1.28854h 0.442913v -0.429514h 0.442913v -0.859029h 0.442913v 0.859029h 0.442913v -1.71806h 0.442913v 1.28854h 0.442913v -0.859029h 0.442913v 1.71806h 0.442913v -1.71806h 0.442913v -2.57709h 0.442913v
 1.71806h 0.442913v 0.859029h 0.442913v 0.429514h 0.442913v -1.28854h 0.442913v 1.71806h 0.442913v -0.429514h 0.442913v -2.14757h 0.442913v 3.0066h 0.442913v -1.28854h 0.442913v -0.429514h 0.442913v -2.57709h 0.442913v 3.43612h 0.442913v -0.859029h
 0.442913v -0.429514h 0.442913v -0.859029h 0.442913v 3.43612h 0.442913v -5.58369h 0.442913v 4.29515h 0.442913v 1.28854h 0.442913v -3.86563h 0.442913v 0.429514h 0.442913v 2.14757h 0.442913v -0.429514h 0.442913v -1.28854h 0.442913v 0.859029h 0.885827v
 0.429514h 0.442913v -0.429514h 0.442913v 0.429514h 0.442913v -2.14757h 0.442913v -2.14757h 0.442913v 3.86563h 0.885827v 1.28854h 0.885827v -1.28854h 0.442913v 0.429514h 0.885827v -1.71806h 0.442913v 1.28854h 0.442913v 1.71806h 0.442913v -2.14757h
 0.442913v 3.0066h 0.442913v -1.71806h 0.442913v 0.429514h 0.442913v -1.71806h 0.442913v 0.429514h 0.885827v 1.28854h 0.442913v -1.71806h 0.442913v 2.14757h 0.442913v -0.429514h 0.442913v 0.429514h 0.885827v -0.859029h 0.442913v 1.28854h 0.442913v
 -0.859029h 0.442913v -0.859029h 0.885827v 1.28854h 0.442913v -1.28854h 0.442913v 2.14757h 0.442913v 0.429514h 0.442913v -3.0066h 0.442913v 2.57709h 0.442913v -2.14757h 0.885827v 0.859029h 0.442913v 0.429514h 0.442913v -0.429514h 0.442913v 0.429514h
 0.442913v -1.28854h 0.442913v 1.71806h 0.442913v 0.859029h 0.442913v -4.29515h 0.442913v 3.0066h 0.885827v -0.429514h 0.885827v 0.859029h 0.442913v 0.429514h 0.442913v -0.429514h 0.885827v 0.429514h 0.442913v -0.429514h 0.442913v 0.429514h 0.442913v
 0.859029h 0.442913v -0.859029h 0.442913v -1.28854h 0.442913v 0.859029h 0.885827v 0.429514h 0.442913v -1.28854h 0.442913v 1.28854h 0.442913v -0.859029h 0.442913v -0.859029h 0.442913v 2.14757h 0.442913v -2.14757h 0.442913v 2.57709h 0.442913v
 -0.859029h 0.442913v -0.429514h 0.885827v -0.429514h 0.885827v -1.28854h 0.442913v 0.859029h 0.442913v -0.859029h 0.442913v -0.429514h 0.442913v 0.859029h 0.442913v 0.429514h 0.442913v -0.429514h 0.442913v 0.859029h 0.442913v -1.28854h 0.442913v
 1.71806h 0.442913v -0.859029h 0.885827v 2.14757h 0.442913v -2.57709h 0.442913v 0.859029h 0.442913v -1.28854h 0.442913v 3.0066h 0.442913v 0.429514h 0.442913v -2.14757h 0.442913v 1.28854h 0.442913v -0.859029h 0.442913v 0.429514h 0.442913v -0.429514h
 0.885827v 0.859029h 0.442913v -0.859029h 0.442913v -1.28854h 0.442913v 2.14757h 0.442913v -4.29515h 0.442913v 1.28854h 0.442913v 1.28854h 0.442913v -0.429514h 0.885827v 2.57709h 0.442913v -3.0066h 0.442913v 1.71806h 0.442913v -0.859029h 0.442913v
 -1.71806h 0.442913v 1.28854h 0.442913v -0.859029h 0.442913v 1.71806h 0.442913v -0.859029h 0.442913v 0.429514h 0.442913v -0.859029h 0.442913v 2.14757h 0.442913v -2.14757h 0.442913v -0.859029h 0.442913v 2.14757h 0.442913v 0.429514h 0.442913v
 -0.859029h 0.885827v -1.28854h 0.442913v 1.28854h 0.442913v -1.71806h 0.442913v 0.859029h 0.442913v 1.71806h 0.442913v -3.43612h 0.442913v -0.429514h 0.442913v 4.29515h 0.442913v -1.71806h 0.442913v -3.0066h 0.442913v 3.0066h 0.442913v -5.15417h
 0.442913v 2.14757h 0.442913v 1.28854h 0.442913v -2.57709h 0.442913v 2.57709h 0.442913v -0.859029h 0.885827v -3.86563h 0.442913v 4.72466h 0.442913v -1.71806h 0.442913v -3.43612h 0.442913v 5.15417h 0.442913v -4.72466h 0.442913v 3.86563h 1.32874v
 -3.86563h 0.442913v -1.71806h 0.442913v 3.43612h 0.442913v -0.429514h 0.442913v -0.859029h 0.442913v -2.14757h 0.442913v -0.429514h 0.442913v 2.57709h 0.442913v -0.859029h 0.442913v -1.71806h 0.442913v -0.429514h 0.442913v 1.28854h 0.442913v
 3.86563h 0.442913v -4.72466h 0.442913v -0.859029h 0.442913v 2.14757h 0.442913v -1.28854h 0.442913v 0.429514h 0.442913v -0.429514h 0.442913v -3.43612h 0.442913v 5.15417h 0.442913v -4.72466h 0.442913v -0.859029h 0.442913v -1.28854h 0.442913v 2.14757h
 0.442913v -6.0132h 0.442913v 10.7379h 0.442913v -3.43612h 0.442913v -3.43612h 0.442913v -1.28854h 0.442913v 1.28854h 0.442913v 5.58369h 0.442913v 1.71806h 0.442913v -8.16078h 0.442913v 7.30175h 0.442913v -7.30175h 0.442913v 3.43612h 0.442913v
 0.429514h 0.442913v 1.28854h 0.442913v 0.859029h 0.442913v 1.28854h 0.442913v 1.71806h 0.442913v -3.86563h 0.442913v 0.429514h 0.442913v 4.72466h 0.442913v -3.0066h 0.442913v 1.28854h 0.442913v 0.859029h 0.442913v -6.0132h 0.442913v 4.29515h
 0.442913v -2.57709h 1.32874v 3.0066h 0.442913v -0.859029h 0.442913v 1.28854h 0.442913v -3.43612h 0.442913v 3.86563h 0.442913v 1.28854h 0.442913v -3.0066h 0.442913v 1.28854h 0.442913v -0.429514h 0.442913v 1.28854h 0.442913v 2.57709h 0.442913v
 0.859029h 0.442913v -1.71806h 0.442913v -2.14757h 0.442913v 1.28854h 0.442913v 2.14757h 0.442913v -1.28854h 0.442913v -0.859029h 0.442913v 1.71806h 0.442913v -1.71806h 0.442913v 3.43612h 0.885827v 0.859029h 0.442913v -2.14757h 0.442913v 2.57709h
 0.442913v -2.14757h 0.442913v -0.429514h 0.442913v 3.86563h 0.442913v -2.14757h 0.442913v -0.429514h 0.442913v -1.71806h 0.442913v 2.14757h 0.442913v -0.429514h 0.442913v -0.859029h 0.442913v 2.14757h 0.442913v 0.429514h 0.442913v 0.429514h
 0.442913v -5.15417h 0.442913v -1.28854h 0.442913v 3.43612h 0.885827v 1.71806h 0.442913v 0.429514h 0.885827v -1.71806h 0.442913v 1.71806h 0.442913v -0.429514h 0.442913v 0.429514h 0.442913v 0.429514h 0.442913v -1.28854h 0.442913v 0.429514h 0.442913v
 1.28854h 0.442913v -3.86563h 0.442913v 1.71806h 0.442913v -0.859029h 0.442913v 1.28854h 0.442913v -12.4559h 0.442913v -27.9184h 0.442913v -75.5946h 0.442913v -93.6342h 0.442913v -78.1716h 0.442913v -1.28854h 0.442913v 49.3942h 0.442913v 26.6299h
 0.442913v 45.9581h 0.442913v 33.0726h 0.442913v 27.4889h 0.442913v 19.3282h 0.442913v 18.4691h 0.442913v 5.58369h 0.442913v 13.3149h 0.442913v -2.14757h 0.885827v 1.28854h 0.442913v 5.15417h 0.442913v 2.57709h 0.442913v -2.57709h 0.442913v 0.429514h
 0.442913v -7.30175h 0.442913v 11.5969h 0.442913v -7.73126h 0.442913v 9.87883h 0.442913v -9.44932h 0.442913v 1.71806h 0.442913v 11.5969h 0.442913v -6.0132h 0.442913v 0.429514h 0.442913v -3.0066h 0.442913v 0.429514h 0.442913v -3.43612h 0.442913v
 14.6035h 0.442913v -7.73126h 0.442913v 5.58369h 0.442913v -1.71806h 0.442913v 3.0066h 0.442913v -12.4559h 0.442913v 7.30175h 0.442913v 6.44272h 0.442913v 0.859029h 0.442913v 6.44272h 0.442913v 6.0132h 0.442913v 10.3083h 0.442913v 4.29515h 0.442913v
 5.58369h 0.442913v 1.28854h 0.442913v -0.429514h 0.442913v 0.859029h 126.23" fill="none" stroke="#000099"/>
<path d="M57.1929,346.022h 453.543" fill="none" stroke="black"/>
<path d="M57.1929,336.795v 9.22726" fill="none" stroke="black"/>
<path d="M71.9567,341.409v 4.61363" fill="none" stroke="black"/>
<path d="M86.7205,341.409v 4.61363" fill="none" stroke="black"/>
<path d="M101.484,341.409v 4.61363" fill="none" stroke="black"/>
<path d="M116.248,341.409v 4.61363" fill="none" stroke="black"/>
<path d="M131.012,336.795v 9.22726" fill="none" stroke="black"/>
<path d="M145.776,341.409v 4.61363" fill="none" stroke="black"/>
<path d="M160.539,341.409v 4.61363" fill="none" stroke="black"/>
<path d="M175.303,341.409v 4.61363" fill="none" stroke="black"/>
<path d="M190.067,341.409v 4.61363" fill="none" stroke="black"/>
<path d="M204.831,336.795v 9.22726" fill="none" stroke="black"/>
<path d="M219.594,341.409v 4.61363" fill="none" stroke="black"/>
<path d="M234.358,341.409v 4.61363" fill="none" stroke="black"/>
<path d="M249.122,341.409v 4.61363" fill="none" stroke="black"/>
<path d="M263.886,341.409v 4.61363" fill="none" stroke="black"/>
<path d="M278.65,336.795v 9.22726" fill="none" stroke="black"/>
<path d="M293.413,341.409v 4.61363" fill="none" stroke="black"/>
<path d="M308.177,341.409v 4.61363" fill="none" stroke="black"/>
<path d="M322.941,341.409v 4.61363" fill="none" stroke="black"/>
<path d="M337.705,341.409v 4.61363" fill="none" stroke="black"/>
<path d="M352.469,336.795v 9.22726" fill="none" stroke="black"/>
<path d="M367.232,341.409v 4.61363" fill="none" stroke="black"/>
<path d="M381.996,341.409v 4.61363" fill="none" stroke="black"/>
<path d="M396.76,341.409v 4.61363" fill="none" stroke="black"/>
<path d="M411.524,341.409v 4.61363" fill="none" stroke="black"/>
<path d="M426.287,336.795v 9.22726" fill="none" stroke="black"/>
<path d="M441.051,341.409v 4.61363" fill="none" stroke="black"/>
<path d="M455.815,341.409v 4.61363" fill="none" stroke="black"/>
<path d="M470.579,341.409v 4.61363" fill="none" stroke="black"/>
<path d="M485.343,341.409v 4.61363" fill="none" stroke="black"/>
<path d="M500.106,336.795v 9.22726" fill="none" stroke="black"/>
<path d="M500.106,336.795v 9.22726" fill="none" stroke="black"/>
<text xml:space="preserve" x="53.446" y="358.403" fill="black" font-size="12.8453" font-family="Helvetica">0</text>
<text xml:space="preserve" x="120.239" y="358.403" fill="black" font-size="12.8453" font-family="Helvetica">500</text>
<text xml:space="preserve" x="190.291" y="358.403" fill="black" font-size="12.8453" font-family="Helvetica">1000</text>
<text xml:space="preserve" x="264.415" y="358.403" fill="black" font-size="12.8453" font-family="Helvetica">1500</text>
<text xml:space="preserve" x="338.54" y="358.403" fill="black" font-size="12.8453" font-family="Helvetica">2000</text>
<text xml:space="preserve" x="411.849" y="358.403" fill="black" font-size="12.8453" font-family="Helvetica">2500</text>
<text xml:space="preserve" x="485.974" y="358.403" fill="black" font-size="12.8453" font-family="Helvetica">3000</text>
<text xml:space="preserve" x="451.763" y="372.251" fill="black" font-size="12.8453" font-family="Helvetica">ADC value</text>
<path d="M57.1929,346.022v -307.575" fill="none" stroke="black"/>
<path d="M70.7992,346.022h -13.6063" fill="none" stroke="black"/>
<path d="M63.9961,337.432h -6.80315" fill="none" stroke="black"/>
<path d="M63.9961,328.842h -6.80315" fill="none" stroke="black"/>
<path d="M63.9961,320.251h -6.80315" fill="none" stroke="black"/>
<path d="M63.9961,311.661h -6.80315" fill="none" stroke="black"/>
<path d="M70.7992,303.071h -13.6063" fill="none" stroke="black"/>
<path d="M63.9961,294.481h -6.80315" fill="none" stroke="black"/>
<path d="M63.9961,285.89h -6.80315" fill="none" stroke="black"/>
<path d="M63.9961,277.3h -6.80315" fill="none" stroke="black"/>
<path d="M63.9961,268.71h -6.80315" fill="none" stroke="black"/>
<path d="M70.7992,260.119h -13.6063" fill="none" stroke="black"/>
<path d="M63.9961,251.529h -6.80315" fill="none" stroke="black"/>
<path d="M63.9961,242.939h -6.80315" fill="none" stroke="black"/>
<path d="M63.9961,234.348h -6.80315" fill="none" stroke="black"/>
<path d="M63.9961,225.758h -6.80315" fill="none" stroke="black"/>
<path d="M70.7992,217.168h -13.6063" fill="none" stroke="black"/>
<path d="M63.9961,208.578h -6.80315" fill="none" stroke="black"/>
<path d="M63.9961,199.987h -6.80315" fill="none" stroke="black"/>
<path d="M63.9961,191.397h -6.80315" fill="none" stroke="black"/>
<path d="M63.9961,182.807h -6.80315" fill="none" stroke="black"/>
<path d="M70.7992,174.216h -13.6063" fill="none" stroke="black"/>
<path d="M63.9961,165.626h -6.80315" fill="none" stroke="black"/>
<path d="M63.9961,157.036h -6.80315" fill="none" stroke="black"/>
<path d="M63.9961,148.446h -6.80315" fill="none" stroke="black"/>
<path d="M63.9961,139.855h -6.80315" fill="none" stroke="black"/>
<path d="M70.7992,131.265h -13.6063" fill="none" stroke="black"/>
<path d="M63.9961,122.675h -6.80315" fill="none" stroke="black"/>
<path d="M63.9961,114.084h -6.80315" fill="none" stroke="black"/>
<path d="M63.9961,105.494h -6.80315" fill="none" stroke="black"/>
<path d="M63.9961,96.9038h -6.80315" fill="none" stroke="black"/>
<path d="M70.7992,88.3136h -13.6063" fill="none" stroke="black"/>
<path d="M63.9961,79.7233h -6.80315" fill="none" stroke="black"/>
<path d="M63.9961,71.133h -6.80315" fill="none" stroke="black"/>
<path d="M63.9961,62.5427h -6.80315" fill="none" stroke="black"/>
<path d="M63.9961,53.9524h -6.80315" fill="none" stroke="black"/>
<path d="M70.7992,45.3621h -13.6063" fill="none" stroke="black"/>
<path d="M70.7992,45.3621h -13.6063" fill="none" stroke="black"/>
<text xml:space="preserve" x="47.7441" y="350.258" fill="black" font-size="12.8453" font-family="Helvetica">0</text>
<text xml:space="preserve" x="33.8967" y="307.901" fill="black" font-size="12.8453" font-family="Helvetica">100</text>
<text xml:space="preserve" x="33.8967" y="264.73" fill="black" font-size="12.8453" font-family="Helvetica">200</text>
<text xml:space="preserve" x="33.8967" y="221.559" fill="black" font-size="12.8453" font-family="Helvetica">300</text>
<text xml:space="preserve" x="33.8967" y="178.387" fill="black" font-size="12.8453" font-family="Helvetica">400</text>
<text xml:space="preserve" x="33.8967" y="136.03" fill="black" font-size="12.8453" font-family="Helvetica">500</text>
<text xml:space="preserve" x="33.8967" y="92.8591" fill="black" font-size="12.8453" font-family="Helvetica">600</text>
<text xml:space="preserve" x="33.8967" y="49.6878" fill="black" font-size="12.8453" font-family="Helvetica">700</text>
<g transform="rotate(-90,20.8638,70.0516)">
<text xml:space="preserve" x="20.8638" y="70.0516" fill="black" font-size="12.8453" font-family="Helvetica">Event</text>
</g>
<text xml:space="preserve" x="253.012" y="18.7347" fill="black" font-size="18.0316" font-family="Helvetica">Cs_014</text>
<rect x="442.705" y="24.9905" width="113.386" height="61.5151" fill="white"/>
<path d="M442.705,86.5056h 113.386" fill="none" stroke="black"/>
<path d="M556.091,86.5056v -61.5151" fill="none" stroke="black"/>
<path d="M556.091,24.9905h -113.386" fill="none" stroke="black"/>
<path d="M442.705,24.9905v 61.5151" fill="none" stroke="black"/>
<text xml:space="preserve" x="476.199" y="36.6549" fill="black" font-size="13.4802" font-family="Helvetica">Cs_014</text>
<path d="M442.705,40.3693h 113.386" fill="none" stroke="black"/>
<text xml:space="preserve" x="447.69" y="52.946" fill="black" font-size="12.7186" font-family="Helvetica">Entries </text>
<text xml:space="preserve" x="512.854" y="52.946" fill="black" font-size="12.7186" font-family="Helvetica"> 14237</text>
<text xml:space="preserve" x="447.69" y="67.6079" fill="black" font-size="12.7186" font-family="Helvetica">Mean  </text>
<text xml:space="preserve" x="512.854" y="67.6079" fill="black" font-size="12.7186" font-family="Helvetica">   1768</text>
<text xml:space="preserve" x="447.69" y="83.0844" fill="black" font-size="12.7186" font-family="Helvetica">Std Dev   </text>
<text xml:space="preserve" x="512.854" y="83.0844" fill="black" font-size="12.7186" font-family="Helvetica">  549.7</text>
<text xml:space="preserve" x="253.012" y="18.7347" fill="black" font-size="18.0316" font-family="Helvetica">Cs_014</text></svg>
