<?xml version="1.0" standalone="no"?>
<svg width="567.429" height="384.68" viewBox="0 0 567.429 384.68" xmlns="http://www.w3.org/2000/svg" shape-rendering="crispEdges">
<title>
img/week1/plane_hist/Cs_007.svg
</title>
<desc>
Creator: ROOT Version 6.22/09
CreationDate: Tue Jul 13 18:36:41 2021</desc>
<defs>
</defs>
<rect x="0.5" y="0" width="566.929" height="384.18" fill="white"/>
<rect x="57.1929" y="38.418" width="453.543" height="307.344" fill="white"/>
<rect x="57.1929" y="38.418" width="453.543" height="307.344" fill="none" stroke="black"/>
<path d="M57.1929,345.762h 33.3395v -3.96182h 0.629048v -74.8084h 0.629048v -197.858h 0.629048v -16.0803h 0.629048v 109.533h 0.629048v 8.38973h 0.629048v 31.2284h 0.629048v 33.792h 0.629048v 32.8598h 0.629048v 30.7623h 0.629048v 0.932192h 0.629048v
 11.1863h 0.629048v 12.1185h 0.629048v 5.36011h 0.629048v 2.56353h 0.629048v 2.33048h 0.629048v 3.02963h 0.629048v 3.02963h 0.629048v 0.932192h 0.629048v 1.16524h 1.2581v 0.466096h 0.629048v 0.699144h 0.629048v 0.699144h 0.629048v 0.699144h 0.629048v
 0.466096h 0.629048v -0.466096h 0.629048v 0.233048h 0.629048v -1.16524h 0.629048v 1.39829h 0.629048v -0.466096h 1.2581v 0.233048h 0.629048v -0.466096h 0.629048v 0.932192h 0.629048v -1.39829h 0.629048v 1.16524h 0.629048v -0.233048h 0.629048v -1.39829h
 0.629048v 0.932192h 0.629048v 0.466096h 0.629048v 0.233048h 0.629048v 0.233048h 0.629048v -0.699144h 0.629048v 0.233048h 0.629048v -0.233048h 1.2581v -0.699144h 0.629048v -0.466096h 0.629048v 1.39829h 0.629048v -0.932192h 0.629048v 0.233048h
 0.629048v 0.233048h 0.629048v 0.233048h 0.629048v 0.233048h 0.629048v -0.699144h 0.629048v -1.16524h 0.629048v 1.63134h 0.629048v -0.466096h 0.629048v 0.932192h 0.629048v 0.233048h 0.629048v -0.466096h 0.629048v -0.233048h 0.629048v -0.233048h
 0.629048v 0.233048h 0.629048v 0.699144h 0.629048v -0.466096h 0.629048v -0.233048h 0.629048v 0.233048h 0.629048v -0.233048h 0.629048v 0.699144h 0.629048v -0.699144h 1.2581v 0.699144h 0.629048v -0.233048h 0.629048v -0.699144h 0.629048v 0.233048h
 1.2581v 0.233048h 0.629048v -0.699144h 0.629048v 0.699144h 0.629048v -0.233048h 1.2581v -0.233048h 1.2581v -0.932192h 0.629048v 1.39829h 0.629048v -0.699144h 0.629048v 0.233048h 0.629048v -0.233048h 0.629048v -0.233048h 0.629048v 0.932192h 0.629048v
 -0.233048h 0.629048v 0.466096h 0.629048v -0.699144h 0.629048v 0.233048h 0.629048v -0.466096h 0.629048v 0.466096h 0.629048v 0.466096h 0.629048v -0.233048h 1.2581v 0.466096h 0.629048v -0.932192h 0.629048v 0.466096h 0.629048v -0.466096h 1.2581v
 0.932192h 0.629048v -0.699144h 0.629048v 0.466096h 0.629048v 0.233048h 0.629048v -0.932192h 0.629048v 0.466096h 0.629048v -0.466096h 0.629048v -0.466096h 0.629048v 0.466096h 0.629048v 0.466096h 0.629048v 0.233048h 0.629048v -0.233048h 0.629048v
 -0.466096h 0.629048v 0.466096h 0.629048v 0.233048h 0.629048v -1.39829h 0.629048v 1.86438h 1.2581v -0.699144h 0.629048v 0.699144h 0.629048v -0.699144h 0.629048v -0.233048h 0.629048v 0.699144h 0.629048v -0.233048h 0.629048v -0.466096h 0.629048v
 -0.233048h 0.629048v 0.466096h 0.629048v 0.466096h 1.2581v -0.699144h 0.629048v 0.233048h 0.629048v -0.233048h 1.2581v -0.466096h 0.629048v 0.699144h 0.629048v 0.233048h 0.629048v -0.466096h 1.2581v 0.699144h 0.629048v -1.16524h 0.629048v 0.466096h
 1.88714v 0.466096h 1.2581v -0.699144h 0.629048v 0.932192h 0.629048v -0.699144h 0.629048v -0.233048h 0.629048v 0.466096h 1.2581v -0.233048h 0.629048v -0.233048h 1.2581v 0.466096h 0.629048v 0.466096h 0.629048v -1.63134h 0.629048v 0.699144h 0.629048v
 -1.16524h 0.629048v 1.63134h 0.629048v -0.699144h 1.2581v 0.466096h 0.629048v -0.699144h 0.629048v 0.932192h 0.629048v -0.699144h 0.629048v -0.932192h 0.629048v 0.466096h 0.629048v 0.699144h 1.2581v -0.466096h 0.629048v 0.699144h 0.629048v -1.39829h
 0.629048v 0.466096h 0.629048v -0.932192h 0.629048v 1.39829h 0.629048v -1.16524h 0.629048v 1.86438h 0.629048v -0.466096h 0.629048v -0.699144h 0.629048v 0.699144h 0.629048v -0.466096h 0.629048v -0.233048h 0.629048v 0.466096h 0.629048v -1.39829h
 0.629048v 1.39829h 0.629048v -0.932192h 0.629048v 0.466096h 0.629048v 0.466096h 0.629048v 0.233048h 0.629048v -1.16524h 0.629048v 0.233048h 0.629048v 0.699144h 0.629048v -1.16524h 0.629048v 1.63134h 0.629048v -0.466096h 0.629048v 0.466096h 0.629048v
 -1.39829h 0.629048v 1.16524h 0.629048v 0.466096h 0.629048v -0.932192h 0.629048v 0.466096h 0.629048v 0.233048h 0.629048v -0.233048h 0.629048v 0.466096h 0.629048v -1.16524h 0.629048v 0.932192h 1.2581v -0.932192h 0.629048v 0.233048h 0.629048v 0.932192h
 0.629048v -1.39829h 0.629048v 0.932192h 0.629048v 0.233048h 0.629048v -0.233048h 0.629048v -0.233048h 0.629048v 0.699144h 0.629048v -1.16524h 0.629048v 1.16524h 0.629048v 0.699144h 0.629048v -0.466096h 0.629048v -1.63134h 0.629048v 0.466096h
 0.629048v 0.932192h 0.629048v -0.466096h 0.629048v -0.233048h 0.629048v 0.233048h 0.629048v 0.466096h 0.629048v -1.39829h 0.629048v 1.63134h 0.629048v -0.233048h 0.629048v -0.699144h 0.629048v 0.932192h 1.2581v -0.932192h 0.629048v 1.16524h
 0.629048v -0.466096h 0.629048v -0.233048h 0.629048v -0.233048h 0.629048v 0.233048h 1.2581v -0.233048h 0.629048v 0.466096h 0.629048v -0.233048h 0.629048v 0.233048h 0.629048v -1.16524h 0.629048v 1.39829h 0.629048v -1.16524h 1.2581v 0.699144h 1.2581v
 0.466096h 0.629048v -0.932192h 0.629048v 0.233048h 0.629048v 0.699144h 0.629048v -0.699144h 0.629048v -0.233048h 1.88714v -1.16524h 0.629048v 0.233048h 0.629048v -1.39829h 0.629048v 1.86438h 0.629048v -0.233048h 0.629048v 1.16524h 0.629048v
 -0.233048h 0.629048v -1.16524h 0.629048v -0.699144h 0.629048v -0.233048h 0.629048v -0.699144h 0.629048v 1.63134h 0.629048v -1.16524h 0.629048v 1.39829h 0.629048v -0.932192h 0.629048v 1.39829h 0.629048v -0.466096h 0.629048v -2.79658h 0.629048v
 0.233048h 0.629048v 0.699144h 0.629048v -0.233048h 0.629048v 0.233048h 0.629048v -2.09743h 0.629048v 1.39829h 0.629048v 0.466096h 0.629048v 0.233048h 0.629048v -1.86438h 0.629048v -0.233048h 0.629048v 0.466096h 0.629048v 1.63134h 0.629048v
 -0.699144h 0.629048v -2.56353h 0.629048v 1.16524h 0.629048v 2.79658h 0.629048v -0.466096h 0.629048v -1.39829h 0.629048v -1.63134h 0.629048v 2.33048h 0.629048v -0.699144h 0.629048v 0.466096h 0.629048v -0.699144h 0.629048v 1.16524h 1.88714v -1.39829h
 0.629048v 1.39829h 0.629048v 0.932192h 0.629048v 0.932192h 1.2581v -1.39829h 1.2581v -0.233048h 0.629048v 0.466096h 0.629048v 0.466096h 1.2581v 1.63134h 0.629048v -1.39829h 1.2581v 0.466096h 0.629048v 0.699144h 0.629048v -2.09743h 0.629048v 1.63134h
 0.629048v 0.699144h 1.2581v 0.466096h 0.629048v -1.16524h 0.629048v 1.39829h 0.629048v -1.39829h 0.629048v 0.699144h 0.629048v 0.466096h 0.629048v 0.233048h 0.629048v -0.932192h 0.629048v -0.466096h 0.629048v 0.699144h 0.629048v 0.932192h 0.629048v
 -0.466096h 1.2581v -0.233048h 0.629048v -0.699144h 0.629048v 0.466096h 0.629048v 0.233048h 0.629048v -0.932192h 0.629048v 0.466096h 0.629048v -1.39829h 0.629048v 2.33048h 0.629048v -1.39829h 0.629048v -0.932192h 0.629048v 0.466096h 0.629048v
 0.233048h 0.629048v 0.932192h 0.629048v -0.466096h 0.629048v 0.233048h 1.2581v 0.233048h 0.629048v -0.233048h 0.629048v 1.16524h 0.629048v -0.233048h 0.629048v -1.86438h 0.629048v 0.699144h 0.629048v 0.932192h 1.88714v 0.233048h 1.88714v 0.466096h
 0.629048v -0.466096h 1.2581v -0.233048h 0.629048v 0.233048h 0.629048v 0.233048h 0.629048v 0.233048h 0.629048v -0.699144h 0.629048v 0.233048h 0.629048v 0.233048h 1.88714v 0.233048h 1.2581v -0.466096h 0.629048v 0.699144h 0.629048v -0.699144h 0.629048v
 0.699144h 0.629048v -0.466096h 0.629048v -0.233048h 0.629048v 0.699144h 1.2581v -0.699144h 0.629048v 0.699144h 0.629048v -0.932192h 0.629048v 0.932192h 0.629048v -0.699144h 0.629048v 0.699144h 0.629048v -0.466096h 0.629048v -0.233048h 0.629048v
 0.233048h 0.629048v 0.233048h 1.2581v -0.233048h 0.629048v 0.233048h 0.629048v -0.466096h 0.629048v 0.466096h 1.2581v -0.466096h 0.629048v 0.699144h 0.629048v -0.466096h 1.88714v -0.233048h 0.629048v 0.466096h 0.629048v -0.699144h 0.629048v
 0.932192h 0.629048v -0.466096h 0.629048v 0.466096h 0.629048v -0.233048h 1.2581v -0.466096h 0.629048v 0.466096h 3.77429v -0.233048h 1.2581v 0.233048h 0.629048v -0.932192h 0.629048v 1.16524h 0.629048v -0.699144h 0.629048v 0.466096h 1.2581v -0.233048h
 0.629048v 0.233048h 0.629048v -0.233048h 0.629048v 0.466096h 1.2581v -0.233048h 0.629048v -0.233048h 0.629048v -0.233048h 0.629048v -0.233048h 0.629048v 0.699144h 0.629048v -0.233048h 0.629048v -0.466096h 0.629048v 0.699144h 0.629048v 0.233048h
 0.629048v -0.466096h 1.2581v 0.466096h 0.629048v -0.466096h 0.629048v 0.466096h 0.629048v -0.233048h 0.629048v -0.233048h 1.2581v 0.466096h 0.629048v -0.466096h 0.629048v -0.466096h 0.629048v 0.699144h 0.629048v 0.233048h 0.629048v -0.233048h
 0.629048v -0.466096h 0.629048v 0.699144h 0.629048v -0.233048h 0.629048v -0.233048h 0.629048v 0.233048h 1.88714v -0.233048h 0.629048v 0.233048h 0.629048v -0.233048h 0.629048v 0.233048h 1.88714v 0.233048h 0.629048v -0.233048h 1.88714v -0.466096h
 1.2581v -0.233048h 0.629048v 0.466096h 0.629048v 0.466096h 1.2581v -0.466096h 0.629048v 0.233048h 0.629048v -0.233048h 0.629048v 0.466096h 0.629048v -0.699144h 1.2581v 0.699144h 0.629048v -0.466096h 0.629048v -0.233048h 0.629048v 0.699144h 0.629048v
 -0.699144h 1.88714v -0.932192h 0.629048v 1.63134h 0.629048v -0.466096h 0.629048v -0.233048h 0.629048v 0.466096h 1.88714v -0.466096h 0.629048v 0.466096h 0.629048v 0.233048h 1.2581v -0.466096h 0.629048v 0.233048h 0.629048v -0.233048h 0.629048v
 0.233048h 0.629048v -0.233048h 1.2581v -0.466096h 0.629048v 0.233048h 0.629048v 0.233048h 0.629048v 0.233048h 0.629048v -0.466096h 0.629048v 0.699144h 1.88714v -0.233048h 1.88714v 0.233048h 0.629048v -0.699144h 0.629048v 0.233048h 0.629048v
 0.466096h 1.88714v -0.233048h 0.629048v 0.233048h 0.629048v -0.466096h 1.88714v 0.466096h 0.629048v -0.932192h 0.629048v 0.699144h 1.2581v 0.233048h 0.629048v -0.233048h 0.629048v -0.233048h 0.629048v 0.233048h 0.629048v 0.233048h 0.629048v
 -0.466096h 0.629048v 0.233048h 0.629048v -0.699144h 0.629048v 0.466096h 1.2581v -0.233048h 0.629048v 0.233048h 0.629048v 0.233048h 0.629048v 0.233048h 0.629048v -0.233048h 1.2581v -0.233048h 0.629048v -0.699144h 0.629048v 0.932192h 0.629048v
 -0.233048h 0.629048v -0.233048h 0.629048v 0.233048h 1.2581v 0.233048h 0.629048v -0.233048h 0.629048v 0.466096h 1.2581v -0.233048h 0.629048v 0.233048h 0.629048v -0.466096h 0.629048v 0.233048h 0.629048v -0.699144h 0.629048v 0.233048h 0.629048v
 0.699144h 0.629048v -0.233048h 1.2581v -0.233048h 0.629048v 0.466096h 0.629048v -0.466096h 0.629048v 0.233048h 0.629048v 0.233048h 0.629048v -0.233048h 0.629048v 0.233048h 0.629048v -0.233048h 1.2581v -0.699144h 0.629048v 0.466096h 1.88714v
 0.466096h 0.629048v -0.699144h 0.629048v 0.466096h 1.88714v -0.466096h 0.629048v 0.466096h 1.2581v -0.466096h 0.629048v 0.699144h 1.2581v -0.699144h 0.629048v -0.466096h 0.629048v 1.16524h 0.629048v -0.233048h 1.2581v -0.466096h 0.629048v 0.233048h
 0.629048v -0.233048h 0.629048v 0.233048h 0.629048v 0.233048h 0.629048v -0.466096h 0.629048v 0.466096h 0.629048v -0.233048h 0.629048v 0.466096h 0.629048v -0.466096h 0.629048v 0.466096h 0.629048v -0.233048h 0.629048v 0.233048h 1.88714v -0.932192h
 0.629048v 0.466096h 0.629048v 0.233048h 0.629048v -0.466096h 0.629048v -5.8262h 0.629048v -47.3088h 0.629048v -33.0928h 0.629048v 34.2581h 0.629048v -11.1863h 0.629048v 8.85583h 0.629048v 19.576h 0.629048v 19.343h 1.2581v -6.52535h 0.629048v
 10.0211h 0.629048v 1.63134h 0.629048v -2.56353h 0.629048v 3.96182h 0.629048v -0.233048h 0.629048v -2.79658h 0.629048v 2.56353h 0.629048v 2.79658h 0.629048v -3.72877h 0.629048v -1.16524h 0.629048v 2.79658h 0.629048v -0.466096h 1.2581v 0.932192h
 1.2581v 1.39829h 0.629048v 0.932192h 0.629048v -3.02963h 0.629048v -1.16524h 0.629048v 1.86438h 0.629048v 4.42791h 0.629048v -2.79658h 0.629048v -1.63134h 0.629048v 3.49572h 0.629048v -0.699144h 0.629048v -1.16524h 0.629048v 3.49572h 0.629048v
 0.932192h 1.2581v 1.63134h 0.629048v 0.699144h 0.629048" fill="none" stroke="#000099"/>
<path d="M57.1929,345.762h 453.543" fill="none" stroke="black"/>
<path d="M57.822,336.541v 9.22031" fill="none" stroke="black"/>
<path d="M78.7902,341.152v 4.61016" fill="none" stroke="black"/>
<path d="M99.7585,341.152v 4.61016" fill="none" stroke="black"/>
<path d="M120.727,341.152v 4.61016" fill="none" stroke="black"/>
<path d="M141.695,341.152v 4.61016" fill="none" stroke="black"/>
<path d="M162.663,336.541v 9.22031" fill="none" stroke="black"/>
<path d="M183.631,341.152v 4.61016" fill="none" stroke="black"/>
<path d="M204.6,341.152v 4.61016" fill="none" stroke="black"/>
<path d="M225.568,341.152v 4.61016" fill="none" stroke="black"/>
<path d="M246.536,341.152v 4.61016" fill="none" stroke="black"/>
<path d="M267.504,336.541v 9.22031" fill="none" stroke="black"/>
<path d="M288.473,341.152v 4.61016" fill="none" stroke="black"/>
<path d="M309.441,341.152v 4.61016" fill="none" stroke="black"/>
<path d="M330.409,341.152v 4.61016" fill="none" stroke="black"/>
<path d="M351.378,341.152v 4.61016" fill="none" stroke="black"/>
<path d="M372.346,336.541v 9.22031" fill="none" stroke="black"/>
<path d="M393.314,341.152v 4.61016" fill="none" stroke="black"/>
<path d="M414.282,341.152v 4.61016" fill="none" stroke="black"/>
<path d="M435.251,341.152v 4.61016" fill="none" stroke="black"/>
<path d="M456.219,341.152v 4.61016" fill="none" stroke="black"/>
<path d="M477.187,336.541v 9.22031" fill="none" stroke="black"/>
<path d="M57.822,336.541v 9.22031" fill="none" stroke="black"/>
<path d="M477.187,336.541v 9.22031" fill="none" stroke="black"/>
<path d="M498.155,341.152v 4.61016" fill="none" stroke="black"/>
<text xml:space="preserve" x="54.1065" y="358.189" fill="black" font-size="12.836" font-family="Helvetica">0</text>
<text xml:space="preserve" x="151.573" y="358.189" fill="black" font-size="12.836" font-family="Helvetica">500</text>
<text xml:space="preserve" x="253.1" y="358.189" fill="black" font-size="12.836" font-family="Helvetica">1000</text>
<text xml:space="preserve" x="357.877" y="358.189" fill="black" font-size="12.836" font-family="Helvetica">1500</text>
<text xml:space="preserve" x="462.653" y="358.189" fill="black" font-size="12.836" font-family="Helvetica">2000</text>
<text xml:space="preserve" x="452.094" y="371.996" fill="black" font-size="12.836" font-family="Helvetica">ADC value</text>
<path d="M57.1929,345.762v -307.344" fill="none" stroke="black"/>
<path d="M70.7992,345.762h -13.6063" fill="none" stroke="black"/>
<path d="M63.9961,334.109h -6.80315" fill="none" stroke="black"/>
<path d="M63.9961,322.457h -6.80315" fill="none" stroke="black"/>
<path d="M63.9961,310.805h -6.80315" fill="none" stroke="black"/>
<path d="M70.7992,299.152h -13.6063" fill="none" stroke="black"/>
<path d="M63.9961,287.5h -6.80315" fill="none" stroke="black"/>
<path d="M63.9961,275.847h -6.80315" fill="none" stroke="black"/>
<path d="M63.9961,264.195h -6.80315" fill="none" stroke="black"/>
<path d="M70.7992,252.543h -13.6063" fill="none" stroke="black"/>
<path d="M63.9961,240.89h -6.80315" fill="none" stroke="black"/>
<path d="M63.9961,229.238h -6.80315" fill="none" stroke="black"/>
<path d="M63.9961,217.585h -6.80315" fill="none" stroke="black"/>
<path d="M70.7992,205.933h -13.6063" fill="none" stroke="black"/>
<path d="M63.9961,194.281h -6.80315" fill="none" stroke="black"/>
<path d="M63.9961,182.628h -6.80315" fill="none" stroke="black"/>
<path d="M63.9961,170.976h -6.80315" fill="none" stroke="black"/>
<path d="M70.7992,159.323h -13.6063" fill="none" stroke="black"/>
<path d="M63.9961,147.671h -6.80315" fill="none" stroke="black"/>
<path d="M63.9961,136.019h -6.80315" fill="none" stroke="black"/>
<path d="M63.9961,124.366h -6.80315" fill="none" stroke="black"/>
<path d="M70.7992,112.714h -13.6063" fill="none" stroke="black"/>
<path d="M63.9961,101.061h -6.80315" fill="none" stroke="black"/>
<path d="M63.9961,89.4089h -6.80315" fill="none" stroke="black"/>
<path d="M63.9961,77.7565h -6.80315" fill="none" stroke="black"/>
<path d="M70.7992,66.1041h -13.6063" fill="none" stroke="black"/>
<path d="M70.7992,66.1041h -13.6063" fill="none" stroke="black"/>
<path d="M63.9961,54.4517h -6.80315" fill="none" stroke="black"/>
<path d="M63.9961,42.7993h -6.80315" fill="none" stroke="black"/>
<text xml:space="preserve" x="47.6087" y="350.067" fill="black" font-size="12.836" font-family="Helvetica">0</text>
<text xml:space="preserve" x="33.801" y="303.77" fill="black" font-size="12.836" font-family="Helvetica">200</text>
<text xml:space="preserve" x="33.801" y="256.661" fill="black" font-size="12.836" font-family="Helvetica">400</text>
<text xml:space="preserve" x="33.801" y="210.365" fill="black" font-size="12.836" font-family="Helvetica">600</text>
<text xml:space="preserve" x="33.801" y="164.068" fill="black" font-size="12.836" font-family="Helvetica">800</text>
<text xml:space="preserve" x="27.3032" y="116.96" fill="black" font-size="12.836" font-family="Helvetica">1000</text>
<text xml:space="preserve" x="27.3032" y="70.6631" fill="black" font-size="12.836" font-family="Helvetica">1200</text>
<g transform="rotate(-90,14.3077,69.8509)">
<text xml:space="preserve" x="14.3077" y="69.8509" fill="black" font-size="12.836" font-family="Helvetica">Event</text>
</g>
<text xml:space="preserve" x="253.1" y="18.681" fill="black" font-size="17.9813" font-family="Helvetica">Cs_007</text>
<rect x="442.705" y="24.9717" width="113.386" height="61.4688" fill="white"/>
<path d="M442.705,86.4405h 113.386" fill="none" stroke="black"/>
<path d="M556.091,86.4405v -61.4688" fill="none" stroke="black"/>
<path d="M556.091,24.9717h -113.386" fill="none" stroke="black"/>
<path d="M442.705,24.9717v 61.4688" fill="none" stroke="black"/>
<text xml:space="preserve" x="476.461" y="36.5499" fill="black" font-size="13.4705" font-family="Helvetica">Cs_007</text>
<path d="M442.705,40.3389h 113.386" fill="none" stroke="black"/>
<text xml:space="preserve" x="448.033" y="52.7943" fill="black" font-size="12.7411" font-family="Helvetica">Entries </text>
<text xml:space="preserve" x="513.01" y="52.7943" fill="black" font-size="12.7411" font-family="Helvetica"> 12279</text>
<text xml:space="preserve" x="448.033" y="68.2264" fill="black" font-size="12.7411" font-family="Helvetica">Mean  </text>
<text xml:space="preserve" x="517.072" y="68.2264" fill="black" font-size="12.7411" font-family="Helvetica">    789</text>
<text xml:space="preserve" x="448.033" y="82.8464" fill="black" font-size="12.7411" font-family="Helvetica">Std Dev   </text>
<text xml:space="preserve" x="513.01" y="82.8464" fill="black" font-size="12.7411" font-family="Helvetica">  791.5</text>
<text xml:space="preserve" x="253.1" y="18.681" fill="black" font-size="17.9813" font-family="Helvetica">Cs_007</text></svg>
