<?xml version="1.0" standalone="no"?>
<svg width="567.429" height="384.969" viewBox="0 0 567.429 384.969" xmlns="http://www.w3.org/2000/svg" shape-rendering="crispEdges">
<title>
img/week1/plane_hist/Cs_009.svg
</title>
<desc>
Creator: ROOT Version 6.22/09
CreationDate: Sun Jul 11 17:58:03 2021</desc>
<defs>
</defs>
<rect x="0.5" y="0" width="566.929" height="384.469" fill="white"/>
<rect x="57.1929" y="38.4469" width="453.543" height="307.575" fill="white"/>
<rect x="57.1929" y="38.4469" width="453.543" height="307.575" fill="none" stroke="black"/>
<path d="M57.1929,346.022h 46.485v -6.23253h 0.628176v -89.7484h 0.628176v -83.5159h 0.628176v -11.2186h 0.628176v 79.7764h 0.628176v 27.4231h 0.628176v -2.49301h 0.628176v 2.49301h 0.628176v 18.6976h 0.628176v 27.4231h 0.628176v 19.9441h 0.628176v
 -9.97205h 0.628176v 4.98602h 0.628176v 11.2186h 0.628176v 3.73952h 0.628176v -4.98602h 0.628176v 4.98602h 0.628176v -2.49301h 0.628176v 4.98602h 0.628176v -2.49301h 0.628176v -2.49301h 0.628176v -2.49301h 0.628176v 7.47904h 0.628176v 1.24651h
 0.628176v -4.98602h 0.628176v 3.73952h 2.51271v 1.24651h 0.628176v 1.24651h 0.628176v -1.24651h 0.628176v 2.49301h 1.25635v -4.98602h 0.628176v -1.24651h 0.628176v 3.73952h 0.628176v 1.24651h 1.25635v -1.24651h 0.628176v 2.49301h 0.628176v 1.24651h
 0.628176v -3.73952h 0.628176v -4.98602h 0.628176v 3.73952h 1.25635v 3.73952h 1.25635v -8.72554h 0.628176v 8.72554h 0.628176v -1.24651h 0.628176v -2.49301h 0.628176v 1.24651h 0.628176v 1.24651h 1.25635v -1.24651h 0.628176v 3.73952h 0.628176v
 -4.98602h 0.628176v -2.49301h 0.628176v 3.73952h 0.628176v 1.24651h 0.628176v 1.24651h 0.628176v -1.24651h 1.88453v -1.24651h 0.628176v 1.24651h 0.628176v -1.24651h 0.628176v 1.24651h 0.628176v 1.24651h 0.628176v -6.23253h 0.628176v 1.24651h
 0.628176v 3.73952h 0.628176v 1.24651h 0.628176v -1.24651h 0.628176v -2.49301h 0.628176v 2.49301h 0.628176v 1.24651h 0.628176v -2.49301h 0.628176v -1.24651h 0.628176v -1.24651h 0.628176v 4.98602h 0.628176v -2.49301h 0.628176v 2.49301h 0.628176v
 -2.49301h 0.628176v -3.73952h 0.628176v 4.98602h 0.628176v 1.24651h 1.25635v -1.24651h 0.628176v 2.49301h 0.628176v -6.23253h 0.628176v 4.98602h 0.628176v -3.73952h 0.628176v 1.24651h 0.628176v 2.49301h 0.628176v -1.24651h 0.628176v 2.49301h
 0.628176v -2.49301h 0.628176v -2.49301h 0.628176v 2.49301h 0.628176v 1.24651h 0.628176v 1.24651h 0.628176v -2.49301h 0.628176v -2.49301h 0.628176v 2.49301h 0.628176v 2.49301h 0.628176v -6.23253h 0.628176v 2.49301h 0.628176v 1.24651h 0.628176v
 2.49301h 0.628176v -1.24651h 0.628176v -1.24651h 1.25635v -1.24651h 0.628176v 2.49301h 0.628176v -1.24651h 0.628176v -1.24651h 0.628176v 3.73952h 0.628176v -2.49301h 1.25635v -2.49301h 0.628176v 2.49301h 0.628176v 1.24651h 2.51271v -2.49301h
 0.628176v -1.24651h 0.628176v 1.24651h 0.628176v 1.24651h 1.25635v 2.49301h 0.628176v -2.49301h 0.628176v 1.24651h 0.628176v -2.49301h 0.628176v 1.24651h 0.628176v 1.24651h 0.628176v -1.24651h 0.628176v -1.24651h 0.628176v 1.24651h 1.25635v
 -2.49301h 0.628176v 4.98602h 0.628176v -1.24651h 0.628176v -1.24651h 1.25635v -3.73952h 0.628176v 4.98602h 0.628176v -2.49301h 1.25635v 2.49301h 0.628176v -1.24651h 1.25635v -1.24651h 0.628176v 2.49301h 0.628176v -1.24651h 1.25635v -2.49301h
 0.628176v 4.98602h 0.628176v -6.23253h 0.628176v 2.49301h 0.628176v -1.24651h 0.628176v 3.73952h 0.628176v 1.24651h 0.628176v -3.73952h 0.628176v 3.73952h 0.628176v -2.49301h 0.628176v 1.24651h 1.25635v -1.24651h 0.628176v -1.24651h 0.628176v
 1.24651h 1.88453v 2.49301h 0.628176v -2.49301h 0.628176v -1.24651h 0.628176v -1.24651h 0.628176v 2.49301h 0.628176v 2.49301h 0.628176v -1.24651h 1.88453v -2.49301h 0.628176v 1.24651h 0.628176v -1.24651h 0.628176v 2.49301h 0.628176v -3.73952h
 0.628176v 2.49301h 0.628176v 1.24651h 0.628176v -3.73952h 1.25635v 3.73952h 0.628176v -1.24651h 0.628176v 1.24651h 0.628176v 1.24651h 0.628176v -3.73952h 0.628176v 1.24651h 0.628176v 1.24651h 0.628176v -2.49301h 0.628176v 1.24651h 0.628176v
 -2.49301h 1.25635v 4.98602h 1.25635v -2.49301h 0.628176v 1.24651h 1.25635v -4.98602h 0.628176v 2.49301h 0.628176v 2.49301h 0.628176v -4.98602h 0.628176v 2.49301h 0.628176v 3.73952h 0.628176v -1.24651h 0.628176v -2.49301h 0.628176v 2.49301h 0.628176v
 -1.24651h 0.628176v 2.49301h 0.628176v -3.73952h 0.628176v -2.49301h 0.628176v -1.24651h 1.25635v 4.98602h 0.628176v -2.49301h 0.628176v 1.24651h 1.88453v -2.49301h 0.628176v 1.24651h 0.628176v -2.49301h 0.628176v 2.49301h 0.628176v 2.49301h
 1.25635v -7.47904h 0.628176v 4.98602h 0.628176v -3.73952h 0.628176v 2.49301h 0.628176v -2.49301h 0.628176v 1.24651h 1.88453v -2.49301h 0.628176v 4.98602h 0.628176v -2.49301h 0.628176v 2.49301h 0.628176v 1.24651h 0.628176v 1.24651h 0.628176v
 -4.98602h 0.628176v 2.49301h 0.628176v -6.23253h 0.628176v 4.98602h 0.628176v 3.73952h 0.628176v -2.49301h 0.628176v 2.49301h 1.25635v -1.24651h 1.25635v -3.73952h 1.25635v 3.73952h 0.628176v 2.49301h 0.628176v -6.23253h 0.628176v 3.73952h 0.628176v
 -3.73952h 0.628176v 4.98602h 0.628176v -2.49301h 0.628176v -1.24651h 0.628176v 1.24651h 0.628176v 1.24651h 0.628176v -1.24651h 0.628176v 2.49301h 1.25635v -2.49301h 0.628176v 2.49301h 0.628176v -1.24651h 0.628176v -1.24651h 0.628176v 2.49301h
 1.25635v -2.49301h 0.628176v 4.98602h 0.628176v -1.24651h 0.628176v -4.98602h 0.628176v 2.49301h 0.628176v 1.24651h 0.628176v 1.24651h 1.25635v -1.24651h 0.628176v 1.24651h 1.25635v -2.49301h 0.628176v -1.24651h 0.628176v 1.24651h 0.628176v
 -1.24651h 0.628176v 2.49301h 1.25635v 1.24651h 0.628176v -2.49301h 0.628176v 2.49301h 0.628176v -1.24651h 1.25635v -1.24651h 0.628176v 3.73952h 0.628176v -3.73952h 0.628176v 1.24651h 0.628176v -1.24651h 0.628176v 2.49301h 1.25635v 1.24651h 0.628176v
 -2.49301h 0.628176v 2.49301h 0.628176v -1.24651h 0.628176v -8.72554h 0.628176v 8.72554h 0.628176v -4.98602h 0.628176v 3.73952h 0.628176v 1.24651h 0.628176v -1.24651h 0.628176v 1.24651h 1.88453v -2.49301h 0.628176v 1.24651h 0.628176v -1.24651h
 0.628176v 2.49301h 0.628176v -1.24651h 0.628176v -1.24651h 0.628176v -1.24651h 0.628176v 3.73952h 0.628176v -6.23253h 0.628176v 1.24651h 0.628176v 3.73952h 0.628176v 1.24651h 0.628176v -4.98602h 0.628176v 1.24651h 0.628176v 1.24651h 0.628176v
 1.24651h 0.628176v -3.73952h 0.628176v -3.73952h 0.628176v 7.47904h 1.25635v -4.98602h 0.628176v 7.47904h 0.628176v -4.98602h 0.628176v 1.24651h 1.25635v -6.23253h 0.628176v 6.23253h 1.25635v -2.49301h 0.628176v 1.24651h 0.628176v 1.24651h 0.628176v
 -7.47904h 0.628176v 3.73952h 0.628176v 1.24651h 0.628176v -1.24651h 0.628176v 2.49301h 0.628176v -6.23253h 0.628176v -2.49301h 0.628176v 4.98602h 0.628176v -7.47904h 0.628176v 3.73952h 0.628176v -4.98602h 0.628176v 3.73952h 0.628176v -1.24651h
 0.628176v -2.49301h 0.628176v 12.4651h 0.628176v -4.98602h 1.25635v -12.4651h 0.628176v 1.24651h 0.628176v 9.97205h 1.25635v -3.73952h 0.628176v -6.23253h 0.628176v 4.98602h 0.628176v -7.47904h 0.628176v 9.97205h 0.628176v 1.24651h 0.628176v
 -11.2186h 0.628176v 6.23253h 0.628176v -1.24651h 0.628176v -7.47904h 0.628176v 7.47904h 0.628176v -6.23253h 0.628176v 8.72554h 0.628176v 8.72554h 0.628176v -16.2046h 0.628176v 9.97205h 0.628176v 1.24651h 1.88453v 1.24651h 0.628176v 1.24651h
 0.628176v -3.73952h 0.628176v 4.98602h 0.628176v -6.23253h 0.628176v -2.49301h 0.628176v 7.47904h 0.628176v -1.24651h 0.628176v -8.72554h 0.628176v 11.2186h 0.628176v -1.24651h 1.25635v 2.49301h 0.628176v -4.98602h 0.628176v 4.98602h 0.628176v
 -6.23253h 0.628176v 4.98602h 0.628176v 3.73952h 0.628176v -1.24651h 0.628176v 2.49301h 0.628176v -4.98602h 0.628176v 2.49301h 0.628176v -2.49301h 0.628176v 1.24651h 0.628176v 1.24651h 0.628176v -1.24651h 0.628176v 4.98602h 0.628176v -1.24651h
 0.628176v -1.24651h 0.628176v -3.73952h 0.628176v 3.73952h 0.628176v -1.24651h 0.628176v 4.98602h 0.628176v -2.49301h 0.628176v 2.49301h 0.628176v -2.49301h 0.628176v 2.49301h 0.628176v -2.49301h 0.628176v -4.98602h 0.628176v 6.23253h 0.628176v
 -1.24651h 0.628176v 1.24651h 0.628176v -1.24651h 0.628176v -1.24651h 0.628176v 2.49301h 1.25635v -2.49301h 1.25635v 2.49301h 0.628176v -4.98602h 0.628176v 4.98602h 0.628176v -1.24651h 0.628176v 2.49301h 1.25635v -6.23253h 0.628176v 1.24651h
 0.628176v 1.24651h 0.628176v 3.73952h 0.628176v -4.98602h 0.628176v 3.73952h 0.628176v 1.24651h 0.628176v -2.49301h 0.628176v 1.24651h 1.25635v -4.98602h 0.628176v 2.49301h 0.628176v -2.49301h 0.628176v 2.49301h 0.628176v 1.24651h 0.628176v 2.49301h
 0.628176v -1.24651h 0.628176v -3.73952h 0.628176v 3.73952h 0.628176v -1.24651h 0.628176v -1.24651h 1.25635v 3.73952h 0.628176v -6.23253h 0.628176v 6.23253h 0.628176v -1.24651h 3.14088v -1.24651h 0.628176v 2.49301h 2.51271v -1.24651h 0.628176v
 -1.24651h 0.628176v -1.24651h 0.628176v 3.73952h 1.25635v -1.24651h 0.628176v 2.49301h 1.25635v -1.24651h 0.628176v -1.24651h 0.628176v 2.49301h 0.628176v -1.24651h 0.628176v 1.24651h 0.628176v -2.49301h 0.628176v 1.24651h 0.628176v 1.24651h
 0.628176v -1.24651h 0.628176v -2.49301h 0.628176v 2.49301h 0.628176v 1.24651h 1.25635v -1.24651h 0.628176v 1.24651h 1.88453v -2.49301h 0.628176v -1.24651h 0.628176v 1.24651h 0.628176v 1.24651h 0.628176v -1.24651h 0.628176v 1.24651h 1.25635v
 -1.24651h 0.628176v 2.49301h 0.628176v -1.24651h 1.25635v -1.24651h 1.88453v 1.24651h 0.628176v -1.24651h 0.628176v 1.24651h 1.88453v 1.24651h 0.628176v -1.24651h 0.628176v 1.24651h 0.628176v -1.24651h 0.628176v 1.24651h 0.628176v -2.49301h
 0.628176v 1.24651h 0.628176v 1.24651h 1.25635v -1.24651h 0.628176v 1.24651h 0.628176v -1.24651h 0.628176v -1.24651h 0.628176v 2.49301h 1.25635v -2.49301h 0.628176v 1.24651h 1.88453v 1.24651h 1.25635v -1.24651h 0.628176v -1.24651h 0.628176v -1.24651h
 0.628176v 2.49301h 0.628176v -1.24651h 0.628176v 1.24651h 1.25635v 1.24651h 0.628176v -2.49301h 0.628176v 1.24651h 0.628176v 1.24651h 1.88453v -2.49301h 0.628176v 2.49301h 0.628176v -2.49301h 0.628176v 2.49301h 1.25635v -1.24651h 0.628176v -1.24651h
 0.628176v 2.49301h 0.628176v -2.49301h 0.628176v 2.49301h 1.25635v -1.24651h 0.628176v 1.24651h 1.88453v -1.24651h 0.628176v 1.24651h 0.628176v -2.49301h 0.628176v 2.49301h 0.628176v -1.24651h 0.628176v 1.24651h 0.628176v -1.24651h 0.628176v
 1.24651h 0.628176v -2.49301h 0.628176v 1.24651h 0.628176v 1.24651h 0.628176v -1.24651h 0.628176v 1.24651h 0.628176v -1.24651h 1.88453v 1.24651h 0.628176v -1.24651h 0.628176v 1.24651h 2.51271v -2.49301h 0.628176v 1.24651h 1.25635v -2.49301h 0.628176v
 3.73952h 1.25635v -1.24651h 1.25635v -66.0648h 0.628176v -209.413h 0.628176v -16.2046h 0.628176v 77.2834h 0.628176v -27.4231h 0.628176v 28.6696h 0.628176v 76.0369h 0.628176v 58.5858h 0.628176v 17.4511h 0.628176v -3.73952h 0.628176v 6.23253h
 0.628176v 9.97205h 1.25635v -4.98602h 0.628176v 7.47904h 0.628176v -4.98602h 0.628176v 11.2186h 0.628176v -1.24651h 0.628176v 1.24651h 0.628176v 2.49301h 0.628176v -7.47904h 0.628176v 22.4371h 0.628176v -28.6696h 0.628176v 9.97205h 0.628176v
 1.24651h 0.628176v 4.98602h 0.628176v -7.47904h 0.628176v 7.47904h 0.628176v 6.23253h 0.628176v -6.23253h 0.628176v -4.98602h 0.628176v -2.49301h 0.628176v 19.9441h 0.628176v -18.6976h 0.628176v 14.9581h 0.628176v -3.73952h 0.628176v -6.23253h
 0.628176v 4.98602h 0.628176v 9.97205h 0.628176v 2.49301h 0.628176v 8.72554h 0.628176v 2.49301h 0.628176v 6.23253h 0.628176" fill="none" stroke="#000099"/>
<path d="M57.1929,346.022h 453.543" fill="none" stroke="black"/>
<path d="M57.8211,336.795v 9.22726" fill="none" stroke="black"/>
<path d="M78.7603,341.409v 4.61363" fill="none" stroke="black"/>
<path d="M99.6995,341.409v 4.61363" fill="none" stroke="black"/>
<path d="M120.639,341.409v 4.61363" fill="none" stroke="black"/>
<path d="M141.578,341.409v 4.61363" fill="none" stroke="black"/>
<path d="M162.517,336.795v 9.22726" fill="none" stroke="black"/>
<path d="M183.456,341.409v 4.61363" fill="none" stroke="black"/>
<path d="M204.396,341.409v 4.61363" fill="none" stroke="black"/>
<path d="M225.335,341.409v 4.61363" fill="none" stroke="black"/>
<path d="M246.274,341.409v 4.61363" fill="none" stroke="black"/>
<path d="M267.213,336.795v 9.22726" fill="none" stroke="black"/>
<path d="M288.152,341.409v 4.61363" fill="none" stroke="black"/>
<path d="M309.092,341.409v 4.61363" fill="none" stroke="black"/>
<path d="M330.031,341.409v 4.61363" fill="none" stroke="black"/>
<path d="M350.97,341.409v 4.61363" fill="none" stroke="black"/>
<path d="M371.909,336.795v 9.22726" fill="none" stroke="black"/>
<path d="M392.848,341.409v 4.61363" fill="none" stroke="black"/>
<path d="M413.788,341.409v 4.61363" fill="none" stroke="black"/>
<path d="M434.727,341.409v 4.61363" fill="none" stroke="black"/>
<path d="M455.666,341.409v 4.61363" fill="none" stroke="black"/>
<path d="M476.605,336.795v 9.22726" fill="none" stroke="black"/>
<path d="M57.8211,336.795v 9.22726" fill="none" stroke="black"/>
<path d="M476.605,336.795v 9.22726" fill="none" stroke="black"/>
<path d="M497.545,341.409v 4.61363" fill="none" stroke="black"/>
<text xml:space="preserve" x="54.2605" y="358.403" fill="black" font-size="12.8453" font-family="Helvetica">0</text>
<text xml:space="preserve" x="151.192" y="358.403" fill="black" font-size="12.8453" font-family="Helvetica">500</text>
<text xml:space="preserve" x="253.012" y="358.403" fill="black" font-size="12.8453" font-family="Helvetica">1000</text>
<text xml:space="preserve" x="357.274" y="358.403" fill="black" font-size="12.8453" font-family="Helvetica">1500</text>
<text xml:space="preserve" x="462.352" y="358.403" fill="black" font-size="12.8453" font-family="Helvetica">2000</text>
<text xml:space="preserve" x="451.763" y="372.251" fill="black" font-size="12.8453" font-family="Helvetica">ADC value</text>
<path d="M57.1929,346.022v -307.575" fill="none" stroke="black"/>
<path d="M70.7992,346.022h -13.6063" fill="none" stroke="black"/>
<path d="M63.9961,339.79h -6.80315" fill="none" stroke="black"/>
<path d="M63.9961,333.557h -6.80315" fill="none" stroke="black"/>
<path d="M63.9961,327.325h -6.80315" fill="none" stroke="black"/>
<path d="M70.7992,321.092h -13.6063" fill="none" stroke="black"/>
<path d="M63.9961,314.86h -6.80315" fill="none" stroke="black"/>
<path d="M63.9961,308.627h -6.80315" fill="none" stroke="black"/>
<path d="M63.9961,302.395h -6.80315" fill="none" stroke="black"/>
<path d="M70.7992,296.162h -13.6063" fill="none" stroke="black"/>
<path d="M63.9961,289.929h -6.80315" fill="none" stroke="black"/>
<path d="M63.9961,283.697h -6.80315" fill="none" stroke="black"/>
<path d="M63.9961,277.464h -6.80315" fill="none" stroke="black"/>
<path d="M70.7992,271.232h -13.6063" fill="none" stroke="black"/>
<path d="M63.9961,264.999h -6.80315" fill="none" stroke="black"/>
<path d="M63.9961,258.767h -6.80315" fill="none" stroke="black"/>
<path d="M63.9961,252.534h -6.80315" fill="none" stroke="black"/>
<path d="M70.7992,246.302h -13.6063" fill="none" stroke="black"/>
<path d="M63.9961,240.069h -6.80315" fill="none" stroke="black"/>
<path d="M63.9961,233.837h -6.80315" fill="none" stroke="black"/>
<path d="M63.9961,227.604h -6.80315" fill="none" stroke="black"/>
<path d="M70.7992,221.372h -13.6063" fill="none" stroke="black"/>
<path d="M63.9961,215.139h -6.80315" fill="none" stroke="black"/>
<path d="M63.9961,208.907h -6.80315" fill="none" stroke="black"/>
<path d="M63.9961,202.674h -6.80315" fill="none" stroke="black"/>
<path d="M70.7992,196.442h -13.6063" fill="none" stroke="black"/>
<path d="M63.9961,190.209h -6.80315" fill="none" stroke="black"/>
<path d="M63.9961,183.976h -6.80315" fill="none" stroke="black"/>
<path d="M63.9961,177.744h -6.80315" fill="none" stroke="black"/>
<path d="M70.7992,171.511h -13.6063" fill="none" stroke="black"/>
<path d="M63.9961,165.279h -6.80315" fill="none" stroke="black"/>
<path d="M63.9961,159.046h -6.80315" fill="none" stroke="black"/>
<path d="M63.9961,152.814h -6.80315" fill="none" stroke="black"/>
<path d="M70.7992,146.581h -13.6063" fill="none" stroke="black"/>
<path d="M63.9961,140.349h -6.80315" fill="none" stroke="black"/>
<path d="M63.9961,134.116h -6.80315" fill="none" stroke="black"/>
<path d="M63.9961,127.884h -6.80315" fill="none" stroke="black"/>
<path d="M70.7992,121.651h -13.6063" fill="none" stroke="black"/>
<path d="M63.9961,115.419h -6.80315" fill="none" stroke="black"/>
<path d="M63.9961,109.186h -6.80315" fill="none" stroke="black"/>
<path d="M63.9961,102.954h -6.80315" fill="none" stroke="black"/>
<path d="M70.7992,96.7211h -13.6063" fill="none" stroke="black"/>
<path d="M63.9961,90.4885h -6.80315" fill="none" stroke="black"/>
<path d="M63.9961,84.256h -6.80315" fill="none" stroke="black"/>
<path d="M63.9961,78.0235h -6.80315" fill="none" stroke="black"/>
<path d="M70.7992,71.791h -13.6063" fill="none" stroke="black"/>
<path d="M63.9961,65.5584h -6.80315" fill="none" stroke="black"/>
<path d="M63.9961,59.3259h -6.80315" fill="none" stroke="black"/>
<path d="M63.9961,53.0934h -6.80315" fill="none" stroke="black"/>
<path d="M70.7992,46.8608h -13.6063" fill="none" stroke="black"/>
<path d="M70.7992,46.8608h -13.6063" fill="none" stroke="black"/>
<path d="M63.9961,40.6283h -6.80315" fill="none" stroke="black"/>
<text xml:space="preserve" x="47.7441" y="350.258" fill="black" font-size="12.8453" font-family="Helvetica">0</text>
<text xml:space="preserve" x="41.2277" y="325.821" fill="black" font-size="12.8453" font-family="Helvetica">20</text>
<text xml:space="preserve" x="41.2277" y="300.57" fill="black" font-size="12.8453" font-family="Helvetica">40</text>
<text xml:space="preserve" x="41.2277" y="275.319" fill="black" font-size="12.8453" font-family="Helvetica">60</text>
<text xml:space="preserve" x="41.2277" y="250.882" fill="black" font-size="12.8453" font-family="Helvetica">80</text>
<text xml:space="preserve" x="33.8967" y="225.631" fill="black" font-size="12.8453" font-family="Helvetica">100</text>
<text xml:space="preserve" x="33.8967" y="201.195" fill="black" font-size="12.8453" font-family="Helvetica">120</text>
<text xml:space="preserve" x="33.8967" y="175.944" fill="black" font-size="12.8453" font-family="Helvetica">140</text>
<text xml:space="preserve" x="33.8967" y="150.692" fill="black" font-size="12.8453" font-family="Helvetica">160</text>
<text xml:space="preserve" x="33.8967" y="126.256" fill="black" font-size="12.8453" font-family="Helvetica">180</text>
<text xml:space="preserve" x="33.8967" y="101.005" fill="black" font-size="12.8453" font-family="Helvetica">200</text>
<text xml:space="preserve" x="33.8967" y="76.568" fill="black" font-size="12.8453" font-family="Helvetica">220</text>
<text xml:space="preserve" x="33.8967" y="51.3169" fill="black" font-size="12.8453" font-family="Helvetica">240</text>
<g transform="rotate(-90,20.8638,70.0516)">
<text xml:space="preserve" x="20.8638" y="70.0516" fill="black" font-size="12.8453" font-family="Helvetica">Event</text>
</g>
<text xml:space="preserve" x="253.012" y="18.7347" fill="black" font-size="18.0316" font-family="Helvetica">Cs_009</text>
<rect x="442.705" y="24.9905" width="113.386" height="61.5151" fill="white"/>
<path d="M442.705,86.5056h 113.386" fill="none" stroke="black"/>
<path d="M556.091,86.5056v -61.5151" fill="none" stroke="black"/>
<path d="M556.091,24.9905h -113.386" fill="none" stroke="black"/>
<path d="M442.705,24.9905v 61.5151" fill="none" stroke="black"/>
<text xml:space="preserve" x="476.199" y="36.6549" fill="black" font-size="13.4802" font-family="Helvetica">Cs_009</text>
<path d="M442.705,40.3693h 113.386" fill="none" stroke="black"/>
<text xml:space="preserve" x="447.69" y="52.946" fill="black" font-size="13.0654" font-family="Helvetica">Entries </text>
<text xml:space="preserve" x="517.741" y="52.946" fill="black" font-size="13.0654" font-family="Helvetica"> 5042</text>
<text xml:space="preserve" x="447.69" y="67.6079" fill="black" font-size="13.0654" font-family="Helvetica">Mean  </text>
<text xml:space="preserve" x="510.41" y="67.6079" fill="black" font-size="13.0654" font-family="Helvetica">   1410</text>
<text xml:space="preserve" x="447.69" y="83.0844" fill="black" font-size="13.0654" font-family="Helvetica">Std Dev   </text>
<text xml:space="preserve" x="510.41" y="83.0844" fill="black" font-size="13.0654" font-family="Helvetica">  724.8</text>
<text xml:space="preserve" x="253.012" y="18.7347" fill="black" font-size="18.0316" font-family="Helvetica">Cs_009</text></svg>
