<?xml version="1.0" standalone="no"?>
<svg width="567.429" height="384.969" viewBox="0 0 567.429 384.969" xmlns="http://www.w3.org/2000/svg" shape-rendering="crispEdges">
<title>
img/week1/plane_hist/Cs_011.svg
</title>
<desc>
Creator: ROOT Version 6.22/09
CreationDate: Fri Jul  2 21:18:46 2021</desc>
<defs>
</defs>
<rect x="0.5" y="0" width="566.929" height="384.469" fill="white"/>
<rect x="57.1929" y="38.4469" width="453.543" height="307.575" fill="white"/>
<rect x="57.1929" y="38.4469" width="453.543" height="307.575" fill="none" stroke="black"/>
<path d="M57.1929,346.022h 73.1521v -2.34343h 0.609601v -8.20201h 0.609601v -29.2929h 0.609601v -36.3232h 0.609601v -90.2221h 2.4384v 8.20201h 0.609601v 26.9495h 0.609601v 22.2626h 0.609601v 25.7777h 0.609601v -9.37372h 0.609601v 11.7172h 0.609601v
 14.0606h 0.609601v 25.7777h 0.609601v -7.03029h 0.609601v 9.37372h 0.609601v 7.03029h 0.609601v 5.85858h 0.609601v -3.51515h 0.609601v 10.5454h 0.609601v -4.68686h 0.609601v 1.17172h 0.609601v 7.03029h 0.609601v -2.34343h 0.609601v -4.68686h
 0.609601v 8.20201h 0.609601v 9.37372h 0.609601v -1.17172h 0.609601v 2.34343h 0.609601v -3.51515h 0.609601v -4.68686h 0.609601v 8.20201h 1.2192v -1.17172h 0.609601v 3.51515h 0.609601v -4.68686h 0.609601v 3.51515h 0.609601v -3.51515h 0.609601v
 3.51515h 0.609601v -4.68686h 0.609601v 5.85858h 0.609601v 1.17172h 1.2192v -2.34343h 0.609601v 2.34343h 0.609601v -2.34343h 1.2192v 1.17172h 1.2192v -2.34343h 1.2192v 2.34343h 1.2192v -1.17172h 1.2192v -1.17172h 1.2192v 3.51515h 1.8288v -2.34343h
 1.2192v 1.17172h 0.609601v 1.17172h 0.609601v -3.51515h 0.609601v 1.17172h 0.609601v 1.17172h 1.2192v -2.34343h 0.609601v 1.17172h 1.2192v -1.17172h 0.609601v 2.34343h 0.609601v -1.17172h 0.609601v 1.17172h 0.609601v -1.17172h 0.609601v 2.34343h
 0.609601v -3.51515h 0.609601v 2.34343h 2.4384v 1.17172h 1.2192v -3.51515h 0.609601v 1.17172h 1.2192v 1.17172h 0.609601v -2.34343h 0.609601v -1.17172h 0.609601v 3.51515h 0.609601v 1.17172h 0.609601v -2.34343h 1.2192v 1.17172h 1.2192v -1.17172h
 0.609601v 2.34343h 0.609601v -2.34343h 0.609601v 1.17172h 0.609601v -1.17172h 0.609601v 1.17172h 0.609601v 1.17172h 1.2192v -1.17172h 3.04801v -3.51515h 0.609601v 3.51515h 0.609601v -3.51515h 1.2192v 3.51515h 0.609601v -1.17172h 0.609601v -1.17172h
 0.609601v 3.51515h 1.2192v -3.51515h 0.609601v 2.34343h 1.2192v 1.17172h 0.609601v -2.34343h 0.609601v 2.34343h 0.609601v -4.68686h 0.609601v 2.34343h 0.609601v 1.17172h 0.609601v 1.17172h 0.609601v -1.17172h 0.609601v 1.17172h 0.609601v -2.34343h
 0.609601v 2.34343h 0.609601v -3.51515h 0.609601v 3.51515h 0.609601v -2.34343h 1.2192v -1.17172h 1.2192v 1.17172h 0.609601v -2.34343h 0.609601v 2.34343h 1.8288v 2.34343h 0.609601v -1.17172h 1.2192v 1.17172h 0.609601v -1.17172h 0.609601v 1.17172h
 0.609601v -2.34343h 0.609601v 1.17172h 0.609601v -1.17172h 0.609601v 2.34343h 0.609601v -5.85858h 0.609601v 2.34343h 0.609601v 1.17172h 0.609601v 1.17172h 1.2192v -1.17172h 0.609601v 1.17172h 0.609601v 1.17172h 0.609601v -2.34343h 0.609601v
 -2.34343h 0.609601v 4.68686h 0.609601v -4.68686h 0.609601v 2.34343h 0.609601v 2.34343h 0.609601v -1.17172h 0.609601v -1.17172h 0.609601v 1.17172h 1.8288v -1.17172h 0.609601v 2.34343h 0.609601v -3.51515h 1.2192v -1.17172h 0.609601v 2.34343h 0.609601v
 1.17172h 1.2192v -2.34343h 0.609601v 3.51515h 1.2192v -1.17172h 1.2192v 1.17172h 0.609601v -1.17172h 0.609601v -1.17172h 0.609601v 2.34343h 0.609601v -1.17172h 1.2192v 1.17172h 0.609601v -1.17172h 0.609601v 1.17172h 1.2192v -1.17172h 0.609601v
 -1.17172h 0.609601v 2.34343h 0.609601v -3.51515h 0.609601v 2.34343h 1.2192v -2.34343h 0.609601v 3.51515h 1.8288v -1.17172h 0.609601v -1.17172h 0.609601v 2.34343h 1.2192v -1.17172h 0.609601v 1.17172h 0.609601v -1.17172h 0.609601v 1.17172h 0.609601v
 -1.17172h 1.2192v -2.34343h 0.609601v 1.17172h 0.609601v 1.17172h 0.609601v -1.17172h 1.2192v 2.34343h 0.609601v -1.17172h 1.8288v 1.17172h 0.609601v -1.17172h 0.609601v -2.34343h 0.609601v 3.51515h 0.609601v -2.34343h 0.609601v 1.17172h 0.609601v
 1.17172h 0.609601v -1.17172h 1.2192v -1.17172h 1.2192v 1.17172h 0.609601v 1.17172h 0.609601v -1.17172h 1.2192v -1.17172h 0.609601v 1.17172h 1.8288v -1.17172h 0.609601v 2.34343h 0.609601v -1.17172h 0.609601v -2.34343h 0.609601v 2.34343h 0.609601v
 1.17172h 0.609601v -1.17172h 0.609601v -1.17172h 1.2192v 1.17172h 0.609601v 1.17172h 1.2192v -3.51515h 0.609601v 2.34343h 0.609601v 1.17172h 0.609601v -2.34343h 0.609601v 1.17172h 1.2192v 1.17172h 1.8288v -1.17172h 0.609601v -2.34343h 0.609601v
 2.34343h 1.2192v -1.17172h 0.609601v 2.34343h 0.609601v -2.34343h 0.609601v 2.34343h 0.609601v -1.17172h 0.609601v 1.17172h 0.609601v -5.85858h 0.609601v 5.85858h 1.2192v -1.17172h 1.2192v -1.17172h 1.2192v 2.34343h 0.609601v -1.17172h 1.8288v
 1.17172h 0.609601v -3.51515h 0.609601v 3.51515h 0.609601v -3.51515h 1.2192v 2.34343h 1.2192v -2.34343h 0.609601v 1.17172h 0.609601v 2.34343h 0.609601v -1.17172h 0.609601v -1.17172h 0.609601v 1.17172h 1.2192v -3.51515h 0.609601v 3.51515h 0.609601v
 1.17172h 0.609601v -1.17172h 0.609601v -1.17172h 1.2192v 1.17172h 0.609601v -1.17172h 0.609601v 1.17172h 0.609601v -1.17172h 0.609601v 1.17172h 1.2192v 1.17172h 0.609601v -1.17172h 0.609601v -1.17172h 0.609601v 2.34343h 1.2192v -1.17172h 0.609601v
 -1.17172h 0.609601v 1.17172h 1.2192v -2.34343h 0.609601v -1.17172h 0.609601v 2.34343h 1.2192v 2.34343h 0.609601v -2.34343h 0.609601v 1.17172h 2.4384v -2.34343h 0.609601v 2.34343h 1.8288v 1.17172h 0.609601v -2.34343h 0.609601v 2.34343h 0.609601v
 -2.34343h 0.609601v 1.17172h 1.2192v -1.17172h 0.609601v 2.34343h 0.609601v -4.68686h 0.609601v 1.17172h 0.609601v 3.51515h 0.609601v -1.17172h 1.2192v -1.17172h 1.2192v 1.17172h 0.609601v -2.34343h 0.609601v 1.17172h 0.609601v 2.34343h 0.609601v
 -1.17172h 0.609601v -1.17172h 1.2192v -1.17172h 0.609601v 2.34343h 0.609601v -3.51515h 0.609601v 1.17172h 1.8288v 1.17172h 1.8288v -1.17172h 0.609601v -1.17172h 0.609601v -2.34343h 0.609601v 3.51515h 1.8288v 1.17172h 1.8288v -2.34343h 0.609601v
 3.51515h 0.609601v -4.68686h 0.609601v 2.34343h 0.609601v 3.51515h 0.609601v -1.17172h 0.609601v -1.17172h 0.609601v 2.34343h 0.609601v -7.03029h 1.2192v 4.68686h 0.609601v 2.34343h 0.609601v -2.34343h 1.8288v -1.17172h 0.609601v 1.17172h 1.2192v
 2.34343h 0.609601v -3.51515h 0.609601v -2.34343h 0.609601v 4.68686h 1.2192v -1.17172h 0.609601v -1.17172h 1.2192v -2.34343h 0.609601v 3.51515h 0.609601v -2.34343h 0.609601v 2.34343h 0.609601v 2.34343h 0.609601v -3.51515h 0.609601v 2.34343h 0.609601v
 -2.34343h 0.609601v -1.17172h 0.609601v 2.34343h 0.609601v -1.17172h 0.609601v 3.51515h 0.609601v -1.17172h 0.609601v -1.17172h 1.2192v -2.34343h 0.609601v 3.51515h 0.609601v -2.34343h 0.609601v 2.34343h 0.609601v 1.17172h 1.2192v -1.17172h
 0.609601v 1.17172h 1.2192v -1.17172h 1.2192v -2.34343h 0.609601v 1.17172h 0.609601v 1.17172h 1.2192v -2.34343h 0.609601v 3.51515h 0.609601v -2.34343h 0.609601v -1.17172h 0.609601v 1.17172h 0.609601v -2.34343h 0.609601v 4.68686h 0.609601v -4.68686h
 0.609601v 3.51515h 1.2192v 1.17172h 0.609601v -2.34343h 0.609601v -2.34343h 0.609601v 3.51515h 1.2192v 1.17172h 0.609601v -1.17172h 1.2192v -1.17172h 0.609601v 1.17172h 4.87681v -1.17172h 0.609601v 1.17172h 1.8288v 1.17172h 1.2192v -1.17172h
 0.609601v 1.17172h 1.8288v -3.51515h 0.609601v 3.51515h 0.609601v -1.17172h 1.2192v -1.17172h 0.609601v 2.34343h 0.609601v -1.17172h 0.609601v -1.17172h 0.609601v 2.34343h 0.609601v -1.17172h 0.609601v -1.17172h 0.609601v 1.17172h 0.609601v
 -1.17172h 0.609601v 2.34343h 3.04801v -1.17172h 1.2192v 1.17172h 0.609601v -1.17172h 0.609601v -1.17172h 0.609601v 1.17172h 0.609601v 1.17172h 1.2192v -2.34343h 0.609601v -2.34343h 0.609601v 1.17172h 1.2192v 3.51515h 0.609601v -2.34343h 0.609601v
 2.34343h 0.609601v -1.17172h 1.8288v -1.17172h 1.8288v 1.17172h 0.609601v -1.17172h 0.609601v -1.17172h 0.609601v 1.17172h 0.609601v 2.34343h 1.2192v -2.34343h 0.609601v -2.34343h 0.609601v 3.51515h 0.609601v -1.17172h 1.2192v 1.17172h 0.609601v
 1.17172h 1.2192v -2.34343h 0.609601v -1.17172h 1.8288v 1.17172h 0.609601v -3.51515h 0.609601v 1.17172h 1.2192v 3.51515h 0.609601v -2.34343h 1.2192v 3.51515h 0.609601v -2.34343h 0.609601v 1.17172h 0.609601v -1.17172h 0.609601v -1.17172h 0.609601v
 -2.34343h 0.609601v 1.17172h 0.609601v 3.51515h 0.609601v -4.68686h 0.609601v 3.51515h 0.609601v -1.17172h 0.609601v -5.85858h 0.609601v 5.85858h 0.609601v -2.34343h 0.609601v 3.51515h 0.609601v -2.34343h 1.2192v 2.34343h 0.609601v 2.34343h
 0.609601v -7.03029h 0.609601v 3.51515h 1.8288v -4.68686h 0.609601v 7.03029h 0.609601v -3.51515h 1.8288v -5.85858h 0.609601v 5.85858h 0.609601v -1.17172h 1.2192v 2.34343h 0.609601v -4.68686h 0.609601v 3.51515h 0.609601v -1.17172h 0.609601v -2.34343h
 0.609601v -5.85858h 0.609601v 4.68686h 0.609601v -5.85858h 0.609601v -18.7474h 0.609601v -53.8989h 0.609601v -64.4444h 0.609601v -67.9595h 0.609601v -46.8686h 0.609601v -25.7777h 0.609601v 53.8989h 0.609601v 74.9898h 0.609601v 30.4646h 0.609601v
 22.2626h 0.609601v 15.2323h 0.609601v 18.7474h 0.609601v 9.37372h 0.609601v 24.606h 0.609601v 9.37372h 0.609601v -11.7172h 0.609601v 10.5454h 0.609601v -12.8889h 0.609601v 18.7474h 0.609601v -3.51515h 1.2192v -2.34343h 0.609601v 7.03029h 0.609601v
 -10.5454h 0.609601v 4.68686h 0.609601v 2.34343h 0.609601v -8.20201h 0.609601v -4.68686h 1.2192v 8.20201h 0.609601v 4.68686h 0.609601v -2.34343h 0.609601v -4.68686h 0.609601v 10.5454h 0.609601v -21.0909h 0.609601v 22.2626h 0.609601v -22.2626h
 0.609601v 17.5757h 0.609601v -2.34343h 0.609601v 4.68686h 0.609601v -7.03029h 0.609601v 8.20201h 0.609601v -10.5454h 0.609601v 10.5454h 0.609601v 12.8889h 0.609601v 3.51515h 0.609601v 4.68686h 0.609601v 3.51515h 1.2192v 3.51515h 0.609601v -1.17172h
 0.609601" fill="none" stroke="#000099"/>
<path d="M57.1929,346.022h 453.543" fill="none" stroke="black"/>
<path d="M57.8025,336.795v 9.22726" fill="none" stroke="black"/>
<path d="M78.1226,341.409v 4.61363" fill="none" stroke="black"/>
<path d="M98.4426,341.409v 4.61363" fill="none" stroke="black"/>
<path d="M118.763,341.409v 4.61363" fill="none" stroke="black"/>
<path d="M139.083,341.409v 4.61363" fill="none" stroke="black"/>
<path d="M159.403,336.795v 9.22726" fill="none" stroke="black"/>
<path d="M179.723,341.409v 4.61363" fill="none" stroke="black"/>
<path d="M200.043,341.409v 4.61363" fill="none" stroke="black"/>
<path d="M220.363,341.409v 4.61363" fill="none" stroke="black"/>
<path d="M240.683,341.409v 4.61363" fill="none" stroke="black"/>
<path d="M261.003,336.795v 9.22726" fill="none" stroke="black"/>
<path d="M281.323,341.409v 4.61363" fill="none" stroke="black"/>
<path d="M301.643,341.409v 4.61363" fill="none" stroke="black"/>
<path d="M321.963,341.409v 4.61363" fill="none" stroke="black"/>
<path d="M342.283,341.409v 4.61363" fill="none" stroke="black"/>
<path d="M362.603,336.795v 9.22726" fill="none" stroke="black"/>
<path d="M382.923,341.409v 4.61363" fill="none" stroke="black"/>
<path d="M403.243,341.409v 4.61363" fill="none" stroke="black"/>
<path d="M423.563,341.409v 4.61363" fill="none" stroke="black"/>
<path d="M443.883,341.409v 4.61363" fill="none" stroke="black"/>
<path d="M464.203,336.795v 9.22726" fill="none" stroke="black"/>
<path d="M57.8025,336.795v 9.22726" fill="none" stroke="black"/>
<path d="M464.203,336.795v 9.22726" fill="none" stroke="black"/>
<path d="M484.523,341.409v 4.61363" fill="none" stroke="black"/>
<path d="M504.843,341.409v 4.61363" fill="none" stroke="black"/>
<text xml:space="preserve" x="54.2605" y="358.403" fill="black" font-size="12.8453" font-family="Helvetica">0</text>
<text xml:space="preserve" x="148.749" y="358.403" fill="black" font-size="12.8453" font-family="Helvetica">500</text>
<text xml:space="preserve" x="246.495" y="358.403" fill="black" font-size="12.8453" font-family="Helvetica">1000</text>
<text xml:space="preserve" x="348.314" y="358.403" fill="black" font-size="12.8453" font-family="Helvetica">1500</text>
<text xml:space="preserve" x="450.133" y="358.403" fill="black" font-size="12.8453" font-family="Helvetica">2000</text>
<text xml:space="preserve" x="451.763" y="372.251" fill="black" font-size="12.8453" font-family="Helvetica">ADC value</text>
<path d="M57.1929,346.022v -307.575" fill="none" stroke="black"/>
<path d="M70.7992,346.022h -13.6063" fill="none" stroke="black"/>
<path d="M63.9961,334.305h -6.80315" fill="none" stroke="black"/>
<path d="M63.9961,322.588h -6.80315" fill="none" stroke="black"/>
<path d="M63.9961,310.871h -6.80315" fill="none" stroke="black"/>
<path d="M63.9961,299.154h -6.80315" fill="none" stroke="black"/>
<path d="M70.7992,287.436h -13.6063" fill="none" stroke="black"/>
<path d="M63.9961,275.719h -6.80315" fill="none" stroke="black"/>
<path d="M63.9961,264.002h -6.80315" fill="none" stroke="black"/>
<path d="M63.9961,252.285h -6.80315" fill="none" stroke="black"/>
<path d="M63.9961,240.568h -6.80315" fill="none" stroke="black"/>
<path d="M70.7992,228.851h -13.6063" fill="none" stroke="black"/>
<path d="M63.9961,217.134h -6.80315" fill="none" stroke="black"/>
<path d="M63.9961,205.416h -6.80315" fill="none" stroke="black"/>
<path d="M63.9961,193.699h -6.80315" fill="none" stroke="black"/>
<path d="M63.9961,181.982h -6.80315" fill="none" stroke="black"/>
<path d="M70.7992,170.265h -13.6063" fill="none" stroke="black"/>
<path d="M63.9961,158.548h -6.80315" fill="none" stroke="black"/>
<path d="M63.9961,146.831h -6.80315" fill="none" stroke="black"/>
<path d="M63.9961,135.113h -6.80315" fill="none" stroke="black"/>
<path d="M63.9961,123.396h -6.80315" fill="none" stroke="black"/>
<path d="M70.7992,111.679h -13.6063" fill="none" stroke="black"/>
<path d="M63.9961,99.962h -6.80315" fill="none" stroke="black"/>
<path d="M63.9961,88.2448h -6.80315" fill="none" stroke="black"/>
<path d="M63.9961,76.5277h -6.80315" fill="none" stroke="black"/>
<path d="M63.9961,64.8105h -6.80315" fill="none" stroke="black"/>
<path d="M70.7992,53.0934h -13.6063" fill="none" stroke="black"/>
<path d="M70.7992,53.0934h -13.6063" fill="none" stroke="black"/>
<path d="M63.9961,41.3762h -6.80315" fill="none" stroke="black"/>
<text xml:space="preserve" x="47.7441" y="350.258" fill="black" font-size="12.8453" font-family="Helvetica">0</text>
<text xml:space="preserve" x="41.2277" y="291.61" fill="black" font-size="12.8453" font-family="Helvetica">50</text>
<text xml:space="preserve" x="33.8967" y="232.962" fill="black" font-size="12.8453" font-family="Helvetica">100</text>
<text xml:space="preserve" x="33.8967" y="175.129" fill="black" font-size="12.8453" font-family="Helvetica">150</text>
<text xml:space="preserve" x="33.8967" y="116.481" fill="black" font-size="12.8453" font-family="Helvetica">200</text>
<text xml:space="preserve" x="33.8967" y="57.8333" fill="black" font-size="12.8453" font-family="Helvetica">250</text>
<g transform="rotate(-90,20.8638,70.0516)">
<text xml:space="preserve" x="20.8638" y="70.0516" fill="black" font-size="12.8453" font-family="Helvetica">Event</text>
</g>
<text xml:space="preserve" x="254.641" y="18.7347" fill="black" font-size="18.0316" font-family="Helvetica">Cs_011</text>
<rect x="442.705" y="24.9905" width="113.386" height="61.5151" fill="white"/>
<path d="M442.705,86.5056h 113.386" fill="none" stroke="black"/>
<path d="M556.091,86.5056v -61.5151" fill="none" stroke="black"/>
<path d="M556.091,24.9905h -113.386" fill="none" stroke="black"/>
<path d="M442.705,24.9905v 61.5151" fill="none" stroke="black"/>
<text xml:space="preserve" x="477.828" y="36.6549" fill="black" font-size="13.4802" font-family="Helvetica">Cs_011</text>
<path d="M442.705,40.3693h 113.386" fill="none" stroke="black"/>
<text xml:space="preserve" x="447.69" y="52.946" fill="black" font-size="13.0654" font-family="Helvetica">Entries </text>
<text xml:space="preserve" x="517.741" y="52.946" fill="black" font-size="13.0654" font-family="Helvetica"> 5207</text>
<text xml:space="preserve" x="447.69" y="67.6079" fill="black" font-size="13.0654" font-family="Helvetica">Mean  </text>
<text xml:space="preserve" x="510.41" y="67.6079" fill="black" font-size="13.0654" font-family="Helvetica">   1446</text>
<text xml:space="preserve" x="447.69" y="83.0844" fill="black" font-size="13.0654" font-family="Helvetica">Std Dev   </text>
<text xml:space="preserve" x="510.41" y="83.0844" fill="black" font-size="13.0654" font-family="Helvetica">  792.3</text>
<text xml:space="preserve" x="254.641" y="18.7347" fill="black" font-size="18.0316" font-family="Helvetica">Cs_011</text></svg>
