<?xml version="1.0" standalone="no"?>
<svg width="567.429" height="384.969" viewBox="0 0 567.429 384.969" xmlns="http://www.w3.org/2000/svg" shape-rendering="crispEdges">
<title>
img/week1/plane_hist/Cs_012.svg
</title>
<desc>
Creator: ROOT Version 6.22/09
CreationDate: Thu Jul  8 17:31:51 2021</desc>
<defs>
</defs>
<rect x="0.5" y="0" width="566.929" height="384.469" fill="white"/>
<rect x="57.1929" y="38.4469" width="453.543" height="307.575" fill="white"/>
<rect x="57.1929" y="38.4469" width="453.543" height="307.575" fill="none" stroke="black"/>
<path d="M57.1929,346.022h 67.8889v -0.882316h 0.570495v -0.882316h 0.570495v -14.1171h 0.570495v -13.2347h 0.570495v -50.292h 1.14099v -8.82316h 0.570495v 11.4701h 0.570495v 19.4109h 0.570495v 2.64695h 0.570495v 9.70547h 0.570495v -0.882316h
 0.570495v 3.52926h 0.570495v 9.70547h 0.570495v 5.2939h 0.570495v -0.882316h 0.570495v 14.1171h 0.570495v -11.4701h 0.570495v 7.05853h 0.570495v 8.82316h 0.570495v -3.52926h 0.570495v 3.52926h 0.570495v 2.64695h 0.570495v 0.882316h 0.570495v
 -3.52926h 0.570495v 3.52926h 0.570495v -0.882316h 0.570495v 3.52926h 0.570495v 0.882316h 0.570495v 0.882316h 0.570495v -1.76463h 0.570495v 0.882316h 0.570495v 0.882316h 0.570495v -0.882316h 0.570495v 0.882316h 0.570495v -3.52926h 0.570495v 1.76463h
 0.570495v 2.64695h 0.570495v -3.52926h 0.570495v 3.52926h 0.570495v -0.882316h 0.570495v 1.76463h 0.570495v -0.882316h 0.570495v -1.76463h 0.570495v 1.76463h 0.570495v -1.76463h 0.570495v 1.76463h 0.570495v 0.882316h 0.570495v -0.882316h 0.570495v
 -0.882316h 0.570495v -0.882316h 0.570495v 0.882316h 1.14099v -1.76463h 0.570495v -0.882316h 0.570495v 2.64695h 0.570495v 1.76463h 0.570495v -1.76463h 0.570495v -0.882316h 0.570495v 2.64695h 0.570495v -2.64695h 1.71148v 1.76463h 1.14099v -1.76463h
 0.570495v 1.76463h 0.570495v -7.05853h 0.570495v 5.2939h 0.570495v -3.52926h 0.570495v 3.52926h 0.570495v 0.882316h 0.570495v 0.882316h 0.570495v 0.882316h 0.570495v -2.64695h 0.570495v 2.64695h 0.570495v -1.76463h 0.570495v -1.76463h 1.14099v
 1.76463h 1.14099v -0.882316h 1.71148v -1.76463h 0.570495v 3.52926h 0.570495v 0.882316h 0.570495v -2.64695h 0.570495v 1.76463h 1.14099v -0.882316h 0.570495v 0.882316h 0.570495v -0.882316h 0.570495v 1.76463h 0.570495v -0.882316h 1.14099v -2.64695h
 0.570495v 1.76463h 0.570495v 0.882316h 1.14099v -0.882316h 0.570495v 1.76463h 0.570495v -0.882316h 0.570495v -2.64695h 0.570495v 3.52926h 0.570495v -1.76463h 0.570495v 0.882316h 0.570495v -2.64695h 0.570495v 3.52926h 0.570495v -3.52926h 0.570495v
 -0.882316h 0.570495v 0.882316h 0.570495v 1.76463h 1.14099v 0.882316h 0.570495v -2.64695h 0.570495v 2.64695h 0.570495v -1.76463h 1.14099v 1.76463h 0.570495v -0.882316h 0.570495v 0.882316h 0.570495v -0.882316h 0.570495v -0.882316h 0.570495v -1.76463h
 0.570495v 1.76463h 0.570495v -2.64695h 0.570495v 3.52926h 0.570495v -3.52926h 0.570495v 1.76463h 0.570495v 2.64695h 1.14099v -0.882316h 1.71148v 0.882316h 0.570495v -2.64695h 1.14099v 1.76463h 0.570495v 0.882316h 0.570495v 0.882316h 0.570495v
 -2.64695h 0.570495v 1.76463h 0.570495v -0.882316h 0.570495v 0.882316h 0.570495v 0.882316h 0.570495v -1.76463h 0.570495v 0.882316h 0.570495v 0.882316h 0.570495v -2.64695h 0.570495v 2.64695h 1.14099v -0.882316h 1.71148v -5.2939h 0.570495v 3.52926h
 0.570495v 0.882316h 1.14099v 0.882316h 0.570495v -0.882316h 0.570495v 0.882316h 0.570495v -2.64695h 0.570495v 2.64695h 1.14099v 0.882316h 1.14099v -1.76463h 1.71148v 0.882316h 1.14099v -3.52926h 0.570495v 1.76463h 1.14099v 0.882316h 0.570495v
 0.882316h 0.570495v 0.882316h 0.570495v -2.64695h 0.570495v 1.76463h 0.570495v -2.64695h 0.570495v 1.76463h 0.570495v -0.882316h 0.570495v 2.64695h 0.570495v -1.76463h 1.14099v 0.882316h 0.570495v -2.64695h 0.570495v 1.76463h 1.14099v 1.76463h
 0.570495v -0.882316h 0.570495v -0.882316h 1.14099v -0.882316h 0.570495v 2.64695h 1.71148v -2.64695h 1.14099v 0.882316h 1.14099v 1.76463h 0.570495v -1.76463h 0.570495v 0.882316h 0.570495v -1.76463h 0.570495v 2.64695h 0.570495v -0.882316h 0.570495v
 -0.882316h 1.71148v 1.76463h 0.570495v -2.64695h 0.570495v 1.76463h 0.570495v -1.76463h 0.570495v 1.76463h 0.570495v -0.882316h 0.570495v -0.882316h 1.14099v 1.76463h 1.71148v -0.882316h 0.570495v 0.882316h 1.71148v -0.882316h 2.28198v 1.76463h
 0.570495v -0.882316h 0.570495v -1.76463h 0.570495v -1.76463h 0.570495v 4.41158h 0.570495v -0.882316h 0.570495v -1.76463h 0.570495v -0.882316h 0.570495v 3.52926h 0.570495v -1.76463h 1.14099v 0.882316h 1.14099v -0.882316h 0.570495v -0.882316h
 0.570495v 1.76463h 0.570495v -1.76463h 0.570495v 2.64695h 0.570495v -1.76463h 0.570495v -0.882316h 0.570495v -0.882316h 0.570495v 0.882316h 1.14099v -1.76463h 0.570495v 3.52926h 0.570495v -3.52926h 0.570495v 2.64695h 0.570495v 1.76463h 0.570495v
 -3.52926h 0.570495v 2.64695h 0.570495v -0.882316h 0.570495v -0.882316h 0.570495v 0.882316h 1.71148v -0.882316h 0.570495v 0.882316h 0.570495v 0.882316h 1.14099v -1.76463h 0.570495v 1.76463h 1.14099v -0.882316h 0.570495v -1.76463h 0.570495v 1.76463h
 0.570495v 0.882316h 1.14099v -0.882316h 0.570495v -0.882316h 0.570495v 0.882316h 1.14099v -0.882316h 0.570495v 2.64695h 0.570495v -0.882316h 0.570495v -0.882316h 0.570495v 0.882316h 1.71148v 0.882316h 1.71148v -2.64695h 0.570495v 0.882316h 1.71148v
 0.882316h 1.14099v -0.882316h 1.71148v 0.882316h 1.14099v -2.64695h 0.570495v 0.882316h 0.570495v -0.882316h 0.570495v 2.64695h 0.570495v -0.882316h 0.570495v 1.76463h 0.570495v -1.76463h 0.570495v -0.882316h 1.14099v 1.76463h 0.570495v -1.76463h
 1.14099v 0.882316h 0.570495v -1.76463h 0.570495v 0.882316h 0.570495v -0.882316h 0.570495v 2.64695h 0.570495v -0.882316h 0.570495v -1.76463h 0.570495v -1.76463h 0.570495v 2.64695h 0.570495v 0.882316h 0.570495v -1.76463h 0.570495v 0.882316h 0.570495v
 0.882316h 1.14099v -0.882316h 1.71148v -0.882316h 0.570495v 1.76463h 0.570495v -3.52926h 0.570495v 3.52926h 1.14099v -2.64695h 0.570495v -1.76463h 0.570495v 4.41158h 0.570495v -1.76463h 0.570495v 1.76463h 0.570495v 0.882316h 0.570495v -2.64695h
 0.570495v -1.76463h 0.570495v 0.882316h 0.570495v 1.76463h 0.570495v 2.64695h 0.570495v -1.76463h 0.570495v -1.76463h 0.570495v 0.882316h 1.71148v 0.882316h 0.570495v 0.882316h 1.71148v -4.41158h 0.570495v -0.882316h 0.570495v 4.41158h 0.570495v
 -2.64695h 0.570495v 1.76463h 1.14099v -4.41158h 0.570495v 4.41158h 1.14099v 0.882316h 1.14099v -2.64695h 0.570495v 3.52926h 0.570495v -0.882316h 0.570495v -3.52926h 0.570495v 2.64695h 1.14099v 1.76463h 0.570495v -2.64695h 0.570495v 0.882316h
 0.570495v 0.882316h 0.570495v -3.52926h 0.570495v 1.76463h 0.570495v -0.882316h 0.570495v 1.76463h 0.570495v -0.882316h 0.570495v -0.882316h 0.570495v 1.76463h 0.570495v -0.882316h 0.570495v 1.76463h 2.28198v 1.76463h 0.570495v -0.882316h 1.14099v
 -0.882316h 0.570495v -1.76463h 0.570495v 2.64695h 0.570495v 0.882316h 0.570495v -0.882316h 0.570495v -1.76463h 0.570495v 0.882316h 0.570495v -2.64695h 0.570495v 3.52926h 0.570495v -1.76463h 0.570495v 2.64695h 0.570495v -1.76463h 1.14099v -3.52926h
 0.570495v 2.64695h 1.14099v 0.882316h 1.14099v 0.882316h 0.570495v -0.882316h 0.570495v 0.882316h 0.570495v -3.52926h 0.570495v 2.64695h 0.570495v 1.76463h 0.570495v -0.882316h 0.570495v 0.882316h 0.570495v -3.52926h 0.570495v 3.52926h 0.570495v
 -2.64695h 0.570495v -1.76463h 0.570495v 2.64695h 0.570495v -0.882316h 1.14099v 2.64695h 0.570495v -1.76463h 0.570495v 1.76463h 0.570495v -0.882316h 0.570495v -0.882316h 1.71148v 1.76463h 0.570495v -2.64695h 1.14099v 1.76463h 1.71148v -7.05853h
 0.570495v 6.17621h 0.570495v -0.882316h 0.570495v 0.882316h 0.570495v -2.64695h 0.570495v 4.41158h 1.14099v -0.882316h 0.570495v -1.76463h 1.14099v 1.76463h 1.14099v -1.76463h 0.570495v 1.76463h 1.14099v -1.76463h 0.570495v -0.882316h 0.570495v
 0.882316h 0.570495v 1.76463h 1.14099v 0.882316h 1.14099v -1.76463h 0.570495v -0.882316h 0.570495v 2.64695h 0.570495v -0.882316h 0.570495v -0.882316h 1.14099v 0.882316h 0.570495v -0.882316h 0.570495v 1.76463h 0.570495v -0.882316h 1.14099v -3.52926h
 0.570495v 4.41158h 0.570495v -3.52926h 0.570495v 3.52926h 0.570495v -3.52926h 0.570495v -0.882316h 0.570495v 0.882316h 0.570495v 0.882316h 0.570495v 1.76463h 1.71148v -0.882316h 0.570495v 0.882316h 0.570495v -0.882316h 0.570495v -0.882316h 0.570495v
 0.882316h 0.570495v -0.882316h 1.71148v 2.64695h 0.570495v -2.64695h 0.570495v -0.882316h 0.570495v 0.882316h 2.85247v -1.76463h 0.570495v 3.52926h 0.570495v -1.76463h 0.570495v -1.76463h 0.570495v 3.52926h 0.570495v -1.76463h 1.14099v -0.882316h
 0.570495v -0.882316h 0.570495v 0.882316h 0.570495v 1.76463h 0.570495v -2.64695h 0.570495v 1.76463h 0.570495v -2.64695h 0.570495v 1.76463h 1.14099v 1.76463h 0.570495v -1.76463h 0.570495v -4.41158h 0.570495v 2.64695h 0.570495v -1.76463h 0.570495v
 3.52926h 1.14099v -2.64695h 0.570495v -0.882316h 0.570495v 2.64695h 0.570495v -2.64695h 0.570495v 2.64695h 0.570495v -2.64695h 0.570495v -1.76463h 0.570495v 3.52926h 0.570495v -3.52926h 0.570495v 7.05853h 0.570495v -6.17621h 0.570495v 0.882316h
 0.570495v 1.76463h 0.570495v -0.882316h 0.570495v 2.64695h 0.570495v -3.52926h 0.570495v -5.2939h 0.570495v 8.82316h 0.570495v -7.05853h 0.570495v 7.94084h 0.570495v -7.05853h 0.570495v 1.76463h 0.570495v -3.52926h 0.570495v -2.64695h 0.570495v
 7.05853h 0.570495v -2.64695h 0.570495v -1.76463h 1.14099v 5.2939h 0.570495v -1.76463h 1.14099v 0.882316h 0.570495v -3.52926h 0.570495v -1.76463h 0.570495v 5.2939h 0.570495v -5.2939h 0.570495v 7.94084h 0.570495v -4.41158h 0.570495v 4.41158h 0.570495v
 -3.52926h 0.570495v 2.64695h 0.570495v -10.5878h 0.570495v 7.05853h 0.570495v 0.882316h 0.570495v -5.2939h 0.570495v 2.64695h 0.570495v -6.17621h 0.570495v 7.05853h 0.570495v -3.52926h 0.570495v 1.76463h 0.570495v -1.76463h 0.570495v 3.52926h
 0.570495v -13.2347h 0.570495v -39.7042h 0.570495v -100.584h 0.570495v -82.9377h 0.570495v -46.7627h 0.570495v 5.2939h 0.570495v 39.7042h 0.570495v 46.7627h 0.570495v 47.6451h 0.570495v 38.8219h 0.570495v 37.0573h 0.570495v -7.94084h 0.570495v
 7.94084h 0.570495v 14.1171h 0.570495v 20.2933h 0.570495v -9.70547h 0.570495v 14.9994h 0.570495v -1.76463h 0.570495v -0.882316h 0.570495v 2.64695h 0.570495v -7.94084h 1.14099v 7.05853h 0.570495v 1.76463h 0.570495v 7.94084h 0.570495v -3.52926h
 1.14099v -4.41158h 0.570495v 1.76463h 0.570495v 0.882316h 0.570495v -1.76463h 0.570495v -6.17621h 0.570495v -3.52926h 0.570495v 20.2933h 0.570495v -7.05853h 0.570495v -12.3524h 0.570495v 13.2347h 0.570495v -0.882316h 0.570495v -16.764h 0.570495v
 18.5286h 0.570495v -10.5878h 0.570495v 1.76463h 0.570495v 1.76463h 0.570495v 8.82316h 0.570495v 5.2939h 0.570495v 5.2939h 0.570495v 14.1171h 1.71148v 2.64695h 0.570495v 1.76463h 5.70495v -0.882316h 0.570495v 0.882316h 23.3903v -0.882316h 0.570495"
 fill="none" stroke="#000099"/>
<path d="M57.1929,346.022h 453.543" fill="none" stroke="black"/>
<path d="M57.7634,336.795v 9.22726" fill="none" stroke="black"/>
<path d="M76.7799,341.409v 4.61363" fill="none" stroke="black"/>
<path d="M95.7964,341.409v 4.61363" fill="none" stroke="black"/>
<path d="M114.813,341.409v 4.61363" fill="none" stroke="black"/>
<path d="M133.829,341.409v 4.61363" fill="none" stroke="black"/>
<path d="M152.846,336.795v 9.22726" fill="none" stroke="black"/>
<path d="M171.862,341.409v 4.61363" fill="none" stroke="black"/>
<path d="M190.879,341.409v 4.61363" fill="none" stroke="black"/>
<path d="M209.895,341.409v 4.61363" fill="none" stroke="black"/>
<path d="M228.912,341.409v 4.61363" fill="none" stroke="black"/>
<path d="M247.928,336.795v 9.22726" fill="none" stroke="black"/>
<path d="M266.945,341.409v 4.61363" fill="none" stroke="black"/>
<path d="M285.961,341.409v 4.61363" fill="none" stroke="black"/>
<path d="M304.978,341.409v 4.61363" fill="none" stroke="black"/>
<path d="M323.994,341.409v 4.61363" fill="none" stroke="black"/>
<path d="M343.011,336.795v 9.22726" fill="none" stroke="black"/>
<path d="M362.027,341.409v 4.61363" fill="none" stroke="black"/>
<path d="M381.044,341.409v 4.61363" fill="none" stroke="black"/>
<path d="M400.06,341.409v 4.61363" fill="none" stroke="black"/>
<path d="M419.077,341.409v 4.61363" fill="none" stroke="black"/>
<path d="M438.093,336.795v 9.22726" fill="none" stroke="black"/>
<path d="M57.7634,336.795v 9.22726" fill="none" stroke="black"/>
<path d="M438.093,336.795v 9.22726" fill="none" stroke="black"/>
<path d="M457.11,341.409v 4.61363" fill="none" stroke="black"/>
<path d="M476.126,341.409v 4.61363" fill="none" stroke="black"/>
<path d="M495.143,341.409v 4.61363" fill="none" stroke="black"/>
<text xml:space="preserve" x="54.2605" y="358.403" fill="black" font-size="12.8453" font-family="Helvetica">0</text>
<text xml:space="preserve" x="142.232" y="358.403" fill="black" font-size="12.8453" font-family="Helvetica">500</text>
<text xml:space="preserve" x="233.462" y="358.403" fill="black" font-size="12.8453" font-family="Helvetica">1000</text>
<text xml:space="preserve" x="328.765" y="358.403" fill="black" font-size="12.8453" font-family="Helvetica">1500</text>
<text xml:space="preserve" x="424.068" y="358.403" fill="black" font-size="12.8453" font-family="Helvetica">2000</text>
<text xml:space="preserve" x="451.763" y="372.251" fill="black" font-size="12.8453" font-family="Helvetica">ADC value</text>
<path d="M57.1929,346.022v -307.575" fill="none" stroke="black"/>
<path d="M70.7992,346.022h -13.6063" fill="none" stroke="black"/>
<path d="M63.9961,337.199h -6.80315" fill="none" stroke="black"/>
<path d="M63.9961,328.376h -6.80315" fill="none" stroke="black"/>
<path d="M63.9961,319.553h -6.80315" fill="none" stroke="black"/>
<path d="M63.9961,310.73h -6.80315" fill="none" stroke="black"/>
<path d="M70.7992,301.906h -13.6063" fill="none" stroke="black"/>
<path d="M63.9961,293.083h -6.80315" fill="none" stroke="black"/>
<path d="M63.9961,284.26h -6.80315" fill="none" stroke="black"/>
<path d="M63.9961,275.437h -6.80315" fill="none" stroke="black"/>
<path d="M63.9961,266.614h -6.80315" fill="none" stroke="black"/>
<path d="M70.7992,257.791h -13.6063" fill="none" stroke="black"/>
<path d="M63.9961,248.967h -6.80315" fill="none" stroke="black"/>
<path d="M63.9961,240.144h -6.80315" fill="none" stroke="black"/>
<path d="M63.9961,231.321h -6.80315" fill="none" stroke="black"/>
<path d="M63.9961,222.498h -6.80315" fill="none" stroke="black"/>
<path d="M70.7992,213.675h -13.6063" fill="none" stroke="black"/>
<path d="M63.9961,204.852h -6.80315" fill="none" stroke="black"/>
<path d="M63.9961,196.029h -6.80315" fill="none" stroke="black"/>
<path d="M63.9961,187.205h -6.80315" fill="none" stroke="black"/>
<path d="M63.9961,178.382h -6.80315" fill="none" stroke="black"/>
<path d="M70.7992,169.559h -13.6063" fill="none" stroke="black"/>
<path d="M63.9961,160.736h -6.80315" fill="none" stroke="black"/>
<path d="M63.9961,151.913h -6.80315" fill="none" stroke="black"/>
<path d="M63.9961,143.09h -6.80315" fill="none" stroke="black"/>
<path d="M63.9961,134.266h -6.80315" fill="none" stroke="black"/>
<path d="M70.7992,125.443h -13.6063" fill="none" stroke="black"/>
<path d="M63.9961,116.62h -6.80315" fill="none" stroke="black"/>
<path d="M63.9961,107.797h -6.80315" fill="none" stroke="black"/>
<path d="M63.9961,98.9738h -6.80315" fill="none" stroke="black"/>
<path d="M63.9961,90.1506h -6.80315" fill="none" stroke="black"/>
<path d="M70.7992,81.3275h -13.6063" fill="none" stroke="black"/>
<path d="M70.7992,81.3275h -13.6063" fill="none" stroke="black"/>
<path d="M63.9961,72.5043h -6.80315" fill="none" stroke="black"/>
<path d="M63.9961,63.6812h -6.80315" fill="none" stroke="black"/>
<path d="M63.9961,54.858h -6.80315" fill="none" stroke="black"/>
<path d="M63.9961,46.0348h -6.80315" fill="none" stroke="black"/>
<text xml:space="preserve" x="47.7441" y="350.258" fill="black" font-size="12.8453" font-family="Helvetica">0</text>
<text xml:space="preserve" x="41.2277" y="306.272" fill="black" font-size="12.8453" font-family="Helvetica">50</text>
<text xml:space="preserve" x="33.8967" y="262.286" fill="black" font-size="12.8453" font-family="Helvetica">100</text>
<text xml:space="preserve" x="33.8967" y="218.3" fill="black" font-size="12.8453" font-family="Helvetica">150</text>
<text xml:space="preserve" x="33.8967" y="174.314" fill="black" font-size="12.8453" font-family="Helvetica">200</text>
<text xml:space="preserve" x="33.8967" y="130.329" fill="black" font-size="12.8453" font-family="Helvetica">250</text>
<text xml:space="preserve" x="33.8967" y="85.5281" fill="black" font-size="12.8453" font-family="Helvetica">300</text>
<g transform="rotate(-90,20.8638,70.0516)">
<text xml:space="preserve" x="20.8638" y="70.0516" fill="black" font-size="12.8453" font-family="Helvetica">Event</text>
</g>
<text xml:space="preserve" x="253.012" y="18.7347" fill="black" font-size="18.0316" font-family="Helvetica">Cs_012</text>
<rect x="442.705" y="24.9905" width="113.386" height="61.5151" fill="white"/>
<path d="M442.705,86.5056h 113.386" fill="none" stroke="black"/>
<path d="M556.091,86.5056v -61.5151" fill="none" stroke="black"/>
<path d="M556.091,24.9905h -113.386" fill="none" stroke="black"/>
<path d="M442.705,24.9905v 61.5151" fill="none" stroke="black"/>
<text xml:space="preserve" x="476.199" y="36.6549" fill="black" font-size="13.4802" font-family="Helvetica">Cs_012</text>
<path d="M442.705,40.3693h 113.386" fill="none" stroke="black"/>
<text xml:space="preserve" x="447.69" y="52.946" fill="black" font-size="13.0654" font-family="Helvetica">Entries </text>
<text xml:space="preserve" x="517.741" y="52.946" fill="black" font-size="13.0654" font-family="Helvetica"> 6327</text>
<text xml:space="preserve" x="447.69" y="67.6079" fill="black" font-size="13.0654" font-family="Helvetica">Mean  </text>
<text xml:space="preserve" x="510.41" y="67.6079" fill="black" font-size="13.0654" font-family="Helvetica">   1687</text>
<text xml:space="preserve" x="447.69" y="83.0844" fill="black" font-size="13.0654" font-family="Helvetica">Std Dev   </text>
<text xml:space="preserve" x="510.41" y="83.0844" fill="black" font-size="13.0654" font-family="Helvetica">  668.6</text>
<text xml:space="preserve" x="253.012" y="18.7347" fill="black" font-size="18.0316" font-family="Helvetica">Cs_012</text></svg>
