<?xml version="1.0" standalone="no"?>
<svg width="567.429" height="384.969" viewBox="0 0 567.429 384.969" xmlns="http://www.w3.org/2000/svg" shape-rendering="crispEdges">
<title>
img/week1/plane_hist/Cs_009.svg
</title>
<desc>
Creator: ROOT Version 6.22/09
CreationDate: Fri Jul  2 19:48:01 2021</desc>
<defs>
</defs>
<rect x="0.5" y="0" width="566.929" height="384.469" fill="white"/>
<rect x="57.1929" y="38.4469" width="453.543" height="307.575" fill="white"/>
<rect x="57.1929" y="38.4469" width="453.543" height="307.575" fill="none" stroke="black"/>
<path d="M57.1929,346.022h 34.9902v -1.30191h 0.442913v 1.30191h 0.442913v -24.7362h 0.442913v -55.982h 0.442913v -75.5106h 0.442913v -19.5286h 0.442913v 36.4534h 0.442913v 42.9629h 0.442913v 14.321h 0.442913v -18.2267h 0.442913v 46.8686h 0.442913v
 13.0191h 0.442913v 18.2267h 0.442913v -11.7172h 0.442913v 7.81144h 0.442913v 16.9248h 0.442913v 1.30191h 0.442913v -1.30191h 0.442913v -3.90572h 0.442913v 6.50953h 0.442913v -6.50953h 0.442913v 6.50953h 0.442913v -5.20762h 0.442913v 1.30191h
 0.442913v 5.20762h 0.885827v 2.60381h 0.442913v -2.60381h 0.442913v -6.50953h 0.442913v 7.81144h 1.32874v -1.30191h 0.442913v 3.90572h 0.442913v -3.90572h 0.885827v 1.30191h 0.442913v -1.30191h 0.442913v 1.30191h 0.885827v 2.60381h 1.77165v
 -3.90572h 0.442913v -1.30191h 0.442913v 5.20762h 0.442913v -5.20762h 0.885827v 1.30191h 0.885827v 5.20762h 0.442913v -2.60381h 0.885827v -3.90572h 0.442913v 1.30191h 0.442913v 2.60381h 0.442913v 1.30191h 0.442913v -1.30191h 0.442913v -1.30191h
 0.442913v -1.30191h 1.32874v 3.90572h 0.442913v -1.30191h 0.442913v 1.30191h 0.442913v -2.60381h 1.32874v 1.30191h 0.885827v -5.20762h 0.442913v 6.50953h 0.885827v -3.90572h 0.442913v 2.60381h 0.442913v 1.30191h 0.442913v -2.60381h 0.442913v
 1.30191h 0.442913v -2.60381h 0.442913v 2.60381h 0.442913v -1.30191h 0.442913v -2.60381h 0.442913v 2.60381h 0.442913v 2.60381h 0.885827v -5.20762h 0.442913v 1.30191h 0.442913v 2.60381h 0.442913v 1.30191h 0.442913v -2.60381h 0.442913v 2.60381h
 1.32874v -3.90572h 0.442913v 2.60381h 0.442913v -1.30191h 0.442913v -2.60381h 0.442913v 6.50953h 0.885827v -2.60381h 0.442913v 1.30191h 0.442913v -1.30191h 0.442913v 1.30191h 0.442913v -1.30191h 0.885827v -1.30191h 0.442913v 2.60381h 0.442913v
 -2.60381h 0.442913v -1.30191h 0.442913v 3.90572h 0.442913v -3.90572h 0.442913v 2.60381h 0.442913v 2.60381h 0.885827v -2.60381h 0.885827v -1.30191h 0.442913v 2.60381h 0.442913v -1.30191h 0.885827v 2.60381h 0.442913v -3.90572h 0.442913v 1.30191h
 1.32874v 1.30191h 1.32874v -1.30191h 0.885827v -2.60381h 0.442913v 2.60381h 0.442913v 1.30191h 0.442913v -1.30191h 0.442913v -1.30191h 0.442913v 1.30191h 0.442913v 2.60381h 0.442913v -1.30191h 0.442913v -2.60381h 0.442913v 1.30191h 0.442913v
 2.60381h 0.442913v -2.60381h 0.442913v -2.60381h 0.442913v 3.90572h 0.442913v -1.30191h 0.885827v -1.30191h 0.885827v -1.30191h 0.442913v 2.60381h 0.442913v 1.30191h 0.442913v -1.30191h 0.442913v -1.30191h 0.442913v 2.60381h 0.442913v -1.30191h
 0.885827v -1.30191h 0.442913v 2.60381h 0.442913v -2.60381h 0.442913v 1.30191h 0.442913v -2.60381h 0.442913v 1.30191h 1.32874v 1.30191h 0.442913v 1.30191h 1.32874v -2.60381h 0.442913v 2.60381h 1.77165v -3.90572h 0.442913v 2.60381h 0.442913v 1.30191h
 0.442913v -1.30191h 0.442913v 2.60381h 0.442913v -3.90572h 1.32874v 2.60381h 1.32874v -1.30191h 0.442913v 1.30191h 0.442913v -2.60381h 0.442913v 3.90572h 0.442913v -3.90572h 0.885827v 1.30191h 0.885827v -1.30191h 0.885827v 1.30191h 0.885827v
 1.30191h 0.442913v -1.30191h 0.885827v 2.60381h 0.442913v -2.60381h 0.442913v 1.30191h 0.442913v -3.90572h 0.885827v 2.60381h 0.442913v -1.30191h 0.442913v 2.60381h 0.885827v 1.30191h 0.442913v -1.30191h 0.442913v -1.30191h 0.442913v -3.90572h
 0.442913v 3.90572h 0.442913v -1.30191h 0.442913v 1.30191h 0.442913v -1.30191h 0.885827v 3.90572h 0.442913v -2.60381h 0.885827v 1.30191h 0.885827v -5.20762h 0.442913v -1.30191h 0.442913v 3.90572h 0.442913v -3.90572h 0.442913v 5.20762h 0.442913v
 -1.30191h 0.442913v 1.30191h 0.442913v -6.50953h 0.442913v 2.60381h 0.885827v 3.90572h 0.442913v -2.60381h 0.885827v 2.60381h 0.885827v -7.81144h 0.442913v 2.60381h 0.442913v -3.90572h 0.442913v 2.60381h 0.442913v 6.50953h 0.442913v -7.81144h
 0.442913v 5.20762h 0.442913v -6.50953h 0.442913v 3.90572h 0.442913v 3.90572h 0.442913v -2.60381h 0.442913v -1.30191h 0.442913v 3.90572h 0.885827v -3.90572h 0.442913v -1.30191h 0.442913v 5.20762h 0.442913v -5.20762h 0.442913v 1.30191h 0.442913v
 6.50953h 0.442913v -1.30191h 0.885827v 1.30191h 0.885827v -9.11334h 0.442913v 5.20762h 0.885827v -1.30191h 0.442913v 1.30191h 0.442913v -3.90572h 0.442913v 7.81144h 0.442913v -2.60381h 0.442913v -1.30191h 0.442913v 1.30191h 0.442913v -1.30191h
 0.885827v 3.90572h 0.442913v -2.60381h 0.442913v -2.60381h 0.442913v 5.20762h 0.442913v -6.50953h 0.442913v 6.50953h 0.885827v -1.30191h 0.442913v -3.90572h 0.442913v 3.90572h 0.442913v -1.30191h 0.885827v -1.30191h 0.442913v 3.90572h 0.442913v
 1.30191h 0.442913v -1.30191h 0.885827v -2.60381h 0.442913v 1.30191h 0.442913v -2.60381h 0.442913v 1.30191h 0.442913v 1.30191h 0.442913v -3.90572h 0.442913v 5.20762h 0.442913v -2.60381h 0.442913v 2.60381h 0.885827v -1.30191h 0.442913v 1.30191h
 0.442913v -1.30191h 0.442913v 1.30191h 0.442913v -2.60381h 0.442913v 1.30191h 0.442913v -1.30191h 0.442913v -1.30191h 0.442913v 5.20762h 0.442913v -1.30191h 1.77165v -1.30191h 0.442913v 1.30191h 0.442913v -6.50953h 0.442913v 3.90572h 0.442913v
 1.30191h 0.442913v -2.60381h 0.442913v 5.20762h 0.442913v -3.90572h 0.442913v 1.30191h 0.442913v -1.30191h 0.442913v 3.90572h 0.442913v -2.60381h 0.885827v 1.30191h 0.885827v -1.30191h 0.442913v -1.30191h 0.442913v -2.60381h 0.442913v -2.60381h
 0.442913v 7.81144h 0.442913v -2.60381h 1.32874v -1.30191h 0.442913v 2.60381h 0.442913v -3.90572h 0.442913v 2.60381h 0.442913v -3.90572h 0.442913v 3.90572h 0.885827v 2.60381h 0.442913v -10.4152h 0.442913v 11.7172h 0.442913v -2.60381h 0.442913v
 -3.90572h 0.442913v 3.90572h 0.442913v -1.30191h 0.442913v -10.4152h 0.442913v 11.7172h 0.442913v -2.60381h 0.442913v -2.60381h 0.442913v 3.90572h 0.442913v -5.20762h 0.442913v 1.30191h 0.442913v 1.30191h 0.442913v -5.20762h 0.442913v 7.81144h
 0.442913v -6.50953h 0.442913v -1.30191h 0.442913v -3.90572h 0.442913v -9.11334h 0.442913v 7.81144h 0.442913v 10.4152h 0.442913v -1.30191h 0.442913v -3.90572h 0.442913v -2.60381h 0.442913v -6.50953h 0.442913v 10.4152h 0.442913v -3.90572h 0.442913v
 1.30191h 0.442913v -6.50953h 0.442913v 2.60381h 0.442913v 5.20762h 0.442913v -14.321h 0.442913v 13.0191h 0.442913v -9.11334h 0.442913v 6.50953h 0.442913v -7.81144h 0.442913v 7.81144h 0.442913v -6.50953h 0.442913v 2.60381h 0.442913v 1.30191h
 0.442913v -6.50953h 0.442913v 1.30191h 0.442913v 3.90572h 0.442913v 5.20762h 0.442913v -6.50953h 0.442913v 5.20762h 0.442913v 3.90572h 0.442913v 2.60381h 0.442913v -10.4152h 0.442913v 10.4152h 0.442913v -6.50953h 0.442913v -1.30191h 0.442913v
 7.81144h 0.442913v -1.30191h 0.442913v -2.60381h 0.442913v -1.30191h 0.885827v 7.81144h 0.442913v -9.11334h 0.442913v -2.60381h 0.442913v 9.11334h 0.442913v -6.50953h 0.442913v 11.7172h 0.442913v -11.7172h 0.442913v 6.50953h 0.442913v 1.30191h
 0.442913v 1.30191h 0.442913v 1.30191h 0.442913v 1.30191h 0.442913v -3.90572h 0.442913v 1.30191h 0.442913v -2.60381h 0.442913v 1.30191h 0.885827v 2.60381h 0.442913v 1.30191h 0.442913v -5.20762h 0.442913v 2.60381h 0.442913v 1.30191h 1.32874v -2.60381h
 0.442913v 7.81144h 0.442913v -3.90572h 0.442913v 2.60381h 0.442913v -3.90572h 0.442913v 1.30191h 0.885827v -3.90572h 0.442913v 6.50953h 0.442913v -2.60381h 0.442913v -2.60381h 0.442913v 6.50953h 0.442913v -3.90572h 0.442913v 1.30191h 0.885827v
 -1.30191h 0.442913v -1.30191h 0.442913v 2.60381h 0.442913v -3.90572h 0.442913v 6.50953h 0.442913v -5.20762h 0.442913v 1.30191h 1.32874v -3.90572h 0.885827v 6.50953h 0.442913v -1.30191h 0.442913v -1.30191h 0.442913v 1.30191h 0.885827v -1.30191h
 0.442913v -1.30191h 0.885827v -2.60381h 0.442913v 3.90572h 0.442913v 1.30191h 0.885827v -2.60381h 0.442913v 1.30191h 0.442913v -1.30191h 0.442913v 2.60381h 0.442913v -3.90572h 0.442913v 3.90572h 0.442913v -2.60381h 0.442913v 3.90572h 0.442913v
 -3.90572h 0.442913v 3.90572h 0.885827v -1.30191h 0.442913v 1.30191h 0.442913v -5.20762h 0.442913v 5.20762h 0.442913v -3.90572h 0.442913v 5.20762h 0.885827v -1.30191h 0.885827v -2.60381h 0.442913v 1.30191h 0.442913v -1.30191h 0.442913v 2.60381h
 0.442913v -3.90572h 0.442913v 3.90572h 0.442913v 1.30191h 0.442913v -1.30191h 0.442913v 1.30191h 0.442913v -2.60381h 0.442913v 2.60381h 0.885827v -1.30191h 0.442913v 1.30191h 0.442913v -2.60381h 0.885827v 1.30191h 0.442913v 1.30191h 0.442913v
 -1.30191h 0.442913v 1.30191h 0.442913v -2.60381h 0.442913v 2.60381h 0.885827v -1.30191h 0.442913v -3.90572h 0.442913v 2.60381h 0.442913v 1.30191h 1.32874v -1.30191h 0.442913v 2.60381h 0.885827v -3.90572h 0.442913v 3.90572h 0.442913v -3.90572h
 0.442913v 2.60381h 0.442913v -1.30191h 0.442913v 2.60381h 0.442913v -1.30191h 0.442913v 1.30191h 0.442913v -5.20762h 0.442913v 2.60381h 0.442913v 2.60381h 0.442913v -1.30191h 0.885827v 1.30191h 0.442913v -1.30191h 1.32874v 1.30191h 0.885827v
 -2.60381h 0.442913v 1.30191h 0.442913v 1.30191h 0.885827v -1.30191h 0.442913v -1.30191h 0.442913v 2.60381h 0.442913v -1.30191h 0.442913v -1.30191h 0.442913v 1.30191h 0.885827v 1.30191h 1.32874v -2.60381h 0.442913v 1.30191h 0.442913v -3.90572h
 0.442913v 5.20762h 0.442913v -1.30191h 0.442913v -1.30191h 0.442913v 1.30191h 0.442913v 1.30191h 0.442913v -2.60381h 0.442913v 2.60381h 0.885827v -1.30191h 1.32874v 1.30191h 0.442913v -1.30191h 0.442913v 1.30191h 0.442913v -2.60381h 0.442913v
 2.60381h 0.442913v -2.60381h 0.442913v 1.30191h 0.885827v 1.30191h 0.885827v -1.30191h 0.442913v 1.30191h 0.885827v -1.30191h 0.442913v 1.30191h 0.885827v -2.60381h 0.442913v 2.60381h 0.442913v -1.30191h 0.885827v 1.30191h 0.442913v -1.30191h
 0.442913v -1.30191h 0.442913v 2.60381h 0.442913v -1.30191h 0.442913v 1.30191h 0.442913v -2.60381h 0.442913v 2.60381h 0.442913v -1.30191h 0.442913v 1.30191h 0.442913v -1.30191h 0.442913v 1.30191h 1.77165v -2.60381h 0.442913v 2.60381h 0.442913v
 -1.30191h 0.885827v -2.60381h 0.442913v 2.60381h 0.442913v 1.30191h 0.442913v -5.20762h 0.442913v -11.7172h 0.442913v -84.6239h 0.442913v -110.662h 0.442913v -80.7182h 0.442913v 7.81144h 0.442913v 72.9067h 0.442913v 22.1324h 0.442913v 27.34h
 0.442913v 59.8877h 0.442913v 24.7362h 0.442913v 19.5286h 0.442913v -13.0191h 0.442913v 18.2267h 0.442913v -14.321h 0.442913v 20.8305h 0.442913v -2.60381h 0.442913v -9.11334h 0.442913v 20.8305h 0.442913v -7.81144h 0.442913v -2.60381h 0.442913v
 2.60381h 0.442913v -3.90572h 0.442913v 11.7172h 0.442913v 3.90572h 0.442913v -19.5286h 0.442913v 10.4152h 0.442913v 11.7172h 0.885827v -16.9248h 0.442913v 7.81144h 0.442913v -2.60381h 0.442913v 11.7172h 0.442913v -5.20762h 0.442913v 1.30191h
 0.442913v -3.90572h 0.442913v 7.81144h 0.442913v -3.90572h 0.442913v 2.60381h 0.442913v -3.90572h 0.442913v 6.50953h 0.442913v 6.50953h 0.442913v 3.90572h 0.442913v 11.7172h 0.442913v 3.90572h 0.442913v 2.60381h 0.885827v 1.30191h 129.331"
 fill="none" stroke="#000099"/>
<path d="M57.1929,346.022h 453.543" fill="none" stroke="black"/>
<path d="M57.1929,336.795v 9.22726" fill="none" stroke="black"/>
<path d="M71.9567,341.409v 4.61363" fill="none" stroke="black"/>
<path d="M86.7205,341.409v 4.61363" fill="none" stroke="black"/>
<path d="M101.484,341.409v 4.61363" fill="none" stroke="black"/>
<path d="M116.248,341.409v 4.61363" fill="none" stroke="black"/>
<path d="M131.012,336.795v 9.22726" fill="none" stroke="black"/>
<path d="M145.776,341.409v 4.61363" fill="none" stroke="black"/>
<path d="M160.539,341.409v 4.61363" fill="none" stroke="black"/>
<path d="M175.303,341.409v 4.61363" fill="none" stroke="black"/>
<path d="M190.067,341.409v 4.61363" fill="none" stroke="black"/>
<path d="M204.831,336.795v 9.22726" fill="none" stroke="black"/>
<path d="M219.594,341.409v 4.61363" fill="none" stroke="black"/>
<path d="M234.358,341.409v 4.61363" fill="none" stroke="black"/>
<path d="M249.122,341.409v 4.61363" fill="none" stroke="black"/>
<path d="M263.886,341.409v 4.61363" fill="none" stroke="black"/>
<path d="M278.65,336.795v 9.22726" fill="none" stroke="black"/>
<path d="M293.413,341.409v 4.61363" fill="none" stroke="black"/>
<path d="M308.177,341.409v 4.61363" fill="none" stroke="black"/>
<path d="M322.941,341.409v 4.61363" fill="none" stroke="black"/>
<path d="M337.705,341.409v 4.61363" fill="none" stroke="black"/>
<path d="M352.469,336.795v 9.22726" fill="none" stroke="black"/>
<path d="M367.232,341.409v 4.61363" fill="none" stroke="black"/>
<path d="M381.996,341.409v 4.61363" fill="none" stroke="black"/>
<path d="M396.76,341.409v 4.61363" fill="none" stroke="black"/>
<path d="M411.524,341.409v 4.61363" fill="none" stroke="black"/>
<path d="M426.287,336.795v 9.22726" fill="none" stroke="black"/>
<path d="M441.051,341.409v 4.61363" fill="none" stroke="black"/>
<path d="M455.815,341.409v 4.61363" fill="none" stroke="black"/>
<path d="M470.579,341.409v 4.61363" fill="none" stroke="black"/>
<path d="M485.343,341.409v 4.61363" fill="none" stroke="black"/>
<path d="M500.106,336.795v 9.22726" fill="none" stroke="black"/>
<path d="M500.106,336.795v 9.22726" fill="none" stroke="black"/>
<text xml:space="preserve" x="53.446" y="358.403" fill="black" font-size="12.8453" font-family="Helvetica">0</text>
<text xml:space="preserve" x="120.239" y="358.403" fill="black" font-size="12.8453" font-family="Helvetica">500</text>
<text xml:space="preserve" x="190.291" y="358.403" fill="black" font-size="12.8453" font-family="Helvetica">1000</text>
<text xml:space="preserve" x="264.415" y="358.403" fill="black" font-size="12.8453" font-family="Helvetica">1500</text>
<text xml:space="preserve" x="338.54" y="358.403" fill="black" font-size="12.8453" font-family="Helvetica">2000</text>
<text xml:space="preserve" x="411.849" y="358.403" fill="black" font-size="12.8453" font-family="Helvetica">2500</text>
<text xml:space="preserve" x="485.974" y="358.403" fill="black" font-size="12.8453" font-family="Helvetica">3000</text>
<text xml:space="preserve" x="451.763" y="372.251" fill="black" font-size="12.8453" font-family="Helvetica">ADC value</text>
<path d="M57.1929,346.022v -307.575" fill="none" stroke="black"/>
<path d="M70.7992,346.022h -13.6063" fill="none" stroke="black"/>
<path d="M63.9961,339.513h -6.80315" fill="none" stroke="black"/>
<path d="M63.9961,333.003h -6.80315" fill="none" stroke="black"/>
<path d="M63.9961,326.494h -6.80315" fill="none" stroke="black"/>
<path d="M70.7992,319.984h -13.6063" fill="none" stroke="black"/>
<path d="M63.9961,313.475h -6.80315" fill="none" stroke="black"/>
<path d="M63.9961,306.965h -6.80315" fill="none" stroke="black"/>
<path d="M63.9961,300.456h -6.80315" fill="none" stroke="black"/>
<path d="M70.7992,293.946h -13.6063" fill="none" stroke="black"/>
<path d="M63.9961,287.436h -6.80315" fill="none" stroke="black"/>
<path d="M63.9961,280.927h -6.80315" fill="none" stroke="black"/>
<path d="M63.9961,274.417h -6.80315" fill="none" stroke="black"/>
<path d="M70.7992,267.908h -13.6063" fill="none" stroke="black"/>
<path d="M63.9961,261.398h -6.80315" fill="none" stroke="black"/>
<path d="M63.9961,254.889h -6.80315" fill="none" stroke="black"/>
<path d="M63.9961,248.379h -6.80315" fill="none" stroke="black"/>
<path d="M70.7992,241.87h -13.6063" fill="none" stroke="black"/>
<path d="M63.9961,235.36h -6.80315" fill="none" stroke="black"/>
<path d="M63.9961,228.851h -6.80315" fill="none" stroke="black"/>
<path d="M63.9961,222.341h -6.80315" fill="none" stroke="black"/>
<path d="M70.7992,215.832h -13.6063" fill="none" stroke="black"/>
<path d="M63.9961,209.322h -6.80315" fill="none" stroke="black"/>
<path d="M63.9961,202.813h -6.80315" fill="none" stroke="black"/>
<path d="M63.9961,196.303h -6.80315" fill="none" stroke="black"/>
<path d="M70.7992,189.794h -13.6063" fill="none" stroke="black"/>
<path d="M63.9961,183.284h -6.80315" fill="none" stroke="black"/>
<path d="M63.9961,176.774h -6.80315" fill="none" stroke="black"/>
<path d="M63.9961,170.265h -6.80315" fill="none" stroke="black"/>
<path d="M70.7992,163.755h -13.6063" fill="none" stroke="black"/>
<path d="M63.9961,157.246h -6.80315" fill="none" stroke="black"/>
<path d="M63.9961,150.736h -6.80315" fill="none" stroke="black"/>
<path d="M63.9961,144.227h -6.80315" fill="none" stroke="black"/>
<path d="M70.7992,137.717h -13.6063" fill="none" stroke="black"/>
<path d="M63.9961,131.208h -6.80315" fill="none" stroke="black"/>
<path d="M63.9961,124.698h -6.80315" fill="none" stroke="black"/>
<path d="M63.9961,118.189h -6.80315" fill="none" stroke="black"/>
<path d="M70.7992,111.679h -13.6063" fill="none" stroke="black"/>
<path d="M63.9961,105.17h -6.80315" fill="none" stroke="black"/>
<path d="M63.9961,98.6601h -6.80315" fill="none" stroke="black"/>
<path d="M63.9961,92.1506h -6.80315" fill="none" stroke="black"/>
<path d="M70.7992,85.641h -13.6063" fill="none" stroke="black"/>
<path d="M63.9961,79.1315h -6.80315" fill="none" stroke="black"/>
<path d="M63.9961,72.622h -6.80315" fill="none" stroke="black"/>
<path d="M63.9961,66.1124h -6.80315" fill="none" stroke="black"/>
<path d="M70.7992,59.6029h -13.6063" fill="none" stroke="black"/>
<path d="M70.7992,59.6029h -13.6063" fill="none" stroke="black"/>
<path d="M63.9961,53.0934h -6.80315" fill="none" stroke="black"/>
<path d="M63.9961,46.5838h -6.80315" fill="none" stroke="black"/>
<path d="M63.9961,40.0743h -6.80315" fill="none" stroke="black"/>
<text xml:space="preserve" x="47.7441" y="350.258" fill="black" font-size="12.8453" font-family="Helvetica">0</text>
<text xml:space="preserve" x="41.2277" y="324.192" fill="black" font-size="12.8453" font-family="Helvetica">20</text>
<text xml:space="preserve" x="41.2277" y="298.127" fill="black" font-size="12.8453" font-family="Helvetica">40</text>
<text xml:space="preserve" x="41.2277" y="272.061" fill="black" font-size="12.8453" font-family="Helvetica">60</text>
<text xml:space="preserve" x="41.2277" y="245.995" fill="black" font-size="12.8453" font-family="Helvetica">80</text>
<text xml:space="preserve" x="33.8967" y="219.929" fill="black" font-size="12.8453" font-family="Helvetica">100</text>
<text xml:space="preserve" x="33.8967" y="194.678" fill="black" font-size="12.8453" font-family="Helvetica">120</text>
<text xml:space="preserve" x="33.8967" y="168.613" fill="black" font-size="12.8453" font-family="Helvetica">140</text>
<text xml:space="preserve" x="33.8967" y="142.547" fill="black" font-size="12.8453" font-family="Helvetica">160</text>
<text xml:space="preserve" x="33.8967" y="116.481" fill="black" font-size="12.8453" font-family="Helvetica">180</text>
<text xml:space="preserve" x="33.8967" y="90.4154" fill="black" font-size="12.8453" font-family="Helvetica">200</text>
<text xml:space="preserve" x="33.8967" y="64.3497" fill="black" font-size="12.8453" font-family="Helvetica">220</text>
<g transform="rotate(-90,20.8638,70.0516)">
<text xml:space="preserve" x="20.8638" y="70.0516" fill="black" font-size="12.8453" font-family="Helvetica">Event</text>
</g>
<text xml:space="preserve" x="253.012" y="18.7347" fill="black" font-size="18.0316" font-family="Helvetica">Cs_009</text>
<rect x="442.705" y="24.9905" width="113.386" height="61.5151" fill="white"/>
<path d="M442.705,86.5056h 113.386" fill="none" stroke="black"/>
<path d="M556.091,86.5056v -61.5151" fill="none" stroke="black"/>
<path d="M556.091,24.9905h -113.386" fill="none" stroke="black"/>
<path d="M442.705,24.9905v 61.5151" fill="none" stroke="black"/>
<text xml:space="preserve" x="476.199" y="36.6549" fill="black" font-size="13.4802" font-family="Helvetica">Cs_009</text>
<path d="M442.705,40.3693h 113.386" fill="none" stroke="black"/>
<text xml:space="preserve" x="447.69" y="52.946" fill="black" font-size="13.0654" font-family="Helvetica">Entries </text>
<text xml:space="preserve" x="517.741" y="52.946" fill="black" font-size="13.0654" font-family="Helvetica"> 5042</text>
<text xml:space="preserve" x="447.69" y="67.6079" fill="black" font-size="13.0654" font-family="Helvetica">Mean  </text>
<text xml:space="preserve" x="510.41" y="67.6079" fill="black" font-size="13.0654" font-family="Helvetica">   1443</text>
<text xml:space="preserve" x="447.69" y="83.0844" fill="black" font-size="13.0654" font-family="Helvetica">Std Dev   </text>
<text xml:space="preserve" x="512.854" y="83.899" fill="black" font-size="13.0654" font-family="Helvetica">  724.1</text>
<text xml:space="preserve" x="253.012" y="18.7347" fill="black" font-size="18.0316" font-family="Helvetica">Cs_009</text></svg>
