<?xml version="1.0" standalone="no"?>
<svg width="567.429" height="384.969" viewBox="0 0 567.429 384.969" xmlns="http://www.w3.org/2000/svg" shape-rendering="crispEdges">
<title>
img/week1/plane_hist/Cs_007.svg
</title>
<desc>
Creator: ROOT Version 6.22/09
CreationDate: Fri Jul  2 19:47:57 2021</desc>
<defs>
</defs>
<rect x="0.5" y="0" width="566.929" height="384.469" fill="white"/>
<rect x="57.1929" y="38.4469" width="453.543" height="307.575" fill="white"/>
<rect x="57.1929" y="38.4469" width="453.543" height="307.575" fill="none" stroke="black"/>
<path d="M57.1929,346.022h 24.3602v -1.93512h 0.442913v -37.7349h 0.442913v -149.246h 0.442913v -104.013h 0.442913v 57.3279h 0.442913v 51.0388h 0.442913v 22.4958h 0.442913v 32.1714h 0.442913v 32.4133h 0.442913v 34.8322h 0.442913v 14.5134h 0.442913v
 8.70804h 0.442913v 6.77292h 0.442913v 14.7553h 0.442913v 5.07969h 0.442913v -2.90268h 0.442913v 5.56347h 0.442913v 1.69323h 0.442913v 3.38646h 0.442913v 0.72567h 0.442913v 1.20945h 0.442913v -0.96756h 0.442913v 3.38646h 0.442913v -1.93512h 0.442913v
 0.96756h 0.442913v 1.45134h 0.442913v -1.69323h 0.442913v 1.45134h 0.442913v -0.96756h 0.442913v 0.48378h 0.442913v -0.24189h 0.442913v 0.72567h 0.442913v -0.24189h 0.885827v 0.24189h 0.442913v -0.48378h 0.442913v -0.72567h 0.442913v 0.96756h
 0.442913v -0.96756h 0.885827v 0.72567h 0.442913v 0.72567h 0.442913v -0.72567h 0.442913v 0.72567h 0.885827v -0.96756h 0.442913v 0.24189h 0.442913v -0.48378h 0.442913v -0.72567h 0.442913v 1.45134h 0.442913v -0.72567h 0.442913v 0.24189h 0.442913v
 0.24189h 0.442913v -0.48378h 0.442913v -0.72567h 0.442913v 1.20945h 0.442913v -0.72567h 0.442913v 0.48378h 0.442913v 0.24189h 0.442913v 0.24189h 0.442913v -0.24189h 0.442913v 0.24189h 0.442913v 0.24189h 0.442913v -0.96756h 0.442913v 0.96756h
 0.442913v -0.48378h 1.32874v 0.72567h 0.442913v -0.96756h 0.442913v 0.48378h 0.442913v -0.24189h 0.442913v 0.24189h 0.442913v 0.24189h 0.442913v 0.24189h 0.442913v -0.72567h 0.442913v -0.24189h 0.885827v 0.96756h 0.442913v -0.96756h 0.442913v
 0.48378h 0.442913v -0.24189h 0.885827v 0.24189h 0.442913v -1.20945h 0.885827v 1.20945h 0.442913v -0.48378h 0.442913v -0.48378h 0.442913v 0.96756h 0.442913v -0.48378h 0.442913v -0.48378h 0.442913v 0.96756h 0.442913v 0.24189h 0.442913v -0.96756h
 0.442913v 0.48378h 0.442913v -0.24189h 0.442913v -0.24189h 0.442913v 0.72567h 0.442913v 0.48378h 0.442913v -0.72567h 0.442913v 0.48378h 0.442913v -0.24189h 0.442913v -0.48378h 0.442913v -0.48378h 0.442913v 0.96756h 0.442913v 0.48378h 0.442913v
 -0.72567h 0.442913v 0.24189h 0.442913v 0.24189h 0.885827v -0.72567h 0.885827v 0.48378h 0.442913v -0.24189h 0.442913v -0.48378h 0.442913v 0.72567h 0.442913v -0.24189h 0.442913v 0.24189h 0.442913v 0.24189h 0.442913v 0.24189h 0.442913v -1.20945h
 0.442913v 0.48378h 0.442913v 0.72567h 0.442913v -0.24189h 0.885827v -0.24189h 0.442913v 0.24189h 0.442913v -0.48378h 0.442913v 0.72567h 0.442913v 0.24189h 0.442913v -1.93512h 0.442913v 0.96756h 0.442913v 0.72567h 0.442913v 0.24189h 0.442913v
 -0.48378h 0.442913v -0.96756h 0.442913v 0.72567h 0.442913v 0.48378h 0.442913v -0.96756h 0.442913v 0.72567h 0.442913v -0.96756h 0.442913v 0.96756h 0.442913v -0.72567h 1.32874v 0.24189h 0.442913v 0.72567h 0.442913v -0.24189h 0.442913v -0.96756h
 0.442913v 0.96756h 0.442913v -0.24189h 0.442913v 0.48378h 0.442913v -0.48378h 0.442913v 0.24189h 0.442913v -1.20945h 0.442913v 0.96756h 0.885827v -0.24189h 0.442913v -1.45134h 0.442913v 1.93512h 0.885827v -0.72567h 0.885827v -1.45134h 0.442913v
 1.93512h 0.442913v -0.96756h 0.885827v 1.20945h 0.442913v -0.48378h 0.885827v -0.72567h 0.885827v -0.96756h 0.442913v 1.45134h 0.442913v -0.24189h 0.885827v 0.24189h 0.442913v -0.72567h 0.442913v -0.72567h 0.442913v 0.72567h 0.442913v 0.72567h
 0.442913v -1.20945h 0.442913v 0.24189h 0.442913v 1.69323h 0.442913v -1.20945h 0.442913v -0.72567h 0.442913v 0.24189h 0.442913v 1.45134h 0.442913v -1.20945h 0.442913v -0.24189h 0.442913v 0.24189h 0.442913v 0.96756h 0.442913v -2.17701h 0.442913v
 2.17701h 0.442913v -0.72567h 0.442913v -0.24189h 0.885827v 0.24189h 0.442913v -1.20945h 0.442913v 1.69323h 0.442913v 0.24189h 0.442913v -0.72567h 0.442913v 0.72567h 0.442913v -1.45134h 0.442913v 1.20945h 0.442913v -0.48378h 0.442913v 0.72567h
 0.442913v -0.24189h 0.442913v -0.24189h 0.442913v 0.48378h 0.442913v 0.24189h 0.442913v -0.96756h 0.442913v 0.96756h 0.442913v -0.96756h 0.885827v 0.48378h 0.442913v -0.72567h 0.442913v 1.20945h 0.442913v -0.96756h 0.885827v 1.20945h 0.442913v
 -0.96756h 0.885827v 0.48378h 0.442913v 0.48378h 0.885827v -1.20945h 0.442913v -0.24189h 0.442913v 1.20945h 0.442913v 0.48378h 0.442913v -1.45134h 0.442913v 0.72567h 0.442913v -1.20945h 0.442913v 1.69323h 0.442913v -0.24189h 0.442913v -0.72567h
 0.442913v 0.48378h 0.885827v 0.48378h 0.442913v -0.24189h 0.442913v -0.96756h 0.442913v 0.96756h 0.442913v 0.48378h 0.885827v -1.20945h 1.32874v 0.48378h 0.885827v 0.48378h 0.442913v -0.48378h 0.442913v 0.24189h 0.442913v -0.72567h 0.442913v
 0.48378h 0.442913v -1.69323h 0.442913v 2.4189h 0.442913v -0.72567h 0.442913v 0.24189h 0.442913v -0.96756h 0.442913v 1.20945h 0.442913v -0.72567h 0.442913v -1.20945h 0.442913v 1.20945h 0.442913v -0.24189h 0.442913v -0.24189h 0.442913v 0.24189h
 0.442913v -1.69323h 0.442913v -0.48378h 0.442913v 0.96756h 0.442913v 1.20945h 0.442913v -0.48378h 0.442913v 0.48378h 0.442913v -1.20945h 0.442913v 0.48378h 0.442913v -2.17701h 0.442913v 1.20945h 0.885827v 0.72567h 0.885827v -0.24189h 0.442913v
 -0.48378h 0.442913v 0.72567h 0.442913v -2.66079h 0.442913v 0.72567h 0.442913v -0.24189h 0.442913v -0.48378h 0.442913v -0.24189h 0.442913v -0.48378h 0.442913v 1.69323h 0.442913v 0.24189h 0.442913v -0.24189h 0.442913v -1.69323h 0.442913v -0.72567h
 0.885827v 2.17701h 0.442913v -1.69323h 0.442913v -0.24189h 0.442913v 0.96756h 0.442913v 2.4189h 0.442913v -2.66079h 0.442913v 0.48378h 0.442913v -1.20945h 0.442913v 1.93512h 0.442913v -1.69323h 0.885827v 1.69323h 0.442913v 0.72567h 0.442913v
 -1.20945h 0.442913v 0.72567h 0.442913v -2.90268h 0.442913v 4.35402h 0.442913v -0.48378h 0.442913v 0.96756h 0.442913v -1.69323h 0.442913v 0.72567h 0.442913v -0.48378h 0.442913v 0.24189h 0.442913v -0.72567h 0.442913v 1.20945h 0.442913v -0.72567h
 0.442913v 1.69323h 0.442913v -1.45134h 0.442913v 1.93512h 0.442913v -0.96756h 0.442913v -1.20945h 0.442913v 0.72567h 0.442913v 1.45134h 0.442913v -1.20945h 0.442913v 1.45134h 0.885827v -0.72567h 0.442913v 0.72567h 0.442913v -0.24189h 0.442913v
 -0.48378h 0.442913v 1.69323h 0.442913v -0.72567h 0.442913v -0.72567h 0.442913v -1.20945h 0.442913v 2.17701h 0.885827v 0.48378h 0.442913v -0.72567h 0.442913v -0.48378h 0.442913v 0.48378h 0.442913v -2.4189h 0.442913v 2.66079h 0.442913v -1.93512h
 0.442913v 1.20945h 0.442913v -0.72567h 0.442913v -0.24189h 0.442913v -0.48378h 0.442913v 0.48378h 0.442913v 0.48378h 0.442913v -0.24189h 0.442913v 0.24189h 0.885827v 1.45134h 0.442913v -0.96756h 0.442913v -1.45134h 0.442913v 1.69323h 0.442913v
 -0.24189h 0.885827v 0.48378h 0.442913v -0.72567h 0.442913v 0.48378h 0.442913v 0.48378h 0.442913v -0.48378h 0.442913v 0.96756h 0.442913v -0.96756h 0.442913v 0.24189h 0.442913v 0.48378h 0.442913v -0.72567h 0.442913v 0.72567h 0.442913v -0.24189h
 0.442913v 0.24189h 0.885827v -0.24189h 0.442913v 0.48378h 0.885827v -0.48378h 0.442913v -0.24189h 0.442913v 0.48378h 0.442913v 0.24189h 0.442913v -0.24189h 0.442913v 0.24189h 0.442913v -0.24189h 0.885827v 0.24189h 0.442913v -0.48378h 0.442913v
 0.48378h 0.885827v 0.24189h 0.442913v -0.48378h 0.442913v -0.72567h 0.442913v 1.20945h 1.32874v -0.24189h 0.442913v -0.96756h 0.442913v 0.72567h 0.885827v 0.24189h 1.32874v -0.24189h 0.442913v 0.48378h 0.442913v -0.72567h 0.442913v 0.24189h
 0.442913v 0.48378h 0.442913v -0.72567h 0.442913v 0.24189h 0.442913v -0.48378h 0.442913v 0.72567h 0.442913v -0.48378h 0.442913v 0.48378h 0.442913v -0.24189h 0.442913v 0.48378h 0.442913v -0.48378h 0.442913v 0.24189h 0.442913v 0.24189h 0.442913v
 -0.72567h 0.442913v 0.48378h 0.442913v -0.24189h 0.442913v 0.48378h 0.442913v -0.48378h 0.442913v 0.24189h 0.885827v -0.24189h 0.442913v 0.24189h 0.442913v -0.48378h 0.442913v 0.48378h 0.442913v -0.48378h 0.442913v 0.48378h 0.442913v -0.48378h
 0.442913v 0.72567h 0.442913v -0.24189h 0.442913v -0.24189h 0.442913v -0.24189h 0.442913v 0.48378h 0.442913v 0.24189h 0.442913v -0.24189h 0.885827v -0.24189h 1.32874v 0.24189h 0.442913v -0.48378h 0.442913v -0.24189h 0.442913v 0.24189h 0.442913v
 0.48378h 0.442913v 0.24189h 0.442913v -0.24189h 0.442913v -0.24189h 0.442913v 0.24189h 0.442913v 0.24189h 0.442913v -0.24189h 0.885827v -0.24189h 0.442913v 0.24189h 0.442913v -0.24189h 1.32874v 0.24189h 0.442913v -0.24189h 0.442913v 0.24189h
 0.442913v 0.24189h 0.442913v -0.24189h 2.21457v -0.72567h 0.442913v 0.72567h 0.885827v 0.24189h 0.442913v -0.48378h 0.442913v 0.48378h 0.442913v -0.24189h 0.885827v -0.72567h 0.442913v 0.48378h 0.442913v 0.24189h 0.442913v -0.24189h 0.442913v
 -0.24189h 0.442913v 0.24189h 0.442913v 0.24189h 0.442913v 0.24189h 0.442913v -0.24189h 0.442913v -0.48378h 0.442913v 0.72567h 0.442913v -0.96756h 0.442913v 0.72567h 0.442913v -0.24189h 0.442913v 0.48378h 0.442913v -0.72567h 0.442913v 0.24189h
 0.442913v 0.24189h 0.885827v -0.96756h 0.885827v 0.96756h 0.442913v -0.24189h 0.442913v -0.48378h 0.442913v 0.48378h 0.885827v 0.48378h 0.442913v -0.24189h 0.885827v -0.48378h 0.442913v 0.72567h 0.885827v -0.48378h 0.442913v 0.24189h 0.442913v
 -0.24189h 0.442913v 0.24189h 0.442913v -0.24189h 0.442913v 0.24189h 0.442913v -0.72567h 0.442913v 0.24189h 0.442913v 0.24189h 0.442913v 0.24189h 0.442913v -0.72567h 0.442913v 0.96756h 1.32874v -0.24189h 0.442913v 0.24189h 0.442913v -0.48378h
 0.442913v 0.24189h 0.885827v -0.24189h 0.442913v 0.24189h 0.442913v 0.24189h 1.32874v -0.24189h 0.885827v -0.48378h 0.442913v 0.72567h 0.442913v -0.72567h 0.442913v 0.24189h 0.442913v -0.24189h 0.442913v 0.48378h 0.885827v 0.24189h 0.442913v
 -0.72567h 0.442913v 0.72567h 0.885827v -0.24189h 0.885827v -0.72567h 0.442913v 0.24189h 0.442913v 0.24189h 0.442913v -0.48378h 0.442913v 0.48378h 0.442913v 0.48378h 0.885827v -0.24189h 0.442913v -0.48378h 0.442913v 0.48378h 0.442913v -0.48378h
 0.442913v 0.24189h 0.442913v -0.24189h 0.442913v 0.24189h 0.885827v 0.24189h 0.442913v -0.24189h 0.442913v 0.24189h 0.442913v 0.24189h 0.442913v -0.24189h 0.442913v 0.24189h 0.885827v -0.24189h 0.442913v -0.24189h 0.442913v -0.48378h 0.442913v
 0.72567h 0.442913v -0.24189h 0.442913v 0.24189h 0.442913v -0.24189h 0.442913v 0.24189h 0.442913v 0.24189h 0.442913v -0.48378h 0.442913v 0.48378h 0.442913v -0.48378h 0.442913v 0.48378h 0.885827v -0.24189h 0.442913v -0.24189h 0.442913v -0.48378h
 0.442913v 0.72567h 0.885827v -0.72567h 0.442913v 0.96756h 0.442913v -0.24189h 0.442913v -0.24189h 0.442913v 0.48378h 0.442913v -0.48378h 0.442913v 0.24189h 0.442913v -0.24189h 0.442913v -0.72567h 0.442913v 1.20945h 1.32874v -0.72567h 0.442913v
 -0.24189h 0.442913v 0.48378h 0.442913v 0.48378h 0.442913v -0.48378h 0.442913v -0.24189h 0.442913v 0.24189h 1.77165v 0.24189h 0.885827v -0.24189h 0.442913v 0.24189h 0.885827v -0.24189h 0.442913v 0.48378h 1.77165v -0.48378h 0.442913v -0.24189h
 0.885827v -0.72567h 0.442913v -0.72567h 0.442913v -24.9147h 0.442913v -51.7645h 0.442913v 1.93512h 0.442913v 13.304h 0.442913v 13.304h 0.442913v 1.93512h 0.442913v 16.4485h 0.442913v 11.8526h 0.442913v 1.69323h 0.442913v 1.69323h 0.442913v 3.38646h
 0.442913v -1.45134h 0.442913v 5.80536h 0.442913v -4.8378h 0.442913v 2.4189h 0.442913v -0.72567h 0.442913v 4.35402h 0.442913v -3.62835h 0.442913v -1.20945h 0.442913v 3.14457h 0.442913v -2.17701h 0.442913v 2.4189h 0.442913v -0.96756h 0.442913v
 0.72567h 0.442913v 2.66079h 0.442913v -1.20945h 0.442913v -3.38646h 0.442913v 3.14457h 0.442913v -2.4189h 0.442913v 3.38646h 0.885827v 0.24189h 0.442913v -1.45134h 0.885827v 3.38646h 0.442913v -0.48378h 0.442913v -0.72567h 0.442913v 2.66079h
 0.442913v 1.93512h 0.442913v 1.45134h 0.442913v -0.72567h 0.442913v 0.96756h 5.75787v -0.24189h 0.442913v 0.24189h 126.23" fill="none" stroke="#000099"/>
<path d="M57.1929,346.022h 453.543" fill="none" stroke="black"/>
<path d="M57.1929,336.795v 9.22726" fill="none" stroke="black"/>
<path d="M71.9567,341.409v 4.61363" fill="none" stroke="black"/>
<path d="M86.7205,341.409v 4.61363" fill="none" stroke="black"/>
<path d="M101.484,341.409v 4.61363" fill="none" stroke="black"/>
<path d="M116.248,341.409v 4.61363" fill="none" stroke="black"/>
<path d="M131.012,336.795v 9.22726" fill="none" stroke="black"/>
<path d="M145.776,341.409v 4.61363" fill="none" stroke="black"/>
<path d="M160.539,341.409v 4.61363" fill="none" stroke="black"/>
<path d="M175.303,341.409v 4.61363" fill="none" stroke="black"/>
<path d="M190.067,341.409v 4.61363" fill="none" stroke="black"/>
<path d="M204.831,336.795v 9.22726" fill="none" stroke="black"/>
<path d="M219.594,341.409v 4.61363" fill="none" stroke="black"/>
<path d="M234.358,341.409v 4.61363" fill="none" stroke="black"/>
<path d="M249.122,341.409v 4.61363" fill="none" stroke="black"/>
<path d="M263.886,341.409v 4.61363" fill="none" stroke="black"/>
<path d="M278.65,336.795v 9.22726" fill="none" stroke="black"/>
<path d="M293.413,341.409v 4.61363" fill="none" stroke="black"/>
<path d="M308.177,341.409v 4.61363" fill="none" stroke="black"/>
<path d="M322.941,341.409v 4.61363" fill="none" stroke="black"/>
<path d="M337.705,341.409v 4.61363" fill="none" stroke="black"/>
<path d="M352.469,336.795v 9.22726" fill="none" stroke="black"/>
<path d="M367.232,341.409v 4.61363" fill="none" stroke="black"/>
<path d="M381.996,341.409v 4.61363" fill="none" stroke="black"/>
<path d="M396.76,341.409v 4.61363" fill="none" stroke="black"/>
<path d="M411.524,341.409v 4.61363" fill="none" stroke="black"/>
<path d="M426.287,336.795v 9.22726" fill="none" stroke="black"/>
<path d="M441.051,341.409v 4.61363" fill="none" stroke="black"/>
<path d="M455.815,341.409v 4.61363" fill="none" stroke="black"/>
<path d="M470.579,341.409v 4.61363" fill="none" stroke="black"/>
<path d="M485.343,341.409v 4.61363" fill="none" stroke="black"/>
<path d="M500.106,336.795v 9.22726" fill="none" stroke="black"/>
<path d="M500.106,336.795v 9.22726" fill="none" stroke="black"/>
<text xml:space="preserve" x="53.446" y="358.403" fill="black" font-size="12.8453" font-family="Helvetica">0</text>
<text xml:space="preserve" x="120.239" y="358.403" fill="black" font-size="12.8453" font-family="Helvetica">500</text>
<text xml:space="preserve" x="190.291" y="358.403" fill="black" font-size="12.8453" font-family="Helvetica">1000</text>
<text xml:space="preserve" x="264.415" y="358.403" fill="black" font-size="12.8453" font-family="Helvetica">1500</text>
<text xml:space="preserve" x="338.54" y="358.403" fill="black" font-size="12.8453" font-family="Helvetica">2000</text>
<text xml:space="preserve" x="411.849" y="358.403" fill="black" font-size="12.8453" font-family="Helvetica">2500</text>
<text xml:space="preserve" x="485.974" y="358.403" fill="black" font-size="12.8453" font-family="Helvetica">3000</text>
<text xml:space="preserve" x="451.763" y="372.251" fill="black" font-size="12.8453" font-family="Helvetica">ADC value</text>
<path d="M57.1929,346.022v -307.575" fill="none" stroke="black"/>
<path d="M70.7992,346.022h -13.6063" fill="none" stroke="black"/>
<path d="M63.9961,333.928h -6.80315" fill="none" stroke="black"/>
<path d="M63.9961,321.833h -6.80315" fill="none" stroke="black"/>
<path d="M63.9961,309.739h -6.80315" fill="none" stroke="black"/>
<path d="M70.7992,297.644h -13.6063" fill="none" stroke="black"/>
<path d="M63.9961,285.55h -6.80315" fill="none" stroke="black"/>
<path d="M63.9961,273.455h -6.80315" fill="none" stroke="black"/>
<path d="M63.9961,261.361h -6.80315" fill="none" stroke="black"/>
<path d="M70.7992,249.266h -13.6063" fill="none" stroke="black"/>
<path d="M63.9961,237.172h -6.80315" fill="none" stroke="black"/>
<path d="M63.9961,225.077h -6.80315" fill="none" stroke="black"/>
<path d="M63.9961,212.983h -6.80315" fill="none" stroke="black"/>
<path d="M70.7992,200.888h -13.6063" fill="none" stroke="black"/>
<path d="M63.9961,188.794h -6.80315" fill="none" stroke="black"/>
<path d="M63.9961,176.699h -6.80315" fill="none" stroke="black"/>
<path d="M63.9961,164.605h -6.80315" fill="none" stroke="black"/>
<path d="M70.7992,152.51h -13.6063" fill="none" stroke="black"/>
<path d="M63.9961,140.416h -6.80315" fill="none" stroke="black"/>
<path d="M63.9961,128.321h -6.80315" fill="none" stroke="black"/>
<path d="M63.9961,116.227h -6.80315" fill="none" stroke="black"/>
<path d="M70.7992,104.132h -13.6063" fill="none" stroke="black"/>
<path d="M63.9961,92.0377h -6.80315" fill="none" stroke="black"/>
<path d="M63.9961,79.9432h -6.80315" fill="none" stroke="black"/>
<path d="M63.9961,67.8487h -6.80315" fill="none" stroke="black"/>
<path d="M70.7992,55.7542h -13.6063" fill="none" stroke="black"/>
<path d="M70.7992,55.7542h -13.6063" fill="none" stroke="black"/>
<path d="M63.9961,43.6597h -6.80315" fill="none" stroke="black"/>
<text xml:space="preserve" x="47.7441" y="350.258" fill="black" font-size="12.8453" font-family="Helvetica">0</text>
<text xml:space="preserve" x="33.8967" y="302.199" fill="black" font-size="12.8453" font-family="Helvetica">200</text>
<text xml:space="preserve" x="33.8967" y="254.141" fill="black" font-size="12.8453" font-family="Helvetica">400</text>
<text xml:space="preserve" x="33.8967" y="205.267" fill="black" font-size="12.8453" font-family="Helvetica">600</text>
<text xml:space="preserve" x="33.8967" y="157.209" fill="black" font-size="12.8453" font-family="Helvetica">800</text>
<text xml:space="preserve" x="27.3803" y="108.336" fill="black" font-size="12.8453" font-family="Helvetica">1000</text>
<text xml:space="preserve" x="27.3803" y="60.2769" fill="black" font-size="12.8453" font-family="Helvetica">1200</text>
<g transform="rotate(-90,14.3474,70.0516)">
<text xml:space="preserve" x="14.3474" y="70.0516" fill="black" font-size="12.8453" font-family="Helvetica">Event</text>
</g>
<text xml:space="preserve" x="253.012" y="18.7347" fill="black" font-size="18.0316" font-family="Helvetica">Cs_007</text>
<rect x="442.705" y="24.9905" width="113.386" height="61.5151" fill="white"/>
<path d="M442.705,86.5056h 113.386" fill="none" stroke="black"/>
<path d="M556.091,86.5056v -61.5151" fill="none" stroke="black"/>
<path d="M556.091,24.9905h -113.386" fill="none" stroke="black"/>
<path d="M442.705,24.9905v 61.5151" fill="none" stroke="black"/>
<text xml:space="preserve" x="476.199" y="36.6549" fill="black" font-size="13.4802" font-family="Helvetica">Cs_007</text>
<path d="M442.705,40.3693h 113.386" fill="none" stroke="black"/>
<text xml:space="preserve" x="447.69" y="52.946" fill="black" font-size="12.7186" font-family="Helvetica">Entries </text>
<text xml:space="preserve" x="512.854" y="52.946" fill="black" font-size="12.7186" font-family="Helvetica"> 12279</text>
<text xml:space="preserve" x="447.69" y="67.6079" fill="black" font-size="12.7186" font-family="Helvetica">Mean  </text>
<text xml:space="preserve" x="512.854" y="67.6079" fill="black" font-size="12.7186" font-family="Helvetica">  811.4</text>
<text xml:space="preserve" x="447.69" y="83.0844" fill="black" font-size="12.7186" font-family="Helvetica">Std Dev   </text>
<text xml:space="preserve" x="512.854" y="83.0844" fill="black" font-size="12.7186" font-family="Helvetica">  796.7</text>
<text xml:space="preserve" x="253.012" y="18.7347" fill="black" font-size="18.0316" font-family="Helvetica">Cs_007</text></svg>
