<?xml version="1.0" standalone="no"?>
<svg width="567.429" height="384.969" viewBox="0 0 567.429 384.969" xmlns="http://www.w3.org/2000/svg" shape-rendering="crispEdges">
<title>
img/week1/plane_hist/Cs_010.svg
</title>
<desc>
Creator: ROOT Version 6.22/09
CreationDate: Fri Jul  2 19:48:03 2021</desc>
<defs>
</defs>
<rect x="0.5" y="0" width="566.929" height="384.469" fill="white"/>
<rect x="57.1929" y="38.4469" width="453.543" height="307.575" fill="white"/>
<rect x="57.1929" y="38.4469" width="453.543" height="307.575" fill="none" stroke="black"/>
<path d="M57.1929,346.022h 35.876v -4.16487h 0.442913v -18.0478h 0.442913v -63.8613h 0.442913v -115.228h 0.442913v -91.627h 0.442913v 41.6487h 0.442913v -5.55315h 0.442913v 83.2973h 0.442913v 16.6595h 0.442913v 18.0478h 0.442913v 8.32973h 0.442913v
 30.5423h 0.442913v 15.2712h 0.442913v 2.77658h 0.442913v 16.6595h 0.442913v 27.7658h 0.442913v -1.38829h 0.442913v 5.55315h 0.442913v 5.55315h 0.442913v 9.71802h 0.442913v 5.55315h 0.442913v -2.77658h 0.442913v -6.94144h 0.442913v 13.8829h 0.442913v
 -4.16487h 0.442913v 5.55315h 0.442913v 2.77658h 0.442913v 1.38829h 0.442913v 1.38829h 0.442913v -1.38829h 0.442913v 2.77658h 0.442913v -4.16487h 0.442913v 2.77658h 0.442913v -1.38829h 0.442913v 1.38829h 0.442913v -1.38829h 0.442913v 2.77658h
 0.442913v -1.38829h 0.442913v 1.38829h 0.442913v -1.38829h 0.442913v 1.38829h 1.32874v -1.38829h 0.442913v 1.38829h 0.442913v -1.38829h 0.885827v -1.38829h 0.442913v 2.77658h 0.885827v -1.38829h 0.885827v 1.38829h 2.65748v -1.38829h 0.442913v
 1.38829h 0.442913v -2.77658h 0.442913v 1.38829h 0.442913v -1.38829h 0.885827v 2.77658h 1.32874v -4.16487h 0.442913v 2.77658h 0.885827v 1.38829h 0.442913v -1.38829h 0.442913v 1.38829h 0.442913v -1.38829h 0.442913v 1.38829h 1.32874v -1.38829h 1.32874v
 1.38829h 0.442913v -1.38829h 0.442913v 1.38829h 0.885827v -4.16487h 0.442913v 4.16487h 0.442913v -1.38829h 0.885827v 1.38829h 1.32874v -1.38829h 0.442913v 1.38829h 0.442913v -1.38829h 0.885827v 1.38829h 0.442913v -2.77658h 0.442913v 2.77658h
 0.442913v -1.38829h 0.442913v 1.38829h 0.442913v -1.38829h 0.442913v 1.38829h 0.442913v -1.38829h 0.442913v 1.38829h 0.442913v -1.38829h 0.885827v -2.77658h 0.442913v 2.77658h 0.442913v 1.38829h 0.442913v -2.77658h 0.442913v 2.77658h 1.32874v
 -1.38829h 0.442913v 1.38829h 0.442913v -1.38829h 0.442913v 1.38829h 0.442913v -2.77658h 0.442913v 2.77658h 0.442913v -1.38829h 0.442913v 1.38829h 1.32874v -1.38829h 0.885827v 1.38829h 0.885827v -1.38829h 0.885827v 1.38829h 0.442913v -1.38829h
 0.885827v 1.38829h 0.442913v -1.38829h 0.442913v 1.38829h 1.32874v -1.38829h 1.32874v -1.38829h 0.442913v 1.38829h 1.32874v 1.38829h 2.21457v -1.38829h 0.885827v 1.38829h 1.32874v -1.38829h 0.885827v -1.38829h 0.885827v 2.77658h 0.442913v -1.38829h
 0.442913v 1.38829h 0.885827v -1.38829h 0.442913v -1.38829h 0.442913v 2.77658h 0.442913v -1.38829h 0.885827v 1.38829h 1.77165v -2.77658h 0.442913v 1.38829h 0.442913v 1.38829h 1.32874v -2.77658h 0.442913v -2.77658h 0.442913v 5.55315h 0.442913v
 -1.38829h 1.32874v 1.38829h 1.32874v -1.38829h 0.442913v 1.38829h 0.442913v -1.38829h 0.442913v -2.77658h 0.442913v 1.38829h 0.442913v 2.77658h 0.885827v -1.38829h 0.442913v 1.38829h 0.442913v -1.38829h 0.442913v 1.38829h 0.442913v -1.38829h
 0.442913v 1.38829h 0.885827v -1.38829h 0.442913v 1.38829h 0.442913v -1.38829h 0.885827v 1.38829h 1.32874v -1.38829h 0.442913v 1.38829h 0.885827v -2.77658h 0.442913v 1.38829h 0.442913v 1.38829h 0.442913v -2.77658h 0.442913v -1.38829h 0.442913v
 2.77658h 0.442913v 1.38829h 0.885827v -2.77658h 0.442913v 2.77658h 1.32874v -2.77658h 0.442913v 2.77658h 0.885827v -4.16487h 0.442913v 2.77658h 0.885827v 1.38829h 2.21457v -1.38829h 0.442913v 1.38829h 0.885827v -1.38829h 0.442913v 1.38829h 0.885827v
 -1.38829h 0.885827v 1.38829h 1.32874v -1.38829h 1.77165v 1.38829h 0.442913v -2.77658h 0.442913v 2.77658h 0.442913v -1.38829h 1.32874v 1.38829h 0.885827v -1.38829h 0.442913v -1.38829h 0.442913v 1.38829h 0.885827v 1.38829h 0.885827v -1.38829h
 0.885827v 1.38829h 0.442913v -1.38829h 0.885827v -4.16487h 0.442913v 1.38829h 0.442913v 2.77658h 0.442913v 1.38829h 0.885827v -2.77658h 0.442913v 1.38829h 2.65748v 1.38829h 0.442913v -2.77658h 0.442913v 1.38829h 0.442913v -1.38829h 0.442913v
 1.38829h 0.442913v -2.77658h 0.442913v 4.16487h 0.442913v -4.16487h 0.442913v 4.16487h 0.442913v -1.38829h 1.32874v -1.38829h 0.442913v 1.38829h 0.885827v 1.38829h 0.885827v -1.38829h 0.442913v 1.38829h 0.885827v -2.77658h 0.442913v 2.77658h
 0.442913v -1.38829h 0.442913v -1.38829h 0.442913v 2.77658h 0.885827v -2.77658h 0.442913v -1.38829h 0.442913v -1.38829h 0.442913v 5.55315h 1.32874v -1.38829h 0.442913v 1.38829h 0.885827v -1.38829h 0.442913v 1.38829h 0.885827v -1.38829h 0.442913v
 -1.38829h 0.442913v 2.77658h 1.32874v -2.77658h 0.442913v 1.38829h 0.442913v 1.38829h 0.442913v -1.38829h 0.442913v 1.38829h 3.98622v -1.38829h 0.442913v 1.38829h 0.442913v -1.38829h 0.442913v -1.38829h 0.442913v 2.77658h 0.442913v -1.38829h
 0.885827v 1.38829h 2.21457v -1.38829h 0.442913v 1.38829h 0.442913v -1.38829h 0.442913v 1.38829h 1.32874v -1.38829h 1.32874v -1.38829h 0.442913v 2.77658h 0.885827v -1.38829h 0.442913v 1.38829h 0.442913v -2.77658h 0.442913v 1.38829h 0.442913v
 -1.38829h 0.442913v 2.77658h 2.21457v -1.38829h 0.442913v 1.38829h 0.442913v -1.38829h 1.77165v 1.38829h 0.442913v -1.38829h 0.442913v -4.16487h 0.442913v 4.16487h 0.442913v -2.77658h 0.442913v 4.16487h 0.442913v -2.77658h 0.442913v 2.77658h
 0.885827v -1.38829h 0.442913v 1.38829h 0.885827v -1.38829h 0.442913v 1.38829h 0.442913v -2.77658h 0.442913v 1.38829h 1.32874v -1.38829h 0.442913v 2.77658h 0.442913v -4.16487h 0.442913v 4.16487h 0.442913v -1.38829h 0.442913v -2.77658h 0.885827v
 4.16487h 0.885827v -4.16487h 0.442913v 4.16487h 0.442913v -2.77658h 0.442913v 1.38829h 0.442913v -1.38829h 0.442913v 2.77658h 0.442913v -1.38829h 0.885827v 1.38829h 0.442913v -1.38829h 0.442913v -2.77658h 0.442913v 1.38829h 0.442913v 1.38829h
 0.442913v -1.38829h 0.442913v -1.38829h 0.442913v 1.38829h 0.442913v -2.77658h 0.885827v 2.77658h 0.442913v -2.77658h 0.442913v 1.38829h 0.442913v 1.38829h 0.442913v -2.77658h 0.442913v 4.16487h 0.442913v -5.55315h 0.442913v 2.77658h 0.442913v
 2.77658h 0.442913v -2.77658h 0.442913v 1.38829h 0.885827v -2.77658h 1.32874v -1.38829h 0.442913v -1.38829h 0.442913v 6.94144h 0.885827v -1.38829h 0.442913v -1.38829h 0.442913v -6.94144h 0.442913v 8.32973h 0.442913v -2.77658h 0.442913v -1.38829h
 0.442913v 2.77658h 0.442913v 2.77658h 0.442913v -6.94144h 0.442913v 4.16487h 0.442913v -1.38829h 0.442913v 4.16487h 0.442913v -6.94144h 0.442913v 5.55315h 0.885827v 1.38829h 0.442913v -13.8829h 0.442913v 12.4946h 0.442913v -2.77658h 0.442913v
 2.77658h 0.885827v -8.32973h 0.442913v 11.1063h 0.442913v -4.16487h 0.885827v 2.77658h 0.442913v -5.55315h 0.442913v 1.38829h 1.32874v 4.16487h 0.442913v -2.77658h 0.442913v 1.38829h 0.442913v 2.77658h 0.442913v -1.38829h 0.885827v -1.38829h
 0.442913v 1.38829h 0.885827v -2.77658h 0.442913v -1.38829h 0.442913v 4.16487h 0.442913v -1.38829h 0.442913v 2.77658h 0.442913v -2.77658h 0.885827v 1.38829h 0.442913v 1.38829h 0.442913v -4.16487h 0.442913v 4.16487h 0.442913v -2.77658h 0.442913v
 2.77658h 0.442913v -1.38829h 0.885827v 1.38829h 0.442913v -1.38829h 0.442913v 1.38829h 1.32874v -1.38829h 0.885827v -1.38829h 0.442913v 1.38829h 0.885827v -2.77658h 0.442913v 1.38829h 1.77165v 2.77658h 0.442913v -2.77658h 0.885827v -1.38829h
 0.442913v 1.38829h 0.442913v 1.38829h 0.885827v 1.38829h 0.442913v -2.77658h 0.442913v 2.77658h 0.442913v -1.38829h 0.442913v 1.38829h 0.442913v -1.38829h 0.442913v -2.77658h 0.442913v 2.77658h 1.77165v -1.38829h 0.442913v 1.38829h 0.442913v
 -1.38829h 0.442913v 2.77658h 0.442913v -2.77658h 0.442913v 2.77658h 2.21457v -1.38829h 0.442913v -1.38829h 0.442913v 2.77658h 1.77165v -2.77658h 0.442913v 2.77658h 1.77165v -1.38829h 0.442913v 1.38829h 0.442913v -1.38829h 0.442913v 1.38829h
 0.885827v -1.38829h 0.442913v 1.38829h 0.442913v -1.38829h 0.442913v 1.38829h 3.10039v -1.38829h 0.442913v -1.38829h 0.442913v 1.38829h 0.885827v 1.38829h 0.885827v -1.38829h 0.442913v 1.38829h 2.65748v -1.38829h 0.442913v -1.38829h 0.442913v
 2.77658h 0.442913v -1.38829h 0.442913v -1.38829h 0.442913v 1.38829h 0.442913v 1.38829h 0.885827v -1.38829h 0.885827v 1.38829h 2.21457v -4.16487h 0.442913v 2.77658h 0.885827v 1.38829h 1.77165v -1.38829h 0.442913v 1.38829h 0.885827v -1.38829h
 0.442913v 1.38829h 1.77165v -1.38829h 0.442913v 1.38829h 0.442913v -6.94144h 0.442913v -12.4946h 0.442913v -41.6487h 0.442913v -38.8721h 0.442913v 1.38829h 0.442913v 19.436h 0.442913v 5.55315h 0.442913v 8.32973h 0.442913v 8.32973h 0.442913v 16.6595h
 0.442913v 11.1063h 0.442913v 1.38829h 0.442913v 4.16487h 0.442913v 9.71802h 0.442913v 2.77658h 0.442913v -15.2712h 0.442913v 15.2712h 0.442913v -2.77658h 0.442913v -1.38829h 0.442913v 2.77658h 0.442913v -18.0478h 0.442913v 18.0478h 0.442913v
 -4.16487h 0.442913v 4.16487h 0.442913v 1.38829h 0.442913v -1.38829h 0.442913v -4.16487h 0.442913v -4.16487h 0.442913v 6.94144h 0.442913v -4.16487h 0.442913v 4.16487h 0.442913v -4.16487h 0.442913v 6.94144h 0.442913v 1.38829h 0.442913v -9.71802h
 0.442913v 2.77658h 0.442913v 6.94144h 0.442913v -4.16487h 0.442913v 8.32973h 0.442913v -2.77658h 0.442913v 1.38829h 1.32874v 4.16487h 0.885827v 2.77658h 4.42913v -1.38829h 0.442913v 1.38829h 29.6752v -1.38829h 0.442913v 1.38829h 94.3406" fill="none"
 stroke="#000099"/>
<path d="M57.1929,346.022h 453.543" fill="none" stroke="black"/>
<path d="M57.1929,336.795v 9.22726" fill="none" stroke="black"/>
<path d="M71.9567,341.409v 4.61363" fill="none" stroke="black"/>
<path d="M86.7205,341.409v 4.61363" fill="none" stroke="black"/>
<path d="M101.484,341.409v 4.61363" fill="none" stroke="black"/>
<path d="M116.248,341.409v 4.61363" fill="none" stroke="black"/>
<path d="M131.012,336.795v 9.22726" fill="none" stroke="black"/>
<path d="M145.776,341.409v 4.61363" fill="none" stroke="black"/>
<path d="M160.539,341.409v 4.61363" fill="none" stroke="black"/>
<path d="M175.303,341.409v 4.61363" fill="none" stroke="black"/>
<path d="M190.067,341.409v 4.61363" fill="none" stroke="black"/>
<path d="M204.831,336.795v 9.22726" fill="none" stroke="black"/>
<path d="M219.594,341.409v 4.61363" fill="none" stroke="black"/>
<path d="M234.358,341.409v 4.61363" fill="none" stroke="black"/>
<path d="M249.122,341.409v 4.61363" fill="none" stroke="black"/>
<path d="M263.886,341.409v 4.61363" fill="none" stroke="black"/>
<path d="M278.65,336.795v 9.22726" fill="none" stroke="black"/>
<path d="M293.413,341.409v 4.61363" fill="none" stroke="black"/>
<path d="M308.177,341.409v 4.61363" fill="none" stroke="black"/>
<path d="M322.941,341.409v 4.61363" fill="none" stroke="black"/>
<path d="M337.705,341.409v 4.61363" fill="none" stroke="black"/>
<path d="M352.469,336.795v 9.22726" fill="none" stroke="black"/>
<path d="M367.232,341.409v 4.61363" fill="none" stroke="black"/>
<path d="M381.996,341.409v 4.61363" fill="none" stroke="black"/>
<path d="M396.76,341.409v 4.61363" fill="none" stroke="black"/>
<path d="M411.524,341.409v 4.61363" fill="none" stroke="black"/>
<path d="M426.287,336.795v 9.22726" fill="none" stroke="black"/>
<path d="M441.051,341.409v 4.61363" fill="none" stroke="black"/>
<path d="M455.815,341.409v 4.61363" fill="none" stroke="black"/>
<path d="M470.579,341.409v 4.61363" fill="none" stroke="black"/>
<path d="M485.343,341.409v 4.61363" fill="none" stroke="black"/>
<path d="M500.106,336.795v 9.22726" fill="none" stroke="black"/>
<path d="M500.106,336.795v 9.22726" fill="none" stroke="black"/>
<text xml:space="preserve" x="53.446" y="358.403" fill="black" font-size="12.8453" font-family="Helvetica">0</text>
<text xml:space="preserve" x="120.239" y="358.403" fill="black" font-size="12.8453" font-family="Helvetica">500</text>
<text xml:space="preserve" x="190.291" y="358.403" fill="black" font-size="12.8453" font-family="Helvetica">1000</text>
<text xml:space="preserve" x="264.415" y="358.403" fill="black" font-size="12.8453" font-family="Helvetica">1500</text>
<text xml:space="preserve" x="338.54" y="358.403" fill="black" font-size="12.8453" font-family="Helvetica">2000</text>
<text xml:space="preserve" x="411.849" y="358.403" fill="black" font-size="12.8453" font-family="Helvetica">2500</text>
<text xml:space="preserve" x="485.974" y="358.403" fill="black" font-size="12.8453" font-family="Helvetica">3000</text>
<text xml:space="preserve" x="451.763" y="372.251" fill="black" font-size="12.8453" font-family="Helvetica">ADC value</text>
<path d="M57.1929,346.022v -307.575" fill="none" stroke="black"/>
<path d="M70.7992,346.022h -13.6063" fill="none" stroke="black"/>
<path d="M63.9961,339.081h -6.80315" fill="none" stroke="black"/>
<path d="M63.9961,332.139h -6.80315" fill="none" stroke="black"/>
<path d="M63.9961,325.198h -6.80315" fill="none" stroke="black"/>
<path d="M70.7992,318.256h -13.6063" fill="none" stroke="black"/>
<path d="M63.9961,311.315h -6.80315" fill="none" stroke="black"/>
<path d="M63.9961,304.374h -6.80315" fill="none" stroke="black"/>
<path d="M63.9961,297.432h -6.80315" fill="none" stroke="black"/>
<path d="M70.7992,290.491h -13.6063" fill="none" stroke="black"/>
<path d="M63.9961,283.549h -6.80315" fill="none" stroke="black"/>
<path d="M63.9961,276.608h -6.80315" fill="none" stroke="black"/>
<path d="M63.9961,269.666h -6.80315" fill="none" stroke="black"/>
<path d="M70.7992,262.725h -13.6063" fill="none" stroke="black"/>
<path d="M63.9961,255.783h -6.80315" fill="none" stroke="black"/>
<path d="M63.9961,248.842h -6.80315" fill="none" stroke="black"/>
<path d="M63.9961,241.901h -6.80315" fill="none" stroke="black"/>
<path d="M70.7992,234.959h -13.6063" fill="none" stroke="black"/>
<path d="M63.9961,228.018h -6.80315" fill="none" stroke="black"/>
<path d="M63.9961,221.076h -6.80315" fill="none" stroke="black"/>
<path d="M63.9961,214.135h -6.80315" fill="none" stroke="black"/>
<path d="M70.7992,207.193h -13.6063" fill="none" stroke="black"/>
<path d="M63.9961,200.252h -6.80315" fill="none" stroke="black"/>
<path d="M63.9961,193.311h -6.80315" fill="none" stroke="black"/>
<path d="M63.9961,186.369h -6.80315" fill="none" stroke="black"/>
<path d="M70.7992,179.428h -13.6063" fill="none" stroke="black"/>
<path d="M63.9961,172.486h -6.80315" fill="none" stroke="black"/>
<path d="M63.9961,165.545h -6.80315" fill="none" stroke="black"/>
<path d="M63.9961,158.603h -6.80315" fill="none" stroke="black"/>
<path d="M70.7992,151.662h -13.6063" fill="none" stroke="black"/>
<path d="M63.9961,144.72h -6.80315" fill="none" stroke="black"/>
<path d="M63.9961,137.779h -6.80315" fill="none" stroke="black"/>
<path d="M63.9961,130.838h -6.80315" fill="none" stroke="black"/>
<path d="M70.7992,123.896h -13.6063" fill="none" stroke="black"/>
<path d="M63.9961,116.955h -6.80315" fill="none" stroke="black"/>
<path d="M63.9961,110.013h -6.80315" fill="none" stroke="black"/>
<path d="M63.9961,103.072h -6.80315" fill="none" stroke="black"/>
<path d="M70.7992,96.1303h -13.6063" fill="none" stroke="black"/>
<path d="M63.9961,89.1889h -6.80315" fill="none" stroke="black"/>
<path d="M63.9961,82.2474h -6.80315" fill="none" stroke="black"/>
<path d="M63.9961,75.306h -6.80315" fill="none" stroke="black"/>
<path d="M70.7992,68.3645h -13.6063" fill="none" stroke="black"/>
<path d="M63.9961,61.4231h -6.80315" fill="none" stroke="black"/>
<path d="M63.9961,54.4817h -6.80315" fill="none" stroke="black"/>
<path d="M63.9961,47.5402h -6.80315" fill="none" stroke="black"/>
<path d="M70.7992,40.5988h -13.6063" fill="none" stroke="black"/>
<path d="M70.7992,40.5988h -13.6063" fill="none" stroke="black"/>
<text xml:space="preserve" x="47.7441" y="350.258" fill="black" font-size="12.8453" font-family="Helvetica">0</text>
<text xml:space="preserve" x="41.2277" y="322.563" fill="black" font-size="12.8453" font-family="Helvetica">20</text>
<text xml:space="preserve" x="41.2277" y="294.868" fill="black" font-size="12.8453" font-family="Helvetica">40</text>
<text xml:space="preserve" x="41.2277" y="267.173" fill="black" font-size="12.8453" font-family="Helvetica">60</text>
<text xml:space="preserve" x="41.2277" y="239.479" fill="black" font-size="12.8453" font-family="Helvetica">80</text>
<text xml:space="preserve" x="33.8967" y="211.784" fill="black" font-size="12.8453" font-family="Helvetica">100</text>
<text xml:space="preserve" x="33.8967" y="184.089" fill="black" font-size="12.8453" font-family="Helvetica">120</text>
<text xml:space="preserve" x="33.8967" y="156.394" fill="black" font-size="12.8453" font-family="Helvetica">140</text>
<text xml:space="preserve" x="33.8967" y="128.699" fill="black" font-size="12.8453" font-family="Helvetica">160</text>
<text xml:space="preserve" x="33.8967" y="101.005" fill="black" font-size="12.8453" font-family="Helvetica">180</text>
<text xml:space="preserve" x="33.8967" y="72.4952" fill="black" font-size="12.8453" font-family="Helvetica">200</text>
<text xml:space="preserve" x="33.8967" y="44.8004" fill="black" font-size="12.8453" font-family="Helvetica">220</text>
<g transform="rotate(-90,20.8638,70.0516)">
<text xml:space="preserve" x="20.8638" y="70.0516" fill="black" font-size="12.8453" font-family="Helvetica">Event</text>
</g>
<text xml:space="preserve" x="253.012" y="18.7347" fill="black" font-size="18.0316" font-family="Helvetica">Cs_010</text>
<rect x="442.705" y="24.9905" width="113.386" height="61.5151" fill="white"/>
<path d="M442.705,86.5056h 113.386" fill="none" stroke="black"/>
<path d="M556.091,86.5056v -61.5151" fill="none" stroke="black"/>
<path d="M556.091,24.9905h -113.386" fill="none" stroke="black"/>
<path d="M442.705,24.9905v 61.5151" fill="none" stroke="black"/>
<text xml:space="preserve" x="476.199" y="36.6549" fill="black" font-size="13.4802" font-family="Helvetica">Cs_010</text>
<path d="M442.705,40.3693h 113.386" fill="none" stroke="black"/>
<text xml:space="preserve" x="447.69" y="52.946" fill="black" font-size="13.0654" font-family="Helvetica">Entries </text>
<text xml:space="preserve" x="517.741" y="52.946" fill="black" font-size="13.0654" font-family="Helvetica"> 3026</text>
<text xml:space="preserve" x="447.69" y="67.6079" fill="black" font-size="13.0654" font-family="Helvetica">Mean  </text>
<text xml:space="preserve" x="514.483" y="67.6079" fill="black" font-size="13.0654" font-family="Helvetica">    950</text>
<text xml:space="preserve" x="447.69" y="83.0844" fill="black" font-size="13.0654" font-family="Helvetica">Std Dev   </text>
<text xml:space="preserve" x="510.41" y="83.0844" fill="black" font-size="13.0654" font-family="Helvetica">  815.6</text>
<text xml:space="preserve" x="253.012" y="18.7347" fill="black" font-size="18.0316" font-family="Helvetica">Cs_010</text></svg>
