<?xml version="1.0" standalone="no"?>
<svg width="567.429" height="384.68" viewBox="0 0 567.429 384.68" xmlns="http://www.w3.org/2000/svg" shape-rendering="crispEdges">
<title>
img/week1/plane_hist/Cs_011.svg
</title>
<desc>
Creator: ROOT Version 6.22/09
CreationDate: Tue Jul 13 18:36:53 2021</desc>
<defs>
</defs>
<rect x="0.5" y="0" width="566.929" height="384.18" fill="white"/>
<rect x="57.1929" y="38.418" width="453.543" height="307.344" fill="white"/>
<rect x="57.1929" y="38.418" width="453.543" height="307.344" fill="none" stroke="black"/>
<path d="M57.1929,345.762h 65.4209v -8.08587h 0.629048v -77.6243h 0.629048v -75.1986h 0.629048v 16.1717h 0.629048v 26.6834h 0.629048v -0.808587h 0.629048v 9.70304h 0.629048v 42.0465h 1.2581v 2.42576h 0.629048v 5.66011h 0.629048v 20.2147h 0.629048v
 1.61717h 0.629048v 7.27728h 0.629048v -4.85152h 0.629048v 19.4061h 0.629048v -9.70304h 0.629048v 5.66011h 0.629048v 0.808587h 0.629048v 2.42576h 1.2581v 6.46869h 0.629048v 2.42576h 0.629048v -1.61717h 0.629048v 0.808587h 0.629048v -0.808587h
 0.629048v 3.23435h 0.629048v 0.808587h 0.629048v -1.61717h 0.629048v -0.808587h 0.629048v 4.04293h 0.629048v 0.808587h 0.629048v -0.808587h 0.629048v 0.808587h 1.2581v 2.42576h 0.629048v -3.23435h 0.629048v 2.42576h 0.629048v -4.04293h 0.629048v
 3.23435h 0.629048v -0.808587h 0.629048v 2.42576h 0.629048v -0.808587h 0.629048v -1.61717h 0.629048v 2.42576h 1.2581v -4.04293h 0.629048v 2.42576h 0.629048v -0.808587h 0.629048v 2.42576h 1.2581v -3.23435h 0.629048v 1.61717h 1.2581v 0.808587h
 0.629048v -0.808587h 0.629048v 0.808587h 0.629048v -1.61717h 0.629048v 2.42576h 0.629048v -0.808587h 0.629048v 0.808587h 0.629048v -0.808587h 0.629048v -1.61717h 0.629048v 2.42576h 1.2581v -3.23435h 0.629048v 2.42576h 0.629048v -0.808587h 1.88714v
 -0.808587h 0.629048v 0.808587h 1.2581v 1.61717h 0.629048v -1.61717h 0.629048v 1.61717h 1.2581v -2.42576h 0.629048v 1.61717h 1.88714v -0.808587h 1.2581v -0.808587h 0.629048v 1.61717h 1.88714v -0.808587h 0.629048v -1.61717h 0.629048v 1.61717h
 0.629048v 0.808587h 1.2581v -0.808587h 1.2581v 0.808587h 0.629048v -0.808587h 0.629048v 0.808587h 0.629048v -0.808587h 0.629048v 1.61717h 0.629048v -0.808587h 0.629048v 0.808587h 0.629048v -1.61717h 0.629048v 1.61717h 0.629048v -2.42576h 0.629048v
 1.61717h 0.629048v -0.808587h 0.629048v 0.808587h 0.629048v -0.808587h 1.2581v 0.808587h 0.629048v -1.61717h 1.2581v 1.61717h 0.629048v -0.808587h 1.88714v 0.808587h 0.629048v -1.61717h 0.629048v 1.61717h 0.629048v 0.808587h 0.629048v -1.61717h
 0.629048v 1.61717h 1.2581v -3.23435h 0.629048v 2.42576h 1.2581v -0.808587h 0.629048v 1.61717h 0.629048v -1.61717h 0.629048v 0.808587h 3.14524v 0.808587h 0.629048v -4.85152h 0.629048v 4.04293h 0.629048v -1.61717h 0.629048v 0.808587h 0.629048v
 -1.61717h 0.629048v 3.23435h 0.629048v -3.23435h 0.629048v 2.42576h 2.51619v 0.808587h 1.88714v -0.808587h 0.629048v -0.808587h 0.629048v -3.23435h 0.629048v 4.85152h 0.629048v -3.23435h 0.629048v 1.61717h 0.629048v 1.61717h 0.629048v -2.42576h
 0.629048v 1.61717h 1.2581v -0.808587h 1.2581v 1.61717h 0.629048v -2.42576h 0.629048v 1.61717h 0.629048v -0.808587h 0.629048v 0.808587h 0.629048v -0.808587h 0.629048v 0.808587h 1.2581v -1.61717h 0.629048v 2.42576h 0.629048v -1.61717h 0.629048v
 1.61717h 0.629048v -4.04293h 0.629048v 1.61717h 0.629048v 1.61717h 1.2581v -1.61717h 0.629048v 1.61717h 1.2581v 0.808587h 0.629048v -1.61717h 0.629048v 1.61717h 1.2581v -0.808587h 1.88714v -0.808587h 0.629048v 0.808587h 0.629048v 0.808587h 1.2581v
 -1.61717h 0.629048v 1.61717h 1.88714v -2.42576h 0.629048v 0.808587h 0.629048v 0.808587h 1.2581v -0.808587h 0.629048v 0.808587h 0.629048v 0.808587h 1.2581v -0.808587h 1.2581v 0.808587h 1.2581v -0.808587h 0.629048v 0.808587h 1.2581v -0.808587h
 3.14524v 0.808587h 0.629048v -1.61717h 0.629048v 0.808587h 1.2581v -2.42576h 0.629048v 1.61717h 0.629048v 0.808587h 3.14524v 0.808587h 0.629048v -1.61717h 1.2581v 0.808587h 0.629048v 0.808587h 0.629048v -1.61717h 0.629048v 1.61717h 0.629048v
 -1.61717h 0.629048v 0.808587h 1.2581v -1.61717h 0.629048v 2.42576h 1.88714v -1.61717h 0.629048v 0.808587h 0.629048v -0.808587h 0.629048v 1.61717h 0.629048v -0.808587h 1.2581v -1.61717h 0.629048v 0.808587h 0.629048v 1.61717h 0.629048v -0.808587h
 0.629048v -1.61717h 0.629048v 1.61717h 1.2581v 0.808587h 0.629048v -0.808587h 0.629048v -0.808587h 0.629048v 1.61717h 0.629048v -1.61717h 0.629048v 1.61717h 0.629048v -1.61717h 0.629048v 0.808587h 0.629048v 0.808587h 0.629048v -0.808587h 1.2581v
 0.808587h 0.629048v -1.61717h 1.88714v 0.808587h 0.629048v 0.808587h 1.88714v -0.808587h 0.629048v -1.61717h 0.629048v 1.61717h 0.629048v -0.808587h 0.629048v 0.808587h 1.2581v -0.808587h 1.2581v 1.61717h 1.2581v -0.808587h 0.629048v -0.808587h
 1.2581v 1.61717h 0.629048v -0.808587h 0.629048v -0.808587h 1.88714v 0.808587h 1.2581v -1.61717h 0.629048v 1.61717h 0.629048v -0.808587h 1.2581v -1.61717h 0.629048v 1.61717h 0.629048v 1.61717h 0.629048v -0.808587h 0.629048v -0.808587h 0.629048v
 0.808587h 1.2581v 0.808587h 0.629048v -1.61717h 0.629048v -1.61717h 0.629048v 1.61717h 0.629048v 1.61717h 0.629048v -0.808587h 1.2581v 0.808587h 0.629048v -0.808587h 1.2581v -0.808587h 0.629048v 1.61717h 1.88714v -3.23435h 0.629048v 2.42576h
 1.88714v -2.42576h 0.629048v 1.61717h 0.629048v 0.808587h 0.629048v -1.61717h 0.629048v 2.42576h 1.2581v -1.61717h 0.629048v -1.61717h 0.629048v 1.61717h 0.629048v 1.61717h 0.629048v -0.808587h 0.629048v 0.808587h 0.629048v -1.61717h 0.629048v
 1.61717h 0.629048v -1.61717h 0.629048v 1.61717h 0.629048v -0.808587h 0.629048v 0.808587h 0.629048v -1.61717h 1.2581v 0.808587h 1.2581v -1.61717h 1.2581v 2.42576h 0.629048v -1.61717h 1.2581v 0.808587h 0.629048v -0.808587h 1.2581v -1.61717h 0.629048v
 3.23435h 0.629048v -2.42576h 0.629048v 1.61717h 0.629048v -3.23435h 0.629048v 3.23435h 0.629048v -0.808587h 0.629048v 0.808587h 1.2581v -3.23435h 0.629048v -1.61717h 0.629048v 5.66011h 0.629048v -3.23435h 1.2581v 0.808587h 0.629048v -0.808587h
 0.629048v 1.61717h 1.2581v -2.42576h 0.629048v 2.42576h 0.629048v 1.61717h 0.629048v -1.61717h 0.629048v -0.808587h 0.629048v -2.42576h 0.629048v 3.23435h 0.629048v -0.808587h 1.2581v -1.61717h 0.629048v 3.23435h 1.2581v 0.808587h 0.629048v
 -1.61717h 0.629048v -1.61717h 0.629048v 2.42576h 0.629048v -3.23435h 0.629048v 1.61717h 0.629048v 0.808587h 1.88714v 0.808587h 1.2581v -2.42576h 0.629048v 1.61717h 0.629048v -0.808587h 1.2581v 1.61717h 0.629048v -0.808587h 0.629048v -1.61717h
 0.629048v 3.23435h 0.629048v -4.85152h 0.629048v 1.61717h 0.629048v 1.61717h 0.629048v 0.808587h 0.629048v -1.61717h 1.2581v 0.808587h 0.629048v -1.61717h 0.629048v 3.23435h 0.629048v -1.61717h 1.2581v 1.61717h 0.629048v -2.42576h 0.629048v
 0.808587h 0.629048v 0.808587h 0.629048v -1.61717h 0.629048v 0.808587h 0.629048v 0.808587h 0.629048v 0.808587h 1.2581v -1.61717h 0.629048v 1.61717h 1.88714v -2.42576h 1.2581v 1.61717h 1.88714v 0.808587h 0.629048v -1.61717h 0.629048v 0.808587h
 0.629048v -0.808587h 0.629048v -4.04293h 0.629048v 4.85152h 0.629048v -1.61717h 0.629048v 2.42576h 0.629048v -1.61717h 0.629048v 1.61717h 0.629048v -0.808587h 0.629048v -0.808587h 0.629048v 0.808587h 1.2581v -0.808587h 1.2581v 1.61717h 1.2581v
 -2.42576h 0.629048v 2.42576h 0.629048v -0.808587h 0.629048v 0.808587h 0.629048v -2.42576h 0.629048v 1.61717h 1.2581v -0.808587h 0.629048v 0.808587h 0.629048v -1.61717h 0.629048v 1.61717h 1.2581v 0.808587h 2.51619v -0.808587h 1.88714v 0.808587h
 1.2581v -2.42576h 0.629048v 1.61717h 1.2581v 0.808587h 0.629048v -0.808587h 1.2581v -0.808587h 0.629048v 1.61717h 0.629048v -0.808587h 1.88714v -0.808587h 0.629048v 1.61717h 0.629048v -0.808587h 0.629048v 0.808587h 2.51619v -2.42576h 0.629048v
 1.61717h 0.629048v 0.808587h 0.629048v -0.808587h 0.629048v 0.808587h 1.2581v -0.808587h 0.629048v -2.42576h 0.629048v 1.61717h 0.629048v -0.808587h 0.629048v 0.808587h 0.629048v -0.808587h 0.629048v 1.61717h 0.629048v 0.808587h 0.629048v -1.61717h
 0.629048v 0.808587h 1.2581v -1.61717h 0.629048v 0.808587h 0.629048v 1.61717h 0.629048v -2.42576h 0.629048v 0.808587h 0.629048v 0.808587h 0.629048v -1.61717h 0.629048v 1.61717h 0.629048v 0.808587h 1.2581v -3.23435h 0.629048v 1.61717h 0.629048v
 1.61717h 0.629048v -0.808587h 0.629048v 0.808587h 0.629048v -1.61717h 0.629048v 1.61717h 0.629048v -3.23435h 1.2581v 1.61717h 1.2581v -1.61717h 1.2581v -1.61717h 0.629048v 4.04293h 0.629048v -1.61717h 1.2581v 1.61717h 1.2581v -1.61717h 0.629048v
 0.808587h 0.629048v 0.808587h 0.629048v -4.04293h 0.629048v 1.61717h 0.629048v 2.42576h 1.2581v -1.61717h 0.629048v -0.808587h 0.629048v -0.808587h 1.2581v 0.808587h 0.629048v 0.808587h 1.2581v -1.61717h 0.629048v 3.23435h 0.629048v -0.808587h
 0.629048v -2.42576h 1.2581v 3.23435h 0.629048v -3.23435h 0.629048v 2.42576h 0.629048v -2.42576h 0.629048v 2.42576h 0.629048v -4.04293h 0.629048v -1.61717h 0.629048v 6.46869h 0.629048v -2.42576h 0.629048v -1.61717h 0.629048v 1.61717h 0.629048v
 0.808587h 0.629048v -2.42576h 0.629048v 1.61717h 1.88714v -1.61717h 0.629048v -2.42576h 1.2581v -2.42576h 0.629048v -7.27728h 0.629048v -31.5349h 0.629048v -185.975h 0.629048v -58.2182h 0.629048v 130.182h 0.629048v -4.04293h 0.629048v 38.8122h
 0.629048v 32.3435h 0.629048v 25.0662h 0.629048v 15.3631h 1.2581v 24.2576h 0.629048v 8.08587h 0.629048v -11.3202h 0.629048v 19.4061h 0.629048v -13.746h 0.629048v 3.23435h 0.629048v 7.27728h 0.629048v -2.42576h 0.629048v -10.5116h 0.629048v 11.3202h
 0.629048v -5.66011h 0.629048v 0.808587h 0.629048v -4.85152h 0.629048v 4.04293h 0.629048v -0.808587h 0.629048v -3.23435h 0.629048v 2.42576h 0.629048v 5.66011h 0.629048v -4.04293h 0.629048v -4.85152h 0.629048v 8.08587h 0.629048v -2.42576h 0.629048v
 4.04293h 0.629048v -9.70304h 0.629048v 9.70304h 0.629048v -0.808587h 0.629048v -1.61717h 0.629048v -5.66011h 0.629048v 6.46869h 1.2581v -0.808587h 0.629048v 3.23435h 0.629048v 8.89445h 0.629048v 4.85152h 0.629048v 0.808587h 0.629048" fill="none"
 stroke="#000099"/>
<path d="M57.1929,345.762h 453.543" fill="none" stroke="black"/>
<path d="M57.822,336.541v 9.22031" fill="none" stroke="black"/>
<path d="M78.7902,341.152v 4.61016" fill="none" stroke="black"/>
<path d="M99.7585,341.152v 4.61016" fill="none" stroke="black"/>
<path d="M120.727,341.152v 4.61016" fill="none" stroke="black"/>
<path d="M141.695,341.152v 4.61016" fill="none" stroke="black"/>
<path d="M162.663,336.541v 9.22031" fill="none" stroke="black"/>
<path d="M183.631,341.152v 4.61016" fill="none" stroke="black"/>
<path d="M204.6,341.152v 4.61016" fill="none" stroke="black"/>
<path d="M225.568,341.152v 4.61016" fill="none" stroke="black"/>
<path d="M246.536,341.152v 4.61016" fill="none" stroke="black"/>
<path d="M267.504,336.541v 9.22031" fill="none" stroke="black"/>
<path d="M288.473,341.152v 4.61016" fill="none" stroke="black"/>
<path d="M309.441,341.152v 4.61016" fill="none" stroke="black"/>
<path d="M330.409,341.152v 4.61016" fill="none" stroke="black"/>
<path d="M351.378,341.152v 4.61016" fill="none" stroke="black"/>
<path d="M372.346,336.541v 9.22031" fill="none" stroke="black"/>
<path d="M393.314,341.152v 4.61016" fill="none" stroke="black"/>
<path d="M414.282,341.152v 4.61016" fill="none" stroke="black"/>
<path d="M435.251,341.152v 4.61016" fill="none" stroke="black"/>
<path d="M456.219,341.152v 4.61016" fill="none" stroke="black"/>
<path d="M477.187,336.541v 9.22031" fill="none" stroke="black"/>
<path d="M57.822,336.541v 9.22031" fill="none" stroke="black"/>
<path d="M477.187,336.541v 9.22031" fill="none" stroke="black"/>
<path d="M498.155,341.152v 4.61016" fill="none" stroke="black"/>
<text xml:space="preserve" x="54.1065" y="358.189" fill="black" font-size="12.836" font-family="Helvetica">0</text>
<text xml:space="preserve" x="151.573" y="358.189" fill="black" font-size="12.836" font-family="Helvetica">500</text>
<text xml:space="preserve" x="253.1" y="358.189" fill="black" font-size="12.836" font-family="Helvetica">1000</text>
<text xml:space="preserve" x="357.877" y="358.189" fill="black" font-size="12.836" font-family="Helvetica">1500</text>
<text xml:space="preserve" x="462.653" y="358.189" fill="black" font-size="12.836" font-family="Helvetica">2000</text>
<text xml:space="preserve" x="452.094" y="371.996" fill="black" font-size="12.836" font-family="Helvetica">ADC value</text>
<path d="M57.1929,345.762v -307.344" fill="none" stroke="black"/>
<path d="M70.7992,345.762h -13.6063" fill="none" stroke="black"/>
<path d="M63.9961,337.676h -6.80315" fill="none" stroke="black"/>
<path d="M63.9961,329.59h -6.80315" fill="none" stroke="black"/>
<path d="M63.9961,321.504h -6.80315" fill="none" stroke="black"/>
<path d="M63.9961,313.418h -6.80315" fill="none" stroke="black"/>
<path d="M70.7992,305.332h -13.6063" fill="none" stroke="black"/>
<path d="M63.9961,297.247h -6.80315" fill="none" stroke="black"/>
<path d="M63.9961,289.161h -6.80315" fill="none" stroke="black"/>
<path d="M63.9961,281.075h -6.80315" fill="none" stroke="black"/>
<path d="M63.9961,272.989h -6.80315" fill="none" stroke="black"/>
<path d="M70.7992,264.903h -13.6063" fill="none" stroke="black"/>
<path d="M63.9961,256.817h -6.80315" fill="none" stroke="black"/>
<path d="M63.9961,248.731h -6.80315" fill="none" stroke="black"/>
<path d="M63.9961,240.646h -6.80315" fill="none" stroke="black"/>
<path d="M63.9961,232.56h -6.80315" fill="none" stroke="black"/>
<path d="M70.7992,224.474h -13.6063" fill="none" stroke="black"/>
<path d="M63.9961,216.388h -6.80315" fill="none" stroke="black"/>
<path d="M63.9961,208.302h -6.80315" fill="none" stroke="black"/>
<path d="M63.9961,200.216h -6.80315" fill="none" stroke="black"/>
<path d="M63.9961,192.13h -6.80315" fill="none" stroke="black"/>
<path d="M70.7992,184.044h -13.6063" fill="none" stroke="black"/>
<path d="M63.9961,175.959h -6.80315" fill="none" stroke="black"/>
<path d="M63.9961,167.873h -6.80315" fill="none" stroke="black"/>
<path d="M63.9961,159.787h -6.80315" fill="none" stroke="black"/>
<path d="M63.9961,151.701h -6.80315" fill="none" stroke="black"/>
<path d="M70.7992,143.615h -13.6063" fill="none" stroke="black"/>
<path d="M63.9961,135.529h -6.80315" fill="none" stroke="black"/>
<path d="M63.9961,127.443h -6.80315" fill="none" stroke="black"/>
<path d="M63.9961,119.358h -6.80315" fill="none" stroke="black"/>
<path d="M63.9961,111.272h -6.80315" fill="none" stroke="black"/>
<path d="M70.7992,103.186h -13.6063" fill="none" stroke="black"/>
<path d="M63.9961,95.0999h -6.80315" fill="none" stroke="black"/>
<path d="M63.9961,87.014h -6.80315" fill="none" stroke="black"/>
<path d="M63.9961,78.9282h -6.80315" fill="none" stroke="black"/>
<path d="M63.9961,70.8423h -6.80315" fill="none" stroke="black"/>
<path d="M70.7992,62.7564h -13.6063" fill="none" stroke="black"/>
<path d="M70.7992,62.7564h -13.6063" fill="none" stroke="black"/>
<path d="M63.9961,54.6706h -6.80315" fill="none" stroke="black"/>
<path d="M63.9961,46.5847h -6.80315" fill="none" stroke="black"/>
<path d="M63.9961,38.4988h -6.80315" fill="none" stroke="black"/>
<text xml:space="preserve" x="47.6087" y="350.067" fill="black" font-size="12.836" font-family="Helvetica">0</text>
<text xml:space="preserve" x="41.111" y="309.456" fill="black" font-size="12.836" font-family="Helvetica">50</text>
<text xml:space="preserve" x="33.801" y="269.657" fill="black" font-size="12.836" font-family="Helvetica">100</text>
<text xml:space="preserve" x="33.801" y="229.046" fill="black" font-size="12.836" font-family="Helvetica">150</text>
<text xml:space="preserve" x="33.801" y="188.435" fill="black" font-size="12.836" font-family="Helvetica">200</text>
<text xml:space="preserve" x="33.801" y="147.824" fill="black" font-size="12.836" font-family="Helvetica">250</text>
<text xml:space="preserve" x="33.801" y="108.025" fill="black" font-size="12.836" font-family="Helvetica">300</text>
<text xml:space="preserve" x="33.801" y="67.4142" fill="black" font-size="12.836" font-family="Helvetica">350</text>
<g transform="rotate(-90,20.8055,69.8509)">
<text xml:space="preserve" x="20.8055" y="69.8509" fill="black" font-size="12.836" font-family="Helvetica">Event</text>
</g>
<text xml:space="preserve" x="254.725" y="18.681" fill="black" font-size="17.9813" font-family="Helvetica">Cs_011</text>
<rect x="442.705" y="24.9717" width="113.386" height="61.4688" fill="white"/>
<path d="M442.705,86.4405h 113.386" fill="none" stroke="black"/>
<path d="M556.091,86.4405v -61.4688" fill="none" stroke="black"/>
<path d="M556.091,24.9717h -113.386" fill="none" stroke="black"/>
<path d="M442.705,24.9717v 61.4688" fill="none" stroke="black"/>
<text xml:space="preserve" x="478.085" y="36.5499" fill="black" font-size="13.4705" font-family="Helvetica">Cs_011</text>
<path d="M442.705,40.3389h 113.386" fill="none" stroke="black"/>
<text xml:space="preserve" x="448.033" y="52.7943" fill="black" font-size="13.0884" font-family="Helvetica">Entries </text>
<text xml:space="preserve" x="517.884" y="52.7943" fill="black" font-size="13.0884" font-family="Helvetica"> 5207</text>
<text xml:space="preserve" x="448.033" y="68.2264" fill="black" font-size="13.0884" font-family="Helvetica">Mean  </text>
<text xml:space="preserve" x="513.01" y="68.2264" fill="black" font-size="13.0884" font-family="Helvetica">   1381</text>
<text xml:space="preserve" x="448.033" y="82.8464" fill="black" font-size="13.0884" font-family="Helvetica">Std Dev   </text>
<text xml:space="preserve" x="510.574" y="82.8464" fill="black" font-size="13.0884" font-family="Helvetica">  792.6</text>
<text xml:space="preserve" x="254.725" y="18.681" fill="black" font-size="17.9813" font-family="Helvetica">Cs_011</text></svg>
