<?xml version="1.0" standalone="no"?>
<svg width="567.429" height="384.969" viewBox="0 0 567.429 384.969" xmlns="http://www.w3.org/2000/svg" shape-rendering="crispEdges">
<title>
img/week1/plane_hist/Cs_007.svg
</title>
<desc>
Creator: ROOT Version 6.22/09
CreationDate: Fri Jul  2 21:18:37 2021</desc>
<defs>
</defs>
<rect x="0.5" y="0" width="566.929" height="384.469" fill="white"/>
<rect x="57.1929" y="38.4469" width="453.543" height="307.575" fill="white"/>
<rect x="57.1929" y="38.4469" width="453.543" height="307.575" fill="none" stroke="black"/>
<path d="M57.1929,346.022h 34.3222v -1.93512h 0.612896v -37.7349h 0.612896v -149.246h 0.612896v -104.013h 0.612896v 57.3279h 0.612896v 51.0388h 0.612896v 22.4958h 0.612896v 32.1714h 0.612896v 32.4133h 0.612896v 34.8322h 0.612896v 14.5134h 0.612896v
 8.70804h 0.612896v 6.77292h 0.612896v 14.7553h 0.612896v 5.07969h 0.612896v -2.90268h 0.612896v 5.56347h 0.612896v 1.69323h 0.612896v 3.38646h 0.612896v 0.72567h 0.612896v 1.20945h 0.612896v -0.96756h 0.612896v 3.38646h 0.612896v -1.93512h 0.612896v
 0.96756h 0.612896v 1.45134h 0.612896v -1.69323h 0.612896v 1.45134h 0.612896v -0.96756h 0.612896v 0.48378h 0.612896v -0.24189h 0.612896v 0.72567h 0.612896v -0.24189h 1.22579v 0.24189h 0.612896v -0.48378h 0.612896v -0.72567h 0.612896v 0.96756h
 0.612896v -0.96756h 1.22579v 0.72567h 0.612896v 0.72567h 0.612896v -0.72567h 0.612896v 0.72567h 1.22579v -0.96756h 0.612896v 0.24189h 0.612896v -0.48378h 0.612896v -0.72567h 0.612896v 1.45134h 0.612896v -0.72567h 0.612896v 0.24189h 0.612896v
 0.24189h 0.612896v -0.48378h 0.612896v -0.72567h 0.612896v 1.20945h 0.612896v -0.72567h 0.612896v 0.48378h 0.612896v 0.24189h 0.612896v 0.24189h 0.612896v -0.24189h 0.612896v 0.24189h 0.612896v 0.24189h 0.612896v -0.96756h 0.612896v 0.96756h
 0.612896v -0.48378h 1.83869v 0.72567h 0.612896v -0.96756h 0.612896v 0.48378h 0.612896v -0.24189h 0.612896v 0.24189h 0.612896v 0.24189h 0.612896v 0.24189h 0.612896v -0.72567h 0.612896v -0.24189h 1.22579v 0.96756h 0.612896v -0.96756h 0.612896v
 0.48378h 0.612896v -0.24189h 1.22579v 0.24189h 0.612896v -1.20945h 1.22579v 1.20945h 0.612896v -0.48378h 0.612896v -0.48378h 0.612896v 0.96756h 0.612896v -0.48378h 0.612896v -0.48378h 0.612896v 0.96756h 0.612896v 0.24189h 0.612896v -0.96756h
 0.612896v 0.48378h 0.612896v -0.24189h 0.612896v -0.24189h 0.612896v 0.72567h 0.612896v 0.48378h 0.612896v -0.72567h 0.612896v 0.48378h 0.612896v -0.24189h 0.612896v -0.48378h 0.612896v -0.48378h 0.612896v 0.96756h 0.612896v 0.48378h 0.612896v
 -0.72567h 0.612896v 0.24189h 0.612896v 0.24189h 1.22579v -0.72567h 1.22579v 0.48378h 0.612896v -0.24189h 0.612896v -0.48378h 0.612896v 0.72567h 0.612896v -0.24189h 0.612896v 0.24189h 0.612896v 0.24189h 0.612896v 0.24189h 0.612896v -1.20945h
 0.612896v 0.48378h 0.612896v 0.72567h 0.612896v -0.24189h 1.22579v -0.24189h 0.612896v 0.24189h 0.612896v -0.48378h 0.612896v 0.72567h 0.612896v 0.24189h 0.612896v -1.93512h 0.612896v 0.96756h 0.612896v 0.72567h 0.612896v 0.24189h 0.612896v
 -0.48378h 0.612896v -0.96756h 0.612896v 0.72567h 0.612896v 0.48378h 0.612896v -0.96756h 0.612896v 0.72567h 0.612896v -0.96756h 0.612896v 0.96756h 0.612896v -0.72567h 1.83869v 0.24189h 0.612896v 0.72567h 0.612896v -0.24189h 0.612896v -0.96756h
 0.612896v 0.96756h 0.612896v -0.24189h 0.612896v 0.48378h 0.612896v -0.48378h 0.612896v 0.24189h 0.612896v -1.20945h 0.612896v 0.96756h 1.22579v -0.24189h 0.612896v -1.45134h 0.612896v 1.93512h 1.22579v -0.72567h 1.22579v -1.45134h 0.612896v
 1.93512h 0.612896v -0.96756h 1.22579v 1.20945h 0.612896v -0.48378h 1.22579v -0.72567h 1.22579v -0.96756h 0.612896v 1.45134h 0.612896v -0.24189h 1.22579v 0.24189h 0.612896v -0.72567h 0.612896v -0.72567h 0.612896v 0.72567h 0.612896v 0.72567h 0.612896v
 -1.20945h 0.612896v 0.24189h 0.612896v 1.69323h 0.612896v -1.20945h 0.612896v -0.72567h 0.612896v 0.24189h 0.612896v 1.45134h 0.612896v -1.20945h 0.612896v -0.24189h 0.612896v 0.24189h 0.612896v 0.96756h 0.612896v -2.17701h 0.612896v 2.17701h
 0.612896v -0.72567h 0.612896v -0.24189h 1.22579v 0.24189h 0.612896v -1.20945h 0.612896v 1.69323h 0.612896v 0.24189h 0.612896v -0.72567h 0.612896v 0.72567h 0.612896v -1.45134h 0.612896v 1.20945h 0.612896v -0.48378h 0.612896v 0.72567h 0.612896v
 -0.24189h 0.612896v -0.24189h 0.612896v 0.48378h 0.612896v 0.24189h 0.612896v -0.96756h 0.612896v 0.96756h 0.612896v -0.96756h 1.22579v 0.48378h 0.612896v -0.72567h 0.612896v 1.20945h 0.612896v -0.96756h 1.22579v 1.20945h 0.612896v -0.96756h
 1.22579v 0.48378h 0.612896v 0.48378h 1.22579v -1.20945h 0.612896v -0.24189h 0.612896v 1.20945h 0.612896v 0.48378h 0.612896v -1.45134h 0.612896v 0.72567h 0.612896v -1.20945h 0.612896v 1.69323h 0.612896v -0.24189h 0.612896v -0.72567h 0.612896v
 0.48378h 1.22579v 0.48378h 0.612896v -0.24189h 0.612896v -0.96756h 0.612896v 0.96756h 0.612896v 0.48378h 1.22579v -1.20945h 1.83869v 0.48378h 1.22579v 0.48378h 0.612896v -0.48378h 0.612896v 0.24189h 0.612896v -0.72567h 0.612896v 0.48378h 0.612896v
 -1.69323h 0.612896v 2.4189h 0.612896v -0.72567h 0.612896v 0.24189h 0.612896v -0.96756h 0.612896v 1.20945h 0.612896v -0.72567h 0.612896v -1.20945h 0.612896v 1.20945h 0.612896v -0.24189h 0.612896v -0.24189h 0.612896v 0.24189h 0.612896v -1.69323h
 0.612896v -0.48378h 0.612896v 0.96756h 0.612896v 1.20945h 0.612896v -0.48378h 0.612896v 0.48378h 0.612896v -1.20945h 0.612896v 0.48378h 0.612896v -2.17701h 0.612896v 1.20945h 1.22579v 0.72567h 1.22579v -0.24189h 0.612896v -0.48378h 0.612896v
 0.72567h 0.612896v -2.66079h 0.612896v 0.72567h 0.612896v -0.24189h 0.612896v -0.48378h 0.612896v -0.24189h 0.612896v -0.48378h 0.612896v 1.69323h 0.612896v 0.24189h 0.612896v -0.24189h 0.612896v -1.69323h 0.612896v -0.72567h 1.22579v 2.17701h
 0.612896v -1.69323h 0.612896v -0.24189h 0.612896v 0.96756h 0.612896v 2.4189h 0.612896v -2.66079h 0.612896v 0.48378h 0.612896v -1.20945h 0.612896v 1.93512h 0.612896v -1.69323h 1.22579v 1.69323h 0.612896v 0.72567h 0.612896v -1.20945h 0.612896v
 0.72567h 0.612896v -2.90268h 0.612896v 4.35402h 0.612896v -0.48378h 0.612896v 0.96756h 0.612896v -1.69323h 0.612896v 0.72567h 0.612896v -0.48378h 0.612896v 0.24189h 0.612896v -0.72567h 0.612896v 1.20945h 0.612896v -0.72567h 0.612896v 1.69323h
 0.612896v -1.45134h 0.612896v 1.93512h 0.612896v -0.96756h 0.612896v -1.20945h 0.612896v 0.72567h 0.612896v 1.45134h 0.612896v -1.20945h 0.612896v 1.45134h 1.22579v -0.72567h 0.612896v 0.72567h 0.612896v -0.24189h 0.612896v -0.48378h 0.612896v
 1.69323h 0.612896v -0.72567h 0.612896v -0.72567h 0.612896v -1.20945h 0.612896v 2.17701h 1.22579v 0.48378h 0.612896v -0.72567h 0.612896v -0.48378h 0.612896v 0.48378h 0.612896v -2.4189h 0.612896v 2.66079h 0.612896v -1.93512h 0.612896v 1.20945h
 0.612896v -0.72567h 0.612896v -0.24189h 0.612896v -0.48378h 0.612896v 0.48378h 0.612896v 0.48378h 0.612896v -0.24189h 0.612896v 0.24189h 1.22579v 1.45134h 0.612896v -0.96756h 0.612896v -1.45134h 0.612896v 1.69323h 0.612896v -0.24189h 1.22579v
 0.48378h 0.612896v -0.72567h 0.612896v 0.48378h 0.612896v 0.48378h 0.612896v -0.48378h 0.612896v 0.96756h 0.612896v -0.96756h 0.612896v 0.24189h 0.612896v 0.48378h 0.612896v -0.72567h 0.612896v 0.72567h 0.612896v -0.24189h 0.612896v 0.24189h
 1.22579v -0.24189h 0.612896v 0.48378h 1.22579v -0.48378h 0.612896v -0.24189h 0.612896v 0.48378h 0.612896v 0.24189h 0.612896v -0.24189h 0.612896v 0.24189h 0.612896v -0.24189h 1.22579v 0.24189h 0.612896v -0.48378h 0.612896v 0.48378h 1.22579v 0.24189h
 0.612896v -0.48378h 0.612896v -0.72567h 0.612896v 1.20945h 1.83869v -0.24189h 0.612896v -0.96756h 0.612896v 0.72567h 1.22579v 0.24189h 1.83869v -0.24189h 0.612896v 0.48378h 0.612896v -0.72567h 0.612896v 0.24189h 0.612896v 0.48378h 0.612896v
 -0.72567h 0.612896v 0.24189h 0.612896v -0.48378h 0.612896v 0.72567h 0.612896v -0.48378h 0.612896v 0.48378h 0.612896v -0.24189h 0.612896v 0.48378h 0.612896v -0.48378h 0.612896v 0.24189h 0.612896v 0.24189h 0.612896v -0.72567h 0.612896v 0.48378h
 0.612896v -0.24189h 0.612896v 0.48378h 0.612896v -0.48378h 0.612896v 0.24189h 1.22579v -0.24189h 0.612896v 0.24189h 0.612896v -0.48378h 0.612896v 0.48378h 0.612896v -0.48378h 0.612896v 0.48378h 0.612896v -0.48378h 0.612896v 0.72567h 0.612896v
 -0.24189h 0.612896v -0.24189h 0.612896v -0.24189h 0.612896v 0.48378h 0.612896v 0.24189h 0.612896v -0.24189h 1.22579v -0.24189h 1.83869v 0.24189h 0.612896v -0.48378h 0.612896v -0.24189h 0.612896v 0.24189h 0.612896v 0.48378h 0.612896v 0.24189h
 0.612896v -0.24189h 0.612896v -0.24189h 0.612896v 0.24189h 0.612896v 0.24189h 0.612896v -0.24189h 1.22579v -0.24189h 0.612896v 0.24189h 0.612896v -0.24189h 1.83869v 0.24189h 0.612896v -0.24189h 0.612896v 0.24189h 0.612896v 0.24189h 0.612896v
 -0.24189h 3.06448v -0.72567h 0.612896v 0.72567h 1.22579v 0.24189h 0.612896v -0.48378h 0.612896v 0.48378h 0.612896v -0.24189h 1.22579v -0.72567h 0.612896v 0.48378h 0.612896v 0.24189h 0.612896v -0.24189h 0.612896v -0.24189h 0.612896v 0.24189h
 0.612896v 0.24189h 0.612896v 0.24189h 0.612896v -0.24189h 0.612896v -0.48378h 0.612896v 0.72567h 0.612896v -0.96756h 0.612896v 0.72567h 0.612896v -0.24189h 0.612896v 0.48378h 0.612896v -0.72567h 0.612896v 0.24189h 0.612896v 0.24189h 1.22579v
 -0.96756h 1.22579v 0.96756h 0.612896v -0.24189h 0.612896v -0.48378h 0.612896v 0.48378h 1.22579v 0.48378h 0.612896v -0.24189h 1.22579v -0.48378h 0.612896v 0.72567h 1.22579v -0.48378h 0.612896v 0.24189h 0.612896v -0.24189h 0.612896v 0.24189h 0.612896v
 -0.24189h 0.612896v 0.24189h 0.612896v -0.72567h 0.612896v 0.24189h 0.612896v 0.24189h 0.612896v 0.24189h 0.612896v -0.72567h 0.612896v 0.96756h 1.83869v -0.24189h 0.612896v 0.24189h 0.612896v -0.48378h 0.612896v 0.24189h 1.22579v -0.24189h
 0.612896v 0.24189h 0.612896v 0.24189h 1.83869v -0.24189h 1.22579v -0.48378h 0.612896v 0.72567h 0.612896v -0.72567h 0.612896v 0.24189h 0.612896v -0.24189h 0.612896v 0.48378h 1.22579v 0.24189h 0.612896v -0.72567h 0.612896v 0.72567h 1.22579v -0.24189h
 1.22579v -0.72567h 0.612896v 0.24189h 0.612896v 0.24189h 0.612896v -0.48378h 0.612896v 0.48378h 0.612896v 0.48378h 1.22579v -0.24189h 0.612896v -0.48378h 0.612896v 0.48378h 0.612896v -0.48378h 0.612896v 0.24189h 0.612896v -0.24189h 0.612896v
 0.24189h 1.22579v 0.24189h 0.612896v -0.24189h 0.612896v 0.24189h 0.612896v 0.24189h 0.612896v -0.24189h 0.612896v 0.24189h 1.22579v -0.24189h 0.612896v -0.24189h 0.612896v -0.48378h 0.612896v 0.72567h 0.612896v -0.24189h 0.612896v 0.24189h
 0.612896v -0.24189h 0.612896v 0.24189h 0.612896v 0.24189h 0.612896v -0.48378h 0.612896v 0.48378h 0.612896v -0.48378h 0.612896v 0.48378h 1.22579v -0.24189h 0.612896v -0.24189h 0.612896v -0.48378h 0.612896v 0.72567h 1.22579v -0.72567h 0.612896v
 0.96756h 0.612896v -0.24189h 0.612896v -0.24189h 0.612896v 0.48378h 0.612896v -0.48378h 0.612896v 0.24189h 0.612896v -0.24189h 0.612896v -0.72567h 0.612896v 1.20945h 1.83869v -0.72567h 0.612896v -0.24189h 0.612896v 0.48378h 0.612896v 0.48378h
 0.612896v -0.48378h 0.612896v -0.24189h 0.612896v 0.24189h 2.45159v 0.24189h 1.22579v -0.24189h 0.612896v 0.24189h 1.22579v -0.24189h 0.612896v 0.48378h 2.45159v -0.48378h 0.612896v -0.24189h 1.22579v -0.72567h 0.612896v -0.72567h 0.612896v
 -24.9147h 0.612896v -51.7645h 0.612896v 1.93512h 0.612896v 13.304h 0.612896v 13.304h 0.612896v 1.93512h 0.612896v 16.4485h 0.612896v 11.8526h 0.612896v 1.69323h 0.612896v 1.69323h 0.612896v 3.38646h 0.612896v -1.45134h 0.612896v 5.80536h 0.612896v
 -4.8378h 0.612896v 2.4189h 0.612896v -0.72567h 0.612896v 4.35402h 0.612896v -3.62835h 0.612896v -1.20945h 0.612896v 3.14457h 0.612896v -2.17701h 0.612896v 2.4189h 0.612896v -0.96756h 0.612896v 0.72567h 0.612896v 2.66079h 0.612896v -1.20945h
 0.612896v -3.38646h 0.612896v 3.14457h 0.612896v -2.4189h 0.612896v 3.38646h 1.22579v 0.24189h 0.612896v -1.45134h 1.22579v 3.38646h 0.612896v -0.48378h 0.612896v -0.72567h 0.612896v 2.66079h 0.612896v 1.93512h 0.612896v 1.45134h 0.612896v -0.72567h
 0.612896v 0.96756h 7.96765v -0.24189h 0.612896" fill="none" stroke="#000099"/>
<path d="M57.1929,346.022h 453.543" fill="none" stroke="black"/>
<path d="M57.8058,336.795v 9.22726" fill="none" stroke="black"/>
<path d="M78.2357,341.409v 4.61363" fill="none" stroke="black"/>
<path d="M98.6656,341.409v 4.61363" fill="none" stroke="black"/>
<path d="M119.095,341.409v 4.61363" fill="none" stroke="black"/>
<path d="M139.525,341.409v 4.61363" fill="none" stroke="black"/>
<path d="M159.955,336.795v 9.22726" fill="none" stroke="black"/>
<path d="M180.385,341.409v 4.61363" fill="none" stroke="black"/>
<path d="M200.815,341.409v 4.61363" fill="none" stroke="black"/>
<path d="M221.245,341.409v 4.61363" fill="none" stroke="black"/>
<path d="M241.675,341.409v 4.61363" fill="none" stroke="black"/>
<path d="M262.105,336.795v 9.22726" fill="none" stroke="black"/>
<path d="M282.534,341.409v 4.61363" fill="none" stroke="black"/>
<path d="M302.964,341.409v 4.61363" fill="none" stroke="black"/>
<path d="M323.394,341.409v 4.61363" fill="none" stroke="black"/>
<path d="M343.824,341.409v 4.61363" fill="none" stroke="black"/>
<path d="M364.254,336.795v 9.22726" fill="none" stroke="black"/>
<path d="M384.684,341.409v 4.61363" fill="none" stroke="black"/>
<path d="M405.114,341.409v 4.61363" fill="none" stroke="black"/>
<path d="M425.544,341.409v 4.61363" fill="none" stroke="black"/>
<path d="M445.974,341.409v 4.61363" fill="none" stroke="black"/>
<path d="M466.403,336.795v 9.22726" fill="none" stroke="black"/>
<path d="M57.8058,336.795v 9.22726" fill="none" stroke="black"/>
<path d="M466.403,336.795v 9.22726" fill="none" stroke="black"/>
<path d="M486.833,341.409v 4.61363" fill="none" stroke="black"/>
<path d="M507.263,341.409v 4.61363" fill="none" stroke="black"/>
<text xml:space="preserve" x="54.2605" y="358.403" fill="black" font-size="12.8453" font-family="Helvetica">0</text>
<text xml:space="preserve" x="148.749" y="358.403" fill="black" font-size="12.8453" font-family="Helvetica">500</text>
<text xml:space="preserve" x="248.124" y="358.403" fill="black" font-size="12.8453" font-family="Helvetica">1000</text>
<text xml:space="preserve" x="349.943" y="358.403" fill="black" font-size="12.8453" font-family="Helvetica">1500</text>
<text xml:space="preserve" x="451.763" y="358.403" fill="black" font-size="12.8453" font-family="Helvetica">2000</text>
<text xml:space="preserve" x="451.763" y="372.251" fill="black" font-size="12.8453" font-family="Helvetica">ADC value</text>
<path d="M57.1929,346.022v -307.575" fill="none" stroke="black"/>
<path d="M70.7992,346.022h -13.6063" fill="none" stroke="black"/>
<path d="M63.9961,333.928h -6.80315" fill="none" stroke="black"/>
<path d="M63.9961,321.833h -6.80315" fill="none" stroke="black"/>
<path d="M63.9961,309.739h -6.80315" fill="none" stroke="black"/>
<path d="M70.7992,297.644h -13.6063" fill="none" stroke="black"/>
<path d="M63.9961,285.55h -6.80315" fill="none" stroke="black"/>
<path d="M63.9961,273.455h -6.80315" fill="none" stroke="black"/>
<path d="M63.9961,261.361h -6.80315" fill="none" stroke="black"/>
<path d="M70.7992,249.266h -13.6063" fill="none" stroke="black"/>
<path d="M63.9961,237.172h -6.80315" fill="none" stroke="black"/>
<path d="M63.9961,225.077h -6.80315" fill="none" stroke="black"/>
<path d="M63.9961,212.983h -6.80315" fill="none" stroke="black"/>
<path d="M70.7992,200.888h -13.6063" fill="none" stroke="black"/>
<path d="M63.9961,188.794h -6.80315" fill="none" stroke="black"/>
<path d="M63.9961,176.699h -6.80315" fill="none" stroke="black"/>
<path d="M63.9961,164.605h -6.80315" fill="none" stroke="black"/>
<path d="M70.7992,152.51h -13.6063" fill="none" stroke="black"/>
<path d="M63.9961,140.416h -6.80315" fill="none" stroke="black"/>
<path d="M63.9961,128.321h -6.80315" fill="none" stroke="black"/>
<path d="M63.9961,116.227h -6.80315" fill="none" stroke="black"/>
<path d="M70.7992,104.132h -13.6063" fill="none" stroke="black"/>
<path d="M63.9961,92.0377h -6.80315" fill="none" stroke="black"/>
<path d="M63.9961,79.9432h -6.80315" fill="none" stroke="black"/>
<path d="M63.9961,67.8487h -6.80315" fill="none" stroke="black"/>
<path d="M70.7992,55.7542h -13.6063" fill="none" stroke="black"/>
<path d="M70.7992,55.7542h -13.6063" fill="none" stroke="black"/>
<path d="M63.9961,43.6597h -6.80315" fill="none" stroke="black"/>
<text xml:space="preserve" x="47.7441" y="350.258" fill="black" font-size="12.8453" font-family="Helvetica">0</text>
<text xml:space="preserve" x="33.8967" y="302.199" fill="black" font-size="12.8453" font-family="Helvetica">200</text>
<text xml:space="preserve" x="33.8967" y="254.141" fill="black" font-size="12.8453" font-family="Helvetica">400</text>
<text xml:space="preserve" x="33.8967" y="205.267" fill="black" font-size="12.8453" font-family="Helvetica">600</text>
<text xml:space="preserve" x="33.8967" y="157.209" fill="black" font-size="12.8453" font-family="Helvetica">800</text>
<text xml:space="preserve" x="27.3803" y="108.336" fill="black" font-size="12.8453" font-family="Helvetica">1000</text>
<text xml:space="preserve" x="27.3803" y="60.2769" fill="black" font-size="12.8453" font-family="Helvetica">1200</text>
<g transform="rotate(-90,14.3474,70.0516)">
<text xml:space="preserve" x="14.3474" y="70.0516" fill="black" font-size="12.8453" font-family="Helvetica">Event</text>
</g>
<text xml:space="preserve" x="253.012" y="18.7347" fill="black" font-size="18.0316" font-family="Helvetica">Cs_007</text>
<rect x="442.705" y="24.9905" width="113.386" height="61.5151" fill="white"/>
<path d="M442.705,86.5056h 113.386" fill="none" stroke="black"/>
<path d="M556.091,86.5056v -61.5151" fill="none" stroke="black"/>
<path d="M556.091,24.9905h -113.386" fill="none" stroke="black"/>
<path d="M442.705,24.9905v 61.5151" fill="none" stroke="black"/>
<text xml:space="preserve" x="476.199" y="36.6549" fill="black" font-size="13.4802" font-family="Helvetica">Cs_007</text>
<path d="M442.705,40.3693h 113.386" fill="none" stroke="black"/>
<text xml:space="preserve" x="447.69" y="52.946" fill="black" font-size="12.7186" font-family="Helvetica">Entries </text>
<text xml:space="preserve" x="512.854" y="52.946" fill="black" font-size="12.7186" font-family="Helvetica"> 12279</text>
<text xml:space="preserve" x="447.69" y="67.6079" fill="black" font-size="12.7186" font-family="Helvetica">Mean  </text>
<text xml:space="preserve" x="512.854" y="67.6079" fill="black" font-size="12.7186" font-family="Helvetica">  811.4</text>
<text xml:space="preserve" x="447.69" y="83.0844" fill="black" font-size="12.7186" font-family="Helvetica">Std Dev   </text>
<text xml:space="preserve" x="512.854" y="83.0844" fill="black" font-size="12.7186" font-family="Helvetica">  796.7</text>
<text xml:space="preserve" x="253.012" y="18.7347" fill="black" font-size="18.0316" font-family="Helvetica">Cs_007</text></svg>
