<?xml version="1.0" standalone="no"?>
<svg width="567.429" height="384.969" viewBox="0 0 567.429 384.969" xmlns="http://www.w3.org/2000/svg" shape-rendering="crispEdges">
<title>
img/week1/plane_hist/Cs_014.svg
</title>
<desc>
Creator: ROOT Version 6.22/09
CreationDate: Sun Jul 11 18:58:48 2021</desc>
<defs>
</defs>
<rect x="0.5" y="0" width="566.929" height="384.469" fill="white"/>
<rect x="57.1929" y="38.4469" width="453.543" height="307.575" fill="white"/>
<rect x="57.1929" y="38.4469" width="453.543" height="307.575" fill="none" stroke="black"/>
<path d="M57.1929,346.022h 65.6856v -3.72762h 0.625577v -21.1232h 0.625577v -16.153h 0.625577v 12.1148h 0.625577v 11.1829h 0.625577v -6.2127h 0.625577v 7.45524h 0.625577v -2.79572h 0.625577v 4.97016h 0.625577v -0.62127h 0.625577v 2.79572h 0.625577v
 4.65953h 0.625577v 2.79572h 0.625577v -0.62127h 0.625577v 0.62127h 0.625577v -1.55318h 0.625577v 1.86381h 0.625577v -2.48508h 0.625577v 4.65953h 0.625577v -1.86381h 0.625577v -0.931905h 0.625577v 0.62127h 0.625577v 2.17445h 1.25115v -1.24254h
 0.625577v 0.931905h 0.625577v 0.310635h 0.625577v -0.62127h 0.625577v 1.24254h 1.25115v -0.310635h 0.625577v 1.24254h 0.625577v -1.55318h 0.625577v -0.931905h 0.625577v 0.62127h 0.625577v -0.62127h 0.625577v 0.931905h 0.625577v -0.310635h 0.625577v
 0.310635h 0.625577v 0.310635h 0.625577v 0.310635h 0.625577v -0.62127h 1.25115v 0.310635h 0.625577v 0.931905h 0.625577v -0.931905h 0.625577v 0.931905h 0.625577v -1.55318h 1.25115v 1.24254h 1.25115v -0.310635h 0.625577v -1.55318h 0.625577v 0.931905h
 0.625577v 0.310635h 0.625577v 0.62127h 0.625577v -1.86381h 0.625577v 0.310635h 0.625577v 0.62127h 0.625577v -1.86381h 0.625577v 2.48508h 0.625577v -0.62127h 0.625577v -0.310635h 0.625577v 0.310635h 0.625577v 0.310635h 0.625577v 0.310635h 0.625577v
 0.62127h 0.625577v -1.24254h 0.625577v 0.310635h 1.25115v -1.55318h 0.625577v 1.86381h 0.625577v -0.310635h 0.625577v 0.931905h 0.625577v -1.86381h 1.25115v 2.17445h 0.625577v -0.931905h 0.625577v 0.310635h 0.625577v -0.62127h 0.625577v -0.310635h
 0.625577v 0.310635h 0.625577v 0.931905h 0.625577v -1.86381h 0.625577v 1.55318h 1.25115v 0.62127h 0.625577v -0.931905h 0.625577v 0.62127h 0.625577v -0.931905h 0.625577v -0.310635h 0.625577v 0.310635h 0.625577v 0.310635h 1.25115v -2.17445h 0.625577v
 1.86381h 0.625577v -0.931905h 0.625577v 1.55318h 0.625577v -1.24254h 0.625577v 0.62127h 0.625577v 0.931905h 0.625577v -0.310635h 0.625577v -0.931905h 0.625577v -1.24254h 0.625577v 1.55318h 0.625577v 0.931905h 0.625577v -0.931905h 0.625577v 0.310635h
 0.625577v -1.24254h 0.625577v 1.86381h 0.625577v -0.62127h 1.25115v 0.310635h 0.625577v -1.24254h 0.625577v 0.931905h 0.625577v 0.62127h 0.625577v -0.931905h 0.625577v -0.310635h 0.625577v 1.55318h 0.625577v -1.55318h 1.25115v 0.310635h 1.25115v
 0.310635h 0.625577v 0.62127h 0.625577v -0.931905h 0.625577v 0.310635h 0.625577v 0.62127h 0.625577v -1.55318h 0.625577v 0.931905h 1.25115v 0.931905h 0.625577v -0.310635h 0.625577v -0.931905h 0.625577v -0.62127h 0.625577v 0.310635h 0.625577v 0.62127h
 0.625577v 0.62127h 1.25115v -0.931905h 0.625577v 0.931905h 0.625577v -0.931905h 0.625577v -0.310635h 0.625577v -0.310635h 0.625577v 1.86381h 0.625577v -1.24254h 0.625577v 0.62127h 0.625577v -0.62127h 1.25115v 0.62127h 0.625577v 0.310635h 0.625577v
 -1.24254h 0.625577v 0.931905h 0.625577v -0.62127h 0.625577v -0.62127h 0.625577v 1.24254h 0.625577v 0.310635h 0.625577v 0.62127h 0.625577v -0.931905h 0.625577v -0.62127h 0.625577v 0.310635h 0.625577v 0.62127h 0.625577v -0.62127h 0.625577v -0.62127h
 0.625577v 0.62127h 0.625577v 0.62127h 0.625577v -0.310635h 1.25115v 0.931905h 0.625577v -1.86381h 0.625577v 0.931905h 0.625577v -0.62127h 0.625577v 0.310635h 0.625577v -0.62127h 0.625577v 0.931905h 0.625577v -1.24254h 0.625577v -0.62127h 0.625577v
 1.24254h 0.625577v 0.310635h 0.625577v -0.62127h 0.625577v 1.24254h 1.25115v -0.62127h 0.625577v 1.24254h 0.625577v -0.931905h 0.625577v -1.55318h 0.625577v 1.24254h 1.25115v -0.310635h 0.625577v 0.310635h 0.625577v -0.310635h 0.625577v -0.62127h
 0.625577v 1.24254h 0.625577v 0.931905h 0.625577v -2.17445h 0.625577v 0.62127h 0.625577v 0.62127h 0.625577v 0.310635h 0.625577v -1.24254h 0.625577v 0.931905h 0.625577v -0.310635h 0.625577v 0.310635h 0.625577v -0.310635h 0.625577v -0.310635h 1.25115v
 -0.62127h 0.625577v 2.48508h 0.625577v -1.55318h 0.625577v 0.62127h 0.625577v -1.24254h 0.625577v -0.931905h 0.625577v 1.55318h 0.625577v -0.310635h 0.625577v -0.62127h 1.25115v 1.55318h 1.25115v -0.62127h 0.625577v -0.310635h 0.625577v -0.62127h
 0.625577v 1.24254h 0.625577v 1.24254h 0.625577v -0.931905h 0.625577v -0.931905h 0.625577v 0.310635h 0.625577v 0.931905h 0.625577v -0.931905h 0.625577v 0.931905h 1.25115v -1.24254h 1.25115v 0.62127h 0.625577v 0.62127h 0.625577v -1.24254h 0.625577v
 0.310635h 1.25115v -0.62127h 0.625577v 1.86381h 0.625577v -0.310635h 0.625577v -1.55318h 0.625577v 0.931905h 0.625577v -0.310635h 0.625577v -0.310635h 0.625577v 0.310635h 0.625577v -0.310635h 0.625577v -0.310635h 0.625577v 0.310635h 0.625577v
 0.931905h 0.625577v -0.310635h 0.625577v -1.86381h 0.625577v 0.931905h 0.625577v -0.310635h 0.625577v 0.931905h 0.625577v -0.310635h 0.625577v -0.931905h 0.625577v 0.310635h 0.625577v 0.931905h 0.625577v 1.24254h 0.625577v -1.55318h 0.625577v
 0.62127h 0.625577v -0.62127h 1.25115v 0.62127h 0.625577v -0.931905h 0.625577v 0.310635h 0.625577v 0.310635h 1.25115v -0.310635h 1.25115v -0.310635h 0.625577v -0.62127h 0.625577v 0.62127h 0.625577v 0.62127h 0.625577v -1.24254h 0.625577v 0.310635h
 0.625577v 0.62127h 0.625577v -0.310635h 0.625577v -0.310635h 0.625577v -0.931905h 0.625577v -0.931905h 0.625577v 1.86381h 0.625577v -2.48508h 0.625577v 3.41699h 0.625577v -0.62127h 0.625577v -0.310635h 0.625577v -1.86381h 0.625577v 1.24254h
 0.625577v 0.931905h 0.625577v -1.86381h 0.625577v 2.48508h 0.625577v -1.55318h 0.625577v -1.86381h 0.625577v 1.24254h 0.625577v -0.310635h 0.625577v 2.17445h 0.625577v -1.55318h 1.25115v -0.310635h 0.625577v 0.310635h 1.25115v 0.310635h 0.625577v
 -0.310635h 0.625577v -0.310635h 0.625577v 1.24254h 0.625577v 0.310635h 0.625577v -0.931905h 0.625577v -0.931905h 0.625577v 1.86381h 0.625577v -0.931905h 0.625577v -0.931905h 1.25115v 1.24254h 0.625577v -1.55318h 0.625577v 0.62127h 0.625577v 1.24254h
 0.625577v -0.931905h 0.625577v -0.310635h 0.625577v 0.310635h 0.625577v 1.55318h 0.625577v -0.62127h 0.625577v 0.310635h 1.25115v -0.310635h 1.25115v -0.931905h 0.625577v 0.62127h 0.625577v -0.931905h 0.625577v 1.86381h 0.625577v -1.55318h 0.625577v
 1.24254h 0.625577v 0.62127h 0.625577v -0.62127h 0.625577v -0.310635h 0.625577v -0.62127h 0.625577v 1.86381h 0.625577v -2.17445h 0.625577v 2.17445h 1.25115v -1.24254h 0.625577v -0.931905h 0.625577v 2.48508h 0.625577v -1.55318h 0.625577v 1.55318h
 0.625577v -1.86381h 0.625577v 1.55318h 0.625577v -3.41699h 0.625577v 3.41699h 0.625577v -1.24254h 0.625577v 1.24254h 0.625577v -1.24254h 1.25115v 0.62127h 0.625577v -0.310635h 0.625577v -0.310635h 1.87673v -0.310635h 0.625577v 0.931905h 0.625577v
 0.310635h 0.625577v 0.310635h 1.25115v -1.55318h 0.625577v 1.24254h 0.625577v 0.62127h 0.625577v -0.310635h 0.625577v 0.931905h 0.625577v -2.17445h 0.625577v 1.24254h 0.625577v 0.310635h 0.625577v -0.931905h 1.25115v 1.24254h 0.625577v -0.931905h
 0.625577v -0.931905h 0.625577v 0.62127h 0.625577v 0.310635h 1.25115v 0.310635h 0.625577v -1.86381h 0.625577v 1.55318h 0.625577v 0.310635h 1.25115v -0.931905h 0.625577v 0.310635h 0.625577v -0.62127h 0.625577v 0.310635h 0.625577v -0.62127h 0.625577v
 0.62127h 0.625577v -0.62127h 0.625577v 0.62127h 0.625577v 1.24254h 0.625577v -1.24254h 0.625577v -0.62127h 0.625577v 0.931905h 0.625577v 0.310635h 1.25115v -1.24254h 0.625577v 1.86381h 0.625577v -1.86381h 0.625577v 1.55318h 0.625577v -0.310635h
 0.625577v 0.931905h 0.625577v -0.931905h 0.625577v 0.62127h 1.87673v -0.62127h 0.625577v 0.310635h 0.625577v -0.310635h 0.625577v -0.931905h 0.625577v 0.310635h 0.625577v -1.86381h 0.625577v 1.86381h 0.625577v 0.62127h 0.625577v -0.931905h 0.625577v
 -1.24254h 0.625577v 1.86381h 0.625577v 1.24254h 0.625577v -0.62127h 0.625577v -1.24254h 0.625577v -1.24254h 0.625577v 1.55318h 0.625577v 0.310635h 0.625577v -0.931905h 0.625577v -0.931905h 0.625577v 1.55318h 0.625577v 0.931905h 1.25115v -1.86381h
 0.625577v -0.62127h 0.625577v 0.931905h 0.625577v 0.62127h 0.625577v 0.62127h 1.25115v -2.17445h 0.625577v 0.310635h 0.625577v 0.62127h 0.625577v 0.931905h 0.625577v -0.62127h 0.625577v -0.62127h 0.625577v 1.24254h 0.625577v -2.17445h 0.625577v
 -0.931905h 0.625577v 3.41699h 0.625577v -2.79572h 0.625577v -0.62127h 0.625577v 1.24254h 0.625577v 0.310635h 0.625577v -0.310635h 0.625577v -2.79572h 0.625577v 1.24254h 0.625577v 2.17445h 0.625577v -3.41699h 0.625577v 3.72762h 0.625577v -1.24254h
 0.625577v -1.55318h 0.625577v -0.931905h 0.625577v 0.310635h 0.625577v -1.24254h 0.625577v 3.41699h 0.625577v -0.931905h 0.625577v -0.62127h 0.625577v 0.62127h 0.625577v -4.03826h 0.625577v 4.03826h 0.625577v -1.24254h 0.625577v -3.41699h 0.625577v
 2.17445h 0.625577v 0.62127h 0.625577v -0.931905h 0.625577v -3.72762h 0.625577v 3.10635h 0.625577v -0.62127h 0.625577v 3.72762h 0.625577v -1.24254h 0.625577v -2.48508h 0.625577v -1.24254h 0.625577v 2.17445h 0.625577v -1.55318h 0.625577v 1.55318h
 0.625577v -0.310635h 0.625577v -2.17445h 0.625577v 0.310635h 0.625577v 1.24254h 0.625577v -3.41699h 0.625577v -1.55318h 0.625577v 0.931905h 0.625577v 5.90207h 0.625577v -2.79572h 0.625577v -3.72762h 0.625577v 0.931905h 0.625577v 1.86381h 0.625577v
 -3.72762h 0.625577v 7.45524h 0.625577v -1.86381h 0.625577v -1.24254h 0.625577v 0.62127h 0.625577v -1.24254h 0.625577v -2.48508h 0.625577v 5.59143h 0.625577v -1.24254h 0.625577v -0.310635h 0.625577v 4.65953h 0.625577v -7.76588h 0.625577v 5.2808h
 0.625577v 1.86381h 0.625577v -0.62127h 0.625577v -2.48508h 0.625577v -1.55318h 0.625577v 3.41699h 0.625577v -0.310635h 0.625577v -1.86381h 0.625577v -4.65953h 0.625577v 5.2808h 0.625577v 2.17445h 0.625577v -1.24254h 0.625577v -1.55318h 0.625577v
 -0.310635h 0.625577v 4.34889h 0.625577v -3.10635h 0.625577v 0.62127h 0.625577v -2.17445h 0.625577v 4.03826h 0.625577v 0.310635h 0.625577v 1.86381h 0.625577v -2.48508h 0.625577v -0.310635h 0.625577v -0.62127h 0.625577v 2.17445h 0.625577v -0.310635h
 0.625577v -0.310635h 0.625577v -1.55318h 0.625577v 3.10635h 0.625577v -1.55318h 0.625577v 1.86381h 0.625577v -1.86381h 0.625577v 1.24254h 0.625577v 0.931905h 0.625577v 0.310635h 0.625577v 0.310635h 0.625577v -1.86381h 0.625577v 0.62127h 0.625577v
 1.24254h 0.625577v 0.62127h 0.625577v -4.03826h 0.625577v 2.48508h 0.625577v -0.62127h 0.625577v 1.55318h 0.625577v -0.931905h 1.25115v -0.62127h 0.625577v 0.931905h 0.625577v -1.24254h 0.625577v 0.62127h 0.625577v -0.62127h 0.625577v 0.310635h
 0.625577v 1.86381h 0.625577v -0.310635h 0.625577v 0.310635h 0.625577v -0.62127h 0.625577v -0.931905h 0.625577v 2.17445h 0.625577v -2.17445h 0.625577v 0.310635h 0.625577v 0.931905h 1.25115v -0.62127h 0.625577v 0.931905h 0.625577v -1.86381h 0.625577v
 -0.310635h 0.625577v 2.17445h 0.625577v -4.65953h 0.625577v -49.7016h 0.625577v -236.704h 0.625577v 51.8761h 0.625577v 64.3015h 0.625577v -0.62127h 0.625577v 15.8424h 0.625577v 37.2762h 0.625577v 45.3527h 0.625577v 14.5998h 0.625577v 10.5616h
 0.625577v 5.90207h 0.625577v 9.94032h 0.625577v 4.97016h 0.625577v -16.4637h 0.625577v 4.03826h 0.625577v 12.4254h 0.625577v 2.17445h 0.625577v -8.07651h 0.625577v 4.34889h 0.625577v -10.5616h 0.625577v 10.251h 0.625577v 2.48508h 0.625577v -4.34889h
 0.625577v 1.55318h 0.625577v 3.72762h 0.625577v 4.65953h 0.625577v -7.14461h 0.625577v -6.2127h 0.625577v 13.3573h 0.625577v -5.2808h 0.625577v 3.10635h 0.625577v -6.83397h 0.625577v 1.86381h 0.625577v 4.65953h 0.625577v 6.52334h 0.625577v -1.55318h
 0.625577v -14.9105h 0.625577v 9.62969h 0.625577v -0.931905h 0.625577v 5.59143h 0.625577v 1.24254h 0.625577v 5.90207h 0.625577v 6.52334h 0.625577v 8.69778h 0.625577v 1.24254h 0.625577v 0.62127h 0.625577v 0.310635h 1.25115" fill="none"
 stroke="#000099"/>
<path d="M57.1929,346.022h 453.543" fill="none" stroke="black"/>
<path d="M57.8185,336.795v 9.22726" fill="none" stroke="black"/>
<path d="M78.6711,341.409v 4.61363" fill="none" stroke="black"/>
<path d="M99.5236,341.409v 4.61363" fill="none" stroke="black"/>
<path d="M120.376,341.409v 4.61363" fill="none" stroke="black"/>
<path d="M141.229,341.409v 4.61363" fill="none" stroke="black"/>
<path d="M162.081,336.795v 9.22726" fill="none" stroke="black"/>
<path d="M182.934,341.409v 4.61363" fill="none" stroke="black"/>
<path d="M203.786,341.409v 4.61363" fill="none" stroke="black"/>
<path d="M224.639,341.409v 4.61363" fill="none" stroke="black"/>
<path d="M245.492,341.409v 4.61363" fill="none" stroke="black"/>
<path d="M266.344,336.795v 9.22726" fill="none" stroke="black"/>
<path d="M287.197,341.409v 4.61363" fill="none" stroke="black"/>
<path d="M308.049,341.409v 4.61363" fill="none" stroke="black"/>
<path d="M328.902,341.409v 4.61363" fill="none" stroke="black"/>
<path d="M349.754,341.409v 4.61363" fill="none" stroke="black"/>
<path d="M370.607,336.795v 9.22726" fill="none" stroke="black"/>
<path d="M391.46,341.409v 4.61363" fill="none" stroke="black"/>
<path d="M412.312,341.409v 4.61363" fill="none" stroke="black"/>
<path d="M433.165,341.409v 4.61363" fill="none" stroke="black"/>
<path d="M454.017,341.409v 4.61363" fill="none" stroke="black"/>
<path d="M474.87,336.795v 9.22726" fill="none" stroke="black"/>
<path d="M57.8185,336.795v 9.22726" fill="none" stroke="black"/>
<path d="M474.87,336.795v 9.22726" fill="none" stroke="black"/>
<path d="M495.722,341.409v 4.61363" fill="none" stroke="black"/>
<text xml:space="preserve" x="54.2605" y="358.403" fill="black" font-size="12.8453" font-family="Helvetica">0</text>
<text xml:space="preserve" x="151.192" y="358.403" fill="black" font-size="12.8453" font-family="Helvetica">500</text>
<text xml:space="preserve" x="252.197" y="358.403" fill="black" font-size="12.8453" font-family="Helvetica">1000</text>
<text xml:space="preserve" x="356.46" y="358.403" fill="black" font-size="12.8453" font-family="Helvetica">1500</text>
<text xml:space="preserve" x="460.723" y="358.403" fill="black" font-size="12.8453" font-family="Helvetica">2000</text>
<text xml:space="preserve" x="451.763" y="372.251" fill="black" font-size="12.8453" font-family="Helvetica">ADC value</text>
<path d="M57.1929,346.022v -307.575" fill="none" stroke="black"/>
<path d="M70.7992,346.022h -13.6063" fill="none" stroke="black"/>
<path d="M63.9961,339.81h -6.80315" fill="none" stroke="black"/>
<path d="M63.9961,333.597h -6.80315" fill="none" stroke="black"/>
<path d="M63.9961,327.384h -6.80315" fill="none" stroke="black"/>
<path d="M63.9961,321.171h -6.80315" fill="none" stroke="black"/>
<path d="M70.7992,314.959h -13.6063" fill="none" stroke="black"/>
<path d="M63.9961,308.746h -6.80315" fill="none" stroke="black"/>
<path d="M63.9961,302.533h -6.80315" fill="none" stroke="black"/>
<path d="M63.9961,296.321h -6.80315" fill="none" stroke="black"/>
<path d="M63.9961,290.108h -6.80315" fill="none" stroke="black"/>
<path d="M70.7992,283.895h -13.6063" fill="none" stroke="black"/>
<path d="M63.9961,277.683h -6.80315" fill="none" stroke="black"/>
<path d="M63.9961,271.47h -6.80315" fill="none" stroke="black"/>
<path d="M63.9961,265.257h -6.80315" fill="none" stroke="black"/>
<path d="M63.9961,259.044h -6.80315" fill="none" stroke="black"/>
<path d="M70.7992,252.832h -13.6063" fill="none" stroke="black"/>
<path d="M63.9961,246.619h -6.80315" fill="none" stroke="black"/>
<path d="M63.9961,240.406h -6.80315" fill="none" stroke="black"/>
<path d="M63.9961,234.194h -6.80315" fill="none" stroke="black"/>
<path d="M63.9961,227.981h -6.80315" fill="none" stroke="black"/>
<path d="M70.7992,221.768h -13.6063" fill="none" stroke="black"/>
<path d="M63.9961,215.556h -6.80315" fill="none" stroke="black"/>
<path d="M63.9961,209.343h -6.80315" fill="none" stroke="black"/>
<path d="M63.9961,203.13h -6.80315" fill="none" stroke="black"/>
<path d="M63.9961,196.917h -6.80315" fill="none" stroke="black"/>
<path d="M70.7992,190.705h -13.6063" fill="none" stroke="black"/>
<path d="M63.9961,184.492h -6.80315" fill="none" stroke="black"/>
<path d="M63.9961,178.279h -6.80315" fill="none" stroke="black"/>
<path d="M63.9961,172.067h -6.80315" fill="none" stroke="black"/>
<path d="M63.9961,165.854h -6.80315" fill="none" stroke="black"/>
<path d="M70.7992,159.641h -13.6063" fill="none" stroke="black"/>
<path d="M63.9961,153.428h -6.80315" fill="none" stroke="black"/>
<path d="M63.9961,147.216h -6.80315" fill="none" stroke="black"/>
<path d="M63.9961,141.003h -6.80315" fill="none" stroke="black"/>
<path d="M63.9961,134.79h -6.80315" fill="none" stroke="black"/>
<path d="M70.7992,128.578h -13.6063" fill="none" stroke="black"/>
<path d="M63.9961,122.365h -6.80315" fill="none" stroke="black"/>
<path d="M63.9961,116.152h -6.80315" fill="none" stroke="black"/>
<path d="M63.9961,109.94h -6.80315" fill="none" stroke="black"/>
<path d="M63.9961,103.727h -6.80315" fill="none" stroke="black"/>
<path d="M70.7992,97.5142h -13.6063" fill="none" stroke="black"/>
<path d="M63.9961,91.3015h -6.80315" fill="none" stroke="black"/>
<path d="M63.9961,85.0888h -6.80315" fill="none" stroke="black"/>
<path d="M63.9961,78.8761h -6.80315" fill="none" stroke="black"/>
<path d="M63.9961,72.6634h -6.80315" fill="none" stroke="black"/>
<path d="M70.7992,66.4507h -13.6063" fill="none" stroke="black"/>
<path d="M70.7992,66.4507h -13.6063" fill="none" stroke="black"/>
<path d="M63.9961,60.238h -6.80315" fill="none" stroke="black"/>
<path d="M63.9961,54.0253h -6.80315" fill="none" stroke="black"/>
<path d="M63.9961,47.8126h -6.80315" fill="none" stroke="black"/>
<path d="M63.9961,41.5999h -6.80315" fill="none" stroke="black"/>
<text xml:space="preserve" x="47.7441" y="350.258" fill="black" font-size="12.8453" font-family="Helvetica">0</text>
<text xml:space="preserve" x="33.8967" y="319.305" fill="black" font-size="12.8453" font-family="Helvetica">100</text>
<text xml:space="preserve" x="33.8967" y="288.352" fill="black" font-size="12.8453" font-family="Helvetica">200</text>
<text xml:space="preserve" x="33.8967" y="257.399" fill="black" font-size="12.8453" font-family="Helvetica">300</text>
<text xml:space="preserve" x="33.8967" y="226.446" fill="black" font-size="12.8453" font-family="Helvetica">400</text>
<text xml:space="preserve" x="33.8967" y="195.493" fill="black" font-size="12.8453" font-family="Helvetica">500</text>
<text xml:space="preserve" x="33.8967" y="163.725" fill="black" font-size="12.8453" font-family="Helvetica">600</text>
<text xml:space="preserve" x="33.8967" y="132.772" fill="black" font-size="12.8453" font-family="Helvetica">700</text>
<text xml:space="preserve" x="33.8967" y="101.819" fill="black" font-size="12.8453" font-family="Helvetica">800</text>
<text xml:space="preserve" x="33.8967" y="70.8661" fill="black" font-size="12.8453" font-family="Helvetica">900</text>
<g transform="rotate(-90,20.8638,70.0516)">
<text xml:space="preserve" x="20.8638" y="70.0516" fill="black" font-size="12.8453" font-family="Helvetica">Event</text>
</g>
<text xml:space="preserve" x="253.012" y="18.7347" fill="black" font-size="18.0316" font-family="Helvetica">Cs_014</text>
<rect x="442.705" y="24.9905" width="113.386" height="61.5151" fill="white"/>
<path d="M442.705,86.5056h 113.386" fill="none" stroke="black"/>
<path d="M556.091,86.5056v -61.5151" fill="none" stroke="black"/>
<path d="M556.091,24.9905h -113.386" fill="none" stroke="black"/>
<path d="M442.705,24.9905v 61.5151" fill="none" stroke="black"/>
<text xml:space="preserve" x="476.199" y="36.6549" fill="black" font-size="13.4802" font-family="Helvetica">Cs_014</text>
<path d="M442.705,40.3693h 113.386" fill="none" stroke="black"/>
<text xml:space="preserve" x="447.69" y="52.946" fill="black" font-size="12.7186" font-family="Helvetica">Entries </text>
<text xml:space="preserve" x="512.854" y="52.946" fill="black" font-size="12.7186" font-family="Helvetica"> 14237</text>
<text xml:space="preserve" x="447.69" y="67.6079" fill="black" font-size="12.7186" font-family="Helvetica">Mean  </text>
<text xml:space="preserve" x="512.854" y="67.6079" fill="black" font-size="12.7186" font-family="Helvetica">   1719</text>
<text xml:space="preserve" x="447.69" y="83.0844" fill="black" font-size="12.7186" font-family="Helvetica">Std Dev   </text>
<text xml:space="preserve" x="515.298" y="83.0844" fill="black" font-size="12.7186" font-family="Helvetica">  551.1</text>
<text xml:space="preserve" x="253.012" y="18.7347" fill="black" font-size="18.0316" font-family="Helvetica">Cs_014</text></svg>
