<?xml version="1.0" standalone="no"?>
<svg width="567.429" height="384.969" viewBox="0 0 567.429 384.969" xmlns="http://www.w3.org/2000/svg" shape-rendering="crispEdges">
<title>
img/week1/plane_hist/Cs_003.svg
</title>
<desc>
Creator: ROOT Version 6.22/09
CreationDate: Wed Jul 14 09:54:48 2021</desc>
<defs>
</defs>
<rect x="0.5" y="0" width="566.929" height="384.469" fill="white"/>
<rect x="57.1929" y="38.4469" width="453.543" height="307.575" fill="white"/>
<rect x="57.1929" y="38.4469" width="453.543" height="307.575" fill="none" stroke="black"/>
<path d="M57.1929,346.022h 45.8569v -18.8986h 0.628176v -116.542h 0.628176v -157.489h 0.628176v 75.5946h 0.628176v 44.0968h 0.628176v 50.3964h 0.628176v -15.7489h 0.628176v 18.8986h 0.628176v 37.7973h 0.628176v -12.5991h 0.628176v 50.3964h 0.628176v
 -6.29955h 0.628176v 9.44932h 0.628176v 12.5991h 0.628176v -6.29955h 0.628176v 9.44932h 0.628176v 6.29955h 1.25635v 3.14977h 0.628176v 12.5991h 0.628176v -6.29955h 0.628176v -6.29955h 0.628176v 6.29955h 0.628176v 3.14977h 0.628176v 3.14977h 0.628176v
 3.14977h 0.628176v -6.29955h 1.25635v 6.29955h 1.25635v -3.14977h 1.25635v 3.14977h 5.02541v -3.14977h 1.25635v 3.14977h 1.88453v -3.14977h 0.628176v 3.14977h 0.628176v -3.14977h 1.25635v 3.14977h 5.65359v -3.14977h 1.25635v 3.14977h 2.51271v
 -3.14977h 0.628176v 3.14977h 1.88453v -3.14977h 1.25635v 3.14977h 1.88453v -3.14977h 0.628176v 3.14977h 5.65359v -3.14977h 0.628176v 3.14977h 2.51271v -6.29955h 0.628176v 6.29955h 1.25635v -3.14977h 1.88453v 3.14977h 1.25635v -3.14977h 1.88453v
 3.14977h 6.28176v -6.29955h 0.628176v 6.29955h 1.25635v -3.14977h 0.628176v 3.14977h 8.79447v -6.29955h 0.628176v 6.29955h 0.628176v -3.14977h 0.628176v 3.14977h 8.16629v -3.14977h 0.628176v 3.14977h 0.628176v -3.14977h 0.628176v 3.14977h 1.25635v
 -3.14977h 0.628176v 3.14977h 1.25635v -3.14977h 0.628176v 3.14977h 0.628176v -3.14977h 0.628176v 3.14977h 21.9862v -3.14977h 0.628176v 3.14977h 1.25635v -3.14977h 0.628176v 3.14977h 4.39723v -3.14977h 0.628176v 3.14977h 0.628176v -6.29955h 0.628176v
 6.29955h 0.628176v -3.14977h 1.25635v 3.14977h 0.628176v -3.14977h 0.628176v 3.14977h 1.25635v -3.14977h 1.25635v -3.14977h 0.628176v 3.14977h 0.628176v 3.14977h 1.88453v -3.14977h 0.628176v 3.14977h 1.88453v -3.14977h 1.25635v 3.14977h 0.628176v
 -3.14977h 2.51271v 3.14977h 1.25635v -3.14977h 0.628176v 3.14977h 5.65359v -3.14977h 1.25635v 3.14977h 0.628176v -3.14977h 0.628176v 3.14977h 2.51271v -3.14977h 0.628176v 3.14977h 0.628176v -3.14977h 5.02541v 3.14977h 1.25635v -3.14977h 3.14088v
 3.14977h 3.76906v -6.29955h 0.628176v 6.29955h 3.76906v -3.14977h 0.628176v 3.14977h 2.51271v -3.14977h 0.628176v 3.14977h 0.628176v -3.14977h 1.25635v 3.14977h 2.51271v -3.14977h 1.25635v 3.14977h 2.51271v -6.29955h 0.628176v 6.29955h 1.88453v
 -3.14977h 0.628176v 3.14977h 1.25635v -6.29955h 0.628176v 6.29955h 0.628176v -3.14977h 0.628176v 3.14977h 0.628176v -3.14977h 0.628176v 3.14977h 1.88453v -3.14977h 0.628176v 3.14977h 0.628176v -3.14977h 0.628176v 3.14977h 1.88453v -3.14977h
 0.628176v 3.14977h 6.28176v -3.14977h 0.628176v 3.14977h 0.628176v -3.14977h 0.628176v 3.14977h 1.88453v -3.14977h 0.628176v 3.14977h 0.628176v -9.44932h 0.628176v 9.44932h 2.51271v -3.14977h 0.628176v 3.14977h 0.628176v -3.14977h 0.628176v 3.14977h
 2.51271v -3.14977h 0.628176v 3.14977h 1.88453v -3.14977h 0.628176v 3.14977h 0.628176v -3.14977h 1.25635v 3.14977h 0.628176v -6.29955h 0.628176v 6.29955h 0.628176v -3.14977h 1.25635v 3.14977h 1.25635v -3.14977h 1.25635v -3.14977h 0.628176v 3.14977h
 0.628176v -6.29955h 0.628176v 3.14977h 0.628176v 3.14977h 0.628176v -6.29955h 0.628176v 3.14977h 1.25635v 3.14977h 0.628176v -3.14977h 0.628176v 6.29955h 0.628176v -3.14977h 0.628176v 3.14977h 1.25635v -3.14977h 0.628176v -6.29955h 0.628176v
 6.29955h 1.25635v -9.44932h 0.628176v 6.29955h 1.25635v 3.14977h 0.628176v -6.29955h 0.628176v 6.29955h 2.51271v -3.14977h 0.628176v 6.29955h 0.628176v -3.14977h 0.628176v -3.14977h 0.628176v 6.29955h 0.628176v -3.14977h 1.88453v 3.14977h 0.628176v
 -9.44932h 0.628176v 6.29955h 1.25635v -3.14977h 0.628176v 3.14977h 0.628176v -3.14977h 1.25635v 6.29955h 0.628176v -3.14977h 1.25635v -3.14977h 0.628176v -3.14977h 0.628176v 6.29955h 0.628176v 3.14977h 1.25635v -3.14977h 1.88453v 3.14977h 1.88453v
 -3.14977h 1.25635v 3.14977h 1.25635v -6.29955h 1.25635v 6.29955h 3.76906v -6.29955h 0.628176v 6.29955h 2.51271v -3.14977h 1.88453v 3.14977h 4.39723v -3.14977h 0.628176v 3.14977h 0.628176v -3.14977h 0.628176v 3.14977h 1.88453v -3.14977h 0.628176v
 3.14977h 3.14088v -6.29955h 0.628176v 6.29955h 0.628176v -3.14977h 0.628176v 3.14977h 2.51271v -3.14977h 0.628176v 3.14977h 1.25635v -3.14977h 0.628176v 3.14977h 1.25635v -3.14977h 1.25635v 3.14977h 0.628176v -6.29955h 0.628176v 6.29955h 0.628176v
 -3.14977h 0.628176v 3.14977h 9.42264v -3.14977h 0.628176v 3.14977h 5.65359v -3.14977h 0.628176v 3.14977h 10.679v -6.29955h 0.628176v 6.29955h 5.65359v -3.14977h 0.628176v 3.14977h 14.4481v -3.14977h 0.628176v 3.14977h 1.25635v -6.29955h 0.628176v
 6.29955h 3.14088v -3.14977h 0.628176v 3.14977h 0.628176v -6.29955h 0.628176v 6.29955h 1.88453v -3.14977h 0.628176v 3.14977h 3.14088v -3.14977h 0.628176v 3.14977h 1.88453v -3.14977h 0.628176v 3.14977h 11.3072v -3.14977h 0.628176v 3.14977h 1.25635v
 -40.947h 0.628176v -56.6959h 0.628176v 25.1982h 1.25635v 15.7489h 0.628176v 3.14977h 0.628176v 15.7489h 0.628176v 9.44932h 0.628176v 12.5991h 1.25635v -9.44932h 0.628176v 6.29955h 1.25635v 12.5991h 0.628176v -15.7489h 0.628176v 6.29955h 1.25635v
 6.29955h 0.628176v 9.44932h 0.628176v -9.44932h 0.628176v -3.14977h 0.628176v 6.29955h 0.628176v -3.14977h 1.25635v -6.29955h 0.628176v 3.14977h 0.628176v -6.29955h 0.628176v 3.14977h 0.628176v -3.14977h 0.628176v 12.5991h 1.25635v -3.14977h
 1.88453v 6.29955h 0.628176v -9.44932h 1.88453v 3.14977h 0.628176v 9.44932h 2.51271v -3.14977h 0.628176" fill="none" stroke="#000099"/>
<path d="M57.1929,346.022h 453.543" fill="none" stroke="black"/>
<path d="M57.8211,336.795v 9.22726" fill="none" stroke="black"/>
<path d="M78.7603,341.409v 4.61363" fill="none" stroke="black"/>
<path d="M99.6995,341.409v 4.61363" fill="none" stroke="black"/>
<path d="M120.639,341.409v 4.61363" fill="none" stroke="black"/>
<path d="M141.578,341.409v 4.61363" fill="none" stroke="black"/>
<path d="M162.517,336.795v 9.22726" fill="none" stroke="black"/>
<path d="M183.456,341.409v 4.61363" fill="none" stroke="black"/>
<path d="M204.396,341.409v 4.61363" fill="none" stroke="black"/>
<path d="M225.335,341.409v 4.61363" fill="none" stroke="black"/>
<path d="M246.274,341.409v 4.61363" fill="none" stroke="black"/>
<path d="M267.213,336.795v 9.22726" fill="none" stroke="black"/>
<path d="M288.152,341.409v 4.61363" fill="none" stroke="black"/>
<path d="M309.092,341.409v 4.61363" fill="none" stroke="black"/>
<path d="M330.031,341.409v 4.61363" fill="none" stroke="black"/>
<path d="M350.97,341.409v 4.61363" fill="none" stroke="black"/>
<path d="M371.909,336.795v 9.22726" fill="none" stroke="black"/>
<path d="M392.848,341.409v 4.61363" fill="none" stroke="black"/>
<path d="M413.788,341.409v 4.61363" fill="none" stroke="black"/>
<path d="M434.727,341.409v 4.61363" fill="none" stroke="black"/>
<path d="M455.666,341.409v 4.61363" fill="none" stroke="black"/>
<path d="M476.605,336.795v 9.22726" fill="none" stroke="black"/>
<path d="M57.8211,336.795v 9.22726" fill="none" stroke="black"/>
<path d="M476.605,336.795v 9.22726" fill="none" stroke="black"/>
<path d="M497.545,341.409v 4.61363" fill="none" stroke="black"/>
<text xml:space="preserve" x="54.2605" y="358.403" fill="black" font-size="12.8453" font-family="Helvetica">0</text>
<text xml:space="preserve" x="151.192" y="358.403" fill="black" font-size="12.8453" font-family="Helvetica">500</text>
<text xml:space="preserve" x="253.012" y="358.403" fill="black" font-size="12.8453" font-family="Helvetica">1000</text>
<text xml:space="preserve" x="357.274" y="358.403" fill="black" font-size="12.8453" font-family="Helvetica">1500</text>
<text xml:space="preserve" x="462.352" y="358.403" fill="black" font-size="12.8453" font-family="Helvetica">2000</text>
<text xml:space="preserve" x="451.763" y="372.251" fill="black" font-size="12.8453" font-family="Helvetica">ADC value</text>
<path d="M57.1929,346.022v -307.575" fill="none" stroke="black"/>
<path d="M70.7992,346.022h -13.6063" fill="none" stroke="black"/>
<path d="M63.9961,339.723h -6.80315" fill="none" stroke="black"/>
<path d="M63.9961,333.423h -6.80315" fill="none" stroke="black"/>
<path d="M63.9961,327.124h -6.80315" fill="none" stroke="black"/>
<path d="M63.9961,320.824h -6.80315" fill="none" stroke="black"/>
<path d="M70.7992,314.525h -13.6063" fill="none" stroke="black"/>
<path d="M63.9961,308.225h -6.80315" fill="none" stroke="black"/>
<path d="M63.9961,301.925h -6.80315" fill="none" stroke="black"/>
<path d="M63.9961,295.626h -6.80315" fill="none" stroke="black"/>
<path d="M63.9961,289.326h -6.80315" fill="none" stroke="black"/>
<path d="M70.7992,283.027h -13.6063" fill="none" stroke="black"/>
<path d="M63.9961,276.727h -6.80315" fill="none" stroke="black"/>
<path d="M63.9961,270.428h -6.80315" fill="none" stroke="black"/>
<path d="M63.9961,264.128h -6.80315" fill="none" stroke="black"/>
<path d="M63.9961,257.829h -6.80315" fill="none" stroke="black"/>
<path d="M70.7992,251.529h -13.6063" fill="none" stroke="black"/>
<path d="M63.9961,245.23h -6.80315" fill="none" stroke="black"/>
<path d="M63.9961,238.93h -6.80315" fill="none" stroke="black"/>
<path d="M63.9961,232.63h -6.80315" fill="none" stroke="black"/>
<path d="M63.9961,226.331h -6.80315" fill="none" stroke="black"/>
<path d="M70.7992,220.031h -13.6063" fill="none" stroke="black"/>
<path d="M63.9961,213.732h -6.80315" fill="none" stroke="black"/>
<path d="M63.9961,207.432h -6.80315" fill="none" stroke="black"/>
<path d="M63.9961,201.133h -6.80315" fill="none" stroke="black"/>
<path d="M63.9961,194.833h -6.80315" fill="none" stroke="black"/>
<path d="M70.7992,188.534h -13.6063" fill="none" stroke="black"/>
<path d="M63.9961,182.234h -6.80315" fill="none" stroke="black"/>
<path d="M63.9961,175.935h -6.80315" fill="none" stroke="black"/>
<path d="M63.9961,169.635h -6.80315" fill="none" stroke="black"/>
<path d="M63.9961,163.335h -6.80315" fill="none" stroke="black"/>
<path d="M70.7992,157.036h -13.6063" fill="none" stroke="black"/>
<path d="M63.9961,150.736h -6.80315" fill="none" stroke="black"/>
<path d="M63.9961,144.437h -6.80315" fill="none" stroke="black"/>
<path d="M63.9961,138.137h -6.80315" fill="none" stroke="black"/>
<path d="M63.9961,131.838h -6.80315" fill="none" stroke="black"/>
<path d="M70.7992,125.538h -13.6063" fill="none" stroke="black"/>
<path d="M63.9961,119.239h -6.80315" fill="none" stroke="black"/>
<path d="M63.9961,112.939h -6.80315" fill="none" stroke="black"/>
<path d="M63.9961,106.64h -6.80315" fill="none" stroke="black"/>
<path d="M63.9961,100.34h -6.80315" fill="none" stroke="black"/>
<path d="M70.7992,94.0404h -13.6063" fill="none" stroke="black"/>
<path d="M63.9961,87.7409h -6.80315" fill="none" stroke="black"/>
<path d="M63.9961,81.4413h -6.80315" fill="none" stroke="black"/>
<path d="M63.9961,75.1418h -6.80315" fill="none" stroke="black"/>
<path d="M63.9961,68.8422h -6.80315" fill="none" stroke="black"/>
<path d="M70.7992,62.5427h -13.6063" fill="none" stroke="black"/>
<path d="M70.7992,62.5427h -13.6063" fill="none" stroke="black"/>
<path d="M63.9961,56.2431h -6.80315" fill="none" stroke="black"/>
<path d="M63.9961,49.9436h -6.80315" fill="none" stroke="black"/>
<path d="M63.9961,43.644h -6.80315" fill="none" stroke="black"/>
<text xml:space="preserve" x="47.7441" y="350.258" fill="black" font-size="12.8453" font-family="Helvetica">0</text>
<text xml:space="preserve" x="41.2277" y="319.305" fill="black" font-size="12.8453" font-family="Helvetica">10</text>
<text xml:space="preserve" x="41.2277" y="287.537" fill="black" font-size="12.8453" font-family="Helvetica">20</text>
<text xml:space="preserve" x="41.2277" y="255.77" fill="black" font-size="12.8453" font-family="Helvetica">30</text>
<text xml:space="preserve" x="41.2277" y="224.817" fill="black" font-size="12.8453" font-family="Helvetica">40</text>
<text xml:space="preserve" x="41.2277" y="193.049" fill="black" font-size="12.8453" font-family="Helvetica">50</text>
<text xml:space="preserve" x="41.2277" y="161.282" fill="black" font-size="12.8453" font-family="Helvetica">60</text>
<text xml:space="preserve" x="41.2277" y="130.329" fill="black" font-size="12.8453" font-family="Helvetica">70</text>
<text xml:space="preserve" x="41.2277" y="98.561" fill="black" font-size="12.8453" font-family="Helvetica">80</text>
<text xml:space="preserve" x="41.2277" y="66.7934" fill="black" font-size="12.8453" font-family="Helvetica">90</text>
<g transform="rotate(-90,29.0094,70.0516)">
<text xml:space="preserve" x="29.0094" y="70.0516" fill="black" font-size="12.8453" font-family="Helvetica">Event</text>
</g>
<text xml:space="preserve" x="253.012" y="18.7347" fill="black" font-size="18.0316" font-family="Helvetica">Cs_003</text>
<rect x="442.705" y="24.9905" width="113.386" height="61.5151" fill="white"/>
<path d="M442.705,86.5056h 113.386" fill="none" stroke="black"/>
<path d="M556.091,86.5056v -61.5151" fill="none" stroke="black"/>
<path d="M556.091,24.9905h -113.386" fill="none" stroke="black"/>
<path d="M442.705,24.9905v 61.5151" fill="none" stroke="black"/>
<text xml:space="preserve" x="476.199" y="36.6549" fill="black" font-size="13.4802" font-family="Helvetica">Cs_003</text>
<path d="M442.705,40.3693h 113.386" fill="none" stroke="black"/>
<text xml:space="preserve" x="447.69" y="52.946" fill="black" font-size="13.0654" font-family="Helvetica">Entries </text>
<text xml:space="preserve" x="517.741" y="52.946" fill="black" font-size="13.0654" font-family="Helvetica"> 1038</text>
<text xml:space="preserve" x="447.69" y="67.6079" fill="black" font-size="13.0654" font-family="Helvetica">Mean  </text>
<text xml:space="preserve" x="510.41" y="67.6079" fill="black" font-size="13.0654" font-family="Helvetica">  911.7</text>
<text xml:space="preserve" x="447.69" y="83.0844" fill="black" font-size="13.0654" font-family="Helvetica">Std Dev   </text>
<text xml:space="preserve" x="512.854" y="83.0844" fill="black" font-size="13.0654" font-family="Helvetica">  798.1</text>
<text xml:space="preserve" x="253.012" y="18.7347" fill="black" font-size="18.0316" font-family="Helvetica">Cs_003</text></svg>
