<?xml version="1.0" standalone="no"?>
<svg width="567.429" height="384.969" viewBox="0 0 567.429 384.969" xmlns="http://www.w3.org/2000/svg" shape-rendering="crispEdges">
<title>
img/week1/plane_hist/Cs_012.svg
</title>
<desc>
Creator: ROOT Version 6.22/09
CreationDate: Fri Jul  2 19:48:08 2021</desc>
<defs>
</defs>
<rect x="0.5" y="0" width="566.929" height="384.469" fill="white"/>
<rect x="57.1929" y="38.4469" width="453.543" height="307.575" fill="white"/>
<rect x="57.1929" y="38.4469" width="453.543" height="307.575" fill="none" stroke="black"/>
<path d="M57.1929,346.022h 52.2638v -0.882316h 0.442913v -0.882316h 0.442913v -14.1171h 0.442913v -13.2347h 0.442913v -50.292h 0.885827v -8.82316h 0.442913v 11.4701h 0.442913v 19.4109h 0.442913v 2.64695h 0.442913v 9.70547h 0.442913v -0.882316h
 0.442913v 3.52926h 0.442913v 9.70547h 0.442913v 5.2939h 0.442913v -0.882316h 0.442913v 14.1171h 0.442913v -11.4701h 0.442913v 7.05853h 0.442913v 8.82316h 0.442913v -3.52926h 0.442913v 3.52926h 0.442913v 2.64695h 0.442913v 0.882316h 0.442913v
 -3.52926h 0.442913v 3.52926h 0.442913v -0.882316h 0.442913v 3.52926h 0.442913v 0.882316h 0.442913v 0.882316h 0.442913v -1.76463h 0.442913v 0.882316h 0.442913v 0.882316h 0.442913v -0.882316h 0.442913v 0.882316h 0.442913v -3.52926h 0.442913v 1.76463h
 0.442913v 2.64695h 0.442913v -3.52926h 0.442913v 3.52926h 0.442913v -0.882316h 0.442913v 1.76463h 0.442913v -0.882316h 0.442913v -1.76463h 0.442913v 1.76463h 0.442913v -1.76463h 0.442913v 1.76463h 0.442913v 0.882316h 0.442913v -0.882316h 0.442913v
 -0.882316h 0.442913v -0.882316h 0.442913v 0.882316h 0.885827v -1.76463h 0.442913v -0.882316h 0.442913v 2.64695h 0.442913v 1.76463h 0.442913v -1.76463h 0.442913v -0.882316h 0.442913v 2.64695h 0.442913v -2.64695h 1.32874v 1.76463h 0.885827v -1.76463h
 0.442913v 1.76463h 0.442913v -7.05853h 0.442913v 5.2939h 0.442913v -3.52926h 0.442913v 3.52926h 0.442913v 0.882316h 0.442913v 0.882316h 0.442913v 0.882316h 0.442913v -2.64695h 0.442913v 2.64695h 0.442913v -1.76463h 0.442913v -1.76463h 0.885827v
 1.76463h 0.885827v -0.882316h 1.32874v -1.76463h 0.442913v 3.52926h 0.442913v 0.882316h 0.442913v -2.64695h 0.442913v 1.76463h 0.885827v -0.882316h 0.442913v 0.882316h 0.442913v -0.882316h 0.442913v 1.76463h 0.442913v -0.882316h 0.885827v -2.64695h
 0.442913v 1.76463h 0.442913v 0.882316h 0.885827v -0.882316h 0.442913v 1.76463h 0.442913v -0.882316h 0.442913v -2.64695h 0.442913v 3.52926h 0.442913v -1.76463h 0.442913v 0.882316h 0.442913v -2.64695h 0.442913v 3.52926h 0.442913v -3.52926h 0.442913v
 -0.882316h 0.442913v 0.882316h 0.442913v 1.76463h 0.885827v 0.882316h 0.442913v -2.64695h 0.442913v 2.64695h 0.442913v -1.76463h 0.885827v 1.76463h 0.442913v -0.882316h 0.442913v 0.882316h 0.442913v -0.882316h 0.442913v -0.882316h 0.442913v
 -1.76463h 0.442913v 1.76463h 0.442913v -2.64695h 0.442913v 3.52926h 0.442913v -3.52926h 0.442913v 1.76463h 0.442913v 2.64695h 0.885827v -0.882316h 1.32874v 0.882316h 0.442913v -2.64695h 0.885827v 1.76463h 0.442913v 0.882316h 0.442913v 0.882316h
 0.442913v -2.64695h 0.442913v 1.76463h 0.442913v -0.882316h 0.442913v 0.882316h 0.442913v 0.882316h 0.442913v -1.76463h 0.442913v 0.882316h 0.442913v 0.882316h 0.442913v -2.64695h 0.442913v 2.64695h 0.885827v -0.882316h 1.32874v -5.2939h 0.442913v
 3.52926h 0.442913v 0.882316h 0.885827v 0.882316h 0.442913v -0.882316h 0.442913v 0.882316h 0.442913v -2.64695h 0.442913v 2.64695h 0.885827v 0.882316h 0.885827v -1.76463h 1.32874v 0.882316h 0.885827v -3.52926h 0.442913v 1.76463h 0.885827v 0.882316h
 0.442913v 0.882316h 0.442913v 0.882316h 0.442913v -2.64695h 0.442913v 1.76463h 0.442913v -2.64695h 0.442913v 1.76463h 0.442913v -0.882316h 0.442913v 2.64695h 0.442913v -1.76463h 0.885827v 0.882316h 0.442913v -2.64695h 0.442913v 1.76463h 0.885827v
 1.76463h 0.442913v -0.882316h 0.442913v -0.882316h 0.885827v -0.882316h 0.442913v 2.64695h 1.32874v -2.64695h 0.885827v 0.882316h 0.885827v 1.76463h 0.442913v -1.76463h 0.442913v 0.882316h 0.442913v -1.76463h 0.442913v 2.64695h 0.442913v -0.882316h
 0.442913v -0.882316h 1.32874v 1.76463h 0.442913v -2.64695h 0.442913v 1.76463h 0.442913v -1.76463h 0.442913v 1.76463h 0.442913v -0.882316h 0.442913v -0.882316h 0.885827v 1.76463h 1.32874v -0.882316h 0.442913v 0.882316h 1.32874v -0.882316h 1.77165v
 1.76463h 0.442913v -0.882316h 0.442913v -1.76463h 0.442913v -1.76463h 0.442913v 4.41158h 0.442913v -0.882316h 0.442913v -1.76463h 0.442913v -0.882316h 0.442913v 3.52926h 0.442913v -1.76463h 0.885827v 0.882316h 0.885827v -0.882316h 0.442913v
 -0.882316h 0.442913v 1.76463h 0.442913v -1.76463h 0.442913v 2.64695h 0.442913v -1.76463h 0.442913v -0.882316h 0.442913v -0.882316h 0.442913v 0.882316h 0.885827v -1.76463h 0.442913v 3.52926h 0.442913v -3.52926h 0.442913v 2.64695h 0.442913v 1.76463h
 0.442913v -3.52926h 0.442913v 2.64695h 0.442913v -0.882316h 0.442913v -0.882316h 0.442913v 0.882316h 1.32874v -0.882316h 0.442913v 0.882316h 0.442913v 0.882316h 0.885827v -1.76463h 0.442913v 1.76463h 0.885827v -0.882316h 0.442913v -1.76463h
 0.442913v 1.76463h 0.442913v 0.882316h 0.885827v -0.882316h 0.442913v -0.882316h 0.442913v 0.882316h 0.885827v -0.882316h 0.442913v 2.64695h 0.442913v -0.882316h 0.442913v -0.882316h 0.442913v 0.882316h 1.32874v 0.882316h 1.32874v -2.64695h
 0.442913v 0.882316h 1.32874v 0.882316h 0.885827v -0.882316h 1.32874v 0.882316h 0.885827v -2.64695h 0.442913v 0.882316h 0.442913v -0.882316h 0.442913v 2.64695h 0.442913v -0.882316h 0.442913v 1.76463h 0.442913v -1.76463h 0.442913v -0.882316h 0.885827v
 1.76463h 0.442913v -1.76463h 0.885827v 0.882316h 0.442913v -1.76463h 0.442913v 0.882316h 0.442913v -0.882316h 0.442913v 2.64695h 0.442913v -0.882316h 0.442913v -1.76463h 0.442913v -1.76463h 0.442913v 2.64695h 0.442913v 0.882316h 0.442913v -1.76463h
 0.442913v 0.882316h 0.442913v 0.882316h 0.885827v -0.882316h 1.32874v -0.882316h 0.442913v 1.76463h 0.442913v -3.52926h 0.442913v 3.52926h 0.885827v -2.64695h 0.442913v -1.76463h 0.442913v 4.41158h 0.442913v -1.76463h 0.442913v 1.76463h 0.442913v
 0.882316h 0.442913v -2.64695h 0.442913v -1.76463h 0.442913v 0.882316h 0.442913v 1.76463h 0.442913v 2.64695h 0.442913v -1.76463h 0.442913v -1.76463h 0.442913v 0.882316h 1.32874v 0.882316h 0.442913v 0.882316h 1.32874v -4.41158h 0.442913v -0.882316h
 0.442913v 4.41158h 0.442913v -2.64695h 0.442913v 1.76463h 0.885827v -4.41158h 0.442913v 4.41158h 0.885827v 0.882316h 0.885827v -2.64695h 0.442913v 3.52926h 0.442913v -0.882316h 0.442913v -3.52926h 0.442913v 2.64695h 0.885827v 1.76463h 0.442913v
 -2.64695h 0.442913v 0.882316h 0.442913v 0.882316h 0.442913v -3.52926h 0.442913v 1.76463h 0.442913v -0.882316h 0.442913v 1.76463h 0.442913v -0.882316h 0.442913v -0.882316h 0.442913v 1.76463h 0.442913v -0.882316h 0.442913v 1.76463h 1.77165v 1.76463h
 0.442913v -0.882316h 0.885827v -0.882316h 0.442913v -1.76463h 0.442913v 2.64695h 0.442913v 0.882316h 0.442913v -0.882316h 0.442913v -1.76463h 0.442913v 0.882316h 0.442913v -2.64695h 0.442913v 3.52926h 0.442913v -1.76463h 0.442913v 2.64695h 0.442913v
 -1.76463h 0.885827v -3.52926h 0.442913v 2.64695h 0.885827v 0.882316h 0.885827v 0.882316h 0.442913v -0.882316h 0.442913v 0.882316h 0.442913v -3.52926h 0.442913v 2.64695h 0.442913v 1.76463h 0.442913v -0.882316h 0.442913v 0.882316h 0.442913v -3.52926h
 0.442913v 3.52926h 0.442913v -2.64695h 0.442913v -1.76463h 0.442913v 2.64695h 0.442913v -0.882316h 0.885827v 2.64695h 0.442913v -1.76463h 0.442913v 1.76463h 0.442913v -0.882316h 0.442913v -0.882316h 1.32874v 1.76463h 0.442913v -2.64695h 0.885827v
 1.76463h 1.32874v -7.05853h 0.442913v 6.17621h 0.442913v -0.882316h 0.442913v 0.882316h 0.442913v -2.64695h 0.442913v 4.41158h 0.885827v -0.882316h 0.442913v -1.76463h 0.885827v 1.76463h 0.885827v -1.76463h 0.442913v 1.76463h 0.885827v -1.76463h
 0.442913v -0.882316h 0.442913v 0.882316h 0.442913v 1.76463h 0.885827v 0.882316h 0.885827v -1.76463h 0.442913v -0.882316h 0.442913v 2.64695h 0.442913v -0.882316h 0.442913v -0.882316h 0.885827v 0.882316h 0.442913v -0.882316h 0.442913v 1.76463h
 0.442913v -0.882316h 0.885827v -3.52926h 0.442913v 4.41158h 0.442913v -3.52926h 0.442913v 3.52926h 0.442913v -3.52926h 0.442913v -0.882316h 0.442913v 0.882316h 0.442913v 0.882316h 0.442913v 1.76463h 1.32874v -0.882316h 0.442913v 0.882316h 0.442913v
 -0.882316h 0.442913v -0.882316h 0.442913v 0.882316h 0.442913v -0.882316h 1.32874v 2.64695h 0.442913v -2.64695h 0.442913v -0.882316h 0.442913v 0.882316h 2.21457v -1.76463h 0.442913v 3.52926h 0.442913v -1.76463h 0.442913v -1.76463h 0.442913v 3.52926h
 0.442913v -1.76463h 0.885827v -0.882316h 0.442913v -0.882316h 0.442913v 0.882316h 0.442913v 1.76463h 0.442913v -2.64695h 0.442913v 1.76463h 0.442913v -2.64695h 0.442913v 1.76463h 0.885827v 1.76463h 0.442913v -1.76463h 0.442913v -4.41158h 0.442913v
 2.64695h 0.442913v -1.76463h 0.442913v 3.52926h 0.885827v -2.64695h 0.442913v -0.882316h 0.442913v 2.64695h 0.442913v -2.64695h 0.442913v 2.64695h 0.442913v -2.64695h 0.442913v -1.76463h 0.442913v 3.52926h 0.442913v -3.52926h 0.442913v 7.05853h
 0.442913v -6.17621h 0.442913v 0.882316h 0.442913v 1.76463h 0.442913v -0.882316h 0.442913v 2.64695h 0.442913v -3.52926h 0.442913v -5.2939h 0.442913v 8.82316h 0.442913v -7.05853h 0.442913v 7.94084h 0.442913v -7.05853h 0.442913v 1.76463h 0.442913v
 -3.52926h 0.442913v -2.64695h 0.442913v 7.05853h 0.442913v -2.64695h 0.442913v -1.76463h 0.885827v 5.2939h 0.442913v -1.76463h 0.885827v 0.882316h 0.442913v -3.52926h 0.442913v -1.76463h 0.442913v 5.2939h 0.442913v -5.2939h 0.442913v 7.94084h
 0.442913v -4.41158h 0.442913v 4.41158h 0.442913v -3.52926h 0.442913v 2.64695h 0.442913v -10.5878h 0.442913v 7.05853h 0.442913v 0.882316h 0.442913v -5.2939h 0.442913v 2.64695h 0.442913v -6.17621h 0.442913v 7.05853h 0.442913v -3.52926h 0.442913v
 1.76463h 0.442913v -1.76463h 0.442913v 3.52926h 0.442913v -13.2347h 0.442913v -39.7042h 0.442913v -100.584h 0.442913v -82.9377h 0.442913v -46.7627h 0.442913v 5.2939h 0.442913v 39.7042h 0.442913v 46.7627h 0.442913v 47.6451h 0.442913v 38.8219h
 0.442913v 37.0573h 0.442913v -7.94084h 0.442913v 7.94084h 0.442913v 14.1171h 0.442913v 20.2933h 0.442913v -9.70547h 0.442913v 14.9994h 0.442913v -1.76463h 0.442913v -0.882316h 0.442913v 2.64695h 0.442913v -7.94084h 0.885827v 7.05853h 0.442913v
 1.76463h 0.442913v 7.94084h 0.442913v -3.52926h 0.885827v -4.41158h 0.442913v 1.76463h 0.442913v 0.882316h 0.442913v -1.76463h 0.442913v -6.17621h 0.442913v -3.52926h 0.442913v 20.2933h 0.442913v -7.05853h 0.442913v -12.3524h 0.442913v 13.2347h
 0.442913v -0.882316h 0.442913v -16.764h 0.442913v 18.5286h 0.442913v -10.5878h 0.442913v 1.76463h 0.442913v 1.76463h 0.442913v 8.82316h 0.442913v 5.2939h 0.442913v 5.2939h 0.442913v 14.1171h 1.32874v 2.64695h 0.442913v 1.76463h 4.42913v -0.882316h
 0.442913v 0.882316h 18.1594v -0.882316h 0.442913v 0.882316h 101.87" fill="none" stroke="#000099"/>
<path d="M57.1929,346.022h 453.543" fill="none" stroke="black"/>
<path d="M57.1929,336.795v 9.22726" fill="none" stroke="black"/>
<path d="M71.9567,341.409v 4.61363" fill="none" stroke="black"/>
<path d="M86.7205,341.409v 4.61363" fill="none" stroke="black"/>
<path d="M101.484,341.409v 4.61363" fill="none" stroke="black"/>
<path d="M116.248,341.409v 4.61363" fill="none" stroke="black"/>
<path d="M131.012,336.795v 9.22726" fill="none" stroke="black"/>
<path d="M145.776,341.409v 4.61363" fill="none" stroke="black"/>
<path d="M160.539,341.409v 4.61363" fill="none" stroke="black"/>
<path d="M175.303,341.409v 4.61363" fill="none" stroke="black"/>
<path d="M190.067,341.409v 4.61363" fill="none" stroke="black"/>
<path d="M204.831,336.795v 9.22726" fill="none" stroke="black"/>
<path d="M219.594,341.409v 4.61363" fill="none" stroke="black"/>
<path d="M234.358,341.409v 4.61363" fill="none" stroke="black"/>
<path d="M249.122,341.409v 4.61363" fill="none" stroke="black"/>
<path d="M263.886,341.409v 4.61363" fill="none" stroke="black"/>
<path d="M278.65,336.795v 9.22726" fill="none" stroke="black"/>
<path d="M293.413,341.409v 4.61363" fill="none" stroke="black"/>
<path d="M308.177,341.409v 4.61363" fill="none" stroke="black"/>
<path d="M322.941,341.409v 4.61363" fill="none" stroke="black"/>
<path d="M337.705,341.409v 4.61363" fill="none" stroke="black"/>
<path d="M352.469,336.795v 9.22726" fill="none" stroke="black"/>
<path d="M367.232,341.409v 4.61363" fill="none" stroke="black"/>
<path d="M381.996,341.409v 4.61363" fill="none" stroke="black"/>
<path d="M396.76,341.409v 4.61363" fill="none" stroke="black"/>
<path d="M411.524,341.409v 4.61363" fill="none" stroke="black"/>
<path d="M426.287,336.795v 9.22726" fill="none" stroke="black"/>
<path d="M441.051,341.409v 4.61363" fill="none" stroke="black"/>
<path d="M455.815,341.409v 4.61363" fill="none" stroke="black"/>
<path d="M470.579,341.409v 4.61363" fill="none" stroke="black"/>
<path d="M485.343,341.409v 4.61363" fill="none" stroke="black"/>
<path d="M500.106,336.795v 9.22726" fill="none" stroke="black"/>
<path d="M500.106,336.795v 9.22726" fill="none" stroke="black"/>
<text xml:space="preserve" x="53.446" y="358.403" fill="black" font-size="12.8453" font-family="Helvetica">0</text>
<text xml:space="preserve" x="120.239" y="358.403" fill="black" font-size="12.8453" font-family="Helvetica">500</text>
<text xml:space="preserve" x="190.291" y="358.403" fill="black" font-size="12.8453" font-family="Helvetica">1000</text>
<text xml:space="preserve" x="264.415" y="358.403" fill="black" font-size="12.8453" font-family="Helvetica">1500</text>
<text xml:space="preserve" x="338.54" y="358.403" fill="black" font-size="12.8453" font-family="Helvetica">2000</text>
<text xml:space="preserve" x="411.849" y="358.403" fill="black" font-size="12.8453" font-family="Helvetica">2500</text>
<text xml:space="preserve" x="485.974" y="358.403" fill="black" font-size="12.8453" font-family="Helvetica">3000</text>
<text xml:space="preserve" x="451.763" y="372.251" fill="black" font-size="12.8453" font-family="Helvetica">ADC value</text>
<path d="M57.1929,346.022v -307.575" fill="none" stroke="black"/>
<path d="M70.7992,346.022h -13.6063" fill="none" stroke="black"/>
<path d="M63.9961,337.199h -6.80315" fill="none" stroke="black"/>
<path d="M63.9961,328.376h -6.80315" fill="none" stroke="black"/>
<path d="M63.9961,319.553h -6.80315" fill="none" stroke="black"/>
<path d="M63.9961,310.73h -6.80315" fill="none" stroke="black"/>
<path d="M70.7992,301.906h -13.6063" fill="none" stroke="black"/>
<path d="M63.9961,293.083h -6.80315" fill="none" stroke="black"/>
<path d="M63.9961,284.26h -6.80315" fill="none" stroke="black"/>
<path d="M63.9961,275.437h -6.80315" fill="none" stroke="black"/>
<path d="M63.9961,266.614h -6.80315" fill="none" stroke="black"/>
<path d="M70.7992,257.791h -13.6063" fill="none" stroke="black"/>
<path d="M63.9961,248.967h -6.80315" fill="none" stroke="black"/>
<path d="M63.9961,240.144h -6.80315" fill="none" stroke="black"/>
<path d="M63.9961,231.321h -6.80315" fill="none" stroke="black"/>
<path d="M63.9961,222.498h -6.80315" fill="none" stroke="black"/>
<path d="M70.7992,213.675h -13.6063" fill="none" stroke="black"/>
<path d="M63.9961,204.852h -6.80315" fill="none" stroke="black"/>
<path d="M63.9961,196.029h -6.80315" fill="none" stroke="black"/>
<path d="M63.9961,187.205h -6.80315" fill="none" stroke="black"/>
<path d="M63.9961,178.382h -6.80315" fill="none" stroke="black"/>
<path d="M70.7992,169.559h -13.6063" fill="none" stroke="black"/>
<path d="M63.9961,160.736h -6.80315" fill="none" stroke="black"/>
<path d="M63.9961,151.913h -6.80315" fill="none" stroke="black"/>
<path d="M63.9961,143.09h -6.80315" fill="none" stroke="black"/>
<path d="M63.9961,134.266h -6.80315" fill="none" stroke="black"/>
<path d="M70.7992,125.443h -13.6063" fill="none" stroke="black"/>
<path d="M63.9961,116.62h -6.80315" fill="none" stroke="black"/>
<path d="M63.9961,107.797h -6.80315" fill="none" stroke="black"/>
<path d="M63.9961,98.9738h -6.80315" fill="none" stroke="black"/>
<path d="M63.9961,90.1506h -6.80315" fill="none" stroke="black"/>
<path d="M70.7992,81.3275h -13.6063" fill="none" stroke="black"/>
<path d="M70.7992,81.3275h -13.6063" fill="none" stroke="black"/>
<path d="M63.9961,72.5043h -6.80315" fill="none" stroke="black"/>
<path d="M63.9961,63.6812h -6.80315" fill="none" stroke="black"/>
<path d="M63.9961,54.858h -6.80315" fill="none" stroke="black"/>
<path d="M63.9961,46.0348h -6.80315" fill="none" stroke="black"/>
<text xml:space="preserve" x="47.7441" y="350.258" fill="black" font-size="12.8453" font-family="Helvetica">0</text>
<text xml:space="preserve" x="41.2277" y="306.272" fill="black" font-size="12.8453" font-family="Helvetica">50</text>
<text xml:space="preserve" x="33.8967" y="262.286" fill="black" font-size="12.8453" font-family="Helvetica">100</text>
<text xml:space="preserve" x="33.8967" y="218.3" fill="black" font-size="12.8453" font-family="Helvetica">150</text>
<text xml:space="preserve" x="33.8967" y="174.314" fill="black" font-size="12.8453" font-family="Helvetica">200</text>
<text xml:space="preserve" x="33.8967" y="130.329" fill="black" font-size="12.8453" font-family="Helvetica">250</text>
<text xml:space="preserve" x="33.8967" y="85.5281" fill="black" font-size="12.8453" font-family="Helvetica">300</text>
<g transform="rotate(-90,20.8638,70.0516)">
<text xml:space="preserve" x="20.8638" y="70.0516" fill="black" font-size="12.8453" font-family="Helvetica">Event</text>
</g>
<text xml:space="preserve" x="253.012" y="18.7347" fill="black" font-size="18.0316" font-family="Helvetica">Cs_012</text>
<rect x="442.705" y="24.9905" width="113.386" height="61.5151" fill="white"/>
<path d="M442.705,86.5056h 113.386" fill="none" stroke="black"/>
<path d="M556.091,86.5056v -61.5151" fill="none" stroke="black"/>
<path d="M556.091,24.9905h -113.386" fill="none" stroke="black"/>
<path d="M442.705,24.9905v 61.5151" fill="none" stroke="black"/>
<text xml:space="preserve" x="476.199" y="36.6549" fill="black" font-size="13.4802" font-family="Helvetica">Cs_012</text>
<path d="M442.705,40.3693h 113.386" fill="none" stroke="black"/>
<text xml:space="preserve" x="447.69" y="52.946" fill="black" font-size="13.0654" font-family="Helvetica">Entries </text>
<text xml:space="preserve" x="517.741" y="52.946" fill="black" font-size="13.0654" font-family="Helvetica"> 6327</text>
<text xml:space="preserve" x="447.69" y="67.6079" fill="black" font-size="13.0654" font-family="Helvetica">Mean  </text>
<text xml:space="preserve" x="510.41" y="67.6079" fill="black" font-size="13.0654" font-family="Helvetica">   1687</text>
<text xml:space="preserve" x="447.69" y="83.0844" fill="black" font-size="13.0654" font-family="Helvetica">Std Dev   </text>
<text xml:space="preserve" x="510.41" y="83.0844" fill="black" font-size="13.0654" font-family="Helvetica">  668.6</text>
<text xml:space="preserve" x="253.012" y="18.7347" fill="black" font-size="18.0316" font-family="Helvetica">Cs_012</text></svg>
