<?xml version="1.0" standalone="no"?>
<svg width="567.429" height="384.68" viewBox="0 0 567.429 384.68" xmlns="http://www.w3.org/2000/svg" shape-rendering="crispEdges">
<title>
img/week1/plane_hist/Cs_014.svg
</title>
<desc>
Creator: ROOT Version 6.22/09
CreationDate: Tue Jul 13 18:37:09 2021</desc>
<defs>
</defs>
<rect x="0.5" y="0" width="566.929" height="384.18" fill="white"/>
<rect x="57.1929" y="38.418" width="453.543" height="307.344" fill="white"/>
<rect x="57.1929" y="38.418" width="453.543" height="307.344" fill="none" stroke="black"/>
<path d="M57.1929,345.762h 65.6856v -3.72482h 0.625577v -21.1073h 0.625577v -16.1409h 0.625577v 12.1056h 0.625577v 11.1744h 0.625577v -6.20803h 0.625577v 7.44963h 0.625577v -2.79361h 0.625577v 4.96642h 0.625577v -0.620803h 0.625577v 2.79361h
 0.625577v 4.65602h 0.625577v 2.79361h 0.625577v -0.620803h 0.625577v 0.620803h 0.625577v -1.55201h 0.625577v 1.86241h 0.625577v -2.48321h 0.625577v 4.65602h 0.625577v -1.86241h 0.625577v -0.931204h 0.625577v 0.620803h 0.625577v 2.17281h 1.25115v
 -1.24161h 0.625577v 0.931204h 0.625577v 0.310401h 0.625577v -0.620803h 0.625577v 1.24161h 1.25115v -0.310401h 0.625577v 1.24161h 0.625577v -1.55201h 0.625577v -0.931204h 0.625577v 0.620803h 0.625577v -0.620803h 0.625577v 0.931204h 0.625577v
 -0.310401h 0.625577v 0.310401h 0.625577v 0.310401h 0.625577v 0.310401h 0.625577v -0.620803h 1.25115v 0.310401h 0.625577v 0.931204h 0.625577v -0.931204h 0.625577v 0.931204h 0.625577v -1.55201h 1.25115v 1.24161h 1.25115v -0.310401h 0.625577v -1.55201h
 0.625577v 0.931204h 0.625577v 0.310401h 0.625577v 0.620803h 0.625577v -1.86241h 0.625577v 0.310401h 0.625577v 0.620803h 0.625577v -1.86241h 0.625577v 2.48321h 0.625577v -0.620803h 0.625577v -0.310401h 0.625577v 0.310401h 0.625577v 0.310401h
 0.625577v 0.310401h 0.625577v 0.620803h 0.625577v -1.24161h 0.625577v 0.310401h 1.25115v -1.55201h 0.625577v 1.86241h 0.625577v -0.310401h 0.625577v 0.931204h 0.625577v -1.86241h 1.25115v 2.17281h 0.625577v -0.931204h 0.625577v 0.310401h 0.625577v
 -0.620803h 0.625577v -0.310401h 0.625577v 0.310401h 0.625577v 0.931204h 0.625577v -1.86241h 0.625577v 1.55201h 1.25115v 0.620803h 0.625577v -0.931204h 0.625577v 0.620803h 0.625577v -0.931204h 0.625577v -0.310401h 0.625577v 0.310401h 0.625577v
 0.310401h 1.25115v -2.17281h 0.625577v 1.86241h 0.625577v -0.931204h 0.625577v 1.55201h 0.625577v -1.24161h 0.625577v 0.620803h 0.625577v 0.931204h 0.625577v -0.310401h 0.625577v -0.931204h 0.625577v -1.24161h 0.625577v 1.55201h 0.625577v 0.931204h
 0.625577v -0.931204h 0.625577v 0.310401h 0.625577v -1.24161h 0.625577v 1.86241h 0.625577v -0.620803h 1.25115v 0.310401h 0.625577v -1.24161h 0.625577v 0.931204h 0.625577v 0.620803h 0.625577v -0.931204h 0.625577v -0.310401h 0.625577v 1.55201h
 0.625577v -1.55201h 1.25115v 0.310401h 1.25115v 0.310401h 0.625577v 0.620803h 0.625577v -0.931204h 0.625577v 0.310401h 0.625577v 0.620803h 0.625577v -1.55201h 0.625577v 0.931204h 1.25115v 0.931204h 0.625577v -0.310401h 0.625577v -0.931204h 0.625577v
 -0.620803h 0.625577v 0.310401h 0.625577v 0.620803h 0.625577v 0.620803h 1.25115v -0.931204h 0.625577v 0.931204h 0.625577v -0.931204h 0.625577v -0.310401h 0.625577v -0.310401h 0.625577v 1.86241h 0.625577v -1.24161h 0.625577v 0.620803h 0.625577v
 -0.620803h 1.25115v 0.620803h 0.625577v 0.310401h 0.625577v -1.24161h 0.625577v 0.931204h 0.625577v -0.620803h 0.625577v -0.620803h 0.625577v 1.24161h 0.625577v 0.310401h 0.625577v 0.620803h 0.625577v -0.931204h 0.625577v -0.620803h 0.625577v
 0.310401h 0.625577v 0.620803h 0.625577v -0.620803h 0.625577v -0.620803h 0.625577v 0.620803h 0.625577v 0.620803h 0.625577v -0.310401h 1.25115v 0.931204h 0.625577v -1.86241h 0.625577v 0.931204h 0.625577v -0.620803h 0.625577v 0.310401h 0.625577v
 -0.620803h 0.625577v 0.931204h 0.625577v -1.24161h 0.625577v -0.620803h 0.625577v 1.24161h 0.625577v 0.310401h 0.625577v -0.620803h 0.625577v 1.24161h 1.25115v -0.620803h 0.625577v 1.24161h 0.625577v -0.931204h 0.625577v -1.55201h 0.625577v 1.24161h
 1.25115v -0.310401h 0.625577v 0.310401h 0.625577v -0.310401h 0.625577v -0.620803h 0.625577v 1.24161h 0.625577v 0.931204h 0.625577v -2.17281h 0.625577v 0.620803h 0.625577v 0.620803h 0.625577v 0.310401h 0.625577v -1.24161h 0.625577v 0.931204h
 0.625577v -0.310401h 0.625577v 0.310401h 0.625577v -0.310401h 0.625577v -0.310401h 1.25115v -0.620803h 0.625577v 2.48321h 0.625577v -1.55201h 0.625577v 0.620803h 0.625577v -1.24161h 0.625577v -0.931204h 0.625577v 1.55201h 0.625577v -0.310401h
 0.625577v -0.620803h 1.25115v 1.55201h 1.25115v -0.620803h 0.625577v -0.310401h 0.625577v -0.620803h 0.625577v 1.24161h 0.625577v 1.24161h 0.625577v -0.931204h 0.625577v -0.931204h 0.625577v 0.310401h 0.625577v 0.931204h 0.625577v -0.931204h
 0.625577v 0.931204h 1.25115v -1.24161h 1.25115v 0.620803h 0.625577v 0.620803h 0.625577v -1.24161h 0.625577v 0.310401h 1.25115v -0.620803h 0.625577v 1.86241h 0.625577v -0.310401h 0.625577v -1.55201h 0.625577v 0.931204h 0.625577v -0.310401h 0.625577v
 -0.310401h 0.625577v 0.310401h 0.625577v -0.310401h 0.625577v -0.310401h 0.625577v 0.310401h 0.625577v 0.931204h 0.625577v -0.310401h 0.625577v -1.86241h 0.625577v 0.931204h 0.625577v -0.310401h 0.625577v 0.931204h 0.625577v -0.310401h 0.625577v
 -0.931204h 0.625577v 0.310401h 0.625577v 0.931204h 0.625577v 1.24161h 0.625577v -1.55201h 0.625577v 0.620803h 0.625577v -0.620803h 1.25115v 0.620803h 0.625577v -0.931204h 0.625577v 0.310401h 0.625577v 0.310401h 1.25115v -0.310401h 1.25115v
 -0.310401h 0.625577v -0.620803h 0.625577v 0.620803h 0.625577v 0.620803h 0.625577v -1.24161h 0.625577v 0.310401h 0.625577v 0.620803h 0.625577v -0.310401h 0.625577v -0.310401h 0.625577v -0.931204h 0.625577v -0.931204h 0.625577v 1.86241h 0.625577v
 -2.48321h 0.625577v 3.41441h 0.625577v -0.620803h 0.625577v -0.310401h 0.625577v -1.86241h 0.625577v 1.24161h 0.625577v 0.931204h 0.625577v -1.86241h 0.625577v 2.48321h 0.625577v -1.55201h 0.625577v -1.86241h 0.625577v 1.24161h 0.625577v -0.310401h
 0.625577v 2.17281h 0.625577v -1.55201h 1.25115v -0.310401h 0.625577v 0.310401h 1.25115v 0.310401h 0.625577v -0.310401h 0.625577v -0.310401h 0.625577v 1.24161h 0.625577v 0.310401h 0.625577v -0.931204h 0.625577v -0.931204h 0.625577v 1.86241h 0.625577v
 -0.931204h 0.625577v -0.931204h 1.25115v 1.24161h 0.625577v -1.55201h 0.625577v 0.620803h 0.625577v 1.24161h 0.625577v -0.931204h 0.625577v -0.310401h 0.625577v 0.310401h 0.625577v 1.55201h 0.625577v -0.620803h 0.625577v 0.310401h 1.25115v
 -0.310401h 1.25115v -0.931204h 0.625577v 0.620803h 0.625577v -0.931204h 0.625577v 1.86241h 0.625577v -1.55201h 0.625577v 1.24161h 0.625577v 0.620803h 0.625577v -0.620803h 0.625577v -0.310401h 0.625577v -0.620803h 0.625577v 1.86241h 0.625577v
 -2.17281h 0.625577v 2.17281h 1.25115v -1.24161h 0.625577v -0.931204h 0.625577v 2.48321h 0.625577v -1.55201h 0.625577v 1.55201h 0.625577v -1.86241h 0.625577v 1.55201h 0.625577v -3.41441h 0.625577v 3.41441h 0.625577v -1.24161h 0.625577v 1.24161h
 0.625577v -1.24161h 1.25115v 0.620803h 0.625577v -0.310401h 0.625577v -0.310401h 1.87673v -0.310401h 0.625577v 0.931204h 0.625577v 0.310401h 0.625577v 0.310401h 1.25115v -1.55201h 0.625577v 1.24161h 0.625577v 0.620803h 0.625577v -0.310401h 0.625577v
 0.931204h 0.625577v -2.17281h 0.625577v 1.24161h 0.625577v 0.310401h 0.625577v -0.931204h 1.25115v 1.24161h 0.625577v -0.931204h 0.625577v -0.931204h 0.625577v 0.620803h 0.625577v 0.310401h 1.25115v 0.310401h 0.625577v -1.86241h 0.625577v 1.55201h
 0.625577v 0.310401h 1.25115v -0.931204h 0.625577v 0.310401h 0.625577v -0.620803h 0.625577v 0.310401h 0.625577v -0.620803h 0.625577v 0.620803h 0.625577v -0.620803h 0.625577v 0.620803h 0.625577v 1.24161h 0.625577v -1.24161h 0.625577v -0.620803h
 0.625577v 0.931204h 0.625577v 0.310401h 1.25115v -1.24161h 0.625577v 1.86241h 0.625577v -1.86241h 0.625577v 1.55201h 0.625577v -0.310401h 0.625577v 0.931204h 0.625577v -0.931204h 0.625577v 0.620803h 1.87673v -0.620803h 0.625577v 0.310401h 0.625577v
 -0.310401h 0.625577v -0.931204h 0.625577v 0.310401h 0.625577v -1.86241h 0.625577v 1.86241h 0.625577v 0.620803h 0.625577v -0.931204h 0.625577v -1.24161h 0.625577v 1.86241h 0.625577v 1.24161h 0.625577v -0.620803h 0.625577v -1.24161h 0.625577v
 -1.24161h 0.625577v 1.55201h 0.625577v 0.310401h 0.625577v -0.931204h 0.625577v -0.931204h 0.625577v 1.55201h 0.625577v 0.931204h 1.25115v -1.86241h 0.625577v -0.620803h 0.625577v 0.931204h 0.625577v 0.620803h 0.625577v 0.620803h 1.25115v -2.17281h
 0.625577v 0.310401h 0.625577v 0.620803h 0.625577v 0.931204h 0.625577v -0.620803h 0.625577v -0.620803h 0.625577v 1.24161h 0.625577v -2.17281h 0.625577v -0.931204h 0.625577v 3.41441h 0.625577v -2.79361h 0.625577v -0.620803h 0.625577v 1.24161h
 0.625577v 0.310401h 0.625577v -0.310401h 0.625577v -2.79361h 0.625577v 1.24161h 0.625577v 2.17281h 0.625577v -3.41441h 0.625577v 3.72482h 0.625577v -1.24161h 0.625577v -1.55201h 0.625577v -0.931204h 0.625577v 0.310401h 0.625577v -1.24161h 0.625577v
 3.41441h 0.625577v -0.931204h 0.625577v -0.620803h 0.625577v 0.620803h 0.625577v -4.03522h 0.625577v 4.03522h 0.625577v -1.24161h 0.625577v -3.41441h 0.625577v 2.17281h 0.625577v 0.620803h 0.625577v -0.931204h 0.625577v -3.72482h 0.625577v 3.10401h
 0.625577v -0.620803h 0.625577v 3.72482h 0.625577v -1.24161h 0.625577v -2.48321h 0.625577v -1.24161h 0.625577v 2.17281h 0.625577v -1.55201h 0.625577v 1.55201h 0.625577v -0.310401h 0.625577v -2.17281h 0.625577v 0.310401h 0.625577v 1.24161h 0.625577v
 -3.41441h 0.625577v -1.55201h 0.625577v 0.931204h 0.625577v 5.89762h 0.625577v -2.79361h 0.625577v -3.72482h 0.625577v 0.931204h 0.625577v 1.86241h 0.625577v -3.72482h 0.625577v 7.44963h 0.625577v -1.86241h 0.625577v -1.24161h 0.625577v 0.620803h
 0.625577v -1.24161h 0.625577v -2.48321h 0.625577v 5.58722h 0.625577v -1.24161h 0.625577v -0.310401h 0.625577v 4.65602h 0.625577v -7.76003h 0.625577v 5.27682h 0.625577v 1.86241h 0.625577v -0.620803h 0.625577v -2.48321h 0.625577v -1.55201h 0.625577v
 3.41441h 0.625577v -0.310401h 0.625577v -1.86241h 0.625577v -4.65602h 0.625577v 5.27682h 0.625577v 2.17281h 0.625577v -1.24161h 0.625577v -1.55201h 0.625577v -0.310401h 0.625577v 4.34562h 0.625577v -3.10401h 0.625577v 0.620803h 0.625577v -2.17281h
 0.625577v 4.03522h 0.625577v 0.310401h 0.625577v 1.86241h 0.625577v -2.48321h 0.625577v -0.310401h 0.625577v -0.620803h 0.625577v 2.17281h 0.625577v -0.310401h 0.625577v -0.310401h 0.625577v -1.55201h 0.625577v 3.10401h 0.625577v -1.55201h 0.625577v
 1.86241h 0.625577v -1.86241h 0.625577v 1.24161h 0.625577v 0.931204h 0.625577v 0.310401h 0.625577v 0.310401h 0.625577v -1.86241h 0.625577v 0.620803h 0.625577v 1.24161h 0.625577v 0.620803h 0.625577v -4.03522h 0.625577v 2.48321h 0.625577v -0.620803h
 0.625577v 1.55201h 0.625577v -0.931204h 1.25115v -0.620803h 0.625577v 0.931204h 0.625577v -1.24161h 0.625577v 0.620803h 0.625577v -0.620803h 0.625577v 0.310401h 0.625577v 1.86241h 0.625577v -0.310401h 0.625577v 0.310401h 0.625577v -0.620803h
 0.625577v -0.931204h 0.625577v 2.17281h 0.625577v -2.17281h 0.625577v 0.310401h 0.625577v 0.931204h 1.25115v -0.620803h 0.625577v 0.931204h 0.625577v -1.86241h 0.625577v -0.310401h 0.625577v 2.17281h 0.625577v -4.65602h 0.625577v -49.6642h 0.625577v
 -236.526h 0.625577v 51.837h 0.625577v 64.2531h 0.625577v -0.620803h 0.625577v 15.8305h 0.625577v 37.2482h 0.625577v 45.3186h 0.625577v 14.5889h 0.625577v 10.5536h 0.625577v 5.89762h 0.625577v 9.93284h 0.625577v 4.96642h 0.625577v -16.4513h 0.625577v
 4.03522h 0.625577v 12.4161h 0.625577v 2.17281h 0.625577v -8.07043h 0.625577v 4.34562h 0.625577v -10.5536h 0.625577v 10.2432h 0.625577v 2.48321h 0.625577v -4.34562h 0.625577v 1.55201h 0.625577v 3.72482h 0.625577v 4.65602h 0.625577v -7.13923h
 0.625577v -6.20803h 0.625577v 13.3473h 0.625577v -5.27682h 0.625577v 3.10401h 0.625577v -6.82883h 0.625577v 1.86241h 0.625577v 4.65602h 0.625577v 6.51843h 0.625577v -1.55201h 0.625577v -14.8993h 0.625577v 9.62244h 0.625577v -0.931204h 0.625577v
 5.58722h 0.625577v 1.24161h 0.625577v 5.89762h 0.625577v 6.51843h 0.625577v 8.69124h 0.625577v 1.24161h 0.625577v 0.620803h 0.625577v 0.310401h 1.25115" fill="none" stroke="#000099"/>
<path d="M57.1929,345.762h 453.543" fill="none" stroke="black"/>
<path d="M57.8185,336.541v 9.22031" fill="none" stroke="black"/>
<path d="M78.6711,341.152v 4.61016" fill="none" stroke="black"/>
<path d="M99.5236,341.152v 4.61016" fill="none" stroke="black"/>
<path d="M120.376,341.152v 4.61016" fill="none" stroke="black"/>
<path d="M141.229,341.152v 4.61016" fill="none" stroke="black"/>
<path d="M162.081,336.541v 9.22031" fill="none" stroke="black"/>
<path d="M182.934,341.152v 4.61016" fill="none" stroke="black"/>
<path d="M203.786,341.152v 4.61016" fill="none" stroke="black"/>
<path d="M224.639,341.152v 4.61016" fill="none" stroke="black"/>
<path d="M245.492,341.152v 4.61016" fill="none" stroke="black"/>
<path d="M266.344,336.541v 9.22031" fill="none" stroke="black"/>
<path d="M287.197,341.152v 4.61016" fill="none" stroke="black"/>
<path d="M308.049,341.152v 4.61016" fill="none" stroke="black"/>
<path d="M328.902,341.152v 4.61016" fill="none" stroke="black"/>
<path d="M349.754,341.152v 4.61016" fill="none" stroke="black"/>
<path d="M370.607,336.541v 9.22031" fill="none" stroke="black"/>
<path d="M391.46,341.152v 4.61016" fill="none" stroke="black"/>
<path d="M412.312,341.152v 4.61016" fill="none" stroke="black"/>
<path d="M433.165,341.152v 4.61016" fill="none" stroke="black"/>
<path d="M454.017,341.152v 4.61016" fill="none" stroke="black"/>
<path d="M474.87,336.541v 9.22031" fill="none" stroke="black"/>
<path d="M57.8185,336.541v 9.22031" fill="none" stroke="black"/>
<path d="M474.87,336.541v 9.22031" fill="none" stroke="black"/>
<path d="M495.722,341.152v 4.61016" fill="none" stroke="black"/>
<text xml:space="preserve" x="54.1065" y="358.189" fill="black" font-size="12.836" font-family="Helvetica">0</text>
<text xml:space="preserve" x="150.761" y="358.189" fill="black" font-size="12.836" font-family="Helvetica">500</text>
<text xml:space="preserve" x="252.288" y="358.189" fill="black" font-size="12.836" font-family="Helvetica">1000</text>
<text xml:space="preserve" x="356.252" y="358.189" fill="black" font-size="12.836" font-family="Helvetica">1500</text>
<text xml:space="preserve" x="461.028" y="358.189" fill="black" font-size="12.836" font-family="Helvetica">2000</text>
<text xml:space="preserve" x="452.094" y="371.996" fill="black" font-size="12.836" font-family="Helvetica">ADC value</text>
<path d="M57.1929,345.762v -307.344" fill="none" stroke="black"/>
<path d="M70.7992,345.762h -13.6063" fill="none" stroke="black"/>
<path d="M63.9961,339.554h -6.80315" fill="none" stroke="black"/>
<path d="M63.9961,333.346h -6.80315" fill="none" stroke="black"/>
<path d="M63.9961,327.138h -6.80315" fill="none" stroke="black"/>
<path d="M63.9961,320.93h -6.80315" fill="none" stroke="black"/>
<path d="M70.7992,314.722h -13.6063" fill="none" stroke="black"/>
<path d="M63.9961,308.514h -6.80315" fill="none" stroke="black"/>
<path d="M63.9961,302.306h -6.80315" fill="none" stroke="black"/>
<path d="M63.9961,296.098h -6.80315" fill="none" stroke="black"/>
<path d="M63.9961,289.89h -6.80315" fill="none" stroke="black"/>
<path d="M70.7992,283.682h -13.6063" fill="none" stroke="black"/>
<path d="M63.9961,277.474h -6.80315" fill="none" stroke="black"/>
<path d="M63.9961,271.266h -6.80315" fill="none" stroke="black"/>
<path d="M63.9961,265.057h -6.80315" fill="none" stroke="black"/>
<path d="M63.9961,258.849h -6.80315" fill="none" stroke="black"/>
<path d="M70.7992,252.641h -13.6063" fill="none" stroke="black"/>
<path d="M63.9961,246.433h -6.80315" fill="none" stroke="black"/>
<path d="M63.9961,240.225h -6.80315" fill="none" stroke="black"/>
<path d="M63.9961,234.017h -6.80315" fill="none" stroke="black"/>
<path d="M63.9961,227.809h -6.80315" fill="none" stroke="black"/>
<path d="M70.7992,221.601h -13.6063" fill="none" stroke="black"/>
<path d="M63.9961,215.393h -6.80315" fill="none" stroke="black"/>
<path d="M63.9961,209.185h -6.80315" fill="none" stroke="black"/>
<path d="M63.9961,202.977h -6.80315" fill="none" stroke="black"/>
<path d="M63.9961,196.769h -6.80315" fill="none" stroke="black"/>
<path d="M70.7992,190.561h -13.6063" fill="none" stroke="black"/>
<path d="M63.9961,184.353h -6.80315" fill="none" stroke="black"/>
<path d="M63.9961,178.145h -6.80315" fill="none" stroke="black"/>
<path d="M63.9961,171.937h -6.80315" fill="none" stroke="black"/>
<path d="M63.9961,165.729h -6.80315" fill="none" stroke="black"/>
<path d="M70.7992,159.521h -13.6063" fill="none" stroke="black"/>
<path d="M63.9961,153.313h -6.80315" fill="none" stroke="black"/>
<path d="M63.9961,147.105h -6.80315" fill="none" stroke="black"/>
<path d="M63.9961,140.897h -6.80315" fill="none" stroke="black"/>
<path d="M63.9961,134.689h -6.80315" fill="none" stroke="black"/>
<path d="M70.7992,128.481h -13.6063" fill="none" stroke="black"/>
<path d="M63.9961,122.273h -6.80315" fill="none" stroke="black"/>
<path d="M63.9961,116.065h -6.80315" fill="none" stroke="black"/>
<path d="M63.9961,109.857h -6.80315" fill="none" stroke="black"/>
<path d="M63.9961,103.649h -6.80315" fill="none" stroke="black"/>
<path d="M70.7992,97.4408h -13.6063" fill="none" stroke="black"/>
<path d="M63.9961,91.2328h -6.80315" fill="none" stroke="black"/>
<path d="M63.9961,85.0247h -6.80315" fill="none" stroke="black"/>
<path d="M63.9961,78.8167h -6.80315" fill="none" stroke="black"/>
<path d="M63.9961,72.6087h -6.80315" fill="none" stroke="black"/>
<path d="M70.7992,66.4007h -13.6063" fill="none" stroke="black"/>
<path d="M70.7992,66.4007h -13.6063" fill="none" stroke="black"/>
<path d="M63.9961,60.1926h -6.80315" fill="none" stroke="black"/>
<path d="M63.9961,53.9846h -6.80315" fill="none" stroke="black"/>
<path d="M63.9961,47.7766h -6.80315" fill="none" stroke="black"/>
<path d="M63.9961,41.5686h -6.80315" fill="none" stroke="black"/>
<text xml:space="preserve" x="47.6087" y="350.067" fill="black" font-size="12.836" font-family="Helvetica">0</text>
<text xml:space="preserve" x="33.801" y="319.202" fill="black" font-size="12.836" font-family="Helvetica">100</text>
<text xml:space="preserve" x="33.801" y="288.338" fill="black" font-size="12.836" font-family="Helvetica">200</text>
<text xml:space="preserve" x="33.801" y="257.474" fill="black" font-size="12.836" font-family="Helvetica">300</text>
<text xml:space="preserve" x="33.801" y="225.797" fill="black" font-size="12.836" font-family="Helvetica">400</text>
<text xml:space="preserve" x="33.801" y="194.933" fill="black" font-size="12.836" font-family="Helvetica">500</text>
<text xml:space="preserve" x="33.801" y="164.068" fill="black" font-size="12.836" font-family="Helvetica">600</text>
<text xml:space="preserve" x="33.801" y="133.204" fill="black" font-size="12.836" font-family="Helvetica">700</text>
<text xml:space="preserve" x="33.801" y="101.527" fill="black" font-size="12.836" font-family="Helvetica">800</text>
<text xml:space="preserve" x="33.801" y="70.6631" fill="black" font-size="12.836" font-family="Helvetica">900</text>
<g transform="rotate(-90,20.8055,69.8509)">
<text xml:space="preserve" x="20.8055" y="69.8509" fill="black" font-size="12.836" font-family="Helvetica">Event</text>
</g>
<text xml:space="preserve" x="253.1" y="18.681" fill="black" font-size="17.9813" font-family="Helvetica">Cs_014</text>
<rect x="442.705" y="24.9717" width="113.386" height="61.4688" fill="white"/>
<path d="M442.705,86.4405h 113.386" fill="none" stroke="black"/>
<path d="M556.091,86.4405v -61.4688" fill="none" stroke="black"/>
<path d="M556.091,24.9717h -113.386" fill="none" stroke="black"/>
<path d="M442.705,24.9717v 61.4688" fill="none" stroke="black"/>
<text xml:space="preserve" x="476.461" y="36.5499" fill="black" font-size="13.4705" font-family="Helvetica">Cs_014</text>
<path d="M442.705,40.3389h 113.386" fill="none" stroke="black"/>
<text xml:space="preserve" x="448.033" y="52.7943" fill="black" font-size="12.7411" font-family="Helvetica">Entries </text>
<text xml:space="preserve" x="513.01" y="52.7943" fill="black" font-size="12.7411" font-family="Helvetica"> 14237</text>
<text xml:space="preserve" x="448.033" y="68.2264" fill="black" font-size="12.7411" font-family="Helvetica">Mean  </text>
<text xml:space="preserve" x="513.01" y="68.2264" fill="black" font-size="12.7411" font-family="Helvetica">   1719</text>
<text xml:space="preserve" x="448.033" y="82.8464" fill="black" font-size="12.7411" font-family="Helvetica">Std Dev   </text>
<text xml:space="preserve" x="515.447" y="82.8464" fill="black" font-size="12.7411" font-family="Helvetica">  551.1</text>
<text xml:space="preserve" x="253.1" y="18.681" fill="black" font-size="17.9813" font-family="Helvetica">Cs_014</text></svg>
