<?xml version="1.0" standalone="no"?>
<svg width="567.429" height="384.969" viewBox="0 0 567.429 384.969" xmlns="http://www.w3.org/2000/svg" shape-rendering="crispEdges">
<title>
img/week1/plane_hist/Cs_005.svg
</title>
<desc>
Creator: ROOT Version 6.22/09
CreationDate: Tue Jul 13 15:52:44 2021</desc>
<defs>
</defs>
<rect x="0.5" y="0" width="566.929" height="384.469" fill="white"/>
<rect x="57.1929" y="38.4469" width="453.543" height="307.575" fill="white"/>
<rect x="57.1929" y="38.4469" width="453.543" height="307.575" fill="none" stroke="black"/>
<path d="M57.1929,346.022h 64.9704v -3.01367h 0.624715v -62.6844h 0.624715v -64.4926h 0.624715v 10.2465h 0.624715v -10.8492h 0.624715v 13.8629h 0.624715v 33.7531h 0.624715v -7.23281h 0.624715v 27.7258h 0.624715v 7.83555h 0.624715v -22.9039h 0.624715v
 30.1367h 0.624715v 18.082h 0.624715v -10.8492h 0.624715v 3.61641h 0.624715v 2.41094h 0.624715v 11.452h 0.624715v 7.23281h 0.624715v -3.01367h 1.24943v 3.61641h 0.624715v 4.82187h 0.624715v -2.41094h 0.624715v 0.602734h 1.24943v 4.82187h 1.87415v
 1.20547h 0.624715v -0.602734h 0.624715v 1.8082h 0.624715v -0.602734h 0.624715v -2.41094h 0.624715v 4.21914h 0.624715v -0.602734h 1.24943v -0.602734h 1.24943v 0.602734h 0.624715v 1.20547h 0.624715v -1.20547h 0.624715v 2.41094h 0.624715v -0.602734h
 0.624715v 1.20547h 0.624715v -1.8082h 0.624715v -1.8082h 0.624715v 1.8082h 0.624715v -1.20547h 0.624715v 0.602734h 0.624715v 2.41094h 0.624715v -1.20547h 0.624715v -1.8082h 0.624715v 3.01367h 0.624715v -1.20547h 0.624715v -1.8082h 0.624715v
 0.602734h 0.624715v -1.20547h 0.624715v 2.41094h 0.624715v 1.8082h 0.624715v -3.01367h 0.624715v 1.8082h 0.624715v -2.41094h 0.624715v 3.61641h 0.624715v -3.61641h 0.624715v 0.602734h 1.24943v -1.8082h 0.624715v 4.82187h 0.624715v -3.01367h
 0.624715v 2.41094h 0.624715v -3.01367h 1.24943v 0.602734h 0.624715v 1.8082h 0.624715v -1.8082h 0.624715v -0.602734h 0.624715v 3.01367h 0.624715v -3.01367h 0.624715v -1.20547h 0.624715v 2.41094h 0.624715v 0.602734h 0.624715v -0.602734h 0.624715v
 -0.602734h 0.624715v -0.602734h 0.624715v 3.61641h 0.624715v -1.20547h 0.624715v -1.20547h 0.624715v -1.20547h 0.624715v 1.8082h 0.624715v -1.8082h 1.24943v 0.602734h 0.624715v -1.8082h 0.624715v 3.01367h 0.624715v -2.41094h 0.624715v 0.602734h
 0.624715v 1.8082h 0.624715v 1.8082h 0.624715v -2.41094h 0.624715v -0.602734h 0.624715v -1.20547h 0.624715v 3.61641h 0.624715v -1.8082h 0.624715v 2.41094h 0.624715v -1.8082h 0.624715v -3.61641h 0.624715v 1.20547h 0.624715v 3.01367h 0.624715v
 -0.602734h 1.24943v -1.20547h 0.624715v -0.602734h 0.624715v 3.61641h 0.624715v -2.41094h 0.624715v 1.8082h 0.624715v -4.21914h 0.624715v 3.01367h 0.624715v -1.8082h 0.624715v 1.8082h 0.624715v -0.602734h 0.624715v 1.8082h 0.624715v -1.8082h
 0.624715v -1.20547h 0.624715v 0.602734h 0.624715v 0.602734h 1.24943v 0.602734h 0.624715v -0.602734h 1.24943v -0.602734h 0.624715v 1.20547h 0.624715v -1.20547h 0.624715v -2.41094h 0.624715v 2.41094h 0.624715v -1.20547h 0.624715v 0.602734h 0.624715v
 1.20547h 0.624715v -1.8082h 0.624715v 3.61641h 0.624715v -1.8082h 0.624715v 0.602734h 0.624715v -3.01367h 0.624715v -0.602734h 0.624715v 1.8082h 0.624715v 0.602734h 0.624715v 0.602734h 0.624715v -0.602734h 0.624715v 0.602734h 0.624715v -0.602734h
 0.624715v -3.61641h 0.624715v 3.61641h 1.24943v 1.20547h 0.624715v -1.8082h 0.624715v 1.20547h 0.624715v -2.41094h 0.624715v -1.8082h 0.624715v 4.82187h 0.624715v -3.61641h 0.624715v 1.20547h 0.624715v -0.602734h 0.624715v 4.82187h 0.624715v
 -3.61641h 0.624715v -0.602734h 0.624715v 0.602734h 0.624715v -2.41094h 0.624715v 3.61641h 0.624715v -2.41094h 0.624715v -3.61641h 0.624715v 4.21914h 0.624715v 2.41094h 0.624715v -3.01367h 0.624715v -1.8082h 0.624715v 3.01367h 0.624715v -0.602734h
 0.624715v 0.602734h 0.624715v -1.20547h 0.624715v 1.20547h 0.624715v -3.01367h 0.624715v 2.41094h 0.624715v 1.20547h 0.624715v -2.41094h 0.624715v -4.21914h 0.624715v 3.61641h 0.624715v 1.8082h 1.87415v 1.8082h 0.624715v -4.21914h 0.624715v 1.20547h
 0.624715v 2.41094h 0.624715v 0.602734h 0.624715v -4.82187h 0.624715v 1.20547h 0.624715v -1.8082h 0.624715v 1.20547h 1.24943v 2.41094h 0.624715v -2.41094h 0.624715v 1.20547h 0.624715v -1.20547h 1.24943v -0.602734h 0.624715v 1.8082h 0.624715v 1.20547h
 0.624715v -4.82187h 0.624715v 0.602734h 0.624715v 1.20547h 0.624715v 1.20547h 0.624715v 0.602734h 0.624715v 1.20547h 0.624715v -4.82187h 0.624715v 2.41094h 0.624715v -3.01367h 0.624715v 1.20547h 0.624715v 2.41094h 0.624715v -1.20547h 0.624715v
 4.21914h 0.624715v -3.61641h 0.624715v -1.20547h 0.624715v -0.602734h 0.624715v -6.63008h 0.624715v 4.82187h 0.624715v 1.20547h 0.624715v 4.21914h 0.624715v -4.21914h 0.624715v 1.8082h 0.624715v -6.02734h 0.624715v 4.21914h 0.624715v -4.82187h
 0.624715v 2.41094h 0.624715v 2.41094h 0.624715v -6.63008h 0.624715v 5.42461h 0.624715v -5.42461h 0.624715v 7.83555h 0.624715v -1.8082h 0.624715v 1.20547h 0.624715v -2.41094h 0.624715v -0.602734h 0.624715v 2.41094h 0.624715v -1.20547h 0.624715v
 -1.20547h 0.624715v 1.20547h 0.624715v -3.61641h 1.24943v 1.20547h 0.624715v 4.82187h 0.624715v -0.602734h 0.624715v 0.602734h 0.624715v -6.02734h 1.24943v 1.20547h 0.624715v 5.42461h 0.624715v -3.61641h 0.624715v -1.20547h 0.624715v 1.8082h
 0.624715v 1.20547h 0.624715v 3.61641h 0.624715v 1.20547h 0.624715v -8.43828h 0.624715v 2.41094h 0.624715v 1.8082h 0.624715v -2.41094h 0.624715v 4.82187h 1.24943v -3.01367h 0.624715v 2.41094h 0.624715v 0.602734h 0.624715v 1.20547h 0.624715v -3.61641h
 0.624715v 0.602734h 1.24943v 3.01367h 0.624715v -1.8082h 0.624715v -1.8082h 0.624715v 4.21914h 0.624715v 2.41094h 0.624715v -2.41094h 0.624715v -3.01367h 1.24943v 0.602734h 0.624715v -0.602734h 0.624715v 2.41094h 0.624715v -1.8082h 0.624715v
 4.21914h 0.624715v -1.8082h 0.624715v -1.8082h 0.624715v 1.8082h 0.624715v -5.42461h 0.624715v 7.83555h 0.624715v -1.20547h 0.624715v -4.21914h 0.624715v 3.61641h 0.624715v 0.602734h 0.624715v -2.41094h 0.624715v -0.602734h 0.624715v -2.41094h
 0.624715v 2.41094h 0.624715v 1.20547h 0.624715v -0.602734h 0.624715v 2.41094h 0.624715v -3.61641h 0.624715v 1.20547h 0.624715v -2.41094h 0.624715v 3.01367h 0.624715v -3.61641h 0.624715v 0.602734h 0.624715v 4.82187h 0.624715v -7.83555h 0.624715v
 9.04102h 0.624715v -2.41094h 0.624715v -1.20547h 0.624715v 1.20547h 0.624715v -3.01367h 0.624715v -2.41094h 0.624715v 1.8082h 0.624715v 1.8082h 0.624715v 1.20547h 0.624715v 0.602734h 0.624715v 0.602734h 1.87415v -2.41094h 0.624715v -1.20547h
 0.624715v 2.41094h 0.624715v -2.41094h 0.624715v 4.82187h 0.624715v -4.82187h 0.624715v 0.602734h 0.624715v 3.01367h 0.624715v -1.8082h 1.24943v 1.8082h 0.624715v -3.61641h 0.624715v 0.602734h 0.624715v 4.21914h 0.624715v -2.41094h 0.624715v
 -3.01367h 0.624715v 3.61641h 0.624715v 0.602734h 0.624715v 0.602734h 0.624715v -2.41094h 0.624715v -1.8082h 0.624715v 1.20547h 0.624715v 3.01367h 0.624715v 1.20547h 0.624715v -9.04102h 0.624715v 4.21914h 0.624715v 1.20547h 0.624715v 1.20547h
 0.624715v -1.20547h 0.624715v 0.602734h 0.624715v 1.8082h 1.87415v -0.602734h 0.624715v -3.61641h 0.624715v 4.21914h 0.624715v 0.602734h 0.624715v -1.8082h 0.624715v 0.602734h 0.624715v -1.20547h 0.624715v 1.20547h 0.624715v 1.20547h 0.624715v
 0.602734h 0.624715v -0.602734h 0.624715v -1.8082h 0.624715v 3.01367h 0.624715v -0.602734h 0.624715v -1.20547h 1.24943v 1.20547h 0.624715v 1.20547h 0.624715v -0.602734h 1.24943v -1.20547h 0.624715v 0.602734h 1.24943v -2.41094h 0.624715v 2.41094h
 1.24943v -0.602734h 1.24943v 1.20547h 1.24943v -0.602734h 0.624715v -4.21914h 0.624715v 3.01367h 0.624715v 1.20547h 0.624715v 1.20547h 0.624715v -2.41094h 0.624715v 1.8082h 0.624715v -1.8082h 1.24943v 0.602734h 0.624715v -0.602734h 0.624715v
 1.20547h 1.24943v 0.602734h 0.624715v -3.01367h 0.624715v 4.21914h 0.624715v -2.41094h 0.624715v 0.602734h 1.24943v -0.602734h 0.624715v -0.602734h 0.624715v 0.602734h 0.624715v -0.602734h 0.624715v 1.8082h 1.87415v -2.41094h 1.24943v 3.01367h
 0.624715v -3.61641h 0.624715v 2.41094h 0.624715v -1.20547h 0.624715v 0.602734h 0.624715v 0.602734h 0.624715v -1.20547h 0.624715v 0.602734h 0.624715v -1.8082h 0.624715v 1.20547h 0.624715v 1.20547h 0.624715v 2.41094h 0.624715v -1.20547h 0.624715v
 -1.20547h 0.624715v -1.8082h 0.624715v 3.61641h 0.624715v -3.61641h 0.624715v 1.20547h 0.624715v -0.602734h 0.624715v 1.8082h 0.624715v -3.61641h 0.624715v 3.61641h 1.24943v -0.602734h 0.624715v -3.01367h 0.624715v 4.82187h 0.624715v -1.20547h
 0.624715v -0.602734h 0.624715v 1.8082h 0.624715v -2.41094h 0.624715v 1.20547h 0.624715v -1.8082h 0.624715v 0.602734h 0.624715v 1.8082h 0.624715v -0.602734h 0.624715v -1.8082h 0.624715v 1.8082h 0.624715v 0.602734h 1.24943v -1.20547h 0.624715v
 -1.20547h 0.624715v 1.8082h 0.624715v -1.20547h 0.624715v -0.602734h 0.624715v 2.41094h 0.624715v 0.602734h 1.24943v -2.41094h 0.624715v 1.20547h 1.24943v 1.20547h 0.624715v -1.8082h 0.624715v 1.8082h 0.624715v -3.61641h 0.624715v 1.8082h 0.624715v
 -1.8082h 0.624715v 2.41094h 0.624715v -3.01367h 0.624715v 3.01367h 1.24943v -4.21914h 0.624715v 2.41094h 0.624715v 2.41094h 0.624715v -2.41094h 0.624715v 2.41094h 0.624715v -3.61641h 0.624715v 3.61641h 0.624715v -4.82187h 0.624715v 4.21914h
 0.624715v -1.20547h 0.624715v -0.602734h 0.624715v 1.8082h 0.624715v -0.602734h 0.624715v -1.20547h 2.49886v 1.8082h 0.624715v -0.602734h 0.624715v -6.63008h 0.624715v 5.42461h 0.624715v -2.41094h 0.624715v 0.602734h 0.624715v 3.61641h 0.624715v
 -3.61641h 0.624715v -0.602734h 0.624715v 3.01367h 0.624715v -1.8082h 0.624715v 1.20547h 0.624715v -2.41094h 0.624715v -0.602734h 0.624715v 2.41094h 0.624715v -3.61641h 0.624715v 0.602734h 0.624715v 0.602734h 0.624715v 2.41094h 0.624715v -2.41094h
 0.624715v 0.602734h 0.624715v -4.82187h 0.624715v 7.83555h 0.624715v -4.21914h 0.624715v 1.20547h 0.624715v 0.602734h 0.624715v -1.20547h 0.624715v 1.8082h 0.624715v 1.8082h 0.624715v -2.41094h 0.624715v -6.02734h 0.624715v 4.82187h 0.624715v
 1.20547h 0.624715v -1.20547h 0.624715v -2.41094h 0.624715v 3.01367h 0.624715v -6.63008h 0.624715v 11.452h 0.624715v -6.63008h 0.624715v -2.41094h 1.24943v 4.21914h 0.624715v 1.20547h 0.624715v -4.21914h 0.624715v 1.20547h 0.624715v 0.602734h
 1.24943v -1.8082h 0.624715v 2.41094h 0.624715v -1.20547h 0.624715v 1.8082h 0.624715v 1.20547h 1.24943v -2.41094h 0.624715v 1.20547h 0.624715v 1.8082h 0.624715v -3.01367h 0.624715v -0.602734h 0.624715v -1.20547h 1.24943v 5.42461h 0.624715v -3.61641h
 1.87415v 0.602734h 0.624715v -3.01367h 0.624715v 4.82187h 0.624715v -3.61641h 0.624715v 5.42461h 0.624715v -1.8082h 0.624715v -1.8082h 0.624715v 3.01367h 0.624715v -3.01367h 0.624715v 2.41094h 0.624715v 1.20547h 0.624715v -2.41094h 0.624715v
 -3.01367h 0.624715v 2.41094h 0.624715v 1.8082h 0.624715v -2.41094h 0.624715v -1.8082h 0.624715v -10.2465h 0.624715v -40.3832h 0.624715v -219.395h 0.624715v -14.4656h 0.624715v 90.4101h 0.624715v 41.5887h 0.624715v 22.9039h 0.624715v 22.9039h
 0.624715v 33.1504h 0.624715v 6.02734h 0.624715v 18.6848h 0.624715v 13.2602h 0.624715v -8.43828h 0.624715v 3.01367h 0.624715v 5.42461h 0.624715v 15.0684h 1.24943v -1.8082h 0.624715v 3.01367h 0.624715v -4.21914h 0.624715v 4.82187h 0.624715v -6.02734h
 0.624715v 6.02734h 0.624715v -1.8082h 0.624715v 7.83555h 0.624715v 0.602734h 0.624715v -15.0684h 0.624715v 10.8492h 0.624715v -3.61641h 0.624715v -3.01367h 0.624715v 4.21914h 0.624715v -1.8082h 0.624715v 1.20547h 0.624715v 7.23281h 0.624715v
 -7.23281h 0.624715v -0.602734h 0.624715v -4.82187h 0.624715v 10.2465h 0.624715v -3.61641h 0.624715v 0.602734h 0.624715v 4.82187h 0.624715v 6.63008h 0.624715v 1.8082h 0.624715v 7.83555h 0.624715v -0.602734h 0.624715v 1.8082h 0.624715v 3.01367h
 1.24943v 0.602734h 0.624715v -0.602734h 0.624715" fill="none" stroke="#000099"/>
<path d="M57.1929,346.022h 453.543" fill="none" stroke="black"/>
<path d="M57.8176,336.795v 9.22726" fill="none" stroke="black"/>
<path d="M78.6415,341.409v 4.61363" fill="none" stroke="black"/>
<path d="M99.4653,341.409v 4.61363" fill="none" stroke="black"/>
<path d="M120.289,341.409v 4.61363" fill="none" stroke="black"/>
<path d="M141.113,341.409v 4.61363" fill="none" stroke="black"/>
<path d="M161.937,336.795v 9.22726" fill="none" stroke="black"/>
<path d="M182.761,341.409v 4.61363" fill="none" stroke="black"/>
<path d="M203.585,341.409v 4.61363" fill="none" stroke="black"/>
<path d="M224.408,341.409v 4.61363" fill="none" stroke="black"/>
<path d="M245.232,341.409v 4.61363" fill="none" stroke="black"/>
<path d="M266.056,336.795v 9.22726" fill="none" stroke="black"/>
<path d="M286.88,341.409v 4.61363" fill="none" stroke="black"/>
<path d="M307.704,341.409v 4.61363" fill="none" stroke="black"/>
<path d="M328.528,341.409v 4.61363" fill="none" stroke="black"/>
<path d="M349.351,341.409v 4.61363" fill="none" stroke="black"/>
<path d="M370.175,336.795v 9.22726" fill="none" stroke="black"/>
<path d="M390.999,341.409v 4.61363" fill="none" stroke="black"/>
<path d="M411.823,341.409v 4.61363" fill="none" stroke="black"/>
<path d="M432.647,341.409v 4.61363" fill="none" stroke="black"/>
<path d="M453.471,341.409v 4.61363" fill="none" stroke="black"/>
<path d="M474.294,336.795v 9.22726" fill="none" stroke="black"/>
<path d="M57.8176,336.795v 9.22726" fill="none" stroke="black"/>
<path d="M474.294,336.795v 9.22726" fill="none" stroke="black"/>
<path d="M495.118,341.409v 4.61363" fill="none" stroke="black"/>
<text xml:space="preserve" x="54.2605" y="358.403" fill="black" font-size="12.8453" font-family="Helvetica">0</text>
<text xml:space="preserve" x="151.192" y="358.403" fill="black" font-size="12.8453" font-family="Helvetica">500</text>
<text xml:space="preserve" x="252.197" y="358.403" fill="black" font-size="12.8453" font-family="Helvetica">1000</text>
<text xml:space="preserve" x="355.645" y="358.403" fill="black" font-size="12.8453" font-family="Helvetica">1500</text>
<text xml:space="preserve" x="459.908" y="358.403" fill="black" font-size="12.8453" font-family="Helvetica">2000</text>
<text xml:space="preserve" x="451.763" y="372.251" fill="black" font-size="12.8453" font-family="Helvetica">ADC value</text>
<path d="M57.1929,346.022v -307.575" fill="none" stroke="black"/>
<path d="M70.7992,346.022h -13.6063" fill="none" stroke="black"/>
<path d="M63.9961,333.968h -6.80315" fill="none" stroke="black"/>
<path d="M63.9961,321.913h -6.80315" fill="none" stroke="black"/>
<path d="M63.9961,309.858h -6.80315" fill="none" stroke="black"/>
<path d="M63.9961,297.803h -6.80315" fill="none" stroke="black"/>
<path d="M70.7992,285.749h -13.6063" fill="none" stroke="black"/>
<path d="M63.9961,273.694h -6.80315" fill="none" stroke="black"/>
<path d="M63.9961,261.639h -6.80315" fill="none" stroke="black"/>
<path d="M63.9961,249.585h -6.80315" fill="none" stroke="black"/>
<path d="M63.9961,237.53h -6.80315" fill="none" stroke="black"/>
<path d="M70.7992,225.475h -13.6063" fill="none" stroke="black"/>
<path d="M63.9961,213.421h -6.80315" fill="none" stroke="black"/>
<path d="M63.9961,201.366h -6.80315" fill="none" stroke="black"/>
<path d="M63.9961,189.311h -6.80315" fill="none" stroke="black"/>
<path d="M63.9961,177.257h -6.80315" fill="none" stroke="black"/>
<path d="M70.7992,165.202h -13.6063" fill="none" stroke="black"/>
<path d="M63.9961,153.147h -6.80315" fill="none" stroke="black"/>
<path d="M63.9961,141.093h -6.80315" fill="none" stroke="black"/>
<path d="M63.9961,129.038h -6.80315" fill="none" stroke="black"/>
<path d="M63.9961,116.983h -6.80315" fill="none" stroke="black"/>
<path d="M70.7992,104.929h -13.6063" fill="none" stroke="black"/>
<path d="M63.9961,92.8738h -6.80315" fill="none" stroke="black"/>
<path d="M63.9961,80.8191h -6.80315" fill="none" stroke="black"/>
<path d="M63.9961,68.7645h -6.80315" fill="none" stroke="black"/>
<path d="M63.9961,56.7098h -6.80315" fill="none" stroke="black"/>
<path d="M70.7992,44.6551h -13.6063" fill="none" stroke="black"/>
<path d="M70.7992,44.6551h -13.6063" fill="none" stroke="black"/>
<text xml:space="preserve" x="47.7441" y="350.258" fill="black" font-size="12.8453" font-family="Helvetica">0</text>
<text xml:space="preserve" x="33.8967" y="289.981" fill="black" font-size="12.8453" font-family="Helvetica">100</text>
<text xml:space="preserve" x="33.8967" y="229.704" fill="black" font-size="12.8453" font-family="Helvetica">200</text>
<text xml:space="preserve" x="33.8967" y="169.427" fill="black" font-size="12.8453" font-family="Helvetica">300</text>
<text xml:space="preserve" x="33.8967" y="109.15" fill="black" font-size="12.8453" font-family="Helvetica">400</text>
<text xml:space="preserve" x="33.8967" y="48.8732" fill="black" font-size="12.8453" font-family="Helvetica">500</text>
<g transform="rotate(-90,20.8638,70.0516)">
<text xml:space="preserve" x="20.8638" y="70.0516" fill="black" font-size="12.8453" font-family="Helvetica">Event</text>
</g>
<text xml:space="preserve" x="253.012" y="18.7347" fill="black" font-size="18.0316" font-family="Helvetica">Cs_005</text>
<rect x="442.705" y="24.9905" width="113.386" height="61.5151" fill="white"/>
<path d="M442.705,86.5056h 113.386" fill="none" stroke="black"/>
<path d="M556.091,86.5056v -61.5151" fill="none" stroke="black"/>
<path d="M556.091,24.9905h -113.386" fill="none" stroke="black"/>
<path d="M442.705,24.9905v 61.5151" fill="none" stroke="black"/>
<text xml:space="preserve" x="476.199" y="36.6549" fill="black" font-size="13.4802" font-family="Helvetica">Cs_005</text>
<path d="M442.705,40.3693h 113.386" fill="none" stroke="black"/>
<text xml:space="preserve" x="447.69" y="52.946" fill="black" font-size="12.7186" font-family="Helvetica">Entries </text>
<text xml:space="preserve" x="512.854" y="52.946" fill="black" font-size="12.7186" font-family="Helvetica"> 10739</text>
<text xml:space="preserve" x="447.69" y="67.6079" fill="black" font-size="12.7186" font-family="Helvetica">Mean  </text>
<text xml:space="preserve" x="512.854" y="67.6079" fill="black" font-size="12.7186" font-family="Helvetica">   1360</text>
<text xml:space="preserve" x="447.69" y="83.0844" fill="black" font-size="12.7186" font-family="Helvetica">Std Dev   </text>
<text xml:space="preserve" x="512.854" y="83.0844" fill="black" font-size="12.7186" font-family="Helvetica">  698.4</text>
<text xml:space="preserve" x="253.012" y="18.7347" fill="black" font-size="18.0316" font-family="Helvetica">Cs_005</text></svg>
