<?xml version="1.0" standalone="no"?>
<svg width="567.429" height="384.969" viewBox="0 0 567.429 384.969" xmlns="http://www.w3.org/2000/svg" shape-rendering="crispEdges">
<title>
img/week1/plane_hist/Cs_004.svg
</title>
<desc>
Creator: ROOT Version 6.22/09
CreationDate: Fri Jul  2 19:47:43 2021</desc>
<defs>
</defs>
<rect x="0.5" y="0" width="566.929" height="384.469" fill="white"/>
<rect x="57.1929" y="38.4469" width="453.543" height="307.575" fill="white"/>
<rect x="57.1929" y="38.4469" width="453.543" height="307.575" fill="none" stroke="black"/>
<path d="M57.1929,346.022h 34.5472v -0.705853h 0.442913v -2.82341h 0.442913v -20.1168h 0.442913v -67.4089h 0.442913v -105.525h 0.442913v -96.3489h 0.442913v 6.7056h 0.442913v 52.939h 0.442913v 12.3524h 0.442913v 39.5278h 0.442913v 30.7046h 0.442913v
 36.7043h 0.442913v 13.4112h 0.442913v 19.7639h 0.442913v 10.5878h 0.442913v 8.82316h 0.442913v 19.7639h 0.442913v -1.05878h 0.442913v 13.7641h 0.442913v 7.76438h 0.442913v -2.47048h 0.442913v 8.47023h 0.442913v 2.82341h 0.442913v 5.64682h 0.442913v
 -1.41171h 0.442913v -3.17634h 0.442913v 3.17634h 0.442913v 0.705853h 0.442913v 1.05878h 0.442913v 4.58804h 0.442913v -3.88219h 0.442913v 0.352926h 0.442913v 4.23512h 0.442913v -1.05878h 0.442913v -0.352926h 0.442913v 0.352926h 0.442913v 0.705853h
 0.442913v -0.705853h 0.442913v -1.41171h 0.442913v 2.11756h 0.442913v -0.352926h 0.442913v 0.705853h 0.442913v -0.705853h 0.442913v -2.47048h 0.442913v 2.11756h 0.442913v 2.11756h 0.442913v -2.82341h 0.442913v 2.11756h 0.442913v -0.705853h 0.442913v
 -0.352926h 0.442913v 0.352926h 0.442913v 0.352926h 0.442913v -1.05878h 0.442913v 1.05878h 0.442913v 0.352926h 0.442913v -0.705853h 0.442913v 0.352926h 0.885827v -1.76463h 0.442913v 2.11756h 0.885827v -0.352926h 0.442913v -0.352926h 0.442913v
 0.352926h 0.442913v -1.41171h 0.442913v 1.05878h 0.442913v 1.05878h 0.442913v -0.352926h 0.442913v -1.05878h 0.442913v 1.41171h 0.442913v -0.352926h 0.442913v -0.352926h 0.442913v 0.352926h 0.442913v -0.352926h 0.442913v -0.705853h 0.442913v
 0.705853h 0.442913v -0.352926h 0.442913v 0.705853h 0.442913v -1.05878h 0.885827v 1.05878h 0.442913v -1.05878h 0.442913v 1.05878h 0.442913v -1.76463h 0.442913v 1.41171h 0.442913v 0.705853h 0.442913v -1.05878h 0.442913v -0.352926h 0.442913v 1.05878h
 0.442913v -0.705853h 0.442913v -0.352926h 0.885827v 1.05878h 0.885827v 0.705853h 0.442913v -1.05878h 0.885827v -0.352926h 0.885827v -1.05878h 0.442913v 1.76463h 0.442913v -1.76463h 0.442913v 0.705853h 0.442913v -0.352926h 0.442913v 1.05878h
 0.442913v 0.352926h 0.442913v -0.352926h 0.442913v 0.705853h 0.442913v -1.76463h 0.442913v -0.705853h 0.442913v 2.47048h 0.442913v -1.76463h 0.442913v 1.05878h 0.442913v 0.352926h 0.885827v -1.05878h 0.885827v 1.41171h 0.885827v -0.705853h 0.885827v
 -1.41171h 0.442913v 2.11756h 0.885827v -1.05878h 0.442913v 1.41171h 0.442913v -1.05878h 0.885827v 0.352926h 0.885827v -0.352926h 0.442913v 0.352926h 0.442913v -1.05878h 0.442913v 1.05878h 0.442913v 0.352926h 0.442913v -1.05878h 0.442913v 0.705853h
 0.442913v -0.352926h 0.442913v 0.352926h 0.885827v -0.352926h 0.442913v 0.352926h 0.442913v -0.352926h 0.442913v 0.705853h 0.442913v -0.705853h 0.885827v 0.705853h 0.885827v 0.352926h 0.442913v -0.352926h 0.442913v -1.05878h 0.442913v 0.352926h
 0.442913v -2.11756h 0.442913v 2.47048h 0.442913v -1.76463h 0.442913v 1.41171h 0.442913v -0.352926h 0.442913v 1.05878h 0.442913v -1.41171h 0.442913v 0.352926h 0.442913v 0.705853h 0.442913v 0.352926h 0.442913v -1.76463h 0.442913v 1.05878h 0.442913v
 0.352926h 0.885827v -0.705853h 0.442913v 0.352926h 0.442913v -1.41171h 0.442913v 2.11756h 0.442913v -1.05878h 0.442913v -0.352926h 0.442913v 0.352926h 0.442913v 0.352926h 0.442913v -0.352926h 0.442913v 0.352926h 0.442913v 0.352926h 0.442913v
 -2.11756h 0.442913v 1.41171h 0.885827v 0.705853h 0.442913v -0.352926h 0.442913v 0.352926h 0.442913v -0.352926h 0.442913v -0.705853h 0.442913v -0.352926h 0.442913v 1.05878h 0.442913v 0.352926h 0.442913v -1.41171h 0.442913v 1.76463h 0.442913v
 -1.41171h 0.442913v 0.352926h 0.442913v -0.352926h 0.442913v 1.05878h 0.442913v -0.352926h 0.442913v -0.352926h 0.885827v 1.05878h 0.442913v -1.05878h 0.442913v 0.352926h 0.442913v 0.705853h 0.442913v -0.352926h 0.442913v 0.352926h 0.442913v
 -0.705853h 0.442913v -1.05878h 0.442913v 1.41171h 0.885827v -0.705853h 1.32874v 0.705853h 0.442913v -1.41171h 0.442913v 0.705853h 0.442913v 0.352926h 0.442913v -0.705853h 0.442913v -0.352926h 0.442913v 0.352926h 0.442913v 1.05878h 0.442913v
 -0.352926h 0.442913v 0.352926h 0.442913v -1.05878h 0.442913v -2.47048h 0.442913v 3.88219h 0.442913v -0.705853h 0.442913v -0.352926h 0.442913v -0.705853h 0.442913v -0.352926h 0.442913v 0.705853h 0.442913v 0.352926h 0.442913v 0.352926h 0.442913v
 -0.705853h 0.885827v 0.352926h 0.442913v -1.05878h 1.77165v 1.41171h 0.442913v -2.82341h 0.442913v 0.352926h 0.442913v 0.705853h 0.442913v 0.705853h 0.442913v -1.05878h 0.442913v 0.705853h 0.885827v 1.05878h 0.885827v 0.352926h 0.442913v -0.352926h
 0.442913v 0.352926h 0.442913v -2.82341h 0.442913v 2.82341h 0.442913v -0.352926h 0.442913v -0.705853h 0.442913v -0.352926h 0.442913v 0.705853h 0.442913v 0.705853h 0.442913v -1.76463h 0.885827v -0.705853h 0.442913v 0.705853h 0.885827v 0.352926h
 0.442913v -0.705853h 0.442913v 2.11756h 0.442913v -0.705853h 0.442913v -1.05878h 0.442913v 2.82341h 0.442913v -2.11756h 0.442913v 1.05878h 0.442913v -1.76463h 0.442913v -0.352926h 0.442913v 2.82341h 0.442913v -2.11756h 0.442913v 1.05878h 0.442913v
 0.352926h 0.885827v -1.05878h 0.442913v 1.05878h 0.442913v -1.05878h 0.442913v 0.352926h 0.442913v 0.352926h 0.442913v 0.352926h 1.32874v -1.76463h 0.442913v 1.05878h 0.442913v 0.705853h 0.442913v -0.352926h 0.442913v -0.352926h 0.442913v 0.705853h
 0.442913v -0.705853h 0.442913v 0.352926h 0.442913v 0.705853h 0.442913v -1.76463h 0.442913v 1.41171h 0.442913v 0.705853h 0.442913v -1.05878h 0.442913v 1.05878h 0.442913v -1.41171h 0.442913v -0.352926h 0.442913v 2.11756h 0.442913v -1.05878h 1.32874v
 0.705853h 0.442913v -0.705853h 0.442913v 0.352926h 0.442913v -0.705853h 0.442913v 0.705853h 0.442913v -0.352926h 0.442913v -1.05878h 0.442913v -0.352926h 0.442913v 1.76463h 0.442913v 0.352926h 0.442913v -0.352926h 0.442913v -1.41171h 0.442913v
 0.705853h 0.442913v 0.352926h 0.442913v 0.352926h 0.442913v 0.352926h 0.442913v -0.352926h 0.442913v -1.05878h 0.442913v -0.705853h 0.442913v 1.41171h 0.442913v -0.705853h 0.442913v 1.41171h 0.442913v -0.352926h 0.442913v -2.11756h 0.442913v
 1.05878h 0.442913v 0.352926h 0.442913v 0.705853h 0.442913v -1.76463h 0.442913v 0.352926h 0.442913v 1.41171h 0.442913v -0.352926h 0.442913v 0.705853h 0.442913v -1.76463h 0.442913v 0.705853h 0.442913v 0.705853h 0.885827v -1.76463h 0.442913v 0.705853h
 0.442913v 0.705853h 0.442913v -0.352926h 0.442913v -1.41171h 0.442913v -0.705853h 0.442913v 2.47048h 0.885827v -1.41171h 0.442913v -0.352926h 0.442913v -0.705853h 0.442913v 1.05878h 0.442913v 0.705853h 0.442913v -4.58804h 0.442913v 2.11756h
 0.442913v 3.17634h 0.442913v -1.41171h 0.442913v -2.11756h 0.442913v 1.41171h 0.442913v -0.705853h 0.442913v 1.76463h 0.442913v -2.11756h 0.442913v 0.705853h 0.442913v -1.41171h 1.32874v 1.05878h 0.442913v -0.705853h 0.442913v 1.05878h 0.442913v
 -0.705853h 0.442913v -3.17634h 0.885827v 2.47048h 1.32874v -3.88219h 0.442913v 3.52926h 0.442913v -1.41171h 0.442913v -0.705853h 0.442913v 1.76463h 0.442913v 1.41171h 0.442913v -2.47048h 0.442913v -2.11756h 0.442913v 4.58804h 0.442913v 1.76463h
 0.442913v -4.94097h 0.442913v 0.705853h 0.442913v 2.82341h 0.442913v -1.05878h 0.442913v -0.705853h 0.885827v 1.05878h 0.442913v -2.82341h 0.442913v -2.11756h 0.442913v 5.64682h 0.442913v -2.11756h 0.442913v -1.41171h 0.442913v 0.705853h 0.442913v
 0.705853h 0.442913v -0.352926h 0.442913v 0.352926h 0.442913v 1.76463h 0.442913v 0.705853h 0.442913v -1.05878h 0.442913v -1.76463h 0.442913v -1.05878h 0.442913v 3.17634h 0.442913v 2.47048h 0.442913v -1.76463h 0.442913v -2.82341h 0.442913v 2.82341h
 0.442913v -1.76463h 0.442913v 1.76463h 0.442913v 1.41171h 0.442913v -2.47048h 0.885827v 0.705853h 0.442913v 1.76463h 0.885827v 0.705853h 0.442913v -1.05878h 0.885827v -1.76463h 0.442913v 1.05878h 0.442913v 1.05878h 0.442913v 1.76463h 0.442913v
 -2.11756h 0.442913v 0.352926h 0.442913v -0.705853h 0.442913v 2.11756h 0.442913v -1.41171h 0.442913v -0.705853h 0.442913v 1.41171h 0.442913v 0.352926h 0.442913v -1.76463h 0.442913v 1.05878h 0.442913v 0.352926h 0.442913v -1.05878h 0.442913v 0.352926h
 0.442913v 0.352926h 0.442913v 0.705853h 0.442913v -1.41171h 0.442913v 0.352926h 0.442913v 0.705853h 0.442913v -0.705853h 0.442913v -0.352926h 0.442913v 1.05878h 0.442913v -1.05878h 0.442913v 1.05878h 0.442913v -1.05878h 0.442913v 0.352926h 0.442913v
 -0.705853h 0.442913v 1.76463h 0.442913v -0.705853h 0.442913v 0.352926h 0.885827v -1.05878h 0.442913v 0.705853h 0.442913v -0.705853h 0.442913v 1.41171h 0.442913v 0.352926h 0.442913v -1.05878h 0.442913v 0.352926h 0.442913v -0.352926h 0.442913v
 0.352926h 0.885827v 1.05878h 0.442913v -0.352926h 0.442913v 0.352926h 0.442913v -1.05878h 0.442913v 0.352926h 0.885827v -0.352926h 0.885827v 0.352926h 0.442913v -0.352926h 0.442913v 0.705853h 0.442913v -0.705853h 0.442913v -1.05878h 0.885827v
 -0.705853h 0.442913v 2.82341h 0.885827v -1.41171h 0.442913v 1.76463h 0.442913v -1.05878h 0.885827v 1.05878h 0.442913v -0.352926h 0.442913v -0.352926h 0.442913v 0.705853h 0.442913v -0.352926h 0.442913v -1.41171h 0.442913v 1.05878h 0.442913v 0.352926h
 0.442913v -0.705853h 0.442913v 1.05878h 0.442913v -0.352926h 1.32874v -0.352926h 1.32874v 0.705853h 0.442913v -0.705853h 0.885827v -0.352926h 0.442913v 0.705853h 1.77165v -0.352926h 0.442913v 0.352926h 0.442913v -0.352926h 0.442913v 0.352926h
 0.442913v -0.352926h 0.442913v 0.352926h 0.442913v -0.705853h 0.442913v 0.352926h 1.32874v 0.352926h 0.442913v -0.352926h 0.442913v -0.352926h 0.442913v 1.05878h 1.32874v -0.352926h 0.442913v -0.705853h 0.442913v 0.352926h 0.442913v 0.705853h
 0.442913v -0.352926h 0.442913v -0.705853h 0.442913v 0.352926h 0.885827v 0.705853h 0.442913v -0.352926h 0.442913v -0.705853h 0.442913v 0.705853h 1.32874v 0.352926h 0.442913v -0.352926h 0.442913v 0.352926h 0.885827v -0.352926h 0.442913v -0.352926h
 0.442913v 0.352926h 0.442913v -0.352926h 0.442913v 0.705853h 0.442913v -1.05878h 0.442913v 0.352926h 0.442913v 0.352926h 0.442913v -0.352926h 0.885827v 0.705853h 0.442913v -0.705853h 0.442913v 0.352926h 0.442913v 0.352926h 1.32874v -0.352926h
 0.885827v -0.352926h 0.442913v 0.352926h 0.442913v -0.705853h 0.442913v 0.705853h 0.442913v 0.352926h 0.442913v -0.705853h 0.442913v 0.705853h 0.442913v -1.41171h 0.442913v 1.41171h 0.442913v -0.352926h 0.442913v 0.352926h 0.442913v -0.352926h
 0.442913v -1.05878h 0.442913v 1.41171h 0.442913v -0.352926h 0.442913v -0.352926h 0.442913v 0.705853h 0.442913v -1.41171h 0.442913v 1.05878h 0.442913v 0.352926h 0.442913v -0.352926h 0.442913v -0.352926h 0.442913v 0.705853h 0.442913v -0.705853h
 0.442913v 0.705853h 0.442913v -1.41171h 0.442913v 0.705853h 0.442913v 0.705853h 0.885827v -0.705853h 1.32874v 0.352926h 0.442913v 0.352926h 0.442913v -0.705853h 0.442913v -0.705853h 0.442913v 1.41171h 0.442913v -0.352926h 0.442913v -0.352926h
 0.442913v 0.352926h 0.442913v 0.352926h 0.442913v -0.352926h 0.442913v 0.352926h 0.442913v -3.88219h 0.442913v -11.2936h 0.442913v -41.9982h 0.442913v -48.3509h 0.442913v -8.47023h 0.442913v 16.9405h 0.442913v 5.99975h 0.442913v 20.1168h 0.442913v
 13.0583h 0.442913v 10.2349h 0.442913v 15.8817h 0.442913v 5.64682h 0.442913v 8.82316h 0.442913v -5.64682h 0.442913v 6.7056h 0.442913v -2.47048h 0.442913v 1.05878h 0.442913v -4.23512h 0.442913v -1.05878h 0.442913v 2.11756h 0.442913v -1.41171h
 0.442913v 5.99975h 0.442913v -2.47048h 0.442913v 1.76463h 0.442913v 2.82341h 0.442913v -3.88219h 0.442913v 1.76463h 0.442913v -1.41171h 0.442913v -5.2939h 0.442913v 2.47048h 0.442913v 3.17634h 0.442913v 5.64682h 0.442913v -0.705853h 0.442913v
 -5.2939h 0.442913v -2.47048h 0.442913v 3.17634h 0.442913v 4.58804h 0.442913v -5.64682h 0.442913v 4.23512h 0.442913v 1.76463h 0.442913v 5.64682h 0.442913v -1.05878h 0.442913v 3.17634h 0.442913v 1.76463h 0.442913v 0.352926h 0.442913v 1.76463h
 0.442913v 0.352926h 0.442913v -0.352926h 0.442913v 0.352926h 5.75787v -0.352926h 0.442913v 0.352926h 122.687" fill="none" stroke="#000099"/>
<path d="M57.1929,346.022h 453.543" fill="none" stroke="black"/>
<path d="M57.1929,336.795v 9.22726" fill="none" stroke="black"/>
<path d="M71.9567,341.409v 4.61363" fill="none" stroke="black"/>
<path d="M86.7205,341.409v 4.61363" fill="none" stroke="black"/>
<path d="M101.484,341.409v 4.61363" fill="none" stroke="black"/>
<path d="M116.248,341.409v 4.61363" fill="none" stroke="black"/>
<path d="M131.012,336.795v 9.22726" fill="none" stroke="black"/>
<path d="M145.776,341.409v 4.61363" fill="none" stroke="black"/>
<path d="M160.539,341.409v 4.61363" fill="none" stroke="black"/>
<path d="M175.303,341.409v 4.61363" fill="none" stroke="black"/>
<path d="M190.067,341.409v 4.61363" fill="none" stroke="black"/>
<path d="M204.831,336.795v 9.22726" fill="none" stroke="black"/>
<path d="M219.594,341.409v 4.61363" fill="none" stroke="black"/>
<path d="M234.358,341.409v 4.61363" fill="none" stroke="black"/>
<path d="M249.122,341.409v 4.61363" fill="none" stroke="black"/>
<path d="M263.886,341.409v 4.61363" fill="none" stroke="black"/>
<path d="M278.65,336.795v 9.22726" fill="none" stroke="black"/>
<path d="M293.413,341.409v 4.61363" fill="none" stroke="black"/>
<path d="M308.177,341.409v 4.61363" fill="none" stroke="black"/>
<path d="M322.941,341.409v 4.61363" fill="none" stroke="black"/>
<path d="M337.705,341.409v 4.61363" fill="none" stroke="black"/>
<path d="M352.469,336.795v 9.22726" fill="none" stroke="black"/>
<path d="M367.232,341.409v 4.61363" fill="none" stroke="black"/>
<path d="M381.996,341.409v 4.61363" fill="none" stroke="black"/>
<path d="M396.76,341.409v 4.61363" fill="none" stroke="black"/>
<path d="M411.524,341.409v 4.61363" fill="none" stroke="black"/>
<path d="M426.287,336.795v 9.22726" fill="none" stroke="black"/>
<path d="M441.051,341.409v 4.61363" fill="none" stroke="black"/>
<path d="M455.815,341.409v 4.61363" fill="none" stroke="black"/>
<path d="M470.579,341.409v 4.61363" fill="none" stroke="black"/>
<path d="M485.343,341.409v 4.61363" fill="none" stroke="black"/>
<path d="M500.106,336.795v 9.22726" fill="none" stroke="black"/>
<path d="M500.106,336.795v 9.22726" fill="none" stroke="black"/>
<text xml:space="preserve" x="53.446" y="358.403" fill="black" font-size="12.8453" font-family="Helvetica">0</text>
<text xml:space="preserve" x="120.239" y="358.403" fill="black" font-size="12.8453" font-family="Helvetica">500</text>
<text xml:space="preserve" x="190.291" y="358.403" fill="black" font-size="12.8453" font-family="Helvetica">1000</text>
<text xml:space="preserve" x="264.415" y="358.403" fill="black" font-size="12.8453" font-family="Helvetica">1500</text>
<text xml:space="preserve" x="338.54" y="358.403" fill="black" font-size="12.8453" font-family="Helvetica">2000</text>
<text xml:space="preserve" x="411.849" y="358.403" fill="black" font-size="12.8453" font-family="Helvetica">2500</text>
<text xml:space="preserve" x="485.974" y="358.403" fill="black" font-size="12.8453" font-family="Helvetica">3000</text>
<text xml:space="preserve" x="451.763" y="372.251" fill="black" font-size="12.8453" font-family="Helvetica">ADC value</text>
<path d="M57.1929,346.022v -307.575" fill="none" stroke="black"/>
<path d="M70.7992,346.022h -13.6063" fill="none" stroke="black"/>
<path d="M63.9961,338.964h -6.80315" fill="none" stroke="black"/>
<path d="M63.9961,331.905h -6.80315" fill="none" stroke="black"/>
<path d="M63.9961,324.847h -6.80315" fill="none" stroke="black"/>
<path d="M63.9961,317.788h -6.80315" fill="none" stroke="black"/>
<path d="M70.7992,310.73h -13.6063" fill="none" stroke="black"/>
<path d="M63.9961,303.671h -6.80315" fill="none" stroke="black"/>
<path d="M63.9961,296.613h -6.80315" fill="none" stroke="black"/>
<path d="M63.9961,289.554h -6.80315" fill="none" stroke="black"/>
<path d="M63.9961,282.496h -6.80315" fill="none" stroke="black"/>
<path d="M70.7992,275.437h -13.6063" fill="none" stroke="black"/>
<path d="M63.9961,268.378h -6.80315" fill="none" stroke="black"/>
<path d="M63.9961,261.32h -6.80315" fill="none" stroke="black"/>
<path d="M63.9961,254.261h -6.80315" fill="none" stroke="black"/>
<path d="M63.9961,247.203h -6.80315" fill="none" stroke="black"/>
<path d="M70.7992,240.144h -13.6063" fill="none" stroke="black"/>
<path d="M63.9961,233.086h -6.80315" fill="none" stroke="black"/>
<path d="M63.9961,226.027h -6.80315" fill="none" stroke="black"/>
<path d="M63.9961,218.969h -6.80315" fill="none" stroke="black"/>
<path d="M63.9961,211.91h -6.80315" fill="none" stroke="black"/>
<path d="M70.7992,204.852h -13.6063" fill="none" stroke="black"/>
<path d="M63.9961,197.793h -6.80315" fill="none" stroke="black"/>
<path d="M63.9961,190.735h -6.80315" fill="none" stroke="black"/>
<path d="M63.9961,183.676h -6.80315" fill="none" stroke="black"/>
<path d="M63.9961,176.618h -6.80315" fill="none" stroke="black"/>
<path d="M70.7992,169.559h -13.6063" fill="none" stroke="black"/>
<path d="M63.9961,162.501h -6.80315" fill="none" stroke="black"/>
<path d="M63.9961,155.442h -6.80315" fill="none" stroke="black"/>
<path d="M63.9961,148.383h -6.80315" fill="none" stroke="black"/>
<path d="M63.9961,141.325h -6.80315" fill="none" stroke="black"/>
<path d="M70.7992,134.266h -13.6063" fill="none" stroke="black"/>
<path d="M63.9961,127.208h -6.80315" fill="none" stroke="black"/>
<path d="M63.9961,120.149h -6.80315" fill="none" stroke="black"/>
<path d="M63.9961,113.091h -6.80315" fill="none" stroke="black"/>
<path d="M63.9961,106.032h -6.80315" fill="none" stroke="black"/>
<path d="M70.7992,98.9738h -13.6063" fill="none" stroke="black"/>
<path d="M63.9961,91.9153h -6.80315" fill="none" stroke="black"/>
<path d="M63.9961,84.8567h -6.80315" fill="none" stroke="black"/>
<path d="M63.9961,77.7982h -6.80315" fill="none" stroke="black"/>
<path d="M63.9961,70.7397h -6.80315" fill="none" stroke="black"/>
<path d="M70.7992,63.6812h -13.6063" fill="none" stroke="black"/>
<path d="M70.7992,63.6812h -13.6063" fill="none" stroke="black"/>
<path d="M63.9961,56.6226h -6.80315" fill="none" stroke="black"/>
<path d="M63.9961,49.5641h -6.80315" fill="none" stroke="black"/>
<path d="M63.9961,42.5056h -6.80315" fill="none" stroke="black"/>
<text xml:space="preserve" x="47.7441" y="350.258" fill="black" font-size="12.8453" font-family="Helvetica">0</text>
<text xml:space="preserve" x="33.8967" y="315.232" fill="black" font-size="12.8453" font-family="Helvetica">100</text>
<text xml:space="preserve" x="33.8967" y="280.206" fill="black" font-size="12.8453" font-family="Helvetica">200</text>
<text xml:space="preserve" x="33.8967" y="244.366" fill="black" font-size="12.8453" font-family="Helvetica">300</text>
<text xml:space="preserve" x="33.8967" y="209.34" fill="black" font-size="12.8453" font-family="Helvetica">400</text>
<text xml:space="preserve" x="33.8967" y="174.314" fill="black" font-size="12.8453" font-family="Helvetica">500</text>
<text xml:space="preserve" x="33.8967" y="138.474" fill="black" font-size="12.8453" font-family="Helvetica">600</text>
<text xml:space="preserve" x="33.8967" y="103.448" fill="black" font-size="12.8453" font-family="Helvetica">700</text>
<text xml:space="preserve" x="33.8967" y="68.4225" fill="black" font-size="12.8453" font-family="Helvetica">800</text>
<g transform="rotate(-90,20.8638,70.0516)">
<text xml:space="preserve" x="20.8638" y="70.0516" fill="black" font-size="12.8453" font-family="Helvetica">Event</text>
</g>
<text xml:space="preserve" x="253.012" y="18.7347" fill="black" font-size="18.0316" font-family="Helvetica">Cs_004</text>
<rect x="442.705" y="24.9905" width="113.386" height="61.5151" fill="white"/>
<path d="M442.705,86.5056h 113.386" fill="none" stroke="black"/>
<path d="M556.091,86.5056v -61.5151" fill="none" stroke="black"/>
<path d="M556.091,24.9905h -113.386" fill="none" stroke="black"/>
<path d="M442.705,24.9905v 61.5151" fill="none" stroke="black"/>
<text xml:space="preserve" x="476.199" y="36.6549" fill="black" font-size="13.4802" font-family="Helvetica">Cs_004</text>
<path d="M442.705,40.3693h 113.386" fill="none" stroke="black"/>
<text xml:space="preserve" x="447.69" y="52.946" fill="black" font-size="12.7186" font-family="Helvetica">Entries </text>
<text xml:space="preserve" x="512.854" y="52.946" fill="black" font-size="12.7186" font-family="Helvetica"> 12892</text>
<text xml:space="preserve" x="447.69" y="67.6079" fill="black" font-size="12.7186" font-family="Helvetica">Mean  </text>
<text xml:space="preserve" x="516.112" y="67.6079" fill="black" font-size="12.7186" font-family="Helvetica">    954</text>
<text xml:space="preserve" x="447.69" y="83.0844" fill="black" font-size="12.7186" font-family="Helvetica">Std Dev   </text>
<text xml:space="preserve" x="512.854" y="83.0844" fill="black" font-size="12.7186" font-family="Helvetica">  804.8</text>
<text xml:space="preserve" x="253.012" y="18.7347" fill="black" font-size="18.0316" font-family="Helvetica">Cs_004</text></svg>
