<?xml version="1.0" standalone="no"?>
<svg width="567.429" height="384.68" viewBox="0 0 567.429 384.68" xmlns="http://www.w3.org/2000/svg" shape-rendering="crispEdges">
<title>
img/week1/plane_hist/Cs_013.svg
</title>
<desc>
Creator: ROOT Version 6.22/09
CreationDate: Tue Jul 13 18:37:00 2021</desc>
<defs>
</defs>
<rect x="0.5" y="0" width="566.929" height="384.18" fill="white"/>
<rect x="57.1929" y="38.418" width="453.543" height="307.344" fill="white"/>
<rect x="57.1929" y="38.418" width="453.543" height="307.344" fill="none" stroke="black"/>
<path d="M57.1929,345.762h 66.4946v -1.19962h 0.627307v -7.19775h 0.627307v -2.39925h 0.627307v -2.39925h 0.627307v 8.39737h 0.627307v -1.19962h 0.627307v 2.39925h 0.627307v -1.19962h 0.627307v 2.39925h 0.627307v 1.19962h 0.627307v 1.19962h 0.627307v
 -5.99812h 0.627307v 4.7985h 0.627307v -1.19962h 0.627307v 1.19962h 0.627307v 1.19962h 0.627307v -1.19962h 1.88192v 1.19962h 0.627307v -4.7985h 0.627307v 1.19962h 0.627307v 2.39925h 0.627307v -3.59887h 0.627307v 2.39925h 0.627307v 1.19962h 0.627307v
 -1.19962h 0.627307v 2.39925h 0.627307v -2.39925h 0.627307v -2.39925h 0.627307v 3.59887h 0.627307v -2.39925h 0.627307v 1.19962h 0.627307v 1.19962h 0.627307v -1.19962h 0.627307v 1.19962h 0.627307v -1.19962h 1.88192v -3.59887h 0.627307v 4.7985h
 1.88192v -5.99812h 0.627307v 5.99812h 1.25461v -1.19962h 1.88192v 1.19962h 0.627307v -1.19962h 0.627307v -1.19962h 0.627307v 1.19962h 0.627307v -4.7985h 0.627307v 7.19775h 0.627307v -3.59887h 0.627307v 3.59887h 0.627307v -4.7985h 0.627307v 1.19962h
 0.627307v 2.39925h 0.627307v -2.39925h 1.25461v 1.19962h 1.25461v -1.19962h 0.627307v 3.59887h 0.627307v -1.19962h 0.627307v 1.19962h 0.627307v -2.39925h 1.25461v -1.19962h 0.627307v 2.39925h 0.627307v 1.19962h 0.627307v -1.19962h 0.627307v
 -3.59887h 0.627307v 1.19962h 0.627307v 1.19962h 1.25461v 1.19962h 0.627307v -2.39925h 1.25461v 2.39925h 1.88192v -2.39925h 0.627307v -2.39925h 0.627307v 3.59887h 0.627307v 2.39925h 1.25461v -2.39925h 0.627307v 1.19962h 0.627307v -2.39925h 0.627307v
 2.39925h 0.627307v -2.39925h 0.627307v 2.39925h 0.627307v 1.19962h 3.13654v -1.19962h 1.25461v -3.59887h 0.627307v 3.59887h 0.627307v 1.19962h 0.627307v -3.59887h 0.627307v 2.39925h 1.25461v -2.39925h 0.627307v 1.19962h 2.50923v 1.19962h 0.627307v
 -2.39925h 1.25461v 1.19962h 0.627307v 2.39925h 0.627307v -2.39925h 0.627307v -1.19962h 0.627307v 1.19962h 0.627307v 1.19962h 1.25461v -2.39925h 0.627307v 1.19962h 1.25461v -1.19962h 0.627307v 1.19962h 1.88192v -2.39925h 0.627307v 3.59887h 1.25461v
 -1.19962h 0.627307v -1.19962h 0.627307v 3.59887h 0.627307v -1.19962h 0.627307v 1.19962h 0.627307v -2.39925h 0.627307v -1.19962h 0.627307v -1.19962h 0.627307v 4.7985h 0.627307v -1.19962h 1.25461v -2.39925h 0.627307v 1.19962h 1.25461v -1.19962h
 0.627307v 2.39925h 0.627307v -1.19962h 1.25461v -1.19962h 0.627307v 2.39925h 0.627307v 1.19962h 0.627307v -1.19962h 0.627307v 1.19962h 2.50923v -3.59887h 0.627307v 2.39925h 0.627307v -3.59887h 0.627307v 2.39925h 0.627307v 1.19962h 1.25461v -1.19962h
 1.25461v 1.19962h 3.13654v -1.19962h 1.25461v 1.19962h 0.627307v -2.39925h 0.627307v -2.39925h 0.627307v 4.7985h 0.627307v -3.59887h 0.627307v 3.59887h 0.627307v -1.19962h 0.627307v 2.39925h 1.25461v -2.39925h 1.25461v -1.19962h 0.627307v 3.59887h
 0.627307v -1.19962h 0.627307v -5.99812h 0.627307v 7.19775h 1.88192v -2.39925h 0.627307v 1.19962h 0.627307v -1.19962h 0.627307v -1.19962h 1.25461v 2.39925h 0.627307v -2.39925h 1.25461v 2.39925h 1.25461v -2.39925h 1.25461v 2.39925h 3.13654v -1.19962h
 0.627307v 1.19962h 0.627307v 1.19962h 0.627307v -4.7985h 0.627307v 2.39925h 0.627307v 1.19962h 2.50923v -1.19962h 0.627307v -2.39925h 0.627307v 3.59887h 0.627307v -2.39925h 0.627307v 1.19962h 0.627307v 2.39925h 0.627307v -1.19962h 1.88192v -1.19962h
 0.627307v 1.19962h 0.627307v 1.19962h 0.627307v -1.19962h 0.627307v -1.19962h 0.627307v -1.19962h 0.627307v 3.59887h 0.627307v -5.99812h 0.627307v 3.59887h 1.25461v 1.19962h 0.627307v -2.39925h 0.627307v 3.59887h 0.627307v -3.59887h 0.627307v
 2.39925h 0.627307v -1.19962h 0.627307v 1.19962h 0.627307v -1.19962h 3.13654v 1.19962h 0.627307v -2.39925h 0.627307v -1.19962h 0.627307v 1.19962h 0.627307v 1.19962h 0.627307v -1.19962h 0.627307v 3.59887h 0.627307v -2.39925h 0.627307v -1.19962h
 0.627307v 2.39925h 1.25461v -2.39925h 0.627307v 3.59887h 1.25461v -2.39925h 0.627307v -1.19962h 1.25461v 2.39925h 0.627307v -2.39925h 0.627307v -3.59887h 0.627307v 2.39925h 0.627307v 4.7985h 0.627307v -4.7985h 0.627307v -1.19962h 0.627307v 4.7985h
 0.627307v -10.7966h 0.627307v 9.597h 0.627307v -4.7985h 0.627307v 3.59887h 1.25461v -7.19775h 0.627307v 8.39737h 0.627307v 1.19962h 0.627307v -3.59887h 0.627307v 1.19962h 0.627307v -1.19962h 0.627307v 2.39925h 0.627307v 1.19962h 0.627307v -2.39925h
 0.627307v 2.39925h 0.627307v -3.59887h 0.627307v -2.39925h 0.627307v 3.59887h 0.627307v 1.19962h 0.627307v 1.19962h 0.627307v -4.7985h 0.627307v 4.7985h 0.627307v -1.19962h 1.88192v 1.19962h 0.627307v -3.59887h 0.627307v 1.19962h 0.627307v -4.7985h
 0.627307v 4.7985h 0.627307v -2.39925h 0.627307v 4.7985h 1.25461v -1.19962h 0.627307v 2.39925h 0.627307v -4.7985h 0.627307v 3.59887h 1.25461v -2.39925h 0.627307v 2.39925h 1.25461v -3.59887h 0.627307v 2.39925h 0.627307v -1.19962h 0.627307v -1.19962h
 0.627307v 2.39925h 1.25461v -1.19962h 0.627307v 1.19962h 0.627307v 1.19962h 0.627307v -4.7985h 0.627307v 5.99812h 1.25461v -2.39925h 0.627307v -2.39925h 0.627307v 2.39925h 1.25461v 2.39925h 0.627307v -2.39925h 0.627307v 2.39925h 1.25461v -1.19962h
 0.627307v 1.19962h 0.627307v -2.39925h 0.627307v 2.39925h 1.88192v -4.7985h 0.627307v 3.59887h 0.627307v -1.19962h 0.627307v 2.39925h 1.25461v -1.19962h 0.627307v -3.59887h 0.627307v 2.39925h 0.627307v 1.19962h 0.627307v -4.7985h 0.627307v 2.39925h
 0.627307v 1.19962h 1.25461v 2.39925h 0.627307v -2.39925h 1.25461v 1.19962h 2.50923v -1.19962h 0.627307v 1.19962h 0.627307v -1.19962h 0.627307v 1.19962h 0.627307v -1.19962h 0.627307v 1.19962h 0.627307v -1.19962h 0.627307v 1.19962h 0.627307v -4.7985h
 0.627307v 2.39925h 0.627307v 1.19962h 0.627307v 1.19962h 0.627307v 1.19962h 0.627307v -3.59887h 0.627307v 2.39925h 0.627307v -1.19962h 0.627307v 1.19962h 1.25461v -1.19962h 0.627307v 1.19962h 0.627307v 1.19962h 1.88192v -2.39925h 1.25461v 2.39925h
 0.627307v -2.39925h 0.627307v 1.19962h 0.627307v 1.19962h 0.627307v -3.59887h 0.627307v 3.59887h 0.627307v -3.59887h 0.627307v 1.19962h 0.627307v 1.19962h 1.25461v -3.59887h 0.627307v 3.59887h 0.627307v -3.59887h 0.627307v -1.19962h 0.627307v
 3.59887h 1.25461v -4.7985h 0.627307v 3.59887h 0.627307v 1.19962h 0.627307v -5.99812h 0.627307v 2.39925h 0.627307v 4.7985h 0.627307v -7.19775h 0.627307v 8.39737h 0.627307v -3.59887h 0.627307v 2.39925h 1.25461v -4.7985h 0.627307v 3.59887h 0.627307v
 -1.19962h 0.627307v -1.19962h 0.627307v 3.59887h 0.627307v -5.99812h 0.627307v 1.19962h 0.627307v -1.19962h 0.627307v 1.19962h 0.627307v -3.59887h 0.627307v 5.99812h 0.627307v -2.39925h 1.25461v -2.39925h 0.627307v 3.59887h 0.627307v -5.99812h
 0.627307v 3.59887h 0.627307v 1.19962h 0.627307v -2.39925h 0.627307v 3.59887h 0.627307v -3.59887h 1.25461v 2.39925h 0.627307v 2.39925h 0.627307v -4.7985h 0.627307v 2.39925h 0.627307v -1.19962h 0.627307v 3.59887h 0.627307v -3.59887h 0.627307v
 -8.39737h 0.627307v 2.39925h 0.627307v 1.19962h 0.627307v 7.19775h 0.627307v -3.59887h 0.627307v -4.7985h 0.627307v -2.39925h 0.627307v 1.19962h 0.627307v 7.19775h 0.627307v -5.99812h 0.627307v -1.19962h 0.627307v 1.19962h 1.25461v -1.19962h
 0.627307v 4.7985h 0.627307v 1.19962h 0.627307v -5.99812h 0.627307v 3.59887h 0.627307v -3.59887h 0.627307v 7.19775h 0.627307v -2.39925h 1.88192v -3.59887h 0.627307v 3.59887h 0.627307v -13.1959h 0.627307v 17.9944h 0.627307v -10.7966h 0.627307v
 5.99812h 0.627307v -2.39925h 0.627307v 7.19775h 0.627307v -3.59887h 0.627307v -8.39737h 0.627307v 2.39925h 0.627307v -1.19962h 0.627307v 4.7985h 0.627307v 5.99812h 0.627307v -8.39737h 0.627307v 3.59887h 0.627307v -1.19962h 0.627307v 4.7985h
 0.627307v -3.59887h 0.627307v 3.59887h 0.627307v -2.39925h 0.627307v 1.19962h 0.627307v 2.39925h 0.627307v 1.19962h 0.627307v -2.39925h 0.627307v -3.59887h 0.627307v -2.39925h 0.627307v 4.7985h 0.627307v 2.39925h 0.627307v -1.19962h 0.627307v
 2.39925h 0.627307v 1.19962h 0.627307v -2.39925h 1.25461v 4.7985h 0.627307v -5.99812h 0.627307v 2.39925h 0.627307v -4.7985h 0.627307v 5.99812h 0.627307v -2.39925h 0.627307v 3.59887h 1.25461v -4.7985h 0.627307v 2.39925h 0.627307v 2.39925h 0.627307v
 -1.19962h 0.627307v -1.19962h 1.25461v 2.39925h 0.627307v -4.7985h 0.627307v 3.59887h 0.627307v -1.19962h 0.627307v 1.19962h 0.627307v -1.19962h 0.627307v 1.19962h 0.627307v 2.39925h 0.627307v -2.39925h 1.25461v 1.19962h 0.627307v -7.19775h
 0.627307v 7.19775h 0.627307v -3.59887h 0.627307v 2.39925h 0.627307v 1.19962h 1.25461v -1.19962h 1.25461v -2.39925h 0.627307v 1.19962h 1.25461v 2.39925h 0.627307v -1.19962h 0.627307v 1.19962h 0.627307v 1.19962h 0.627307v -7.19775h 0.627307v 3.59887h
 0.627307v 2.39925h 1.25461v -1.19962h 0.627307v 1.19962h 0.627307v -1.19962h 1.25461v 1.19962h 0.627307v 1.19962h 0.627307v -3.59887h 1.25461v -1.19962h 0.627307v -2.39925h 0.627307v 4.7985h 0.627307v -1.19962h 0.627307v 3.59887h 0.627307v -4.7985h
 0.627307v 3.59887h 1.25461v -2.39925h 0.627307v 2.39925h 0.627307v -2.39925h 0.627307v 2.39925h 0.627307v -1.19962h 1.25461v 1.19962h 0.627307v -1.19962h 0.627307v 2.39925h 0.627307v -1.19962h 0.627307v -1.19962h 0.627307v 1.19962h 0.627307v -9.597h
 0.627307v -101.968h 0.627307v -179.944h 0.627307v 123.561h 0.627307v 2.39925h 0.627307v 5.99812h 0.627307v -31.1902h 0.627307v 95.97h 0.627307v 4.7985h 0.627307v 33.5895h 0.627307v 8.39737h 0.627307v 14.3955h 0.627307v -9.597h 0.627307v 7.19775h
 0.627307v -5.99812h 0.627307v -3.59887h 0.627307v 4.7985h 0.627307v 8.39737h 0.627307v -9.597h 0.627307v -11.9962h 0.627307v 20.3936h 0.627307v -2.39925h 0.627307v -4.7985h 0.627307v -1.19962h 0.627307v -1.19962h 0.627307v 16.7947h 0.627307v
 -8.39737h 0.627307v -8.39737h 0.627307v 8.39737h 0.627307v -8.39737h 0.627307v 17.9944h 0.627307v -23.9925h 0.627307v 7.19775h 0.627307v 1.19962h 0.627307v 8.39737h 0.627307v 15.5951h 0.627307v -3.59887h 0.627307v -2.39925h 0.627307v -10.7966h
 0.627307v 16.7947h 0.627307v -1.19962h 0.627307v -1.19962h 0.627307v 7.19775h 0.627307v 8.39737h 0.627307v 4.7985h 0.627307v -1.19962h 0.627307" fill="none" stroke="#000099"/>
<path d="M57.1929,345.762h 453.543" fill="none" stroke="black"/>
<path d="M57.8202,336.541v 9.22031" fill="none" stroke="black"/>
<path d="M78.7305,341.152v 4.61016" fill="none" stroke="black"/>
<path d="M99.6407,341.152v 4.61016" fill="none" stroke="black"/>
<path d="M120.551,341.152v 4.61016" fill="none" stroke="black"/>
<path d="M141.461,341.152v 4.61016" fill="none" stroke="black"/>
<path d="M162.371,336.541v 9.22031" fill="none" stroke="black"/>
<path d="M183.282,341.152v 4.61016" fill="none" stroke="black"/>
<path d="M204.192,341.152v 4.61016" fill="none" stroke="black"/>
<path d="M225.102,341.152v 4.61016" fill="none" stroke="black"/>
<path d="M246.012,341.152v 4.61016" fill="none" stroke="black"/>
<path d="M266.923,336.541v 9.22031" fill="none" stroke="black"/>
<path d="M287.833,341.152v 4.61016" fill="none" stroke="black"/>
<path d="M308.743,341.152v 4.61016" fill="none" stroke="black"/>
<path d="M329.653,341.152v 4.61016" fill="none" stroke="black"/>
<path d="M350.564,341.152v 4.61016" fill="none" stroke="black"/>
<path d="M371.474,336.541v 9.22031" fill="none" stroke="black"/>
<path d="M392.384,341.152v 4.61016" fill="none" stroke="black"/>
<path d="M413.294,341.152v 4.61016" fill="none" stroke="black"/>
<path d="M434.205,341.152v 4.61016" fill="none" stroke="black"/>
<path d="M455.115,341.152v 4.61016" fill="none" stroke="black"/>
<path d="M476.025,336.541v 9.22031" fill="none" stroke="black"/>
<path d="M57.8202,336.541v 9.22031" fill="none" stroke="black"/>
<path d="M476.025,336.541v 9.22031" fill="none" stroke="black"/>
<path d="M496.935,341.152v 4.61016" fill="none" stroke="black"/>
<text xml:space="preserve" x="54.1065" y="358.189" fill="black" font-size="12.836" font-family="Helvetica">0</text>
<text xml:space="preserve" x="151.573" y="358.189" fill="black" font-size="12.836" font-family="Helvetica">500</text>
<text xml:space="preserve" x="253.1" y="358.189" fill="black" font-size="12.836" font-family="Helvetica">1000</text>
<text xml:space="preserve" x="357.064" y="358.189" fill="black" font-size="12.836" font-family="Helvetica">1500</text>
<text xml:space="preserve" x="461.841" y="358.189" fill="black" font-size="12.836" font-family="Helvetica">2000</text>
<text xml:space="preserve" x="452.094" y="371.996" fill="black" font-size="12.836" font-family="Helvetica">ADC value</text>
<path d="M57.1929,345.762v -307.344" fill="none" stroke="black"/>
<path d="M70.7992,345.762h -13.6063" fill="none" stroke="black"/>
<path d="M63.9961,333.766h -6.80315" fill="none" stroke="black"/>
<path d="M63.9961,321.769h -6.80315" fill="none" stroke="black"/>
<path d="M63.9961,309.773h -6.80315" fill="none" stroke="black"/>
<path d="M63.9961,297.777h -6.80315" fill="none" stroke="black"/>
<path d="M70.7992,285.781h -13.6063" fill="none" stroke="black"/>
<path d="M63.9961,273.784h -6.80315" fill="none" stroke="black"/>
<path d="M63.9961,261.788h -6.80315" fill="none" stroke="black"/>
<path d="M63.9961,249.792h -6.80315" fill="none" stroke="black"/>
<path d="M63.9961,237.796h -6.80315" fill="none" stroke="black"/>
<path d="M70.7992,225.799h -13.6063" fill="none" stroke="black"/>
<path d="M63.9961,213.803h -6.80315" fill="none" stroke="black"/>
<path d="M63.9961,201.807h -6.80315" fill="none" stroke="black"/>
<path d="M63.9961,189.811h -6.80315" fill="none" stroke="black"/>
<path d="M63.9961,177.814h -6.80315" fill="none" stroke="black"/>
<path d="M70.7992,165.818h -13.6063" fill="none" stroke="black"/>
<path d="M63.9961,153.822h -6.80315" fill="none" stroke="black"/>
<path d="M63.9961,141.826h -6.80315" fill="none" stroke="black"/>
<path d="M63.9961,129.829h -6.80315" fill="none" stroke="black"/>
<path d="M63.9961,117.833h -6.80315" fill="none" stroke="black"/>
<path d="M70.7992,105.837h -13.6063" fill="none" stroke="black"/>
<path d="M63.9961,93.8406h -6.80315" fill="none" stroke="black"/>
<path d="M63.9961,81.8444h -6.80315" fill="none" stroke="black"/>
<path d="M63.9961,69.8481h -6.80315" fill="none" stroke="black"/>
<path d="M63.9961,57.8519h -6.80315" fill="none" stroke="black"/>
<path d="M70.7992,45.8557h -13.6063" fill="none" stroke="black"/>
<path d="M70.7992,45.8557h -13.6063" fill="none" stroke="black"/>
<text xml:space="preserve" x="47.6087" y="350.067" fill="black" font-size="12.836" font-family="Helvetica">0</text>
<text xml:space="preserve" x="41.111" y="289.962" fill="black" font-size="12.836" font-family="Helvetica">50</text>
<text xml:space="preserve" x="33.801" y="230.67" fill="black" font-size="12.836" font-family="Helvetica">100</text>
<text xml:space="preserve" x="33.801" y="170.566" fill="black" font-size="12.836" font-family="Helvetica">150</text>
<text xml:space="preserve" x="33.801" y="110.462" fill="black" font-size="12.836" font-family="Helvetica">200</text>
<text xml:space="preserve" x="33.801" y="50.3576" fill="black" font-size="12.836" font-family="Helvetica">250</text>
<g transform="rotate(-90,20.8055,69.8509)">
<text xml:space="preserve" x="20.8055" y="69.8509" fill="black" font-size="12.836" font-family="Helvetica">Event</text>
</g>
<text xml:space="preserve" x="253.1" y="18.681" fill="black" font-size="17.9813" font-family="Helvetica">Cs_013</text>
<rect x="442.705" y="24.9717" width="113.386" height="61.4688" fill="white"/>
<path d="M442.705,86.4405h 113.386" fill="none" stroke="black"/>
<path d="M556.091,86.4405v -61.4688" fill="none" stroke="black"/>
<path d="M556.091,24.9717h -113.386" fill="none" stroke="black"/>
<path d="M442.705,24.9717v 61.4688" fill="none" stroke="black"/>
<text xml:space="preserve" x="476.461" y="36.5499" fill="black" font-size="13.4705" font-family="Helvetica">Cs_013</text>
<path d="M442.705,40.3389h 113.386" fill="none" stroke="black"/>
<text xml:space="preserve" x="448.033" y="52.7943" fill="black" font-size="13.0884" font-family="Helvetica">Entries </text>
<text xml:space="preserve" x="517.884" y="52.7943" fill="black" font-size="13.0884" font-family="Helvetica"> 3728</text>
<text xml:space="preserve" x="448.033" y="68.2264" fill="black" font-size="13.0884" font-family="Helvetica">Mean  </text>
<text xml:space="preserve" x="510.574" y="68.2264" fill="black" font-size="13.0884" font-family="Helvetica">   1748</text>
<text xml:space="preserve" x="448.033" y="82.8464" fill="black" font-size="13.0884" font-family="Helvetica">Std Dev   </text>
<text xml:space="preserve" x="510.574" y="82.8464" fill="black" font-size="13.0884" font-family="Helvetica">  489.3</text>
<text xml:space="preserve" x="253.1" y="18.681" fill="black" font-size="17.9813" font-family="Helvetica">Cs_013</text></svg>
