<?xml version="1.0" standalone="no"?>
<svg width="567.429" height="384.68" viewBox="0 0 567.429 384.68" xmlns="http://www.w3.org/2000/svg" shape-rendering="crispEdges">
<title>
img/week1/plane_hist/Cs_004.svg
</title>
<desc>
Creator: ROOT Version 6.22/09
CreationDate: Tue Jul 13 18:36:21 2021</desc>
<defs>
</defs>
<rect x="0.5" y="0" width="566.929" height="384.18" fill="white"/>
<rect x="57.1929" y="38.418" width="453.543" height="307.344" fill="white"/>
<rect x="57.1929" y="38.418" width="453.543" height="307.344" fill="none" stroke="black"/>
<path d="M57.1929,345.762h 45.2287v -0.285569h 0.628176v -11.9939h 0.628176v -99.0925h 0.628176v -181.336h 0.628176v 9.13821h 0.628176v 85.0996h 0.628176v 29.9848h 0.628176v 9.42378h 0.628176v 23.7022h 0.628176v 29.4136h 0.628176v 19.9898h 0.628176v
 25.4157h 0.628176v -1.42785h 0.628176v 9.42378h 0.628176v 16.563h 0.628176v 6.85366h 0.628176v 2.28455h 0.628176v 2.85569h 0.628176v 8.28151h 0.628176v 3.14126h 0.628176v 1.42785h 0.628176v 4.56911h 0.628176v -3.99797h 0.628176v 4.56911h 0.628176v
 0.856708h 0.628176v -0.571138h 0.628176v 2.57012h 0.628176v -0.571138h 0.628176v -0.571138h 0.628176v 2.28455h 0.628176v -1.14228h 1.25635v 0.571138h 0.628176v 1.71342h 0.628176v -0.856708h 0.628176v -0.285569h 0.628176v 0.856708h 1.25635v
 -0.571138h 0.628176v 0.856708h 0.628176v -0.856708h 0.628176v -0.285569h 0.628176v 0.285569h 1.25635v 1.14228h 0.628176v -1.14228h 1.25635v 0.856708h 1.25635v -0.856708h 0.628176v 0.856708h 0.628176v 0.285569h 1.25635v -0.285569h 0.628176v
 -0.571138h 0.628176v 0.856708h 0.628176v -1.14228h 0.628176v 0.856708h 0.628176v -0.285569h 0.628176v 0.285569h 0.628176v -0.571138h 0.628176v 0.571138h 0.628176v -0.571138h 0.628176v -0.285569h 0.628176v 1.14228h 1.88453v 0.285569h 0.628176v
 -0.856708h 0.628176v 0.856708h 0.628176v -0.571138h 1.88453v 0.285569h 0.628176v -0.571138h 0.628176v 0.285569h 0.628176v 0.285569h 0.628176v -0.571138h 1.25635v 0.285569h 1.25635v 0.285569h 0.628176v -1.14228h 0.628176v -0.285569h 0.628176v
 1.42785h 1.25635v -0.285569h 0.628176v -1.71342h 0.628176v 2.28455h 0.628176v -0.571138h 0.628176v -0.285569h 0.628176v 0.571138h 0.628176v 0.285569h 0.628176v -0.285569h 0.628176v -0.571138h 0.628176v -0.285569h 0.628176v 0.856708h 0.628176v
 -1.14228h 0.628176v 0.571138h 0.628176v -0.571138h 0.628176v 0.856708h 0.628176v -0.571138h 0.628176v 1.14228h 0.628176v -1.14228h 0.628176v -0.856708h 0.628176v 1.71342h 0.628176v -0.285569h 0.628176v -0.285569h 1.25635v 0.285569h 0.628176v
 -0.285569h 0.628176v 0.571138h 0.628176v -0.571138h 0.628176v -0.571138h 0.628176v 1.42785h 0.628176v -0.856708h 0.628176v 0.856708h 1.25635v -0.571138h 0.628176v -0.571138h 1.25635v 0.856708h 0.628176v -0.571138h 0.628176v 0.856708h 0.628176v
 0.285569h 0.628176v -0.856708h 0.628176v -0.285569h 0.628176v 0.571138h 0.628176v -0.285569h 0.628176v 0.571138h 0.628176v -1.42785h 0.628176v 0.856708h 1.25635v 0.856708h 0.628176v -0.856708h 0.628176v 0.285569h 0.628176v 0.285569h 0.628176v
 -0.571138h 1.25635v 0.285569h 0.628176v -1.14228h 0.628176v 1.42785h 0.628176v -0.571138h 0.628176v 0.571138h 1.25635v -0.285569h 0.628176v 0.571138h 0.628176v -0.285569h 0.628176v -0.571138h 0.628176v -0.856708h 0.628176v 1.42785h 0.628176v
 -1.99898h 0.628176v 2.28455h 0.628176v -1.14228h 1.25635v -0.571138h 0.628176v 0.856708h 0.628176v 0.285569h 0.628176v -0.856708h 0.628176v 0.571138h 0.628176v -0.285569h 0.628176v 0.571138h 0.628176v 0.571138h 0.628176v -1.14228h 0.628176v
 0.571138h 0.628176v -1.14228h 0.628176v 0.571138h 0.628176v 0.285569h 0.628176v 0.285569h 0.628176v -2.28455h 0.628176v 1.14228h 0.628176v 1.42785h 0.628176v -0.285569h 0.628176v -1.14228h 0.628176v 1.42785h 0.628176v -1.14228h 0.628176v 0.856708h
 1.25635v -0.571138h 0.628176v 0.285569h 1.25635v -0.285569h 0.628176v -0.856708h 0.628176v 0.856708h 0.628176v 0.856708h 0.628176v -1.14228h 0.628176v 0.856708h 0.628176v -0.285569h 0.628176v -0.285569h 1.25635v 0.856708h 0.628176v -0.571138h
 0.628176v -0.571138h 1.25635v 1.14228h 0.628176v -0.856708h 1.88453v 0.285569h 1.25635v 0.571138h 0.628176v -0.856708h 1.25635v 0.856708h 0.628176v -1.14228h 0.628176v 0.285569h 0.628176v 0.571138h 0.628176v -0.571138h 0.628176v 0.285569h 0.628176v
 -0.571138h 0.628176v 0.856708h 0.628176v -1.14228h 0.628176v 0.285569h 1.25635v 0.856708h 0.628176v -0.285569h 0.628176v -1.14228h 0.628176v 1.71342h 0.628176v -1.14228h 0.628176v 0.285569h 0.628176v 0.285569h 0.628176v -0.856708h 0.628176v
 0.285569h 0.628176v 0.285569h 0.628176v -0.856708h 0.628176v 1.14228h 0.628176v -0.285569h 0.628176v -0.856708h 0.628176v 0.856708h 0.628176v -0.571138h 0.628176v 0.856708h 0.628176v -0.571138h 0.628176v -0.571138h 0.628176v 0.285569h 0.628176v
 -0.571138h 0.628176v 0.285569h 0.628176v -0.285569h 0.628176v 0.856708h 0.628176v -2.28455h 0.628176v 1.42785h 0.628176v -0.285569h 0.628176v 0.856708h 0.628176v -0.571138h 0.628176v 1.14228h 0.628176v 0.285569h 0.628176v 0.285569h 0.628176v
 -0.856708h 0.628176v 0.856708h 0.628176v -1.14228h 0.628176v 0.285569h 0.628176v -0.285569h 0.628176v -0.285569h 0.628176v 0.285569h 1.25635v 0.571138h 1.25635v -2.28455h 0.628176v 1.14228h 0.628176v -0.571138h 0.628176v 1.14228h 1.25635v -0.571138h
 1.25635v 1.14228h 1.88453v 0.571138h 0.628176v -0.571138h 0.628176v -1.14228h 0.628176v -0.856708h 0.628176v 2.85569h 0.628176v -1.42785h 0.628176v 0.571138h 0.628176v 0.856708h 0.628176v -2.28455h 0.628176v 1.14228h 0.628176v 0.285569h 0.628176v
 0.285569h 0.628176v -0.571138h 1.25635v 0.856708h 1.25635v -0.285569h 0.628176v -0.571138h 1.25635v 0.571138h 0.628176v -0.856708h 0.628176v 0.571138h 0.628176v -0.285569h 0.628176v 0.571138h 0.628176v -0.285569h 0.628176v 0.285569h 0.628176v
 -0.285569h 0.628176v -0.285569h 0.628176v 0.285569h 0.628176v 0.285569h 0.628176v 0.856708h 0.628176v -0.856708h 0.628176v 0.571138h 0.628176v -1.14228h 0.628176v -0.285569h 0.628176v 0.571138h 0.628176v 0.856708h 0.628176v -0.285569h 1.25635v
 0.285569h 0.628176v -0.285569h 0.628176v -0.571138h 1.25635v 0.285569h 1.25635v -0.571138h 0.628176v -0.571138h 0.628176v 1.71342h 0.628176v -0.856708h 1.25635v 0.856708h 0.628176v -1.42785h 0.628176v 1.14228h 1.25635v -0.285569h 0.628176v
 -0.285569h 0.628176v -0.571138h 0.628176v 1.14228h 0.628176v -0.571138h 0.628176v 0.571138h 0.628176v -0.285569h 0.628176v -0.571138h 0.628176v 0.571138h 0.628176v -0.856708h 0.628176v 0.285569h 0.628176v 0.856708h 0.628176v -0.856708h 0.628176v
 0.285569h 0.628176v 0.285569h 1.25635v -0.285569h 0.628176v 0.285569h 0.628176v -0.571138h 0.628176v -0.285569h 0.628176v 0.571138h 0.628176v 0.571138h 0.628176v -0.285569h 0.628176v -2.57012h 0.628176v 1.42785h 1.25635v 1.14228h 1.25635v -1.99898h
 1.25635v 0.571138h 1.25635v -1.14228h 0.628176v -0.571138h 0.628176v 2.57012h 0.628176v -0.285569h 0.628176v -1.99898h 0.628176v 1.99898h 0.628176v -0.856708h 0.628176v 0.571138h 0.628176v 0.571138h 0.628176v -1.71342h 0.628176v -1.14228h 0.628176v
 1.14228h 1.25635v -0.571138h 0.628176v -0.571138h 0.628176v -0.285569h 1.25635v -0.571138h 1.25635v 1.14228h 1.25635v 0.285569h 0.628176v -1.14228h 0.628176v -0.285569h 0.628176v -1.42785h 0.628176v 0.571138h 0.628176v 1.14228h 0.628176v -0.285569h
 0.628176v 1.42785h 0.628176v -1.99898h 0.628176v 1.99898h 0.628176v 0.285569h 0.628176v -0.571138h 0.628176v 0.571138h 0.628176v -4.28354h 0.628176v 4.56911h 1.25635v -0.285569h 0.628176v -2.28455h 0.628176v -2.85569h 0.628176v 3.7124h 0.628176v
 1.14228h 0.628176v -2.57012h 0.628176v 1.71342h 0.628176v -0.856708h 0.628176v 2.28455h 0.628176v -2.85569h 0.628176v 2.57012h 0.628176v -0.285569h 0.628176v -0.285569h 0.628176v 1.14228h 0.628176v -3.42683h 0.628176v 1.99898h 0.628176v 0.856708h
 0.628176v 0.571138h 0.628176v 0.285569h 0.628176v -1.71342h 0.628176v 0.571138h 0.628176v -0.285569h 0.628176v 1.42785h 0.628176v -0.856708h 0.628176v -0.285569h 0.628176v 1.42785h 0.628176v 0.285569h 0.628176v -0.285569h 0.628176v 1.14228h
 0.628176v -1.99898h 0.628176v 1.42785h 1.88453v -1.14228h 0.628176v 0.856708h 0.628176v 0.856708h 0.628176v -0.285569h 0.628176v -0.285569h 0.628176v 0.571138h 0.628176v -0.285569h 0.628176v -0.571138h 0.628176v 0.571138h 0.628176v -0.285569h
 1.25635v 0.285569h 0.628176v -0.285569h 0.628176v 0.856708h 0.628176v -0.856708h 1.25635v 0.571138h 0.628176v -0.856708h 0.628176v 0.285569h 0.628176v 0.285569h 0.628176v 0.856708h 0.628176v -0.571138h 0.628176v -0.856708h 0.628176v 1.14228h
 0.628176v -2.57012h 0.628176v 2.57012h 0.628176v -1.42785h 0.628176v 0.571138h 1.25635v 0.856708h 0.628176v 0.285569h 0.628176v -0.856708h 0.628176v -0.571138h 0.628176v -0.285569h 0.628176v 0.856708h 0.628176v 0.571138h 0.628176v 0.285569h
 0.628176v 0.285569h 0.628176v -2.28455h 0.628176v 1.99898h 0.628176v -0.856708h 0.628176v -0.571138h 0.628176v 1.42785h 0.628176v 0.571138h 0.628176v -0.571138h 1.25635v -0.285569h 0.628176v 0.285569h 0.628176v -0.285569h 0.628176v -0.571138h
 0.628176v 0.285569h 0.628176v 0.571138h 0.628176v -1.42785h 0.628176v 0.571138h 0.628176v 0.571138h 0.628176v -0.285569h 0.628176v -0.571138h 0.628176v -0.571138h 0.628176v 0.856708h 0.628176v 1.42785h 0.628176v -0.856708h 0.628176v 0.285569h
 0.628176v 0.285569h 1.88453v -0.571138h 0.628176v 0.571138h 0.628176v 0.285569h 0.628176v -0.571138h 0.628176v 0.285569h 0.628176v -0.571138h 0.628176v 0.285569h 0.628176v -0.571138h 0.628176v 1.14228h 0.628176v -0.285569h 1.25635v 0.285569h
 0.628176v -0.285569h 1.25635v -0.571138h 1.25635v 0.285569h 1.25635v 0.285569h 0.628176v 0.285569h 0.628176v -0.571138h 0.628176v 0.285569h 0.628176v -0.285569h 0.628176v -0.285569h 0.628176v 0.571138h 2.51271v 0.285569h 0.628176v -1.14228h
 0.628176v 1.14228h 0.628176v -1.14228h 0.628176v 0.571138h 0.628176v 0.285569h 0.628176v -0.285569h 1.25635v 0.571138h 1.25635v -0.285569h 0.628176v 0.285569h 0.628176v -0.856708h 0.628176v 0.571138h 0.628176v -0.285569h 0.628176v 0.285569h 1.25635v
 -0.285569h 1.88453v 0.571138h 0.628176v -0.571138h 1.25635v 0.285569h 1.88453v 0.285569h 1.25635v -0.571138h 0.628176v 0.285569h 1.25635v 0.285569h 1.25635v -0.285569h 0.628176v -0.856708h 0.628176v 0.571138h 1.88453v 0.285569h 1.25635v -0.285569h
 0.628176v 0.571138h 1.88453v -0.571138h 0.628176v 0.285569h 1.25635v -0.571138h 0.628176v 0.856708h 0.628176v -0.285569h 1.25635v 0.285569h 0.628176v -0.571138h 0.628176v 0.285569h 0.628176v -0.571138h 1.25635v 0.856708h 0.628176v -0.285569h
 0.628176v -0.285569h 0.628176v 0.285569h 1.25635v 0.285569h 0.628176v -0.285569h 0.628176v -0.571138h 0.628176v 0.571138h 0.628176v -0.856708h 0.628176v 0.856708h 0.628176v 0.285569h 1.25635v -0.856708h 0.628176v 0.856708h 0.628176v -0.285569h
 0.628176v 0.285569h 0.628176v -0.571138h 0.628176v -0.285569h 0.628176v 0.856708h 0.628176v -0.285569h 0.628176v -0.285569h 1.25635v 0.571138h 0.628176v -0.285569h 0.628176v -0.285569h 0.628176v 0.285569h 0.628176v -0.571138h 0.628176v 0.285569h
 0.628176v 0.571138h 0.628176v -0.285569h 0.628176v 0.285569h 0.628176v -0.571138h 0.628176v 0.571138h 0.628176v -0.571138h 0.628176v -9.13821h 0.628176v -71.6779h 0.628176v -26.5579h 0.628176v 37.124h 0.628176v -7.13923h 0.628176v -0.856708h
 0.628176v 26.2724h 0.628176v 15.9919h 0.628176v 11.7083h 0.628176v 2.57012h 0.628176v 3.99797h 0.628176v 3.42683h 0.628176v -0.285569h 0.628176v 3.42683h 0.628176v -3.7124h 0.628176v -4.56911h 0.628176v 7.99594h 0.628176v -2.85569h 0.628176v
 -2.28455h 0.628176v -2.85569h 0.628176v 3.99797h 0.628176v 5.71138h 0.628176v -3.99797h 0.628176v -2.85569h 0.628176v 5.14024h 0.628176v -1.99898h 0.628176v -2.57012h 0.628176v 4.28354h 0.628176v -0.856708h 0.628176v 1.71342h 1.25635v -3.42683h
 0.628176v -0.285569h 1.25635v 2.57012h 0.628176v 2.85569h 0.628176v -1.71342h 0.628176v 2.57012h 0.628176v 1.14228h 0.628176v 1.71342h 0.628176v 2.28455h 0.628176v 1.99898h 0.628176v -0.285569h 0.628176v 1.42785h 0.628176" fill="none"
 stroke="#000099"/>
<path d="M57.1929,345.762h 453.543" fill="none" stroke="black"/>
<path d="M57.8211,336.541v 9.22031" fill="none" stroke="black"/>
<path d="M78.7603,341.152v 4.61016" fill="none" stroke="black"/>
<path d="M99.6995,341.152v 4.61016" fill="none" stroke="black"/>
<path d="M120.639,341.152v 4.61016" fill="none" stroke="black"/>
<path d="M141.578,341.152v 4.61016" fill="none" stroke="black"/>
<path d="M162.517,336.541v 9.22031" fill="none" stroke="black"/>
<path d="M183.456,341.152v 4.61016" fill="none" stroke="black"/>
<path d="M204.396,341.152v 4.61016" fill="none" stroke="black"/>
<path d="M225.335,341.152v 4.61016" fill="none" stroke="black"/>
<path d="M246.274,341.152v 4.61016" fill="none" stroke="black"/>
<path d="M267.213,336.541v 9.22031" fill="none" stroke="black"/>
<path d="M288.152,341.152v 4.61016" fill="none" stroke="black"/>
<path d="M309.092,341.152v 4.61016" fill="none" stroke="black"/>
<path d="M330.031,341.152v 4.61016" fill="none" stroke="black"/>
<path d="M350.97,341.152v 4.61016" fill="none" stroke="black"/>
<path d="M371.909,336.541v 9.22031" fill="none" stroke="black"/>
<path d="M392.848,341.152v 4.61016" fill="none" stroke="black"/>
<path d="M413.788,341.152v 4.61016" fill="none" stroke="black"/>
<path d="M434.727,341.152v 4.61016" fill="none" stroke="black"/>
<path d="M455.666,341.152v 4.61016" fill="none" stroke="black"/>
<path d="M476.605,336.541v 9.22031" fill="none" stroke="black"/>
<path d="M57.8211,336.541v 9.22031" fill="none" stroke="black"/>
<path d="M476.605,336.541v 9.22031" fill="none" stroke="black"/>
<path d="M497.545,341.152v 4.61016" fill="none" stroke="black"/>
<text xml:space="preserve" x="54.1065" y="358.189" fill="black" font-size="12.836" font-family="Helvetica">0</text>
<text xml:space="preserve" x="151.573" y="358.189" fill="black" font-size="12.836" font-family="Helvetica">500</text>
<text xml:space="preserve" x="253.1" y="358.189" fill="black" font-size="12.836" font-family="Helvetica">1000</text>
<text xml:space="preserve" x="357.877" y="358.189" fill="black" font-size="12.836" font-family="Helvetica">1500</text>
<text xml:space="preserve" x="462.653" y="358.189" fill="black" font-size="12.836" font-family="Helvetica">2000</text>
<text xml:space="preserve" x="452.094" y="371.996" fill="black" font-size="12.836" font-family="Helvetica">ADC value</text>
<path d="M57.1929,345.762v -307.344" fill="none" stroke="black"/>
<path d="M70.7992,345.762h -13.6063" fill="none" stroke="black"/>
<path d="M63.9961,331.483h -6.80315" fill="none" stroke="black"/>
<path d="M63.9961,317.205h -6.80315" fill="none" stroke="black"/>
<path d="M63.9961,302.926h -6.80315" fill="none" stroke="black"/>
<path d="M70.7992,288.648h -13.6063" fill="none" stroke="black"/>
<path d="M63.9961,274.37h -6.80315" fill="none" stroke="black"/>
<path d="M63.9961,260.091h -6.80315" fill="none" stroke="black"/>
<path d="M63.9961,245.813h -6.80315" fill="none" stroke="black"/>
<path d="M70.7992,231.534h -13.6063" fill="none" stroke="black"/>
<path d="M63.9961,217.256h -6.80315" fill="none" stroke="black"/>
<path d="M63.9961,202.977h -6.80315" fill="none" stroke="black"/>
<path d="M63.9961,188.699h -6.80315" fill="none" stroke="black"/>
<path d="M70.7992,174.42h -13.6063" fill="none" stroke="black"/>
<path d="M63.9961,160.142h -6.80315" fill="none" stroke="black"/>
<path d="M63.9961,145.863h -6.80315" fill="none" stroke="black"/>
<path d="M63.9961,131.585h -6.80315" fill="none" stroke="black"/>
<path d="M70.7992,117.306h -13.6063" fill="none" stroke="black"/>
<path d="M63.9961,103.028h -6.80315" fill="none" stroke="black"/>
<path d="M63.9961,88.7495h -6.80315" fill="none" stroke="black"/>
<path d="M63.9961,74.4711h -6.80315" fill="none" stroke="black"/>
<path d="M70.7992,60.1926h -13.6063" fill="none" stroke="black"/>
<path d="M70.7992,60.1926h -13.6063" fill="none" stroke="black"/>
<path d="M63.9961,45.9142h -6.80315" fill="none" stroke="black"/>
<text xml:space="preserve" x="47.6087" y="350.067" fill="black" font-size="12.836" font-family="Helvetica">0</text>
<text xml:space="preserve" x="33.801" y="293.211" fill="black" font-size="12.836" font-family="Helvetica">200</text>
<text xml:space="preserve" x="33.801" y="236.356" fill="black" font-size="12.836" font-family="Helvetica">400</text>
<text xml:space="preserve" x="33.801" y="178.688" fill="black" font-size="12.836" font-family="Helvetica">600</text>
<text xml:space="preserve" x="33.801" y="121.833" fill="black" font-size="12.836" font-family="Helvetica">800</text>
<text xml:space="preserve" x="27.3032" y="64.9776" fill="black" font-size="12.836" font-family="Helvetica">1000</text>
<g transform="rotate(-90,14.3077,69.8509)">
<text xml:space="preserve" x="14.3077" y="69.8509" fill="black" font-size="12.836" font-family="Helvetica">Event</text>
</g>
<text xml:space="preserve" x="253.1" y="18.681" fill="black" font-size="17.9813" font-family="Helvetica">Cs_004</text>
<rect x="442.705" y="24.9717" width="113.386" height="61.4688" fill="white"/>
<path d="M442.705,86.4405h 113.386" fill="none" stroke="black"/>
<path d="M556.091,86.4405v -61.4688" fill="none" stroke="black"/>
<path d="M556.091,24.9717h -113.386" fill="none" stroke="black"/>
<path d="M442.705,24.9717v 61.4688" fill="none" stroke="black"/>
<text xml:space="preserve" x="476.461" y="36.5499" fill="black" font-size="13.4705" font-family="Helvetica">Cs_004</text>
<path d="M442.705,40.3389h 113.386" fill="none" stroke="black"/>
<text xml:space="preserve" x="448.033" y="52.7943" fill="black" font-size="12.7411" font-family="Helvetica">Entries </text>
<text xml:space="preserve" x="513.01" y="52.7943" fill="black" font-size="12.7411" font-family="Helvetica"> 12892</text>
<text xml:space="preserve" x="448.033" y="68.2264" fill="black" font-size="12.7411" font-family="Helvetica">Mean  </text>
<text xml:space="preserve" x="513.01" y="68.2264" fill="black" font-size="12.7411" font-family="Helvetica">  914.9</text>
<text xml:space="preserve" x="448.033" y="82.8464" fill="black" font-size="12.7411" font-family="Helvetica">Std Dev   </text>
<text xml:space="preserve" x="513.01" y="82.8464" fill="black" font-size="12.7411" font-family="Helvetica">  801.3</text>
<text xml:space="preserve" x="253.1" y="18.681" fill="black" font-size="17.9813" font-family="Helvetica">Cs_004</text></svg>
