<?xml version="1.0" standalone="no"?>
<svg width="567.429" height="384.68" viewBox="0 0 567.429 384.68" xmlns="http://www.w3.org/2000/svg" shape-rendering="crispEdges">
<title>
img/week1/plane_hist/Cs_012.svg
</title>
<desc>
Creator: ROOT Version 6.22/09
CreationDate: Tue Jul 13 18:36:57 2021</desc>
<defs>
</defs>
<rect x="0.5" y="0" width="566.929" height="384.18" fill="white"/>
<rect x="57.1929" y="38.418" width="453.543" height="307.344" fill="white"/>
<rect x="57.1929" y="38.418" width="453.543" height="307.344" fill="none" stroke="black"/>
<path d="M57.1929,345.762h 65.8673v -11.4993h 0.627307v -49.1332h 1.25461v 10.4539h 0.627307v 5.22694h 0.627307v 6.79502h 0.627307v 6.79502h 0.627307v 4.18155h 0.627307v 7.8404h 0.627307v -6.79502h 0.627307v 1.56808h 0.627307v 4.70424h 0.627307v
 8.88579h 0.627307v -1.56808h 0.627307v 1.56808h 0.627307v 1.56808h 0.627307v 1.56808h 0.627307v 1.56808h 0.627307v 2.09077h 0.627307v 1.56808h 0.627307v -3.13616h 0.627307v 1.04539h 0.627307v 2.09077h 1.25461v -0.522694h 0.627307v 0.522694h
 0.627307v 2.09077h 0.627307v -0.522694h 0.627307v -1.04539h 0.627307v 1.04539h 0.627307v -1.56808h 1.25461v 0.522694h 0.627307v 0.522694h 0.627307v -1.04539h 0.627307v 2.09077h 1.88192v -0.522694h 0.627307v 0.522694h 0.627307v -0.522694h 0.627307v
 1.04539h 0.627307v -2.09077h 0.627307v 1.04539h 1.25461v 0.522694h 1.88192v -1.04539h 1.25461v -1.56808h 0.627307v 2.09077h 0.627307v -0.522694h 0.627307v 0.522694h 0.627307v 1.04539h 0.627307v -0.522694h 0.627307v -0.522694h 1.25461v -0.522694h
 1.25461v -1.04539h 0.627307v 2.61347h 0.627307v -1.56808h 0.627307v 0.522694h 0.627307v -3.65885h 0.627307v 3.65885h 0.627307v -0.522694h 1.25461v 0.522694h 1.25461v -0.522694h 0.627307v 0.522694h 0.627307v 1.04539h 0.627307v -2.09077h 0.627307v
 0.522694h 1.25461v 0.522694h 1.25461v 0.522694h 0.627307v -2.09077h 1.25461v 1.04539h 0.627307v 1.56808h 0.627307v -0.522694h 0.627307v -0.522694h 0.627307v -0.522694h 0.627307v 1.04539h 3.13654v -0.522694h 1.88192v -0.522694h 0.627307v 0.522694h
 1.25461v 1.04539h 0.627307v -1.04539h 0.627307v 0.522694h 0.627307v -0.522694h 0.627307v -1.04539h 0.627307v 2.09077h 0.627307v -0.522694h 0.627307v -1.56808h 0.627307v 1.56808h 0.627307v -1.04539h 0.627307v -0.522694h 0.627307v -0.522694h 0.627307v
 1.04539h 0.627307v 1.56808h 0.627307v -0.522694h 0.627307v -1.56808h 0.627307v 1.56808h 0.627307v -1.04539h 0.627307v 1.56808h 0.627307v -2.09077h 0.627307v 0.522694h 0.627307v 1.04539h 1.25461v -2.09077h 0.627307v 1.56808h 0.627307v -0.522694h
 0.627307v -1.04539h 0.627307v 0.522694h 1.25461v 1.04539h 0.627307v -1.56808h 0.627307v 2.09077h 0.627307v -1.56808h 0.627307v 1.04539h 0.627307v 0.522694h 1.25461v -1.56808h 0.627307v 1.04539h 2.50923v 1.04539h 0.627307v -1.04539h 1.25461v 1.04539h
 1.25461v -1.04539h 0.627307v 1.04539h 0.627307v -1.04539h 0.627307v -0.522694h 0.627307v 1.56808h 0.627307v -1.56808h 0.627307v 0.522694h 0.627307v 1.04539h 0.627307v -1.56808h 0.627307v 1.04539h 0.627307v -2.61347h 0.627307v 3.13616h 0.627307v
 -1.56808h 1.25461v 1.56808h 0.627307v -0.522694h 1.25461v -1.04539h 1.25461v 1.56808h 0.627307v -0.522694h 0.627307v 0.522694h 0.627307v -1.04539h 0.627307v 1.04539h 0.627307v -2.61347h 0.627307v 1.56808h 1.25461v -0.522694h 0.627307v 0.522694h
 0.627307v 0.522694h 1.25461v -1.04539h 0.627307v 0.522694h 0.627307v -1.04539h 0.627307v 0.522694h 0.627307v 1.04539h 0.627307v 0.522694h 0.627307v -1.56808h 1.25461v 1.04539h 1.25461v 0.522694h 0.627307v -1.04539h 0.627307v -1.04539h 0.627307v
 1.56808h 0.627307v 0.522694h 0.627307v -0.522694h 0.627307v -1.04539h 1.25461v 1.04539h 0.627307v 0.522694h 1.25461v -1.56808h 0.627307v 0.522694h 0.627307v -1.04539h 0.627307v 1.56808h 0.627307v -2.09077h 0.627307v 2.61347h 0.627307v -0.522694h
 0.627307v 0.522694h 0.627307v -1.04539h 0.627307v 1.04539h 0.627307v -0.522694h 0.627307v -1.04539h 1.25461v 1.04539h 0.627307v -1.04539h 0.627307v 0.522694h 0.627307v 1.04539h 0.627307v -2.61347h 0.627307v 1.04539h 0.627307v 0.522694h 0.627307v
 1.04539h 0.627307v -0.522694h 0.627307v 0.522694h 0.627307v -1.04539h 0.627307v 0.522694h 1.25461v 0.522694h 0.627307v -1.56808h 0.627307v 1.04539h 0.627307v -1.56808h 0.627307v 1.56808h 0.627307v 0.522694h 0.627307v -1.04539h 0.627307v 0.522694h
 1.25461v -1.04539h 0.627307v 0.522694h 0.627307v -1.04539h 0.627307v 0.522694h 0.627307v 1.04539h 0.627307v -0.522694h 0.627307v 0.522694h 0.627307v -0.522694h 0.627307v 0.522694h 1.25461v -0.522694h 0.627307v -0.522694h 0.627307v 0.522694h
 0.627307v 0.522694h 1.25461v -0.522694h 0.627307v -1.56808h 0.627307v 1.04539h 0.627307v -1.56808h 0.627307v 2.09077h 0.627307v 0.522694h 0.627307v -2.09077h 0.627307v 1.04539h 0.627307v 0.522694h 1.88192v 1.04539h 0.627307v -1.04539h 0.627307v
 -1.04539h 0.627307v 1.04539h 1.25461v 0.522694h 0.627307v -0.522694h 0.627307v -1.04539h 0.627307v 1.56808h 0.627307v 0.522694h 0.627307v -0.522694h 0.627307v -1.56808h 0.627307v 1.04539h 0.627307v 1.04539h 0.627307v -2.09077h 0.627307v 1.56808h
 1.25461v -0.522694h 1.25461v -0.522694h 0.627307v 0.522694h 0.627307v 0.522694h 0.627307v -0.522694h 0.627307v 0.522694h 1.25461v -0.522694h 0.627307v 0.522694h 0.627307v 0.522694h 0.627307v -1.04539h 0.627307v 1.04539h 0.627307v -2.09077h 0.627307v
 2.09077h 0.627307v -0.522694h 0.627307v -0.522694h 0.627307v 1.04539h 0.627307v -2.09077h 0.627307v 1.56808h 1.25461v -1.04539h 0.627307v 0.522694h 0.627307v 1.04539h 0.627307v -0.522694h 0.627307v -1.04539h 1.25461v 1.04539h 0.627307v -1.04539h
 0.627307v 1.04539h 0.627307v -0.522694h 0.627307v 0.522694h 1.25461v -2.09077h 0.627307v 2.61347h 0.627307v -1.56808h 0.627307v -0.522694h 1.25461v 1.56808h 0.627307v -0.522694h 0.627307v -0.522694h 0.627307v -1.04539h 0.627307v 1.56808h 0.627307v
 1.04539h 0.627307v -2.61347h 0.627307v 1.56808h 0.627307v -0.522694h 1.25461v -1.04539h 0.627307v 2.09077h 0.627307v -1.56808h 0.627307v -0.522694h 0.627307v 0.522694h 0.627307v 1.56808h 0.627307v -0.522694h 0.627307v -1.56808h 0.627307v 1.04539h
 1.25461v -2.09077h 0.627307v 2.09077h 0.627307v -0.522694h 0.627307v -0.522694h 0.627307v 2.09077h 1.25461v -3.65885h 0.627307v 2.09077h 0.627307v 1.04539h 0.627307v -1.56808h 0.627307v 1.56808h 0.627307v -1.04539h 1.25461v 2.09077h 0.627307v
 -0.522694h 0.627307v -1.04539h 0.627307v -0.522694h 0.627307v 1.04539h 0.627307v 0.522694h 0.627307v -1.56808h 0.627307v 0.522694h 0.627307v -1.04539h 0.627307v 2.09077h 0.627307v -2.09077h 0.627307v 1.04539h 0.627307v -1.56808h 0.627307v 2.09077h
 0.627307v -2.09077h 0.627307v 2.09077h 0.627307v -3.13616h 0.627307v 3.65885h 0.627307v -1.04539h 0.627307v 1.04539h 0.627307v -2.09077h 0.627307v 1.56808h 0.627307v -0.522694h 1.25461v 1.04539h 0.627307v -2.09077h 0.627307v 0.522694h 0.627307v
 1.04539h 0.627307v -1.56808h 0.627307v 1.56808h 0.627307v -2.09077h 0.627307v 2.09077h 0.627307v -1.56808h 0.627307v 1.04539h 0.627307v -0.522694h 0.627307v -1.56808h 0.627307v 2.09077h 0.627307v 1.04539h 0.627307v 0.522694h 0.627307v -2.09077h
 0.627307v 1.04539h 1.25461v 0.522694h 0.627307v 0.522694h 0.627307v -1.04539h 0.627307v 0.522694h 0.627307v -0.522694h 0.627307v 0.522694h 0.627307v -1.04539h 1.25461v 1.04539h 0.627307v -1.04539h 0.627307v -0.522694h 0.627307v 0.522694h 0.627307v
 -0.522694h 0.627307v 1.56808h 1.25461v -0.522694h 1.25461v -0.522694h 0.627307v -1.04539h 0.627307v 2.09077h 1.25461v -2.09077h 0.627307v 2.61347h 0.627307v -1.04539h 0.627307v 0.522694h 0.627307v -2.09077h 0.627307v 2.61347h 0.627307v -0.522694h
 0.627307v -0.522694h 1.88192v -0.522694h 0.627307v -0.522694h 0.627307v 1.56808h 0.627307v -1.04539h 0.627307v 1.04539h 1.88192v -0.522694h 0.627307v 0.522694h 0.627307v 0.522694h 0.627307v -1.56808h 0.627307v 0.522694h 0.627307v -0.522694h
 0.627307v 0.522694h 1.88192v -0.522694h 0.627307v 0.522694h 0.627307v -1.04539h 0.627307v -1.56808h 0.627307v 3.65885h 0.627307v -1.56808h 0.627307v 1.04539h 1.88192v 0.522694h 0.627307v -1.04539h 0.627307v -0.522694h 0.627307v 1.04539h 0.627307v
 -1.04539h 0.627307v 0.522694h 0.627307v -0.522694h 0.627307v 1.04539h 1.25461v -1.04539h 1.25461v 0.522694h 0.627307v 1.04539h 0.627307v -1.04539h 0.627307v 1.04539h 0.627307v -0.522694h 0.627307v -1.04539h 0.627307v 1.56808h 0.627307v -1.04539h
 0.627307v 0.522694h 0.627307v -0.522694h 1.25461v 0.522694h 1.88192v -1.04539h 0.627307v 0.522694h 0.627307v 0.522694h 0.627307v -1.56808h 0.627307v 1.04539h 0.627307v -1.04539h 0.627307v 1.04539h 0.627307v 0.522694h 0.627307v -2.09077h 0.627307v
 1.56808h 0.627307v -0.522694h 0.627307v 1.56808h 0.627307v -0.522694h 0.627307v -1.04539h 0.627307v 0.522694h 0.627307v 0.522694h 0.627307v -1.56808h 0.627307v 0.522694h 0.627307v -0.522694h 0.627307v 1.56808h 1.25461v -2.61347h 0.627307v 1.56808h
 0.627307v 0.522694h 0.627307v -0.522694h 0.627307v 1.04539h 0.627307v -1.04539h 0.627307v -1.04539h 0.627307v 0.522694h 1.25461v 0.522694h 0.627307v 0.522694h 0.627307v -1.56808h 0.627307v 2.09077h 0.627307v -1.56808h 0.627307v 1.04539h 0.627307v
 -0.522694h 0.627307v -0.522694h 0.627307v -1.04539h 1.25461v 0.522694h 0.627307v 2.09077h 0.627307v -3.13616h 0.627307v 2.09077h 0.627307v -0.522694h 1.25461v -3.65885h 0.627307v 3.65885h 1.25461v -0.522694h 0.627307v -0.522694h 0.627307v -1.04539h
 0.627307v 1.56808h 0.627307v 0.522694h 0.627307v -1.56808h 0.627307v -1.56808h 0.627307v 1.56808h 0.627307v -1.04539h 1.25461v 2.61347h 0.627307v -2.09077h 0.627307v 3.13616h 0.627307v -4.18155h 0.627307v 1.56808h 0.627307v -0.522694h 1.25461v
 1.56808h 0.627307v -4.18155h 0.627307v 2.09077h 1.25461v 2.09077h 0.627307v -3.65885h 0.627307v 0.522694h 0.627307v 0.522694h 0.627307v -3.65885h 0.627307v 4.18155h 0.627307v 0.522694h 1.25461v -4.70424h 0.627307v 5.22694h 0.627307v 1.56808h
 0.627307v -4.70424h 0.627307v 2.09077h 0.627307v -6.27232h 0.627307v 7.8404h 0.627307v -2.09077h 0.627307v 1.56808h 0.627307v -1.04539h 0.627307v 0.522694h 0.627307v 1.56808h 0.627307v -2.09077h 0.627307v -3.13616h 0.627307v 3.65885h 0.627307v
 -1.04539h 0.627307v -1.56808h 0.627307v -2.61347h 0.627307v 1.04539h 0.627307v 1.04539h 0.627307v 2.61347h 0.627307v -2.61347h 0.627307v 1.56808h 0.627307v -1.04539h 1.25461v -5.74963h 0.627307v -9.93118h 0.627307v -117.083h 0.627307v -153.149h
 0.627307v 133.81h 0.627307v 4.18155h 0.627307v 19.3397h 0.627307v 42.3382h 0.627307v 36.0659h 0.627307v -10.4539h 0.627307v 23.5212h 0.627307v 11.4993h 0.627307v 5.74963h 0.627307v -3.13616h 0.627307v 5.74963h 0.627307v -0.522694h 0.627307v
 -4.70424h 0.627307v 6.79502h 0.627307v 1.56808h 1.25461v -5.74963h 0.627307v -1.56808h 0.627307v 10.4539h 0.627307v -4.70424h 0.627307v 5.22694h 0.627307v -6.79502h 0.627307v 7.31771h 0.627307v 1.04539h 0.627307v -6.27232h 0.627307v -8.88579h
 0.627307v 5.22694h 0.627307v 5.22694h 0.627307v 3.65885h 0.627307v -7.8404h 0.627307v 3.13616h 0.627307v 2.09077h 0.627307v -6.27232h 0.627307v -3.13616h 0.627307v 3.13616h 0.627307v 6.27232h 0.627307v -1.56808h 0.627307v -0.522694h 0.627307v
 3.65885h 0.627307v 7.31771h 0.627307v 2.61347h 0.627307v 5.22694h 0.627307v -0.522694h 0.627307v 2.09077h 0.627307" fill="none" stroke="#000099"/>
<path d="M57.1929,345.762h 453.543" fill="none" stroke="black"/>
<path d="M57.8202,336.541v 9.22031" fill="none" stroke="black"/>
<path d="M78.7305,341.152v 4.61016" fill="none" stroke="black"/>
<path d="M99.6407,341.152v 4.61016" fill="none" stroke="black"/>
<path d="M120.551,341.152v 4.61016" fill="none" stroke="black"/>
<path d="M141.461,341.152v 4.61016" fill="none" stroke="black"/>
<path d="M162.371,336.541v 9.22031" fill="none" stroke="black"/>
<path d="M183.282,341.152v 4.61016" fill="none" stroke="black"/>
<path d="M204.192,341.152v 4.61016" fill="none" stroke="black"/>
<path d="M225.102,341.152v 4.61016" fill="none" stroke="black"/>
<path d="M246.012,341.152v 4.61016" fill="none" stroke="black"/>
<path d="M266.923,336.541v 9.22031" fill="none" stroke="black"/>
<path d="M287.833,341.152v 4.61016" fill="none" stroke="black"/>
<path d="M308.743,341.152v 4.61016" fill="none" stroke="black"/>
<path d="M329.653,341.152v 4.61016" fill="none" stroke="black"/>
<path d="M350.564,341.152v 4.61016" fill="none" stroke="black"/>
<path d="M371.474,336.541v 9.22031" fill="none" stroke="black"/>
<path d="M392.384,341.152v 4.61016" fill="none" stroke="black"/>
<path d="M413.294,341.152v 4.61016" fill="none" stroke="black"/>
<path d="M434.205,341.152v 4.61016" fill="none" stroke="black"/>
<path d="M455.115,341.152v 4.61016" fill="none" stroke="black"/>
<path d="M476.025,336.541v 9.22031" fill="none" stroke="black"/>
<path d="M57.8202,336.541v 9.22031" fill="none" stroke="black"/>
<path d="M476.025,336.541v 9.22031" fill="none" stroke="black"/>
<path d="M496.935,341.152v 4.61016" fill="none" stroke="black"/>
<text xml:space="preserve" x="54.1065" y="358.189" fill="black" font-size="12.836" font-family="Helvetica">0</text>
<text xml:space="preserve" x="151.573" y="358.189" fill="black" font-size="12.836" font-family="Helvetica">500</text>
<text xml:space="preserve" x="253.1" y="358.189" fill="black" font-size="12.836" font-family="Helvetica">1000</text>
<text xml:space="preserve" x="357.064" y="358.189" fill="black" font-size="12.836" font-family="Helvetica">1500</text>
<text xml:space="preserve" x="461.841" y="358.189" fill="black" font-size="12.836" font-family="Helvetica">2000</text>
<text xml:space="preserve" x="452.094" y="371.996" fill="black" font-size="12.836" font-family="Helvetica">ADC value</text>
<path d="M57.1929,345.762v -307.344" fill="none" stroke="black"/>
<path d="M70.7992,345.762h -13.6063" fill="none" stroke="black"/>
<path d="M63.9961,335.308h -6.80315" fill="none" stroke="black"/>
<path d="M63.9961,324.854h -6.80315" fill="none" stroke="black"/>
<path d="M63.9961,314.4h -6.80315" fill="none" stroke="black"/>
<path d="M63.9961,303.946h -6.80315" fill="none" stroke="black"/>
<path d="M70.7992,293.492h -13.6063" fill="none" stroke="black"/>
<path d="M63.9961,283.039h -6.80315" fill="none" stroke="black"/>
<path d="M63.9961,272.585h -6.80315" fill="none" stroke="black"/>
<path d="M63.9961,262.131h -6.80315" fill="none" stroke="black"/>
<path d="M63.9961,251.677h -6.80315" fill="none" stroke="black"/>
<path d="M70.7992,241.223h -13.6063" fill="none" stroke="black"/>
<path d="M63.9961,230.769h -6.80315" fill="none" stroke="black"/>
<path d="M63.9961,220.315h -6.80315" fill="none" stroke="black"/>
<path d="M63.9961,209.861h -6.80315" fill="none" stroke="black"/>
<path d="M63.9961,199.408h -6.80315" fill="none" stroke="black"/>
<path d="M70.7992,188.954h -13.6063" fill="none" stroke="black"/>
<path d="M63.9961,178.5h -6.80315" fill="none" stroke="black"/>
<path d="M63.9961,168.046h -6.80315" fill="none" stroke="black"/>
<path d="M63.9961,157.592h -6.80315" fill="none" stroke="black"/>
<path d="M63.9961,147.138h -6.80315" fill="none" stroke="black"/>
<path d="M70.7992,136.684h -13.6063" fill="none" stroke="black"/>
<path d="M63.9961,126.23h -6.80315" fill="none" stroke="black"/>
<path d="M63.9961,115.777h -6.80315" fill="none" stroke="black"/>
<path d="M63.9961,105.323h -6.80315" fill="none" stroke="black"/>
<path d="M63.9961,94.8689h -6.80315" fill="none" stroke="black"/>
<path d="M70.7992,84.415h -13.6063" fill="none" stroke="black"/>
<path d="M70.7992,84.415h -13.6063" fill="none" stroke="black"/>
<path d="M63.9961,73.9611h -6.80315" fill="none" stroke="black"/>
<path d="M63.9961,63.5073h -6.80315" fill="none" stroke="black"/>
<path d="M63.9961,53.0534h -6.80315" fill="none" stroke="black"/>
<path d="M63.9961,42.5995h -6.80315" fill="none" stroke="black"/>
<text xml:space="preserve" x="47.6087" y="350.067" fill="black" font-size="12.836" font-family="Helvetica">0</text>
<text xml:space="preserve" x="33.801" y="298.085" fill="black" font-size="12.836" font-family="Helvetica">100</text>
<text xml:space="preserve" x="33.801" y="245.29" fill="black" font-size="12.836" font-family="Helvetica">200</text>
<text xml:space="preserve" x="33.801" y="193.308" fill="black" font-size="12.836" font-family="Helvetica">300</text>
<text xml:space="preserve" x="33.801" y="141.326" fill="black" font-size="12.836" font-family="Helvetica">400</text>
<text xml:space="preserve" x="33.801" y="88.5319" fill="black" font-size="12.836" font-family="Helvetica">500</text>
<g transform="rotate(-90,20.8055,69.8509)">
<text xml:space="preserve" x="20.8055" y="69.8509" fill="black" font-size="12.836" font-family="Helvetica">Event</text>
</g>
<text xml:space="preserve" x="253.1" y="18.681" fill="black" font-size="17.9813" font-family="Helvetica">Cs_012</text>
<rect x="442.705" y="24.9717" width="113.386" height="61.4688" fill="white"/>
<path d="M442.705,86.4405h 113.386" fill="none" stroke="black"/>
<path d="M556.091,86.4405v -61.4688" fill="none" stroke="black"/>
<path d="M556.091,24.9717h -113.386" fill="none" stroke="black"/>
<path d="M442.705,24.9717v 61.4688" fill="none" stroke="black"/>
<text xml:space="preserve" x="476.461" y="36.5499" fill="black" font-size="13.4705" font-family="Helvetica">Cs_012</text>
<path d="M442.705,40.3389h 113.386" fill="none" stroke="black"/>
<text xml:space="preserve" x="448.033" y="52.7943" fill="black" font-size="13.0884" font-family="Helvetica">Entries </text>
<text xml:space="preserve" x="517.884" y="52.7943" fill="black" font-size="13.0884" font-family="Helvetica"> 6327</text>
<text xml:space="preserve" x="448.033" y="68.2264" fill="black" font-size="13.0884" font-family="Helvetica">Mean  </text>
<text xml:space="preserve" x="510.574" y="68.2264" fill="black" font-size="13.0884" font-family="Helvetica">   1630</text>
<text xml:space="preserve" x="448.033" y="82.8464" fill="black" font-size="13.0884" font-family="Helvetica">Std Dev   </text>
<text xml:space="preserve" x="510.574" y="82.8464" fill="black" font-size="13.0884" font-family="Helvetica">  669.5</text>
<text xml:space="preserve" x="253.1" y="18.681" fill="black" font-size="17.9813" font-family="Helvetica">Cs_012</text></svg>
