<?xml version="1.0" standalone="no"?>
<svg width="567.429" height="384.969" viewBox="0 0 567.429 384.969" xmlns="http://www.w3.org/2000/svg" shape-rendering="crispEdges">
<title>
img/week1/plane_hist/Cs_008.svg
</title>
<desc>
Creator: ROOT Version 6.22/09
CreationDate: Tue Jul 13 14:03:10 2021</desc>
<defs>
</defs>
<rect x="0.5" y="0" width="566.929" height="384.469" fill="white"/>
<rect x="57.1929" y="38.4469" width="453.543" height="307.575" fill="white"/>
<rect x="57.1929" y="38.4469" width="453.543" height="307.575" fill="none" stroke="black"/>
<path d="M57.1929,346.022h 47.1132v -1.43945h 0.628176v -5.03809h 0.628176v -10.7959h 0.628176v -0.719727h 0.628176v 6.47754h 0.628176v 2.15918h 1.25635v 2.15918h 0.628176v 2.15918h 0.628176v -1.43945h 0.628176v 4.31836h 0.628176v -2.87891h 0.628176v
 1.43945h 0.628176v -1.43945h 0.628176v 0.719727h 0.628176v 1.43945h 0.628176v -2.15918h 1.25635v 2.87891h 0.628176v 0.719727h 0.628176v -0.719727h 0.628176v -0.719727h 1.25635v 1.43945h 0.628176v -2.87891h 0.628176v -2.15918h 0.628176v 4.31836h
 0.628176v -0.719727h 1.25635v 1.43945h 1.25635v -2.15918h 0.628176v 2.87891h 0.628176v -0.719727h 0.628176v -2.15918h 1.25635v 0.719727h 1.25635v 2.15918h 0.628176v -2.87891h 0.628176v 1.43945h 0.628176v -0.719727h 0.628176v 0.719727h 0.628176v
 -0.719727h 1.25635v 2.15918h 0.628176v -1.43945h 0.628176v -3.59863h 0.628176v 4.31836h 0.628176v -2.15918h 0.628176v 0.719727h 0.628176v 1.43945h 0.628176v -0.719727h 0.628176v 0.719727h 0.628176v -0.719727h 0.628176v -2.15918h 0.628176v 0.719727h
 1.25635v 1.43945h 0.628176v -1.43945h 0.628176v 0.719727h 0.628176v 1.43945h 0.628176v -2.15918h 1.25635v 2.87891h 0.628176v -3.59863h 0.628176v 2.15918h 0.628176v 0.719727h 1.25635v -2.87891h 0.628176v 1.43945h 0.628176v -0.719727h 0.628176v
 -1.43945h 0.628176v 2.15918h 0.628176v 1.43945h 1.25635v -0.719727h 1.88453v -0.719727h 0.628176v 0.719727h 0.628176v -2.87891h 0.628176v 3.59863h 0.628176v -1.43945h 0.628176v -1.43945h 1.25635v 3.59863h 0.628176v -5.03809h 0.628176v 2.15918h
 0.628176v 1.43945h 0.628176v 1.43945h 0.628176v -4.31836h 0.628176v 2.87891h 0.628176v 2.15918h 0.628176v -3.59863h 0.628176v 1.43945h 0.628176v 2.15918h 0.628176v -2.15918h 1.25635v -1.43945h 0.628176v 1.43945h 0.628176v 2.15918h 0.628176v
 -1.43945h 0.628176v -0.719727h 0.628176v -0.719727h 0.628176v 0.719727h 0.628176v 0.719727h 0.628176v -0.719727h 0.628176v -2.87891h 0.628176v 2.15918h 0.628176v -0.719727h 0.628176v 1.43945h 0.628176v -2.15918h 0.628176v 2.87891h 0.628176v
 -2.87891h 0.628176v 1.43945h 1.25635v 0.719727h 1.25635v 1.43945h 1.25635v -1.43945h 0.628176v -0.719727h 1.25635v -0.719727h 0.628176v 1.43945h 0.628176v -0.719727h 1.25635v -2.15918h 0.628176v 3.59863h 0.628176v -0.719727h 0.628176v 0.719727h
 0.628176v -0.719727h 0.628176v -1.43945h 0.628176v 2.87891h 0.628176v -2.87891h 0.628176v 2.15918h 0.628176v -1.43945h 0.628176v 0.719727h 0.628176v -1.43945h 0.628176v -0.719727h 0.628176v 3.59863h 0.628176v -1.43945h 1.25635v 1.43945h 0.628176v
 -2.15918h 0.628176v 1.43945h 0.628176v 0.719727h 0.628176v -0.719727h 0.628176v 1.43945h 0.628176v -2.87891h 0.628176v 1.43945h 0.628176v 1.43945h 0.628176v -0.719727h 0.628176v -2.15918h 0.628176v 1.43945h 0.628176v -1.43945h 0.628176v -0.719727h
 0.628176v 2.15918h 0.628176v -0.719727h 0.628176v 0.719727h 0.628176v -2.87891h 0.628176v 2.15918h 0.628176v -2.15918h 0.628176v 1.43945h 0.628176v 2.15918h 0.628176v -0.719727h 0.628176v -1.43945h 1.25635v -0.719727h 0.628176v 1.43945h 0.628176v
 -0.719727h 1.88453v 2.15918h 0.628176v -2.15918h 0.628176v 0.719727h 0.628176v -1.43945h 0.628176v 0.719727h 0.628176v 0.719727h 0.628176v -0.719727h 0.628176v -1.43945h 0.628176v 1.43945h 0.628176v -1.43945h 0.628176v 2.87891h 0.628176v -1.43945h
 0.628176v -0.719727h 1.25635v 2.15918h 1.25635v -2.87891h 0.628176v -1.43945h 0.628176v 3.59863h 0.628176v -1.43945h 0.628176v 2.15918h 0.628176v -4.31836h 0.628176v -0.719727h 0.628176v 1.43945h 1.25635v 1.43945h 0.628176v -1.43945h 0.628176v
 -1.43945h 0.628176v 2.87891h 0.628176v -2.15918h 1.25635v 2.15918h 0.628176v -0.719727h 0.628176v 1.43945h 0.628176v -2.87891h 0.628176v -2.87891h 0.628176v -2.87891h 0.628176v 8.63672h 0.628176v 0.719727h 0.628176v -0.719727h 0.628176v -4.31836h
 0.628176v 2.15918h 0.628176v 1.43945h 0.628176v 0.719727h 0.628176v 0.719727h 0.628176v -0.719727h 0.628176v -1.43945h 0.628176v 1.43945h 0.628176v -2.15918h 0.628176v -0.719727h 0.628176v 1.43945h 0.628176v 1.43945h 1.25635v -0.719727h 1.25635v
 0.719727h 0.628176v 1.43945h 0.628176v -1.43945h 0.628176v -0.719727h 0.628176v -1.43945h 0.628176v 1.43945h 0.628176v 2.15918h 0.628176v -1.43945h 0.628176v -0.719727h 0.628176v -0.719727h 0.628176v 2.15918h 0.628176v -0.719727h 0.628176v -2.15918h
 0.628176v 0.719727h 0.628176v 3.59863h 0.628176v -1.43945h 0.628176v 0.719727h 0.628176v -2.87891h 0.628176v 1.43945h 0.628176v -1.43945h 0.628176v 0.719727h 0.628176v 0.719727h 1.88453v -2.15918h 0.628176v 2.87891h 0.628176v 1.43945h 0.628176v
 -2.15918h 0.628176v 1.43945h 0.628176v 1.43945h 0.628176v -1.43945h 0.628176v -0.719727h 0.628176v 2.15918h 1.25635v -2.15918h 0.628176v 0.719727h 0.628176v -2.87891h 0.628176v -0.719727h 0.628176v 2.15918h 1.25635v -2.15918h 0.628176v 2.15918h
 1.25635v 0.719727h 0.628176v -1.43945h 0.628176v 2.15918h 0.628176v -2.87891h 1.25635v 3.59863h 0.628176v -0.719727h 0.628176v -0.719727h 0.628176v 0.719727h 0.628176v -1.43945h 0.628176v 0.719727h 0.628176v -3.59863h 0.628176v 4.31836h 1.25635v
 -2.87891h 0.628176v -2.15918h 0.628176v 4.31836h 0.628176v -5.75782h 0.628176v 5.03809h 0.628176v -2.87891h 0.628176v 3.59863h 1.25635v -2.87891h 0.628176v 0.719727h 0.628176v 0.719727h 0.628176v -7.19727h 0.628176v 8.63672h 0.628176v -1.43945h
 0.628176v -3.59863h 0.628176v -2.15918h 0.628176v 2.87891h 0.628176v 1.43945h 0.628176v -0.719727h 0.628176v -1.43945h 0.628176v -2.87891h 0.628176v -0.719727h 0.628176v 5.03809h 0.628176v -4.31836h 0.628176v -0.719727h 0.628176v 0.719727h 0.628176v
 2.87891h 0.628176v -2.15918h 1.25635v -5.03809h 0.628176v 7.917h 0.628176v -3.59863h 0.628176v -3.59863h 0.628176v -2.87891h 0.628176v 2.15918h 0.628176v 1.43945h 0.628176v 1.43945h 0.628176v -4.31836h 0.628176v 0.719727h 0.628176v 0.719727h
 0.628176v 2.15918h 0.628176v 1.43945h 0.628176v -4.31836h 0.628176v -5.03809h 0.628176v 8.63672h 0.628176v -2.15918h 0.628176v -2.15918h 0.628176v 3.59863h 0.628176v -5.75782h 0.628176v 5.03809h 0.628176v 2.15918h 0.628176v -6.47754h 0.628176v
 -4.31836h 0.628176v 7.19727h 0.628176v 2.15918h 0.628176v 5.75782h 0.628176v -6.47754h 0.628176v -2.15918h 0.628176v 5.03809h 0.628176v 4.31836h 0.628176v -4.31836h 0.628176v 1.43945h 1.25635v -0.719727h 0.628176v 2.15918h 0.628176v -0.719727h
 0.628176v -0.719727h 0.628176v 3.59863h 0.628176v -0.719727h 0.628176v -3.59863h 0.628176v 4.31836h 0.628176v 3.59863h 0.628176v -5.75782h 0.628176v 2.15918h 0.628176v -0.719727h 1.25635v 2.87891h 0.628176v -2.15918h 1.25635v -1.43945h 0.628176v
 1.43945h 0.628176v -5.03809h 0.628176v 9.35645h 1.25635v -2.15918h 0.628176v -3.59863h 0.628176v 3.59863h 0.628176v -1.43945h 0.628176v 1.43945h 0.628176v -1.43945h 0.628176v 1.43945h 1.88453v 1.43945h 0.628176v -2.87891h 0.628176v 2.15918h
 0.628176v -2.87891h 0.628176v 0.719727h 0.628176v 1.43945h 1.25635v -0.719727h 0.628176v 1.43945h 0.628176v -2.15918h 0.628176v -0.719727h 0.628176v 2.15918h 0.628176v -1.43945h 0.628176v 3.59863h 0.628176v -1.43945h 0.628176v -1.43945h 0.628176v
 2.15918h 0.628176v -0.719727h 1.25635v -0.719727h 1.25635v -0.719727h 0.628176v 2.15918h 0.628176v -2.15918h 0.628176v 0.719727h 0.628176v 0.719727h 1.25635v 0.719727h 0.628176v 0.719727h 0.628176v -3.59863h 0.628176v 2.87891h 0.628176v 0.719727h
 0.628176v -2.87891h 0.628176v 1.43945h 0.628176v 2.15918h 0.628176v -2.15918h 0.628176v 2.15918h 0.628176v -2.15918h 0.628176v 1.43945h 0.628176v -1.43945h 0.628176v 0.719727h 0.628176v -0.719727h 0.628176v 0.719727h 0.628176v -0.719727h 0.628176v
 1.43945h 0.628176v 0.719727h 0.628176v -0.719727h 1.25635v 0.719727h 0.628176v -1.43945h 0.628176v -2.15918h 0.628176v 2.15918h 0.628176v -1.43945h 0.628176v -0.719727h 0.628176v 1.43945h 1.25635v 2.15918h 1.25635v -1.43945h 1.25635v -0.719727h
 0.628176v 2.15918h 0.628176v -1.43945h 1.25635v -0.719727h 1.25635v 2.15918h 0.628176v -0.719727h 0.628176v -0.719727h 0.628176v 0.719727h 0.628176v -1.43945h 0.628176v 0.719727h 0.628176v 1.43945h 0.628176v -2.87891h 0.628176v 1.43945h 0.628176v
 -0.719727h 0.628176v 2.15918h 0.628176v -0.719727h 0.628176v 0.719727h 1.25635v -2.15918h 0.628176v 1.43945h 0.628176v 0.719727h 0.628176v -1.43945h 0.628176v 0.719727h 0.628176v 0.719727h 0.628176v -1.43945h 0.628176v 1.43945h 3.14088v -0.719727h
 0.628176v 0.719727h 0.628176v -2.87891h 0.628176v 1.43945h 0.628176v -0.719727h 0.628176v 1.43945h 1.88453v 0.719727h 0.628176v -2.15918h 0.628176v 2.15918h 0.628176v -0.719727h 0.628176v 0.719727h 0.628176v -0.719727h 1.88453v -2.87891h 0.628176v
 3.59863h 0.628176v -0.719727h 0.628176v 0.719727h 0.628176v -0.719727h 0.628176v -1.43945h 0.628176v 0.719727h 0.628176v 1.43945h 0.628176v -2.87891h 0.628176v 2.15918h 0.628176v -0.719727h 0.628176v -0.719727h 0.628176v 2.15918h 0.628176v
 -0.719727h 0.628176v 0.719727h 0.628176v -0.719727h 0.628176v 0.719727h 0.628176v -1.43945h 0.628176v -0.719727h 0.628176v 2.15918h 1.25635v -0.719727h 0.628176v -1.43945h 0.628176v 0.719727h 0.628176v 1.43945h 1.25635v -0.719727h 0.628176v
 0.719727h 1.88453v -2.15918h 0.628176v 2.15918h 0.628176v -1.43945h 1.88453v 1.43945h 0.628176v -2.15918h 0.628176v 1.43945h 0.628176v -2.15918h 0.628176v 2.15918h 1.25635v 0.719727h 0.628176v -0.719727h 0.628176v -1.43945h 0.628176v 0.719727h
 1.25635v 1.43945h 0.628176v -0.719727h 0.628176v -0.719727h 0.628176v 0.719727h 1.25635v 0.719727h 0.628176v -0.719727h 0.628176v -0.719727h 0.628176v 0.719727h 1.25635v 0.719727h 0.628176v -1.43945h 0.628176v -1.43945h 0.628176v 2.15918h 1.25635v
 0.719727h 0.628176v -0.719727h 0.628176v -0.719727h 0.628176v 1.43945h 0.628176v -1.43945h 0.628176v 0.719727h 0.628176v -0.719727h 0.628176v 1.43945h 0.628176v -0.719727h 0.628176v 0.719727h 1.25635v -0.719727h 0.628176v -0.719727h 0.628176v
 0.719727h 0.628176v -0.719727h 0.628176v 1.43945h 0.628176v -1.43945h 0.628176v 0.719727h 1.25635v -1.43945h 0.628176v 0.719727h 0.628176v 0.719727h 0.628176v -0.719727h 1.25635v -1.43945h 0.628176v 1.43945h 1.25635v 0.719727h 1.88453v -2.15918h
 0.628176v 2.15918h 1.25635v 0.719727h 0.628176v -0.719727h 0.628176v 0.719727h 1.25635v -0.719727h 1.88453v 0.719727h 0.628176v -1.43945h 1.25635v 1.43945h 0.628176v -0.719727h 1.88453v -0.719727h 1.25635v 1.43945h 1.25635v -0.719727h 1.25635v
 -0.719727h 0.628176v -1.43945h 1.25635v -4.31836h 0.628176v -74.8516h 0.628176v -210.88h 0.628176v 117.315h 0.628176v 15.834h 0.628176v -41.7442h 0.628176v 60.4571h 0.628176v 55.419h 0.628176v 28.7891h 0.628176v -10.0762h 0.628176v 19.4326h
 0.628176v 9.35645h 0.628176v 3.59863h 0.628176v -3.59863h 1.25635v -7.19727h 0.628176v 14.3945h 0.628176v -5.75782h 0.628176v 3.59863h 0.628176v 0.719727h 0.628176v 0.719727h 0.628176v -2.87891h 0.628176v 8.63672h 0.628176v -18.7129h 0.628176v
 8.63672h 0.628176v 16.5537h 0.628176v -12.2354h 1.25635v 3.59863h 0.628176v -4.31836h 0.628176v -2.15918h 0.628176v 10.0762h 0.628176v -2.15918h 0.628176v -2.15918h 0.628176v 10.0762h 0.628176v -3.59863h 0.628176v -4.31836h 0.628176v 2.15918h
 0.628176v 10.0762h 0.628176v 3.59863h 0.628176v 4.31836h 0.628176v 2.87891h 0.628176v 2.15918h 0.628176" fill="none" stroke="#000099"/>
<path d="M57.1929,346.022h 453.543" fill="none" stroke="black"/>
<path d="M57.8211,336.795v 9.22726" fill="none" stroke="black"/>
<path d="M78.7603,341.409v 4.61363" fill="none" stroke="black"/>
<path d="M99.6995,341.409v 4.61363" fill="none" stroke="black"/>
<path d="M120.639,341.409v 4.61363" fill="none" stroke="black"/>
<path d="M141.578,341.409v 4.61363" fill="none" stroke="black"/>
<path d="M162.517,336.795v 9.22726" fill="none" stroke="black"/>
<path d="M183.456,341.409v 4.61363" fill="none" stroke="black"/>
<path d="M204.396,341.409v 4.61363" fill="none" stroke="black"/>
<path d="M225.335,341.409v 4.61363" fill="none" stroke="black"/>
<path d="M246.274,341.409v 4.61363" fill="none" stroke="black"/>
<path d="M267.213,336.795v 9.22726" fill="none" stroke="black"/>
<path d="M288.152,341.409v 4.61363" fill="none" stroke="black"/>
<path d="M309.092,341.409v 4.61363" fill="none" stroke="black"/>
<path d="M330.031,341.409v 4.61363" fill="none" stroke="black"/>
<path d="M350.97,341.409v 4.61363" fill="none" stroke="black"/>
<path d="M371.909,336.795v 9.22726" fill="none" stroke="black"/>
<path d="M392.848,341.409v 4.61363" fill="none" stroke="black"/>
<path d="M413.788,341.409v 4.61363" fill="none" stroke="black"/>
<path d="M434.727,341.409v 4.61363" fill="none" stroke="black"/>
<path d="M455.666,341.409v 4.61363" fill="none" stroke="black"/>
<path d="M476.605,336.795v 9.22726" fill="none" stroke="black"/>
<path d="M57.8211,336.795v 9.22726" fill="none" stroke="black"/>
<path d="M476.605,336.795v 9.22726" fill="none" stroke="black"/>
<path d="M497.545,341.409v 4.61363" fill="none" stroke="black"/>
<text xml:space="preserve" x="54.2605" y="358.403" fill="black" font-size="12.8453" font-family="Helvetica">0</text>
<text xml:space="preserve" x="151.192" y="358.403" fill="black" font-size="12.8453" font-family="Helvetica">500</text>
<text xml:space="preserve" x="253.012" y="358.403" fill="black" font-size="12.8453" font-family="Helvetica">1000</text>
<text xml:space="preserve" x="357.274" y="358.403" fill="black" font-size="12.8453" font-family="Helvetica">1500</text>
<text xml:space="preserve" x="462.352" y="358.403" fill="black" font-size="12.8453" font-family="Helvetica">2000</text>
<text xml:space="preserve" x="451.763" y="372.251" fill="black" font-size="12.8453" font-family="Helvetica">ADC value</text>
<path d="M57.1929,346.022v -307.575" fill="none" stroke="black"/>
<path d="M70.7992,346.022h -13.6063" fill="none" stroke="black"/>
<path d="M63.9961,338.825h -6.80315" fill="none" stroke="black"/>
<path d="M63.9961,331.628h -6.80315" fill="none" stroke="black"/>
<path d="M63.9961,324.43h -6.80315" fill="none" stroke="black"/>
<path d="M63.9961,317.233h -6.80315" fill="none" stroke="black"/>
<path d="M70.7992,310.036h -13.6063" fill="none" stroke="black"/>
<path d="M63.9961,302.839h -6.80315" fill="none" stroke="black"/>
<path d="M63.9961,295.641h -6.80315" fill="none" stroke="black"/>
<path d="M63.9961,288.444h -6.80315" fill="none" stroke="black"/>
<path d="M63.9961,281.247h -6.80315" fill="none" stroke="black"/>
<path d="M70.7992,274.05h -13.6063" fill="none" stroke="black"/>
<path d="M63.9961,266.852h -6.80315" fill="none" stroke="black"/>
<path d="M63.9961,259.655h -6.80315" fill="none" stroke="black"/>
<path d="M63.9961,252.458h -6.80315" fill="none" stroke="black"/>
<path d="M63.9961,245.26h -6.80315" fill="none" stroke="black"/>
<path d="M70.7992,238.063h -13.6063" fill="none" stroke="black"/>
<path d="M63.9961,230.866h -6.80315" fill="none" stroke="black"/>
<path d="M63.9961,223.669h -6.80315" fill="none" stroke="black"/>
<path d="M63.9961,216.471h -6.80315" fill="none" stroke="black"/>
<path d="M63.9961,209.274h -6.80315" fill="none" stroke="black"/>
<path d="M70.7992,202.077h -13.6063" fill="none" stroke="black"/>
<path d="M63.9961,194.88h -6.80315" fill="none" stroke="black"/>
<path d="M63.9961,187.682h -6.80315" fill="none" stroke="black"/>
<path d="M63.9961,180.485h -6.80315" fill="none" stroke="black"/>
<path d="M63.9961,173.288h -6.80315" fill="none" stroke="black"/>
<path d="M70.7992,166.09h -13.6063" fill="none" stroke="black"/>
<path d="M63.9961,158.893h -6.80315" fill="none" stroke="black"/>
<path d="M63.9961,151.696h -6.80315" fill="none" stroke="black"/>
<path d="M63.9961,144.499h -6.80315" fill="none" stroke="black"/>
<path d="M63.9961,137.301h -6.80315" fill="none" stroke="black"/>
<path d="M70.7992,130.104h -13.6063" fill="none" stroke="black"/>
<path d="M63.9961,122.907h -6.80315" fill="none" stroke="black"/>
<path d="M63.9961,115.71h -6.80315" fill="none" stroke="black"/>
<path d="M63.9961,108.512h -6.80315" fill="none" stroke="black"/>
<path d="M63.9961,101.315h -6.80315" fill="none" stroke="black"/>
<path d="M70.7992,94.1178h -13.6063" fill="none" stroke="black"/>
<path d="M63.9961,86.9205h -6.80315" fill="none" stroke="black"/>
<path d="M63.9961,79.7233h -6.80315" fill="none" stroke="black"/>
<path d="M63.9961,72.526h -6.80315" fill="none" stroke="black"/>
<path d="M63.9961,65.3287h -6.80315" fill="none" stroke="black"/>
<path d="M70.7992,58.1315h -13.6063" fill="none" stroke="black"/>
<path d="M70.7992,58.1315h -13.6063" fill="none" stroke="black"/>
<path d="M63.9961,50.9342h -6.80315" fill="none" stroke="black"/>
<path d="M63.9961,43.7369h -6.80315" fill="none" stroke="black"/>
<text xml:space="preserve" x="47.7441" y="350.258" fill="black" font-size="12.8453" font-family="Helvetica">0</text>
<text xml:space="preserve" x="41.2277" y="314.418" fill="black" font-size="12.8453" font-family="Helvetica">50</text>
<text xml:space="preserve" x="33.8967" y="278.577" fill="black" font-size="12.8453" font-family="Helvetica">100</text>
<text xml:space="preserve" x="33.8967" y="242.737" fill="black" font-size="12.8453" font-family="Helvetica">150</text>
<text xml:space="preserve" x="33.8967" y="206.897" fill="black" font-size="12.8453" font-family="Helvetica">200</text>
<text xml:space="preserve" x="33.8967" y="170.242" fill="black" font-size="12.8453" font-family="Helvetica">250</text>
<text xml:space="preserve" x="33.8967" y="134.401" fill="black" font-size="12.8453" font-family="Helvetica">300</text>
<text xml:space="preserve" x="33.8967" y="98.561" fill="black" font-size="12.8453" font-family="Helvetica">350</text>
<text xml:space="preserve" x="33.8967" y="62.7206" fill="black" font-size="12.8453" font-family="Helvetica">400</text>
<g transform="rotate(-90,20.8638,70.0516)">
<text xml:space="preserve" x="20.8638" y="70.0516" fill="black" font-size="12.8453" font-family="Helvetica">Event</text>
</g>
<text xml:space="preserve" x="253.012" y="18.7347" fill="black" font-size="18.0316" font-family="Helvetica">Cs_008</text>
<rect x="442.705" y="24.9905" width="113.386" height="61.5151" fill="white"/>
<path d="M442.705,86.5056h 113.386" fill="none" stroke="black"/>
<path d="M556.091,86.5056v -61.5151" fill="none" stroke="black"/>
<path d="M556.091,24.9905h -113.386" fill="none" stroke="black"/>
<path d="M442.705,24.9905v 61.5151" fill="none" stroke="black"/>
<text xml:space="preserve" x="476.199" y="36.6549" fill="black" font-size="13.4802" font-family="Helvetica">Cs_008</text>
<path d="M442.705,40.3693h 113.386" fill="none" stroke="black"/>
<text xml:space="preserve" x="447.69" y="52.946" fill="black" font-size="13.0654" font-family="Helvetica">Entries </text>
<text xml:space="preserve" x="517.741" y="52.946" fill="black" font-size="13.0654" font-family="Helvetica"> 5777</text>
<text xml:space="preserve" x="447.69" y="67.6079" fill="black" font-size="13.0654" font-family="Helvetica">Mean  </text>
<text xml:space="preserve" x="510.41" y="67.6079" fill="black" font-size="13.0654" font-family="Helvetica">   1572</text>
<text xml:space="preserve" x="447.69" y="83.0844" fill="black" font-size="13.0654" font-family="Helvetica">Std Dev   </text>
<text xml:space="preserve" x="514.483" y="83.0844" fill="black" font-size="13.0654" font-family="Helvetica">    604</text>
<text xml:space="preserve" x="253.012" y="18.7347" fill="black" font-size="18.0316" font-family="Helvetica">Cs_008</text></svg>
