<?xml version="1.0" standalone="no"?>
<svg width="567.429" height="384.969" viewBox="0 0 567.429 384.969" xmlns="http://www.w3.org/2000/svg" shape-rendering="crispEdges">
<title>
img/week1/plane_hist/Cs_006.svg
</title>
<desc>
Creator: ROOT Version 6.22/09
CreationDate: Sun Jul 11 17:57:49 2021</desc>
<defs>
</defs>
<rect x="0.5" y="0" width="566.929" height="384.469" fill="white"/>
<rect x="57.1929" y="38.4469" width="453.543" height="307.575" fill="white"/>
<rect x="57.1929" y="38.4469" width="453.543" height="307.575" fill="none" stroke="black"/>
<path d="M57.1929,346.022h 34.0157v -5.59737h 0.629921v -3.73158h 0.629921v 0.466447h 0.629921v 4.19803h 0.629921v -0.932895h 0.629921v -1.86579h 0.629921v -0.466447h 0.629921v 2.33224h 0.629921v -2.79868h 0.629921v 3.26513h 0.629921v -0.466447h
 0.629921v -0.466447h 0.629921v 1.39934h 0.629921v -0.466447h 0.629921v 1.86579h 0.629921v -3.26513h 0.629921v 2.79868h 0.629921v -3.73158h 0.629921v 0.932895h 0.629921v -0.932895h 0.629921v 0.932895h 0.629921v 3.73158h 0.629921v -4.19803h 0.629921v
 1.39934h 0.629921v -1.39934h 0.629921v 1.86579h 0.629921v -2.33224h 0.629921v 0.466447h 0.629921v 3.73158h 0.629921v -2.33224h 0.629921v 0.932895h 0.629921v 0.466447h 0.629921v -1.39934h 0.629921v -0.466447h 0.629921v -2.33224h 0.629921v 4.19803h
 0.629921v -2.33224h 0.629921v -1.39934h 0.629921v 3.26513h 0.629921v -2.79868h 0.629921v 3.26513h 0.629921v 0.932895h 0.629921v -0.466447h 0.629921v -1.39934h 0.629921v -0.932895h 0.629921v -0.466447h 0.629921v 2.79868h 0.629921v -1.86579h 0.629921v
 3.26513h 0.629921v -1.39934h 0.629921v -1.39934h 0.629921v 0.932895h 0.629921v -0.932895h 0.629921v -1.86579h 0.629921v 3.26513h 0.629921v -1.86579h 1.25984v 0.466447h 0.629921v 0.932895h 0.629921v 0.466447h 1.25984v -0.466447h 0.629921v -1.86579h
 0.629921v 0.932895h 0.629921v 0.932895h 0.629921v -2.33224h 0.629921v 1.86579h 0.629921v -0.932895h 0.629921v 1.86579h 1.25984v -0.466447h 0.629921v -3.73158h 0.629921v 0.932895h 0.629921v -2.33224h 0.629921v 4.19803h 0.629921v -0.932895h 0.629921v
 -0.466447h 0.629921v 3.73158h 0.629921v -4.66447h 0.629921v 1.39934h 0.629921v 3.26513h 0.629921v -1.86579h 0.629921v -0.932895h 0.629921v -2.79868h 0.629921v 3.73158h 0.629921v 2.79868h 0.629921v -0.932895h 0.629921v -2.79868h 0.629921v 1.86579h
 0.629921v -2.79868h 0.629921v 3.26513h 1.25984v -3.26513h 0.629921v -1.39934h 0.629921v 3.73158h 0.629921v 1.86579h 0.629921v -2.79868h 0.629921v -2.79868h 0.629921v 0.466447h 0.629921v 2.33224h 0.629921v 1.86579h 0.629921v -2.33224h 0.629921v
 -1.39934h 0.629921v 3.26513h 1.88976v -3.73158h 0.629921v 0.466447h 0.629921v -1.86579h 0.629921v -0.932895h 0.629921v 4.19803h 0.629921v -6.99671h 0.629921v 5.59737h 1.88976v -1.86579h 0.629921v -3.73158h 0.629921v 3.73158h 0.629921v 3.26513h
 0.629921v -6.06381h 0.629921v 4.19803h 0.629921v -0.932895h 0.629921v -0.466447h 0.629921v 2.33224h 0.629921v -0.466447h 0.629921v -4.19803h 0.629921v -3.26513h 0.629921v 7.46316h 1.25984v -3.26513h 0.629921v -0.466447h 0.629921v -0.466447h
 0.629921v 6.06381h 0.629921v -3.73158h 0.629921v -0.932895h 0.629921v 6.53026h 0.629921v -4.19803h 0.629921v 2.79868h 0.629921v -1.86579h 0.629921v 2.79868h 0.629921v -3.26513h 0.629921v 3.73158h 0.629921v -1.86579h 0.629921v -0.932895h 0.629921v
 0.932895h 0.629921v 2.33224h 0.629921v -4.66447h 0.629921v 1.39934h 1.25984v 2.33224h 0.629921v 0.466447h 0.629921v -2.79868h 0.629921v 2.33224h 0.629921v -1.39934h 0.629921v 2.33224h 0.629921v -1.39934h 0.629921v -0.932895h 0.629921v -2.33224h
 0.629921v 1.39934h 0.629921v 1.86579h 0.629921v 2.33224h 0.629921v -6.06381h 0.629921v 2.33224h 1.25984v 2.33224h 0.629921v -4.19803h 0.629921v 2.33224h 0.629921v -0.932895h 0.629921v 0.466447h 0.629921v 0.932895h 0.629921v -3.73158h 0.629921v
 0.466447h 0.629921v 1.39934h 0.629921v -1.39934h 0.629921v 1.86579h 0.629921v -0.466447h 0.629921v -3.26513h 0.629921v -0.932895h 0.629921v 0.466447h 0.629921v 1.39934h 0.629921v -4.19803h 0.629921v -1.86579h 0.629921v 2.79868h 0.629921v -6.06381h
 0.629921v -0.466447h 0.629921v -5.13092h 0.629921v 4.66447h 0.629921v 6.06381h 0.629921v -12.1276h 1.25984v -6.53026h 0.629921v 7.46316h 0.629921v -2.79868h 0.629921v -1.86579h 0.629921v -3.73158h 0.629921v 7.9296h 0.629921v 1.86579h 0.629921v
 -6.99671h 0.629921v -3.26513h 0.629921v -2.79868h 0.629921v -0.466447h 0.629921v 17.2585h 0.629921v -9.79539h 0.629921v 2.33224h 0.629921v 1.86579h 0.629921v -3.26513h 0.629921v 8.39605h 0.629921v -6.53026h 0.629921v 1.86579h 0.629921v 7.46316h
 0.629921v 5.13092h 0.629921v -4.19803h 0.629921v -3.26513h 0.629921v 4.66447h 0.629921v 2.79868h 0.629921v 0.932895h 0.629921v -0.932895h 1.25984v 0.466447h 0.629921v 3.73158h 0.629921v 3.26513h 0.629921v -1.39934h 1.25984v -0.466447h 0.629921v
 -1.39934h 1.25984v -2.79868h 0.629921v 0.466447h 0.629921v 2.33224h 0.629921v -1.39934h 0.629921v -0.466447h 0.629921v 2.79868h 0.629921v 0.466447h 0.629921v 0.932895h 0.629921v -1.39934h 0.629921v -0.466447h 1.25984v 0.932895h 0.629921v 1.39934h
 1.88976v -2.33224h 0.629921v 2.79868h 1.25984v -3.73158h 0.629921v 1.86579h 0.629921v 1.39934h 0.629921v 4.19803h 0.629921v -3.73158h 0.629921v 1.39934h 0.629921v 0.932895h 1.25984v -2.79868h 0.629921v 0.932895h 0.629921v -1.86579h 0.629921v
 2.79868h 0.629921v -0.466447h 0.629921v 1.39934h 0.629921v 0.466447h 0.629921v -0.932895h 0.629921v -0.466447h 1.25984v -0.466447h 0.629921v 0.466447h 0.629921v 0.466447h 0.629921v 1.86579h 0.629921v -2.79868h 0.629921v 0.932895h 0.629921v
 -0.466447h 0.629921v 1.86579h 0.629921v -2.33224h 0.629921v 2.79868h 0.629921v -0.932895h 0.629921v -1.39934h 0.629921v 1.86579h 0.629921v 0.466447h 0.629921v -0.466447h 0.629921v -0.466447h 1.25984v -0.466447h 0.629921v -1.86579h 0.629921v
 0.466447h 0.629921v 0.466447h 0.629921v 0.466447h 0.629921v 0.932895h 0.629921v 0.466447h 0.629921v -2.33224h 0.629921v 0.932895h 0.629921v 0.932895h 0.629921v -1.39934h 0.629921v 2.33224h 0.629921v -0.932895h 0.629921v -0.932895h 0.629921v
 -0.932895h 0.629921v 1.39934h 0.629921v 0.466447h 1.25984v -0.466447h 0.629921v 1.39934h 0.629921v -1.39934h 0.629921v -2.79868h 0.629921v 3.26513h 1.25984v -1.86579h 0.629921v 1.86579h 1.25984v -0.466447h 0.629921v -0.466447h 0.629921v 0.466447h
 0.629921v -0.932895h 1.25984v 1.39934h 0.629921v 0.466447h 0.629921v -1.39934h 0.629921v 0.932895h 0.629921v -0.466447h 1.25984v -0.466447h 0.629921v 0.932895h 0.629921v -0.466447h 0.629921v 0.466447h 0.629921v 0.932895h 0.629921v -1.86579h
 0.629921v 0.466447h 0.629921v 0.466447h 0.629921v -0.932895h 0.629921v -1.86579h 0.629921v 1.39934h 1.25984v 0.932895h 0.629921v 0.466447h 0.629921v -1.86579h 0.629921v 0.466447h 0.629921v -0.466447h 0.629921v 2.33224h 0.629921v -0.932895h 1.25984v
 1.39934h 0.629921v -3.73158h 0.629921v 3.26513h 0.629921v 0.466447h 1.25984v -2.33224h 0.629921v 1.86579h 0.629921v -0.932895h 0.629921v 0.466447h 0.629921v -0.466447h 0.629921v 0.466447h 0.629921v 0.466447h 0.629921v -1.86579h 0.629921v 1.39934h
 0.629921v 0.932895h 0.629921v -2.33224h 0.629921v 0.932895h 1.25984v 0.932895h 0.629921v -0.466447h 0.629921v -0.466447h 0.629921v 0.932895h 0.629921v -1.39934h 0.629921v 0.932895h 0.629921v -1.39934h 0.629921v 1.86579h 1.25984v -0.932895h 0.629921v
 -1.39934h 0.629921v 1.39934h 0.629921v 0.466447h 0.629921v 0.466447h 0.629921v 0.466447h 0.629921v -0.932895h 0.629921v -0.466447h 0.629921v -0.466447h 0.629921v 0.932895h 1.25984v 0.466447h 0.629921v -0.932895h 2.51969v -0.466447h 0.629921v
 -0.932895h 0.629921v 1.39934h 0.629921v 1.86579h 0.629921v -1.39934h 1.25984v -0.466447h 1.25984v -0.932895h 0.629921v 1.39934h 0.629921v -0.466447h 0.629921v -0.932895h 0.629921v 0.932895h 0.629921v 1.39934h 0.629921v -0.932895h 0.629921v
 -0.466447h 0.629921v -1.39934h 0.629921v 2.33224h 1.25984v -0.466447h 1.88976v -1.39934h 0.629921v 2.33224h 0.629921v -1.39934h 0.629921v -0.932895h 0.629921v -0.466447h 0.629921v 1.39934h 0.629921v -1.39934h 0.629921v 1.39934h 0.629921v 0.932895h
 0.629921v -1.39934h 0.629921v 1.39934h 0.629921v -1.86579h 0.629921v 1.39934h 0.629921v 0.466447h 0.629921v -0.466447h 0.629921v -1.86579h 0.629921v 0.466447h 0.629921v 0.932895h 0.629921v -0.932895h 0.629921v 1.39934h 1.25984v 0.466447h 0.629921v
 -1.86579h 1.25984v 0.466447h 0.629921v 0.466447h 0.629921v -1.39934h 0.629921v 0.932895h 0.629921v 0.466447h 0.629921v 0.932895h 0.629921v -0.466447h 0.629921v 0.466447h 0.629921v -0.466447h 0.629921v -0.466447h 0.629921v -0.932895h 0.629921v
 1.39934h 0.629921v -0.466447h 0.629921v 0.466447h 0.629921v 0.466447h 0.629921v -1.86579h 0.629921v 1.86579h 1.25984v -0.466447h 0.629921v -0.466447h 0.629921v 0.932895h 0.629921v -0.932895h 0.629921v 1.86579h 1.25984v -0.932895h 1.25984v -0.466447h
 0.629921v 0.466447h 0.629921v 0.466447h 1.25984v -0.932895h 0.629921v 0.932895h 0.629921v -1.39934h 1.25984v 0.466447h 0.629921v 1.39934h 0.629921v -2.33224h 0.629921v 0.466447h 0.629921v 0.466447h 0.629921v -0.466447h 0.629921v -1.39934h 0.629921v
 1.86579h 0.629921v -0.466447h 0.629921v 0.932895h 0.629921v -1.39934h 1.88976v 0.466447h 0.629921v -0.932895h 0.629921v 1.39934h 0.629921v -0.466447h 0.629921v 0.932895h 0.629921v -0.932895h 1.25984v -0.466447h 0.629921v -0.466447h 0.629921v
 0.932895h 0.629921v 0.466447h 0.629921v -0.932895h 1.25984v 0.932895h 0.629921v 0.466447h 0.629921v 0.932895h 0.629921v -3.26513h 0.629921v 0.932895h 0.629921v 1.39934h 0.629921v -0.932895h 1.25984v 0.466447h 1.25984v 0.932895h 0.629921v -0.932895h
 1.88976v -0.466447h 0.629921v 0.466447h 0.629921v -1.86579h 0.629921v 1.39934h 0.629921v 0.932895h 0.629921v -0.932895h 0.629921v 0.466447h 0.629921v -0.466447h 0.629921v -1.39934h 0.629921v 2.33224h 0.629921v -0.466447h 0.629921v -0.466447h
 0.629921v -1.86579h 0.629921v 2.79868h 1.25984v -0.932895h 0.629921v 0.932895h 0.629921v -0.932895h 0.629921v 0.466447h 1.25984v -0.466447h 0.629921v -0.932895h 0.629921v 0.932895h 0.629921v 0.932895h 1.25984v -0.932895h 0.629921v 0.466447h 1.25984v
 -0.466447h 1.25984v -1.39934h 1.25984v 1.86579h 0.629921v -0.932895h 0.629921v 1.39934h 1.25984v 0.466447h 0.629921v -1.39934h 1.25984v 0.932895h 0.629921v -0.932895h 0.629921v 0.466447h 0.629921v -0.932895h 0.629921v -0.932895h 0.629921v 2.33224h
 1.25984v -1.39934h 1.25984v 0.466447h 0.629921v 1.86579h 0.629921v -1.39934h 1.25984v -0.932895h 0.629921v 1.39934h 0.629921v 0.932895h 0.629921v -1.39934h 0.629921v 0.932895h 0.629921v -1.86579h 0.629921v 1.39934h 1.25984v -0.466447h 0.629921v
 -1.39934h 0.629921v 1.39934h 0.629921v -2.33224h 0.629921v 2.33224h 0.629921v 1.39934h 0.629921v -2.79868h 0.629921v 1.39934h 0.629921v 0.466447h 0.629921v -0.466447h 0.629921v -0.932895h 0.629921v 0.932895h 1.25984v -0.466447h 0.629921v -0.466447h
 0.629921v 1.86579h 0.629921v -1.39934h 1.25984v 0.932895h 0.629921v -0.932895h 0.629921v 0.466447h 1.88976v 0.932895h 0.629921v -2.33224h 0.629921v 1.39934h 1.25984v 0.466447h 0.629921v -0.932895h 0.629921v 0.466447h 0.629921v -0.932895h 0.629921v
 1.86579h 1.25984v -1.39934h 0.629921v -0.466447h 0.629921v 0.932895h 0.629921v -0.932895h 0.629921v 1.86579h 0.629921v -1.39934h 0.629921v -0.932895h 0.629921v 0.466447h 0.629921v 1.86579h 0.629921v -1.39934h 0.629921v 0.466447h 0.629921v -0.466447h
 0.629921v -0.932895h 0.629921v 2.79868h 0.629921v -0.932895h 0.629921v -0.932895h 0.629921v -1.39934h 0.629921v 0.932895h 0.629921v 1.39934h 0.629921v -1.39934h 0.629921v 1.39934h 0.629921v -1.39934h 0.629921v 1.86579h 0.629921v -3.73158h 0.629921v
 3.26513h 1.88976v -0.466447h 0.629921v 0.932895h 0.629921v -1.39934h 0.629921v -0.932895h 0.629921v 1.39934h 0.629921v -4.66447h 0.629921v -4.19803h 0.629921v -160.458h 0.629921v -122.209h 0.629921v 105.884h 0.629921v -39.648h 0.629921v 16.7921h
 0.629921v 115.212h 0.629921v 48.5105h 0.629921v -3.73158h 0.629921v -9.79539h 0.629921v 10.7283h 0.629921v -1.86579h 0.629921v 11.6612h 0.629921v -7.9296h 0.629921v 4.66447h 1.25984v 8.39605h 0.629921v 1.86579h 0.629921v -2.33224h 0.629921v
 -4.19803h 0.629921v 2.79868h 0.629921v 10.2618h 0.629921v -9.32895h 1.25984v 4.19803h 0.629921v 12.1276h 0.629921v -8.39605h 0.629921v -3.73158h 0.629921v 14.4599h 0.629921v -5.13092h 0.629921v 7.9296h 0.629921v -6.53026h 0.629921v 3.73158h
 0.629921v 5.13092h 0.629921v 2.33224h 0.629921v 2.33224h 0.629921v 3.73158h 0.629921v -0.466447h 0.629921v 2.79868h 1.25984" fill="none" stroke="#000099"/>
<path d="M57.1929,346.022h 453.543" fill="none" stroke="black"/>
<path d="M57.8228,336.795v 9.22726" fill="none" stroke="black"/>
<path d="M78.8202,341.409v 4.61363" fill="none" stroke="black"/>
<path d="M99.8176,341.409v 4.61363" fill="none" stroke="black"/>
<path d="M120.815,341.409v 4.61363" fill="none" stroke="black"/>
<path d="M141.812,341.409v 4.61363" fill="none" stroke="black"/>
<path d="M162.81,336.795v 9.22726" fill="none" stroke="black"/>
<path d="M183.807,341.409v 4.61363" fill="none" stroke="black"/>
<path d="M204.804,341.409v 4.61363" fill="none" stroke="black"/>
<path d="M225.802,341.409v 4.61363" fill="none" stroke="black"/>
<path d="M246.799,341.409v 4.61363" fill="none" stroke="black"/>
<path d="M267.797,336.795v 9.22726" fill="none" stroke="black"/>
<path d="M288.794,341.409v 4.61363" fill="none" stroke="black"/>
<path d="M309.791,341.409v 4.61363" fill="none" stroke="black"/>
<path d="M330.789,341.409v 4.61363" fill="none" stroke="black"/>
<path d="M351.786,341.409v 4.61363" fill="none" stroke="black"/>
<path d="M372.783,336.795v 9.22726" fill="none" stroke="black"/>
<path d="M393.781,341.409v 4.61363" fill="none" stroke="black"/>
<path d="M414.778,341.409v 4.61363" fill="none" stroke="black"/>
<path d="M435.776,341.409v 4.61363" fill="none" stroke="black"/>
<path d="M456.773,341.409v 4.61363" fill="none" stroke="black"/>
<path d="M477.77,336.795v 9.22726" fill="none" stroke="black"/>
<path d="M57.8228,336.795v 9.22726" fill="none" stroke="black"/>
<path d="M477.77,336.795v 9.22726" fill="none" stroke="black"/>
<path d="M498.768,341.409v 4.61363" fill="none" stroke="black"/>
<text xml:space="preserve" x="54.2605" y="358.403" fill="black" font-size="12.8453" font-family="Helvetica">0</text>
<text xml:space="preserve" x="152.007" y="358.403" fill="black" font-size="12.8453" font-family="Helvetica">500</text>
<text xml:space="preserve" x="253.826" y="358.403" fill="black" font-size="12.8453" font-family="Helvetica">1000</text>
<text xml:space="preserve" x="358.903" y="358.403" fill="black" font-size="12.8453" font-family="Helvetica">1500</text>
<text xml:space="preserve" x="463.166" y="358.403" fill="black" font-size="12.8453" font-family="Helvetica">2000</text>
<text xml:space="preserve" x="451.763" y="372.251" fill="black" font-size="12.8453" font-family="Helvetica">ADC value</text>
<path d="M57.1929,346.022v -307.575" fill="none" stroke="black"/>
<path d="M70.7992,346.022h -13.6063" fill="none" stroke="black"/>
<path d="M63.9961,336.693h -6.80315" fill="none" stroke="black"/>
<path d="M63.9961,327.364h -6.80315" fill="none" stroke="black"/>
<path d="M63.9961,318.035h -6.80315" fill="none" stroke="black"/>
<path d="M63.9961,308.706h -6.80315" fill="none" stroke="black"/>
<path d="M70.7992,299.378h -13.6063" fill="none" stroke="black"/>
<path d="M63.9961,290.049h -6.80315" fill="none" stroke="black"/>
<path d="M63.9961,280.72h -6.80315" fill="none" stroke="black"/>
<path d="M63.9961,271.391h -6.80315" fill="none" stroke="black"/>
<path d="M63.9961,262.062h -6.80315" fill="none" stroke="black"/>
<path d="M70.7992,252.733h -13.6063" fill="none" stroke="black"/>
<path d="M63.9961,243.404h -6.80315" fill="none" stroke="black"/>
<path d="M63.9961,234.075h -6.80315" fill="none" stroke="black"/>
<path d="M63.9961,224.746h -6.80315" fill="none" stroke="black"/>
<path d="M63.9961,215.417h -6.80315" fill="none" stroke="black"/>
<path d="M70.7992,206.088h -13.6063" fill="none" stroke="black"/>
<path d="M63.9961,196.759h -6.80315" fill="none" stroke="black"/>
<path d="M63.9961,187.43h -6.80315" fill="none" stroke="black"/>
<path d="M63.9961,178.101h -6.80315" fill="none" stroke="black"/>
<path d="M63.9961,168.772h -6.80315" fill="none" stroke="black"/>
<path d="M70.7992,159.443h -13.6063" fill="none" stroke="black"/>
<path d="M63.9961,150.114h -6.80315" fill="none" stroke="black"/>
<path d="M63.9961,140.785h -6.80315" fill="none" stroke="black"/>
<path d="M63.9961,131.457h -6.80315" fill="none" stroke="black"/>
<path d="M63.9961,122.128h -6.80315" fill="none" stroke="black"/>
<path d="M70.7992,112.799h -13.6063" fill="none" stroke="black"/>
<path d="M63.9961,103.47h -6.80315" fill="none" stroke="black"/>
<path d="M63.9961,94.1407h -6.80315" fill="none" stroke="black"/>
<path d="M63.9961,84.8118h -6.80315" fill="none" stroke="black"/>
<path d="M63.9961,75.4828h -6.80315" fill="none" stroke="black"/>
<path d="M70.7992,66.1539h -13.6063" fill="none" stroke="black"/>
<path d="M70.7992,66.1539h -13.6063" fill="none" stroke="black"/>
<path d="M63.9961,56.8249h -6.80315" fill="none" stroke="black"/>
<path d="M63.9961,47.496h -6.80315" fill="none" stroke="black"/>
<text xml:space="preserve" x="47.7441" y="350.258" fill="black" font-size="12.8453" font-family="Helvetica">0</text>
<text xml:space="preserve" x="33.8967" y="303.828" fill="black" font-size="12.8453" font-family="Helvetica">100</text>
<text xml:space="preserve" x="33.8967" y="257.399" fill="black" font-size="12.8453" font-family="Helvetica">200</text>
<text xml:space="preserve" x="33.8967" y="210.969" fill="black" font-size="12.8453" font-family="Helvetica">300</text>
<text xml:space="preserve" x="33.8967" y="163.725" fill="black" font-size="12.8453" font-family="Helvetica">400</text>
<text xml:space="preserve" x="33.8967" y="117.296" fill="black" font-size="12.8453" font-family="Helvetica">500</text>
<text xml:space="preserve" x="33.8967" y="70.8661" fill="black" font-size="12.8453" font-family="Helvetica">600</text>
<g transform="rotate(-90,20.8638,70.0516)">
<text xml:space="preserve" x="20.8638" y="70.0516" fill="black" font-size="12.8453" font-family="Helvetica">Event</text>
</g>
<text xml:space="preserve" x="253.012" y="18.7347" fill="black" font-size="18.0316" font-family="Helvetica">Cs_006</text>
<rect x="442.705" y="24.9905" width="113.386" height="61.5151" fill="white"/>
<path d="M442.705,86.5056h 113.386" fill="none" stroke="black"/>
<path d="M556.091,86.5056v -61.5151" fill="none" stroke="black"/>
<path d="M556.091,24.9905h -113.386" fill="none" stroke="black"/>
<path d="M442.705,24.9905v 61.5151" fill="none" stroke="black"/>
<text xml:space="preserve" x="476.199" y="36.6549" fill="black" font-size="13.4802" font-family="Helvetica">Cs_006</text>
<path d="M442.705,40.3693h 113.386" fill="none" stroke="black"/>
<text xml:space="preserve" x="447.69" y="52.946" fill="black" font-size="12.7186" font-family="Helvetica">Entries </text>
<text xml:space="preserve" x="512.854" y="52.946" fill="black" font-size="12.7186" font-family="Helvetica"> 10524</text>
<text xml:space="preserve" x="447.69" y="67.6079" fill="black" font-size="12.7186" font-family="Helvetica">Mean  </text>
<text xml:space="preserve" x="512.854" y="67.6079" fill="black" font-size="12.7186" font-family="Helvetica">   1349</text>
<text xml:space="preserve" x="447.69" y="83.0844" fill="black" font-size="12.7186" font-family="Helvetica">Std Dev   </text>
<text xml:space="preserve" x="512.854" y="83.0844" fill="black" font-size="12.7186" font-family="Helvetica">  706.3</text>
<text xml:space="preserve" x="253.012" y="18.7347" fill="black" font-size="18.0316" font-family="Helvetica">Cs_006</text></svg>
