<?xml version="1.0" standalone="no"?>
<svg width="567.429" height="384.969" viewBox="0 0 567.429 384.969" xmlns="http://www.w3.org/2000/svg" shape-rendering="crispEdges">
<title>
img/week1/plane_hist/Cs_010.svg
</title>
<desc>
Creator: ROOT Version 6.22/09
CreationDate: Tue Jul 13 19:10:32 2021</desc>
<defs>
</defs>
<rect x="0.5" y="0" width="566.929" height="384.469" fill="white"/>
<rect x="57.1929" y="38.4469" width="453.543" height="307.575" fill="white"/>
<rect x="57.1929" y="38.4469" width="453.543" height="307.575" fill="none" stroke="black"/>
<path d="M57.1929,346.022h 45.8569v -13.1519h 0.628176v -111.193h 0.628176v -136.302h 0.628176v -32.282h 0.628176v 71.7377h 0.628176v 66.9552h 0.628176v -9.56503h 0.628176v 32.282h 0.628176v 10.7607h 0.628176v 34.6732h 0.628176v 15.5432h 0.628176v
 -11.9563h 0.628176v 25.1082h 0.628176v 22.7169h 0.628176v -7.17377h 0.628176v 25.1082h 0.628176v -9.56503h 1.25635v 14.3475h 0.628176v -8.3694h 0.628176v 9.56503h 0.628176v 4.78251h 0.628176v -2.39126h 0.628176v 3.58688h 1.25635v -1.19563h 0.628176v
 1.19563h 0.628176v 3.58688h 0.628176v 1.19563h 0.628176v -4.78251h 0.628176v 4.78251h 0.628176v -3.58688h 0.628176v 2.39126h 1.25635v 1.19563h 0.628176v -1.19563h 1.25635v 1.19563h 1.88453v -2.39126h 0.628176v 2.39126h 1.25635v -1.19563h 1.88453v
 1.19563h 1.25635v -1.19563h 1.25635v 1.19563h 3.76906v -1.19563h 0.628176v 1.19563h 0.628176v -1.19563h 0.628176v -1.19563h 0.628176v 1.19563h 2.51271v 1.19563h 1.25635v -3.58688h 0.628176v 2.39126h 1.88453v 1.19563h 0.628176v -1.19563h 0.628176v
 1.19563h 2.51271v -1.19563h 0.628176v 1.19563h 0.628176v -1.19563h 0.628176v 1.19563h 1.25635v -1.19563h 2.51271v 1.19563h 0.628176v -1.19563h 0.628176v 1.19563h 1.88453v -2.39126h 0.628176v 1.19563h 0.628176v 1.19563h 2.51271v -2.39126h 0.628176v
 1.19563h 0.628176v 1.19563h 0.628176v -1.19563h 0.628176v 1.19563h 0.628176v -1.19563h 1.25635v 1.19563h 0.628176v -2.39126h 1.25635v 1.19563h 0.628176v 1.19563h 0.628176v -1.19563h 0.628176v 1.19563h 2.51271v -1.19563h 1.25635v -1.19563h 0.628176v
 1.19563h 0.628176v 1.19563h 2.51271v -1.19563h 0.628176v 1.19563h 1.25635v -1.19563h 0.628176v 1.19563h 0.628176v -1.19563h 3.14088v 1.19563h 1.88453v -1.19563h 0.628176v 1.19563h 1.25635v -2.39126h 0.628176v 2.39126h 0.628176v -1.19563h 0.628176v
 -2.39126h 0.628176v 3.58688h 1.25635v -1.19563h 0.628176v 1.19563h 2.51271v -1.19563h 1.25635v 1.19563h 1.25635v -1.19563h 0.628176v -1.19563h 1.25635v 2.39126h 0.628176v -1.19563h 0.628176v 1.19563h 0.628176v -1.19563h 0.628176v 1.19563h 0.628176v
 -1.19563h 0.628176v -1.19563h 0.628176v 2.39126h 1.25635v -1.19563h 0.628176v 1.19563h 0.628176v -1.19563h 0.628176v 1.19563h 1.25635v -2.39126h 0.628176v 2.39126h 0.628176v -1.19563h 1.25635v 1.19563h 0.628176v -1.19563h 0.628176v -1.19563h
 1.88453v 1.19563h 0.628176v 1.19563h 1.88453v -1.19563h 1.25635v 1.19563h 0.628176v -1.19563h 1.25635v -1.19563h 0.628176v 2.39126h 0.628176v -3.58688h 0.628176v 3.58688h 1.88453v -1.19563h 0.628176v 1.19563h 0.628176v -1.19563h 1.25635v 1.19563h
 1.25635v -2.39126h 0.628176v 2.39126h 1.88453v -1.19563h 0.628176v 1.19563h 1.88453v -1.19563h 0.628176v -1.19563h 0.628176v 1.19563h 0.628176v -1.19563h 0.628176v 1.19563h 1.25635v 1.19563h 0.628176v -1.19563h 0.628176v 1.19563h 1.25635v -2.39126h
 0.628176v 2.39126h 0.628176v -1.19563h 1.25635v 1.19563h 1.25635v -3.58688h 0.628176v 1.19563h 0.628176v 2.39126h 3.76906v -1.19563h 1.25635v 1.19563h 2.51271v -1.19563h 1.25635v 1.19563h 1.25635v -1.19563h 1.25635v 1.19563h 0.628176v -1.19563h
 1.88453v 1.19563h 0.628176v -3.58688h 0.628176v 3.58688h 1.88453v -1.19563h 1.25635v -2.39126h 0.628176v 3.58688h 1.25635v -1.19563h 1.25635v 1.19563h 1.25635v -2.39126h 0.628176v 2.39126h 0.628176v -1.19563h 0.628176v -3.58688h 0.628176v 3.58688h
 0.628176v -2.39126h 0.628176v 2.39126h 0.628176v 1.19563h 0.628176v -1.19563h 0.628176v 1.19563h 0.628176v -2.39126h 1.25635v 2.39126h 0.628176v -1.19563h 1.88453v 1.19563h 0.628176v -2.39126h 1.25635v 2.39126h 1.25635v -3.58688h 1.25635v 3.58688h
 0.628176v -1.19563h 0.628176v 1.19563h 0.628176v -1.19563h 0.628176v -1.19563h 0.628176v 1.19563h 1.88453v 1.19563h 0.628176v -1.19563h 1.25635v 1.19563h 1.25635v -1.19563h 0.628176v 1.19563h 0.628176v -2.39126h 1.25635v 2.39126h 0.628176v -1.19563h
 0.628176v -1.19563h 0.628176v -1.19563h 0.628176v 2.39126h 0.628176v -1.19563h 0.628176v 2.39126h 3.76906v -1.19563h 1.25635v 1.19563h 1.25635v -1.19563h 0.628176v 1.19563h 0.628176v -1.19563h 0.628176v 1.19563h 0.628176v -2.39126h 0.628176v
 2.39126h 6.90994v -1.19563h 1.25635v -1.19563h 0.628176v 1.19563h 1.25635v 1.19563h 4.39723v -1.19563h 1.25635v 1.19563h 1.25635v -1.19563h 1.25635v 1.19563h 0.628176v -1.19563h 1.88453v 1.19563h 0.628176v -2.39126h 0.628176v 2.39126h 0.628176v
 -1.19563h 1.88453v 1.19563h 0.628176v -2.39126h 0.628176v 2.39126h 3.14088v -1.19563h 1.25635v -1.19563h 0.628176v 2.39126h 1.25635v -2.39126h 0.628176v -1.19563h 0.628176v -1.19563h 0.628176v 2.39126h 0.628176v 2.39126h 0.628176v -2.39126h
 0.628176v 2.39126h 1.25635v -1.19563h 0.628176v 1.19563h 1.88453v -1.19563h 1.25635v 1.19563h 0.628176v -2.39126h 1.88453v 1.19563h 1.25635v -1.19563h 1.25635v 2.39126h 0.628176v -1.19563h 1.88453v -2.39126h 0.628176v 3.58688h 1.25635v -2.39126h
 0.628176v -1.19563h 0.628176v 3.58688h 1.25635v -2.39126h 0.628176v 2.39126h 0.628176v -1.19563h 1.25635v -2.39126h 0.628176v 1.19563h 0.628176v 1.19563h 0.628176v -1.19563h 0.628176v -3.58688h 0.628176v 2.39126h 0.628176v -1.19563h 0.628176v
 2.39126h 0.628176v -1.19563h 1.25635v -1.19563h 0.628176v 1.19563h 1.25635v 1.19563h 0.628176v -1.19563h 0.628176v 2.39126h 0.628176v -2.39126h 0.628176v 1.19563h 0.628176v -1.19563h 0.628176v -1.19563h 0.628176v -1.19563h 0.628176v 2.39126h
 0.628176v -1.19563h 0.628176v -1.19563h 0.628176v 3.58688h 0.628176v -4.78251h 0.628176v 7.17377h 0.628176v -3.58688h 0.628176v 3.58688h 0.628176v -8.3694h 0.628176v 2.39126h 0.628176v -1.19563h 0.628176v 5.97814h 0.628176v -3.58688h 0.628176v
 -1.19563h 0.628176v 2.39126h 0.628176v -2.39126h 0.628176v 4.78251h 0.628176v -2.39126h 0.628176v -2.39126h 0.628176v 4.78251h 0.628176v -1.19563h 0.628176v -1.19563h 0.628176v -7.17377h 0.628176v 5.97814h 0.628176v 1.19563h 0.628176v 2.39126h
 0.628176v -3.58688h 0.628176v 2.39126h 0.628176v -4.78251h 0.628176v 5.97814h 1.25635v -2.39126h 0.628176v -2.39126h 0.628176v 1.19563h 0.628176v -1.19563h 0.628176v 2.39126h 0.628176v 2.39126h 1.25635v 1.19563h 1.25635v -3.58688h 0.628176v 3.58688h
 0.628176v -3.58688h 0.628176v 2.39126h 0.628176v -2.39126h 1.25635v 2.39126h 0.628176v -1.19563h 1.25635v 2.39126h 0.628176v -2.39126h 1.25635v 1.19563h 4.39723v 1.19563h 0.628176v -1.19563h 0.628176v 1.19563h 1.25635v -1.19563h 0.628176v 1.19563h
 0.628176v -2.39126h 0.628176v 2.39126h 0.628176v -1.19563h 0.628176v -2.39126h 0.628176v 3.58688h 0.628176v -3.58688h 0.628176v 1.19563h 0.628176v 1.19563h 0.628176v -3.58688h 0.628176v 1.19563h 0.628176v 3.58688h 1.25635v -2.39126h 0.628176v
 -2.39126h 0.628176v 3.58688h 1.25635v 1.19563h 0.628176v -2.39126h 0.628176v 1.19563h 2.51271v 1.19563h 0.628176v -3.58688h 0.628176v 2.39126h 0.628176v 1.19563h 0.628176v -1.19563h 0.628176v 1.19563h 0.628176v -5.97814h 0.628176v 5.97814h 1.25635v
 -1.19563h 1.25635v 1.19563h 1.25635v -1.19563h 1.25635v 1.19563h 0.628176v -1.19563h 0.628176v 1.19563h 2.51271v -2.39126h 0.628176v 2.39126h 3.14088v -1.19563h 1.25635v 1.19563h 2.51271v -1.19563h 0.628176v 1.19563h 3.76906v -1.19563h 0.628176v
 1.19563h 1.25635v -1.19563h 0.628176v -1.19563h 0.628176v 2.39126h 0.628176v -1.19563h 0.628176v 1.19563h 1.25635v -1.19563h 0.628176v 1.19563h 1.88453v -1.19563h 0.628176v 1.19563h 0.628176v -1.19563h 1.25635v 1.19563h 0.628176v -1.19563h 0.628176v
 -1.19563h 0.628176v 1.19563h 1.25635v 1.19563h 1.88453v -1.19563h 0.628176v 1.19563h 1.25635v -1.19563h 0.628176v -1.19563h 0.628176v 1.19563h 1.25635v 1.19563h 0.628176v -1.19563h 0.628176v 1.19563h 1.88453v -1.19563h 0.628176v 1.19563h 4.39723v
 -1.19563h 1.25635v -10.7607h 0.628176v -80.1071h 0.628176v -2.39126h 0.628176v 26.3038h 0.628176v -9.56503h 0.628176v -1.19563h 0.628176v 37.0645h 0.628176v 7.17377h 0.628176v 10.7607h 0.628176v 7.17377h 0.628176v -4.78251h 0.628176v 3.58688h
 0.628176v 3.58688h 1.25635v 5.97814h 0.628176v -10.7607h 0.628176v 7.17377h 1.25635v -7.17377h 0.628176v 3.58688h 0.628176v -3.58688h 0.628176v 7.17377h 0.628176v 7.17377h 0.628176v -3.58688h 0.628176v -4.78251h 0.628176v 1.19563h 0.628176v
 -5.97814h 0.628176v 1.19563h 0.628176v 5.97814h 0.628176v -4.78251h 0.628176v 5.97814h 0.628176v -1.19563h 0.628176v -1.19563h 0.628176v -2.39126h 0.628176v 9.56503h 0.628176v -5.97814h 1.25635v 7.17377h 0.628176v -3.58688h 0.628176v 1.19563h
 1.25635v 3.58688h 1.25635v 1.19563h 0.628176" fill="none" stroke="#000099"/>
<path d="M57.1929,346.022h 453.543" fill="none" stroke="black"/>
<path d="M57.8211,336.795v 9.22726" fill="none" stroke="black"/>
<path d="M78.7603,341.409v 4.61363" fill="none" stroke="black"/>
<path d="M99.6995,341.409v 4.61363" fill="none" stroke="black"/>
<path d="M120.639,341.409v 4.61363" fill="none" stroke="black"/>
<path d="M141.578,341.409v 4.61363" fill="none" stroke="black"/>
<path d="M162.517,336.795v 9.22726" fill="none" stroke="black"/>
<path d="M183.456,341.409v 4.61363" fill="none" stroke="black"/>
<path d="M204.396,341.409v 4.61363" fill="none" stroke="black"/>
<path d="M225.335,341.409v 4.61363" fill="none" stroke="black"/>
<path d="M246.274,341.409v 4.61363" fill="none" stroke="black"/>
<path d="M267.213,336.795v 9.22726" fill="none" stroke="black"/>
<path d="M288.152,341.409v 4.61363" fill="none" stroke="black"/>
<path d="M309.092,341.409v 4.61363" fill="none" stroke="black"/>
<path d="M330.031,341.409v 4.61363" fill="none" stroke="black"/>
<path d="M350.97,341.409v 4.61363" fill="none" stroke="black"/>
<path d="M371.909,336.795v 9.22726" fill="none" stroke="black"/>
<path d="M392.848,341.409v 4.61363" fill="none" stroke="black"/>
<path d="M413.788,341.409v 4.61363" fill="none" stroke="black"/>
<path d="M434.727,341.409v 4.61363" fill="none" stroke="black"/>
<path d="M455.666,341.409v 4.61363" fill="none" stroke="black"/>
<path d="M476.605,336.795v 9.22726" fill="none" stroke="black"/>
<path d="M57.8211,336.795v 9.22726" fill="none" stroke="black"/>
<path d="M476.605,336.795v 9.22726" fill="none" stroke="black"/>
<path d="M497.545,341.409v 4.61363" fill="none" stroke="black"/>
<text xml:space="preserve" x="54.2605" y="358.403" fill="black" font-size="12.8453" font-family="Helvetica">0</text>
<text xml:space="preserve" x="151.192" y="358.403" fill="black" font-size="12.8453" font-family="Helvetica">500</text>
<text xml:space="preserve" x="253.012" y="358.403" fill="black" font-size="12.8453" font-family="Helvetica">1000</text>
<text xml:space="preserve" x="357.274" y="358.403" fill="black" font-size="12.8453" font-family="Helvetica">1500</text>
<text xml:space="preserve" x="462.352" y="358.403" fill="black" font-size="12.8453" font-family="Helvetica">2000</text>
<text xml:space="preserve" x="451.763" y="372.251" fill="black" font-size="12.8453" font-family="Helvetica">ADC value</text>
<path d="M57.1929,346.022v -307.575" fill="none" stroke="black"/>
<path d="M70.7992,346.022h -13.6063" fill="none" stroke="black"/>
<path d="M63.9961,334.066h -6.80315" fill="none" stroke="black"/>
<path d="M63.9961,322.11h -6.80315" fill="none" stroke="black"/>
<path d="M63.9961,310.153h -6.80315" fill="none" stroke="black"/>
<path d="M63.9961,298.197h -6.80315" fill="none" stroke="black"/>
<path d="M70.7992,286.241h -13.6063" fill="none" stroke="black"/>
<path d="M63.9961,274.285h -6.80315" fill="none" stroke="black"/>
<path d="M63.9961,262.328h -6.80315" fill="none" stroke="black"/>
<path d="M63.9961,250.372h -6.80315" fill="none" stroke="black"/>
<path d="M63.9961,238.416h -6.80315" fill="none" stroke="black"/>
<path d="M70.7992,226.459h -13.6063" fill="none" stroke="black"/>
<path d="M63.9961,214.503h -6.80315" fill="none" stroke="black"/>
<path d="M63.9961,202.547h -6.80315" fill="none" stroke="black"/>
<path d="M63.9961,190.591h -6.80315" fill="none" stroke="black"/>
<path d="M63.9961,178.634h -6.80315" fill="none" stroke="black"/>
<path d="M70.7992,166.678h -13.6063" fill="none" stroke="black"/>
<path d="M63.9961,154.722h -6.80315" fill="none" stroke="black"/>
<path d="M63.9961,142.765h -6.80315" fill="none" stroke="black"/>
<path d="M63.9961,130.809h -6.80315" fill="none" stroke="black"/>
<path d="M63.9961,118.853h -6.80315" fill="none" stroke="black"/>
<path d="M70.7992,106.897h -13.6063" fill="none" stroke="black"/>
<path d="M63.9961,94.9403h -6.80315" fill="none" stroke="black"/>
<path d="M63.9961,82.9841h -6.80315" fill="none" stroke="black"/>
<path d="M63.9961,71.0278h -6.80315" fill="none" stroke="black"/>
<path d="M63.9961,59.0715h -6.80315" fill="none" stroke="black"/>
<path d="M70.7992,47.1152h -13.6063" fill="none" stroke="black"/>
<path d="M70.7992,47.1152h -13.6063" fill="none" stroke="black"/>
<text xml:space="preserve" x="47.7441" y="350.258" fill="black" font-size="12.8453" font-family="Helvetica">0</text>
<text xml:space="preserve" x="41.2277" y="290.796" fill="black" font-size="12.8453" font-family="Helvetica">50</text>
<text xml:space="preserve" x="33.8967" y="231.333" fill="black" font-size="12.8453" font-family="Helvetica">100</text>
<text xml:space="preserve" x="33.8967" y="171.056" fill="black" font-size="12.8453" font-family="Helvetica">150</text>
<text xml:space="preserve" x="33.8967" y="111.594" fill="black" font-size="12.8453" font-family="Helvetica">200</text>
<text xml:space="preserve" x="33.8967" y="51.3169" fill="black" font-size="12.8453" font-family="Helvetica">250</text>
<g transform="rotate(-90,20.8638,70.0516)">
<text xml:space="preserve" x="20.8638" y="70.0516" fill="black" font-size="12.8453" font-family="Helvetica">Event</text>
</g>
<text xml:space="preserve" x="253.012" y="18.7347" fill="black" font-size="18.0316" font-family="Helvetica">Cs_010</text>
<rect x="442.705" y="24.9905" width="113.386" height="61.5151" fill="white"/>
<path d="M442.705,86.5056h 113.386" fill="none" stroke="black"/>
<path d="M556.091,86.5056v -61.5151" fill="none" stroke="black"/>
<path d="M556.091,24.9905h -113.386" fill="none" stroke="black"/>
<path d="M442.705,24.9905v 61.5151" fill="none" stroke="black"/>
<text xml:space="preserve" x="476.199" y="36.6549" fill="black" font-size="13.4802" font-family="Helvetica">Cs_010</text>
<path d="M442.705,40.3693h 113.386" fill="none" stroke="black"/>
<text xml:space="preserve" x="447.69" y="52.946" fill="black" font-size="13.0654" font-family="Helvetica">Entries </text>
<text xml:space="preserve" x="517.741" y="52.946" fill="black" font-size="13.0654" font-family="Helvetica"> 3026</text>
<text xml:space="preserve" x="447.69" y="67.6079" fill="black" font-size="13.0654" font-family="Helvetica">Mean  </text>
<text xml:space="preserve" x="512.854" y="67.6079" fill="black" font-size="13.0654" font-family="Helvetica">  903.1</text>
<text xml:space="preserve" x="447.69" y="83.0844" fill="black" font-size="13.0654" font-family="Helvetica">Std Dev   </text>
<text xml:space="preserve" x="510.41" y="83.0844" fill="black" font-size="13.0654" font-family="Helvetica">  810.5</text>
<text xml:space="preserve" x="253.012" y="18.7347" fill="black" font-size="18.0316" font-family="Helvetica">Cs_010</text></svg>
