<?xml version="1.0" standalone="no"?>
<svg width="567.429" height="384.68" viewBox="0 0 567.429 384.68" xmlns="http://www.w3.org/2000/svg" shape-rendering="crispEdges">
<title>
img/week1/plane_hist/Cs_001.svg
</title>
<desc>
Creator: ROOT Version 6.22/09
CreationDate: Tue Jul 13 18:36:05 2021</desc>
<defs>
</defs>
<rect x="0.5" y="0" width="566.929" height="384.18" fill="white"/>
<rect x="57.1929" y="38.418" width="453.543" height="307.344" fill="white"/>
<rect x="57.1929" y="38.418" width="453.543" height="307.344" fill="none" stroke="black"/>
<path d="M57.1929,345.762h 144.424v -1.71425h 0.63344v -14.1426h 0.63344v -3.4285h 0.63344v 1.71425h 1.26688v 1.28569h 0.63344v 2.57138h 0.63344v 1.71425h 0.63344v 4.71419h 0.63344v -2.14281h 0.63344v -2.14281h 0.63344v 4.71419h 0.63344v -1.28569h
 0.63344v 1.28569h 0.63344v -2.14281h 0.63344v 1.28569h 0.63344v 0.857126h 0.63344v 0.428563h 0.63344v -2.14281h 0.63344v -0.428563h 0.63344v 2.57138h 0.63344v -1.28569h 0.63344v 2.57138h 1.26688v -2.99994h 0.63344v -0.428563h 0.63344v 2.57138h
 1.26688v 0.428563h 0.63344v -1.71425h 0.63344v 3.4285h 0.63344v -0.428563h 0.63344v -1.71425h 0.63344v 1.71425h 0.63344v -1.28569h 0.63344v 2.99994h 0.63344v -4.28563h 0.63344v 2.99994h 1.26688v -0.857126h 0.63344v 0.857126h 0.63344v 1.28569h
 0.63344v 0.857126h 0.63344v -0.428563h 0.63344v -1.28569h 0.63344v 1.71425h 0.63344v -1.71425h 0.63344v -0.857126h 0.63344v 1.71425h 0.63344v -0.428563h 0.63344v 2.14281h 0.63344v -1.71425h 1.26688v 1.71425h 0.63344v -3.85707h 0.63344v 3.85707h
 0.63344v -2.57138h 0.63344v 1.28569h 1.26688v -0.428563h 0.63344v 0.428563h 0.63344v 0.428563h 1.26688v 1.28569h 0.63344v -0.428563h 0.63344v -2.99994h 0.63344v 1.71425h 0.63344v -1.28569h 0.63344v 2.57138h 0.63344v -1.71425h 0.63344v -0.428563h
 0.63344v 2.99994h 0.63344v -1.28569h 0.63344v -0.857126h 0.63344v 0.428563h 0.63344v -0.428563h 1.26688v -0.428563h 0.63344v 1.28569h 0.63344v -1.28569h 0.63344v -1.71425h 0.63344v 2.99994h 0.63344v 0.428563h 0.63344v -1.28569h 0.63344v -0.857126h
 1.26688v -0.857126h 0.63344v 2.14281h 0.63344v -0.428563h 0.63344v 0.857126h 0.63344v -0.428563h 0.63344v 0.857126h 0.63344v -0.857126h 0.63344v -2.14281h 0.63344v 1.28569h 0.63344v 1.71425h 0.63344v -0.428563h 0.63344v -1.71425h 0.63344v 2.99994h
 0.63344v -3.4285h 1.26688v 2.99994h 1.26688v -0.428563h 0.63344v -0.857126h 0.63344v -0.857126h 0.63344v -1.28569h 0.63344v 1.28569h 1.90032v 0.857126h 0.63344v 1.28569h 0.63344v -1.28569h 0.63344v 1.28569h 0.63344v -2.99994h 0.63344v 2.57138h
 0.63344v -1.28569h 1.26688v 0.428563h 1.26688v 0.857126h 0.63344v -0.428563h 1.26688v -0.428563h 1.26688v -0.857126h 1.26688v 2.14281h 0.63344v -1.28569h 0.63344v 1.28569h 0.63344v -1.71425h 0.63344v 0.857126h 0.63344v 0.428563h 0.63344v -2.99994h
 0.63344v 2.99994h 0.63344v -2.14281h 0.63344v 2.14281h 1.26688v -2.99994h 0.63344v 1.71425h 0.63344v 1.28569h 0.63344v -2.14281h 0.63344v 2.57138h 0.63344v -0.428563h 0.63344v -0.857126h 0.63344v -2.57138h 0.63344v 2.14281h 0.63344v -2.14281h
 0.63344v 2.14281h 0.63344v -1.28569h 0.63344v 1.71425h 0.63344v 0.857126h 0.63344v -1.28569h 0.63344v 0.428563h 0.63344v -1.71425h 1.26688v 2.57138h 0.63344v -0.428563h 0.63344v -0.857126h 1.26688v 1.71425h 0.63344v -2.14281h 0.63344v 0.857126h
 0.63344v -0.428563h 0.63344v 1.71425h 0.63344v -2.14281h 0.63344v -1.28569h 0.63344v 1.28569h 0.63344v 1.28569h 0.63344v 0.428563h 0.63344v -2.57138h 0.63344v 1.71425h 1.26688v 1.71425h 0.63344v -3.4285h 0.63344v 3.4285h 0.63344v -1.71425h 0.63344v
 0.428563h 0.63344v -0.428563h 1.26688v -0.857126h 0.63344v 0.428563h 0.63344v 0.857126h 1.26688v -0.428563h 0.63344v -0.428563h 0.63344v -0.428563h 0.63344v -0.428563h 0.63344v 1.28569h 0.63344v -0.428563h 0.63344v -1.28569h 0.63344v 0.857126h
 0.63344v 0.428563h 0.63344v -1.71425h 0.63344v 0.857126h 0.63344v 1.71425h 1.26688v -2.57138h 0.63344v 1.71425h 0.63344v 0.428563h 1.26688v 1.28569h 0.63344v -0.857126h 0.63344v -0.857126h 0.63344v -0.428563h 0.63344v 1.28569h 0.63344v -2.99994h
 0.63344v 2.99994h 0.63344v 0.857126h 0.63344v -1.28569h 1.26688v 0.428563h 0.63344v -0.857126h 0.63344v 0.428563h 0.63344v -0.857126h 0.63344v -1.71425h 0.63344v 0.857126h 0.63344v 1.71425h 0.63344v -2.14281h 0.63344v 2.57138h 1.26688v -2.57138h
 0.63344v 1.28569h 0.63344v 0.428563h 0.63344v 1.28569h 0.63344v -1.28569h 0.63344v 1.28569h 0.63344v -0.428563h 0.63344v 0.428563h 0.63344v -2.14281h 0.63344v 0.428563h 0.63344v 1.28569h 0.63344v -2.14281h 0.63344v 2.14281h 1.26688v 0.428563h
 0.63344v -0.428563h 0.63344v -0.428563h 0.63344v -0.857126h 0.63344v 1.28569h 0.63344v -1.71425h 0.63344v 0.428563h 0.63344v 0.428563h 0.63344v 0.428563h 0.63344v -0.857126h 0.63344v 0.857126h 1.26688v 1.28569h 0.63344v -0.857126h 0.63344v -3.4285h
 0.63344v 3.4285h 0.63344v -0.428563h 0.63344v -2.14281h 0.63344v 1.71425h 1.26688v -1.28569h 0.63344v 2.14281h 1.26688v 0.428563h 0.63344v -0.428563h 1.26688v 0.428563h 0.63344v -2.14281h 0.63344v 1.71425h 0.63344v -0.428563h 0.63344v -0.857126h
 0.63344v -0.857126h 0.63344v 0.428563h 1.26688v -0.428563h 0.63344v -0.428563h 0.63344v 1.28569h 1.26688v 0.857126h 0.63344v 0.857126h 0.63344v -0.857126h 0.63344v -0.428563h 0.63344v 0.428563h 0.63344v -1.71425h 0.63344v 2.57138h 0.63344v -1.28569h
 0.63344v 0.428563h 0.63344v 0.428563h 0.63344v -0.857126h 0.63344v 0.428563h 1.26688v -1.28569h 0.63344v 0.428563h 0.63344v 0.857126h 0.63344v -0.857126h 0.63344v 0.428563h 0.63344v 0.857126h 0.63344v 0.428563h 0.63344v 0.857126h 0.63344v -1.71425h
 0.63344v 0.857126h 0.63344v -0.428563h 0.63344v 0.857126h 0.63344v -1.28569h 0.63344v -0.428563h 1.26688v -0.857126h 0.63344v 1.71425h 0.63344v -0.428563h 0.63344v 0.428563h 0.63344v -1.71425h 0.63344v 1.71425h 1.26688v -3.4285h 0.63344v 3.4285h
 0.63344v -0.857126h 0.63344v 1.28569h 0.63344v -0.857126h 0.63344v -0.428563h 0.63344v -0.428563h 1.26688v 1.28569h 0.63344v -0.857126h 0.63344v 0.428563h 0.63344v 0.428563h 0.63344v 0.857126h 0.63344v -0.857126h 0.63344v -0.857126h 0.63344v
 0.428563h 1.26688v 0.428563h 0.63344v 0.857126h 0.63344v -2.14281h 0.63344v 0.428563h 0.63344v 1.28569h 0.63344v -0.428563h 0.63344v -1.71425h 0.63344v 0.857126h 0.63344v 0.857126h 1.90032v 0.428563h 0.63344v -1.71425h 0.63344v 1.28569h 0.63344v
 -0.857126h 0.63344v 0.857126h 0.63344v 0.428563h 1.90032v -0.428563h 0.63344v -0.428563h 0.63344v 0.428563h 0.63344v -1.71425h 0.63344v 1.71425h 0.63344v -1.71425h 0.63344v 1.71425h 0.63344v -1.28569h 0.63344v 0.428563h 0.63344v -1.71425h 0.63344v
 1.28569h 0.63344v 0.857126h 0.63344v 0.428563h 0.63344v 0.428563h 0.63344v -1.28569h 0.63344v 0.428563h 0.63344v 1.28569h 0.63344v -0.428563h 1.26688v -0.857126h 0.63344v 0.857126h 0.63344v -0.428563h 0.63344v 0.428563h 1.26688v 0.428563h 0.63344v
 -0.857126h 0.63344v -0.857126h 0.63344v 2.14281h 0.63344v -3.4285h 0.63344v 2.57138h 0.63344v -1.71425h 1.26688v 1.71425h 1.26688v 0.428563h 0.63344v -1.28569h 1.90032v -0.428563h 0.63344v -0.857126h 0.63344v 1.28569h 0.63344v -0.428563h 0.63344v
 1.28569h 0.63344v -0.857126h 0.63344v 0.428563h 0.63344v 0.428563h 0.63344v -1.28569h 0.63344v -0.428563h 0.63344v 0.428563h 0.63344v 0.428563h 0.63344v 0.857126h 0.63344v -2.14281h 0.63344v 2.14281h 0.63344v -1.28569h 0.63344v 1.28569h 0.63344v
 0.857126h 0.63344v -1.28569h 0.63344v 0.428563h 0.63344v -0.428563h 0.63344v -2.14281h 0.63344v 2.57138h 0.63344v -0.428563h 0.63344v -1.71425h 0.63344v 0.428563h 0.63344v 2.14281h 0.63344v -0.428563h 0.63344v -0.857126h 0.63344v -0.428563h 0.63344v
 0.428563h 0.63344v -0.428563h 0.63344v 1.28569h 1.26688v -1.71425h 0.63344v 1.71425h 0.63344v -1.71425h 0.63344v 0.428563h 1.26688v 1.71425h 0.63344v -1.28569h 0.63344v -0.428563h 0.63344v 1.28569h 0.63344v -2.14281h 0.63344v 0.857126h 1.26688v
 1.28569h 0.63344v -1.28569h 0.63344v 0.857126h 0.63344v 0.857126h 0.63344v -0.428563h 0.63344v -0.428563h 0.63344v 0.428563h 0.63344v 0.428563h 0.63344v -0.857126h 0.63344v -1.71425h 0.63344v 2.14281h 0.63344v -2.14281h 0.63344v 2.57138h 0.63344v
 -1.71425h 0.63344v 2.14281h 0.63344v -2.14281h 0.63344v 2.14281h 0.63344v -0.428563h 0.63344v -2.14281h 0.63344v 1.28569h 1.26688v 0.428563h 0.63344v -3.85707h 0.63344v -4.71419h 0.63344v -152.568h 0.63344v -130.712h 0.63344v 125.569h 0.63344v
 -60.4274h 0.63344v 38.5707h 0.63344v 76.7127h 0.63344v 56.5703h 0.63344v -2.14281h 0.63344v 6.85701h 0.63344v -3.85707h 0.63344v 11.1426h 0.63344v 6.42844h 0.63344v -3.4285h 0.63344v -3.85707h 0.63344v 12.8569h 0.63344v 5.14275h 0.63344v -3.85707h
 0.63344v -8.57126h 0.63344v 7.28557h 0.63344v 2.57138h 0.63344v 10.2855h 0.63344v -6.42844h 1.26688v 11.9998h 0.63344v -4.28563h 0.63344v 0.428563h 0.63344v 0.428563h 0.63344v -0.857126h 0.63344v 6.85701h 0.63344v 1.71425h 0.63344v -1.71425h
 0.63344v 3.85707h 0.63344v -0.428563h 0.63344v 2.57138h 0.63344v 2.99994h 0.63344v 0.428563h 0.63344" fill="none" stroke="#000099"/>
<path d="M57.1929,345.762h 453.543" fill="none" stroke="black"/>
<path d="M57.8264,336.541v 9.22031" fill="none" stroke="black"/>
<path d="M78.941,341.152v 4.61016" fill="none" stroke="black"/>
<path d="M100.056,341.152v 4.61016" fill="none" stroke="black"/>
<path d="M121.17,341.152v 4.61016" fill="none" stroke="black"/>
<path d="M142.285,341.152v 4.61016" fill="none" stroke="black"/>
<path d="M163.4,336.541v 9.22031" fill="none" stroke="black"/>
<path d="M184.514,341.152v 4.61016" fill="none" stroke="black"/>
<path d="M205.629,341.152v 4.61016" fill="none" stroke="black"/>
<path d="M226.744,341.152v 4.61016" fill="none" stroke="black"/>
<path d="M247.858,341.152v 4.61016" fill="none" stroke="black"/>
<path d="M268.973,336.541v 9.22031" fill="none" stroke="black"/>
<path d="M290.088,341.152v 4.61016" fill="none" stroke="black"/>
<path d="M311.203,341.152v 4.61016" fill="none" stroke="black"/>
<path d="M332.317,341.152v 4.61016" fill="none" stroke="black"/>
<path d="M353.432,341.152v 4.61016" fill="none" stroke="black"/>
<path d="M374.547,336.541v 9.22031" fill="none" stroke="black"/>
<path d="M395.661,341.152v 4.61016" fill="none" stroke="black"/>
<path d="M416.776,341.152v 4.61016" fill="none" stroke="black"/>
<path d="M437.891,341.152v 4.61016" fill="none" stroke="black"/>
<path d="M459.005,341.152v 4.61016" fill="none" stroke="black"/>
<path d="M480.12,336.541v 9.22031" fill="none" stroke="black"/>
<path d="M57.8264,336.541v 9.22031" fill="none" stroke="black"/>
<path d="M480.12,336.541v 9.22031" fill="none" stroke="black"/>
<path d="M501.235,341.152v 4.61016" fill="none" stroke="black"/>
<text xml:space="preserve" x="54.1065" y="358.189" fill="black" font-size="12.836" font-family="Helvetica">0</text>
<text xml:space="preserve" x="152.385" y="358.189" fill="black" font-size="12.836" font-family="Helvetica">500</text>
<text xml:space="preserve" x="254.725" y="358.189" fill="black" font-size="12.836" font-family="Helvetica">1000</text>
<text xml:space="preserve" x="360.313" y="358.189" fill="black" font-size="12.836" font-family="Helvetica">1500</text>
<text xml:space="preserve" x="465.902" y="358.189" fill="black" font-size="12.836" font-family="Helvetica">2000</text>
<text xml:space="preserve" x="452.094" y="371.996" fill="black" font-size="12.836" font-family="Helvetica">ADC value</text>
<path d="M57.1929,345.762v -307.344" fill="none" stroke="black"/>
<path d="M70.7992,345.762h -13.6063" fill="none" stroke="black"/>
<path d="M63.9961,337.191h -6.80315" fill="none" stroke="black"/>
<path d="M63.9961,328.619h -6.80315" fill="none" stroke="black"/>
<path d="M63.9961,320.048h -6.80315" fill="none" stroke="black"/>
<path d="M63.9961,311.477h -6.80315" fill="none" stroke="black"/>
<path d="M70.7992,302.906h -13.6063" fill="none" stroke="black"/>
<path d="M63.9961,294.334h -6.80315" fill="none" stroke="black"/>
<path d="M63.9961,285.763h -6.80315" fill="none" stroke="black"/>
<path d="M63.9961,277.192h -6.80315" fill="none" stroke="black"/>
<path d="M63.9961,268.62h -6.80315" fill="none" stroke="black"/>
<path d="M70.7992,260.049h -13.6063" fill="none" stroke="black"/>
<path d="M63.9961,251.478h -6.80315" fill="none" stroke="black"/>
<path d="M63.9961,242.907h -6.80315" fill="none" stroke="black"/>
<path d="M63.9961,234.335h -6.80315" fill="none" stroke="black"/>
<path d="M63.9961,225.764h -6.80315" fill="none" stroke="black"/>
<path d="M70.7992,217.193h -13.6063" fill="none" stroke="black"/>
<path d="M63.9961,208.622h -6.80315" fill="none" stroke="black"/>
<path d="M63.9961,200.05h -6.80315" fill="none" stroke="black"/>
<path d="M63.9961,191.479h -6.80315" fill="none" stroke="black"/>
<path d="M63.9961,182.908h -6.80315" fill="none" stroke="black"/>
<path d="M70.7992,174.337h -13.6063" fill="none" stroke="black"/>
<path d="M63.9961,165.765h -6.80315" fill="none" stroke="black"/>
<path d="M63.9961,157.194h -6.80315" fill="none" stroke="black"/>
<path d="M63.9961,148.623h -6.80315" fill="none" stroke="black"/>
<path d="M63.9961,140.052h -6.80315" fill="none" stroke="black"/>
<path d="M70.7992,131.48h -13.6063" fill="none" stroke="black"/>
<path d="M63.9961,122.909h -6.80315" fill="none" stroke="black"/>
<path d="M63.9961,114.338h -6.80315" fill="none" stroke="black"/>
<path d="M63.9961,105.767h -6.80315" fill="none" stroke="black"/>
<path d="M63.9961,97.1954h -6.80315" fill="none" stroke="black"/>
<path d="M70.7992,88.6241h -13.6063" fill="none" stroke="black"/>
<path d="M63.9961,80.0529h -6.80315" fill="none" stroke="black"/>
<path d="M63.9961,71.4816h -6.80315" fill="none" stroke="black"/>
<path d="M63.9961,62.9103h -6.80315" fill="none" stroke="black"/>
<path d="M63.9961,54.3391h -6.80315" fill="none" stroke="black"/>
<path d="M70.7992,45.7678h -13.6063" fill="none" stroke="black"/>
<path d="M70.7992,45.7678h -13.6063" fill="none" stroke="black"/>
<text xml:space="preserve" x="47.6087" y="350.067" fill="black" font-size="12.836" font-family="Helvetica">0</text>
<text xml:space="preserve" x="33.801" y="307.019" fill="black" font-size="12.836" font-family="Helvetica">100</text>
<text xml:space="preserve" x="33.801" y="264.784" fill="black" font-size="12.836" font-family="Helvetica">200</text>
<text xml:space="preserve" x="33.801" y="221.736" fill="black" font-size="12.836" font-family="Helvetica">300</text>
<text xml:space="preserve" x="33.801" y="178.688" fill="black" font-size="12.836" font-family="Helvetica">400</text>
<text xml:space="preserve" x="33.801" y="135.641" fill="black" font-size="12.836" font-family="Helvetica">500</text>
<text xml:space="preserve" x="33.801" y="93.4052" fill="black" font-size="12.836" font-family="Helvetica">600</text>
<text xml:space="preserve" x="33.801" y="50.3576" fill="black" font-size="12.836" font-family="Helvetica">700</text>
<g transform="rotate(-90,20.8055,69.8509)">
<text xml:space="preserve" x="20.8055" y="69.8509" fill="black" font-size="12.836" font-family="Helvetica">Event</text>
</g>
<text xml:space="preserve" x="254.725" y="18.681" fill="black" font-size="17.9813" font-family="Helvetica">Cs_001</text>
<rect x="442.705" y="24.9717" width="113.386" height="61.4688" fill="white"/>
<path d="M442.705,86.4405h 113.386" fill="none" stroke="black"/>
<path d="M556.091,86.4405v -61.4688" fill="none" stroke="black"/>
<path d="M556.091,24.9717h -113.386" fill="none" stroke="black"/>
<path d="M442.705,24.9717v 61.4688" fill="none" stroke="black"/>
<text xml:space="preserve" x="478.085" y="36.5499" fill="black" font-size="13.4705" font-family="Helvetica">Cs_001</text>
<path d="M442.705,40.3389h 113.386" fill="none" stroke="black"/>
<text xml:space="preserve" x="448.033" y="52.7943" fill="black" font-size="13.0884" font-family="Helvetica">Entries </text>
<text xml:space="preserve" x="517.884" y="52.7943" fill="black" font-size="13.0884" font-family="Helvetica"> 7075</text>
<text xml:space="preserve" x="448.033" y="68.2264" fill="black" font-size="13.0884" font-family="Helvetica">Mean  </text>
<text xml:space="preserve" x="510.574" y="68.2264" fill="black" font-size="13.0884" font-family="Helvetica">   1746</text>
<text xml:space="preserve" x="448.033" y="82.8464" fill="black" font-size="13.0884" font-family="Helvetica">Std Dev   </text>
<text xml:space="preserve" x="510.574" y="82.8464" fill="black" font-size="13.0884" font-family="Helvetica">  489.8</text>
<text xml:space="preserve" x="254.725" y="18.681" fill="black" font-size="17.9813" font-family="Helvetica">Cs_001</text></svg>
