<?xml version="1.0" standalone="no"?>
<svg width="567.429" height="384.969" viewBox="0 0 567.429 384.969" xmlns="http://www.w3.org/2000/svg" shape-rendering="crispEdges">
<title>
img/week1/plane_hist/Cs_002.svg
</title>
<desc>
Creator: ROOT Version 6.22/09
CreationDate: Fri Jul  2 19:47:37 2021</desc>
<defs>
</defs>
<rect x="0.5" y="0" width="566.929" height="384.469" fill="white"/>
<rect x="57.1929" y="38.4469" width="453.543" height="307.575" fill="white"/>
<rect x="57.1929" y="38.4469" width="453.543" height="307.575" fill="none" stroke="black"/>
<path d="M57.1929,346.022h 51.8209v -0.747268h 0.442913v -1.86817h 0.442913v -1.49454h 0.442913v -1.86817h 0.442913v 0.747268h 0.442913v -1.49454h 0.442913v 2.98907h 0.442913v -1.1209h 0.442913v 0.747268h 0.442913v -2.2418h 0.442913v 1.49454h
 0.442913v 1.1209h 0.442913v -2.98907h 0.442913v 0.747268h 0.442913v 1.86817h 0.442913v -1.49454h 0.442913v 1.86817h 0.442913v -2.2418h 0.442913v 0.373634h 0.442913v -0.747268h 0.442913v -1.49454h 0.885827v -2.2418h 0.442913v 0.373634h 0.885827v
 -1.86817h 0.442913v 4.10997h 0.442913v -2.2418h 0.442913v -3.73634h 0.442913v -0.747268h 0.442913v 2.98907h 0.442913v -5.97814h 0.442913v 5.23087h 0.442913v -1.86817h 0.442913v 4.85724h 0.442913v -5.23087h 0.442913v 1.49454h 0.442913v 1.1209h
 0.442913v 3.73634h 0.442913v -4.85724h 0.442913v 2.61544h 0.885827v 1.49454h 0.442913v 0.373634h 0.442913v 2.61544h 0.442913v -3.73634h 0.442913v 1.1209h 0.442913v -0.747268h 0.442913v 1.49454h 0.442913v -1.49454h 0.442913v 4.10997h 0.442913v
 -3.3627h 0.442913v 1.86817h 0.442913v 0.747268h 0.442913v 0.747268h 0.442913v -3.73634h 0.442913v 3.3627h 0.442913v -0.373634h 0.442913v -2.98907h 0.442913v 3.3627h 0.442913v -2.2418h 0.442913v 0.373634h 0.442913v 3.3627h 0.442913v -1.49454h
 0.442913v -1.1209h 0.442913v 1.49454h 0.442913v -2.98907h 0.442913v 1.49454h 0.442913v -0.373634h 0.442913v -1.1209h 0.442913v 3.3627h 0.442913v -1.1209h 0.442913v -2.98907h 0.442913v 1.1209h 0.442913v 1.49454h 0.442913v 1.1209h 0.442913v -0.747268h
 0.442913v -3.73634h 0.442913v 2.2418h 0.442913v -2.61544h 0.885827v -1.49454h 0.442913v -4.85724h 0.442913v 1.1209h 0.442913v 0.373634h 0.442913v 0.747268h 0.442913v -7.47268h 0.442913v 2.61544h 0.442913v 2.2418h 0.442913v -4.48361h 0.442913v
 4.85724h 0.442913v -8.21994h 0.442913v -3.3627h 0.442913v 1.86817h 0.442913v -2.98907h 0.885827v -5.23087h 0.442913v 4.10997h 0.442913v 3.3627h 0.442913v -4.48361h 0.442913v 1.1209h 0.442913v -2.98907h 0.442913v 4.10997h 0.442913v -3.3627h 0.442913v
 3.3627h 0.442913v 0.747268h 0.442913v 1.86817h 0.442913v 2.98907h 0.442913v 1.1209h 0.442913v -2.2418h 0.442913v 4.85724h 0.442913v -0.747268h 0.442913v 7.09904h 0.442913v -0.747268h 0.442913v -4.85724h 0.442913v 2.61544h 0.442913v 4.10997h
 0.442913v 0.373634h 0.442913v -1.86817h 0.442913v 4.10997h 0.442913v -3.3627h 0.442913v 4.48361h 0.442913v -0.747268h 0.442913v 2.98907h 0.442913v -5.97814h 0.442913v 3.73634h 0.442913v -0.373634h 0.442913v 1.49454h 0.442913v -2.2418h 0.442913v
 2.2418h 0.442913v -1.86817h 0.442913v 1.49454h 0.442913v -4.48361h 0.442913v 3.3627h 0.442913v 4.48361h 0.442913v -4.48361h 0.442913v 0.747268h 0.442913v 0.747268h 0.442913v -0.373634h 0.442913v 0.373634h 0.442913v 3.73634h 0.442913v -4.85724h
 0.442913v 3.73634h 0.442913v -2.2418h 0.442913v 2.98907h 0.442913v -1.86817h 0.885827v 2.2418h 0.442913v -1.49454h 0.442913v 3.3627h 0.442913v -2.2418h 0.442913v 1.49454h 0.442913v 0.373634h 0.442913v -0.747268h 0.442913v -0.747268h 0.442913v
 1.49454h 0.442913v 0.747268h 0.442913v -1.1209h 0.442913v 0.373634h 0.442913v -0.747268h 0.442913v 0.747268h 0.442913v -0.747268h 0.442913v -0.747268h 0.885827v 2.2418h 0.442913v -1.49454h 1.32874v -0.373634h 0.442913v 0.373634h 0.442913v -2.61544h
 0.442913v 3.3627h 0.442913v 0.747268h 0.442913v -1.49454h 0.442913v -1.86817h 0.442913v 3.3627h 0.442913v -2.61544h 0.442913v 1.49454h 0.442913v -0.747268h 0.442913v -1.1209h 0.442913v 2.98907h 0.442913v -1.1209h 0.442913v 0.373634h 0.442913v
 -1.49454h 0.442913v 0.373634h 0.442913v -0.373634h 0.442913v 1.86817h 0.442913v -0.373634h 0.442913v -0.373634h 0.442913v -0.747268h 0.442913v 1.49454h 0.442913v -1.49454h 0.885827v 0.747268h 0.885827v 0.373634h 0.885827v -1.49454h 0.442913v
 1.86817h 0.442913v -0.373634h 1.32874v -0.747268h 0.442913v 1.1209h 0.442913v -1.49454h 0.442913v 1.86817h 0.442913v -1.49454h 0.442913v 0.373634h 0.885827v 1.1209h 0.442913v -1.86817h 1.32874v -0.747268h 0.442913v 2.61544h 1.32874v -1.86817h
 0.442913v 0.747268h 0.442913v 0.373634h 0.442913v 0.373634h 0.442913v -2.61544h 0.442913v 1.86817h 0.885827v -0.747268h 0.885827v -2.2418h 0.442913v 3.73634h 0.442913v -1.1209h 0.885827v 0.373634h 0.442913v 0.373634h 0.442913v 0.747268h 0.442913v
 -0.747268h 0.442913v 0.373634h 0.442913v -1.86817h 0.442913v 1.1209h 0.442913v 1.1209h 0.442913v -1.86817h 0.442913v 1.86817h 0.442913v -1.49454h 0.885827v 0.373634h 0.885827v -0.373634h 0.442913v -0.747268h 0.442913v 1.1209h 0.442913v -0.747268h
 0.442913v 1.1209h 0.442913v 0.373634h 0.442913v -0.747268h 0.442913v 1.1209h 0.885827v -0.747268h 0.885827v 0.747268h 0.442913v -0.747268h 0.885827v -0.747268h 0.442913v 1.86817h 0.442913v -1.1209h 0.442913v -1.49454h 0.442913v 1.1209h 0.442913v
 0.373634h 0.442913v 0.747268h 0.442913v -1.1209h 0.442913v 1.49454h 0.442913v -1.49454h 0.442913v 0.373634h 0.885827v 0.747268h 0.442913v -2.2418h 0.442913v -0.373634h 0.442913v 1.86817h 0.885827v -1.1209h 0.442913v -1.1209h 0.442913v -0.747268h
 0.442913v 1.1209h 0.442913v -1.1209h 0.442913v -0.747268h 0.442913v 3.3627h 0.442913v -1.86817h 0.442913v 0.373634h 0.442913v 1.49454h 0.442913v -1.1209h 0.442913v -1.1209h 0.442913v -1.1209h 0.442913v 3.3627h 0.442913v -0.747268h 0.885827v
 0.747268h 0.885827v -1.1209h 0.442913v 1.1209h 0.442913v -3.73634h 0.442913v 3.73634h 0.442913v -1.86817h 0.442913v 0.373634h 0.442913v -0.747268h 0.442913v 2.61544h 0.885827v -1.1209h 0.442913v -0.373634h 0.442913v 1.86817h 0.442913v -0.373634h
 0.442913v -1.86817h 0.442913v 0.747268h 0.885827v 1.1209h 0.442913v -0.747268h 0.442913v -0.373634h 0.442913v -0.373634h 0.442913v 1.1209h 0.442913v 0.373634h 0.442913v 0.747268h 1.32874v -1.1209h 0.442913v 0.373634h 0.442913v -0.747268h 0.442913v
 0.373634h 0.442913v 0.373634h 0.442913v -0.747268h 0.442913v 1.86817h 0.442913v -1.86817h 0.885827v 1.49454h 0.442913v -1.49454h 0.442913v 1.49454h 0.442913v -1.1209h 0.885827v 0.747268h 0.442913v -0.373634h 1.77165v 0.747268h 0.442913v -0.747268h
 0.442913v 0.747268h 0.442913v -1.49454h 0.442913v 0.373634h 0.442913v -0.747268h 0.885827v -0.373634h 0.442913v 1.49454h 0.442913v -1.49454h 0.442913v 1.1209h 0.442913v -1.86817h 0.442913v 2.61544h 0.442913v 0.747268h 0.442913v -0.747268h 0.442913v
 -0.747268h 0.442913v 1.86817h 0.442913v -2.2418h 0.442913v 0.373634h 0.442913v 0.747268h 0.442913v -0.747268h 0.442913v -0.373634h 0.442913v 1.1209h 0.442913v -0.373634h 0.442913v -0.373634h 0.442913v -0.747268h 0.442913v 1.86817h 0.442913v
 -0.747268h 0.442913v 1.1209h 0.442913v -0.747268h 0.442913v -1.1209h 0.442913v 0.373634h 0.442913v 0.747268h 0.442913v -0.373634h 0.442913v 1.49454h 0.442913v -1.86817h 0.442913v 0.373634h 1.32874v -1.86817h 0.442913v 0.747268h 0.442913v 0.747268h
 0.442913v 1.1209h 0.442913v -0.747268h 0.442913v -0.373634h 0.442913v 0.747268h 0.442913v -0.373634h 0.442913v -0.747268h 0.442913v -1.49454h 0.442913v 2.61544h 0.442913v 1.1209h 0.442913v -2.2418h 0.442913v 1.49454h 0.442913v -1.86817h 0.442913v
 -1.1209h 0.442913v 1.1209h 0.442913v 1.49454h 0.442913v -0.747268h 0.885827v -1.86817h 0.442913v 2.2418h 0.885827v 1.49454h 0.442913v -1.49454h 0.442913v 0.747268h 0.442913v -0.747268h 0.442913v -0.373634h 0.442913v 0.373634h 0.442913v -2.2418h
 0.442913v 2.98907h 0.442913v -0.747268h 0.885827v -0.747268h 0.442913v 0.747268h 0.442913v 0.747268h 0.885827v -0.373634h 0.442913v -0.747268h 0.442913v 0.747268h 0.885827v -1.1209h 0.442913v 0.747268h 0.885827v 0.747268h 0.442913v 0.747268h
 0.442913v -3.3627h 0.442913v -0.373634h 0.442913v 1.86817h 0.442913v 1.86817h 0.442913v -0.747268h 0.442913v -0.747268h 0.442913v 0.747268h 0.885827v -1.1209h 0.442913v -1.1209h 0.442913v 2.2418h 0.442913v -1.1209h 0.442913v 1.1209h 0.442913v
 -0.373634h 0.442913v 0.373634h 0.442913v 0.747268h 0.442913v -0.747268h 0.442913v -0.747268h 0.885827v 0.747268h 0.442913v -1.1209h 0.442913v 0.373634h 0.442913v 0.747268h 0.442913v -1.1209h 1.32874v 1.49454h 0.442913v 0.373634h 0.442913v -2.61544h
 0.442913v 1.1209h 0.885827v 0.373634h 0.442913v 0.373634h 0.442913v 0.373634h 0.442913v -2.2418h 0.442913v 1.1209h 0.442913v 0.373634h 1.32874v 0.747268h 0.442913v -1.86817h 0.442913v 0.373634h 0.442913v 0.747268h 0.442913v -0.747268h 0.442913v
 1.1209h 0.442913v -0.373634h 0.885827v -1.86817h 0.442913v 2.61544h 0.442913v -0.747268h 0.442913v 0.373634h 0.442913v -0.747268h 0.442913v -0.373634h 0.442913v -0.373634h 0.442913v 1.49454h 0.442913v -0.747268h 0.442913v -1.1209h 0.442913v
 0.747268h 0.442913v 0.747268h 0.442913v -0.373634h 0.442913v 0.373634h 0.442913v -0.373634h 0.885827v 1.49454h 0.442913v -1.49454h 0.442913v 1.1209h 0.442913v -1.1209h 0.442913v 0.373634h 0.442913v -0.373634h 0.442913v 0.747268h 0.442913v -0.747268h
 0.442913v 0.747268h 0.442913v -0.747268h 0.442913v 0.373634h 0.442913v -0.747268h 0.442913v -0.373634h 0.442913v 2.2418h 0.442913v -0.373634h 0.442913v -0.747268h 0.442913v 0.747268h 0.442913v 0.747268h 0.442913v -1.49454h 0.442913v -0.747268h
 0.442913v 0.747268h 0.885827v -0.747268h 0.442913v 1.49454h 0.885827v -0.747268h 0.442913v -0.373634h 0.885827v -0.373634h 0.442913v 0.373634h 0.442913v 0.747268h 0.442913v -1.1209h 0.442913v 0.747268h 0.885827v 1.1209h 0.442913v -2.61544h 0.442913v
 2.2418h 0.442913v -1.49454h 0.442913v 0.747268h 0.442913v -1.1209h 0.442913v 1.1209h 0.442913v 1.49454h 0.442913v -1.1209h 0.442913v 0.373634h 0.442913v -0.747268h 0.442913v -0.373634h 0.442913v 0.747268h 0.885827v -0.373634h 0.885827v 0.373634h
 0.442913v 0.373634h 0.442913v -0.747268h 0.442913v 0.747268h 0.442913v -1.49454h 0.442913v 0.747268h 0.442913v 0.373634h 0.442913v 0.373634h 0.442913v -0.373634h 0.442913v -0.373634h 0.442913v -0.747268h 0.442913v 1.49454h 0.442913v 0.373634h
 0.442913v -2.2418h 0.442913v 0.747268h 1.32874v 1.1209h 0.442913v -0.747268h 0.442913v 1.1209h 0.442913v -1.86817h 0.442913v 1.86817h 0.442913v -0.373634h 0.442913v -0.373634h 0.442913v -0.747268h 0.442913v -1.49454h 0.442913v -8.96721h 0.442913v
 -107.98h 0.442913v -172.619h 0.442913v 89.6721h 0.442913v -5.23087h 0.442913v 31.7589h 0.442913v 44.8361h 0.442913v 67.2541h 0.442913v 20.5499h 0.442913v -3.73634h 0.442913v -1.86817h 0.442913v 1.1209h 0.442913v 16.4399h 0.442913v -4.85724h
 0.442913v -4.10997h 0.442913v 4.85724h 0.442913v 5.60451h 0.442913v 4.85724h 0.442913v -13.0772h 0.442913v 7.47268h 0.442913v 7.84631h 0.442913v 1.1209h 0.442913v -2.2418h 0.442913v -4.85724h 0.442913v 4.10997h 0.442913v 3.73634h 0.442913v 2.61544h
 0.442913v -0.747268h 0.442913v 2.98907h 0.442913v 4.10997h 0.442913v 3.3627h 0.442913v 2.61544h 0.442913v -2.61544h 0.442913v 1.86817h 0.442913v 5.60451h 0.442913v -0.373634h 0.442913v 0.373634h 0.442913v 1.1209h 0.442913v 0.373634h 0.442913v
 0.373634h 135.974" fill="none" stroke="#000099"/>
<path d="M57.1929,346.022h 453.543" fill="none" stroke="black"/>
<path d="M57.1929,336.795v 9.22726" fill="none" stroke="black"/>
<path d="M71.9567,341.409v 4.61363" fill="none" stroke="black"/>
<path d="M86.7205,341.409v 4.61363" fill="none" stroke="black"/>
<path d="M101.484,341.409v 4.61363" fill="none" stroke="black"/>
<path d="M116.248,341.409v 4.61363" fill="none" stroke="black"/>
<path d="M131.012,336.795v 9.22726" fill="none" stroke="black"/>
<path d="M145.776,341.409v 4.61363" fill="none" stroke="black"/>
<path d="M160.539,341.409v 4.61363" fill="none" stroke="black"/>
<path d="M175.303,341.409v 4.61363" fill="none" stroke="black"/>
<path d="M190.067,341.409v 4.61363" fill="none" stroke="black"/>
<path d="M204.831,336.795v 9.22726" fill="none" stroke="black"/>
<path d="M219.594,341.409v 4.61363" fill="none" stroke="black"/>
<path d="M234.358,341.409v 4.61363" fill="none" stroke="black"/>
<path d="M249.122,341.409v 4.61363" fill="none" stroke="black"/>
<path d="M263.886,341.409v 4.61363" fill="none" stroke="black"/>
<path d="M278.65,336.795v 9.22726" fill="none" stroke="black"/>
<path d="M293.413,341.409v 4.61363" fill="none" stroke="black"/>
<path d="M308.177,341.409v 4.61363" fill="none" stroke="black"/>
<path d="M322.941,341.409v 4.61363" fill="none" stroke="black"/>
<path d="M337.705,341.409v 4.61363" fill="none" stroke="black"/>
<path d="M352.469,336.795v 9.22726" fill="none" stroke="black"/>
<path d="M367.232,341.409v 4.61363" fill="none" stroke="black"/>
<path d="M381.996,341.409v 4.61363" fill="none" stroke="black"/>
<path d="M396.76,341.409v 4.61363" fill="none" stroke="black"/>
<path d="M411.524,341.409v 4.61363" fill="none" stroke="black"/>
<path d="M426.287,336.795v 9.22726" fill="none" stroke="black"/>
<path d="M441.051,341.409v 4.61363" fill="none" stroke="black"/>
<path d="M455.815,341.409v 4.61363" fill="none" stroke="black"/>
<path d="M470.579,341.409v 4.61363" fill="none" stroke="black"/>
<path d="M485.343,341.409v 4.61363" fill="none" stroke="black"/>
<path d="M500.106,336.795v 9.22726" fill="none" stroke="black"/>
<path d="M500.106,336.795v 9.22726" fill="none" stroke="black"/>
<text xml:space="preserve" x="53.446" y="358.403" fill="black" font-size="12.8453" font-family="Helvetica">0</text>
<text xml:space="preserve" x="120.239" y="358.403" fill="black" font-size="12.8453" font-family="Helvetica">500</text>
<text xml:space="preserve" x="190.291" y="358.403" fill="black" font-size="12.8453" font-family="Helvetica">1000</text>
<text xml:space="preserve" x="264.415" y="358.403" fill="black" font-size="12.8453" font-family="Helvetica">1500</text>
<text xml:space="preserve" x="338.54" y="358.403" fill="black" font-size="12.8453" font-family="Helvetica">2000</text>
<text xml:space="preserve" x="411.849" y="358.403" fill="black" font-size="12.8453" font-family="Helvetica">2500</text>
<text xml:space="preserve" x="485.974" y="358.403" fill="black" font-size="12.8453" font-family="Helvetica">3000</text>
<text xml:space="preserve" x="451.763" y="372.251" fill="black" font-size="12.8453" font-family="Helvetica">ADC value</text>
<path d="M57.1929,346.022v -307.575" fill="none" stroke="black"/>
<path d="M70.7992,346.022h -13.6063" fill="none" stroke="black"/>
<path d="M63.9961,338.55h -6.80315" fill="none" stroke="black"/>
<path d="M63.9961,331.077h -6.80315" fill="none" stroke="black"/>
<path d="M63.9961,323.604h -6.80315" fill="none" stroke="black"/>
<path d="M63.9961,316.132h -6.80315" fill="none" stroke="black"/>
<path d="M70.7992,308.659h -13.6063" fill="none" stroke="black"/>
<path d="M63.9961,301.186h -6.80315" fill="none" stroke="black"/>
<path d="M63.9961,293.714h -6.80315" fill="none" stroke="black"/>
<path d="M63.9961,286.241h -6.80315" fill="none" stroke="black"/>
<path d="M63.9961,278.768h -6.80315" fill="none" stroke="black"/>
<path d="M70.7992,271.296h -13.6063" fill="none" stroke="black"/>
<path d="M63.9961,263.823h -6.80315" fill="none" stroke="black"/>
<path d="M63.9961,256.35h -6.80315" fill="none" stroke="black"/>
<path d="M63.9961,248.877h -6.80315" fill="none" stroke="black"/>
<path d="M63.9961,241.405h -6.80315" fill="none" stroke="black"/>
<path d="M70.7992,233.932h -13.6063" fill="none" stroke="black"/>
<path d="M63.9961,226.459h -6.80315" fill="none" stroke="black"/>
<path d="M63.9961,218.987h -6.80315" fill="none" stroke="black"/>
<path d="M63.9961,211.514h -6.80315" fill="none" stroke="black"/>
<path d="M63.9961,204.041h -6.80315" fill="none" stroke="black"/>
<path d="M70.7992,196.569h -13.6063" fill="none" stroke="black"/>
<path d="M63.9961,189.096h -6.80315" fill="none" stroke="black"/>
<path d="M63.9961,181.623h -6.80315" fill="none" stroke="black"/>
<path d="M63.9961,174.151h -6.80315" fill="none" stroke="black"/>
<path d="M63.9961,166.678h -6.80315" fill="none" stroke="black"/>
<path d="M70.7992,159.205h -13.6063" fill="none" stroke="black"/>
<path d="M63.9961,151.733h -6.80315" fill="none" stroke="black"/>
<path d="M63.9961,144.26h -6.80315" fill="none" stroke="black"/>
<path d="M63.9961,136.787h -6.80315" fill="none" stroke="black"/>
<path d="M63.9961,129.315h -6.80315" fill="none" stroke="black"/>
<path d="M70.7992,121.842h -13.6063" fill="none" stroke="black"/>
<path d="M63.9961,114.369h -6.80315" fill="none" stroke="black"/>
<path d="M63.9961,106.897h -6.80315" fill="none" stroke="black"/>
<path d="M63.9961,99.424h -6.80315" fill="none" stroke="black"/>
<path d="M63.9961,91.9513h -6.80315" fill="none" stroke="black"/>
<path d="M70.7992,84.4786h -13.6063" fill="none" stroke="black"/>
<path d="M63.9961,77.0059h -6.80315" fill="none" stroke="black"/>
<path d="M63.9961,69.5332h -6.80315" fill="none" stroke="black"/>
<path d="M63.9961,62.0606h -6.80315" fill="none" stroke="black"/>
<path d="M63.9961,54.5879h -6.80315" fill="none" stroke="black"/>
<path d="M70.7992,47.1152h -13.6063" fill="none" stroke="black"/>
<path d="M70.7992,47.1152h -13.6063" fill="none" stroke="black"/>
<path d="M63.9961,39.6425h -6.80315" fill="none" stroke="black"/>
<text xml:space="preserve" x="47.7441" y="350.258" fill="black" font-size="12.8453" font-family="Helvetica">0</text>
<text xml:space="preserve" x="33.8967" y="312.788" fill="black" font-size="12.8453" font-family="Helvetica">100</text>
<text xml:space="preserve" x="33.8967" y="276.134" fill="black" font-size="12.8453" font-family="Helvetica">200</text>
<text xml:space="preserve" x="33.8967" y="238.664" fill="black" font-size="12.8453" font-family="Helvetica">300</text>
<text xml:space="preserve" x="33.8967" y="201.195" fill="black" font-size="12.8453" font-family="Helvetica">400</text>
<text xml:space="preserve" x="33.8967" y="163.725" fill="black" font-size="12.8453" font-family="Helvetica">500</text>
<text xml:space="preserve" x="33.8967" y="126.256" fill="black" font-size="12.8453" font-family="Helvetica">600</text>
<text xml:space="preserve" x="33.8967" y="88.7863" fill="black" font-size="12.8453" font-family="Helvetica">700</text>
<text xml:space="preserve" x="33.8967" y="51.3169" fill="black" font-size="12.8453" font-family="Helvetica">800</text>
<g transform="rotate(-90,20.8638,70.0516)">
<text xml:space="preserve" x="20.8638" y="70.0516" fill="black" font-size="12.8453" font-family="Helvetica">Event</text>
</g>
<text xml:space="preserve" x="253.012" y="18.7347" fill="black" font-size="18.0316" font-family="Helvetica">Cs_002</text>
<rect x="442.705" y="24.9905" width="113.386" height="61.5151" fill="white"/>
<path d="M442.705,86.5056h 113.386" fill="none" stroke="black"/>
<path d="M556.091,86.5056v -61.5151" fill="none" stroke="black"/>
<path d="M556.091,24.9905h -113.386" fill="none" stroke="black"/>
<path d="M442.705,24.9905v 61.5151" fill="none" stroke="black"/>
<text xml:space="preserve" x="476.199" y="36.6549" fill="black" font-size="13.4802" font-family="Helvetica">Cs_002</text>
<path d="M442.705,40.3693h 113.386" fill="none" stroke="black"/>
<text xml:space="preserve" x="447.69" y="52.946" fill="black" font-size="12.7186" font-family="Helvetica">Entries </text>
<text xml:space="preserve" x="512.854" y="52.946" fill="black" font-size="12.7186" font-family="Helvetica"> 11907</text>
<text xml:space="preserve" x="447.69" y="67.6079" fill="black" font-size="12.7186" font-family="Helvetica">Mean  </text>
<text xml:space="preserve" x="512.854" y="67.6079" fill="black" font-size="12.7186" font-family="Helvetica">   1377</text>
<text xml:space="preserve" x="447.69" y="83.0844" fill="black" font-size="12.7186" font-family="Helvetica">Std Dev   </text>
<text xml:space="preserve" x="512.854" y="83.0844" fill="black" font-size="12.7186" font-family="Helvetica">  676.4</text>
<text xml:space="preserve" x="253.012" y="18.7347" fill="black" font-size="18.0316" font-family="Helvetica">Cs_002</text></svg>
