<?xml version="1.0" standalone="no"?>
<svg width="567.429" height="384.969" viewBox="0 0 567.429 384.969" xmlns="http://www.w3.org/2000/svg" shape-rendering="crispEdges">
<title>
img/week1/plane_hist/Cs_014.svg
</title>
<desc>
Creator: ROOT Version 6.22/09
CreationDate: Sun Jul 11 17:58:23 2021</desc>
<defs>
</defs>
<rect x="0.5" y="0" width="566.929" height="384.469" fill="white"/>
<rect x="57.1929" y="38.4469" width="453.543" height="307.575" fill="white"/>
<rect x="57.1929" y="38.4469" width="453.543" height="307.575" fill="none" stroke="black"/>
<path d="M57.1929,346.022h 65.6856v -3.72367h 0.625577v -21.1008h 0.625577v -16.1359h 0.625577v 12.1019h 0.625577v 11.171h 0.625577v -6.20612h 0.625577v 7.44734h 0.625577v -2.79275h 0.625577v 4.9649h 0.625577v -0.620612h 0.625577v 2.79275h 0.625577v
 4.65459h 0.625577v 2.79275h 0.625577v -0.620612h 0.625577v 0.620612h 0.625577v -1.55153h 0.625577v 1.86184h 0.625577v -2.48245h 0.625577v 4.65459h 0.625577v -1.86184h 0.625577v -0.930918h 0.625577v 0.620612h 0.625577v 2.17214h 1.25115v -1.24122h
 0.625577v 0.930918h 0.625577v 0.310306h 0.625577v -0.620612h 0.625577v 1.24122h 1.25115v -0.310306h 0.625577v 1.24122h 0.625577v -1.55153h 0.625577v -0.930918h 0.625577v 0.620612h 0.625577v -0.620612h 0.625577v 0.930918h 0.625577v -0.310306h
 0.625577v 0.310306h 0.625577v 0.310306h 0.625577v 0.310306h 0.625577v -0.620612h 1.25115v 0.310306h 0.625577v 0.930918h 0.625577v -0.930918h 0.625577v 0.930918h 0.625577v -1.55153h 1.25115v 1.24122h 1.25115v -0.310306h 0.625577v -1.55153h 0.625577v
 0.930918h 0.625577v 0.310306h 0.625577v 0.620612h 0.625577v -1.86184h 0.625577v 0.310306h 0.625577v 0.620612h 0.625577v -1.86184h 0.625577v 2.48245h 0.625577v -0.620612h 0.625577v -0.310306h 0.625577v 0.310306h 0.625577v 0.310306h 0.625577v
 0.310306h 0.625577v 0.620612h 0.625577v -1.24122h 0.625577v 0.310306h 1.25115v -1.55153h 0.625577v 1.86184h 0.625577v -0.310306h 0.625577v 0.930918h 0.625577v -1.86184h 1.25115v 2.17214h 0.625577v -0.930918h 0.625577v 0.310306h 0.625577v -0.620612h
 0.625577v -0.310306h 0.625577v 0.310306h 0.625577v 0.930918h 0.625577v -1.86184h 0.625577v 1.55153h 1.25115v 0.620612h 0.625577v -0.930918h 0.625577v 0.620612h 0.625577v -0.930918h 0.625577v -0.310306h 0.625577v 0.310306h 0.625577v 0.310306h
 1.25115v -2.17214h 0.625577v 1.86184h 0.625577v -0.930918h 0.625577v 1.55153h 0.625577v -1.24122h 0.625577v 0.620612h 0.625577v 0.930918h 0.625577v -0.310306h 0.625577v -0.930918h 0.625577v -1.24122h 0.625577v 1.55153h 0.625577v 0.930918h 0.625577v
 -0.930918h 0.625577v 0.310306h 0.625577v -1.24122h 0.625577v 1.86184h 0.625577v -0.620612h 1.25115v 0.310306h 0.625577v -1.24122h 0.625577v 0.930918h 0.625577v 0.620612h 0.625577v -0.930918h 0.625577v -0.310306h 0.625577v 1.55153h 0.625577v
 -1.55153h 1.25115v 0.310306h 1.25115v 0.310306h 0.625577v 0.620612h 0.625577v -0.930918h 0.625577v 0.310306h 0.625577v 0.620612h 0.625577v -1.55153h 0.625577v 0.930918h 1.25115v 0.930918h 0.625577v -0.310306h 0.625577v -0.930918h 0.625577v
 -0.620612h 0.625577v 0.310306h 0.625577v 0.620612h 0.625577v 0.620612h 1.25115v -0.930918h 0.625577v 0.930918h 0.625577v -0.930918h 0.625577v -0.310306h 0.625577v -0.310306h 0.625577v 1.86184h 0.625577v -1.24122h 0.625577v 0.620612h 0.625577v
 -0.620612h 1.25115v 0.620612h 0.625577v 0.310306h 0.625577v -1.24122h 0.625577v 0.930918h 0.625577v -0.620612h 0.625577v -0.620612h 0.625577v 1.24122h 0.625577v 0.310306h 0.625577v 0.620612h 0.625577v -0.930918h 0.625577v -0.620612h 0.625577v
 0.310306h 0.625577v 0.620612h 0.625577v -0.620612h 0.625577v -0.620612h 0.625577v 0.620612h 0.625577v 0.620612h 0.625577v -0.310306h 1.25115v 0.930918h 0.625577v -1.86184h 0.625577v 0.930918h 0.625577v -0.620612h 0.625577v 0.310306h 0.625577v
 -0.620612h 0.625577v 0.930918h 0.625577v -1.24122h 0.625577v -0.620612h 0.625577v 1.24122h 0.625577v 0.310306h 0.625577v -0.620612h 0.625577v 1.24122h 1.25115v -0.620612h 0.625577v 1.24122h 0.625577v -0.930918h 0.625577v -1.55153h 0.625577v 1.24122h
 1.25115v -0.310306h 0.625577v 0.310306h 0.625577v -0.310306h 0.625577v -0.620612h 0.625577v 1.24122h 0.625577v 0.930918h 0.625577v -2.17214h 0.625577v 0.620612h 0.625577v 0.620612h 0.625577v 0.310306h 0.625577v -1.24122h 0.625577v 0.930918h
 0.625577v -0.310306h 0.625577v 0.310306h 0.625577v -0.310306h 0.625577v -0.310306h 1.25115v -0.620612h 0.625577v 2.48245h 0.625577v -1.55153h 0.625577v 0.620612h 0.625577v -1.24122h 0.625577v -0.930918h 0.625577v 1.55153h 0.625577v -0.310306h
 0.625577v -0.620612h 1.25115v 1.55153h 1.25115v -0.620612h 0.625577v -0.310306h 0.625577v -0.620612h 0.625577v 1.24122h 0.625577v 1.24122h 0.625577v -0.930918h 0.625577v -0.930918h 0.625577v 0.310306h 0.625577v 0.930918h 0.625577v -0.930918h
 0.625577v 0.930918h 1.25115v -1.24122h 1.25115v 0.620612h 0.625577v 0.620612h 0.625577v -1.24122h 0.625577v 0.310306h 1.25115v -0.620612h 0.625577v 1.86184h 0.625577v -0.310306h 0.625577v -1.55153h 0.625577v 0.930918h 0.625577v -0.310306h 0.625577v
 -0.310306h 0.625577v 0.310306h 0.625577v -0.310306h 0.625577v -0.310306h 0.625577v 0.310306h 0.625577v 0.930918h 0.625577v -0.310306h 0.625577v -1.86184h 0.625577v 0.930918h 0.625577v -0.310306h 0.625577v 0.930918h 0.625577v -0.310306h 0.625577v
 -0.930918h 0.625577v 0.310306h 0.625577v 0.930918h 0.625577v 1.24122h 0.625577v -1.55153h 0.625577v 0.620612h 0.625577v -0.620612h 1.25115v 0.620612h 0.625577v -0.930918h 0.625577v 0.310306h 0.625577v 0.310306h 1.25115v -0.310306h 1.25115v
 -0.310306h 0.625577v -0.620612h 0.625577v 0.620612h 0.625577v 0.620612h 0.625577v -1.24122h 0.625577v 0.310306h 0.625577v 0.620612h 0.625577v -0.310306h 0.625577v -0.310306h 0.625577v -0.930918h 0.625577v -0.930918h 0.625577v 1.86184h 0.625577v
 -2.48245h 0.625577v 3.41337h 0.625577v -0.620612h 0.625577v -0.310306h 0.625577v -1.86184h 0.625577v 1.24122h 0.625577v 0.930918h 0.625577v -1.86184h 0.625577v 2.48245h 0.625577v -1.55153h 0.625577v -1.86184h 0.625577v 1.24122h 0.625577v -0.310306h
 0.625577v 2.17214h 0.625577v -1.55153h 1.25115v -0.310306h 0.625577v 0.310306h 1.25115v 0.310306h 0.625577v -0.310306h 0.625577v -0.310306h 0.625577v 1.24122h 0.625577v 0.310306h 0.625577v -0.930918h 0.625577v -0.930918h 0.625577v 1.86184h 0.625577v
 -0.930918h 0.625577v -0.930918h 1.25115v 1.24122h 0.625577v -1.55153h 0.625577v 0.620612h 0.625577v 1.24122h 0.625577v -0.930918h 0.625577v -0.310306h 0.625577v 0.310306h 0.625577v 1.55153h 0.625577v -0.620612h 0.625577v 0.310306h 1.25115v
 -0.310306h 1.25115v -0.930918h 0.625577v 0.620612h 0.625577v -0.930918h 0.625577v 1.86184h 0.625577v -1.55153h 0.625577v 1.24122h 0.625577v 0.620612h 0.625577v -0.620612h 0.625577v -0.310306h 0.625577v -0.620612h 0.625577v 1.86184h 0.625577v
 -2.17214h 0.625577v 2.17214h 1.25115v -1.24122h 0.625577v -0.930918h 0.625577v 2.48245h 0.625577v -1.55153h 0.625577v 1.55153h 0.625577v -1.86184h 0.625577v 1.55153h 0.625577v -3.41337h 0.625577v 3.41337h 0.625577v -1.24122h 0.625577v 1.24122h
 0.625577v -1.24122h 1.25115v 0.620612h 0.625577v -0.310306h 0.625577v -0.310306h 1.87673v -0.310306h 0.625577v 0.930918h 0.625577v 0.310306h 0.625577v 0.310306h 1.25115v -1.55153h 0.625577v 1.24122h 0.625577v 0.620612h 0.625577v -0.310306h 0.625577v
 0.930918h 0.625577v -2.17214h 0.625577v 1.24122h 0.625577v 0.310306h 0.625577v -0.930918h 1.25115v 1.24122h 0.625577v -0.930918h 0.625577v -0.930918h 0.625577v 0.620612h 0.625577v 0.310306h 1.25115v 0.310306h 0.625577v -1.86184h 0.625577v 1.55153h
 0.625577v 0.310306h 1.25115v -0.930918h 0.625577v 0.310306h 0.625577v -0.620612h 0.625577v 0.310306h 0.625577v -0.620612h 0.625577v 0.620612h 0.625577v -0.620612h 0.625577v 0.620612h 0.625577v 1.24122h 0.625577v -1.24122h 0.625577v -0.620612h
 0.625577v 0.930918h 0.625577v 0.310306h 1.25115v -1.24122h 0.625577v 1.86184h 0.625577v -1.86184h 0.625577v 1.55153h 0.625577v -0.310306h 0.625577v 0.930918h 0.625577v -0.930918h 0.625577v 0.620612h 1.87673v -0.620612h 0.625577v 0.310306h 0.625577v
 -0.310306h 0.625577v -0.930918h 0.625577v 0.310306h 0.625577v -1.86184h 0.625577v 1.86184h 0.625577v 0.620612h 0.625577v -0.930918h 0.625577v -1.24122h 0.625577v 1.86184h 0.625577v 1.24122h 0.625577v -0.620612h 0.625577v -1.24122h 0.625577v
 -1.24122h 0.625577v 1.55153h 0.625577v 0.310306h 0.625577v -0.930918h 0.625577v -0.930918h 0.625577v 1.55153h 0.625577v 0.930918h 1.25115v -1.86184h 0.625577v -0.620612h 0.625577v 0.930918h 0.625577v 0.620612h 0.625577v 0.620612h 1.25115v -2.17214h
 0.625577v 0.310306h 0.625577v 0.620612h 0.625577v 0.930918h 0.625577v -0.620612h 0.625577v -0.620612h 0.625577v 1.24122h 0.625577v -2.17214h 0.625577v -0.930918h 0.625577v 3.41337h 0.625577v -2.79275h 0.625577v -0.620612h 0.625577v 1.24122h
 0.625577v 0.310306h 0.625577v -0.310306h 0.625577v -2.79275h 0.625577v 1.24122h 0.625577v 2.17214h 0.625577v -3.41337h 0.625577v 3.72367h 0.625577v -1.24122h 0.625577v -1.55153h 0.625577v -0.930918h 0.625577v 0.310306h 0.625577v -1.24122h 0.625577v
 3.41337h 0.625577v -0.930918h 0.625577v -0.620612h 0.625577v 0.620612h 0.625577v -4.03398h 0.625577v 4.03398h 0.625577v -1.24122h 0.625577v -3.41337h 0.625577v 2.17214h 0.625577v 0.620612h 0.625577v -0.930918h 0.625577v -3.72367h 0.625577v 3.10306h
 0.625577v -0.620612h 0.625577v 3.72367h 0.625577v -1.24122h 0.625577v -2.48245h 0.625577v -1.24122h 0.625577v 2.17214h 0.625577v -1.55153h 0.625577v 1.55153h 0.625577v -0.310306h 0.625577v -2.17214h 0.625577v 0.310306h 0.625577v 1.24122h 0.625577v
 -3.41337h 0.625577v -1.55153h 0.625577v 0.930918h 0.625577v 5.89581h 0.625577v -2.79275h 0.625577v -3.72367h 0.625577v 0.930918h 0.625577v 1.86184h 0.625577v -3.72367h 0.625577v 7.44734h 0.625577v -1.86184h 0.625577v -1.24122h 0.625577v 0.620612h
 0.625577v -1.24122h 0.625577v -2.48245h 0.625577v 5.58551h 0.625577v -1.24122h 0.625577v -0.310306h 0.625577v 4.65459h 0.625577v -7.75765h 0.625577v 5.2752h 0.625577v 1.86184h 0.625577v -0.620612h 0.625577v -2.48245h 0.625577v -1.55153h 0.625577v
 3.41337h 0.625577v -0.310306h 0.625577v -1.86184h 0.625577v -4.65459h 0.625577v 5.2752h 0.625577v 2.17214h 0.625577v -1.24122h 0.625577v -1.55153h 0.625577v -0.310306h 0.625577v 4.34428h 0.625577v -3.10306h 0.625577v 0.620612h 0.625577v -2.17214h
 0.625577v 4.03398h 0.625577v 0.310306h 0.625577v 1.86184h 0.625577v -2.48245h 0.625577v -0.310306h 0.625577v -0.620612h 0.625577v 2.17214h 0.625577v -0.310306h 0.625577v -0.310306h 0.625577v -1.55153h 0.625577v 3.10306h 0.625577v -1.55153h 0.625577v
 1.86184h 0.625577v -1.86184h 0.625577v 1.24122h 0.625577v 0.930918h 0.625577v 0.310306h 0.625577v 0.310306h 0.625577v -1.86184h 0.625577v 0.620612h 0.625577v 1.24122h 0.625577v 0.620612h 0.625577v -4.03398h 0.625577v 2.48245h 0.625577v -0.620612h
 0.625577v 1.55153h 0.625577v -0.930918h 1.25115v -0.620612h 0.625577v 0.930918h 0.625577v -1.24122h 0.625577v 0.620612h 0.625577v -0.620612h 0.625577v 0.310306h 0.625577v 1.86184h 0.625577v -0.310306h 0.625577v 0.310306h 0.625577v -0.620612h
 0.625577v -0.930918h 0.625577v 2.17214h 0.625577v -2.17214h 0.625577v 0.310306h 0.625577v 0.930918h 1.25115v -0.620612h 0.625577v 0.930918h 0.625577v -1.86184h 0.625577v -0.310306h 0.625577v 2.17214h 0.625577v -4.65459h 0.625577v -49.649h 0.625577v
 -236.764h 0.625577v 52.1314h 0.625577v 64.2333h 0.625577v -0.620612h 0.625577v 15.8256h 0.625577v 37.2367h 0.625577v 45.3047h 0.625577v 14.5844h 0.625577v 10.5504h 0.625577v 5.89581h 0.625577v 9.92979h 0.625577v 4.9649h 0.625577v -16.4462h 0.625577v
 4.03398h 0.625577v 12.4122h 0.625577v 2.17214h 0.625577v -8.06796h 0.625577v 4.34428h 0.625577v -10.5504h 0.625577v 10.2401h 0.625577v 2.48245h 0.625577v -4.34428h 0.625577v 1.55153h 0.625577v 3.72367h 0.625577v 4.65459h 0.625577v -7.13704h
 0.625577v -6.20612h 0.625577v 13.3432h 0.625577v -5.2752h 0.625577v 3.10306h 0.625577v -6.82673h 0.625577v 1.86184h 0.625577v 4.65459h 0.625577v 6.51643h 0.625577v -1.24122h 0.625577v -15.205h 0.625577v 9.61949h 0.625577v -0.930918h 0.625577v
 5.58551h 0.625577v 1.24122h 0.625577v 5.89581h 0.625577v 6.51643h 0.625577v 8.68857h 0.625577v 1.24122h 0.625577v 0.620612h 0.625577v 0.310306h 1.25115" fill="none" stroke="#000099"/>
<path d="M57.1929,346.022h 453.543" fill="none" stroke="black"/>
<path d="M57.8185,336.795v 9.22726" fill="none" stroke="black"/>
<path d="M78.6711,341.409v 4.61363" fill="none" stroke="black"/>
<path d="M99.5236,341.409v 4.61363" fill="none" stroke="black"/>
<path d="M120.376,341.409v 4.61363" fill="none" stroke="black"/>
<path d="M141.229,341.409v 4.61363" fill="none" stroke="black"/>
<path d="M162.081,336.795v 9.22726" fill="none" stroke="black"/>
<path d="M182.934,341.409v 4.61363" fill="none" stroke="black"/>
<path d="M203.786,341.409v 4.61363" fill="none" stroke="black"/>
<path d="M224.639,341.409v 4.61363" fill="none" stroke="black"/>
<path d="M245.492,341.409v 4.61363" fill="none" stroke="black"/>
<path d="M266.344,336.795v 9.22726" fill="none" stroke="black"/>
<path d="M287.197,341.409v 4.61363" fill="none" stroke="black"/>
<path d="M308.049,341.409v 4.61363" fill="none" stroke="black"/>
<path d="M328.902,341.409v 4.61363" fill="none" stroke="black"/>
<path d="M349.754,341.409v 4.61363" fill="none" stroke="black"/>
<path d="M370.607,336.795v 9.22726" fill="none" stroke="black"/>
<path d="M391.46,341.409v 4.61363" fill="none" stroke="black"/>
<path d="M412.312,341.409v 4.61363" fill="none" stroke="black"/>
<path d="M433.165,341.409v 4.61363" fill="none" stroke="black"/>
<path d="M454.017,341.409v 4.61363" fill="none" stroke="black"/>
<path d="M474.87,336.795v 9.22726" fill="none" stroke="black"/>
<path d="M57.8185,336.795v 9.22726" fill="none" stroke="black"/>
<path d="M474.87,336.795v 9.22726" fill="none" stroke="black"/>
<path d="M495.722,341.409v 4.61363" fill="none" stroke="black"/>
<text xml:space="preserve" x="54.2605" y="358.403" fill="black" font-size="12.8453" font-family="Helvetica">0</text>
<text xml:space="preserve" x="151.192" y="358.403" fill="black" font-size="12.8453" font-family="Helvetica">500</text>
<text xml:space="preserve" x="252.197" y="358.403" fill="black" font-size="12.8453" font-family="Helvetica">1000</text>
<text xml:space="preserve" x="356.46" y="358.403" fill="black" font-size="12.8453" font-family="Helvetica">1500</text>
<text xml:space="preserve" x="460.723" y="358.403" fill="black" font-size="12.8453" font-family="Helvetica">2000</text>
<text xml:space="preserve" x="451.763" y="372.251" fill="black" font-size="12.8453" font-family="Helvetica">ADC value</text>
<path d="M57.1929,346.022v -307.575" fill="none" stroke="black"/>
<path d="M70.7992,346.022h -13.6063" fill="none" stroke="black"/>
<path d="M63.9961,339.816h -6.80315" fill="none" stroke="black"/>
<path d="M63.9961,333.61h -6.80315" fill="none" stroke="black"/>
<path d="M63.9961,327.404h -6.80315" fill="none" stroke="black"/>
<path d="M63.9961,321.198h -6.80315" fill="none" stroke="black"/>
<path d="M70.7992,314.992h -13.6063" fill="none" stroke="black"/>
<path d="M63.9961,308.786h -6.80315" fill="none" stroke="black"/>
<path d="M63.9961,302.579h -6.80315" fill="none" stroke="black"/>
<path d="M63.9961,296.373h -6.80315" fill="none" stroke="black"/>
<path d="M63.9961,290.167h -6.80315" fill="none" stroke="black"/>
<path d="M70.7992,283.961h -13.6063" fill="none" stroke="black"/>
<path d="M63.9961,277.755h -6.80315" fill="none" stroke="black"/>
<path d="M63.9961,271.549h -6.80315" fill="none" stroke="black"/>
<path d="M63.9961,265.343h -6.80315" fill="none" stroke="black"/>
<path d="M63.9961,259.137h -6.80315" fill="none" stroke="black"/>
<path d="M70.7992,252.93h -13.6063" fill="none" stroke="black"/>
<path d="M63.9961,246.724h -6.80315" fill="none" stroke="black"/>
<path d="M63.9961,240.518h -6.80315" fill="none" stroke="black"/>
<path d="M63.9961,234.312h -6.80315" fill="none" stroke="black"/>
<path d="M63.9961,228.106h -6.80315" fill="none" stroke="black"/>
<path d="M70.7992,221.9h -13.6063" fill="none" stroke="black"/>
<path d="M63.9961,215.694h -6.80315" fill="none" stroke="black"/>
<path d="M63.9961,209.488h -6.80315" fill="none" stroke="black"/>
<path d="M63.9961,203.281h -6.80315" fill="none" stroke="black"/>
<path d="M63.9961,197.075h -6.80315" fill="none" stroke="black"/>
<path d="M70.7992,190.869h -13.6063" fill="none" stroke="black"/>
<path d="M63.9961,184.663h -6.80315" fill="none" stroke="black"/>
<path d="M63.9961,178.457h -6.80315" fill="none" stroke="black"/>
<path d="M63.9961,172.251h -6.80315" fill="none" stroke="black"/>
<path d="M63.9961,166.045h -6.80315" fill="none" stroke="black"/>
<path d="M70.7992,159.839h -13.6063" fill="none" stroke="black"/>
<path d="M63.9961,153.633h -6.80315" fill="none" stroke="black"/>
<path d="M63.9961,147.426h -6.80315" fill="none" stroke="black"/>
<path d="M63.9961,141.22h -6.80315" fill="none" stroke="black"/>
<path d="M63.9961,135.014h -6.80315" fill="none" stroke="black"/>
<path d="M70.7992,128.808h -13.6063" fill="none" stroke="black"/>
<path d="M63.9961,122.602h -6.80315" fill="none" stroke="black"/>
<path d="M63.9961,116.396h -6.80315" fill="none" stroke="black"/>
<path d="M63.9961,110.19h -6.80315" fill="none" stroke="black"/>
<path d="M63.9961,103.984h -6.80315" fill="none" stroke="black"/>
<path d="M70.7992,97.7774h -13.6063" fill="none" stroke="black"/>
<path d="M63.9961,91.5713h -6.80315" fill="none" stroke="black"/>
<path d="M63.9961,85.3652h -6.80315" fill="none" stroke="black"/>
<path d="M63.9961,79.1591h -6.80315" fill="none" stroke="black"/>
<path d="M63.9961,72.9529h -6.80315" fill="none" stroke="black"/>
<path d="M70.7992,66.7468h -13.6063" fill="none" stroke="black"/>
<path d="M70.7992,66.7468h -13.6063" fill="none" stroke="black"/>
<path d="M63.9961,60.5407h -6.80315" fill="none" stroke="black"/>
<path d="M63.9961,54.3346h -6.80315" fill="none" stroke="black"/>
<path d="M63.9961,48.1285h -6.80315" fill="none" stroke="black"/>
<path d="M63.9961,41.9223h -6.80315" fill="none" stroke="black"/>
<text xml:space="preserve" x="47.7441" y="350.258" fill="black" font-size="12.8453" font-family="Helvetica">0</text>
<text xml:space="preserve" x="33.8967" y="319.305" fill="black" font-size="12.8453" font-family="Helvetica">100</text>
<text xml:space="preserve" x="33.8967" y="288.352" fill="black" font-size="12.8453" font-family="Helvetica">200</text>
<text xml:space="preserve" x="33.8967" y="257.399" fill="black" font-size="12.8453" font-family="Helvetica">300</text>
<text xml:space="preserve" x="33.8967" y="226.446" fill="black" font-size="12.8453" font-family="Helvetica">400</text>
<text xml:space="preserve" x="33.8967" y="195.493" fill="black" font-size="12.8453" font-family="Helvetica">500</text>
<text xml:space="preserve" x="33.8967" y="164.54" fill="black" font-size="12.8453" font-family="Helvetica">600</text>
<text xml:space="preserve" x="33.8967" y="133.587" fill="black" font-size="12.8453" font-family="Helvetica">700</text>
<text xml:space="preserve" x="33.8967" y="102.634" fill="black" font-size="12.8453" font-family="Helvetica">800</text>
<text xml:space="preserve" x="33.8967" y="70.8661" fill="black" font-size="12.8453" font-family="Helvetica">900</text>
<g transform="rotate(-90,20.8638,70.0516)">
<text xml:space="preserve" x="20.8638" y="70.0516" fill="black" font-size="12.8453" font-family="Helvetica">Event</text>
</g>
<text xml:space="preserve" x="253.012" y="18.7347" fill="black" font-size="18.0316" font-family="Helvetica">Cs_014</text>
<rect x="442.705" y="24.9905" width="113.386" height="61.5151" fill="white"/>
<path d="M442.705,86.5056h 113.386" fill="none" stroke="black"/>
<path d="M556.091,86.5056v -61.5151" fill="none" stroke="black"/>
<path d="M556.091,24.9905h -113.386" fill="none" stroke="black"/>
<path d="M442.705,24.9905v 61.5151" fill="none" stroke="black"/>
<text xml:space="preserve" x="476.199" y="36.6549" fill="black" font-size="13.4802" font-family="Helvetica">Cs_014</text>
<path d="M442.705,40.3693h 113.386" fill="none" stroke="black"/>
<text xml:space="preserve" x="447.69" y="52.946" fill="black" font-size="12.7186" font-family="Helvetica">Entries </text>
<text xml:space="preserve" x="512.854" y="52.946" fill="black" font-size="12.7186" font-family="Helvetica"> 14237</text>
<text xml:space="preserve" x="447.69" y="67.6079" fill="black" font-size="12.7186" font-family="Helvetica">Mean  </text>
<text xml:space="preserve" x="512.854" y="67.6079" fill="black" font-size="12.7186" font-family="Helvetica">   1719</text>
<text xml:space="preserve" x="447.69" y="83.0844" fill="black" font-size="12.7186" font-family="Helvetica">Std Dev   </text>
<text xml:space="preserve" x="515.298" y="83.0844" fill="black" font-size="12.7186" font-family="Helvetica">  551.1</text>
<text xml:space="preserve" x="253.012" y="18.7347" fill="black" font-size="18.0316" font-family="Helvetica">Cs_014</text></svg>
