<?xml version="1.0" standalone="no"?>
<svg width="567.429" height="384.969" viewBox="0 0 567.429 384.969" xmlns="http://www.w3.org/2000/svg" shape-rendering="crispEdges">
<title>
img/week1/plane_hist/Cs_002.svg
</title>
<desc>
Creator: ROOT Version 6.22/09
CreationDate: Tue Jul 13 11:38:50 2021</desc>
<defs>
</defs>
<rect x="0.5" y="0" width="566.929" height="384.469" fill="white"/>
<rect x="57.1929" y="38.4469" width="453.543" height="307.575" fill="white"/>
<rect x="57.1929" y="38.4469" width="453.543" height="307.575" fill="none" stroke="black"/>
<path d="M57.1929,346.022h 75.2743v -1.89475h 0.632557v -1.13685h 0.632557v -2.2737h 0.632557v -0.757901h 0.632557v -0.378951h 0.632557v 1.13685h 0.632557v 0.757901h 0.632557v -1.5158h 0.632557v 1.89475h 0.632557v -0.378951h 0.632557v -1.13685h
 0.632557v 1.13685h 0.632557v -2.65265h 0.632557v 0.757901h 0.632557v 3.41056h 0.632557v -2.2737h 1.26511v -0.378951h 1.26511v -1.13685h 0.632557v -2.2737h 1.26511v -1.13685h 0.632557v -0.378951h 0.632557v 1.89475h 0.632557v -3.78951h 0.632557v
 3.41056h 0.632557v -1.89475h 0.632557v -1.89475h 0.632557v -1.13685h 0.632557v -1.5158h 0.632557v 2.2737h 0.632557v -0.378951h 0.632557v 3.03161h 0.632557v -0.378951h 0.632557v -2.65265h 0.632557v 1.89475h 0.632557v -0.378951h 0.632557v 5.30531h
 0.632557v -6.06321h 0.632557v 2.65265h 0.632557v 0.378951h 0.632557v -1.13685h 0.632557v 5.68426h 0.632557v -3.41056h 0.632557v -1.13685h 1.26511v 2.2737h 0.632557v 0.378951h 0.632557v 1.13685h 0.632557v -2.65265h 0.632557v 1.89475h 0.632557v
 3.03161h 0.632557v -5.30531h 0.632557v 4.54741h 0.632557v -2.65265h 0.632557v 1.5158h 0.632557v -1.5158h 0.632557v 1.13685h 0.632557v -2.2737h 0.632557v 0.757901h 0.632557v 2.2737h 0.632557v 1.89475h 0.632557v -3.03161h 0.632557v 1.13685h 0.632557v
 -1.5158h 0.632557v 1.5158h 0.632557v -1.13685h 0.632557v -1.5158h 0.632557v 0.378951h 0.632557v 1.13685h 1.26511v -1.89475h 0.632557v 0.757901h 0.632557v 1.13685h 0.632557v 1.89475h 0.632557v -3.41056h 0.632557v 1.13685h 0.632557v -2.2737h 0.632557v
 -1.13685h 0.632557v -1.13685h 0.632557v -3.41056h 1.26511v -5.30531h 0.632557v 12.1264h 0.632557v -10.2317h 0.632557v -4.54741h 0.632557v 5.30531h 0.632557v -1.89475h 0.632557v 2.65265h 0.632557v -5.68426h 0.632557v -6.44216h 0.632557v 1.5158h
 0.632557v 3.03161h 0.632557v -4.54741h 0.632557v -3.41056h 0.632557v -5.30531h 0.632557v 10.2317h 0.632557v 2.2737h 0.632557v -6.06321h 0.632557v -1.13685h 0.632557v 1.13685h 0.632557v -2.2737h 0.632557v 4.16846h 0.632557v -6.44216h 0.632557v
 5.30531h 0.632557v 8.71587h 0.632557v 2.2737h 0.632557v -6.82111h 0.632557v 3.78951h 0.632557v 4.92636h 0.632557v -1.89475h 0.632557v 6.44216h 0.632557v -5.30531h 0.632557v 2.2737h 0.632557v 0.757901h 0.632557v 4.54741h 0.632557v -0.378951h
 0.632557v -3.41056h 0.632557v 4.54741h 0.632557v -2.65265h 0.632557v 8.71587h 0.632557v -7.95796h 0.632557v 4.16846h 0.632557v -4.16846h 0.632557v 4.16846h 1.26511v 1.13685h 0.632557v -3.03161h 0.632557v -1.5158h 0.632557v 3.78951h 0.632557v
 -1.5158h 0.632557v -3.78951h 0.632557v 8.71587h 0.632557v -6.82111h 0.632557v 5.30531h 0.632557v -3.41056h 0.632557v 2.2737h 0.632557v -1.89475h 0.632557v 3.78951h 1.26511v -2.65265h 0.632557v 0.757901h 0.632557v 1.5158h 1.26511v -1.13685h 0.632557v
 1.89475h 0.632557v -0.378951h 0.632557v 1.89475h 1.26511v 1.13685h 0.632557v -1.5158h 0.632557v -1.13685h 0.632557v 2.2737h 0.632557v -0.378951h 1.26511v 0.378951h 1.26511v -0.757901h 0.632557v 0.378951h 1.26511v -1.13685h 0.632557v 1.13685h
 0.632557v -0.378951h 0.632557v 0.378951h 0.632557v 0.378951h 0.632557v -1.13685h 0.632557v 1.5158h 0.632557v -2.65265h 0.632557v -0.378951h 0.632557v 1.13685h 0.632557v 2.2737h 0.632557v -0.757901h 0.632557v -2.65265h 0.632557v 2.65265h 0.632557v
 -1.13685h 0.632557v 0.378951h 0.632557v -0.757901h 0.632557v 0.757901h 0.632557v -0.757901h 0.632557v 1.89475h 0.632557v -0.757901h 0.632557v -0.378951h 1.26511v -0.378951h 0.632557v 1.13685h 0.632557v -0.757901h 0.632557v 0.757901h 0.632557v
 -0.757901h 0.632557v -0.757901h 0.632557v 1.13685h 0.632557v -0.378951h 0.632557v 0.757901h 0.632557v -0.757901h 0.632557v 0.757901h 0.632557v -0.757901h 0.632557v 0.757901h 0.632557v -0.378951h 0.632557v 0.378951h 0.632557v 0.378951h 0.632557v
 -0.757901h 0.632557v -0.378951h 0.632557v 0.757901h 0.632557v 0.378951h 1.26511v -0.378951h 1.26511v -1.89475h 0.632557v 1.5158h 0.632557v -1.13685h 0.632557v 0.757901h 0.632557v 0.757901h 0.632557v -1.5158h 0.632557v 1.89475h 0.632557v 0.757901h
 0.632557v -1.13685h 0.632557v -0.378951h 1.26511v -0.378951h 0.632557v 0.757901h 1.26511v -2.2737h 0.632557v 1.5158h 0.632557v 0.378951h 0.632557v -0.757901h 0.632557v -1.13685h 0.632557v 1.89475h 0.632557v -1.13685h 0.632557v 1.13685h 0.632557v
 0.378951h 0.632557v -0.378951h 0.632557v 1.13685h 0.632557v -0.757901h 1.26511v -1.13685h 0.632557v 0.378951h 0.632557v 2.2737h 0.632557v -0.757901h 0.632557v -2.2737h 0.632557v 2.2737h 0.632557v -3.78951h 0.632557v 3.41056h 0.632557v -1.89475h
 0.632557v 1.13685h 0.632557v -0.757901h 0.632557v 1.13685h 0.632557v -0.378951h 0.632557v -1.13685h 0.632557v 1.89475h 0.632557v -0.757901h 0.632557v 0.757901h 0.632557v 1.13685h 0.632557v -1.13685h 0.632557v -1.13685h 0.632557v 1.5158h 0.632557v
 -0.378951h 0.632557v -1.5158h 0.632557v 0.757901h 0.632557v 1.13685h 0.632557v -1.13685h 0.632557v 0.378951h 0.632557v -2.2737h 0.632557v 3.03161h 0.632557v 0.378951h 0.632557v -1.5158h 0.632557v 0.757901h 0.632557v 0.378951h 0.632557v -1.89475h
 0.632557v 2.2737h 0.632557v -1.5158h 0.632557v -0.378951h 0.632557v -0.378951h 1.26511v 1.13685h 0.632557v -0.378951h 0.632557v -1.13685h 0.632557v -2.2737h 0.632557v 1.13685h 0.632557v 1.13685h 0.632557v -2.65265h 0.632557v 4.16846h 0.632557v
 -1.5158h 0.632557v 0.378951h 0.632557v -0.757901h 1.89767v -1.89475h 0.632557v 2.2737h 0.632557v 0.378951h 0.632557v -0.757901h 0.632557v 1.5158h 0.632557v 0.378951h 0.632557v -1.13685h 0.632557v 0.757901h 0.632557v -3.78951h 0.632557v 3.41056h
 0.632557v -2.65265h 0.632557v 1.13685h 0.632557v 1.89475h 0.632557v -0.757901h 0.632557v 0.378951h 1.26511v 1.5158h 0.632557v -2.2737h 0.632557v 1.13685h 0.632557v -1.13685h 0.632557v 0.757901h 0.632557v 0.378951h 0.632557v -1.13685h 0.632557v
 2.65265h 0.632557v -1.89475h 0.632557v -2.2737h 0.632557v 3.03161h 0.632557v -0.378951h 0.632557v 1.13685h 0.632557v 0.757901h 0.632557v -1.89475h 0.632557v 1.5158h 0.632557v -3.03161h 0.632557v 3.03161h 0.632557v -1.89475h 0.632557v 0.757901h
 0.632557v -1.13685h 0.632557v 1.5158h 0.632557v -1.13685h 0.632557v -1.5158h 0.632557v 2.65265h 0.632557v 0.757901h 0.632557v -1.13685h 0.632557v 0.378951h 0.632557v -1.5158h 0.632557v 1.5158h 1.26511v -0.378951h 0.632557v -0.378951h 0.632557v
 0.378951h 0.632557v 0.378951h 0.632557v 1.13685h 0.632557v -1.5158h 0.632557v -0.378951h 0.632557v -1.89475h 0.632557v 1.89475h 0.632557v 0.378951h 0.632557v -0.378951h 0.632557v -2.2737h 0.632557v 1.5158h 0.632557v 0.757901h 1.26511v -1.5158h
 0.632557v 3.41056h 0.632557v -0.757901h 0.632557v -0.757901h 0.632557v 0.757901h 0.632557v -2.2737h 0.632557v 1.5158h 0.632557v 1.13685h 0.632557v -1.89475h 1.26511v 1.5158h 0.632557v -1.5158h 1.26511v 1.13685h 0.632557v -0.378951h 0.632557v
 0.378951h 0.632557v -0.378951h 0.632557v 0.378951h 1.26511v -1.13685h 0.632557v 1.89475h 0.632557v -0.757901h 1.26511v -1.13685h 0.632557v 1.13685h 0.632557v -0.378951h 1.26511v -1.13685h 1.26511v 0.378951h 0.632557v 1.13685h 0.632557v 0.378951h
 0.632557v -2.2737h 0.632557v 1.89475h 0.632557v 0.378951h 0.632557v -1.5158h 0.632557v -1.89475h 0.632557v 3.03161h 0.632557v 0.378951h 0.632557v -1.5158h 0.632557v 1.5158h 0.632557v -0.757901h 0.632557v -3.41056h 0.632557v 2.65265h 0.632557v
 1.13685h 0.632557v -0.757901h 0.632557v -2.2737h 0.632557v 2.2737h 0.632557v -0.757901h 0.632557v 2.2737h 0.632557v 0.378951h 0.632557v -1.5158h 0.632557v 0.757901h 0.632557v -0.378951h 0.632557v -1.5158h 0.632557v 1.13685h 0.632557v -1.5158h
 0.632557v 3.03161h 0.632557v -2.2737h 1.26511v 1.13685h 0.632557v -0.378951h 0.632557v 0.378951h 0.632557v 0.757901h 0.632557v -1.13685h 0.632557v -0.757901h 0.632557v 1.5158h 0.632557v -1.13685h 0.632557v 0.378951h 0.632557v 0.757901h 0.632557v
 -0.378951h 0.632557v -0.757901h 0.632557v 1.13685h 0.632557v -2.65265h 0.632557v 0.378951h 0.632557v 1.13685h 0.632557v 1.89475h 1.26511v -0.757901h 0.632557v -1.5158h 0.632557v 0.757901h 1.26511v -1.13685h 0.632557v 1.89475h 0.632557v -1.13685h
 0.632557v 0.757901h 0.632557v 0.378951h 1.26511v 0.757901h 0.632557v -1.5158h 0.632557v 1.13685h 0.632557v -1.5158h 0.632557v 1.13685h 0.632557v -1.5158h 0.632557v 1.13685h 0.632557v -0.378951h 1.89767v -1.13685h 0.632557v 2.65265h 0.632557v
 -0.757901h 0.632557v -2.2737h 0.632557v 1.89475h 0.632557v 0.378951h 0.632557v -0.378951h 0.632557v 1.13685h 0.632557v -1.5158h 0.632557v 0.378951h 0.632557v -1.5158h 0.632557v 2.2737h 0.632557v -1.13685h 0.632557v 0.757901h 1.26511v -1.13685h
 0.632557v 0.378951h 0.632557v -0.378951h 1.26511v 0.378951h 0.632557v 0.378951h 0.632557v -0.378951h 0.632557v -0.757901h 0.632557v 1.5158h 0.632557v -0.378951h 0.632557v 0.378951h 0.632557v 0.378951h 0.632557v -2.2737h 0.632557v 0.378951h 0.632557v
 1.89475h 0.632557v -1.89475h 0.632557v 0.378951h 1.89767v 0.378951h 0.632557v -0.378951h 0.632557v 0.757901h 1.26511v 1.5158h 0.632557v -1.13685h 0.632557v -0.757901h 1.26511v 0.378951h 0.632557v -0.378951h 0.632557v 0.378951h 0.632557v -0.378951h
 0.632557v 0.378951h 0.632557v -0.378951h 0.632557v -0.378951h 0.632557v 0.378951h 0.632557v 0.757901h 0.632557v -0.378951h 0.632557v 1.13685h 0.632557v -0.378951h 0.632557v -0.378951h 0.632557v 1.13685h 0.632557v -1.89475h 0.632557v -0.378951h
 0.632557v 1.13685h 0.632557v -0.378951h 0.632557v -0.378951h 0.632557v 0.378951h 0.632557v 1.13685h 1.26511v -2.2737h 0.632557v 0.757901h 0.632557v -1.13685h 0.632557v 1.13685h 0.632557v 1.5158h 0.632557v -1.5158h 2.53023v 0.378951h 0.632557v
 0.378951h 0.632557v -0.378951h 1.26511v -0.378951h 0.632557v -0.757901h 0.632557v 1.89475h 0.632557v 0.378951h 1.26511v -1.89475h 0.632557v 0.378951h 0.632557v 0.757901h 0.632557v 0.378951h 1.26511v -1.89475h 0.632557v 1.89475h 1.26511v -0.378951h
 1.26511v -0.757901h 0.632557v 0.757901h 1.26511v -0.378951h 1.89767v -0.378951h 0.632557v 1.13685h 1.26511v -1.13685h 0.632557v -0.378951h 0.632557v 1.13685h 0.632557v -0.378951h 0.632557v -0.378951h 0.632557v 0.757901h 0.632557v 0.378951h 0.632557v
 -1.13685h 0.632557v 1.5158h 0.632557v -0.378951h 1.26511v -1.5158h 0.632557v -0.757901h 0.632557v -9.47377h 0.632557v -183.791h 0.632557v -96.6324h 0.632557v 111.412h 0.632557v -36.7582h 0.632557v 15.9159h 0.632557v 116.338h 0.632557v 40.9267h
 0.632557v -6.06321h 0.632557v 6.44216h 0.632557v -3.41056h 0.632557v 4.54741h 0.632557v 11.3685h 0.632557v -13.2633h 0.632557v 10.9896h 0.632557v -6.06321h 0.632557v 14.4001h 0.632557v -6.82111h 0.632557v -1.5158h 0.632557v 5.68426h 0.632557v
 3.78951h 0.632557v 0.757901h 0.632557v -3.41056h 0.632557v 2.2737h 1.26511v 9.85272h 0.632557v -8.71587h 0.632557v 5.68426h 0.632557v 3.41056h 0.632557v 6.44216h 1.26511v 1.5158h 0.632557v -1.13685h 0.632557v 3.78951h 0.632557v 2.65265h 0.632557v
 -1.13685h 0.632557v 2.2737h 0.632557v 0.378951h 0.632557" fill="none" stroke="#000099"/>
<path d="M57.1929,346.022h 453.543" fill="none" stroke="black"/>
<path d="M57.8255,336.795v 9.22726" fill="none" stroke="black"/>
<path d="M78.9107,341.409v 4.61363" fill="none" stroke="black"/>
<path d="M99.9959,341.409v 4.61363" fill="none" stroke="black"/>
<path d="M121.081,341.409v 4.61363" fill="none" stroke="black"/>
<path d="M142.166,341.409v 4.61363" fill="none" stroke="black"/>
<path d="M163.252,336.795v 9.22726" fill="none" stroke="black"/>
<path d="M184.337,341.409v 4.61363" fill="none" stroke="black"/>
<path d="M205.422,341.409v 4.61363" fill="none" stroke="black"/>
<path d="M226.507,341.409v 4.61363" fill="none" stroke="black"/>
<path d="M247.593,341.409v 4.61363" fill="none" stroke="black"/>
<path d="M268.678,336.795v 9.22726" fill="none" stroke="black"/>
<path d="M289.763,341.409v 4.61363" fill="none" stroke="black"/>
<path d="M310.848,341.409v 4.61363" fill="none" stroke="black"/>
<path d="M331.933,341.409v 4.61363" fill="none" stroke="black"/>
<path d="M353.019,341.409v 4.61363" fill="none" stroke="black"/>
<path d="M374.104,336.795v 9.22726" fill="none" stroke="black"/>
<path d="M395.189,341.409v 4.61363" fill="none" stroke="black"/>
<path d="M416.274,341.409v 4.61363" fill="none" stroke="black"/>
<path d="M437.36,341.409v 4.61363" fill="none" stroke="black"/>
<path d="M458.445,341.409v 4.61363" fill="none" stroke="black"/>
<path d="M479.53,336.795v 9.22726" fill="none" stroke="black"/>
<path d="M57.8255,336.795v 9.22726" fill="none" stroke="black"/>
<path d="M479.53,336.795v 9.22726" fill="none" stroke="black"/>
<path d="M500.615,341.409v 4.61363" fill="none" stroke="black"/>
<text xml:space="preserve" x="54.2605" y="358.403" fill="black" font-size="12.8453" font-family="Helvetica">0</text>
<text xml:space="preserve" x="152.007" y="358.403" fill="black" font-size="12.8453" font-family="Helvetica">500</text>
<text xml:space="preserve" x="254.641" y="358.403" fill="black" font-size="12.8453" font-family="Helvetica">1000</text>
<text xml:space="preserve" x="359.718" y="358.403" fill="black" font-size="12.8453" font-family="Helvetica">1500</text>
<text xml:space="preserve" x="465.61" y="358.403" fill="black" font-size="12.8453" font-family="Helvetica">2000</text>
<text xml:space="preserve" x="451.763" y="372.251" fill="black" font-size="12.8453" font-family="Helvetica">ADC value</text>
<path d="M57.1929,346.022v -307.575" fill="none" stroke="black"/>
<path d="M70.7992,346.022h -13.6063" fill="none" stroke="black"/>
<path d="M63.9961,338.443h -6.80315" fill="none" stroke="black"/>
<path d="M63.9961,330.864h -6.80315" fill="none" stroke="black"/>
<path d="M63.9961,323.285h -6.80315" fill="none" stroke="black"/>
<path d="M63.9961,315.706h -6.80315" fill="none" stroke="black"/>
<path d="M70.7992,308.127h -13.6063" fill="none" stroke="black"/>
<path d="M63.9961,300.548h -6.80315" fill="none" stroke="black"/>
<path d="M63.9961,292.969h -6.80315" fill="none" stroke="black"/>
<path d="M63.9961,285.39h -6.80315" fill="none" stroke="black"/>
<path d="M63.9961,277.811h -6.80315" fill="none" stroke="black"/>
<path d="M70.7992,270.232h -13.6063" fill="none" stroke="black"/>
<path d="M63.9961,262.653h -6.80315" fill="none" stroke="black"/>
<path d="M63.9961,255.074h -6.80315" fill="none" stroke="black"/>
<path d="M63.9961,247.495h -6.80315" fill="none" stroke="black"/>
<path d="M63.9961,239.916h -6.80315" fill="none" stroke="black"/>
<path d="M70.7992,232.337h -13.6063" fill="none" stroke="black"/>
<path d="M63.9961,224.758h -6.80315" fill="none" stroke="black"/>
<path d="M63.9961,217.179h -6.80315" fill="none" stroke="black"/>
<path d="M63.9961,209.6h -6.80315" fill="none" stroke="black"/>
<path d="M63.9961,202.021h -6.80315" fill="none" stroke="black"/>
<path d="M70.7992,194.442h -13.6063" fill="none" stroke="black"/>
<path d="M63.9961,186.863h -6.80315" fill="none" stroke="black"/>
<path d="M63.9961,179.284h -6.80315" fill="none" stroke="black"/>
<path d="M63.9961,171.705h -6.80315" fill="none" stroke="black"/>
<path d="M63.9961,164.126h -6.80315" fill="none" stroke="black"/>
<path d="M70.7992,156.547h -13.6063" fill="none" stroke="black"/>
<path d="M63.9961,148.968h -6.80315" fill="none" stroke="black"/>
<path d="M63.9961,141.389h -6.80315" fill="none" stroke="black"/>
<path d="M63.9961,133.81h -6.80315" fill="none" stroke="black"/>
<path d="M63.9961,126.231h -6.80315" fill="none" stroke="black"/>
<path d="M70.7992,118.652h -13.6063" fill="none" stroke="black"/>
<path d="M63.9961,111.073h -6.80315" fill="none" stroke="black"/>
<path d="M63.9961,103.494h -6.80315" fill="none" stroke="black"/>
<path d="M63.9961,95.9148h -6.80315" fill="none" stroke="black"/>
<path d="M63.9961,88.3358h -6.80315" fill="none" stroke="black"/>
<path d="M70.7992,80.7568h -13.6063" fill="none" stroke="black"/>
<path d="M63.9961,73.1777h -6.80315" fill="none" stroke="black"/>
<path d="M63.9961,65.5987h -6.80315" fill="none" stroke="black"/>
<path d="M63.9961,58.0197h -6.80315" fill="none" stroke="black"/>
<path d="M63.9961,50.4407h -6.80315" fill="none" stroke="black"/>
<path d="M70.7992,42.8617h -13.6063" fill="none" stroke="black"/>
<path d="M70.7992,42.8617h -13.6063" fill="none" stroke="black"/>
<text xml:space="preserve" x="47.7441" y="350.258" fill="black" font-size="12.8453" font-family="Helvetica">0</text>
<text xml:space="preserve" x="33.8967" y="312.788" fill="black" font-size="12.8453" font-family="Helvetica">100</text>
<text xml:space="preserve" x="33.8967" y="274.504" fill="black" font-size="12.8453" font-family="Helvetica">200</text>
<text xml:space="preserve" x="33.8967" y="237.035" fill="black" font-size="12.8453" font-family="Helvetica">300</text>
<text xml:space="preserve" x="33.8967" y="198.751" fill="black" font-size="12.8453" font-family="Helvetica">400</text>
<text xml:space="preserve" x="33.8967" y="161.282" fill="black" font-size="12.8453" font-family="Helvetica">500</text>
<text xml:space="preserve" x="33.8967" y="122.998" fill="black" font-size="12.8453" font-family="Helvetica">600</text>
<text xml:space="preserve" x="33.8967" y="85.5281" fill="black" font-size="12.8453" font-family="Helvetica">700</text>
<text xml:space="preserve" x="33.8967" y="47.2441" fill="black" font-size="12.8453" font-family="Helvetica">800</text>
<g transform="rotate(-90,20.8638,70.0516)">
<text xml:space="preserve" x="20.8638" y="70.0516" fill="black" font-size="12.8453" font-family="Helvetica">Event</text>
</g>
<text xml:space="preserve" x="253.012" y="18.7347" fill="black" font-size="18.0316" font-family="Helvetica">Cs_002</text>
<rect x="442.705" y="24.9905" width="113.386" height="61.5151" fill="white"/>
<path d="M442.705,86.5056h 113.386" fill="none" stroke="black"/>
<path d="M556.091,86.5056v -61.5151" fill="none" stroke="black"/>
<path d="M556.091,24.9905h -113.386" fill="none" stroke="black"/>
<path d="M442.705,24.9905v 61.5151" fill="none" stroke="black"/>
<text xml:space="preserve" x="476.199" y="36.6549" fill="black" font-size="13.4802" font-family="Helvetica">Cs_002</text>
<path d="M442.705,40.3693h 113.386" fill="none" stroke="black"/>
<text xml:space="preserve" x="447.69" y="52.946" fill="black" font-size="12.7186" font-family="Helvetica">Entries </text>
<text xml:space="preserve" x="512.854" y="52.946" fill="black" font-size="12.7186" font-family="Helvetica"> 11907</text>
<text xml:space="preserve" x="447.69" y="67.6079" fill="black" font-size="12.7186" font-family="Helvetica">Mean  </text>
<text xml:space="preserve" x="512.854" y="67.6079" fill="black" font-size="12.7186" font-family="Helvetica">   1373</text>
<text xml:space="preserve" x="447.69" y="83.0844" fill="black" font-size="12.7186" font-family="Helvetica">Std Dev   </text>
<text xml:space="preserve" x="512.854" y="83.0844" fill="black" font-size="12.7186" font-family="Helvetica">  675.4</text>
<text xml:space="preserve" x="253.012" y="18.7347" fill="black" font-size="18.0316" font-family="Helvetica">Cs_002</text></svg>
