<?xml version="1.0" standalone="no"?>
<svg width="567.429" height="384.969" viewBox="0 0 567.429 384.969" xmlns="http://www.w3.org/2000/svg" shape-rendering="crispEdges">
<title>
img/week1/plane_hist/Cs_006.svg
</title>
<desc>
Creator: ROOT Version 6.22/09
CreationDate: Fri Jul  2 19:47:52 2021</desc>
<defs>
</defs>
<rect x="0.5" y="0" width="566.929" height="384.469" fill="white"/>
<rect x="57.1929" y="38.4469" width="453.543" height="307.575" fill="white"/>
<rect x="57.1929" y="38.4469" width="453.543" height="307.575" fill="none" stroke="black"/>
<path d="M57.1929,346.022h 23.0315v -0.465706h 0.442913v -2.32853h 0.442913v -8.84841h 0.442913v 6.05417h 0.442913v -1.39712h 0.442913v 0.931411h 0.885827v -0.465706h 0.442913v -3.25994h 0.442913v 4.19135h 0.442913v -0.931411h 0.442913v 3.25994h
 0.442913v -4.65706h 0.442913v 4.65706h 0.442913v -2.79423h 0.442913v 3.25994h 0.442913v -2.79423h 0.442913v 0.931411h 0.442913v -2.79423h 0.442913v -1.86282h 0.442913v 3.25994h 0.442913v 0.931411h 0.442913v 0.465706h 0.442913v 1.86282h 0.442913v
 -4.65706h 0.442913v 1.86282h 0.442913v 0.465706h 0.442913v -3.72565h 0.442913v 2.79423h 0.442913v 0.465706h 0.442913v 0.465706h 0.442913v 1.86282h 0.442913v -1.39712h 0.442913v -0.465706h 0.885827v -2.32853h 0.442913v 0.931411h 0.885827v -0.465706h
 0.442913v 2.79423h 0.442913v -2.79423h 0.442913v 0.931411h 0.442913v 2.79423h 0.442913v -0.465706h 0.442913v -1.39712h 0.442913v -0.465706h 0.442913v 0.465706h 0.885827v -0.465706h 0.442913v 3.72565h 0.442913v -0.931411h 0.442913v -3.72565h
 0.442913v 2.79423h 0.442913v -0.931411h 0.442913v -1.86282h 0.442913v 1.86282h 0.885827v -1.86282h 0.442913v 1.86282h 0.442913v 1.86282h 0.442913v -1.86282h 0.442913v 0.465706h 0.885827v -0.465706h 0.442913v -2.32853h 0.442913v 3.25994h 0.442913v
 -0.931411h 0.442913v -1.39712h 0.442913v 3.25994h 0.442913v -3.25994h 0.442913v 0.931411h 0.885827v -2.32853h 0.442913v 1.39712h 0.442913v -1.86282h 0.442913v 0.931411h 0.442913v 3.25994h 0.442913v -3.72565h 0.442913v 3.72565h 0.442913v -2.32853h
 0.442913v -0.931411h 0.442913v 3.72565h 0.442913v -0.465706h 0.442913v -3.25994h 0.442913v -1.86282h 0.442913v 6.51988h 0.442913v -0.465706h 0.885827v -1.39712h 0.442913v -2.79423h 0.442913v 3.25994h 0.442913v 0.465706h 0.442913v -2.32853h 0.442913v
 0.465706h 0.885827v 0.465706h 0.442913v 0.465706h 0.885827v -4.19135h 0.442913v 1.39712h 0.885827v 4.65706h 0.442913v -2.32853h 0.442913v -1.86282h 0.442913v 2.79423h 1.32874v -4.65706h 0.885827v -1.39712h 0.442913v 4.19135h 0.442913v -2.79423h
 0.442913v -0.931411h 0.442913v -1.86282h 0.442913v 6.05417h 0.442913v -1.86282h 0.442913v -0.465706h 0.442913v -4.65706h 0.442913v 3.25994h 0.442913v 0.931411h 0.442913v 0.465706h 0.442913v -2.32853h 0.442913v 1.39712h 0.442913v 0.931411h 0.442913v
 0.931411h 0.442913v -1.39712h 0.442913v -1.39712h 0.442913v -3.25994h 0.442913v 4.65706h 0.442913v -0.465706h 0.442913v -1.86282h 0.885827v 1.39712h 0.442913v 0.931411h 0.442913v 1.39712h 0.442913v -2.79423h 0.442913v 2.79423h 0.442913v 1.86282h
 0.442913v -2.79423h 0.442913v 2.79423h 0.442913v 1.86282h 0.442913v -4.65706h 0.442913v 3.25994h 0.442913v -1.39712h 0.885827v 2.32853h 0.442913v -3.72565h 0.442913v 2.32853h 0.442913v -0.931411h 0.442913v 0.465706h 0.442913v -0.465706h 0.442913v
 1.86282h 0.442913v 0.931411h 0.442913v -3.25994h 0.442913v 2.32853h 0.442913v 0.465706h 0.442913v -1.86282h 0.442913v -0.931411h 0.442913v -1.39712h 0.442913v 2.79423h 0.442913v -0.465706h 0.442913v 3.72565h 0.442913v -3.72565h 0.442913v -3.72565h
 0.442913v 4.65706h 0.442913v 0.465706h 0.442913v -1.86282h 0.442913v -0.465706h 0.442913v 0.931411h 0.442913v -0.931411h 0.442913v 0.931411h 0.442913v -3.72565h 0.442913v 0.465706h 0.442913v 3.25994h 0.442913v -4.19135h 0.442913v 5.12276h 0.442913v
 -4.65706h 0.442913v 0.465706h 0.442913v -0.465706h 0.442913v -0.931411h 0.442913v -3.25994h 0.442913v 0.465706h 0.442913v 2.32853h 0.442913v -7.917h 0.442913v 5.58847h 0.442913v -9.77982h 0.442913v 2.79423h 0.442913v -2.32853h 0.442913v 6.98559h
 0.442913v -7.917h 0.442913v -0.931411h 0.442913v -2.79423h 0.442913v -3.25994h 0.442913v 3.25994h 0.442913v -1.39712h 0.442913v -4.65706h 0.442913v 7.917h 0.885827v -1.86282h 0.442913v -7.917h 0.442913v -0.931411h 0.442913v -0.931411h 0.442913v
 15.3683h 0.442913v -4.19135h 0.442913v 0.465706h 0.442913v -2.32853h 0.442913v -1.86282h 0.442913v 8.84841h 0.442913v -11.1769h 0.442913v 16.2997h 0.442913v -7.917h 0.442913v 8.84841h 0.442913v 2.79423h 0.442913v -3.72565h 0.442913v -3.25994h
 0.442913v 4.19135h 0.442913v 6.05417h 0.442913v -4.65706h 0.442913v 0.931411h 0.885827v 4.19135h 0.442913v 2.32853h 0.442913v -3.72565h 0.442913v 6.05417h 0.442913v -2.32853h 0.442913v -2.32853h 0.885827v -4.19135h 0.442913v 1.39712h 0.442913v
 3.25994h 0.442913v -1.86282h 0.442913v 0.931411h 0.442913v 0.465706h 0.442913v 1.39712h 0.442913v 1.86282h 0.442913v -2.79423h 0.442913v -1.39712h 0.442913v 3.72565h 0.442913v -2.79423h 0.442913v 2.79423h 0.442913v -0.931411h 0.442913v -0.931411h
 0.442913v 0.931411h 0.442913v 2.32853h 0.442913v -1.39712h 0.442913v -0.931411h 0.442913v -1.39712h 0.442913v 1.86282h 0.442913v 4.19135h 0.442913v -1.86282h 0.442913v -1.39712h 0.442913v 2.79423h 0.442913v -1.39712h 0.442913v -1.39712h 0.442913v
 0.931411h 0.442913v -1.39712h 0.442913v 2.32853h 0.442913v -1.39712h 0.442913v 0.465706h 0.442913v 2.32853h 0.442913v -1.86282h 0.442913v 0.931411h 0.442913v -0.931411h 0.885827v -0.465706h 0.442913v 1.39712h 0.885827v 1.39712h 0.442913v -3.72565h
 0.442913v 1.39712h 0.442913v 0.465706h 0.442913v 0.931411h 0.442913v 0.465706h 0.442913v -0.465706h 0.442913v -1.39712h 0.442913v 0.931411h 0.442913v 1.86282h 0.442913v -1.39712h 0.442913v 0.465706h 0.442913v -0.465706h 0.885827v -2.79423h 0.442913v
 1.86282h 0.442913v -1.86282h 0.442913v 2.32853h 0.442913v 0.465706h 0.442913v -0.465706h 0.885827v -0.931411h 0.442913v 0.931411h 0.885827v 0.465706h 0.442913v 0.465706h 0.885827v -1.86282h 0.442913v -0.931411h 0.442913v 2.79423h 0.442913v -1.86282h
 0.442913v 1.39712h 0.442913v 0.931411h 0.442913v -0.465706h 0.442913v -2.79423h 0.442913v 0.931411h 0.442913v 1.86282h 0.442913v -1.86282h 0.885827v 1.86282h 0.442913v -1.39712h 0.442913v 1.86282h 0.442913v -2.32853h 0.442913v -0.465706h 0.442913v
 0.931411h 0.442913v 1.39712h 0.442913v -0.931411h 0.442913v -0.465706h 0.442913v 0.465706h 0.442913v 0.465706h 0.442913v 0.465706h 0.442913v -1.86282h 0.442913v 0.465706h 0.442913v 0.465706h 0.442913v 1.39712h 0.442913v -0.931411h 1.32874v -1.39712h
 0.442913v 0.931411h 0.442913v -3.25994h 0.442913v 3.25994h 0.442913v -0.465706h 0.442913v 0.465706h 0.885827v -0.465706h 0.442913v 0.465706h 0.442913v -0.931411h 0.442913v -0.465706h 0.442913v 2.32853h 0.442913v -1.86282h 0.442913v 1.86282h
 0.442913v -1.86282h 0.442913v 1.39712h 0.442913v 0.465706h 0.442913v -0.931411h 0.442913v 0.465706h 0.885827v 0.465706h 0.442913v -0.931411h 0.442913v 0.931411h 0.442913v -0.465706h 0.885827v -0.931411h 0.885827v 2.32853h 0.442913v -1.39712h
 0.442913v -1.86282h 0.442913v 1.39712h 0.442913v 0.465706h 0.442913v -0.465706h 0.442913v 0.931411h 0.442913v -0.931411h 0.442913v 0.465706h 0.885827v -1.39712h 0.442913v 1.39712h 0.442913v -0.465706h 0.442913v 1.39712h 0.442913v -2.32853h 0.885827v
 0.931411h 0.442913v 1.39712h 0.442913v -0.465706h 0.442913v -0.465706h 0.442913v -0.931411h 0.442913v 0.465706h 0.885827v 1.39712h 0.442913v -0.465706h 0.442913v -1.39712h 0.442913v 0.931411h 0.442913v 0.465706h 0.442913v -2.79423h 0.442913v
 1.86282h 0.442913v 0.465706h 0.442913v -1.39712h 0.442913v 1.39712h 1.32874v -0.465706h 0.442913v 0.931411h 0.442913v -0.465706h 0.442913v -0.931411h 0.442913v -0.465706h 0.442913v 1.39712h 0.442913v -0.931411h 0.442913v 1.86282h 0.442913v
 -0.931411h 0.885827v -0.465706h 0.885827v -0.465706h 0.442913v 1.86282h 0.442913v -1.39712h 0.885827v 0.465706h 0.442913v -0.465706h 0.442913v 0.931411h 0.442913v -1.39712h 0.442913v -0.931411h 0.442913v 1.86282h 0.442913v -1.39712h 0.442913v
 1.39712h 0.442913v -0.465706h 0.442913v -1.39712h 0.442913v 0.931411h 0.442913v 2.32853h 0.442913v -2.32853h 0.442913v 1.86282h 0.442913v -1.86282h 0.442913v -0.465706h 0.442913v 1.39712h 0.442913v -1.86282h 0.442913v 1.86282h 0.442913v -2.32853h
 0.442913v 3.25994h 0.442913v -0.931411h 0.442913v -0.931411h 0.442913v -0.465706h 0.885827v 1.39712h 0.442913v -0.931411h 0.885827v 0.931411h 0.442913v -1.39712h 0.442913v 2.32853h 0.442913v -1.86282h 0.442913v 1.39712h 0.442913v -0.931411h
 0.442913v 0.465706h 0.885827v -0.465706h 0.442913v 0.931411h 0.442913v -1.39712h 0.442913v 0.465706h 0.442913v 0.465706h 2.65748v 0.465706h 0.442913v 0.931411h 0.442913v -0.931411h 0.442913v 0.931411h 0.442913v -0.931411h 0.442913v -0.465706h
 0.442913v 0.465706h 0.442913v 0.931411h 0.442913v -1.86282h 0.442913v 0.931411h 0.442913v -0.465706h 0.442913v -0.465706h 0.442913v 0.931411h 0.442913v 0.465706h 0.442913v -0.931411h 0.885827v -1.39712h 0.442913v 0.931411h 0.885827v -0.465706h
 0.442913v 0.465706h 0.442913v 0.465706h 0.442913v 0.465706h 0.442913v -1.39712h 0.885827v -0.931411h 0.442913v 1.86282h 0.442913v -0.465706h 0.442913v -0.931411h 0.442913v 1.86282h 0.885827v -0.465706h 0.442913v -1.39712h 0.442913v 0.465706h
 0.885827v 0.465706h 0.442913v 0.931411h 0.442913v -1.86282h 0.442913v 0.931411h 0.442913v 0.931411h 0.442913v -0.931411h 0.442913v 0.465706h 0.442913v -0.465706h 0.442913v -0.931411h 0.442913v 1.86282h 0.442913v -0.931411h 0.442913v 0.931411h
 0.442913v -0.465706h 0.442913v 0.465706h 0.442913v 0.465706h 0.442913v -1.86282h 0.442913v 1.39712h 0.442913v -0.931411h 0.442913v -0.465706h 0.442913v 0.465706h 0.885827v 0.465706h 0.885827v -0.465706h 0.885827v 0.465706h 0.442913v -0.931411h
 0.885827v 0.465706h 0.885827v -0.465706h 0.442913v 1.86282h 0.442913v -0.931411h 1.32874v -0.931411h 0.442913v 1.86282h 0.442913v -1.86282h 0.442913v 0.931411h 0.442913v -1.39712h 0.442913v 1.39712h 0.442913v 1.39712h 0.442913v -1.39712h 0.442913v
 -0.465706h 0.885827v 0.465706h 0.442913v -0.931411h 0.442913v 1.39712h 0.442913v -3.25994h 0.442913v 0.931411h 0.442913v 1.86282h 0.442913v -0.465706h 0.442913v 0.931411h 0.885827v 0.465706h 0.442913v -1.86282h 0.885827v 1.86282h 0.442913v -1.86282h
 0.442913v 1.39712h 0.442913v -0.931411h 0.442913v -0.931411h 0.442913v 1.39712h 0.442913v 0.465706h 0.442913v -1.86282h 0.442913v 1.39712h 0.885827v 0.465706h 0.885827v -0.931411h 0.442913v -0.465706h 0.442913v 1.86282h 0.442913v -0.931411h
 0.885827v 0.931411h 0.442913v -1.39712h 0.442913v 0.931411h 0.442913v -0.465706h 0.442913v -0.465706h 0.442913v -0.931411h 0.442913v 0.931411h 0.885827v 0.931411h 0.885827v -0.931411h 0.442913v -1.39712h 0.442913v 2.32853h 0.442913v -0.465706h
 0.442913v -1.39712h 0.442913v 1.86282h 0.442913v 0.465706h 0.442913v -1.39712h 0.885827v 0.465706h 0.442913v -0.465706h 0.442913v -0.465706h 0.442913v 2.32853h 0.442913v -0.931411h 0.442913v -0.465706h 0.442913v -1.86282h 0.442913v 2.32853h
 0.885827v -1.39712h 0.442913v 0.931411h 0.885827v -0.465706h 0.442913v 0.465706h 1.32874v 1.39712h 0.442913v -1.86282h 0.442913v 0.465706h 0.442913v -0.931411h 0.442913v 0.465706h 0.885827v 1.86282h 0.442913v -3.25994h 0.442913v 1.39712h 0.442913v
 -0.465706h 0.442913v 2.32853h 0.442913v -1.86282h 0.442913v -0.465706h 0.442913v -0.465706h 0.442913v 1.39712h 0.442913v 0.931411h 0.442913v -0.465706h 0.442913v -1.39712h 0.442913v -0.465706h 0.442913v 0.465706h 0.442913v 0.931411h 0.885827v
 -0.465706h 0.442913v 0.465706h 0.442913v 0.465706h 0.442913v -2.79423h 0.442913v 2.79423h 0.442913v -0.465706h 0.885827v 0.931411h 0.442913v -0.931411h 0.442913v 0.465706h 0.442913v -1.39712h 0.442913v -1.39712h 0.442913v -3.25994h 0.442913v
 -6.98559h 0.442913v -132.26h 0.442913v -146.697h 0.442913v 74.0472h 0.442913v 11.6426h 0.442913v 18.1625h 0.442913v 74.9786h 0.442913v 63.8017h 0.442913v -2.32853h 0.442913v -5.12276h 0.442913v 5.12276h 0.442913v 2.32853h 0.442913v 12.5741h
 0.442913v -10.7112h 0.442913v 4.65706h 0.442913v -1.39712h 0.442913v 13.5055h 0.442913v -4.19135h 0.442913v 1.39712h 0.442913v -6.05417h 0.442913v 9.31411h 0.442913v 5.12276h 0.442913v -7.45129h 0.442913v 1.39712h 0.442913v -0.465706h 0.442913v
 9.77982h 0.442913v -0.931411h 0.442913v -6.51988h 0.442913v 9.77982h 0.442913v -3.25994h 0.442913v 11.6426h 0.442913v -5.58847h 0.442913v 1.39712h 0.442913v 4.19135h 0.442913v -0.465706h 0.442913v 6.51988h 0.442913v 1.86282h 0.442913v 0.931411h
 0.442913v 1.86282h 0.442913v 0.465706h 0.442913v 0.931411h 134.646" fill="none" stroke="#000099"/>
<path d="M57.1929,346.022h 453.543" fill="none" stroke="black"/>
<path d="M57.1929,336.795v 9.22726" fill="none" stroke="black"/>
<path d="M71.9567,341.409v 4.61363" fill="none" stroke="black"/>
<path d="M86.7205,341.409v 4.61363" fill="none" stroke="black"/>
<path d="M101.484,341.409v 4.61363" fill="none" stroke="black"/>
<path d="M116.248,341.409v 4.61363" fill="none" stroke="black"/>
<path d="M131.012,336.795v 9.22726" fill="none" stroke="black"/>
<path d="M145.776,341.409v 4.61363" fill="none" stroke="black"/>
<path d="M160.539,341.409v 4.61363" fill="none" stroke="black"/>
<path d="M175.303,341.409v 4.61363" fill="none" stroke="black"/>
<path d="M190.067,341.409v 4.61363" fill="none" stroke="black"/>
<path d="M204.831,336.795v 9.22726" fill="none" stroke="black"/>
<path d="M219.594,341.409v 4.61363" fill="none" stroke="black"/>
<path d="M234.358,341.409v 4.61363" fill="none" stroke="black"/>
<path d="M249.122,341.409v 4.61363" fill="none" stroke="black"/>
<path d="M263.886,341.409v 4.61363" fill="none" stroke="black"/>
<path d="M278.65,336.795v 9.22726" fill="none" stroke="black"/>
<path d="M293.413,341.409v 4.61363" fill="none" stroke="black"/>
<path d="M308.177,341.409v 4.61363" fill="none" stroke="black"/>
<path d="M322.941,341.409v 4.61363" fill="none" stroke="black"/>
<path d="M337.705,341.409v 4.61363" fill="none" stroke="black"/>
<path d="M352.469,336.795v 9.22726" fill="none" stroke="black"/>
<path d="M367.232,341.409v 4.61363" fill="none" stroke="black"/>
<path d="M381.996,341.409v 4.61363" fill="none" stroke="black"/>
<path d="M396.76,341.409v 4.61363" fill="none" stroke="black"/>
<path d="M411.524,341.409v 4.61363" fill="none" stroke="black"/>
<path d="M426.287,336.795v 9.22726" fill="none" stroke="black"/>
<path d="M441.051,341.409v 4.61363" fill="none" stroke="black"/>
<path d="M455.815,341.409v 4.61363" fill="none" stroke="black"/>
<path d="M470.579,341.409v 4.61363" fill="none" stroke="black"/>
<path d="M485.343,341.409v 4.61363" fill="none" stroke="black"/>
<path d="M500.106,336.795v 9.22726" fill="none" stroke="black"/>
<path d="M500.106,336.795v 9.22726" fill="none" stroke="black"/>
<text xml:space="preserve" x="53.446" y="358.403" fill="black" font-size="12.8453" font-family="Helvetica">0</text>
<text xml:space="preserve" x="120.239" y="358.403" fill="black" font-size="12.8453" font-family="Helvetica">500</text>
<text xml:space="preserve" x="190.291" y="358.403" fill="black" font-size="12.8453" font-family="Helvetica">1000</text>
<text xml:space="preserve" x="264.415" y="358.403" fill="black" font-size="12.8453" font-family="Helvetica">1500</text>
<text xml:space="preserve" x="338.54" y="358.403" fill="black" font-size="12.8453" font-family="Helvetica">2000</text>
<text xml:space="preserve" x="411.849" y="358.403" fill="black" font-size="12.8453" font-family="Helvetica">2500</text>
<text xml:space="preserve" x="485.974" y="358.403" fill="black" font-size="12.8453" font-family="Helvetica">3000</text>
<text xml:space="preserve" x="451.763" y="372.251" fill="black" font-size="12.8453" font-family="Helvetica">ADC value</text>
<path d="M57.1929,346.022v -307.575" fill="none" stroke="black"/>
<path d="M70.7992,346.022h -13.6063" fill="none" stroke="black"/>
<path d="M63.9961,336.708h -6.80315" fill="none" stroke="black"/>
<path d="M63.9961,327.394h -6.80315" fill="none" stroke="black"/>
<path d="M63.9961,318.08h -6.80315" fill="none" stroke="black"/>
<path d="M63.9961,308.766h -6.80315" fill="none" stroke="black"/>
<path d="M70.7992,299.452h -13.6063" fill="none" stroke="black"/>
<path d="M63.9961,290.138h -6.80315" fill="none" stroke="black"/>
<path d="M63.9961,280.823h -6.80315" fill="none" stroke="black"/>
<path d="M63.9961,271.509h -6.80315" fill="none" stroke="black"/>
<path d="M63.9961,262.195h -6.80315" fill="none" stroke="black"/>
<path d="M70.7992,252.881h -13.6063" fill="none" stroke="black"/>
<path d="M63.9961,243.567h -6.80315" fill="none" stroke="black"/>
<path d="M63.9961,234.253h -6.80315" fill="none" stroke="black"/>
<path d="M63.9961,224.939h -6.80315" fill="none" stroke="black"/>
<path d="M63.9961,215.625h -6.80315" fill="none" stroke="black"/>
<path d="M70.7992,206.311h -13.6063" fill="none" stroke="black"/>
<path d="M63.9961,196.996h -6.80315" fill="none" stroke="black"/>
<path d="M63.9961,187.682h -6.80315" fill="none" stroke="black"/>
<path d="M63.9961,178.368h -6.80315" fill="none" stroke="black"/>
<path d="M63.9961,169.054h -6.80315" fill="none" stroke="black"/>
<path d="M70.7992,159.74h -13.6063" fill="none" stroke="black"/>
<path d="M63.9961,150.426h -6.80315" fill="none" stroke="black"/>
<path d="M63.9961,141.112h -6.80315" fill="none" stroke="black"/>
<path d="M63.9961,131.798h -6.80315" fill="none" stroke="black"/>
<path d="M63.9961,122.484h -6.80315" fill="none" stroke="black"/>
<path d="M70.7992,113.169h -13.6063" fill="none" stroke="black"/>
<path d="M63.9961,103.855h -6.80315" fill="none" stroke="black"/>
<path d="M63.9961,94.5412h -6.80315" fill="none" stroke="black"/>
<path d="M63.9961,85.2271h -6.80315" fill="none" stroke="black"/>
<path d="M63.9961,75.9129h -6.80315" fill="none" stroke="black"/>
<path d="M70.7992,66.5988h -13.6063" fill="none" stroke="black"/>
<path d="M70.7992,66.5988h -13.6063" fill="none" stroke="black"/>
<path d="M63.9961,57.2847h -6.80315" fill="none" stroke="black"/>
<path d="M63.9961,47.9706h -6.80315" fill="none" stroke="black"/>
<path d="M63.9961,38.6565h -6.80315" fill="none" stroke="black"/>
<text xml:space="preserve" x="47.7441" y="350.258" fill="black" font-size="12.8453" font-family="Helvetica">0</text>
<text xml:space="preserve" x="33.8967" y="303.828" fill="black" font-size="12.8453" font-family="Helvetica">100</text>
<text xml:space="preserve" x="33.8967" y="257.399" fill="black" font-size="12.8453" font-family="Helvetica">200</text>
<text xml:space="preserve" x="33.8967" y="210.969" fill="black" font-size="12.8453" font-family="Helvetica">300</text>
<text xml:space="preserve" x="33.8967" y="164.54" fill="black" font-size="12.8453" font-family="Helvetica">400</text>
<text xml:space="preserve" x="33.8967" y="117.296" fill="black" font-size="12.8453" font-family="Helvetica">500</text>
<text xml:space="preserve" x="33.8967" y="70.8661" fill="black" font-size="12.8453" font-family="Helvetica">600</text>
<g transform="rotate(-90,20.8638,70.0516)">
<text xml:space="preserve" x="20.8638" y="70.0516" fill="black" font-size="12.8453" font-family="Helvetica">Event</text>
</g>
<text xml:space="preserve" x="253.012" y="18.7347" fill="black" font-size="18.0316" font-family="Helvetica">Cs_006</text>
<rect x="442.705" y="24.9905" width="113.386" height="61.5151" fill="white"/>
<path d="M442.705,86.5056h 113.386" fill="none" stroke="black"/>
<path d="M556.091,86.5056v -61.5151" fill="none" stroke="black"/>
<path d="M556.091,24.9905h -113.386" fill="none" stroke="black"/>
<path d="M442.705,24.9905v 61.5151" fill="none" stroke="black"/>
<text xml:space="preserve" x="476.199" y="36.6549" fill="black" font-size="13.4802" font-family="Helvetica">Cs_006</text>
<path d="M442.705,40.3693h 113.386" fill="none" stroke="black"/>
<text xml:space="preserve" x="447.69" y="52.946" fill="black" font-size="12.7186" font-family="Helvetica">Entries </text>
<text xml:space="preserve" x="512.854" y="52.946" fill="black" font-size="12.7186" font-family="Helvetica"> 10524</text>
<text xml:space="preserve" x="447.69" y="67.6079" fill="black" font-size="12.7186" font-family="Helvetica">Mean  </text>
<text xml:space="preserve" x="512.854" y="67.6079" fill="black" font-size="12.7186" font-family="Helvetica">   1355</text>
<text xml:space="preserve" x="447.69" y="83.0844" fill="black" font-size="12.7186" font-family="Helvetica">Std Dev   </text>
<text xml:space="preserve" x="512.854" y="83.0844" fill="black" font-size="12.7186" font-family="Helvetica">  707.3</text>
<text xml:space="preserve" x="253.012" y="18.7347" fill="black" font-size="18.0316" font-family="Helvetica">Cs_006</text></svg>
