<?xml version="1.0" standalone="no"?>
<svg width="567.429" height="384.969" viewBox="0 0 567.429 384.969" xmlns="http://www.w3.org/2000/svg" shape-rendering="crispEdges">
<title>
img/week1/plane_hist/Cs_007.svg
</title>
<desc>
Creator: ROOT Version 6.22/09
CreationDate: Tue Jul 13 15:52:57 2021</desc>
<defs>
</defs>
<rect x="0.5" y="0" width="566.929" height="384.469" fill="white"/>
<rect x="57.1929" y="38.4469" width="453.543" height="307.575" fill="white"/>
<rect x="57.1929" y="38.4469" width="453.543" height="307.575" fill="none" stroke="black"/>
<path d="M57.1929,346.022h 33.3395v -3.9648h 0.629048v -74.8648h 0.629048v -198.007h 0.629048v -16.0924h 0.629048v 109.615h 0.629048v 8.39605h 0.629048v 31.252h 0.629048v 33.8174h 0.629048v 32.8845h 0.629048v 30.7855h 0.629048v 0.932895h 0.629048v
 11.1947h 0.629048v 12.1276h 0.629048v 5.36414h 0.629048v 2.56546h 0.629048v 2.33224h 0.629048v 3.03191h 0.629048v 3.03191h 0.629048v 0.932895h 0.629048v 1.16612h 1.2581v 0.466447h 0.629048v 0.699671h 0.629048v 0.699671h 0.629048v 0.699671h 0.629048v
 0.466447h 0.629048v -0.466447h 0.629048v 0.233224h 0.629048v -1.16612h 0.629048v 1.39934h 0.629048v -0.466447h 1.2581v 0.233224h 0.629048v -0.466447h 0.629048v 0.932895h 0.629048v -1.39934h 0.629048v 1.16612h 0.629048v -0.233224h 0.629048v -1.39934h
 0.629048v 0.932895h 0.629048v 0.466447h 0.629048v 0.233224h 0.629048v 0.233224h 0.629048v -0.699671h 0.629048v 0.233224h 0.629048v -0.233224h 1.2581v -0.699671h 0.629048v -0.466447h 0.629048v 1.39934h 0.629048v -0.932895h 0.629048v 0.233224h
 0.629048v 0.233224h 0.629048v 0.233224h 0.629048v 0.233224h 0.629048v -0.699671h 0.629048v -1.16612h 0.629048v 1.63257h 0.629048v -0.466447h 0.629048v 0.932895h 0.629048v 0.233224h 0.629048v -0.466447h 0.629048v -0.233224h 0.629048v -0.233224h
 0.629048v 0.233224h 0.629048v 0.699671h 0.629048v -0.466447h 0.629048v -0.233224h 0.629048v 0.233224h 0.629048v -0.233224h 0.629048v 0.699671h 0.629048v -0.699671h 1.2581v 0.699671h 0.629048v -0.233224h 0.629048v -0.699671h 0.629048v 0.233224h
 1.2581v 0.233224h 0.629048v -0.699671h 0.629048v 0.699671h 0.629048v -0.233224h 1.2581v -0.233224h 1.2581v -0.932895h 0.629048v 1.39934h 0.629048v -0.699671h 0.629048v 0.233224h 0.629048v -0.233224h 0.629048v -0.233224h 0.629048v 0.932895h 0.629048v
 -0.233224h 0.629048v 0.466447h 0.629048v -0.699671h 0.629048v 0.233224h 0.629048v -0.466447h 0.629048v 0.466447h 0.629048v 0.466447h 0.629048v -0.233224h 1.2581v 0.466447h 0.629048v -0.932895h 0.629048v 0.466447h 0.629048v -0.466447h 1.2581v
 0.932895h 0.629048v -0.699671h 0.629048v 0.466447h 0.629048v 0.233224h 0.629048v -0.932895h 0.629048v 0.466447h 0.629048v -0.466447h 0.629048v -0.466447h 0.629048v 0.466447h 0.629048v 0.466447h 0.629048v 0.233224h 0.629048v -0.233224h 0.629048v
 -0.466447h 0.629048v 0.466447h 0.629048v 0.233224h 0.629048v -1.39934h 0.629048v 1.86579h 1.2581v -0.699671h 0.629048v 0.699671h 0.629048v -0.699671h 0.629048v -0.233224h 0.629048v 0.699671h 0.629048v -0.233224h 0.629048v -0.466447h 0.629048v
 -0.233224h 0.629048v 0.466447h 0.629048v 0.466447h 1.2581v -0.699671h 0.629048v 0.233224h 0.629048v -0.233224h 1.2581v -0.466447h 0.629048v 0.699671h 0.629048v 0.233224h 0.629048v -0.466447h 1.2581v 0.699671h 0.629048v -1.16612h 0.629048v 0.466447h
 1.88714v 0.466447h 1.2581v -0.699671h 0.629048v 0.932895h 0.629048v -0.699671h 0.629048v -0.233224h 0.629048v 0.466447h 1.2581v -0.233224h 0.629048v -0.233224h 1.2581v 0.466447h 0.629048v 0.466447h 0.629048v -1.63257h 0.629048v 0.699671h 0.629048v
 -1.16612h 0.629048v 1.63257h 0.629048v -0.699671h 1.2581v 0.466447h 0.629048v -0.699671h 0.629048v 0.932895h 0.629048v -0.699671h 0.629048v -0.932895h 0.629048v 0.466447h 0.629048v 0.699671h 1.2581v -0.466447h 0.629048v 0.699671h 0.629048v -1.39934h
 0.629048v 0.466447h 0.629048v -0.932895h 0.629048v 1.39934h 0.629048v -1.16612h 0.629048v 1.86579h 0.629048v -0.466447h 0.629048v -0.699671h 0.629048v 0.699671h 0.629048v -0.466447h 0.629048v -0.233224h 0.629048v 0.466447h 0.629048v -1.39934h
 0.629048v 1.39934h 0.629048v -0.932895h 0.629048v 0.466447h 0.629048v 0.466447h 0.629048v 0.233224h 0.629048v -1.16612h 0.629048v 0.233224h 0.629048v 0.699671h 0.629048v -1.16612h 0.629048v 1.63257h 0.629048v -0.466447h 0.629048v 0.466447h 0.629048v
 -1.39934h 0.629048v 1.16612h 0.629048v 0.466447h 0.629048v -0.932895h 0.629048v 0.466447h 0.629048v 0.233224h 0.629048v -0.233224h 0.629048v 0.466447h 0.629048v -1.16612h 0.629048v 0.932895h 1.2581v -0.932895h 0.629048v 0.233224h 0.629048v 0.932895h
 0.629048v -1.39934h 0.629048v 0.932895h 0.629048v 0.233224h 0.629048v -0.233224h 0.629048v -0.233224h 0.629048v 0.699671h 0.629048v -1.16612h 0.629048v 1.16612h 0.629048v 0.699671h 0.629048v -0.466447h 0.629048v -1.63257h 0.629048v 0.466447h
 0.629048v 0.932895h 0.629048v -0.466447h 0.629048v -0.233224h 0.629048v 0.233224h 0.629048v 0.466447h 0.629048v -1.39934h 0.629048v 1.63257h 0.629048v -0.233224h 0.629048v -0.699671h 0.629048v 0.932895h 1.2581v -0.932895h 0.629048v 1.16612h
 0.629048v -0.466447h 0.629048v -0.233224h 0.629048v -0.233224h 0.629048v 0.233224h 1.2581v -0.233224h 0.629048v 0.466447h 0.629048v -0.233224h 0.629048v 0.233224h 0.629048v -1.16612h 0.629048v 1.39934h 0.629048v -1.16612h 1.2581v 0.699671h 1.2581v
 0.466447h 0.629048v -0.932895h 0.629048v 0.233224h 0.629048v 0.699671h 0.629048v -0.699671h 0.629048v -0.233224h 1.88714v -1.16612h 0.629048v 0.233224h 0.629048v -1.39934h 0.629048v 1.86579h 0.629048v -0.233224h 0.629048v 1.16612h 0.629048v
 -0.233224h 0.629048v -1.16612h 0.629048v -0.699671h 0.629048v -0.233224h 0.629048v -0.699671h 0.629048v 1.63257h 0.629048v -1.16612h 0.629048v 1.39934h 0.629048v -0.932895h 0.629048v 1.39934h 0.629048v -0.466447h 0.629048v -2.79868h 0.629048v
 0.233224h 0.629048v 0.699671h 0.629048v -0.233224h 0.629048v 0.233224h 0.629048v -2.09901h 0.629048v 1.39934h 0.629048v 0.466447h 0.629048v 0.233224h 0.629048v -1.86579h 0.629048v -0.233224h 0.629048v 0.466447h 0.629048v 1.63257h 0.629048v
 -0.699671h 0.629048v -2.56546h 0.629048v 1.16612h 0.629048v 2.79868h 0.629048v -0.466447h 0.629048v -1.39934h 0.629048v -1.63257h 0.629048v 2.33224h 0.629048v -0.699671h 0.629048v 0.466447h 0.629048v -0.699671h 0.629048v 1.16612h 1.88714v -1.39934h
 0.629048v 1.39934h 0.629048v 0.932895h 0.629048v 0.932895h 1.2581v -1.39934h 1.2581v -0.233224h 0.629048v 0.466447h 0.629048v 0.466447h 1.2581v 1.63257h 0.629048v -1.39934h 1.2581v 0.466447h 0.629048v 0.699671h 0.629048v -2.09901h 0.629048v 1.63257h
 0.629048v 0.699671h 1.2581v 0.466447h 0.629048v -1.16612h 0.629048v 1.39934h 0.629048v -1.39934h 0.629048v 0.699671h 0.629048v 0.466447h 0.629048v 0.233224h 0.629048v -0.932895h 0.629048v -0.466447h 0.629048v 0.699671h 0.629048v 0.932895h 0.629048v
 -0.466447h 1.2581v -0.233224h 0.629048v -0.699671h 0.629048v 0.466447h 0.629048v 0.233224h 0.629048v -0.932895h 0.629048v 0.466447h 0.629048v -1.39934h 0.629048v 2.33224h 0.629048v -1.39934h 0.629048v -0.932895h 0.629048v 0.466447h 0.629048v
 0.233224h 0.629048v 0.932895h 0.629048v -0.466447h 0.629048v 0.233224h 1.2581v 0.233224h 0.629048v -0.233224h 0.629048v 1.16612h 0.629048v -0.233224h 0.629048v -1.86579h 0.629048v 0.699671h 0.629048v 0.932895h 1.88714v 0.233224h 1.88714v 0.466447h
 0.629048v -0.466447h 1.2581v -0.233224h 0.629048v 0.233224h 0.629048v 0.233224h 0.629048v 0.233224h 0.629048v -0.699671h 0.629048v 0.233224h 0.629048v 0.233224h 1.88714v 0.233224h 1.2581v -0.466447h 0.629048v 0.699671h 0.629048v -0.699671h 0.629048v
 0.699671h 0.629048v -0.466447h 0.629048v -0.233224h 0.629048v 0.699671h 1.2581v -0.699671h 0.629048v 0.699671h 0.629048v -0.932895h 0.629048v 0.932895h 0.629048v -0.699671h 0.629048v 0.699671h 0.629048v -0.466447h 0.629048v -0.233224h 0.629048v
 0.233224h 0.629048v 0.233224h 1.2581v -0.233224h 0.629048v 0.233224h 0.629048v -0.466447h 0.629048v 0.466447h 1.2581v -0.466447h 0.629048v 0.699671h 0.629048v -0.466447h 1.88714v -0.233224h 0.629048v 0.466447h 0.629048v -0.699671h 0.629048v
 0.932895h 0.629048v -0.466447h 0.629048v 0.466447h 0.629048v -0.233224h 1.2581v -0.466447h 0.629048v 0.466447h 3.77429v -0.233224h 1.2581v 0.233224h 0.629048v -0.932895h 0.629048v 1.16612h 0.629048v -0.699671h 0.629048v 0.466447h 1.2581v -0.233224h
 0.629048v 0.233224h 0.629048v -0.233224h 0.629048v 0.466447h 1.2581v -0.233224h 0.629048v -0.233224h 0.629048v -0.233224h 0.629048v -0.233224h 0.629048v 0.699671h 0.629048v -0.233224h 0.629048v -0.466447h 0.629048v 0.699671h 0.629048v 0.233224h
 0.629048v -0.466447h 1.2581v 0.466447h 0.629048v -0.466447h 0.629048v 0.466447h 0.629048v -0.233224h 0.629048v -0.233224h 1.2581v 0.466447h 0.629048v -0.466447h 0.629048v -0.466447h 0.629048v 0.699671h 0.629048v 0.233224h 0.629048v -0.233224h
 0.629048v -0.466447h 0.629048v 0.699671h 0.629048v -0.233224h 0.629048v -0.233224h 0.629048v 0.233224h 1.88714v -0.233224h 0.629048v 0.233224h 0.629048v -0.233224h 0.629048v 0.233224h 1.88714v 0.233224h 0.629048v -0.233224h 1.88714v -0.466447h
 1.2581v -0.233224h 0.629048v 0.466447h 0.629048v 0.466447h 1.2581v -0.466447h 0.629048v 0.233224h 0.629048v -0.233224h 0.629048v 0.466447h 0.629048v -0.699671h 1.2581v 0.699671h 0.629048v -0.466447h 0.629048v -0.233224h 0.629048v 0.699671h 0.629048v
 -0.699671h 1.88714v -0.932895h 0.629048v 1.63257h 0.629048v -0.466447h 0.629048v -0.233224h 0.629048v 0.466447h 1.88714v -0.466447h 0.629048v 0.466447h 0.629048v 0.233224h 1.2581v -0.466447h 0.629048v 0.233224h 0.629048v -0.233224h 0.629048v
 0.233224h 0.629048v -0.233224h 1.2581v -0.466447h 0.629048v 0.233224h 0.629048v 0.233224h 0.629048v 0.233224h 0.629048v -0.466447h 0.629048v 0.699671h 1.88714v -0.233224h 1.88714v 0.233224h 0.629048v -0.699671h 0.629048v 0.233224h 0.629048v
 0.466447h 1.88714v -0.233224h 0.629048v 0.233224h 0.629048v -0.466447h 1.88714v 0.466447h 0.629048v -0.932895h 0.629048v 0.699671h 1.2581v 0.233224h 0.629048v -0.233224h 0.629048v -0.233224h 0.629048v 0.233224h 0.629048v 0.233224h 0.629048v
 -0.466447h 0.629048v 0.233224h 0.629048v -0.699671h 0.629048v 0.466447h 1.2581v -0.233224h 0.629048v 0.233224h 0.629048v 0.233224h 0.629048v 0.233224h 0.629048v -0.233224h 1.2581v -0.233224h 0.629048v -0.699671h 0.629048v 0.932895h 0.629048v
 -0.233224h 0.629048v -0.233224h 0.629048v 0.233224h 1.2581v 0.233224h 0.629048v -0.233224h 0.629048v 0.466447h 1.2581v -0.233224h 0.629048v 0.233224h 0.629048v -0.466447h 0.629048v 0.233224h 0.629048v -0.699671h 0.629048v 0.233224h 0.629048v
 0.699671h 0.629048v -0.233224h 1.2581v -0.233224h 0.629048v 0.466447h 0.629048v -0.466447h 0.629048v 0.233224h 0.629048v 0.233224h 0.629048v -0.233224h 0.629048v 0.233224h 0.629048v -0.233224h 1.2581v -0.699671h 0.629048v 0.466447h 1.88714v
 0.466447h 0.629048v -0.699671h 0.629048v 0.466447h 1.88714v -0.466447h 0.629048v 0.466447h 1.2581v -0.466447h 0.629048v 0.699671h 1.2581v -0.699671h 0.629048v -0.466447h 0.629048v 1.16612h 0.629048v -0.233224h 1.2581v -0.466447h 0.629048v 0.233224h
 0.629048v -0.233224h 0.629048v 0.233224h 0.629048v 0.233224h 0.629048v -0.466447h 0.629048v 0.466447h 0.629048v -0.233224h 0.629048v 0.466447h 0.629048v -0.466447h 0.629048v 0.466447h 0.629048v -0.233224h 0.629048v 0.233224h 1.88714v -0.932895h
 0.629048v 0.466447h 0.629048v 0.233224h 0.629048v -0.466447h 0.629048v -5.83059h 0.629048v -47.3444h 0.629048v -33.1178h 0.629048v 34.2839h 0.629048v -11.1947h 0.629048v 8.8625h 0.629048v 19.5908h 0.629048v 19.3576h 1.2581v -6.53026h 0.629048v
 10.0286h 0.629048v 1.63257h 0.629048v -2.56546h 0.629048v 3.9648h 0.629048v -0.233224h 0.629048v -2.79868h 0.629048v 2.56546h 0.629048v 2.79868h 0.629048v -3.73158h 0.629048v -1.16612h 0.629048v 2.79868h 0.629048v -0.466447h 1.2581v 0.932895h
 1.2581v 1.39934h 0.629048v 0.932895h 0.629048v -3.03191h 0.629048v -1.16612h 0.629048v 1.86579h 0.629048v 4.43125h 0.629048v -2.79868h 0.629048v -1.63257h 0.629048v 3.49835h 0.629048v -0.699671h 0.629048v -1.16612h 0.629048v 3.49835h 0.629048v
 0.932895h 1.2581v 1.63257h 0.629048v 0.699671h 0.629048" fill="none" stroke="#000099"/>
<path d="M57.1929,346.022h 453.543" fill="none" stroke="black"/>
<path d="M57.822,336.795v 9.22726" fill="none" stroke="black"/>
<path d="M78.7902,341.409v 4.61363" fill="none" stroke="black"/>
<path d="M99.7585,341.409v 4.61363" fill="none" stroke="black"/>
<path d="M120.727,341.409v 4.61363" fill="none" stroke="black"/>
<path d="M141.695,341.409v 4.61363" fill="none" stroke="black"/>
<path d="M162.663,336.795v 9.22726" fill="none" stroke="black"/>
<path d="M183.631,341.409v 4.61363" fill="none" stroke="black"/>
<path d="M204.6,341.409v 4.61363" fill="none" stroke="black"/>
<path d="M225.568,341.409v 4.61363" fill="none" stroke="black"/>
<path d="M246.536,341.409v 4.61363" fill="none" stroke="black"/>
<path d="M267.504,336.795v 9.22726" fill="none" stroke="black"/>
<path d="M288.473,341.409v 4.61363" fill="none" stroke="black"/>
<path d="M309.441,341.409v 4.61363" fill="none" stroke="black"/>
<path d="M330.409,341.409v 4.61363" fill="none" stroke="black"/>
<path d="M351.378,341.409v 4.61363" fill="none" stroke="black"/>
<path d="M372.346,336.795v 9.22726" fill="none" stroke="black"/>
<path d="M393.314,341.409v 4.61363" fill="none" stroke="black"/>
<path d="M414.282,341.409v 4.61363" fill="none" stroke="black"/>
<path d="M435.251,341.409v 4.61363" fill="none" stroke="black"/>
<path d="M456.219,341.409v 4.61363" fill="none" stroke="black"/>
<path d="M477.187,336.795v 9.22726" fill="none" stroke="black"/>
<path d="M57.822,336.795v 9.22726" fill="none" stroke="black"/>
<path d="M477.187,336.795v 9.22726" fill="none" stroke="black"/>
<path d="M498.155,341.409v 4.61363" fill="none" stroke="black"/>
<text xml:space="preserve" x="54.2605" y="358.403" fill="black" font-size="12.8453" font-family="Helvetica">0</text>
<text xml:space="preserve" x="152.007" y="358.403" fill="black" font-size="12.8453" font-family="Helvetica">500</text>
<text xml:space="preserve" x="253.012" y="358.403" fill="black" font-size="12.8453" font-family="Helvetica">1000</text>
<text xml:space="preserve" x="358.089" y="358.403" fill="black" font-size="12.8453" font-family="Helvetica">1500</text>
<text xml:space="preserve" x="463.166" y="358.403" fill="black" font-size="12.8453" font-family="Helvetica">2000</text>
<text xml:space="preserve" x="451.763" y="372.251" fill="black" font-size="12.8453" font-family="Helvetica">ADC value</text>
<path d="M57.1929,346.022v -307.575" fill="none" stroke="black"/>
<path d="M70.7992,346.022h -13.6063" fill="none" stroke="black"/>
<path d="M63.9961,334.361h -6.80315" fill="none" stroke="black"/>
<path d="M63.9961,322.7h -6.80315" fill="none" stroke="black"/>
<path d="M63.9961,311.039h -6.80315" fill="none" stroke="black"/>
<path d="M70.7992,299.378h -13.6063" fill="none" stroke="black"/>
<path d="M63.9961,287.716h -6.80315" fill="none" stroke="black"/>
<path d="M63.9961,276.055h -6.80315" fill="none" stroke="black"/>
<path d="M63.9961,264.394h -6.80315" fill="none" stroke="black"/>
<path d="M70.7992,252.733h -13.6063" fill="none" stroke="black"/>
<path d="M63.9961,241.072h -6.80315" fill="none" stroke="black"/>
<path d="M63.9961,229.41h -6.80315" fill="none" stroke="black"/>
<path d="M63.9961,217.749h -6.80315" fill="none" stroke="black"/>
<path d="M70.7992,206.088h -13.6063" fill="none" stroke="black"/>
<path d="M63.9961,194.427h -6.80315" fill="none" stroke="black"/>
<path d="M63.9961,182.766h -6.80315" fill="none" stroke="black"/>
<path d="M63.9961,171.105h -6.80315" fill="none" stroke="black"/>
<path d="M70.7992,159.443h -13.6063" fill="none" stroke="black"/>
<path d="M63.9961,147.782h -6.80315" fill="none" stroke="black"/>
<path d="M63.9961,136.121h -6.80315" fill="none" stroke="black"/>
<path d="M63.9961,124.46h -6.80315" fill="none" stroke="black"/>
<path d="M70.7992,112.799h -13.6063" fill="none" stroke="black"/>
<path d="M63.9961,101.137h -6.80315" fill="none" stroke="black"/>
<path d="M63.9961,89.4762h -6.80315" fill="none" stroke="black"/>
<path d="M63.9961,77.8151h -6.80315" fill="none" stroke="black"/>
<path d="M70.7992,66.1539h -13.6063" fill="none" stroke="black"/>
<path d="M70.7992,66.1539h -13.6063" fill="none" stroke="black"/>
<path d="M63.9961,54.4927h -6.80315" fill="none" stroke="black"/>
<path d="M63.9961,42.8315h -6.80315" fill="none" stroke="black"/>
<text xml:space="preserve" x="47.7441" y="350.258" fill="black" font-size="12.8453" font-family="Helvetica">0</text>
<text xml:space="preserve" x="33.8967" y="303.828" fill="black" font-size="12.8453" font-family="Helvetica">200</text>
<text xml:space="preserve" x="33.8967" y="257.399" fill="black" font-size="12.8453" font-family="Helvetica">400</text>
<text xml:space="preserve" x="33.8967" y="210.969" fill="black" font-size="12.8453" font-family="Helvetica">600</text>
<text xml:space="preserve" x="33.8967" y="163.725" fill="black" font-size="12.8453" font-family="Helvetica">800</text>
<text xml:space="preserve" x="27.3803" y="117.296" fill="black" font-size="12.8453" font-family="Helvetica">1000</text>
<text xml:space="preserve" x="27.3803" y="70.8661" fill="black" font-size="12.8453" font-family="Helvetica">1200</text>
<g transform="rotate(-90,14.3474,70.0516)">
<text xml:space="preserve" x="14.3474" y="70.0516" fill="black" font-size="12.8453" font-family="Helvetica">Event</text>
</g>
<text xml:space="preserve" x="253.012" y="18.7347" fill="black" font-size="18.0316" font-family="Helvetica">Cs_007</text>
<rect x="442.705" y="24.9905" width="113.386" height="61.5151" fill="white"/>
<path d="M442.705,86.5056h 113.386" fill="none" stroke="black"/>
<path d="M556.091,86.5056v -61.5151" fill="none" stroke="black"/>
<path d="M556.091,24.9905h -113.386" fill="none" stroke="black"/>
<path d="M442.705,24.9905v 61.5151" fill="none" stroke="black"/>
<text xml:space="preserve" x="476.199" y="36.6549" fill="black" font-size="13.4802" font-family="Helvetica">Cs_007</text>
<path d="M442.705,40.3693h 113.386" fill="none" stroke="black"/>
<text xml:space="preserve" x="447.69" y="52.946" fill="black" font-size="12.7186" font-family="Helvetica">Entries </text>
<text xml:space="preserve" x="512.854" y="52.946" fill="black" font-size="12.7186" font-family="Helvetica"> 12279</text>
<text xml:space="preserve" x="447.69" y="67.6079" fill="black" font-size="12.7186" font-family="Helvetica">Mean  </text>
<text xml:space="preserve" x="516.927" y="67.6079" fill="black" font-size="12.7186" font-family="Helvetica">    789</text>
<text xml:space="preserve" x="447.69" y="83.0844" fill="black" font-size="12.7186" font-family="Helvetica">Std Dev   </text>
<text xml:space="preserve" x="512.854" y="83.0844" fill="black" font-size="12.7186" font-family="Helvetica">  791.5</text>
<text xml:space="preserve" x="253.012" y="18.7347" fill="black" font-size="18.0316" font-family="Helvetica">Cs_007</text></svg>
