<?xml version="1.0" standalone="no"?>
<svg width="567.429" height="384.68" viewBox="0 0 567.429 384.68" xmlns="http://www.w3.org/2000/svg" shape-rendering="crispEdges">
<title>
img/week1/plane_hist/Cs_009.svg
</title>
<desc>
Creator: ROOT Version 6.22/09
CreationDate: Tue Jul 13 18:36:47 2021</desc>
<defs>
</defs>
<rect x="0.5" y="0" width="566.929" height="384.18" fill="white"/>
<rect x="57.1929" y="38.418" width="453.543" height="307.344" fill="white"/>
<rect x="57.1929" y="38.418" width="453.543" height="307.344" fill="none" stroke="black"/>
<path d="M57.1929,345.762h 46.485v -6.22784h 0.628176v -89.6809h 0.628176v -83.453h 0.628176v -11.2101h 0.628176v 79.7163h 0.628176v 27.4025h 0.628176v -2.49114h 0.628176v 2.49114h 0.628176v 18.6835h 0.628176v 27.4025h 0.628176v 19.9291h 0.628176v
 -9.96454h 0.628176v 4.98227h 0.628176v 11.2101h 0.628176v 3.7367h 0.628176v -4.98227h 0.628176v 4.98227h 0.628176v -2.49114h 0.628176v 4.98227h 0.628176v -2.49114h 0.628176v -2.49114h 0.628176v -2.49114h 0.628176v 7.47341h 0.628176v 1.24557h
 0.628176v -4.98227h 0.628176v 3.7367h 2.51271v 1.24557h 0.628176v 1.24557h 0.628176v -1.24557h 0.628176v 2.49114h 1.25635v -4.98227h 0.628176v -1.24557h 0.628176v 3.7367h 0.628176v 1.24557h 1.25635v -1.24557h 0.628176v 2.49114h 0.628176v 1.24557h
 0.628176v -3.7367h 0.628176v -4.98227h 0.628176v 3.7367h 1.25635v 3.7367h 1.25635v -8.71897h 0.628176v 8.71897h 0.628176v -1.24557h 0.628176v -2.49114h 0.628176v 1.24557h 0.628176v 1.24557h 1.25635v -1.24557h 0.628176v 3.7367h 0.628176v -4.98227h
 0.628176v -2.49114h 0.628176v 3.7367h 0.628176v 1.24557h 0.628176v 1.24557h 0.628176v -1.24557h 1.88453v -1.24557h 0.628176v 1.24557h 0.628176v -1.24557h 0.628176v 1.24557h 0.628176v 1.24557h 0.628176v -6.22784h 0.628176v 1.24557h 0.628176v 3.7367h
 0.628176v 1.24557h 0.628176v -1.24557h 0.628176v -2.49114h 0.628176v 2.49114h 0.628176v 1.24557h 0.628176v -2.49114h 0.628176v -1.24557h 0.628176v -1.24557h 0.628176v 4.98227h 0.628176v -2.49114h 0.628176v 2.49114h 0.628176v -2.49114h 0.628176v
 -3.7367h 0.628176v 4.98227h 0.628176v 1.24557h 1.25635v -1.24557h 0.628176v 2.49114h 0.628176v -6.22784h 0.628176v 4.98227h 0.628176v -3.7367h 0.628176v 1.24557h 0.628176v 2.49114h 0.628176v -1.24557h 0.628176v 2.49114h 0.628176v -2.49114h 0.628176v
 -2.49114h 0.628176v 2.49114h 0.628176v 1.24557h 0.628176v 1.24557h 0.628176v -2.49114h 0.628176v -2.49114h 0.628176v 2.49114h 0.628176v 2.49114h 0.628176v -6.22784h 0.628176v 2.49114h 0.628176v 1.24557h 0.628176v 2.49114h 0.628176v -1.24557h
 0.628176v -1.24557h 1.25635v -1.24557h 0.628176v 2.49114h 0.628176v -1.24557h 0.628176v -1.24557h 0.628176v 3.7367h 0.628176v -2.49114h 1.25635v -2.49114h 0.628176v 2.49114h 0.628176v 1.24557h 2.51271v -2.49114h 0.628176v -1.24557h 0.628176v
 1.24557h 0.628176v 1.24557h 1.25635v 2.49114h 0.628176v -2.49114h 0.628176v 1.24557h 0.628176v -2.49114h 0.628176v 1.24557h 0.628176v 1.24557h 0.628176v -1.24557h 0.628176v -1.24557h 0.628176v 1.24557h 1.25635v -2.49114h 0.628176v 4.98227h 0.628176v
 -1.24557h 0.628176v -1.24557h 1.25635v -3.7367h 0.628176v 4.98227h 0.628176v -2.49114h 1.25635v 2.49114h 0.628176v -1.24557h 1.25635v -1.24557h 0.628176v 2.49114h 0.628176v -1.24557h 1.25635v -2.49114h 0.628176v 4.98227h 0.628176v -6.22784h
 0.628176v 2.49114h 0.628176v -1.24557h 0.628176v 3.7367h 0.628176v 1.24557h 0.628176v -3.7367h 0.628176v 3.7367h 0.628176v -2.49114h 0.628176v 1.24557h 1.25635v -1.24557h 0.628176v -1.24557h 0.628176v 1.24557h 1.88453v 2.49114h 0.628176v -2.49114h
 0.628176v -1.24557h 0.628176v -1.24557h 0.628176v 2.49114h 0.628176v 2.49114h 0.628176v -1.24557h 1.88453v -2.49114h 0.628176v 1.24557h 0.628176v -1.24557h 0.628176v 2.49114h 0.628176v -3.7367h 0.628176v 2.49114h 0.628176v 1.24557h 0.628176v
 -3.7367h 1.25635v 3.7367h 0.628176v -1.24557h 0.628176v 1.24557h 0.628176v 1.24557h 0.628176v -3.7367h 0.628176v 1.24557h 0.628176v 1.24557h 0.628176v -2.49114h 0.628176v 1.24557h 0.628176v -2.49114h 1.25635v 4.98227h 1.25635v -2.49114h 0.628176v
 1.24557h 1.25635v -4.98227h 0.628176v 2.49114h 0.628176v 2.49114h 0.628176v -4.98227h 0.628176v 2.49114h 0.628176v 3.7367h 0.628176v -1.24557h 0.628176v -2.49114h 0.628176v 2.49114h 0.628176v -1.24557h 0.628176v 2.49114h 0.628176v -3.7367h 0.628176v
 -2.49114h 0.628176v -1.24557h 1.25635v 4.98227h 0.628176v -2.49114h 0.628176v 1.24557h 1.88453v -2.49114h 0.628176v 1.24557h 0.628176v -2.49114h 0.628176v 2.49114h 0.628176v 2.49114h 1.25635v -7.47341h 0.628176v 4.98227h 0.628176v -3.7367h 0.628176v
 2.49114h 0.628176v -2.49114h 0.628176v 1.24557h 1.88453v -2.49114h 0.628176v 4.98227h 0.628176v -2.49114h 0.628176v 2.49114h 0.628176v 1.24557h 0.628176v 1.24557h 0.628176v -4.98227h 0.628176v 2.49114h 0.628176v -6.22784h 0.628176v 4.98227h
 0.628176v 3.7367h 0.628176v -2.49114h 0.628176v 2.49114h 1.25635v -1.24557h 1.25635v -3.7367h 1.25635v 3.7367h 0.628176v 2.49114h 0.628176v -6.22784h 0.628176v 3.7367h 0.628176v -3.7367h 0.628176v 4.98227h 0.628176v -2.49114h 0.628176v -1.24557h
 0.628176v 1.24557h 0.628176v 1.24557h 0.628176v -1.24557h 0.628176v 2.49114h 1.25635v -2.49114h 0.628176v 2.49114h 0.628176v -1.24557h 0.628176v -1.24557h 0.628176v 2.49114h 1.25635v -2.49114h 0.628176v 4.98227h 0.628176v -1.24557h 0.628176v
 -4.98227h 0.628176v 2.49114h 0.628176v 1.24557h 0.628176v 1.24557h 1.25635v -1.24557h 0.628176v 1.24557h 1.25635v -2.49114h 0.628176v -1.24557h 0.628176v 1.24557h 0.628176v -1.24557h 0.628176v 2.49114h 1.25635v 1.24557h 0.628176v -2.49114h 0.628176v
 2.49114h 0.628176v -1.24557h 1.25635v -1.24557h 0.628176v 3.7367h 0.628176v -3.7367h 0.628176v 1.24557h 0.628176v -1.24557h 0.628176v 2.49114h 1.25635v 1.24557h 0.628176v -2.49114h 0.628176v 2.49114h 0.628176v -1.24557h 0.628176v -8.71897h 0.628176v
 8.71897h 0.628176v -4.98227h 0.628176v 3.7367h 0.628176v 1.24557h 0.628176v -1.24557h 0.628176v 1.24557h 1.88453v -2.49114h 0.628176v 1.24557h 0.628176v -1.24557h 0.628176v 2.49114h 0.628176v -1.24557h 0.628176v -1.24557h 0.628176v -1.24557h
 0.628176v 3.7367h 0.628176v -6.22784h 0.628176v 1.24557h 0.628176v 3.7367h 0.628176v 1.24557h 0.628176v -4.98227h 0.628176v 1.24557h 0.628176v 1.24557h 0.628176v 1.24557h 0.628176v -3.7367h 0.628176v -3.7367h 0.628176v 7.47341h 1.25635v -4.98227h
 0.628176v 7.47341h 0.628176v -4.98227h 0.628176v 1.24557h 1.25635v -6.22784h 0.628176v 6.22784h 1.25635v -2.49114h 0.628176v 1.24557h 0.628176v 1.24557h 0.628176v -7.47341h 0.628176v 3.7367h 0.628176v 1.24557h 0.628176v -1.24557h 0.628176v 2.49114h
 0.628176v -6.22784h 0.628176v -2.49114h 0.628176v 4.98227h 0.628176v -7.47341h 0.628176v 3.7367h 0.628176v -4.98227h 0.628176v 3.7367h 0.628176v -1.24557h 0.628176v -2.49114h 0.628176v 12.4557h 0.628176v -4.98227h 1.25635v -12.4557h 0.628176v
 1.24557h 0.628176v 9.96454h 1.25635v -3.7367h 0.628176v -6.22784h 0.628176v 4.98227h 0.628176v -7.47341h 0.628176v 9.96454h 0.628176v 1.24557h 0.628176v -11.2101h 0.628176v 6.22784h 0.628176v -1.24557h 0.628176v -7.47341h 0.628176v 7.47341h
 0.628176v -6.22784h 0.628176v 8.71897h 0.628176v 8.71897h 0.628176v -16.1924h 0.628176v 9.96454h 0.628176v 1.24557h 1.88453v 1.24557h 0.628176v 1.24557h 0.628176v -3.7367h 0.628176v 4.98227h 0.628176v -6.22784h 0.628176v -2.49114h 0.628176v 7.47341h
 0.628176v -1.24557h 0.628176v -8.71897h 0.628176v 11.2101h 0.628176v -1.24557h 1.25635v 2.49114h 0.628176v -4.98227h 0.628176v 4.98227h 0.628176v -6.22784h 0.628176v 4.98227h 0.628176v 3.7367h 0.628176v -1.24557h 0.628176v 2.49114h 0.628176v
 -4.98227h 0.628176v 2.49114h 0.628176v -2.49114h 0.628176v 1.24557h 0.628176v 1.24557h 0.628176v -1.24557h 0.628176v 4.98227h 0.628176v -1.24557h 0.628176v -1.24557h 0.628176v -3.7367h 0.628176v 3.7367h 0.628176v -1.24557h 0.628176v 4.98227h
 0.628176v -2.49114h 0.628176v 2.49114h 0.628176v -2.49114h 0.628176v 2.49114h 0.628176v -2.49114h 0.628176v -4.98227h 0.628176v 6.22784h 0.628176v -1.24557h 0.628176v 1.24557h 0.628176v -1.24557h 0.628176v -1.24557h 0.628176v 2.49114h 1.25635v
 -2.49114h 1.25635v 2.49114h 0.628176v -4.98227h 0.628176v 4.98227h 0.628176v -1.24557h 0.628176v 2.49114h 1.25635v -6.22784h 0.628176v 1.24557h 0.628176v 1.24557h 0.628176v 3.7367h 0.628176v -4.98227h 0.628176v 3.7367h 0.628176v 1.24557h 0.628176v
 -2.49114h 0.628176v 1.24557h 1.25635v -4.98227h 0.628176v 2.49114h 0.628176v -2.49114h 0.628176v 2.49114h 0.628176v 1.24557h 0.628176v 2.49114h 0.628176v -1.24557h 0.628176v -3.7367h 0.628176v 3.7367h 0.628176v -1.24557h 0.628176v -1.24557h 1.25635v
 3.7367h 0.628176v -6.22784h 0.628176v 6.22784h 0.628176v -1.24557h 3.14088v -1.24557h 0.628176v 2.49114h 2.51271v -1.24557h 0.628176v -1.24557h 0.628176v -1.24557h 0.628176v 3.7367h 1.25635v -1.24557h 0.628176v 2.49114h 1.25635v -1.24557h 0.628176v
 -1.24557h 0.628176v 2.49114h 0.628176v -1.24557h 0.628176v 1.24557h 0.628176v -2.49114h 0.628176v 1.24557h 0.628176v 1.24557h 0.628176v -1.24557h 0.628176v -2.49114h 0.628176v 2.49114h 0.628176v 1.24557h 1.25635v -1.24557h 0.628176v 1.24557h
 1.88453v -2.49114h 0.628176v -1.24557h 0.628176v 1.24557h 0.628176v 1.24557h 0.628176v -1.24557h 0.628176v 1.24557h 1.25635v -1.24557h 0.628176v 2.49114h 0.628176v -1.24557h 1.25635v -1.24557h 1.88453v 1.24557h 0.628176v -1.24557h 0.628176v 1.24557h
 1.88453v 1.24557h 0.628176v -1.24557h 0.628176v 1.24557h 0.628176v -1.24557h 0.628176v 1.24557h 0.628176v -2.49114h 0.628176v 1.24557h 0.628176v 1.24557h 1.25635v -1.24557h 0.628176v 1.24557h 0.628176v -1.24557h 0.628176v -1.24557h 0.628176v
 2.49114h 1.25635v -2.49114h 0.628176v 1.24557h 1.88453v 1.24557h 1.25635v -1.24557h 0.628176v -1.24557h 0.628176v -1.24557h 0.628176v 2.49114h 0.628176v -1.24557h 0.628176v 1.24557h 1.25635v 1.24557h 0.628176v -2.49114h 0.628176v 1.24557h 0.628176v
 1.24557h 1.88453v -2.49114h 0.628176v 2.49114h 0.628176v -2.49114h 0.628176v 2.49114h 1.25635v -1.24557h 0.628176v -1.24557h 0.628176v 2.49114h 0.628176v -2.49114h 0.628176v 2.49114h 1.25635v -1.24557h 0.628176v 1.24557h 1.88453v -1.24557h 0.628176v
 1.24557h 0.628176v -2.49114h 0.628176v 2.49114h 0.628176v -1.24557h 0.628176v 1.24557h 0.628176v -1.24557h 0.628176v 1.24557h 0.628176v -2.49114h 0.628176v 1.24557h 0.628176v 1.24557h 0.628176v -1.24557h 0.628176v 1.24557h 0.628176v -1.24557h
 1.88453v 1.24557h 0.628176v -1.24557h 0.628176v 1.24557h 2.51271v -2.49114h 0.628176v 1.24557h 1.25635v -2.49114h 0.628176v 3.7367h 1.25635v -1.24557h 1.25635v -66.0151h 0.628176v -209.255h 0.628176v -16.1924h 0.628176v 77.2252h 0.628176v -27.4025h
 0.628176v 28.6481h 0.628176v 75.9796h 0.628176v 58.5417h 0.628176v 17.4379h 0.628176v -3.7367h 0.628176v 6.22784h 0.628176v 9.96454h 1.25635v -4.98227h 0.628176v 7.47341h 0.628176v -4.98227h 0.628176v 11.2101h 0.628176v -1.24557h 0.628176v 1.24557h
 0.628176v 2.49114h 0.628176v -7.47341h 0.628176v 22.4202h 0.628176v -28.6481h 0.628176v 9.96454h 0.628176v 1.24557h 0.628176v 4.98227h 0.628176v -7.47341h 0.628176v 7.47341h 0.628176v 6.22784h 0.628176v -6.22784h 0.628176v -4.98227h 0.628176v
 -2.49114h 0.628176v 19.9291h 0.628176v -18.6835h 0.628176v 14.9468h 0.628176v -3.7367h 0.628176v -6.22784h 0.628176v 4.98227h 0.628176v 9.96454h 0.628176v 2.49114h 0.628176v 8.71897h 0.628176v 2.49114h 0.628176v 6.22784h 0.628176" fill="none"
 stroke="#000099"/>
<path d="M57.1929,345.762h 453.543" fill="none" stroke="black"/>
<path d="M57.8211,336.541v 9.22031" fill="none" stroke="black"/>
<path d="M78.7603,341.152v 4.61016" fill="none" stroke="black"/>
<path d="M99.6995,341.152v 4.61016" fill="none" stroke="black"/>
<path d="M120.639,341.152v 4.61016" fill="none" stroke="black"/>
<path d="M141.578,341.152v 4.61016" fill="none" stroke="black"/>
<path d="M162.517,336.541v 9.22031" fill="none" stroke="black"/>
<path d="M183.456,341.152v 4.61016" fill="none" stroke="black"/>
<path d="M204.396,341.152v 4.61016" fill="none" stroke="black"/>
<path d="M225.335,341.152v 4.61016" fill="none" stroke="black"/>
<path d="M246.274,341.152v 4.61016" fill="none" stroke="black"/>
<path d="M267.213,336.541v 9.22031" fill="none" stroke="black"/>
<path d="M288.152,341.152v 4.61016" fill="none" stroke="black"/>
<path d="M309.092,341.152v 4.61016" fill="none" stroke="black"/>
<path d="M330.031,341.152v 4.61016" fill="none" stroke="black"/>
<path d="M350.97,341.152v 4.61016" fill="none" stroke="black"/>
<path d="M371.909,336.541v 9.22031" fill="none" stroke="black"/>
<path d="M392.848,341.152v 4.61016" fill="none" stroke="black"/>
<path d="M413.788,341.152v 4.61016" fill="none" stroke="black"/>
<path d="M434.727,341.152v 4.61016" fill="none" stroke="black"/>
<path d="M455.666,341.152v 4.61016" fill="none" stroke="black"/>
<path d="M476.605,336.541v 9.22031" fill="none" stroke="black"/>
<path d="M57.8211,336.541v 9.22031" fill="none" stroke="black"/>
<path d="M476.605,336.541v 9.22031" fill="none" stroke="black"/>
<path d="M497.545,341.152v 4.61016" fill="none" stroke="black"/>
<text xml:space="preserve" x="54.1065" y="358.189" fill="black" font-size="12.836" font-family="Helvetica">0</text>
<text xml:space="preserve" x="151.573" y="358.189" fill="black" font-size="12.836" font-family="Helvetica">500</text>
<text xml:space="preserve" x="253.1" y="358.189" fill="black" font-size="12.836" font-family="Helvetica">1000</text>
<text xml:space="preserve" x="357.877" y="358.189" fill="black" font-size="12.836" font-family="Helvetica">1500</text>
<text xml:space="preserve" x="462.653" y="358.189" fill="black" font-size="12.836" font-family="Helvetica">2000</text>
<text xml:space="preserve" x="452.094" y="371.996" fill="black" font-size="12.836" font-family="Helvetica">ADC value</text>
<path d="M57.1929,345.762v -307.344" fill="none" stroke="black"/>
<path d="M70.7992,345.762h -13.6063" fill="none" stroke="black"/>
<path d="M63.9961,339.534h -6.80315" fill="none" stroke="black"/>
<path d="M63.9961,333.306h -6.80315" fill="none" stroke="black"/>
<path d="M63.9961,327.078h -6.80315" fill="none" stroke="black"/>
<path d="M70.7992,320.85h -13.6063" fill="none" stroke="black"/>
<path d="M63.9961,314.623h -6.80315" fill="none" stroke="black"/>
<path d="M63.9961,308.395h -6.80315" fill="none" stroke="black"/>
<path d="M63.9961,302.167h -6.80315" fill="none" stroke="black"/>
<path d="M70.7992,295.939h -13.6063" fill="none" stroke="black"/>
<path d="M63.9961,289.711h -6.80315" fill="none" stroke="black"/>
<path d="M63.9961,283.483h -6.80315" fill="none" stroke="black"/>
<path d="M63.9961,277.256h -6.80315" fill="none" stroke="black"/>
<path d="M70.7992,271.028h -13.6063" fill="none" stroke="black"/>
<path d="M63.9961,264.8h -6.80315" fill="none" stroke="black"/>
<path d="M63.9961,258.572h -6.80315" fill="none" stroke="black"/>
<path d="M63.9961,252.344h -6.80315" fill="none" stroke="black"/>
<path d="M70.7992,246.116h -13.6063" fill="none" stroke="black"/>
<path d="M63.9961,239.889h -6.80315" fill="none" stroke="black"/>
<path d="M63.9961,233.661h -6.80315" fill="none" stroke="black"/>
<path d="M63.9961,227.433h -6.80315" fill="none" stroke="black"/>
<path d="M70.7992,221.205h -13.6063" fill="none" stroke="black"/>
<path d="M63.9961,214.977h -6.80315" fill="none" stroke="black"/>
<path d="M63.9961,208.749h -6.80315" fill="none" stroke="black"/>
<path d="M63.9961,202.522h -6.80315" fill="none" stroke="black"/>
<path d="M70.7992,196.294h -13.6063" fill="none" stroke="black"/>
<path d="M63.9961,190.066h -6.80315" fill="none" stroke="black"/>
<path d="M63.9961,183.838h -6.80315" fill="none" stroke="black"/>
<path d="M63.9961,177.61h -6.80315" fill="none" stroke="black"/>
<path d="M70.7992,171.382h -13.6063" fill="none" stroke="black"/>
<path d="M63.9961,165.154h -6.80315" fill="none" stroke="black"/>
<path d="M63.9961,158.927h -6.80315" fill="none" stroke="black"/>
<path d="M63.9961,152.699h -6.80315" fill="none" stroke="black"/>
<path d="M70.7992,146.471h -13.6063" fill="none" stroke="black"/>
<path d="M63.9961,140.243h -6.80315" fill="none" stroke="black"/>
<path d="M63.9961,134.015h -6.80315" fill="none" stroke="black"/>
<path d="M63.9961,127.787h -6.80315" fill="none" stroke="black"/>
<path d="M70.7992,121.56h -13.6063" fill="none" stroke="black"/>
<path d="M63.9961,115.332h -6.80315" fill="none" stroke="black"/>
<path d="M63.9961,109.104h -6.80315" fill="none" stroke="black"/>
<path d="M63.9961,102.876h -6.80315" fill="none" stroke="black"/>
<path d="M70.7992,96.6483h -13.6063" fill="none" stroke="black"/>
<path d="M63.9961,90.4204h -6.80315" fill="none" stroke="black"/>
<path d="M63.9961,84.1926h -6.80315" fill="none" stroke="black"/>
<path d="M63.9961,77.9648h -6.80315" fill="none" stroke="black"/>
<path d="M70.7992,71.7369h -13.6063" fill="none" stroke="black"/>
<path d="M63.9961,65.5091h -6.80315" fill="none" stroke="black"/>
<path d="M63.9961,59.2812h -6.80315" fill="none" stroke="black"/>
<path d="M63.9961,53.0534h -6.80315" fill="none" stroke="black"/>
<path d="M70.7992,46.8256h -13.6063" fill="none" stroke="black"/>
<path d="M70.7992,46.8256h -13.6063" fill="none" stroke="black"/>
<path d="M63.9961,40.5977h -6.80315" fill="none" stroke="black"/>
<text xml:space="preserve" x="47.6087" y="350.067" fill="black" font-size="12.836" font-family="Helvetica">0</text>
<text xml:space="preserve" x="41.111" y="325.7" fill="black" font-size="12.836" font-family="Helvetica">20</text>
<text xml:space="preserve" x="41.111" y="300.521" fill="black" font-size="12.836" font-family="Helvetica">40</text>
<text xml:space="preserve" x="41.111" y="275.342" fill="black" font-size="12.836" font-family="Helvetica">60</text>
<text xml:space="preserve" x="41.111" y="250.976" fill="black" font-size="12.836" font-family="Helvetica">80</text>
<text xml:space="preserve" x="33.801" y="225.797" fill="black" font-size="12.836" font-family="Helvetica">100</text>
<text xml:space="preserve" x="33.801" y="200.618" fill="black" font-size="12.836" font-family="Helvetica">120</text>
<text xml:space="preserve" x="33.801" y="176.252" fill="black" font-size="12.836" font-family="Helvetica">140</text>
<text xml:space="preserve" x="33.801" y="151.073" fill="black" font-size="12.836" font-family="Helvetica">160</text>
<text xml:space="preserve" x="33.801" y="125.894" fill="black" font-size="12.836" font-family="Helvetica">180</text>
<text xml:space="preserve" x="33.801" y="100.715" fill="black" font-size="12.836" font-family="Helvetica">200</text>
<text xml:space="preserve" x="33.801" y="76.3486" fill="black" font-size="12.836" font-family="Helvetica">220</text>
<text xml:space="preserve" x="33.801" y="51.1698" fill="black" font-size="12.836" font-family="Helvetica">240</text>
<g transform="rotate(-90,20.8055,69.8509)">
<text xml:space="preserve" x="20.8055" y="69.8509" fill="black" font-size="12.836" font-family="Helvetica">Event</text>
</g>
<text xml:space="preserve" x="253.1" y="18.681" fill="black" font-size="17.9813" font-family="Helvetica">Cs_009</text>
<rect x="442.705" y="24.9717" width="113.386" height="61.4688" fill="white"/>
<path d="M442.705,86.4405h 113.386" fill="none" stroke="black"/>
<path d="M556.091,86.4405v -61.4688" fill="none" stroke="black"/>
<path d="M556.091,24.9717h -113.386" fill="none" stroke="black"/>
<path d="M442.705,24.9717v 61.4688" fill="none" stroke="black"/>
<text xml:space="preserve" x="476.461" y="36.5499" fill="black" font-size="13.4705" font-family="Helvetica">Cs_009</text>
<path d="M442.705,40.3389h 113.386" fill="none" stroke="black"/>
<text xml:space="preserve" x="448.033" y="52.7943" fill="black" font-size="13.0884" font-family="Helvetica">Entries </text>
<text xml:space="preserve" x="517.884" y="52.7943" fill="black" font-size="13.0884" font-family="Helvetica"> 5042</text>
<text xml:space="preserve" x="448.033" y="68.2264" fill="black" font-size="13.0884" font-family="Helvetica">Mean  </text>
<text xml:space="preserve" x="510.574" y="68.2264" fill="black" font-size="13.0884" font-family="Helvetica">   1410</text>
<text xml:space="preserve" x="448.033" y="82.8464" fill="black" font-size="13.0884" font-family="Helvetica">Std Dev   </text>
<text xml:space="preserve" x="510.574" y="82.8464" fill="black" font-size="13.0884" font-family="Helvetica">  724.8</text>
<text xml:space="preserve" x="253.1" y="18.681" fill="black" font-size="17.9813" font-family="Helvetica">Cs_009</text></svg>
