<?xml version="1.0" standalone="no"?>
<svg width="567.429" height="384.969" viewBox="0 0 567.429 384.969" xmlns="http://www.w3.org/2000/svg" shape-rendering="crispEdges">
<title>
img/week1/plane_hist/Cs_001.svg
</title>
<desc>
Creator: ROOT Version 6.22/09
CreationDate: Thu Jul  8 17:31:51 2021</desc>
<defs>
</defs>
<rect x="0.5" y="0" width="566.929" height="384.469" fill="white"/>
<rect x="57.1929" y="38.4469" width="453.543" height="307.575" fill="white"/>
<rect x="57.1929" y="38.4469" width="453.543" height="307.575" fill="none" stroke="black"/>
<path d="M57.1929,346.022h 142.992v -0.473995h 0.629921v -7.58392h 0.629921v -13.7459h 0.629921v 2.36997h 0.629921v -2.84397h 0.629921v 6.16193h 0.629921v 1.42198h 0.629921v -0.94799h 0.629921v 6.16193h 0.629921v -0.473995h 0.629921v -2.36997h
 0.629921v 0.94799h 0.629921v 2.36997h 0.629921v 2.84397h 0.629921v -2.84397h 0.629921v 2.36997h 0.629921v -2.36997h 0.629921v 0.473995h 0.629921v 3.31796h 0.629921v -4.26595h 0.629921v -1.42198h 0.629921v 1.42198h 0.629921v 3.79196h 0.629921v
 0.473995h 0.629921v -1.42198h 0.629921v -0.473995h 0.629921v -2.36997h 0.629921v 2.36997h 0.629921v 2.36997h 0.629921v -4.26595h 0.629921v 1.89598h 0.629921v 1.89598h 0.629921v 0.473995h 0.629921v 0.94799h 0.629921v -2.36997h 0.629921v 0.94799h
 0.629921v -0.94799h 0.629921v 1.42198h 0.629921v 0.94799h 0.629921v -2.36997h 0.629921v 1.42198h 0.629921v 2.84397h 0.629921v -0.94799h 1.25984v 0.94799h 0.629921v -0.94799h 0.629921v -1.42198h 1.25984v 0.94799h 0.629921v 1.42198h 0.629921v
 -1.42198h 0.629921v 2.36997h 0.629921v -2.84397h 0.629921v 0.94799h 0.629921v -0.473995h 0.629921v 1.89598h 0.629921v -1.42198h 1.25984v 0.473995h 0.629921v 0.473995h 0.629921v -0.94799h 0.629921v 0.473995h 0.629921v -0.94799h 0.629921v 2.84397h
 1.25984v -1.89598h 0.629921v -2.36997h 0.629921v 3.79196h 0.629921v -1.42198h 0.629921v 0.473995h 0.629921v -1.42198h 0.629921v 0.94799h 0.629921v 2.36997h 0.629921v -1.89598h 0.629921v -0.473995h 0.629921v -0.473995h 0.629921v 1.89598h 0.629921v
 -1.89598h 0.629921v 0.94799h 1.25984v -0.94799h 0.629921v -0.94799h 0.629921v 1.42198h 1.25984v 0.473995h 0.629921v -1.89598h 0.629921v 1.89598h 0.629921v -1.89598h 0.629921v 1.89598h 0.629921v -0.473995h 0.629921v 0.473995h 1.88976v 0.473995h
 0.629921v -4.26595h 0.629921v 5.68794h 0.629921v -1.89598h 0.629921v 0.473995h 0.629921v -1.42198h 0.629921v 0.94799h 0.629921v -1.42198h 0.629921v 2.36997h 0.629921v -0.94799h 0.629921v 1.42198h 0.629921v -0.473995h 0.629921v -0.94799h 0.629921v
 -1.42198h 0.629921v -0.94799h 0.629921v 1.42198h 0.629921v -0.473995h 0.629921v 1.42198h 0.629921v 1.42198h 0.629921v -0.94799h 0.629921v -0.473995h 0.629921v 0.94799h 0.629921v -2.84397h 0.629921v 2.36997h 0.629921v -0.94799h 0.629921v 0.473995h
 0.629921v 0.473995h 0.629921v 0.94799h 0.629921v -2.36997h 0.629921v 0.94799h 0.629921v 0.473995h 0.629921v 0.473995h 1.25984v -2.36997h 1.25984v 1.89598h 1.88976v 0.473995h 0.629921v -0.473995h 0.629921v -0.94799h 0.629921v 0.94799h 0.629921v
 -1.42198h 0.629921v 1.42198h 1.25984v -0.94799h 0.629921v -2.36997h 0.629921v 3.79196h 0.629921v -0.473995h 0.629921v -1.42198h 0.629921v 1.89598h 0.629921v -0.473995h 0.629921v -1.42198h 0.629921v -0.94799h 0.629921v 1.42198h 0.629921v -1.89598h
 0.629921v 0.94799h 0.629921v -0.473995h 0.629921v 3.31796h 0.629921v -1.42198h 0.629921v -0.473995h 0.629921v -0.473995h 1.25984v 0.473995h 1.25984v 0.473995h 0.629921v 0.473995h 0.629921v 0.473995h 0.629921v -1.42198h 0.629921v 1.42198h 0.629921v
 -1.89598h 0.629921v 1.42198h 0.629921v -0.473995h 0.629921v -0.94799h 0.629921v -1.42198h 0.629921v 3.31796h 0.629921v -1.42198h 0.629921v -0.473995h 1.25984v 1.89598h 0.629921v -1.42198h 0.629921v 1.42198h 0.629921v -0.473995h 0.629921v 0.473995h
 0.629921v -0.94799h 0.629921v 0.473995h 1.25984v -1.42198h 0.629921v 0.473995h 0.629921v -0.473995h 0.629921v 1.42198h 1.88976v -1.42198h 0.629921v -1.89598h 0.629921v 2.36997h 0.629921v 0.94799h 1.25984v -3.31796h 0.629921v 2.36997h 1.25984v
 -0.94799h 0.629921v -0.94799h 0.629921v 1.89598h 0.629921v 0.94799h 0.629921v -3.31796h 0.629921v 3.31796h 1.25984v 0.473995h 0.629921v -0.473995h 0.629921v 0.473995h 0.629921v -2.36997h 0.629921v 0.473995h 0.629921v 2.36997h 0.629921v -4.26595h
 0.629921v 3.31796h 1.88976v -0.473995h 0.629921v 0.94799h 0.629921v -1.42198h 0.629921v 0.473995h 0.629921v -1.42198h 0.629921v -2.36997h 0.629921v 3.31796h 0.629921v -1.42198h 0.629921v 0.94799h 0.629921v 1.42198h 0.629921v -0.473995h 0.629921v
 -0.94799h 1.88976v 0.473995h 0.629921v 1.42198h 0.629921v 0.94799h 0.629921v -2.84397h 0.629921v 0.94799h 1.25984v -0.94799h 0.629921v 1.42198h 1.25984v -0.94799h 0.629921v -0.473995h 0.629921v 2.36997h 0.629921v -0.473995h 0.629921v -1.89598h
 0.629921v 1.89598h 0.629921v -0.94799h 0.629921v -1.89598h 0.629921v -0.473995h 0.629921v 1.89598h 0.629921v -0.473995h 0.629921v 2.84397h 0.629921v -2.84397h 0.629921v 1.42198h 0.629921v 0.94799h 0.629921v -2.36997h 0.629921v -0.473995h 0.629921v
 0.94799h 0.629921v 1.42198h 0.629921v -3.31796h 0.629921v 0.94799h 0.629921v 0.473995h 0.629921v 1.89598h 0.629921v -1.42198h 1.25984v 1.42198h 0.629921v -0.473995h 0.629921v 0.473995h 0.629921v -0.94799h 0.629921v -0.473995h 0.629921v 0.473995h
 1.25984v -1.89598h 0.629921v 0.473995h 0.629921v -0.473995h 0.629921v 1.89598h 0.629921v -3.31796h 0.629921v 3.31796h 0.629921v -0.94799h 0.629921v -0.94799h 0.629921v 0.94799h 0.629921v 2.36997h 0.629921v -0.94799h 0.629921v -0.94799h 0.629921v
 0.473995h 0.629921v -3.31796h 0.629921v 4.26595h 0.629921v -0.94799h 0.629921v 0.94799h 0.629921v -0.473995h 0.629921v -0.94799h 1.25984v 0.473995h 0.629921v -1.89598h 0.629921v 1.42198h 0.629921v 0.94799h 0.629921v -1.89598h 0.629921v 0.94799h
 0.629921v 0.94799h 0.629921v 0.473995h 0.629921v 0.473995h 0.629921v -0.94799h 0.629921v 0.473995h 0.629921v -0.473995h 0.629921v 0.94799h 0.629921v -1.89598h 0.629921v 0.94799h 0.629921v -0.473995h 0.629921v -1.42198h 0.629921v 1.42198h 0.629921v
 0.94799h 0.629921v -1.42198h 0.629921v -0.94799h 0.629921v 2.36997h 0.629921v -1.89598h 0.629921v -0.473995h 0.629921v 0.94799h 0.629921v 0.473995h 0.629921v 0.473995h 0.629921v -2.36997h 0.629921v 2.36997h 0.629921v -1.89598h 0.629921v 1.89598h
 1.25984v 0.473995h 0.629921v -1.42198h 0.629921v 0.94799h 0.629921v -0.473995h 0.629921v 0.473995h 0.629921v -0.473995h 0.629921v 0.473995h 0.629921v -0.94799h 0.629921v 1.42198h 1.25984v -0.94799h 0.629921v -1.42198h 0.629921v 1.42198h 0.629921v
 0.473995h 0.629921v -0.94799h 1.25984v 0.473995h 0.629921v 0.473995h 0.629921v 0.473995h 0.629921v -0.94799h 1.88976v -0.473995h 0.629921v 1.89598h 0.629921v -0.94799h 1.88976v 1.42198h 0.629921v -1.42198h 0.629921v -1.42198h 0.629921v 1.42198h
 0.629921v -1.89598h 0.629921v 0.94799h 0.629921v -0.473995h 0.629921v -0.94799h 0.629921v 1.89598h 0.629921v -0.473995h 0.629921v -1.42198h 0.629921v 1.89598h 0.629921v 0.473995h 1.25984v -0.94799h 0.629921v 1.42198h 0.629921v 0.94799h 0.629921v
 -0.94799h 0.629921v -0.94799h 0.629921v 0.94799h 0.629921v -0.473995h 1.88976v 1.42198h 0.629921v -1.42198h 0.629921v -0.473995h 0.629921v 0.473995h 1.25984v -0.94799h 0.629921v 0.94799h 0.629921v -2.36997h 0.629921v 2.84397h 1.88976v -0.94799h
 0.629921v 0.94799h 0.629921v 0.473995h 0.629921v -1.89598h 0.629921v -1.42198h 0.629921v 1.42198h 0.629921v 0.473995h 0.629921v 1.42198h 0.629921v -2.84397h 0.629921v 1.89598h 0.629921v -0.473995h 0.629921v 0.473995h 0.629921v -0.94799h 1.25984v
 -0.473995h 0.629921v 2.36997h 0.629921v -1.89598h 0.629921v 0.473995h 0.629921v 0.473995h 0.629921v -1.89598h 0.629921v 2.84397h 1.25984v -0.473995h 0.629921v 0.473995h 0.629921v -1.89598h 0.629921v 0.94799h 0.629921v -0.94799h 0.629921v 0.94799h
 0.629921v -1.42198h 0.629921v -0.473995h 0.629921v 2.84397h 1.25984v -1.42198h 0.629921v -0.473995h 0.629921v -1.42198h 0.629921v 2.36997h 0.629921v 1.42198h 0.629921v -2.84397h 0.629921v 1.42198h 0.629921v -0.473995h 0.629921v 0.473995h 0.629921v
 -2.84397h 0.629921v 2.84397h 0.629921v 0.473995h 0.629921v -0.473995h 0.629921v -0.94799h 0.629921v 0.473995h 0.629921v -0.473995h 1.25984v 0.473995h 0.629921v 0.94799h 0.629921v -1.42198h 1.25984v 1.89598h 1.25984v -0.94799h 0.629921v 0.94799h
 0.629921v -0.94799h 0.629921v -0.473995h 0.629921v -0.473995h 1.25984v 0.94799h 1.25984v 0.473995h 0.629921v -0.94799h 0.629921v 0.94799h 1.25984v 0.473995h 0.629921v -0.94799h 0.629921v -0.473995h 0.629921v 0.473995h 1.25984v -3.31796h 0.629921v
 -11.8499h 0.629921v -95.747h 0.629921v -180.592h 0.629921v 82.9491h 0.629921v -23.2258h 0.629921v 27.4917h 0.629921v 34.1276h 0.629921v 85.7931h 0.629921v 26.5437h 0.629921v -0.473995h 0.629921v 1.89598h 0.629921v 3.31796h 0.629921v 13.7459h
 0.629921v -5.21394h 0.629921v -4.73995h 0.629921v 12.7979h 0.629921v 7.58392h 0.629921v -1.89598h 0.629921v -2.36997h 0.629921v -5.21394h 1.25984v 18.4858h 0.629921v -3.79196h 0.629921v -0.473995h 0.629921v 0.473995h 0.629921v 7.10992h 0.629921v
 0.94799h 1.25984v -4.73995h 0.629921v 7.58392h 0.629921v 2.84397h 0.629921v -1.42198h 0.629921v 5.68794h 0.629921v -2.36997h 0.629921v 2.84397h 0.629921v 3.79196h 0.629921v 0.473995h 0.629921v 1.89598h 0.629921v 0.473995h 1.25984v -0.473995h
 0.629921" fill="none" stroke="#000099"/>
<path d="M57.1929,346.022h 453.543" fill="none" stroke="black"/>
<path d="M57.8228,336.795v 9.22726" fill="none" stroke="black"/>
<path d="M78.8202,341.409v 4.61363" fill="none" stroke="black"/>
<path d="M99.8176,341.409v 4.61363" fill="none" stroke="black"/>
<path d="M120.815,341.409v 4.61363" fill="none" stroke="black"/>
<path d="M141.812,341.409v 4.61363" fill="none" stroke="black"/>
<path d="M162.81,336.795v 9.22726" fill="none" stroke="black"/>
<path d="M183.807,341.409v 4.61363" fill="none" stroke="black"/>
<path d="M204.804,341.409v 4.61363" fill="none" stroke="black"/>
<path d="M225.802,341.409v 4.61363" fill="none" stroke="black"/>
<path d="M246.799,341.409v 4.61363" fill="none" stroke="black"/>
<path d="M267.797,336.795v 9.22726" fill="none" stroke="black"/>
<path d="M288.794,341.409v 4.61363" fill="none" stroke="black"/>
<path d="M309.791,341.409v 4.61363" fill="none" stroke="black"/>
<path d="M330.789,341.409v 4.61363" fill="none" stroke="black"/>
<path d="M351.786,341.409v 4.61363" fill="none" stroke="black"/>
<path d="M372.783,336.795v 9.22726" fill="none" stroke="black"/>
<path d="M393.781,341.409v 4.61363" fill="none" stroke="black"/>
<path d="M414.778,341.409v 4.61363" fill="none" stroke="black"/>
<path d="M435.776,341.409v 4.61363" fill="none" stroke="black"/>
<path d="M456.773,341.409v 4.61363" fill="none" stroke="black"/>
<path d="M477.77,336.795v 9.22726" fill="none" stroke="black"/>
<path d="M57.8228,336.795v 9.22726" fill="none" stroke="black"/>
<path d="M477.77,336.795v 9.22726" fill="none" stroke="black"/>
<path d="M498.768,341.409v 4.61363" fill="none" stroke="black"/>
<text xml:space="preserve" x="54.2605" y="358.403" fill="black" font-size="12.8453" font-family="Helvetica">0</text>
<text xml:space="preserve" x="152.007" y="358.403" fill="black" font-size="12.8453" font-family="Helvetica">500</text>
<text xml:space="preserve" x="253.826" y="358.403" fill="black" font-size="12.8453" font-family="Helvetica">1000</text>
<text xml:space="preserve" x="358.903" y="358.403" fill="black" font-size="12.8453" font-family="Helvetica">1500</text>
<text xml:space="preserve" x="463.166" y="358.403" fill="black" font-size="12.8453" font-family="Helvetica">2000</text>
<text xml:space="preserve" x="451.763" y="372.251" fill="black" font-size="12.8453" font-family="Helvetica">ADC value</text>
<path d="M57.1929,346.022v -307.575" fill="none" stroke="black"/>
<path d="M70.7992,346.022h -13.6063" fill="none" stroke="black"/>
<path d="M63.9961,336.542h -6.80315" fill="none" stroke="black"/>
<path d="M63.9961,327.062h -6.80315" fill="none" stroke="black"/>
<path d="M63.9961,317.583h -6.80315" fill="none" stroke="black"/>
<path d="M63.9961,308.103h -6.80315" fill="none" stroke="black"/>
<path d="M70.7992,298.623h -13.6063" fill="none" stroke="black"/>
<path d="M63.9961,289.143h -6.80315" fill="none" stroke="black"/>
<path d="M63.9961,279.663h -6.80315" fill="none" stroke="black"/>
<path d="M63.9961,270.183h -6.80315" fill="none" stroke="black"/>
<path d="M63.9961,260.703h -6.80315" fill="none" stroke="black"/>
<path d="M70.7992,251.223h -13.6063" fill="none" stroke="black"/>
<path d="M63.9961,241.743h -6.80315" fill="none" stroke="black"/>
<path d="M63.9961,232.263h -6.80315" fill="none" stroke="black"/>
<path d="M63.9961,222.784h -6.80315" fill="none" stroke="black"/>
<path d="M63.9961,213.304h -6.80315" fill="none" stroke="black"/>
<path d="M70.7992,203.824h -13.6063" fill="none" stroke="black"/>
<path d="M63.9961,194.344h -6.80315" fill="none" stroke="black"/>
<path d="M63.9961,184.864h -6.80315" fill="none" stroke="black"/>
<path d="M63.9961,175.384h -6.80315" fill="none" stroke="black"/>
<path d="M63.9961,165.904h -6.80315" fill="none" stroke="black"/>
<path d="M70.7992,156.424h -13.6063" fill="none" stroke="black"/>
<path d="M63.9961,146.944h -6.80315" fill="none" stroke="black"/>
<path d="M63.9961,137.464h -6.80315" fill="none" stroke="black"/>
<path d="M63.9961,127.985h -6.80315" fill="none" stroke="black"/>
<path d="M63.9961,118.505h -6.80315" fill="none" stroke="black"/>
<path d="M70.7992,109.025h -13.6063" fill="none" stroke="black"/>
<path d="M63.9961,99.5449h -6.80315" fill="none" stroke="black"/>
<path d="M63.9961,90.065h -6.80315" fill="none" stroke="black"/>
<path d="M63.9961,80.5851h -6.80315" fill="none" stroke="black"/>
<path d="M63.9961,71.1052h -6.80315" fill="none" stroke="black"/>
<path d="M70.7992,61.6253h -13.6063" fill="none" stroke="black"/>
<path d="M70.7992,61.6253h -13.6063" fill="none" stroke="black"/>
<path d="M63.9961,52.1454h -6.80315" fill="none" stroke="black"/>
<path d="M63.9961,42.6655h -6.80315" fill="none" stroke="black"/>
<text xml:space="preserve" x="47.7441" y="350.258" fill="black" font-size="12.8453" font-family="Helvetica">0</text>
<text xml:space="preserve" x="33.8967" y="303.014" fill="black" font-size="12.8453" font-family="Helvetica">100</text>
<text xml:space="preserve" x="33.8967" y="255.77" fill="black" font-size="12.8453" font-family="Helvetica">200</text>
<text xml:space="preserve" x="33.8967" y="208.526" fill="black" font-size="12.8453" font-family="Helvetica">300</text>
<text xml:space="preserve" x="33.8967" y="161.282" fill="black" font-size="12.8453" font-family="Helvetica">400</text>
<text xml:space="preserve" x="33.8967" y="113.223" fill="black" font-size="12.8453" font-family="Helvetica">500</text>
<text xml:space="preserve" x="33.8967" y="65.9788" fill="black" font-size="12.8453" font-family="Helvetica">600</text>
<g transform="rotate(-90,20.8638,70.0516)">
<text xml:space="preserve" x="20.8638" y="70.0516" fill="black" font-size="12.8453" font-family="Helvetica">Event</text>
</g>
<text xml:space="preserve" x="254.641" y="18.7347" fill="black" font-size="18.0316" font-family="Helvetica">Cs_001</text>
<rect x="442.705" y="24.9905" width="113.386" height="61.5151" fill="white"/>
<path d="M442.705,86.5056h 113.386" fill="none" stroke="black"/>
<path d="M556.091,86.5056v -61.5151" fill="none" stroke="black"/>
<path d="M556.091,24.9905h -113.386" fill="none" stroke="black"/>
<path d="M442.705,24.9905v 61.5151" fill="none" stroke="black"/>
<text xml:space="preserve" x="477.828" y="36.6549" fill="black" font-size="13.4802" font-family="Helvetica">Cs_001</text>
<path d="M442.705,40.3693h 113.386" fill="none" stroke="black"/>
<text xml:space="preserve" x="447.69" y="52.946" fill="black" font-size="13.0654" font-family="Helvetica">Entries </text>
<text xml:space="preserve" x="517.741" y="52.946" fill="black" font-size="13.0654" font-family="Helvetica"> 7075</text>
<text xml:space="preserve" x="447.69" y="67.6079" fill="black" font-size="13.0654" font-family="Helvetica">Mean  </text>
<text xml:space="preserve" x="510.41" y="67.6079" fill="black" font-size="13.0654" font-family="Helvetica">   1748</text>
<text xml:space="preserve" x="447.69" y="83.0844" fill="black" font-size="13.0654" font-family="Helvetica">Std Dev   </text>
<text xml:space="preserve" x="510.41" y="83.0844" fill="black" font-size="13.0654" font-family="Helvetica">  489.7</text>
<text xml:space="preserve" x="254.641" y="18.7347" fill="black" font-size="18.0316" font-family="Helvetica">Cs_001</text></svg>
