<?xml version="1.0" standalone="no"?>
<svg width="567.429" height="384.969" viewBox="0 0 567.429 384.969" xmlns="http://www.w3.org/2000/svg" shape-rendering="crispEdges">
<title>
img/week1/plane_hist/Cs_011.svg
</title>
<desc>
Creator: ROOT Version 6.22/09
CreationDate: Tue Jul 13 19:10:35 2021</desc>
<defs>
</defs>
<rect x="0.5" y="0" width="566.929" height="384.469" fill="white"/>
<rect x="57.1929" y="38.4469" width="453.543" height="307.575" fill="white"/>
<rect x="57.1929" y="38.4469" width="453.543" height="307.575" fill="none" stroke="black"/>
<path d="M57.1929,346.022h 65.4209v -8.09196h 0.629048v -77.6828h 0.629048v -75.2552h 0.629048v 16.1839h 0.629048v 26.7035h 0.629048v -0.809196h 0.629048v 9.71035h 0.629048v 42.0782h 1.2581v 2.42759h 0.629048v 5.66437h 0.629048v 20.2299h 0.629048v
 1.61839h 0.629048v 7.28276h 0.629048v -4.85518h 0.629048v 19.4207h 0.629048v -9.71035h 0.629048v 5.66437h 0.629048v 0.809196h 0.629048v 2.42759h 1.2581v 6.47357h 0.629048v 2.42759h 0.629048v -1.61839h 0.629048v 0.809196h 0.629048v -0.809196h
 0.629048v 3.23678h 0.629048v 0.809196h 0.629048v -1.61839h 0.629048v -0.809196h 0.629048v 4.04598h 0.629048v 0.809196h 0.629048v -0.809196h 0.629048v 0.809196h 1.2581v 2.42759h 0.629048v -3.23678h 0.629048v 2.42759h 0.629048v -4.04598h 0.629048v
 3.23678h 0.629048v -0.809196h 0.629048v 2.42759h 0.629048v -0.809196h 0.629048v -1.61839h 0.629048v 2.42759h 1.2581v -4.04598h 0.629048v 2.42759h 0.629048v -0.809196h 0.629048v 2.42759h 1.2581v -3.23678h 0.629048v 1.61839h 1.2581v 0.809196h
 0.629048v -0.809196h 0.629048v 0.809196h 0.629048v -1.61839h 0.629048v 2.42759h 0.629048v -0.809196h 0.629048v 0.809196h 0.629048v -0.809196h 0.629048v -1.61839h 0.629048v 2.42759h 1.2581v -3.23678h 0.629048v 2.42759h 0.629048v -0.809196h 1.88714v
 -0.809196h 0.629048v 0.809196h 1.2581v 1.61839h 0.629048v -1.61839h 0.629048v 1.61839h 1.2581v -2.42759h 0.629048v 1.61839h 1.88714v -0.809196h 1.2581v -0.809196h 0.629048v 1.61839h 1.88714v -0.809196h 0.629048v -1.61839h 0.629048v 1.61839h
 0.629048v 0.809196h 1.2581v -0.809196h 1.2581v 0.809196h 0.629048v -0.809196h 0.629048v 0.809196h 0.629048v -0.809196h 0.629048v 1.61839h 0.629048v -0.809196h 0.629048v 0.809196h 0.629048v -1.61839h 0.629048v 1.61839h 0.629048v -2.42759h 0.629048v
 1.61839h 0.629048v -0.809196h 0.629048v 0.809196h 0.629048v -0.809196h 1.2581v 0.809196h 0.629048v -1.61839h 1.2581v 1.61839h 0.629048v -0.809196h 1.88714v 0.809196h 0.629048v -1.61839h 0.629048v 1.61839h 0.629048v 0.809196h 0.629048v -1.61839h
 0.629048v 1.61839h 1.2581v -3.23678h 0.629048v 2.42759h 1.2581v -0.809196h 0.629048v 1.61839h 0.629048v -1.61839h 0.629048v 0.809196h 3.14524v 0.809196h 0.629048v -4.85518h 0.629048v 4.04598h 0.629048v -1.61839h 0.629048v 0.809196h 0.629048v
 -1.61839h 0.629048v 3.23678h 0.629048v -3.23678h 0.629048v 2.42759h 2.51619v 0.809196h 1.88714v -0.809196h 0.629048v -0.809196h 0.629048v -3.23678h 0.629048v 4.85518h 0.629048v -3.23678h 0.629048v 1.61839h 0.629048v 1.61839h 0.629048v -2.42759h
 0.629048v 1.61839h 1.2581v -0.809196h 1.2581v 1.61839h 0.629048v -2.42759h 0.629048v 1.61839h 0.629048v -0.809196h 0.629048v 0.809196h 0.629048v -0.809196h 0.629048v 0.809196h 1.2581v -1.61839h 0.629048v 2.42759h 0.629048v -1.61839h 0.629048v
 1.61839h 0.629048v -4.04598h 0.629048v 1.61839h 0.629048v 1.61839h 1.2581v -1.61839h 0.629048v 1.61839h 1.2581v 0.809196h 0.629048v -1.61839h 0.629048v 1.61839h 1.2581v -0.809196h 1.88714v -0.809196h 0.629048v 0.809196h 0.629048v 0.809196h 1.2581v
 -1.61839h 0.629048v 1.61839h 1.88714v -2.42759h 0.629048v 0.809196h 0.629048v 0.809196h 1.2581v -0.809196h 0.629048v 0.809196h 0.629048v 0.809196h 1.2581v -0.809196h 1.2581v 0.809196h 1.2581v -0.809196h 0.629048v 0.809196h 1.2581v -0.809196h
 3.14524v 0.809196h 0.629048v -1.61839h 0.629048v 0.809196h 1.2581v -2.42759h 0.629048v 1.61839h 0.629048v 0.809196h 3.14524v 0.809196h 0.629048v -1.61839h 1.2581v 0.809196h 0.629048v 0.809196h 0.629048v -1.61839h 0.629048v 1.61839h 0.629048v
 -1.61839h 0.629048v 0.809196h 1.2581v -1.61839h 0.629048v 2.42759h 1.88714v -1.61839h 0.629048v 0.809196h 0.629048v -0.809196h 0.629048v 1.61839h 0.629048v -0.809196h 1.2581v -1.61839h 0.629048v 0.809196h 0.629048v 1.61839h 0.629048v -0.809196h
 0.629048v -1.61839h 0.629048v 1.61839h 1.2581v 0.809196h 0.629048v -0.809196h 0.629048v -0.809196h 0.629048v 1.61839h 0.629048v -1.61839h 0.629048v 1.61839h 0.629048v -1.61839h 0.629048v 0.809196h 0.629048v 0.809196h 0.629048v -0.809196h 1.2581v
 0.809196h 0.629048v -1.61839h 1.88714v 0.809196h 0.629048v 0.809196h 1.88714v -0.809196h 0.629048v -1.61839h 0.629048v 1.61839h 0.629048v -0.809196h 0.629048v 0.809196h 1.2581v -0.809196h 1.2581v 1.61839h 1.2581v -0.809196h 0.629048v -0.809196h
 1.2581v 1.61839h 0.629048v -0.809196h 0.629048v -0.809196h 1.88714v 0.809196h 1.2581v -1.61839h 0.629048v 1.61839h 0.629048v -0.809196h 1.2581v -1.61839h 0.629048v 1.61839h 0.629048v 1.61839h 0.629048v -0.809196h 0.629048v -0.809196h 0.629048v
 0.809196h 1.2581v 0.809196h 0.629048v -1.61839h 0.629048v -1.61839h 0.629048v 1.61839h 0.629048v 1.61839h 0.629048v -0.809196h 1.2581v 0.809196h 0.629048v -0.809196h 1.2581v -0.809196h 0.629048v 1.61839h 1.88714v -3.23678h 0.629048v 2.42759h
 1.88714v -2.42759h 0.629048v 1.61839h 0.629048v 0.809196h 0.629048v -1.61839h 0.629048v 2.42759h 1.2581v -1.61839h 0.629048v -1.61839h 0.629048v 1.61839h 0.629048v 1.61839h 0.629048v -0.809196h 0.629048v 0.809196h 0.629048v -1.61839h 0.629048v
 1.61839h 0.629048v -1.61839h 0.629048v 1.61839h 0.629048v -0.809196h 0.629048v 0.809196h 0.629048v -1.61839h 1.2581v 0.809196h 1.2581v -1.61839h 1.2581v 2.42759h 0.629048v -1.61839h 1.2581v 0.809196h 0.629048v -0.809196h 1.2581v -1.61839h 0.629048v
 3.23678h 0.629048v -2.42759h 0.629048v 1.61839h 0.629048v -3.23678h 0.629048v 3.23678h 0.629048v -0.809196h 0.629048v 0.809196h 1.2581v -3.23678h 0.629048v -1.61839h 0.629048v 5.66437h 0.629048v -3.23678h 1.2581v 0.809196h 0.629048v -0.809196h
 0.629048v 1.61839h 1.2581v -2.42759h 0.629048v 2.42759h 0.629048v 1.61839h 0.629048v -1.61839h 0.629048v -0.809196h 0.629048v -2.42759h 0.629048v 3.23678h 0.629048v -0.809196h 1.2581v -1.61839h 0.629048v 3.23678h 1.2581v 0.809196h 0.629048v
 -1.61839h 0.629048v -1.61839h 0.629048v 2.42759h 0.629048v -3.23678h 0.629048v 1.61839h 0.629048v 0.809196h 1.88714v 0.809196h 1.2581v -2.42759h 0.629048v 1.61839h 0.629048v -0.809196h 1.2581v 1.61839h 0.629048v -0.809196h 0.629048v -1.61839h
 0.629048v 3.23678h 0.629048v -4.85518h 0.629048v 1.61839h 0.629048v 1.61839h 0.629048v 0.809196h 0.629048v -1.61839h 1.2581v 0.809196h 0.629048v -1.61839h 0.629048v 3.23678h 0.629048v -1.61839h 1.2581v 1.61839h 0.629048v -2.42759h 0.629048v
 0.809196h 0.629048v 0.809196h 0.629048v -1.61839h 0.629048v 0.809196h 0.629048v 0.809196h 0.629048v 0.809196h 1.2581v -1.61839h 0.629048v 1.61839h 1.88714v -2.42759h 1.2581v 1.61839h 1.88714v 0.809196h 0.629048v -1.61839h 0.629048v 0.809196h
 0.629048v -0.809196h 0.629048v -4.04598h 0.629048v 4.85518h 0.629048v -1.61839h 0.629048v 2.42759h 0.629048v -1.61839h 0.629048v 1.61839h 0.629048v -0.809196h 0.629048v -0.809196h 0.629048v 0.809196h 1.2581v -0.809196h 1.2581v 1.61839h 1.2581v
 -2.42759h 0.629048v 2.42759h 0.629048v -0.809196h 0.629048v 0.809196h 0.629048v -2.42759h 0.629048v 1.61839h 1.2581v -0.809196h 0.629048v 0.809196h 0.629048v -1.61839h 0.629048v 1.61839h 1.2581v 0.809196h 2.51619v -0.809196h 1.88714v 0.809196h
 1.2581v -2.42759h 0.629048v 1.61839h 1.2581v 0.809196h 0.629048v -0.809196h 1.2581v -0.809196h 0.629048v 1.61839h 0.629048v -0.809196h 1.88714v -0.809196h 0.629048v 1.61839h 0.629048v -0.809196h 0.629048v 0.809196h 2.51619v -2.42759h 0.629048v
 1.61839h 0.629048v 0.809196h 0.629048v -0.809196h 0.629048v 0.809196h 1.2581v -0.809196h 0.629048v -2.42759h 0.629048v 1.61839h 0.629048v -0.809196h 0.629048v 0.809196h 0.629048v -0.809196h 0.629048v 1.61839h 0.629048v 0.809196h 0.629048v -1.61839h
 0.629048v 0.809196h 1.2581v -1.61839h 0.629048v 0.809196h 0.629048v 1.61839h 0.629048v -2.42759h 0.629048v 0.809196h 0.629048v 0.809196h 0.629048v -1.61839h 0.629048v 1.61839h 0.629048v 0.809196h 1.2581v -3.23678h 0.629048v 1.61839h 0.629048v
 1.61839h 0.629048v -0.809196h 0.629048v 0.809196h 0.629048v -1.61839h 0.629048v 1.61839h 0.629048v -3.23678h 1.2581v 1.61839h 1.2581v -1.61839h 1.2581v -1.61839h 0.629048v 4.04598h 0.629048v -1.61839h 1.2581v 1.61839h 1.2581v -1.61839h 0.629048v
 0.809196h 0.629048v 0.809196h 0.629048v -4.04598h 0.629048v 1.61839h 0.629048v 2.42759h 1.2581v -1.61839h 0.629048v -0.809196h 0.629048v -0.809196h 1.2581v 0.809196h 0.629048v 0.809196h 1.2581v -1.61839h 0.629048v 3.23678h 0.629048v -0.809196h
 0.629048v -2.42759h 1.2581v 3.23678h 0.629048v -3.23678h 0.629048v 2.42759h 0.629048v -2.42759h 0.629048v 2.42759h 0.629048v -4.04598h 0.629048v -1.61839h 0.629048v 6.47357h 0.629048v -2.42759h 0.629048v -1.61839h 0.629048v 1.61839h 0.629048v
 0.809196h 0.629048v -2.42759h 0.629048v 1.61839h 1.88714v -1.61839h 0.629048v -2.42759h 1.2581v -2.42759h 0.629048v -7.28276h 0.629048v -31.5586h 0.629048v -186.115h 0.629048v -58.2621h 0.629048v 130.281h 0.629048v -4.04598h 0.629048v 38.8414h
 0.629048v 32.3678h 0.629048v 25.0851h 0.629048v 15.3747h 1.2581v 24.2759h 0.629048v 8.09196h 0.629048v -11.3287h 0.629048v 19.4207h 0.629048v -13.7563h 0.629048v 3.23678h 0.629048v 7.28276h 0.629048v -2.42759h 0.629048v -10.5195h 0.629048v 11.3287h
 0.629048v -5.66437h 0.629048v 0.809196h 0.629048v -4.85518h 0.629048v 4.04598h 0.629048v -0.809196h 0.629048v -3.23678h 0.629048v 2.42759h 0.629048v 5.66437h 0.629048v -4.04598h 0.629048v -4.85518h 0.629048v 8.09196h 0.629048v -2.42759h 0.629048v
 4.04598h 0.629048v -9.71035h 0.629048v 9.71035h 0.629048v -0.809196h 0.629048v -1.61839h 0.629048v -5.66437h 0.629048v 6.47357h 1.2581v -0.809196h 0.629048v 3.23678h 0.629048v 8.90115h 0.629048v 4.85518h 0.629048v 0.809196h 0.629048" fill="none"
 stroke="#000099"/>
<path d="M57.1929,346.022h 453.543" fill="none" stroke="black"/>
<path d="M57.822,336.795v 9.22726" fill="none" stroke="black"/>
<path d="M78.7902,341.409v 4.61363" fill="none" stroke="black"/>
<path d="M99.7585,341.409v 4.61363" fill="none" stroke="black"/>
<path d="M120.727,341.409v 4.61363" fill="none" stroke="black"/>
<path d="M141.695,341.409v 4.61363" fill="none" stroke="black"/>
<path d="M162.663,336.795v 9.22726" fill="none" stroke="black"/>
<path d="M183.631,341.409v 4.61363" fill="none" stroke="black"/>
<path d="M204.6,341.409v 4.61363" fill="none" stroke="black"/>
<path d="M225.568,341.409v 4.61363" fill="none" stroke="black"/>
<path d="M246.536,341.409v 4.61363" fill="none" stroke="black"/>
<path d="M267.504,336.795v 9.22726" fill="none" stroke="black"/>
<path d="M288.473,341.409v 4.61363" fill="none" stroke="black"/>
<path d="M309.441,341.409v 4.61363" fill="none" stroke="black"/>
<path d="M330.409,341.409v 4.61363" fill="none" stroke="black"/>
<path d="M351.378,341.409v 4.61363" fill="none" stroke="black"/>
<path d="M372.346,336.795v 9.22726" fill="none" stroke="black"/>
<path d="M393.314,341.409v 4.61363" fill="none" stroke="black"/>
<path d="M414.282,341.409v 4.61363" fill="none" stroke="black"/>
<path d="M435.251,341.409v 4.61363" fill="none" stroke="black"/>
<path d="M456.219,341.409v 4.61363" fill="none" stroke="black"/>
<path d="M477.187,336.795v 9.22726" fill="none" stroke="black"/>
<path d="M57.822,336.795v 9.22726" fill="none" stroke="black"/>
<path d="M477.187,336.795v 9.22726" fill="none" stroke="black"/>
<path d="M498.155,341.409v 4.61363" fill="none" stroke="black"/>
<text xml:space="preserve" x="54.2605" y="358.403" fill="black" font-size="12.8453" font-family="Helvetica">0</text>
<text xml:space="preserve" x="152.007" y="358.403" fill="black" font-size="12.8453" font-family="Helvetica">500</text>
<text xml:space="preserve" x="253.012" y="358.403" fill="black" font-size="12.8453" font-family="Helvetica">1000</text>
<text xml:space="preserve" x="358.089" y="358.403" fill="black" font-size="12.8453" font-family="Helvetica">1500</text>
<text xml:space="preserve" x="463.166" y="358.403" fill="black" font-size="12.8453" font-family="Helvetica">2000</text>
<text xml:space="preserve" x="451.763" y="372.251" fill="black" font-size="12.8453" font-family="Helvetica">ADC value</text>
<path d="M57.1929,346.022v -307.575" fill="none" stroke="black"/>
<path d="M70.7992,346.022h -13.6063" fill="none" stroke="black"/>
<path d="M63.9961,337.93h -6.80315" fill="none" stroke="black"/>
<path d="M63.9961,329.838h -6.80315" fill="none" stroke="black"/>
<path d="M63.9961,321.746h -6.80315" fill="none" stroke="black"/>
<path d="M63.9961,313.654h -6.80315" fill="none" stroke="black"/>
<path d="M70.7992,305.562h -13.6063" fill="none" stroke="black"/>
<path d="M63.9961,297.471h -6.80315" fill="none" stroke="black"/>
<path d="M63.9961,289.379h -6.80315" fill="none" stroke="black"/>
<path d="M63.9961,281.287h -6.80315" fill="none" stroke="black"/>
<path d="M63.9961,273.195h -6.80315" fill="none" stroke="black"/>
<path d="M70.7992,265.103h -13.6063" fill="none" stroke="black"/>
<path d="M63.9961,257.011h -6.80315" fill="none" stroke="black"/>
<path d="M63.9961,248.919h -6.80315" fill="none" stroke="black"/>
<path d="M63.9961,240.827h -6.80315" fill="none" stroke="black"/>
<path d="M63.9961,232.735h -6.80315" fill="none" stroke="black"/>
<path d="M70.7992,224.643h -13.6063" fill="none" stroke="black"/>
<path d="M63.9961,216.551h -6.80315" fill="none" stroke="black"/>
<path d="M63.9961,208.459h -6.80315" fill="none" stroke="black"/>
<path d="M63.9961,200.367h -6.80315" fill="none" stroke="black"/>
<path d="M63.9961,192.275h -6.80315" fill="none" stroke="black"/>
<path d="M70.7992,184.183h -13.6063" fill="none" stroke="black"/>
<path d="M63.9961,176.091h -6.80315" fill="none" stroke="black"/>
<path d="M63.9961,167.999h -6.80315" fill="none" stroke="black"/>
<path d="M63.9961,159.907h -6.80315" fill="none" stroke="black"/>
<path d="M63.9961,151.815h -6.80315" fill="none" stroke="black"/>
<path d="M70.7992,143.723h -13.6063" fill="none" stroke="black"/>
<path d="M63.9961,135.631h -6.80315" fill="none" stroke="black"/>
<path d="M63.9961,127.539h -6.80315" fill="none" stroke="black"/>
<path d="M63.9961,119.447h -6.80315" fill="none" stroke="black"/>
<path d="M63.9961,111.355h -6.80315" fill="none" stroke="black"/>
<path d="M70.7992,103.264h -13.6063" fill="none" stroke="black"/>
<path d="M63.9961,95.1715h -6.80315" fill="none" stroke="black"/>
<path d="M63.9961,87.0796h -6.80315" fill="none" stroke="black"/>
<path d="M63.9961,78.9876h -6.80315" fill="none" stroke="black"/>
<path d="M63.9961,70.8957h -6.80315" fill="none" stroke="black"/>
<path d="M70.7992,62.8037h -13.6063" fill="none" stroke="black"/>
<path d="M70.7992,62.8037h -13.6063" fill="none" stroke="black"/>
<path d="M63.9961,54.7118h -6.80315" fill="none" stroke="black"/>
<path d="M63.9961,46.6198h -6.80315" fill="none" stroke="black"/>
<path d="M63.9961,38.5278h -6.80315" fill="none" stroke="black"/>
<text xml:space="preserve" x="47.7441" y="350.258" fill="black" font-size="12.8453" font-family="Helvetica">0</text>
<text xml:space="preserve" x="41.2277" y="310.345" fill="black" font-size="12.8453" font-family="Helvetica">50</text>
<text xml:space="preserve" x="33.8967" y="269.617" fill="black" font-size="12.8453" font-family="Helvetica">100</text>
<text xml:space="preserve" x="33.8967" y="228.889" fill="black" font-size="12.8453" font-family="Helvetica">150</text>
<text xml:space="preserve" x="33.8967" y="188.976" fill="black" font-size="12.8453" font-family="Helvetica">200</text>
<text xml:space="preserve" x="33.8967" y="148.249" fill="black" font-size="12.8453" font-family="Helvetica">250</text>
<text xml:space="preserve" x="33.8967" y="107.521" fill="black" font-size="12.8453" font-family="Helvetica">300</text>
<text xml:space="preserve" x="33.8967" y="67.6079" fill="black" font-size="12.8453" font-family="Helvetica">350</text>
<g transform="rotate(-90,20.8638,70.0516)">
<text xml:space="preserve" x="20.8638" y="70.0516" fill="black" font-size="12.8453" font-family="Helvetica">Event</text>
</g>
<text xml:space="preserve" x="254.641" y="18.7347" fill="black" font-size="18.0316" font-family="Helvetica">Cs_011</text>
<rect x="442.705" y="24.9905" width="113.386" height="61.5151" fill="white"/>
<path d="M442.705,86.5056h 113.386" fill="none" stroke="black"/>
<path d="M556.091,86.5056v -61.5151" fill="none" stroke="black"/>
<path d="M556.091,24.9905h -113.386" fill="none" stroke="black"/>
<path d="M442.705,24.9905v 61.5151" fill="none" stroke="black"/>
<text xml:space="preserve" x="477.828" y="36.6549" fill="black" font-size="13.4802" font-family="Helvetica">Cs_011</text>
<path d="M442.705,40.3693h 113.386" fill="none" stroke="black"/>
<text xml:space="preserve" x="447.69" y="52.946" fill="black" font-size="13.0654" font-family="Helvetica">Entries </text>
<text xml:space="preserve" x="517.741" y="52.946" fill="black" font-size="13.0654" font-family="Helvetica"> 5207</text>
<text xml:space="preserve" x="447.69" y="67.6079" fill="black" font-size="13.0654" font-family="Helvetica">Mean  </text>
<text xml:space="preserve" x="512.854" y="67.6079" fill="black" font-size="13.0654" font-family="Helvetica">   1381</text>
<text xml:space="preserve" x="447.69" y="83.0844" fill="black" font-size="13.0654" font-family="Helvetica">Std Dev   </text>
<text xml:space="preserve" x="510.41" y="83.0844" fill="black" font-size="13.0654" font-family="Helvetica">  792.6</text>
<text xml:space="preserve" x="254.641" y="18.7347" fill="black" font-size="18.0316" font-family="Helvetica">Cs_011</text></svg>
