<?xml version="1.0" standalone="no"?>
<svg width="567.429" height="384.969" viewBox="0 0 567.429 384.969" xmlns="http://www.w3.org/2000/svg" shape-rendering="crispEdges">
<title>
img/week1/plane_hist/Cs_013.svg
</title>
<desc>
Creator: ROOT Version 6.22/09
CreationDate: Thu Jul  8 17:31:51 2021</desc>
<defs>
</defs>
<rect x="0.5" y="0" width="566.929" height="384.469" fill="white"/>
<rect x="57.1929" y="38.4469" width="453.543" height="307.575" fill="white"/>
<rect x="57.1929" y="38.4469" width="453.543" height="307.575" fill="none" stroke="black"/>
<path d="M57.1929,346.022h 72.7148v -3.367h 0.616227v -3.367h 0.616227v 1.6835h 0.616227v -15.1515h 0.616227v 1.6835h 0.616227v 11.7845h 0.616227v 5.0505h 0.616227v -6.734h 0.616227v 5.0505h 0.616227v 1.6835h 0.616227v -1.6835h 1.23245v 1.6835h
 3.08114v 1.6835h 0.616227v -1.6835h 0.616227v -1.6835h 0.616227v -1.6835h 0.616227v 3.367h 0.616227v -1.6835h 0.616227v 1.6835h 0.616227v -1.6835h 0.616227v -1.6835h 0.616227v 1.6835h 0.616227v 1.6835h 0.616227v 1.6835h 0.616227v -3.367h 0.616227v
 -1.6835h 0.616227v 3.367h 0.616227v -3.367h 0.616227v 3.367h 0.616227v -3.367h 0.616227v 1.6835h 1.23245v 3.367h 0.616227v -3.367h 0.616227v -1.6835h 1.23245v 1.6835h 0.616227v 1.6835h 0.616227v -1.6835h 0.616227v -3.367h 0.616227v 1.6835h 0.616227v
 1.6835h 0.616227v 1.6835h 0.616227v 1.6835h 0.616227v -6.734h 0.616227v 1.6835h 0.616227v 3.367h 0.616227v -5.0505h 0.616227v 3.367h 0.616227v -1.6835h 0.616227v 1.6835h 0.616227v 3.367h 0.616227v -5.0505h 0.616227v 1.6835h 2.46491v -3.367h
 0.616227v 1.6835h 0.616227v 1.6835h 1.23245v 3.367h 1.23245v -1.6835h 0.616227v -1.6835h 0.616227v 1.6835h 0.616227v -1.6835h 0.616227v 1.6835h 0.616227v -1.6835h 1.84868v -1.6835h 0.616227v 3.367h 0.616227v -3.367h 0.616227v 1.6835h 0.616227v
 3.367h 0.616227v -5.0505h 0.616227v 1.6835h 1.84868v -1.6835h 0.616227v 3.367h 0.616227v -5.0505h 0.616227v 5.0505h 0.616227v 1.6835h 0.616227v -1.6835h 0.616227v -1.6835h 1.84868v -3.367h 0.616227v 6.734h 0.616227v -1.6835h 0.616227v 1.6835h
 1.84868v -1.6835h 1.23245v -1.6835h 0.616227v 3.367h 0.616227v -3.367h 0.616227v 1.6835h 0.616227v 1.6835h 0.616227v -5.0505h 0.616227v 1.6835h 1.84868v -3.367h 0.616227v 6.734h 0.616227v -5.0505h 0.616227v 1.6835h 1.23245v -1.6835h 0.616227v 3.367h
 1.84868v -1.6835h 1.84868v -1.6835h 0.616227v 5.0505h 0.616227v -3.367h 0.616227v -1.6835h 0.616227v 1.6835h 0.616227v 1.6835h 0.616227v -5.0505h 1.23245v 5.0505h 0.616227v -1.6835h 0.616227v 1.6835h 0.616227v 1.6835h 0.616227v -5.0505h 0.616227v
 5.0505h 0.616227v -3.367h 1.23245v -1.6835h 0.616227v 5.0505h 0.616227v -3.367h 2.46491v -1.6835h 0.616227v 1.6835h 0.616227v 1.6835h 0.616227v -1.6835h 1.23245v -1.6835h 0.616227v 1.6835h 0.616227v 3.367h 1.23245v -1.6835h 0.616227v -1.6835h
 0.616227v 3.367h 0.616227v -3.367h 0.616227v 3.367h 1.84868v -5.0505h 1.23245v 1.6835h 1.84868v 1.6835h 2.46491v -3.367h 0.616227v 5.0505h 0.616227v -1.6835h 1.23245v -3.367h 0.616227v 3.367h 1.23245v -13.468h 0.616227v 11.7845h 1.23245v 1.6835h
 0.616227v 1.6835h 0.616227v -1.6835h 0.616227v 1.6835h 0.616227v -3.367h 1.23245v 1.6835h 0.616227v 1.6835h 0.616227v -6.734h 0.616227v 5.0505h 0.616227v 1.6835h 0.616227v -3.367h 1.23245v 1.6835h 0.616227v 1.6835h 0.616227v -6.734h 0.616227v
 1.6835h 0.616227v 3.367h 0.616227v -3.367h 1.23245v 5.0505h 0.616227v -3.367h 1.84868v -1.6835h 0.616227v 5.0505h 0.616227v -3.367h 1.23245v 1.6835h 1.23245v -3.367h 0.616227v 3.367h 0.616227v -1.6835h 1.23245v 1.6835h 0.616227v -1.6835h 0.616227v
 3.367h 0.616227v -1.6835h 1.23245v -1.6835h 0.616227v -1.6835h 1.23245v 1.6835h 1.23245v 1.6835h 0.616227v 1.6835h 1.84868v -6.734h 0.616227v 5.0505h 1.23245v -1.6835h 0.616227v -1.6835h 0.616227v 1.6835h 1.84868v 3.367h 0.616227v -3.367h 0.616227v
 -1.6835h 0.616227v 3.367h 0.616227v -3.367h 0.616227v -1.6835h 0.616227v 5.0505h 0.616227v 1.6835h 0.616227v -1.6835h 1.84868v -3.367h 1.23245v 5.0505h 0.616227v -3.367h 0.616227v 1.6835h 0.616227v -6.734h 0.616227v 3.367h 1.84868v 5.0505h 1.23245v
 -5.0505h 0.616227v 1.6835h 0.616227v -1.6835h 0.616227v 5.0505h 1.23245v -1.6835h 1.84868v -3.367h 1.23245v 1.6835h 0.616227v -1.6835h 0.616227v -3.367h 0.616227v 1.6835h 0.616227v 3.367h 0.616227v -6.734h 1.84868v 5.0505h 1.23245v -6.734h 0.616227v
 3.367h 0.616227v 3.367h 0.616227v -1.6835h 0.616227v 1.6835h 0.616227v 5.0505h 0.616227v -5.0505h 0.616227v -3.367h 0.616227v 8.4175h 0.616227v -8.4175h 0.616227v 6.734h 0.616227v -3.367h 0.616227v -1.6835h 0.616227v 3.367h 0.616227v -1.6835h
 1.23245v 3.367h 0.616227v -6.734h 0.616227v 6.734h 0.616227v -1.6835h 0.616227v -3.367h 0.616227v 5.0505h 0.616227v -1.6835h 1.23245v -3.367h 0.616227v -5.0505h 0.616227v 5.0505h 0.616227v -1.6835h 0.616227v 6.734h 1.23245v -1.6835h 0.616227v
 1.6835h 0.616227v -3.367h 0.616227v 3.367h 0.616227v -1.6835h 1.23245v 1.6835h 1.23245v -5.0505h 0.616227v 1.6835h 0.616227v 1.6835h 0.616227v -3.367h 0.616227v 3.367h 0.616227v 1.6835h 0.616227v -3.367h 0.616227v -1.6835h 0.616227v 1.6835h
 0.616227v 5.0505h 0.616227v -3.367h 1.84868v -1.6835h 0.616227v 3.367h 0.616227v 1.6835h 0.616227v -5.0505h 0.616227v 3.367h 0.616227v 1.6835h 0.616227v -1.6835h 1.23245v 1.6835h 0.616227v -1.6835h 0.616227v 1.6835h 1.23245v -1.6835h 0.616227v
 -1.6835h 1.23245v 1.6835h 1.84868v -1.6835h 1.23245v 1.6835h 0.616227v -1.6835h 0.616227v 3.367h 0.616227v -13.468h 0.616227v 8.4175h 0.616227v 3.367h 0.616227v 1.6835h 0.616227v -3.367h 0.616227v 1.6835h 0.616227v -1.6835h 1.84868v 3.367h 0.616227v
 -1.6835h 1.23245v -1.6835h 0.616227v 1.6835h 1.23245v -1.6835h 1.23245v -1.6835h 1.23245v 1.6835h 0.616227v -1.6835h 0.616227v 1.6835h 0.616227v 3.367h 0.616227v -1.6835h 1.23245v -1.6835h 0.616227v 1.6835h 0.616227v -3.367h 0.616227v 5.0505h
 0.616227v -1.6835h 0.616227v 1.6835h 0.616227v -1.6835h 0.616227v -1.6835h 0.616227v 1.6835h 1.23245v 1.6835h 0.616227v -3.367h 0.616227v 3.367h 0.616227v -1.6835h 0.616227v -3.367h 0.616227v 3.367h 1.23245v -1.6835h 1.84868v 1.6835h 0.616227v
 -6.734h 0.616227v 3.367h 0.616227v 1.6835h 0.616227v -3.367h 0.616227v 3.367h 0.616227v -6.734h 0.616227v 6.734h 0.616227v -3.367h 0.616227v -3.367h 0.616227v 1.6835h 0.616227v 6.734h 0.616227v -5.0505h 0.616227v 1.6835h 0.616227v 1.6835h 1.23245v
 -1.6835h 0.616227v 5.0505h 0.616227v -1.6835h 0.616227v -8.4175h 0.616227v 6.734h 0.616227v -1.6835h 0.616227v -3.367h 0.616227v 1.6835h 0.616227v -10.101h 0.616227v 13.468h 0.616227v -10.101h 0.616227v 8.4175h 0.616227v -3.367h 0.616227v 1.6835h
 0.616227v -5.0505h 0.616227v -1.6835h 0.616227v 5.0505h 0.616227v -1.6835h 0.616227v -6.734h 0.616227v 6.734h 0.616227v 1.6835h 0.616227v -1.6835h 1.23245v -1.6835h 0.616227v 5.0505h 1.23245v -5.0505h 1.23245v 6.734h 0.616227v -5.0505h 0.616227v
 -5.0505h 0.616227v 3.367h 0.616227v -5.0505h 0.616227v 1.6835h 0.616227v 5.0505h 0.616227v -15.1515h 0.616227v 1.6835h 0.616227v 11.7845h 0.616227v -10.101h 0.616227v 10.101h 0.616227v -1.6835h 0.616227v -5.0505h 0.616227v 3.367h 0.616227v -8.4175h
 0.616227v 11.7845h 0.616227v -3.367h 0.616227v 3.367h 0.616227v -3.367h 0.616227v -6.734h 0.616227v 5.0505h 0.616227v 5.0505h 0.616227v 1.6835h 0.616227v -8.4175h 0.616227v 3.367h 0.616227v -8.4175h 0.616227v 8.4175h 0.616227v -1.6835h 0.616227v
 5.0505h 0.616227v -11.7845h 0.616227v 5.0505h 0.616227v 15.1515h 0.616227v -11.7845h 0.616227v -1.6835h 0.616227v -6.734h 0.616227v 8.4175h 0.616227v 5.0505h 0.616227v 1.6835h 0.616227v -21.8855h 0.616227v 21.8855h 0.616227v -6.734h 0.616227v
 8.4175h 0.616227v -5.0505h 0.616227v -3.367h 1.23245v 10.101h 0.616227v -3.367h 1.84868v 3.367h 0.616227v -8.4175h 0.616227v 8.4175h 0.616227v -11.7845h 0.616227v 10.101h 1.84868v 5.0505h 0.616227v -8.4175h 0.616227v 6.734h 0.616227v -3.367h
 0.616227v 5.0505h 0.616227v -6.734h 1.23245v 3.367h 0.616227v 5.0505h 0.616227v -3.367h 0.616227v -5.0505h 0.616227v 3.367h 0.616227v 1.6835h 0.616227v -3.367h 0.616227v 3.367h 0.616227v 1.6835h 0.616227v -5.0505h 0.616227v 6.734h 0.616227v -5.0505h
 0.616227v 3.367h 0.616227v -6.734h 0.616227v -1.6835h 0.616227v 10.101h 1.23245v -6.734h 0.616227v 6.734h 0.616227v -6.734h 0.616227v 1.6835h 0.616227v -1.6835h 0.616227v 3.367h 1.84868v 3.367h 1.23245v -5.0505h 0.616227v 1.6835h 0.616227v -3.367h
 0.616227v 1.6835h 0.616227v 3.367h 0.616227v -1.6835h 0.616227v 1.6835h 1.23245v -3.367h 0.616227v -3.367h 0.616227v 6.734h 0.616227v 1.6835h 0.616227v -6.734h 0.616227v 6.734h 0.616227v -1.6835h 0.616227v -1.6835h 0.616227v -5.0505h 0.616227v
 5.0505h 0.616227v 3.367h 0.616227v -5.0505h 0.616227v -3.367h 0.616227v 3.367h 0.616227v -1.6835h 0.616227v 3.367h 0.616227v 1.6835h 0.616227v 1.6835h 0.616227v -5.0505h 0.616227v 1.6835h 0.616227v 1.6835h 0.616227v -1.6835h 0.616227v -3.367h
 0.616227v 5.0505h 1.23245v -1.6835h 0.616227v 3.367h 0.616227v -3.367h 1.23245v 3.367h 0.616227v -6.734h 0.616227v -1.6835h 0.616227v -18.5185h 0.616227v -63.973h 0.616227v -139.73h 0.616227v -62.2895h 0.616227v 75.7575h 0.616227v -43.771h 0.616227v
 50.505h 0.616227v 5.0505h 0.616227v 55.5555h 0.616227v 23.569h 0.616227v 48.8215h 0.616227v -5.0505h 0.616227v 16.835h 0.616227v 23.569h 0.616227v -16.835h 0.616227v 1.6835h 0.616227v -1.6835h 0.616227v -5.0505h 0.616227v -13.468h 0.616227v 35.3535h
 0.616227v -10.101h 1.23245v -6.734h 0.616227v 5.0505h 0.616227v -6.734h 0.616227v -1.6835h 0.616227v 10.101h 0.616227v 1.6835h 0.616227v -15.1515h 0.616227v 1.6835h 0.616227v 10.101h 0.616227v 26.936h 0.616227v -45.4545h 0.616227v 26.936h 0.616227v
 -16.835h 0.616227v 15.1515h 0.616227v 15.1515h 1.23245v -10.101h 0.616227v 13.468h 0.616227v -3.367h 0.616227v -3.367h 0.616227v 10.101h 0.616227v 6.734h 0.616227v 8.4175h 0.616227v 8.4175h 0.616227" fill="none" stroke="#000099"/>
<path d="M57.1929,346.022h 453.543" fill="none" stroke="black"/>
<path d="M57.8091,336.795v 9.22726" fill="none" stroke="black"/>
<path d="M78.3501,341.409v 4.61363" fill="none" stroke="black"/>
<path d="M98.891,341.409v 4.61363" fill="none" stroke="black"/>
<path d="M119.432,341.409v 4.61363" fill="none" stroke="black"/>
<path d="M139.973,341.409v 4.61363" fill="none" stroke="black"/>
<path d="M160.514,336.795v 9.22726" fill="none" stroke="black"/>
<path d="M181.055,341.409v 4.61363" fill="none" stroke="black"/>
<path d="M201.596,341.409v 4.61363" fill="none" stroke="black"/>
<path d="M222.136,341.409v 4.61363" fill="none" stroke="black"/>
<path d="M242.677,341.409v 4.61363" fill="none" stroke="black"/>
<path d="M263.218,336.795v 9.22726" fill="none" stroke="black"/>
<path d="M283.759,341.409v 4.61363" fill="none" stroke="black"/>
<path d="M304.3,341.409v 4.61363" fill="none" stroke="black"/>
<path d="M324.841,341.409v 4.61363" fill="none" stroke="black"/>
<path d="M345.382,341.409v 4.61363" fill="none" stroke="black"/>
<path d="M365.923,336.795v 9.22726" fill="none" stroke="black"/>
<path d="M386.464,341.409v 4.61363" fill="none" stroke="black"/>
<path d="M407.005,341.409v 4.61363" fill="none" stroke="black"/>
<path d="M427.546,341.409v 4.61363" fill="none" stroke="black"/>
<path d="M448.086,341.409v 4.61363" fill="none" stroke="black"/>
<path d="M468.627,336.795v 9.22726" fill="none" stroke="black"/>
<path d="M57.8091,336.795v 9.22726" fill="none" stroke="black"/>
<path d="M468.627,336.795v 9.22726" fill="none" stroke="black"/>
<path d="M489.168,341.409v 4.61363" fill="none" stroke="black"/>
<path d="M509.709,341.409v 4.61363" fill="none" stroke="black"/>
<text xml:space="preserve" x="54.2605" y="358.403" fill="black" font-size="12.8453" font-family="Helvetica">0</text>
<text xml:space="preserve" x="149.563" y="358.403" fill="black" font-size="12.8453" font-family="Helvetica">500</text>
<text xml:space="preserve" x="248.939" y="358.403" fill="black" font-size="12.8453" font-family="Helvetica">1000</text>
<text xml:space="preserve" x="351.573" y="358.403" fill="black" font-size="12.8453" font-family="Helvetica">1500</text>
<text xml:space="preserve" x="454.206" y="358.403" fill="black" font-size="12.8453" font-family="Helvetica">2000</text>
<text xml:space="preserve" x="451.763" y="372.251" fill="black" font-size="12.8453" font-family="Helvetica">ADC value</text>
<path d="M57.1929,346.022v -307.575" fill="none" stroke="black"/>
<path d="M70.7992,346.022h -13.6063" fill="none" stroke="black"/>
<path d="M63.9961,337.605h -6.80315" fill="none" stroke="black"/>
<path d="M63.9961,329.187h -6.80315" fill="none" stroke="black"/>
<path d="M63.9961,320.77h -6.80315" fill="none" stroke="black"/>
<path d="M70.7992,312.352h -13.6063" fill="none" stroke="black"/>
<path d="M63.9961,303.935h -6.80315" fill="none" stroke="black"/>
<path d="M63.9961,295.517h -6.80315" fill="none" stroke="black"/>
<path d="M63.9961,287.1h -6.80315" fill="none" stroke="black"/>
<path d="M70.7992,278.682h -13.6063" fill="none" stroke="black"/>
<path d="M63.9961,270.265h -6.80315" fill="none" stroke="black"/>
<path d="M63.9961,261.847h -6.80315" fill="none" stroke="black"/>
<path d="M63.9961,253.43h -6.80315" fill="none" stroke="black"/>
<path d="M70.7992,245.012h -13.6063" fill="none" stroke="black"/>
<path d="M63.9961,236.595h -6.80315" fill="none" stroke="black"/>
<path d="M63.9961,228.177h -6.80315" fill="none" stroke="black"/>
<path d="M63.9961,219.76h -6.80315" fill="none" stroke="black"/>
<path d="M70.7992,211.342h -13.6063" fill="none" stroke="black"/>
<path d="M63.9961,202.925h -6.80315" fill="none" stroke="black"/>
<path d="M63.9961,194.507h -6.80315" fill="none" stroke="black"/>
<path d="M63.9961,186.09h -6.80315" fill="none" stroke="black"/>
<path d="M70.7992,177.672h -13.6063" fill="none" stroke="black"/>
<path d="M63.9961,169.255h -6.80315" fill="none" stroke="black"/>
<path d="M63.9961,160.837h -6.80315" fill="none" stroke="black"/>
<path d="M63.9961,152.42h -6.80315" fill="none" stroke="black"/>
<path d="M70.7992,144.002h -13.6063" fill="none" stroke="black"/>
<path d="M63.9961,135.585h -6.80315" fill="none" stroke="black"/>
<path d="M63.9961,127.167h -6.80315" fill="none" stroke="black"/>
<path d="M63.9961,118.75h -6.80315" fill="none" stroke="black"/>
<path d="M70.7992,110.332h -13.6063" fill="none" stroke="black"/>
<path d="M63.9961,101.915h -6.80315" fill="none" stroke="black"/>
<path d="M63.9961,93.4974h -6.80315" fill="none" stroke="black"/>
<path d="M63.9961,85.0798h -6.80315" fill="none" stroke="black"/>
<path d="M70.7992,76.6624h -13.6063" fill="none" stroke="black"/>
<path d="M63.9961,68.2449h -6.80315" fill="none" stroke="black"/>
<path d="M63.9961,59.8274h -6.80315" fill="none" stroke="black"/>
<path d="M63.9961,51.4099h -6.80315" fill="none" stroke="black"/>
<path d="M70.7992,42.9924h -13.6063" fill="none" stroke="black"/>
<path d="M70.7992,42.9924h -13.6063" fill="none" stroke="black"/>
<text xml:space="preserve" x="47.7441" y="350.258" fill="black" font-size="12.8453" font-family="Helvetica">0</text>
<text xml:space="preserve" x="41.2277" y="316.861" fill="black" font-size="12.8453" font-family="Helvetica">20</text>
<text xml:space="preserve" x="41.2277" y="283.465" fill="black" font-size="12.8453" font-family="Helvetica">40</text>
<text xml:space="preserve" x="41.2277" y="249.253" fill="black" font-size="12.8453" font-family="Helvetica">60</text>
<text xml:space="preserve" x="41.2277" y="215.857" fill="black" font-size="12.8453" font-family="Helvetica">80</text>
<text xml:space="preserve" x="33.8967" y="182.46" fill="black" font-size="12.8453" font-family="Helvetica">100</text>
<text xml:space="preserve" x="33.8967" y="148.249" fill="black" font-size="12.8453" font-family="Helvetica">120</text>
<text xml:space="preserve" x="33.8967" y="114.852" fill="black" font-size="12.8453" font-family="Helvetica">140</text>
<text xml:space="preserve" x="33.8967" y="81.4553" fill="black" font-size="12.8453" font-family="Helvetica">160</text>
<text xml:space="preserve" x="33.8967" y="47.2441" fill="black" font-size="12.8453" font-family="Helvetica">180</text>
<g transform="rotate(-90,20.8638,70.0516)">
<text xml:space="preserve" x="20.8638" y="70.0516" fill="black" font-size="12.8453" font-family="Helvetica">Event</text>
</g>
<text xml:space="preserve" x="253.012" y="18.7347" fill="black" font-size="18.0316" font-family="Helvetica">Cs_013</text>
<rect x="442.705" y="24.9905" width="113.386" height="61.5151" fill="white"/>
<path d="M442.705,86.5056h 113.386" fill="none" stroke="black"/>
<path d="M556.091,86.5056v -61.5151" fill="none" stroke="black"/>
<path d="M556.091,24.9905h -113.386" fill="none" stroke="black"/>
<path d="M442.705,24.9905v 61.5151" fill="none" stroke="black"/>
<text xml:space="preserve" x="476.199" y="36.6549" fill="black" font-size="13.4802" font-family="Helvetica">Cs_013</text>
<path d="M442.705,40.3693h 113.386" fill="none" stroke="black"/>
<text xml:space="preserve" x="447.69" y="52.946" fill="black" font-size="13.0654" font-family="Helvetica">Entries </text>
<text xml:space="preserve" x="517.741" y="52.946" fill="black" font-size="13.0654" font-family="Helvetica"> 3728</text>
<text xml:space="preserve" x="447.69" y="67.6079" fill="black" font-size="13.0654" font-family="Helvetica">Mean  </text>
<text xml:space="preserve" x="510.41" y="67.6079" fill="black" font-size="13.0654" font-family="Helvetica">   1792</text>
<text xml:space="preserve" x="447.69" y="83.0844" fill="black" font-size="13.0654" font-family="Helvetica">Std Dev   </text>
<text xml:space="preserve" x="510.41" y="83.0844" fill="black" font-size="13.0654" font-family="Helvetica">  487.3</text>
<text xml:space="preserve" x="253.012" y="18.7347" fill="black" font-size="18.0316" font-family="Helvetica">Cs_013</text></svg>
