<?xml version="1.0" standalone="no"?>
<svg width="567.429" height="384.969" viewBox="0 0 567.429 384.969" xmlns="http://www.w3.org/2000/svg" shape-rendering="crispEdges">
<title>
img/week1/plane_hist/Cs_013.svg
</title>
<desc>
Creator: ROOT Version 6.22/09
CreationDate: Tue Jul 13 15:53:14 2021</desc>
<defs>
</defs>
<rect x="0.5" y="0" width="566.929" height="384.469" fill="white"/>
<rect x="57.1929" y="38.4469" width="453.543" height="307.575" fill="white"/>
<rect x="57.1929" y="38.4469" width="453.543" height="307.575" fill="none" stroke="black"/>
<path d="M57.1929,346.022h 66.4946v -1.20053h 0.627307v -7.20317h 0.627307v -2.40106h 0.627307v -2.40106h 0.627307v 8.4037h 0.627307v -1.20053h 0.627307v 2.40106h 0.627307v -1.20053h 0.627307v 2.40106h 0.627307v 1.20053h 0.627307v 1.20053h 0.627307v
 -6.00264h 0.627307v 4.80211h 0.627307v -1.20053h 0.627307v 1.20053h 0.627307v 1.20053h 0.627307v -1.20053h 1.88192v 1.20053h 0.627307v -4.80211h 0.627307v 1.20053h 0.627307v 2.40106h 0.627307v -3.60158h 0.627307v 2.40106h 0.627307v 1.20053h
 0.627307v -1.20053h 0.627307v 2.40106h 0.627307v -2.40106h 0.627307v -2.40106h 0.627307v 3.60158h 0.627307v -2.40106h 0.627307v 1.20053h 0.627307v 1.20053h 0.627307v -1.20053h 0.627307v 1.20053h 0.627307v -1.20053h 1.88192v -3.60158h 0.627307v
 4.80211h 1.88192v -6.00264h 0.627307v 6.00264h 1.25461v -1.20053h 1.88192v 1.20053h 0.627307v -1.20053h 0.627307v -1.20053h 0.627307v 1.20053h 0.627307v -4.80211h 0.627307v 7.20317h 0.627307v -3.60158h 0.627307v 3.60158h 0.627307v -4.80211h
 0.627307v 1.20053h 0.627307v 2.40106h 0.627307v -2.40106h 1.25461v 1.20053h 1.25461v -1.20053h 0.627307v 3.60158h 0.627307v -1.20053h 0.627307v 1.20053h 0.627307v -2.40106h 1.25461v -1.20053h 0.627307v 2.40106h 0.627307v 1.20053h 0.627307v -1.20053h
 0.627307v -3.60158h 0.627307v 1.20053h 0.627307v 1.20053h 1.25461v 1.20053h 0.627307v -2.40106h 1.25461v 2.40106h 1.88192v -2.40106h 0.627307v -2.40106h 0.627307v 3.60158h 0.627307v 2.40106h 1.25461v -2.40106h 0.627307v 1.20053h 0.627307v -2.40106h
 0.627307v 2.40106h 0.627307v -2.40106h 0.627307v 2.40106h 0.627307v 1.20053h 3.13654v -1.20053h 1.25461v -3.60158h 0.627307v 3.60158h 0.627307v 1.20053h 0.627307v -3.60158h 0.627307v 2.40106h 1.25461v -2.40106h 0.627307v 1.20053h 2.50923v 1.20053h
 0.627307v -2.40106h 1.25461v 1.20053h 0.627307v 2.40106h 0.627307v -2.40106h 0.627307v -1.20053h 0.627307v 1.20053h 0.627307v 1.20053h 1.25461v -2.40106h 0.627307v 1.20053h 1.25461v -1.20053h 0.627307v 1.20053h 1.88192v -2.40106h 0.627307v 3.60158h
 1.25461v -1.20053h 0.627307v -1.20053h 0.627307v 3.60158h 0.627307v -1.20053h 0.627307v 1.20053h 0.627307v -2.40106h 0.627307v -1.20053h 0.627307v -1.20053h 0.627307v 4.80211h 0.627307v -1.20053h 1.25461v -2.40106h 0.627307v 1.20053h 1.25461v
 -1.20053h 0.627307v 2.40106h 0.627307v -1.20053h 1.25461v -1.20053h 0.627307v 2.40106h 0.627307v 1.20053h 0.627307v -1.20053h 0.627307v 1.20053h 2.50923v -3.60158h 0.627307v 2.40106h 0.627307v -3.60158h 0.627307v 2.40106h 0.627307v 1.20053h 1.25461v
 -1.20053h 1.25461v 1.20053h 3.13654v -1.20053h 1.25461v 1.20053h 0.627307v -2.40106h 0.627307v -2.40106h 0.627307v 4.80211h 0.627307v -3.60158h 0.627307v 3.60158h 0.627307v -1.20053h 0.627307v 2.40106h 1.25461v -2.40106h 1.25461v -1.20053h 0.627307v
 3.60158h 0.627307v -1.20053h 0.627307v -6.00264h 0.627307v 7.20317h 1.88192v -2.40106h 0.627307v 1.20053h 0.627307v -1.20053h 0.627307v -1.20053h 1.25461v 2.40106h 0.627307v -2.40106h 1.25461v 2.40106h 1.25461v -2.40106h 1.25461v 2.40106h 3.13654v
 -1.20053h 0.627307v 1.20053h 0.627307v 1.20053h 0.627307v -4.80211h 0.627307v 2.40106h 0.627307v 1.20053h 2.50923v -1.20053h 0.627307v -2.40106h 0.627307v 3.60158h 0.627307v -2.40106h 0.627307v 1.20053h 0.627307v 2.40106h 0.627307v -1.20053h
 1.88192v -1.20053h 0.627307v 1.20053h 0.627307v 1.20053h 0.627307v -1.20053h 0.627307v -1.20053h 0.627307v -1.20053h 0.627307v 3.60158h 0.627307v -6.00264h 0.627307v 3.60158h 1.25461v 1.20053h 0.627307v -2.40106h 0.627307v 3.60158h 0.627307v
 -3.60158h 0.627307v 2.40106h 0.627307v -1.20053h 0.627307v 1.20053h 0.627307v -1.20053h 3.13654v 1.20053h 0.627307v -2.40106h 0.627307v -1.20053h 0.627307v 1.20053h 0.627307v 1.20053h 0.627307v -1.20053h 0.627307v 3.60158h 0.627307v -2.40106h
 0.627307v -1.20053h 0.627307v 2.40106h 1.25461v -2.40106h 0.627307v 3.60158h 1.25461v -2.40106h 0.627307v -1.20053h 1.25461v 2.40106h 0.627307v -2.40106h 0.627307v -3.60158h 0.627307v 2.40106h 0.627307v 4.80211h 0.627307v -4.80211h 0.627307v
 -1.20053h 0.627307v 4.80211h 0.627307v -10.8048h 0.627307v 9.60423h 0.627307v -4.80211h 0.627307v 3.60158h 1.25461v -7.20317h 0.627307v 8.4037h 0.627307v 1.20053h 0.627307v -3.60158h 0.627307v 1.20053h 0.627307v -1.20053h 0.627307v 2.40106h
 0.627307v 1.20053h 0.627307v -2.40106h 0.627307v 2.40106h 0.627307v -3.60158h 0.627307v -2.40106h 0.627307v 3.60158h 0.627307v 1.20053h 0.627307v 1.20053h 0.627307v -4.80211h 0.627307v 4.80211h 0.627307v -1.20053h 1.88192v 1.20053h 0.627307v
 -3.60158h 0.627307v 1.20053h 0.627307v -4.80211h 0.627307v 4.80211h 0.627307v -2.40106h 0.627307v 4.80211h 1.25461v -1.20053h 0.627307v 2.40106h 0.627307v -4.80211h 0.627307v 3.60158h 1.25461v -2.40106h 0.627307v 2.40106h 1.25461v -3.60158h
 0.627307v 2.40106h 0.627307v -1.20053h 0.627307v -1.20053h 0.627307v 2.40106h 1.25461v -1.20053h 0.627307v 1.20053h 0.627307v 1.20053h 0.627307v -4.80211h 0.627307v 6.00264h 1.25461v -2.40106h 0.627307v -2.40106h 0.627307v 2.40106h 1.25461v 2.40106h
 0.627307v -2.40106h 0.627307v 2.40106h 1.25461v -1.20053h 0.627307v 1.20053h 0.627307v -2.40106h 0.627307v 2.40106h 1.88192v -4.80211h 0.627307v 3.60158h 0.627307v -1.20053h 0.627307v 2.40106h 1.25461v -1.20053h 0.627307v -3.60158h 0.627307v
 2.40106h 0.627307v 1.20053h 0.627307v -4.80211h 0.627307v 2.40106h 0.627307v 1.20053h 1.25461v 2.40106h 0.627307v -2.40106h 1.25461v 1.20053h 2.50923v -1.20053h 0.627307v 1.20053h 0.627307v -1.20053h 0.627307v 1.20053h 0.627307v -1.20053h 0.627307v
 1.20053h 0.627307v -1.20053h 0.627307v 1.20053h 0.627307v -4.80211h 0.627307v 2.40106h 0.627307v 1.20053h 0.627307v 1.20053h 0.627307v 1.20053h 0.627307v -3.60158h 0.627307v 2.40106h 0.627307v -1.20053h 0.627307v 1.20053h 1.25461v -1.20053h
 0.627307v 1.20053h 0.627307v 1.20053h 1.88192v -2.40106h 1.25461v 2.40106h 0.627307v -2.40106h 0.627307v 1.20053h 0.627307v 1.20053h 0.627307v -3.60158h 0.627307v 3.60158h 0.627307v -3.60158h 0.627307v 1.20053h 0.627307v 1.20053h 1.25461v -3.60158h
 0.627307v 3.60158h 0.627307v -3.60158h 0.627307v -1.20053h 0.627307v 3.60158h 1.25461v -4.80211h 0.627307v 3.60158h 0.627307v 1.20053h 0.627307v -6.00264h 0.627307v 2.40106h 0.627307v 4.80211h 0.627307v -7.20317h 0.627307v 8.4037h 0.627307v
 -3.60158h 0.627307v 2.40106h 1.25461v -4.80211h 0.627307v 3.60158h 0.627307v -1.20053h 0.627307v -1.20053h 0.627307v 3.60158h 0.627307v -6.00264h 0.627307v 1.20053h 0.627307v -1.20053h 0.627307v 1.20053h 0.627307v -3.60158h 0.627307v 6.00264h
 0.627307v -2.40106h 1.25461v -2.40106h 0.627307v 3.60158h 0.627307v -6.00264h 0.627307v 3.60158h 0.627307v 1.20053h 0.627307v -2.40106h 0.627307v 3.60158h 0.627307v -3.60158h 1.25461v 2.40106h 0.627307v 2.40106h 0.627307v -4.80211h 0.627307v
 2.40106h 0.627307v -1.20053h 0.627307v 3.60158h 0.627307v -3.60158h 0.627307v -8.4037h 0.627307v 2.40106h 0.627307v 1.20053h 0.627307v 7.20317h 0.627307v -3.60158h 0.627307v -4.80211h 0.627307v -2.40106h 0.627307v 1.20053h 0.627307v 7.20317h
 0.627307v -6.00264h 0.627307v -1.20053h 0.627307v 1.20053h 1.25461v -1.20053h 0.627307v 4.80211h 0.627307v 1.20053h 0.627307v -6.00264h 0.627307v 3.60158h 0.627307v -3.60158h 0.627307v 7.20317h 0.627307v -2.40106h 1.88192v -3.60158h 0.627307v
 3.60158h 0.627307v -13.2058h 0.627307v 18.0079h 0.627307v -10.8048h 0.627307v 6.00264h 0.627307v -2.40106h 0.627307v 7.20317h 0.627307v -3.60158h 0.627307v -8.4037h 0.627307v 2.40106h 0.627307v -1.20053h 0.627307v 4.80211h 0.627307v 6.00264h
 0.627307v -8.4037h 0.627307v 3.60158h 0.627307v -1.20053h 0.627307v 4.80211h 0.627307v -3.60158h 0.627307v 3.60158h 0.627307v -2.40106h 0.627307v 1.20053h 0.627307v 2.40106h 0.627307v 1.20053h 0.627307v -2.40106h 0.627307v -3.60158h 0.627307v
 -2.40106h 0.627307v 4.80211h 0.627307v 2.40106h 0.627307v -1.20053h 0.627307v 2.40106h 0.627307v 1.20053h 0.627307v -2.40106h 1.25461v 4.80211h 0.627307v -6.00264h 0.627307v 2.40106h 0.627307v -4.80211h 0.627307v 6.00264h 0.627307v -2.40106h
 0.627307v 3.60158h 1.25461v -4.80211h 0.627307v 2.40106h 0.627307v 2.40106h 0.627307v -1.20053h 0.627307v -1.20053h 1.25461v 2.40106h 0.627307v -4.80211h 0.627307v 3.60158h 0.627307v -1.20053h 0.627307v 1.20053h 0.627307v -1.20053h 0.627307v
 1.20053h 0.627307v 2.40106h 0.627307v -2.40106h 1.25461v 1.20053h 0.627307v -7.20317h 0.627307v 7.20317h 0.627307v -3.60158h 0.627307v 2.40106h 0.627307v 1.20053h 1.25461v -1.20053h 1.25461v -2.40106h 0.627307v 1.20053h 1.25461v 2.40106h 0.627307v
 -1.20053h 0.627307v 1.20053h 0.627307v 1.20053h 0.627307v -7.20317h 0.627307v 3.60158h 0.627307v 2.40106h 1.25461v -1.20053h 0.627307v 1.20053h 0.627307v -1.20053h 1.25461v 1.20053h 0.627307v 1.20053h 0.627307v -3.60158h 1.25461v -1.20053h 0.627307v
 -2.40106h 0.627307v 4.80211h 0.627307v -1.20053h 0.627307v 3.60158h 0.627307v -4.80211h 0.627307v 3.60158h 1.25461v -2.40106h 0.627307v 2.40106h 0.627307v -2.40106h 0.627307v 2.40106h 0.627307v -1.20053h 1.25461v 1.20053h 0.627307v -1.20053h
 0.627307v 2.40106h 0.627307v -1.20053h 0.627307v -1.20053h 0.627307v 1.20053h 0.627307v -9.60423h 0.627307v -102.045h 0.627307v -180.079h 0.627307v 123.654h 0.627307v 2.40106h 0.627307v 6.00264h 0.627307v -31.2137h 0.627307v 96.0423h 0.627307v
 4.80211h 0.627307v 33.6148h 0.627307v 8.4037h 0.627307v 14.4063h 0.627307v -9.60423h 0.627307v 7.20317h 0.627307v -6.00264h 0.627307v -3.60158h 0.627307v 4.80211h 0.627307v 8.4037h 0.627307v -9.60423h 0.627307v -12.0053h 0.627307v 20.409h 0.627307v
 -2.40106h 0.627307v -4.80211h 0.627307v -1.20053h 0.627307v -1.20053h 0.627307v 16.8074h 0.627307v -8.4037h 0.627307v -8.4037h 0.627307v 8.4037h 0.627307v -8.4037h 0.627307v 18.0079h 0.627307v -24.0106h 0.627307v 7.20317h 0.627307v 1.20053h
 0.627307v 8.4037h 0.627307v 15.6069h 0.627307v -3.60158h 0.627307v -2.40106h 0.627307v -10.8048h 0.627307v 16.8074h 0.627307v -1.20053h 0.627307v -1.20053h 0.627307v 7.20317h 0.627307v 8.4037h 0.627307v 4.80211h 0.627307v -1.20053h 0.627307"
 fill="none" stroke="#000099"/>
<path d="M57.1929,346.022h 453.543" fill="none" stroke="black"/>
<path d="M57.8202,336.795v 9.22726" fill="none" stroke="black"/>
<path d="M78.7305,341.409v 4.61363" fill="none" stroke="black"/>
<path d="M99.6407,341.409v 4.61363" fill="none" stroke="black"/>
<path d="M120.551,341.409v 4.61363" fill="none" stroke="black"/>
<path d="M141.461,341.409v 4.61363" fill="none" stroke="black"/>
<path d="M162.371,336.795v 9.22726" fill="none" stroke="black"/>
<path d="M183.282,341.409v 4.61363" fill="none" stroke="black"/>
<path d="M204.192,341.409v 4.61363" fill="none" stroke="black"/>
<path d="M225.102,341.409v 4.61363" fill="none" stroke="black"/>
<path d="M246.012,341.409v 4.61363" fill="none" stroke="black"/>
<path d="M266.923,336.795v 9.22726" fill="none" stroke="black"/>
<path d="M287.833,341.409v 4.61363" fill="none" stroke="black"/>
<path d="M308.743,341.409v 4.61363" fill="none" stroke="black"/>
<path d="M329.653,341.409v 4.61363" fill="none" stroke="black"/>
<path d="M350.564,341.409v 4.61363" fill="none" stroke="black"/>
<path d="M371.474,336.795v 9.22726" fill="none" stroke="black"/>
<path d="M392.384,341.409v 4.61363" fill="none" stroke="black"/>
<path d="M413.294,341.409v 4.61363" fill="none" stroke="black"/>
<path d="M434.205,341.409v 4.61363" fill="none" stroke="black"/>
<path d="M455.115,341.409v 4.61363" fill="none" stroke="black"/>
<path d="M476.025,336.795v 9.22726" fill="none" stroke="black"/>
<path d="M57.8202,336.795v 9.22726" fill="none" stroke="black"/>
<path d="M476.025,336.795v 9.22726" fill="none" stroke="black"/>
<path d="M496.935,341.409v 4.61363" fill="none" stroke="black"/>
<text xml:space="preserve" x="54.2605" y="358.403" fill="black" font-size="12.8453" font-family="Helvetica">0</text>
<text xml:space="preserve" x="151.192" y="358.403" fill="black" font-size="12.8453" font-family="Helvetica">500</text>
<text xml:space="preserve" x="253.012" y="358.403" fill="black" font-size="12.8453" font-family="Helvetica">1000</text>
<text xml:space="preserve" x="357.274" y="358.403" fill="black" font-size="12.8453" font-family="Helvetica">1500</text>
<text xml:space="preserve" x="461.537" y="358.403" fill="black" font-size="12.8453" font-family="Helvetica">2000</text>
<text xml:space="preserve" x="451.763" y="372.251" fill="black" font-size="12.8453" font-family="Helvetica">ADC value</text>
<path d="M57.1929,346.022v -307.575" fill="none" stroke="black"/>
<path d="M70.7992,346.022h -13.6063" fill="none" stroke="black"/>
<path d="M63.9961,334.017h -6.80315" fill="none" stroke="black"/>
<path d="M63.9961,322.012h -6.80315" fill="none" stroke="black"/>
<path d="M63.9961,310.006h -6.80315" fill="none" stroke="black"/>
<path d="M63.9961,298.001h -6.80315" fill="none" stroke="black"/>
<path d="M70.7992,285.996h -13.6063" fill="none" stroke="black"/>
<path d="M63.9961,273.991h -6.80315" fill="none" stroke="black"/>
<path d="M63.9961,261.985h -6.80315" fill="none" stroke="black"/>
<path d="M63.9961,249.98h -6.80315" fill="none" stroke="black"/>
<path d="M63.9961,237.975h -6.80315" fill="none" stroke="black"/>
<path d="M70.7992,225.969h -13.6063" fill="none" stroke="black"/>
<path d="M63.9961,213.964h -6.80315" fill="none" stroke="black"/>
<path d="M63.9961,201.959h -6.80315" fill="none" stroke="black"/>
<path d="M63.9961,189.954h -6.80315" fill="none" stroke="black"/>
<path d="M63.9961,177.948h -6.80315" fill="none" stroke="black"/>
<path d="M70.7992,165.943h -13.6063" fill="none" stroke="black"/>
<path d="M63.9961,153.938h -6.80315" fill="none" stroke="black"/>
<path d="M63.9961,141.932h -6.80315" fill="none" stroke="black"/>
<path d="M63.9961,129.927h -6.80315" fill="none" stroke="black"/>
<path d="M63.9961,117.922h -6.80315" fill="none" stroke="black"/>
<path d="M70.7992,105.917h -13.6063" fill="none" stroke="black"/>
<path d="M63.9961,93.9113h -6.80315" fill="none" stroke="black"/>
<path d="M63.9961,81.906h -6.80315" fill="none" stroke="black"/>
<path d="M63.9961,69.9008h -6.80315" fill="none" stroke="black"/>
<path d="M63.9961,57.8955h -6.80315" fill="none" stroke="black"/>
<path d="M70.7992,45.8902h -13.6063" fill="none" stroke="black"/>
<path d="M70.7992,45.8902h -13.6063" fill="none" stroke="black"/>
<text xml:space="preserve" x="47.7441" y="350.258" fill="black" font-size="12.8453" font-family="Helvetica">0</text>
<text xml:space="preserve" x="41.2277" y="290.796" fill="black" font-size="12.8453" font-family="Helvetica">50</text>
<text xml:space="preserve" x="33.8967" y="230.519" fill="black" font-size="12.8453" font-family="Helvetica">100</text>
<text xml:space="preserve" x="33.8967" y="170.242" fill="black" font-size="12.8453" font-family="Helvetica">150</text>
<text xml:space="preserve" x="33.8967" y="110.779" fill="black" font-size="12.8453" font-family="Helvetica">200</text>
<text xml:space="preserve" x="33.8967" y="50.5023" fill="black" font-size="12.8453" font-family="Helvetica">250</text>
<g transform="rotate(-90,20.8638,70.0516)">
<text xml:space="preserve" x="20.8638" y="70.0516" fill="black" font-size="12.8453" font-family="Helvetica">Event</text>
</g>
<text xml:space="preserve" x="253.012" y="18.7347" fill="black" font-size="18.0316" font-family="Helvetica">Cs_013</text>
<rect x="442.705" y="24.9905" width="113.386" height="61.5151" fill="white"/>
<path d="M442.705,86.5056h 113.386" fill="none" stroke="black"/>
<path d="M556.091,86.5056v -61.5151" fill="none" stroke="black"/>
<path d="M556.091,24.9905h -113.386" fill="none" stroke="black"/>
<path d="M442.705,24.9905v 61.5151" fill="none" stroke="black"/>
<text xml:space="preserve" x="476.199" y="36.6549" fill="black" font-size="13.4802" font-family="Helvetica">Cs_013</text>
<path d="M442.705,40.3693h 113.386" fill="none" stroke="black"/>
<text xml:space="preserve" x="447.69" y="52.946" fill="black" font-size="13.0654" font-family="Helvetica">Entries </text>
<text xml:space="preserve" x="517.741" y="52.946" fill="black" font-size="13.0654" font-family="Helvetica"> 3728</text>
<text xml:space="preserve" x="447.69" y="67.6079" fill="black" font-size="13.0654" font-family="Helvetica">Mean  </text>
<text xml:space="preserve" x="510.41" y="67.6079" fill="black" font-size="13.0654" font-family="Helvetica">   1748</text>
<text xml:space="preserve" x="447.69" y="83.0844" fill="black" font-size="13.0654" font-family="Helvetica">Std Dev   </text>
<text xml:space="preserve" x="510.41" y="83.0844" fill="black" font-size="13.0654" font-family="Helvetica">  489.3</text>
<text xml:space="preserve" x="253.012" y="18.7347" fill="black" font-size="18.0316" font-family="Helvetica">Cs_013</text></svg>
