<?xml version="1.0" standalone="no"?>
<svg width="567.429" height="384.969" viewBox="0 0 567.429 384.969" xmlns="http://www.w3.org/2000/svg" shape-rendering="crispEdges">
<title>
img/week1/plane_hist/Cs_001.svg
</title>
<desc>
Creator: ROOT Version 6.22/09
CreationDate: Tue Jul 13 15:52:23 2021</desc>
<defs>
</defs>
<rect x="0.5" y="0" width="566.929" height="384.469" fill="white"/>
<rect x="57.1929" y="38.4469" width="453.543" height="307.575" fill="white"/>
<rect x="57.1929" y="38.4469" width="453.543" height="307.575" fill="none" stroke="black"/>
<path d="M57.1929,346.022h 144.424v -1.71554h 0.63344v -14.1532h 0.63344v -3.43109h 0.63344v 1.71554h 1.26688v 1.28666h 0.63344v 2.57331h 0.63344v 1.71554h 0.63344v 4.71774h 0.63344v -2.14443h 0.63344v -2.14443h 0.63344v 4.71774h 0.63344v -1.28666h
 0.63344v 1.28666h 0.63344v -2.14443h 0.63344v 1.28666h 0.63344v 0.857771h 0.63344v 0.428886h 0.63344v -2.14443h 0.63344v -0.428886h 0.63344v 2.57331h 0.63344v -1.28666h 0.63344v 2.57331h 1.26688v -3.0022h 0.63344v -0.428886h 0.63344v 2.57331h
 1.26688v 0.428886h 0.63344v -1.71554h 0.63344v 3.43109h 0.63344v -0.428886h 0.63344v -1.71554h 0.63344v 1.71554h 0.63344v -1.28666h 0.63344v 3.0022h 0.63344v -4.28886h 0.63344v 3.0022h 1.26688v -0.857771h 0.63344v 0.857771h 0.63344v 1.28666h
 0.63344v 0.857771h 0.63344v -0.428886h 0.63344v -1.28666h 0.63344v 1.71554h 0.63344v -1.71554h 0.63344v -0.857771h 0.63344v 1.71554h 0.63344v -0.428886h 0.63344v 2.14443h 0.63344v -1.71554h 1.26688v 1.71554h 0.63344v -3.85997h 0.63344v 3.85997h
 0.63344v -2.57331h 0.63344v 1.28666h 1.26688v -0.428886h 0.63344v 0.428886h 0.63344v 0.428886h 1.26688v 1.28666h 0.63344v -0.428886h 0.63344v -3.0022h 0.63344v 1.71554h 0.63344v -1.28666h 0.63344v 2.57331h 0.63344v -1.71554h 0.63344v -0.428886h
 0.63344v 3.0022h 0.63344v -1.28666h 0.63344v -0.857771h 0.63344v 0.428886h 0.63344v -0.428886h 1.26688v -0.428886h 0.63344v 1.28666h 0.63344v -1.28666h 0.63344v -1.71554h 0.63344v 3.0022h 0.63344v 0.428886h 0.63344v -1.28666h 0.63344v -0.857771h
 1.26688v -0.857771h 0.63344v 2.14443h 0.63344v -0.428886h 0.63344v 0.857771h 0.63344v -0.428886h 0.63344v 0.857771h 0.63344v -0.857771h 0.63344v -2.14443h 0.63344v 1.28666h 0.63344v 1.71554h 0.63344v -0.428886h 0.63344v -1.71554h 0.63344v 3.0022h
 0.63344v -3.43109h 1.26688v 3.0022h 1.26688v -0.428886h 0.63344v -0.857771h 0.63344v -0.857771h 0.63344v -1.28666h 0.63344v 1.28666h 1.90032v 0.857771h 0.63344v 1.28666h 0.63344v -1.28666h 0.63344v 1.28666h 0.63344v -3.0022h 0.63344v 2.57331h
 0.63344v -1.28666h 1.26688v 0.428886h 1.26688v 0.857771h 0.63344v -0.428886h 1.26688v -0.428886h 1.26688v -0.857771h 1.26688v 2.14443h 0.63344v -1.28666h 0.63344v 1.28666h 0.63344v -1.71554h 0.63344v 0.857771h 0.63344v 0.428886h 0.63344v -3.0022h
 0.63344v 3.0022h 0.63344v -2.14443h 0.63344v 2.14443h 1.26688v -3.0022h 0.63344v 1.71554h 0.63344v 1.28666h 0.63344v -2.14443h 0.63344v 2.57331h 0.63344v -0.428886h 0.63344v -0.857771h 0.63344v -2.57331h 0.63344v 2.14443h 0.63344v -2.14443h 0.63344v
 2.14443h 0.63344v -1.28666h 0.63344v 1.71554h 0.63344v 0.857771h 0.63344v -1.28666h 0.63344v 0.428886h 0.63344v -1.71554h 1.26688v 2.57331h 0.63344v -0.428886h 0.63344v -0.857771h 1.26688v 1.71554h 0.63344v -2.14443h 0.63344v 0.857771h 0.63344v
 -0.428886h 0.63344v 1.71554h 0.63344v -2.14443h 0.63344v -1.28666h 0.63344v 1.28666h 0.63344v 1.28666h 0.63344v 0.428886h 0.63344v -2.57331h 0.63344v 1.71554h 1.26688v 1.71554h 0.63344v -3.43109h 0.63344v 3.43109h 0.63344v -1.71554h 0.63344v
 0.428886h 0.63344v -0.428886h 1.26688v -0.857771h 0.63344v 0.428886h 0.63344v 0.857771h 1.26688v -0.428886h 0.63344v -0.428886h 0.63344v -0.428886h 0.63344v -0.428886h 0.63344v 1.28666h 0.63344v -0.428886h 0.63344v -1.28666h 0.63344v 0.857771h
 0.63344v 0.428886h 0.63344v -1.71554h 0.63344v 0.857771h 0.63344v 1.71554h 1.26688v -2.57331h 0.63344v 1.71554h 0.63344v 0.428886h 1.26688v 1.28666h 0.63344v -0.857771h 0.63344v -0.857771h 0.63344v -0.428886h 0.63344v 1.28666h 0.63344v -3.0022h
 0.63344v 3.0022h 0.63344v 0.857771h 0.63344v -1.28666h 1.26688v 0.428886h 0.63344v -0.857771h 0.63344v 0.428886h 0.63344v -0.857771h 0.63344v -1.71554h 0.63344v 0.857771h 0.63344v 1.71554h 0.63344v -2.14443h 0.63344v 2.57331h 1.26688v -2.57331h
 0.63344v 1.28666h 0.63344v 0.428886h 0.63344v 1.28666h 0.63344v -1.28666h 0.63344v 1.28666h 0.63344v -0.428886h 0.63344v 0.428886h 0.63344v -2.14443h 0.63344v 0.428886h 0.63344v 1.28666h 0.63344v -2.14443h 0.63344v 2.14443h 1.26688v 0.428886h
 0.63344v -0.428886h 0.63344v -0.428886h 0.63344v -0.857771h 0.63344v 1.28666h 0.63344v -1.71554h 0.63344v 0.428886h 0.63344v 0.428886h 0.63344v 0.428886h 0.63344v -0.857771h 0.63344v 0.857771h 1.26688v 1.28666h 0.63344v -0.857771h 0.63344v -3.43109h
 0.63344v 3.43109h 0.63344v -0.428886h 0.63344v -2.14443h 0.63344v 1.71554h 1.26688v -1.28666h 0.63344v 2.14443h 1.26688v 0.428886h 0.63344v -0.428886h 1.26688v 0.428886h 0.63344v -2.14443h 0.63344v 1.71554h 0.63344v -0.428886h 0.63344v -0.857771h
 0.63344v -0.857771h 0.63344v 0.428886h 1.26688v -0.428886h 0.63344v -0.428886h 0.63344v 1.28666h 1.26688v 0.857771h 0.63344v 0.857771h 0.63344v -0.857771h 0.63344v -0.428886h 0.63344v 0.428886h 0.63344v -1.71554h 0.63344v 2.57331h 0.63344v -1.28666h
 0.63344v 0.428886h 0.63344v 0.428886h 0.63344v -0.857771h 0.63344v 0.428886h 1.26688v -1.28666h 0.63344v 0.428886h 0.63344v 0.857771h 0.63344v -0.857771h 0.63344v 0.428886h 0.63344v 0.857771h 0.63344v 0.428886h 0.63344v 0.857771h 0.63344v -1.71554h
 0.63344v 0.857771h 0.63344v -0.428886h 0.63344v 0.857771h 0.63344v -1.28666h 0.63344v -0.428886h 1.26688v -0.857771h 0.63344v 1.71554h 0.63344v -0.428886h 0.63344v 0.428886h 0.63344v -1.71554h 0.63344v 1.71554h 1.26688v -3.43109h 0.63344v 3.43109h
 0.63344v -0.857771h 0.63344v 1.28666h 0.63344v -0.857771h 0.63344v -0.428886h 0.63344v -0.428886h 1.26688v 1.28666h 0.63344v -0.857771h 0.63344v 0.428886h 0.63344v 0.428886h 0.63344v 0.857771h 0.63344v -0.857771h 0.63344v -0.857771h 0.63344v
 0.428886h 1.26688v 0.428886h 0.63344v 0.857771h 0.63344v -2.14443h 0.63344v 0.428886h 0.63344v 1.28666h 0.63344v -0.428886h 0.63344v -1.71554h 0.63344v 0.857771h 0.63344v 0.857771h 1.90032v 0.428886h 0.63344v -1.71554h 0.63344v 1.28666h 0.63344v
 -0.857771h 0.63344v 0.857771h 0.63344v 0.428886h 1.90032v -0.428886h 0.63344v -0.428886h 0.63344v 0.428886h 0.63344v -1.71554h 0.63344v 1.71554h 0.63344v -1.71554h 0.63344v 1.71554h 0.63344v -1.28666h 0.63344v 0.428886h 0.63344v -1.71554h 0.63344v
 1.28666h 0.63344v 0.857771h 0.63344v 0.428886h 0.63344v 0.428886h 0.63344v -1.28666h 0.63344v 0.428886h 0.63344v 1.28666h 0.63344v -0.428886h 1.26688v -0.857771h 0.63344v 0.857771h 0.63344v -0.428886h 0.63344v 0.428886h 1.26688v 0.428886h 0.63344v
 -0.857771h 0.63344v -0.857771h 0.63344v 2.14443h 0.63344v -3.43109h 0.63344v 2.57331h 0.63344v -1.71554h 1.26688v 1.71554h 1.26688v 0.428886h 0.63344v -1.28666h 1.90032v -0.428886h 0.63344v -0.857771h 0.63344v 1.28666h 0.63344v -0.428886h 0.63344v
 1.28666h 0.63344v -0.857771h 0.63344v 0.428886h 0.63344v 0.428886h 0.63344v -1.28666h 0.63344v -0.428886h 0.63344v 0.428886h 0.63344v 0.428886h 0.63344v 0.857771h 0.63344v -2.14443h 0.63344v 2.14443h 0.63344v -1.28666h 0.63344v 1.28666h 0.63344v
 0.857771h 0.63344v -1.28666h 0.63344v 0.428886h 0.63344v -0.428886h 0.63344v -2.14443h 0.63344v 2.57331h 0.63344v -0.428886h 0.63344v -1.71554h 0.63344v 0.428886h 0.63344v 2.14443h 0.63344v -0.428886h 0.63344v -0.857771h 0.63344v -0.428886h 0.63344v
 0.428886h 0.63344v -0.428886h 0.63344v 1.28666h 1.26688v -1.71554h 0.63344v 1.71554h 0.63344v -1.71554h 0.63344v 0.428886h 1.26688v 1.71554h 0.63344v -1.28666h 0.63344v -0.428886h 0.63344v 1.28666h 0.63344v -2.14443h 0.63344v 0.857771h 1.26688v
 1.28666h 0.63344v -1.28666h 0.63344v 0.857771h 0.63344v 0.857771h 0.63344v -0.428886h 0.63344v -0.428886h 0.63344v 0.428886h 0.63344v 0.428886h 0.63344v -0.857771h 0.63344v -1.71554h 0.63344v 2.14443h 0.63344v -2.14443h 0.63344v 2.57331h 0.63344v
 -1.71554h 0.63344v 2.14443h 0.63344v -2.14443h 0.63344v 2.14443h 0.63344v -0.428886h 0.63344v -2.14443h 0.63344v 1.28666h 1.26688v 0.428886h 0.63344v -3.85997h 0.63344v -4.71774h 0.63344v -152.683h 0.63344v -130.81h 0.63344v 125.663h 0.63344v
 -60.4729h 0.63344v 38.5997h 0.63344v 76.7705h 0.63344v 56.6129h 0.63344v -2.14443h 0.63344v 6.86217h 0.63344v -3.85997h 0.63344v 11.151h 0.63344v 6.43328h 0.63344v -3.43109h 0.63344v -3.85997h 0.63344v 12.8666h 0.63344v 5.14663h 0.63344v -3.85997h
 0.63344v -8.57771h 0.63344v 7.29106h 0.63344v 2.57331h 0.63344v 10.2933h 0.63344v -6.43328h 1.26688v 12.0088h 0.63344v -4.28886h 0.63344v 0.428886h 0.63344v 0.428886h 0.63344v -0.857771h 0.63344v 6.86217h 0.63344v 1.71554h 0.63344v -1.71554h
 0.63344v 3.85997h 0.63344v -0.428886h 0.63344v 2.57331h 0.63344v 3.0022h 0.63344v 0.428886h 0.63344" fill="none" stroke="#000099"/>
<path d="M57.1929,346.022h 453.543" fill="none" stroke="black"/>
<path d="M57.8264,336.795v 9.22726" fill="none" stroke="black"/>
<path d="M78.941,341.409v 4.61363" fill="none" stroke="black"/>
<path d="M100.056,341.409v 4.61363" fill="none" stroke="black"/>
<path d="M121.17,341.409v 4.61363" fill="none" stroke="black"/>
<path d="M142.285,341.409v 4.61363" fill="none" stroke="black"/>
<path d="M163.4,336.795v 9.22726" fill="none" stroke="black"/>
<path d="M184.514,341.409v 4.61363" fill="none" stroke="black"/>
<path d="M205.629,341.409v 4.61363" fill="none" stroke="black"/>
<path d="M226.744,341.409v 4.61363" fill="none" stroke="black"/>
<path d="M247.858,341.409v 4.61363" fill="none" stroke="black"/>
<path d="M268.973,336.795v 9.22726" fill="none" stroke="black"/>
<path d="M290.088,341.409v 4.61363" fill="none" stroke="black"/>
<path d="M311.203,341.409v 4.61363" fill="none" stroke="black"/>
<path d="M332.317,341.409v 4.61363" fill="none" stroke="black"/>
<path d="M353.432,341.409v 4.61363" fill="none" stroke="black"/>
<path d="M374.547,336.795v 9.22726" fill="none" stroke="black"/>
<path d="M395.661,341.409v 4.61363" fill="none" stroke="black"/>
<path d="M416.776,341.409v 4.61363" fill="none" stroke="black"/>
<path d="M437.891,341.409v 4.61363" fill="none" stroke="black"/>
<path d="M459.005,341.409v 4.61363" fill="none" stroke="black"/>
<path d="M480.12,336.795v 9.22726" fill="none" stroke="black"/>
<path d="M57.8264,336.795v 9.22726" fill="none" stroke="black"/>
<path d="M480.12,336.795v 9.22726" fill="none" stroke="black"/>
<path d="M501.235,341.409v 4.61363" fill="none" stroke="black"/>
<text xml:space="preserve" x="54.2605" y="358.403" fill="black" font-size="12.8453" font-family="Helvetica">0</text>
<text xml:space="preserve" x="152.007" y="358.403" fill="black" font-size="12.8453" font-family="Helvetica">500</text>
<text xml:space="preserve" x="254.641" y="358.403" fill="black" font-size="12.8453" font-family="Helvetica">1000</text>
<text xml:space="preserve" x="360.533" y="358.403" fill="black" font-size="12.8453" font-family="Helvetica">1500</text>
<text xml:space="preserve" x="465.61" y="358.403" fill="black" font-size="12.8453" font-family="Helvetica">2000</text>
<text xml:space="preserve" x="451.763" y="372.251" fill="black" font-size="12.8453" font-family="Helvetica">ADC value</text>
<path d="M57.1929,346.022v -307.575" fill="none" stroke="black"/>
<path d="M70.7992,346.022h -13.6063" fill="none" stroke="black"/>
<path d="M63.9961,337.445h -6.80315" fill="none" stroke="black"/>
<path d="M63.9961,328.867h -6.80315" fill="none" stroke="black"/>
<path d="M63.9961,320.289h -6.80315" fill="none" stroke="black"/>
<path d="M63.9961,311.711h -6.80315" fill="none" stroke="black"/>
<path d="M70.7992,303.134h -13.6063" fill="none" stroke="black"/>
<path d="M63.9961,294.556h -6.80315" fill="none" stroke="black"/>
<path d="M63.9961,285.978h -6.80315" fill="none" stroke="black"/>
<path d="M63.9961,277.401h -6.80315" fill="none" stroke="black"/>
<path d="M63.9961,268.823h -6.80315" fill="none" stroke="black"/>
<path d="M70.7992,260.245h -13.6063" fill="none" stroke="black"/>
<path d="M63.9961,251.667h -6.80315" fill="none" stroke="black"/>
<path d="M63.9961,243.09h -6.80315" fill="none" stroke="black"/>
<path d="M63.9961,234.512h -6.80315" fill="none" stroke="black"/>
<path d="M63.9961,225.934h -6.80315" fill="none" stroke="black"/>
<path d="M70.7992,217.357h -13.6063" fill="none" stroke="black"/>
<path d="M63.9961,208.779h -6.80315" fill="none" stroke="black"/>
<path d="M63.9961,200.201h -6.80315" fill="none" stroke="black"/>
<path d="M63.9961,191.623h -6.80315" fill="none" stroke="black"/>
<path d="M63.9961,183.046h -6.80315" fill="none" stroke="black"/>
<path d="M70.7992,174.468h -13.6063" fill="none" stroke="black"/>
<path d="M63.9961,165.89h -6.80315" fill="none" stroke="black"/>
<path d="M63.9961,157.313h -6.80315" fill="none" stroke="black"/>
<path d="M63.9961,148.735h -6.80315" fill="none" stroke="black"/>
<path d="M63.9961,140.157h -6.80315" fill="none" stroke="black"/>
<path d="M70.7992,131.579h -13.6063" fill="none" stroke="black"/>
<path d="M63.9961,123.002h -6.80315" fill="none" stroke="black"/>
<path d="M63.9961,114.424h -6.80315" fill="none" stroke="black"/>
<path d="M63.9961,105.846h -6.80315" fill="none" stroke="black"/>
<path d="M63.9961,97.2686h -6.80315" fill="none" stroke="black"/>
<path d="M70.7992,88.6909h -13.6063" fill="none" stroke="black"/>
<path d="M63.9961,80.1132h -6.80315" fill="none" stroke="black"/>
<path d="M63.9961,71.5354h -6.80315" fill="none" stroke="black"/>
<path d="M63.9961,62.9577h -6.80315" fill="none" stroke="black"/>
<path d="M63.9961,54.38h -6.80315" fill="none" stroke="black"/>
<path d="M70.7992,45.8023h -13.6063" fill="none" stroke="black"/>
<path d="M70.7992,45.8023h -13.6063" fill="none" stroke="black"/>
<text xml:space="preserve" x="47.7441" y="350.258" fill="black" font-size="12.8453" font-family="Helvetica">0</text>
<text xml:space="preserve" x="33.8967" y="307.901" fill="black" font-size="12.8453" font-family="Helvetica">100</text>
<text xml:space="preserve" x="33.8967" y="264.73" fill="black" font-size="12.8453" font-family="Helvetica">200</text>
<text xml:space="preserve" x="33.8967" y="221.559" fill="black" font-size="12.8453" font-family="Helvetica">300</text>
<text xml:space="preserve" x="33.8967" y="179.202" fill="black" font-size="12.8453" font-family="Helvetica">400</text>
<text xml:space="preserve" x="33.8967" y="136.03" fill="black" font-size="12.8453" font-family="Helvetica">500</text>
<text xml:space="preserve" x="33.8967" y="92.8591" fill="black" font-size="12.8453" font-family="Helvetica">600</text>
<text xml:space="preserve" x="33.8967" y="50.5023" fill="black" font-size="12.8453" font-family="Helvetica">700</text>
<g transform="rotate(-90,20.8638,70.0516)">
<text xml:space="preserve" x="20.8638" y="70.0516" fill="black" font-size="12.8453" font-family="Helvetica">Event</text>
</g>
<text xml:space="preserve" x="254.641" y="18.7347" fill="black" font-size="18.0316" font-family="Helvetica">Cs_001</text>
<rect x="442.705" y="24.9905" width="113.386" height="61.5151" fill="white"/>
<path d="M442.705,86.5056h 113.386" fill="none" stroke="black"/>
<path d="M556.091,86.5056v -61.5151" fill="none" stroke="black"/>
<path d="M556.091,24.9905h -113.386" fill="none" stroke="black"/>
<path d="M442.705,24.9905v 61.5151" fill="none" stroke="black"/>
<text xml:space="preserve" x="477.828" y="36.6549" fill="black" font-size="13.4802" font-family="Helvetica">Cs_001</text>
<path d="M442.705,40.3693h 113.386" fill="none" stroke="black"/>
<text xml:space="preserve" x="447.69" y="52.946" fill="black" font-size="13.0654" font-family="Helvetica">Entries </text>
<text xml:space="preserve" x="517.741" y="52.946" fill="black" font-size="13.0654" font-family="Helvetica"> 7075</text>
<text xml:space="preserve" x="447.69" y="67.6079" fill="black" font-size="13.0654" font-family="Helvetica">Mean  </text>
<text xml:space="preserve" x="510.41" y="67.6079" fill="black" font-size="13.0654" font-family="Helvetica">   1746</text>
<text xml:space="preserve" x="447.69" y="83.0844" fill="black" font-size="13.0654" font-family="Helvetica">Std Dev   </text>
<text xml:space="preserve" x="510.41" y="83.0844" fill="black" font-size="13.0654" font-family="Helvetica">  489.8</text>
<text xml:space="preserve" x="254.641" y="18.7347" fill="black" font-size="18.0316" font-family="Helvetica">Cs_001</text></svg>
