<?xml version="1.0" standalone="no"?>
<svg width="567.429" height="384.969" viewBox="0 0 567.429 384.969" xmlns="http://www.w3.org/2000/svg" shape-rendering="crispEdges">
<title>
img/week1/plane_hist/Cs_005.svg
</title>
<desc>
Creator: ROOT Version 6.22/09
CreationDate: Fri Jul  2 19:47:48 2021</desc>
<defs>
</defs>
<rect x="0.5" y="0" width="566.929" height="384.469" fill="white"/>
<rect x="57.1929" y="38.4469" width="453.543" height="307.575" fill="white"/>
<rect x="57.1929" y="38.4469" width="453.543" height="307.575" fill="none" stroke="black"/>
<path d="M57.1929,346.022h 51.8209v -1.57066h 0.442913v -11.78h 0.442913v -21.204h 0.442913v -28.272h 0.442913v -34.5546h 0.442913v -35.3399h 0.442913v -10.2093h 0.442913v 2.356h 0.442913v 10.2093h 0.442913v 28.272h 0.442913v 13.3506h 0.442913v
 -5.49732h 0.442913v 10.9946h 0.442913v 10.9946h 0.442913v 11.78h 0.442913v 3.14133h 0.442913v 12.5653h 0.442913v 9.42399h 0.442913v 3.14133h 0.442913v 4.71199h 0.442913v 8.63865h 0.442913v -3.92666h 0.442913v 3.92666h 0.442913v 2.356h 0.442913v
 -2.356h 0.442913v 6.28266h 0.442913v 1.57066h 0.442913v 0.785332h 0.442913v 0.785332h 0.442913v -0.785332h 0.442913v 3.92666h 0.442913v 3.92666h 0.442913v -6.28266h 0.442913v 3.92666h 0.442913v 0.785332h 0.442913v -1.57066h 0.442913v -0.785332h
 0.442913v 0.785332h 0.442913v 0.785332h 0.442913v -1.57066h 0.442913v 4.71199h 0.442913v -1.57066h 0.442913v 2.356h 0.442913v -1.57066h 0.442913v 0.785332h 0.442913v 1.57066h 0.885827v -3.14133h 0.442913v -1.57066h 0.442913v 3.14133h 0.442913v
 0.785332h 0.442913v -1.57066h 0.442913v -0.785332h 0.442913v 0.785332h 0.442913v -0.785332h 0.442913v 3.14133h 0.442913v -1.57066h 0.442913v -0.785332h 0.442913v -0.785332h 0.442913v -0.785332h 0.442913v 1.57066h 0.885827v 1.57066h 0.442913v
 -3.14133h 0.442913v 2.356h 0.442913v -0.785332h 0.442913v -2.356h 0.442913v 0.785332h 0.442913v 2.356h 0.442913v -1.57066h 0.442913v 1.57066h 0.885827v -3.92666h 0.442913v 3.14133h 0.442913v 0.785332h 0.442913v 1.57066h 0.442913v -3.14133h 0.442913v
 0.785332h 0.885827v 0.785332h 0.885827v -0.785332h 0.442913v 1.57066h 0.442913v -2.356h 0.885827v 1.57066h 0.442913v -0.785332h 0.442913v 0.785332h 0.442913v -0.785332h 0.442913v 0.785332h 0.442913v 0.785332h 0.442913v -1.57066h 0.442913v -0.785332h
 0.442913v -1.57066h 0.442913v 3.14133h 0.442913v -3.14133h 0.885827v 0.785332h 0.442913v 3.14133h 0.442913v -4.71199h 0.442913v 3.92666h 0.442913v -1.57066h 0.442913v 2.356h 0.885827v -1.57066h 0.442913v 2.356h 0.442913v -5.49732h 0.442913v 3.14133h
 0.442913v -1.57066h 0.442913v 0.785332h 1.77165v 1.57066h 0.442913v -2.356h 0.442913v 1.57066h 0.442913v 0.785332h 0.442913v 0.785332h 0.442913v -1.57066h 1.77165v 1.57066h 0.885827v -1.57066h 0.442913v -0.785332h 0.442913v -0.785332h 0.442913v
 1.57066h 0.442913v -1.57066h 0.442913v -0.785332h 0.442913v 3.92666h 0.442913v -1.57066h 0.885827v 0.785332h 0.442913v -1.57066h 0.442913v 1.57066h 0.442913v -0.785332h 0.885827v -0.785332h 0.442913v -1.57066h 0.442913v 3.14133h 0.442913v -1.57066h
 0.442913v 1.57066h 0.442913v -2.356h 0.442913v 1.57066h 0.442913v -0.785332h 0.442913v 0.785332h 0.885827v 0.785332h 0.885827v -4.71199h 0.442913v 3.92666h 0.442913v 2.356h 0.442913v -3.14133h 0.442913v 0.785332h 0.885827v -0.785332h 0.442913v
 0.785332h 0.442913v -1.57066h 0.442913v 0.785332h 0.442913v 0.785332h 0.442913v -3.14133h 0.885827v 3.14133h 0.442913v -1.57066h 0.442913v 2.356h 0.442913v -2.356h 0.442913v 1.57066h 0.885827v -3.14133h 0.885827v 2.356h 0.442913v 0.785332h 0.442913v
 -0.785332h 0.442913v 1.57066h 0.442913v -0.785332h 0.442913v -0.785332h 0.442913v 0.785332h 0.442913v -2.356h 0.442913v 0.785332h 0.442913v -3.14133h 0.442913v 5.49732h 0.442913v -3.92666h 0.442913v 1.57066h 0.442913v -0.785332h 0.442913v 0.785332h
 0.442913v 0.785332h 0.442913v -2.356h 0.442913v 3.14133h 0.442913v -3.92666h 0.442913v 1.57066h 0.442913v 3.92666h 0.442913v -0.785332h 0.885827v -3.92666h 0.885827v 3.14133h 0.442913v -2.356h 0.442913v 0.785332h 0.442913v -1.57066h 0.442913v
 1.57066h 0.442913v 0.785332h 0.442913v 0.785332h 0.442913v -0.785332h 0.442913v -0.785332h 0.442913v -0.785332h 0.442913v 2.356h 0.442913v -6.28266h 0.442913v 2.356h 0.442913v 1.57066h 0.442913v -3.14133h 0.442913v 1.57066h 0.442913v 2.356h
 0.442913v 1.57066h 0.885827v -0.785332h 0.442913v -0.785332h 0.442913v -6.28266h 0.442913v 2.356h 0.442913v 4.71199h 0.442913v -2.356h 0.442913v -3.14133h 0.442913v 3.14133h 0.442913v 2.356h 0.442913v -7.85332h 0.442913v 3.92666h 0.442913v 1.57066h
 0.442913v -4.71199h 0.442913v -1.57066h 0.442913v 5.49732h 0.442913v 2.356h 0.442913v -7.06799h 0.442913v 2.356h 0.442913v -5.49732h 0.442913v 6.28266h 0.442913v -3.92666h 0.442913v 1.57066h 0.442913v 0.785332h 0.442913v 4.71199h 0.442913v -3.92666h
 0.442913v 1.57066h 0.442913v -10.2093h 0.442913v 7.06799h 0.442913v -0.785332h 0.442913v 3.14133h 0.885827v -4.71199h 0.442913v -5.49732h 0.442913v 6.28266h 0.442913v 1.57066h 0.442913v 1.57066h 0.885827v -1.57066h 0.442913v 3.14133h 0.442913v
 -4.71199h 0.442913v 0.785332h 0.442913v 2.356h 0.885827v -6.28266h 0.442913v 3.92666h 0.442913v 1.57066h 0.442913v 3.92666h 0.442913v -3.14133h 0.442913v -2.356h 0.442913v 1.57066h 0.442913v -1.57066h 0.442913v -0.785332h 0.442913v 0.785332h
 0.442913v 4.71199h 0.442913v -3.92666h 0.442913v -0.785332h 0.885827v 0.785332h 0.442913v -0.785332h 0.442913v 3.92666h 0.442913v 3.14133h 0.442913v -3.92666h 1.32874v 1.57066h 0.442913v -1.57066h 0.885827v -5.49732h 0.442913v 1.57066h 0.442913v
 4.71199h 0.442913v 1.57066h 0.442913v 0.785332h 0.442913v -4.71199h 0.442913v 0.785332h 0.442913v 3.92666h 0.442913v -9.42399h 0.442913v 7.85332h 0.442913v 1.57066h 0.442913v -8.63865h 0.442913v 5.49732h 0.442913v -2.356h 0.442913v 3.14133h
 0.442913v -1.57066h 0.442913v 1.57066h 0.442913v -3.14133h 0.442913v -2.356h 0.442913v 3.14133h 0.442913v -3.92666h 0.442913v 7.06799h 0.442913v -6.28266h 0.442913v 0.785332h 0.442913v 1.57066h 0.442913v -3.14133h 0.442913v 6.28266h 0.885827v
 -4.71199h 0.442913v 1.57066h 0.442913v -0.785332h 0.442913v 3.14133h 0.442913v 0.785332h 0.442913v -3.14133h 0.442913v -3.92666h 0.442913v 4.71199h 0.442913v 1.57066h 0.442913v -0.785332h 0.442913v -5.49732h 0.442913v 6.28266h 0.885827v 1.57066h
 0.442913v -2.356h 0.442913v -3.14133h 0.442913v 6.28266h 0.442913v -3.14133h 0.442913v -4.71199h 0.442913v 5.49732h 0.442913v -3.14133h 0.442913v 3.14133h 0.442913v -0.785332h 0.442913v 1.57066h 0.442913v -2.356h 0.885827v -0.785332h 0.442913v
 -0.785332h 0.442913v 3.92666h 0.442913v -0.785332h 0.442913v -1.57066h 0.442913v 5.49732h 0.442913v -3.14133h 0.442913v -6.28266h 0.442913v 6.28266h 0.442913v -4.71199h 0.442913v 4.71199h 0.442913v -2.356h 0.442913v 3.14133h 0.442913v 1.57066h
 0.442913v -6.28266h 0.442913v 3.14133h 0.442913v -0.785332h 0.442913v -3.14133h 0.442913v 1.57066h 0.885827v 0.785332h 0.442913v 1.57066h 0.442913v 4.71199h 0.442913v -7.06799h 0.442913v 4.71199h 0.442913v -1.57066h 0.442913v -3.14133h 0.442913v
 0.785332h 0.442913v 5.49732h 0.442913v -4.71199h 0.442913v 3.14133h 0.442913v 1.57066h 0.442913v -0.785332h 0.442913v 0.785332h 0.885827v -3.92666h 0.442913v 3.92666h 0.442913v -0.785332h 0.442913v 0.785332h 0.442913v -0.785332h 1.32874v -0.785332h
 0.442913v -0.785332h 0.885827v 0.785332h 0.442913v 0.785332h 0.442913v 1.57066h 0.442913v -1.57066h 0.442913v 1.57066h 0.885827v -0.785332h 0.442913v 1.57066h 0.442913v -3.14133h 0.442913v 2.356h 0.442913v -3.14133h 0.442913v -3.14133h 0.442913v
 7.06799h 0.442913v -0.785332h 0.442913v -0.785332h 0.442913v -2.356h 0.442913v -1.57066h 0.442913v -0.785332h 0.442913v 5.49732h 0.442913v -3.14133h 0.885827v 3.14133h 0.442913v -0.785332h 0.442913v 0.785332h 0.442913v -0.785332h 0.442913v -1.57066h
 0.442913v -0.785332h 0.885827v -1.57066h 0.442913v 2.356h 0.442913v 0.785332h 0.442913v 4.71199h 0.442913v -4.71199h 0.442913v 1.57066h 0.442913v -3.92666h 0.442913v -3.14133h 0.442913v 3.92666h 0.442913v 2.356h 0.442913v -4.71199h 0.442913v
 1.57066h 0.442913v 4.71199h 0.442913v -6.28266h 0.442913v 1.57066h 0.442913v 2.356h 0.442913v -2.356h 0.442913v 3.92666h 0.442913v -2.356h 0.885827v 2.356h 0.442913v -4.71199h 0.442913v 5.49732h 0.442913v -4.71199h 0.442913v 0.785332h 0.442913v
 -0.785332h 0.442913v 4.71199h 0.442913v -2.356h 0.442913v 1.57066h 0.442913v -1.57066h 0.442913v 2.356h 0.442913v 1.57066h 0.442913v -7.85332h 0.442913v 5.49732h 0.442913v 0.785332h 0.885827v -2.356h 1.32874v 2.356h 0.442913v -0.785332h 0.442913v
 -0.785332h 0.442913v 0.785332h 0.885827v 1.57066h 0.442913v -3.14133h 0.442913v 1.57066h 0.442913v -0.785332h 0.442913v 0.785332h 0.442913v -0.785332h 1.32874v 3.14133h 0.442913v -1.57066h 0.442913v -6.28266h 0.442913v 7.06799h 0.442913v 0.785332h
 0.442913v -2.356h 0.885827v 1.57066h 0.442913v -0.785332h 0.442913v -0.785332h 0.442913v 0.785332h 0.442913v -4.71199h 0.442913v 3.14133h 0.442913v 0.785332h 0.885827v -3.14133h 0.442913v 0.785332h 0.442913v -0.785332h 0.442913v 1.57066h 0.442913v
 1.57066h 0.442913v -0.785332h 0.442913v 0.785332h 0.442913v -0.785332h 0.442913v -2.356h 0.885827v 5.49732h 0.442913v -3.14133h 0.442913v -0.785332h 0.442913v -0.785332h 0.442913v -3.14133h 0.442913v 7.06799h 0.442913v -1.57066h 0.442913v -1.57066h
 0.442913v -1.57066h 0.442913v -1.57066h 0.442913v 3.92666h 0.442913v -2.356h 0.442913v -0.785332h 0.442913v 1.57066h 0.442913v 1.57066h 0.442913v -2.356h 0.442913v -2.356h 0.442913v 4.71199h 0.442913v 1.57066h 0.442913v -3.92666h 0.442913v -3.14133h
 0.442913v 3.92666h 0.442913v -3.14133h 0.442913v 0.785332h 0.442913v -3.92666h 0.442913v 2.356h 0.442913v 3.14133h 0.442913v -3.92666h 0.442913v 1.57066h 0.442913v 1.57066h 0.442913v -5.49732h 0.442913v 6.28266h 0.442913v 0.785332h 0.442913v
 -1.57066h 0.442913v -0.785332h 0.885827v 0.785332h 0.442913v -0.785332h 0.442913v -0.785332h 0.442913v -3.14133h 0.442913v 2.356h 0.442913v 1.57066h 0.442913v -4.71199h 0.442913v 3.92666h 0.442913v -3.92666h 0.442913v 7.06799h 0.442913v -7.06799h
 0.442913v 2.356h 0.442913v -1.57066h 0.442913v 4.71199h 0.442913v -2.356h 0.442913v -2.356h 0.442913v 0.785332h 0.442913v 1.57066h 0.442913v -5.49732h 0.442913v 3.14133h 0.442913v 5.49732h 0.442913v 0.785332h 0.442913v -3.92666h 0.442913v 4.71199h
 0.442913v -3.92666h 0.442913v 3.92666h 0.442913v -6.28266h 0.442913v 3.92666h 0.442913v -3.14133h 0.442913v 1.57066h 0.885827v -5.49732h 0.442913v 2.356h 0.442913v 3.14133h 0.442913v -3.92666h 0.442913v 4.71199h 0.442913v -0.785332h 0.442913v
 -1.57066h 0.442913v 1.57066h 0.885827v -0.785332h 0.442913v 3.92666h 0.442913v 0.785332h 0.442913v -3.92666h 0.885827v 0.785332h 0.442913v 1.57066h 0.442913v -3.92666h 0.885827v -2.356h 0.442913v 1.57066h 0.442913v -12.5653h 0.442913v -14.136h
 0.442913v -31.4133h 0.442913v -88.7425h 0.442913v -95.0252h 0.442913v -40.0519h 0.442913v 0.785332h 0.442913v 44.7639h 0.442913v 18.848h 0.442913v 42.4079h 0.442913v 32.984h 0.442913v 28.272h 0.442913v 21.9893h 0.442913v 16.492h 0.442913v -9.42399h
 0.442913v 10.2093h 0.885827v 10.9946h 0.442913v 8.63865h 0.442913v 6.28266h 0.442913v 7.85332h 0.442913v 7.06799h 0.442913v -13.3506h 0.442913v 16.492h 0.442913v 4.71199h 0.442913v 3.92666h 0.442913v 0.785332h 0.442913v -5.49732h 0.442913v 0.785332h
 0.442913v 1.57066h 0.442913v -3.14133h 0.442913v 5.49732h 0.442913v -12.5653h 0.442913v 10.2093h 0.442913v 5.49732h 0.442913v -1.57066h 0.442913v -7.85332h 0.442913v 2.356h 0.442913v 1.57066h 0.442913v -0.785332h 0.442913v 3.14133h 0.442913v
 -5.49732h 0.442913v 13.3506h 0.442913v 3.14133h 0.442913v 5.49732h 0.442913v 0.785332h 0.442913v 10.9946h 0.885827v 1.57066h 0.442913v 1.57066h 1.32874v 1.57066h 7.52953v -0.785332h 0.442913v 0.785332h 116.929" fill="none" stroke="#000099"/>
<path d="M57.1929,346.022h 453.543" fill="none" stroke="black"/>
<path d="M57.1929,336.795v 9.22726" fill="none" stroke="black"/>
<path d="M71.9567,341.409v 4.61363" fill="none" stroke="black"/>
<path d="M86.7205,341.409v 4.61363" fill="none" stroke="black"/>
<path d="M101.484,341.409v 4.61363" fill="none" stroke="black"/>
<path d="M116.248,341.409v 4.61363" fill="none" stroke="black"/>
<path d="M131.012,336.795v 9.22726" fill="none" stroke="black"/>
<path d="M145.776,341.409v 4.61363" fill="none" stroke="black"/>
<path d="M160.539,341.409v 4.61363" fill="none" stroke="black"/>
<path d="M175.303,341.409v 4.61363" fill="none" stroke="black"/>
<path d="M190.067,341.409v 4.61363" fill="none" stroke="black"/>
<path d="M204.831,336.795v 9.22726" fill="none" stroke="black"/>
<path d="M219.594,341.409v 4.61363" fill="none" stroke="black"/>
<path d="M234.358,341.409v 4.61363" fill="none" stroke="black"/>
<path d="M249.122,341.409v 4.61363" fill="none" stroke="black"/>
<path d="M263.886,341.409v 4.61363" fill="none" stroke="black"/>
<path d="M278.65,336.795v 9.22726" fill="none" stroke="black"/>
<path d="M293.413,341.409v 4.61363" fill="none" stroke="black"/>
<path d="M308.177,341.409v 4.61363" fill="none" stroke="black"/>
<path d="M322.941,341.409v 4.61363" fill="none" stroke="black"/>
<path d="M337.705,341.409v 4.61363" fill="none" stroke="black"/>
<path d="M352.469,336.795v 9.22726" fill="none" stroke="black"/>
<path d="M367.232,341.409v 4.61363" fill="none" stroke="black"/>
<path d="M381.996,341.409v 4.61363" fill="none" stroke="black"/>
<path d="M396.76,341.409v 4.61363" fill="none" stroke="black"/>
<path d="M411.524,341.409v 4.61363" fill="none" stroke="black"/>
<path d="M426.287,336.795v 9.22726" fill="none" stroke="black"/>
<path d="M441.051,341.409v 4.61363" fill="none" stroke="black"/>
<path d="M455.815,341.409v 4.61363" fill="none" stroke="black"/>
<path d="M470.579,341.409v 4.61363" fill="none" stroke="black"/>
<path d="M485.343,341.409v 4.61363" fill="none" stroke="black"/>
<path d="M500.106,336.795v 9.22726" fill="none" stroke="black"/>
<path d="M500.106,336.795v 9.22726" fill="none" stroke="black"/>
<text xml:space="preserve" x="53.446" y="358.403" fill="black" font-size="12.8453" font-family="Helvetica">0</text>
<text xml:space="preserve" x="120.239" y="358.403" fill="black" font-size="12.8453" font-family="Helvetica">500</text>
<text xml:space="preserve" x="190.291" y="358.403" fill="black" font-size="12.8453" font-family="Helvetica">1000</text>
<text xml:space="preserve" x="264.415" y="358.403" fill="black" font-size="12.8453" font-family="Helvetica">1500</text>
<text xml:space="preserve" x="338.54" y="358.403" fill="black" font-size="12.8453" font-family="Helvetica">2000</text>
<text xml:space="preserve" x="411.849" y="358.403" fill="black" font-size="12.8453" font-family="Helvetica">2500</text>
<text xml:space="preserve" x="485.974" y="358.403" fill="black" font-size="12.8453" font-family="Helvetica">3000</text>
<text xml:space="preserve" x="451.763" y="372.251" fill="black" font-size="12.8453" font-family="Helvetica">ADC value</text>
<path d="M57.1929,346.022v -307.575" fill="none" stroke="black"/>
<path d="M70.7992,346.022h -13.6063" fill="none" stroke="black"/>
<path d="M63.9961,338.169h -6.80315" fill="none" stroke="black"/>
<path d="M63.9961,330.316h -6.80315" fill="none" stroke="black"/>
<path d="M63.9961,322.462h -6.80315" fill="none" stroke="black"/>
<path d="M63.9961,314.609h -6.80315" fill="none" stroke="black"/>
<path d="M70.7992,306.756h -13.6063" fill="none" stroke="black"/>
<path d="M63.9961,298.902h -6.80315" fill="none" stroke="black"/>
<path d="M63.9961,291.049h -6.80315" fill="none" stroke="black"/>
<path d="M63.9961,283.196h -6.80315" fill="none" stroke="black"/>
<path d="M63.9961,275.342h -6.80315" fill="none" stroke="black"/>
<path d="M70.7992,267.489h -13.6063" fill="none" stroke="black"/>
<path d="M63.9961,259.636h -6.80315" fill="none" stroke="black"/>
<path d="M63.9961,251.782h -6.80315" fill="none" stroke="black"/>
<path d="M63.9961,243.929h -6.80315" fill="none" stroke="black"/>
<path d="M63.9961,236.076h -6.80315" fill="none" stroke="black"/>
<path d="M70.7992,228.222h -13.6063" fill="none" stroke="black"/>
<path d="M63.9961,220.369h -6.80315" fill="none" stroke="black"/>
<path d="M63.9961,212.516h -6.80315" fill="none" stroke="black"/>
<path d="M63.9961,204.662h -6.80315" fill="none" stroke="black"/>
<path d="M63.9961,196.809h -6.80315" fill="none" stroke="black"/>
<path d="M70.7992,188.956h -13.6063" fill="none" stroke="black"/>
<path d="M63.9961,181.103h -6.80315" fill="none" stroke="black"/>
<path d="M63.9961,173.249h -6.80315" fill="none" stroke="black"/>
<path d="M63.9961,165.396h -6.80315" fill="none" stroke="black"/>
<path d="M63.9961,157.543h -6.80315" fill="none" stroke="black"/>
<path d="M70.7992,149.689h -13.6063" fill="none" stroke="black"/>
<path d="M63.9961,141.836h -6.80315" fill="none" stroke="black"/>
<path d="M63.9961,133.983h -6.80315" fill="none" stroke="black"/>
<path d="M63.9961,126.129h -6.80315" fill="none" stroke="black"/>
<path d="M63.9961,118.276h -6.80315" fill="none" stroke="black"/>
<path d="M70.7992,110.423h -13.6063" fill="none" stroke="black"/>
<path d="M63.9961,102.569h -6.80315" fill="none" stroke="black"/>
<path d="M63.9961,94.716h -6.80315" fill="none" stroke="black"/>
<path d="M63.9961,86.8626h -6.80315" fill="none" stroke="black"/>
<path d="M63.9961,79.0093h -6.80315" fill="none" stroke="black"/>
<path d="M70.7992,71.156h -13.6063" fill="none" stroke="black"/>
<path d="M70.7992,71.156h -13.6063" fill="none" stroke="black"/>
<path d="M63.9961,63.3027h -6.80315" fill="none" stroke="black"/>
<path d="M63.9961,55.4494h -6.80315" fill="none" stroke="black"/>
<path d="M63.9961,47.596h -6.80315" fill="none" stroke="black"/>
<path d="M63.9961,39.7427h -6.80315" fill="none" stroke="black"/>
<text xml:space="preserve" x="47.7441" y="350.258" fill="black" font-size="12.8453" font-family="Helvetica">0</text>
<text xml:space="preserve" x="41.2277" y="311.159" fill="black" font-size="12.8453" font-family="Helvetica">50</text>
<text xml:space="preserve" x="33.8967" y="272.061" fill="black" font-size="12.8453" font-family="Helvetica">100</text>
<text xml:space="preserve" x="33.8967" y="232.962" fill="black" font-size="12.8453" font-family="Helvetica">150</text>
<text xml:space="preserve" x="33.8967" y="193.049" fill="black" font-size="12.8453" font-family="Helvetica">200</text>
<text xml:space="preserve" x="33.8967" y="153.951" fill="black" font-size="12.8453" font-family="Helvetica">250</text>
<text xml:space="preserve" x="33.8967" y="114.852" fill="black" font-size="12.8453" font-family="Helvetica">300</text>
<text xml:space="preserve" x="33.8967" y="75.7535" fill="black" font-size="12.8453" font-family="Helvetica">350</text>
<g transform="rotate(-90,20.8638,70.0516)">
<text xml:space="preserve" x="20.8638" y="70.0516" fill="black" font-size="12.8453" font-family="Helvetica">Event</text>
</g>
<text xml:space="preserve" x="253.012" y="18.7347" fill="black" font-size="18.0316" font-family="Helvetica">Cs_005</text>
<rect x="442.705" y="24.9905" width="113.386" height="61.5151" fill="white"/>
<path d="M442.705,86.5056h 113.386" fill="none" stroke="black"/>
<path d="M556.091,86.5056v -61.5151" fill="none" stroke="black"/>
<path d="M556.091,24.9905h -113.386" fill="none" stroke="black"/>
<path d="M442.705,24.9905v 61.5151" fill="none" stroke="black"/>
<text xml:space="preserve" x="476.199" y="36.6549" fill="black" font-size="13.4802" font-family="Helvetica">Cs_005</text>
<path d="M442.705,40.3693h 113.386" fill="none" stroke="black"/>
<text xml:space="preserve" x="447.69" y="52.946" fill="black" font-size="12.7186" font-family="Helvetica">Entries </text>
<text xml:space="preserve" x="512.854" y="52.946" fill="black" font-size="12.7186" font-family="Helvetica"> 10739</text>
<text xml:space="preserve" x="447.69" y="67.6079" fill="black" font-size="12.7186" font-family="Helvetica">Mean  </text>
<text xml:space="preserve" x="512.854" y="67.6079" fill="black" font-size="12.7186" font-family="Helvetica">   1505</text>
<text xml:space="preserve" x="447.69" y="83.0844" fill="black" font-size="12.7186" font-family="Helvetica">Std Dev   </text>
<text xml:space="preserve" x="515.298" y="83.0844" fill="black" font-size="12.7186" font-family="Helvetica">  690.1</text>
<text xml:space="preserve" x="253.012" y="18.7347" fill="black" font-size="18.0316" font-family="Helvetica">Cs_005</text></svg>
