<?xml version="1.0" standalone="no"?>
<svg width="567.429" height="384.969" viewBox="0 0 567.429 384.969" xmlns="http://www.w3.org/2000/svg" shape-rendering="crispEdges">
<title>
img/week1/plane_hist/Cs_013.svg
</title>
<desc>
Creator: ROOT Version 6.22/09
CreationDate: Fri Jul  2 19:48:09 2021</desc>
<defs>
</defs>
<rect x="0.5" y="0" width="566.929" height="384.469" fill="white"/>
<rect x="57.1929" y="38.4469" width="453.543" height="307.575" fill="white"/>
<rect x="57.1929" y="38.4469" width="453.543" height="307.575" fill="none" stroke="black"/>
<path d="M57.1929,346.022h 51.8209v -3.367h 0.442913v -3.367h 0.442913v 1.6835h 0.442913v -15.1515h 0.442913v 1.6835h 0.442913v 11.7845h 0.442913v 5.0505h 0.442913v -6.734h 0.442913v 5.0505h 0.442913v 1.6835h 0.442913v -1.6835h 0.885827v 1.6835h
 2.21457v 1.6835h 0.442913v -1.6835h 0.442913v -1.6835h 0.442913v -1.6835h 0.442913v 3.367h 0.442913v -1.6835h 0.442913v 1.6835h 0.442913v -1.6835h 0.442913v -1.6835h 0.442913v 1.6835h 0.442913v 1.6835h 0.442913v 1.6835h 0.442913v -3.367h 0.442913v
 -1.6835h 0.442913v 3.367h 0.442913v -3.367h 0.442913v 3.367h 0.442913v -3.367h 0.442913v 1.6835h 0.885827v 3.367h 0.442913v -3.367h 0.442913v -1.6835h 0.885827v 1.6835h 0.442913v 1.6835h 0.442913v -1.6835h 0.442913v -3.367h 0.442913v 1.6835h
 0.442913v 1.6835h 0.442913v 1.6835h 0.442913v 1.6835h 0.442913v -6.734h 0.442913v 1.6835h 0.442913v 3.367h 0.442913v -5.0505h 0.442913v 3.367h 0.442913v -1.6835h 0.442913v 1.6835h 0.442913v 3.367h 0.442913v -5.0505h 0.442913v 1.6835h 1.77165v
 -3.367h 0.442913v 1.6835h 0.442913v 1.6835h 0.885827v 3.367h 0.885827v -1.6835h 0.442913v -1.6835h 0.442913v 1.6835h 0.442913v -1.6835h 0.442913v 1.6835h 0.442913v -1.6835h 1.32874v -1.6835h 0.442913v 3.367h 0.442913v -3.367h 0.442913v 1.6835h
 0.442913v 3.367h 0.442913v -5.0505h 0.442913v 1.6835h 1.32874v -1.6835h 0.442913v 3.367h 0.442913v -5.0505h 0.442913v 5.0505h 0.442913v 1.6835h 0.442913v -1.6835h 0.442913v -1.6835h 1.32874v -3.367h 0.442913v 6.734h 0.442913v -1.6835h 0.442913v
 1.6835h 1.32874v -1.6835h 0.885827v -1.6835h 0.442913v 3.367h 0.442913v -3.367h 0.442913v 1.6835h 0.442913v 1.6835h 0.442913v -5.0505h 0.442913v 1.6835h 1.32874v -3.367h 0.442913v 6.734h 0.442913v -5.0505h 0.442913v 1.6835h 0.885827v -1.6835h
 0.442913v 3.367h 1.32874v -1.6835h 1.32874v -1.6835h 0.442913v 5.0505h 0.442913v -3.367h 0.442913v -1.6835h 0.442913v 1.6835h 0.442913v 1.6835h 0.442913v -5.0505h 0.885827v 5.0505h 0.442913v -1.6835h 0.442913v 1.6835h 0.442913v 1.6835h 0.442913v
 -5.0505h 0.442913v 5.0505h 0.442913v -3.367h 0.885827v -1.6835h 0.442913v 5.0505h 0.442913v -3.367h 1.77165v -1.6835h 0.442913v 1.6835h 0.442913v 1.6835h 0.442913v -1.6835h 0.885827v -1.6835h 0.442913v 1.6835h 0.442913v 3.367h 0.885827v -1.6835h
 0.442913v -1.6835h 0.442913v 3.367h 0.442913v -3.367h 0.442913v 3.367h 1.32874v -5.0505h 0.885827v 1.6835h 1.32874v 1.6835h 1.77165v -3.367h 0.442913v 5.0505h 0.442913v -1.6835h 0.885827v -3.367h 0.442913v 3.367h 0.885827v -13.468h 0.442913v
 11.7845h 0.885827v 1.6835h 0.442913v 1.6835h 0.442913v -1.6835h 0.442913v 1.6835h 0.442913v -3.367h 0.885827v 1.6835h 0.442913v 1.6835h 0.442913v -6.734h 0.442913v 5.0505h 0.442913v 1.6835h 0.442913v -3.367h 0.885827v 1.6835h 0.442913v 1.6835h
 0.442913v -6.734h 0.442913v 1.6835h 0.442913v 3.367h 0.442913v -3.367h 0.885827v 5.0505h 0.442913v -3.367h 1.32874v -1.6835h 0.442913v 5.0505h 0.442913v -3.367h 0.885827v 1.6835h 0.885827v -3.367h 0.442913v 3.367h 0.442913v -1.6835h 0.885827v
 1.6835h 0.442913v -1.6835h 0.442913v 3.367h 0.442913v -1.6835h 0.885827v -1.6835h 0.442913v -1.6835h 0.885827v 1.6835h 0.885827v 1.6835h 0.442913v 1.6835h 1.32874v -6.734h 0.442913v 5.0505h 0.885827v -1.6835h 0.442913v -1.6835h 0.442913v 1.6835h
 1.32874v 3.367h 0.442913v -3.367h 0.442913v -1.6835h 0.442913v 3.367h 0.442913v -3.367h 0.442913v -1.6835h 0.442913v 5.0505h 0.442913v 1.6835h 0.442913v -1.6835h 1.32874v -3.367h 0.885827v 5.0505h 0.442913v -3.367h 0.442913v 1.6835h 0.442913v
 -6.734h 0.442913v 3.367h 1.32874v 5.0505h 0.885827v -5.0505h 0.442913v 1.6835h 0.442913v -1.6835h 0.442913v 5.0505h 0.885827v -1.6835h 1.32874v -3.367h 0.885827v 1.6835h 0.442913v -1.6835h 0.442913v -3.367h 0.442913v 1.6835h 0.442913v 3.367h
 0.442913v -6.734h 1.32874v 5.0505h 0.885827v -6.734h 0.442913v 3.367h 0.442913v 3.367h 0.442913v -1.6835h 0.442913v 1.6835h 0.442913v 5.0505h 0.442913v -5.0505h 0.442913v -3.367h 0.442913v 8.4175h 0.442913v -8.4175h 0.442913v 6.734h 0.442913v
 -3.367h 0.442913v -1.6835h 0.442913v 3.367h 0.442913v -1.6835h 0.885827v 3.367h 0.442913v -6.734h 0.442913v 6.734h 0.442913v -1.6835h 0.442913v -3.367h 0.442913v 5.0505h 0.442913v -1.6835h 0.885827v -3.367h 0.442913v -5.0505h 0.442913v 5.0505h
 0.442913v -1.6835h 0.442913v 6.734h 0.885827v -1.6835h 0.442913v 1.6835h 0.442913v -3.367h 0.442913v 3.367h 0.442913v -1.6835h 0.885827v 1.6835h 0.885827v -5.0505h 0.442913v 1.6835h 0.442913v 1.6835h 0.442913v -3.367h 0.442913v 3.367h 0.442913v
 1.6835h 0.442913v -3.367h 0.442913v -1.6835h 0.442913v 1.6835h 0.442913v 5.0505h 0.442913v -3.367h 1.32874v -1.6835h 0.442913v 3.367h 0.442913v 1.6835h 0.442913v -5.0505h 0.442913v 3.367h 0.442913v 1.6835h 0.442913v -1.6835h 0.885827v 1.6835h
 0.442913v -1.6835h 0.442913v 1.6835h 0.885827v -1.6835h 0.442913v -1.6835h 0.885827v 1.6835h 1.32874v -1.6835h 0.885827v 1.6835h 0.442913v -1.6835h 0.442913v 3.367h 0.442913v -13.468h 0.442913v 8.4175h 0.442913v 3.367h 0.442913v 1.6835h 0.442913v
 -3.367h 0.442913v 1.6835h 0.442913v -1.6835h 1.32874v 3.367h 0.442913v -1.6835h 0.885827v -1.6835h 0.442913v 1.6835h 0.885827v -1.6835h 0.885827v -1.6835h 0.885827v 1.6835h 0.442913v -1.6835h 0.442913v 1.6835h 0.442913v 3.367h 0.442913v -1.6835h
 0.885827v -1.6835h 0.442913v 1.6835h 0.442913v -3.367h 0.442913v 5.0505h 0.442913v -1.6835h 0.442913v 1.6835h 0.442913v -1.6835h 0.442913v -1.6835h 0.442913v 1.6835h 0.885827v 1.6835h 0.442913v -3.367h 0.442913v 3.367h 0.442913v -1.6835h 0.442913v
 -3.367h 0.442913v 3.367h 0.885827v -1.6835h 1.32874v 1.6835h 0.442913v -6.734h 0.442913v 3.367h 0.442913v 1.6835h 0.442913v -3.367h 0.442913v 3.367h 0.442913v -6.734h 0.442913v 6.734h 0.442913v -3.367h 0.442913v -3.367h 0.442913v 1.6835h 0.442913v
 6.734h 0.442913v -5.0505h 0.442913v 1.6835h 0.442913v 1.6835h 0.885827v -1.6835h 0.442913v 5.0505h 0.442913v -1.6835h 0.442913v -8.4175h 0.442913v 6.734h 0.442913v -1.6835h 0.442913v -3.367h 0.442913v 1.6835h 0.442913v -10.101h 0.442913v 13.468h
 0.442913v -10.101h 0.442913v 8.4175h 0.442913v -3.367h 0.442913v 1.6835h 0.442913v -5.0505h 0.442913v -1.6835h 0.442913v 5.0505h 0.442913v -1.6835h 0.442913v -6.734h 0.442913v 6.734h 0.442913v 1.6835h 0.442913v -1.6835h 0.885827v -1.6835h 0.442913v
 5.0505h 0.885827v -5.0505h 0.885827v 6.734h 0.442913v -5.0505h 0.442913v -5.0505h 0.442913v 3.367h 0.442913v -5.0505h 0.442913v 1.6835h 0.442913v 5.0505h 0.442913v -15.1515h 0.442913v 1.6835h 0.442913v 11.7845h 0.442913v -10.101h 0.442913v 10.101h
 0.442913v -1.6835h 0.442913v -5.0505h 0.442913v 3.367h 0.442913v -8.4175h 0.442913v 11.7845h 0.442913v -3.367h 0.442913v 3.367h 0.442913v -3.367h 0.442913v -6.734h 0.442913v 5.0505h 0.442913v 5.0505h 0.442913v 1.6835h 0.442913v -8.4175h 0.442913v
 3.367h 0.442913v -8.4175h 0.442913v 8.4175h 0.442913v -1.6835h 0.442913v 5.0505h 0.442913v -11.7845h 0.442913v 5.0505h 0.442913v 15.1515h 0.442913v -11.7845h 0.442913v -1.6835h 0.442913v -6.734h 0.442913v 8.4175h 0.442913v 5.0505h 0.442913v 1.6835h
 0.442913v -21.8855h 0.442913v 21.8855h 0.442913v -6.734h 0.442913v 8.4175h 0.442913v -5.0505h 0.442913v -3.367h 0.885827v 10.101h 0.442913v -3.367h 1.32874v 3.367h 0.442913v -8.4175h 0.442913v 8.4175h 0.442913v -11.7845h 0.442913v 10.101h 1.32874v
 5.0505h 0.442913v -8.4175h 0.442913v 6.734h 0.442913v -3.367h 0.442913v 5.0505h 0.442913v -6.734h 0.885827v 3.367h 0.442913v 5.0505h 0.442913v -3.367h 0.442913v -5.0505h 0.442913v 3.367h 0.442913v 1.6835h 0.442913v -3.367h 0.442913v 3.367h 0.442913v
 1.6835h 0.442913v -5.0505h 0.442913v 6.734h 0.442913v -5.0505h 0.442913v 3.367h 0.442913v -6.734h 0.442913v -1.6835h 0.442913v 10.101h 0.885827v -6.734h 0.442913v 6.734h 0.442913v -6.734h 0.442913v 1.6835h 0.442913v -1.6835h 0.442913v 3.367h
 1.32874v 3.367h 0.885827v -5.0505h 0.442913v 1.6835h 0.442913v -3.367h 0.442913v 1.6835h 0.442913v 3.367h 0.442913v -1.6835h 0.442913v 1.6835h 0.885827v -3.367h 0.442913v -3.367h 0.442913v 6.734h 0.442913v 1.6835h 0.442913v -6.734h 0.442913v 6.734h
 0.442913v -1.6835h 0.442913v -1.6835h 0.442913v -5.0505h 0.442913v 5.0505h 0.442913v 3.367h 0.442913v -5.0505h 0.442913v -3.367h 0.442913v 3.367h 0.442913v -1.6835h 0.442913v 3.367h 0.442913v 1.6835h 0.442913v 1.6835h 0.442913v -5.0505h 0.442913v
 1.6835h 0.442913v 1.6835h 0.442913v -1.6835h 0.442913v -3.367h 0.442913v 5.0505h 0.885827v -1.6835h 0.442913v 3.367h 0.442913v -3.367h 0.885827v 3.367h 0.442913v -6.734h 0.442913v -1.6835h 0.442913v -18.5185h 0.442913v -63.973h 0.442913v -139.73h
 0.442913v -62.2895h 0.442913v 75.7575h 0.442913v -43.771h 0.442913v 50.505h 0.442913v 5.0505h 0.442913v 55.5555h 0.442913v 23.569h 0.442913v 48.8215h 0.442913v -5.0505h 0.442913v 16.835h 0.442913v 23.569h 0.442913v -16.835h 0.442913v 1.6835h
 0.442913v -1.6835h 0.442913v -5.0505h 0.442913v -13.468h 0.442913v 35.3535h 0.442913v -10.101h 0.885827v -6.734h 0.442913v 5.0505h 0.442913v -6.734h 0.442913v -1.6835h 0.442913v 10.101h 0.442913v 1.6835h 0.442913v -15.1515h 0.442913v 1.6835h
 0.442913v 10.101h 0.442913v 26.936h 0.442913v -45.4545h 0.442913v 26.936h 0.442913v -16.835h 0.442913v 15.1515h 0.442913v 15.1515h 0.885827v -10.101h 0.442913v 13.468h 0.442913v -3.367h 0.442913v -3.367h 0.442913v 10.101h 0.442913v 6.734h 0.442913v
 8.4175h 0.442913v 8.4175h 0.442913v 1.6835h 128.002" fill="none" stroke="#000099"/>
<path d="M57.1929,346.022h 453.543" fill="none" stroke="black"/>
<path d="M57.1929,336.795v 9.22726" fill="none" stroke="black"/>
<path d="M71.9567,341.409v 4.61363" fill="none" stroke="black"/>
<path d="M86.7205,341.409v 4.61363" fill="none" stroke="black"/>
<path d="M101.484,341.409v 4.61363" fill="none" stroke="black"/>
<path d="M116.248,341.409v 4.61363" fill="none" stroke="black"/>
<path d="M131.012,336.795v 9.22726" fill="none" stroke="black"/>
<path d="M145.776,341.409v 4.61363" fill="none" stroke="black"/>
<path d="M160.539,341.409v 4.61363" fill="none" stroke="black"/>
<path d="M175.303,341.409v 4.61363" fill="none" stroke="black"/>
<path d="M190.067,341.409v 4.61363" fill="none" stroke="black"/>
<path d="M204.831,336.795v 9.22726" fill="none" stroke="black"/>
<path d="M219.594,341.409v 4.61363" fill="none" stroke="black"/>
<path d="M234.358,341.409v 4.61363" fill="none" stroke="black"/>
<path d="M249.122,341.409v 4.61363" fill="none" stroke="black"/>
<path d="M263.886,341.409v 4.61363" fill="none" stroke="black"/>
<path d="M278.65,336.795v 9.22726" fill="none" stroke="black"/>
<path d="M293.413,341.409v 4.61363" fill="none" stroke="black"/>
<path d="M308.177,341.409v 4.61363" fill="none" stroke="black"/>
<path d="M322.941,341.409v 4.61363" fill="none" stroke="black"/>
<path d="M337.705,341.409v 4.61363" fill="none" stroke="black"/>
<path d="M352.469,336.795v 9.22726" fill="none" stroke="black"/>
<path d="M367.232,341.409v 4.61363" fill="none" stroke="black"/>
<path d="M381.996,341.409v 4.61363" fill="none" stroke="black"/>
<path d="M396.76,341.409v 4.61363" fill="none" stroke="black"/>
<path d="M411.524,341.409v 4.61363" fill="none" stroke="black"/>
<path d="M426.287,336.795v 9.22726" fill="none" stroke="black"/>
<path d="M441.051,341.409v 4.61363" fill="none" stroke="black"/>
<path d="M455.815,341.409v 4.61363" fill="none" stroke="black"/>
<path d="M470.579,341.409v 4.61363" fill="none" stroke="black"/>
<path d="M485.343,341.409v 4.61363" fill="none" stroke="black"/>
<path d="M500.106,336.795v 9.22726" fill="none" stroke="black"/>
<path d="M500.106,336.795v 9.22726" fill="none" stroke="black"/>
<text xml:space="preserve" x="53.446" y="358.403" fill="black" font-size="12.8453" font-family="Helvetica">0</text>
<text xml:space="preserve" x="120.239" y="358.403" fill="black" font-size="12.8453" font-family="Helvetica">500</text>
<text xml:space="preserve" x="190.291" y="358.403" fill="black" font-size="12.8453" font-family="Helvetica">1000</text>
<text xml:space="preserve" x="264.415" y="358.403" fill="black" font-size="12.8453" font-family="Helvetica">1500</text>
<text xml:space="preserve" x="338.54" y="358.403" fill="black" font-size="12.8453" font-family="Helvetica">2000</text>
<text xml:space="preserve" x="411.849" y="358.403" fill="black" font-size="12.8453" font-family="Helvetica">2500</text>
<text xml:space="preserve" x="485.974" y="358.403" fill="black" font-size="12.8453" font-family="Helvetica">3000</text>
<text xml:space="preserve" x="451.763" y="372.251" fill="black" font-size="12.8453" font-family="Helvetica">ADC value</text>
<path d="M57.1929,346.022v -307.575" fill="none" stroke="black"/>
<path d="M70.7992,346.022h -13.6063" fill="none" stroke="black"/>
<path d="M63.9961,337.605h -6.80315" fill="none" stroke="black"/>
<path d="M63.9961,329.187h -6.80315" fill="none" stroke="black"/>
<path d="M63.9961,320.77h -6.80315" fill="none" stroke="black"/>
<path d="M70.7992,312.352h -13.6063" fill="none" stroke="black"/>
<path d="M63.9961,303.935h -6.80315" fill="none" stroke="black"/>
<path d="M63.9961,295.517h -6.80315" fill="none" stroke="black"/>
<path d="M63.9961,287.1h -6.80315" fill="none" stroke="black"/>
<path d="M70.7992,278.682h -13.6063" fill="none" stroke="black"/>
<path d="M63.9961,270.265h -6.80315" fill="none" stroke="black"/>
<path d="M63.9961,261.847h -6.80315" fill="none" stroke="black"/>
<path d="M63.9961,253.43h -6.80315" fill="none" stroke="black"/>
<path d="M70.7992,245.012h -13.6063" fill="none" stroke="black"/>
<path d="M63.9961,236.595h -6.80315" fill="none" stroke="black"/>
<path d="M63.9961,228.177h -6.80315" fill="none" stroke="black"/>
<path d="M63.9961,219.76h -6.80315" fill="none" stroke="black"/>
<path d="M70.7992,211.342h -13.6063" fill="none" stroke="black"/>
<path d="M63.9961,202.925h -6.80315" fill="none" stroke="black"/>
<path d="M63.9961,194.507h -6.80315" fill="none" stroke="black"/>
<path d="M63.9961,186.09h -6.80315" fill="none" stroke="black"/>
<path d="M70.7992,177.672h -13.6063" fill="none" stroke="black"/>
<path d="M63.9961,169.255h -6.80315" fill="none" stroke="black"/>
<path d="M63.9961,160.837h -6.80315" fill="none" stroke="black"/>
<path d="M63.9961,152.42h -6.80315" fill="none" stroke="black"/>
<path d="M70.7992,144.002h -13.6063" fill="none" stroke="black"/>
<path d="M63.9961,135.585h -6.80315" fill="none" stroke="black"/>
<path d="M63.9961,127.167h -6.80315" fill="none" stroke="black"/>
<path d="M63.9961,118.75h -6.80315" fill="none" stroke="black"/>
<path d="M70.7992,110.332h -13.6063" fill="none" stroke="black"/>
<path d="M63.9961,101.915h -6.80315" fill="none" stroke="black"/>
<path d="M63.9961,93.4974h -6.80315" fill="none" stroke="black"/>
<path d="M63.9961,85.0798h -6.80315" fill="none" stroke="black"/>
<path d="M70.7992,76.6624h -13.6063" fill="none" stroke="black"/>
<path d="M63.9961,68.2449h -6.80315" fill="none" stroke="black"/>
<path d="M63.9961,59.8274h -6.80315" fill="none" stroke="black"/>
<path d="M63.9961,51.4099h -6.80315" fill="none" stroke="black"/>
<path d="M70.7992,42.9924h -13.6063" fill="none" stroke="black"/>
<path d="M70.7992,42.9924h -13.6063" fill="none" stroke="black"/>
<text xml:space="preserve" x="47.7441" y="350.258" fill="black" font-size="12.8453" font-family="Helvetica">0</text>
<text xml:space="preserve" x="41.2277" y="316.861" fill="black" font-size="12.8453" font-family="Helvetica">20</text>
<text xml:space="preserve" x="41.2277" y="283.465" fill="black" font-size="12.8453" font-family="Helvetica">40</text>
<text xml:space="preserve" x="41.2277" y="249.253" fill="black" font-size="12.8453" font-family="Helvetica">60</text>
<text xml:space="preserve" x="41.2277" y="215.857" fill="black" font-size="12.8453" font-family="Helvetica">80</text>
<text xml:space="preserve" x="33.8967" y="182.46" fill="black" font-size="12.8453" font-family="Helvetica">100</text>
<text xml:space="preserve" x="33.8967" y="148.249" fill="black" font-size="12.8453" font-family="Helvetica">120</text>
<text xml:space="preserve" x="33.8967" y="114.852" fill="black" font-size="12.8453" font-family="Helvetica">140</text>
<text xml:space="preserve" x="33.8967" y="81.4553" fill="black" font-size="12.8453" font-family="Helvetica">160</text>
<text xml:space="preserve" x="33.8967" y="47.2441" fill="black" font-size="12.8453" font-family="Helvetica">180</text>
<g transform="rotate(-90,20.8638,70.0516)">
<text xml:space="preserve" x="20.8638" y="70.0516" fill="black" font-size="12.8453" font-family="Helvetica">Event</text>
</g>
<text xml:space="preserve" x="253.012" y="18.7347" fill="black" font-size="18.0316" font-family="Helvetica">Cs_013</text>
<rect x="442.705" y="24.9905" width="113.386" height="61.5151" fill="white"/>
<path d="M442.705,86.5056h 113.386" fill="none" stroke="black"/>
<path d="M556.091,86.5056v -61.5151" fill="none" stroke="black"/>
<path d="M556.091,24.9905h -113.386" fill="none" stroke="black"/>
<path d="M442.705,24.9905v 61.5151" fill="none" stroke="black"/>
<text xml:space="preserve" x="476.199" y="36.6549" fill="black" font-size="13.4802" font-family="Helvetica">Cs_013</text>
<path d="M442.705,40.3693h 113.386" fill="none" stroke="black"/>
<text xml:space="preserve" x="447.69" y="52.946" fill="black" font-size="13.0654" font-family="Helvetica">Entries </text>
<text xml:space="preserve" x="517.741" y="52.946" fill="black" font-size="13.0654" font-family="Helvetica"> 3728</text>
<text xml:space="preserve" x="447.69" y="67.6079" fill="black" font-size="13.0654" font-family="Helvetica">Mean  </text>
<text xml:space="preserve" x="510.41" y="67.6079" fill="black" font-size="13.0654" font-family="Helvetica">   1792</text>
<text xml:space="preserve" x="447.69" y="83.0844" fill="black" font-size="13.0654" font-family="Helvetica">Std Dev   </text>
<text xml:space="preserve" x="510.41" y="83.0844" fill="black" font-size="13.0654" font-family="Helvetica">  487.2</text>
<text xml:space="preserve" x="253.012" y="18.7347" fill="black" font-size="18.0316" font-family="Helvetica">Cs_013</text></svg>
