<?xml version="1.0" standalone="no"?>
<svg width="567.429" height="384.969" viewBox="0 0 567.429 384.969" xmlns="http://www.w3.org/2000/svg" shape-rendering="crispEdges">
<title>
img/week1/plane_hist/Cs_015.svg
</title>
<desc>
Creator: ROOT Version 6.22/09
CreationDate: Thu Jul  8 17:39:09 2021</desc>
<defs>
</defs>
<rect x="0.5" y="0" width="566.929" height="384.469" fill="white"/>
<rect x="57.1929" y="38.4469" width="453.543" height="307.575" fill="white"/>
<rect x="57.1929" y="38.4469" width="453.543" height="307.575" fill="none" stroke="black"/>
<path d="M57.1929,346.022h 67.7105v -0.114492h 0.583711v 0.0572462h 0.583711v -0.686955h 0.583711v -3.14854h 0.583711v -7.49925h 0.583711v -6.86955h 0.583711v -3.03405h 0.583711v -1.43116h 0.583711v 3.32028h 0.583711v 0.973186h 0.583711v 3.0913h
 0.583711v 3.26303h 0.583711v 1.54565h 0.583711v 0.286231h 0.583711v 2.11811h 0.583711v 1.60289h 0.583711v -1.43116h 0.583711v 2.17536h 0.583711v 1.83188h 0.583711v -1.03043h 0.583711v 0.744201h 0.583711v 0.171739h 0.583711v 0.228985h 0.583711v
 0.629708h 0.583711v -0.228985h 0.583711v 0.400724h 0.583711v 0.0572462h 0.583711v -0.686955h 0.583711v 0.629708h 0.583711v 0.114492h 0.583711v 0.629708h 0.583711v -0.572462h 0.583711v 0.228985h 0.583711v -0.171739h 0.583711v -0.686955h 0.583711v
 0.686955h 0.583711v -0.228985h 0.583711v 0.171739h 0.583711v -0.45797h 0.583711v 1.14492h 0.583711v -0.228985h 0.583711v 0.228985h 1.16742v -1.54565h 0.583711v 1.31666h 0.583711v 0.343477h 0.583711v 0.114492h 0.583711v -1.08768h 0.583711v 0.45797h
 0.583711v -0.0572462h 0.583711v 0.915939h 0.583711v -1.71739h 0.583711v 1.31666h 0.583711v -0.801447h 0.583711v 0.915939h 0.583711v -0.400724h 0.583711v -0.171739h 0.583711v -0.572462h 0.583711v 0.343477h 1.16742v -0.343477h 0.583711v 0.228985h
 0.583711v 0.0572462h 0.583711v 0.343477h 0.583711v 0.171739h 0.583711v -0.0572462h 0.583711v -0.0572462h 0.583711v 0.171739h 0.583711v -0.286231h 0.583711v 1.08768h 0.583711v -2.11811h 0.583711v 0.801447h 0.583711v 0.171739h 0.583711v 0.114492h
 0.583711v 0.286231h 0.583711v -0.228985h 0.583711v -0.286231h 0.583711v -0.228985h 0.583711v -0.286231h 0.583711v 0.915939h 0.583711v -0.171739h 0.583711v 0.286231h 0.583711v -0.572462h 1.16742v -0.171739h 0.583711v 0.400724h 0.583711v -0.0572462h
 0.583711v -0.45797h 0.583711v 0.286231h 0.583711v 0.801447h 0.583711v -0.45797h 0.583711v 0.0572462h 0.583711v -0.400724h 0.583711v 0.45797h 0.583711v -0.114492h 0.583711v -0.515216h 0.583711v -0.114492h 0.583711v 1.03043h 0.583711v 0.0572462h
 0.583711v -0.572462h 1.16742v -0.228985h 1.16742v 0.286231h 1.16742v 0.973186h 0.583711v -1.03043h 0.583711v -0.114492h 0.583711v 0.171739h 0.583711v 0.228985h 0.583711v -0.228985h 0.583711v 0.400724h 0.583711v -0.286231h 0.583711v 0.0572462h
 0.583711v 0.0572462h 0.583711v -0.0572462h 0.583711v -0.400724h 0.583711v 0.228985h 0.583711v 0.400724h 0.583711v -0.45797h 0.583711v 0.286231h 0.583711v -0.629708h 0.583711v 0.0572462h 0.583711v 0.286231h 0.583711v 0.858693h 0.583711v -0.572462h
 0.583711v 0.400724h 0.583711v -0.973186h 0.583711v 0.801447h 0.583711v -0.228985h 0.583711v 0.228985h 0.583711v -0.400724h 0.583711v 0.686955h 0.583711v -0.686955h 0.583711v 0.286231h 0.583711v -0.286231h 0.583711v 0.171739h 0.583711v -0.114492h
 0.583711v 0.171739h 0.583711v -0.0572462h 1.16742v -0.0572462h 0.583711v 0.400724h 0.583711v -0.286231h 1.16742v -0.114492h 0.583711v 0.228985h 0.583711v 0.343477h 0.583711v -0.572462h 0.583711v 0.171739h 0.583711v 0.171739h 0.583711v -0.0572462h
 0.583711v 0.45797h 0.583711v -0.515216h 0.583711v -0.0572462h 0.583711v 0.801447h 0.583711v 0.114492h 0.583711v -0.515216h 0.583711v -0.686955h 0.583711v 0.171739h 0.583711v 0.400724h 0.583711v -0.0572462h 0.583711v -0.629708h 0.583711v 0.744201h
 0.583711v -0.801447h 0.583711v 0.228985h 0.583711v 0.744201h 0.583711v -0.171739h 0.583711v -0.343477h 0.583711v -0.0572462h 0.583711v -0.114492h 0.583711v 0.343477h 0.583711v 0.343477h 0.583711v -0.0572462h 0.583711v -0.286231h 0.583711v -0.45797h
 0.583711v -0.114492h 0.583711v 0.228985h 0.583711v -0.0572462h 0.583711v -0.0572462h 0.583711v -0.171739h 0.583711v 0.686955h 0.583711v -0.286231h 0.583711v 0.286231h 1.16742v 0.744201h 0.583711v -0.686955h 0.583711v -0.228985h 0.583711v 0.114492h
 0.583711v 0.286231h 0.583711v -0.572462h 0.583711v 0.572462h 0.583711v -0.343477h 0.583711v 0.114492h 0.583711v -0.629708h 0.583711v 0.686955h 0.583711v -0.343477h 1.16742v 0.801447h 0.583711v -0.45797h 0.583711v -0.286231h 0.583711v -0.114492h
 0.583711v 0.114492h 0.583711v -0.45797h 0.583711v 0.114492h 0.583711v 0.171739h 0.583711v 0.171739h 0.583711v 0.171739h 0.583711v 0.400724h 0.583711v -0.572462h 0.583711v 0.515216h 0.583711v -0.114492h 0.583711v 0.0572462h 0.583711v 0.343477h
 0.583711v -0.686955h 0.583711v 0.572462h 0.583711v -0.686955h 0.583711v 0.228985h 0.583711v -0.629708h 0.583711v -0.114492h 0.583711v -0.171739h 0.583711v 1.08768h 0.583711v -0.114492h 0.583711v 0.114492h 0.583711v -0.572462h 0.583711v 0.114492h
 0.583711v 0.0572462h 0.583711v 0.171739h 0.583711v -0.45797h 0.583711v 0.515216h 0.583711v -0.286231h 0.583711v -0.171739h 0.583711v 0.343477h 0.583711v 0.171739h 0.583711v -0.228985h 0.583711v 0.114492h 0.583711v -0.228985h 0.583711v 0.515216h
 0.583711v -0.343477h 0.583711v 0.343477h 0.583711v 0.0572462h 0.583711v -0.45797h 0.583711v 0.515216h 0.583711v -0.744201h 0.583711v 0.400724h 0.583711v -0.400724h 0.583711v 0.400724h 0.583711v 0.0572462h 1.16742v 0.0572462h 0.583711v -0.343477h
 0.583711v 0.114492h 0.583711v 0.400724h 0.583711v -0.0572462h 0.583711v -0.572462h 0.583711v -0.114492h 0.583711v 0.343477h 0.583711v 0.572462h 0.583711v -0.629708h 0.583711v -0.228985h 0.583711v -0.286231h 0.583711v 0.915939h 0.583711v -0.686955h
 0.583711v -0.343477h 0.583711v 0.228985h 0.583711v 0.228985h 0.583711v -1.31666h 0.583711v 0.973186h 0.583711v -0.515216h 0.583711v 0.629708h 0.583711v -0.515216h 0.583711v 0.286231h 0.583711v 0.744201h 0.583711v -0.686955h 0.583711v 0.286231h
 0.583711v -0.629708h 0.583711v 0.629708h 1.75113v -0.686955h 0.583711v -0.228985h 0.583711v -0.114492h 0.583711v 0.515216h 0.583711v -0.572462h 0.583711v 0.0572462h 0.583711v 0.343477h 0.583711v -0.515216h 0.583711v -0.171739h 0.583711v -0.515216h
 0.583711v 0.171739h 0.583711v 0.629708h 0.583711v -0.45797h 0.583711v -0.744201h 0.583711v 1.20217h 0.583711v -0.515216h 0.583711v -0.343477h 1.16742v -0.343477h 0.583711v 0.515216h 0.583711v -1.37391h 0.583711v 1.14492h 0.583711v 1.03043h 0.583711v
 -1.71739h 0.583711v 0.973186h 0.583711v -0.744201h 0.583711v 1.14492h 0.583711v -0.915939h 0.583711v 0.286231h 0.583711v 0.0572462h 0.583711v 0.114492h 0.583711v 0.171739h 0.583711v -0.343477h 0.583711v -0.286231h 0.583711v 0.400724h 0.583711v
 -0.228985h 0.583711v 0.686955h 0.583711v -0.858693h 0.583711v -0.0572462h 0.583711v 0.286231h 0.583711v 0.400724h 0.583711v -0.171739h 0.583711v -0.515216h 0.583711v -0.114492h 0.583711v 0.915939h 0.583711v 0.686955h 0.583711v -0.286231h 0.583711v
 -0.343477h 0.583711v 0.0572462h 0.583711v -0.686955h 0.583711v 1.03043h 0.583711v -0.45797h 0.583711v -0.0572462h 0.583711v 0.572462h 0.583711v -1.54565h 0.583711v 1.31666h 0.583711v 0.114492h 0.583711v -0.0572462h 0.583711v 1.14492h 0.583711v
 -1.20217h 0.583711v 0.515216h 0.583711v -0.286231h 0.583711v 0.286231h 1.16742v -0.286231h 0.583711v 0.686955h 1.16742v 0.228985h 0.583711v -0.0572462h 0.583711v -0.572462h 0.583711v -0.114492h 0.583711v -0.286231h 0.583711v 0.286231h 0.583711v
 0.400724h 0.583711v 0.400724h 0.583711v 0.286231h 0.583711v -0.114492h 0.583711v -0.400724h 0.583711v 0.801447h 0.583711v -0.171739h 0.583711v -0.114492h 0.583711v -0.572462h 0.583711v 0.45797h 0.583711v -0.45797h 0.583711v -0.515216h 0.583711v
 0.686955h 0.583711v 0.286231h 0.583711v -0.171739h 0.583711v -0.0572462h 0.583711v 0.572462h 0.583711v -0.801447h 0.583711v 0.686955h 0.583711v -0.343477h 0.583711v -0.114492h 0.583711v 0.45797h 0.583711v -0.45797h 0.583711v -0.0572462h 0.583711v
 -0.0572462h 0.583711v 0.228985h 0.583711v 0.171739h 0.583711v 0.629708h 0.583711v -0.515216h 0.583711v 0.572462h 0.583711v -0.744201h 0.583711v 0.0572462h 0.583711v -0.171739h 0.583711v 0.114492h 0.583711v -0.572462h 0.583711v 0.572462h 0.583711v
 0.228985h 0.583711v -0.286231h 0.583711v 0.286231h 0.583711v 0.228985h 0.583711v -0.858693h 0.583711v 0.744201h 0.583711v 0.114492h 0.583711v -0.572462h 0.583711v 0.228985h 0.583711v 0.0572462h 0.583711v -0.0572462h 0.583711v 0.114492h 0.583711v
 0.0572462h 0.583711v -0.228985h 0.583711v -0.973186h 0.583711v 1.08768h 0.583711v -0.629708h 0.583711v 0.171739h 0.583711v -0.0572462h 0.583711v 0.228985h 0.583711v 0.228985h 1.16742v -0.515216h 0.583711v 0.0572462h 0.583711v 0.801447h 0.583711v
 -0.744201h 0.583711v 0.286231h 0.583711v -0.286231h 0.583711v -0.114492h 0.583711v 0.45797h 0.583711v -0.515216h 0.583711v 0.286231h 0.583711v -0.286231h 0.583711v -0.0572462h 0.583711v 0.114492h 0.583711v 0.0572462h 0.583711v -0.171739h 0.583711v
 -0.286231h 0.583711v -0.228985h 0.583711v 0.114492h 0.583711v -0.400724h 0.583711v 0.515216h 0.583711v 0.400724h 0.583711v -0.171739h 0.583711v -0.858693h 1.16742v 0.572462h 0.583711v -0.114492h 0.583711v -0.286231h 0.583711v 0.0572462h 1.16742v
 -0.114492h 0.583711v -0.343477h 0.583711v -0.0572462h 0.583711v -0.0572462h 0.583711v -0.686955h 0.583711v 0.0572462h 0.583711v 0.572462h 0.583711v -0.686955h 0.583711v -0.686955h 0.583711v 0.515216h 0.583711v 0.286231h 0.583711v -0.45797h 0.583711v
 -0.572462h 0.583711v -0.629708h 0.583711v 0.515216h 0.583711v -0.0572462h 0.583711v -0.286231h 0.583711v 0.286231h 0.583711v -1.60289h 0.583711v -1.08768h 0.583711v 2.34709h 0.583711v -1.25942h 0.583711v -0.45797h 0.583711v 0.114492h 0.583711v
 0.744201h 0.583711v -1.20217h 0.583711v 2.00362h 0.583711v -3.0913h 0.583711v -0.629708h 0.583711v 1.88913h 0.583711v -0.572462h 0.583711v -1.37391h 0.583711v -0.973186h 0.583711v 1.14492h 0.583711v 0.400724h 0.583711v -0.515216h 0.583711v
 -0.801447h 0.583711v -0.572462h 0.583711v 0.686955h 0.583711v -0.629708h 0.583711v -1.77463h 0.583711v 2.00362h 0.583711v -1.14492h 0.583711v 0.45797h 0.583711v 0.45797h 0.583711v -0.228985h 0.583711v -2.91956h 0.583711v 2.17536h 0.583711v -1.66014h
 0.583711v -0.858693h 0.583711v 0.286231h 0.583711v 1.31666h 0.583711v 0.686955h 0.583711v -0.629708h 0.583711v 0.286231h 0.583711v -0.686955h 0.583711v -0.114492h 0.583711v -2.34709h 0.583711v 3.37753h 0.583711v -2.51883h 0.583711v 1.14492h
 0.583711v 1.43116h 0.583711v 0.171739h 0.583711v -1.83188h 0.583711v 0.228985h 0.583711v 1.66014h 0.583711v -0.744201h 0.583711v -0.973186h 0.583711v 1.66014h 0.583711v -0.515216h 0.583711v 0.858693h 0.583711v 0.801447h 0.583711v -2.11811h 0.583711v
 0.801447h 0.583711v 0.629708h 0.583711v -0.744201h 0.583711v 2.17536h 0.583711v -0.744201h 0.583711v 2.34709h 0.583711v -1.43116h 0.583711v 0.114492h 0.583711v 0.686955h 0.583711v 0.286231h 0.583711v -0.744201h 0.583711v 1.4884h 0.583711v
 -0.0572462h 0.583711v 0.572462h 0.583711v -0.400724h 0.583711v 1.25942h 0.583711v -0.286231h 0.583711v 0.572462h 0.583711v -2.17536h 0.583711v 2.28985h 0.583711v 0.45797h 0.583711v 1.43116h 0.583711v -1.88913h 0.583711v 0.915939h 0.583711v
 -0.114492h 0.583711v 0.915939h 0.583711v -0.400724h 0.583711v -0.629708h 0.583711v 1.54565h 0.583711v -0.400724h 0.583711v 0.801447h 0.583711v 0.286231h 0.583711v -0.171739h 0.583711v 0.171739h 0.583711v 0.572462h 0.583711v -0.171739h 0.583711v
 -1.37391h 0.583711v 0.171739h 0.583711v 0.973186h 0.583711v -0.45797h 0.583711v 0.286231h 0.583711v 0.171739h 0.583711v -0.286231h 0.583711v 0.973186h 0.583711v -0.744201h 0.583711v 0.400724h 0.583711v 0.0572462h 0.583711v -0.572462h 0.583711v
 0.286231h 0.583711v -0.171739h 0.583711v 0.801447h 0.583711v -0.515216h 0.583711v -0.515216h 0.583711v 0.744201h 0.583711v -0.171739h 0.583711v 0.171739h 0.583711v 0.0572462h 0.583711v -0.343477h 0.583711v -0.114492h 0.583711v -0.915939h 0.583711v
 -0.915939h 0.583711v -3.32028h 0.583711v -15.2275h 0.583711v -42.8774h 0.583711v -97.4331h 0.583711v -100.009h 0.583711v -28.6804h 0.583711v 33.718h 0.583711v 45.9115h 0.583711v 25.9898h 0.583711v 29.1956h 0.583711v 39.9006h 0.583711v 24.3296h
 0.583711v 24.5014h 0.583711v 3.8355h 0.583711v 5.26665h 0.583711v 8.35795h 0.583711v -0.343477h 0.583711v -0.686955h 0.583711v 1.03043h 0.583711v 3.14854h 0.583711v 0.114492h 0.583711v 4.92317h 0.583711v -1.60289h 0.583711v -2.80506h 0.583711v
 3.94999h 0.583711v -0.0572462h 0.583711v -1.71739h 0.583711v -0.744201h 0.583711v 1.37391h 0.583711v 1.03043h 0.583711v -0.45797h 0.583711v -1.37391h 0.583711v 0.171739h 0.583711v -2.00362h 0.583711v 2.63333h 0.583711v 3.49202h 0.583711v -1.31666h
 0.583711v -3.8355h 0.583711v 4.86593h 0.583711v 0.973186h 0.583711v 0.686955h 0.583711v 4.75144h 0.583711v 1.94637h 0.583711v 6.86955h 0.583711v 6.75505h 0.583711v 7.27027h 0.583711v 5.61013h 0.583711v 2.17536h 0.583711v 3.26303h 0.583711v 1.31666h
 0.583711v 0.171739h 0.583711v 0.114492h 0.583711v 0.228985h 5.83711v -0.0572462h 0.583711v 0.0572462h 14.0091v -0.0572462h 0.583711" fill="none" stroke="#000099"/>
<path d="M57.1929,346.022h 453.543" fill="none" stroke="black"/>
<path d="M57.7766,336.795v 9.22726" fill="none" stroke="black"/>
<path d="M77.2337,341.409v 4.61363" fill="none" stroke="black"/>
<path d="M96.6907,341.409v 4.61363" fill="none" stroke="black"/>
<path d="M116.148,341.409v 4.61363" fill="none" stroke="black"/>
<path d="M135.605,341.409v 4.61363" fill="none" stroke="black"/>
<path d="M155.062,336.795v 9.22726" fill="none" stroke="black"/>
<path d="M174.519,341.409v 4.61363" fill="none" stroke="black"/>
<path d="M193.976,341.409v 4.61363" fill="none" stroke="black"/>
<path d="M213.433,341.409v 4.61363" fill="none" stroke="black"/>
<path d="M232.89,341.409v 4.61363" fill="none" stroke="black"/>
<path d="M252.347,336.795v 9.22726" fill="none" stroke="black"/>
<path d="M271.804,341.409v 4.61363" fill="none" stroke="black"/>
<path d="M291.261,341.409v 4.61363" fill="none" stroke="black"/>
<path d="M310.718,341.409v 4.61363" fill="none" stroke="black"/>
<path d="M330.175,341.409v 4.61363" fill="none" stroke="black"/>
<path d="M349.632,336.795v 9.22726" fill="none" stroke="black"/>
<path d="M369.089,341.409v 4.61363" fill="none" stroke="black"/>
<path d="M388.546,341.409v 4.61363" fill="none" stroke="black"/>
<path d="M408.003,341.409v 4.61363" fill="none" stroke="black"/>
<path d="M427.46,341.409v 4.61363" fill="none" stroke="black"/>
<path d="M446.917,336.795v 9.22726" fill="none" stroke="black"/>
<path d="M57.7766,336.795v 9.22726" fill="none" stroke="black"/>
<path d="M446.917,336.795v 9.22726" fill="none" stroke="black"/>
<path d="M466.374,341.409v 4.61363" fill="none" stroke="black"/>
<path d="M485.831,341.409v 4.61363" fill="none" stroke="black"/>
<path d="M505.288,341.409v 4.61363" fill="none" stroke="black"/>
<text xml:space="preserve" x="54.2605" y="358.403" fill="black" font-size="12.8453" font-family="Helvetica">0</text>
<text xml:space="preserve" x="143.861" y="358.403" fill="black" font-size="12.8453" font-family="Helvetica">500</text>
<text xml:space="preserve" x="238.35" y="358.403" fill="black" font-size="12.8453" font-family="Helvetica">1000</text>
<text xml:space="preserve" x="335.281" y="358.403" fill="black" font-size="12.8453" font-family="Helvetica">1500</text>
<text xml:space="preserve" x="433.028" y="358.403" fill="black" font-size="12.8453" font-family="Helvetica">2000</text>
<text xml:space="preserve" x="451.763" y="372.251" fill="black" font-size="12.8453" font-family="Helvetica">ADC value</text>
<path d="M57.1929,346.022v -307.575" fill="none" stroke="black"/>
<path d="M70.7992,346.022h -13.6063" fill="none" stroke="black"/>
<path d="M63.9961,334.573h -6.80315" fill="none" stroke="black"/>
<path d="M63.9961,323.124h -6.80315" fill="none" stroke="black"/>
<path d="M63.9961,311.675h -6.80315" fill="none" stroke="black"/>
<path d="M63.9961,300.225h -6.80315" fill="none" stroke="black"/>
<path d="M70.7992,288.776h -13.6063" fill="none" stroke="black"/>
<path d="M63.9961,277.327h -6.80315" fill="none" stroke="black"/>
<path d="M63.9961,265.878h -6.80315" fill="none" stroke="black"/>
<path d="M63.9961,254.428h -6.80315" fill="none" stroke="black"/>
<path d="M63.9961,242.979h -6.80315" fill="none" stroke="black"/>
<path d="M70.7992,231.53h -13.6063" fill="none" stroke="black"/>
<path d="M63.9961,220.081h -6.80315" fill="none" stroke="black"/>
<path d="M63.9961,208.631h -6.80315" fill="none" stroke="black"/>
<path d="M63.9961,197.182h -6.80315" fill="none" stroke="black"/>
<path d="M63.9961,185.733h -6.80315" fill="none" stroke="black"/>
<path d="M70.7992,174.284h -13.6063" fill="none" stroke="black"/>
<path d="M63.9961,162.834h -6.80315" fill="none" stroke="black"/>
<path d="M63.9961,151.385h -6.80315" fill="none" stroke="black"/>
<path d="M63.9961,139.936h -6.80315" fill="none" stroke="black"/>
<path d="M63.9961,128.487h -6.80315" fill="none" stroke="black"/>
<path d="M70.7992,117.037h -13.6063" fill="none" stroke="black"/>
<path d="M63.9961,105.588h -6.80315" fill="none" stroke="black"/>
<path d="M63.9961,94.1389h -6.80315" fill="none" stroke="black"/>
<path d="M63.9961,82.6897h -6.80315" fill="none" stroke="black"/>
<path d="M63.9961,71.2404h -6.80315" fill="none" stroke="black"/>
<path d="M70.7992,59.7912h -13.6063" fill="none" stroke="black"/>
<path d="M70.7992,59.7912h -13.6063" fill="none" stroke="black"/>
<path d="M63.9961,48.3419h -6.80315" fill="none" stroke="black"/>
<text xml:space="preserve" x="47.7441" y="350.258" fill="black" font-size="12.8453" font-family="Helvetica">0</text>
<text xml:space="preserve" x="27.3803" y="293.239" fill="black" font-size="12.8453" font-family="Helvetica">1000</text>
<text xml:space="preserve" x="27.3803" y="236.22" fill="black" font-size="12.8453" font-family="Helvetica">2000</text>
<text xml:space="preserve" x="27.3803" y="178.387" fill="black" font-size="12.8453" font-family="Helvetica">3000</text>
<text xml:space="preserve" x="27.3803" y="121.368" fill="black" font-size="12.8453" font-family="Helvetica">4000</text>
<text xml:space="preserve" x="27.3803" y="64.3497" fill="black" font-size="12.8453" font-family="Helvetica">5000</text>
<g transform="rotate(-90,14.3474,70.0516)">
<text xml:space="preserve" x="14.3474" y="70.0516" fill="black" font-size="12.8453" font-family="Helvetica">Event</text>
</g>
<text xml:space="preserve" x="253.012" y="18.7347" fill="black" font-size="18.0316" font-family="Helvetica">Cs_015</text>
<rect x="442.705" y="24.9905" width="113.386" height="61.5151" fill="white"/>
<path d="M442.705,86.5056h 113.386" fill="none" stroke="black"/>
<path d="M556.091,86.5056v -61.5151" fill="none" stroke="black"/>
<path d="M556.091,24.9905h -113.386" fill="none" stroke="black"/>
<path d="M442.705,24.9905v 61.5151" fill="none" stroke="black"/>
<text xml:space="preserve" x="476.199" y="36.6549" fill="black" font-size="13.4802" font-family="Helvetica">Cs_015</text>
<path d="M442.705,40.3693h 113.386" fill="none" stroke="black"/>
<text xml:space="preserve" x="447.69" y="52.946" fill="black" font-size="12.3904" font-family="Helvetica">Entries </text>
<text xml:space="preserve" x="506.338" y="52.946" fill="black" font-size="12.3904" font-family="Helvetica"> 100820</text>
<text xml:space="preserve" x="447.69" y="67.6079" fill="black" font-size="12.3904" font-family="Helvetica">Mean  </text>
<text xml:space="preserve" x="512.854" y="67.6079" fill="black" font-size="12.3904" font-family="Helvetica">   1799</text>
<text xml:space="preserve" x="447.69" y="83.0844" fill="black" font-size="12.3904" font-family="Helvetica">Std Dev   </text>
<text xml:space="preserve" x="512.854" y="83.0844" fill="black" font-size="12.3904" font-family="Helvetica">  513.8</text>
<text xml:space="preserve" x="253.012" y="18.7347" fill="black" font-size="18.0316" font-family="Helvetica">Cs_015</text></svg>
