<?xml version="1.0" standalone="no"?>
<svg width="567.429" height="384.969" viewBox="0 0 567.429 384.969" xmlns="http://www.w3.org/2000/svg" shape-rendering="crispEdges">
<title>
img/week1/plane_hist/Cs_012.svg
</title>
<desc>
Creator: ROOT Version 6.22/09
CreationDate: Wed Jul 14 09:55:30 2021</desc>
<defs>
</defs>
<rect x="0.5" y="0" width="566.929" height="384.469" fill="white"/>
<rect x="57.1929" y="38.4469" width="453.543" height="307.575" fill="white"/>
<rect x="57.1929" y="38.4469" width="453.543" height="307.575" fill="none" stroke="black"/>
<path d="M57.1929,346.022h 65.8673v -11.5079h 0.627307v -49.1702h 1.25461v 10.4617h 0.627307v 5.23087h 0.627307v 6.80014h 0.627307v 6.80014h 0.627307v 4.1847h 0.627307v 7.84631h 0.627307v -6.80014h 0.627307v 1.56926h 0.627307v 4.70779h 0.627307v
 8.89248h 0.627307v -1.56926h 0.627307v 1.56926h 0.627307v 1.56926h 0.627307v 1.56926h 0.627307v 1.56926h 0.627307v 2.09235h 0.627307v 1.56926h 0.627307v -3.13852h 0.627307v 1.04617h 0.627307v 2.09235h 1.25461v -0.523087h 0.627307v 0.523087h
 0.627307v 2.09235h 0.627307v -0.523087h 0.627307v -1.04617h 0.627307v 1.04617h 0.627307v -1.56926h 1.25461v 0.523087h 0.627307v 0.523087h 0.627307v -1.04617h 0.627307v 2.09235h 1.88192v -0.523087h 0.627307v 0.523087h 0.627307v -0.523087h 0.627307v
 1.04617h 0.627307v -2.09235h 0.627307v 1.04617h 1.25461v 0.523087h 1.88192v -1.04617h 1.25461v -1.56926h 0.627307v 2.09235h 0.627307v -0.523087h 0.627307v 0.523087h 0.627307v 1.04617h 0.627307v -0.523087h 0.627307v -0.523087h 1.25461v -0.523087h
 1.25461v -1.04617h 0.627307v 2.61544h 0.627307v -1.56926h 0.627307v 0.523087h 0.627307v -3.66161h 0.627307v 3.66161h 0.627307v -0.523087h 1.25461v 0.523087h 1.25461v -0.523087h 0.627307v 0.523087h 0.627307v 1.04617h 0.627307v -2.09235h 0.627307v
 0.523087h 1.25461v 0.523087h 1.25461v 0.523087h 0.627307v -2.09235h 1.25461v 1.04617h 0.627307v 1.56926h 0.627307v -0.523087h 0.627307v -0.523087h 0.627307v -0.523087h 0.627307v 1.04617h 3.13654v -0.523087h 1.88192v -0.523087h 0.627307v 0.523087h
 1.25461v 1.04617h 0.627307v -1.04617h 0.627307v 0.523087h 0.627307v -0.523087h 0.627307v -1.04617h 0.627307v 2.09235h 0.627307v -0.523087h 0.627307v -1.56926h 0.627307v 1.56926h 0.627307v -1.04617h 0.627307v -0.523087h 0.627307v -0.523087h 0.627307v
 1.04617h 0.627307v 1.56926h 0.627307v -0.523087h 0.627307v -1.56926h 0.627307v 1.56926h 0.627307v -1.04617h 0.627307v 1.56926h 0.627307v -2.09235h 0.627307v 0.523087h 0.627307v 1.04617h 1.25461v -2.09235h 0.627307v 1.56926h 0.627307v -0.523087h
 0.627307v -1.04617h 0.627307v 0.523087h 1.25461v 1.04617h 0.627307v -1.56926h 0.627307v 2.09235h 0.627307v -1.56926h 0.627307v 1.04617h 0.627307v 0.523087h 1.25461v -1.56926h 0.627307v 1.04617h 2.50923v 1.04617h 0.627307v -1.04617h 1.25461v 1.04617h
 1.25461v -1.04617h 0.627307v 1.04617h 0.627307v -1.04617h 0.627307v -0.523087h 0.627307v 1.56926h 0.627307v -1.56926h 0.627307v 0.523087h 0.627307v 1.04617h 0.627307v -1.56926h 0.627307v 1.04617h 0.627307v -2.61544h 0.627307v 3.13852h 0.627307v
 -1.56926h 1.25461v 1.56926h 0.627307v -0.523087h 1.25461v -1.04617h 1.25461v 1.56926h 0.627307v -0.523087h 0.627307v 0.523087h 0.627307v -1.04617h 0.627307v 1.04617h 0.627307v -2.61544h 0.627307v 1.56926h 1.25461v -0.523087h 0.627307v 0.523087h
 0.627307v 0.523087h 1.25461v -1.04617h 0.627307v 0.523087h 0.627307v -1.04617h 0.627307v 0.523087h 0.627307v 1.04617h 0.627307v 0.523087h 0.627307v -1.56926h 1.25461v 1.04617h 1.25461v 0.523087h 0.627307v -1.04617h 0.627307v -1.04617h 0.627307v
 1.56926h 0.627307v 0.523087h 0.627307v -0.523087h 0.627307v -1.04617h 1.25461v 1.04617h 0.627307v 0.523087h 1.25461v -1.56926h 0.627307v 0.523087h 0.627307v -1.04617h 0.627307v 1.56926h 0.627307v -2.09235h 0.627307v 2.61544h 0.627307v -0.523087h
 0.627307v 0.523087h 0.627307v -1.04617h 0.627307v 1.04617h 0.627307v -0.523087h 0.627307v -1.04617h 1.25461v 1.04617h 0.627307v -1.04617h 0.627307v 0.523087h 0.627307v 1.04617h 0.627307v -2.61544h 0.627307v 1.04617h 0.627307v 0.523087h 0.627307v
 1.04617h 0.627307v -0.523087h 0.627307v 0.523087h 0.627307v -1.04617h 0.627307v 0.523087h 1.25461v 0.523087h 0.627307v -1.56926h 0.627307v 1.04617h 0.627307v -1.56926h 0.627307v 1.56926h 0.627307v 0.523087h 0.627307v -1.04617h 0.627307v 0.523087h
 1.25461v -1.04617h 0.627307v 0.523087h 0.627307v -1.04617h 0.627307v 0.523087h 0.627307v 1.04617h 0.627307v -0.523087h 0.627307v 0.523087h 0.627307v -0.523087h 0.627307v 0.523087h 1.25461v -0.523087h 0.627307v -0.523087h 0.627307v 0.523087h
 0.627307v 0.523087h 1.25461v -0.523087h 0.627307v -1.56926h 0.627307v 1.04617h 0.627307v -1.56926h 0.627307v 2.09235h 0.627307v 0.523087h 0.627307v -2.09235h 0.627307v 1.04617h 0.627307v 0.523087h 1.88192v 1.04617h 0.627307v -1.04617h 0.627307v
 -1.04617h 0.627307v 1.04617h 1.25461v 0.523087h 0.627307v -0.523087h 0.627307v -1.04617h 0.627307v 1.56926h 0.627307v 0.523087h 0.627307v -0.523087h 0.627307v -1.56926h 0.627307v 1.04617h 0.627307v 1.04617h 0.627307v -2.09235h 0.627307v 1.56926h
 1.25461v -0.523087h 1.25461v -0.523087h 0.627307v 0.523087h 0.627307v 0.523087h 0.627307v -0.523087h 0.627307v 0.523087h 1.25461v -0.523087h 0.627307v 0.523087h 0.627307v 0.523087h 0.627307v -1.04617h 0.627307v 1.04617h 0.627307v -2.09235h 0.627307v
 2.09235h 0.627307v -0.523087h 0.627307v -0.523087h 0.627307v 1.04617h 0.627307v -2.09235h 0.627307v 1.56926h 1.25461v -1.04617h 0.627307v 0.523087h 0.627307v 1.04617h 0.627307v -0.523087h 0.627307v -1.04617h 1.25461v 1.04617h 0.627307v -1.04617h
 0.627307v 1.04617h 0.627307v -0.523087h 0.627307v 0.523087h 1.25461v -2.09235h 0.627307v 2.61544h 0.627307v -1.56926h 0.627307v -0.523087h 1.25461v 1.56926h 0.627307v -0.523087h 0.627307v -0.523087h 0.627307v -1.04617h 0.627307v 1.56926h 0.627307v
 1.04617h 0.627307v -2.61544h 0.627307v 1.56926h 0.627307v -0.523087h 1.25461v -1.04617h 0.627307v 2.09235h 0.627307v -1.56926h 0.627307v -0.523087h 0.627307v 0.523087h 0.627307v 1.56926h 0.627307v -0.523087h 0.627307v -1.56926h 0.627307v 1.04617h
 1.25461v -2.09235h 0.627307v 2.09235h 0.627307v -0.523087h 0.627307v -0.523087h 0.627307v 2.09235h 1.25461v -3.66161h 0.627307v 2.09235h 0.627307v 1.04617h 0.627307v -1.56926h 0.627307v 1.56926h 0.627307v -1.04617h 1.25461v 2.09235h 0.627307v
 -0.523087h 0.627307v -1.04617h 0.627307v -0.523087h 0.627307v 1.04617h 0.627307v 0.523087h 0.627307v -1.56926h 0.627307v 0.523087h 0.627307v -1.04617h 0.627307v 2.09235h 0.627307v -2.09235h 0.627307v 1.04617h 0.627307v -1.56926h 0.627307v 2.09235h
 0.627307v -2.09235h 0.627307v 2.09235h 0.627307v -3.13852h 0.627307v 3.66161h 0.627307v -1.04617h 0.627307v 1.04617h 0.627307v -2.09235h 0.627307v 1.56926h 0.627307v -0.523087h 1.25461v 1.04617h 0.627307v -2.09235h 0.627307v 0.523087h 0.627307v
 1.04617h 0.627307v -1.56926h 0.627307v 1.56926h 0.627307v -2.09235h 0.627307v 2.09235h 0.627307v -1.56926h 0.627307v 1.04617h 0.627307v -0.523087h 0.627307v -1.56926h 0.627307v 2.09235h 0.627307v 1.04617h 0.627307v 0.523087h 0.627307v -2.09235h
 0.627307v 1.04617h 1.25461v 0.523087h 0.627307v 0.523087h 0.627307v -1.04617h 0.627307v 0.523087h 0.627307v -0.523087h 0.627307v 0.523087h 0.627307v -1.04617h 1.25461v 1.04617h 0.627307v -1.04617h 0.627307v -0.523087h 0.627307v 0.523087h 0.627307v
 -0.523087h 0.627307v 1.56926h 1.25461v -0.523087h 1.25461v -0.523087h 0.627307v -1.04617h 0.627307v 2.09235h 1.25461v -2.09235h 0.627307v 2.61544h 0.627307v -1.04617h 0.627307v 0.523087h 0.627307v -2.09235h 0.627307v 2.61544h 0.627307v -0.523087h
 0.627307v -0.523087h 1.88192v -0.523087h 0.627307v -0.523087h 0.627307v 1.56926h 0.627307v -1.04617h 0.627307v 1.04617h 1.88192v -0.523087h 0.627307v 0.523087h 0.627307v 0.523087h 0.627307v -1.56926h 0.627307v 0.523087h 0.627307v -0.523087h
 0.627307v 0.523087h 1.88192v -0.523087h 0.627307v 0.523087h 0.627307v -1.04617h 0.627307v -1.56926h 0.627307v 3.66161h 0.627307v -1.56926h 0.627307v 1.04617h 1.88192v 0.523087h 0.627307v -1.04617h 0.627307v -0.523087h 0.627307v 1.04617h 0.627307v
 -1.04617h 0.627307v 0.523087h 0.627307v -0.523087h 0.627307v 1.04617h 1.25461v -1.04617h 1.25461v 0.523087h 0.627307v 1.04617h 0.627307v -1.04617h 0.627307v 1.04617h 0.627307v -0.523087h 0.627307v -1.04617h 0.627307v 1.56926h 0.627307v -1.04617h
 0.627307v 0.523087h 0.627307v -0.523087h 1.25461v 0.523087h 1.88192v -1.04617h 0.627307v 0.523087h 0.627307v 0.523087h 0.627307v -1.56926h 0.627307v 1.04617h 0.627307v -1.04617h 0.627307v 1.04617h 0.627307v 0.523087h 0.627307v -2.09235h 0.627307v
 1.56926h 0.627307v -0.523087h 0.627307v 1.56926h 0.627307v -0.523087h 0.627307v -1.04617h 0.627307v 0.523087h 0.627307v 0.523087h 0.627307v -1.56926h 0.627307v 0.523087h 0.627307v -0.523087h 0.627307v 1.56926h 1.25461v -2.61544h 0.627307v 1.56926h
 0.627307v 0.523087h 0.627307v -0.523087h 0.627307v 1.04617h 0.627307v -1.04617h 0.627307v -1.04617h 0.627307v 0.523087h 1.25461v 0.523087h 0.627307v 0.523087h 0.627307v -1.56926h 0.627307v 2.09235h 0.627307v -1.56926h 0.627307v 1.04617h 0.627307v
 -0.523087h 0.627307v -0.523087h 0.627307v -1.04617h 1.25461v 0.523087h 0.627307v 2.09235h 0.627307v -3.13852h 0.627307v 2.09235h 0.627307v -0.523087h 1.25461v -3.66161h 0.627307v 3.66161h 1.25461v -0.523087h 0.627307v -0.523087h 0.627307v -1.04617h
 0.627307v 1.56926h 0.627307v 0.523087h 0.627307v -1.56926h 0.627307v -1.56926h 0.627307v 1.56926h 0.627307v -1.04617h 1.25461v 2.61544h 0.627307v -2.09235h 0.627307v 3.13852h 0.627307v -4.1847h 0.627307v 1.56926h 0.627307v -0.523087h 1.25461v
 1.56926h 0.627307v -4.1847h 0.627307v 2.09235h 1.25461v 2.09235h 0.627307v -3.66161h 0.627307v 0.523087h 0.627307v 0.523087h 0.627307v -3.66161h 0.627307v 4.1847h 0.627307v 0.523087h 1.25461v -4.70779h 0.627307v 5.23087h 0.627307v 1.56926h 0.627307v
 -4.70779h 0.627307v 2.09235h 0.627307v -6.27705h 0.627307v 7.84631h 0.627307v -2.09235h 0.627307v 1.56926h 0.627307v -1.04617h 0.627307v 0.523087h 0.627307v 1.56926h 0.627307v -2.09235h 0.627307v -3.13852h 0.627307v 3.66161h 0.627307v -1.04617h
 0.627307v -1.56926h 0.627307v -2.61544h 0.627307v 1.04617h 0.627307v 1.04617h 0.627307v 2.61544h 0.627307v -2.61544h 0.627307v 1.56926h 0.627307v -1.04617h 1.25461v -5.75396h 0.627307v -9.93866h 0.627307v -117.172h 0.627307v -153.265h 0.627307v
 133.91h 0.627307v 4.1847h 0.627307v 19.3542h 0.627307v 42.3701h 0.627307v 36.093h 0.627307v -10.4617h 0.627307v 23.5389h 0.627307v 11.5079h 0.627307v 5.75396h 0.627307v -3.13852h 0.627307v 5.75396h 0.627307v -0.523087h 0.627307v -4.70779h 0.627307v
 6.80014h 0.627307v 1.56926h 1.25461v -5.75396h 0.627307v -1.56926h 0.627307v 10.4617h 0.627307v -4.70779h 0.627307v 5.23087h 0.627307v -6.80014h 0.627307v 7.32322h 0.627307v 1.04617h 0.627307v -6.27705h 0.627307v -8.89248h 0.627307v 5.23087h
 0.627307v 5.23087h 0.627307v 3.66161h 0.627307v -7.84631h 0.627307v 3.13852h 0.627307v 2.09235h 0.627307v -6.27705h 0.627307v -3.13852h 0.627307v 3.13852h 0.627307v 6.27705h 0.627307v -1.56926h 0.627307v -0.523087h 0.627307v 3.66161h 0.627307v
 7.32322h 0.627307v 2.61544h 0.627307v 5.23087h 0.627307v -0.523087h 0.627307v 2.09235h 0.627307" fill="none" stroke="#000099"/>
<path d="M57.1929,346.022h 453.543" fill="none" stroke="black"/>
<path d="M57.8202,336.795v 9.22726" fill="none" stroke="black"/>
<path d="M78.7305,341.409v 4.61363" fill="none" stroke="black"/>
<path d="M99.6407,341.409v 4.61363" fill="none" stroke="black"/>
<path d="M120.551,341.409v 4.61363" fill="none" stroke="black"/>
<path d="M141.461,341.409v 4.61363" fill="none" stroke="black"/>
<path d="M162.371,336.795v 9.22726" fill="none" stroke="black"/>
<path d="M183.282,341.409v 4.61363" fill="none" stroke="black"/>
<path d="M204.192,341.409v 4.61363" fill="none" stroke="black"/>
<path d="M225.102,341.409v 4.61363" fill="none" stroke="black"/>
<path d="M246.012,341.409v 4.61363" fill="none" stroke="black"/>
<path d="M266.923,336.795v 9.22726" fill="none" stroke="black"/>
<path d="M287.833,341.409v 4.61363" fill="none" stroke="black"/>
<path d="M308.743,341.409v 4.61363" fill="none" stroke="black"/>
<path d="M329.653,341.409v 4.61363" fill="none" stroke="black"/>
<path d="M350.564,341.409v 4.61363" fill="none" stroke="black"/>
<path d="M371.474,336.795v 9.22726" fill="none" stroke="black"/>
<path d="M392.384,341.409v 4.61363" fill="none" stroke="black"/>
<path d="M413.294,341.409v 4.61363" fill="none" stroke="black"/>
<path d="M434.205,341.409v 4.61363" fill="none" stroke="black"/>
<path d="M455.115,341.409v 4.61363" fill="none" stroke="black"/>
<path d="M476.025,336.795v 9.22726" fill="none" stroke="black"/>
<path d="M57.8202,336.795v 9.22726" fill="none" stroke="black"/>
<path d="M476.025,336.795v 9.22726" fill="none" stroke="black"/>
<path d="M496.935,341.409v 4.61363" fill="none" stroke="black"/>
<text xml:space="preserve" x="54.2605" y="358.403" fill="black" font-size="12.8453" font-family="Helvetica">0</text>
<text xml:space="preserve" x="151.192" y="358.403" fill="black" font-size="12.8453" font-family="Helvetica">500</text>
<text xml:space="preserve" x="253.012" y="358.403" fill="black" font-size="12.8453" font-family="Helvetica">1000</text>
<text xml:space="preserve" x="357.274" y="358.403" fill="black" font-size="12.8453" font-family="Helvetica">1500</text>
<text xml:space="preserve" x="461.537" y="358.403" fill="black" font-size="12.8453" font-family="Helvetica">2000</text>
<text xml:space="preserve" x="451.763" y="372.251" fill="black" font-size="12.8453" font-family="Helvetica">ADC value</text>
<path d="M57.1929,346.022v -307.575" fill="none" stroke="black"/>
<path d="M70.7992,346.022h -13.6063" fill="none" stroke="black"/>
<path d="M63.9961,335.561h -6.80315" fill="none" stroke="black"/>
<path d="M63.9961,325.099h -6.80315" fill="none" stroke="black"/>
<path d="M63.9961,314.637h -6.80315" fill="none" stroke="black"/>
<path d="M63.9961,304.175h -6.80315" fill="none" stroke="black"/>
<path d="M70.7992,293.714h -13.6063" fill="none" stroke="black"/>
<path d="M63.9961,283.252h -6.80315" fill="none" stroke="black"/>
<path d="M63.9961,272.79h -6.80315" fill="none" stroke="black"/>
<path d="M63.9961,262.328h -6.80315" fill="none" stroke="black"/>
<path d="M63.9961,251.867h -6.80315" fill="none" stroke="black"/>
<path d="M70.7992,241.405h -13.6063" fill="none" stroke="black"/>
<path d="M63.9961,230.943h -6.80315" fill="none" stroke="black"/>
<path d="M63.9961,220.481h -6.80315" fill="none" stroke="black"/>
<path d="M63.9961,210.02h -6.80315" fill="none" stroke="black"/>
<path d="M63.9961,199.558h -6.80315" fill="none" stroke="black"/>
<path d="M70.7992,189.096h -13.6063" fill="none" stroke="black"/>
<path d="M63.9961,178.634h -6.80315" fill="none" stroke="black"/>
<path d="M63.9961,168.173h -6.80315" fill="none" stroke="black"/>
<path d="M63.9961,157.711h -6.80315" fill="none" stroke="black"/>
<path d="M63.9961,147.249h -6.80315" fill="none" stroke="black"/>
<path d="M70.7992,136.787h -13.6063" fill="none" stroke="black"/>
<path d="M63.9961,126.326h -6.80315" fill="none" stroke="black"/>
<path d="M63.9961,115.864h -6.80315" fill="none" stroke="black"/>
<path d="M63.9961,105.402h -6.80315" fill="none" stroke="black"/>
<path d="M63.9961,94.9403h -6.80315" fill="none" stroke="black"/>
<path d="M70.7992,84.4786h -13.6063" fill="none" stroke="black"/>
<path d="M70.7992,84.4786h -13.6063" fill="none" stroke="black"/>
<path d="M63.9961,74.0169h -6.80315" fill="none" stroke="black"/>
<path d="M63.9961,63.5551h -6.80315" fill="none" stroke="black"/>
<path d="M63.9961,53.0934h -6.80315" fill="none" stroke="black"/>
<path d="M63.9961,42.6316h -6.80315" fill="none" stroke="black"/>
<text xml:space="preserve" x="47.7441" y="350.258" fill="black" font-size="12.8453" font-family="Helvetica">0</text>
<text xml:space="preserve" x="33.8967" y="298.127" fill="black" font-size="12.8453" font-family="Helvetica">100</text>
<text xml:space="preserve" x="33.8967" y="245.995" fill="black" font-size="12.8453" font-family="Helvetica">200</text>
<text xml:space="preserve" x="33.8967" y="193.864" fill="black" font-size="12.8453" font-family="Helvetica">300</text>
<text xml:space="preserve" x="33.8967" y="140.918" fill="black" font-size="12.8453" font-family="Helvetica">400</text>
<text xml:space="preserve" x="33.8967" y="88.7863" fill="black" font-size="12.8453" font-family="Helvetica">500</text>
<g transform="rotate(-90,20.8638,70.0516)">
<text xml:space="preserve" x="20.8638" y="70.0516" fill="black" font-size="12.8453" font-family="Helvetica">Event</text>
</g>
<text xml:space="preserve" x="253.012" y="18.7347" fill="black" font-size="18.0316" font-family="Helvetica">Cs_012</text>
<rect x="442.705" y="24.9905" width="113.386" height="61.5151" fill="white"/>
<path d="M442.705,86.5056h 113.386" fill="none" stroke="black"/>
<path d="M556.091,86.5056v -61.5151" fill="none" stroke="black"/>
<path d="M556.091,24.9905h -113.386" fill="none" stroke="black"/>
<path d="M442.705,24.9905v 61.5151" fill="none" stroke="black"/>
<text xml:space="preserve" x="476.199" y="36.6549" fill="black" font-size="13.4802" font-family="Helvetica">Cs_012</text>
<path d="M442.705,40.3693h 113.386" fill="none" stroke="black"/>
<text xml:space="preserve" x="447.69" y="52.946" fill="black" font-size="13.0654" font-family="Helvetica">Entries </text>
<text xml:space="preserve" x="517.741" y="52.946" fill="black" font-size="13.0654" font-family="Helvetica"> 6327</text>
<text xml:space="preserve" x="447.69" y="67.6079" fill="black" font-size="13.0654" font-family="Helvetica">Mean  </text>
<text xml:space="preserve" x="510.41" y="67.6079" fill="black" font-size="13.0654" font-family="Helvetica">   1630</text>
<text xml:space="preserve" x="447.69" y="83.0844" fill="black" font-size="13.0654" font-family="Helvetica">Std Dev   </text>
<text xml:space="preserve" x="510.41" y="83.0844" fill="black" font-size="13.0654" font-family="Helvetica">  669.5</text>
<text xml:space="preserve" x="253.012" y="18.7347" fill="black" font-size="18.0316" font-family="Helvetica">Cs_012</text></svg>
