<?xml version="1.0" standalone="no"?>
<svg width="567.429" height="384.68" viewBox="0 0 567.429 384.68" xmlns="http://www.w3.org/2000/svg" shape-rendering="crispEdges">
<title>
img/week1/plane_hist/Cs_010.svg
</title>
<desc>
Creator: ROOT Version 6.22/09
CreationDate: Tue Jul 13 18:36:50 2021</desc>
<defs>
</defs>
<rect x="0.5" y="0" width="566.929" height="384.18" fill="white"/>
<rect x="57.1929" y="38.418" width="453.543" height="307.344" fill="white"/>
<rect x="57.1929" y="38.418" width="453.543" height="307.344" fill="none" stroke="black"/>
<path d="M57.1929,345.762h 45.8569v -13.142h 0.628176v -111.11h 0.628176v -136.199h 0.628176v -32.2577h 0.628176v 71.6837h 0.628176v 66.9048h 0.628176v -9.55783h 0.628176v 32.2577h 0.628176v 10.7526h 0.628176v 34.6471h 0.628176v 15.5315h 0.628176v
 -11.9473h 0.628176v 25.0893h 0.628176v 22.6998h 0.628176v -7.16837h 0.628176v 25.0893h 0.628176v -9.55783h 1.25635v 14.3367h 0.628176v -8.3631h 0.628176v 9.55783h 0.628176v 4.77891h 0.628176v -2.38946h 0.628176v 3.58418h 1.25635v -1.19473h 0.628176v
 1.19473h 0.628176v 3.58418h 0.628176v 1.19473h 0.628176v -4.77891h 0.628176v 4.77891h 0.628176v -3.58418h 0.628176v 2.38946h 1.25635v 1.19473h 0.628176v -1.19473h 1.25635v 1.19473h 1.88453v -2.38946h 0.628176v 2.38946h 1.25635v -1.19473h 1.88453v
 1.19473h 1.25635v -1.19473h 1.25635v 1.19473h 3.76906v -1.19473h 0.628176v 1.19473h 0.628176v -1.19473h 0.628176v -1.19473h 0.628176v 1.19473h 2.51271v 1.19473h 1.25635v -3.58418h 0.628176v 2.38946h 1.88453v 1.19473h 0.628176v -1.19473h 0.628176v
 1.19473h 2.51271v -1.19473h 0.628176v 1.19473h 0.628176v -1.19473h 0.628176v 1.19473h 1.25635v -1.19473h 2.51271v 1.19473h 0.628176v -1.19473h 0.628176v 1.19473h 1.88453v -2.38946h 0.628176v 1.19473h 0.628176v 1.19473h 2.51271v -2.38946h 0.628176v
 1.19473h 0.628176v 1.19473h 0.628176v -1.19473h 0.628176v 1.19473h 0.628176v -1.19473h 1.25635v 1.19473h 0.628176v -2.38946h 1.25635v 1.19473h 0.628176v 1.19473h 0.628176v -1.19473h 0.628176v 1.19473h 2.51271v -1.19473h 1.25635v -1.19473h 0.628176v
 1.19473h 0.628176v 1.19473h 2.51271v -1.19473h 0.628176v 1.19473h 1.25635v -1.19473h 0.628176v 1.19473h 0.628176v -1.19473h 3.14088v 1.19473h 1.88453v -1.19473h 0.628176v 1.19473h 1.25635v -2.38946h 0.628176v 2.38946h 0.628176v -1.19473h 0.628176v
 -2.38946h 0.628176v 3.58418h 1.25635v -1.19473h 0.628176v 1.19473h 2.51271v -1.19473h 1.25635v 1.19473h 1.25635v -1.19473h 0.628176v -1.19473h 1.25635v 2.38946h 0.628176v -1.19473h 0.628176v 1.19473h 0.628176v -1.19473h 0.628176v 1.19473h 0.628176v
 -1.19473h 0.628176v -1.19473h 0.628176v 2.38946h 1.25635v -1.19473h 0.628176v 1.19473h 0.628176v -1.19473h 0.628176v 1.19473h 1.25635v -2.38946h 0.628176v 2.38946h 0.628176v -1.19473h 1.25635v 1.19473h 0.628176v -1.19473h 0.628176v -1.19473h
 1.88453v 1.19473h 0.628176v 1.19473h 1.88453v -1.19473h 1.25635v 1.19473h 0.628176v -1.19473h 1.25635v -1.19473h 0.628176v 2.38946h 0.628176v -3.58418h 0.628176v 3.58418h 1.88453v -1.19473h 0.628176v 1.19473h 0.628176v -1.19473h 1.25635v 1.19473h
 1.25635v -2.38946h 0.628176v 2.38946h 1.88453v -1.19473h 0.628176v 1.19473h 1.88453v -1.19473h 0.628176v -1.19473h 0.628176v 1.19473h 0.628176v -1.19473h 0.628176v 1.19473h 1.25635v 1.19473h 0.628176v -1.19473h 0.628176v 1.19473h 1.25635v -2.38946h
 0.628176v 2.38946h 0.628176v -1.19473h 1.25635v 1.19473h 1.25635v -3.58418h 0.628176v 1.19473h 0.628176v 2.38946h 3.76906v -1.19473h 1.25635v 1.19473h 2.51271v -1.19473h 1.25635v 1.19473h 1.25635v -1.19473h 1.25635v 1.19473h 0.628176v -1.19473h
 1.88453v 1.19473h 0.628176v -3.58418h 0.628176v 3.58418h 1.88453v -1.19473h 1.25635v -2.38946h 0.628176v 3.58418h 1.25635v -1.19473h 1.25635v 1.19473h 1.25635v -2.38946h 0.628176v 2.38946h 0.628176v -1.19473h 0.628176v -3.58418h 0.628176v 3.58418h
 0.628176v -2.38946h 0.628176v 2.38946h 0.628176v 1.19473h 0.628176v -1.19473h 0.628176v 1.19473h 0.628176v -2.38946h 1.25635v 2.38946h 0.628176v -1.19473h 1.88453v 1.19473h 0.628176v -2.38946h 1.25635v 2.38946h 1.25635v -3.58418h 1.25635v 3.58418h
 0.628176v -1.19473h 0.628176v 1.19473h 0.628176v -1.19473h 0.628176v -1.19473h 0.628176v 1.19473h 1.88453v 1.19473h 0.628176v -1.19473h 1.25635v 1.19473h 1.25635v -1.19473h 0.628176v 1.19473h 0.628176v -2.38946h 1.25635v 2.38946h 0.628176v -1.19473h
 0.628176v -1.19473h 0.628176v -1.19473h 0.628176v 2.38946h 0.628176v -1.19473h 0.628176v 2.38946h 3.76906v -1.19473h 1.25635v 1.19473h 1.25635v -1.19473h 0.628176v 1.19473h 0.628176v -1.19473h 0.628176v 1.19473h 0.628176v -2.38946h 0.628176v
 2.38946h 6.90994v -1.19473h 1.25635v -1.19473h 0.628176v 1.19473h 1.25635v 1.19473h 4.39723v -1.19473h 1.25635v 1.19473h 1.25635v -1.19473h 1.25635v 1.19473h 0.628176v -1.19473h 1.88453v 1.19473h 0.628176v -2.38946h 0.628176v 2.38946h 0.628176v
 -1.19473h 1.88453v 1.19473h 0.628176v -2.38946h 0.628176v 2.38946h 3.14088v -1.19473h 1.25635v -1.19473h 0.628176v 2.38946h 1.25635v -2.38946h 0.628176v -1.19473h 0.628176v -1.19473h 0.628176v 2.38946h 0.628176v 2.38946h 0.628176v -2.38946h
 0.628176v 2.38946h 1.25635v -1.19473h 0.628176v 1.19473h 1.88453v -1.19473h 1.25635v 1.19473h 0.628176v -2.38946h 1.88453v 1.19473h 1.25635v -1.19473h 1.25635v 2.38946h 0.628176v -1.19473h 1.88453v -2.38946h 0.628176v 3.58418h 1.25635v -2.38946h
 0.628176v -1.19473h 0.628176v 3.58418h 1.25635v -2.38946h 0.628176v 2.38946h 0.628176v -1.19473h 1.25635v -2.38946h 0.628176v 1.19473h 0.628176v 1.19473h 0.628176v -1.19473h 0.628176v -3.58418h 0.628176v 2.38946h 0.628176v -1.19473h 0.628176v
 2.38946h 0.628176v -1.19473h 1.25635v -1.19473h 0.628176v 1.19473h 1.25635v 1.19473h 0.628176v -1.19473h 0.628176v 2.38946h 0.628176v -2.38946h 0.628176v 1.19473h 0.628176v -1.19473h 0.628176v -1.19473h 0.628176v -1.19473h 0.628176v 2.38946h
 0.628176v -1.19473h 0.628176v -1.19473h 0.628176v 3.58418h 0.628176v -4.77891h 0.628176v 7.16837h 0.628176v -3.58418h 0.628176v 3.58418h 0.628176v -8.3631h 0.628176v 2.38946h 0.628176v -1.19473h 0.628176v 5.97364h 0.628176v -3.58418h 0.628176v
 -1.19473h 0.628176v 2.38946h 0.628176v -2.38946h 0.628176v 4.77891h 0.628176v -2.38946h 0.628176v -2.38946h 0.628176v 4.77891h 0.628176v -1.19473h 0.628176v -1.19473h 0.628176v -7.16837h 0.628176v 5.97364h 0.628176v 1.19473h 0.628176v 2.38946h
 0.628176v -3.58418h 0.628176v 2.38946h 0.628176v -4.77891h 0.628176v 5.97364h 1.25635v -2.38946h 0.628176v -2.38946h 0.628176v 1.19473h 0.628176v -1.19473h 0.628176v 2.38946h 0.628176v 2.38946h 1.25635v 1.19473h 1.25635v -3.58418h 0.628176v 3.58418h
 0.628176v -3.58418h 0.628176v 2.38946h 0.628176v -2.38946h 1.25635v 2.38946h 0.628176v -1.19473h 1.25635v 2.38946h 0.628176v -2.38946h 1.25635v 1.19473h 4.39723v 1.19473h 0.628176v -1.19473h 0.628176v 1.19473h 1.25635v -1.19473h 0.628176v 1.19473h
 0.628176v -2.38946h 0.628176v 2.38946h 0.628176v -1.19473h 0.628176v -2.38946h 0.628176v 3.58418h 0.628176v -3.58418h 0.628176v 1.19473h 0.628176v 1.19473h 0.628176v -3.58418h 0.628176v 1.19473h 0.628176v 3.58418h 1.25635v -2.38946h 0.628176v
 -2.38946h 0.628176v 3.58418h 1.25635v 1.19473h 0.628176v -2.38946h 0.628176v 1.19473h 2.51271v 1.19473h 0.628176v -3.58418h 0.628176v 2.38946h 0.628176v 1.19473h 0.628176v -1.19473h 0.628176v 1.19473h 0.628176v -5.97364h 0.628176v 5.97364h 1.25635v
 -1.19473h 1.25635v 1.19473h 1.25635v -1.19473h 1.25635v 1.19473h 0.628176v -1.19473h 0.628176v 1.19473h 2.51271v -2.38946h 0.628176v 2.38946h 3.14088v -1.19473h 1.25635v 1.19473h 2.51271v -1.19473h 0.628176v 1.19473h 3.76906v -1.19473h 0.628176v
 1.19473h 1.25635v -1.19473h 0.628176v -1.19473h 0.628176v 2.38946h 0.628176v -1.19473h 0.628176v 1.19473h 1.25635v -1.19473h 0.628176v 1.19473h 1.88453v -1.19473h 0.628176v 1.19473h 0.628176v -1.19473h 1.25635v 1.19473h 0.628176v -1.19473h 0.628176v
 -1.19473h 0.628176v 1.19473h 1.25635v 1.19473h 1.88453v -1.19473h 0.628176v 1.19473h 1.25635v -1.19473h 0.628176v -1.19473h 0.628176v 1.19473h 1.25635v 1.19473h 0.628176v -1.19473h 0.628176v 1.19473h 1.88453v -1.19473h 0.628176v 1.19473h 4.39723v
 -1.19473h 1.25635v -10.7526h 0.628176v -80.0468h 0.628176v -2.38946h 0.628176v 26.284h 0.628176v -9.55783h 0.628176v -1.19473h 0.628176v 37.0366h 0.628176v 7.16837h 0.628176v 10.7526h 0.628176v 7.16837h 0.628176v -4.77891h 0.628176v 3.58418h
 0.628176v 3.58418h 1.25635v 5.97364h 0.628176v -10.7526h 0.628176v 7.16837h 1.25635v -7.16837h 0.628176v 3.58418h 0.628176v -3.58418h 0.628176v 7.16837h 0.628176v 7.16837h 0.628176v -3.58418h 0.628176v -4.77891h 0.628176v 1.19473h 0.628176v
 -5.97364h 0.628176v 1.19473h 0.628176v 5.97364h 0.628176v -4.77891h 0.628176v 5.97364h 0.628176v -1.19473h 0.628176v -1.19473h 0.628176v -2.38946h 0.628176v 9.55783h 0.628176v -5.97364h 1.25635v 7.16837h 0.628176v -3.58418h 0.628176v 1.19473h
 1.25635v 3.58418h 1.25635v 1.19473h 0.628176" fill="none" stroke="#000099"/>
<path d="M57.1929,345.762h 453.543" fill="none" stroke="black"/>
<path d="M57.8211,336.541v 9.22031" fill="none" stroke="black"/>
<path d="M78.7603,341.152v 4.61016" fill="none" stroke="black"/>
<path d="M99.6995,341.152v 4.61016" fill="none" stroke="black"/>
<path d="M120.639,341.152v 4.61016" fill="none" stroke="black"/>
<path d="M141.578,341.152v 4.61016" fill="none" stroke="black"/>
<path d="M162.517,336.541v 9.22031" fill="none" stroke="black"/>
<path d="M183.456,341.152v 4.61016" fill="none" stroke="black"/>
<path d="M204.396,341.152v 4.61016" fill="none" stroke="black"/>
<path d="M225.335,341.152v 4.61016" fill="none" stroke="black"/>
<path d="M246.274,341.152v 4.61016" fill="none" stroke="black"/>
<path d="M267.213,336.541v 9.22031" fill="none" stroke="black"/>
<path d="M288.152,341.152v 4.61016" fill="none" stroke="black"/>
<path d="M309.092,341.152v 4.61016" fill="none" stroke="black"/>
<path d="M330.031,341.152v 4.61016" fill="none" stroke="black"/>
<path d="M350.97,341.152v 4.61016" fill="none" stroke="black"/>
<path d="M371.909,336.541v 9.22031" fill="none" stroke="black"/>
<path d="M392.848,341.152v 4.61016" fill="none" stroke="black"/>
<path d="M413.788,341.152v 4.61016" fill="none" stroke="black"/>
<path d="M434.727,341.152v 4.61016" fill="none" stroke="black"/>
<path d="M455.666,341.152v 4.61016" fill="none" stroke="black"/>
<path d="M476.605,336.541v 9.22031" fill="none" stroke="black"/>
<path d="M57.8211,336.541v 9.22031" fill="none" stroke="black"/>
<path d="M476.605,336.541v 9.22031" fill="none" stroke="black"/>
<path d="M497.545,341.152v 4.61016" fill="none" stroke="black"/>
<text xml:space="preserve" x="54.1065" y="358.189" fill="black" font-size="12.836" font-family="Helvetica">0</text>
<text xml:space="preserve" x="151.573" y="358.189" fill="black" font-size="12.836" font-family="Helvetica">500</text>
<text xml:space="preserve" x="253.1" y="358.189" fill="black" font-size="12.836" font-family="Helvetica">1000</text>
<text xml:space="preserve" x="357.877" y="358.189" fill="black" font-size="12.836" font-family="Helvetica">1500</text>
<text xml:space="preserve" x="462.653" y="358.189" fill="black" font-size="12.836" font-family="Helvetica">2000</text>
<text xml:space="preserve" x="452.094" y="371.996" fill="black" font-size="12.836" font-family="Helvetica">ADC value</text>
<path d="M57.1929,345.762v -307.344" fill="none" stroke="black"/>
<path d="M70.7992,345.762h -13.6063" fill="none" stroke="black"/>
<path d="M63.9961,333.815h -6.80315" fill="none" stroke="black"/>
<path d="M63.9961,321.867h -6.80315" fill="none" stroke="black"/>
<path d="M63.9961,309.92h -6.80315" fill="none" stroke="black"/>
<path d="M63.9961,297.973h -6.80315" fill="none" stroke="black"/>
<path d="M70.7992,286.025h -13.6063" fill="none" stroke="black"/>
<path d="M63.9961,274.078h -6.80315" fill="none" stroke="black"/>
<path d="M63.9961,262.131h -6.80315" fill="none" stroke="black"/>
<path d="M63.9961,250.184h -6.80315" fill="none" stroke="black"/>
<path d="M63.9961,238.236h -6.80315" fill="none" stroke="black"/>
<path d="M70.7992,226.289h -13.6063" fill="none" stroke="black"/>
<path d="M63.9961,214.342h -6.80315" fill="none" stroke="black"/>
<path d="M63.9961,202.394h -6.80315" fill="none" stroke="black"/>
<path d="M63.9961,190.447h -6.80315" fill="none" stroke="black"/>
<path d="M63.9961,178.5h -6.80315" fill="none" stroke="black"/>
<path d="M70.7992,166.553h -13.6063" fill="none" stroke="black"/>
<path d="M63.9961,154.605h -6.80315" fill="none" stroke="black"/>
<path d="M63.9961,142.658h -6.80315" fill="none" stroke="black"/>
<path d="M63.9961,130.711h -6.80315" fill="none" stroke="black"/>
<path d="M63.9961,118.763h -6.80315" fill="none" stroke="black"/>
<path d="M70.7992,106.816h -13.6063" fill="none" stroke="black"/>
<path d="M63.9961,94.8689h -6.80315" fill="none" stroke="black"/>
<path d="M63.9961,82.9216h -6.80315" fill="none" stroke="black"/>
<path d="M63.9961,70.9743h -6.80315" fill="none" stroke="black"/>
<path d="M63.9961,59.027h -6.80315" fill="none" stroke="black"/>
<path d="M70.7992,47.0798h -13.6063" fill="none" stroke="black"/>
<path d="M70.7992,47.0798h -13.6063" fill="none" stroke="black"/>
<text xml:space="preserve" x="47.6087" y="350.067" fill="black" font-size="12.836" font-family="Helvetica">0</text>
<text xml:space="preserve" x="41.111" y="290.775" fill="black" font-size="12.836" font-family="Helvetica">50</text>
<text xml:space="preserve" x="33.801" y="230.67" fill="black" font-size="12.836" font-family="Helvetica">100</text>
<text xml:space="preserve" x="33.801" y="171.378" fill="black" font-size="12.836" font-family="Helvetica">150</text>
<text xml:space="preserve" x="33.801" y="111.274" fill="black" font-size="12.836" font-family="Helvetica">200</text>
<text xml:space="preserve" x="33.801" y="51.1698" fill="black" font-size="12.836" font-family="Helvetica">250</text>
<g transform="rotate(-90,20.8055,69.8509)">
<text xml:space="preserve" x="20.8055" y="69.8509" fill="black" font-size="12.836" font-family="Helvetica">Event</text>
</g>
<text xml:space="preserve" x="253.1" y="18.681" fill="black" font-size="17.9813" font-family="Helvetica">Cs_010</text>
<rect x="442.705" y="24.9717" width="113.386" height="61.4688" fill="white"/>
<path d="M442.705,86.4405h 113.386" fill="none" stroke="black"/>
<path d="M556.091,86.4405v -61.4688" fill="none" stroke="black"/>
<path d="M556.091,24.9717h -113.386" fill="none" stroke="black"/>
<path d="M442.705,24.9717v 61.4688" fill="none" stroke="black"/>
<text xml:space="preserve" x="476.461" y="36.5499" fill="black" font-size="13.4705" font-family="Helvetica">Cs_010</text>
<path d="M442.705,40.3389h 113.386" fill="none" stroke="black"/>
<text xml:space="preserve" x="448.033" y="52.7943" fill="black" font-size="13.0884" font-family="Helvetica">Entries </text>
<text xml:space="preserve" x="517.884" y="52.7943" fill="black" font-size="13.0884" font-family="Helvetica"> 3026</text>
<text xml:space="preserve" x="448.033" y="68.2264" fill="black" font-size="13.0884" font-family="Helvetica">Mean  </text>
<text xml:space="preserve" x="513.01" y="68.2264" fill="black" font-size="13.0884" font-family="Helvetica">  903.1</text>
<text xml:space="preserve" x="448.033" y="82.8464" fill="black" font-size="13.0884" font-family="Helvetica">Std Dev   </text>
<text xml:space="preserve" x="510.574" y="82.8464" fill="black" font-size="13.0884" font-family="Helvetica">  810.5</text>
<text xml:space="preserve" x="253.1" y="18.681" fill="black" font-size="17.9813" font-family="Helvetica">Cs_010</text></svg>
