<?xml version="1.0" standalone="no"?>
<svg width="567.429" height="384.969" viewBox="0 0 567.429 384.969" xmlns="http://www.w3.org/2000/svg" shape-rendering="crispEdges">
<title>
img/week1/plane_hist/Cs_010.svg
</title>
<desc>
Creator: ROOT Version 6.22/09
CreationDate: Thu Jul  8 17:31:51 2021</desc>
<defs>
</defs>
<rect x="0.5" y="0" width="566.929" height="384.469" fill="white"/>
<rect x="57.1929" y="38.4469" width="453.543" height="307.575" fill="white"/>
<rect x="57.1929" y="38.4469" width="453.543" height="307.575" fill="none" stroke="black"/>
<path d="M57.1929,346.022h 45.8012v -4.16487h 0.558551v -18.0478h 0.558551v -63.8613h 0.558551v -115.228h 0.558551v -91.627h 0.558551v 41.6487h 0.558551v -5.55315h 0.558551v 83.2973h 0.558551v 16.6595h 0.558551v 18.0478h 0.558551v 8.32973h 0.558551v
 30.5423h 0.558551v 15.2712h 0.558551v 2.77658h 0.558551v 16.6595h 0.558551v 27.7658h 0.558551v -1.38829h 0.558551v 5.55315h 0.558551v 5.55315h 0.558551v 9.71802h 0.558551v 5.55315h 0.558551v -2.77658h 0.558551v -6.94144h 0.558551v 13.8829h 0.558551v
 -4.16487h 0.558551v 5.55315h 0.558551v 2.77658h 0.558551v 1.38829h 0.558551v 1.38829h 0.558551v -1.38829h 0.558551v 2.77658h 0.558551v -4.16487h 0.558551v 2.77658h 0.558551v -1.38829h 0.558551v 1.38829h 0.558551v -1.38829h 0.558551v 2.77658h
 0.558551v -1.38829h 0.558551v 1.38829h 0.558551v -1.38829h 0.558551v 1.38829h 1.67565v -1.38829h 0.558551v 1.38829h 0.558551v -1.38829h 1.1171v -1.38829h 0.558551v 2.77658h 1.1171v -1.38829h 1.1171v 1.38829h 3.35131v -1.38829h 0.558551v 1.38829h
 0.558551v -2.77658h 0.558551v 1.38829h 0.558551v -1.38829h 1.1171v 2.77658h 1.67565v -4.16487h 0.558551v 2.77658h 1.1171v 1.38829h 0.558551v -1.38829h 0.558551v 1.38829h 0.558551v -1.38829h 0.558551v 1.38829h 1.67565v -1.38829h 1.67565v 1.38829h
 0.558551v -1.38829h 0.558551v 1.38829h 1.1171v -4.16487h 0.558551v 4.16487h 0.558551v -1.38829h 1.1171v 1.38829h 1.67565v -1.38829h 0.558551v 1.38829h 0.558551v -1.38829h 1.1171v 1.38829h 0.558551v -2.77658h 0.558551v 2.77658h 0.558551v -1.38829h
 0.558551v 1.38829h 0.558551v -1.38829h 0.558551v 1.38829h 0.558551v -1.38829h 0.558551v 1.38829h 0.558551v -1.38829h 1.1171v -2.77658h 0.558551v 2.77658h 0.558551v 1.38829h 0.558551v -2.77658h 0.558551v 2.77658h 1.67565v -1.38829h 0.558551v 1.38829h
 0.558551v -1.38829h 0.558551v 1.38829h 0.558551v -2.77658h 0.558551v 2.77658h 0.558551v -1.38829h 0.558551v 1.38829h 1.67565v -1.38829h 1.1171v 1.38829h 1.1171v -1.38829h 1.1171v 1.38829h 0.558551v -1.38829h 1.1171v 1.38829h 0.558551v -1.38829h
 0.558551v 1.38829h 1.67565v -1.38829h 1.67565v -1.38829h 0.558551v 1.38829h 1.67565v 1.38829h 2.79275v -1.38829h 1.1171v 1.38829h 1.67565v -1.38829h 1.1171v -1.38829h 1.1171v 2.77658h 0.558551v -1.38829h 0.558551v 1.38829h 1.1171v -1.38829h
 0.558551v -1.38829h 0.558551v 2.77658h 0.558551v -1.38829h 1.1171v 1.38829h 2.2342v -2.77658h 0.558551v 1.38829h 0.558551v 1.38829h 1.67565v -2.77658h 0.558551v -2.77658h 0.558551v 5.55315h 0.558551v -1.38829h 1.67565v 1.38829h 1.67565v -1.38829h
 0.558551v 1.38829h 0.558551v -1.38829h 0.558551v -2.77658h 0.558551v 1.38829h 0.558551v 2.77658h 1.1171v -1.38829h 0.558551v 1.38829h 0.558551v -1.38829h 0.558551v 1.38829h 0.558551v -1.38829h 0.558551v 1.38829h 1.1171v -1.38829h 0.558551v 1.38829h
 0.558551v -1.38829h 1.1171v 1.38829h 1.67565v -1.38829h 0.558551v 1.38829h 1.1171v -2.77658h 0.558551v 1.38829h 0.558551v 1.38829h 0.558551v -2.77658h 0.558551v -1.38829h 0.558551v 2.77658h 0.558551v 1.38829h 1.1171v -2.77658h 0.558551v 2.77658h
 1.67565v -2.77658h 0.558551v 2.77658h 1.1171v -4.16487h 0.558551v 2.77658h 1.1171v 1.38829h 2.79275v -1.38829h 0.558551v 1.38829h 1.1171v -1.38829h 0.558551v 1.38829h 1.1171v -1.38829h 1.1171v 1.38829h 1.67565v -1.38829h 2.2342v 1.38829h 0.558551v
 -2.77658h 0.558551v 2.77658h 0.558551v -1.38829h 1.67565v 1.38829h 1.1171v -1.38829h 0.558551v -1.38829h 0.558551v 1.38829h 1.1171v 1.38829h 1.1171v -1.38829h 1.1171v 1.38829h 0.558551v -1.38829h 1.1171v -4.16487h 0.558551v 1.38829h 0.558551v
 2.77658h 0.558551v 1.38829h 1.1171v -2.77658h 0.558551v 1.38829h 3.35131v 1.38829h 0.558551v -2.77658h 0.558551v 1.38829h 0.558551v -1.38829h 0.558551v 1.38829h 0.558551v -2.77658h 0.558551v 4.16487h 0.558551v -4.16487h 0.558551v 4.16487h 0.558551v
 -1.38829h 1.67565v -1.38829h 0.558551v 1.38829h 1.1171v 1.38829h 1.1171v -1.38829h 0.558551v 1.38829h 1.1171v -2.77658h 0.558551v 2.77658h 0.558551v -1.38829h 0.558551v -1.38829h 0.558551v 2.77658h 1.1171v -2.77658h 0.558551v -1.38829h 0.558551v
 -1.38829h 0.558551v 5.55315h 1.67565v -1.38829h 0.558551v 1.38829h 1.1171v -1.38829h 0.558551v 1.38829h 1.1171v -1.38829h 0.558551v -1.38829h 0.558551v 2.77658h 1.67565v -2.77658h 0.558551v 1.38829h 0.558551v 1.38829h 0.558551v -1.38829h 0.558551v
 1.38829h 5.02696v -1.38829h 0.558551v 1.38829h 0.558551v -1.38829h 0.558551v -1.38829h 0.558551v 2.77658h 0.558551v -1.38829h 1.1171v 1.38829h 2.79275v -1.38829h 0.558551v 1.38829h 0.558551v -1.38829h 0.558551v 1.38829h 1.67565v -1.38829h 1.67565v
 -1.38829h 0.558551v 2.77658h 1.1171v -1.38829h 0.558551v 1.38829h 0.558551v -2.77658h 0.558551v 1.38829h 0.558551v -1.38829h 0.558551v 2.77658h 2.79275v -1.38829h 0.558551v 1.38829h 0.558551v -1.38829h 2.2342v 1.38829h 0.558551v -1.38829h 0.558551v
 -4.16487h 0.558551v 4.16487h 0.558551v -2.77658h 0.558551v 4.16487h 0.558551v -2.77658h 0.558551v 2.77658h 1.1171v -1.38829h 0.558551v 1.38829h 1.1171v -1.38829h 0.558551v 1.38829h 0.558551v -2.77658h 0.558551v 1.38829h 1.67565v -1.38829h 0.558551v
 2.77658h 0.558551v -4.16487h 0.558551v 4.16487h 0.558551v -1.38829h 0.558551v -2.77658h 1.1171v 4.16487h 1.1171v -4.16487h 0.558551v 4.16487h 0.558551v -2.77658h 0.558551v 1.38829h 0.558551v -1.38829h 0.558551v 2.77658h 0.558551v -1.38829h 1.1171v
 1.38829h 0.558551v -1.38829h 0.558551v -2.77658h 0.558551v 1.38829h 0.558551v 1.38829h 0.558551v -1.38829h 0.558551v -1.38829h 0.558551v 1.38829h 0.558551v -2.77658h 1.1171v 2.77658h 0.558551v -2.77658h 0.558551v 1.38829h 0.558551v 1.38829h
 0.558551v -2.77658h 0.558551v 4.16487h 0.558551v -5.55315h 0.558551v 2.77658h 0.558551v 2.77658h 0.558551v -2.77658h 0.558551v 1.38829h 1.1171v -2.77658h 1.67565v -1.38829h 0.558551v -1.38829h 0.558551v 6.94144h 1.1171v -1.38829h 0.558551v -1.38829h
 0.558551v -6.94144h 0.558551v 8.32973h 0.558551v -2.77658h 0.558551v -1.38829h 0.558551v 2.77658h 0.558551v 2.77658h 0.558551v -6.94144h 0.558551v 4.16487h 0.558551v -1.38829h 0.558551v 4.16487h 0.558551v -6.94144h 0.558551v 5.55315h 1.1171v
 1.38829h 0.558551v -13.8829h 0.558551v 12.4946h 0.558551v -2.77658h 0.558551v 2.77658h 1.1171v -8.32973h 0.558551v 11.1063h 0.558551v -4.16487h 1.1171v 2.77658h 0.558551v -5.55315h 0.558551v 1.38829h 1.67565v 4.16487h 0.558551v -2.77658h 0.558551v
 1.38829h 0.558551v 2.77658h 0.558551v -1.38829h 1.1171v -1.38829h 0.558551v 1.38829h 1.1171v -2.77658h 0.558551v -1.38829h 0.558551v 4.16487h 0.558551v -1.38829h 0.558551v 2.77658h 0.558551v -2.77658h 1.1171v 1.38829h 0.558551v 1.38829h 0.558551v
 -4.16487h 0.558551v 4.16487h 0.558551v -2.77658h 0.558551v 2.77658h 0.558551v -1.38829h 1.1171v 1.38829h 0.558551v -1.38829h 0.558551v 1.38829h 1.67565v -1.38829h 1.1171v -1.38829h 0.558551v 1.38829h 1.1171v -2.77658h 0.558551v 1.38829h 2.2342v
 2.77658h 0.558551v -2.77658h 1.1171v -1.38829h 0.558551v 1.38829h 0.558551v 1.38829h 1.1171v 1.38829h 0.558551v -2.77658h 0.558551v 2.77658h 0.558551v -1.38829h 0.558551v 1.38829h 0.558551v -1.38829h 0.558551v -2.77658h 0.558551v 2.77658h 2.2342v
 -1.38829h 0.558551v 1.38829h 0.558551v -1.38829h 0.558551v 2.77658h 0.558551v -2.77658h 0.558551v 2.77658h 2.79275v -1.38829h 0.558551v -1.38829h 0.558551v 2.77658h 2.2342v -2.77658h 0.558551v 2.77658h 2.2342v -1.38829h 0.558551v 1.38829h 0.558551v
 -1.38829h 0.558551v 1.38829h 1.1171v -1.38829h 0.558551v 1.38829h 0.558551v -1.38829h 0.558551v 1.38829h 3.90986v -1.38829h 0.558551v -1.38829h 0.558551v 1.38829h 1.1171v 1.38829h 1.1171v -1.38829h 0.558551v 1.38829h 3.35131v -1.38829h 0.558551v
 -1.38829h 0.558551v 2.77658h 0.558551v -1.38829h 0.558551v -1.38829h 0.558551v 1.38829h 0.558551v 1.38829h 1.1171v -1.38829h 1.1171v 1.38829h 2.79275v -4.16487h 0.558551v 2.77658h 1.1171v 1.38829h 2.2342v -1.38829h 0.558551v 1.38829h 1.1171v
 -1.38829h 0.558551v 1.38829h 2.2342v -1.38829h 0.558551v 1.38829h 0.558551v -6.94144h 0.558551v -12.4946h 0.558551v -41.6487h 0.558551v -38.8721h 0.558551v 1.38829h 0.558551v 19.436h 0.558551v 5.55315h 0.558551v 8.32973h 0.558551v 8.32973h 0.558551v
 16.6595h 0.558551v 11.1063h 0.558551v 1.38829h 0.558551v 4.16487h 0.558551v 9.71802h 0.558551v 2.77658h 0.558551v -15.2712h 0.558551v 15.2712h 0.558551v -2.77658h 0.558551v -1.38829h 0.558551v 2.77658h 0.558551v -18.0478h 0.558551v 18.0478h
 0.558551v -4.16487h 0.558551v 4.16487h 0.558551v 1.38829h 0.558551v -1.38829h 0.558551v -4.16487h 0.558551v -4.16487h 0.558551v 6.94144h 0.558551v -4.16487h 0.558551v 4.16487h 0.558551v -4.16487h 0.558551v 6.94144h 0.558551v 1.38829h 0.558551v
 -9.71802h 0.558551v 2.77658h 0.558551v 6.94144h 0.558551v -4.16487h 0.558551v 8.32973h 0.558551v -2.77658h 0.558551v 1.38829h 1.67565v 4.16487h 1.1171v 2.77658h 5.58551v -1.38829h 0.558551v 1.38829h 37.4229v -1.38829h 0.558551" fill="none"
 stroke="#000099"/>
<path d="M57.1929,346.022h 453.543" fill="none" stroke="black"/>
<path d="M57.7515,336.795v 9.22726" fill="none" stroke="black"/>
<path d="M76.3698,341.409v 4.61363" fill="none" stroke="black"/>
<path d="M94.9882,341.409v 4.61363" fill="none" stroke="black"/>
<path d="M113.607,341.409v 4.61363" fill="none" stroke="black"/>
<path d="M132.225,341.409v 4.61363" fill="none" stroke="black"/>
<path d="M150.843,336.795v 9.22726" fill="none" stroke="black"/>
<path d="M169.462,341.409v 4.61363" fill="none" stroke="black"/>
<path d="M188.08,341.409v 4.61363" fill="none" stroke="black"/>
<path d="M206.698,341.409v 4.61363" fill="none" stroke="black"/>
<path d="M225.317,341.409v 4.61363" fill="none" stroke="black"/>
<path d="M243.935,336.795v 9.22726" fill="none" stroke="black"/>
<path d="M262.553,341.409v 4.61363" fill="none" stroke="black"/>
<path d="M281.172,341.409v 4.61363" fill="none" stroke="black"/>
<path d="M299.79,341.409v 4.61363" fill="none" stroke="black"/>
<path d="M318.409,341.409v 4.61363" fill="none" stroke="black"/>
<path d="M337.027,336.795v 9.22726" fill="none" stroke="black"/>
<path d="M355.645,341.409v 4.61363" fill="none" stroke="black"/>
<path d="M374.264,341.409v 4.61363" fill="none" stroke="black"/>
<path d="M392.882,341.409v 4.61363" fill="none" stroke="black"/>
<path d="M411.5,341.409v 4.61363" fill="none" stroke="black"/>
<path d="M430.119,336.795v 9.22726" fill="none" stroke="black"/>
<path d="M57.7515,336.795v 9.22726" fill="none" stroke="black"/>
<path d="M430.119,336.795v 9.22726" fill="none" stroke="black"/>
<path d="M448.737,341.409v 4.61363" fill="none" stroke="black"/>
<path d="M467.355,341.409v 4.61363" fill="none" stroke="black"/>
<path d="M485.974,341.409v 4.61363" fill="none" stroke="black"/>
<path d="M504.592,341.409v 4.61363" fill="none" stroke="black"/>
<text xml:space="preserve" x="54.2605" y="358.403" fill="black" font-size="12.8453" font-family="Helvetica">0</text>
<text xml:space="preserve" x="139.789" y="358.403" fill="black" font-size="12.8453" font-family="Helvetica">500</text>
<text xml:space="preserve" x="229.389" y="358.403" fill="black" font-size="12.8453" font-family="Helvetica">1000</text>
<text xml:space="preserve" x="323.063" y="358.403" fill="black" font-size="12.8453" font-family="Helvetica">1500</text>
<text xml:space="preserve" x="415.922" y="358.403" fill="black" font-size="12.8453" font-family="Helvetica">2000</text>
<text xml:space="preserve" x="451.763" y="372.251" fill="black" font-size="12.8453" font-family="Helvetica">ADC value</text>
<path d="M57.1929,346.022v -307.575" fill="none" stroke="black"/>
<path d="M70.7992,346.022h -13.6063" fill="none" stroke="black"/>
<path d="M63.9961,339.081h -6.80315" fill="none" stroke="black"/>
<path d="M63.9961,332.139h -6.80315" fill="none" stroke="black"/>
<path d="M63.9961,325.198h -6.80315" fill="none" stroke="black"/>
<path d="M70.7992,318.256h -13.6063" fill="none" stroke="black"/>
<path d="M63.9961,311.315h -6.80315" fill="none" stroke="black"/>
<path d="M63.9961,304.374h -6.80315" fill="none" stroke="black"/>
<path d="M63.9961,297.432h -6.80315" fill="none" stroke="black"/>
<path d="M70.7992,290.491h -13.6063" fill="none" stroke="black"/>
<path d="M63.9961,283.549h -6.80315" fill="none" stroke="black"/>
<path d="M63.9961,276.608h -6.80315" fill="none" stroke="black"/>
<path d="M63.9961,269.666h -6.80315" fill="none" stroke="black"/>
<path d="M70.7992,262.725h -13.6063" fill="none" stroke="black"/>
<path d="M63.9961,255.783h -6.80315" fill="none" stroke="black"/>
<path d="M63.9961,248.842h -6.80315" fill="none" stroke="black"/>
<path d="M63.9961,241.901h -6.80315" fill="none" stroke="black"/>
<path d="M70.7992,234.959h -13.6063" fill="none" stroke="black"/>
<path d="M63.9961,228.018h -6.80315" fill="none" stroke="black"/>
<path d="M63.9961,221.076h -6.80315" fill="none" stroke="black"/>
<path d="M63.9961,214.135h -6.80315" fill="none" stroke="black"/>
<path d="M70.7992,207.193h -13.6063" fill="none" stroke="black"/>
<path d="M63.9961,200.252h -6.80315" fill="none" stroke="black"/>
<path d="M63.9961,193.311h -6.80315" fill="none" stroke="black"/>
<path d="M63.9961,186.369h -6.80315" fill="none" stroke="black"/>
<path d="M70.7992,179.428h -13.6063" fill="none" stroke="black"/>
<path d="M63.9961,172.486h -6.80315" fill="none" stroke="black"/>
<path d="M63.9961,165.545h -6.80315" fill="none" stroke="black"/>
<path d="M63.9961,158.603h -6.80315" fill="none" stroke="black"/>
<path d="M70.7992,151.662h -13.6063" fill="none" stroke="black"/>
<path d="M63.9961,144.72h -6.80315" fill="none" stroke="black"/>
<path d="M63.9961,137.779h -6.80315" fill="none" stroke="black"/>
<path d="M63.9961,130.838h -6.80315" fill="none" stroke="black"/>
<path d="M70.7992,123.896h -13.6063" fill="none" stroke="black"/>
<path d="M63.9961,116.955h -6.80315" fill="none" stroke="black"/>
<path d="M63.9961,110.013h -6.80315" fill="none" stroke="black"/>
<path d="M63.9961,103.072h -6.80315" fill="none" stroke="black"/>
<path d="M70.7992,96.1303h -13.6063" fill="none" stroke="black"/>
<path d="M63.9961,89.1889h -6.80315" fill="none" stroke="black"/>
<path d="M63.9961,82.2474h -6.80315" fill="none" stroke="black"/>
<path d="M63.9961,75.306h -6.80315" fill="none" stroke="black"/>
<path d="M70.7992,68.3645h -13.6063" fill="none" stroke="black"/>
<path d="M63.9961,61.4231h -6.80315" fill="none" stroke="black"/>
<path d="M63.9961,54.4817h -6.80315" fill="none" stroke="black"/>
<path d="M63.9961,47.5402h -6.80315" fill="none" stroke="black"/>
<path d="M70.7992,40.5988h -13.6063" fill="none" stroke="black"/>
<path d="M70.7992,40.5988h -13.6063" fill="none" stroke="black"/>
<text xml:space="preserve" x="47.7441" y="350.258" fill="black" font-size="12.8453" font-family="Helvetica">0</text>
<text xml:space="preserve" x="41.2277" y="322.563" fill="black" font-size="12.8453" font-family="Helvetica">20</text>
<text xml:space="preserve" x="41.2277" y="294.868" fill="black" font-size="12.8453" font-family="Helvetica">40</text>
<text xml:space="preserve" x="41.2277" y="267.173" fill="black" font-size="12.8453" font-family="Helvetica">60</text>
<text xml:space="preserve" x="41.2277" y="239.479" fill="black" font-size="12.8453" font-family="Helvetica">80</text>
<text xml:space="preserve" x="33.8967" y="211.784" fill="black" font-size="12.8453" font-family="Helvetica">100</text>
<text xml:space="preserve" x="33.8967" y="184.089" fill="black" font-size="12.8453" font-family="Helvetica">120</text>
<text xml:space="preserve" x="33.8967" y="156.394" fill="black" font-size="12.8453" font-family="Helvetica">140</text>
<text xml:space="preserve" x="33.8967" y="128.699" fill="black" font-size="12.8453" font-family="Helvetica">160</text>
<text xml:space="preserve" x="33.8967" y="101.005" fill="black" font-size="12.8453" font-family="Helvetica">180</text>
<text xml:space="preserve" x="33.8967" y="72.4952" fill="black" font-size="12.8453" font-family="Helvetica">200</text>
<text xml:space="preserve" x="33.8967" y="44.8004" fill="black" font-size="12.8453" font-family="Helvetica">220</text>
<g transform="rotate(-90,20.8638,70.0516)">
<text xml:space="preserve" x="20.8638" y="70.0516" fill="black" font-size="12.8453" font-family="Helvetica">Event</text>
</g>
<text xml:space="preserve" x="253.012" y="18.7347" fill="black" font-size="18.0316" font-family="Helvetica">Cs_010</text>
<rect x="442.705" y="24.9905" width="113.386" height="61.5151" fill="white"/>
<path d="M442.705,86.5056h 113.386" fill="none" stroke="black"/>
<path d="M556.091,86.5056v -61.5151" fill="none" stroke="black"/>
<path d="M556.091,24.9905h -113.386" fill="none" stroke="black"/>
<path d="M442.705,24.9905v 61.5151" fill="none" stroke="black"/>
<text xml:space="preserve" x="476.199" y="36.6549" fill="black" font-size="13.4802" font-family="Helvetica">Cs_010</text>
<path d="M442.705,40.3693h 113.386" fill="none" stroke="black"/>
<text xml:space="preserve" x="447.69" y="52.946" fill="black" font-size="13.0654" font-family="Helvetica">Entries </text>
<text xml:space="preserve" x="517.741" y="52.946" fill="black" font-size="13.0654" font-family="Helvetica"> 3026</text>
<text xml:space="preserve" x="447.69" y="67.6079" fill="black" font-size="13.0654" font-family="Helvetica">Mean  </text>
<text xml:space="preserve" x="514.483" y="67.6079" fill="black" font-size="13.0654" font-family="Helvetica">    950</text>
<text xml:space="preserve" x="447.69" y="83.0844" fill="black" font-size="13.0654" font-family="Helvetica">Std Dev   </text>
<text xml:space="preserve" x="510.41" y="83.0844" fill="black" font-size="13.0654" font-family="Helvetica">  815.6</text>
<text xml:space="preserve" x="253.012" y="18.7347" fill="black" font-size="18.0316" font-family="Helvetica">Cs_010</text></svg>
