<?xml version="1.0" standalone="no"?>
<svg width="567.429" height="384.68" viewBox="0 0 567.429 384.68" xmlns="http://www.w3.org/2000/svg" shape-rendering="crispEdges">
<title>
img/week1/plane_hist/Cs_005.svg
</title>
<desc>
Creator: ROOT Version 6.22/09
CreationDate: Tue Jul 13 18:36:27 2021</desc>
<defs>
</defs>
<rect x="0.5" y="0" width="566.929" height="384.18" fill="white"/>
<rect x="57.1929" y="38.418" width="453.543" height="307.344" fill="white"/>
<rect x="57.1929" y="38.418" width="453.543" height="307.344" fill="none" stroke="black"/>
<path d="M57.1929,345.762h 64.9704v -3.0114h 0.624715v -62.6372h 0.624715v -64.444h 0.624715v 10.2388h 0.624715v -10.8411h 0.624715v 13.8525h 0.624715v 33.7277h 0.624715v -7.22737h 0.624715v 27.7049h 0.624715v 7.82965h 0.624715v -22.8867h 0.624715v
 30.114h 0.624715v 18.0684h 0.624715v -10.8411h 0.624715v 3.61368h 0.624715v 2.40912h 0.624715v 11.4433h 0.624715v 7.22737h 0.624715v -3.0114h 1.24943v 3.61368h 0.624715v 4.81825h 0.624715v -2.40912h 0.624715v 0.602281h 1.24943v 4.81825h 1.87415v
 1.20456h 0.624715v -0.602281h 0.624715v 1.80684h 0.624715v -0.602281h 0.624715v -2.40912h 0.624715v 4.21596h 0.624715v -0.602281h 1.24943v -0.602281h 1.24943v 0.602281h 0.624715v 1.20456h 0.624715v -1.20456h 0.624715v 2.40912h 0.624715v -0.602281h
 0.624715v 1.20456h 0.624715v -1.80684h 0.624715v -1.80684h 0.624715v 1.80684h 0.624715v -1.20456h 0.624715v 0.602281h 0.624715v 2.40912h 0.624715v -1.20456h 0.624715v -1.80684h 0.624715v 3.0114h 0.624715v -1.20456h 0.624715v -1.80684h 0.624715v
 0.602281h 0.624715v -1.20456h 0.624715v 2.40912h 0.624715v 1.80684h 0.624715v -3.0114h 0.624715v 1.80684h 0.624715v -2.40912h 0.624715v 3.61368h 0.624715v -3.61368h 0.624715v 0.602281h 1.24943v -1.80684h 0.624715v 4.81825h 0.624715v -3.0114h
 0.624715v 2.40912h 0.624715v -3.0114h 1.24943v 0.602281h 0.624715v 1.80684h 0.624715v -1.80684h 0.624715v -0.602281h 0.624715v 3.0114h 0.624715v -3.0114h 0.624715v -1.20456h 0.624715v 2.40912h 0.624715v 0.602281h 0.624715v -0.602281h 0.624715v
 -0.602281h 0.624715v -0.602281h 0.624715v 3.61368h 0.624715v -1.20456h 0.624715v -1.20456h 0.624715v -1.20456h 0.624715v 1.80684h 0.624715v -1.80684h 1.24943v 0.602281h 0.624715v -1.80684h 0.624715v 3.0114h 0.624715v -2.40912h 0.624715v 0.602281h
 0.624715v 1.80684h 0.624715v 1.80684h 0.624715v -2.40912h 0.624715v -0.602281h 0.624715v -1.20456h 0.624715v 3.61368h 0.624715v -1.80684h 0.624715v 2.40912h 0.624715v -1.80684h 0.624715v -3.61368h 0.624715v 1.20456h 0.624715v 3.0114h 0.624715v
 -0.602281h 1.24943v -1.20456h 0.624715v -0.602281h 0.624715v 3.61368h 0.624715v -2.40912h 0.624715v 1.80684h 0.624715v -4.21596h 0.624715v 3.0114h 0.624715v -1.80684h 0.624715v 1.80684h 0.624715v -0.602281h 0.624715v 1.80684h 0.624715v -1.80684h
 0.624715v -1.20456h 0.624715v 0.602281h 0.624715v 0.602281h 1.24943v 0.602281h 0.624715v -0.602281h 1.24943v -0.602281h 0.624715v 1.20456h 0.624715v -1.20456h 0.624715v -2.40912h 0.624715v 2.40912h 0.624715v -1.20456h 0.624715v 0.602281h 0.624715v
 1.20456h 0.624715v -1.80684h 0.624715v 3.61368h 0.624715v -1.80684h 0.624715v 0.602281h 0.624715v -3.0114h 0.624715v -0.602281h 0.624715v 1.80684h 0.624715v 0.602281h 0.624715v 0.602281h 0.624715v -0.602281h 0.624715v 0.602281h 0.624715v -0.602281h
 0.624715v -3.61368h 0.624715v 3.61368h 1.24943v 1.20456h 0.624715v -1.80684h 0.624715v 1.20456h 0.624715v -2.40912h 0.624715v -1.80684h 0.624715v 4.81825h 0.624715v -3.61368h 0.624715v 1.20456h 0.624715v -0.602281h 0.624715v 4.81825h 0.624715v
 -3.61368h 0.624715v -0.602281h 0.624715v 0.602281h 0.624715v -2.40912h 0.624715v 3.61368h 0.624715v -2.40912h 0.624715v -3.61368h 0.624715v 4.21596h 0.624715v 2.40912h 0.624715v -3.0114h 0.624715v -1.80684h 0.624715v 3.0114h 0.624715v -0.602281h
 0.624715v 0.602281h 0.624715v -1.20456h 0.624715v 1.20456h 0.624715v -3.0114h 0.624715v 2.40912h 0.624715v 1.20456h 0.624715v -2.40912h 0.624715v -4.21596h 0.624715v 3.61368h 0.624715v 1.80684h 1.87415v 1.80684h 0.624715v -4.21596h 0.624715v
 1.20456h 0.624715v 2.40912h 0.624715v 0.602281h 0.624715v -4.81825h 0.624715v 1.20456h 0.624715v -1.80684h 0.624715v 1.20456h 1.24943v 2.40912h 0.624715v -2.40912h 0.624715v 1.20456h 0.624715v -1.20456h 1.24943v -0.602281h 0.624715v 1.80684h
 0.624715v 1.20456h 0.624715v -4.81825h 0.624715v 0.602281h 0.624715v 1.20456h 0.624715v 1.20456h 0.624715v 0.602281h 0.624715v 1.20456h 0.624715v -4.81825h 0.624715v 2.40912h 0.624715v -3.0114h 0.624715v 1.20456h 0.624715v 2.40912h 0.624715v
 -1.20456h 0.624715v 4.21596h 0.624715v -3.61368h 0.624715v -1.20456h 0.624715v -0.602281h 0.624715v -6.62509h 0.624715v 4.81825h 0.624715v 1.20456h 0.624715v 4.21596h 0.624715v -4.21596h 0.624715v 1.80684h 0.624715v -6.02281h 0.624715v 4.21596h
 0.624715v -4.81825h 0.624715v 2.40912h 0.624715v 2.40912h 0.624715v -6.62509h 0.624715v 5.42053h 0.624715v -5.42053h 0.624715v 7.82965h 0.624715v -1.80684h 0.624715v 1.20456h 0.624715v -2.40912h 0.624715v -0.602281h 0.624715v 2.40912h 0.624715v
 -1.20456h 0.624715v -1.20456h 0.624715v 1.20456h 0.624715v -3.61368h 1.24943v 1.20456h 0.624715v 4.81825h 0.624715v -0.602281h 0.624715v 0.602281h 0.624715v -6.02281h 1.24943v 1.20456h 0.624715v 5.42053h 0.624715v -3.61368h 0.624715v -1.20456h
 0.624715v 1.80684h 0.624715v 1.20456h 0.624715v 3.61368h 0.624715v 1.20456h 0.624715v -8.43193h 0.624715v 2.40912h 0.624715v 1.80684h 0.624715v -2.40912h 0.624715v 4.81825h 1.24943v -3.0114h 0.624715v 2.40912h 0.624715v 0.602281h 0.624715v 1.20456h
 0.624715v -3.61368h 0.624715v 0.602281h 1.24943v 3.0114h 0.624715v -1.80684h 0.624715v -1.80684h 0.624715v 4.21596h 0.624715v 2.40912h 0.624715v -2.40912h 0.624715v -3.0114h 1.24943v 0.602281h 0.624715v -0.602281h 0.624715v 2.40912h 0.624715v
 -1.80684h 0.624715v 4.21596h 0.624715v -1.80684h 0.624715v -1.80684h 0.624715v 1.80684h 0.624715v -5.42053h 0.624715v 7.82965h 0.624715v -1.20456h 0.624715v -4.21596h 0.624715v 3.61368h 0.624715v 0.602281h 0.624715v -2.40912h 0.624715v -0.602281h
 0.624715v -2.40912h 0.624715v 2.40912h 0.624715v 1.20456h 0.624715v -0.602281h 0.624715v 2.40912h 0.624715v -3.61368h 0.624715v 1.20456h 0.624715v -2.40912h 0.624715v 3.0114h 0.624715v -3.61368h 0.624715v 0.602281h 0.624715v 4.81825h 0.624715v
 -7.82965h 0.624715v 9.03421h 0.624715v -2.40912h 0.624715v -1.20456h 0.624715v 1.20456h 0.624715v -3.0114h 0.624715v -2.40912h 0.624715v 1.80684h 0.624715v 1.80684h 0.624715v 1.20456h 0.624715v 0.602281h 0.624715v 0.602281h 1.87415v -2.40912h
 0.624715v -1.20456h 0.624715v 2.40912h 0.624715v -2.40912h 0.624715v 4.81825h 0.624715v -4.81825h 0.624715v 0.602281h 0.624715v 3.0114h 0.624715v -1.80684h 1.24943v 1.80684h 0.624715v -3.61368h 0.624715v 0.602281h 0.624715v 4.21596h 0.624715v
 -2.40912h 0.624715v -3.0114h 0.624715v 3.61368h 0.624715v 0.602281h 0.624715v 0.602281h 0.624715v -2.40912h 0.624715v -1.80684h 0.624715v 1.20456h 0.624715v 3.0114h 0.624715v 1.20456h 0.624715v -9.03421h 0.624715v 4.21596h 0.624715v 1.20456h
 0.624715v 1.20456h 0.624715v -1.20456h 0.624715v 0.602281h 0.624715v 1.80684h 1.87415v -0.602281h 0.624715v -3.61368h 0.624715v 4.21596h 0.624715v 0.602281h 0.624715v -1.80684h 0.624715v 0.602281h 0.624715v -1.20456h 0.624715v 1.20456h 0.624715v
 1.20456h 0.624715v 0.602281h 0.624715v -0.602281h 0.624715v -1.80684h 0.624715v 3.0114h 0.624715v -0.602281h 0.624715v -1.20456h 1.24943v 1.20456h 0.624715v 1.20456h 0.624715v -0.602281h 1.24943v -1.20456h 0.624715v 0.602281h 1.24943v -2.40912h
 0.624715v 2.40912h 1.24943v -0.602281h 1.24943v 1.20456h 1.24943v -0.602281h 0.624715v -4.21596h 0.624715v 3.0114h 0.624715v 1.20456h 0.624715v 1.20456h 0.624715v -2.40912h 0.624715v 1.80684h 0.624715v -1.80684h 1.24943v 0.602281h 0.624715v
 -0.602281h 0.624715v 1.20456h 1.24943v 0.602281h 0.624715v -3.0114h 0.624715v 4.21596h 0.624715v -2.40912h 0.624715v 0.602281h 1.24943v -0.602281h 0.624715v -0.602281h 0.624715v 0.602281h 0.624715v -0.602281h 0.624715v 1.80684h 1.87415v -2.40912h
 1.24943v 3.0114h 0.624715v -3.61368h 0.624715v 2.40912h 0.624715v -1.20456h 0.624715v 0.602281h 0.624715v 0.602281h 0.624715v -1.20456h 0.624715v 0.602281h 0.624715v -1.80684h 0.624715v 1.20456h 0.624715v 1.20456h 0.624715v 2.40912h 0.624715v
 -1.20456h 0.624715v -1.20456h 0.624715v -1.80684h 0.624715v 3.61368h 0.624715v -3.61368h 0.624715v 1.20456h 0.624715v -0.602281h 0.624715v 1.80684h 0.624715v -3.61368h 0.624715v 3.61368h 1.24943v -0.602281h 0.624715v -3.0114h 0.624715v 4.81825h
 0.624715v -1.20456h 0.624715v -0.602281h 0.624715v 1.80684h 0.624715v -2.40912h 0.624715v 1.20456h 0.624715v -1.80684h 0.624715v 0.602281h 0.624715v 1.80684h 0.624715v -0.602281h 0.624715v -1.80684h 0.624715v 1.80684h 0.624715v 0.602281h 1.24943v
 -1.20456h 0.624715v -1.20456h 0.624715v 1.80684h 0.624715v -1.20456h 0.624715v -0.602281h 0.624715v 2.40912h 0.624715v 0.602281h 1.24943v -2.40912h 0.624715v 1.20456h 1.24943v 1.20456h 0.624715v -1.80684h 0.624715v 1.80684h 0.624715v -3.61368h
 0.624715v 1.80684h 0.624715v -1.80684h 0.624715v 2.40912h 0.624715v -3.0114h 0.624715v 3.0114h 1.24943v -4.21596h 0.624715v 2.40912h 0.624715v 2.40912h 0.624715v -2.40912h 0.624715v 2.40912h 0.624715v -3.61368h 0.624715v 3.61368h 0.624715v -4.81825h
 0.624715v 4.21596h 0.624715v -1.20456h 0.624715v -0.602281h 0.624715v 1.80684h 0.624715v -0.602281h 0.624715v -1.20456h 2.49886v 1.80684h 0.624715v -0.602281h 0.624715v -6.62509h 0.624715v 5.42053h 0.624715v -2.40912h 0.624715v 0.602281h 0.624715v
 3.61368h 0.624715v -3.61368h 0.624715v -0.602281h 0.624715v 3.0114h 0.624715v -1.80684h 0.624715v 1.20456h 0.624715v -2.40912h 0.624715v -0.602281h 0.624715v 2.40912h 0.624715v -3.61368h 0.624715v 0.602281h 0.624715v 0.602281h 0.624715v 2.40912h
 0.624715v -2.40912h 0.624715v 0.602281h 0.624715v -4.81825h 0.624715v 7.82965h 0.624715v -4.21596h 0.624715v 1.20456h 0.624715v 0.602281h 0.624715v -1.20456h 0.624715v 1.80684h 0.624715v 1.80684h 0.624715v -2.40912h 0.624715v -6.02281h 0.624715v
 4.81825h 0.624715v 1.20456h 0.624715v -1.20456h 0.624715v -2.40912h 0.624715v 3.0114h 0.624715v -6.62509h 0.624715v 11.4433h 0.624715v -6.62509h 0.624715v -2.40912h 1.24943v 4.21596h 0.624715v 1.20456h 0.624715v -4.21596h 0.624715v 1.20456h
 0.624715v 0.602281h 1.24943v -1.80684h 0.624715v 2.40912h 0.624715v -1.20456h 0.624715v 1.80684h 0.624715v 1.20456h 1.24943v -2.40912h 0.624715v 1.20456h 0.624715v 1.80684h 0.624715v -3.0114h 0.624715v -0.602281h 0.624715v -1.20456h 1.24943v
 5.42053h 0.624715v -3.61368h 1.87415v 0.602281h 0.624715v -3.0114h 0.624715v 4.81825h 0.624715v -3.61368h 0.624715v 5.42053h 0.624715v -1.80684h 0.624715v -1.80684h 0.624715v 3.0114h 0.624715v -3.0114h 0.624715v 2.40912h 0.624715v 1.20456h 0.624715v
 -2.40912h 0.624715v -3.0114h 0.624715v 2.40912h 0.624715v 1.80684h 0.624715v -2.40912h 0.624715v -1.80684h 0.624715v -10.2388h 0.624715v -40.3528h 0.624715v -219.23h 0.624715v -14.4547h 0.624715v 90.3421h 0.624715v 41.5574h 0.624715v 22.8867h
 0.624715v 22.8867h 0.624715v 33.1254h 0.624715v 6.02281h 0.624715v 18.6707h 0.624715v 13.2502h 0.624715v -8.43193h 0.624715v 3.0114h 0.624715v 5.42053h 0.624715v 15.057h 1.24943v -1.80684h 0.624715v 3.0114h 0.624715v -4.21596h 0.624715v 4.81825h
 0.624715v -6.02281h 0.624715v 6.02281h 0.624715v -1.80684h 0.624715v 7.82965h 0.624715v 0.602281h 0.624715v -15.057h 0.624715v 10.8411h 0.624715v -3.61368h 0.624715v -3.0114h 0.624715v 4.21596h 0.624715v -1.80684h 0.624715v 1.20456h 0.624715v
 7.22737h 0.624715v -7.22737h 0.624715v -0.602281h 0.624715v -4.81825h 0.624715v 10.2388h 0.624715v -3.61368h 0.624715v 0.602281h 0.624715v 4.81825h 0.624715v 6.62509h 0.624715v 1.80684h 0.624715v 7.82965h 0.624715v -0.602281h 0.624715v 1.80684h
 0.624715v 3.0114h 1.24943v 0.602281h 0.624715v -0.602281h 0.624715" fill="none" stroke="#000099"/>
<path d="M57.1929,345.762h 453.543" fill="none" stroke="black"/>
<path d="M57.8176,336.541v 9.22031" fill="none" stroke="black"/>
<path d="M78.6415,341.152v 4.61016" fill="none" stroke="black"/>
<path d="M99.4653,341.152v 4.61016" fill="none" stroke="black"/>
<path d="M120.289,341.152v 4.61016" fill="none" stroke="black"/>
<path d="M141.113,341.152v 4.61016" fill="none" stroke="black"/>
<path d="M161.937,336.541v 9.22031" fill="none" stroke="black"/>
<path d="M182.761,341.152v 4.61016" fill="none" stroke="black"/>
<path d="M203.585,341.152v 4.61016" fill="none" stroke="black"/>
<path d="M224.408,341.152v 4.61016" fill="none" stroke="black"/>
<path d="M245.232,341.152v 4.61016" fill="none" stroke="black"/>
<path d="M266.056,336.541v 9.22031" fill="none" stroke="black"/>
<path d="M286.88,341.152v 4.61016" fill="none" stroke="black"/>
<path d="M307.704,341.152v 4.61016" fill="none" stroke="black"/>
<path d="M328.528,341.152v 4.61016" fill="none" stroke="black"/>
<path d="M349.351,341.152v 4.61016" fill="none" stroke="black"/>
<path d="M370.175,336.541v 9.22031" fill="none" stroke="black"/>
<path d="M390.999,341.152v 4.61016" fill="none" stroke="black"/>
<path d="M411.823,341.152v 4.61016" fill="none" stroke="black"/>
<path d="M432.647,341.152v 4.61016" fill="none" stroke="black"/>
<path d="M453.471,341.152v 4.61016" fill="none" stroke="black"/>
<path d="M474.294,336.541v 9.22031" fill="none" stroke="black"/>
<path d="M57.8176,336.541v 9.22031" fill="none" stroke="black"/>
<path d="M474.294,336.541v 9.22031" fill="none" stroke="black"/>
<path d="M495.118,341.152v 4.61016" fill="none" stroke="black"/>
<text xml:space="preserve" x="54.1065" y="358.189" fill="black" font-size="12.836" font-family="Helvetica">0</text>
<text xml:space="preserve" x="150.761" y="358.189" fill="black" font-size="12.836" font-family="Helvetica">500</text>
<text xml:space="preserve" x="251.476" y="358.189" fill="black" font-size="12.836" font-family="Helvetica">1000</text>
<text xml:space="preserve" x="356.252" y="358.189" fill="black" font-size="12.836" font-family="Helvetica">1500</text>
<text xml:space="preserve" x="460.216" y="358.189" fill="black" font-size="12.836" font-family="Helvetica">2000</text>
<text xml:space="preserve" x="452.094" y="371.996" fill="black" font-size="12.836" font-family="Helvetica">ADC value</text>
<path d="M57.1929,345.762v -307.344" fill="none" stroke="black"/>
<path d="M70.7992,345.762h -13.6063" fill="none" stroke="black"/>
<path d="M63.9961,333.716h -6.80315" fill="none" stroke="black"/>
<path d="M63.9961,321.671h -6.80315" fill="none" stroke="black"/>
<path d="M63.9961,309.625h -6.80315" fill="none" stroke="black"/>
<path d="M63.9961,297.579h -6.80315" fill="none" stroke="black"/>
<path d="M70.7992,285.534h -13.6063" fill="none" stroke="black"/>
<path d="M63.9961,273.488h -6.80315" fill="none" stroke="black"/>
<path d="M63.9961,261.443h -6.80315" fill="none" stroke="black"/>
<path d="M63.9961,249.397h -6.80315" fill="none" stroke="black"/>
<path d="M63.9961,237.351h -6.80315" fill="none" stroke="black"/>
<path d="M70.7992,225.306h -13.6063" fill="none" stroke="black"/>
<path d="M63.9961,213.26h -6.80315" fill="none" stroke="black"/>
<path d="M63.9961,201.214h -6.80315" fill="none" stroke="black"/>
<path d="M63.9961,189.169h -6.80315" fill="none" stroke="black"/>
<path d="M63.9961,177.123h -6.80315" fill="none" stroke="black"/>
<path d="M70.7992,165.078h -13.6063" fill="none" stroke="black"/>
<path d="M63.9961,153.032h -6.80315" fill="none" stroke="black"/>
<path d="M63.9961,140.986h -6.80315" fill="none" stroke="black"/>
<path d="M63.9961,128.941h -6.80315" fill="none" stroke="black"/>
<path d="M63.9961,116.895h -6.80315" fill="none" stroke="black"/>
<path d="M70.7992,104.85h -13.6063" fill="none" stroke="black"/>
<path d="M63.9961,92.8039h -6.80315" fill="none" stroke="black"/>
<path d="M63.9961,80.7583h -6.80315" fill="none" stroke="black"/>
<path d="M63.9961,68.7127h -6.80315" fill="none" stroke="black"/>
<path d="M63.9961,56.6671h -6.80315" fill="none" stroke="black"/>
<path d="M70.7992,44.6215h -13.6063" fill="none" stroke="black"/>
<path d="M70.7992,44.6215h -13.6063" fill="none" stroke="black"/>
<text xml:space="preserve" x="47.6087" y="350.067" fill="black" font-size="12.836" font-family="Helvetica">0</text>
<text xml:space="preserve" x="33.801" y="289.962" fill="black" font-size="12.836" font-family="Helvetica">100</text>
<text xml:space="preserve" x="33.801" y="229.858" fill="black" font-size="12.836" font-family="Helvetica">200</text>
<text xml:space="preserve" x="33.801" y="169.754" fill="black" font-size="12.836" font-family="Helvetica">300</text>
<text xml:space="preserve" x="33.801" y="109.65" fill="black" font-size="12.836" font-family="Helvetica">400</text>
<text xml:space="preserve" x="33.801" y="48.7332" fill="black" font-size="12.836" font-family="Helvetica">500</text>
<g transform="rotate(-90,20.8055,69.8509)">
<text xml:space="preserve" x="20.8055" y="69.8509" fill="black" font-size="12.836" font-family="Helvetica">Event</text>
</g>
<text xml:space="preserve" x="253.1" y="18.681" fill="black" font-size="17.9813" font-family="Helvetica">Cs_005</text>
<rect x="442.705" y="24.9717" width="113.386" height="61.4688" fill="white"/>
<path d="M442.705,86.4405h 113.386" fill="none" stroke="black"/>
<path d="M556.091,86.4405v -61.4688" fill="none" stroke="black"/>
<path d="M556.091,24.9717h -113.386" fill="none" stroke="black"/>
<path d="M442.705,24.9717v 61.4688" fill="none" stroke="black"/>
<text xml:space="preserve" x="476.461" y="36.5499" fill="black" font-size="13.4705" font-family="Helvetica">Cs_005</text>
<path d="M442.705,40.3389h 113.386" fill="none" stroke="black"/>
<text xml:space="preserve" x="448.033" y="52.7943" fill="black" font-size="12.7411" font-family="Helvetica">Entries </text>
<text xml:space="preserve" x="513.01" y="52.7943" fill="black" font-size="12.7411" font-family="Helvetica"> 10739</text>
<text xml:space="preserve" x="448.033" y="68.2264" fill="black" font-size="12.7411" font-family="Helvetica">Mean  </text>
<text xml:space="preserve" x="513.01" y="68.2264" fill="black" font-size="12.7411" font-family="Helvetica">   1360</text>
<text xml:space="preserve" x="448.033" y="82.8464" fill="black" font-size="12.7411" font-family="Helvetica">Std Dev   </text>
<text xml:space="preserve" x="513.01" y="82.8464" fill="black" font-size="12.7411" font-family="Helvetica">  698.4</text>
<text xml:space="preserve" x="253.1" y="18.681" fill="black" font-size="17.9813" font-family="Helvetica">Cs_005</text></svg>
