<?xml version="1.0" standalone="no"?>
<svg width="567.429" height="384.969" viewBox="0 0 567.429 384.969" xmlns="http://www.w3.org/2000/svg" shape-rendering="crispEdges">
<title>
img/week1/plane_hist/Cs_009.svg
</title>
<desc>
Creator: ROOT Version 6.22/09
CreationDate: Fri Jul  2 21:18:42 2021</desc>
<defs>
</defs>
<rect x="0.5" y="0" width="566.929" height="384.469" fill="white"/>
<rect x="57.1929" y="38.4469" width="453.543" height="307.575" fill="white"/>
<rect x="57.1929" y="38.4469" width="453.543" height="307.575" fill="none" stroke="black"/>
<path d="M57.1929,346.022h 49.5v -1.30191h 0.618749v 1.30191h 0.618749v -24.7362h 0.618749v -55.982h 0.618749v -75.5106h 0.618749v -19.5286h 0.618749v 36.4534h 0.618749v 42.9629h 0.618749v 14.321h 0.618749v -18.2267h 0.618749v 46.8686h 0.618749v
 13.0191h 0.618749v 18.2267h 0.618749v -11.7172h 0.618749v 7.81144h 0.618749v 16.9248h 0.618749v 1.30191h 0.618749v -1.30191h 0.618749v -3.90572h 0.618749v 6.50953h 0.618749v -6.50953h 0.618749v 6.50953h 0.618749v -5.20762h 0.618749v 1.30191h
 0.618749v 5.20762h 1.2375v 2.60381h 0.618749v -2.60381h 0.618749v -6.50953h 0.618749v 7.81144h 1.85625v -1.30191h 0.618749v 3.90572h 0.618749v -3.90572h 1.2375v 1.30191h 0.618749v -1.30191h 0.618749v 1.30191h 1.2375v 2.60381h 2.475v -3.90572h
 0.618749v -1.30191h 0.618749v 5.20762h 0.618749v -5.20762h 1.2375v 1.30191h 1.2375v 5.20762h 0.618749v -2.60381h 1.2375v -3.90572h 0.618749v 1.30191h 0.618749v 2.60381h 0.618749v 1.30191h 0.618749v -1.30191h 0.618749v -1.30191h 0.618749v -1.30191h
 1.85625v 3.90572h 0.618749v -1.30191h 0.618749v 1.30191h 0.618749v -2.60381h 1.85625v 1.30191h 1.2375v -5.20762h 0.618749v 6.50953h 1.2375v -3.90572h 0.618749v 2.60381h 0.618749v 1.30191h 0.618749v -2.60381h 0.618749v 1.30191h 0.618749v -2.60381h
 0.618749v 2.60381h 0.618749v -1.30191h 0.618749v -2.60381h 0.618749v 2.60381h 0.618749v 2.60381h 1.2375v -5.20762h 0.618749v 1.30191h 0.618749v 2.60381h 0.618749v 1.30191h 0.618749v -2.60381h 0.618749v 2.60381h 1.85625v -3.90572h 0.618749v 2.60381h
 0.618749v -1.30191h 0.618749v -2.60381h 0.618749v 6.50953h 1.2375v -2.60381h 0.618749v 1.30191h 0.618749v -1.30191h 0.618749v 1.30191h 0.618749v -1.30191h 1.2375v -1.30191h 0.618749v 2.60381h 0.618749v -2.60381h 0.618749v -1.30191h 0.618749v
 3.90572h 0.618749v -3.90572h 0.618749v 2.60381h 0.618749v 2.60381h 1.2375v -2.60381h 1.2375v -1.30191h 0.618749v 2.60381h 0.618749v -1.30191h 1.2375v 2.60381h 0.618749v -3.90572h 0.618749v 1.30191h 1.85625v 1.30191h 1.85625v -1.30191h 1.2375v
 -2.60381h 0.618749v 2.60381h 0.618749v 1.30191h 0.618749v -1.30191h 0.618749v -1.30191h 0.618749v 1.30191h 0.618749v 2.60381h 0.618749v -1.30191h 0.618749v -2.60381h 0.618749v 1.30191h 0.618749v 2.60381h 0.618749v -2.60381h 0.618749v -2.60381h
 0.618749v 3.90572h 0.618749v -1.30191h 1.2375v -1.30191h 1.2375v -1.30191h 0.618749v 2.60381h 0.618749v 1.30191h 0.618749v -1.30191h 0.618749v -1.30191h 0.618749v 2.60381h 0.618749v -1.30191h 1.2375v -1.30191h 0.618749v 2.60381h 0.618749v -2.60381h
 0.618749v 1.30191h 0.618749v -2.60381h 0.618749v 1.30191h 1.85625v 1.30191h 0.618749v 1.30191h 1.85625v -2.60381h 0.618749v 2.60381h 2.475v -3.90572h 0.618749v 2.60381h 0.618749v 1.30191h 0.618749v -1.30191h 0.618749v 2.60381h 0.618749v -3.90572h
 1.85625v 2.60381h 1.85625v -1.30191h 0.618749v 1.30191h 0.618749v -2.60381h 0.618749v 3.90572h 0.618749v -3.90572h 1.2375v 1.30191h 1.2375v -1.30191h 1.2375v 1.30191h 1.2375v 1.30191h 0.618749v -1.30191h 1.2375v 2.60381h 0.618749v -2.60381h
 0.618749v 1.30191h 0.618749v -3.90572h 1.2375v 2.60381h 0.618749v -1.30191h 0.618749v 2.60381h 1.2375v 1.30191h 0.618749v -1.30191h 0.618749v -1.30191h 0.618749v -3.90572h 0.618749v 3.90572h 0.618749v -1.30191h 0.618749v 1.30191h 0.618749v -1.30191h
 1.2375v 3.90572h 0.618749v -2.60381h 1.2375v 1.30191h 1.2375v -5.20762h 0.618749v -1.30191h 0.618749v 3.90572h 0.618749v -3.90572h 0.618749v 5.20762h 0.618749v -1.30191h 0.618749v 1.30191h 0.618749v -6.50953h 0.618749v 2.60381h 1.2375v 3.90572h
 0.618749v -2.60381h 1.2375v 2.60381h 1.2375v -7.81144h 0.618749v 2.60381h 0.618749v -3.90572h 0.618749v 2.60381h 0.618749v 6.50953h 0.618749v -7.81144h 0.618749v 5.20762h 0.618749v -6.50953h 0.618749v 3.90572h 0.618749v 3.90572h 0.618749v -2.60381h
 0.618749v -1.30191h 0.618749v 3.90572h 1.2375v -3.90572h 0.618749v -1.30191h 0.618749v 5.20762h 0.618749v -5.20762h 0.618749v 1.30191h 0.618749v 6.50953h 0.618749v -1.30191h 1.2375v 1.30191h 1.2375v -9.11334h 0.618749v 5.20762h 1.2375v -1.30191h
 0.618749v 1.30191h 0.618749v -3.90572h 0.618749v 7.81144h 0.618749v -2.60381h 0.618749v -1.30191h 0.618749v 1.30191h 0.618749v -1.30191h 1.2375v 3.90572h 0.618749v -2.60381h 0.618749v -2.60381h 0.618749v 5.20762h 0.618749v -6.50953h 0.618749v
 6.50953h 1.2375v -1.30191h 0.618749v -3.90572h 0.618749v 3.90572h 0.618749v -1.30191h 1.2375v -1.30191h 0.618749v 3.90572h 0.618749v 1.30191h 0.618749v -1.30191h 1.2375v -2.60381h 0.618749v 1.30191h 0.618749v -2.60381h 0.618749v 1.30191h 0.618749v
 1.30191h 0.618749v -3.90572h 0.618749v 5.20762h 0.618749v -2.60381h 0.618749v 2.60381h 1.2375v -1.30191h 0.618749v 1.30191h 0.618749v -1.30191h 0.618749v 1.30191h 0.618749v -2.60381h 0.618749v 1.30191h 0.618749v -1.30191h 0.618749v -1.30191h
 0.618749v 5.20762h 0.618749v -1.30191h 2.475v -1.30191h 0.618749v 1.30191h 0.618749v -6.50953h 0.618749v 3.90572h 0.618749v 1.30191h 0.618749v -2.60381h 0.618749v 5.20762h 0.618749v -3.90572h 0.618749v 1.30191h 0.618749v -1.30191h 0.618749v 3.90572h
 0.618749v -2.60381h 1.2375v 1.30191h 1.2375v -1.30191h 0.618749v -1.30191h 0.618749v -2.60381h 0.618749v -2.60381h 0.618749v 7.81144h 0.618749v -2.60381h 1.85625v -1.30191h 0.618749v 2.60381h 0.618749v -3.90572h 0.618749v 2.60381h 0.618749v
 -3.90572h 0.618749v 3.90572h 1.2375v 2.60381h 0.618749v -10.4152h 0.618749v 11.7172h 0.618749v -2.60381h 0.618749v -3.90572h 0.618749v 3.90572h 0.618749v -1.30191h 0.618749v -10.4152h 0.618749v 11.7172h 0.618749v -2.60381h 0.618749v -2.60381h
 0.618749v 3.90572h 0.618749v -5.20762h 0.618749v 1.30191h 0.618749v 1.30191h 0.618749v -5.20762h 0.618749v 7.81144h 0.618749v -6.50953h 0.618749v -1.30191h 0.618749v -3.90572h 0.618749v -9.11334h 0.618749v 7.81144h 0.618749v 10.4152h 0.618749v
 -1.30191h 0.618749v -3.90572h 0.618749v -2.60381h 0.618749v -6.50953h 0.618749v 10.4152h 0.618749v -3.90572h 0.618749v 1.30191h 0.618749v -6.50953h 0.618749v 2.60381h 0.618749v 5.20762h 0.618749v -14.321h 0.618749v 13.0191h 0.618749v -9.11334h
 0.618749v 6.50953h 0.618749v -7.81144h 0.618749v 7.81144h 0.618749v -6.50953h 0.618749v 2.60381h 0.618749v 1.30191h 0.618749v -6.50953h 0.618749v 1.30191h 0.618749v 3.90572h 0.618749v 5.20762h 0.618749v -6.50953h 0.618749v 5.20762h 0.618749v
 3.90572h 0.618749v 2.60381h 0.618749v -10.4152h 0.618749v 10.4152h 0.618749v -6.50953h 0.618749v -1.30191h 0.618749v 7.81144h 0.618749v -1.30191h 0.618749v -2.60381h 0.618749v -1.30191h 1.2375v 7.81144h 0.618749v -9.11334h 0.618749v -2.60381h
 0.618749v 9.11334h 0.618749v -6.50953h 0.618749v 11.7172h 0.618749v -11.7172h 0.618749v 6.50953h 0.618749v 1.30191h 0.618749v 1.30191h 0.618749v 1.30191h 0.618749v 1.30191h 0.618749v -3.90572h 0.618749v 1.30191h 0.618749v -2.60381h 0.618749v
 1.30191h 1.2375v 2.60381h 0.618749v 1.30191h 0.618749v -5.20762h 0.618749v 2.60381h 0.618749v 1.30191h 1.85625v -2.60381h 0.618749v 7.81144h 0.618749v -3.90572h 0.618749v 2.60381h 0.618749v -3.90572h 0.618749v 1.30191h 1.2375v -3.90572h 0.618749v
 6.50953h 0.618749v -2.60381h 0.618749v -2.60381h 0.618749v 6.50953h 0.618749v -3.90572h 0.618749v 1.30191h 1.2375v -1.30191h 0.618749v -1.30191h 0.618749v 2.60381h 0.618749v -3.90572h 0.618749v 6.50953h 0.618749v -5.20762h 0.618749v 1.30191h
 1.85625v -3.90572h 1.2375v 6.50953h 0.618749v -1.30191h 0.618749v -1.30191h 0.618749v 1.30191h 1.2375v -1.30191h 0.618749v -1.30191h 1.2375v -2.60381h 0.618749v 3.90572h 0.618749v 1.30191h 1.2375v -2.60381h 0.618749v 1.30191h 0.618749v -1.30191h
 0.618749v 2.60381h 0.618749v -3.90572h 0.618749v 3.90572h 0.618749v -2.60381h 0.618749v 3.90572h 0.618749v -3.90572h 0.618749v 3.90572h 1.2375v -1.30191h 0.618749v 1.30191h 0.618749v -5.20762h 0.618749v 5.20762h 0.618749v -3.90572h 0.618749v
 5.20762h 1.2375v -1.30191h 1.2375v -2.60381h 0.618749v 1.30191h 0.618749v -1.30191h 0.618749v 2.60381h 0.618749v -3.90572h 0.618749v 3.90572h 0.618749v 1.30191h 0.618749v -1.30191h 0.618749v 1.30191h 0.618749v -2.60381h 0.618749v 2.60381h 1.2375v
 -1.30191h 0.618749v 1.30191h 0.618749v -2.60381h 1.2375v 1.30191h 0.618749v 1.30191h 0.618749v -1.30191h 0.618749v 1.30191h 0.618749v -2.60381h 0.618749v 2.60381h 1.2375v -1.30191h 0.618749v -3.90572h 0.618749v 2.60381h 0.618749v 1.30191h 1.85625v
 -1.30191h 0.618749v 2.60381h 1.2375v -3.90572h 0.618749v 3.90572h 0.618749v -3.90572h 0.618749v 2.60381h 0.618749v -1.30191h 0.618749v 2.60381h 0.618749v -1.30191h 0.618749v 1.30191h 0.618749v -5.20762h 0.618749v 2.60381h 0.618749v 2.60381h
 0.618749v -1.30191h 1.2375v 1.30191h 0.618749v -1.30191h 1.85625v 1.30191h 1.2375v -2.60381h 0.618749v 1.30191h 0.618749v 1.30191h 1.2375v -1.30191h 0.618749v -1.30191h 0.618749v 2.60381h 0.618749v -1.30191h 0.618749v -1.30191h 0.618749v 1.30191h
 1.2375v 1.30191h 1.85625v -2.60381h 0.618749v 1.30191h 0.618749v -3.90572h 0.618749v 5.20762h 0.618749v -1.30191h 0.618749v -1.30191h 0.618749v 1.30191h 0.618749v 1.30191h 0.618749v -2.60381h 0.618749v 2.60381h 1.2375v -1.30191h 1.85625v 1.30191h
 0.618749v -1.30191h 0.618749v 1.30191h 0.618749v -2.60381h 0.618749v 2.60381h 0.618749v -2.60381h 0.618749v 1.30191h 1.2375v 1.30191h 1.2375v -1.30191h 0.618749v 1.30191h 1.2375v -1.30191h 0.618749v 1.30191h 1.2375v -2.60381h 0.618749v 2.60381h
 0.618749v -1.30191h 1.2375v 1.30191h 0.618749v -1.30191h 0.618749v -1.30191h 0.618749v 2.60381h 0.618749v -1.30191h 0.618749v 1.30191h 0.618749v -2.60381h 0.618749v 2.60381h 0.618749v -1.30191h 0.618749v 1.30191h 0.618749v -1.30191h 0.618749v
 1.30191h 2.475v -2.60381h 0.618749v 2.60381h 0.618749v -1.30191h 1.2375v -2.60381h 0.618749v 2.60381h 0.618749v 1.30191h 0.618749v -5.20762h 0.618749v -11.7172h 0.618749v -84.6239h 0.618749v -110.662h 0.618749v -80.7182h 0.618749v 7.81144h 0.618749v
 72.9067h 0.618749v 22.1324h 0.618749v 27.34h 0.618749v 59.8877h 0.618749v 24.7362h 0.618749v 19.5286h 0.618749v -13.0191h 0.618749v 18.2267h 0.618749v -14.321h 0.618749v 20.8305h 0.618749v -2.60381h 0.618749v -9.11334h 0.618749v 20.8305h 0.618749v
 -7.81144h 0.618749v -2.60381h 0.618749v 2.60381h 0.618749v -3.90572h 0.618749v 11.7172h 0.618749v 3.90572h 0.618749v -19.5286h 0.618749v 10.4152h 0.618749v 11.7172h 1.2375v -16.9248h 0.618749v 7.81144h 0.618749v -2.60381h 0.618749v 11.7172h
 0.618749v -5.20762h 0.618749v 1.30191h 0.618749v -3.90572h 0.618749v 7.81144h 0.618749v -3.90572h 0.618749v 2.60381h 0.618749v -3.90572h 0.618749v 6.50953h 0.618749v 6.50953h 0.618749v 3.90572h 0.618749v 11.7172h 0.618749v 3.90572h 0.618749v
 2.60381h 1.2375" fill="none" stroke="#000099"/>
<path d="M57.1929,346.022h 453.543" fill="none" stroke="black"/>
<path d="M57.8117,336.795v 9.22726" fill="none" stroke="black"/>
<path d="M78.4366,341.409v 4.61363" fill="none" stroke="black"/>
<path d="M99.0616,341.409v 4.61363" fill="none" stroke="black"/>
<path d="M119.687,341.409v 4.61363" fill="none" stroke="black"/>
<path d="M140.312,341.409v 4.61363" fill="none" stroke="black"/>
<path d="M160.937,336.795v 9.22726" fill="none" stroke="black"/>
<path d="M181.562,341.409v 4.61363" fill="none" stroke="black"/>
<path d="M202.187,341.409v 4.61363" fill="none" stroke="black"/>
<path d="M222.812,341.409v 4.61363" fill="none" stroke="black"/>
<path d="M243.436,341.409v 4.61363" fill="none" stroke="black"/>
<path d="M264.061,336.795v 9.22726" fill="none" stroke="black"/>
<path d="M284.686,341.409v 4.61363" fill="none" stroke="black"/>
<path d="M305.311,341.409v 4.61363" fill="none" stroke="black"/>
<path d="M325.936,341.409v 4.61363" fill="none" stroke="black"/>
<path d="M346.561,341.409v 4.61363" fill="none" stroke="black"/>
<path d="M367.186,336.795v 9.22726" fill="none" stroke="black"/>
<path d="M387.811,341.409v 4.61363" fill="none" stroke="black"/>
<path d="M408.436,341.409v 4.61363" fill="none" stroke="black"/>
<path d="M429.061,341.409v 4.61363" fill="none" stroke="black"/>
<path d="M449.686,341.409v 4.61363" fill="none" stroke="black"/>
<path d="M470.311,336.795v 9.22726" fill="none" stroke="black"/>
<path d="M57.8117,336.795v 9.22726" fill="none" stroke="black"/>
<path d="M470.311,336.795v 9.22726" fill="none" stroke="black"/>
<path d="M490.936,341.409v 4.61363" fill="none" stroke="black"/>
<text xml:space="preserve" x="54.2605" y="358.403" fill="black" font-size="12.8453" font-family="Helvetica">0</text>
<text xml:space="preserve" x="149.563" y="358.403" fill="black" font-size="12.8453" font-family="Helvetica">500</text>
<text xml:space="preserve" x="249.753" y="358.403" fill="black" font-size="12.8453" font-family="Helvetica">1000</text>
<text xml:space="preserve" x="353.202" y="358.403" fill="black" font-size="12.8453" font-family="Helvetica">1500</text>
<text xml:space="preserve" x="455.835" y="358.403" fill="black" font-size="12.8453" font-family="Helvetica">2000</text>
<text xml:space="preserve" x="451.763" y="372.251" fill="black" font-size="12.8453" font-family="Helvetica">ADC value</text>
<path d="M57.1929,346.022v -307.575" fill="none" stroke="black"/>
<path d="M70.7992,346.022h -13.6063" fill="none" stroke="black"/>
<path d="M63.9961,339.513h -6.80315" fill="none" stroke="black"/>
<path d="M63.9961,333.003h -6.80315" fill="none" stroke="black"/>
<path d="M63.9961,326.494h -6.80315" fill="none" stroke="black"/>
<path d="M70.7992,319.984h -13.6063" fill="none" stroke="black"/>
<path d="M63.9961,313.475h -6.80315" fill="none" stroke="black"/>
<path d="M63.9961,306.965h -6.80315" fill="none" stroke="black"/>
<path d="M63.9961,300.456h -6.80315" fill="none" stroke="black"/>
<path d="M70.7992,293.946h -13.6063" fill="none" stroke="black"/>
<path d="M63.9961,287.436h -6.80315" fill="none" stroke="black"/>
<path d="M63.9961,280.927h -6.80315" fill="none" stroke="black"/>
<path d="M63.9961,274.417h -6.80315" fill="none" stroke="black"/>
<path d="M70.7992,267.908h -13.6063" fill="none" stroke="black"/>
<path d="M63.9961,261.398h -6.80315" fill="none" stroke="black"/>
<path d="M63.9961,254.889h -6.80315" fill="none" stroke="black"/>
<path d="M63.9961,248.379h -6.80315" fill="none" stroke="black"/>
<path d="M70.7992,241.87h -13.6063" fill="none" stroke="black"/>
<path d="M63.9961,235.36h -6.80315" fill="none" stroke="black"/>
<path d="M63.9961,228.851h -6.80315" fill="none" stroke="black"/>
<path d="M63.9961,222.341h -6.80315" fill="none" stroke="black"/>
<path d="M70.7992,215.832h -13.6063" fill="none" stroke="black"/>
<path d="M63.9961,209.322h -6.80315" fill="none" stroke="black"/>
<path d="M63.9961,202.813h -6.80315" fill="none" stroke="black"/>
<path d="M63.9961,196.303h -6.80315" fill="none" stroke="black"/>
<path d="M70.7992,189.794h -13.6063" fill="none" stroke="black"/>
<path d="M63.9961,183.284h -6.80315" fill="none" stroke="black"/>
<path d="M63.9961,176.774h -6.80315" fill="none" stroke="black"/>
<path d="M63.9961,170.265h -6.80315" fill="none" stroke="black"/>
<path d="M70.7992,163.755h -13.6063" fill="none" stroke="black"/>
<path d="M63.9961,157.246h -6.80315" fill="none" stroke="black"/>
<path d="M63.9961,150.736h -6.80315" fill="none" stroke="black"/>
<path d="M63.9961,144.227h -6.80315" fill="none" stroke="black"/>
<path d="M70.7992,137.717h -13.6063" fill="none" stroke="black"/>
<path d="M63.9961,131.208h -6.80315" fill="none" stroke="black"/>
<path d="M63.9961,124.698h -6.80315" fill="none" stroke="black"/>
<path d="M63.9961,118.189h -6.80315" fill="none" stroke="black"/>
<path d="M70.7992,111.679h -13.6063" fill="none" stroke="black"/>
<path d="M63.9961,105.17h -6.80315" fill="none" stroke="black"/>
<path d="M63.9961,98.6601h -6.80315" fill="none" stroke="black"/>
<path d="M63.9961,92.1506h -6.80315" fill="none" stroke="black"/>
<path d="M70.7992,85.641h -13.6063" fill="none" stroke="black"/>
<path d="M63.9961,79.1315h -6.80315" fill="none" stroke="black"/>
<path d="M63.9961,72.622h -6.80315" fill="none" stroke="black"/>
<path d="M63.9961,66.1124h -6.80315" fill="none" stroke="black"/>
<path d="M70.7992,59.6029h -13.6063" fill="none" stroke="black"/>
<path d="M70.7992,59.6029h -13.6063" fill="none" stroke="black"/>
<path d="M63.9961,53.0934h -6.80315" fill="none" stroke="black"/>
<path d="M63.9961,46.5838h -6.80315" fill="none" stroke="black"/>
<path d="M63.9961,40.0743h -6.80315" fill="none" stroke="black"/>
<text xml:space="preserve" x="47.7441" y="350.258" fill="black" font-size="12.8453" font-family="Helvetica">0</text>
<text xml:space="preserve" x="41.2277" y="324.192" fill="black" font-size="12.8453" font-family="Helvetica">20</text>
<text xml:space="preserve" x="41.2277" y="298.127" fill="black" font-size="12.8453" font-family="Helvetica">40</text>
<text xml:space="preserve" x="41.2277" y="272.061" fill="black" font-size="12.8453" font-family="Helvetica">60</text>
<text xml:space="preserve" x="41.2277" y="245.995" fill="black" font-size="12.8453" font-family="Helvetica">80</text>
<text xml:space="preserve" x="33.8967" y="219.929" fill="black" font-size="12.8453" font-family="Helvetica">100</text>
<text xml:space="preserve" x="33.8967" y="194.678" fill="black" font-size="12.8453" font-family="Helvetica">120</text>
<text xml:space="preserve" x="33.8967" y="168.613" fill="black" font-size="12.8453" font-family="Helvetica">140</text>
<text xml:space="preserve" x="33.8967" y="142.547" fill="black" font-size="12.8453" font-family="Helvetica">160</text>
<text xml:space="preserve" x="33.8967" y="116.481" fill="black" font-size="12.8453" font-family="Helvetica">180</text>
<text xml:space="preserve" x="33.8967" y="90.4154" fill="black" font-size="12.8453" font-family="Helvetica">200</text>
<text xml:space="preserve" x="33.8967" y="64.3497" fill="black" font-size="12.8453" font-family="Helvetica">220</text>
<g transform="rotate(-90,20.8638,70.0516)">
<text xml:space="preserve" x="20.8638" y="70.0516" fill="black" font-size="12.8453" font-family="Helvetica">Event</text>
</g>
<text xml:space="preserve" x="253.012" y="18.7347" fill="black" font-size="18.0316" font-family="Helvetica">Cs_009</text>
<rect x="442.705" y="24.9905" width="113.386" height="61.5151" fill="white"/>
<path d="M442.705,86.5056h 113.386" fill="none" stroke="black"/>
<path d="M556.091,86.5056v -61.5151" fill="none" stroke="black"/>
<path d="M556.091,24.9905h -113.386" fill="none" stroke="black"/>
<path d="M442.705,24.9905v 61.5151" fill="none" stroke="black"/>
<text xml:space="preserve" x="476.199" y="36.6549" fill="black" font-size="13.4802" font-family="Helvetica">Cs_009</text>
<path d="M442.705,40.3693h 113.386" fill="none" stroke="black"/>
<text xml:space="preserve" x="447.69" y="52.946" fill="black" font-size="13.0654" font-family="Helvetica">Entries </text>
<text xml:space="preserve" x="517.741" y="52.946" fill="black" font-size="13.0654" font-family="Helvetica"> 5042</text>
<text xml:space="preserve" x="447.69" y="67.6079" fill="black" font-size="13.0654" font-family="Helvetica">Mean  </text>
<text xml:space="preserve" x="510.41" y="67.6079" fill="black" font-size="13.0654" font-family="Helvetica">   1443</text>
<text xml:space="preserve" x="447.69" y="83.0844" fill="black" font-size="13.0654" font-family="Helvetica">Std Dev   </text>
<text xml:space="preserve" x="512.854" y="83.899" fill="black" font-size="13.0654" font-family="Helvetica">  724.1</text>
<text xml:space="preserve" x="253.012" y="18.7347" fill="black" font-size="18.0316" font-family="Helvetica">Cs_009</text></svg>
