<?xml version="1.0" standalone="no"?>
<svg width="567.429" height="384.969" viewBox="0 0 567.429 384.969" xmlns="http://www.w3.org/2000/svg" shape-rendering="crispEdges">
<title>
img/week1/plane_hist/Cs_015.svg
</title>
<desc>
Creator: ROOT Version 6.22/09
CreationDate: Tue Jul 13 11:01:03 2021</desc>
<defs>
</defs>
<rect x="0.5" y="0" width="566.929" height="384.469" fill="white"/>
<rect x="57.1929" y="38.4469" width="453.543" height="307.575" fill="white"/>
<rect x="57.1929" y="38.4469" width="453.543" height="307.575" fill="none" stroke="black"/>
<path d="M57.1929,346.022h 61.9009v -0.0393035h 0.595201v -0.668159h 0.595201v -7.38906h 0.595201v -10.6119h 0.595201v 0.943284h 0.595201v 2.79055h 0.595201v 2.67264h 0.595201v 0.471642h 0.595201v 1.37562h 0.595201v 1.65075h 0.595201v 2.47612h
 0.595201v 0.943284h 0.595201v -0.707463h 0.595201v 1.25771h 0.595201v 0.550249h 0.595201v 0.943284h 0.595201v -0.550249h 0.595201v 0.628856h 0.595201v -0.11791h 0.595201v 0.982587h 0.595201v 0.628856h 0.595201v -1.02189h 0.595201v 0.78607h 0.595201v
 -0.550249h 0.595201v 0.746766h 0.595201v -0.432338h 0.595201v -0.196517h 0.595201v 0.510945h 0.595201v 0.471642h 0.595201v -0.314428h 0.595201v -0.825373h 0.595201v 0.11791h 0.595201v 0.707463h 0.595201v 0.235821h 0.595201v -0.275124h 0.595201v
 -0.746766h 0.595201v 0.628856h 0.595201v 0.157214h 0.595201v 0.157214h 0.595201v 0.078607h 0.595201v -0.471642h 0.595201v -0.157214h 0.595201v 0.393035h 0.595201v 0.589552h 0.595201v -0.982587h 0.595201v 0.628856h 0.595201v -0.275124h 0.595201v
 0.196517h 0.595201v 0.078607h 0.595201v -0.078607h 0.595201v -0.157214h 0.595201v -0.235821h 0.595201v 0.275124h 0.595201v 0.196517h 0.595201v -0.432338h 0.595201v 0.11791h 0.595201v -0.432338h 0.595201v 0.314428h 0.595201v 0.157214h 0.595201v
 -0.589552h 0.595201v 0.943284h 0.595201v -0.510945h 0.595201v -0.0393035h 0.595201v 0.510945h 0.595201v -0.314428h 0.595201v 0.510945h 0.595201v -0.0393035h 0.595201v -0.432338h 0.595201v -0.550249h 1.1904v 0.628856h 0.595201v 0.275124h 1.1904v
 -0.314428h 0.595201v -0.314428h 0.595201v -0.0393035h 0.595201v 0.393035h 0.595201v -0.235821h 0.595201v 0.11791h 0.595201v -0.157214h 0.595201v 0.275124h 0.595201v -0.11791h 0.595201v -0.275124h 0.595201v 0.196517h 0.595201v 0.157214h 0.595201v
 0.275124h 0.595201v -0.589552h 0.595201v 0.314428h 0.595201v -0.471642h 0.595201v 0.746766h 0.595201v -0.235821h 0.595201v -0.235821h 0.595201v -0.196517h 0.595201v 0.11791h 0.595201v 0.707463h 0.595201v -0.589552h 0.595201v 0.275124h 1.1904v
 -0.393035h 0.595201v 0.393035h 0.595201v -0.314428h 0.595201v -0.353731h 0.595201v 0.707463h 0.595201v 0.196517h 0.595201v -0.235821h 0.595201v 0.157214h 0.595201v -0.11791h 0.595201v -0.235821h 0.595201v 0.235821h 0.595201v -0.11791h 0.595201v
 0.196517h 0.595201v -0.432338h 0.595201v 0.157214h 0.595201v 0.432338h 0.595201v -0.432338h 0.595201v -0.157214h 0.595201v 0.432338h 0.595201v -0.746766h 0.595201v 0.196517h 0.595201v 0.275124h 0.595201v 0.314428h 0.595201v -0.11791h 0.595201v
 0.196517h 1.1904v -0.550249h 0.595201v 0.393035h 0.595201v 0.393035h 0.595201v -0.275124h 0.595201v -0.275124h 0.595201v -0.078607h 1.1904v 0.628856h 0.595201v -0.393035h 0.595201v -0.550249h 0.595201v 0.235821h 0.595201v 0.628856h 0.595201v
 -0.157214h 0.595201v -0.432338h 0.595201v 0.510945h 0.595201v -0.432338h 0.595201v 0.11791h 0.595201v 0.235821h 0.595201v 0.0393035h 0.595201v -0.314428h 0.595201v -0.078607h 0.595201v 0.353731h 0.595201v 0.196517h 0.595201v -0.353731h 0.595201v
 0.078607h 0.595201v 0.393035h 0.595201v -0.235821h 0.595201v -0.275124h 0.595201v 0.0393035h 0.595201v 0.471642h 0.595201v -0.0393035h 0.595201v -0.393035h 0.595201v 0.275124h 0.595201v -0.275124h 0.595201v -0.078607h 0.595201v 0.314428h 0.595201v
 0.0393035h 0.595201v -0.746766h 0.595201v 0.393035h 0.595201v 0.157214h 1.1904v 0.157214h 0.595201v -0.196517h 0.595201v 0.078607h 0.595201v -0.196517h 0.595201v 0.157214h 0.595201v -0.11791h 0.595201v 0.275124h 0.595201v -0.589552h 0.595201v
 0.157214h 0.595201v 0.432338h 0.595201v -0.471642h 1.1904v 0.078607h 0.595201v 0.078607h 0.595201v 0.432338h 0.595201v -0.393035h 0.595201v 0.078607h 0.595201v 0.0393035h 0.595201v 0.235821h 0.595201v -0.275124h 0.595201v 0.196517h 0.595201v
 -0.078607h 0.595201v 0.471642h 0.595201v -0.353731h 0.595201v -0.11791h 0.595201v -0.628856h 0.595201v 0.471642h 0.595201v 0.275124h 0.595201v -0.275124h 0.595201v -0.157214h 0.595201v 0.0393035h 0.595201v 0.550249h 0.595201v -0.510945h 1.1904v
 0.078607h 0.595201v -0.157214h 0.595201v 0.471642h 0.595201v -0.825373h 0.595201v 0.314428h 0.595201v -0.0393035h 0.595201v 0.432338h 0.595201v 0.235821h 0.595201v -0.196517h 0.595201v 0.11791h 0.595201v -0.078607h 0.595201v 0.471642h 0.595201v
 -0.707463h 0.595201v 0.235821h 0.595201v 0.11791h 0.595201v -0.275124h 0.595201v -0.353731h 0.595201v 0.196517h 0.595201v -0.275124h 0.595201v -0.078607h 0.595201v 0.432338h 0.595201v 0.550249h 0.595201v -0.943284h 0.595201v 0.0393035h 0.595201v
 0.275124h 0.595201v 0.628856h 0.595201v -0.746766h 0.595201v -0.157214h 0.595201v 0.235821h 0.595201v 0.157214h 0.595201v 0.432338h 0.595201v -0.432338h 0.595201v -0.393035h 0.595201v -0.078607h 0.595201v 0.90398h 0.595201v -0.471642h 0.595201v
 0.11791h 0.595201v -0.11791h 0.595201v 0.235821h 0.595201v 0.393035h 0.595201v -0.432338h 0.595201v -0.550249h 0.595201v 0.510945h 1.1904v -0.11791h 0.595201v -0.11791h 0.595201v 0.235821h 0.595201v -0.078607h 0.595201v 0.0393035h 0.595201v
 0.393035h 0.595201v -0.628856h 0.595201v 0.432338h 0.595201v -0.393035h 0.595201v 0.275124h 0.595201v -0.432338h 0.595201v 0.0393035h 0.595201v 0.432338h 0.595201v -0.235821h 0.595201v -0.157214h 0.595201v 0.11791h 0.595201v -0.353731h 0.595201v
 0.353731h 0.595201v -0.235821h 0.595201v -0.11791h 0.595201v -0.275124h 0.595201v 0.11791h 0.595201v 0.157214h 0.595201v 0.235821h 0.595201v -0.707463h 0.595201v 0.432338h 0.595201v 0.275124h 0.595201v -0.275124h 0.595201v 0.432338h 0.595201v
 -0.510945h 0.595201v -0.314428h 0.595201v 0.628856h 0.595201v -0.078607h 0.595201v 0.353731h 0.595201v -0.78607h 0.595201v -0.393035h 0.595201v 0.275124h 0.595201v 0.196517h 0.595201v 0.0393035h 0.595201v -1.1398h 0.595201v 0.432338h 0.595201v
 0.628856h 0.595201v -0.314428h 0.595201v 0.078607h 0.595201v -0.982587h 0.595201v 0.432338h 0.595201v 0.235821h 0.595201v 0.550249h 0.595201v -1.21841h 0.595201v 0.707463h 0.595201v -0.510945h 0.595201v 0.11791h 0.595201v 0.0393035h 0.595201v
 -0.864677h 0.595201v 0.432338h 0.595201v 0.628856h 0.595201v 0.707463h 0.595201v -1.06119h 0.595201v -0.78607h 0.595201v 0.825373h 0.595201v 0.11791h 0.595201v 0.235821h 0.595201v 0.196517h 0.595201v -0.628856h 0.595201v -0.078607h 0.595201v
 0.628856h 0.595201v -0.078607h 0.595201v -0.746766h 0.595201v 0.196517h 0.595201v 0.510945h 0.595201v -0.235821h 0.595201v -0.314428h 0.595201v -0.11791h 0.595201v 0.78607h 0.595201v -0.0393035h 0.595201v -0.78607h 0.595201v 0.275124h 0.595201v
 0.510945h 1.1904v 0.589552h 0.595201v -0.589552h 0.595201v 0.0393035h 0.595201v -0.196517h 0.595201v 0.550249h 0.595201v -0.0393035h 0.595201v -0.943284h 0.595201v 0.353731h 0.595201v -0.11791h 0.595201v 0.982587h 0.595201v -0.589552h 0.595201v
 -0.196517h 0.595201v 0.589552h 0.595201v 0.353731h 0.595201v -0.510945h 0.595201v -0.11791h 0.595201v 0.11791h 0.595201v 0.314428h 0.595201v 0.314428h 0.595201v -0.235821h 0.595201v -0.275124h 0.595201v 0.393035h 0.595201v 0.393035h 0.595201v
 -0.707463h 0.595201v 0.353731h 0.595201v -0.157214h 0.595201v -0.825373h 0.595201v 1.1005h 0.595201v -0.0393035h 0.595201v -0.078607h 0.595201v 0.628856h 0.595201v -0.550249h 0.595201v 0.196517h 0.595201v 0.11791h 0.595201v -0.078607h 0.595201v
 -0.0393035h 0.595201v -0.314428h 0.595201v 0.196517h 0.595201v -0.510945h 0.595201v 0.11791h 0.595201v 0.078607h 0.595201v 0.78607h 0.595201v -0.078607h 0.595201v -0.078607h 0.595201v -0.432338h 1.1904v 0.471642h 0.595201v -0.235821h 0.595201v
 -0.078607h 0.595201v -0.078607h 0.595201v 0.078607h 0.595201v 0.471642h 0.595201v -0.707463h 0.595201v 0.353731h 0.595201v 0.196517h 0.595201v 0.235821h 0.595201v -0.0393035h 0.595201v -0.825373h 0.595201v 0.078607h 0.595201v 0.90398h 0.595201v
 -0.550249h 0.595201v -0.314428h 0.595201v 0.275124h 1.1904v 0.314428h 0.595201v -0.275124h 0.595201v -0.11791h 1.1904v 0.432338h 0.595201v 0.078607h 0.595201v -0.746766h 0.595201v 0.825373h 0.595201v -0.550249h 0.595201v 0.314428h 0.595201v
 0.0393035h 0.595201v -0.510945h 0.595201v 0.0393035h 0.595201v 0.0393035h 0.595201v 0.11791h 1.1904v -0.11791h 0.595201v 0.11791h 0.595201v -0.550249h 0.595201v 0.589552h 0.595201v -0.353731h 0.595201v 0.550249h 0.595201v -0.668159h 0.595201v
 0.628856h 0.595201v 0.11791h 0.595201v -0.746766h 0.595201v 0.157214h 0.595201v 0.275124h 0.595201v 0.275124h 0.595201v -0.353731h 0.595201v -0.314428h 0.595201v 0.393035h 0.595201v -0.628856h 0.595201v 0.628856h 0.595201v -0.196517h 0.595201v
 -0.668159h 0.595201v 0.746766h 0.595201v -0.825373h 0.595201v 1.06119h 0.595201v -0.943284h 1.1904v 0.196517h 0.595201v 0.157214h 0.595201v -0.275124h 1.1904v 0.078607h 0.595201v 0.275124h 1.1904v -0.432338h 1.7856v -0.510945h 0.595201v 0.0393035h
 0.595201v 0.11791h 0.595201v -0.0393035h 0.595201v -0.471642h 0.595201v 0.864677h 0.595201v -0.707463h 0.595201v -0.157214h 0.595201v -0.353731h 0.595201v -0.078607h 0.595201v 0.707463h 0.595201v -1.1791h 0.595201v -0.11791h 1.1904v 0.314428h
 0.595201v 0.393035h 0.595201v -1.53284h 0.595201v 0.353731h 0.595201v -0.707463h 0.595201v 1.76866h 0.595201v -0.943284h 0.595201v -2.04378h 0.595201v 1.80796h 0.595201v -0.707463h 0.595201v 1.25771h 0.595201v -0.510945h 0.595201v -1.69005h
 0.595201v 0.235821h 0.595201v 0.550249h 0.595201v -0.432338h 0.595201v -0.589552h 1.1904v -0.11791h 0.595201v 0.314428h 0.595201v -0.157214h 0.595201v -0.510945h 0.595201v -1.1398h 0.595201v 1.21841h 0.595201v 0.275124h 0.595201v -1.88657h 0.595201v
 -0.510945h 0.595201v 0.943284h 0.595201v 1.49353h 0.595201v -1.1005h 0.595201v -0.78607h 0.595201v -0.90398h 0.595201v 0.90398h 0.595201v 1.06119h 0.595201v -2.47612h 0.595201v -0.90398h 0.595201v 1.1791h 0.595201v 1.45423h 0.595201v 0.432338h
 0.595201v -0.746766h 0.595201v -2.39751h 0.595201v 1.41493h 0.595201v 0.393035h 0.595201v 0.353731h 0.595201v -2.201h 0.595201v 1.45423h 0.595201v 0.943284h 0.595201v 1.41493h 0.595201v -2.31891h 0.595201v -0.78607h 0.595201v 0.746766h 0.595201v
 0.746766h 0.595201v 0.825373h 0.595201v -0.314428h 0.595201v -1.41493h 0.595201v 1.49353h 0.595201v 0.157214h 0.595201v 0.314428h 0.595201v -0.825373h 0.595201v -0.707463h 0.595201v 0.668159h 0.595201v 2.00448h 0.595201v -0.589552h 0.595201v
 -0.393035h 0.595201v 0.471642h 0.595201v 0.668159h 0.595201v 1.1005h 0.595201v -1.25771h 0.595201v -0.707463h 0.595201v 0.78607h 0.595201v 1.02189h 0.595201v 1.02189h 0.595201v -1.33632h 0.595201v 0.353731h 0.595201v 0.393035h 0.595201v 1.02189h
 0.595201v -0.982587h 0.595201v -0.864677h 0.595201v 1.88657h 0.595201v 0.078607h 0.595201v 0.078607h 0.595201v -0.314428h 0.595201v 0.707463h 0.595201v -0.510945h 0.595201v 0.90398h 0.595201v 0.196517h 0.595201v -1.49353h 0.595201v 1.45423h 1.1904v
 0.628856h 0.595201v -0.589552h 0.595201v 0.943284h 0.595201v -0.589552h 0.595201v 0.707463h 0.595201v -1.45423h 0.595201v 0.628856h 0.595201v -0.432338h 0.595201v 0.589552h 0.595201v 0.353731h 0.595201v -0.157214h 0.595201v -0.353731h 0.595201v
 0.471642h 0.595201v -0.196517h 0.595201v 0.510945h 0.595201v -0.78607h 0.595201v 0.353731h 0.595201v 0.196517h 0.595201v 0.078607h 0.595201v 0.235821h 0.595201v -0.157214h 0.595201v -0.746766h 0.595201v 0.589552h 0.595201v 0.510945h 0.595201v
 -1.21841h 0.595201v 0.746766h 0.595201v -0.314428h 0.595201v 0.11791h 0.595201v -0.078607h 0.595201v -0.589552h 0.595201v -0.432338h 0.595201v -1.65075h 0.595201v -3.3801h 0.595201v -62.1388h 0.595201v -222.261h 0.595201v 57.1866h 0.595201v 89.2582h
 0.595201v 7.15323h 0.595201v -7.19254h 0.595201v 33.6045h 0.595201v 36.2771h 0.595201v 29.7527h 0.595201v 5.50249h 0.595201v -0.471642h 0.595201v 2.39751h 0.595201v 4.08756h 0.595201v 3.22289h 0.595201v -4.63781h 0.595201v -0.353731h 0.595201v
 1.49353h 0.595201v 5.22736h 0.595201v 0.746766h 0.595201v -4.36269h 0.595201v 1.69005h 0.595201v 0.11791h 0.595201v 5.34527h 0.595201v -2.16169h 0.595201v -4.44129h 0.595201v 0.90398h 0.595201v 1.57214h 0.595201v 3.96965h 0.595201v -7.19254h
 0.595201v 1.84726h 0.595201v -0.471642h 0.595201v 4.12687h 0.595201v -0.432338h 0.595201v -3.57662h 0.595201v 1.02189h 0.595201v 0.510945h 0.595201v 8.33234h 0.595201v -5.6597h 0.595201v 0.90398h 0.595201v 4.63781h 0.595201v 6.7995h 0.595201v
 5.6597h 0.595201v 2.201h 0.595201v 4.95224h 0.595201v 2.08308h 0.595201v 0.982587h 0.595201v 0.314428h 7.14241v -0.0393035h 0.595201v 0.0393035h 14.88v -0.0393035h 0.595201" fill="none" stroke="#000099"/>
<path d="M57.1929,346.022h 453.543" fill="none" stroke="black"/>
<path d="M57.7881,336.795v 9.22726" fill="none" stroke="black"/>
<path d="M77.6282,341.409v 4.61363" fill="none" stroke="black"/>
<path d="M97.4682,341.409v 4.61363" fill="none" stroke="black"/>
<path d="M117.308,341.409v 4.61363" fill="none" stroke="black"/>
<path d="M137.148,341.409v 4.61363" fill="none" stroke="black"/>
<path d="M156.988,336.795v 9.22726" fill="none" stroke="black"/>
<path d="M176.828,341.409v 4.61363" fill="none" stroke="black"/>
<path d="M196.668,341.409v 4.61363" fill="none" stroke="black"/>
<path d="M216.508,341.409v 4.61363" fill="none" stroke="black"/>
<path d="M236.348,341.409v 4.61363" fill="none" stroke="black"/>
<path d="M256.189,336.795v 9.22726" fill="none" stroke="black"/>
<path d="M276.029,341.409v 4.61363" fill="none" stroke="black"/>
<path d="M295.869,341.409v 4.61363" fill="none" stroke="black"/>
<path d="M315.709,341.409v 4.61363" fill="none" stroke="black"/>
<path d="M335.549,341.409v 4.61363" fill="none" stroke="black"/>
<path d="M355.389,336.795v 9.22726" fill="none" stroke="black"/>
<path d="M375.229,341.409v 4.61363" fill="none" stroke="black"/>
<path d="M395.069,341.409v 4.61363" fill="none" stroke="black"/>
<path d="M414.909,341.409v 4.61363" fill="none" stroke="black"/>
<path d="M434.749,341.409v 4.61363" fill="none" stroke="black"/>
<path d="M454.589,336.795v 9.22726" fill="none" stroke="black"/>
<path d="M57.7881,336.795v 9.22726" fill="none" stroke="black"/>
<path d="M454.589,336.795v 9.22726" fill="none" stroke="black"/>
<path d="M474.429,341.409v 4.61363" fill="none" stroke="black"/>
<path d="M494.269,341.409v 4.61363" fill="none" stroke="black"/>
<text xml:space="preserve" x="54.2605" y="358.403" fill="black" font-size="12.8453" font-family="Helvetica">0</text>
<text xml:space="preserve" x="146.305" y="358.403" fill="black" font-size="12.8453" font-family="Helvetica">500</text>
<text xml:space="preserve" x="241.608" y="358.403" fill="black" font-size="12.8453" font-family="Helvetica">1000</text>
<text xml:space="preserve" x="340.983" y="358.403" fill="black" font-size="12.8453" font-family="Helvetica">1500</text>
<text xml:space="preserve" x="440.359" y="358.403" fill="black" font-size="12.8453" font-family="Helvetica">2000</text>
<text xml:space="preserve" x="451.763" y="372.251" fill="black" font-size="12.8453" font-family="Helvetica">ADC value</text>
<path d="M57.1929,346.022v -307.575" fill="none" stroke="black"/>
<path d="M70.7992,346.022h -13.6063" fill="none" stroke="black"/>
<path d="M63.9961,338.162h -6.80315" fill="none" stroke="black"/>
<path d="M63.9961,330.301h -6.80315" fill="none" stroke="black"/>
<path d="M63.9961,322.44h -6.80315" fill="none" stroke="black"/>
<path d="M63.9961,314.579h -6.80315" fill="none" stroke="black"/>
<path d="M70.7992,306.719h -13.6063" fill="none" stroke="black"/>
<path d="M63.9961,298.858h -6.80315" fill="none" stroke="black"/>
<path d="M63.9961,290.997h -6.80315" fill="none" stroke="black"/>
<path d="M63.9961,283.137h -6.80315" fill="none" stroke="black"/>
<path d="M63.9961,275.276h -6.80315" fill="none" stroke="black"/>
<path d="M70.7992,267.415h -13.6063" fill="none" stroke="black"/>
<path d="M63.9961,259.555h -6.80315" fill="none" stroke="black"/>
<path d="M63.9961,251.694h -6.80315" fill="none" stroke="black"/>
<path d="M63.9961,243.833h -6.80315" fill="none" stroke="black"/>
<path d="M63.9961,235.972h -6.80315" fill="none" stroke="black"/>
<path d="M70.7992,228.112h -13.6063" fill="none" stroke="black"/>
<path d="M63.9961,220.251h -6.80315" fill="none" stroke="black"/>
<path d="M63.9961,212.39h -6.80315" fill="none" stroke="black"/>
<path d="M63.9961,204.53h -6.80315" fill="none" stroke="black"/>
<path d="M63.9961,196.669h -6.80315" fill="none" stroke="black"/>
<path d="M70.7992,188.808h -13.6063" fill="none" stroke="black"/>
<path d="M63.9961,180.948h -6.80315" fill="none" stroke="black"/>
<path d="M63.9961,173.087h -6.80315" fill="none" stroke="black"/>
<path d="M63.9961,165.226h -6.80315" fill="none" stroke="black"/>
<path d="M63.9961,157.366h -6.80315" fill="none" stroke="black"/>
<path d="M70.7992,149.505h -13.6063" fill="none" stroke="black"/>
<path d="M63.9961,141.644h -6.80315" fill="none" stroke="black"/>
<path d="M63.9961,133.783h -6.80315" fill="none" stroke="black"/>
<path d="M63.9961,125.923h -6.80315" fill="none" stroke="black"/>
<path d="M63.9961,118.062h -6.80315" fill="none" stroke="black"/>
<path d="M70.7992,110.201h -13.6063" fill="none" stroke="black"/>
<path d="M63.9961,102.341h -6.80315" fill="none" stroke="black"/>
<path d="M63.9961,94.4799h -6.80315" fill="none" stroke="black"/>
<path d="M63.9961,86.6192h -6.80315" fill="none" stroke="black"/>
<path d="M63.9961,78.7585h -6.80315" fill="none" stroke="black"/>
<path d="M70.7992,70.8978h -13.6063" fill="none" stroke="black"/>
<path d="M70.7992,70.8978h -13.6063" fill="none" stroke="black"/>
<path d="M63.9961,63.0371h -6.80315" fill="none" stroke="black"/>
<path d="M63.9961,55.1764h -6.80315" fill="none" stroke="black"/>
<path d="M63.9961,47.3158h -6.80315" fill="none" stroke="black"/>
<path d="M63.9961,39.4551h -6.80315" fill="none" stroke="black"/>
<text xml:space="preserve" x="47.7441" y="350.258" fill="black" font-size="12.8453" font-family="Helvetica">0</text>
<text xml:space="preserve" x="27.3803" y="311.159" fill="black" font-size="12.8453" font-family="Helvetica">1000</text>
<text xml:space="preserve" x="27.3803" y="272.061" fill="black" font-size="12.8453" font-family="Helvetica">2000</text>
<text xml:space="preserve" x="27.3803" y="232.962" fill="black" font-size="12.8453" font-family="Helvetica">3000</text>
<text xml:space="preserve" x="27.3803" y="193.049" fill="black" font-size="12.8453" font-family="Helvetica">4000</text>
<text xml:space="preserve" x="27.3803" y="153.951" fill="black" font-size="12.8453" font-family="Helvetica">5000</text>
<text xml:space="preserve" x="27.3803" y="114.852" fill="black" font-size="12.8453" font-family="Helvetica">6000</text>
<text xml:space="preserve" x="27.3803" y="75.7535" fill="black" font-size="12.8453" font-family="Helvetica">7000</text>
<g transform="rotate(-90,14.3474,70.0516)">
<text xml:space="preserve" x="14.3474" y="70.0516" fill="black" font-size="12.8453" font-family="Helvetica">Event</text>
</g>
<text xml:space="preserve" x="253.012" y="18.7347" fill="black" font-size="18.0316" font-family="Helvetica">Cs_015</text>
<rect x="442.705" y="24.9905" width="113.386" height="61.5151" fill="white"/>
<path d="M442.705,86.5056h 113.386" fill="none" stroke="black"/>
<path d="M556.091,86.5056v -61.5151" fill="none" stroke="black"/>
<path d="M556.091,24.9905h -113.386" fill="none" stroke="black"/>
<path d="M442.705,24.9905v 61.5151" fill="none" stroke="black"/>
<text xml:space="preserve" x="476.199" y="36.6549" fill="black" font-size="13.4802" font-family="Helvetica">Cs_015</text>
<path d="M442.705,40.3693h 113.386" fill="none" stroke="black"/>
<text xml:space="preserve" x="447.69" y="52.946" fill="black" font-size="12.3904" font-family="Helvetica">Entries </text>
<text xml:space="preserve" x="506.338" y="52.946" fill="black" font-size="12.3904" font-family="Helvetica"> 100820</text>
<text xml:space="preserve" x="447.69" y="67.6079" fill="black" font-size="12.3904" font-family="Helvetica">Mean  </text>
<text xml:space="preserve" x="515.298" y="67.6079" fill="black" font-size="12.3904" font-family="Helvetica">   1751</text>
<text xml:space="preserve" x="447.69" y="83.0844" fill="black" font-size="12.3904" font-family="Helvetica">Std Dev   </text>
<text xml:space="preserve" x="512.854" y="83.0844" fill="black" font-size="12.3904" font-family="Helvetica">  514.6</text>
<text xml:space="preserve" x="253.012" y="18.7347" fill="black" font-size="18.0316" font-family="Helvetica">Cs_015</text></svg>
