<?xml version="1.0" standalone="no"?>
<svg width="567.429" height="384.969" viewBox="0 0 567.429 384.969" xmlns="http://www.w3.org/2000/svg" shape-rendering="crispEdges">
<title>
img/week1/plane_hist/Cs_002.svg
</title>
<desc>
Creator: ROOT Version 6.22/09
CreationDate: Thu Jul  8 17:31:51 2021</desc>
<defs>
</defs>
<rect x="0.5" y="0" width="566.929" height="384.469" fill="white"/>
<rect x="57.1929" y="38.4469" width="453.543" height="307.575" fill="white"/>
<rect x="57.1929" y="38.4469" width="453.543" height="307.575" fill="none" stroke="black"/>
<path d="M57.1929,346.022h 74.5378v -0.747268h 0.631676v -1.86817h 0.631676v -1.49454h 0.631676v -1.86817h 0.631676v 0.747268h 0.631676v -1.49454h 0.631676v 2.98907h 0.631676v -1.1209h 0.631676v 0.747268h 0.631676v -2.2418h 0.631676v 1.49454h
 0.631676v 1.1209h 0.631676v -2.98907h 0.631676v 0.747268h 0.631676v 1.86817h 0.631676v -1.49454h 0.631676v 1.86817h 0.631676v -2.2418h 0.631676v 0.373634h 0.631676v -0.747268h 0.631676v -1.49454h 1.26335v -2.2418h 0.631676v 0.373634h 1.26335v
 -1.86817h 0.631676v 4.10997h 0.631676v -2.2418h 0.631676v -3.73634h 0.631676v -0.747268h 0.631676v 2.98907h 0.631676v -5.97814h 0.631676v 5.23087h 0.631676v -1.86817h 0.631676v 4.85724h 0.631676v -5.23087h 0.631676v 1.49454h 0.631676v 1.1209h
 0.631676v 3.73634h 0.631676v -4.85724h 0.631676v 2.61544h 1.26335v 1.49454h 0.631676v 0.373634h 0.631676v 2.61544h 0.631676v -3.73634h 0.631676v 1.1209h 0.631676v -0.747268h 0.631676v 1.49454h 0.631676v -1.49454h 0.631676v 4.10997h 0.631676v
 -3.3627h 0.631676v 1.86817h 0.631676v 0.747268h 0.631676v 0.747268h 0.631676v -3.73634h 0.631676v 3.3627h 0.631676v -0.373634h 0.631676v -2.98907h 0.631676v 3.3627h 0.631676v -2.2418h 0.631676v 0.373634h 0.631676v 3.3627h 0.631676v -1.49454h
 0.631676v -1.1209h 0.631676v 1.49454h 0.631676v -2.98907h 0.631676v 1.49454h 0.631676v -0.373634h 0.631676v -1.1209h 0.631676v 3.3627h 0.631676v -1.1209h 0.631676v -2.98907h 0.631676v 1.1209h 0.631676v 1.49454h 0.631676v 1.1209h 0.631676v -0.747268h
 0.631676v -3.73634h 0.631676v 2.2418h 0.631676v -2.61544h 1.26335v -1.49454h 0.631676v -4.85724h 0.631676v 1.1209h 0.631676v 0.373634h 0.631676v 0.747268h 0.631676v -7.47268h 0.631676v 2.61544h 0.631676v 2.2418h 0.631676v -4.48361h 0.631676v
 4.85724h 0.631676v -8.21994h 0.631676v -3.3627h 0.631676v 1.86817h 0.631676v -2.98907h 1.26335v -5.23087h 0.631676v 4.10997h 0.631676v 3.3627h 0.631676v -4.48361h 0.631676v 1.1209h 0.631676v -2.98907h 0.631676v 4.10997h 0.631676v -3.3627h 0.631676v
 3.3627h 0.631676v 0.747268h 0.631676v 1.86817h 0.631676v 2.98907h 0.631676v 1.1209h 0.631676v -2.2418h 0.631676v 4.85724h 0.631676v -0.747268h 0.631676v 7.09904h 0.631676v -0.747268h 0.631676v -4.85724h 0.631676v 2.61544h 0.631676v 4.10997h
 0.631676v 0.373634h 0.631676v -1.86817h 0.631676v 4.10997h 0.631676v -3.3627h 0.631676v 4.48361h 0.631676v -0.747268h 0.631676v 2.98907h 0.631676v -5.97814h 0.631676v 3.73634h 0.631676v -0.373634h 0.631676v 1.49454h 0.631676v -2.2418h 0.631676v
 2.2418h 0.631676v -1.86817h 0.631676v 1.49454h 0.631676v -4.48361h 0.631676v 3.3627h 0.631676v 4.48361h 0.631676v -4.48361h 0.631676v 0.747268h 0.631676v 0.747268h 0.631676v -0.373634h 0.631676v 0.373634h 0.631676v 3.73634h 0.631676v -4.85724h
 0.631676v 3.73634h 0.631676v -2.2418h 0.631676v 2.98907h 0.631676v -1.86817h 1.26335v 2.2418h 0.631676v -1.49454h 0.631676v 3.3627h 0.631676v -2.2418h 0.631676v 1.49454h 0.631676v 0.373634h 0.631676v -0.747268h 0.631676v -0.747268h 0.631676v
 1.49454h 0.631676v 0.747268h 0.631676v -1.1209h 0.631676v 0.373634h 0.631676v -0.747268h 0.631676v 0.747268h 0.631676v -0.747268h 0.631676v -0.747268h 1.26335v 2.2418h 0.631676v -1.49454h 1.89503v -0.373634h 0.631676v 0.373634h 0.631676v -2.61544h
 0.631676v 3.3627h 0.631676v 0.747268h 0.631676v -1.49454h 0.631676v -1.86817h 0.631676v 3.3627h 0.631676v -2.61544h 0.631676v 1.49454h 0.631676v -0.747268h 0.631676v -1.1209h 0.631676v 2.98907h 0.631676v -1.1209h 0.631676v 0.373634h 0.631676v
 -1.49454h 0.631676v 0.373634h 0.631676v -0.373634h 0.631676v 1.86817h 0.631676v -0.373634h 0.631676v -0.373634h 0.631676v -0.747268h 0.631676v 1.49454h 0.631676v -1.49454h 1.26335v 0.747268h 1.26335v 0.373634h 1.26335v -1.49454h 0.631676v 1.86817h
 0.631676v -0.373634h 1.89503v -0.747268h 0.631676v 1.1209h 0.631676v -1.49454h 0.631676v 1.86817h 0.631676v -1.49454h 0.631676v 0.373634h 1.26335v 1.1209h 0.631676v -1.86817h 1.89503v -0.747268h 0.631676v 2.61544h 1.89503v -1.86817h 0.631676v
 0.747268h 0.631676v 0.373634h 0.631676v 0.373634h 0.631676v -2.61544h 0.631676v 1.86817h 1.26335v -0.747268h 1.26335v -2.2418h 0.631676v 3.73634h 0.631676v -1.1209h 1.26335v 0.373634h 0.631676v 0.373634h 0.631676v 0.747268h 0.631676v -0.747268h
 0.631676v 0.373634h 0.631676v -1.86817h 0.631676v 1.1209h 0.631676v 1.1209h 0.631676v -1.86817h 0.631676v 1.86817h 0.631676v -1.49454h 1.26335v 0.373634h 1.26335v -0.373634h 0.631676v -0.747268h 0.631676v 1.1209h 0.631676v -0.747268h 0.631676v
 1.1209h 0.631676v 0.373634h 0.631676v -0.747268h 0.631676v 1.1209h 1.26335v -0.747268h 1.26335v 0.747268h 0.631676v -0.747268h 1.26335v -0.747268h 0.631676v 1.86817h 0.631676v -1.1209h 0.631676v -1.49454h 0.631676v 1.1209h 0.631676v 0.373634h
 0.631676v 0.747268h 0.631676v -1.1209h 0.631676v 1.49454h 0.631676v -1.49454h 0.631676v 0.373634h 1.26335v 0.747268h 0.631676v -2.2418h 0.631676v -0.373634h 0.631676v 1.86817h 1.26335v -1.1209h 0.631676v -1.1209h 0.631676v -0.747268h 0.631676v
 1.1209h 0.631676v -1.1209h 0.631676v -0.747268h 0.631676v 3.3627h 0.631676v -1.86817h 0.631676v 0.373634h 0.631676v 1.49454h 0.631676v -1.1209h 0.631676v -1.1209h 0.631676v -1.1209h 0.631676v 3.3627h 0.631676v -0.747268h 1.26335v 0.747268h 1.26335v
 -1.1209h 0.631676v 1.1209h 0.631676v -3.73634h 0.631676v 3.73634h 0.631676v -1.86817h 0.631676v 0.373634h 0.631676v -0.747268h 0.631676v 2.61544h 1.26335v -1.1209h 0.631676v -0.373634h 0.631676v 1.86817h 0.631676v -0.373634h 0.631676v -1.86817h
 0.631676v 0.747268h 1.26335v 1.1209h 0.631676v -0.747268h 0.631676v -0.373634h 0.631676v -0.373634h 0.631676v 1.1209h 0.631676v 0.373634h 0.631676v 0.747268h 1.89503v -1.1209h 0.631676v 0.373634h 0.631676v -0.747268h 0.631676v 0.373634h 0.631676v
 0.373634h 0.631676v -0.747268h 0.631676v 1.86817h 0.631676v -1.86817h 1.26335v 1.49454h 0.631676v -1.49454h 0.631676v 1.49454h 0.631676v -1.1209h 1.26335v 0.747268h 0.631676v -0.373634h 2.5267v 0.747268h 0.631676v -0.747268h 0.631676v 0.747268h
 0.631676v -1.49454h 0.631676v 0.373634h 0.631676v -0.747268h 1.26335v -0.373634h 0.631676v 1.49454h 0.631676v -1.49454h 0.631676v 1.1209h 0.631676v -1.86817h 0.631676v 2.61544h 0.631676v 0.747268h 0.631676v -0.747268h 0.631676v -0.747268h 0.631676v
 1.86817h 0.631676v -2.2418h 0.631676v 0.373634h 0.631676v 0.747268h 0.631676v -0.747268h 0.631676v -0.373634h 0.631676v 1.1209h 0.631676v -0.373634h 0.631676v -0.373634h 0.631676v -0.747268h 0.631676v 1.86817h 0.631676v -0.747268h 0.631676v 1.1209h
 0.631676v -0.747268h 0.631676v -1.1209h 0.631676v 0.373634h 0.631676v 0.747268h 0.631676v -0.373634h 0.631676v 1.49454h 0.631676v -1.86817h 0.631676v 0.373634h 1.89503v -1.86817h 0.631676v 0.747268h 0.631676v 0.747268h 0.631676v 1.1209h 0.631676v
 -0.747268h 0.631676v -0.373634h 0.631676v 0.747268h 0.631676v -0.373634h 0.631676v -0.747268h 0.631676v -1.49454h 0.631676v 2.61544h 0.631676v 1.1209h 0.631676v -2.2418h 0.631676v 1.49454h 0.631676v -1.86817h 0.631676v -1.1209h 0.631676v 1.1209h
 0.631676v 1.49454h 0.631676v -0.747268h 1.26335v -1.86817h 0.631676v 2.2418h 1.26335v 1.49454h 0.631676v -1.49454h 0.631676v 0.747268h 0.631676v -0.747268h 0.631676v -0.373634h 0.631676v 0.373634h 0.631676v -2.2418h 0.631676v 2.98907h 0.631676v
 -0.747268h 1.26335v -0.747268h 0.631676v 0.747268h 0.631676v 0.747268h 1.26335v -0.373634h 0.631676v -0.747268h 0.631676v 0.747268h 1.26335v -1.1209h 0.631676v 0.747268h 1.26335v 0.747268h 0.631676v 0.747268h 0.631676v -3.3627h 0.631676v -0.373634h
 0.631676v 1.86817h 0.631676v 1.86817h 0.631676v -0.747268h 0.631676v -0.747268h 0.631676v 0.747268h 1.26335v -1.1209h 0.631676v -1.1209h 0.631676v 2.2418h 0.631676v -1.1209h 0.631676v 1.1209h 0.631676v -0.373634h 0.631676v 0.373634h 0.631676v
 0.747268h 0.631676v -0.747268h 0.631676v -0.747268h 1.26335v 0.747268h 0.631676v -1.1209h 0.631676v 0.373634h 0.631676v 0.747268h 0.631676v -1.1209h 1.89503v 1.49454h 0.631676v 0.373634h 0.631676v -2.61544h 0.631676v 1.1209h 1.26335v 0.373634h
 0.631676v 0.373634h 0.631676v 0.373634h 0.631676v -2.2418h 0.631676v 1.1209h 0.631676v 0.373634h 1.89503v 0.747268h 0.631676v -1.86817h 0.631676v 0.373634h 0.631676v 0.747268h 0.631676v -0.747268h 0.631676v 1.1209h 0.631676v -0.373634h 1.26335v
 -1.86817h 0.631676v 2.61544h 0.631676v -0.747268h 0.631676v 0.373634h 0.631676v -0.747268h 0.631676v -0.373634h 0.631676v -0.373634h 0.631676v 1.49454h 0.631676v -0.747268h 0.631676v -1.1209h 0.631676v 0.747268h 0.631676v 0.747268h 0.631676v
 -0.373634h 0.631676v 0.373634h 0.631676v -0.373634h 1.26335v 1.49454h 0.631676v -1.49454h 0.631676v 1.1209h 0.631676v -1.1209h 0.631676v 0.373634h 0.631676v -0.373634h 0.631676v 0.747268h 0.631676v -0.747268h 0.631676v 0.747268h 0.631676v -0.747268h
 0.631676v 0.373634h 0.631676v -0.747268h 0.631676v -0.373634h 0.631676v 2.2418h 0.631676v -0.373634h 0.631676v -0.747268h 0.631676v 0.747268h 0.631676v 0.747268h 0.631676v -1.49454h 0.631676v -0.747268h 0.631676v 0.747268h 1.26335v -0.747268h
 0.631676v 1.49454h 1.26335v -0.747268h 0.631676v -0.373634h 1.26335v -0.373634h 0.631676v 0.373634h 0.631676v 0.747268h 0.631676v -1.1209h 0.631676v 0.747268h 1.26335v 1.1209h 0.631676v -2.61544h 0.631676v 2.2418h 0.631676v -1.49454h 0.631676v
 0.747268h 0.631676v -1.1209h 0.631676v 1.1209h 0.631676v 1.49454h 0.631676v -1.1209h 0.631676v 0.373634h 0.631676v -0.747268h 0.631676v -0.373634h 0.631676v 0.747268h 1.26335v -0.373634h 1.26335v 0.373634h 0.631676v 0.373634h 0.631676v -0.747268h
 0.631676v 0.747268h 0.631676v -1.49454h 0.631676v 0.747268h 0.631676v 0.373634h 0.631676v 0.373634h 0.631676v -0.373634h 0.631676v -0.373634h 0.631676v -0.747268h 0.631676v 1.49454h 0.631676v 0.373634h 0.631676v -2.2418h 0.631676v 0.747268h 1.89503v
 1.1209h 0.631676v -0.747268h 0.631676v 1.1209h 0.631676v -1.86817h 0.631676v 1.86817h 0.631676v -0.373634h 0.631676v -0.373634h 0.631676v -0.747268h 0.631676v -1.49454h 0.631676v -8.96721h 0.631676v -107.98h 0.631676v -172.619h 0.631676v 89.6721h
 0.631676v -5.23087h 0.631676v 31.7589h 0.631676v 44.8361h 0.631676v 67.2541h 0.631676v 20.5499h 0.631676v -3.73634h 0.631676v -1.86817h 0.631676v 1.1209h 0.631676v 16.4399h 0.631676v -4.85724h 0.631676v -4.10997h 0.631676v 4.85724h 0.631676v
 5.60451h 0.631676v 4.85724h 0.631676v -13.0772h 0.631676v 7.47268h 0.631676v 7.84631h 0.631676v 1.1209h 0.631676v -2.2418h 0.631676v -4.85724h 0.631676v 4.10997h 0.631676v 3.73634h 0.631676v 2.61544h 0.631676v -0.747268h 0.631676v 2.98907h 0.631676v
 4.10997h 0.631676v 3.3627h 0.631676v 2.61544h 0.631676v -2.61544h 0.631676v 1.86817h 0.631676v 5.60451h 0.631676v -0.373634h 0.631676v 0.373634h 0.631676v 1.1209h 0.631676v 0.373634h 0.631676" fill="none" stroke="#000099"/>
<path d="M57.1929,346.022h 453.543" fill="none" stroke="black"/>
<path d="M57.8246,336.795v 9.22726" fill="none" stroke="black"/>
<path d="M78.8805,341.409v 4.61363" fill="none" stroke="black"/>
<path d="M99.9363,341.409v 4.61363" fill="none" stroke="black"/>
<path d="M120.992,341.409v 4.61363" fill="none" stroke="black"/>
<path d="M142.048,341.409v 4.61363" fill="none" stroke="black"/>
<path d="M163.104,336.795v 9.22726" fill="none" stroke="black"/>
<path d="M184.16,341.409v 4.61363" fill="none" stroke="black"/>
<path d="M205.216,341.409v 4.61363" fill="none" stroke="black"/>
<path d="M226.271,341.409v 4.61363" fill="none" stroke="black"/>
<path d="M247.327,341.409v 4.61363" fill="none" stroke="black"/>
<path d="M268.383,336.795v 9.22726" fill="none" stroke="black"/>
<path d="M289.439,341.409v 4.61363" fill="none" stroke="black"/>
<path d="M310.495,341.409v 4.61363" fill="none" stroke="black"/>
<path d="M331.551,341.409v 4.61363" fill="none" stroke="black"/>
<path d="M352.607,341.409v 4.61363" fill="none" stroke="black"/>
<path d="M373.663,336.795v 9.22726" fill="none" stroke="black"/>
<path d="M394.718,341.409v 4.61363" fill="none" stroke="black"/>
<path d="M415.774,341.409v 4.61363" fill="none" stroke="black"/>
<path d="M436.83,341.409v 4.61363" fill="none" stroke="black"/>
<path d="M457.886,341.409v 4.61363" fill="none" stroke="black"/>
<path d="M478.942,336.795v 9.22726" fill="none" stroke="black"/>
<path d="M57.8246,336.795v 9.22726" fill="none" stroke="black"/>
<path d="M478.942,336.795v 9.22726" fill="none" stroke="black"/>
<path d="M499.998,341.409v 4.61363" fill="none" stroke="black"/>
<text xml:space="preserve" x="54.2605" y="358.403" fill="black" font-size="12.8453" font-family="Helvetica">0</text>
<text xml:space="preserve" x="152.007" y="358.403" fill="black" font-size="12.8453" font-family="Helvetica">500</text>
<text xml:space="preserve" x="253.826" y="358.403" fill="black" font-size="12.8453" font-family="Helvetica">1000</text>
<text xml:space="preserve" x="359.718" y="358.403" fill="black" font-size="12.8453" font-family="Helvetica">1500</text>
<text xml:space="preserve" x="464.795" y="358.403" fill="black" font-size="12.8453" font-family="Helvetica">2000</text>
<text xml:space="preserve" x="451.763" y="372.251" fill="black" font-size="12.8453" font-family="Helvetica">ADC value</text>
<path d="M57.1929,346.022v -307.575" fill="none" stroke="black"/>
<path d="M70.7992,346.022h -13.6063" fill="none" stroke="black"/>
<path d="M63.9961,338.55h -6.80315" fill="none" stroke="black"/>
<path d="M63.9961,331.077h -6.80315" fill="none" stroke="black"/>
<path d="M63.9961,323.604h -6.80315" fill="none" stroke="black"/>
<path d="M63.9961,316.132h -6.80315" fill="none" stroke="black"/>
<path d="M70.7992,308.659h -13.6063" fill="none" stroke="black"/>
<path d="M63.9961,301.186h -6.80315" fill="none" stroke="black"/>
<path d="M63.9961,293.714h -6.80315" fill="none" stroke="black"/>
<path d="M63.9961,286.241h -6.80315" fill="none" stroke="black"/>
<path d="M63.9961,278.768h -6.80315" fill="none" stroke="black"/>
<path d="M70.7992,271.296h -13.6063" fill="none" stroke="black"/>
<path d="M63.9961,263.823h -6.80315" fill="none" stroke="black"/>
<path d="M63.9961,256.35h -6.80315" fill="none" stroke="black"/>
<path d="M63.9961,248.877h -6.80315" fill="none" stroke="black"/>
<path d="M63.9961,241.405h -6.80315" fill="none" stroke="black"/>
<path d="M70.7992,233.932h -13.6063" fill="none" stroke="black"/>
<path d="M63.9961,226.459h -6.80315" fill="none" stroke="black"/>
<path d="M63.9961,218.987h -6.80315" fill="none" stroke="black"/>
<path d="M63.9961,211.514h -6.80315" fill="none" stroke="black"/>
<path d="M63.9961,204.041h -6.80315" fill="none" stroke="black"/>
<path d="M70.7992,196.569h -13.6063" fill="none" stroke="black"/>
<path d="M63.9961,189.096h -6.80315" fill="none" stroke="black"/>
<path d="M63.9961,181.623h -6.80315" fill="none" stroke="black"/>
<path d="M63.9961,174.151h -6.80315" fill="none" stroke="black"/>
<path d="M63.9961,166.678h -6.80315" fill="none" stroke="black"/>
<path d="M70.7992,159.205h -13.6063" fill="none" stroke="black"/>
<path d="M63.9961,151.733h -6.80315" fill="none" stroke="black"/>
<path d="M63.9961,144.26h -6.80315" fill="none" stroke="black"/>
<path d="M63.9961,136.787h -6.80315" fill="none" stroke="black"/>
<path d="M63.9961,129.315h -6.80315" fill="none" stroke="black"/>
<path d="M70.7992,121.842h -13.6063" fill="none" stroke="black"/>
<path d="M63.9961,114.369h -6.80315" fill="none" stroke="black"/>
<path d="M63.9961,106.897h -6.80315" fill="none" stroke="black"/>
<path d="M63.9961,99.424h -6.80315" fill="none" stroke="black"/>
<path d="M63.9961,91.9513h -6.80315" fill="none" stroke="black"/>
<path d="M70.7992,84.4786h -13.6063" fill="none" stroke="black"/>
<path d="M63.9961,77.0059h -6.80315" fill="none" stroke="black"/>
<path d="M63.9961,69.5332h -6.80315" fill="none" stroke="black"/>
<path d="M63.9961,62.0606h -6.80315" fill="none" stroke="black"/>
<path d="M63.9961,54.5879h -6.80315" fill="none" stroke="black"/>
<path d="M70.7992,47.1152h -13.6063" fill="none" stroke="black"/>
<path d="M70.7992,47.1152h -13.6063" fill="none" stroke="black"/>
<path d="M63.9961,39.6425h -6.80315" fill="none" stroke="black"/>
<text xml:space="preserve" x="47.7441" y="350.258" fill="black" font-size="12.8453" font-family="Helvetica">0</text>
<text xml:space="preserve" x="33.8967" y="312.788" fill="black" font-size="12.8453" font-family="Helvetica">100</text>
<text xml:space="preserve" x="33.8967" y="276.134" fill="black" font-size="12.8453" font-family="Helvetica">200</text>
<text xml:space="preserve" x="33.8967" y="238.664" fill="black" font-size="12.8453" font-family="Helvetica">300</text>
<text xml:space="preserve" x="33.8967" y="201.195" fill="black" font-size="12.8453" font-family="Helvetica">400</text>
<text xml:space="preserve" x="33.8967" y="163.725" fill="black" font-size="12.8453" font-family="Helvetica">500</text>
<text xml:space="preserve" x="33.8967" y="126.256" fill="black" font-size="12.8453" font-family="Helvetica">600</text>
<text xml:space="preserve" x="33.8967" y="88.7863" fill="black" font-size="12.8453" font-family="Helvetica">700</text>
<text xml:space="preserve" x="33.8967" y="51.3169" fill="black" font-size="12.8453" font-family="Helvetica">800</text>
<g transform="rotate(-90,20.8638,70.0516)">
<text xml:space="preserve" x="20.8638" y="70.0516" fill="black" font-size="12.8453" font-family="Helvetica">Event</text>
</g>
<text xml:space="preserve" x="253.012" y="18.7347" fill="black" font-size="18.0316" font-family="Helvetica">Cs_002</text>
<rect x="442.705" y="24.9905" width="113.386" height="61.5151" fill="white"/>
<path d="M442.705,86.5056h 113.386" fill="none" stroke="black"/>
<path d="M556.091,86.5056v -61.5151" fill="none" stroke="black"/>
<path d="M556.091,24.9905h -113.386" fill="none" stroke="black"/>
<path d="M442.705,24.9905v 61.5151" fill="none" stroke="black"/>
<text xml:space="preserve" x="476.199" y="36.6549" fill="black" font-size="13.4802" font-family="Helvetica">Cs_002</text>
<path d="M442.705,40.3693h 113.386" fill="none" stroke="black"/>
<text xml:space="preserve" x="447.69" y="52.946" fill="black" font-size="12.7186" font-family="Helvetica">Entries </text>
<text xml:space="preserve" x="512.854" y="52.946" fill="black" font-size="12.7186" font-family="Helvetica"> 11907</text>
<text xml:space="preserve" x="447.69" y="67.6079" fill="black" font-size="12.7186" font-family="Helvetica">Mean  </text>
<text xml:space="preserve" x="512.854" y="67.6079" fill="black" font-size="12.7186" font-family="Helvetica">   1377</text>
<text xml:space="preserve" x="447.69" y="83.0844" fill="black" font-size="12.7186" font-family="Helvetica">Std Dev   </text>
<text xml:space="preserve" x="512.854" y="83.0844" fill="black" font-size="12.7186" font-family="Helvetica">  676.4</text>
<text xml:space="preserve" x="253.012" y="18.7347" fill="black" font-size="18.0316" font-family="Helvetica">Cs_002</text></svg>
