<?xml version="1.0" standalone="no"?>
<svg width="567.429" height="384.969" viewBox="0 0 567.429 384.969" xmlns="http://www.w3.org/2000/svg" shape-rendering="crispEdges">
<title>
img/week1/plane_hist/Cs_008.svg
</title>
<desc>
Creator: ROOT Version 6.22/09
CreationDate: Thu Jul  8 17:44:25 2021</desc>
<defs>
</defs>
<rect x="0.5" y="0" width="566.929" height="384.469" fill="white"/>
<rect x="57.1929" y="38.4469" width="453.543" height="307.575" fill="white"/>
<rect x="57.1929" y="38.4469" width="453.543" height="307.575" fill="none" stroke="black"/>
<path d="M57.1929,346.022h 50.3247v -8.70086h 0.621292v -14.5014h 0.621292v 4.83381h 0.621292v 5.80057h 0.621292v -6.76733h 0.621292v 3.86705h 0.621292v 1.93352h 0.621292v 10.6344h 0.621292v 0.966762h 0.621292v -7.7341h 0.621292v 5.80057h 0.621292v
 -4.83381h 0.621292v 5.80057h 0.621292v -3.86705h 0.621292v 1.93352h 0.621292v -2.90029h 0.621292v 2.90029h 0.621292v 4.83381h 0.621292v -2.90029h 0.621292v -0.966762h 0.621292v 0.966762h 0.621292v -0.966762h 0.621292v 0.966762h 1.24258v -0.966762h
 0.621292v -4.83381h 0.621292v 3.86705h 0.621292v 2.90029h 0.621292v -1.93352h 0.621292v 0.966762h 1.24258v 0.966762h 0.621292v -0.966762h 0.621292v -0.966762h 0.621292v -0.966762h 0.621292v 3.86705h 0.621292v -5.80057h 0.621292v 4.83381h 0.621292v
 -3.86705h 0.621292v 4.83381h 0.621292v -0.966762h 0.621292v 0.966762h 0.621292v -4.83381h 0.621292v 0.966762h 0.621292v 2.90029h 0.621292v -1.93352h 1.24258v -2.90029h 0.621292v 4.83381h 1.24258v -1.93352h 0.621292v 3.86705h 0.621292v -5.80057h
 0.621292v 1.93352h 0.621292v 1.93352h 0.621292v -6.76733h 0.621292v 5.80057h 1.24258v -2.90029h 0.621292v 3.86705h 0.621292v -3.86705h 0.621292v 1.93352h 0.621292v 0.966762h 0.621292v 1.93352h 0.621292v -1.93352h 0.621292v -1.93352h 0.621292v
 1.93352h 0.621292v 0.966762h 0.621292v -2.90029h 1.86388v -1.93352h 0.621292v 2.90029h 0.621292v 0.966762h 0.621292v 0.966762h 0.621292v -0.966762h 0.621292v 0.966762h 0.621292v 0.966762h 0.621292v -3.86705h 0.621292v -0.966762h 0.621292v 2.90029h
 0.621292v 1.93352h 0.621292v -4.83381h 0.621292v 2.90029h 0.621292v -4.83381h 0.621292v 3.86705h 1.86388v -2.90029h 0.621292v 5.80057h 0.621292v -4.83381h 0.621292v 2.90029h 0.621292v 0.966762h 0.621292v 0.966762h 0.621292v -3.86705h 0.621292v
 3.86705h 1.24258v -3.86705h 0.621292v 1.93352h 1.24258v 1.93352h 1.24258v -1.93352h 0.621292v 0.966762h 0.621292v -1.93352h 1.86388v 1.93352h 0.621292v -3.86705h 0.621292v 1.93352h 1.24258v -0.966762h 0.621292v 0.966762h 0.621292v -0.966762h
 0.621292v 1.93352h 0.621292v -2.90029h 0.621292v 2.90029h 0.621292v 2.90029h 1.24258v -1.93352h 0.621292v -2.90029h 0.621292v 0.966762h 0.621292v 0.966762h 0.621292v -0.966762h 1.86388v -1.93352h 0.621292v 1.93352h 1.24258v 0.966762h 0.621292v
 -0.966762h 1.24258v 1.93352h 1.24258v -1.93352h 0.621292v 1.93352h 1.24258v -0.966762h 0.621292v -3.86705h 0.621292v 2.90029h 0.621292v 2.90029h 0.621292v -2.90029h 1.24258v 2.90029h 0.621292v -2.90029h 0.621292v 3.86705h 0.621292v -0.966762h
 0.621292v -1.93352h 0.621292v 1.93352h 0.621292v -1.93352h 0.621292v 0.966762h 0.621292v 0.966762h 0.621292v -0.966762h 1.86388v -0.966762h 0.621292v -0.966762h 0.621292v 0.966762h 0.621292v 1.93352h 0.621292v -2.90029h 1.24258v -1.93352h 0.621292v
 1.93352h 0.621292v -2.90029h 0.621292v 4.83381h 0.621292v 0.966762h 1.24258v -1.93352h 1.24258v -2.90029h 0.621292v 0.966762h 0.621292v 1.93352h 0.621292v -0.966762h 0.621292v 0.966762h 0.621292v -0.966762h 0.621292v 1.93352h 0.621292v -2.90029h
 0.621292v 0.966762h 1.24258v -1.93352h 0.621292v 2.90029h 1.24258v -0.966762h 1.24258v -0.966762h 0.621292v 1.93352h 0.621292v -1.93352h 0.621292v 0.966762h 0.621292v 0.966762h 0.621292v -1.93352h 0.621292v -0.966762h 1.24258v 1.93352h 0.621292v
 0.966762h 0.621292v -2.90029h 1.24258v -0.966762h 0.621292v 0.966762h 0.621292v 1.93352h 0.621292v -6.76733h 0.621292v 4.83381h 0.621292v -0.966762h 0.621292v 1.93352h 0.621292v -4.83381h 0.621292v 3.86705h 0.621292v 4.83381h 0.621292v -6.76733h
 1.24258v 0.966762h 0.621292v -1.93352h 0.621292v -1.93352h 0.621292v 3.86705h 0.621292v 0.966762h 0.621292v -0.966762h 0.621292v 1.93352h 0.621292v -3.86705h 0.621292v 2.90029h 0.621292v 2.90029h 0.621292v 1.93352h 0.621292v -2.90029h 0.621292v
 -2.90029h 0.621292v -1.93352h 0.621292v 4.83381h 0.621292v -2.90029h 0.621292v 3.86705h 1.24258v -2.90029h 0.621292v 2.90029h 0.621292v -4.83381h 0.621292v 6.76733h 0.621292v -5.80057h 0.621292v 2.90029h 0.621292v 0.966762h 1.24258v -5.80057h
 0.621292v 5.80057h 1.24258v -3.86705h 0.621292v 0.966762h 0.621292v 0.966762h 0.621292v 0.966762h 0.621292v 0.966762h 0.621292v -0.966762h 0.621292v 2.90029h 0.621292v -1.93352h 0.621292v -1.93352h 1.86388v 0.966762h 0.621292v -1.93352h 0.621292v
 2.90029h 0.621292v -0.966762h 1.24258v -0.966762h 0.621292v 3.86705h 0.621292v -2.90029h 0.621292v -0.966762h 0.621292v 4.83381h 0.621292v -0.966762h 1.24258v -0.966762h 0.621292v 0.966762h 0.621292v -1.93352h 0.621292v 0.966762h 1.24258v -2.90029h
 0.621292v 0.966762h 0.621292v -0.966762h 0.621292v -3.86705h 0.621292v 3.86705h 0.621292v 1.93352h 0.621292v 1.93352h 0.621292v -5.80057h 0.621292v 0.966762h 0.621292v 2.90029h 0.621292v -0.966762h 0.621292v 0.966762h 0.621292v 0.966762h 1.24258v
 -1.93352h 1.24258v 1.93352h 0.621292v -2.90029h 0.621292v 0.966762h 1.24258v -0.966762h 0.621292v -0.966762h 0.621292v 0.966762h 0.621292v -0.966762h 0.621292v -0.966762h 1.86388v 4.83381h 0.621292v -0.966762h 0.621292v -2.90029h 0.621292v -2.90029h
 0.621292v 0.966762h 0.621292v -1.93352h 0.621292v 4.83381h 0.621292v -4.83381h 0.621292v 0.966762h 1.24258v -2.90029h 0.621292v 5.80057h 0.621292v -4.83381h 1.24258v -4.83381h 0.621292v 8.70086h 0.621292v 0.966762h 0.621292v -7.7341h 0.621292v
 0.966762h 0.621292v 1.93352h 1.86388v -10.6344h 0.621292v 5.80057h 0.621292v 4.83381h 1.24258v -4.83381h 0.621292v -2.90029h 0.621292v -8.70086h 0.621292v 11.6011h 0.621292v 1.93352h 0.621292v -13.5347h 0.621292v 4.83381h 0.621292v 11.6011h
 0.621292v -8.70086h 0.621292v 2.90029h 0.621292v -9.66762h 0.621292v 8.70086h 1.24258v -2.90029h 0.621292v 3.86705h 0.621292v -6.76733h 0.621292v 7.7341h 0.621292v -8.70086h 0.621292v 7.7341h 0.621292v -7.7341h 0.621292v -2.90029h 0.621292v 7.7341h
 0.621292v 1.93352h 0.621292v 6.76733h 0.621292v -3.86705h 0.621292v -1.93352h 0.621292v 3.86705h 0.621292v -1.93352h 0.621292v 2.90029h 0.621292v 2.90029h 0.621292v -4.83381h 0.621292v 1.93352h 1.24258v 3.86705h 0.621292v 0.966762h 0.621292v
 -3.86705h 0.621292v 3.86705h 0.621292v -2.90029h 0.621292v 0.966762h 0.621292v 1.93352h 0.621292v 0.966762h 1.86388v -3.86705h 0.621292v 1.93352h 0.621292v 4.83381h 0.621292v -6.76733h 0.621292v 2.90029h 0.621292v -1.93352h 0.621292v 0.966762h
 0.621292v 4.83381h 0.621292v -0.966762h 0.621292v 0.966762h 0.621292v -5.80057h 0.621292v 3.86705h 0.621292v 4.83381h 0.621292v -6.76733h 0.621292v 0.966762h 1.24258v 3.86705h 1.24258v -1.93352h 0.621292v -1.93352h 0.621292v 2.90029h 0.621292v
 -5.80057h 0.621292v 4.83381h 1.24258v -0.966762h 0.621292v 0.966762h 0.621292v -1.93352h 0.621292v 1.93352h 0.621292v -0.966762h 0.621292v -0.966762h 0.621292v 1.93352h 0.621292v 0.966762h 1.86388v -1.93352h 0.621292v 3.86705h 0.621292v -0.966762h
 0.621292v -2.90029h 0.621292v 2.90029h 0.621292v -1.93352h 0.621292v -5.80057h 0.621292v 9.66762h 0.621292v -1.93352h 0.621292v -2.90029h 0.621292v 2.90029h 0.621292v -2.90029h 0.621292v 1.93352h 1.86388v 2.90029h 0.621292v -2.90029h 1.24258v
 2.90029h 1.24258v -2.90029h 1.24258v 0.966762h 0.621292v -0.966762h 0.621292v 1.93352h 0.621292v -2.90029h 0.621292v 1.93352h 1.24258v 0.966762h 0.621292v 0.966762h 0.621292v -0.966762h 1.24258v 0.966762h 0.621292v -3.86705h 0.621292v 1.93352h
 1.24258v -3.86705h 0.621292v 3.86705h 0.621292v -2.90029h 0.621292v 2.90029h 0.621292v 0.966762h 0.621292v 0.966762h 0.621292v -2.90029h 1.86388v 1.93352h 0.621292v 0.966762h 0.621292v -0.966762h 0.621292v -0.966762h 1.86388v 0.966762h 1.24258v
 -1.93352h 0.621292v 1.93352h 1.24258v -2.90029h 0.621292v 1.93352h 0.621292v -0.966762h 0.621292v 0.966762h 0.621292v 0.966762h 0.621292v 0.966762h 1.24258v -0.966762h 1.24258v -0.966762h 0.621292v 1.93352h 0.621292v -1.93352h 0.621292v 0.966762h
 0.621292v -0.966762h 0.621292v 0.966762h 0.621292v 0.966762h 3.72775v -1.93352h 0.621292v -0.966762h 1.24258v 0.966762h 0.621292v 0.966762h 1.24258v 0.966762h 0.621292v -2.90029h 0.621292v 1.93352h 1.86388v 0.966762h 0.621292v -0.966762h 0.621292v
 0.966762h 0.621292v -1.93352h 0.621292v -1.93352h 0.621292v 1.93352h 0.621292v 1.93352h 1.24258v -3.86705h 0.621292v 2.90029h 1.24258v 0.966762h 0.621292v -4.83381h 0.621292v 3.86705h 1.24258v -0.966762h 1.24258v 1.93352h 0.621292v -0.966762h
 0.621292v 0.966762h 0.621292v -1.93352h 0.621292v 0.966762h 1.86388v -0.966762h 0.621292v 0.966762h 2.48517v 0.966762h 0.621292v -0.966762h 0.621292v 0.966762h 0.621292v -1.93352h 0.621292v 1.93352h 0.621292v -0.966762h 0.621292v 0.966762h 0.621292v
 -1.93352h 0.621292v 0.966762h 0.621292v -0.966762h 1.24258v 0.966762h 0.621292v -2.90029h 0.621292v 1.93352h 0.621292v 0.966762h 1.24258v 0.966762h 0.621292v -0.966762h 0.621292v -1.93352h 0.621292v 0.966762h 0.621292v 0.966762h 0.621292v -0.966762h
 0.621292v 0.966762h 0.621292v 0.966762h 0.621292v -1.93352h 1.24258v 1.93352h 0.621292v -0.966762h 0.621292v 0.966762h 0.621292v -2.90029h 0.621292v 2.90029h 0.621292v -0.966762h 1.24258v -0.966762h 0.621292v -1.93352h 0.621292v 3.86705h 0.621292v
 -0.966762h 0.621292v -0.966762h 0.621292v 1.93352h 1.24258v -1.93352h 0.621292v 1.93352h 0.621292v -2.90029h 0.621292v 2.90029h 0.621292v -0.966762h 0.621292v 0.966762h 1.24258v -1.93352h 0.621292v 0.966762h 1.24258v -0.966762h 0.621292v 0.966762h
 0.621292v -1.93352h 0.621292v 2.90029h 0.621292v -0.966762h 0.621292v -1.93352h 1.24258v 1.93352h 0.621292v 0.966762h 0.621292v -0.966762h 0.621292v -3.86705h 0.621292v 3.86705h 0.621292v -1.93352h 0.621292v 0.966762h 0.621292v 0.966762h 1.24258v
 -0.966762h 0.621292v 0.966762h 1.86388v 0.966762h 1.86388v -0.966762h 3.10646v 0.966762h 0.621292v -1.93352h 0.621292v 0.966762h 1.86388v -1.93352h 0.621292v 1.93352h 0.621292v 0.966762h 1.24258v -1.93352h 1.86388v -0.966762h 0.621292v -1.93352h
 0.621292v -5.80057h 0.621292v -76.3742h 0.621292v -160.482h 0.621292v -45.4378h 0.621292v 42.5375h 1.24258v 48.3381h 0.621292v 49.3049h 0.621292v 51.2384h 0.621292v 22.2355h 0.621292v 10.6344h 0.621292v 6.76733h 0.621292v 1.93352h 0.621292v 15.4682h
 0.621292v -6.76733h 0.621292v 0.966762h 0.621292v -6.76733h 0.621292v 5.80057h 0.621292v 16.435h 0.621292v -14.5014h 0.621292v 7.7341h 0.621292v -3.86705h 0.621292v 3.86705h 0.621292v -1.93352h 0.621292v -8.70086h 0.621292v 12.5679h 0.621292v
 -0.966762h 0.621292v 4.83381h 0.621292v -2.90029h 0.621292v -1.93352h 1.24258v 2.90029h 0.621292v -1.93352h 0.621292v 2.90029h 0.621292v -0.966762h 0.621292v 11.6011h 0.621292v -3.86705h 0.621292v 4.83381h 0.621292v -12.5679h 0.621292v 19.3352h
 0.621292v 6.76733h 0.621292v 0.966762h 0.621292v 9.66762h 0.621292v -0.966762h 0.621292v 0.966762h 0.621292" fill="none" stroke="#000099"/>
<path d="M57.1929,346.022h 453.543" fill="none" stroke="black"/>
<path d="M57.8142,336.795v 9.22726" fill="none" stroke="black"/>
<path d="M78.5239,341.409v 4.61363" fill="none" stroke="black"/>
<path d="M99.2337,341.409v 4.61363" fill="none" stroke="black"/>
<path d="M119.943,341.409v 4.61363" fill="none" stroke="black"/>
<path d="M140.653,341.409v 4.61363" fill="none" stroke="black"/>
<path d="M161.363,336.795v 9.22726" fill="none" stroke="black"/>
<path d="M182.073,341.409v 4.61363" fill="none" stroke="black"/>
<path d="M202.782,341.409v 4.61363" fill="none" stroke="black"/>
<path d="M223.492,341.409v 4.61363" fill="none" stroke="black"/>
<path d="M244.202,341.409v 4.61363" fill="none" stroke="black"/>
<path d="M264.912,336.795v 9.22726" fill="none" stroke="black"/>
<path d="M285.621,341.409v 4.61363" fill="none" stroke="black"/>
<path d="M306.331,341.409v 4.61363" fill="none" stroke="black"/>
<path d="M327.041,341.409v 4.61363" fill="none" stroke="black"/>
<path d="M347.751,341.409v 4.61363" fill="none" stroke="black"/>
<path d="M368.46,336.795v 9.22726" fill="none" stroke="black"/>
<path d="M389.17,341.409v 4.61363" fill="none" stroke="black"/>
<path d="M409.88,341.409v 4.61363" fill="none" stroke="black"/>
<path d="M430.59,341.409v 4.61363" fill="none" stroke="black"/>
<path d="M451.299,341.409v 4.61363" fill="none" stroke="black"/>
<path d="M472.009,336.795v 9.22726" fill="none" stroke="black"/>
<path d="M57.8142,336.795v 9.22726" fill="none" stroke="black"/>
<path d="M472.009,336.795v 9.22726" fill="none" stroke="black"/>
<path d="M492.719,341.409v 4.61363" fill="none" stroke="black"/>
<text xml:space="preserve" x="54.2605" y="358.403" fill="black" font-size="12.8453" font-family="Helvetica">0</text>
<text xml:space="preserve" x="150.378" y="358.403" fill="black" font-size="12.8453" font-family="Helvetica">500</text>
<text xml:space="preserve" x="250.568" y="358.403" fill="black" font-size="12.8453" font-family="Helvetica">1000</text>
<text xml:space="preserve" x="354.016" y="358.403" fill="black" font-size="12.8453" font-family="Helvetica">1500</text>
<text xml:space="preserve" x="457.464" y="358.403" fill="black" font-size="12.8453" font-family="Helvetica">2000</text>
<text xml:space="preserve" x="451.763" y="372.251" fill="black" font-size="12.8453" font-family="Helvetica">ADC value</text>
<path d="M57.1929,346.022v -307.575" fill="none" stroke="black"/>
<path d="M70.7992,346.022h -13.6063" fill="none" stroke="black"/>
<path d="M63.9961,336.355h -6.80315" fill="none" stroke="black"/>
<path d="M63.9961,326.687h -6.80315" fill="none" stroke="black"/>
<path d="M63.9961,317.019h -6.80315" fill="none" stroke="black"/>
<path d="M63.9961,307.352h -6.80315" fill="none" stroke="black"/>
<path d="M70.7992,297.684h -13.6063" fill="none" stroke="black"/>
<path d="M63.9961,288.017h -6.80315" fill="none" stroke="black"/>
<path d="M63.9961,278.349h -6.80315" fill="none" stroke="black"/>
<path d="M63.9961,268.681h -6.80315" fill="none" stroke="black"/>
<path d="M63.9961,259.014h -6.80315" fill="none" stroke="black"/>
<path d="M70.7992,249.346h -13.6063" fill="none" stroke="black"/>
<path d="M63.9961,239.678h -6.80315" fill="none" stroke="black"/>
<path d="M63.9961,230.011h -6.80315" fill="none" stroke="black"/>
<path d="M63.9961,220.343h -6.80315" fill="none" stroke="black"/>
<path d="M63.9961,210.676h -6.80315" fill="none" stroke="black"/>
<path d="M70.7992,201.008h -13.6063" fill="none" stroke="black"/>
<path d="M63.9961,191.34h -6.80315" fill="none" stroke="black"/>
<path d="M63.9961,181.673h -6.80315" fill="none" stroke="black"/>
<path d="M63.9961,172.005h -6.80315" fill="none" stroke="black"/>
<path d="M63.9961,162.337h -6.80315" fill="none" stroke="black"/>
<path d="M70.7992,152.67h -13.6063" fill="none" stroke="black"/>
<path d="M63.9961,143.002h -6.80315" fill="none" stroke="black"/>
<path d="M63.9961,133.335h -6.80315" fill="none" stroke="black"/>
<path d="M63.9961,123.667h -6.80315" fill="none" stroke="black"/>
<path d="M63.9961,113.999h -6.80315" fill="none" stroke="black"/>
<path d="M70.7992,104.332h -13.6063" fill="none" stroke="black"/>
<path d="M63.9961,94.6641h -6.80315" fill="none" stroke="black"/>
<path d="M63.9961,84.9965h -6.80315" fill="none" stroke="black"/>
<path d="M63.9961,75.3289h -6.80315" fill="none" stroke="black"/>
<path d="M63.9961,65.6613h -6.80315" fill="none" stroke="black"/>
<path d="M70.7992,55.9936h -13.6063" fill="none" stroke="black"/>
<path d="M70.7992,55.9936h -13.6063" fill="none" stroke="black"/>
<path d="M63.9961,46.326h -6.80315" fill="none" stroke="black"/>
<text xml:space="preserve" x="47.7441" y="350.258" fill="black" font-size="12.8453" font-family="Helvetica">0</text>
<text xml:space="preserve" x="41.2277" y="302.199" fill="black" font-size="12.8453" font-family="Helvetica">50</text>
<text xml:space="preserve" x="33.8967" y="254.141" fill="black" font-size="12.8453" font-family="Helvetica">100</text>
<text xml:space="preserve" x="33.8967" y="205.267" fill="black" font-size="12.8453" font-family="Helvetica">150</text>
<text xml:space="preserve" x="33.8967" y="157.209" fill="black" font-size="12.8453" font-family="Helvetica">200</text>
<text xml:space="preserve" x="33.8967" y="109.15" fill="black" font-size="12.8453" font-family="Helvetica">250</text>
<text xml:space="preserve" x="33.8967" y="60.2769" fill="black" font-size="12.8453" font-family="Helvetica">300</text>
<g transform="rotate(-90,20.8638,70.0516)">
<text xml:space="preserve" x="20.8638" y="70.0516" fill="black" font-size="12.8453" font-family="Helvetica">Event</text>
</g>
<text xml:space="preserve" x="253.012" y="18.7347" fill="black" font-size="18.0316" font-family="Helvetica">Cs_008</text>
<rect x="442.705" y="24.9905" width="113.386" height="61.5151" fill="white"/>
<path d="M442.705,86.5056h 113.386" fill="none" stroke="black"/>
<path d="M556.091,86.5056v -61.5151" fill="none" stroke="black"/>
<path d="M556.091,24.9905h -113.386" fill="none" stroke="black"/>
<path d="M442.705,24.9905v 61.5151" fill="none" stroke="black"/>
<text xml:space="preserve" x="476.199" y="36.6549" fill="black" font-size="13.4802" font-family="Helvetica">Cs_008</text>
<path d="M442.705,40.3693h 113.386" fill="none" stroke="black"/>
<text xml:space="preserve" x="447.69" y="52.946" fill="black" font-size="13.0654" font-family="Helvetica">Entries </text>
<text xml:space="preserve" x="517.741" y="52.946" fill="black" font-size="13.0654" font-family="Helvetica"> 5777</text>
<text xml:space="preserve" x="447.69" y="67.6079" fill="black" font-size="13.0654" font-family="Helvetica">Mean  </text>
<text xml:space="preserve" x="510.41" y="67.6079" fill="black" font-size="13.0654" font-family="Helvetica">   1595</text>
<text xml:space="preserve" x="447.69" y="83.0844" fill="black" font-size="13.0654" font-family="Helvetica">Std Dev   </text>
<text xml:space="preserve" x="510.41" y="83.0844" fill="black" font-size="13.0654" font-family="Helvetica">  603.7</text>
<text xml:space="preserve" x="253.012" y="18.7347" fill="black" font-size="18.0316" font-family="Helvetica">Cs_008</text></svg>
