<?xml version="1.0" standalone="no"?>
<svg width="567.429" height="384.68" viewBox="0 0 567.429 384.68" xmlns="http://www.w3.org/2000/svg" shape-rendering="crispEdges">
<title>
img/week1/plane_hist/Cs_002.svg
</title>
<desc>
Creator: ROOT Version 6.22/09
CreationDate: Tue Jul 13 18:36:12 2021</desc>
<defs>
</defs>
<rect x="0.5" y="0" width="566.929" height="384.18" fill="white"/>
<rect x="57.1929" y="38.418" width="453.543" height="307.344" fill="white"/>
<rect x="57.1929" y="38.418" width="453.543" height="307.344" fill="none" stroke="black"/>
<path d="M57.1929,345.762h 75.2743v -1.89333h 0.632557v -1.136h 0.632557v -2.27199h 0.632557v -0.757331h 0.632557v -0.378665h 0.632557v 1.136h 0.632557v 0.757331h 0.632557v -1.51466h 0.632557v 1.89333h 0.632557v -0.378665h 0.632557v -1.136h 0.632557v
 1.136h 0.632557v -2.65066h 0.632557v 0.757331h 0.632557v 3.40799h 0.632557v -2.27199h 1.26511v -0.378665h 1.26511v -1.136h 0.632557v -2.27199h 1.26511v -1.136h 0.632557v -0.378665h 0.632557v 1.89333h 0.632557v -3.78665h 0.632557v 3.40799h 0.632557v
 -1.89333h 0.632557v -1.89333h 0.632557v -1.136h 0.632557v -1.51466h 0.632557v 2.27199h 0.632557v -0.378665h 0.632557v 3.02932h 0.632557v -0.378665h 0.632557v -2.65066h 0.632557v 1.89333h 0.632557v -0.378665h 0.632557v 5.30132h 0.632557v -6.05865h
 0.632557v 2.65066h 0.632557v 0.378665h 0.632557v -1.136h 0.632557v 5.67998h 0.632557v -3.40799h 0.632557v -1.136h 1.26511v 2.27199h 0.632557v 0.378665h 0.632557v 1.136h 0.632557v -2.65066h 0.632557v 1.89333h 0.632557v 3.02932h 0.632557v -5.30132h
 0.632557v 4.54399h 0.632557v -2.65066h 0.632557v 1.51466h 0.632557v -1.51466h 0.632557v 1.136h 0.632557v -2.27199h 0.632557v 0.757331h 0.632557v 2.27199h 0.632557v 1.89333h 0.632557v -3.02932h 0.632557v 1.136h 0.632557v -1.51466h 0.632557v 1.51466h
 0.632557v -1.136h 0.632557v -1.51466h 0.632557v 0.378665h 0.632557v 1.136h 1.26511v -1.89333h 0.632557v 0.757331h 0.632557v 1.136h 0.632557v 1.89333h 0.632557v -3.40799h 0.632557v 1.136h 0.632557v -2.27199h 0.632557v -1.136h 0.632557v -1.136h
 0.632557v -3.40799h 1.26511v -5.30132h 0.632557v 12.1173h 0.632557v -10.224h 0.632557v -4.54399h 0.632557v 5.30132h 0.632557v -1.89333h 0.632557v 2.65066h 0.632557v -5.67998h 0.632557v -6.43731h 0.632557v 1.51466h 0.632557v 3.02932h 0.632557v
 -4.54399h 0.632557v -3.40799h 0.632557v -5.30132h 0.632557v 10.224h 0.632557v 2.27199h 0.632557v -6.05865h 0.632557v -1.136h 0.632557v 1.136h 0.632557v -2.27199h 0.632557v 4.16532h 0.632557v -6.43731h 0.632557v 5.30132h 0.632557v 8.70931h 0.632557v
 2.27199h 0.632557v -6.81598h 0.632557v 3.78665h 0.632557v 4.92265h 0.632557v -1.89333h 0.632557v 6.43731h 0.632557v -5.30132h 0.632557v 2.27199h 0.632557v 0.757331h 0.632557v 4.54399h 0.632557v -0.378665h 0.632557v -3.40799h 0.632557v 4.54399h
 0.632557v -2.65066h 0.632557v 8.70931h 0.632557v -7.95197h 0.632557v 4.16532h 0.632557v -4.16532h 0.632557v 4.16532h 1.26511v 1.136h 0.632557v -3.02932h 0.632557v -1.51466h 0.632557v 3.78665h 0.632557v -1.51466h 0.632557v -3.78665h 0.632557v
 8.70931h 0.632557v -6.81598h 0.632557v 5.30132h 0.632557v -3.40799h 0.632557v 2.27199h 0.632557v -1.89333h 0.632557v 3.78665h 1.26511v -2.65066h 0.632557v 0.757331h 0.632557v 1.51466h 1.26511v -1.136h 0.632557v 1.89333h 0.632557v -0.378665h
 0.632557v 1.89333h 1.26511v 1.136h 0.632557v -1.51466h 0.632557v -1.136h 0.632557v 2.27199h 0.632557v -0.378665h 1.26511v 0.378665h 1.26511v -0.757331h 0.632557v 0.378665h 1.26511v -1.136h 0.632557v 1.136h 0.632557v -0.378665h 0.632557v 0.378665h
 0.632557v 0.378665h 0.632557v -1.136h 0.632557v 1.51466h 0.632557v -2.65066h 0.632557v -0.378665h 0.632557v 1.136h 0.632557v 2.27199h 0.632557v -0.757331h 0.632557v -2.65066h 0.632557v 2.65066h 0.632557v -1.136h 0.632557v 0.378665h 0.632557v
 -0.757331h 0.632557v 0.757331h 0.632557v -0.757331h 0.632557v 1.89333h 0.632557v -0.757331h 0.632557v -0.378665h 1.26511v -0.378665h 0.632557v 1.136h 0.632557v -0.757331h 0.632557v 0.757331h 0.632557v -0.757331h 0.632557v -0.757331h 0.632557v 1.136h
 0.632557v -0.378665h 0.632557v 0.757331h 0.632557v -0.757331h 0.632557v 0.757331h 0.632557v -0.757331h 0.632557v 0.757331h 0.632557v -0.378665h 0.632557v 0.378665h 0.632557v 0.378665h 0.632557v -0.757331h 0.632557v -0.378665h 0.632557v 0.757331h
 0.632557v 0.378665h 1.26511v -0.378665h 1.26511v -1.89333h 0.632557v 1.51466h 0.632557v -1.136h 0.632557v 0.757331h 0.632557v 0.757331h 0.632557v -1.51466h 0.632557v 1.89333h 0.632557v 0.757331h 0.632557v -1.136h 0.632557v -0.378665h 1.26511v
 -0.378665h 0.632557v 0.757331h 1.26511v -2.27199h 0.632557v 1.51466h 0.632557v 0.378665h 0.632557v -0.757331h 0.632557v -1.136h 0.632557v 1.89333h 0.632557v -1.136h 0.632557v 1.136h 0.632557v 0.378665h 0.632557v -0.378665h 0.632557v 1.136h 0.632557v
 -0.757331h 1.26511v -1.136h 0.632557v 0.378665h 0.632557v 2.27199h 0.632557v -0.757331h 0.632557v -2.27199h 0.632557v 2.27199h 0.632557v -3.78665h 0.632557v 3.40799h 0.632557v -1.89333h 0.632557v 1.136h 0.632557v -0.757331h 0.632557v 1.136h
 0.632557v -0.378665h 0.632557v -1.136h 0.632557v 1.89333h 0.632557v -0.757331h 0.632557v 0.757331h 0.632557v 1.136h 0.632557v -1.136h 0.632557v -1.136h 0.632557v 1.51466h 0.632557v -0.378665h 0.632557v -1.51466h 0.632557v 0.757331h 0.632557v 1.136h
 0.632557v -1.136h 0.632557v 0.378665h 0.632557v -2.27199h 0.632557v 3.02932h 0.632557v 0.378665h 0.632557v -1.51466h 0.632557v 0.757331h 0.632557v 0.378665h 0.632557v -1.89333h 0.632557v 2.27199h 0.632557v -1.51466h 0.632557v -0.378665h 0.632557v
 -0.378665h 1.26511v 1.136h 0.632557v -0.378665h 0.632557v -1.136h 0.632557v -2.27199h 0.632557v 1.136h 0.632557v 1.136h 0.632557v -2.65066h 0.632557v 4.16532h 0.632557v -1.51466h 0.632557v 0.378665h 0.632557v -0.757331h 1.89767v -1.89333h 0.632557v
 2.27199h 0.632557v 0.378665h 0.632557v -0.757331h 0.632557v 1.51466h 0.632557v 0.378665h 0.632557v -1.136h 0.632557v 0.757331h 0.632557v -3.78665h 0.632557v 3.40799h 0.632557v -2.65066h 0.632557v 1.136h 0.632557v 1.89333h 0.632557v -0.757331h
 0.632557v 0.378665h 1.26511v 1.51466h 0.632557v -2.27199h 0.632557v 1.136h 0.632557v -1.136h 0.632557v 0.757331h 0.632557v 0.378665h 0.632557v -1.136h 0.632557v 2.65066h 0.632557v -1.89333h 0.632557v -2.27199h 0.632557v 3.02932h 0.632557v -0.378665h
 0.632557v 1.136h 0.632557v 0.757331h 0.632557v -1.89333h 0.632557v 1.51466h 0.632557v -3.02932h 0.632557v 3.02932h 0.632557v -1.89333h 0.632557v 0.757331h 0.632557v -1.136h 0.632557v 1.51466h 0.632557v -1.136h 0.632557v -1.51466h 0.632557v 2.65066h
 0.632557v 0.757331h 0.632557v -1.136h 0.632557v 0.378665h 0.632557v -1.51466h 0.632557v 1.51466h 1.26511v -0.378665h 0.632557v -0.378665h 0.632557v 0.378665h 0.632557v 0.378665h 0.632557v 1.136h 0.632557v -1.51466h 0.632557v -0.378665h 0.632557v
 -1.89333h 0.632557v 1.89333h 0.632557v 0.378665h 0.632557v -0.378665h 0.632557v -2.27199h 0.632557v 1.51466h 0.632557v 0.757331h 1.26511v -1.51466h 0.632557v 3.40799h 0.632557v -0.757331h 0.632557v -0.757331h 0.632557v 0.757331h 0.632557v -2.27199h
 0.632557v 1.51466h 0.632557v 1.136h 0.632557v -1.89333h 1.26511v 1.51466h 0.632557v -1.51466h 1.26511v 1.136h 0.632557v -0.378665h 0.632557v 0.378665h 0.632557v -0.378665h 0.632557v 0.378665h 1.26511v -1.136h 0.632557v 1.89333h 0.632557v -0.757331h
 1.26511v -1.136h 0.632557v 1.136h 0.632557v -0.378665h 1.26511v -1.136h 1.26511v 0.378665h 0.632557v 1.136h 0.632557v 0.378665h 0.632557v -2.27199h 0.632557v 1.89333h 0.632557v 0.378665h 0.632557v -1.51466h 0.632557v -1.89333h 0.632557v 3.02932h
 0.632557v 0.378665h 0.632557v -1.51466h 0.632557v 1.51466h 0.632557v -0.757331h 0.632557v -3.40799h 0.632557v 2.65066h 0.632557v 1.136h 0.632557v -0.757331h 0.632557v -2.27199h 0.632557v 2.27199h 0.632557v -0.757331h 0.632557v 2.27199h 0.632557v
 0.378665h 0.632557v -1.51466h 0.632557v 0.757331h 0.632557v -0.378665h 0.632557v -1.51466h 0.632557v 1.136h 0.632557v -1.51466h 0.632557v 3.02932h 0.632557v -2.27199h 1.26511v 1.136h 0.632557v -0.378665h 0.632557v 0.378665h 0.632557v 0.757331h
 0.632557v -1.136h 0.632557v -0.757331h 0.632557v 1.51466h 0.632557v -1.136h 0.632557v 0.378665h 0.632557v 0.757331h 0.632557v -0.378665h 0.632557v -0.757331h 0.632557v 1.136h 0.632557v -2.65066h 0.632557v 0.378665h 0.632557v 1.136h 0.632557v
 1.89333h 1.26511v -0.757331h 0.632557v -1.51466h 0.632557v 0.757331h 1.26511v -1.136h 0.632557v 1.89333h 0.632557v -1.136h 0.632557v 0.757331h 0.632557v 0.378665h 1.26511v 0.757331h 0.632557v -1.51466h 0.632557v 1.136h 0.632557v -1.51466h 0.632557v
 1.136h 0.632557v -1.51466h 0.632557v 1.136h 0.632557v -0.378665h 1.89767v -1.136h 0.632557v 2.65066h 0.632557v -0.757331h 0.632557v -2.27199h 0.632557v 1.89333h 0.632557v 0.378665h 0.632557v -0.378665h 0.632557v 1.136h 0.632557v -1.51466h 0.632557v
 0.378665h 0.632557v -1.51466h 0.632557v 2.27199h 0.632557v -1.136h 0.632557v 0.757331h 1.26511v -1.136h 0.632557v 0.378665h 0.632557v -0.378665h 1.26511v 0.378665h 0.632557v 0.378665h 0.632557v -0.378665h 0.632557v -0.757331h 0.632557v 1.51466h
 0.632557v -0.378665h 0.632557v 0.378665h 0.632557v 0.378665h 0.632557v -2.27199h 0.632557v 0.378665h 0.632557v 1.89333h 0.632557v -1.89333h 0.632557v 0.378665h 1.89767v 0.378665h 0.632557v -0.378665h 0.632557v 0.757331h 1.26511v 1.51466h 0.632557v
 -1.136h 0.632557v -0.757331h 1.26511v 0.378665h 0.632557v -0.378665h 0.632557v 0.378665h 0.632557v -0.378665h 0.632557v 0.378665h 0.632557v -0.378665h 0.632557v -0.378665h 0.632557v 0.378665h 0.632557v 0.757331h 0.632557v -0.378665h 0.632557v 1.136h
 0.632557v -0.378665h 0.632557v -0.378665h 0.632557v 1.136h 0.632557v -1.89333h 0.632557v -0.378665h 0.632557v 1.136h 0.632557v -0.378665h 0.632557v -0.378665h 0.632557v 0.378665h 0.632557v 1.136h 1.26511v -2.27199h 0.632557v 0.757331h 0.632557v
 -1.136h 0.632557v 1.136h 0.632557v 1.51466h 0.632557v -1.51466h 2.53023v 0.378665h 0.632557v 0.378665h 0.632557v -0.378665h 1.26511v -0.378665h 0.632557v -0.757331h 0.632557v 1.89333h 0.632557v 0.378665h 1.26511v -1.89333h 0.632557v 0.378665h
 0.632557v 0.757331h 0.632557v 0.378665h 1.26511v -1.89333h 0.632557v 1.89333h 1.26511v -0.378665h 1.26511v -0.757331h 0.632557v 0.757331h 1.26511v -0.378665h 1.89767v -0.378665h 0.632557v 1.136h 1.26511v -1.136h 0.632557v -0.378665h 0.632557v 1.136h
 0.632557v -0.378665h 0.632557v -0.378665h 0.632557v 0.757331h 0.632557v 0.378665h 0.632557v -1.136h 0.632557v 1.51466h 0.632557v -0.378665h 1.26511v -1.51466h 0.632557v -0.757331h 0.632557v -9.46664h 0.632557v -183.653h 0.632557v -96.5597h 0.632557v
 111.328h 0.632557v -36.7305h 0.632557v 15.9039h 0.632557v 116.25h 0.632557v 40.8959h 0.632557v -6.05865h 0.632557v 6.43731h 0.632557v -3.40799h 0.632557v 4.54399h 0.632557v 11.36h 0.632557v -13.2533h 0.632557v 10.9813h 0.632557v -6.05865h 0.632557v
 14.3893h 0.632557v -6.81598h 0.632557v -1.51466h 0.632557v 5.67998h 0.632557v 3.78665h 0.632557v 0.757331h 0.632557v -3.40799h 0.632557v 2.27199h 1.26511v 9.8453h 0.632557v -8.70931h 0.632557v 5.67998h 0.632557v 3.40799h 0.632557v 6.43731h 1.26511v
 1.51466h 0.632557v -1.136h 0.632557v 3.78665h 0.632557v 2.65066h 0.632557v -1.136h 0.632557v 2.27199h 0.632557v 0.378665h 0.632557" fill="none" stroke="#000099"/>
<path d="M57.1929,345.762h 453.543" fill="none" stroke="black"/>
<path d="M57.8255,336.541v 9.22031" fill="none" stroke="black"/>
<path d="M78.9107,341.152v 4.61016" fill="none" stroke="black"/>
<path d="M99.9959,341.152v 4.61016" fill="none" stroke="black"/>
<path d="M121.081,341.152v 4.61016" fill="none" stroke="black"/>
<path d="M142.166,341.152v 4.61016" fill="none" stroke="black"/>
<path d="M163.252,336.541v 9.22031" fill="none" stroke="black"/>
<path d="M184.337,341.152v 4.61016" fill="none" stroke="black"/>
<path d="M205.422,341.152v 4.61016" fill="none" stroke="black"/>
<path d="M226.507,341.152v 4.61016" fill="none" stroke="black"/>
<path d="M247.593,341.152v 4.61016" fill="none" stroke="black"/>
<path d="M268.678,336.541v 9.22031" fill="none" stroke="black"/>
<path d="M289.763,341.152v 4.61016" fill="none" stroke="black"/>
<path d="M310.848,341.152v 4.61016" fill="none" stroke="black"/>
<path d="M331.933,341.152v 4.61016" fill="none" stroke="black"/>
<path d="M353.019,341.152v 4.61016" fill="none" stroke="black"/>
<path d="M374.104,336.541v 9.22031" fill="none" stroke="black"/>
<path d="M395.189,341.152v 4.61016" fill="none" stroke="black"/>
<path d="M416.274,341.152v 4.61016" fill="none" stroke="black"/>
<path d="M437.36,341.152v 4.61016" fill="none" stroke="black"/>
<path d="M458.445,341.152v 4.61016" fill="none" stroke="black"/>
<path d="M479.53,336.541v 9.22031" fill="none" stroke="black"/>
<path d="M57.8255,336.541v 9.22031" fill="none" stroke="black"/>
<path d="M479.53,336.541v 9.22031" fill="none" stroke="black"/>
<path d="M500.615,341.152v 4.61016" fill="none" stroke="black"/>
<text xml:space="preserve" x="54.1065" y="358.189" fill="black" font-size="12.836" font-family="Helvetica">0</text>
<text xml:space="preserve" x="152.385" y="358.189" fill="black" font-size="12.836" font-family="Helvetica">500</text>
<text xml:space="preserve" x="254.725" y="358.189" fill="black" font-size="12.836" font-family="Helvetica">1000</text>
<text xml:space="preserve" x="359.501" y="358.189" fill="black" font-size="12.836" font-family="Helvetica">1500</text>
<text xml:space="preserve" x="465.089" y="358.189" fill="black" font-size="12.836" font-family="Helvetica">2000</text>
<text xml:space="preserve" x="452.094" y="371.996" fill="black" font-size="12.836" font-family="Helvetica">ADC value</text>
<path d="M57.1929,345.762v -307.344" fill="none" stroke="black"/>
<path d="M70.7992,345.762h -13.6063" fill="none" stroke="black"/>
<path d="M63.9961,338.189h -6.80315" fill="none" stroke="black"/>
<path d="M63.9961,330.615h -6.80315" fill="none" stroke="black"/>
<path d="M63.9961,323.042h -6.80315" fill="none" stroke="black"/>
<path d="M63.9961,315.469h -6.80315" fill="none" stroke="black"/>
<path d="M70.7992,307.895h -13.6063" fill="none" stroke="black"/>
<path d="M63.9961,300.322h -6.80315" fill="none" stroke="black"/>
<path d="M63.9961,292.749h -6.80315" fill="none" stroke="black"/>
<path d="M63.9961,285.175h -6.80315" fill="none" stroke="black"/>
<path d="M63.9961,277.602h -6.80315" fill="none" stroke="black"/>
<path d="M70.7992,270.029h -13.6063" fill="none" stroke="black"/>
<path d="M63.9961,262.455h -6.80315" fill="none" stroke="black"/>
<path d="M63.9961,254.882h -6.80315" fill="none" stroke="black"/>
<path d="M63.9961,247.309h -6.80315" fill="none" stroke="black"/>
<path d="M63.9961,239.735h -6.80315" fill="none" stroke="black"/>
<path d="M70.7992,232.162h -13.6063" fill="none" stroke="black"/>
<path d="M63.9961,224.589h -6.80315" fill="none" stroke="black"/>
<path d="M63.9961,217.016h -6.80315" fill="none" stroke="black"/>
<path d="M63.9961,209.442h -6.80315" fill="none" stroke="black"/>
<path d="M63.9961,201.869h -6.80315" fill="none" stroke="black"/>
<path d="M70.7992,194.296h -13.6063" fill="none" stroke="black"/>
<path d="M63.9961,186.722h -6.80315" fill="none" stroke="black"/>
<path d="M63.9961,179.149h -6.80315" fill="none" stroke="black"/>
<path d="M63.9961,171.576h -6.80315" fill="none" stroke="black"/>
<path d="M63.9961,164.002h -6.80315" fill="none" stroke="black"/>
<path d="M70.7992,156.429h -13.6063" fill="none" stroke="black"/>
<path d="M63.9961,148.856h -6.80315" fill="none" stroke="black"/>
<path d="M63.9961,141.282h -6.80315" fill="none" stroke="black"/>
<path d="M63.9961,133.709h -6.80315" fill="none" stroke="black"/>
<path d="M63.9961,126.136h -6.80315" fill="none" stroke="black"/>
<path d="M70.7992,118.563h -13.6063" fill="none" stroke="black"/>
<path d="M63.9961,110.989h -6.80315" fill="none" stroke="black"/>
<path d="M63.9961,103.416h -6.80315" fill="none" stroke="black"/>
<path d="M63.9961,95.8426h -6.80315" fill="none" stroke="black"/>
<path d="M63.9961,88.2693h -6.80315" fill="none" stroke="black"/>
<path d="M70.7992,80.696h -13.6063" fill="none" stroke="black"/>
<path d="M63.9961,73.1227h -6.80315" fill="none" stroke="black"/>
<path d="M63.9961,65.5494h -6.80315" fill="none" stroke="black"/>
<path d="M63.9961,57.9761h -6.80315" fill="none" stroke="black"/>
<path d="M63.9961,50.4027h -6.80315" fill="none" stroke="black"/>
<path d="M70.7992,42.8294h -13.6063" fill="none" stroke="black"/>
<path d="M70.7992,42.8294h -13.6063" fill="none" stroke="black"/>
<text xml:space="preserve" x="47.6087" y="350.067" fill="black" font-size="12.836" font-family="Helvetica">0</text>
<text xml:space="preserve" x="33.801" y="312.704" fill="black" font-size="12.836" font-family="Helvetica">100</text>
<text xml:space="preserve" x="33.801" y="274.53" fill="black" font-size="12.836" font-family="Helvetica">200</text>
<text xml:space="preserve" x="33.801" y="236.356" fill="black" font-size="12.836" font-family="Helvetica">300</text>
<text xml:space="preserve" x="33.801" y="198.994" fill="black" font-size="12.836" font-family="Helvetica">400</text>
<text xml:space="preserve" x="33.801" y="160.819" fill="black" font-size="12.836" font-family="Helvetica">500</text>
<text xml:space="preserve" x="33.801" y="122.645" fill="black" font-size="12.836" font-family="Helvetica">600</text>
<text xml:space="preserve" x="33.801" y="85.283" fill="black" font-size="12.836" font-family="Helvetica">700</text>
<text xml:space="preserve" x="33.801" y="47.1087" fill="black" font-size="12.836" font-family="Helvetica">800</text>
<g transform="rotate(-90,20.8055,69.8509)">
<text xml:space="preserve" x="20.8055" y="69.8509" fill="black" font-size="12.836" font-family="Helvetica">Event</text>
</g>
<text xml:space="preserve" x="253.1" y="18.681" fill="black" font-size="17.9813" font-family="Helvetica">Cs_002</text>
<rect x="442.705" y="24.9717" width="113.386" height="61.4688" fill="white"/>
<path d="M442.705,86.4405h 113.386" fill="none" stroke="black"/>
<path d="M556.091,86.4405v -61.4688" fill="none" stroke="black"/>
<path d="M556.091,24.9717h -113.386" fill="none" stroke="black"/>
<path d="M442.705,24.9717v 61.4688" fill="none" stroke="black"/>
<text xml:space="preserve" x="476.461" y="36.5499" fill="black" font-size="13.4705" font-family="Helvetica">Cs_002</text>
<path d="M442.705,40.3389h 113.386" fill="none" stroke="black"/>
<text xml:space="preserve" x="448.033" y="52.7943" fill="black" font-size="12.7411" font-family="Helvetica">Entries </text>
<text xml:space="preserve" x="513.01" y="52.7943" fill="black" font-size="12.7411" font-family="Helvetica"> 11907</text>
<text xml:space="preserve" x="448.033" y="68.2264" fill="black" font-size="12.7411" font-family="Helvetica">Mean  </text>
<text xml:space="preserve" x="513.01" y="68.2264" fill="black" font-size="12.7411" font-family="Helvetica">   1373</text>
<text xml:space="preserve" x="448.033" y="82.8464" fill="black" font-size="12.7411" font-family="Helvetica">Std Dev   </text>
<text xml:space="preserve" x="513.01" y="82.8464" fill="black" font-size="12.7411" font-family="Helvetica">  675.4</text>
<text xml:space="preserve" x="253.1" y="18.681" fill="black" font-size="17.9813" font-family="Helvetica">Cs_002</text></svg>
