<?xml version="1.0" standalone="no"?>
<svg width="567.429" height="384.969" viewBox="0 0 567.429 384.969" xmlns="http://www.w3.org/2000/svg" shape-rendering="crispEdges">
<title>
img/week1/plane_hist/Cs_003.svg
</title>
<desc>
Creator: ROOT Version 6.22/09
CreationDate: Thu Jul  8 17:31:51 2021</desc>
<defs>
</defs>
<rect x="0.5" y="0" width="566.929" height="384.469" fill="white"/>
<rect x="57.1929" y="38.4469" width="453.543" height="307.575" fill="white"/>
<rect x="57.1929" y="38.4469" width="453.543" height="307.575" fill="none" stroke="black"/>
<path d="M57.1929,346.022h 49.0149v -4.24535h 1.24088v -16.9814h 0.620442v -80.6616h 0.620442v -76.4162h 0.620442v -114.624h 0.620442v 25.4721h 0.620442v 4.24535h 0.620442v 67.9255h 0.620442v 59.4348h 0.620442v -12.736h 0.620442v 38.2081h 0.620442v
 -25.4721h 0.620442v 89.1523h 0.620442v -16.9814h 1.24088v 8.49069h 0.620442v 25.4721h 0.620442v 4.24535h 0.620442v -4.24535h 0.620442v 12.736h 0.620442v 12.736h 0.620442v -12.736h 0.620442v -4.24535h 0.620442v 16.9814h 0.620442v -12.736h 0.620442v
 8.49069h 1.24088v 8.49069h 0.620442v -4.24535h 0.620442v 4.24535h 0.620442v -8.49069h 0.620442v 8.49069h 0.620442v -4.24535h 1.86133v 4.24535h 4.96354v -8.49069h 0.620442v 8.49069h 2.48177v -4.24535h 0.620442v 4.24535h 0.620442v -8.49069h 0.620442v
 8.49069h 5.58398v -8.49069h 0.620442v 8.49069h 3.72265v -4.24535h 0.620442v 4.24535h 1.86133v -4.24535h 1.86133v 4.24535h 4.96354v -4.24535h 0.620442v 4.24535h 3.72265v -4.24535h 0.620442v -4.24535h 0.620442v 8.49069h 1.24088v -8.49069h 0.620442v
 8.49069h 1.24088v -4.24535h 0.620442v 4.24535h 1.24088v -4.24535h 1.24088v 4.24535h 6.20442v -4.24535h 0.620442v 4.24535h 0.620442v -4.24535h 1.24088v 4.24535h 8.68619v -8.49069h 0.620442v 8.49069h 0.620442v -4.24535h 0.620442v 4.24535h 6.20442v
 -4.24535h 0.620442v 4.24535h 4.96354v -4.24535h 0.620442v 4.24535h 1.24088v -8.49069h 0.620442v 8.49069h 21.095v -4.24535h 0.620442v 4.24535h 1.86133v -4.24535h 0.620442v 4.24535h 4.96354v -4.24535h 1.24088v 4.24535h 0.620442v -4.24535h 1.86133v
 4.24535h 0.620442v -4.24535h 0.620442v 4.24535h 1.86133v -12.736h 0.620442v 4.24535h 0.620442v 8.49069h 2.48177v -4.24535h 0.620442v 4.24535h 1.86133v -4.24535h 0.620442v 4.24535h 0.620442v -8.49069h 0.620442v 8.49069h 0.620442v -4.24535h 0.620442v
 4.24535h 0.620442v -4.24535h 0.620442v 4.24535h 1.86133v -4.24535h 0.620442v 4.24535h 6.20442v -4.24535h 1.86133v 4.24535h 1.86133v -4.24535h 2.48177v 4.24535h 0.620442v -4.24535h 1.24088v 4.24535h 0.620442v -4.24535h 0.620442v -4.24535h 0.620442v
 8.49069h 1.86133v -4.24535h 0.620442v 4.24535h 0.620442v -12.736h 0.620442v 8.49069h 0.620442v 4.24535h 2.48177v -4.24535h 0.620442v 4.24535h 0.620442v -4.24535h 0.620442v 4.24535h 0.620442v -4.24535h 0.620442v 4.24535h 4.3431v -4.24535h 1.24088v
 4.24535h 1.24088v -4.24535h 1.24088v 4.24535h 1.86133v -4.24535h 1.24088v 4.24535h 2.48177v -4.24535h 1.24088v 4.24535h 2.48177v -8.49069h 0.620442v 8.49069h 0.620442v -4.24535h 0.620442v 4.24535h 0.620442v -4.24535h 0.620442v 4.24535h 0.620442v
 -4.24535h 0.620442v 4.24535h 1.86133v -4.24535h 0.620442v 4.24535h 0.620442v -4.24535h 0.620442v 4.24535h 1.24088v -4.24535h 0.620442v 4.24535h 6.82486v -4.24535h 0.620442v 4.24535h 1.24088v -4.24535h 0.620442v 4.24535h 1.86133v -4.24535h 0.620442v
 4.24535h 0.620442v -8.49069h 0.620442v 8.49069h 1.24088v -4.24535h 1.24088v 4.24535h 2.48177v -4.24535h 1.24088v 4.24535h 2.48177v -4.24535h 1.24088v 4.24535h 0.620442v -4.24535h 0.620442v 4.24535h 0.620442v -8.49069h 1.24088v 8.49069h 3.72265v
 -16.9814h 0.620442v 4.24535h 0.620442v 8.49069h 1.24088v -8.49069h 0.620442v -4.24535h 0.620442v 16.9814h 1.24088v -8.49069h 1.24088v 4.24535h 0.620442v -4.24535h 0.620442v 4.24535h 1.24088v 4.24535h 0.620442v -4.24535h 0.620442v -8.49069h 0.620442v
 8.49069h 0.620442v -8.49069h 1.24088v 8.49069h 0.620442v -8.49069h 0.620442v -4.24535h 0.620442v 16.9814h 1.24088v -4.24535h 0.620442v -4.24535h 0.620442v 4.24535h 0.620442v 4.24535h 1.24088v -8.49069h 0.620442v 4.24535h 0.620442v -4.24535h
 0.620442v 4.24535h 0.620442v 4.24535h 0.620442v -4.24535h 0.620442v -12.736h 0.620442v 16.9814h 1.24088v -8.49069h 0.620442v 8.49069h 0.620442v -12.736h 0.620442v 8.49069h 0.620442v 4.24535h 0.620442v -4.24535h 1.86133v -4.24535h 1.24088v 4.24535h
 0.620442v 4.24535h 0.620442v -4.24535h 0.620442v 4.24535h 0.620442v -8.49069h 0.620442v 8.49069h 1.86133v -4.24535h 0.620442v 4.24535h 0.620442v -4.24535h 1.24088v 4.24535h 0.620442v -8.49069h 0.620442v 8.49069h 0.620442v -4.24535h 0.620442v
 4.24535h 0.620442v -4.24535h 0.620442v 4.24535h 0.620442v -4.24535h 0.620442v 4.24535h 0.620442v -4.24535h 0.620442v 4.24535h 1.86133v -4.24535h 0.620442v 4.24535h 0.620442v -8.49069h 0.620442v 8.49069h 4.96354v -8.49069h 0.620442v 8.49069h 2.48177v
 -4.24535h 0.620442v 4.24535h 2.48177v -8.49069h 0.620442v 4.24535h 0.620442v 4.24535h 3.72265v -4.24535h 0.620442v 4.24535h 0.620442v -4.24535h 0.620442v 4.24535h 1.24088v -4.24535h 0.620442v 4.24535h 1.24088v -8.49069h 0.620442v 4.24535h 0.620442v
 4.24535h 0.620442v -8.49069h 0.620442v 8.49069h 9.92708v -4.24535h 0.620442v 4.24535h 4.96354v -4.24535h 0.620442v 4.24535h 10.5475v -4.24535h 0.620442v 4.24535h 0.620442v -4.24535h 0.620442v 4.24535h 4.3431v -4.24535h 0.620442v 4.24535h 14.8906v
 -4.24535h 0.620442v 4.24535h 1.24088v -4.24535h 0.620442v 4.24535h 0.620442v -4.24535h 0.620442v 4.24535h 1.24088v -4.24535h 1.24088v 4.24535h 0.620442v -4.24535h 0.620442v 4.24535h 1.24088v -4.24535h 0.620442v 4.24535h 1.86133v -4.24535h 0.620442v
 4.24535h 3.10221v -4.24535h 0.620442v 4.24535h 11.168v -4.24535h 0.620442v 4.24535h 0.620442v -8.49069h 0.620442v -16.9814h 0.620442v -46.6988h 0.620442v -42.4535h 0.620442v -4.24535h 0.620442v 16.9814h 0.620442v 42.4535h 0.620442v -16.9814h
 0.620442v 21.2267h 0.620442v 33.9628h 1.24088v -21.2267h 0.620442v 21.2267h 0.620442v 4.24535h 1.24088v -4.24535h 0.620442v 12.736h 0.620442v -16.9814h 0.620442v -4.24535h 0.620442v 21.2267h 0.620442v -8.49069h 0.620442v 12.736h 0.620442v -4.24535h
 0.620442v -8.49069h 0.620442v 4.24535h 0.620442v -4.24535h 1.24088v 4.24535h 0.620442v -16.9814h 0.620442v 4.24535h 0.620442v 8.49069h 0.620442v 8.49069h 0.620442v -4.24535h 0.620442v 8.49069h 0.620442v -12.736h 1.24088v 8.49069h 0.620442v -12.736h
 0.620442v -4.24535h 0.620442v 21.2267h 0.620442v -4.24535h 0.620442v 4.24535h 0.620442v 4.24535h 1.24088v -4.24535h 0.620442" fill="none" stroke="#000099"/>
<path d="M57.1929,346.022h 453.543" fill="none" stroke="black"/>
<path d="M57.8134,336.795v 9.22726" fill="none" stroke="black"/>
<path d="M78.4948,341.409v 4.61363" fill="none" stroke="black"/>
<path d="M99.1762,341.409v 4.61363" fill="none" stroke="black"/>
<path d="M119.858,341.409v 4.61363" fill="none" stroke="black"/>
<path d="M140.539,341.409v 4.61363" fill="none" stroke="black"/>
<path d="M161.22,336.795v 9.22726" fill="none" stroke="black"/>
<path d="M181.902,341.409v 4.61363" fill="none" stroke="black"/>
<path d="M202.583,341.409v 4.61363" fill="none" stroke="black"/>
<path d="M223.265,341.409v 4.61363" fill="none" stroke="black"/>
<path d="M243.946,341.409v 4.61363" fill="none" stroke="black"/>
<path d="M264.627,336.795v 9.22726" fill="none" stroke="black"/>
<path d="M285.309,341.409v 4.61363" fill="none" stroke="black"/>
<path d="M305.99,341.409v 4.61363" fill="none" stroke="black"/>
<path d="M326.672,341.409v 4.61363" fill="none" stroke="black"/>
<path d="M347.353,341.409v 4.61363" fill="none" stroke="black"/>
<path d="M368.034,336.795v 9.22726" fill="none" stroke="black"/>
<path d="M388.716,341.409v 4.61363" fill="none" stroke="black"/>
<path d="M409.397,341.409v 4.61363" fill="none" stroke="black"/>
<path d="M430.079,341.409v 4.61363" fill="none" stroke="black"/>
<path d="M450.76,341.409v 4.61363" fill="none" stroke="black"/>
<path d="M471.442,336.795v 9.22726" fill="none" stroke="black"/>
<path d="M57.8134,336.795v 9.22726" fill="none" stroke="black"/>
<path d="M471.442,336.795v 9.22726" fill="none" stroke="black"/>
<path d="M492.123,341.409v 4.61363" fill="none" stroke="black"/>
<text xml:space="preserve" x="54.2605" y="358.403" fill="black" font-size="12.8453" font-family="Helvetica">0</text>
<text xml:space="preserve" x="150.378" y="358.403" fill="black" font-size="12.8453" font-family="Helvetica">500</text>
<text xml:space="preserve" x="250.568" y="358.403" fill="black" font-size="12.8453" font-family="Helvetica">1000</text>
<text xml:space="preserve" x="354.016" y="358.403" fill="black" font-size="12.8453" font-family="Helvetica">1500</text>
<text xml:space="preserve" x="457.464" y="358.403" fill="black" font-size="12.8453" font-family="Helvetica">2000</text>
<text xml:space="preserve" x="451.763" y="372.251" fill="black" font-size="12.8453" font-family="Helvetica">ADC value</text>
<path d="M57.1929,346.022v -307.575" fill="none" stroke="black"/>
<path d="M70.7992,346.022h -13.6063" fill="none" stroke="black"/>
<path d="M63.9961,337.532h -6.80315" fill="none" stroke="black"/>
<path d="M63.9961,329.041h -6.80315" fill="none" stroke="black"/>
<path d="M63.9961,320.55h -6.80315" fill="none" stroke="black"/>
<path d="M63.9961,312.059h -6.80315" fill="none" stroke="black"/>
<path d="M70.7992,303.569h -13.6063" fill="none" stroke="black"/>
<path d="M63.9961,295.078h -6.80315" fill="none" stroke="black"/>
<path d="M63.9961,286.587h -6.80315" fill="none" stroke="black"/>
<path d="M63.9961,278.097h -6.80315" fill="none" stroke="black"/>
<path d="M63.9961,269.606h -6.80315" fill="none" stroke="black"/>
<path d="M70.7992,261.115h -13.6063" fill="none" stroke="black"/>
<path d="M63.9961,252.625h -6.80315" fill="none" stroke="black"/>
<path d="M63.9961,244.134h -6.80315" fill="none" stroke="black"/>
<path d="M63.9961,235.643h -6.80315" fill="none" stroke="black"/>
<path d="M63.9961,227.153h -6.80315" fill="none" stroke="black"/>
<path d="M70.7992,218.662h -13.6063" fill="none" stroke="black"/>
<path d="M63.9961,210.171h -6.80315" fill="none" stroke="black"/>
<path d="M63.9961,201.68h -6.80315" fill="none" stroke="black"/>
<path d="M63.9961,193.19h -6.80315" fill="none" stroke="black"/>
<path d="M63.9961,184.699h -6.80315" fill="none" stroke="black"/>
<path d="M70.7992,176.208h -13.6063" fill="none" stroke="black"/>
<path d="M63.9961,167.718h -6.80315" fill="none" stroke="black"/>
<path d="M63.9961,159.227h -6.80315" fill="none" stroke="black"/>
<path d="M63.9961,150.736h -6.80315" fill="none" stroke="black"/>
<path d="M63.9961,142.246h -6.80315" fill="none" stroke="black"/>
<path d="M70.7992,133.755h -13.6063" fill="none" stroke="black"/>
<path d="M63.9961,125.264h -6.80315" fill="none" stroke="black"/>
<path d="M63.9961,116.774h -6.80315" fill="none" stroke="black"/>
<path d="M63.9961,108.283h -6.80315" fill="none" stroke="black"/>
<path d="M63.9961,99.7922h -6.80315" fill="none" stroke="black"/>
<path d="M70.7992,91.3015h -13.6063" fill="none" stroke="black"/>
<path d="M63.9961,82.8108h -6.80315" fill="none" stroke="black"/>
<path d="M63.9961,74.3201h -6.80315" fill="none" stroke="black"/>
<path d="M63.9961,65.8294h -6.80315" fill="none" stroke="black"/>
<path d="M63.9961,57.3387h -6.80315" fill="none" stroke="black"/>
<path d="M70.7992,48.848h -13.6063" fill="none" stroke="black"/>
<path d="M70.7992,48.848h -13.6063" fill="none" stroke="black"/>
<path d="M63.9961,40.3573h -6.80315" fill="none" stroke="black"/>
<text xml:space="preserve" x="47.7441" y="350.258" fill="black" font-size="12.8453" font-family="Helvetica">0</text>
<text xml:space="preserve" x="41.2277" y="307.901" fill="black" font-size="12.8453" font-family="Helvetica">10</text>
<text xml:space="preserve" x="41.2277" y="265.544" fill="black" font-size="12.8453" font-family="Helvetica">20</text>
<text xml:space="preserve" x="41.2277" y="223.188" fill="black" font-size="12.8453" font-family="Helvetica">30</text>
<text xml:space="preserve" x="41.2277" y="180.831" fill="black" font-size="12.8453" font-family="Helvetica">40</text>
<text xml:space="preserve" x="41.2277" y="138.474" fill="black" font-size="12.8453" font-family="Helvetica">50</text>
<text xml:space="preserve" x="41.2277" y="96.1173" fill="black" font-size="12.8453" font-family="Helvetica">60</text>
<text xml:space="preserve" x="41.2277" y="52.946" fill="black" font-size="12.8453" font-family="Helvetica">70</text>
<g transform="rotate(-90,29.0094,70.0516)">
<text xml:space="preserve" x="29.0094" y="70.0516" fill="black" font-size="12.8453" font-family="Helvetica">Event</text>
</g>
<text xml:space="preserve" x="253.012" y="18.7347" fill="black" font-size="18.0316" font-family="Helvetica">Cs_003</text>
<rect x="442.705" y="24.9905" width="113.386" height="61.5151" fill="white"/>
<path d="M442.705,86.5056h 113.386" fill="none" stroke="black"/>
<path d="M556.091,86.5056v -61.5151" fill="none" stroke="black"/>
<path d="M556.091,24.9905h -113.386" fill="none" stroke="black"/>
<path d="M442.705,24.9905v 61.5151" fill="none" stroke="black"/>
<text xml:space="preserve" x="476.199" y="36.6549" fill="black" font-size="13.4802" font-family="Helvetica">Cs_003</text>
<path d="M442.705,40.3693h 113.386" fill="none" stroke="black"/>
<text xml:space="preserve" x="447.69" y="52.946" fill="black" font-size="13.0654" font-family="Helvetica">Entries </text>
<text xml:space="preserve" x="517.741" y="52.946" fill="black" font-size="13.0654" font-family="Helvetica"> 1038</text>
<text xml:space="preserve" x="447.69" y="67.6079" fill="black" font-size="13.0654" font-family="Helvetica">Mean  </text>
<text xml:space="preserve" x="512.854" y="67.6079" fill="black" font-size="13.0654" font-family="Helvetica">  958.1</text>
<text xml:space="preserve" x="447.69" y="83.0844" fill="black" font-size="13.0654" font-family="Helvetica">Std Dev   </text>
<text xml:space="preserve" x="510.41" y="83.0844" fill="black" font-size="13.0654" font-family="Helvetica">  803.7</text>
<text xml:space="preserve" x="253.012" y="18.7347" fill="black" font-size="18.0316" font-family="Helvetica">Cs_003</text></svg>
