<?xml version="1.0" standalone="no"?>
<svg width="567.429" height="384.68" viewBox="0 0 567.429 384.68" xmlns="http://www.w3.org/2000/svg" shape-rendering="crispEdges">
<title>
img/week1/plane_hist/Cs_008.svg
</title>
<desc>
Creator: ROOT Version 6.22/09
CreationDate: Tue Jul 13 18:36:44 2021</desc>
<defs>
</defs>
<rect x="0.5" y="0" width="566.929" height="384.18" fill="white"/>
<rect x="57.1929" y="38.418" width="453.543" height="307.344" fill="white"/>
<rect x="57.1929" y="38.418" width="453.543" height="307.344" fill="none" stroke="black"/>
<path d="M57.1929,345.762h 47.1132v -1.43837h 0.628176v -5.0343h 0.628176v -10.7878h 0.628176v -0.719185h 0.628176v 6.47267h 0.628176v 2.15756h 1.25635v 2.15756h 0.628176v 2.15756h 0.628176v -1.43837h 0.628176v 4.31511h 0.628176v -2.87674h 0.628176v
 1.43837h 0.628176v -1.43837h 0.628176v 0.719185h 0.628176v 1.43837h 0.628176v -2.15756h 1.25635v 2.87674h 0.628176v 0.719185h 0.628176v -0.719185h 0.628176v -0.719185h 1.25635v 1.43837h 0.628176v -2.87674h 0.628176v -2.15756h 0.628176v 4.31511h
 0.628176v -0.719185h 1.25635v 1.43837h 1.25635v -2.15756h 0.628176v 2.87674h 0.628176v -0.719185h 0.628176v -2.15756h 1.25635v 0.719185h 1.25635v 2.15756h 0.628176v -2.87674h 0.628176v 1.43837h 0.628176v -0.719185h 0.628176v 0.719185h 0.628176v
 -0.719185h 1.25635v 2.15756h 0.628176v -1.43837h 0.628176v -3.59593h 0.628176v 4.31511h 0.628176v -2.15756h 0.628176v 0.719185h 0.628176v 1.43837h 0.628176v -0.719185h 0.628176v 0.719185h 0.628176v -0.719185h 0.628176v -2.15756h 0.628176v 0.719185h
 1.25635v 1.43837h 0.628176v -1.43837h 0.628176v 0.719185h 0.628176v 1.43837h 0.628176v -2.15756h 1.25635v 2.87674h 0.628176v -3.59593h 0.628176v 2.15756h 0.628176v 0.719185h 1.25635v -2.87674h 0.628176v 1.43837h 0.628176v -0.719185h 0.628176v
 -1.43837h 0.628176v 2.15756h 0.628176v 1.43837h 1.25635v -0.719185h 1.88453v -0.719185h 0.628176v 0.719185h 0.628176v -2.87674h 0.628176v 3.59593h 0.628176v -1.43837h 0.628176v -1.43837h 1.25635v 3.59593h 0.628176v -5.0343h 0.628176v 2.15756h
 0.628176v 1.43837h 0.628176v 1.43837h 0.628176v -4.31511h 0.628176v 2.87674h 0.628176v 2.15756h 0.628176v -3.59593h 0.628176v 1.43837h 0.628176v 2.15756h 0.628176v -2.15756h 1.25635v -1.43837h 0.628176v 1.43837h 0.628176v 2.15756h 0.628176v
 -1.43837h 0.628176v -0.719185h 0.628176v -0.719185h 0.628176v 0.719185h 0.628176v 0.719185h 0.628176v -0.719185h 0.628176v -2.87674h 0.628176v 2.15756h 0.628176v -0.719185h 0.628176v 1.43837h 0.628176v -2.15756h 0.628176v 2.87674h 0.628176v
 -2.87674h 0.628176v 1.43837h 1.25635v 0.719185h 1.25635v 1.43837h 1.25635v -1.43837h 0.628176v -0.719185h 1.25635v -0.719185h 0.628176v 1.43837h 0.628176v -0.719185h 1.25635v -2.15756h 0.628176v 3.59593h 0.628176v -0.719185h 0.628176v 0.719185h
 0.628176v -0.719185h 0.628176v -1.43837h 0.628176v 2.87674h 0.628176v -2.87674h 0.628176v 2.15756h 0.628176v -1.43837h 0.628176v 0.719185h 0.628176v -1.43837h 0.628176v -0.719185h 0.628176v 3.59593h 0.628176v -1.43837h 1.25635v 1.43837h 0.628176v
 -2.15756h 0.628176v 1.43837h 0.628176v 0.719185h 0.628176v -0.719185h 0.628176v 1.43837h 0.628176v -2.87674h 0.628176v 1.43837h 0.628176v 1.43837h 0.628176v -0.719185h 0.628176v -2.15756h 0.628176v 1.43837h 0.628176v -1.43837h 0.628176v -0.719185h
 0.628176v 2.15756h 0.628176v -0.719185h 0.628176v 0.719185h 0.628176v -2.87674h 0.628176v 2.15756h 0.628176v -2.15756h 0.628176v 1.43837h 0.628176v 2.15756h 0.628176v -0.719185h 0.628176v -1.43837h 1.25635v -0.719185h 0.628176v 1.43837h 0.628176v
 -0.719185h 1.88453v 2.15756h 0.628176v -2.15756h 0.628176v 0.719185h 0.628176v -1.43837h 0.628176v 0.719185h 0.628176v 0.719185h 0.628176v -0.719185h 0.628176v -1.43837h 0.628176v 1.43837h 0.628176v -1.43837h 0.628176v 2.87674h 0.628176v -1.43837h
 0.628176v -0.719185h 1.25635v 2.15756h 1.25635v -2.87674h 0.628176v -1.43837h 0.628176v 3.59593h 0.628176v -1.43837h 0.628176v 2.15756h 0.628176v -4.31511h 0.628176v -0.719185h 0.628176v 1.43837h 1.25635v 1.43837h 0.628176v -1.43837h 0.628176v
 -1.43837h 0.628176v 2.87674h 0.628176v -2.15756h 1.25635v 2.15756h 0.628176v -0.719185h 0.628176v 1.43837h 0.628176v -2.87674h 0.628176v -2.87674h 0.628176v -2.87674h 0.628176v 8.63022h 0.628176v 0.719185h 0.628176v -0.719185h 0.628176v -4.31511h
 0.628176v 2.15756h 0.628176v 1.43837h 0.628176v 0.719185h 0.628176v 0.719185h 0.628176v -0.719185h 0.628176v -1.43837h 0.628176v 1.43837h 0.628176v -2.15756h 0.628176v -0.719185h 0.628176v 1.43837h 0.628176v 1.43837h 1.25635v -0.719185h 1.25635v
 0.719185h 0.628176v 1.43837h 0.628176v -1.43837h 0.628176v -0.719185h 0.628176v -1.43837h 0.628176v 1.43837h 0.628176v 2.15756h 0.628176v -1.43837h 0.628176v -0.719185h 0.628176v -0.719185h 0.628176v 2.15756h 0.628176v -0.719185h 0.628176v -2.15756h
 0.628176v 0.719185h 0.628176v 3.59593h 0.628176v -1.43837h 0.628176v 0.719185h 0.628176v -2.87674h 0.628176v 1.43837h 0.628176v -1.43837h 0.628176v 0.719185h 0.628176v 0.719185h 1.88453v -2.15756h 0.628176v 2.87674h 0.628176v 1.43837h 0.628176v
 -2.15756h 0.628176v 1.43837h 0.628176v 1.43837h 0.628176v -1.43837h 0.628176v -0.719185h 0.628176v 2.15756h 1.25635v -2.15756h 0.628176v 0.719185h 0.628176v -2.87674h 0.628176v -0.719185h 0.628176v 2.15756h 1.25635v -2.15756h 0.628176v 2.15756h
 1.25635v 0.719185h 0.628176v -1.43837h 0.628176v 2.15756h 0.628176v -2.87674h 1.25635v 3.59593h 0.628176v -0.719185h 0.628176v -0.719185h 0.628176v 0.719185h 0.628176v -1.43837h 0.628176v 0.719185h 0.628176v -3.59593h 0.628176v 4.31511h 1.25635v
 -2.87674h 0.628176v -2.15756h 0.628176v 4.31511h 0.628176v -5.75348h 0.628176v 5.0343h 0.628176v -2.87674h 0.628176v 3.59593h 1.25635v -2.87674h 0.628176v 0.719185h 0.628176v 0.719185h 0.628176v -7.19185h 0.628176v 8.63022h 0.628176v -1.43837h
 0.628176v -3.59593h 0.628176v -2.15756h 0.628176v 2.87674h 0.628176v 1.43837h 0.628176v -0.719185h 0.628176v -1.43837h 0.628176v -2.87674h 0.628176v -0.719185h 0.628176v 5.0343h 0.628176v -4.31511h 0.628176v -0.719185h 0.628176v 0.719185h 0.628176v
 2.87674h 0.628176v -2.15756h 1.25635v -5.0343h 0.628176v 7.91104h 0.628176v -3.59593h 0.628176v -3.59593h 0.628176v -2.87674h 0.628176v 2.15756h 0.628176v 1.43837h 0.628176v 1.43837h 0.628176v -4.31511h 0.628176v 0.719185h 0.628176v 0.719185h
 0.628176v 2.15756h 0.628176v 1.43837h 0.628176v -4.31511h 0.628176v -5.0343h 0.628176v 8.63022h 0.628176v -2.15756h 0.628176v -2.15756h 0.628176v 3.59593h 0.628176v -5.75348h 0.628176v 5.0343h 0.628176v 2.15756h 0.628176v -6.47267h 0.628176v
 -4.31511h 0.628176v 7.19185h 0.628176v 2.15756h 0.628176v 5.75348h 0.628176v -6.47267h 0.628176v -2.15756h 0.628176v 5.0343h 0.628176v 4.31511h 0.628176v -4.31511h 0.628176v 1.43837h 1.25635v -0.719185h 0.628176v 2.15756h 0.628176v -0.719185h
 0.628176v -0.719185h 0.628176v 3.59593h 0.628176v -0.719185h 0.628176v -3.59593h 0.628176v 4.31511h 0.628176v 3.59593h 0.628176v -5.75348h 0.628176v 2.15756h 0.628176v -0.719185h 1.25635v 2.87674h 0.628176v -2.15756h 1.25635v -1.43837h 0.628176v
 1.43837h 0.628176v -5.0343h 0.628176v 9.34941h 1.25635v -2.15756h 0.628176v -3.59593h 0.628176v 3.59593h 0.628176v -1.43837h 0.628176v 1.43837h 0.628176v -1.43837h 0.628176v 1.43837h 1.88453v 1.43837h 0.628176v -2.87674h 0.628176v 2.15756h 0.628176v
 -2.87674h 0.628176v 0.719185h 0.628176v 1.43837h 1.25635v -0.719185h 0.628176v 1.43837h 0.628176v -2.15756h 0.628176v -0.719185h 0.628176v 2.15756h 0.628176v -1.43837h 0.628176v 3.59593h 0.628176v -1.43837h 0.628176v -1.43837h 0.628176v 2.15756h
 0.628176v -0.719185h 1.25635v -0.719185h 1.25635v -0.719185h 0.628176v 2.15756h 0.628176v -2.15756h 0.628176v 0.719185h 0.628176v 0.719185h 1.25635v 0.719185h 0.628176v 0.719185h 0.628176v -3.59593h 0.628176v 2.87674h 0.628176v 0.719185h 0.628176v
 -2.87674h 0.628176v 1.43837h 0.628176v 2.15756h 0.628176v -2.15756h 0.628176v 2.15756h 0.628176v -2.15756h 0.628176v 1.43837h 0.628176v -1.43837h 0.628176v 0.719185h 0.628176v -0.719185h 0.628176v 0.719185h 0.628176v -0.719185h 0.628176v 1.43837h
 0.628176v 0.719185h 0.628176v -0.719185h 1.25635v 0.719185h 0.628176v -1.43837h 0.628176v -2.15756h 0.628176v 2.15756h 0.628176v -1.43837h 0.628176v -0.719185h 0.628176v 1.43837h 1.25635v 2.15756h 1.25635v -1.43837h 1.25635v -0.719185h 0.628176v
 2.15756h 0.628176v -1.43837h 1.25635v -0.719185h 1.25635v 2.15756h 0.628176v -0.719185h 0.628176v -0.719185h 0.628176v 0.719185h 0.628176v -1.43837h 0.628176v 0.719185h 0.628176v 1.43837h 0.628176v -2.87674h 0.628176v 1.43837h 0.628176v -0.719185h
 0.628176v 2.15756h 0.628176v -0.719185h 0.628176v 0.719185h 1.25635v -2.15756h 0.628176v 1.43837h 0.628176v 0.719185h 0.628176v -1.43837h 0.628176v 0.719185h 0.628176v 0.719185h 0.628176v -1.43837h 0.628176v 1.43837h 3.14088v -0.719185h 0.628176v
 0.719185h 0.628176v -2.87674h 0.628176v 1.43837h 0.628176v -0.719185h 0.628176v 1.43837h 1.88453v 0.719185h 0.628176v -2.15756h 0.628176v 2.15756h 0.628176v -0.719185h 0.628176v 0.719185h 0.628176v -0.719185h 1.88453v -2.87674h 0.628176v 3.59593h
 0.628176v -0.719185h 0.628176v 0.719185h 0.628176v -0.719185h 0.628176v -1.43837h 0.628176v 0.719185h 0.628176v 1.43837h 0.628176v -2.87674h 0.628176v 2.15756h 0.628176v -0.719185h 0.628176v -0.719185h 0.628176v 2.15756h 0.628176v -0.719185h
 0.628176v 0.719185h 0.628176v -0.719185h 0.628176v 0.719185h 0.628176v -1.43837h 0.628176v -0.719185h 0.628176v 2.15756h 1.25635v -0.719185h 0.628176v -1.43837h 0.628176v 0.719185h 0.628176v 1.43837h 1.25635v -0.719185h 0.628176v 0.719185h 1.88453v
 -2.15756h 0.628176v 2.15756h 0.628176v -1.43837h 1.88453v 1.43837h 0.628176v -2.15756h 0.628176v 1.43837h 0.628176v -2.15756h 0.628176v 2.15756h 1.25635v 0.719185h 0.628176v -0.719185h 0.628176v -1.43837h 0.628176v 0.719185h 1.25635v 1.43837h
 0.628176v -0.719185h 0.628176v -0.719185h 0.628176v 0.719185h 1.25635v 0.719185h 0.628176v -0.719185h 0.628176v -0.719185h 0.628176v 0.719185h 1.25635v 0.719185h 0.628176v -1.43837h 0.628176v -1.43837h 0.628176v 2.15756h 1.25635v 0.719185h 0.628176v
 -0.719185h 0.628176v -0.719185h 0.628176v 1.43837h 0.628176v -1.43837h 0.628176v 0.719185h 0.628176v -0.719185h 0.628176v 1.43837h 0.628176v -0.719185h 0.628176v 0.719185h 1.25635v -0.719185h 0.628176v -0.719185h 0.628176v 0.719185h 0.628176v
 -0.719185h 0.628176v 1.43837h 0.628176v -1.43837h 0.628176v 0.719185h 1.25635v -1.43837h 0.628176v 0.719185h 0.628176v 0.719185h 0.628176v -0.719185h 1.25635v -1.43837h 0.628176v 1.43837h 1.25635v 0.719185h 1.88453v -2.15756h 0.628176v 2.15756h
 1.25635v 0.719185h 0.628176v -0.719185h 0.628176v 0.719185h 1.25635v -0.719185h 1.88453v 0.719185h 0.628176v -1.43837h 1.25635v 1.43837h 0.628176v -0.719185h 1.88453v -0.719185h 1.25635v 1.43837h 1.25635v -0.719185h 1.25635v -0.719185h 0.628176v
 -1.43837h 1.25635v -4.31511h 0.628176v -74.7953h 0.628176v -210.721h 0.628176v 117.227h 0.628176v 15.8221h 0.628176v -41.7127h 0.628176v 60.4116h 0.628176v 55.3773h 0.628176v 28.7674h 0.628176v -10.0686h 0.628176v 19.418h 0.628176v 9.34941h
 0.628176v 3.59593h 0.628176v -3.59593h 1.25635v -7.19185h 0.628176v 14.3837h 0.628176v -5.75348h 0.628176v 3.59593h 0.628176v 0.719185h 0.628176v 0.719185h 0.628176v -2.87674h 0.628176v 8.63022h 0.628176v -18.6988h 0.628176v 8.63022h 0.628176v
 16.5413h 0.628176v -12.2261h 1.25635v 3.59593h 0.628176v -4.31511h 0.628176v -2.15756h 0.628176v 10.0686h 0.628176v -2.15756h 0.628176v -2.15756h 0.628176v 10.0686h 0.628176v -3.59593h 0.628176v -4.31511h 0.628176v 2.15756h 0.628176v 10.0686h
 0.628176v 3.59593h 0.628176v 4.31511h 0.628176v 2.87674h 0.628176v 2.15756h 0.628176" fill="none" stroke="#000099"/>
<path d="M57.1929,345.762h 453.543" fill="none" stroke="black"/>
<path d="M57.8211,336.541v 9.22031" fill="none" stroke="black"/>
<path d="M78.7603,341.152v 4.61016" fill="none" stroke="black"/>
<path d="M99.6995,341.152v 4.61016" fill="none" stroke="black"/>
<path d="M120.639,341.152v 4.61016" fill="none" stroke="black"/>
<path d="M141.578,341.152v 4.61016" fill="none" stroke="black"/>
<path d="M162.517,336.541v 9.22031" fill="none" stroke="black"/>
<path d="M183.456,341.152v 4.61016" fill="none" stroke="black"/>
<path d="M204.396,341.152v 4.61016" fill="none" stroke="black"/>
<path d="M225.335,341.152v 4.61016" fill="none" stroke="black"/>
<path d="M246.274,341.152v 4.61016" fill="none" stroke="black"/>
<path d="M267.213,336.541v 9.22031" fill="none" stroke="black"/>
<path d="M288.152,341.152v 4.61016" fill="none" stroke="black"/>
<path d="M309.092,341.152v 4.61016" fill="none" stroke="black"/>
<path d="M330.031,341.152v 4.61016" fill="none" stroke="black"/>
<path d="M350.97,341.152v 4.61016" fill="none" stroke="black"/>
<path d="M371.909,336.541v 9.22031" fill="none" stroke="black"/>
<path d="M392.848,341.152v 4.61016" fill="none" stroke="black"/>
<path d="M413.788,341.152v 4.61016" fill="none" stroke="black"/>
<path d="M434.727,341.152v 4.61016" fill="none" stroke="black"/>
<path d="M455.666,341.152v 4.61016" fill="none" stroke="black"/>
<path d="M476.605,336.541v 9.22031" fill="none" stroke="black"/>
<path d="M57.8211,336.541v 9.22031" fill="none" stroke="black"/>
<path d="M476.605,336.541v 9.22031" fill="none" stroke="black"/>
<path d="M497.545,341.152v 4.61016" fill="none" stroke="black"/>
<text xml:space="preserve" x="54.1065" y="358.189" fill="black" font-size="12.836" font-family="Helvetica">0</text>
<text xml:space="preserve" x="151.573" y="358.189" fill="black" font-size="12.836" font-family="Helvetica">500</text>
<text xml:space="preserve" x="253.1" y="358.189" fill="black" font-size="12.836" font-family="Helvetica">1000</text>
<text xml:space="preserve" x="357.877" y="358.189" fill="black" font-size="12.836" font-family="Helvetica">1500</text>
<text xml:space="preserve" x="462.653" y="358.189" fill="black" font-size="12.836" font-family="Helvetica">2000</text>
<text xml:space="preserve" x="452.094" y="371.996" fill="black" font-size="12.836" font-family="Helvetica">ADC value</text>
<path d="M57.1929,345.762v -307.344" fill="none" stroke="black"/>
<path d="M70.7992,345.762h -13.6063" fill="none" stroke="black"/>
<path d="M63.9961,338.57h -6.80315" fill="none" stroke="black"/>
<path d="M63.9961,331.378h -6.80315" fill="none" stroke="black"/>
<path d="M63.9961,324.186h -6.80315" fill="none" stroke="black"/>
<path d="M63.9961,316.994h -6.80315" fill="none" stroke="black"/>
<path d="M70.7992,309.803h -13.6063" fill="none" stroke="black"/>
<path d="M63.9961,302.611h -6.80315" fill="none" stroke="black"/>
<path d="M63.9961,295.419h -6.80315" fill="none" stroke="black"/>
<path d="M63.9961,288.227h -6.80315" fill="none" stroke="black"/>
<path d="M63.9961,281.035h -6.80315" fill="none" stroke="black"/>
<path d="M70.7992,273.843h -13.6063" fill="none" stroke="black"/>
<path d="M63.9961,266.651h -6.80315" fill="none" stroke="black"/>
<path d="M63.9961,259.46h -6.80315" fill="none" stroke="black"/>
<path d="M63.9961,252.268h -6.80315" fill="none" stroke="black"/>
<path d="M63.9961,245.076h -6.80315" fill="none" stroke="black"/>
<path d="M70.7992,237.884h -13.6063" fill="none" stroke="black"/>
<path d="M63.9961,230.692h -6.80315" fill="none" stroke="black"/>
<path d="M63.9961,223.5h -6.80315" fill="none" stroke="black"/>
<path d="M63.9961,216.308h -6.80315" fill="none" stroke="black"/>
<path d="M63.9961,209.117h -6.80315" fill="none" stroke="black"/>
<path d="M70.7992,201.925h -13.6063" fill="none" stroke="black"/>
<path d="M63.9961,194.733h -6.80315" fill="none" stroke="black"/>
<path d="M63.9961,187.541h -6.80315" fill="none" stroke="black"/>
<path d="M63.9961,180.349h -6.80315" fill="none" stroke="black"/>
<path d="M63.9961,173.157h -6.80315" fill="none" stroke="black"/>
<path d="M70.7992,165.965h -13.6063" fill="none" stroke="black"/>
<path d="M63.9961,158.774h -6.80315" fill="none" stroke="black"/>
<path d="M63.9961,151.582h -6.80315" fill="none" stroke="black"/>
<path d="M63.9961,144.39h -6.80315" fill="none" stroke="black"/>
<path d="M63.9961,137.198h -6.80315" fill="none" stroke="black"/>
<path d="M70.7992,130.006h -13.6063" fill="none" stroke="black"/>
<path d="M63.9961,122.814h -6.80315" fill="none" stroke="black"/>
<path d="M63.9961,115.623h -6.80315" fill="none" stroke="black"/>
<path d="M63.9961,108.431h -6.80315" fill="none" stroke="black"/>
<path d="M63.9961,101.239h -6.80315" fill="none" stroke="black"/>
<path d="M70.7992,94.047h -13.6063" fill="none" stroke="black"/>
<path d="M63.9961,86.8551h -6.80315" fill="none" stroke="black"/>
<path d="M63.9961,79.6633h -6.80315" fill="none" stroke="black"/>
<path d="M63.9961,72.4714h -6.80315" fill="none" stroke="black"/>
<path d="M63.9961,65.2795h -6.80315" fill="none" stroke="black"/>
<path d="M70.7992,58.0877h -13.6063" fill="none" stroke="black"/>
<path d="M70.7992,58.0877h -13.6063" fill="none" stroke="black"/>
<path d="M63.9961,50.8958h -6.80315" fill="none" stroke="black"/>
<path d="M63.9961,43.704h -6.80315" fill="none" stroke="black"/>
<text xml:space="preserve" x="47.6087" y="350.067" fill="black" font-size="12.836" font-family="Helvetica">0</text>
<text xml:space="preserve" x="41.111" y="314.329" fill="black" font-size="12.836" font-family="Helvetica">50</text>
<text xml:space="preserve" x="33.801" y="278.591" fill="black" font-size="12.836" font-family="Helvetica">100</text>
<text xml:space="preserve" x="33.801" y="242.041" fill="black" font-size="12.836" font-family="Helvetica">150</text>
<text xml:space="preserve" x="33.801" y="206.304" fill="black" font-size="12.836" font-family="Helvetica">200</text>
<text xml:space="preserve" x="33.801" y="170.566" fill="black" font-size="12.836" font-family="Helvetica">250</text>
<text xml:space="preserve" x="33.801" y="134.828" fill="black" font-size="12.836" font-family="Helvetica">300</text>
<text xml:space="preserve" x="33.801" y="98.2785" fill="black" font-size="12.836" font-family="Helvetica">350</text>
<text xml:space="preserve" x="33.801" y="62.5409" fill="black" font-size="12.836" font-family="Helvetica">400</text>
<g transform="rotate(-90,20.8055,69.8509)">
<text xml:space="preserve" x="20.8055" y="69.8509" fill="black" font-size="12.836" font-family="Helvetica">Event</text>
</g>
<text xml:space="preserve" x="253.1" y="18.681" fill="black" font-size="17.9813" font-family="Helvetica">Cs_008</text>
<rect x="442.705" y="24.9717" width="113.386" height="61.4688" fill="white"/>
<path d="M442.705,86.4405h 113.386" fill="none" stroke="black"/>
<path d="M556.091,86.4405v -61.4688" fill="none" stroke="black"/>
<path d="M556.091,24.9717h -113.386" fill="none" stroke="black"/>
<path d="M442.705,24.9717v 61.4688" fill="none" stroke="black"/>
<text xml:space="preserve" x="476.461" y="36.5499" fill="black" font-size="13.4705" font-family="Helvetica">Cs_008</text>
<path d="M442.705,40.3389h 113.386" fill="none" stroke="black"/>
<text xml:space="preserve" x="448.033" y="52.7943" fill="black" font-size="13.0884" font-family="Helvetica">Entries </text>
<text xml:space="preserve" x="517.884" y="52.7943" fill="black" font-size="13.0884" font-family="Helvetica"> 5777</text>
<text xml:space="preserve" x="448.033" y="68.2264" fill="black" font-size="13.0884" font-family="Helvetica">Mean  </text>
<text xml:space="preserve" x="510.574" y="68.2264" fill="black" font-size="13.0884" font-family="Helvetica">   1572</text>
<text xml:space="preserve" x="448.033" y="82.8464" fill="black" font-size="13.0884" font-family="Helvetica">Std Dev   </text>
<text xml:space="preserve" x="514.635" y="82.8464" fill="black" font-size="13.0884" font-family="Helvetica">    604</text>
<text xml:space="preserve" x="253.1" y="18.681" fill="black" font-size="17.9813" font-family="Helvetica">Cs_008</text></svg>
