<?xml version="1.0" standalone="no"?>
<svg width="567.429" height="384.969" viewBox="0 0 567.429 384.969" xmlns="http://www.w3.org/2000/svg" shape-rendering="crispEdges">
<title>
img/week1/plane_hist/Cs_003.svg
</title>
<desc>
Creator: ROOT Version 6.22/09
CreationDate: Fri Jul  2 19:47:38 2021</desc>
<defs>
</defs>
<rect x="0.5" y="0" width="566.929" height="384.469" fill="white"/>
<rect x="57.1929" y="38.4469" width="453.543" height="307.575" fill="white"/>
<rect x="57.1929" y="38.4469" width="453.543" height="307.575" fill="none" stroke="black"/>
<path d="M57.1929,346.022h 34.5472v -4.24535h 0.885827v -16.9814h 0.442913v -80.6616h 0.442913v -76.4162h 0.442913v -114.624h 0.442913v 25.4721h 0.442913v 4.24535h 0.442913v 67.9255h 0.442913v 59.4348h 0.442913v -12.736h 0.442913v 38.2081h 0.442913v
 -25.4721h 0.442913v 89.1523h 0.442913v -16.9814h 0.885827v 8.49069h 0.442913v 25.4721h 0.442913v 4.24535h 0.442913v -4.24535h 0.442913v 12.736h 0.442913v 12.736h 0.442913v -12.736h 0.442913v -4.24535h 0.442913v 16.9814h 0.442913v -12.736h 0.442913v
 8.49069h 0.885827v 8.49069h 0.442913v -4.24535h 0.442913v 4.24535h 0.442913v -8.49069h 0.442913v 8.49069h 0.442913v -4.24535h 1.32874v 4.24535h 3.54331v -8.49069h 0.442913v 8.49069h 1.77165v -4.24535h 0.442913v 4.24535h 0.442913v -8.49069h 0.442913v
 8.49069h 3.98622v -8.49069h 0.442913v 8.49069h 2.65748v -4.24535h 0.442913v 4.24535h 1.32874v -4.24535h 1.32874v 4.24535h 3.54331v -4.24535h 0.442913v 4.24535h 2.65748v -4.24535h 0.442913v -4.24535h 0.442913v 8.49069h 0.885827v -8.49069h 0.442913v
 8.49069h 0.885827v -4.24535h 0.442913v 4.24535h 0.885827v -4.24535h 0.885827v 4.24535h 4.42913v -4.24535h 0.442913v 4.24535h 0.442913v -4.24535h 0.885827v 4.24535h 6.20079v -8.49069h 0.442913v 8.49069h 0.442913v -4.24535h 0.442913v 4.24535h 4.42913v
 -4.24535h 0.442913v 4.24535h 3.54331v -4.24535h 0.442913v 4.24535h 0.885827v -8.49069h 0.442913v 8.49069h 15.0591v -4.24535h 0.442913v 4.24535h 1.32874v -4.24535h 0.442913v 4.24535h 3.54331v -4.24535h 0.885827v 4.24535h 0.442913v -4.24535h 1.32874v
 4.24535h 0.442913v -4.24535h 0.442913v 4.24535h 1.32874v -12.736h 0.442913v 4.24535h 0.442913v 8.49069h 1.77165v -4.24535h 0.442913v 4.24535h 1.32874v -4.24535h 0.442913v 4.24535h 0.442913v -8.49069h 0.442913v 8.49069h 0.442913v -4.24535h 0.442913v
 4.24535h 0.442913v -4.24535h 0.442913v 4.24535h 1.32874v -4.24535h 0.442913v 4.24535h 4.42913v -4.24535h 1.32874v 4.24535h 1.32874v -4.24535h 1.77165v 4.24535h 0.442913v -4.24535h 0.885827v 4.24535h 0.442913v -4.24535h 0.442913v -4.24535h 0.442913v
 8.49069h 1.32874v -4.24535h 0.442913v 4.24535h 0.442913v -12.736h 0.442913v 8.49069h 0.442913v 4.24535h 1.77165v -4.24535h 0.442913v 4.24535h 0.442913v -4.24535h 0.442913v 4.24535h 0.442913v -4.24535h 0.442913v 4.24535h 3.10039v -4.24535h 0.885827v
 4.24535h 0.885827v -4.24535h 0.885827v 4.24535h 1.32874v -4.24535h 0.885827v 4.24535h 1.77165v -4.24535h 0.885827v 4.24535h 1.77165v -8.49069h 0.442913v 8.49069h 0.442913v -4.24535h 0.442913v 4.24535h 0.442913v -4.24535h 0.442913v 4.24535h 0.442913v
 -4.24535h 0.442913v 4.24535h 1.32874v -4.24535h 0.442913v 4.24535h 0.442913v -4.24535h 0.442913v 4.24535h 0.885827v -4.24535h 0.442913v 4.24535h 4.87205v -4.24535h 0.442913v 4.24535h 0.885827v -4.24535h 0.442913v 4.24535h 1.32874v -4.24535h
 0.442913v 4.24535h 0.442913v -8.49069h 0.442913v 8.49069h 0.885827v -4.24535h 0.885827v 4.24535h 1.77165v -4.24535h 0.885827v 4.24535h 1.77165v -4.24535h 0.885827v 4.24535h 0.442913v -4.24535h 0.442913v 4.24535h 0.442913v -8.49069h 0.885827v
 8.49069h 2.65748v -16.9814h 0.442913v 4.24535h 0.442913v 8.49069h 0.885827v -8.49069h 0.442913v -4.24535h 0.442913v 16.9814h 0.885827v -8.49069h 0.885827v 4.24535h 0.442913v -4.24535h 0.442913v 4.24535h 0.885827v 4.24535h 0.442913v -4.24535h
 0.442913v -8.49069h 0.442913v 8.49069h 0.442913v -8.49069h 0.885827v 8.49069h 0.442913v -8.49069h 0.442913v -4.24535h 0.442913v 16.9814h 0.885827v -4.24535h 0.442913v -4.24535h 0.442913v 4.24535h 0.442913v 4.24535h 0.885827v -8.49069h 0.442913v
 4.24535h 0.442913v -4.24535h 0.442913v 4.24535h 0.442913v 4.24535h 0.442913v -4.24535h 0.442913v -12.736h 0.442913v 16.9814h 0.885827v -8.49069h 0.442913v 8.49069h 0.442913v -12.736h 0.442913v 8.49069h 0.442913v 4.24535h 0.442913v -4.24535h 1.32874v
 -4.24535h 0.885827v 4.24535h 0.442913v 4.24535h 0.442913v -4.24535h 0.442913v 4.24535h 0.442913v -8.49069h 0.442913v 8.49069h 1.32874v -4.24535h 0.442913v 4.24535h 0.442913v -4.24535h 0.885827v 4.24535h 0.442913v -8.49069h 0.442913v 8.49069h
 0.442913v -4.24535h 0.442913v 4.24535h 0.442913v -4.24535h 0.442913v 4.24535h 0.442913v -4.24535h 0.442913v 4.24535h 0.442913v -4.24535h 0.442913v 4.24535h 1.32874v -4.24535h 0.442913v 4.24535h 0.442913v -8.49069h 0.442913v 8.49069h 3.54331v
 -8.49069h 0.442913v 8.49069h 1.77165v -4.24535h 0.442913v 4.24535h 1.77165v -8.49069h 0.442913v 4.24535h 0.442913v 4.24535h 2.65748v -4.24535h 0.442913v 4.24535h 0.442913v -4.24535h 0.442913v 4.24535h 0.885827v -4.24535h 0.442913v 4.24535h 0.885827v
 -8.49069h 0.442913v 4.24535h 0.442913v 4.24535h 0.442913v -8.49069h 0.442913v 8.49069h 7.08661v -4.24535h 0.442913v 4.24535h 3.54331v -4.24535h 0.442913v 4.24535h 7.52953v -4.24535h 0.442913v 4.24535h 0.442913v -4.24535h 0.442913v 4.24535h 3.10039v
 -4.24535h 0.442913v 4.24535h 10.6299v -4.24535h 0.442913v 4.24535h 0.885827v -4.24535h 0.442913v 4.24535h 0.442913v -4.24535h 0.442913v 4.24535h 0.885827v -4.24535h 0.885827v 4.24535h 0.442913v -4.24535h 0.442913v 4.24535h 0.885827v -4.24535h
 0.442913v 4.24535h 1.32874v -4.24535h 0.442913v 4.24535h 2.21457v -4.24535h 0.442913v 4.24535h 7.97244v -4.24535h 0.442913v 4.24535h 0.442913v -8.49069h 0.442913v -16.9814h 0.442913v -46.6988h 0.442913v -42.4535h 0.442913v -4.24535h 0.442913v
 16.9814h 0.442913v 42.4535h 0.442913v -16.9814h 0.442913v 21.2267h 0.442913v 33.9628h 0.885827v -21.2267h 0.442913v 21.2267h 0.442913v 4.24535h 0.885827v -4.24535h 0.442913v 12.736h 0.442913v -16.9814h 0.442913v -4.24535h 0.442913v 21.2267h
 0.442913v -8.49069h 0.442913v 12.736h 0.442913v -4.24535h 0.442913v -8.49069h 0.442913v 4.24535h 0.442913v -4.24535h 0.885827v 4.24535h 0.442913v -16.9814h 0.442913v 4.24535h 0.442913v 8.49069h 0.442913v 8.49069h 0.442913v -4.24535h 0.442913v
 8.49069h 0.442913v -12.736h 0.885827v 8.49069h 0.442913v -12.736h 0.442913v -4.24535h 0.442913v 21.2267h 0.442913v -4.24535h 0.442913v 4.24535h 0.442913v 4.24535h 0.885827v -4.24535h 0.442913v 4.24535h 130.217" fill="none" stroke="#000099"/>
<path d="M57.1929,346.022h 453.543" fill="none" stroke="black"/>
<path d="M57.1929,336.795v 9.22726" fill="none" stroke="black"/>
<path d="M71.9567,341.409v 4.61363" fill="none" stroke="black"/>
<path d="M86.7205,341.409v 4.61363" fill="none" stroke="black"/>
<path d="M101.484,341.409v 4.61363" fill="none" stroke="black"/>
<path d="M116.248,341.409v 4.61363" fill="none" stroke="black"/>
<path d="M131.012,336.795v 9.22726" fill="none" stroke="black"/>
<path d="M145.776,341.409v 4.61363" fill="none" stroke="black"/>
<path d="M160.539,341.409v 4.61363" fill="none" stroke="black"/>
<path d="M175.303,341.409v 4.61363" fill="none" stroke="black"/>
<path d="M190.067,341.409v 4.61363" fill="none" stroke="black"/>
<path d="M204.831,336.795v 9.22726" fill="none" stroke="black"/>
<path d="M219.594,341.409v 4.61363" fill="none" stroke="black"/>
<path d="M234.358,341.409v 4.61363" fill="none" stroke="black"/>
<path d="M249.122,341.409v 4.61363" fill="none" stroke="black"/>
<path d="M263.886,341.409v 4.61363" fill="none" stroke="black"/>
<path d="M278.65,336.795v 9.22726" fill="none" stroke="black"/>
<path d="M293.413,341.409v 4.61363" fill="none" stroke="black"/>
<path d="M308.177,341.409v 4.61363" fill="none" stroke="black"/>
<path d="M322.941,341.409v 4.61363" fill="none" stroke="black"/>
<path d="M337.705,341.409v 4.61363" fill="none" stroke="black"/>
<path d="M352.469,336.795v 9.22726" fill="none" stroke="black"/>
<path d="M367.232,341.409v 4.61363" fill="none" stroke="black"/>
<path d="M381.996,341.409v 4.61363" fill="none" stroke="black"/>
<path d="M396.76,341.409v 4.61363" fill="none" stroke="black"/>
<path d="M411.524,341.409v 4.61363" fill="none" stroke="black"/>
<path d="M426.287,336.795v 9.22726" fill="none" stroke="black"/>
<path d="M441.051,341.409v 4.61363" fill="none" stroke="black"/>
<path d="M455.815,341.409v 4.61363" fill="none" stroke="black"/>
<path d="M470.579,341.409v 4.61363" fill="none" stroke="black"/>
<path d="M485.343,341.409v 4.61363" fill="none" stroke="black"/>
<path d="M500.106,336.795v 9.22726" fill="none" stroke="black"/>
<path d="M500.106,336.795v 9.22726" fill="none" stroke="black"/>
<text xml:space="preserve" x="53.446" y="358.403" fill="black" font-size="12.8453" font-family="Helvetica">0</text>
<text xml:space="preserve" x="120.239" y="358.403" fill="black" font-size="12.8453" font-family="Helvetica">500</text>
<text xml:space="preserve" x="190.291" y="358.403" fill="black" font-size="12.8453" font-family="Helvetica">1000</text>
<text xml:space="preserve" x="264.415" y="358.403" fill="black" font-size="12.8453" font-family="Helvetica">1500</text>
<text xml:space="preserve" x="338.54" y="358.403" fill="black" font-size="12.8453" font-family="Helvetica">2000</text>
<text xml:space="preserve" x="411.849" y="358.403" fill="black" font-size="12.8453" font-family="Helvetica">2500</text>
<text xml:space="preserve" x="485.974" y="358.403" fill="black" font-size="12.8453" font-family="Helvetica">3000</text>
<text xml:space="preserve" x="451.763" y="372.251" fill="black" font-size="12.8453" font-family="Helvetica">ADC value</text>
<path d="M57.1929,346.022v -307.575" fill="none" stroke="black"/>
<path d="M70.7992,346.022h -13.6063" fill="none" stroke="black"/>
<path d="M63.9961,337.532h -6.80315" fill="none" stroke="black"/>
<path d="M63.9961,329.041h -6.80315" fill="none" stroke="black"/>
<path d="M63.9961,320.55h -6.80315" fill="none" stroke="black"/>
<path d="M63.9961,312.059h -6.80315" fill="none" stroke="black"/>
<path d="M70.7992,303.569h -13.6063" fill="none" stroke="black"/>
<path d="M63.9961,295.078h -6.80315" fill="none" stroke="black"/>
<path d="M63.9961,286.587h -6.80315" fill="none" stroke="black"/>
<path d="M63.9961,278.097h -6.80315" fill="none" stroke="black"/>
<path d="M63.9961,269.606h -6.80315" fill="none" stroke="black"/>
<path d="M70.7992,261.115h -13.6063" fill="none" stroke="black"/>
<path d="M63.9961,252.625h -6.80315" fill="none" stroke="black"/>
<path d="M63.9961,244.134h -6.80315" fill="none" stroke="black"/>
<path d="M63.9961,235.643h -6.80315" fill="none" stroke="black"/>
<path d="M63.9961,227.153h -6.80315" fill="none" stroke="black"/>
<path d="M70.7992,218.662h -13.6063" fill="none" stroke="black"/>
<path d="M63.9961,210.171h -6.80315" fill="none" stroke="black"/>
<path d="M63.9961,201.68h -6.80315" fill="none" stroke="black"/>
<path d="M63.9961,193.19h -6.80315" fill="none" stroke="black"/>
<path d="M63.9961,184.699h -6.80315" fill="none" stroke="black"/>
<path d="M70.7992,176.208h -13.6063" fill="none" stroke="black"/>
<path d="M63.9961,167.718h -6.80315" fill="none" stroke="black"/>
<path d="M63.9961,159.227h -6.80315" fill="none" stroke="black"/>
<path d="M63.9961,150.736h -6.80315" fill="none" stroke="black"/>
<path d="M63.9961,142.246h -6.80315" fill="none" stroke="black"/>
<path d="M70.7992,133.755h -13.6063" fill="none" stroke="black"/>
<path d="M63.9961,125.264h -6.80315" fill="none" stroke="black"/>
<path d="M63.9961,116.774h -6.80315" fill="none" stroke="black"/>
<path d="M63.9961,108.283h -6.80315" fill="none" stroke="black"/>
<path d="M63.9961,99.7922h -6.80315" fill="none" stroke="black"/>
<path d="M70.7992,91.3015h -13.6063" fill="none" stroke="black"/>
<path d="M63.9961,82.8108h -6.80315" fill="none" stroke="black"/>
<path d="M63.9961,74.3201h -6.80315" fill="none" stroke="black"/>
<path d="M63.9961,65.8294h -6.80315" fill="none" stroke="black"/>
<path d="M63.9961,57.3387h -6.80315" fill="none" stroke="black"/>
<path d="M70.7992,48.848h -13.6063" fill="none" stroke="black"/>
<path d="M70.7992,48.848h -13.6063" fill="none" stroke="black"/>
<path d="M63.9961,40.3573h -6.80315" fill="none" stroke="black"/>
<text xml:space="preserve" x="47.7441" y="350.258" fill="black" font-size="12.8453" font-family="Helvetica">0</text>
<text xml:space="preserve" x="41.2277" y="307.901" fill="black" font-size="12.8453" font-family="Helvetica">10</text>
<text xml:space="preserve" x="41.2277" y="265.544" fill="black" font-size="12.8453" font-family="Helvetica">20</text>
<text xml:space="preserve" x="41.2277" y="223.188" fill="black" font-size="12.8453" font-family="Helvetica">30</text>
<text xml:space="preserve" x="41.2277" y="180.831" fill="black" font-size="12.8453" font-family="Helvetica">40</text>
<text xml:space="preserve" x="41.2277" y="138.474" fill="black" font-size="12.8453" font-family="Helvetica">50</text>
<text xml:space="preserve" x="41.2277" y="96.1173" fill="black" font-size="12.8453" font-family="Helvetica">60</text>
<text xml:space="preserve" x="41.2277" y="52.946" fill="black" font-size="12.8453" font-family="Helvetica">70</text>
<g transform="rotate(-90,29.0094,70.0516)">
<text xml:space="preserve" x="29.0094" y="70.0516" fill="black" font-size="12.8453" font-family="Helvetica">Event</text>
</g>
<text xml:space="preserve" x="253.012" y="18.7347" fill="black" font-size="18.0316" font-family="Helvetica">Cs_003</text>
<rect x="442.705" y="24.9905" width="113.386" height="61.5151" fill="white"/>
<path d="M442.705,86.5056h 113.386" fill="none" stroke="black"/>
<path d="M556.091,86.5056v -61.5151" fill="none" stroke="black"/>
<path d="M556.091,24.9905h -113.386" fill="none" stroke="black"/>
<path d="M442.705,24.9905v 61.5151" fill="none" stroke="black"/>
<text xml:space="preserve" x="476.199" y="36.6549" fill="black" font-size="13.4802" font-family="Helvetica">Cs_003</text>
<path d="M442.705,40.3693h 113.386" fill="none" stroke="black"/>
<text xml:space="preserve" x="447.69" y="52.946" fill="black" font-size="13.0654" font-family="Helvetica">Entries </text>
<text xml:space="preserve" x="517.741" y="52.946" fill="black" font-size="13.0654" font-family="Helvetica"> 1038</text>
<text xml:space="preserve" x="447.69" y="67.6079" fill="black" font-size="13.0654" font-family="Helvetica">Mean  </text>
<text xml:space="preserve" x="512.854" y="67.6079" fill="black" font-size="13.0654" font-family="Helvetica">  958.1</text>
<text xml:space="preserve" x="447.69" y="83.0844" fill="black" font-size="13.0654" font-family="Helvetica">Std Dev   </text>
<text xml:space="preserve" x="510.41" y="83.0844" fill="black" font-size="13.0654" font-family="Helvetica">  803.8</text>
<text xml:space="preserve" x="253.012" y="18.7347" fill="black" font-size="18.0316" font-family="Helvetica">Cs_003</text></svg>
