<?xml version="1.0" standalone="no"?>
<svg width="567.429" height="384.969" viewBox="0 0 567.429 384.969" xmlns="http://www.w3.org/2000/svg" shape-rendering="crispEdges">
<title>
img/week1/plane_hist/Cs_004.svg
</title>
<desc>
Creator: ROOT Version 6.22/09
CreationDate: Wed Jul 14 09:54:56 2021</desc>
<defs>
</defs>
<rect x="0.5" y="0" width="566.929" height="384.469" fill="white"/>
<rect x="57.1929" y="38.4469" width="453.543" height="307.575" fill="white"/>
<rect x="57.1929" y="38.4469" width="453.543" height="307.575" fill="none" stroke="black"/>
<path d="M57.1929,346.022h 45.2287v -0.285784h 0.628176v -12.0029h 0.628176v -99.1671h 0.628176v -181.473h 0.628176v 9.1451h 0.628176v 85.1637h 0.628176v 30.0073h 0.628176v 9.43088h 0.628176v 23.7201h 0.628176v 29.4358h 0.628176v 20.0049h 0.628176v
 25.4348h 0.628176v -1.42892h 0.628176v 9.43088h 0.628176v 16.5755h 0.628176v 6.85882h 0.628176v 2.28627h 0.628176v 2.85784h 0.628176v 8.28774h 0.628176v 3.14363h 0.628176v 1.42892h 0.628176v 4.57255h 0.628176v -4.00098h 0.628176v 4.57255h 0.628176v
 0.857353h 0.628176v -0.571569h 0.628176v 2.57206h 0.628176v -0.571569h 0.628176v -0.571569h 0.628176v 2.28627h 0.628176v -1.14314h 1.25635v 0.571569h 0.628176v 1.71471h 0.628176v -0.857353h 0.628176v -0.285784h 0.628176v 0.857353h 1.25635v
 -0.571569h 0.628176v 0.857353h 0.628176v -0.857353h 0.628176v -0.285784h 0.628176v 0.285784h 1.25635v 1.14314h 0.628176v -1.14314h 1.25635v 0.857353h 1.25635v -0.857353h 0.628176v 0.857353h 0.628176v 0.285784h 1.25635v -0.285784h 0.628176v
 -0.571569h 0.628176v 0.857353h 0.628176v -1.14314h 0.628176v 0.857353h 0.628176v -0.285784h 0.628176v 0.285784h 0.628176v -0.571569h 0.628176v 0.571569h 0.628176v -0.571569h 0.628176v -0.285784h 0.628176v 1.14314h 1.88453v 0.285784h 0.628176v
 -0.857353h 0.628176v 0.857353h 0.628176v -0.571569h 1.88453v 0.285784h 0.628176v -0.571569h 0.628176v 0.285784h 0.628176v 0.285784h 0.628176v -0.571569h 1.25635v 0.285784h 1.25635v 0.285784h 0.628176v -1.14314h 0.628176v -0.285784h 0.628176v
 1.42892h 1.25635v -0.285784h 0.628176v -1.71471h 0.628176v 2.28627h 0.628176v -0.571569h 0.628176v -0.285784h 0.628176v 0.571569h 0.628176v 0.285784h 0.628176v -0.285784h 0.628176v -0.571569h 0.628176v -0.285784h 0.628176v 0.857353h 0.628176v
 -1.14314h 0.628176v 0.571569h 0.628176v -0.571569h 0.628176v 0.857353h 0.628176v -0.571569h 0.628176v 1.14314h 0.628176v -1.14314h 0.628176v -0.857353h 0.628176v 1.71471h 0.628176v -0.285784h 0.628176v -0.285784h 1.25635v 0.285784h 0.628176v
 -0.285784h 0.628176v 0.571569h 0.628176v -0.571569h 0.628176v -0.571569h 0.628176v 1.42892h 0.628176v -0.857353h 0.628176v 0.857353h 1.25635v -0.571569h 0.628176v -0.571569h 1.25635v 0.857353h 0.628176v -0.571569h 0.628176v 0.857353h 0.628176v
 0.285784h 0.628176v -0.857353h 0.628176v -0.285784h 0.628176v 0.571569h 0.628176v -0.285784h 0.628176v 0.571569h 0.628176v -1.42892h 0.628176v 0.857353h 1.25635v 0.857353h 0.628176v -0.857353h 0.628176v 0.285784h 0.628176v 0.285784h 0.628176v
 -0.571569h 1.25635v 0.285784h 0.628176v -1.14314h 0.628176v 1.42892h 0.628176v -0.571569h 0.628176v 0.571569h 1.25635v -0.285784h 0.628176v 0.571569h 0.628176v -0.285784h 0.628176v -0.571569h 0.628176v -0.857353h 0.628176v 1.42892h 0.628176v
 -2.00049h 0.628176v 2.28627h 0.628176v -1.14314h 1.25635v -0.571569h 0.628176v 0.857353h 0.628176v 0.285784h 0.628176v -0.857353h 0.628176v 0.571569h 0.628176v -0.285784h 0.628176v 0.571569h 0.628176v 0.571569h 0.628176v -1.14314h 0.628176v
 0.571569h 0.628176v -1.14314h 0.628176v 0.571569h 0.628176v 0.285784h 0.628176v 0.285784h 0.628176v -2.28627h 0.628176v 1.14314h 0.628176v 1.42892h 0.628176v -0.285784h 0.628176v -1.14314h 0.628176v 1.42892h 0.628176v -1.14314h 0.628176v 0.857353h
 1.25635v -0.571569h 0.628176v 0.285784h 1.25635v -0.285784h 0.628176v -0.857353h 0.628176v 0.857353h 0.628176v 0.857353h 0.628176v -1.14314h 0.628176v 0.857353h 0.628176v -0.285784h 0.628176v -0.285784h 1.25635v 0.857353h 0.628176v -0.571569h
 0.628176v -0.571569h 1.25635v 1.14314h 0.628176v -0.857353h 1.88453v 0.285784h 1.25635v 0.571569h 0.628176v -0.857353h 1.25635v 0.857353h 0.628176v -1.14314h 0.628176v 0.285784h 0.628176v 0.571569h 0.628176v -0.571569h 0.628176v 0.285784h 0.628176v
 -0.571569h 0.628176v 0.857353h 0.628176v -1.14314h 0.628176v 0.285784h 1.25635v 0.857353h 0.628176v -0.285784h 0.628176v -1.14314h 0.628176v 1.71471h 0.628176v -1.14314h 0.628176v 0.285784h 0.628176v 0.285784h 0.628176v -0.857353h 0.628176v
 0.285784h 0.628176v 0.285784h 0.628176v -0.857353h 0.628176v 1.14314h 0.628176v -0.285784h 0.628176v -0.857353h 0.628176v 0.857353h 0.628176v -0.571569h 0.628176v 0.857353h 0.628176v -0.571569h 0.628176v -0.571569h 0.628176v 0.285784h 0.628176v
 -0.571569h 0.628176v 0.285784h 0.628176v -0.285784h 0.628176v 0.857353h 0.628176v -2.28627h 0.628176v 1.42892h 0.628176v -0.285784h 0.628176v 0.857353h 0.628176v -0.571569h 0.628176v 1.14314h 0.628176v 0.285784h 0.628176v 0.285784h 0.628176v
 -0.857353h 0.628176v 0.857353h 0.628176v -1.14314h 0.628176v 0.285784h 0.628176v -0.285784h 0.628176v -0.285784h 0.628176v 0.285784h 1.25635v 0.571569h 1.25635v -2.28627h 0.628176v 1.14314h 0.628176v -0.571569h 0.628176v 1.14314h 1.25635v -0.571569h
 1.25635v 1.14314h 1.88453v 0.571569h 0.628176v -0.571569h 0.628176v -1.14314h 0.628176v -0.857353h 0.628176v 2.85784h 0.628176v -1.42892h 0.628176v 0.571569h 0.628176v 0.857353h 0.628176v -2.28627h 0.628176v 1.14314h 0.628176v 0.285784h 0.628176v
 0.285784h 0.628176v -0.571569h 1.25635v 0.857353h 1.25635v -0.285784h 0.628176v -0.571569h 1.25635v 0.571569h 0.628176v -0.857353h 0.628176v 0.571569h 0.628176v -0.285784h 0.628176v 0.571569h 0.628176v -0.285784h 0.628176v 0.285784h 0.628176v
 -0.285784h 0.628176v -0.285784h 0.628176v 0.285784h 0.628176v 0.285784h 0.628176v 0.857353h 0.628176v -0.857353h 0.628176v 0.571569h 0.628176v -1.14314h 0.628176v -0.285784h 0.628176v 0.571569h 0.628176v 0.857353h 0.628176v -0.285784h 1.25635v
 0.285784h 0.628176v -0.285784h 0.628176v -0.571569h 1.25635v 0.285784h 1.25635v -0.571569h 0.628176v -0.571569h 0.628176v 1.71471h 0.628176v -0.857353h 1.25635v 0.857353h 0.628176v -1.42892h 0.628176v 1.14314h 1.25635v -0.285784h 0.628176v
 -0.285784h 0.628176v -0.571569h 0.628176v 1.14314h 0.628176v -0.571569h 0.628176v 0.571569h 0.628176v -0.285784h 0.628176v -0.571569h 0.628176v 0.571569h 0.628176v -0.857353h 0.628176v 0.285784h 0.628176v 0.857353h 0.628176v -0.857353h 0.628176v
 0.285784h 0.628176v 0.285784h 1.25635v -0.285784h 0.628176v 0.285784h 0.628176v -0.571569h 0.628176v -0.285784h 0.628176v 0.571569h 0.628176v 0.571569h 0.628176v -0.285784h 0.628176v -2.57206h 0.628176v 1.42892h 1.25635v 1.14314h 1.25635v -2.00049h
 1.25635v 0.571569h 1.25635v -1.14314h 0.628176v -0.571569h 0.628176v 2.57206h 0.628176v -0.285784h 0.628176v -2.00049h 0.628176v 2.00049h 0.628176v -0.857353h 0.628176v 0.571569h 0.628176v 0.571569h 0.628176v -1.71471h 0.628176v -1.14314h 0.628176v
 1.14314h 1.25635v -0.571569h 0.628176v -0.571569h 0.628176v -0.285784h 1.25635v -0.571569h 1.25635v 1.14314h 1.25635v 0.285784h 0.628176v -1.14314h 0.628176v -0.285784h 0.628176v -1.42892h 0.628176v 0.571569h 0.628176v 1.14314h 0.628176v -0.285784h
 0.628176v 1.42892h 0.628176v -2.00049h 0.628176v 2.00049h 0.628176v 0.285784h 0.628176v -0.571569h 0.628176v 0.571569h 0.628176v -4.28676h 0.628176v 4.57255h 1.25635v -0.285784h 0.628176v -2.28627h 0.628176v -2.85784h 0.628176v 3.7152h 0.628176v
 1.14314h 0.628176v -2.57206h 0.628176v 1.71471h 0.628176v -0.857353h 0.628176v 2.28627h 0.628176v -2.85784h 0.628176v 2.57206h 0.628176v -0.285784h 0.628176v -0.285784h 0.628176v 1.14314h 0.628176v -3.42941h 0.628176v 2.00049h 0.628176v 0.857353h
 0.628176v 0.571569h 0.628176v 0.285784h 0.628176v -1.71471h 0.628176v 0.571569h 0.628176v -0.285784h 0.628176v 1.42892h 0.628176v -0.857353h 0.628176v -0.285784h 0.628176v 1.42892h 0.628176v 0.285784h 0.628176v -0.285784h 0.628176v 1.14314h
 0.628176v -2.00049h 0.628176v 1.42892h 1.88453v -1.14314h 0.628176v 0.857353h 0.628176v 0.857353h 0.628176v -0.285784h 0.628176v -0.285784h 0.628176v 0.571569h 0.628176v -0.285784h 0.628176v -0.571569h 0.628176v 0.571569h 0.628176v -0.285784h
 1.25635v 0.285784h 0.628176v -0.285784h 0.628176v 0.857353h 0.628176v -0.857353h 1.25635v 0.571569h 0.628176v -0.857353h 0.628176v 0.285784h 0.628176v 0.285784h 0.628176v 0.857353h 0.628176v -0.571569h 0.628176v -0.857353h 0.628176v 1.14314h
 0.628176v -2.57206h 0.628176v 2.57206h 0.628176v -1.42892h 0.628176v 0.571569h 1.25635v 0.857353h 0.628176v 0.285784h 0.628176v -0.857353h 0.628176v -0.571569h 0.628176v -0.285784h 0.628176v 0.857353h 0.628176v 0.571569h 0.628176v 0.285784h
 0.628176v 0.285784h 0.628176v -2.28627h 0.628176v 2.00049h 0.628176v -0.857353h 0.628176v -0.571569h 0.628176v 1.42892h 0.628176v 0.571569h 0.628176v -0.571569h 1.25635v -0.285784h 0.628176v 0.285784h 0.628176v -0.285784h 0.628176v -0.571569h
 0.628176v 0.285784h 0.628176v 0.571569h 0.628176v -1.42892h 0.628176v 0.571569h 0.628176v 0.571569h 0.628176v -0.285784h 0.628176v -0.571569h 0.628176v -0.571569h 0.628176v 0.857353h 0.628176v 1.42892h 0.628176v -0.857353h 0.628176v 0.285784h
 0.628176v 0.285784h 1.88453v -0.571569h 0.628176v 0.571569h 0.628176v 0.285784h 0.628176v -0.571569h 0.628176v 0.285784h 0.628176v -0.571569h 0.628176v 0.285784h 0.628176v -0.571569h 0.628176v 1.14314h 0.628176v -0.285784h 1.25635v 0.285784h
 0.628176v -0.285784h 1.25635v -0.571569h 1.25635v 0.285784h 1.25635v 0.285784h 0.628176v 0.285784h 0.628176v -0.571569h 0.628176v 0.285784h 0.628176v -0.285784h 0.628176v -0.285784h 0.628176v 0.571569h 2.51271v 0.285784h 0.628176v -1.14314h
 0.628176v 1.14314h 0.628176v -1.14314h 0.628176v 0.571569h 0.628176v 0.285784h 0.628176v -0.285784h 1.25635v 0.571569h 1.25635v -0.285784h 0.628176v 0.285784h 0.628176v -0.857353h 0.628176v 0.571569h 0.628176v -0.285784h 0.628176v 0.285784h 1.25635v
 -0.285784h 1.88453v 0.571569h 0.628176v -0.571569h 1.25635v 0.285784h 1.88453v 0.285784h 1.25635v -0.571569h 0.628176v 0.285784h 1.25635v 0.285784h 1.25635v -0.285784h 0.628176v -0.857353h 0.628176v 0.571569h 1.88453v 0.285784h 1.25635v -0.285784h
 0.628176v 0.571569h 1.88453v -0.571569h 0.628176v 0.285784h 1.25635v -0.571569h 0.628176v 0.857353h 0.628176v -0.285784h 1.25635v 0.285784h 0.628176v -0.571569h 0.628176v 0.285784h 0.628176v -0.571569h 1.25635v 0.857353h 0.628176v -0.285784h
 0.628176v -0.285784h 0.628176v 0.285784h 1.25635v 0.285784h 0.628176v -0.285784h 0.628176v -0.571569h 0.628176v 0.571569h 0.628176v -0.857353h 0.628176v 0.857353h 0.628176v 0.285784h 1.25635v -0.857353h 0.628176v 0.857353h 0.628176v -0.285784h
 0.628176v 0.285784h 0.628176v -0.571569h 0.628176v -0.285784h 0.628176v 0.857353h 0.628176v -0.285784h 0.628176v -0.285784h 1.25635v 0.571569h 0.628176v -0.285784h 0.628176v -0.285784h 0.628176v 0.285784h 0.628176v -0.571569h 0.628176v 0.285784h
 0.628176v 0.571569h 0.628176v -0.285784h 0.628176v 0.285784h 0.628176v -0.571569h 0.628176v 0.571569h 0.628176v -0.571569h 0.628176v -9.1451h 0.628176v -71.7319h 0.628176v -26.5779h 0.628176v 37.152h 0.628176v -7.14461h 0.628176v -0.857353h
 0.628176v 26.2922h 0.628176v 16.0039h 0.628176v 11.7172h 0.628176v 2.57206h 0.628176v 4.00098h 0.628176v 3.42941h 0.628176v -0.285784h 0.628176v 3.42941h 0.628176v -3.7152h 0.628176v -4.57255h 0.628176v 8.00196h 0.628176v -2.85784h 0.628176v
 -2.28627h 0.628176v -2.85784h 0.628176v 4.00098h 0.628176v 5.71569h 0.628176v -4.00098h 0.628176v -2.85784h 0.628176v 5.14412h 0.628176v -2.00049h 0.628176v -2.57206h 0.628176v 4.28676h 0.628176v -0.857353h 0.628176v 1.71471h 1.25635v -3.42941h
 0.628176v -0.285784h 1.25635v 2.57206h 0.628176v 2.85784h 0.628176v -1.71471h 0.628176v 2.57206h 0.628176v 1.14314h 0.628176v 1.71471h 0.628176v 2.28627h 0.628176v 2.00049h 0.628176v -0.285784h 0.628176v 1.42892h 0.628176" fill="none"
 stroke="#000099"/>
<path d="M57.1929,346.022h 453.543" fill="none" stroke="black"/>
<path d="M57.8211,336.795v 9.22726" fill="none" stroke="black"/>
<path d="M78.7603,341.409v 4.61363" fill="none" stroke="black"/>
<path d="M99.6995,341.409v 4.61363" fill="none" stroke="black"/>
<path d="M120.639,341.409v 4.61363" fill="none" stroke="black"/>
<path d="M141.578,341.409v 4.61363" fill="none" stroke="black"/>
<path d="M162.517,336.795v 9.22726" fill="none" stroke="black"/>
<path d="M183.456,341.409v 4.61363" fill="none" stroke="black"/>
<path d="M204.396,341.409v 4.61363" fill="none" stroke="black"/>
<path d="M225.335,341.409v 4.61363" fill="none" stroke="black"/>
<path d="M246.274,341.409v 4.61363" fill="none" stroke="black"/>
<path d="M267.213,336.795v 9.22726" fill="none" stroke="black"/>
<path d="M288.152,341.409v 4.61363" fill="none" stroke="black"/>
<path d="M309.092,341.409v 4.61363" fill="none" stroke="black"/>
<path d="M330.031,341.409v 4.61363" fill="none" stroke="black"/>
<path d="M350.97,341.409v 4.61363" fill="none" stroke="black"/>
<path d="M371.909,336.795v 9.22726" fill="none" stroke="black"/>
<path d="M392.848,341.409v 4.61363" fill="none" stroke="black"/>
<path d="M413.788,341.409v 4.61363" fill="none" stroke="black"/>
<path d="M434.727,341.409v 4.61363" fill="none" stroke="black"/>
<path d="M455.666,341.409v 4.61363" fill="none" stroke="black"/>
<path d="M476.605,336.795v 9.22726" fill="none" stroke="black"/>
<path d="M57.8211,336.795v 9.22726" fill="none" stroke="black"/>
<path d="M476.605,336.795v 9.22726" fill="none" stroke="black"/>
<path d="M497.545,341.409v 4.61363" fill="none" stroke="black"/>
<text xml:space="preserve" x="54.2605" y="358.403" fill="black" font-size="12.8453" font-family="Helvetica">0</text>
<text xml:space="preserve" x="151.192" y="358.403" fill="black" font-size="12.8453" font-family="Helvetica">500</text>
<text xml:space="preserve" x="253.012" y="358.403" fill="black" font-size="12.8453" font-family="Helvetica">1000</text>
<text xml:space="preserve" x="357.274" y="358.403" fill="black" font-size="12.8453" font-family="Helvetica">1500</text>
<text xml:space="preserve" x="462.352" y="358.403" fill="black" font-size="12.8453" font-family="Helvetica">2000</text>
<text xml:space="preserve" x="451.763" y="372.251" fill="black" font-size="12.8453" font-family="Helvetica">ADC value</text>
<path d="M57.1929,346.022v -307.575" fill="none" stroke="black"/>
<path d="M70.7992,346.022h -13.6063" fill="none" stroke="black"/>
<path d="M63.9961,331.733h -6.80315" fill="none" stroke="black"/>
<path d="M63.9961,317.444h -6.80315" fill="none" stroke="black"/>
<path d="M63.9961,303.155h -6.80315" fill="none" stroke="black"/>
<path d="M70.7992,288.865h -13.6063" fill="none" stroke="black"/>
<path d="M63.9961,274.576h -6.80315" fill="none" stroke="black"/>
<path d="M63.9961,260.287h -6.80315" fill="none" stroke="black"/>
<path d="M63.9961,245.998h -6.80315" fill="none" stroke="black"/>
<path d="M70.7992,231.709h -13.6063" fill="none" stroke="black"/>
<path d="M63.9961,217.419h -6.80315" fill="none" stroke="black"/>
<path d="M63.9961,203.13h -6.80315" fill="none" stroke="black"/>
<path d="M63.9961,188.841h -6.80315" fill="none" stroke="black"/>
<path d="M70.7992,174.552h -13.6063" fill="none" stroke="black"/>
<path d="M63.9961,160.262h -6.80315" fill="none" stroke="black"/>
<path d="M63.9961,145.973h -6.80315" fill="none" stroke="black"/>
<path d="M63.9961,131.684h -6.80315" fill="none" stroke="black"/>
<path d="M70.7992,117.395h -13.6063" fill="none" stroke="black"/>
<path d="M63.9961,103.106h -6.80315" fill="none" stroke="black"/>
<path d="M63.9961,88.8164h -6.80315" fill="none" stroke="black"/>
<path d="M63.9961,74.5272h -6.80315" fill="none" stroke="black"/>
<path d="M70.7992,60.238h -13.6063" fill="none" stroke="black"/>
<path d="M70.7992,60.238h -13.6063" fill="none" stroke="black"/>
<path d="M63.9961,45.9488h -6.80315" fill="none" stroke="black"/>
<text xml:space="preserve" x="47.7441" y="350.258" fill="black" font-size="12.8453" font-family="Helvetica">0</text>
<text xml:space="preserve" x="33.8967" y="293.239" fill="black" font-size="12.8453" font-family="Helvetica">200</text>
<text xml:space="preserve" x="33.8967" y="236.22" fill="black" font-size="12.8453" font-family="Helvetica">400</text>
<text xml:space="preserve" x="33.8967" y="179.202" fill="black" font-size="12.8453" font-family="Helvetica">600</text>
<text xml:space="preserve" x="33.8967" y="122.183" fill="black" font-size="12.8453" font-family="Helvetica">800</text>
<text xml:space="preserve" x="27.3803" y="64.3497" fill="black" font-size="12.8453" font-family="Helvetica">1000</text>
<g transform="rotate(-90,14.3474,70.0516)">
<text xml:space="preserve" x="14.3474" y="70.0516" fill="black" font-size="12.8453" font-family="Helvetica">Event</text>
</g>
<text xml:space="preserve" x="253.012" y="18.7347" fill="black" font-size="18.0316" font-family="Helvetica">Cs_004</text>
<rect x="442.705" y="24.9905" width="113.386" height="61.5151" fill="white"/>
<path d="M442.705,86.5056h 113.386" fill="none" stroke="black"/>
<path d="M556.091,86.5056v -61.5151" fill="none" stroke="black"/>
<path d="M556.091,24.9905h -113.386" fill="none" stroke="black"/>
<path d="M442.705,24.9905v 61.5151" fill="none" stroke="black"/>
<text xml:space="preserve" x="476.199" y="36.6549" fill="black" font-size="13.4802" font-family="Helvetica">Cs_004</text>
<path d="M442.705,40.3693h 113.386" fill="none" stroke="black"/>
<text xml:space="preserve" x="447.69" y="52.946" fill="black" font-size="12.7186" font-family="Helvetica">Entries </text>
<text xml:space="preserve" x="512.854" y="52.946" fill="black" font-size="12.7186" font-family="Helvetica"> 12892</text>
<text xml:space="preserve" x="447.69" y="67.6079" fill="black" font-size="12.7186" font-family="Helvetica">Mean  </text>
<text xml:space="preserve" x="512.854" y="67.6079" fill="black" font-size="12.7186" font-family="Helvetica">  914.9</text>
<text xml:space="preserve" x="447.69" y="83.0844" fill="black" font-size="12.7186" font-family="Helvetica">Std Dev   </text>
<text xml:space="preserve" x="512.854" y="83.0844" fill="black" font-size="12.7186" font-family="Helvetica">  801.3</text>
<text xml:space="preserve" x="253.012" y="18.7347" fill="black" font-size="18.0316" font-family="Helvetica">Cs_004</text></svg>
