<?xml version="1.0" standalone="no"?>
<svg width="567.429" height="384.969" viewBox="0 0 567.429 384.969" xmlns="http://www.w3.org/2000/svg" shape-rendering="crispEdges">
<title>
img/week1/calibrated_hist_high_gain/Am_009.svg
</title>
<desc>
Creator: ROOT Version 6.22/09
CreationDate: Tue Jul 13 19:33:21 2021</desc>
<defs>
</defs>
<rect x="0.5" y="0" width="566.929" height="384.469" fill="white"/>
<rect x="57.1929" y="38.4469" width="453.543" height="307.575" fill="white"/>
<rect x="57.1929" y="38.4469" width="453.543" height="307.575" fill="none" stroke="black"/>
<path d="M57.1929,346.022h 64.2224v -0.139756h 0.442913v -0.139756h 0.442913v -1.53732h 0.442913v -7.54683h 0.442913v -5.31073h 0.442913v 0.978293h 0.442913v 1.95659h 0.442913v 1.25781h 0.442913v -0.279512h 0.442913v -3.91317h 0.442913v -0.559025h
 0.442913v 1.11805h 0.442913v 3.21439h 0.442913v -0.279512h 0.442913v -0.698781h 0.442913v -1.53732h 0.442913v 1.39756h 0.442913v 0.139756h 0.442913v -0.978293h 0.442913v 0.279512h 0.442913v -0.419268h 0.442913v 2.09634h 0.442913v -2.51561h 0.442913v
 0.698781h 0.442913v -1.25781h 0.442913v 3.07464h 0.442913v 0.978293h 0.442913v -1.11805h 0.442913v 0.419268h 0.442913v -1.81683h 0.442913v 1.39756h 0.442913v -2.65537h 0.442913v 4.4722h 0.442913v 0.279512h 0.442913v -2.37585h 0.885827v -1.39756h
 0.442913v 0.279512h 0.442913v -1.81683h 0.442913v 4.89147h 0.442913v -1.95659h 0.442913v -0.978293h 0.442913v -1.25781h 0.442913v -0.279512h 0.442913v 1.95659h 0.442913v 1.25781h 0.442913v -1.67707h 0.442913v -0.559025h 0.442913v 2.93488h 0.442913v
 -0.559025h 0.442913v -0.559025h 0.442913v -1.39756h 0.442913v 2.65537h 0.442913v -1.67707h 0.442913v 0.139756h 0.442913v 0.139756h 0.442913v -0.139756h 0.442913v -0.419268h 0.442913v 0.838537h 0.442913v 0.559025h 0.442913v 0.139756h 0.442913v
 -2.51561h 0.442913v 0.698781h 0.442913v -0.698781h 0.442913v -0.139756h 0.442913v 1.81683h 0.442913v -1.39756h 0.442913v 2.51561h 0.442913v -1.25781h 0.442913v 0.139756h 0.442913v -0.838537h 0.442913v 2.51561h 0.442913v -1.11805h 0.442913v
 -0.838537h 0.442913v -1.53732h 0.442913v 0.698781h 0.442913v 1.53732h 0.442913v -0.279512h 0.442913v 0.139756h 0.442913v -0.279512h 0.442913v 1.25781h 0.442913v -3.91317h 0.442913v 1.53732h 0.442913v 0.139756h 0.442913v 2.09634h 0.442913v 0.419268h
 0.442913v -3.63366h 0.442913v 0.978293h 0.442913v 2.37585h 0.442913v -0.978293h 0.442913v -1.11805h 0.442913v 2.09634h 0.442913v -1.67707h 0.442913v -0.978293h 0.442913v 1.11805h 0.442913v -1.53732h 0.442913v 1.53732h 0.442913v 1.53732h 0.442913v
 0.419268h 0.442913v -1.25781h 0.442913v -1.25781h 0.442913v 0.838537h 0.442913v 0.419268h 0.442913v 0.978293h 0.442913v -2.51561h 0.442913v 1.95659h 0.442913v -1.81683h 0.442913v 0.978293h 0.442913v -1.25781h 0.442913v -0.419268h 0.442913v 2.37585h
 0.442913v 0.419268h 0.442913v -0.279512h 0.442913v -1.53732h 0.442913v 0.139756h 0.442913v -1.95659h 0.442913v 2.37585h 0.442913v 1.53732h 0.442913v 1.11805h 0.442913v -2.65537h 0.442913v 0.279512h 0.442913v -1.53732h 0.442913v 4.33244h 0.442913v
 -3.77342h 0.442913v 1.81683h 0.442913v -1.67707h 0.442913v -0.838537h 0.442913v -0.698781h 0.442913v 1.53732h 0.442913v 0.698781h 0.442913v 0.978293h 0.442913v 2.79512h 0.442913v -3.91317h 0.442913v -0.279512h 0.442913v -0.279512h 0.442913v
 -0.838537h 0.442913v 1.25781h 0.442913v 2.09634h 0.442913v 0.698781h 0.442913v -2.51561h 0.442913v 0.838537h 0.442913v -1.11805h 0.442913v 0.419268h 0.442913v 1.67707h 0.442913v -0.419268h 0.442913v -2.09634h 0.442913v 1.53732h 0.442913v -1.95659h
 0.442913v -0.139756h 0.442913v -0.419268h 0.442913v 2.51561h 0.442913v 1.11805h 0.442913v -2.65537h 0.885827v -0.139756h 0.442913v 1.81683h 0.442913v 0.139756h 0.885827v -3.63366h 0.442913v 0.139756h 0.442913v 1.67707h 0.442913v 0.698781h 0.442913v
 -0.838537h 0.442913v 1.25781h 0.442913v 0.419268h 0.442913v 0.419268h 0.442913v -5.59025h 0.442913v 0.978293h 0.442913v -0.559025h 0.442913v 0.279512h 0.442913v 3.4939h 0.442913v -0.838537h 0.442913v -3.35415h 0.442913v 2.51561h 0.442913v -4.4722h
 0.442913v 0.838537h 0.442913v 2.2361h 0.442913v 2.37585h 0.442913v -2.93488h 0.442913v -3.35415h 0.442913v 1.25781h 0.442913v 1.53732h 0.442913v -0.978293h 0.442913v 3.77342h 0.442913v -5.17098h 0.442913v 2.37585h 0.442913v -3.07464h 0.442913v
 1.39756h 0.442913v -0.559025h 0.442913v 0.279512h 0.442913v 3.21439h 0.442913v -8.38537h 0.442913v 2.2361h 0.442913v 0.698781h 0.442913v 1.39756h 0.442913v 2.93488h 0.442913v -4.05293h 0.442913v -0.559025h 0.442913v 0.978293h 0.442913v -2.09634h
 0.442913v -0.978293h 0.442913v 3.07464h 0.442913v -1.95659h 0.442913v 2.37585h 0.442913v -5.03122h 0.442913v 2.37585h 0.442913v 0.838537h 0.442913v -1.95659h 0.442913v -0.139756h 0.442913v 4.05293h 0.442913v -4.61195h 0.442913v -0.279512h 0.442913v
 0.698781h 0.442913v -0.978293h 0.442913v -0.978293h 0.442913v 4.19268h 0.442913v -2.65537h 0.442913v -0.978293h 0.442913v -0.559025h 0.442913v 1.39756h 0.442913v -0.978293h 0.442913v 4.05293h 0.442913v -1.25781h 0.442913v -5.86976h 0.442913v
 5.03122h 0.442913v -4.05293h 0.442913v 1.11805h 0.442913v -0.838537h 0.442913v 4.33244h 0.442913v 0.279512h 0.442913v -6.28903h 0.442913v 3.77342h 0.442913v -1.81683h 0.442913v -0.279512h 0.442913v 3.4939h 0.442913v -3.35415h 0.442913v -2.09634h
 0.442913v 1.11805h 0.442913v -5.73h 0.442913v 2.09634h 0.442913v 6.00951h 0.442913v -1.25781h 0.442913v -3.4939h 0.442913v -1.95659h 0.442913v -2.65537h 0.442913v -2.93488h 0.442913v 6.14927h 0.442913v 1.11805h 0.442913v 1.11805h 0.442913v -4.05293h
 0.442913v -2.09634h 0.442913v -0.838537h 0.885827v -1.95659h 0.442913v 4.61195h 0.442913v 2.37585h 0.442913v -2.37585h 0.442913v -10.901h 0.442913v 5.45049h 0.442913v -0.838537h 0.442913v 3.91317h 0.442913v 1.25781h 0.442913v 0.838537h 0.442913v
 -7.40708h 0.442913v 0.419268h 0.442913v -5.45049h 0.442913v 4.4722h 0.442913v 2.37585h 0.442913v -0.978293h 0.442913v -3.77342h 0.442913v -5.31073h 0.442913v 3.91317h 0.442913v -3.91317h 0.442913v 7.68659h 0.442913v 0.419268h 0.442913v -11.1805h
 0.442913v 0.698781h 0.442913v -3.4939h 0.442913v -0.698781h 0.442913v 4.61195h 0.442913v 2.09634h 0.442913v -1.39756h 0.442913v -9.50342h 0.442913v 3.77342h 0.442913v -0.139756h 0.442913v 1.81683h 0.442913v -10.0624h 0.442913v 12.4383h 0.442913v
 -5.17098h 0.442913v -2.93488h 0.442913v -7.12756h 0.442913v 7.26732h 0.885827v 4.61195h 0.442913v 4.19268h 0.442913v -9.22391h 0.442913v -5.86976h 0.442913v 2.79512h 0.442913v -3.35415h 0.442913v 7.82634h 0.442913v -5.73h 0.442913v 5.45049h
 0.442913v -2.79512h 0.442913v -5.59025h 0.442913v -3.77342h 0.442913v 2.2361h 0.442913v 3.35415h 0.442913v 7.26732h 0.442913v -7.54683h 0.442913v -14.3949h 0.442913v 4.61195h 0.442913v 5.17098h 0.442913v 8.38537h 0.442913v 3.4939h 0.442913v
 -5.03122h 0.442913v -8.66488h 0.442913v -1.25781h 0.442913v -5.59025h 0.442913v 11.7395h 0.442913v 13.2768h 0.442913v -5.03122h 0.442913v -4.4722h 0.442913v -5.73h 0.442913v -2.2361h 0.442913v 5.17098h 0.442913v 12.1588h 0.442913v -1.95659h
 0.442913v 1.67707h 0.442913v -5.45049h 0.442913v -10.6215h 0.442913v 10.901h 0.442913v -1.95659h 0.442913v 9.50342h 0.442913v 0.698781h 0.885827v -11.3202h 0.442913v 2.65537h 0.442913v 4.4722h 0.442913v 2.2361h 0.442913v 9.64317h 0.442913v -8.66488h
 0.442913v -6.98781h 0.442913v 6.14927h 0.442913v 0.698781h 0.442913v -1.67707h 0.442913v 11.46h 0.442913v -5.17098h 0.442913v -5.73h 0.442913v 4.4722h 0.442913v 0.419268h 0.442913v -1.25781h 0.442913v 6.84805h 0.442913v 7.68659h 0.442913v -3.63366h
 0.442913v -7.9661h 0.442913v -2.65537h 0.442913v 3.91317h 0.442913v 7.26732h 0.442913v 2.65537h 0.442913v -1.11805h 0.442913v -2.2361h 0.442913v 0.698781h 0.442913v -4.4722h 0.442913v 4.75171h 0.442913v -1.53732h 0.442913v 6.28903h 0.442913v
 -3.07464h 0.442913v -2.2361h 0.442913v -2.2361h 0.442913v 0.139756h 0.442913v 3.21439h 0.442913v 2.93488h 0.442913v 3.91317h 0.442913v -3.63366h 0.442913v -3.91317h 0.442913v 0.419268h 0.442913v 5.17098h 0.442913v 0.139756h 0.442913v 5.03122h
 0.442913v -5.17098h 0.442913v 2.65537h 0.442913v -6.42878h 0.442913v -0.279512h 0.442913v 4.4722h 0.442913v 3.4939h 0.442913v -2.2361h 0.442913v -1.25781h 0.442913v -1.25781h 0.442913v -0.559025h 0.442913v 0.419268h 0.442913v 4.4722h 0.442913v
 1.95659h 0.442913v -1.81683h 0.442913v -7.54683h 0.442913v 3.63366h 0.442913v -0.978293h 0.442913v 3.91317h 0.442913v -1.39756h 0.442913v 1.67707h 0.442913v 1.39756h 0.442913v -5.31073h 0.442913v 1.53732h 0.442913v -1.25781h 0.442913v 4.05293h
 0.442913v 1.53732h 0.442913v -1.81683h 0.442913v 0.419268h 0.442913v -5.17098h 0.442913v 4.4722h 0.442913v -1.11805h 0.442913v 5.45049h 0.442913v 3.07464h 0.442913v -6.56854h 0.442913v -1.95659h 0.442913v -0.978293h 0.442913v 0.978293h 0.442913v
 8.94439h 0.442913v -4.05293h 0.442913v -0.139756h 0.442913v -1.95659h 0.442913v -1.95659h 0.442913v 2.65537h 0.442913v 0.559025h 0.442913v 0.838537h 0.442913v 2.09634h 0.442913v -0.698781h 0.442913v -3.21439h 0.442913v 0.419268h 0.442913v 1.95659h
 0.442913v 0.279512h 0.442913v 2.65537h 0.442913v 2.79512h 0.442913v -5.45049h 0.885827v -2.65537h 0.442913v 5.59025h 0.442913v -1.53732h 0.442913v 4.19268h 0.442913v -2.09634h 0.442913v 0.139756h 0.442913v 0.978293h 0.442913v -2.93488h 0.442913v
 4.33244h 0.442913v 2.2361h 0.442913v -3.4939h 0.442913v 0.838537h 0.442913v 0.419268h 0.442913v -0.139756h 0.442913v 0.419268h 0.442913v 1.67707h 0.442913v 1.11805h 0.442913v -0.139756h 0.442913v 1.11805h 0.442913v -3.91317h 0.442913v 0.978293h
 0.442913v 3.07464h 0.442913v 1.25781h 0.442913v -0.279512h 0.442913v -3.35415h 0.442913v 1.25781h 0.885827v 0.978293h 0.442913v 0.279512h 0.442913v 3.21439h 0.442913v -2.37585h 0.442913v -1.67707h 0.442913v 3.21439h 0.442913v -3.21439h 0.442913v
 4.75171h 0.442913v 1.25781h 0.442913v -2.09634h 0.442913v 0.838537h 0.442913v -1.11805h 0.442913v 1.25781h 0.442913v -0.419268h 0.442913v -0.279512h 0.442913v 3.77342h 0.442913v -0.978293h 0.442913v -1.95659h 0.442913v -1.95659h 0.442913v 1.81683h
 0.442913v 0.698781h 0.442913v 1.53732h 0.442913v -1.11805h 0.442913v 0.978293h 0.442913v -0.978293h 0.442913v -0.419268h 0.442913v -0.838537h 0.442913v -1.11805h 0.442913v 3.91317h 0.442913v -0.978293h 0.442913v -1.95659h 0.442913v 2.2361h 0.442913v
 -1.39756h 0.442913v 1.11805h 0.442913v 1.39756h 0.442913v -2.09634h 0.442913v -0.698781h 0.442913v 1.11805h 0.442913v -0.698781h 0.442913v 0.698781h 0.442913v 1.67707h 0.442913v -0.698781h 0.442913v 0.838537h 0.442913v -1.25781h 0.442913v -1.39756h
 0.442913v 0.978293h 0.442913v 0.838537h 0.885827v -0.139756h 0.442913v 0.838537h 0.442913v -2.09634h 0.442913v 0.419268h 0.442913v -1.25781h 0.442913v 4.05293h 0.442913v -0.139756h 0.442913v -2.79512h 0.442913v -1.81683h 0.442913v 0.139756h
 0.442913v -2.51561h 0.442913v 5.03122h 0.442913v -0.838537h 0.442913v 0.698781h 0.442913v -3.77342h 0.442913v 2.2361h 0.442913v -1.11805h 0.442913v 0.279512h 0.442913v 1.81683h 0.442913v 0.139756h 0.442913v -0.419268h 0.442913v 0.559025h 0.442913v
 -1.81683h 0.442913v 1.39756h 0.442913v -2.37585h 0.442913v 2.37585h 0.442913v -0.978293h 0.442913v 0.279512h 0.442913v -1.53732h 0.442913v -1.11805h 0.442913v 1.25781h 0.442913v 1.39756h 0.442913v 0.698781h 0.442913v 1.53732h 0.442913v -7.68659h
 0.442913v 3.91317h 0.885827v 0.978293h 0.442913v 1.67707h 0.442913v -0.139756h 0.442913v -2.09634h 0.442913v 2.09634h 0.442913v -0.139756h 0.442913v -0.419268h 0.442913v -1.11805h 0.442913v 1.81683h 0.442913v -0.838537h 0.442913v 0.419268h 0.442913v
 -1.53732h 0.442913v 1.25781h 0.442913v 0.279512h 0.442913v 1.25781h 0.442913v -1.39756h 0.442913v 1.95659h 0.885827v -1.53732h 0.442913v 0.559025h 0.442913v -0.978293h 0.442913v 1.67707h 0.442913v 1.95659h 0.442913v -3.21439h 0.442913v 0.279512h
 0.442913v 1.81683h 0.442913v -0.139756h 0.442913v -0.279512h 0.442913v 0.559025h 0.442913v 1.39756h 0.442913v -1.53732h 0.442913v 2.51561h 0.442913v -2.51561h 0.442913v 0.139756h 0.442913v 1.53732h 0.442913v 1.11805h 0.442913v -0.698781h 0.442913v
 -4.19268h 0.442913v 3.91317h 0.442913v -1.25781h 0.442913v 1.67707h 0.442913v 1.39756h 0.442913v -0.279512h 0.442913v -1.81683h 0.442913v 0.419268h 0.442913v -0.698781h 0.442913v 0.978293h 0.442913v 1.67707h 0.442913v -0.978293h 0.442913v -0.698781h
 0.442913v 0.978293h 0.442913v -0.559025h 0.442913v 1.53732h 0.442913v -0.419268h 0.442913v -1.81683h 0.442913v 0.838537h 0.442913v 0.559025h 0.442913v 0.419268h 0.442913v 0.419268h 0.442913v -0.978293h 0.442913v 1.95659h 0.442913v -0.698781h
 0.442913v -1.11805h 0.442913v 0.559025h 0.442913v 0.698781h 0.442913v -0.838537h 0.442913v 0.978293h 0.442913v -0.279512h 0.442913v 0.419268h 0.885827v -0.698781h 0.442913v 0.838537h 0.442913v -0.139756h 0.442913v 0.419268h 0.442913v 0.139756h
 0.442913v -0.838537h 0.442913v 0.838537h 0.442913v -0.559025h 0.442913v -0.279512h 0.442913v 0.139756h 0.442913v 0.698781h 0.442913v 0.279512h 0.442913v -0.559025h 0.885827v 0.698781h 0.885827v 0.698781h 0.442913v -0.139756h 0.442913v -0.559025h
 0.442913v -0.279512h 0.442913v 0.419268h 0.442913v -0.279512h 0.442913v 0.279512h 0.885827v -0.838537h 0.442913v 0.838537h 0.442913v -0.419268h 0.442913v 0.838537h 0.442913v -0.698781h 0.442913v 0.419268h 0.885827v -0.279512h 0.442913v -0.419268h
 0.442913v 1.11805h 0.442913v -0.559025h 0.442913v 0.559025h 0.442913v -0.838537h 0.442913v 0.139756h 0.442913v 0.419268h 0.442913v 0.139756h 0.442913v 0.139756h 0.442913v -0.838537h 0.442913v 0.559025h 0.442913v -0.419268h 0.442913v 0.559025h
 0.442913v -0.698781h 0.442913v 0.139756h 0.442913v 0.838537h 0.442913v -0.139756h 0.442913v -0.559025h 0.442913v 0.279512h 0.442913v -0.559025h 0.442913v 0.559025h 0.442913v -0.698781h 0.442913v 0.279512h 0.442913v 0.139756h 0.442913v 0.139756h
 0.442913v 0.698781h 0.442913v -0.559025h 0.442913v 0.139756h 0.442913v -0.419268h 0.442913v 0.139756h 0.442913v 0.279512h 0.442913v -0.559025h 0.442913v 0.559025h 0.442913v -0.279512h 0.442913v 0.279512h 0.442913v -0.139756h 0.442913v -0.139756h
 0.885827v 0.279512h 0.442913v -0.698781h 0.442913v 0.139756h 0.442913v 0.279512h 0.442913v 0.419268h 0.442913v 0.279512h 0.442913v -1.25781h 0.442913v 0.139756h 0.442913v 0.279512h 0.442913v 0.559025h 0.442913v -0.559025h 0.442913v 0.419268h
 0.442913v 0.139756h 0.442913v -0.559025h 0.442913v 0.559025h 0.442913v -0.279512h 0.442913v -0.559025h 0.442913v 0.279512h 0.442913v 0.279512h 1.32874v 0.279512h 0.442913v -0.419268h 0.442913v 0.279512h 0.442913v 0.139756h 0.442913v -0.139756h
 0.442913v -0.419268h 0.442913v -0.279512h 0.442913v 0.419268h 0.442913v 0.279512h 0.442913v 0.139756h 0.442913v 0.139756h 0.442913v -0.139756h 0.442913v -0.139756h 0.442913v -0.139756h 0.442913v 0.139756h 0.442913v -0.279512h 0.442913v 0.279512h
 0.442913v 0.139756h 0.442913v -0.279512h 0.442913v -0.139756h 0.442913v 0.139756h 0.442913v -0.279512h 0.442913v 0.139756h 0.442913v 0.139756h 0.442913v -0.139756h 0.442913v 0.279512h 0.442913v -0.279512h 0.442913v -0.419268h 0.885827v -0.139756h
 0.442913v 0.838537h 0.442913v -0.279512h 0.442913v 0.279512h 0.442913v 0.139756h 0.442913v -0.559025h 0.885827v -0.279512h 0.442913v 0.419268h 0.885827v 0.419268h 0.442913v -0.139756h 0.885827v 0.279512h 0.442913v -0.419268h 0.442913v -0.139756h
 0.442913v 0.279512h 0.442913v -0.279512h 0.442913v 0.139756h 0.442913v -0.139756h 0.442913v -0.419268h 0.442913v 0.279512h 0.442913v 0.139756h 0.442913v -0.279512h 0.442913v 0.279512h 0.442913v -0.139756h 0.885827v -0.419268h 0.442913v 0.419268h
 0.442913v 0.978293h 0.442913v -0.559025h 0.442913v 0.139756h 0.442913v -0.279512h 0.885827v 0.559025h 0.442913v 0.139756h 0.442913v -0.419268h 0.442913v -0.419268h 0.442913v 0.139756h 0.442913v 0.559025h 0.442913v -0.419268h 0.442913v -0.139756h
 0.442913v -0.419268h 0.442913v 0.279512h 0.442913v -0.279512h 0.442913v 0.698781h 0.442913v -0.419268h 0.442913v 0.559025h 0.442913v -0.279512h 0.442913v -0.279512h 0.442913v 0.279512h 0.885827v 0.139756h 0.442913v -0.279512h 0.442913v -0.279512h
 0.442913v 0.978293h 0.442913v -0.559025h 0.885827v -0.279512h 0.442913v 0.279512h 0.885827v 0.139756h 0.442913v -0.139756h 0.442913v -0.419268h 0.442913v -0.279512h 0.442913v 0.838537h 0.885827v -0.139756h 0.442913v 0.139756h 0.442913v -1.25781h
 0.442913v 0.139756h 0.442913v 1.39756h 0.442913v -0.139756h 0.442913v -1.67707h 0.442913v -3.35415h 0.442913v -27.6717h 0.442913v -91.4005h 0.442913v -162.816h 0.442913v -5.59025h 0.442913v 73.6515h 0.442913v 19.9851h 0.442913v 12.7178h 0.442913v
 47.0978h 0.442913v 33.821h 0.442913v 16.9105h 0.442913v 11.7395h 0.442913v -0.978293h 0.442913v -13.9756h 0.442913v -2.79512h 0.442913v 9.64317h 0.442913v 1.81683h 0.442913v 9.64317h 0.442913v 1.39756h 0.442913v -4.4722h 0.442913v 18.7273h 0.442913v
 31.5849h 0.442913v 16.072h 0.442913v 7.9661h 0.442913v 1.67707h 0.442913v 0.139756h 0.442913v -0.419268h 0.442913v 0.978293h 0.442913v -0.559025h 0.442913v 0.139756h 0.442913v -0.139756h 0.442913v 0.559025h 2.21457v -0.139756h 0.442913v 0.139756h
 6.6437v -0.139756h 0.442913v 0.139756h 7.08661" fill="none" stroke="#000099"/>
<path d="M57.1929,346.022h 453.543" fill="none" stroke="black"/>
<path d="M57.1929,336.795v 9.22726" fill="none" stroke="black"/>
<path d="M68.5315,341.409v 4.61363" fill="none" stroke="black"/>
<path d="M79.8701,341.409v 4.61363" fill="none" stroke="black"/>
<path d="M91.2087,341.409v 4.61363" fill="none" stroke="black"/>
<path d="M102.547,341.409v 4.61363" fill="none" stroke="black"/>
<path d="M113.886,336.795v 9.22726" fill="none" stroke="black"/>
<path d="M125.224,341.409v 4.61363" fill="none" stroke="black"/>
<path d="M136.563,341.409v 4.61363" fill="none" stroke="black"/>
<path d="M147.902,341.409v 4.61363" fill="none" stroke="black"/>
<path d="M159.24,341.409v 4.61363" fill="none" stroke="black"/>
<path d="M170.579,336.795v 9.22726" fill="none" stroke="black"/>
<path d="M181.917,341.409v 4.61363" fill="none" stroke="black"/>
<path d="M193.256,341.409v 4.61363" fill="none" stroke="black"/>
<path d="M204.594,341.409v 4.61363" fill="none" stroke="black"/>
<path d="M215.933,341.409v 4.61363" fill="none" stroke="black"/>
<path d="M227.272,336.795v 9.22726" fill="none" stroke="black"/>
<path d="M238.61,341.409v 4.61363" fill="none" stroke="black"/>
<path d="M249.949,341.409v 4.61363" fill="none" stroke="black"/>
<path d="M261.287,341.409v 4.61363" fill="none" stroke="black"/>
<path d="M272.626,341.409v 4.61363" fill="none" stroke="black"/>
<path d="M283.965,336.795v 9.22726" fill="none" stroke="black"/>
<path d="M295.303,341.409v 4.61363" fill="none" stroke="black"/>
<path d="M306.642,341.409v 4.61363" fill="none" stroke="black"/>
<path d="M317.98,341.409v 4.61363" fill="none" stroke="black"/>
<path d="M329.319,341.409v 4.61363" fill="none" stroke="black"/>
<path d="M340.657,336.795v 9.22726" fill="none" stroke="black"/>
<path d="M351.996,341.409v 4.61363" fill="none" stroke="black"/>
<path d="M363.335,341.409v 4.61363" fill="none" stroke="black"/>
<path d="M374.673,341.409v 4.61363" fill="none" stroke="black"/>
<path d="M386.012,341.409v 4.61363" fill="none" stroke="black"/>
<path d="M397.35,336.795v 9.22726" fill="none" stroke="black"/>
<path d="M408.689,341.409v 4.61363" fill="none" stroke="black"/>
<path d="M420.028,341.409v 4.61363" fill="none" stroke="black"/>
<path d="M431.366,341.409v 4.61363" fill="none" stroke="black"/>
<path d="M442.705,341.409v 4.61363" fill="none" stroke="black"/>
<path d="M454.043,336.795v 9.22726" fill="none" stroke="black"/>
<path d="M465.382,341.409v 4.61363" fill="none" stroke="black"/>
<path d="M476.72,341.409v 4.61363" fill="none" stroke="black"/>
<path d="M488.059,341.409v 4.61363" fill="none" stroke="black"/>
<path d="M499.398,341.409v 4.61363" fill="none" stroke="black"/>
<path d="M510.736,336.795v 9.22726" fill="none" stroke="black"/>
<text xml:space="preserve" x="53.446" y="358.403" fill="black" font-size="12.8453" font-family="Helvetica">0</text>
<text xml:space="preserve" x="110.465" y="358.403" fill="black" font-size="12.8453" font-family="Helvetica">5</text>
<text xml:space="preserve" x="163.411" y="358.403" fill="black" font-size="12.8453" font-family="Helvetica">10</text>
<text xml:space="preserve" x="219.615" y="358.403" fill="black" font-size="12.8453" font-family="Helvetica">15</text>
<text xml:space="preserve" x="277.448" y="358.403" fill="black" font-size="12.8453" font-family="Helvetica">20</text>
<text xml:space="preserve" x="332.838" y="358.403" fill="black" font-size="12.8453" font-family="Helvetica">25</text>
<text xml:space="preserve" x="390.671" y="358.403" fill="black" font-size="12.8453" font-family="Helvetica">30</text>
<text xml:space="preserve" x="446.061" y="358.403" fill="black" font-size="12.8453" font-family="Helvetica">35</text>
<text xml:space="preserve" x="503.894" y="358.403" fill="black" font-size="12.8453" font-family="Helvetica">40</text>
<text xml:space="preserve" x="441.173" y="370.622" fill="black" font-size="12.8453" font-family="Helvetica">Energy [keV]</text>
<path d="M57.1929,346.022v -307.575" fill="none" stroke="black"/>
<path d="M70.7992,346.022h -13.6063" fill="none" stroke="black"/>
<path d="M63.9961,339.034h -6.80315" fill="none" stroke="black"/>
<path d="M63.9961,332.047h -6.80315" fill="none" stroke="black"/>
<path d="M63.9961,325.059h -6.80315" fill="none" stroke="black"/>
<path d="M70.7992,318.071h -13.6063" fill="none" stroke="black"/>
<path d="M63.9961,311.083h -6.80315" fill="none" stroke="black"/>
<path d="M63.9961,304.095h -6.80315" fill="none" stroke="black"/>
<path d="M63.9961,297.108h -6.80315" fill="none" stroke="black"/>
<path d="M70.7992,290.12h -13.6063" fill="none" stroke="black"/>
<path d="M63.9961,283.132h -6.80315" fill="none" stroke="black"/>
<path d="M63.9961,276.144h -6.80315" fill="none" stroke="black"/>
<path d="M63.9961,269.156h -6.80315" fill="none" stroke="black"/>
<path d="M70.7992,262.169h -13.6063" fill="none" stroke="black"/>
<path d="M63.9961,255.181h -6.80315" fill="none" stroke="black"/>
<path d="M63.9961,248.193h -6.80315" fill="none" stroke="black"/>
<path d="M63.9961,241.205h -6.80315" fill="none" stroke="black"/>
<path d="M70.7992,234.217h -13.6063" fill="none" stroke="black"/>
<path d="M63.9961,227.23h -6.80315" fill="none" stroke="black"/>
<path d="M63.9961,220.242h -6.80315" fill="none" stroke="black"/>
<path d="M63.9961,213.254h -6.80315" fill="none" stroke="black"/>
<path d="M70.7992,206.266h -13.6063" fill="none" stroke="black"/>
<path d="M63.9961,199.278h -6.80315" fill="none" stroke="black"/>
<path d="M63.9961,192.29h -6.80315" fill="none" stroke="black"/>
<path d="M63.9961,185.303h -6.80315" fill="none" stroke="black"/>
<path d="M70.7992,178.315h -13.6063" fill="none" stroke="black"/>
<path d="M63.9961,171.327h -6.80315" fill="none" stroke="black"/>
<path d="M63.9961,164.339h -6.80315" fill="none" stroke="black"/>
<path d="M63.9961,157.351h -6.80315" fill="none" stroke="black"/>
<path d="M70.7992,150.364h -13.6063" fill="none" stroke="black"/>
<path d="M63.9961,143.376h -6.80315" fill="none" stroke="black"/>
<path d="M63.9961,136.388h -6.80315" fill="none" stroke="black"/>
<path d="M63.9961,129.4h -6.80315" fill="none" stroke="black"/>
<path d="M70.7992,122.412h -13.6063" fill="none" stroke="black"/>
<path d="M63.9961,115.425h -6.80315" fill="none" stroke="black"/>
<path d="M63.9961,108.437h -6.80315" fill="none" stroke="black"/>
<path d="M63.9961,101.449h -6.80315" fill="none" stroke="black"/>
<path d="M70.7992,94.4612h -13.6063" fill="none" stroke="black"/>
<path d="M63.9961,87.4734h -6.80315" fill="none" stroke="black"/>
<path d="M63.9961,80.4856h -6.80315" fill="none" stroke="black"/>
<path d="M63.9961,73.4978h -6.80315" fill="none" stroke="black"/>
<path d="M70.7992,66.51h -13.6063" fill="none" stroke="black"/>
<path d="M63.9961,59.5221h -6.80315" fill="none" stroke="black"/>
<path d="M63.9961,52.5343h -6.80315" fill="none" stroke="black"/>
<path d="M63.9961,45.5465h -6.80315" fill="none" stroke="black"/>
<path d="M70.7992,38.5587h -13.6063" fill="none" stroke="black"/>
<path d="M70.7992,38.5587h -13.6063" fill="none" stroke="black"/>
<text xml:space="preserve" x="47.7441" y="350.258" fill="black" font-size="12.8453" font-family="Helvetica">0</text>
<text xml:space="preserve" x="33.8967" y="322.563" fill="black" font-size="12.8453" font-family="Helvetica">200</text>
<text xml:space="preserve" x="33.8967" y="294.868" fill="black" font-size="12.8453" font-family="Helvetica">400</text>
<text xml:space="preserve" x="33.8967" y="266.359" fill="black" font-size="12.8453" font-family="Helvetica">600</text>
<text xml:space="preserve" x="33.8967" y="238.664" fill="black" font-size="12.8453" font-family="Helvetica">800</text>
<text xml:space="preserve" x="27.3803" y="210.969" fill="black" font-size="12.8453" font-family="Helvetica">1000</text>
<text xml:space="preserve" x="27.3803" y="182.46" fill="black" font-size="12.8453" font-family="Helvetica">1200</text>
<text xml:space="preserve" x="27.3803" y="154.765" fill="black" font-size="12.8453" font-family="Helvetica">1400</text>
<text xml:space="preserve" x="27.3803" y="127.07" fill="black" font-size="12.8453" font-family="Helvetica">1600</text>
<text xml:space="preserve" x="27.3803" y="98.561" fill="black" font-size="12.8453" font-family="Helvetica">1800</text>
<text xml:space="preserve" x="27.3803" y="70.8661" fill="black" font-size="12.8453" font-family="Helvetica">2000</text>
<text xml:space="preserve" x="27.3803" y="43.1713" fill="black" font-size="12.8453" font-family="Helvetica">2200</text>
<g transform="rotate(-90,14.3474,70.0516)">
<text xml:space="preserve" x="14.3474" y="70.0516" fill="black" font-size="12.8453" font-family="Helvetica">Event</text>
</g>
<text xml:space="preserve" x="206.582" y="18.7347" fill="black" font-size="18.0316" font-family="Helvetica">Am_009_calibrated</text>
<rect x="442.705" y="24.9905" width="113.386" height="61.5151" fill="white"/>
<path d="M442.705,86.5056h 113.386" fill="none" stroke="black"/>
<path d="M556.091,86.5056v -61.5151" fill="none" stroke="black"/>
<path d="M556.091,24.9905h -113.386" fill="none" stroke="black"/>
<path d="M442.705,24.9905v 61.5151" fill="none" stroke="black"/>
<text xml:space="preserve" x="446.061" y="36.6549" fill="black" font-size="12.1556" font-family="Helvetica">Am_009_calibrated</text>
<path d="M442.705,40.3693h 113.386" fill="none" stroke="black"/>
<text xml:space="preserve" x="447.69" y="52.946" fill="black" font-size="12.3904" font-family="Helvetica">Entries </text>
<text xml:space="preserve" x="506.338" y="52.946" fill="black" font-size="12.3904" font-family="Helvetica"> 116742</text>
<text xml:space="preserve" x="447.69" y="67.6079" fill="black" font-size="12.3904" font-family="Helvetica">Mean  </text>
<text xml:space="preserve" x="512.854" y="67.6079" fill="black" font-size="12.3904" font-family="Helvetica">  20.87</text>
<text xml:space="preserve" x="447.69" y="83.0844" fill="black" font-size="12.3904" font-family="Helvetica">Std Dev   </text>
<text xml:space="preserve" x="512.854" y="83.0844" fill="black" font-size="12.3904" font-family="Helvetica">  8.616</text>
<text xml:space="preserve" x="206.582" y="18.7347" fill="black" font-size="18.0316" font-family="Helvetica">Am_009_calibrated</text></svg>
