<?xml version="1.0" standalone="no"?>
<svg width="567.429" height="384.969" viewBox="0 0 567.429 384.969" xmlns="http://www.w3.org/2000/svg" shape-rendering="crispEdges">
<title>
img/week1/calibrated_hist_high_gain/Am_009.svg
</title>
<desc>
Creator: ROOT Version 6.22/09
CreationDate: Tue Jul 13 11:42:09 2021</desc>
<defs>
</defs>
<rect x="0.5" y="0" width="566.929" height="384.469" fill="white"/>
<rect x="57.1929" y="38.4469" width="453.543" height="307.575" fill="white"/>
<rect x="57.1929" y="38.4469" width="453.543" height="307.575" fill="none" stroke="black"/>
<path d="M57.1929,346.022h 65.1083v -0.27098h 0.442913v -1.3549h 0.442913v -5.01312h 0.442913v -7.72292h 0.442913v 0.406469h 0.442913v 2.30333h 0.442913v 2.16784h 0.442913v -1.3549h 0.442913v -2.7098h 0.442913v -0.406469h 0.442913v -0.13549h
 0.442913v 2.84529h 0.442913v 0.27098h 0.442913v -0.812939h 0.442913v 0.13549h 0.442913v -0.948428h 0.442913v 2.03235h 0.442913v -1.62588h 0.442913v -0.948428h 0.442913v 0.406469h 0.442913v 2.30333h 0.442913v -3.52273h 0.442913v 2.30333h 0.442913v
 -2.43882h 0.442913v 2.98078h 0.442913v 1.76137h 0.442913v -1.08392h 0.442913v 0.27098h 0.442913v -1.76137h 0.442913v 1.49039h 0.442913v -2.7098h 0.442913v 2.84529h 0.442913v 2.84529h 0.442913v -3.65822h 0.442913v -0.406469h 0.885827v -1.3549h
 0.442913v 0.406469h 0.442913v 1.76137h 0.442913v -0.27098h 0.442913v -0.812939h 0.442913v -1.49039h 0.885827v 1.62588h 0.442913v 2.03235h 0.442913v -2.16784h 0.442913v -1.21941h 0.442913v 3.65822h 0.442913v -1.21941h 0.442913v -0.541959h 0.442913v
 0.13549h 0.442913v 0.812939h 0.442913v -0.948428h 0.442913v 0.406469h 0.442913v -0.812939h 0.442913v 1.21941h 0.442913v -1.08392h 0.442913v 0.812939h 0.442913v 0.541959h 0.442913v -0.812939h 0.442913v -0.812939h 0.442913v 0.812939h 0.442913v
 -2.98078h 0.442913v 1.89686h 0.442913v 0.812939h 0.442913v -0.27098h 0.442913v 1.3549h 0.442913v -0.948428h 0.442913v 0.27098h 0.442913v -0.13549h 0.442913v 0.812939h 0.442913v 0.541959h 0.442913v -2.03235h 0.442913v -0.677449h 0.442913v 0.406469h
 0.442913v 1.21941h 0.442913v 0.406469h 0.885827v -1.21941h 0.442913v 1.76137h 0.442913v -2.98078h 0.442913v 0.406469h 0.442913v 0.541959h 0.442913v 2.03235h 0.442913v 0.406469h 0.442913v -2.98078h 0.442913v 0.406469h 0.442913v 2.16784h 0.442913v
 -0.812939h 0.442913v -1.89686h 0.442913v 3.25175h 0.442913v -1.89686h 0.442913v -1.49039h 0.442913v 1.62588h 0.442913v -1.62588h 0.442913v 1.49039h 0.442913v 0.948428h 0.442913v 0.812939h 0.442913v -0.948428h 0.442913v -0.812939h 0.442913v -0.27098h
 0.442913v 1.08392h 0.442913v 0.812939h 0.442913v -2.43882h 0.442913v 1.76137h 0.442913v -1.49039h 0.442913v 0.406469h 0.442913v 0.541959h 0.442913v -2.57431h 0.442913v 2.7098h 0.442913v 1.08392h 0.442913v -0.13549h 0.442913v -2.57431h 0.442913v
 0.541959h 0.442913v -1.08392h 0.442913v 1.76137h 0.442913v 1.21941h 0.442913v 1.21941h 0.442913v -2.16784h 0.442913v 0.13549h 0.442913v -1.89686h 0.442913v 4.47116h 0.442913v -3.9292h 0.442913v 2.43882h 0.442913v -2.30333h 0.442913v -0.677449h
 0.442913v -0.541959h 0.442913v 1.62588h 0.442913v 0.406469h 0.442913v 1.08392h 0.442913v 2.84529h 0.442913v -3.9292h 0.442913v -0.13549h 0.442913v -0.541959h 0.442913v -0.812939h 0.442913v 1.3549h 0.442913v 2.16784h 0.442913v 0.406469h 0.442913v
 -2.30333h 0.442913v 0.677449h 0.442913v -0.812939h 0.885827v 2.03235h 0.442913v -0.677449h 0.442913v -1.62588h 0.442913v 1.08392h 0.442913v -1.62588h 0.442913v -0.406469h 0.442913v -0.13549h 0.442913v 2.30333h 0.442913v 0.812939h 0.442913v -2.16784h
 0.442913v -0.406469h 0.442913v 0.406469h 0.442913v 1.49039h 0.442913v 0.27098h 0.442913v -1.08392h 0.442913v -2.30333h 0.442913v -0.27098h 0.442913v 1.76137h 0.442913v 1.3549h 0.442913v -1.89686h 0.442913v 2.03235h 0.442913v -0.406469h 0.442913v
 0.541959h 0.442913v -4.74214h 0.442913v 0.13549h 0.442913v -0.13549h 0.442913v 0.406469h 0.442913v 3.79371h 0.442913v -1.89686h 0.442913v -2.16784h 0.442913v 1.08392h 0.442913v -3.9292h 0.442913v 1.89686h 0.442913v 1.21941h 0.442913v 2.7098h
 0.442913v -3.38724h 0.442913v -2.84529h 0.442913v 1.89686h 0.442913v 0.541959h 0.442913v -0.13549h 0.442913v 2.43882h 0.442913v -5.01312h 0.442913v 2.03235h 0.442913v -1.21941h 0.442913v 1.49039h 0.442913v -1.62588h 0.442913v -0.406469h 0.442913v
 3.52273h 0.442913v -6.36802h 0.442913v -1.3549h 0.442913v 4.20018h 0.442913v 0.27098h 0.442913v 2.30333h 0.442913v -3.65822h 0.442913v -0.13549h 0.442913v 0.13549h 0.442913v -2.30333h 0.442913v 0.13549h 0.442913v 2.30333h 0.442913v -1.08392h
 0.442913v 0.948428h 0.442913v -3.79371h 0.442913v 2.84529h 0.442913v -0.677449h 0.442913v -0.406469h 0.442913v -1.76137h 0.442913v 4.47116h 0.442913v -5.41959h 0.442913v 2.16784h 0.442913v -0.541959h 0.442913v -2.84529h 0.442913v 2.84529h 0.442913v
 1.89686h 0.442913v -2.43882h 0.442913v -0.948428h 0.442913v -0.541959h 0.442913v 2.16784h 0.442913v -1.3549h 0.442913v 3.9292h 0.442913v -2.16784h 0.442913v -5.14861h 0.442913v 3.38724h 0.442913v -1.89686h 0.442913v 0.27098h 0.442913v 0.541959h
 0.442913v 3.25175h 0.442913v 0.406469h 0.442913v -5.55508h 0.442913v 1.3549h 0.442913v 0.812939h 0.442913v -2.57431h 0.442913v 5.41959h 0.442913v -4.74214h 0.442913v 0.13549h 0.442913v -1.62588h 0.442913v -5.2841h 0.442913v 4.74214h 0.442913v
 3.25175h 0.442913v 1.3549h 0.442913v -5.96155h 0.442913v -2.7098h 0.442913v 0.677449h 0.442913v -6.23253h 0.442913v 9.89075h 0.442913v -1.76137h 0.442913v 3.11626h 0.442913v -6.90998h 0.442913v -0.541959h 0.885827v -0.541959h 0.442913v -2.98078h
 0.442913v 6.90998h 0.442913v 0.13549h 0.442913v -3.65822h 0.442913v -5.82606h 0.442913v 3.25175h 0.442913v -2.30333h 0.442913v 4.60665h 0.442913v 2.84529h 0.442913v -3.79371h 0.442913v -2.30333h 0.442913v -3.79371h 0.442913v -3.65822h 0.442913v
 6.90998h 0.442913v 1.3549h 0.442913v -3.79371h 0.442913v -2.03235h 0.442913v -5.14861h 0.442913v 3.79371h 0.442913v -1.76137h 0.442913v 6.36802h 0.442913v -4.60665h 0.442913v -2.57431h 0.442913v -5.01312h 0.442913v -2.57431h 0.442913v -0.812939h
 0.442913v 5.14861h 0.442913v 6.09704h 0.442913v -6.36802h 0.442913v -8.80684h 0.442913v 4.74214h 0.442913v -1.62588h 0.442913v 2.03235h 0.442913v -6.36802h 0.442913v 11.3811h 0.442913v -8.12939h 0.442913v -3.79371h 0.442913v -2.16784h 0.442913v
 1.89686h 0.442913v 2.84529h 0.442913v 7.9939h 0.442913v 0.13549h 0.442913v -10.1617h 0.442913v -4.33567h 0.442913v 1.49039h 0.442913v 0.541959h 0.442913v 2.16784h 0.442913v 3.25175h 0.442913v -3.65822h 0.442913v 1.3549h 0.442913v -6.639h 0.442913v
 -6.77449h 0.442913v 9.34879h 0.442913v 0.27098h 0.442913v 5.01312h 0.442913v -9.34879h 0.442913v -9.89075h 0.442913v 4.06469h 0.442913v 6.77449h 0.442913v 9.07782h 0.442913v 1.21941h 0.442913v -10.5682h 0.442913v -4.06469h 0.442913v -2.43882h
 0.442913v -3.25175h 0.442913v 16.8007h 0.442913v 5.96155h 0.442913v -3.79371h 0.442913v -5.55508h 0.442913v -7.58743h 0.442913v 4.47116h 0.442913v 4.20018h 0.442913v 9.34879h 0.442913v -3.11626h 0.442913v 3.25175h 0.442913v -6.639h 0.442913v
 -5.96155h 0.442913v 1.08392h 0.442913v 9.61977h 0.442913v 2.7098h 0.442913v 0.406469h 0.442913v -0.541959h 0.442913v -6.09704h 0.442913v 0.812939h 0.442913v 3.52273h 0.442913v 3.9292h 0.442913v 5.82606h 0.442913v -11.9231h 0.442913v 0.406469h
 0.442913v 3.25175h 0.442913v 0.948428h 0.442913v 2.30333h 0.442913v 4.20018h 0.442913v 0.541959h 0.442913v -10.0262h 0.442913v 5.41959h 0.442913v 4.06469h 0.442913v -5.01312h 0.442913v 11.6521h 0.442913v 3.9292h 0.442913v -6.77449h 0.442913v
 -5.69057h 0.442913v -1.62588h 0.442913v 4.87763h 0.442913v 5.2841h 0.442913v 4.87763h 0.442913v -3.25175h 0.442913v -2.57431h 0.442913v 0.677449h 0.442913v -2.57431h 0.442913v 3.11626h 0.442913v 0.27098h 0.442913v 6.90998h 0.442913v -7.58743h
 0.885827v -4.20018h 0.442913v 5.82606h 0.442913v 0.948428h 0.442913v 4.60665h 0.442913v -0.406469h 0.442913v -7.18096h 0.442913v 2.16784h 0.442913v 2.98078h 0.442913v -1.3549h 0.442913v 7.04547h 0.442913v 0.27098h 0.442913v -4.33567h 0.442913v
 -0.541959h 0.442913v -3.79371h 0.442913v 2.03235h 0.442913v 3.52273h 0.442913v 2.03235h 0.442913v -1.49039h 0.442913v -3.65822h 0.442913v 1.21941h 0.442913v -1.08392h 0.442913v 3.79371h 0.442913v 1.08392h 0.442913v 1.76137h 0.442913v -5.82606h
 0.442913v -1.21941h 0.442913v 1.49039h 0.442913v 1.08392h 0.442913v 0.677449h 0.442913v 1.21941h 0.442913v 1.3549h 0.885827v -5.55508h 0.442913v 1.3549h 0.442913v 2.03235h 0.442913v 0.948428h 0.442913v 3.11626h 0.442913v -2.16784h 0.442913v
 -3.38724h 0.442913v -1.76137h 0.442913v 5.14861h 0.442913v 1.21941h 0.442913v 4.60665h 0.442913v -5.55508h 0.442913v -1.89686h 0.442913v 2.16784h 0.442913v -2.7098h 0.442913v 2.03235h 0.442913v 5.14861h 0.442913v -2.98078h 0.442913v 1.08392h
 0.442913v -2.30333h 0.442913v -2.30333h 0.442913v 2.98078h 0.442913v 1.21941h 0.442913v 1.3549h 0.442913v -0.13549h 0.442913v 0.13549h 0.442913v -4.06469h 0.442913v 4.20018h 0.442913v -3.9292h 0.442913v 6.23253h 0.442913v 2.30333h 0.442913v
 -2.98078h 0.442913v -1.89686h 0.442913v -1.21941h 0.442913v -0.948428h 0.442913v 4.20018h 0.442913v 1.3549h 0.442913v 1.21941h 0.442913v -1.3549h 0.442913v 1.62588h 0.442913v -3.79371h 0.442913v 3.11626h 0.442913v 2.30333h 0.442913v -1.62588h
 0.442913v 0.27098h 0.442913v 0.27098h 0.442913v 0.27098h 0.442913v -0.406469h 0.442913v 1.08392h 0.442913v 1.89686h 0.442913v 0.13549h 0.442913v -0.677449h 0.442913v 1.76137h 0.442913v -4.20018h 0.442913v 2.57431h 0.442913v 1.76137h 0.442913v
 2.84529h 0.442913v -4.60665h 0.442913v 0.812939h 0.442913v -1.08392h 0.442913v 1.89686h 0.442913v -0.677449h 0.442913v 2.57431h 0.442913v 0.27098h 0.442913v -2.16784h 0.442913v 2.30333h 0.442913v -2.03235h 0.442913v 1.76137h 0.442913v 2.30333h
 0.442913v 0.13549h 0.442913v -0.677449h 0.442913v 0.27098h 0.442913v -0.812939h 0.885827v 1.21941h 0.442913v 1.08392h 0.442913v 1.89686h 0.442913v -3.79371h 0.442913v -0.13549h 0.442913v -0.13549h 0.442913v 0.948428h 0.442913v 1.89686h 0.442913v
 -1.21941h 0.442913v 2.03235h 0.442913v -2.03235h 0.442913v -0.677449h 0.442913v 0.948428h 0.442913v -1.21941h 0.885827v 2.43882h 0.442913v -2.03235h 0.442913v 0.13549h 0.442913v 0.812939h 0.442913v 1.21941h 0.442913v -0.812939h 0.442913v 0.948428h
 0.442913v -2.57431h 0.442913v 0.812939h 0.442913v 0.27098h 0.442913v -0.406469h 0.442913v 1.76137h 0.442913v 0.27098h 0.442913v 0.541959h 0.442913v -1.49039h 0.442913v -0.406469h 0.442913v -1.49039h 0.442913v 3.25175h 0.442913v -2.03235h 0.442913v
 2.7098h 0.442913v -2.30333h 0.442913v 0.677449h 0.442913v -1.49039h 0.442913v -1.21941h 0.442913v 4.87763h 0.442913v -1.08392h 0.442913v -0.406469h 0.442913v -2.03235h 0.442913v -1.3549h 0.442913v -1.08392h 0.442913v 1.21941h 0.442913v 2.03235h
 0.442913v 0.948428h 0.442913v -4.33567h 0.442913v 3.11626h 0.442913v -2.7098h 0.442913v -0.406469h 0.442913v 2.98078h 0.442913v -0.27098h 0.885827v 1.89686h 0.442913v -2.84529h 0.442913v 0.677449h 0.442913v -1.3549h 0.442913v 2.16784h 0.442913v
 -2.98078h 0.442913v 3.25175h 0.442913v -1.49039h 0.442913v -2.57431h 0.442913v 1.49039h 0.442913v 0.406469h 0.442913v 2.16784h 0.442913v -0.948428h 0.442913v -2.7098h 0.442913v 0.406469h 0.885827v 0.13549h 0.442913v 2.43882h 0.442913v 1.21941h
 0.442913v -0.948428h 0.442913v -0.948428h 0.442913v -0.406469h 0.442913v 0.406469h 0.442913v 1.08392h 0.442913v -0.812939h 0.442913v 0.948428h 0.442913v -0.812939h 0.442913v -0.677449h 0.442913v 0.677449h 0.442913v -0.27098h 0.442913v 1.08392h
 0.442913v 1.3549h 0.442913v -1.49039h 0.442913v 2.03235h 0.442913v -3.25175h 0.442913v 3.11626h 0.442913v -1.76137h 0.442913v -0.13549h 0.442913v 2.43882h 0.442913v -1.89686h 0.885827v 1.3549h 0.442913v -0.27098h 0.442913v 0.812939h 0.442913v
 -1.08392h 0.442913v 2.30333h 0.442913v -1.62588h 0.442913v 1.89686h 0.442913v -1.21941h 0.442913v -0.948428h 0.442913v 1.62588h 0.442913v 2.30333h 0.442913v -2.98078h 0.442913v -0.948428h 0.442913v 0.948428h 0.442913v -0.677449h 0.442913v 1.62588h
 0.442913v 2.30333h 0.442913v -0.541959h 0.442913v -2.03235h 0.442913v 0.948428h 0.442913v -0.677449h 0.442913v -0.27098h 0.442913v 2.03235h 0.442913v -0.406469h 0.442913v -0.13549h 0.442913v 0.27098h 0.442913v -0.812939h 0.442913v 1.08392h 0.442913v
 0.27098h 0.442913v -0.677449h 0.442913v -0.541959h 0.442913v 0.677449h 0.442913v -0.13549h 0.442913v 0.948428h 0.442913v -0.541959h 0.442913v 1.62588h 0.442913v -0.406469h 0.442913v -1.62588h 0.442913v 1.21941h 0.442913v -0.406469h 0.442913v
 0.677449h 0.442913v -0.27098h 0.442913v 0.541959h 0.442913v -0.677449h 0.442913v 0.406469h 0.442913v -0.27098h 0.442913v 0.812939h 0.442913v -0.13549h 0.442913v 0.13549h 0.885827v -0.406469h 0.442913v 0.541959h 0.442913v -0.27098h 0.885827v
 -0.677449h 0.442913v 1.21941h 0.442913v -0.27098h 0.442913v 0.13549h 0.442913v -0.13549h 0.442913v 0.13549h 0.442913v 0.541959h 0.442913v 0.406469h 0.442913v 0.13549h 0.442913v -0.541959h 0.442913v -0.406469h 0.442913v 0.541959h 0.442913v -0.541959h
 0.442913v 0.27098h 0.442913v -0.13549h 0.442913v -0.13549h 0.442913v 0.13549h 0.442913v 0.27098h 0.442913v -0.13549h 0.442913v -0.13549h 0.442913v 0.541959h 0.442913v 0.27098h 0.442913v -0.812939h 0.442913v -0.27098h 0.442913v 0.812939h 0.442913v
 -0.27098h 0.442913v 0.541959h 0.442913v -0.812939h 0.442913v 0.13549h 0.442913v 0.27098h 0.442913v 0.541959h 0.442913v -0.13549h 0.442913v -1.08392h 0.442913v 0.812939h 0.885827v -0.27098h 0.442913v -0.27098h 0.442913v 0.541959h 0.442913v 0.13549h
 0.885827v -0.27098h 0.442913v 0.406469h 0.442913v -0.948428h 0.442913v 0.541959h 0.442913v -0.677449h 0.442913v 0.677449h 0.442913v -0.406469h 0.442913v 0.406469h 0.442913v 0.677449h 0.442913v -0.406469h 0.442913v -0.13549h 0.442913v -0.13549h
 0.885827v 0.27098h 0.442913v -0.677449h 0.442913v 0.677449h 0.885827v -0.13549h 0.885827v -0.27098h 0.442913v 0.406469h 0.442913v -0.13549h 0.442913v -0.541959h 0.442913v 0.13549h 0.442913v 0.13549h 0.442913v 0.677449h 0.885827v -0.948428h 0.442913v
 0.13549h 0.885827v 0.677449h 0.442913v -0.541959h 0.442913v 0.406469h 0.885827v -0.27098h 0.442913v 0.406469h 0.442913v -0.406469h 0.442913v -0.406469h 0.442913v 0.27098h 0.442913v 0.27098h 0.885827v 0.13549h 0.885827v -0.27098h 0.442913v 0.406469h
 0.442913v -0.13549h 0.442913v 0.13549h 0.442913v -0.27098h 0.442913v -0.677449h 0.442913v 0.27098h 0.442913v 0.541959h 0.442913v 0.13549h 0.442913v 0.27098h 0.442913v -0.406469h 0.885827v -0.13549h 0.442913v 0.27098h 0.442913v -0.541959h 0.442913v
 0.406469h 0.442913v 0.13549h 0.442913v -0.27098h 0.442913v -0.13549h 0.442913v 0.13549h 0.442913v -0.27098h 0.442913v 0.13549h 0.442913v 0.13549h 0.442913v -0.13549h 0.442913v 0.27098h 0.442913v -0.27098h 0.442913v -0.406469h 0.885827v -0.13549h
 0.442913v 0.812939h 0.442913v -0.27098h 0.442913v 0.406469h 0.442913v -0.13549h 0.442913v -0.406469h 0.885827v -0.27098h 0.442913v 0.406469h 0.885827v 0.406469h 0.442913v -0.13549h 0.885827v 0.27098h 0.442913v -0.406469h 0.442913v -0.13549h
 0.442913v 0.27098h 0.442913v -0.27098h 0.442913v 0.13549h 0.442913v -0.13549h 0.442913v -0.406469h 0.442913v 0.27098h 0.442913v 0.13549h 0.442913v -0.27098h 0.442913v 0.27098h 0.442913v -0.13549h 0.442913v -0.13549h 0.442913v -0.13549h 0.442913v
 0.27098h 0.442913v 0.948428h 0.442913v -0.541959h 0.442913v 0.13549h 0.442913v -0.27098h 0.885827v 0.541959h 0.442913v 0.13549h 0.442913v -0.406469h 0.442913v -0.406469h 0.442913v 0.13549h 0.442913v 0.541959h 0.442913v -0.406469h 0.442913v -0.13549h
 0.442913v -0.406469h 0.442913v 0.27098h 0.442913v -0.27098h 0.442913v 0.677449h 0.442913v -0.541959h 0.442913v 0.812939h 0.442913v -0.406469h 0.442913v -0.27098h 0.442913v 0.27098h 0.885827v 0.13549h 0.442913v -0.406469h 0.885827v 0.812939h
 0.442913v -0.541959h 0.442913v -0.13549h 0.885827v 0.13549h 0.885827v 0.13549h 0.442913v -0.27098h 0.442913v -0.406469h 0.885827v 0.812939h 0.442913v -0.27098h 0.442913v 0.13549h 0.442913v -0.27098h 0.442913v -0.948428h 0.442913v 0.406469h 0.442913v
 0.948428h 0.442913v -0.13549h 0.442913v -1.49039h 0.442913v -4.47116h 0.442913v -29.6723h 0.442913v -94.3009h 0.442913v -162.452h 0.442913v 19.2395h 0.442913v 62.4608h 0.442913v 18.2911h 0.442913v 15.7168h 0.442913v 44.9826h 0.442913v 29.8078h
 0.442913v 18.1556h 0.442913v 12.3296h 0.442913v -4.60665h 0.442913v -14.4974h 0.442913v 0.677449h 0.442913v 6.90998h 0.442913v 3.38724h 0.442913v 7.45194h 0.442913v 2.16784h 0.442913v -1.49039h 0.442913v 18.5621h 0.442913v 30.0787h 0.442913v
 15.4458h 0.442913v 5.69057h 0.442913v 1.21941h 0.442913v 0.677449h 0.442913v -0.677449h 0.442913v 0.812939h 0.442913v -0.27098h 0.442913v -0.27098h 0.442913v 0.406469h 0.442913v 0.27098h 1.77165v -0.13549h 0.442913v 0.13549h 6.6437v -0.13549h
 0.442913v 0.13549h 7.52953" fill="none" stroke="#000099"/>
<path d="M57.1929,346.022h 453.543" fill="none" stroke="black"/>
<path d="M57.1929,336.795v 9.22726" fill="none" stroke="black"/>
<path d="M68.5315,341.409v 4.61363" fill="none" stroke="black"/>
<path d="M79.8701,341.409v 4.61363" fill="none" stroke="black"/>
<path d="M91.2087,341.409v 4.61363" fill="none" stroke="black"/>
<path d="M102.547,341.409v 4.61363" fill="none" stroke="black"/>
<path d="M113.886,336.795v 9.22726" fill="none" stroke="black"/>
<path d="M125.224,341.409v 4.61363" fill="none" stroke="black"/>
<path d="M136.563,341.409v 4.61363" fill="none" stroke="black"/>
<path d="M147.902,341.409v 4.61363" fill="none" stroke="black"/>
<path d="M159.24,341.409v 4.61363" fill="none" stroke="black"/>
<path d="M170.579,336.795v 9.22726" fill="none" stroke="black"/>
<path d="M181.917,341.409v 4.61363" fill="none" stroke="black"/>
<path d="M193.256,341.409v 4.61363" fill="none" stroke="black"/>
<path d="M204.594,341.409v 4.61363" fill="none" stroke="black"/>
<path d="M215.933,341.409v 4.61363" fill="none" stroke="black"/>
<path d="M227.272,336.795v 9.22726" fill="none" stroke="black"/>
<path d="M238.61,341.409v 4.61363" fill="none" stroke="black"/>
<path d="M249.949,341.409v 4.61363" fill="none" stroke="black"/>
<path d="M261.287,341.409v 4.61363" fill="none" stroke="black"/>
<path d="M272.626,341.409v 4.61363" fill="none" stroke="black"/>
<path d="M283.965,336.795v 9.22726" fill="none" stroke="black"/>
<path d="M295.303,341.409v 4.61363" fill="none" stroke="black"/>
<path d="M306.642,341.409v 4.61363" fill="none" stroke="black"/>
<path d="M317.98,341.409v 4.61363" fill="none" stroke="black"/>
<path d="M329.319,341.409v 4.61363" fill="none" stroke="black"/>
<path d="M340.657,336.795v 9.22726" fill="none" stroke="black"/>
<path d="M351.996,341.409v 4.61363" fill="none" stroke="black"/>
<path d="M363.335,341.409v 4.61363" fill="none" stroke="black"/>
<path d="M374.673,341.409v 4.61363" fill="none" stroke="black"/>
<path d="M386.012,341.409v 4.61363" fill="none" stroke="black"/>
<path d="M397.35,336.795v 9.22726" fill="none" stroke="black"/>
<path d="M408.689,341.409v 4.61363" fill="none" stroke="black"/>
<path d="M420.028,341.409v 4.61363" fill="none" stroke="black"/>
<path d="M431.366,341.409v 4.61363" fill="none" stroke="black"/>
<path d="M442.705,341.409v 4.61363" fill="none" stroke="black"/>
<path d="M454.043,336.795v 9.22726" fill="none" stroke="black"/>
<path d="M465.382,341.409v 4.61363" fill="none" stroke="black"/>
<path d="M476.72,341.409v 4.61363" fill="none" stroke="black"/>
<path d="M488.059,341.409v 4.61363" fill="none" stroke="black"/>
<path d="M499.398,341.409v 4.61363" fill="none" stroke="black"/>
<path d="M510.736,336.795v 9.22726" fill="none" stroke="black"/>
<text xml:space="preserve" x="53.446" y="358.403" fill="black" font-size="12.8453" font-family="Helvetica">0</text>
<text xml:space="preserve" x="110.465" y="358.403" fill="black" font-size="12.8453" font-family="Helvetica">5</text>
<text xml:space="preserve" x="163.411" y="358.403" fill="black" font-size="12.8453" font-family="Helvetica">10</text>
<text xml:space="preserve" x="219.615" y="358.403" fill="black" font-size="12.8453" font-family="Helvetica">15</text>
<text xml:space="preserve" x="277.448" y="358.403" fill="black" font-size="12.8453" font-family="Helvetica">20</text>
<text xml:space="preserve" x="332.838" y="358.403" fill="black" font-size="12.8453" font-family="Helvetica">25</text>
<text xml:space="preserve" x="390.671" y="358.403" fill="black" font-size="12.8453" font-family="Helvetica">30</text>
<text xml:space="preserve" x="446.061" y="358.403" fill="black" font-size="12.8453" font-family="Helvetica">35</text>
<text xml:space="preserve" x="503.894" y="358.403" fill="black" font-size="12.8453" font-family="Helvetica">40</text>
<text xml:space="preserve" x="441.173" y="370.622" fill="black" font-size="12.8453" font-family="Helvetica">Energy [keV]</text>
<path d="M57.1929,346.022v -307.575" fill="none" stroke="black"/>
<path d="M70.7992,346.022h -13.6063" fill="none" stroke="black"/>
<path d="M63.9961,339.248h -6.80315" fill="none" stroke="black"/>
<path d="M63.9961,332.473h -6.80315" fill="none" stroke="black"/>
<path d="M63.9961,325.699h -6.80315" fill="none" stroke="black"/>
<path d="M70.7992,318.924h -13.6063" fill="none" stroke="black"/>
<path d="M63.9961,312.15h -6.80315" fill="none" stroke="black"/>
<path d="M63.9961,305.375h -6.80315" fill="none" stroke="black"/>
<path d="M63.9961,298.601h -6.80315" fill="none" stroke="black"/>
<path d="M70.7992,291.826h -13.6063" fill="none" stroke="black"/>
<path d="M63.9961,285.052h -6.80315" fill="none" stroke="black"/>
<path d="M63.9961,278.277h -6.80315" fill="none" stroke="black"/>
<path d="M63.9961,271.503h -6.80315" fill="none" stroke="black"/>
<path d="M70.7992,264.728h -13.6063" fill="none" stroke="black"/>
<path d="M63.9961,257.954h -6.80315" fill="none" stroke="black"/>
<path d="M63.9961,251.179h -6.80315" fill="none" stroke="black"/>
<path d="M63.9961,244.405h -6.80315" fill="none" stroke="black"/>
<path d="M70.7992,237.63h -13.6063" fill="none" stroke="black"/>
<path d="M63.9961,230.856h -6.80315" fill="none" stroke="black"/>
<path d="M63.9961,224.081h -6.80315" fill="none" stroke="black"/>
<path d="M63.9961,217.307h -6.80315" fill="none" stroke="black"/>
<path d="M70.7992,210.532h -13.6063" fill="none" stroke="black"/>
<path d="M63.9961,203.758h -6.80315" fill="none" stroke="black"/>
<path d="M63.9961,196.984h -6.80315" fill="none" stroke="black"/>
<path d="M63.9961,190.209h -6.80315" fill="none" stroke="black"/>
<path d="M70.7992,183.435h -13.6063" fill="none" stroke="black"/>
<path d="M63.9961,176.66h -6.80315" fill="none" stroke="black"/>
<path d="M63.9961,169.886h -6.80315" fill="none" stroke="black"/>
<path d="M63.9961,163.111h -6.80315" fill="none" stroke="black"/>
<path d="M70.7992,156.337h -13.6063" fill="none" stroke="black"/>
<path d="M63.9961,149.562h -6.80315" fill="none" stroke="black"/>
<path d="M63.9961,142.788h -6.80315" fill="none" stroke="black"/>
<path d="M63.9961,136.013h -6.80315" fill="none" stroke="black"/>
<path d="M70.7992,129.239h -13.6063" fill="none" stroke="black"/>
<path d="M63.9961,122.464h -6.80315" fill="none" stroke="black"/>
<path d="M63.9961,115.69h -6.80315" fill="none" stroke="black"/>
<path d="M63.9961,108.915h -6.80315" fill="none" stroke="black"/>
<path d="M70.7992,102.141h -13.6063" fill="none" stroke="black"/>
<path d="M63.9961,95.3662h -6.80315" fill="none" stroke="black"/>
<path d="M63.9961,88.5917h -6.80315" fill="none" stroke="black"/>
<path d="M63.9961,81.8172h -6.80315" fill="none" stroke="black"/>
<path d="M70.7992,75.0427h -13.6063" fill="none" stroke="black"/>
<path d="M63.9961,68.2682h -6.80315" fill="none" stroke="black"/>
<path d="M63.9961,61.4937h -6.80315" fill="none" stroke="black"/>
<path d="M63.9961,54.7192h -6.80315" fill="none" stroke="black"/>
<path d="M70.7992,47.9448h -13.6063" fill="none" stroke="black"/>
<path d="M70.7992,47.9448h -13.6063" fill="none" stroke="black"/>
<path d="M63.9961,41.1703h -6.80315" fill="none" stroke="black"/>
<text xml:space="preserve" x="47.7441" y="350.258" fill="black" font-size="12.8453" font-family="Helvetica">0</text>
<text xml:space="preserve" x="33.8967" y="323.378" fill="black" font-size="12.8453" font-family="Helvetica">200</text>
<text xml:space="preserve" x="33.8967" y="296.497" fill="black" font-size="12.8453" font-family="Helvetica">400</text>
<text xml:space="preserve" x="33.8967" y="268.803" fill="black" font-size="12.8453" font-family="Helvetica">600</text>
<text xml:space="preserve" x="33.8967" y="241.922" fill="black" font-size="12.8453" font-family="Helvetica">800</text>
<text xml:space="preserve" x="27.3803" y="215.042" fill="black" font-size="12.8453" font-family="Helvetica">1000</text>
<text xml:space="preserve" x="27.3803" y="188.162" fill="black" font-size="12.8453" font-family="Helvetica">1200</text>
<text xml:space="preserve" x="27.3803" y="160.467" fill="black" font-size="12.8453" font-family="Helvetica">1400</text>
<text xml:space="preserve" x="27.3803" y="133.587" fill="black" font-size="12.8453" font-family="Helvetica">1600</text>
<text xml:space="preserve" x="27.3803" y="106.706" fill="black" font-size="12.8453" font-family="Helvetica">1800</text>
<text xml:space="preserve" x="27.3803" y="79.8262" fill="black" font-size="12.8453" font-family="Helvetica">2000</text>
<text xml:space="preserve" x="27.3803" y="52.1314" fill="black" font-size="12.8453" font-family="Helvetica">2200</text>
<g transform="rotate(-90,14.3474,70.0516)">
<text xml:space="preserve" x="14.3474" y="70.0516" fill="black" font-size="12.8453" font-family="Helvetica">Event</text>
</g>
<text xml:space="preserve" x="206.582" y="18.7347" fill="black" font-size="18.0316" font-family="Helvetica">Am_009_calibrated</text>
<rect x="442.705" y="24.9905" width="113.386" height="61.5151" fill="white"/>
<path d="M442.705,86.5056h 113.386" fill="none" stroke="black"/>
<path d="M556.091,86.5056v -61.5151" fill="none" stroke="black"/>
<path d="M556.091,24.9905h -113.386" fill="none" stroke="black"/>
<path d="M442.705,24.9905v 61.5151" fill="none" stroke="black"/>
<text xml:space="preserve" x="446.061" y="36.6549" fill="black" font-size="12.1556" font-family="Helvetica">Am_009_calibrated</text>
<path d="M442.705,40.3693h 113.386" fill="none" stroke="black"/>
<text xml:space="preserve" x="447.69" y="52.946" fill="black" font-size="12.3904" font-family="Helvetica">Entries </text>
<text xml:space="preserve" x="506.338" y="52.946" fill="black" font-size="12.3904" font-family="Helvetica"> 116742</text>
<text xml:space="preserve" x="447.69" y="67.6079" fill="black" font-size="12.3904" font-family="Helvetica">Mean  </text>
<text xml:space="preserve" x="512.854" y="67.6079" fill="black" font-size="12.3904" font-family="Helvetica">  20.89</text>
<text xml:space="preserve" x="447.69" y="83.0844" fill="black" font-size="12.3904" font-family="Helvetica">Std Dev   </text>
<text xml:space="preserve" x="512.854" y="83.0844" fill="black" font-size="12.3904" font-family="Helvetica">  8.602</text>
<text xml:space="preserve" x="206.582" y="18.7347" fill="black" font-size="18.0316" font-family="Helvetica">Am_009_calibrated</text></svg>
