<?xml version="1.0" standalone="no"?>
<svg width="567.429" height="384.969" viewBox="0 0 567.429 384.969" xmlns="http://www.w3.org/2000/svg" shape-rendering="crispEdges">
<title>
img/week1/calibrated_hist_high_gain/Am_007_calibrated_show_gaus_withpara.svg
</title>
<desc>
Creator: ROOT Version 6.22/09
CreationDate: Tue Jul 13 13:07:23 2021</desc>
<defs>
</defs>
<rect x="0.5" y="0" width="566.929" height="384.469" fill="white"/>
<rect x="57.1929" y="38.4469" width="453.543" height="307.575" fill="white"/>
<rect x="57.1929" y="38.4469" width="453.543" height="307.575" fill="none" stroke="black"/>
<rect x="57.1929" y="38.4469" width="453.543" height="307.575" fill="white"/>
<rect x="57.1929" y="38.4469" width="453.543" height="307.575" fill="none" stroke="black"/>
<path d="M57.1929,346.022h 73.2744v -4.33969h 1.26335v -15.1889h 1.26335v -23.8683h 1.26335v 6.50953h 1.26335v -2.16984h 1.26335v 4.33969h 1.26335v -17.3587h 1.26335v 19.5286h 1.26335v -34.7175h 1.26335v 6.50953h 1.26335v 26.0381h 1.26335v -13.0191h
 1.26335v 6.50953h 1.26335v -2.16984h 1.26335v 6.50953h 1.26335v -21.6984h 1.26335v 28.208h 1.26335v -13.0191h 1.26335v 15.1889h 1.26335v 2.16984h 1.26335v -8.67937h 1.26335v -30.3778h 1.26335v 39.0572h 1.26335v -23.8683h 1.26335v 23.8683h 1.26335v
 8.67937h 1.26335v -13.0191h 1.26335v -4.33969h 1.26335v -17.3587h 1.26335v -6.50953h 1.26335v 15.1889h 1.26335v 6.50953h 1.26335v 4.33969h 1.26335v -6.50953h 1.26335v -10.8492h 1.26335v 4.33969h 1.26335v 8.67937h 2.5267v 10.8492h 1.26335v -15.1889h
 2.5267v -15.1889h 1.26335v 15.1889h 2.5267v 4.33969h 1.26335v 6.50953h 1.26335v -10.8492h 1.26335v 2.16984h 1.26335v -8.67937h 1.26335v 10.8492h 1.26335v -15.1889h 1.26335v 10.8492h 1.26335v 15.1889h 1.26335v -10.8492h 1.26335v -23.8683h 1.26335v
 28.208h 1.26335v -8.67937h 1.26335v -6.50953h 1.26335v 2.16984h 1.26335v -4.33969h 1.26335v 8.67937h 1.26335v -19.5286h 1.26335v -6.50953h 1.26335v 15.1889h 1.26335v 2.16984h 1.26335v -4.33969h 1.26335v 13.0191h 1.26335v -19.5286h 1.26335v -15.1889h
 1.26335v 19.5286h 1.26335v 13.0191h 2.5267v -19.5286h 1.26335v -2.16984h 1.26335v -30.3778h 1.26335v -2.16984h 1.26335v 30.3778h 2.5267v 13.0191h 1.26335v -28.208h 1.26335v -21.6984h 1.26335v 23.8683h 1.26335v -15.1889h 1.26335v 17.3587h 1.26335v
 15.1889h 1.26335v -15.1889h 1.26335v -26.0381h 2.5267v -6.50953h 1.26335v -2.16984h 1.26335v 39.0572h 1.26335v 2.16984h 1.26335v -41.227h 1.26335v 32.5477h 1.26335v -30.3778h 1.26335v -4.33969h 1.26335v 26.0381h 1.26335v -10.8492h 1.26335v -23.8683h
 1.26335v -17.3587h 1.26335v -28.208h 1.26335v 10.8492h 1.26335v -13.0191h 1.26335v 28.208h 1.26335v -4.33969h 1.26335v -32.5477h 1.26335v 2.16984h 1.26335v -13.0191h 1.26335v 13.0191h 1.26335v -36.8873h 1.26335v -2.16984h 1.26335v 23.8683h 1.26335v
 -47.7366h 1.26335v -2.16984h 1.26335v -13.0191h 1.26335v -15.1889h 1.26335v 71.6048h 1.26335v -8.67937h 1.26335v -10.8492h 1.26335v -17.3587h 1.26335v 4.33969h 1.26335v -43.3969h 1.26335v -17.3587h 1.26335v 119.341h 1.26335v -19.5286h 1.26335v
 -15.1889h 1.26335v -15.1889h 1.26335v 13.0191h 2.5267v 21.6984h 1.26335v 2.16984h 1.26335v 2.16984h 1.26335v 10.8492h 1.26335v -47.7366h 1.26335v 54.2461h 1.26335v -30.3778h 1.26335v 23.8683h 1.26335v 15.1889h 1.26335v -36.8873h 1.26335v 17.3587h
 1.26335v 26.0381h 1.26335v -6.50953h 1.26335v 45.5667h 2.5267v -10.8492h 1.26335v -26.0381h 1.26335v 26.0381h 1.26335v 6.50953h 1.26335v -30.3778h 1.26335v 30.3778h 1.26335v 15.1889h 1.26335v -34.7175h 1.26335v 23.8683h 1.26335v -13.0191h 1.26335v
 -6.50953h 1.26335v 13.0191h 1.26335v 52.0762h 1.26335v -45.5667h 1.26335v -32.5477h 1.26335v 32.5477h 1.26335v -4.33969h 1.26335v 4.33969h 1.26335v 15.1889h 1.26335v 6.50953h 1.26335v -10.8492h 1.26335v 17.3587h 1.26335v -32.5477h 1.26335v 10.8492h
 1.26335v -4.33969h 1.26335v 49.9064h 1.26335v -28.208h 1.26335v -19.5286h 1.26335v 36.8873h 1.26335v -8.67937h 1.26335v 8.67937h 1.26335v -2.16984h 1.26335v 28.208h 1.26335v -30.3778h 1.26335v 6.50953h 1.26335v 8.67937h 1.26335v -4.33969h 1.26335v
 -8.67937h 1.26335v 36.8873h 1.26335v 10.8492h 1.26335v -15.1889h 1.26335v -2.16984h 1.26335v 4.33969h 1.26335v -10.8492h 1.26335v 10.8492h 1.26335v 6.50953h 1.26335v 4.33969h 1.26335v -13.0191h 1.26335v 19.5286h 1.26335v -6.50953h 1.26335v 10.8492h
 2.5267v -6.50953h 1.26335v -13.0191h 1.26335v -6.50953h 1.26335v 4.33969h 2.5267v -6.50953h 1.26335v 13.0191h 2.5267v -4.33969h 1.26335v -6.50953h 2.5267v 6.50953h 1.26335v 19.5286h 2.5267v -32.5477h 2.5267v 4.33969h 1.26335v 6.50953h 1.26335v
 4.33969h 1.26335v -4.33969h 1.26335v 2.16984h 1.26335v -4.33969h 1.26335v -6.50953h 1.26335v 17.3587h 1.26335v -10.8492h 1.26335v 21.6984h 1.26335v -8.67937h 1.26335v -10.8492h 1.26335v 2.16984h 1.26335v 17.3587h 1.26335v -21.6984h 1.26335v 4.33969h
 1.26335v 17.3587h 1.26335v -8.67937h 1.26335v 8.67937h 1.26335v -4.33969h 1.26335v -8.67937h 1.26335v 19.5286h 1.26335v -8.67937h 1.26335v 13.0191h 2.5267v -8.67937h 1.26335v 2.16984h 1.26335v 2.16984h 1.26335v 6.50953h 1.26335v -2.16984h 1.26335v
 -2.16984h 1.26335v 2.16984h 1.26335v -6.50953h 2.5267v 2.16984h 1.26335v 10.8492h 1.26335v -2.16984h 1.26335v -2.16984h 1.26335v 2.16984h 2.5267v -2.16984h 1.26335v 2.16984h 1.26335v 4.33969h 1.26335v -6.50953h 1.26335v 4.33969h 1.26335v 2.16984h
 1.26335v -4.33969h 1.26335v -2.16984h 1.26335v -4.33969h 1.26335v 6.50953h 2.5267v -4.33969h 1.26335v 8.67937h 1.26335v -4.33969h 1.26335v 2.16984h 2.5267v -4.33969h 1.26335v 4.33969h 1.26335v -8.67937h 1.26335v 6.50953h 3.79006v 2.16984h 1.26335v
 -2.16984h 1.26335v 2.16984h 6.31676v -2.16984h 1.26335v 4.33969h 1.26335v -6.50953h 1.26335v 6.50953h 1.26335v -6.50953h 1.26335v 4.33969h 3.79006v 2.16984h 1.26335v -10.8492h 1.26335v 6.50953h 1.26335v -2.16984h 1.26335v 6.50953h 2.5267v -4.33969h
 1.26335v -2.16984h 2.5267v -8.67937h 1.26335v 15.1889h 1.26335v -2.16984h 1.26335" fill="none" stroke="#000099"/>
<rect x="442.705" y="24.9905" width="113.386" height="61.5151" fill="white"/>
<path d="M442.705,86.5056h 113.386" fill="none" stroke="black"/>
<path d="M556.091,86.5056v -61.5151" fill="none" stroke="black"/>
<path d="M556.091,24.9905h -113.386" fill="none" stroke="black"/>
<path d="M442.705,24.9905v 61.5151" fill="none" stroke="black"/>
<text xml:space="preserve" x="484.345" y="28.5094" fill="black" font-size="3.9614" font-family="Helvetica">Am_007_calibrated</text>
<path d="M442.705,29.0915h 113.386" fill="none" stroke="black"/>
<text xml:space="preserve" x="447.69" y="32.5821" fill="black" font-size="3.9614" font-family="Helvetica">Entries </text>
<text xml:space="preserve" x="539.734" y="32.5821" fill="black" font-size="3.9614" font-family="Helvetica"> 11066</text>
<text xml:space="preserve" x="447.69" y="36.6549" fill="black" font-size="3.9614" font-family="Helvetica">Mean  </text>
<text xml:space="preserve" x="539.734" y="36.6549" fill="black" font-size="3.9614" font-family="Helvetica">  17.59</text>
<text xml:space="preserve" x="447.69" y="40.7277" fill="black" font-size="3.9614" font-family="Helvetica">Std Dev   </text>
<text xml:space="preserve" x="539.734" y="40.7277" fill="black" font-size="3.9614" font-family="Helvetica">  5.052</text>
<text xml:space="preserve" x="451.763" y="44.8004" fill="black" font-size="3.9614" font-family="Helvetica"> / ndf </text>
<text xml:space="preserve" x="450.133" y="43.9859" fill="black" font-size="2.8076" font-family="Helvetica">2</text>
<text xml:space="preserve" x="447.69" y="44.8004" fill="black" font-size="3.9614" font-family="Times">&#0967;</text>
<text xml:space="preserve" x="533.218" y="44.8004" fill="black" font-size="3.9614" font-family="Helvetica"> 178.7 / 124</text>
<text xml:space="preserve" x="447.69" y="48.8732" fill="black" font-size="3.9614" font-family="Helvetica">Prob  </text>
<text xml:space="preserve" x="535.662" y="48.8732" fill="black" font-size="3.9614" font-family="Helvetica"> 0.000959</text>
<text xml:space="preserve" x="447.69" y="52.946" fill="black" font-size="3.9614" font-family="Helvetica">1st Const </text>
<text xml:space="preserve" x="544.622" y="52.946" fill="black" font-size="3.9614" font-family="Helvetica"> 2.7</text>
<text xml:space="preserve" x="542.178" y="52.946" fill="black" font-size="3.9614" font-family="Times">&#0177;</text>
<text xml:space="preserve" x="532.403" y="52.946" fill="black" font-size="3.9614" font-family="Helvetica"> 105.8 </text>
<text xml:space="preserve" x="447.69" y="57.0187" fill="black" font-size="3.9614" font-family="Helvetica">1st Mean </text>
<text xml:space="preserve" x="542.993" y="57.0187" fill="black" font-size="3.9614" font-family="Helvetica"> 0.14</text>
<text xml:space="preserve" x="540.549" y="57.0187" fill="black" font-size="3.9614" font-family="Times">&#0177;</text>
<text xml:space="preserve" x="530.774" y="57.0187" fill="black" font-size="3.9614" font-family="Helvetica"> 17.26 </text>
<text xml:space="preserve" x="447.69" y="61.0915" fill="black" font-size="3.9614" font-family="Helvetica">1st Sigma </text>
<text xml:space="preserve" x="541.363" y="61.0915" fill="black" font-size="3.9614" font-family="Helvetica"> 0.140</text>
<text xml:space="preserve" x="538.92" y="61.0915" fill="black" font-size="3.9614" font-family="Times">&#0177;</text>
<text xml:space="preserve" x="529.145" y="61.0915" fill="black" font-size="3.9614" font-family="Helvetica"> 1.748 </text>
<text xml:space="preserve" x="447.69" y="65.1643" fill="black" font-size="3.9614" font-family="Helvetica">2nd Const </text>
<text xml:space="preserve" x="542.993" y="65.1643" fill="black" font-size="3.9614" font-family="Helvetica"> 3.88</text>
<text xml:space="preserve" x="540.549" y="65.1643" fill="black" font-size="3.9614" font-family="Times">&#0177;</text>
<text xml:space="preserve" x="530.774" y="65.1643" fill="black" font-size="3.9614" font-family="Helvetica"> 42.63 </text>
<text xml:space="preserve" x="447.69" y="69.237" fill="black" font-size="3.9614" font-family="Helvetica">2nd Mean </text>
<text xml:space="preserve" x="542.993" y="69.237" fill="black" font-size="3.9614" font-family="Helvetica"> 0.30</text>
<text xml:space="preserve" x="540.549" y="69.237" fill="black" font-size="3.9614" font-family="Times">&#0177;</text>
<text xml:space="preserve" x="530.774" y="69.237" fill="black" font-size="3.9614" font-family="Helvetica"> 21.49 </text>
<text xml:space="preserve" x="447.69" y="73.3098" fill="black" font-size="3.9614" font-family="Helvetica">2nd Sigma </text>
<text xml:space="preserve" x="541.363" y="73.3098" fill="black" font-size="3.9614" font-family="Helvetica"> 0.250</text>
<text xml:space="preserve" x="538.92" y="73.3098" fill="black" font-size="3.9614" font-family="Times">&#0177;</text>
<text xml:space="preserve" x="529.145" y="73.3098" fill="black" font-size="3.9614" font-family="Helvetica"> 1.574 </text>
<text xml:space="preserve" x="447.69" y="77.3826" fill="black" font-size="3.9614" font-family="Helvetica">3rd Const </text>
<text xml:space="preserve" x="542.993" y="77.3826" fill="black" font-size="3.9614" font-family="Helvetica"> 1.01</text>
<text xml:space="preserve" x="540.549" y="77.3826" fill="black" font-size="3.9614" font-family="Times">&#0177;</text>
<text xml:space="preserve" x="530.774" y="77.3826" fill="black" font-size="3.9614" font-family="Helvetica"> 16.49 </text>
<text xml:space="preserve" x="447.69" y="81.4553" fill="black" font-size="3.9614" font-family="Helvetica">3rd Mean </text>
<text xml:space="preserve" x="542.993" y="81.4553" fill="black" font-size="3.9614" font-family="Helvetica"> 0.18</text>
<text xml:space="preserve" x="540.549" y="81.4553" fill="black" font-size="3.9614" font-family="Times">&#0177;</text>
<text xml:space="preserve" x="530.774" y="81.4553" fill="black" font-size="3.9614" font-family="Helvetica"> 26.63 </text>
<text xml:space="preserve" x="447.69" y="85.5281" fill="black" font-size="3.9614" font-family="Helvetica">3rd Sigma </text>
<text xml:space="preserve" x="541.363" y="85.5281" fill="black" font-size="3.9614" font-family="Helvetica"> 0.290</text>
<text xml:space="preserve" x="538.92" y="85.5281" fill="black" font-size="3.9614" font-family="Times">&#0177;</text>
<text xml:space="preserve" x="529.145" y="85.5281" fill="black" font-size="3.9614" font-family="Helvetica"> 1.533 </text>
<path d="M57.1929,346.022h 453.543" fill="none" stroke="black"/>
<path d="M57.1929,336.795v 9.22726" fill="none" stroke="black"/>
<path d="M70.1296,341.409v 4.61363" fill="none" stroke="black"/>
<path d="M83.0664,341.409v 4.61363" fill="none" stroke="black"/>
<path d="M96.0031,341.409v 4.61363" fill="none" stroke="black"/>
<path d="M108.94,341.409v 4.61363" fill="none" stroke="black"/>
<path d="M121.877,336.795v 9.22726" fill="none" stroke="black"/>
<path d="M134.813,341.409v 4.61363" fill="none" stroke="black"/>
<path d="M147.75,341.409v 4.61363" fill="none" stroke="black"/>
<path d="M160.687,341.409v 4.61363" fill="none" stroke="black"/>
<path d="M173.623,341.409v 4.61363" fill="none" stroke="black"/>
<path d="M186.56,336.795v 9.22726" fill="none" stroke="black"/>
<path d="M199.497,341.409v 4.61363" fill="none" stroke="black"/>
<path d="M212.434,341.409v 4.61363" fill="none" stroke="black"/>
<path d="M225.37,341.409v 4.61363" fill="none" stroke="black"/>
<path d="M238.307,341.409v 4.61363" fill="none" stroke="black"/>
<path d="M251.244,336.795v 9.22726" fill="none" stroke="black"/>
<path d="M264.18,341.409v 4.61363" fill="none" stroke="black"/>
<path d="M277.117,341.409v 4.61363" fill="none" stroke="black"/>
<path d="M290.054,341.409v 4.61363" fill="none" stroke="black"/>
<path d="M302.991,341.409v 4.61363" fill="none" stroke="black"/>
<path d="M315.927,336.795v 9.22726" fill="none" stroke="black"/>
<path d="M328.864,341.409v 4.61363" fill="none" stroke="black"/>
<path d="M341.801,341.409v 4.61363" fill="none" stroke="black"/>
<path d="M354.738,341.409v 4.61363" fill="none" stroke="black"/>
<path d="M367.674,341.409v 4.61363" fill="none" stroke="black"/>
<path d="M380.611,336.795v 9.22726" fill="none" stroke="black"/>
<path d="M393.548,341.409v 4.61363" fill="none" stroke="black"/>
<path d="M406.484,341.409v 4.61363" fill="none" stroke="black"/>
<path d="M419.421,341.409v 4.61363" fill="none" stroke="black"/>
<path d="M432.358,341.409v 4.61363" fill="none" stroke="black"/>
<path d="M445.295,336.795v 9.22726" fill="none" stroke="black"/>
<path d="M458.231,341.409v 4.61363" fill="none" stroke="black"/>
<path d="M471.168,341.409v 4.61363" fill="none" stroke="black"/>
<path d="M484.105,341.409v 4.61363" fill="none" stroke="black"/>
<path d="M497.041,341.409v 4.61363" fill="none" stroke="black"/>
<path d="M509.978,336.795v 9.22726" fill="none" stroke="black"/>
<path d="M509.978,336.795v 9.22726" fill="none" stroke="black"/>
<text xml:space="preserve" x="53.446" y="358.403" fill="black" font-size="12.8453" font-family="Helvetica">0</text>
<text xml:space="preserve" x="118.61" y="358.403" fill="black" font-size="12.8453" font-family="Helvetica">5</text>
<text xml:space="preserve" x="179.702" y="358.403" fill="black" font-size="12.8453" font-family="Helvetica">10</text>
<text xml:space="preserve" x="243.237" y="358.403" fill="black" font-size="12.8453" font-family="Helvetica">15</text>
<text xml:space="preserve" x="309.216" y="358.403" fill="black" font-size="12.8453" font-family="Helvetica">20</text>
<text xml:space="preserve" x="372.751" y="358.403" fill="black" font-size="12.8453" font-family="Helvetica">25</text>
<text xml:space="preserve" x="438.73" y="358.403" fill="black" font-size="12.8453" font-family="Helvetica">30</text>
<text xml:space="preserve" x="502.265" y="358.403" fill="black" font-size="12.8453" font-family="Helvetica">35</text>
<text xml:space="preserve" x="441.173" y="370.622" fill="black" font-size="12.8453" font-family="Helvetica">Energy [keV]</text>
<path d="M57.1929,346.022v -307.575" fill="none" stroke="black"/>
<path d="M70.7992,346.022h -13.6063" fill="none" stroke="black"/>
<path d="M63.9961,335.173h -6.80315" fill="none" stroke="black"/>
<path d="M63.9961,324.324h -6.80315" fill="none" stroke="black"/>
<path d="M63.9961,313.475h -6.80315" fill="none" stroke="black"/>
<path d="M70.7992,302.625h -13.6063" fill="none" stroke="black"/>
<path d="M63.9961,291.776h -6.80315" fill="none" stroke="black"/>
<path d="M63.9961,280.927h -6.80315" fill="none" stroke="black"/>
<path d="M63.9961,270.078h -6.80315" fill="none" stroke="black"/>
<path d="M70.7992,259.229h -13.6063" fill="none" stroke="black"/>
<path d="M63.9961,248.379h -6.80315" fill="none" stroke="black"/>
<path d="M63.9961,237.53h -6.80315" fill="none" stroke="black"/>
<path d="M63.9961,226.681h -6.80315" fill="none" stroke="black"/>
<path d="M70.7992,215.832h -13.6063" fill="none" stroke="black"/>
<path d="M63.9961,204.982h -6.80315" fill="none" stroke="black"/>
<path d="M63.9961,194.133h -6.80315" fill="none" stroke="black"/>
<path d="M63.9961,183.284h -6.80315" fill="none" stroke="black"/>
<path d="M70.7992,172.435h -13.6063" fill="none" stroke="black"/>
<path d="M63.9961,161.586h -6.80315" fill="none" stroke="black"/>
<path d="M63.9961,150.736h -6.80315" fill="none" stroke="black"/>
<path d="M63.9961,139.887h -6.80315" fill="none" stroke="black"/>
<path d="M70.7992,129.038h -13.6063" fill="none" stroke="black"/>
<path d="M63.9961,118.189h -6.80315" fill="none" stroke="black"/>
<path d="M63.9961,107.339h -6.80315" fill="none" stroke="black"/>
<path d="M63.9961,96.4902h -6.80315" fill="none" stroke="black"/>
<path d="M70.7992,85.641h -13.6063" fill="none" stroke="black"/>
<path d="M63.9961,74.7918h -6.80315" fill="none" stroke="black"/>
<path d="M63.9961,63.9426h -6.80315" fill="none" stroke="black"/>
<path d="M63.9961,53.0934h -6.80315" fill="none" stroke="black"/>
<path d="M70.7992,42.2441h -13.6063" fill="none" stroke="black"/>
<path d="M70.7992,42.2441h -13.6063" fill="none" stroke="black"/>
<text xml:space="preserve" x="47.7441" y="350.258" fill="black" font-size="12.8453" font-family="Helvetica">0</text>
<text xml:space="preserve" x="41.2277" y="307.087" fill="black" font-size="12.8453" font-family="Helvetica">20</text>
<text xml:space="preserve" x="41.2277" y="263.915" fill="black" font-size="12.8453" font-family="Helvetica">40</text>
<text xml:space="preserve" x="41.2277" y="219.929" fill="black" font-size="12.8453" font-family="Helvetica">60</text>
<text xml:space="preserve" x="41.2277" y="176.758" fill="black" font-size="12.8453" font-family="Helvetica">80</text>
<text xml:space="preserve" x="33.8967" y="133.587" fill="black" font-size="12.8453" font-family="Helvetica">100</text>
<text xml:space="preserve" x="33.8967" y="90.4154" fill="black" font-size="12.8453" font-family="Helvetica">120</text>
<text xml:space="preserve" x="33.8967" y="46.4295" fill="black" font-size="12.8453" font-family="Helvetica">140</text>
<g transform="rotate(-90,20.8638,70.0516)">
<text xml:space="preserve" x="20.8638" y="70.0516" fill="black" font-size="12.8453" font-family="Helvetica">Event</text>
</g>
<rect x="442.705" y="24.9905" width="113.386" height="61.5151" fill="white"/>
<path d="M442.705,86.5056h 113.386" fill="none" stroke="black"/>
<path d="M556.091,86.5056v -61.5151" fill="none" stroke="black"/>
<path d="M556.091,24.9905h -113.386" fill="none" stroke="black"/>
<path d="M442.705,24.9905v 61.5151" fill="none" stroke="black"/>
<text xml:space="preserve" x="484.345" y="28.5094" fill="black" font-size="3.9614" font-family="Helvetica">Am_007_calibrated</text>
<path d="M442.705,29.0915h 113.386" fill="none" stroke="black"/>
<text xml:space="preserve" x="447.69" y="32.5821" fill="black" font-size="3.9614" font-family="Helvetica">Entries </text>
<text xml:space="preserve" x="539.734" y="32.5821" fill="black" font-size="3.9614" font-family="Helvetica"> 11066</text>
<text xml:space="preserve" x="447.69" y="36.6549" fill="black" font-size="3.9614" font-family="Helvetica">Mean  </text>
<text xml:space="preserve" x="539.734" y="36.6549" fill="black" font-size="3.9614" font-family="Helvetica">  17.59</text>
<text xml:space="preserve" x="447.69" y="40.7277" fill="black" font-size="3.9614" font-family="Helvetica">Std Dev   </text>
<text xml:space="preserve" x="539.734" y="40.7277" fill="black" font-size="3.9614" font-family="Helvetica">  5.052</text>
<text xml:space="preserve" x="451.763" y="44.8004" fill="black" font-size="3.9614" font-family="Helvetica"> / ndf </text>
<text xml:space="preserve" x="450.133" y="43.9859" fill="black" font-size="2.8076" font-family="Helvetica">2</text>
<text xml:space="preserve" x="447.69" y="44.8004" fill="black" font-size="3.9614" font-family="Times">&#0967;</text>
<text xml:space="preserve" x="533.218" y="44.8004" fill="black" font-size="3.9614" font-family="Helvetica"> 178.7 / 124</text>
<text xml:space="preserve" x="447.69" y="48.8732" fill="black" font-size="3.9614" font-family="Helvetica">Prob  </text>
<text xml:space="preserve" x="535.662" y="48.8732" fill="black" font-size="3.9614" font-family="Helvetica"> 0.000959</text>
<text xml:space="preserve" x="447.69" y="52.946" fill="black" font-size="3.9614" font-family="Helvetica">1st Const </text>
<text xml:space="preserve" x="544.622" y="52.946" fill="black" font-size="3.9614" font-family="Helvetica"> 2.7</text>
<text xml:space="preserve" x="542.178" y="52.946" fill="black" font-size="3.9614" font-family="Times">&#0177;</text>
<text xml:space="preserve" x="532.403" y="52.946" fill="black" font-size="3.9614" font-family="Helvetica"> 105.8 </text>
<text xml:space="preserve" x="447.69" y="57.0187" fill="black" font-size="3.9614" font-family="Helvetica">1st Mean </text>
<text xml:space="preserve" x="542.993" y="57.0187" fill="black" font-size="3.9614" font-family="Helvetica"> 0.14</text>
<text xml:space="preserve" x="540.549" y="57.0187" fill="black" font-size="3.9614" font-family="Times">&#0177;</text>
<text xml:space="preserve" x="530.774" y="57.0187" fill="black" font-size="3.9614" font-family="Helvetica"> 17.26 </text>
<text xml:space="preserve" x="447.69" y="61.0915" fill="black" font-size="3.9614" font-family="Helvetica">1st Sigma </text>
<text xml:space="preserve" x="541.363" y="61.0915" fill="black" font-size="3.9614" font-family="Helvetica"> 0.140</text>
<text xml:space="preserve" x="538.92" y="61.0915" fill="black" font-size="3.9614" font-family="Times">&#0177;</text>
<text xml:space="preserve" x="529.145" y="61.0915" fill="black" font-size="3.9614" font-family="Helvetica"> 1.748 </text>
<text xml:space="preserve" x="447.69" y="65.1643" fill="black" font-size="3.9614" font-family="Helvetica">2nd Const </text>
<text xml:space="preserve" x="542.993" y="65.1643" fill="black" font-size="3.9614" font-family="Helvetica"> 3.88</text>
<text xml:space="preserve" x="540.549" y="65.1643" fill="black" font-size="3.9614" font-family="Times">&#0177;</text>
<text xml:space="preserve" x="530.774" y="65.1643" fill="black" font-size="3.9614" font-family="Helvetica"> 42.63 </text>
<text xml:space="preserve" x="447.69" y="69.237" fill="black" font-size="3.9614" font-family="Helvetica">2nd Mean </text>
<text xml:space="preserve" x="542.993" y="69.237" fill="black" font-size="3.9614" font-family="Helvetica"> 0.30</text>
<text xml:space="preserve" x="540.549" y="69.237" fill="black" font-size="3.9614" font-family="Times">&#0177;</text>
<text xml:space="preserve" x="530.774" y="69.237" fill="black" font-size="3.9614" font-family="Helvetica"> 21.49 </text>
<text xml:space="preserve" x="447.69" y="73.3098" fill="black" font-size="3.9614" font-family="Helvetica">2nd Sigma </text>
<text xml:space="preserve" x="541.363" y="73.3098" fill="black" font-size="3.9614" font-family="Helvetica"> 0.250</text>
<text xml:space="preserve" x="538.92" y="73.3098" fill="black" font-size="3.9614" font-family="Times">&#0177;</text>
<text xml:space="preserve" x="529.145" y="73.3098" fill="black" font-size="3.9614" font-family="Helvetica"> 1.574 </text>
<text xml:space="preserve" x="447.69" y="77.3826" fill="black" font-size="3.9614" font-family="Helvetica">3rd Const </text>
<text xml:space="preserve" x="542.993" y="77.3826" fill="black" font-size="3.9614" font-family="Helvetica"> 1.01</text>
<text xml:space="preserve" x="540.549" y="77.3826" fill="black" font-size="3.9614" font-family="Times">&#0177;</text>
<text xml:space="preserve" x="530.774" y="77.3826" fill="black" font-size="3.9614" font-family="Helvetica"> 16.49 </text>
<text xml:space="preserve" x="447.69" y="81.4553" fill="black" font-size="3.9614" font-family="Helvetica">3rd Mean </text>
<text xml:space="preserve" x="542.993" y="81.4553" fill="black" font-size="3.9614" font-family="Helvetica"> 0.18</text>
<text xml:space="preserve" x="540.549" y="81.4553" fill="black" font-size="3.9614" font-family="Times">&#0177;</text>
<text xml:space="preserve" x="530.774" y="81.4553" fill="black" font-size="3.9614" font-family="Helvetica"> 26.63 </text>
<text xml:space="preserve" x="447.69" y="85.5281" fill="black" font-size="3.9614" font-family="Helvetica">3rd Sigma </text>
<text xml:space="preserve" x="541.363" y="85.5281" fill="black" font-size="3.9614" font-family="Helvetica"> 0.290</text>
<text xml:space="preserve" x="538.92" y="85.5281" fill="black" font-size="3.9614" font-family="Times">&#0177;</text>
<text xml:space="preserve" x="529.145" y="85.5281" fill="black" font-size="3.9614" font-family="Helvetica"> 1.533 </text>
<path d="M252.085,241.446l 1.68177, -9.91478l 1.68177, -10.1653l 1.68177, -10.3219l 1.68177, -10.374l 1.68177, -10.3128l 1.68177, -10.1314l 1.68177, -9.82536l 1.68177, -9.3928l 1.68177, -8.83484l 1.68177, -8.15561l 1.68177, -7.36239l 1.68177,
 -6.46555l 1.68177, -5.47835l 1.68177, -4.41675l 1.68177, -3.29903l 1.68177, -2.14533l 1.68177, -0.9771l 1.68177, 0.183429l 1.68177, 1.31394l 1.68177, 2.39266l 1.68177, 3.39901l 1.68177, 4.31421l 1.68177, 5.1219l 1.68177, 5.80859l 1.68177, 6.3641l
 1.68177, 6.78185l 1.68177, 7.05908l 1.68177, 7.19688l 1.68177, 7.20013l 1.68177, 7.07735l 1.68177, 6.84035l 1.68177, 6.50384l 1.68177, 6.08492l 1.68177, 5.60247l 1.68177, 5.07655l 1.68177, 4.52767l 1.68177, 3.97617l 1.68177, 3.4415l 1.68177,
 2.94159l 1.68177, 2.49233l 1.68177, 2.10704l 1.68177, 1.79612l 1.68177, 1.56677l 1.68177, 1.42283l 1.68177, 1.3648l 1.68177, 1.38992l 1.68177, 1.49241l 1.68177, 1.66381l 1.68177, 1.8934" fill="none" stroke="#0000ff" stroke-width="2"/>
<path d="M334.492,240.27l 1.68177, 2.16871l 1.68177, 2.47602l 1.68177, 2.801l 1.68177, 3.12921l 1.68177, 3.44665l 1.68177, 3.74027l 1.68177, 3.9984l 1.68177, 4.21105l 1.68177, 4.37023l 1.68177, 4.47005l 1.68177, 4.50686l 1.68177, 4.47916l 1.68177,
 4.38759l 1.68177, 4.23468l 1.68177, 4.02474l 1.68177, 3.76353l 1.68177, 3.45801l 1.68177, 3.11609l 1.68177, 2.74631l 1.68177, 2.35756l 1.68177, 1.9589l 1.68177, 1.55924l 1.68177, 1.1672l 1.68177, 0.790888l 1.68177, 0.437782l 1.68177, 0.114571l
 1.68177, -0.172948l 1.68177, -0.419959l 1.68177, -0.622706l 1.68177, -0.778543l 1.68177, -0.885974l 1.68177, -0.944667l 1.68177, -0.955448l 1.68177, -0.920263l 1.68177, -0.842127l 1.68177, -0.72503l 1.68177, -0.573823l 1.68177, -0.394075l 1.68177,
 -0.19191l 1.68177, 0.0261844l 1.68177, 0.253551l 1.68177, 0.483567l 1.68177, 0.709849l 1.68177, 0.92644l 1.68177, 1.12798l 1.68177, 1.30986l 1.68177, 1.46832l 1.68177, 1.60052l 1.68177, 1.70462" fill="none" stroke="#0000ff" stroke-width="2"/>
<path d="M416.898,319.368l 1.68177, 1.77972" fill="none" stroke="#0000ff" stroke-width="2"/>
<path d="M59.1334,346.022h 124.193l 3.88102, -0.0466705l 3.88102, -0.0466518l 3.88102, -0.0878686l 3.88102, -0.160391l 3.88102, -0.283679l 3.88102, -0.486049l 3.88102, -0.806549l 3.88102, -1.29584l 3.88102, -2.0151l 3.88102, -3.03171l 3.88102,
 -4.41073l 3.88102, -6.20168l 3.88102, -8.42104l 3.88102, -11.0328l 3.88102, -13.9303l 3.88102, -16.9253l 3.88102, -19.7487" fill="none" stroke="#ff0000" stroke-width="2"/>
<path d="M249.303,257.091l 3.88102, -22.068l 3.88102, -23.5227l 3.88102, -23.7756l 3.88102, -22.5709l 3.88102, -19.7908l 3.88102, -15.4947l 3.88102, -9.93264l 3.88102, -3.52517l 3.88102, 3.18846l 3.88102, 9.62504l 3.88102, 15.2411l 3.88102, 19.6087l
 3.88102, 22.4685l 3.88102, 23.7513l 3.88102, 23.5669l 3.88102, 22.1652l 3.88102, 19.8809l 3.88102, 17.0746l 3.88102, 14.0812l 3.88102, 11.1735l 3.88102, 8.54416l 3.88102, 6.30358l 3.88102, 4.49103l 3.88102, 3.09218l 3.88102, 2.05876l 3.88102,
 1.32612l 3.88102, 0.826746l 3.88102, 0.49903l 3.88102, 0.291725l 3.88102, 0.165204l 3.88102, 0.0906494l 3.88102, 0.0482043l 3.88102, 0.0483675h 62.0963" fill="none" stroke="#ff0000" stroke-width="2"/>
<path d="M439.473,346.022h 3.88102" fill="none" stroke="#ff0000" stroke-width="2"/>
<path d="M59.1334,346.022h 190.17" fill="none" stroke="#ff0000" stroke-width="2"/>
<path d="M249.303,346.022h 3.88102l 3.88102, -0.0582134l 3.88102, -0.0606041l 3.88102, -0.115049l 3.88102, -0.210035l 3.88102, -0.36862l 3.88102, -0.621692l 3.88102, -1.0071l 3.88102, -1.56609l 3.88102, -2.33616l 3.88102, -3.33997l 3.88102, -4.5714l
 3.88102, -5.98116l 3.88102, -7.46639l 3.88102, -8.86888l 3.88102, -9.98661l 3.88102, -10.6001l 3.88102, -10.5112l 3.88102, -9.58733l 3.88102, -7.80041l 3.88102, -5.24868l 3.88102, -2.1536l 3.88102, 1.17072l 3.88102, 4.36997l 3.88102, 7.11188l
 3.88102, 9.14297l 3.88102, 10.3267l 3.88102, 10.6547l 3.88102, 10.232l 3.88102, 9.2418l 3.88102, 7.90164l 3.88102, 6.42219l 3.88102, 4.97659l 3.88102, 3.68456l 3.88102, 2.61056l 3.88102, 1.77216l 3.88102, 1.15373l 3.88102, 0.720896l 3.88102,
 0.432584l 3.88102, 0.249412l 3.88102, 0.138228l 3.88102, 0.0736651l 3.88102, 0.0377609l 3.88102, 0.0345242h 19.4051" fill="none" stroke="#ff0000" stroke-width="2"/>
<path d="M439.473,346.022h 3.88102" fill="none" stroke="#ff0000" stroke-width="2"/>
<path d="M59.1334,346.022h 190.17" fill="none" stroke="#ff0000" stroke-width="2"/>
<path d="M249.303,346.022h 77.6203l 3.88102, -0.0605742l 3.88102, -0.059002l 3.88102, -0.107601l 3.88102, -0.188205l 3.88102, -0.315578l 3.88102, -0.506989l 3.88102, -0.779835l 3.88102, -1.14748l 3.88102, -1.61341l 3.88102, -2.16466l 3.88102,
 -2.76605l 3.88102, -3.35768l 3.88102, -3.85789l 3.88102, -4.17297l 3.88102, -4.21341l 3.88102, -3.91358l 3.88102, -3.25048l 3.88102, -2.25571l 3.88102, -1.0164l 3.88102, 0.336701l 3.88102, 1.65187l 3.88102, 2.78441l 3.88102, 3.62287l 3.88102,
 4.10687l 3.88102, 4.23267l 3.88102, 4.04637l 3.88102, 3.62793l 3.88102, 3.07128l 3.88102, 2.46583" fill="none" stroke="#ff0000" stroke-width="2"/>
<path d="M439.473,340.222l 3.88102, 1.88327" fill="none" stroke="#ff0000" stroke-width="2"/>
<text xml:space="preserve" x="206.582" y="18.7347" fill="black" font-size="18.0316" font-family="Helvetica">Am_007_calibrated</text></svg>
