<?xml version="1.0" standalone="no"?>
<svg width="567.429" height="384.969" viewBox="0 0 567.429 384.969" xmlns="http://www.w3.org/2000/svg" shape-rendering="crispEdges">
<title>
img/week1/calibrated_hist_high_gain/Am_009.svg
</title>
<desc>
Creator: ROOT Version 6.22/09
CreationDate: Tue Jul 13 19:14:41 2021</desc>
<defs>
</defs>
<rect x="0.5" y="0" width="566.929" height="384.469" fill="white"/>
<rect x="57.1929" y="38.4469" width="453.543" height="307.575" fill="white"/>
<rect x="57.1929" y="38.4469" width="453.543" height="307.575" fill="none" stroke="black"/>
<path d="M57.1929,346.022h 65.1083v -0.134866h 0.442913v -0.67433h 0.442913v -2.15786h 0.442913v -9.03602h 0.442913v -2.15786h 0.442913v 2.15786h 0.442913v 0.539464h 0.442913v 0.67433h 0.442913v -0.134866h 0.442913v -3.23678h 0.442913v -0.269732h
 0.442913v 1.34866h 0.442913v 3.10192h 0.442913v -2.56245h 0.442913v 1.88812h 0.442913v -1.75326h 0.442913v 1.07893h 0.442913v -0.67433h 0.442913v -0.269732h 0.885827v 0.269732h 0.442913v -0.944062h 0.442913v 1.61839h 0.442913v -2.29272h 0.442913v
 1.61839h 0.442913v 1.48353h 0.442913v 1.21379h 0.442913v -0.944062h 0.442913v -1.75326h 0.442913v 1.21379h 0.442913v -2.02299h 0.442913v 1.61839h 0.442913v 4.04598h 0.442913v -3.64138h 0.442913v 0.67433h 0.442913v -1.48353h 0.442913v -1.34866h
 0.442913v 0.269732h 0.442913v 1.07893h 0.442913v 1.61839h 0.442913v -0.67433h 0.442913v -2.96705h 0.442913v 0.134866h 0.442913v 1.88812h 0.442913v 2.02299h 0.442913v -2.83219h 0.442913v 0.404598h 0.442913v 0.67433h 0.442913v 2.56245h 0.442913v
 -2.02299h 0.442913v -0.404598h 0.442913v -0.67433h 0.442913v 1.21379h 0.442913v -0.134866h 0.442913v -0.404598h 0.442913v 0.404598h 0.442913v 0.809196h 0.442913v -1.21379h 0.442913v 0.67433h 0.442913v 0.944062h 0.442913v -2.15786h 0.442913v 1.07893h
 0.442913v -1.88812h 0.442913v -0.944062h 0.442913v 1.75326h 0.442913v 1.88812h 0.442913v -1.75326h 0.442913v 1.48353h 0.442913v -0.944062h 0.442913v 0.944062h 0.442913v -0.944062h 0.442913v 1.34866h 0.442913v -1.48353h 0.442913v 1.34866h 0.442913v
 -4.18085h 0.442913v 2.56245h 0.442913v 2.69732h 0.442913v -2.02299h 0.442913v -0.809196h 0.442913v 2.15786h 0.442913v -0.944062h 0.442913v -2.15786h 0.442913v 0.944062h 0.442913v 0.404598h 0.442913v 2.69732h 0.442913v -3.77625h 0.442913v 0.809196h
 0.442913v 1.21379h 0.442913v -0.404598h 0.442913v -0.134866h 0.885827v 0.67433h 0.442913v -1.07893h 0.442913v -0.404598h 0.442913v -0.269732h 0.442913v 1.34866h 0.442913v -1.88812h 0.442913v 4.72031h 0.442913v -2.83219h 0.442913v 0.67433h 0.442913v
 -2.15786h 0.442913v 1.34866h 0.442913v 0.944062h 0.442913v -1.48353h 0.442913v 0.269732h 0.442913v 1.07893h 0.442913v -1.48353h 0.442913v 1.07893h 0.442913v -1.88812h 0.442913v -0.67433h 0.442913v 4.45058h 0.442913v -1.75326h 0.442913v -0.269732h
 0.442913v -1.34866h 0.442913v -0.67433h 0.442913v 0.539464h 0.442913v 2.29272h 0.442913v 1.48353h 0.442913v -1.88812h 0.442913v -1.21379h 0.442913v -1.61839h 0.442913v 4.04598h 0.442913v 0.134866h 0.442913v -2.02299h 0.885827v -1.75326h 0.442913v
 -0.269732h 0.442913v 1.21379h 0.442913v -0.269732h 0.442913v 1.21379h 0.442913v 3.50652h 0.442913v -2.15786h 0.442913v -1.21379h 0.442913v -1.34866h 0.442913v -0.404598h 0.442913v 0.944062h 0.442913v 0.944062h 0.442913v 2.29272h 0.442913v -2.96705h
 0.442913v 0.539464h 0.442913v 0.404598h 0.442913v -0.269732h 0.442913v 1.34866h 0.442913v -0.809196h 0.442913v -1.07893h 0.442913v 1.48353h 0.442913v -2.42759h 0.442913v 0.134866h 0.442913v -1.07893h 0.442913v 2.02299h 0.442913v 1.88812h 0.442913v
 -1.88812h 0.442913v -0.539464h 0.442913v -0.944062h 0.442913v 2.29272h 0.442913v -0.269732h 0.442913v 1.21379h 0.442913v -3.10192h 0.442913v -2.42759h 0.442913v 3.91111h 0.442913v -2.02299h 0.442913v 1.88812h 0.442913v -0.539464h 0.442913v 2.96705h
 0.442913v -2.29272h 0.442913v -2.15786h 0.442913v -2.02299h 0.442913v 0.67433h 0.442913v -0.269732h 0.442913v 2.83219h 0.442913v 0.269732h 0.442913v -3.64138h 0.442913v 2.56245h 0.442913v -4.18085h 0.442913v 0.134866h 0.442913v 1.34866h 0.442913v
 4.45058h 0.442913v -3.91111h 0.442913v -1.34866h 0.442913v -0.944062h 0.442913v -0.134866h 0.442913v 3.64138h 0.442913v -1.34866h 0.442913v -0.134866h 0.442913v -1.61839h 0.442913v -0.809196h 0.442913v 0.404598h 0.442913v 0.134866h 0.442913v
 -0.539464h 0.442913v 3.50652h 0.442913v -7.55249h 0.442913v 1.75326h 0.442913v 0.539464h 0.442913v 0.67433h 0.442913v 2.29272h 0.442913v -2.15786h 0.442913v -0.404598h 0.442913v -0.269732h 0.442913v -0.539464h 0.442913v -1.88812h 0.442913v 1.48353h
 0.885827v 2.83219h 0.442913v -5.66437h 0.442913v 2.83219h 0.442913v -0.269732h 0.442913v -1.88812h 0.442913v 1.48353h 0.442913v 0.67433h 0.442913v -2.29272h 0.442913v 1.21379h 0.442913v -1.07893h 0.442913v -2.96705h 0.442913v 2.96705h 0.442913v
 2.96705h 0.442913v -4.72031h 0.442913v 0.134866h 0.442913v 0.944062h 0.442913v -1.07893h 0.442913v 0.404598h 0.442913v 4.18085h 0.442913v -2.02299h 0.442913v -3.91111h 0.442913v 1.34866h 0.442913v 1.34866h 0.442913v -3.77625h 0.442913v 1.61839h
 0.442913v 3.37165h 0.442913v 1.07893h 0.442913v -6.47357h 0.442913v 3.23678h 0.442913v -0.944062h 0.442913v -1.07893h 0.442913v 1.88812h 0.442913v 0.134866h 0.442913v -2.96705h 0.442913v -0.404598h 0.442913v -4.99004h 0.442913v 3.77625h 0.442913v
 2.29272h 0.442913v 0.404598h 0.442913v -2.15786h 0.442913v -2.69732h 0.442913v -2.29272h 0.442913v -0.809196h 0.442913v 1.48353h 0.442913v 2.56245h 0.442913v 1.21379h 0.442913v -2.42759h 0.442913v -1.75326h 0.442913v -3.23678h 0.442913v 0.67433h
 0.442913v 0.404598h 0.442913v 1.21379h 0.442913v 2.83219h 0.442913v 0.404598h 0.442913v -12.8123h 0.442913v 6.06897h 0.442913v 0.539464h 0.442913v 0.539464h 0.442913v 3.10192h 0.442913v -0.539464h 0.442913v -5.66437h 0.442913v -0.404598h 0.442913v
 -4.72031h 0.442913v 5.9341h 0.442913v -1.88812h 0.442913v 2.02299h 0.442913v -4.85518h 0.442913v -3.37165h 0.442913v 2.96705h 0.442913v -5.12491h 0.442913v 9.30575h 0.442913v -1.48353h 0.442913v -9.30575h 0.442913v 0.67433h 0.442913v -3.77625h
 0.442913v -1.61839h 0.442913v 6.47357h 0.442913v 0.269732h 0.442913v -1.61839h 0.442913v -7.55249h 0.442913v 2.42759h 0.442913v 0.67433h 0.442913v 0.809196h 0.442913v -8.63142h 0.442913v 12.0031h 0.442913v -5.9341h 0.442913v -2.56245h 0.442913v
 -6.47357h 0.442913v 6.47357h 0.442913v 0.404598h 0.442913v 3.64138h 0.442913v 5.5295h 0.442913v -8.90115h 0.442913v -7.28276h 0.442913v 3.37165h 0.442913v -2.69732h 0.442913v 7.01303h 0.442913v -5.5295h 0.442913v 5.39464h 0.442913v -2.69732h
 0.442913v -5.5295h 0.442913v -3.37165h 0.442913v 2.15786h 0.442913v 3.10192h 0.442913v 6.3387h 0.442913v -6.06897h 0.442913v -14.0261h 0.442913v 3.64138h 0.442913v 4.85518h 0.442913v 8.90115h 0.442913v 3.77625h 0.442913v -6.3387h 0.442913v -7.82223h
 0.442913v -0.67433h 0.442913v -6.06897h 0.442913v 12.5425h 0.442913v 11.7333h 0.442913v -4.58544h 0.442913v -4.72031h 0.442913v -4.45058h 0.442913v -2.15786h 0.442913v 3.91111h 0.442913v 12.1379h 0.442913v -3.37165h 0.442913v 4.31571h 0.442913v
 -6.87816h 0.442913v -8.49656h 0.442913v 7.1479h 0.442913v 2.15786h 0.442913v 7.01303h 0.442913v -0.134866h 0.442913v 1.48353h 0.442913v -11.059h 0.442913v 2.69732h 0.442913v 2.29272h 0.442913v 4.85518h 0.442913v 8.22682h 0.442913v -10.1149h
 0.442913v -4.72031h 0.442913v 3.77625h 0.442913v 5.66437h 0.442913v -4.45058h 0.442913v 10.9241h 0.442913v -5.66437h 0.442913v -5.66437h 0.442913v 4.04598h 0.442913v 2.02299h 0.442913v -1.75326h 0.442913v 8.22682h 0.442913v 5.5295h 0.442913v
 -5.5295h 0.442913v -3.64138h 0.442913v -5.9341h 0.442913v 5.25977h 0.442913v 7.68736h 0.442913v 2.15786h 0.442913v -0.539464h 0.442913v -4.31571h 0.442913v 1.07893h 0.442913v -2.83219h 0.442913v 4.18085h 0.442913v -2.02299h 0.442913v 7.95709h
 0.442913v -5.12491h 0.442913v -2.96705h 0.442913v -1.61839h 0.442913v 2.69732h 0.442913v 3.37165h 0.442913v 1.21379h 0.442913v 2.96705h 0.442913v -5.66437h 0.442913v -1.07893h 0.442913v 1.75326h 0.442913v 2.69732h 0.442913v 2.15786h 0.442913v
 5.25977h 0.442913v -7.55249h 0.442913v 3.23678h 0.442913v -6.7433h 0.442913v 1.34866h 0.442913v 3.77625h 0.442913v 2.29272h 0.442913v -0.809196h 0.442913v -2.56245h 0.442913v 0.404598h 0.442913v -0.944062h 0.442913v 0.134866h 0.442913v 5.12491h
 0.442913v 0.539464h 0.442913v -3.23678h 0.442913v -3.50652h 0.442913v 0.134866h 0.442913v 1.21379h 0.442913v 4.18085h 0.442913v -1.21379h 0.442913v -0.404598h 0.442913v 1.75326h 0.442913v -4.18085h 0.442913v -0.809196h 0.442913v 2.42759h 0.442913v
 3.10192h 0.442913v -0.134866h 0.442913v -0.809196h 0.442913v -0.944062h 0.442913v -3.91111h 0.442913v 6.20383h 0.442913v -3.50652h 0.442913v 7.01303h 0.442913v -1.61839h 0.442913v -2.29272h 0.442913v -3.23678h 0.442913v 0.809196h 0.442913v 0.539464h
 0.442913v 6.47357h 0.442913v -1.75326h 0.442913v -1.48353h 0.442913v -0.67433h 0.442913v -2.56245h 0.442913v 1.61839h 0.442913v 2.56245h 0.442913v 0.134866h 0.442913v 0.944062h 0.442913v 1.34866h 0.442913v -5.79924h 0.442913v 4.31571h 0.442913v
 -2.83219h 0.442913v 3.37165h 0.442913v 3.10192h 0.442913v 0.134866h 0.442913v -4.31571h 0.442913v -0.134866h 0.442913v -0.539464h 0.442913v 2.96705h 0.442913v 0.809196h 0.442913v 1.61839h 0.442913v -0.809196h 0.442913v 0.67433h 0.442913v -1.75326h
 0.442913v -0.134866h 0.442913v 5.66437h 0.442913v -2.42759h 0.442913v -0.134866h 0.442913v -0.404598h 0.442913v -0.944062h 0.442913v 2.02299h 0.442913v 0.67433h 0.442913v 1.07893h 0.442913v 0.67433h 0.885827v 0.539464h 0.442913v -3.77625h 0.442913v
 3.10192h 0.442913v 0.809196h 0.442913v 3.64138h 0.442913v -4.72031h 0.442913v 0.404598h 0.442913v -0.67433h 0.442913v 1.34866h 0.442913v 1.07893h 0.442913v -0.809196h 0.442913v 2.69732h 0.442913v -1.88812h 0.442913v 1.34866h 0.442913v -1.21379h
 0.442913v -0.134866h 0.442913v 3.10192h 0.442913v 1.34866h 0.442913v -0.269732h 0.442913v -1.07893h 0.442913v -1.07893h 0.442913v 0.809196h 0.885827v 1.75326h 0.442913v 2.15786h 0.442913v -2.83219h 0.442913v -0.809196h 0.442913v -0.269732h 0.885827v
 2.29272h 0.442913v -0.269732h 0.442913v 1.34866h 0.442913v -1.75326h 0.442913v -0.944062h 0.442913v 2.29272h 0.442913v -3.23678h 0.442913v 0.539464h 0.442913v 2.56245h 0.442913v -1.75326h 0.442913v 0.134866h 0.885827v 2.29272h 0.442913v -1.48353h
 0.442913v 1.48353h 0.442913v -2.96705h 0.442913v 1.07893h 0.442913v 0.134866h 0.442913v -0.539464h 0.442913v 1.88812h 0.442913v 0.404598h 0.442913v -0.404598h 0.442913v -0.404598h 0.885827v -2.56245h 0.442913v 3.50652h 0.442913v -1.75326h 0.442913v
 1.88812h 0.442913v -0.944062h 0.442913v 0.809196h 0.442913v -3.10192h 0.442913v 0.134866h 0.442913v 3.77625h 0.442913v -0.809196h 0.442913v 1.34866h 0.442913v -4.58544h 0.442913v 0.134866h 0.442913v -1.61839h 0.442913v 0.809196h 0.442913v 2.02299h
 0.442913v 2.15786h 0.442913v -4.72031h 0.442913v 2.42759h 0.442913v -1.34866h 0.442913v -2.29272h 0.442913v 4.04598h 0.442913v -0.809196h 0.442913v 0.944062h 0.442913v 1.48353h 0.442913v -2.96705h 0.442913v 0.809196h 0.442913v -1.88812h 0.442913v
 2.56245h 0.442913v -3.23678h 0.442913v 3.50652h 0.442913v -1.34866h 0.442913v -2.29272h 0.442913v 1.61839h 0.442913v -0.269732h 0.442913v 1.48353h 0.442913v -0.134866h 0.442913v -1.88812h 0.442913v -0.404598h 0.442913v -0.944062h 0.442913v 1.21379h
 0.442913v 2.69732h 0.442913v 0.269732h 0.442913v -0.134866h 0.442913v -1.48353h 0.442913v -0.134866h 0.442913v 1.07893h 0.442913v 0.269732h 0.442913v -1.34866h 0.442913v 1.88812h 0.442913v -1.21379h 0.442913v -0.404598h 0.442913v 0.539464h 0.442913v
 -0.809196h 0.442913v 2.29272h 0.442913v -0.134866h 0.442913v 0.134866h 0.442913v 1.07893h 0.442913v -3.50652h 0.442913v 3.37165h 0.442913v -0.944062h 0.442913v -1.21379h 0.442913v 2.83219h 0.442913v -1.21379h 0.442913v -0.944062h 0.442913v 1.61839h
 0.442913v -0.944062h 0.442913v 1.75326h 0.442913v -1.34866h 0.442913v 1.75326h 0.442913v -0.539464h 0.442913v 0.809196h 0.885827v -1.88812h 0.442913v 1.75326h 0.442913v 2.15786h 0.442913v -2.69732h 0.442913v -0.269732h 0.442913v -0.404598h 0.442913v
 0.269732h 0.442913v 1.21379h 0.442913v 2.42759h 0.442913v -0.539464h 0.442913v -2.02299h 0.442913v 0.809196h 0.442913v -0.134866h 0.442913v -1.07893h 0.442913v 2.42759h 0.442913v -0.404598h 0.442913v -0.404598h 0.442913v 0.809196h 0.442913v
 -0.944062h 0.442913v 0.809196h 0.442913v 0.404598h 0.442913v -0.404598h 0.442913v -0.944062h 0.442913v 0.67433h 0.442913v 0.134866h 0.442913v 0.67433h 0.442913v -0.67433h 0.442913v 2.29272h 0.442913v -0.944062h 0.442913v -1.34866h 0.442913v
 0.944062h 0.442913v -0.539464h 0.442913v 1.34866h 0.442913v -0.944062h 0.442913v 0.809196h 0.442913v -0.809196h 0.442913v 0.944062h 0.442913v -0.944062h 0.442913v 1.07893h 0.885827v -0.269732h 0.442913v 0.269732h 0.885827v -0.269732h 0.442913v
 0.269732h 0.442913v 0.269732h 0.442913v -1.61839h 0.442913v 1.88812h 0.442913v -0.539464h 0.442913v 0.404598h 0.442913v -0.269732h 0.885827v 0.809196h 0.442913v 0.134866h 0.442913v 0.269732h 0.442913v -0.539464h 0.442913v -0.404598h 0.442913v
 0.539464h 0.442913v -0.539464h 0.442913v 0.269732h 0.442913v -0.134866h 0.442913v 0.134866h 0.442913v -0.404598h 0.442913v 0.67433h 0.442913v -0.404598h 0.442913v 0.134866h 0.442913v 0.404598h 0.442913v 0.134866h 0.442913v -0.539464h 0.442913v
 -0.269732h 0.442913v 0.404598h 0.885827v 0.539464h 0.442913v -0.67433h 0.442913v -0.134866h 0.442913v 0.67433h 0.885827v 0.134866h 0.442913v -0.67433h 0.885827v 0.67433h 0.442913v -0.809196h 0.442913v 0.134866h 0.442913v 0.269732h 0.442913v
 0.269732h 0.885827v -0.134866h 0.442913v 0.134866h 0.442913v -0.809196h 0.442913v 0.539464h 0.442913v -0.539464h 0.442913v 0.404598h 0.442913v -0.269732h 0.442913v 0.539464h 0.442913v 0.539464h 0.442913v -0.539464h 0.885827v -0.134866h 0.885827v
 0.404598h 0.442913v -0.809196h 0.442913v 0.539464h 0.442913v 0.134866h 0.442913v -0.134866h 0.885827v -0.269732h 0.442913v 0.404598h 0.442913v -0.134866h 0.442913v -0.539464h 0.442913v 0.134866h 0.442913v 0.134866h 0.442913v 0.809196h 0.442913v
 -0.269732h 0.442913v -0.809196h 0.442913v 0.269732h 0.442913v -0.134866h 0.442913v 0.539464h 0.442913v -0.404598h 0.442913v 0.404598h 1.32874v -0.134866h 0.442913v -0.134866h 0.442913v -0.269732h 0.885827v 0.539464h 0.885827v -0.269732h 0.442913v
 0.269732h 0.442913v -0.134866h 0.442913v 0.134866h 0.885827v 0.134866h 0.442913v -0.269732h 0.442913v -0.67433h 0.442913v 0.269732h 0.442913v 0.539464h 0.442913v 0.134866h 0.442913v 0.269732h 0.442913v -0.269732h 0.442913v -0.269732h 0.885827v
 0.269732h 0.442913v -0.539464h 0.442913v 0.539464h 0.442913v -0.134866h 0.442913v -0.134866h 0.442913v -0.134866h 0.442913v 0.134866h 0.442913v -0.134866h 1.77165v 0.269732h 0.442913v -0.269732h 0.442913v -0.404598h 0.442913v 0.134866h 0.442913v
 -0.269732h 0.442913v 0.67433h 0.442913v -0.134866h 0.442913v 0.404598h 0.442913v -0.134866h 0.442913v -0.404598h 0.442913v 0.134866h 0.442913v -0.539464h 0.442913v 0.67433h 0.442913v -0.134866h 0.442913v 0.269732h 1.32874v 0.269732h 0.442913v
 -0.404598h 0.442913v -0.134866h 0.442913v 0.269732h 0.442913v -0.269732h 0.442913v 0.134866h 0.442913v -0.134866h 0.442913v -0.404598h 0.442913v 0.269732h 0.442913v 0.134866h 0.442913v -0.269732h 0.442913v 0.269732h 0.442913v -0.134866h 0.442913v
 -0.134866h 0.442913v -0.134866h 0.442913v 0.269732h 0.442913v 0.944062h 0.442913v -0.539464h 0.442913v 0.134866h 0.442913v -0.269732h 0.885827v 0.539464h 0.442913v 0.134866h 0.442913v -0.404598h 0.442913v -0.404598h 0.442913v 0.134866h 0.442913v
 0.539464h 0.442913v -0.404598h 0.442913v -0.134866h 0.442913v -0.404598h 0.442913v 0.269732h 0.442913v -0.269732h 0.442913v 0.67433h 0.442913v -0.539464h 0.442913v 0.809196h 0.442913v -0.404598h 0.442913v -0.404598h 0.442913v 0.539464h 0.442913v
 -0.134866h 0.442913v 0.134866h 0.442913v -0.404598h 0.885827v 0.809196h 0.442913v -0.539464h 0.442913v -0.134866h 0.885827v 0.134866h 0.885827v 0.134866h 0.442913v -0.269732h 0.442913v -0.404598h 0.442913v -0.134866h 0.442913v 1.07893h 0.442913v
 -0.404598h 0.442913v 0.134866h 0.442913v -0.269732h 0.442913v -1.07893h 0.442913v 0.67433h 0.442913v 0.809196h 0.442913v -0.134866h 0.442913v -1.48353h 0.442913v -4.85518h 0.442913v -30.0751h 0.442913v -97.9127h 0.442913v -158.063h 0.442913v
 23.1969h 0.442913v 58.2621h 0.442913v 20.7694h 0.442913v 14.2958h 0.442913v 45.5847h 0.442913v 31.8284h 0.442913v 13.8912h 0.442913v 14.0261h 0.442913v -6.47357h 0.442913v -12.9471h 0.442913v -0.404598h 0.442913v 9.17089h 0.442913v 2.56245h
 0.442913v 5.39464h 0.442913v 2.96705h 0.442913v 0.269732h 0.442913v 18.3418h 0.442913v 29.9402h 0.442913v 15.6445h 0.442913v 4.31571h 0.442913v 1.48353h 0.442913v 0.539464h 0.442913v -0.67433h 0.442913v 0.67433h 0.885827v -0.404598h 0.442913v
 0.404598h 0.442913v 0.269732h 1.77165v -0.134866h 0.442913v 0.134866h 6.6437v -0.134866h 0.442913v 0.134866h 7.52953" fill="none" stroke="#000099"/>
<path d="M57.1929,346.022h 453.543" fill="none" stroke="black"/>
<path d="M57.1929,336.795v 9.22726" fill="none" stroke="black"/>
<path d="M68.5315,341.409v 4.61363" fill="none" stroke="black"/>
<path d="M79.8701,341.409v 4.61363" fill="none" stroke="black"/>
<path d="M91.2087,341.409v 4.61363" fill="none" stroke="black"/>
<path d="M102.547,341.409v 4.61363" fill="none" stroke="black"/>
<path d="M113.886,336.795v 9.22726" fill="none" stroke="black"/>
<path d="M125.224,341.409v 4.61363" fill="none" stroke="black"/>
<path d="M136.563,341.409v 4.61363" fill="none" stroke="black"/>
<path d="M147.902,341.409v 4.61363" fill="none" stroke="black"/>
<path d="M159.24,341.409v 4.61363" fill="none" stroke="black"/>
<path d="M170.579,336.795v 9.22726" fill="none" stroke="black"/>
<path d="M181.917,341.409v 4.61363" fill="none" stroke="black"/>
<path d="M193.256,341.409v 4.61363" fill="none" stroke="black"/>
<path d="M204.594,341.409v 4.61363" fill="none" stroke="black"/>
<path d="M215.933,341.409v 4.61363" fill="none" stroke="black"/>
<path d="M227.272,336.795v 9.22726" fill="none" stroke="black"/>
<path d="M238.61,341.409v 4.61363" fill="none" stroke="black"/>
<path d="M249.949,341.409v 4.61363" fill="none" stroke="black"/>
<path d="M261.287,341.409v 4.61363" fill="none" stroke="black"/>
<path d="M272.626,341.409v 4.61363" fill="none" stroke="black"/>
<path d="M283.965,336.795v 9.22726" fill="none" stroke="black"/>
<path d="M295.303,341.409v 4.61363" fill="none" stroke="black"/>
<path d="M306.642,341.409v 4.61363" fill="none" stroke="black"/>
<path d="M317.98,341.409v 4.61363" fill="none" stroke="black"/>
<path d="M329.319,341.409v 4.61363" fill="none" stroke="black"/>
<path d="M340.657,336.795v 9.22726" fill="none" stroke="black"/>
<path d="M351.996,341.409v 4.61363" fill="none" stroke="black"/>
<path d="M363.335,341.409v 4.61363" fill="none" stroke="black"/>
<path d="M374.673,341.409v 4.61363" fill="none" stroke="black"/>
<path d="M386.012,341.409v 4.61363" fill="none" stroke="black"/>
<path d="M397.35,336.795v 9.22726" fill="none" stroke="black"/>
<path d="M408.689,341.409v 4.61363" fill="none" stroke="black"/>
<path d="M420.028,341.409v 4.61363" fill="none" stroke="black"/>
<path d="M431.366,341.409v 4.61363" fill="none" stroke="black"/>
<path d="M442.705,341.409v 4.61363" fill="none" stroke="black"/>
<path d="M454.043,336.795v 9.22726" fill="none" stroke="black"/>
<path d="M465.382,341.409v 4.61363" fill="none" stroke="black"/>
<path d="M476.72,341.409v 4.61363" fill="none" stroke="black"/>
<path d="M488.059,341.409v 4.61363" fill="none" stroke="black"/>
<path d="M499.398,341.409v 4.61363" fill="none" stroke="black"/>
<path d="M510.736,336.795v 9.22726" fill="none" stroke="black"/>
<text xml:space="preserve" x="53.446" y="358.403" fill="black" font-size="12.8453" font-family="Helvetica">0</text>
<text xml:space="preserve" x="110.465" y="358.403" fill="black" font-size="12.8453" font-family="Helvetica">5</text>
<text xml:space="preserve" x="163.411" y="358.403" fill="black" font-size="12.8453" font-family="Helvetica">10</text>
<text xml:space="preserve" x="219.615" y="358.403" fill="black" font-size="12.8453" font-family="Helvetica">15</text>
<text xml:space="preserve" x="277.448" y="358.403" fill="black" font-size="12.8453" font-family="Helvetica">20</text>
<text xml:space="preserve" x="332.838" y="358.403" fill="black" font-size="12.8453" font-family="Helvetica">25</text>
<text xml:space="preserve" x="390.671" y="358.403" fill="black" font-size="12.8453" font-family="Helvetica">30</text>
<text xml:space="preserve" x="446.061" y="358.403" fill="black" font-size="12.8453" font-family="Helvetica">35</text>
<text xml:space="preserve" x="503.894" y="358.403" fill="black" font-size="12.8453" font-family="Helvetica">40</text>
<text xml:space="preserve" x="441.173" y="370.622" fill="black" font-size="12.8453" font-family="Helvetica">Energy [keV]</text>
<path d="M57.1929,346.022v -307.575" fill="none" stroke="black"/>
<path d="M70.7992,346.022h -13.6063" fill="none" stroke="black"/>
<path d="M63.9961,339.279h -6.80315" fill="none" stroke="black"/>
<path d="M63.9961,332.536h -6.80315" fill="none" stroke="black"/>
<path d="M63.9961,325.792h -6.80315" fill="none" stroke="black"/>
<path d="M70.7992,319.049h -13.6063" fill="none" stroke="black"/>
<path d="M63.9961,312.306h -6.80315" fill="none" stroke="black"/>
<path d="M63.9961,305.562h -6.80315" fill="none" stroke="black"/>
<path d="M63.9961,298.819h -6.80315" fill="none" stroke="black"/>
<path d="M70.7992,292.076h -13.6063" fill="none" stroke="black"/>
<path d="M63.9961,285.333h -6.80315" fill="none" stroke="black"/>
<path d="M63.9961,278.589h -6.80315" fill="none" stroke="black"/>
<path d="M63.9961,271.846h -6.80315" fill="none" stroke="black"/>
<path d="M70.7992,265.103h -13.6063" fill="none" stroke="black"/>
<path d="M63.9961,258.359h -6.80315" fill="none" stroke="black"/>
<path d="M63.9961,251.616h -6.80315" fill="none" stroke="black"/>
<path d="M63.9961,244.873h -6.80315" fill="none" stroke="black"/>
<path d="M70.7992,238.129h -13.6063" fill="none" stroke="black"/>
<path d="M63.9961,231.386h -6.80315" fill="none" stroke="black"/>
<path d="M63.9961,224.643h -6.80315" fill="none" stroke="black"/>
<path d="M63.9961,217.9h -6.80315" fill="none" stroke="black"/>
<path d="M70.7992,211.156h -13.6063" fill="none" stroke="black"/>
<path d="M63.9961,204.413h -6.80315" fill="none" stroke="black"/>
<path d="M63.9961,197.67h -6.80315" fill="none" stroke="black"/>
<path d="M63.9961,190.926h -6.80315" fill="none" stroke="black"/>
<path d="M70.7992,184.183h -13.6063" fill="none" stroke="black"/>
<path d="M63.9961,177.44h -6.80315" fill="none" stroke="black"/>
<path d="M63.9961,170.696h -6.80315" fill="none" stroke="black"/>
<path d="M63.9961,163.953h -6.80315" fill="none" stroke="black"/>
<path d="M70.7992,157.21h -13.6063" fill="none" stroke="black"/>
<path d="M63.9961,150.467h -6.80315" fill="none" stroke="black"/>
<path d="M63.9961,143.723h -6.80315" fill="none" stroke="black"/>
<path d="M63.9961,136.98h -6.80315" fill="none" stroke="black"/>
<path d="M70.7992,130.237h -13.6063" fill="none" stroke="black"/>
<path d="M63.9961,123.493h -6.80315" fill="none" stroke="black"/>
<path d="M63.9961,116.75h -6.80315" fill="none" stroke="black"/>
<path d="M63.9961,110.007h -6.80315" fill="none" stroke="black"/>
<path d="M70.7992,103.264h -13.6063" fill="none" stroke="black"/>
<path d="M63.9961,96.5202h -6.80315" fill="none" stroke="black"/>
<path d="M63.9961,89.7769h -6.80315" fill="none" stroke="black"/>
<path d="M63.9961,83.0336h -6.80315" fill="none" stroke="black"/>
<path d="M70.7992,76.2903h -13.6063" fill="none" stroke="black"/>
<path d="M63.9961,69.547h -6.80315" fill="none" stroke="black"/>
<path d="M63.9961,62.8037h -6.80315" fill="none" stroke="black"/>
<path d="M63.9961,56.0604h -6.80315" fill="none" stroke="black"/>
<path d="M70.7992,49.3171h -13.6063" fill="none" stroke="black"/>
<path d="M70.7992,49.3171h -13.6063" fill="none" stroke="black"/>
<path d="M63.9961,42.5738h -6.80315" fill="none" stroke="black"/>
<text xml:space="preserve" x="47.7441" y="350.258" fill="black" font-size="12.8453" font-family="Helvetica">0</text>
<text xml:space="preserve" x="33.8967" y="323.378" fill="black" font-size="12.8453" font-family="Helvetica">200</text>
<text xml:space="preserve" x="33.8967" y="296.497" fill="black" font-size="12.8453" font-family="Helvetica">400</text>
<text xml:space="preserve" x="33.8967" y="269.617" fill="black" font-size="12.8453" font-family="Helvetica">600</text>
<text xml:space="preserve" x="33.8967" y="242.737" fill="black" font-size="12.8453" font-family="Helvetica">800</text>
<text xml:space="preserve" x="27.3803" y="215.857" fill="black" font-size="12.8453" font-family="Helvetica">1000</text>
<text xml:space="preserve" x="27.3803" y="188.976" fill="black" font-size="12.8453" font-family="Helvetica">1200</text>
<text xml:space="preserve" x="27.3803" y="162.096" fill="black" font-size="12.8453" font-family="Helvetica">1400</text>
<text xml:space="preserve" x="27.3803" y="134.401" fill="black" font-size="12.8453" font-family="Helvetica">1600</text>
<text xml:space="preserve" x="27.3803" y="107.521" fill="black" font-size="12.8453" font-family="Helvetica">1800</text>
<text xml:space="preserve" x="27.3803" y="80.6408" fill="black" font-size="12.8453" font-family="Helvetica">2000</text>
<text xml:space="preserve" x="27.3803" y="53.7605" fill="black" font-size="12.8453" font-family="Helvetica">2200</text>
<g transform="rotate(-90,14.3474,70.0516)">
<text xml:space="preserve" x="14.3474" y="70.0516" fill="black" font-size="12.8453" font-family="Helvetica">Event</text>
</g>
<text xml:space="preserve" x="206.582" y="18.7347" fill="black" font-size="18.0316" font-family="Helvetica">Am_009_calibrated</text>
<rect x="442.705" y="24.9905" width="113.386" height="61.5151" fill="white"/>
<path d="M442.705,86.5056h 113.386" fill="none" stroke="black"/>
<path d="M556.091,86.5056v -61.5151" fill="none" stroke="black"/>
<path d="M556.091,24.9905h -113.386" fill="none" stroke="black"/>
<path d="M442.705,24.9905v 61.5151" fill="none" stroke="black"/>
<text xml:space="preserve" x="446.061" y="36.6549" fill="black" font-size="12.1556" font-family="Helvetica">Am_009_calibrated</text>
<path d="M442.705,40.3693h 113.386" fill="none" stroke="black"/>
<text xml:space="preserve" x="447.69" y="52.946" fill="black" font-size="12.3904" font-family="Helvetica">Entries </text>
<text xml:space="preserve" x="506.338" y="52.946" fill="black" font-size="12.3904" font-family="Helvetica"> 116742</text>
<text xml:space="preserve" x="447.69" y="67.6079" fill="black" font-size="12.3904" font-family="Helvetica">Mean  </text>
<text xml:space="preserve" x="516.927" y="67.6079" fill="black" font-size="12.3904" font-family="Helvetica">   20.9</text>
<text xml:space="preserve" x="447.69" y="83.0844" fill="black" font-size="12.3904" font-family="Helvetica">Std Dev   </text>
<text xml:space="preserve" x="512.854" y="83.0844" fill="black" font-size="12.3904" font-family="Helvetica">  8.598</text>
<text xml:space="preserve" x="206.582" y="18.7347" fill="black" font-size="18.0316" font-family="Helvetica">Am_009_calibrated</text></svg>
