<?xml version="1.0" standalone="no"?>
<svg width="567.429" height="384.969" viewBox="0 0 567.429 384.969" xmlns="http://www.w3.org/2000/svg" shape-rendering="crispEdges">
<title>
img/week1/calibrated_hist_high_gain/Am_009_calibrated_fit_gaus.svg
</title>
<desc>
Creator: ROOT Version 6.22/09
CreationDate: Tue Jul 13 19:34:21 2021</desc>
<defs>
</defs>
<rect x="0.5" y="0" width="566.929" height="384.469" fill="white"/>
<rect x="57.1929" y="38.4469" width="453.543" height="307.575" fill="white"/>
<rect x="57.1929" y="38.4469" width="453.543" height="307.575" fill="none" stroke="black"/>
<path d="M57.1929,346.022h 73.3971v -0.512113h 0.506187v -0.512113h 0.506187v -5.63325h 0.506187v -27.6541h 0.506187v -19.4603h 0.506187v 3.58479h 0.506187v 7.16959h 0.506187v 4.60902h 0.506187v -1.02423h 0.506187v -14.3392h 0.506187v -2.04845h
 0.506187v 4.09691h 0.506187v 11.7786h 0.506187v -1.02423h 0.506187v -2.56057h 0.506187v -5.63325h 0.506187v 5.12113h 0.506187v 0.512113h 0.506187v -3.58479h 0.506187v 1.02423h 0.506187v -1.53634h 0.506187v 7.6817h 0.506187v -9.21804h 0.506187v
 2.56057h 0.506187v -4.60902h 0.506187v 11.2665h 0.506187v 3.58479h 0.506187v -4.09691h 0.506187v 1.53634h 0.506187v -6.65747h 0.506187v 5.12113h 0.506187v -9.73015h 0.506187v 16.3876h 0.506187v 1.02423h 0.506187v -8.70593h 1.01237v -5.12113h
 0.506187v 1.02423h 0.506187v -6.65747h 0.506187v 17.924h 0.506187v -7.16959h 0.506187v -3.58479h 0.506187v -4.60902h 0.506187v -1.02423h 0.506187v 7.16959h 0.506187v 4.60902h 0.506187v -6.14536h 0.506187v -2.04845h 0.506187v 10.7544h 0.506187v
 -2.04845h 0.506187v -2.04845h 0.506187v -5.12113h 0.506187v 9.73015h 0.506187v -6.14536h 0.506187v 0.512113h 0.506187v 0.512113h 0.506187v -0.512113h 0.506187v -1.53634h 0.506187v 3.07268h 0.506187v 2.04845h 0.506187v 0.512113h 0.506187v -9.21804h
 0.506187v 2.56057h 0.506187v -2.56057h 0.506187v -0.512113h 0.506187v 6.65747h 0.506187v -5.12113h 0.506187v 9.21804h 0.506187v -4.60902h 0.506187v 0.512113h 0.506187v -3.07268h 0.506187v 9.21804h 0.506187v -4.09691h 0.506187v -3.07268h 0.506187v
 -5.63325h 0.506187v 2.56057h 0.506187v 5.63325h 0.506187v -1.02423h 0.506187v 0.512113h 0.506187v -1.02423h 0.506187v 4.60902h 0.506187v -14.3392h 0.506187v 5.63325h 0.506187v 0.512113h 0.506187v 7.6817h 0.506187v 1.53634h 0.506187v -13.3149h
 0.506187v 3.58479h 0.506187v 8.70593h 0.506187v -3.58479h 0.506187v -4.09691h 0.506187v 7.6817h 0.506187v -6.14536h 0.506187v -3.58479h 0.506187v 4.09691h 0.506187v -5.63325h 0.506187v 5.63325h 0.506187v 5.63325h 0.506187v 1.53634h 0.506187v
 -4.60902h 0.506187v -4.60902h 0.506187v 3.07268h 0.506187v 1.53634h 0.506187v 3.58479h 0.506187v -9.21804h 0.506187v 7.16959h 0.506187v -6.65747h 0.506187v 3.58479h 0.506187v -4.60902h 0.506187v -1.53634h 0.506187v 8.70593h 0.506187v 1.53634h
 0.506187v -1.02423h 0.506187v -5.63325h 0.506187v 0.512113h 0.506187v -7.16959h 0.506187v 8.70593h 0.506187v 5.63325h 0.506187v 4.09691h 0.506187v -9.73015h 0.506187v 1.02423h 0.506187v -5.63325h 0.506187v 15.8755h 0.506187v -13.8271h 0.506187v
 6.65747h 0.506187v -6.14536h 0.506187v -3.07268h 0.506187v -2.56057h 0.506187v 5.63325h 0.506187v 2.56057h 0.506187v 3.58479h 0.506187v 10.2423h 0.506187v -14.3392h 0.506187v -1.02423h 0.506187v -1.02423h 0.506187v -3.07268h 0.506187v 4.60902h
 0.506187v 7.6817h 0.506187v 2.56057h 0.506187v -9.21804h 0.506187v 3.07268h 0.506187v -4.09691h 0.506187v 1.53634h 0.506187v 6.14536h 0.506187v -1.53634h 0.506187v -7.6817h 0.506187v 5.63325h 0.506187v -7.16959h 0.506187v -0.512113h 0.506187v
 -1.53634h 0.506187v 9.21804h 0.506187v 4.09691h 0.506187v -9.73015h 1.01237v -0.512113h 0.506187v 6.65747h 0.506187v 0.512113h 1.01237v -13.3149h 0.506187v 0.512113h 0.506187v 6.14536h 0.506187v 2.56057h 0.506187v -3.07268h 0.506187v 4.60902h
 0.506187v 1.53634h 0.506187v 1.53634h 0.506187v -20.4845h 0.506187v 3.58479h 0.506187v -2.04845h 0.506187v 1.02423h 0.506187v 12.8028h 0.506187v -3.07268h 0.506187v -12.2907h 0.506187v 9.21804h 0.506187v -16.3876h 0.506187v 3.07268h 0.506187v
 8.19382h 0.506187v 8.70593h 0.506187v -10.7544h 0.506187v -12.2907h 0.506187v 4.60902h 0.506187v 5.63325h 0.506187v -3.58479h 0.506187v 13.8271h 0.506187v -18.9482h 0.506187v 8.70593h 0.506187v -11.2665h 0.506187v 5.12113h 0.506187v -2.04845h
 0.506187v 1.02423h 0.506187v 11.7786h 0.506187v -30.7268h 0.506187v 8.19382h 0.506187v 2.56057h 0.506187v 5.12113h 0.506187v 10.7544h 0.506187v -14.8513h 0.506187v -2.04845h 0.506187v 3.58479h 0.506187v -7.6817h 0.506187v -3.58479h 0.506187v
 11.2665h 0.506187v -7.16959h 0.506187v 8.70593h 0.506187v -18.4361h 0.506187v 8.70593h 0.506187v 3.07268h 0.506187v -7.16959h 0.506187v -0.512113h 0.506187v 14.8513h 0.506187v -16.8997h 0.506187v -1.02423h 0.506187v 2.56057h 0.506187v -3.58479h
 0.506187v -3.58479h 0.506187v 15.3634h 0.506187v -9.73015h 0.506187v -3.58479h 0.506187v -2.04845h 0.506187v 5.12113h 0.506187v -3.58479h 0.506187v 14.8513h 0.506187v -4.60902h 0.506187v -21.5088h 0.506187v 18.4361h 0.506187v -14.8513h 0.506187v
 4.09691h 0.506187v -3.07268h 0.506187v 15.8755h 0.506187v 1.02423h 0.506187v -23.0451h 0.506187v 13.8271h 0.506187v -6.65747h 0.506187v -1.02423h 0.506187v 12.8028h 0.506187v -12.2907h 0.506187v -7.6817h 0.506187v 4.09691h 0.506187v -20.9967h
 0.506187v 7.6817h 0.506187v 22.0209h 0.506187v -4.60902h 0.506187v -12.8028h 0.506187v -7.16959h 0.506187v -9.73015h 0.506187v -10.7544h 0.506187v 22.533h 0.506187v 4.09691h 0.506187v 4.09691h 0.506187v -14.8513h 0.506187v -7.6817h 0.506187v
 -3.07268h 1.01237v -7.16959h 0.506187v 16.8997h 0.506187v 8.70593h 0.506187v -8.70593h 0.506187v -39.9448h 0.506187v 19.9724h 0.506187v -3.07268h 0.506187v 14.3392h 0.506187v 4.60902h 0.506187v 3.07268h 0.506187v -27.142h 0.506187v 1.53634h
 0.506187v -19.9724h 0.506187v 16.3876h 0.506187v 8.70593h 0.506187v -3.58479h 0.506187v -13.8271h 0.506187v -19.4603h 0.506187v 14.3392h 0.506187v -14.3392h 0.506187v 28.1662h 0.506187v 1.53634h 0.506187v -40.9691h 0.506187v 2.56057h 0.506187v
 -12.8028h 0.506187v -2.56057h 0.506187v 16.8997h 0.506187v 7.6817h 0.506187v -5.12113h 0.506187v -34.8237h 0.506187v 13.8271h 0.506187v -0.512113h 0.506187v 6.65747h 0.506187v -36.8722h 0.506187v 45.5781h 0.506187v -18.9482h 0.506187v -10.7544h
 0.506187v -26.1178h 0.506187v 26.6299h 1.01237v 16.8997h 0.506187v 15.3634h 0.506187v -33.7995h 0.506187v -21.5088h 0.506187v 10.2423h 0.506187v -12.2907h 0.506187v 28.6784h 0.506187v -20.9967h 0.506187v 19.9724h 0.506187v -10.2423h 0.506187v
 -20.4845h 0.506187v -13.8271h 0.506187v 8.19382h 0.506187v 12.2907h 0.506187v 26.6299h 0.506187v -27.6541h 0.506187v -52.7477h 0.506187v 16.8997h 0.506187v 18.9482h 0.506187v 30.7268h 0.506187v 12.8028h 0.506187v -18.4361h 0.506187v -31.751h
 0.506187v -4.60902h 0.506187v -20.4845h 0.506187v 43.0175h 0.506187v 48.6508h 0.506187v -18.4361h 0.506187v -16.3876h 0.506187v -20.9967h 0.506187v -8.19382h 0.506187v 18.9482h 0.506187v 44.5539h 0.506187v -7.16959h 0.506187v 6.14536h 0.506187v
 -19.9724h 0.506187v -38.9206h 0.506187v 39.9448h 0.506187v -7.16959h 0.506187v 34.8237h 0.506187v 2.56057h 1.01237v -41.4812h 0.506187v 9.73015h 0.506187v 16.3876h 0.506187v 8.19382h 0.506187v 35.3358h 0.506187v -31.751h 0.506187v -25.6057h
 0.506187v 22.533h 0.506187v 2.56057h 0.506187v -6.14536h 0.506187v 41.9933h 0.506187v -18.9482h 0.506187v -20.9967h 0.506187v 16.3876h 0.506187v 1.53634h 0.506187v -4.60902h 0.506187v 25.0936h 0.506187v 28.1662h 0.506187v -13.3149h 0.506187v
 -29.1905h 0.506187v -9.73015h 0.506187v 14.3392h 0.506187v 26.6299h 0.506187v 9.73015h 0.506187v -4.09691h 0.506187v -8.19382h 0.506187v 2.56057h 0.506187v -16.3876h 0.506187v 17.4119h 0.506187v -5.63325h 0.506187v 23.0451h 0.506187v -11.2665h
 0.506187v -8.19382h 0.506187v -8.19382h 0.506187v 0.512113h 0.506187v 11.7786h 0.506187v 10.7544h 0.506187v 14.3392h 0.506187v -13.3149h 0.506187v -14.3392h 0.506187v 1.53634h 0.506187v 18.9482h 0.506187v 0.512113h 0.506187v 18.4361h 0.506187v
 -18.9482h 0.506187v 9.73015h 0.506187v -23.5572h 0.506187v -1.02423h 0.506187v 16.3876h 0.506187v 12.8028h 0.506187v -8.19382h 0.506187v -4.60902h 0.506187v -4.60902h 0.506187v -2.04845h 0.506187v 1.53634h 0.506187v 16.3876h 0.506187v 7.16959h
 0.506187v -6.65747h 0.506187v -27.6541h 0.506187v 13.3149h 0.506187v -3.58479h 0.506187v 14.3392h 0.506187v -5.12113h 0.506187v 6.14536h 0.506187v 5.12113h 0.506187v -19.4603h 0.506187v 5.63325h 0.506187v -4.60902h 0.506187v 14.8513h 0.506187v
 5.63325h 0.506187v -6.65747h 0.506187v 1.53634h 0.506187v -18.9482h 0.506187v 16.3876h 0.506187v -4.09691h 0.506187v 19.9724h 0.506187v 11.2665h 0.506187v -24.0693h 0.506187v -7.16959h 0.506187v -3.58479h 0.506187v 3.58479h 0.506187v 32.7753h
 0.506187v -14.8513h 0.506187v -0.512113h 0.506187v -7.16959h 0.506187v -7.16959h 0.506187v 9.73015h 0.506187v 2.04845h 0.506187v 3.07268h 0.506187v 7.6817h 0.506187v -2.56057h 0.506187v -11.7786h 0.506187v 1.53634h 0.506187v 7.16959h 0.506187v
 1.02423h 0.506187v 9.73015h 0.506187v 10.2423h 0.506187v -19.9724h 1.01237v -9.73015h 0.506187v 20.4845h 0.506187v -5.63325h 0.506187v 15.3634h 0.506187v -7.6817h 0.506187v 0.512113h 0.506187v 3.58479h 0.506187v -10.7544h 0.506187v 15.8755h
 0.506187v 8.19382h 0.506187v -12.8028h 0.506187v 3.07268h 0.506187v 1.53634h 0.506187v -0.512113h 0.506187v 1.53634h 0.506187v 6.14536h 0.506187v 4.09691h 0.506187v -0.512113h 0.506187v 4.09691h 0.506187v -14.3392h 0.506187v 3.58479h 0.506187v
 11.2665h 0.506187v 4.60902h 0.506187v -1.02423h 0.506187v -12.2907h 0.506187v 4.60902h 1.01237v 3.58479h 0.506187v 1.02423h 0.506187v 11.7786h 0.506187v -8.70593h 0.506187v -6.14536h 0.506187v 11.7786h 0.506187v -11.7786h 0.506187v 17.4119h
 0.506187v 4.60902h 0.506187v -7.6817h 0.506187v 3.07268h 0.506187v -4.09691h 0.506187v 4.60902h 0.506187v -1.53634h 0.506187v -1.02423h 0.506187v 13.8271h 0.506187v -3.58479h 0.506187v -7.16959h 0.506187v -7.16959h 0.506187v 6.65747h 0.506187v
 2.56057h 0.506187v 5.63325h 0.506187v -4.09691h 0.506187v 3.58479h 0.506187v -3.58479h 0.506187v -1.53634h 0.506187v -3.07268h 0.506187v -4.09691h 0.506187v 14.3392h 0.506187v -3.58479h 0.506187v -7.16959h 0.506187v 8.19382h 0.506187v -5.12113h
 0.506187v 4.09691h 0.506187v 5.12113h 0.506187v -7.6817h 0.506187v -2.56057h 0.506187v 4.09691h 0.506187v -2.56057h 0.506187v 2.56057h 0.506187v 6.14536h 0.506187v -2.56057h 0.506187v 3.07268h 0.506187v -4.60902h 0.506187v -5.12113h 0.506187v
 3.58479h 0.506187v 3.07268h 1.01237v -0.512113h 0.506187v 3.07268h 0.506187v -7.6817h 0.506187v 1.53634h 0.506187v -4.60902h 0.506187v 14.8513h 0.506187v -0.512113h 0.506187v -10.2423h 0.506187v -6.65747h 0.506187v 0.512113h 0.506187v -9.21804h
 0.506187v 18.4361h 0.506187v -3.07268h 0.506187v 2.56057h 0.506187v -13.8271h 0.506187v 8.19382h 0.506187v -4.09691h 0.506187v 1.02423h 0.506187v 6.65747h 0.506187v 0.512113h 0.506187v -1.53634h 0.506187v 2.04845h 0.506187v -6.65747h 0.506187v
 5.12113h 0.506187v -8.70593h 0.506187v 8.70593h 0.506187v -3.58479h 0.506187v 1.02423h 0.506187v -5.63325h 0.506187v -4.09691h 0.506187v 4.60902h 0.506187v 5.12113h 0.506187v 2.56057h 0.506187v 5.63325h 0.506187v -28.1662h 0.506187v 14.3392h
 1.01237v 3.58479h 0.506187v 6.14536h 0.506187v -0.512113h 0.506187v -7.6817h 0.506187v 7.6817h 0.506187v -0.512113h 0.506187v -1.53634h 0.506187v -4.09691h 0.506187v 6.65747h 0.506187v -3.07268h 0.506187v 1.53634h 0.506187v -5.63325h 0.506187v
 4.60902h 0.506187v 1.02423h 0.506187v 4.60902h 0.506187v -5.12113h 0.506187v 7.16959h 1.01237v -5.63325h 0.506187v 2.04845h 0.506187v -3.58479h 0.506187v 6.14536h 0.506187v 7.16959h 0.506187v -11.7786h 0.506187v 1.02423h 0.506187v 6.65747h 0.506187v
 -0.512113h 0.506187v -1.02423h 0.506187v 2.04845h 0.506187v 5.12113h 0.506187v -5.63325h 0.506187v 9.21804h 0.506187v -9.21804h 0.506187v 0.512113h 0.506187v 5.63325h 0.506187v 4.09691h 0.506187v -2.56057h 0.506187v -15.3634h 0.506187v 14.3392h
 0.506187v -4.60902h 0.506187v 6.14536h 0.506187v 5.12113h 0.506187v -1.02423h 0.506187v -6.65747h 0.506187v 1.53634h 0.506187v -2.56057h 0.506187v 3.58479h 0.506187v 6.14536h 0.506187v -3.58479h 0.506187v -2.56057h 0.506187v 3.58479h 0.506187v
 -2.04845h 0.506187v 5.63325h 0.506187v -1.53634h 0.506187v -6.65747h 0.506187v 3.07268h 0.506187v 2.04845h 0.506187v 1.53634h 0.506187v 1.53634h 0.506187v -3.58479h 0.506187v 7.16959h 0.506187v -2.56057h 0.506187v -4.09691h 0.506187v 2.04845h
 0.506187v 2.56057h 0.506187v -3.07268h 0.506187v 3.58479h 0.506187v -1.02423h 0.506187v 1.53634h 1.01237v -2.56057h 0.506187v 3.07268h 0.506187v -0.512113h 0.506187v 1.53634h 0.506187v 0.512113h 0.506187v -3.07268h 0.506187v 3.07268h 0.506187v
 -2.04845h 0.506187v -1.02423h 0.506187v 0.512113h 0.506187v 2.56057h 0.506187v 1.02423h 0.506187v -2.04845h 1.01237v 2.56057h 1.01237v 2.56057h 0.506187v -0.512113h 0.506187v -2.04845h 0.506187v -1.02423h 0.506187v 1.53634h 0.506187v -1.02423h
 0.506187v 1.02423h 1.01237v -3.07268h 0.506187v 3.07268h 0.506187v -1.53634h 0.506187v 3.07268h 0.506187v -2.56057h 0.506187v 1.53634h 1.01237v -1.02423h 0.506187v -1.53634h 0.506187v 4.09691h 0.506187v -2.04845h 0.506187v 2.04845h 0.506187v
 -3.07268h 0.506187v 0.512113h 0.506187v 1.53634h 0.506187v 0.512113h 0.506187v 0.512113h 0.506187v -3.07268h 0.506187v 2.04845h 0.506187v -1.53634h 0.506187v 2.04845h 0.506187v -2.56057h 0.506187v 0.512113h 0.506187v 3.07268h 0.506187v -0.512113h
 0.506187v -2.04845h 0.506187v 1.02423h 0.506187v -2.04845h 0.506187v 2.04845h 0.506187v -2.56057h 0.506187v 1.02423h 0.506187v 0.512113h 0.506187v 0.512113h 0.506187v 2.56057h 0.506187v -2.04845h 0.506187v 0.512113h 0.506187v -1.53634h 0.506187v
 0.512113h 0.506187v 1.02423h 0.506187v -2.04845h 0.506187v 2.04845h 0.506187v -1.02423h 0.506187v 1.02423h 0.506187v -0.512113h 0.506187v -0.512113h 1.01237v 1.02423h 0.506187v -2.56057h 0.506187v 0.512113h 0.506187v 1.02423h 0.506187v 1.53634h
 0.506187v 1.02423h 0.506187v -4.60902h 0.506187v 0.512113h 0.506187v 1.02423h 0.506187v 2.04845h 0.506187v -2.04845h 0.506187v 1.53634h 0.506187v 0.512113h 0.506187v -2.04845h 0.506187v 2.04845h 0.506187v -1.02423h 0.506187v -2.04845h 0.506187v
 1.02423h 0.506187v 1.02423h 1.51856v 1.02423h 0.506187v -1.53634h 0.506187v 1.02423h 0.506187v 0.512113h 0.506187v -0.512113h 0.506187v -1.53634h 0.506187v -1.02423h 0.506187v 1.53634h 0.506187v 1.02423h 0.506187v 0.512113h 0.506187v 0.512113h
 0.506187v -0.512113h 0.506187v -0.512113h 0.506187v -0.512113h 0.506187v 0.512113h 0.506187v -1.02423h 0.506187v 1.02423h 0.506187v 0.512113h 0.506187v -1.02423h 0.506187v -0.512113h 0.506187v 0.512113h 0.506187v -1.02423h 0.506187v 0.512113h
 0.506187v 0.512113h 0.506187v -0.512113h 0.506187v 1.02423h 0.506187v -1.02423h 0.506187v -1.53634h 1.01237v -0.512113h 0.506187v 3.07268h 0.506187v -1.02423h 0.506187v 1.02423h 0.506187v 0.512113h 0.506187v -2.04845h 1.01237v -1.02423h 0.506187v
 1.53634h 1.01237v 1.53634h 0.506187v -0.512113h 1.01237v 1.02423h 0.506187v -1.53634h 0.506187" fill="none" stroke="#000099"/>
<path d="M57.1929,346.022h 453.543" fill="none" stroke="black"/>
<path d="M57.1929,336.795v 9.22726" fill="none" stroke="black"/>
<path d="M70.1513,341.409v 4.61363" fill="none" stroke="black"/>
<path d="M83.1097,341.409v 4.61363" fill="none" stroke="black"/>
<path d="M96.0681,341.409v 4.61363" fill="none" stroke="black"/>
<path d="M109.026,341.409v 4.61363" fill="none" stroke="black"/>
<path d="M121.985,336.795v 9.22726" fill="none" stroke="black"/>
<path d="M134.943,341.409v 4.61363" fill="none" stroke="black"/>
<path d="M147.902,341.409v 4.61363" fill="none" stroke="black"/>
<path d="M160.86,341.409v 4.61363" fill="none" stroke="black"/>
<path d="M173.818,341.409v 4.61363" fill="none" stroke="black"/>
<path d="M186.777,336.795v 9.22726" fill="none" stroke="black"/>
<path d="M199.735,341.409v 4.61363" fill="none" stroke="black"/>
<path d="M212.693,341.409v 4.61363" fill="none" stroke="black"/>
<path d="M225.652,341.409v 4.61363" fill="none" stroke="black"/>
<path d="M238.61,341.409v 4.61363" fill="none" stroke="black"/>
<path d="M251.569,336.795v 9.22726" fill="none" stroke="black"/>
<path d="M264.527,341.409v 4.61363" fill="none" stroke="black"/>
<path d="M277.485,341.409v 4.61363" fill="none" stroke="black"/>
<path d="M290.444,341.409v 4.61363" fill="none" stroke="black"/>
<path d="M303.402,341.409v 4.61363" fill="none" stroke="black"/>
<path d="M316.361,336.795v 9.22726" fill="none" stroke="black"/>
<path d="M329.319,341.409v 4.61363" fill="none" stroke="black"/>
<path d="M342.277,341.409v 4.61363" fill="none" stroke="black"/>
<path d="M355.236,341.409v 4.61363" fill="none" stroke="black"/>
<path d="M368.194,341.409v 4.61363" fill="none" stroke="black"/>
<path d="M381.152,336.795v 9.22726" fill="none" stroke="black"/>
<path d="M394.111,341.409v 4.61363" fill="none" stroke="black"/>
<path d="M407.069,341.409v 4.61363" fill="none" stroke="black"/>
<path d="M420.028,341.409v 4.61363" fill="none" stroke="black"/>
<path d="M432.986,341.409v 4.61363" fill="none" stroke="black"/>
<path d="M445.944,336.795v 9.22726" fill="none" stroke="black"/>
<path d="M458.903,341.409v 4.61363" fill="none" stroke="black"/>
<path d="M471.861,341.409v 4.61363" fill="none" stroke="black"/>
<path d="M484.819,341.409v 4.61363" fill="none" stroke="black"/>
<path d="M497.778,341.409v 4.61363" fill="none" stroke="black"/>
<path d="M510.736,336.795v 9.22726" fill="none" stroke="black"/>
<text xml:space="preserve" x="53.446" y="358.403" fill="black" font-size="12.8453" font-family="Helvetica">0</text>
<text xml:space="preserve" x="118.61" y="358.403" fill="black" font-size="12.8453" font-family="Helvetica">5</text>
<text xml:space="preserve" x="179.702" y="358.403" fill="black" font-size="12.8453" font-family="Helvetica">10</text>
<text xml:space="preserve" x="244.051" y="358.403" fill="black" font-size="12.8453" font-family="Helvetica">15</text>
<text xml:space="preserve" x="309.216" y="358.403" fill="black" font-size="12.8453" font-family="Helvetica">20</text>
<text xml:space="preserve" x="373.565" y="358.403" fill="black" font-size="12.8453" font-family="Helvetica">25</text>
<text xml:space="preserve" x="438.73" y="358.403" fill="black" font-size="12.8453" font-family="Helvetica">30</text>
<text xml:space="preserve" x="503.079" y="358.403" fill="black" font-size="12.8453" font-family="Helvetica">35</text>
<text xml:space="preserve" x="441.173" y="370.622" fill="black" font-size="12.8453" font-family="Helvetica">Energy [keV]</text>
<path d="M57.1929,346.022v -307.575" fill="none" stroke="black"/>
<path d="M70.7992,346.022h -13.6063" fill="none" stroke="black"/>
<path d="M63.9961,335.78h -6.80315" fill="none" stroke="black"/>
<path d="M63.9961,325.538h -6.80315" fill="none" stroke="black"/>
<path d="M63.9961,315.295h -6.80315" fill="none" stroke="black"/>
<path d="M63.9961,305.053h -6.80315" fill="none" stroke="black"/>
<path d="M70.7992,294.811h -13.6063" fill="none" stroke="black"/>
<path d="M63.9961,284.569h -6.80315" fill="none" stroke="black"/>
<path d="M63.9961,274.326h -6.80315" fill="none" stroke="black"/>
<path d="M63.9961,264.084h -6.80315" fill="none" stroke="black"/>
<path d="M63.9961,253.842h -6.80315" fill="none" stroke="black"/>
<path d="M70.7992,243.6h -13.6063" fill="none" stroke="black"/>
<path d="M63.9961,233.357h -6.80315" fill="none" stroke="black"/>
<path d="M63.9961,223.115h -6.80315" fill="none" stroke="black"/>
<path d="M63.9961,212.873h -6.80315" fill="none" stroke="black"/>
<path d="M63.9961,202.63h -6.80315" fill="none" stroke="black"/>
<path d="M70.7992,192.388h -13.6063" fill="none" stroke="black"/>
<path d="M63.9961,182.146h -6.80315" fill="none" stroke="black"/>
<path d="M63.9961,171.904h -6.80315" fill="none" stroke="black"/>
<path d="M63.9961,161.661h -6.80315" fill="none" stroke="black"/>
<path d="M63.9961,151.419h -6.80315" fill="none" stroke="black"/>
<path d="M70.7992,141.177h -13.6063" fill="none" stroke="black"/>
<path d="M63.9961,130.935h -6.80315" fill="none" stroke="black"/>
<path d="M63.9961,120.692h -6.80315" fill="none" stroke="black"/>
<path d="M63.9961,110.45h -6.80315" fill="none" stroke="black"/>
<path d="M63.9961,100.208h -6.80315" fill="none" stroke="black"/>
<path d="M70.7992,89.9655h -13.6063" fill="none" stroke="black"/>
<path d="M63.9961,79.7233h -6.80315" fill="none" stroke="black"/>
<path d="M63.9961,69.481h -6.80315" fill="none" stroke="black"/>
<path d="M63.9961,59.2387h -6.80315" fill="none" stroke="black"/>
<path d="M63.9961,48.9965h -6.80315" fill="none" stroke="black"/>
<path d="M70.7992,38.7542h -13.6063" fill="none" stroke="black"/>
<path d="M70.7992,38.7542h -13.6063" fill="none" stroke="black"/>
<text xml:space="preserve" x="47.7441" y="350.258" fill="black" font-size="12.8453" font-family="Helvetica">0</text>
<text xml:space="preserve" x="33.8967" y="298.941" fill="black" font-size="12.8453" font-family="Helvetica">100</text>
<text xml:space="preserve" x="33.8967" y="248.439" fill="black" font-size="12.8453" font-family="Helvetica">200</text>
<text xml:space="preserve" x="33.8967" y="197.122" fill="black" font-size="12.8453" font-family="Helvetica">300</text>
<text xml:space="preserve" x="33.8967" y="145.805" fill="black" font-size="12.8453" font-family="Helvetica">400</text>
<text xml:space="preserve" x="33.8967" y="94.4882" fill="black" font-size="12.8453" font-family="Helvetica">500</text>
<text xml:space="preserve" x="33.8967" y="43.1713" fill="black" font-size="12.8453" font-family="Helvetica">600</text>
<g transform="rotate(-90,20.8638,70.0516)">
<text xml:space="preserve" x="20.8638" y="70.0516" fill="black" font-size="12.8453" font-family="Helvetica">Event</text>
</g>
<text xml:space="preserve" x="206.582" y="18.7347" fill="black" font-size="18.0316" font-family="Helvetica">Am_009_calibrated</text>
<rect x="442.705" y="24.9905" width="113.386" height="61.5151" fill="white"/>
<path d="M442.705,86.5056h 113.386" fill="none" stroke="black"/>
<path d="M556.091,86.5056v -61.5151" fill="none" stroke="black"/>
<path d="M556.091,24.9905h -113.386" fill="none" stroke="black"/>
<path d="M442.705,24.9905v 61.5151" fill="none" stroke="black"/>
<text xml:space="preserve" x="446.061" y="36.6549" fill="black" font-size="12.1556" font-family="Helvetica">Am_009_calibrated</text>
<path d="M442.705,40.3693h 113.386" fill="none" stroke="black"/>
<text xml:space="preserve" x="447.69" y="52.946" fill="black" font-size="12.3904" font-family="Helvetica">Entries </text>
<text xml:space="preserve" x="506.338" y="52.946" fill="black" font-size="12.3904" font-family="Helvetica"> 116742</text>
<text xml:space="preserve" x="447.69" y="67.6079" fill="black" font-size="12.3904" font-family="Helvetica">Mean  </text>
<text xml:space="preserve" x="512.854" y="67.6079" fill="black" font-size="12.3904" font-family="Helvetica">  17.74</text>
<text xml:space="preserve" x="447.69" y="83.0844" fill="black" font-size="12.3904" font-family="Helvetica">Std Dev   </text>
<text xml:space="preserve" x="515.298" y="83.0844" fill="black" font-size="12.3904" font-family="Helvetica">  5.081</text>
<path d="M213.86,302.916l 2.33251, -3.98316l 2.33251, -4.00158l 2.33251, -3.97144l 2.33251, -3.89377l 2.33251, -3.7728l 2.33251, -3.61648l 2.33251, -3.43694l 2.33251, -3.25077l 2.33251, -3.07907l 2.33251, -2.94709l 2.33251, -2.88338l 2.33251,
 -2.91833l 2.33251, -3.08212l 2.33251, -3.40191l 2.33251, -3.89854l 2.33251, -4.58282l 2.33251, -5.4518l 2.33251, -6.48551l 2.33251, -7.64463l 2.33251, -8.8697l 2.33251, -10.0824l 2.33251, -11.189l 2.33251, -12.0869l 2.33251, -12.6721l 2.33251,
 -12.8497l 2.33251, -12.5438l 2.33251, -11.7074l 2.33251, -10.3305l 2.33251, -8.44422l 2.33251, -6.12183l 2.33251, -3.47495l 2.33251, -0.645297l 2.33251, 2.20695l 2.33251, 4.91722l 2.33251, 7.33133l 2.33251, 9.3192l 2.33251, 10.7861l 2.33251,
 11.6799l 2.33251, 11.994l 2.33251, 11.7654l 2.33251, 11.0687l 2.33251, 10.0072l 2.33251, 8.70137l 2.33251, 7.27744l 2.33251, 5.85623l 2.33251, 4.54395l 2.33251, 3.42525l 2.33251, 2.55918l 2.33251, 1.97773" fill="none" stroke="#0000ff"
 stroke-width="2"/>
<path d="M328.153,231.013l 2.33251, 1.68697l 2.33251, 1.66999l 2.33251, 1.8913l 2.33251, 2.30198l 2.33251, 2.84498l 2.33251, 3.4603l 2.33251, 4.08943l 2.33251, 4.67918l 2.33251, 5.18439l 2.33251, 5.56988l 2.33251, 5.81137l 2.33251, 5.89565l 2.33251,
 5.82004l 2.33251, 5.59134l 2.33251, 5.2244l 2.33251, 4.74041l 2.33251, 4.16516l 2.33251, 3.52722l 2.33251, 2.8563l 2.33251, 2.18172l 2.33251, 1.5311l 2.33251, 0.929248l 2.33251, 0.397306l 2.33251, -0.0478863l 2.33251, -0.394229l 2.33251, -0.634576l
 2.33251, -0.766756l 2.33251, -0.7934l 2.33251, -0.721581l 2.33251, -0.562284l 2.33251, -0.329721l 2.33251, -0.0405053l 2.33251, 0.287252l 2.33251, 0.634909l 2.33251, 0.984243l 2.33251, 1.31835l 2.33251, 1.62243l 2.33251, 1.88438l 2.33251, 2.09527l
 2.33251, 2.24949l 2.33251, 2.34477l 2.33251, 2.38197l 2.33251, 2.36467l 2.33251, 2.29867l 2.33251, 2.19139l 2.33251, 2.05124l 2.33251, 1.88704l 2.33251, 1.70742l 2.33251, 1.52043" fill="none" stroke="#0000ff" stroke-width="2"/>
<path d="M442.446,338.595l 2.33251, 1.33317" fill="none" stroke="#0000ff" stroke-width="2"/>
<path d="M213.86,302.955l 2.33251, -3.95589l 2.33251, -3.95718l 2.33251, -3.90042l 2.33251, -3.7822l 2.33251, -3.60065l 2.33251, -3.35561l 2.33251, -3.04877l 2.33251, -2.68367l 2.33251, -2.26571l 2.33251, -1.80202l 2.33251, -1.30125l 2.33251,
 -0.773324l 2.33251, -0.229118l 2.33251, 0.319932l 2.33251, 0.86222l 2.33251, 1.38637l 2.33251, 1.88166l 2.33251, 2.33833l 2.33251, 2.74798l 2.33251, 3.10375l 2.33251, 3.40055l 2.33251, 3.63514l 2.33251, 3.80614l 2.33251, 3.914l 2.33251, 3.96087l
 2.33251, 3.95038l 2.33251, 3.88745l 2.33251, 3.77797l 2.33251, 3.62855l 2.33251, 3.44622l 2.33251, 3.23818l 2.33251, 3.01147l 2.33251, 2.77284l 2.33251, 2.52852l 2.33251, 2.28407l 2.33251, 2.04432l 2.33251, 1.81327l 2.33251, 1.59413l 2.33251,
 1.38929l 2.33251, 1.2004l 2.33251, 1.02843l 2.33251, 0.873734l 2.33251, 0.736174l 2.33251, 0.615195l 2.33251, 0.509929l 2.33251, 0.419274l 2.33251, 0.341985l 2.33251, 0.276731l 2.33251, 0.222164" fill="none" stroke="#ff0000" stroke-width="2"/>
<path d="M328.153,345.246l 2.33251, 0.17696l 2.33251, 0.139856l 2.33251, 0.109675l 2.33251, 0.0853431l 2.33251, 0.0658994l 2.33251, 0.0504963l 2.33251, 0.0383985l 2.33251, 0.0289773l 2.33251, 0.0217021l 2.33251, 0.0161307l 2.33251, 0.0423713h
 88.6353" fill="none" stroke="#ff0000" stroke-width="2"/>
<path d="M442.446,346.022h 2.33251" fill="none" stroke="#ff0000" stroke-width="2"/>
<path d="M213.86,345.983l 2.33251, -0.0272498l 2.33251, -0.0443706l 2.33251, -0.0709682l 2.33251, -0.11149l 2.33251, -0.172019l 2.33251, -0.260644l 2.33251, -0.387794l 2.33251, -0.566486l 2.33251, -0.812374l 2.33251, -1.1435l 2.33251, -1.57965l
 2.33251, -2.14115l 2.33251, -2.84707l 2.33251, -3.71282l 2.33251, -4.74721l 2.33251, -5.94908l 2.33251, -7.30396l 2.33251, -8.78111l 2.33251, -10.3314l 2.33251, -11.887l 2.33251, -13.3621l 2.33251, -14.6575l 2.33251, -15.6658l 2.33251, -16.2803l
 2.33251, -16.4041l 2.33251, -15.9606l 2.33251, -14.9035l 2.33251, -13.2238l 2.33251, -10.9553l 2.33251, -8.1749l 2.33251, -4.99913l 2.33251, -1.57613l 2.33251, 1.92564l 2.33251, 5.33122l 2.33251, 8.4736l 2.33251, 11.2073l 2.33251, 13.4196l 2.33251,
 15.0377l 2.33251, 16.0323l 2.33251, 16.4162l 2.33251, 16.2394l 2.33251, 15.5808l 2.33251, 14.5388l 2.33251, 13.2206l 2.33251, 11.7331l 2.33251, 10.1746l 2.33251, 8.62881l 2.33251, 7.16201l 2.33251, 5.82136" fill="none" stroke="#ff0000"
 stroke-width="2"/>
<path d="M328.153,327.886l 2.33251, 4.63587l 2.33251, 3.61853l 2.33251, 2.76932l 2.33251, 2.07866l 2.33251, 1.53062l 2.33251, 1.10592l 2.33251, 0.784201l 2.33251, 0.545826l 2.33251, 0.372962l 2.33251, 0.250216l 2.33251, 0.164837l 2.33251, 0.106642l
 2.33251, 0.0677598l 2.33251, 0.0422887l 2.33251, 0.0259249l 2.33251, 0.0370322h 76.9728" fill="none" stroke="#ff0000" stroke-width="2"/>
<path d="M442.446,346.022h 2.33251" fill="none" stroke="#ff0000" stroke-width="2"/>
<path d="M213.86,346.022h 32.6551l 2.33251, -0.0389391l 2.33251, -0.020114l 2.33251, -0.0294961l 2.33251, -0.0427348l 2.33251, -0.0611689l 2.33251, -0.0864945l 2.33251, -0.120818l 2.33251, -0.1667l 2.33251, -0.227181l 2.33251, -0.305779l 2.33251,
 -0.406453l 2.33251, -0.533507l 2.33251, -0.69144l 2.33251, -0.88472l 2.33251, -1.11748l 2.33251, -1.39315l 2.33251, -1.71399l 2.33251, -2.08062l 2.33251, -2.49152l 2.33251, -2.94249l 2.33251, -3.42629l 2.33251, -3.93234l 2.33251, -4.44659l 2.33251,
 -4.95163l 2.33251, -5.42716l 2.33251, -5.85059l 2.33251, -6.19808l 2.33251, -6.44575l 2.33251, -6.57113l 2.33251, -6.55465l 2.33251, -6.38121l 2.33251, -6.04152l 2.33251, -5.53326l 2.33251, -4.86178l 2.33251, -4.04035" fill="none" stroke="#ff0000"
 stroke-width="2"/>
<path d="M328.153,250.005l 2.33251, -3.08991l 2.33251, -2.03823l 2.33251, -0.918573l 2.33251, 0.232019l 2.33251, 1.37478l 2.33251, 2.47138l 2.33251, 3.48607l 2.33251, 4.38759l 2.33251, 5.15081l 2.33251, 5.75779l 2.33251, 6.19845l 2.33251, 6.47058l
 2.33251, 6.57942l 2.33251, 6.53674l 2.33251, 6.35962l 2.33251, 6.06898l 2.33251, 5.68805l 2.33251, 5.24085l 2.33251, 4.75084l 2.33251, 4.23981l 2.33251, 3.72695l 2.33251, 3.22835l 2.33251, 2.75667l 2.33251, 2.32113l 2.33251, 1.9277l 2.33251,
 1.57943l 2.33251, 1.27694l 2.33251, 1.01887l 2.33251, 0.802454l 2.33251, 0.623915l 2.33251, 0.478946l 2.33251, 0.363037l 2.33251, 0.271743l 2.33251, 0.200885l 2.33251, 0.146672l 2.33251, 0.105778l 2.33251, 0.0753545l 2.33251, 0.0530299l 2.33251,
 0.0368681l 2.33251, 0.0253233l 2.33251, 0.0171849l 2.33251, 0.0328289h 16.3276" fill="none" stroke="#ff0000" stroke-width="2"/>
<path d="M442.446,346.022h 2.33251" fill="none" stroke="#ff0000" stroke-width="2"/>
<path d="M213.86,346.022h 107.295l 2.33251, -0.0367811l 2.33251, -0.0177811l 2.33251, -0.0254425" fill="none" stroke="#ff0000" stroke-width="2"/>
<path d="M328.153,345.942l 2.33251, -0.0359523l 2.33251, -0.0501682l 2.33251, -0.0691257l 2.33251, -0.0940435l 2.33251, -0.126317l 2.33251, -0.167495l 2.33251, -0.219233l 2.33251, -0.283223l 2.33251, -0.361089l 2.33251, -0.454261l 2.33251, -0.563813l
 2.33251, -0.690279l 2.33251, -0.833466l 2.33251, -0.992251l 2.33251, -1.16442l 2.33251, -1.34651l 2.33251, -1.53377l 2.33251, -1.72015l 2.33251, -1.89841l 2.33251, -2.06035l 2.33251, -2.19717l 2.33251, -2.29987l 2.33251, -2.35981l 2.33251, -2.36928l
 2.33251, -2.32207l 2.33251, -2.21409l 2.33251, -2.04374l 2.33251, -1.81231l 2.33251, -1.52405l 2.33251, -1.18621l 2.33251, -0.808674l 2.33251, -0.403547l 2.33251, 0.0155065l 2.33251, 0.434023l 2.33251, 0.83757l 2.33251, 1.21257l 2.33251, 1.54707l
 2.33251, 1.83135l 2.33251, 2.0584l 2.33251, 2.22417l 2.33251, 2.32759l 2.33251, 2.37045l 2.33251, 2.35703l 2.33251, 2.29367l 2.33251, 2.18816l 2.33251, 2.04918l 2.33251, 1.88573l 2.33251, 1.70661l 2.33251, 1.51993" fill="none" stroke="#ff0000"
 stroke-width="2"/>
<path d="M442.446,338.596l 2.33251, 1.33286" fill="none" stroke="#ff0000" stroke-width="2"/>
<text xml:space="preserve" x="206.582" y="18.7347" fill="black" font-size="18.0316" font-family="Helvetica">Am_009_calibrated</text></svg>
