<?xml version="1.0" standalone="no"?>
<svg width="567.429" height="384.68" viewBox="0 0 567.429 384.68" xmlns="http://www.w3.org/2000/svg" shape-rendering="crispEdges">
<title>
img/week1/calibrated_hist_high_gain/Am_009.svg
</title>
<desc>
Creator: ROOT Version 6.22/09
CreationDate: Tue Jul 13 18:41:14 2021</desc>
<defs>
</defs>
<rect x="0.5" y="0" width="566.929" height="384.18" fill="white"/>
<rect x="57.1929" y="38.418" width="453.543" height="307.344" fill="white"/>
<rect x="57.1929" y="38.418" width="453.543" height="307.344" fill="none" stroke="black"/>
<path d="M57.1929,345.762h 65.1083v -0.134764h 0.442913v -0.673822h 0.442913v -2.15623h 0.442913v -9.02922h 0.442913v -2.15623h 0.442913v 2.15623h 0.442913v 0.539058h 0.442913v 0.673822h 0.442913v -0.134764h 0.442913v -3.23435h 0.442913v -0.269529h
 0.442913v 1.34764h 0.442913v 3.09958h 0.442913v -2.56052h 0.442913v 1.8867h 0.442913v -1.75194h 0.442913v 1.07812h 0.442913v -0.673822h 0.442913v -0.269529h 0.885827v 0.269529h 0.442913v -0.943351h 0.442913v 1.61717h 0.442913v -2.291h 0.442913v
 1.61717h 0.442913v 1.48241h 0.442913v 1.21288h 0.442913v -0.943351h 0.442913v -1.75194h 0.442913v 1.21288h 0.442913v -2.02147h 0.442913v 1.61717h 0.442913v 4.04293h 0.442913v -3.63864h 0.442913v 0.673822h 0.442913v -1.48241h 0.442913v -1.34764h
 0.442913v 0.269529h 0.442913v 1.07812h 0.442913v 1.61717h 0.442913v -0.673822h 0.442913v -2.96482h 0.442913v 0.134764h 0.442913v 1.8867h 0.442913v 2.02147h 0.442913v -2.83005h 0.442913v 0.404293h 0.442913v 0.673822h 0.442913v 2.56052h 0.442913v
 -2.02147h 0.442913v -0.404293h 0.442913v -0.673822h 0.442913v 1.21288h 0.442913v -0.134764h 0.442913v -0.404293h 0.442913v 0.404293h 0.442913v 0.808587h 0.442913v -1.21288h 0.442913v 0.673822h 0.442913v 0.943351h 0.442913v -2.15623h 0.442913v
 1.07812h 0.442913v -1.8867h 0.442913v -0.943351h 0.442913v 1.75194h 0.442913v 1.8867h 0.442913v -1.75194h 0.442913v 1.48241h 0.442913v -0.943351h 0.442913v 0.943351h 0.442913v -0.943351h 0.442913v 1.34764h 0.442913v -1.48241h 0.442913v 1.34764h
 0.442913v -4.1777h 0.442913v 2.56052h 0.442913v 2.69529h 0.442913v -2.02147h 0.442913v -0.808587h 0.442913v 2.15623h 0.442913v -0.943351h 0.442913v -2.15623h 0.442913v 0.943351h 0.442913v 0.404293h 0.442913v 2.69529h 0.442913v -3.7734h 0.442913v
 0.808587h 0.442913v 1.21288h 0.442913v -0.404293h 0.442913v -0.134764h 0.885827v 0.673822h 0.442913v -1.07812h 0.442913v -0.404293h 0.442913v -0.269529h 0.442913v 1.34764h 0.442913v -1.8867h 0.442913v 4.71676h 0.442913v -2.83005h 0.442913v 0.673822h
 0.442913v -2.15623h 0.442913v 1.34764h 0.442913v 0.943351h 0.442913v -1.48241h 0.442913v 0.269529h 0.442913v 1.07812h 0.442913v -1.48241h 0.442913v 1.07812h 0.442913v -1.8867h 0.442913v -0.673822h 0.442913v 4.44723h 0.442913v -1.75194h 0.442913v
 -0.269529h 0.442913v -1.34764h 0.442913v -0.673822h 0.442913v 0.539058h 0.442913v 2.291h 0.442913v 1.48241h 0.442913v -1.8867h 0.442913v -1.21288h 0.442913v -1.61717h 0.442913v 4.04293h 0.442913v 0.134764h 0.442913v -2.02147h 0.885827v -1.75194h
 0.442913v -0.269529h 0.442913v 1.21288h 0.442913v -0.269529h 0.442913v 1.21288h 0.442913v 3.50388h 0.442913v -2.15623h 0.442913v -1.21288h 0.442913v -1.34764h 0.442913v -0.404293h 0.442913v 0.943351h 0.442913v 0.943351h 0.442913v 2.291h 0.442913v
 -2.96482h 0.442913v 0.539058h 0.442913v 0.404293h 0.442913v -0.269529h 0.442913v 1.34764h 0.442913v -0.808587h 0.442913v -1.07812h 0.442913v 1.48241h 0.442913v -2.42576h 0.442913v 0.134764h 0.442913v -1.07812h 0.442913v 2.02147h 0.442913v 1.8867h
 0.442913v -1.8867h 0.442913v -0.539058h 0.442913v -0.943351h 0.442913v 2.291h 0.442913v -0.269529h 0.442913v 1.21288h 0.442913v -3.09958h 0.442913v -2.42576h 0.442913v 3.90817h 0.442913v -2.02147h 0.442913v 1.8867h 0.442913v -0.539058h 0.442913v
 2.96482h 0.442913v -2.291h 0.442913v -2.15623h 0.442913v -2.02147h 0.442913v 0.673822h 0.442913v -0.269529h 0.442913v 2.83005h 0.442913v 0.269529h 0.442913v -3.63864h 0.442913v 2.56052h 0.442913v -4.1777h 0.442913v 0.134764h 0.442913v 1.34764h
 0.442913v 4.44723h 0.442913v -3.90817h 0.442913v -1.34764h 0.442913v -0.943351h 0.442913v -0.134764h 0.442913v 3.63864h 0.442913v -1.34764h 0.442913v -0.134764h 0.442913v -1.61717h 0.442913v -0.808587h 0.442913v 0.404293h 0.442913v 0.134764h
 0.442913v -0.539058h 0.442913v 3.50388h 0.442913v -7.54681h 0.442913v 1.75194h 0.442913v 0.539058h 0.442913v 0.673822h 0.442913v 2.291h 0.442913v -2.15623h 0.442913v -0.404293h 0.442913v -0.269529h 0.442913v -0.539058h 0.442913v -1.8867h 0.442913v
 1.48241h 0.885827v 2.83005h 0.442913v -5.66011h 0.442913v 2.83005h 0.442913v -0.269529h 0.442913v -1.8867h 0.442913v 1.48241h 0.442913v 0.673822h 0.442913v -2.291h 0.442913v 1.21288h 0.442913v -1.07812h 0.442913v -2.96482h 0.442913v 2.96482h
 0.442913v 2.96482h 0.442913v -4.71676h 0.442913v 0.134764h 0.442913v 0.943351h 0.442913v -1.07812h 0.442913v 0.404293h 0.442913v 4.1777h 0.442913v -2.02147h 0.442913v -3.90817h 0.442913v 1.34764h 0.442913v 1.34764h 0.442913v -3.7734h 0.442913v
 1.61717h 0.442913v 3.36911h 0.442913v 1.07812h 0.442913v -6.46869h 0.442913v 3.23435h 0.442913v -0.943351h 0.442913v -1.07812h 0.442913v 1.8867h 0.442913v 0.134764h 0.442913v -2.96482h 0.442913v -0.404293h 0.442913v -4.98628h 0.442913v 3.7734h
 0.442913v 2.291h 0.442913v 0.404293h 0.442913v -2.15623h 0.442913v -2.69529h 0.442913v -2.291h 0.442913v -0.808587h 0.442913v 1.48241h 0.442913v 2.56052h 0.442913v 1.21288h 0.442913v -2.42576h 0.442913v -1.75194h 0.442913v -3.23435h 0.442913v
 0.673822h 0.442913v 0.404293h 0.442913v 1.21288h 0.442913v 2.83005h 0.442913v 0.404293h 0.442913v -12.8026h 0.442913v 6.0644h 0.442913v 0.539058h 0.442913v 0.539058h 0.442913v 3.09958h 0.442913v -0.539058h 0.442913v -5.66011h 0.442913v -0.404293h
 0.442913v -4.71676h 0.442913v 5.92964h 0.442913v -1.8867h 0.442913v 2.02147h 0.442913v -4.85152h 0.442913v -3.36911h 0.442913v 2.96482h 0.442913v -5.12105h 0.442913v 9.29875h 0.442913v -1.48241h 0.442913v -9.29875h 0.442913v 0.673822h 0.442913v
 -3.7734h 0.442913v -1.61717h 0.442913v 6.46869h 0.442913v 0.269529h 0.442913v -1.61717h 0.442913v -7.54681h 0.442913v 2.42576h 0.442913v 0.673822h 0.442913v 0.808587h 0.442913v -8.62493h 0.442913v 11.994h 0.442913v -5.92964h 0.442913v -2.56052h
 0.442913v -6.46869h 0.442913v 6.46869h 0.442913v 0.404293h 0.442913v 3.63864h 0.442913v 5.52534h 0.442913v -8.89445h 0.442913v -7.27728h 0.442913v 3.36911h 0.442913v -2.69529h 0.442913v 7.00775h 0.442913v -5.52534h 0.442913v 5.39058h 0.442913v
 -2.69529h 0.442913v -5.52534h 0.442913v -3.36911h 0.442913v 2.15623h 0.442913v 3.09958h 0.442913v 6.33393h 0.442913v -6.0644h 0.442913v -14.0155h 0.442913v 3.63864h 0.442913v 4.85152h 0.442913v 8.89445h 0.442913v 3.7734h 0.442913v -6.33393h
 0.442913v -7.81634h 0.442913v -0.673822h 0.442913v -6.0644h 0.442913v 12.5331h 0.442913v 11.7245h 0.442913v -4.58199h 0.442913v -4.71676h 0.442913v -4.44723h 0.442913v -2.15623h 0.442913v 3.90817h 0.442913v 12.1288h 0.442913v -3.36911h 0.442913v
 4.31246h 0.442913v -6.87299h 0.442913v -8.49016h 0.442913v 7.14252h 0.442913v 2.15623h 0.442913v 7.00775h 0.442913v -0.134764h 0.442913v 1.48241h 0.442913v -11.0507h 0.442913v 2.69529h 0.442913v 2.291h 0.442913v 4.85152h 0.442913v 8.22063h 0.442913v
 -10.1073h 0.442913v -4.71676h 0.442913v 3.7734h 0.442913v 5.66011h 0.442913v -4.44723h 0.442913v 10.9159h 0.442913v -5.66011h 0.442913v -5.66011h 0.442913v 4.04293h 0.442913v 2.02147h 0.442913v -1.75194h 0.442913v 8.22063h 0.442913v 5.52534h
 0.442913v -5.52534h 0.442913v -3.63864h 0.442913v -5.92964h 0.442913v 5.25581h 0.442913v 7.68157h 0.442913v 2.15623h 0.442913v -0.539058h 0.442913v -4.31246h 0.442913v 1.07812h 0.442913v -2.83005h 0.442913v 4.1777h 0.442913v -2.02147h 0.442913v
 7.9511h 0.442913v -5.12105h 0.442913v -2.96482h 0.442913v -1.61717h 0.442913v 2.69529h 0.442913v 3.36911h 0.442913v 1.21288h 0.442913v 2.96482h 0.442913v -5.66011h 0.442913v -1.07812h 0.442913v 1.75194h 0.442913v 2.69529h 0.442913v 2.15623h
 0.442913v 5.25581h 0.442913v -7.54681h 0.442913v 3.23435h 0.442913v -6.73822h 0.442913v 1.34764h 0.442913v 3.7734h 0.442913v 2.291h 0.442913v -0.808587h 0.442913v -2.56052h 0.442913v 0.404293h 0.442913v -0.943351h 0.442913v 0.134764h 0.442913v
 5.12105h 0.442913v 0.539058h 0.442913v -3.23435h 0.442913v -3.50388h 0.442913v 0.134764h 0.442913v 1.21288h 0.442913v 4.1777h 0.442913v -1.21288h 0.442913v -0.404293h 0.442913v 1.75194h 0.442913v -4.1777h 0.442913v -0.808587h 0.442913v 2.42576h
 0.442913v 3.09958h 0.442913v -0.134764h 0.442913v -0.808587h 0.442913v -0.943351h 0.442913v -3.90817h 0.442913v 6.19916h 0.442913v -3.50388h 0.442913v 7.00775h 0.442913v -1.61717h 0.442913v -2.291h 0.442913v -3.23435h 0.442913v 0.808587h 0.442913v
 0.539058h 0.442913v 6.46869h 0.442913v -1.75194h 0.442913v -1.48241h 0.442913v -0.673822h 0.442913v -2.56052h 0.442913v 1.61717h 0.442913v 2.56052h 0.442913v 0.134764h 0.442913v 0.943351h 0.442913v 1.34764h 0.442913v -5.79487h 0.442913v 4.31246h
 0.442913v -2.83005h 0.442913v 3.36911h 0.442913v 3.09958h 0.442913v 0.134764h 0.442913v -4.31246h 0.442913v -0.134764h 0.442913v -0.539058h 0.442913v 2.96482h 0.442913v 0.808587h 0.442913v 1.61717h 0.442913v -0.808587h 0.442913v 0.673822h 0.442913v
 -1.75194h 0.442913v -0.134764h 0.442913v 5.66011h 0.442913v -2.42576h 0.442913v -0.134764h 0.442913v -0.404293h 0.442913v -0.943351h 0.442913v 2.02147h 0.442913v 0.673822h 0.442913v 1.07812h 0.442913v 0.673822h 0.885827v 0.539058h 0.442913v -3.7734h
 0.442913v 3.09958h 0.442913v 0.808587h 0.442913v 3.63864h 0.442913v -4.71676h 0.442913v 0.404293h 0.442913v -0.673822h 0.442913v 1.34764h 0.442913v 1.07812h 0.442913v -0.808587h 0.442913v 2.69529h 0.442913v -1.8867h 0.442913v 1.34764h 0.442913v
 -1.21288h 0.442913v -0.134764h 0.442913v 3.09958h 0.442913v 1.34764h 0.442913v -0.269529h 0.442913v -1.07812h 0.442913v -1.07812h 0.442913v 0.808587h 0.885827v 1.75194h 0.442913v 2.15623h 0.442913v -2.83005h 0.442913v -0.808587h 0.442913v -0.269529h
 0.885827v 2.291h 0.442913v -0.269529h 0.442913v 1.34764h 0.442913v -1.75194h 0.442913v -0.943351h 0.442913v 2.291h 0.442913v -3.23435h 0.442913v 0.539058h 0.442913v 2.56052h 0.442913v -1.75194h 0.442913v 0.134764h 0.885827v 2.291h 0.442913v
 -1.48241h 0.442913v 1.48241h 0.442913v -2.96482h 0.442913v 1.07812h 0.442913v 0.134764h 0.442913v -0.539058h 0.442913v 1.8867h 0.442913v 0.404293h 0.442913v -0.404293h 0.442913v -0.404293h 0.885827v -2.56052h 0.442913v 3.50388h 0.442913v -1.75194h
 0.442913v 1.8867h 0.442913v -0.943351h 0.442913v 0.808587h 0.442913v -3.09958h 0.442913v 0.134764h 0.442913v 3.7734h 0.442913v -0.808587h 0.442913v 1.34764h 0.442913v -4.58199h 0.442913v 0.134764h 0.442913v -1.61717h 0.442913v 0.808587h 0.442913v
 2.02147h 0.442913v 2.15623h 0.442913v -4.71676h 0.442913v 2.42576h 0.442913v -1.34764h 0.442913v -2.291h 0.442913v 4.04293h 0.442913v -0.808587h 0.442913v 0.943351h 0.442913v 1.48241h 0.442913v -2.96482h 0.442913v 0.808587h 0.442913v -1.8867h
 0.442913v 2.56052h 0.442913v -3.23435h 0.442913v 3.50388h 0.442913v -1.34764h 0.442913v -2.291h 0.442913v 1.61717h 0.442913v -0.269529h 0.442913v 1.48241h 0.442913v -0.134764h 0.442913v -1.8867h 0.442913v -0.404293h 0.442913v -0.943351h 0.442913v
 1.21288h 0.442913v 2.69529h 0.442913v 0.269529h 0.442913v -0.134764h 0.442913v -1.48241h 0.442913v -0.134764h 0.442913v 1.07812h 0.442913v 0.269529h 0.442913v -1.34764h 0.442913v 1.8867h 0.442913v -1.21288h 0.442913v -0.404293h 0.442913v 0.539058h
 0.442913v -0.808587h 0.442913v 2.291h 0.442913v -0.134764h 0.442913v 0.134764h 0.442913v 1.07812h 0.442913v -3.50388h 0.442913v 3.36911h 0.442913v -0.943351h 0.442913v -1.21288h 0.442913v 2.83005h 0.442913v -1.21288h 0.442913v -0.943351h 0.442913v
 1.61717h 0.442913v -0.943351h 0.442913v 1.75194h 0.442913v -1.34764h 0.442913v 1.75194h 0.442913v -0.539058h 0.442913v 0.808587h 0.885827v -1.8867h 0.442913v 1.75194h 0.442913v 2.15623h 0.442913v -2.69529h 0.442913v -0.269529h 0.442913v -0.404293h
 0.442913v 0.269529h 0.442913v 1.21288h 0.442913v 2.42576h 0.442913v -0.539058h 0.442913v -2.02147h 0.442913v 0.808587h 0.442913v -0.134764h 0.442913v -1.07812h 0.442913v 2.42576h 0.442913v -0.404293h 0.442913v -0.404293h 0.442913v 0.808587h
 0.442913v -0.943351h 0.442913v 0.808587h 0.442913v 0.404293h 0.442913v -0.404293h 0.442913v -0.943351h 0.442913v 0.673822h 0.442913v 0.134764h 0.442913v 0.673822h 0.442913v -0.673822h 0.442913v 2.291h 0.442913v -0.943351h 0.442913v -1.34764h
 0.442913v 0.943351h 0.442913v -0.539058h 0.442913v 1.34764h 0.442913v -0.943351h 0.442913v 0.808587h 0.442913v -0.808587h 0.442913v 0.943351h 0.442913v -0.943351h 0.442913v 1.07812h 0.885827v -0.269529h 0.442913v 0.269529h 0.885827v -0.269529h
 0.442913v 0.269529h 0.442913v 0.269529h 0.442913v -1.61717h 0.442913v 1.8867h 0.442913v -0.539058h 0.442913v 0.404293h 0.442913v -0.269529h 0.885827v 0.808587h 0.442913v 0.134764h 0.442913v 0.269529h 0.442913v -0.539058h 0.442913v -0.404293h
 0.442913v 0.539058h 0.442913v -0.539058h 0.442913v 0.269529h 0.442913v -0.134764h 0.442913v 0.134764h 0.442913v -0.404293h 0.442913v 0.673822h 0.442913v -0.404293h 0.442913v 0.134764h 0.442913v 0.404293h 0.442913v 0.134764h 0.442913v -0.539058h
 0.442913v -0.269529h 0.442913v 0.404293h 0.885827v 0.539058h 0.442913v -0.673822h 0.442913v -0.134764h 0.442913v 0.673822h 0.885827v 0.134764h 0.442913v -0.673822h 0.885827v 0.673822h 0.442913v -0.808587h 0.442913v 0.134764h 0.442913v 0.269529h
 0.442913v 0.269529h 0.885827v -0.134764h 0.442913v 0.134764h 0.442913v -0.808587h 0.442913v 0.539058h 0.442913v -0.539058h 0.442913v 0.404293h 0.442913v -0.269529h 0.442913v 0.539058h 0.442913v 0.539058h 0.442913v -0.539058h 0.885827v -0.134764h
 0.885827v 0.404293h 0.442913v -0.808587h 0.442913v 0.539058h 0.442913v 0.134764h 0.442913v -0.134764h 0.885827v -0.269529h 0.442913v 0.404293h 0.442913v -0.134764h 0.442913v -0.539058h 0.442913v 0.134764h 0.442913v 0.134764h 0.442913v 0.808587h
 0.442913v -0.269529h 0.442913v -0.808587h 0.442913v 0.269529h 0.442913v -0.134764h 0.442913v 0.539058h 0.442913v -0.404293h 0.442913v 0.404293h 1.32874v -0.134764h 0.442913v -0.134764h 0.442913v -0.269529h 0.885827v 0.539058h 0.885827v -0.269529h
 0.442913v 0.269529h 0.442913v -0.134764h 0.442913v 0.134764h 0.885827v 0.134764h 0.442913v -0.269529h 0.442913v -0.673822h 0.442913v 0.269529h 0.442913v 0.539058h 0.442913v 0.134764h 0.442913v 0.269529h 0.442913v -0.269529h 0.442913v -0.269529h
 0.885827v 0.269529h 0.442913v -0.539058h 0.442913v 0.539058h 0.442913v -0.134764h 0.442913v -0.134764h 0.442913v -0.134764h 0.442913v 0.134764h 0.442913v -0.134764h 1.77165v 0.269529h 0.442913v -0.269529h 0.442913v -0.404293h 0.442913v 0.134764h
 0.442913v -0.269529h 0.442913v 0.673822h 0.442913v -0.134764h 0.442913v 0.404293h 0.442913v -0.134764h 0.442913v -0.404293h 0.442913v 0.134764h 0.442913v -0.539058h 0.442913v 0.673822h 0.442913v -0.134764h 0.442913v 0.269529h 1.32874v 0.269529h
 0.442913v -0.404293h 0.442913v -0.134764h 0.442913v 0.269529h 0.442913v -0.269529h 0.442913v 0.134764h 0.442913v -0.134764h 0.442913v -0.404293h 0.442913v 0.269529h 0.442913v 0.134764h 0.442913v -0.269529h 0.442913v 0.269529h 0.442913v -0.134764h
 0.442913v -0.134764h 0.442913v -0.134764h 0.442913v 0.269529h 0.442913v 0.943351h 0.442913v -0.539058h 0.442913v 0.134764h 0.442913v -0.269529h 0.885827v 0.539058h 0.442913v 0.134764h 0.442913v -0.404293h 0.442913v -0.404293h 0.442913v 0.134764h
 0.442913v 0.539058h 0.442913v -0.404293h 0.442913v -0.134764h 0.442913v -0.404293h 0.442913v 0.269529h 0.442913v -0.269529h 0.442913v 0.673822h 0.442913v -0.539058h 0.442913v 0.808587h 0.442913v -0.404293h 0.442913v -0.404293h 0.442913v 0.539058h
 0.442913v -0.134764h 0.442913v 0.134764h 0.442913v -0.404293h 0.885827v 0.808587h 0.442913v -0.539058h 0.442913v -0.134764h 0.885827v 0.134764h 0.885827v 0.134764h 0.442913v -0.269529h 0.442913v -0.404293h 0.442913v -0.134764h 0.442913v 1.07812h
 0.442913v -0.404293h 0.442913v 0.134764h 0.442913v -0.269529h 0.442913v -1.07812h 0.442913v 0.673822h 0.442913v 0.808587h 0.442913v -0.134764h 0.442913v -1.48241h 0.442913v -4.85152h 0.442913v -30.0525h 0.442913v -97.839h 0.442913v -157.944h
 0.442913v 23.1795h 0.442913v 58.2182h 0.442913v 20.7537h 0.442913v 14.285h 0.442913v 45.5504h 0.442913v 31.8044h 0.442913v 13.8807h 0.442913v 14.0155h 0.442913v -6.46869h 0.442913v -12.9374h 0.442913v -0.404293h 0.442913v 9.16398h 0.442913v 2.56052h
 0.442913v 5.39058h 0.442913v 2.96482h 0.442913v 0.269529h 0.442913v 18.328h 0.442913v 29.9177h 0.442913v 15.6327h 0.442913v 4.31246h 0.442913v 1.48241h 0.442913v 0.539058h 0.442913v -0.673822h 0.442913v 0.673822h 0.885827v -0.404293h 0.442913v
 0.404293h 0.442913v 0.269529h 1.77165v -0.134764h 0.442913v 0.134764h 6.6437v -0.134764h 0.442913v 0.134764h 7.52953" fill="none" stroke="#000099"/>
<path d="M57.1929,345.762h 453.543" fill="none" stroke="black"/>
<path d="M57.1929,336.541v 9.22031" fill="none" stroke="black"/>
<path d="M68.5315,341.152v 4.61016" fill="none" stroke="black"/>
<path d="M79.8701,341.152v 4.61016" fill="none" stroke="black"/>
<path d="M91.2087,341.152v 4.61016" fill="none" stroke="black"/>
<path d="M102.547,341.152v 4.61016" fill="none" stroke="black"/>
<path d="M113.886,336.541v 9.22031" fill="none" stroke="black"/>
<path d="M125.224,341.152v 4.61016" fill="none" stroke="black"/>
<path d="M136.563,341.152v 4.61016" fill="none" stroke="black"/>
<path d="M147.902,341.152v 4.61016" fill="none" stroke="black"/>
<path d="M159.24,341.152v 4.61016" fill="none" stroke="black"/>
<path d="M170.579,336.541v 9.22031" fill="none" stroke="black"/>
<path d="M181.917,341.152v 4.61016" fill="none" stroke="black"/>
<path d="M193.256,341.152v 4.61016" fill="none" stroke="black"/>
<path d="M204.594,341.152v 4.61016" fill="none" stroke="black"/>
<path d="M215.933,341.152v 4.61016" fill="none" stroke="black"/>
<path d="M227.272,336.541v 9.22031" fill="none" stroke="black"/>
<path d="M238.61,341.152v 4.61016" fill="none" stroke="black"/>
<path d="M249.949,341.152v 4.61016" fill="none" stroke="black"/>
<path d="M261.287,341.152v 4.61016" fill="none" stroke="black"/>
<path d="M272.626,341.152v 4.61016" fill="none" stroke="black"/>
<path d="M283.965,336.541v 9.22031" fill="none" stroke="black"/>
<path d="M295.303,341.152v 4.61016" fill="none" stroke="black"/>
<path d="M306.642,341.152v 4.61016" fill="none" stroke="black"/>
<path d="M317.98,341.152v 4.61016" fill="none" stroke="black"/>
<path d="M329.319,341.152v 4.61016" fill="none" stroke="black"/>
<path d="M340.657,336.541v 9.22031" fill="none" stroke="black"/>
<path d="M351.996,341.152v 4.61016" fill="none" stroke="black"/>
<path d="M363.335,341.152v 4.61016" fill="none" stroke="black"/>
<path d="M374.673,341.152v 4.61016" fill="none" stroke="black"/>
<path d="M386.012,341.152v 4.61016" fill="none" stroke="black"/>
<path d="M397.35,336.541v 9.22031" fill="none" stroke="black"/>
<path d="M408.689,341.152v 4.61016" fill="none" stroke="black"/>
<path d="M420.028,341.152v 4.61016" fill="none" stroke="black"/>
<path d="M431.366,341.152v 4.61016" fill="none" stroke="black"/>
<path d="M442.705,341.152v 4.61016" fill="none" stroke="black"/>
<path d="M454.043,336.541v 9.22031" fill="none" stroke="black"/>
<path d="M465.382,341.152v 4.61016" fill="none" stroke="black"/>
<path d="M476.72,341.152v 4.61016" fill="none" stroke="black"/>
<path d="M488.059,341.152v 4.61016" fill="none" stroke="black"/>
<path d="M499.398,341.152v 4.61016" fill="none" stroke="black"/>
<path d="M510.736,336.541v 9.22031" fill="none" stroke="black"/>
<text xml:space="preserve" x="53.2943" y="358.189" fill="black" font-size="12.836" font-family="Helvetica">0</text>
<text xml:space="preserve" x="110.15" y="358.189" fill="black" font-size="12.836" font-family="Helvetica">5</text>
<text xml:space="preserve" x="163.756" y="358.189" fill="black" font-size="12.836" font-family="Helvetica">10</text>
<text xml:space="preserve" x="219.799" y="358.189" fill="black" font-size="12.836" font-family="Helvetica">15</text>
<text xml:space="preserve" x="277.467" y="358.189" fill="black" font-size="12.836" font-family="Helvetica">20</text>
<text xml:space="preserve" x="332.698" y="358.189" fill="black" font-size="12.836" font-family="Helvetica">25</text>
<text xml:space="preserve" x="390.365" y="358.189" fill="black" font-size="12.836" font-family="Helvetica">30</text>
<text xml:space="preserve" x="446.408" y="358.189" fill="black" font-size="12.836" font-family="Helvetica">35</text>
<text xml:space="preserve" x="504.076" y="358.189" fill="black" font-size="12.836" font-family="Helvetica">40</text>
<text xml:space="preserve" x="441.535" y="370.372" fill="black" font-size="12.836" font-family="Helvetica">Energy [keV]</text>
<path d="M57.1929,345.762v -307.344" fill="none" stroke="black"/>
<path d="M70.7992,345.762h -13.6063" fill="none" stroke="black"/>
<path d="M63.9961,339.024h -6.80315" fill="none" stroke="black"/>
<path d="M63.9961,332.285h -6.80315" fill="none" stroke="black"/>
<path d="M63.9961,325.547h -6.80315" fill="none" stroke="black"/>
<path d="M70.7992,318.809h -13.6063" fill="none" stroke="black"/>
<path d="M63.9961,312.071h -6.80315" fill="none" stroke="black"/>
<path d="M63.9961,305.332h -6.80315" fill="none" stroke="black"/>
<path d="M63.9961,298.594h -6.80315" fill="none" stroke="black"/>
<path d="M70.7992,291.856h -13.6063" fill="none" stroke="black"/>
<path d="M63.9961,285.118h -6.80315" fill="none" stroke="black"/>
<path d="M63.9961,278.38h -6.80315" fill="none" stroke="black"/>
<path d="M63.9961,271.641h -6.80315" fill="none" stroke="black"/>
<path d="M70.7992,264.903h -13.6063" fill="none" stroke="black"/>
<path d="M63.9961,258.165h -6.80315" fill="none" stroke="black"/>
<path d="M63.9961,251.427h -6.80315" fill="none" stroke="black"/>
<path d="M63.9961,244.688h -6.80315" fill="none" stroke="black"/>
<path d="M70.7992,237.95h -13.6063" fill="none" stroke="black"/>
<path d="M63.9961,231.212h -6.80315" fill="none" stroke="black"/>
<path d="M63.9961,224.474h -6.80315" fill="none" stroke="black"/>
<path d="M63.9961,217.736h -6.80315" fill="none" stroke="black"/>
<path d="M70.7992,210.997h -13.6063" fill="none" stroke="black"/>
<path d="M63.9961,204.259h -6.80315" fill="none" stroke="black"/>
<path d="M63.9961,197.521h -6.80315" fill="none" stroke="black"/>
<path d="M63.9961,190.783h -6.80315" fill="none" stroke="black"/>
<path d="M70.7992,184.044h -13.6063" fill="none" stroke="black"/>
<path d="M63.9961,177.306h -6.80315" fill="none" stroke="black"/>
<path d="M63.9961,170.568h -6.80315" fill="none" stroke="black"/>
<path d="M63.9961,163.83h -6.80315" fill="none" stroke="black"/>
<path d="M70.7992,157.092h -13.6063" fill="none" stroke="black"/>
<path d="M63.9961,150.353h -6.80315" fill="none" stroke="black"/>
<path d="M63.9961,143.615h -6.80315" fill="none" stroke="black"/>
<path d="M63.9961,136.877h -6.80315" fill="none" stroke="black"/>
<path d="M70.7992,130.139h -13.6063" fill="none" stroke="black"/>
<path d="M63.9961,123.4h -6.80315" fill="none" stroke="black"/>
<path d="M63.9961,116.662h -6.80315" fill="none" stroke="black"/>
<path d="M63.9961,109.924h -6.80315" fill="none" stroke="black"/>
<path d="M70.7992,103.186h -13.6063" fill="none" stroke="black"/>
<path d="M63.9961,96.4476h -6.80315" fill="none" stroke="black"/>
<path d="M63.9961,89.7093h -6.80315" fill="none" stroke="black"/>
<path d="M63.9961,82.9711h -6.80315" fill="none" stroke="black"/>
<path d="M70.7992,76.2329h -13.6063" fill="none" stroke="black"/>
<path d="M63.9961,69.4947h -6.80315" fill="none" stroke="black"/>
<path d="M63.9961,62.7564h -6.80315" fill="none" stroke="black"/>
<path d="M63.9961,56.0182h -6.80315" fill="none" stroke="black"/>
<path d="M70.7992,49.28h -13.6063" fill="none" stroke="black"/>
<path d="M70.7992,49.28h -13.6063" fill="none" stroke="black"/>
<path d="M63.9961,42.5418h -6.80315" fill="none" stroke="black"/>
<text xml:space="preserve" x="47.6087" y="350.067" fill="black" font-size="12.836" font-family="Helvetica">0</text>
<text xml:space="preserve" x="33.801" y="323.263" fill="black" font-size="12.836" font-family="Helvetica">200</text>
<text xml:space="preserve" x="33.801" y="296.46" fill="black" font-size="12.836" font-family="Helvetica">400</text>
<text xml:space="preserve" x="33.801" y="269.657" fill="black" font-size="12.836" font-family="Helvetica">600</text>
<text xml:space="preserve" x="33.801" y="242.041" fill="black" font-size="12.836" font-family="Helvetica">800</text>
<text xml:space="preserve" x="27.3032" y="215.238" fill="black" font-size="12.836" font-family="Helvetica">1000</text>
<text xml:space="preserve" x="27.3032" y="188.435" fill="black" font-size="12.836" font-family="Helvetica">1200</text>
<text xml:space="preserve" x="27.3032" y="161.632" fill="black" font-size="12.836" font-family="Helvetica">1400</text>
<text xml:space="preserve" x="27.3032" y="134.828" fill="black" font-size="12.836" font-family="Helvetica">1600</text>
<text xml:space="preserve" x="27.3032" y="108.025" fill="black" font-size="12.836" font-family="Helvetica">1800</text>
<text xml:space="preserve" x="27.3032" y="80.4097" fill="black" font-size="12.836" font-family="Helvetica">2000</text>
<text xml:space="preserve" x="27.3032" y="53.6065" fill="black" font-size="12.836" font-family="Helvetica">2200</text>
<g transform="rotate(-90,14.3077,69.8509)">
<text xml:space="preserve" x="14.3077" y="69.8509" fill="black" font-size="12.836" font-family="Helvetica">Event</text>
</g>
<text xml:space="preserve" x="206.804" y="18.681" fill="black" font-size="17.9813" font-family="Helvetica">Am_009_calibrated</text>
<rect x="442.705" y="24.9717" width="113.386" height="61.4688" fill="white"/>
<path d="M442.705,86.4405h 113.386" fill="none" stroke="black"/>
<path d="M556.091,86.4405v -61.4688" fill="none" stroke="black"/>
<path d="M556.091,24.9717h -113.386" fill="none" stroke="black"/>
<path d="M442.705,24.9717v 61.4688" fill="none" stroke="black"/>
<text xml:space="preserve" x="446.408" y="36.5499" fill="black" font-size="12.1772" font-family="Helvetica">Am_009_calibrated</text>
<path d="M442.705,40.3389h 113.386" fill="none" stroke="black"/>
<text xml:space="preserve" x="448.033" y="52.7943" fill="black" font-size="12.4124" font-family="Helvetica">Entries </text>
<text xml:space="preserve" x="506.513" y="52.7943" fill="black" font-size="12.4124" font-family="Helvetica"> 116742</text>
<text xml:space="preserve" x="448.033" y="68.2264" fill="black" font-size="12.4124" font-family="Helvetica">Mean  </text>
<text xml:space="preserve" x="517.072" y="68.2264" fill="black" font-size="12.4124" font-family="Helvetica">   20.9</text>
<text xml:space="preserve" x="448.033" y="82.8464" fill="black" font-size="12.4124" font-family="Helvetica">Std Dev   </text>
<text xml:space="preserve" x="513.01" y="82.8464" fill="black" font-size="12.4124" font-family="Helvetica">  8.598</text>
<text xml:space="preserve" x="206.804" y="18.681" fill="black" font-size="17.9813" font-family="Helvetica">Am_009_calibrated</text></svg>
