<?xml version="1.0" standalone="no"?>
<svg width="567.429" height="384.68" viewBox="0 0 567.429 384.68" xmlns="http://www.w3.org/2000/svg" shape-rendering="crispEdges">
<title>
img/week1/calibrated_hist_high_gain/Am_009.svg
</title>
<desc>
Creator: ROOT Version 6.22/09
CreationDate: Mon Jul 12 17:34:22 2021</desc>
<defs>
</defs>
<rect x="0.5" y="0" width="566.929" height="384.18" fill="white"/>
<rect x="57.1929" y="38.418" width="453.543" height="307.344" fill="white"/>
<rect x="57.1929" y="38.418" width="453.543" height="307.344" fill="none" stroke="black"/>
<path d="M57.1929,345.762h 72.6378v -0.123038h 0.442913v -0.615192h 0.442913v -2.70685h 0.442913v -7.62838h 0.442913v -3.07596h 0.442913v 3.56811h 0.442913v -0.369115h 0.442913v 1.35342h 0.442913v -1.72254h 0.442913v -2.09165h 0.442913v 1.10735h
 0.442913v 0.984307h 0.442913v 0.984307h 0.442913v -0.123038h 0.442913v -0.738231h 0.442913v -0.738231h 0.442913v 2.09165h 0.442913v -1.72254h 0.885827v -1.23038h 0.442913v 3.56811h 0.442913v -3.56811h 0.442913v 1.5995h 0.442913v -1.35342h 0.442913v
 2.95292h 0.442913v 0.246077h 0.442913v -0.738231h 0.442913v 0.369115h 0.442913v -1.10735h 0.885827v -0.861269h 0.442913v 4.67546h 0.442913v -2.33773h 0.442913v -0.369115h 0.442913v -1.10735h 0.442913v -1.10735h 0.442913v -0.246077h 0.442913v
 1.10735h 0.442913v 1.96861h 0.442913v -0.615192h 0.442913v -3.199h 0.442913v 0.615192h 0.442913v 1.47646h 0.442913v 1.23038h 0.442913v -1.23038h 0.442913v -0.861269h 0.442913v 1.47646h 0.442913v 1.72254h 0.442913v -2.33773h 0.442913v 0.861269h
 0.442913v 0.123038h 0.442913v -0.615192h 0.442913v 0.369115h 0.442913v -0.615192h 0.442913v 1.10735h 0.442913v -1.23038h 0.442913v 1.35342h 0.885827v -0.123038h 0.442913v -1.84558h 0.442913v 0.861269h 0.442913v -0.984307h 0.442913v -0.123038h
 0.442913v 1.35342h 0.442913v -0.615192h 0.442913v 1.72254h 0.442913v -0.492154h 0.442913v -1.10735h 0.442913v 0.492154h 0.442913v 1.72254h 0.442913v -1.35342h 0.442913v 0.492154h 0.442913v -2.70685h 0.442913v 1.23038h 0.442913v 2.46077h 0.442913v
 -1.5995h 0.442913v -0.615192h 0.442913v 2.09165h 0.442913v -1.5995h 0.442913v -1.5995h 0.442913v 0.738231h 0.442913v 0.615192h 0.442913v 3.56811h 0.442913v -5.53673h 0.442913v 1.72254h 0.442913v 1.5995h 0.442913v -0.615192h 0.442913v -2.09165h
 0.442913v 3.56811h 0.442913v -1.96861h 0.442913v -0.738231h 0.442913v 0.246077h 0.442913v -0.738231h 0.442913v 1.47646h 0.442913v 0.738231h 0.442913v 0.738231h 0.442913v -1.47646h 0.442913v -0.738231h 0.442913v 0.984307h 0.442913v 0.615192h
 0.442913v -0.123038h 0.442913v -1.47646h 0.442913v 0.738231h 0.442913v -0.615192h 0.442913v 1.47646h 0.442913v -3.32204h 0.442913v 0.861269h 0.442913v 2.58381h 0.442913v 0.123038h 0.885827v -2.33773h 0.442913v -0.615192h 0.442913v 1.23038h 0.442913v
 0.984307h 0.442913v 2.09165h 0.442913v -1.47646h 0.442913v -1.72254h 0.442913v -1.10735h 0.442913v 3.32204h 0.442913v 0.615192h 0.442913v -2.33773h 0.442913v 0.369115h 0.442913v -1.96861h 0.885827v 0.738231h 0.442913v 0.984307h 0.442913v 0.738231h
 0.442913v 2.46077h 0.442913v -2.58381h 0.442913v -0.984307h 0.442913v 0.123038h 0.442913v -1.47646h 0.442913v 1.96861h 0.442913v 1.10735h 0.442913v 1.5995h 0.442913v -3.199h 0.442913v 0.738231h 1.32874v 1.10735h 0.442913v -0.615192h 0.442913v
 -0.861269h 0.442913v -0.246077h 0.442913v -0.369115h 0.442913v -1.35342h 0.442913v 1.47646h 0.442913v 1.84558h 0.442913v -0.492154h 0.442913v -1.96861h 0.442913v 0.246077h 0.442913v 1.10735h 0.442913v 0.123038h 0.442913v 1.5995h 0.442913v -2.95292h
 0.442913v -2.82988h 0.442913v 4.06027h 0.442913v -2.09165h 0.442913v 1.84558h 0.442913v 0.246077h 0.442913v 1.72254h 0.442913v -1.72254h 0.442913v -3.32204h 0.442913v -0.861269h 0.442913v 0.615192h 0.442913v 0.123038h 0.442913v 3.44508h 0.442913v
 -1.23038h 0.442913v -2.95292h 0.442913v 2.33773h 0.442913v -4.7985h 0.442913v 1.84558h 0.442913v 2.09165h 0.442913v 0.492154h 0.442913v -1.72254h 0.442913v -1.96861h 0.442913v 0.492154h 0.442913v 2.21469h 0.442913v -2.09165h 0.442913v 2.21469h
 0.442913v -1.47646h 0.442913v -1.96861h 0.442913v -0.123038h 0.442913v 1.23038h 0.442913v -1.35342h 0.442913v 2.95292h 0.442913v -3.56811h 0.442913v -1.35342h 0.442913v 0.246077h 0.442913v 0.738231h 0.442913v 1.84558h 0.885827v -1.96861h 0.885827v
 0.123038h 0.442913v -2.70685h 0.442913v 1.72254h 0.442913v 0.246077h 0.442913v 2.33773h 0.442913v -4.92154h 0.442913v 1.10735h 0.442913v 2.58381h 0.442913v -4.18331h 0.442913v 1.35342h 0.442913v 2.95292h 0.442913v -3.81419h 0.442913v 0.246077h
 0.442913v -0.123038h 0.442913v -2.21469h 0.442913v 2.95292h 0.442913v 1.35342h 0.442913v -2.95292h 0.442913v 0.246077h 0.442913v -1.96861h 0.442913v 3.93723h 0.442913v -1.72254h 0.442913v 2.70685h 0.442913v -1.47646h 0.442913v -4.18331h 0.442913v
 1.23038h 0.442913v -0.492154h 0.442913v 0.246077h 0.442913v 2.09165h 0.442913v 2.82988h 0.442913v -4.55242h 0.442913v -1.10735h 0.442913v 1.96861h 0.442913v -0.738231h 0.442913v -1.10735h 0.442913v 3.44508h 0.442913v -4.18331h 0.442913v -0.984307h
 0.442913v -4.06027h 0.442913v 3.199h 0.442913v 2.46077h 0.442913v 0.369115h 0.442913v -2.21469h 0.442913v -2.70685h 0.442913v -1.84558h 0.442913v -2.58381h 0.442913v 5.53673h 0.442913v 0.123038h 0.442913v 1.72254h 0.442913v -4.7985h 0.442913v
 -0.984307h 0.442913v -0.123038h 0.442913v -0.369115h 0.442913v -3.07596h 0.442913v 7.01319h 0.442913v 0.123038h 0.442913v -6.02888h 0.442913v -0.984307h 0.442913v 0.492154h 0.442913v -2.33773h 0.442913v 4.42938h 0.442913v 3.32204h 0.442913v
 -6.15192h 0.442913v -0.984307h 0.442913v -1.35342h 0.442913v -3.56811h 0.442913v 5.90584h 0.442913v 0.369115h 0.442913v -3.69115h 0.442913v -4.30634h 0.442913v 0.246077h 0.885827v 2.95292h 0.442913v 4.30634h 0.442913v -10.3352h 0.442913v -1.5995h
 0.442913v -0.492154h 0.442913v -3.69115h 0.442913v 5.65977h 0.442913v 1.35342h 0.442913v -1.47646h 0.442913v -7.38231h 0.442913v 2.58381h 0.442913v -0.861269h 0.442913v 1.23038h 0.442913v -5.65977h 0.442913v 9.84307h 0.442913v -6.27496h 0.442913v
 -4.30634h 0.442913v -1.35342h 0.442913v 1.35342h 0.442913v 3.199h 0.442913v 6.89015h 0.442913v -0.246077h 0.442913v -10.4583h 0.442913v -2.58381h 0.442913v 0.615192h 0.442913v 2.82988h 0.442913v 0.861269h 0.442913v 1.35342h 0.442913v -2.09165h
 0.442913v -2.09165h 0.442913v -4.55242h 0.442913v -3.93723h 0.442913v 11.5656h 0.442913v -1.47646h 0.442913v 0.492154h 0.442913v -11.5656h 0.442913v -1.5995h 0.442913v 1.23038h 0.442913v 9.72004h 0.442913v 7.13623h 0.442913v -3.93723h 0.442913v
 -10.9504h 0.442913v 0.123038h 0.442913v -5.29065h 0.442913v 9.22788h 0.442913v 13.1651h 0.442913v -5.16761h 0.442913v -3.56811h 0.442913v -4.67546h 0.442913v -2.09165h 0.442913v 5.29065h 0.442913v 10.8274h 0.442913v -4.42938h 0.442913v 4.67546h
 0.442913v -6.76711h 0.442913v -6.15192h 0.442913v 1.84558h 0.442913v 8.36661h 0.442913v 3.69115h 0.442913v -0.615192h 0.442913v -2.58381h 0.442913v -3.07596h 0.442913v 0.984307h 0.442913v 2.82988h 0.442913v 4.92154h 0.442913v 1.5995h 0.442913v
 -9.47396h 0.442913v 3.44508h 0.442913v 0.615192h 0.442913v -0.123038h 0.442913v 4.55242h 0.442913v 3.93723h 0.442913v -7.13623h 0.442913v 2.21469h 0.442913v -0.984307h 0.442913v 3.93723h 0.442913v 0.738231h 0.442913v 7.25927h 0.442913v 1.10735h
 0.442913v -10.0892h 0.442913v -1.35342h 0.442913v 2.58381h 0.442913v 7.25927h 0.442913v 1.72254h 0.442913v 0.246077h 0.442913v -4.06027h 0.442913v 1.10735h 0.442913v -2.46077h 0.442913v 1.96861h 0.442913v 1.10735h 0.442913v 6.15192h 0.442913v
 -5.41369h 0.442913v -1.84558h 0.442913v -3.32204h 0.442913v 5.78281h 0.442913v 0.369115h 0.442913v 4.55242h 0.442913v -0.246077h 0.442913v -7.25927h 0.442913v 1.96861h 0.442913v 4.55242h 0.442913v -3.32204h 0.442913v 8.24357h 0.442913v -3.199h
 0.442913v -0.369115h 0.442913v -4.30634h 0.442913v 0.492154h 0.442913v 0.984307h 0.442913v 6.15192h 0.442913v -4.67546h 0.442913v 1.72254h 0.442913v -3.199h 0.442913v -0.984307h 0.442913v 3.07596h 0.442913v 2.21469h 0.442913v 2.33773h 0.442913v
 -2.33773h 0.442913v -6.398h 0.442913v 2.46077h 0.442913v 0.861269h 0.442913v 2.70685h 0.442913v -1.23038h 0.442913v 1.10735h 0.442913v 0.984307h 0.442913v -3.44508h 0.442913v -0.861269h 0.442913v 1.84558h 0.442913v 3.07596h 0.442913v 0.246077h
 0.442913v -1.10735h 0.442913v -1.96861h 0.442913v -2.82988h 0.442913v 4.92154h 0.442913v 1.35342h 0.442913v 4.06027h 0.442913v -5.16761h 0.442913v -1.72254h 0.442913v 1.84558h 0.442913v -3.199h 0.442913v 5.90584h 0.442913v 0.492154h 0.442913v
 -2.58381h 0.442913v 2.82988h 0.442913v -5.65977h 0.442913v 3.93723h 0.442913v -1.96861h 0.442913v 3.81419h 0.442913v -0.492154h 0.442913v 1.23038h 0.442913v -3.56811h 0.442913v -0.246077h 0.442913v 2.82988h 0.442913v -0.738231h 0.442913v 3.199h
 0.442913v 1.72254h 0.442913v -4.06027h 0.885827v -2.33773h 0.442913v 4.18331h 0.442913v -0.492154h 0.442913v 3.56811h 0.442913v -2.58381h 0.442913v 1.72254h 0.442913v -2.09165h 0.442913v 0.123038h 0.442913v 4.92154h 0.442913v -2.58381h 0.442913v
 0.615192h 0.885827v -0.615192h 0.442913v 0.738231h 0.442913v 0.738231h 0.442913v 1.35342h 0.442913v 0.615192h 0.442913v -0.615192h 0.442913v 0.615192h 0.442913v -2.46077h 0.442913v 1.96861h 0.442913v 2.58381h 0.442913v 1.23038h 0.442913v -5.04458h
 0.442913v 2.46077h 0.442913v -1.35342h 0.442913v 0.246077h 0.442913v 1.72254h 0.442913v 3.199h 0.442913v -2.46077h 0.442913v -1.96861h 0.442913v 3.07596h 0.442913v -2.82988h 0.442913v 4.42938h 0.442913v 0.861269h 0.442913v -1.72254h 0.442913v
 1.5995h 0.442913v -1.96861h 0.442913v 0.492154h 0.442913v -0.123038h 0.442913v 1.35342h 0.442913v 2.95292h 0.442913v -3.32204h 0.442913v -0.123038h 0.442913v -0.738231h 0.442913v 0.369115h 0.442913v 1.72254h 0.885827v 0.861269h 0.442913v -1.10735h
 0.442913v -0.984307h 0.442913v 0.738231h 0.442913v -1.23038h 0.442913v 0.738231h 0.442913v 1.5995h 0.442913v -1.5995h 0.442913v 0.246077h 0.442913v -0.123038h 0.442913v 1.47646h 0.442913v -0.123038h 0.442913v 0.123038h 0.442913v -2.33773h 0.442913v
 1.47646h 0.442913v -0.123038h 0.442913v 0.492154h 0.442913v 0.984307h 0.442913v -0.246077h 0.442913v 0.738231h 0.442913v -1.47646h 0.442913v -1.23038h 0.442913v 1.84558h 0.442913v -0.246077h 0.442913v 0.492154h 0.442913v -0.615192h 0.442913v
 1.10735h 0.442913v -2.46077h 0.442913v 0.369115h 0.442913v 0.738231h 0.442913v 2.46077h 0.442913v -0.369115h 0.442913v -2.82988h 0.442913v -1.5995h 0.442913v -0.738231h 0.442913v 0.861269h 0.442913v 1.72254h 0.442913v 2.09165h 0.442913v -4.55242h
 0.442913v 2.70685h 0.442913v -2.33773h 0.442913v -0.738231h 0.442913v 3.199h 0.442913v -0.615192h 0.442913v 0.492154h 0.442913v 1.10735h 0.442913v -2.21469h 1.32874v 0.246077h 0.442913v -0.246077h 0.442913v 1.10735h 0.442913v -2.21469h 0.442913v
 -1.10735h 0.442913v 1.47646h 0.442913v 0.861269h 0.442913v 0.984307h 0.442913v 1.10735h 0.442913v -6.64407h 0.442913v 2.82988h 0.885827v 3.199h 0.885827v -0.984307h 0.442913v -0.738231h 0.442913v 0.246077h 0.442913v 1.10735h 0.442913v 0.123038h
 0.442913v -2.09165h 0.442913v 2.46077h 0.442913v -0.738231h 0.442913v -1.47646h 0.442913v 1.72254h 0.442913v -1.84558h 0.442913v 2.58381h 0.442913v 0.246077h 0.442913v -0.492154h 0.442913v 1.47646h 0.442913v -3.44508h 0.442913v 3.32204h 0.442913v
 -1.5995h 0.442913v -0.123038h 0.442913v 2.21469h 0.442913v -1.47646h 0.442913v -0.861269h 0.442913v 2.09165h 0.442913v -0.861269h 0.442913v 0.861269h 0.442913v -0.246077h 0.442913v 1.72254h 0.442913v -1.96861h 0.442913v 2.58381h 0.442913v -2.09165h
 0.442913v -0.123038h 0.442913v 1.5995h 0.442913v 0.615192h 0.442913v -1.10735h 0.442913v -2.33773h 0.442913v 2.33773h 0.442913v -0.369115h 0.442913v 2.21469h 0.442913v 0.369115h 0.442913v -1.5995h 0.442913v -0.246077h 0.442913v 0.861269h 0.442913v
 -1.10735h 0.442913v 1.10735h 0.442913v 0.738231h 0.442913v -0.492154h 0.885827v -0.246077h 0.442913v 0.492154h 0.442913v 0.492154h 0.442913v -0.246077h 0.442913v -0.861269h 0.442913v 0.369115h 0.442913v 0.246077h 0.442913v 0.738231h 0.442913v
 -0.369115h 0.442913v 1.47646h 0.442913v -0.492154h 0.442913v -1.35342h 0.442913v 0.615192h 0.442913v 0.615192h 0.442913v -0.492154h 0.442913v 0.615192h 0.442913v -0.246077h 0.442913v 0.369115h 0.885827v -0.369115h 0.442913v 0.369115h 0.442913v
 0.123038h 0.442913v 0.246077h 0.442913v 0.492154h 0.442913v -1.23038h 0.442913v 0.861269h 0.442913v -0.246077h 0.442913v -0.615192h 0.442913v 0.492154h 0.442913v 0.615192h 0.885827v -0.123038h 0.442913v -0.615192h 0.442913v 1.23038h 0.442913v
 -0.123038h 0.442913v 0.615192h 0.442913v -0.615192h 0.442913v -0.123038h 0.442913v -0.246077h 0.442913v 0.246077h 0.442913v -0.123038h 1.32874v -0.246077h 0.442913v 0.615192h 0.442913v -0.369115h 0.885827v 0.492154h 0.885827v -0.369115h 0.442913v
 -0.492154h 0.442913v 1.10735h 0.442913v -0.615192h 0.442913v 0.615192h 0.442913v -0.738231h 0.442913v 0.123038h 0.442913v 0.369115h 0.442913v 0.123038h 0.885827v -0.615192h 0.442913v 0.492154h 0.442913v -0.246077h 0.442913v 0.123038h 0.442913v
 -0.369115h 0.442913v 0.369115h 0.442913v 0.369115h 0.442913v -0.123038h 0.442913v -0.123038h 0.442913v -0.369115h 0.885827v -0.123038h 0.442913v -0.246077h 0.442913v 0.492154h 0.442913v 0.246077h 0.442913v 0.246077h 0.442913v -0.123038h 0.442913v
 -0.123038h 0.442913v -0.123038h 0.885827v 0.369115h 0.442913v -0.615192h 0.442913v 0.123038h 0.442913v 0.369115h 0.442913v -0.123038h 0.885827v -0.246077h 0.442913v 0.246077h 0.885827v -0.492154h 0.442913v 0.123038h 0.442913v 0.246077h 0.442913v
 0.369115h 0.442913v 0.123038h 0.442913v -0.861269h 0.442913v -0.246077h 0.442913v 0.738231h 1.32874v 0.123038h 0.885827v -0.246077h 0.442913v 0.246077h 0.442913v -0.492154h 0.885827v 0.492154h 0.442913v -0.369115h 0.442913v 0.246077h 0.442913v
 -0.123038h 0.442913v 0.246077h 0.442913v -0.246077h 0.442913v 0.369115h 0.442913v 0.246077h 0.442913v -0.615192h 0.442913v -0.492154h 0.442913v 0.246077h 0.442913v 0.369115h 0.442913v 0.246077h 0.442913v 0.123038h 0.442913v -0.123038h 0.442913v
 -0.123038h 0.442913v -0.246077h 0.442913v 0.369115h 0.442913v -0.492154h 0.442913v 0.369115h 0.442913v 0.123038h 0.442913v -0.246077h 0.442913v -0.246077h 0.442913v 0.369115h 0.442913v -0.492154h 0.885827v 0.492154h 0.442913v -0.246077h 0.442913v
 0.123038h 0.885827v -0.492154h 0.885827v -0.246077h 0.442913v 0.984307h 0.442913v -0.369115h 0.442913v 0.492154h 0.442913v -0.738231h 0.442913v 0.123038h 0.442913v 0.123038h 0.442913v -0.246077h 0.442913v 0.492154h 0.442913v -0.615192h 0.442913v
 0.984307h 0.442913v -0.615192h 0.442913v 0.369115h 0.442913v -0.123038h 0.442913v -0.246077h 0.442913v 0.246077h 0.442913v -0.123038h 0.885827v -0.123038h 0.442913v -0.369115h 0.442913v 0.123038h 0.442913v 0.246077h 0.442913v -0.369115h 0.442913v
 0.369115h 0.442913v -0.123038h 0.442913v -0.123038h 0.442913v -0.123038h 0.442913v 0.246077h 0.442913v 0.738231h 0.442913v -0.246077h 0.442913v -0.123038h 0.442913v -0.123038h 0.442913v 0.123038h 0.442913v 0.369115h 0.442913v -0.123038h 0.442913v
 -0.369115h 0.442913v 0.123038h 0.442913v 0.123038h 0.885827v -0.123038h 0.442913v -0.369115h 0.442913v 0.246077h 0.442913v -0.492154h 0.442913v 0.246077h 0.442913v 0.369115h 0.442913v -0.123038h 0.442913v 0.369115h 0.442913v -0.492154h 0.442913v
 0.123038h 0.442913v 0.369115h 0.442913v -0.369115h 0.442913v 0.246077h 0.442913v -0.738231h 0.442913v 0.984307h 0.442913v -0.369115h 0.442913v 0.123038h 0.442913v -0.492154h 0.442913v 0.369115h 0.442913v 0.123038h 0.442913v -0.123038h 0.885827v
 -0.369115h 0.442913v -0.369115h 0.442913v 0.984307h 0.442913v -0.246077h 0.442913v 0.123038h 0.442913v -0.246077h 0.442913v -1.10735h 0.442913v 0.861269h 0.442913v 0.492154h 0.442913v -0.246077h 0.442913v -1.10735h 0.442913v -7.38231h 0.442913v
 -40.6027h 0.442913v -111.965h 0.442913v -130.913h 0.442913v 71.4853h 0.442913v 25.9611h 0.442913v 17.8406h 0.442913v 30.0214h 0.442913v 38.0189h 0.442913v 27.6836h 0.442913v 5.65977h 0.442913v 6.15192h 0.442913v -8.85877h 0.442913v -5.16761h
 0.442913v 2.09165h 0.442913v 6.76711h 0.442913v 6.89015h 0.442913v 4.55242h 0.442913v -9.72004h 0.442913v 18.4558h 0.442913v 27.8067h 0.442913v 16.9793h 0.442913v 7.50534h 0.442913v 1.96861h 0.442913v 0.123038h 0.442913v -0.369115h 0.442913v
 0.738231h 0.442913v -0.246077h 0.442913v -0.246077h 0.442913v 0.369115h 0.442913v 0.246077h 1.77165v -0.123038h 0.442913v 0.123038h 6.6437v -0.123038h 0.442913v 0.123038h 9.30118" fill="none" stroke="#000099"/>
<path d="M57.1929,345.762h 453.543" fill="none" stroke="black"/>
<path d="M57.1929,336.541v 9.22031" fill="none" stroke="black"/>
<path d="M68.5315,341.152v 4.61016" fill="none" stroke="black"/>
<path d="M79.8701,341.152v 4.61016" fill="none" stroke="black"/>
<path d="M91.2087,341.152v 4.61016" fill="none" stroke="black"/>
<path d="M102.547,341.152v 4.61016" fill="none" stroke="black"/>
<path d="M113.886,336.541v 9.22031" fill="none" stroke="black"/>
<path d="M125.224,341.152v 4.61016" fill="none" stroke="black"/>
<path d="M136.563,341.152v 4.61016" fill="none" stroke="black"/>
<path d="M147.902,341.152v 4.61016" fill="none" stroke="black"/>
<path d="M159.24,341.152v 4.61016" fill="none" stroke="black"/>
<path d="M170.579,336.541v 9.22031" fill="none" stroke="black"/>
<path d="M181.917,341.152v 4.61016" fill="none" stroke="black"/>
<path d="M193.256,341.152v 4.61016" fill="none" stroke="black"/>
<path d="M204.594,341.152v 4.61016" fill="none" stroke="black"/>
<path d="M215.933,341.152v 4.61016" fill="none" stroke="black"/>
<path d="M227.272,336.541v 9.22031" fill="none" stroke="black"/>
<path d="M238.61,341.152v 4.61016" fill="none" stroke="black"/>
<path d="M249.949,341.152v 4.61016" fill="none" stroke="black"/>
<path d="M261.287,341.152v 4.61016" fill="none" stroke="black"/>
<path d="M272.626,341.152v 4.61016" fill="none" stroke="black"/>
<path d="M283.965,336.541v 9.22031" fill="none" stroke="black"/>
<path d="M295.303,341.152v 4.61016" fill="none" stroke="black"/>
<path d="M306.642,341.152v 4.61016" fill="none" stroke="black"/>
<path d="M317.98,341.152v 4.61016" fill="none" stroke="black"/>
<path d="M329.319,341.152v 4.61016" fill="none" stroke="black"/>
<path d="M340.657,336.541v 9.22031" fill="none" stroke="black"/>
<path d="M351.996,341.152v 4.61016" fill="none" stroke="black"/>
<path d="M363.335,341.152v 4.61016" fill="none" stroke="black"/>
<path d="M374.673,341.152v 4.61016" fill="none" stroke="black"/>
<path d="M386.012,341.152v 4.61016" fill="none" stroke="black"/>
<path d="M397.35,336.541v 9.22031" fill="none" stroke="black"/>
<path d="M408.689,341.152v 4.61016" fill="none" stroke="black"/>
<path d="M420.028,341.152v 4.61016" fill="none" stroke="black"/>
<path d="M431.366,341.152v 4.61016" fill="none" stroke="black"/>
<path d="M442.705,341.152v 4.61016" fill="none" stroke="black"/>
<path d="M454.043,336.541v 9.22031" fill="none" stroke="black"/>
<path d="M465.382,341.152v 4.61016" fill="none" stroke="black"/>
<path d="M476.72,341.152v 4.61016" fill="none" stroke="black"/>
<path d="M488.059,341.152v 4.61016" fill="none" stroke="black"/>
<path d="M499.398,341.152v 4.61016" fill="none" stroke="black"/>
<path d="M510.736,336.541v 9.22031" fill="none" stroke="black"/>
<text xml:space="preserve" x="53.2943" y="358.189" fill="black" font-size="12.836" font-family="Helvetica">0</text>
<text xml:space="preserve" x="110.15" y="358.189" fill="black" font-size="12.836" font-family="Helvetica">5</text>
<text xml:space="preserve" x="163.756" y="358.189" fill="black" font-size="12.836" font-family="Helvetica">10</text>
<text xml:space="preserve" x="219.799" y="358.189" fill="black" font-size="12.836" font-family="Helvetica">15</text>
<text xml:space="preserve" x="277.467" y="358.189" fill="black" font-size="12.836" font-family="Helvetica">20</text>
<text xml:space="preserve" x="332.698" y="358.189" fill="black" font-size="12.836" font-family="Helvetica">25</text>
<text xml:space="preserve" x="390.365" y="358.189" fill="black" font-size="12.836" font-family="Helvetica">30</text>
<text xml:space="preserve" x="446.408" y="358.189" fill="black" font-size="12.836" font-family="Helvetica">35</text>
<text xml:space="preserve" x="504.076" y="358.189" fill="black" font-size="12.836" font-family="Helvetica">40</text>
<text xml:space="preserve" x="441.535" y="370.372" fill="black" font-size="12.836" font-family="Helvetica">Energy [keV]</text>
<path d="M57.1929,345.762v -307.344" fill="none" stroke="black"/>
<path d="M70.7992,345.762h -13.6063" fill="none" stroke="black"/>
<path d="M63.9961,339.61h -6.80315" fill="none" stroke="black"/>
<path d="M63.9961,333.458h -6.80315" fill="none" stroke="black"/>
<path d="M63.9961,327.306h -6.80315" fill="none" stroke="black"/>
<path d="M70.7992,321.154h -13.6063" fill="none" stroke="black"/>
<path d="M63.9961,315.002h -6.80315" fill="none" stroke="black"/>
<path d="M63.9961,308.85h -6.80315" fill="none" stroke="black"/>
<path d="M63.9961,302.698h -6.80315" fill="none" stroke="black"/>
<path d="M70.7992,296.546h -13.6063" fill="none" stroke="black"/>
<path d="M63.9961,290.395h -6.80315" fill="none" stroke="black"/>
<path d="M63.9961,284.243h -6.80315" fill="none" stroke="black"/>
<path d="M63.9961,278.091h -6.80315" fill="none" stroke="black"/>
<path d="M70.7992,271.939h -13.6063" fill="none" stroke="black"/>
<path d="M63.9961,265.787h -6.80315" fill="none" stroke="black"/>
<path d="M63.9961,259.635h -6.80315" fill="none" stroke="black"/>
<path d="M63.9961,253.483h -6.80315" fill="none" stroke="black"/>
<path d="M70.7992,247.331h -13.6063" fill="none" stroke="black"/>
<path d="M63.9961,241.179h -6.80315" fill="none" stroke="black"/>
<path d="M63.9961,235.027h -6.80315" fill="none" stroke="black"/>
<path d="M63.9961,228.875h -6.80315" fill="none" stroke="black"/>
<path d="M70.7992,222.723h -13.6063" fill="none" stroke="black"/>
<path d="M63.9961,216.571h -6.80315" fill="none" stroke="black"/>
<path d="M63.9961,210.42h -6.80315" fill="none" stroke="black"/>
<path d="M63.9961,204.268h -6.80315" fill="none" stroke="black"/>
<path d="M70.7992,198.116h -13.6063" fill="none" stroke="black"/>
<path d="M63.9961,191.964h -6.80315" fill="none" stroke="black"/>
<path d="M63.9961,185.812h -6.80315" fill="none" stroke="black"/>
<path d="M63.9961,179.66h -6.80315" fill="none" stroke="black"/>
<path d="M70.7992,173.508h -13.6063" fill="none" stroke="black"/>
<path d="M63.9961,167.356h -6.80315" fill="none" stroke="black"/>
<path d="M63.9961,161.204h -6.80315" fill="none" stroke="black"/>
<path d="M63.9961,155.052h -6.80315" fill="none" stroke="black"/>
<path d="M70.7992,148.9h -13.6063" fill="none" stroke="black"/>
<path d="M63.9961,142.748h -6.80315" fill="none" stroke="black"/>
<path d="M63.9961,136.596h -6.80315" fill="none" stroke="black"/>
<path d="M63.9961,130.445h -6.80315" fill="none" stroke="black"/>
<path d="M70.7992,124.293h -13.6063" fill="none" stroke="black"/>
<path d="M63.9961,118.141h -6.80315" fill="none" stroke="black"/>
<path d="M63.9961,111.989h -6.80315" fill="none" stroke="black"/>
<path d="M63.9961,105.837h -6.80315" fill="none" stroke="black"/>
<path d="M70.7992,99.685h -13.6063" fill="none" stroke="black"/>
<path d="M63.9961,93.533h -6.80315" fill="none" stroke="black"/>
<path d="M63.9961,87.3811h -6.80315" fill="none" stroke="black"/>
<path d="M63.9961,81.2292h -6.80315" fill="none" stroke="black"/>
<path d="M70.7992,75.0773h -13.6063" fill="none" stroke="black"/>
<path d="M63.9961,68.9254h -6.80315" fill="none" stroke="black"/>
<path d="M63.9961,62.7734h -6.80315" fill="none" stroke="black"/>
<path d="M63.9961,56.6215h -6.80315" fill="none" stroke="black"/>
<path d="M70.7992,50.4696h -13.6063" fill="none" stroke="black"/>
<path d="M70.7992,50.4696h -13.6063" fill="none" stroke="black"/>
<path d="M63.9961,44.3177h -6.80315" fill="none" stroke="black"/>
<text xml:space="preserve" x="47.6087" y="350.067" fill="black" font-size="12.836" font-family="Helvetica">0</text>
<text xml:space="preserve" x="33.801" y="325.7" fill="black" font-size="12.836" font-family="Helvetica">200</text>
<text xml:space="preserve" x="33.801" y="301.333" fill="black" font-size="12.836" font-family="Helvetica">400</text>
<text xml:space="preserve" x="33.801" y="276.155" fill="black" font-size="12.836" font-family="Helvetica">600</text>
<text xml:space="preserve" x="33.801" y="251.788" fill="black" font-size="12.836" font-family="Helvetica">800</text>
<text xml:space="preserve" x="27.3032" y="227.421" fill="black" font-size="12.836" font-family="Helvetica">1000</text>
<text xml:space="preserve" x="27.3032" y="202.243" fill="black" font-size="12.836" font-family="Helvetica">1200</text>
<text xml:space="preserve" x="27.3032" y="177.876" fill="black" font-size="12.836" font-family="Helvetica">1400</text>
<text xml:space="preserve" x="27.3032" y="153.509" fill="black" font-size="12.836" font-family="Helvetica">1600</text>
<text xml:space="preserve" x="27.3032" y="129.143" fill="black" font-size="12.836" font-family="Helvetica">1800</text>
<text xml:space="preserve" x="27.3032" y="103.964" fill="black" font-size="12.836" font-family="Helvetica">2000</text>
<text xml:space="preserve" x="27.3032" y="79.5975" fill="black" font-size="12.836" font-family="Helvetica">2200</text>
<text xml:space="preserve" x="27.3032" y="55.2309" fill="black" font-size="12.836" font-family="Helvetica">2400</text>
<g transform="rotate(-90,14.3077,69.8509)">
<text xml:space="preserve" x="14.3077" y="69.8509" fill="black" font-size="12.836" font-family="Helvetica">Event</text>
</g>
<text xml:space="preserve" x="206.804" y="18.681" fill="black" font-size="17.9813" font-family="Helvetica">Am_009_calibrated</text>
<rect x="442.705" y="24.9717" width="113.386" height="61.4688" fill="white"/>
<path d="M442.705,86.4405h 113.386" fill="none" stroke="black"/>
<path d="M556.091,86.4405v -61.4688" fill="none" stroke="black"/>
<path d="M556.091,24.9717h -113.386" fill="none" stroke="black"/>
<path d="M442.705,24.9717v 61.4688" fill="none" stroke="black"/>
<text xml:space="preserve" x="446.408" y="36.5499" fill="black" font-size="12.1772" font-family="Helvetica">Am_009_calibrated</text>
<path d="M442.705,40.3389h 113.386" fill="none" stroke="black"/>
<text xml:space="preserve" x="448.033" y="52.7943" fill="black" font-size="12.4124" font-family="Helvetica">Entries </text>
<text xml:space="preserve" x="506.513" y="52.7943" fill="black" font-size="12.4124" font-family="Helvetica"> 116742</text>
<text xml:space="preserve" x="448.033" y="68.2264" fill="black" font-size="12.4124" font-family="Helvetica">Mean  </text>
<text xml:space="preserve" x="513.01" y="68.2264" fill="black" font-size="12.4124" font-family="Helvetica">  21.19</text>
<text xml:space="preserve" x="448.033" y="82.8464" fill="black" font-size="12.4124" font-family="Helvetica">Std Dev   </text>
<text xml:space="preserve" x="513.01" y="82.8464" fill="black" font-size="12.4124" font-family="Helvetica">  8.383</text>
<text xml:space="preserve" x="206.804" y="18.681" fill="black" font-size="17.9813" font-family="Helvetica">Am_009_calibrated</text></svg>
