<?xml version="1.0" standalone="no"?>
<svg width="567.429" height="384.969" viewBox="0 0 567.429 384.969" xmlns="http://www.w3.org/2000/svg" shape-rendering="crispEdges">
<title>
img/week1/calibrated_hist_high_gain/Am_009_calibrated_fit_gaus.svg
</title>
<desc>
Creator: ROOT Version 6.22/09
CreationDate: Tue Jul 13 19:15:41 2021</desc>
<defs>
</defs>
<rect x="0.5" y="0" width="566.929" height="384.469" fill="white"/>
<rect x="57.1929" y="38.4469" width="453.543" height="307.575" fill="white"/>
<rect x="57.1929" y="38.4469" width="453.543" height="307.575" fill="none" stroke="black"/>
<path d="M57.1929,346.022h 74.4094v -0.51391h 0.506187v -2.56955h 0.506187v -8.22257h 0.506187v -34.432h 0.506187v -8.22257h 0.506187v 8.22257h 0.506187v 2.05564h 0.506187v 2.56955h 0.506187v -0.51391h 0.506187v -12.3338h 0.506187v -1.02782h
 0.506187v 5.1391h 0.506187v 11.8199h 0.506187v -9.7643h 0.506187v 7.19474h 0.506187v -6.68083h 0.506187v 4.11128h 0.506187v -2.56955h 0.506187v -1.02782h 1.01237v 1.02782h 0.506187v -3.59737h 0.506187v 6.16692h 0.506187v -8.73648h 0.506187v 6.16692h
 0.506187v 5.65301h 0.506187v 4.62519h 0.506187v -3.59737h 0.506187v -6.68083h 0.506187v 4.62519h 0.506187v -7.70865h 0.506187v 6.16692h 0.506187v 15.4173h 0.506187v -13.8756h 0.506187v 2.56955h 0.506187v -5.65301h 0.506187v -5.1391h 0.506187v
 1.02782h 0.506187v 4.11128h 0.506187v 6.16692h 0.506187v -2.56955h 0.506187v -11.306h 0.506187v 0.51391h 0.506187v 7.19474h 0.506187v 7.70865h 0.506187v -10.7921h 0.506187v 1.54173h 0.506187v 2.56955h 0.506187v 9.7643h 0.506187v -7.70865h 0.506187v
 -1.54173h 0.506187v -2.56955h 0.506187v 4.62519h 0.506187v -0.51391h 0.506187v -1.54173h 0.506187v 1.54173h 0.506187v 3.08346h 0.506187v -4.62519h 0.506187v 2.56955h 0.506187v 3.59737h 0.506187v -8.22257h 0.506187v 4.11128h 0.506187v -7.19474h
 0.506187v -3.59737h 0.506187v 6.68083h 0.506187v 7.19474h 0.506187v -6.68083h 0.506187v 5.65301h 0.506187v -3.59737h 0.506187v 3.59737h 0.506187v -3.59737h 0.506187v 5.1391h 0.506187v -5.65301h 0.506187v 5.1391h 0.506187v -15.9312h 0.506187v 9.7643h
 0.506187v 10.2782h 0.506187v -7.70865h 0.506187v -3.08346h 0.506187v 8.22257h 0.506187v -3.59737h 0.506187v -8.22257h 0.506187v 3.59737h 0.506187v 1.54173h 0.506187v 10.2782h 0.506187v -14.3895h 0.506187v 3.08346h 0.506187v 4.62519h 0.506187v
 -1.54173h 0.506187v -0.51391h 1.01237v 2.56955h 0.506187v -4.11128h 0.506187v -1.54173h 0.506187v -1.02782h 0.506187v 5.1391h 0.506187v -7.19474h 0.506187v 17.9869h 0.506187v -10.7921h 0.506187v 2.56955h 0.506187v -8.22257h 0.506187v 5.1391h
 0.506187v 3.59737h 0.506187v -5.65301h 0.506187v 1.02782h 0.506187v 4.11128h 0.506187v -5.65301h 0.506187v 4.11128h 0.506187v -7.19474h 0.506187v -2.56955h 0.506187v 16.959h 0.506187v -6.68083h 0.506187v -1.02782h 0.506187v -5.1391h 0.506187v
 -2.56955h 0.506187v 2.05564h 0.506187v 8.73648h 0.506187v 5.65301h 0.506187v -7.19474h 0.506187v -4.62519h 0.506187v -6.16692h 0.506187v 15.4173h 0.506187v 0.51391h 0.506187v -7.70865h 1.01237v -6.68083h 0.506187v -1.02782h 0.506187v 4.62519h
 0.506187v -1.02782h 0.506187v 4.62519h 0.506187v 13.3617h 0.506187v -8.22257h 0.506187v -4.62519h 0.506187v -5.1391h 0.506187v -1.54173h 0.506187v 3.59737h 0.506187v 3.59737h 0.506187v 8.73648h 0.506187v -11.306h 0.506187v 2.05564h 0.506187v
 1.54173h 0.506187v -1.02782h 0.506187v 5.1391h 0.506187v -3.08346h 0.506187v -4.11128h 0.506187v 5.65301h 0.506187v -9.25039h 0.506187v 0.51391h 0.506187v -4.11128h 0.506187v 7.70865h 0.506187v 7.19474h 0.506187v -7.19474h 0.506187v -2.05564h
 0.506187v -3.59737h 0.506187v 8.73648h 0.506187v -1.02782h 0.506187v 4.62519h 0.506187v -11.8199h 0.506187v -9.25039h 0.506187v 14.9034h 0.506187v -7.70865h 0.506187v 7.19474h 0.506187v -2.05564h 0.506187v 11.306h 0.506187v -8.73648h 0.506187v
 -8.22257h 0.506187v -7.70865h 0.506187v 2.56955h 0.506187v -1.02782h 0.506187v 10.7921h 0.506187v 1.02782h 0.506187v -13.8756h 0.506187v 9.7643h 0.506187v -15.9312h 0.506187v 0.51391h 0.506187v 5.1391h 0.506187v 16.959h 0.506187v -14.9034h 0.506187v
 -5.1391h 0.506187v -3.59737h 0.506187v -0.51391h 0.506187v 13.8756h 0.506187v -5.1391h 0.506187v -0.51391h 0.506187v -6.16692h 0.506187v -3.08346h 0.506187v 1.54173h 0.506187v 0.51391h 0.506187v -2.05564h 0.506187v 13.3617h 0.506187v -28.779h
 0.506187v 6.68083h 0.506187v 2.05564h 0.506187v 2.56955h 0.506187v 8.73648h 0.506187v -8.22257h 0.506187v -1.54173h 0.506187v -1.02782h 0.506187v -2.05564h 0.506187v -7.19474h 0.506187v 5.65301h 1.01237v 10.7921h 0.506187v -21.5842h 0.506187v
 10.7921h 0.506187v -1.02782h 0.506187v -7.19474h 0.506187v 5.65301h 0.506187v 2.56955h 0.506187v -8.73648h 0.506187v 4.62519h 0.506187v -4.11128h 0.506187v -11.306h 0.506187v 11.306h 0.506187v 11.306h 0.506187v -17.9869h 0.506187v 0.51391h 0.506187v
 3.59737h 0.506187v -4.11128h 0.506187v 1.54173h 0.506187v 15.9312h 0.506187v -7.70865h 0.506187v -14.9034h 0.506187v 5.1391h 0.506187v 5.1391h 0.506187v -14.3895h 0.506187v 6.16692h 0.506187v 12.8478h 0.506187v 4.11128h 0.506187v -24.6677h 0.506187v
 12.3338h 0.506187v -3.59737h 0.506187v -4.11128h 0.506187v 7.19474h 0.506187v 0.51391h 0.506187v -11.306h 0.506187v -1.54173h 0.506187v -19.0147h 0.506187v 14.3895h 0.506187v 8.73648h 0.506187v 1.54173h 0.506187v -8.22257h 0.506187v -10.2782h
 0.506187v -8.73648h 0.506187v -3.08346h 0.506187v 5.65301h 0.506187v 9.7643h 0.506187v 4.62519h 0.506187v -9.25039h 0.506187v -6.68083h 0.506187v -12.3338h 0.506187v 2.56955h 0.506187v 1.54173h 0.506187v 4.62519h 0.506187v 10.7921h 0.506187v
 1.54173h 0.506187v -48.8215h 0.506187v 23.126h 0.506187v 2.05564h 0.506187v 2.05564h 0.506187v 11.8199h 0.506187v -2.05564h 0.506187v -21.5842h 0.506187v -1.54173h 0.506187v -17.9869h 0.506187v 22.6121h 0.506187v -7.19474h 0.506187v 7.70865h
 0.506187v -18.5008h 0.506187v -12.8478h 0.506187v 11.306h 0.506187v -19.5286h 0.506187v 35.4598h 0.506187v -5.65301h 0.506187v -35.4598h 0.506187v 2.56955h 0.506187v -14.3895h 0.506187v -6.16692h 0.506187v 24.6677h 0.506187v 1.02782h 0.506187v
 -6.16692h 0.506187v -28.779h 0.506187v 9.25039h 0.506187v 2.56955h 0.506187v 3.08346h 0.506187v -32.8903h 0.506187v 45.738h 0.506187v -22.6121h 0.506187v -9.7643h 0.506187v -24.6677h 0.506187v 24.6677h 0.506187v 1.54173h 0.506187v 13.8756h 0.506187v
 21.0703h 0.506187v -33.9181h 0.506187v -27.7512h 0.506187v 12.8478h 0.506187v -10.2782h 0.506187v 26.7233h 0.506187v -21.0703h 0.506187v 20.5564h 0.506187v -10.2782h 0.506187v -21.0703h 0.506187v -12.8478h 0.506187v 8.22257h 0.506187v 11.8199h
 0.506187v 24.1538h 0.506187v -23.126h 0.506187v -53.4467h 0.506187v 13.8756h 0.506187v 18.5008h 0.506187v 33.9181h 0.506187v 14.3895h 0.506187v -24.1538h 0.506187v -29.8068h 0.506187v -2.56955h 0.506187v -23.126h 0.506187v 47.7937h 0.506187v
 44.7102h 0.506187v -17.473h 0.506187v -17.9869h 0.506187v -16.959h 0.506187v -8.22257h 0.506187v 14.9034h 0.506187v 46.2519h 0.506187v -12.8478h 0.506187v 16.4451h 0.506187v -26.2094h 0.506187v -32.3764h 0.506187v 27.2372h 0.506187v 8.22257h
 0.506187v 26.7233h 0.506187v -0.51391h 0.506187v 5.65301h 0.506187v -42.1406h 0.506187v 10.2782h 0.506187v 8.73648h 0.506187v 18.5008h 0.506187v 31.3485h 0.506187v -38.5433h 0.506187v -17.9869h 0.506187v 14.3895h 0.506187v 21.5842h 0.506187v
 -16.959h 0.506187v 41.6267h 0.506187v -21.5842h 0.506187v -21.5842h 0.506187v 15.4173h 0.506187v 7.70865h 0.506187v -6.68083h 0.506187v 31.3485h 0.506187v 21.0703h 0.506187v -21.0703h 0.506187v -13.8756h 0.506187v -22.6121h 0.506187v 20.0425h
 0.506187v 29.2929h 0.506187v 8.22257h 0.506187v -2.05564h 0.506187v -16.4451h 0.506187v 4.11128h 0.506187v -10.7921h 0.506187v 15.9312h 0.506187v -7.70865h 0.506187v 30.3207h 0.506187v -19.5286h 0.506187v -11.306h 0.506187v -6.16692h 0.506187v
 10.2782h 0.506187v 12.8478h 0.506187v 4.62519h 0.506187v 11.306h 0.506187v -21.5842h 0.506187v -4.11128h 0.506187v 6.68083h 0.506187v 10.2782h 0.506187v 8.22257h 0.506187v 20.0425h 0.506187v -28.779h 0.506187v 12.3338h 0.506187v -25.6955h 0.506187v
 5.1391h 0.506187v 14.3895h 0.506187v 8.73648h 0.506187v -3.08346h 0.506187v -9.7643h 0.506187v 1.54173h 0.506187v -3.59737h 0.506187v 0.51391h 0.506187v 19.5286h 0.506187v 2.05564h 0.506187v -12.3338h 0.506187v -13.3617h 0.506187v 0.51391h 0.506187v
 4.62519h 0.506187v 15.9312h 0.506187v -4.62519h 0.506187v -1.54173h 0.506187v 6.68083h 0.506187v -15.9312h 0.506187v -3.08346h 0.506187v 9.25039h 0.506187v 11.8199h 0.506187v -0.51391h 0.506187v -3.08346h 0.506187v -3.59737h 0.506187v -14.9034h
 0.506187v 23.6399h 0.506187v -13.3617h 0.506187v 26.7233h 0.506187v -6.16692h 0.506187v -8.73648h 0.506187v -12.3338h 0.506187v 3.08346h 0.506187v 2.05564h 0.506187v 24.6677h 0.506187v -6.68083h 0.506187v -5.65301h 0.506187v -2.56955h 0.506187v
 -9.7643h 0.506187v 6.16692h 0.506187v 9.7643h 0.506187v 0.51391h 0.506187v 3.59737h 0.506187v 5.1391h 0.506187v -22.0981h 0.506187v 16.4451h 0.506187v -10.7921h 0.506187v 12.8478h 0.506187v 11.8199h 0.506187v 0.51391h 0.506187v -16.4451h 0.506187v
 -0.51391h 0.506187v -2.05564h 0.506187v 11.306h 0.506187v 3.08346h 0.506187v 6.16692h 0.506187v -3.08346h 0.506187v 2.56955h 0.506187v -6.68083h 0.506187v -0.51391h 0.506187v 21.5842h 0.506187v -9.25039h 0.506187v -0.51391h 0.506187v -1.54173h
 0.506187v -3.59737h 0.506187v 7.70865h 0.506187v 2.56955h 0.506187v 4.11128h 0.506187v 2.56955h 1.01237v 2.05564h 0.506187v -14.3895h 0.506187v 11.8199h 0.506187v 3.08346h 0.506187v 13.8756h 0.506187v -17.9869h 0.506187v 1.54173h 0.506187v -2.56955h
 0.506187v 5.1391h 0.506187v 4.11128h 0.506187v -3.08346h 0.506187v 10.2782h 0.506187v -7.19474h 0.506187v 5.1391h 0.506187v -4.62519h 0.506187v -0.51391h 0.506187v 11.8199h 0.506187v 5.1391h 0.506187v -1.02782h 0.506187v -4.11128h 0.506187v
 -4.11128h 0.506187v 3.08346h 1.01237v 6.68083h 0.506187v 8.22257h 0.506187v -10.7921h 0.506187v -3.08346h 0.506187v -1.02782h 1.01237v 8.73648h 0.506187v -1.02782h 0.506187v 5.1391h 0.506187v -6.68083h 0.506187v -3.59737h 0.506187v 8.73648h
 0.506187v -12.3338h 0.506187v 2.05564h 0.506187v 9.7643h 0.506187v -6.68083h 0.506187v 0.51391h 1.01237v 8.73648h 0.506187v -5.65301h 0.506187v 5.65301h 0.506187v -11.306h 0.506187v 4.11128h 0.506187v 0.51391h 0.506187v -2.05564h 0.506187v 7.19474h
 0.506187v 1.54173h 0.506187v -1.54173h 0.506187v -1.54173h 1.01237v -9.7643h 0.506187v 13.3617h 0.506187v -6.68083h 0.506187v 7.19474h 0.506187v -3.59737h 0.506187v 3.08346h 0.506187v -11.8199h 0.506187v 0.51391h 0.506187v 14.3895h 0.506187v
 -3.08346h 0.506187v 5.1391h 0.506187v -17.473h 0.506187v 0.51391h 0.506187v -6.16692h 0.506187v 3.08346h 0.506187v 7.70865h 0.506187v 8.22257h 0.506187v -17.9869h 0.506187v 9.25039h 0.506187v -5.1391h 0.506187v -8.73648h 0.506187v 15.4173h 0.506187v
 -3.08346h 0.506187v 3.59737h 0.506187v 5.65301h 0.506187v -11.306h 0.506187v 3.08346h 0.506187v -7.19474h 0.506187v 9.7643h 0.506187v -12.3338h 0.506187v 13.3617h 0.506187v -5.1391h 0.506187v -8.73648h 0.506187v 6.16692h 0.506187v -1.02782h
 0.506187v 5.65301h 0.506187v -0.51391h 0.506187v -7.19474h 0.506187v -1.54173h 0.506187v -3.59737h 0.506187v 4.62519h 0.506187v 10.2782h 0.506187v 1.02782h 0.506187v -0.51391h 0.506187v -5.65301h 0.506187v -0.51391h 0.506187v 4.11128h 0.506187v
 1.02782h 0.506187v -5.1391h 0.506187v 7.19474h 0.506187v -4.62519h 0.506187v -1.54173h 0.506187v 2.05564h 0.506187v -3.08346h 0.506187v 8.73648h 0.506187v -0.51391h 0.506187v 0.51391h 0.506187v 4.11128h 0.506187v -13.3617h 0.506187v 12.8478h
 0.506187v -3.59737h 0.506187v -4.62519h 0.506187v 10.7921h 0.506187v -4.62519h 0.506187v -3.59737h 0.506187v 6.16692h 0.506187v -3.59737h 0.506187v 6.68083h 0.506187v -5.1391h 0.506187v 6.68083h 0.506187v -2.05564h 0.506187v 3.08346h 1.01237v
 -7.19474h 0.506187v 6.68083h 0.506187v 8.22257h 0.506187v -10.2782h 0.506187v -1.02782h 0.506187v -1.54173h 0.506187v 1.02782h 0.506187v 4.62519h 0.506187v 9.25039h 0.506187v -2.05564h 0.506187v -7.70865h 0.506187v 3.08346h 0.506187v -0.51391h
 0.506187v -4.11128h 0.506187v 9.25039h 0.506187v -1.54173h 0.506187v -1.54173h 0.506187v 3.08346h 0.506187v -3.59737h 0.506187v 3.08346h 0.506187v 1.54173h 0.506187v -1.54173h 0.506187v -3.59737h 0.506187v 2.56955h 0.506187v 0.51391h 0.506187v
 2.56955h 0.506187v -2.56955h 0.506187v 8.73648h 0.506187v -3.59737h 0.506187v -5.1391h 0.506187v 3.59737h 0.506187v -2.05564h 0.506187v 5.1391h 0.506187v -3.59737h 0.506187v 3.08346h 0.506187v -3.08346h 0.506187v 3.59737h 0.506187v -3.59737h
 0.506187v 4.11128h 1.01237v -1.02782h 0.506187v 1.02782h 1.01237v -1.02782h 0.506187v 1.02782h 0.506187v 1.02782h 0.506187v -6.16692h 0.506187v 7.19474h 0.506187v -2.05564h 0.506187v 1.54173h 0.506187v -1.02782h 1.01237v 3.08346h 0.506187v 0.51391h
 0.506187v 1.02782h 0.506187v -2.05564h 0.506187v -1.54173h 0.506187v 2.05564h 0.506187v -2.05564h 0.506187v 1.02782h 0.506187v -0.51391h 0.506187v 0.51391h 0.506187v -1.54173h 0.506187v 2.56955h 0.506187v -1.54173h 0.506187v 0.51391h 0.506187v
 1.54173h 0.506187v 0.51391h 0.506187v -2.05564h 0.506187v -1.02782h 0.506187v 1.54173h 1.01237v 2.05564h 0.506187v -2.56955h 0.506187v -0.51391h 0.506187v 2.56955h 1.01237v 0.51391h 0.506187v -2.56955h 1.01237v 2.56955h 0.506187v -3.08346h 0.506187v
 0.51391h 0.506187v 1.02782h 0.506187v 1.02782h 1.01237v -0.51391h 0.506187v 0.51391h 0.506187v -3.08346h 0.506187v 2.05564h 0.506187v -2.05564h 0.506187v 1.54173h 0.506187v -1.02782h 0.506187v 2.05564h 0.506187v 2.05564h 0.506187v -2.05564h 1.01237v
 -0.51391h 1.01237v 1.54173h 0.506187v -3.08346h 0.506187v 2.05564h 0.506187v 0.51391h 0.506187v -0.51391h 1.01237v -1.02782h 0.506187v 1.54173h 0.506187v -0.51391h 0.506187v -2.05564h 0.506187v 0.51391h 0.506187v 0.51391h 0.506187v 3.08346h
 0.506187v -1.02782h 0.506187v -3.08346h 0.506187v 1.02782h 0.506187v -0.51391h 0.506187v 2.05564h 0.506187v -1.54173h 0.506187v 1.54173h 1.51856v -0.51391h 0.506187v -0.51391h 0.506187v -1.02782h 1.01237v 2.05564h 1.01237v -1.02782h 0.506187v
 1.02782h 0.506187v -0.51391h 0.506187v 0.51391h 1.01237v 0.51391h 0.506187v -1.02782h 0.506187v -2.56955h 0.506187v 1.02782h 0.506187v 2.05564h 0.506187v 0.51391h 0.506187v 1.02782h 0.506187v -1.02782h 0.506187v -1.02782h 1.01237v 1.02782h 0.506187v
 -2.05564h 0.506187v 2.05564h 0.506187v -0.51391h 0.506187v -0.51391h 0.506187v -0.51391h 0.506187v 0.51391h 0.506187v -0.51391h 2.02475v 1.02782h 0.506187v -1.02782h 0.506187v -1.54173h 0.506187v 0.51391h 0.506187v -1.02782h 0.506187v 2.56955h
 0.506187v -0.51391h 0.506187v 1.54173h 0.506187v -0.51391h 0.506187v -1.54173h 0.506187v 0.51391h 0.506187v -2.05564h 0.506187v 2.56955h 0.506187v -0.51391h 0.506187v 1.02782h 1.51856v 1.02782h 0.506187v -1.54173h 0.506187" fill="none"
 stroke="#000099"/>
<path d="M57.1929,346.022h 453.543" fill="none" stroke="black"/>
<path d="M57.1929,336.795v 9.22726" fill="none" stroke="black"/>
<path d="M70.1513,341.409v 4.61363" fill="none" stroke="black"/>
<path d="M83.1097,341.409v 4.61363" fill="none" stroke="black"/>
<path d="M96.0681,341.409v 4.61363" fill="none" stroke="black"/>
<path d="M109.026,341.409v 4.61363" fill="none" stroke="black"/>
<path d="M121.985,336.795v 9.22726" fill="none" stroke="black"/>
<path d="M134.943,341.409v 4.61363" fill="none" stroke="black"/>
<path d="M147.902,341.409v 4.61363" fill="none" stroke="black"/>
<path d="M160.86,341.409v 4.61363" fill="none" stroke="black"/>
<path d="M173.818,341.409v 4.61363" fill="none" stroke="black"/>
<path d="M186.777,336.795v 9.22726" fill="none" stroke="black"/>
<path d="M199.735,341.409v 4.61363" fill="none" stroke="black"/>
<path d="M212.693,341.409v 4.61363" fill="none" stroke="black"/>
<path d="M225.652,341.409v 4.61363" fill="none" stroke="black"/>
<path d="M238.61,341.409v 4.61363" fill="none" stroke="black"/>
<path d="M251.569,336.795v 9.22726" fill="none" stroke="black"/>
<path d="M264.527,341.409v 4.61363" fill="none" stroke="black"/>
<path d="M277.485,341.409v 4.61363" fill="none" stroke="black"/>
<path d="M290.444,341.409v 4.61363" fill="none" stroke="black"/>
<path d="M303.402,341.409v 4.61363" fill="none" stroke="black"/>
<path d="M316.361,336.795v 9.22726" fill="none" stroke="black"/>
<path d="M329.319,341.409v 4.61363" fill="none" stroke="black"/>
<path d="M342.277,341.409v 4.61363" fill="none" stroke="black"/>
<path d="M355.236,341.409v 4.61363" fill="none" stroke="black"/>
<path d="M368.194,341.409v 4.61363" fill="none" stroke="black"/>
<path d="M381.152,336.795v 9.22726" fill="none" stroke="black"/>
<path d="M394.111,341.409v 4.61363" fill="none" stroke="black"/>
<path d="M407.069,341.409v 4.61363" fill="none" stroke="black"/>
<path d="M420.028,341.409v 4.61363" fill="none" stroke="black"/>
<path d="M432.986,341.409v 4.61363" fill="none" stroke="black"/>
<path d="M445.944,336.795v 9.22726" fill="none" stroke="black"/>
<path d="M458.903,341.409v 4.61363" fill="none" stroke="black"/>
<path d="M471.861,341.409v 4.61363" fill="none" stroke="black"/>
<path d="M484.819,341.409v 4.61363" fill="none" stroke="black"/>
<path d="M497.778,341.409v 4.61363" fill="none" stroke="black"/>
<path d="M510.736,336.795v 9.22726" fill="none" stroke="black"/>
<text xml:space="preserve" x="53.446" y="358.403" fill="black" font-size="12.8453" font-family="Helvetica">0</text>
<text xml:space="preserve" x="118.61" y="358.403" fill="black" font-size="12.8453" font-family="Helvetica">5</text>
<text xml:space="preserve" x="179.702" y="358.403" fill="black" font-size="12.8453" font-family="Helvetica">10</text>
<text xml:space="preserve" x="244.051" y="358.403" fill="black" font-size="12.8453" font-family="Helvetica">15</text>
<text xml:space="preserve" x="309.216" y="358.403" fill="black" font-size="12.8453" font-family="Helvetica">20</text>
<text xml:space="preserve" x="373.565" y="358.403" fill="black" font-size="12.8453" font-family="Helvetica">25</text>
<text xml:space="preserve" x="438.73" y="358.403" fill="black" font-size="12.8453" font-family="Helvetica">30</text>
<text xml:space="preserve" x="503.079" y="358.403" fill="black" font-size="12.8453" font-family="Helvetica">35</text>
<text xml:space="preserve" x="441.173" y="370.622" fill="black" font-size="12.8453" font-family="Helvetica">Energy [keV]</text>
<path d="M57.1929,346.022v -307.575" fill="none" stroke="black"/>
<path d="M70.7992,346.022h -13.6063" fill="none" stroke="black"/>
<path d="M63.9961,335.744h -6.80315" fill="none" stroke="black"/>
<path d="M63.9961,325.466h -6.80315" fill="none" stroke="black"/>
<path d="M63.9961,315.188h -6.80315" fill="none" stroke="black"/>
<path d="M63.9961,304.909h -6.80315" fill="none" stroke="black"/>
<path d="M70.7992,294.631h -13.6063" fill="none" stroke="black"/>
<path d="M63.9961,284.353h -6.80315" fill="none" stroke="black"/>
<path d="M63.9961,274.075h -6.80315" fill="none" stroke="black"/>
<path d="M63.9961,263.797h -6.80315" fill="none" stroke="black"/>
<path d="M63.9961,253.518h -6.80315" fill="none" stroke="black"/>
<path d="M70.7992,243.24h -13.6063" fill="none" stroke="black"/>
<path d="M63.9961,232.962h -6.80315" fill="none" stroke="black"/>
<path d="M63.9961,222.684h -6.80315" fill="none" stroke="black"/>
<path d="M63.9961,212.406h -6.80315" fill="none" stroke="black"/>
<path d="M63.9961,202.127h -6.80315" fill="none" stroke="black"/>
<path d="M70.7992,191.849h -13.6063" fill="none" stroke="black"/>
<path d="M63.9961,181.571h -6.80315" fill="none" stroke="black"/>
<path d="M63.9961,171.293h -6.80315" fill="none" stroke="black"/>
<path d="M63.9961,161.015h -6.80315" fill="none" stroke="black"/>
<path d="M63.9961,150.736h -6.80315" fill="none" stroke="black"/>
<path d="M70.7992,140.458h -13.6063" fill="none" stroke="black"/>
<path d="M63.9961,130.18h -6.80315" fill="none" stroke="black"/>
<path d="M63.9961,119.902h -6.80315" fill="none" stroke="black"/>
<path d="M63.9961,109.624h -6.80315" fill="none" stroke="black"/>
<path d="M63.9961,99.3453h -6.80315" fill="none" stroke="black"/>
<path d="M70.7992,89.0671h -13.6063" fill="none" stroke="black"/>
<path d="M70.7992,89.0671h -13.6063" fill="none" stroke="black"/>
<path d="M63.9961,78.7889h -6.80315" fill="none" stroke="black"/>
<path d="M63.9961,68.5107h -6.80315" fill="none" stroke="black"/>
<path d="M63.9961,58.2325h -6.80315" fill="none" stroke="black"/>
<path d="M63.9961,47.9543h -6.80315" fill="none" stroke="black"/>
<text xml:space="preserve" x="47.7441" y="350.258" fill="black" font-size="12.8453" font-family="Helvetica">0</text>
<text xml:space="preserve" x="33.8967" y="298.941" fill="black" font-size="12.8453" font-family="Helvetica">100</text>
<text xml:space="preserve" x="33.8967" y="247.624" fill="black" font-size="12.8453" font-family="Helvetica">200</text>
<text xml:space="preserve" x="33.8967" y="196.307" fill="black" font-size="12.8453" font-family="Helvetica">300</text>
<text xml:space="preserve" x="33.8967" y="144.99" fill="black" font-size="12.8453" font-family="Helvetica">400</text>
<text xml:space="preserve" x="33.8967" y="93.6736" fill="black" font-size="12.8453" font-family="Helvetica">500</text>
<g transform="rotate(-90,20.8638,70.0516)">
<text xml:space="preserve" x="20.8638" y="70.0516" fill="black" font-size="12.8453" font-family="Helvetica">Event</text>
</g>
<text xml:space="preserve" x="206.582" y="18.7347" fill="black" font-size="18.0316" font-family="Helvetica">Am_009_calibrated</text>
<rect x="442.705" y="24.9905" width="113.386" height="61.5151" fill="white"/>
<path d="M442.705,86.5056h 113.386" fill="none" stroke="black"/>
<path d="M556.091,86.5056v -61.5151" fill="none" stroke="black"/>
<path d="M556.091,24.9905h -113.386" fill="none" stroke="black"/>
<path d="M442.705,24.9905v 61.5151" fill="none" stroke="black"/>
<text xml:space="preserve" x="446.061" y="36.6549" fill="black" font-size="12.1556" font-family="Helvetica">Am_009_calibrated</text>
<path d="M442.705,40.3693h 113.386" fill="none" stroke="black"/>
<text xml:space="preserve" x="447.69" y="52.946" fill="black" font-size="12.3904" font-family="Helvetica">Entries </text>
<text xml:space="preserve" x="506.338" y="52.946" fill="black" font-size="12.3904" font-family="Helvetica"> 116742</text>
<text xml:space="preserve" x="447.69" y="67.6079" fill="black" font-size="12.3904" font-family="Helvetica">Mean  </text>
<text xml:space="preserve" x="512.854" y="67.6079" fill="black" font-size="12.3904" font-family="Helvetica">  17.78</text>
<text xml:space="preserve" x="447.69" y="83.0844" fill="black" font-size="12.3904" font-family="Helvetica">Std Dev   </text>
<text xml:space="preserve" x="516.112" y="83.0844" fill="black" font-size="12.3904" font-family="Helvetica">   5.07</text>
<path d="M213.86,303.624l 2.33251, -3.96551l 2.33251, -3.99969l 2.33251, -3.98693l 2.33251, -3.92737l 2.33251, -3.82407l 2.33251, -3.68355l 2.33251, -3.5163l 2.33251, -3.3372l 2.33251, -3.16562l 2.33251, -3.02531l 2.33251, -2.94374l 2.33251,
 -2.95091l 2.33251, -3.07749l 2.33251, -3.35221l 2.33251, -3.79868l 2.33251, -4.43169l 2.33251, -5.25327l 2.33251, -6.24909l 2.33251, -7.38563l 2.33251, -8.60872l 2.33251, -9.8441l 2.33251, -11.0003l 2.33251, -11.9741l 2.33251, -12.6586l 2.33251,
 -12.9527l 2.33251, -12.7723l 2.33251, -12.0603l 2.33251, -10.7956l 2.33251, -8.9993l 2.33251, -6.73612l 2.33251, -4.11189l 2.33251, -1.26602l 2.33251, 1.63988l 2.33251, 4.43628l 2.33251, 6.96113l 2.33251, 9.07455l 2.33251, 10.6712l 2.33251, 11.6888l
 2.33251, 12.1119l 2.33251, 11.971l 2.33251, 11.3367l 2.33251, 10.3108l 2.33251, 9.01501l 2.33251, 7.57855l 2.33251, 6.12667l 2.33251, 4.77069l 2.33251, 3.60056l 2.33251, 2.68028l 2.33251, 2.04615" fill="none" stroke="#0000ff" stroke-width="2"/>
<path d="M328.153,229.99l 2.33251, 1.7077l 2.33251, 1.65058l 2.33251, 1.84099l 2.33251, 2.23085l 2.33251, 2.76329l 2.33251, 3.37786l 2.33251, 4.01519l 2.33251, 4.62082l 2.33251, 5.14808l 2.33251, 5.56008l 2.33251, 5.83072l 2.33251, 5.94494l 2.33251,
 5.89829l 2.33251, 5.69592l 2.33251, 5.35122l 2.33251, 4.88422l 2.33251, 4.31985l 2.33251, 3.68622l 2.33251, 3.01292l 2.33251, 2.32956l 2.33251, 1.66437l 2.33251, 1.04313l 2.33251, 0.488156l 2.33251, 0.0176747l 2.33251, -0.354759l 2.33251, -0.620544l
 2.33251, -0.776153l 2.33251, -0.82304l 2.33251, -0.767357l 2.33251, -0.619475l 2.33251, -0.39332l 2.33251, -0.105567l 2.33251, 0.225302l 2.33251, 0.580001l 2.33251, 0.939458l 2.33251, 1.2858l 2.33251, 1.60318l 2.33251, 1.87855l 2.33251, 2.10206l
 2.33251, 2.2674l 2.33251, 2.37177l 2.33251, 2.41573l 2.33251, 2.40275l 2.33251, 2.33872l 2.33251, 2.23129l 2.33251, 2.08923l 2.33251, 1.92176l 2.33251, 1.73794l 2.33251, 1.54625" fill="none" stroke="#0000ff" stroke-width="2"/>
<path d="M442.446,338.55l 2.33251, 1.35413" fill="none" stroke="#0000ff" stroke-width="2"/>
<path d="M213.86,303.654l 2.33251, -3.94417l 2.33251, -3.96449l 2.33251, -3.9299l 2.33251, -3.83665l 2.33251, -3.68236l 2.33251, -3.46623l 2.33251, -3.18912l 2.33251, -2.85369l 2.33251, -2.46434l 2.33251, -2.02717l 2.33251, -1.54981l 2.33251,
 -1.04123l 2.33251, -0.511431l 2.33251, 0.0288594l 2.33251, 0.568556l 2.33251, 1.0966l 2.33251, 1.60231l 2.33251, 2.0758l 2.33251, 2.50821l 2.33251, 2.89208l 2.33251, 3.22148l 2.33251, 3.49218l 2.33251, 3.70174l 2.33251, 3.84946l 2.33251, 3.93632l
 2.33251, 3.96486l 2.33251, 3.93896l 2.33251, 3.86363l 2.33251, 3.74472l 2.33251, 3.58872l 2.33251, 3.40241l 2.33251, 3.19266l 2.33251, 2.9662l 2.33251, 2.7294l 2.33251, 2.4881l 2.33251, 2.24752l 2.33251, 2.01215l 2.33251, 1.78573l 2.33251, 1.57122l
 2.33251, 1.37082l 2.33251, 1.18604l 2.33251, 1.01774l 2.33251, 0.86625l 2.33251, 0.73139l 2.33251, 0.612617l 2.33251, 0.50909l 2.33251, 0.419752l 2.33251, 0.343408l 2.33251, 0.278784" fill="none" stroke="#ff0000" stroke-width="2"/>
<path d="M328.153,344.999l 2.33251, 0.224589l 2.33251, 0.179552l 2.33251, 0.142459l 2.33251, 0.112178l 2.33251, 0.0876709l 2.33251, 0.0680062l 2.33251, 0.05236l 2.33251, 0.0400148l 2.33251, 0.0303546l 2.33251, 0.022857l 2.33251, 0.017085l 2.33251,
 0.0126772l 2.33251, 0.0331902h 83.9703" fill="none" stroke="#ff0000" stroke-width="2"/>
<path d="M442.446,346.022h 2.33251" fill="none" stroke="#ff0000" stroke-width="2"/>
<path d="M213.86,346.022l 2.33251, -0.0509492l 2.33251, -0.0351686l 2.33251, -0.0569746l 2.33251, -0.0906344l 2.33251, -0.141565l 2.33251, -0.217084l 2.33251, -0.32679l 2.33251, -0.482869l 2.33251, -0.700253l 2.33251, -0.996513l 2.33251, -1.39138l
 2.33251, -1.90572l 2.33251, -2.55997l 2.33251, -3.37184l 2.33251, -4.35341l 2.33251, -5.50781l 2.33251, -6.82561l 2.33251, -8.28155l 2.33251, -9.83193l 2.33251, -11.4134l 2.33251, -12.9437l 2.33251, -14.3246l 2.33251, -15.4474l 2.33251, -16.2009l
 2.33251, -16.4813l 2.33251, -16.2025l 2.33251, -15.307l 2.33251, -13.7742l 2.33251, -11.627l 2.33251, -8.93318l 2.33251, -5.803l 2.33251, -2.38214l 2.33251, 1.15967l 2.33251, 4.64248l 2.33251, 7.89135l 2.33251, 10.7508l 2.33251, 13.0974l 2.33251,
 14.8479l 2.33251, 15.964l 2.33251, 16.4516l 2.33251, 16.3565l 2.33251, 15.7558l 2.33251, 14.7485l 2.33251, 13.4444l 2.33251, 11.9541l 2.33251, 10.3801l 2.33251, 8.8108l 2.33251, 7.31621l 2.33251, 5.94679" fill="none" stroke="#ff0000"
 stroke-width="2"/>
<path d="M328.153,327.572l 2.33251, 4.73398l 2.33251, 3.69232l 2.33251, 2.82264l 2.33251, 2.11557l 2.33251, 1.55498l 2.33251, 1.1211l 2.33251, 0.793l 2.33251, 0.550403l 2.33251, 0.374914l 2.33251, 0.25066l 2.33251, 0.164509l 2.33251, 0.105996l
 2.33251, 0.0670547l 2.33251, 0.0416525l 2.33251, 0.0254073l 2.33251, 0.0358214h 76.9728" fill="none" stroke="#ff0000" stroke-width="2"/>
<path d="M442.446,346.022h 2.33251" fill="none" stroke="#ff0000" stroke-width="2"/>
<path d="M213.86,346.022h 32.6551l 2.33251, -0.0398985l 2.33251, -0.0204766l 2.33251, -0.0299664l 2.33251, -0.0433318l 2.33251, -0.0619094l 2.33251, -0.0873899l 2.33251, -0.12187l 2.33251, -0.167896l 2.33251, -0.228487l 2.33251, -0.307136l 2.33251,
 -0.407768l 2.33251, -0.534652l 2.33251, -0.692248l 2.33251, -0.884992l 2.33251, -1.11699l 2.33251, -1.39166l 2.33251, -1.71129l 2.33251, -2.07654l 2.33251, -2.48599l 2.33251, -2.93558l 2.33251, -3.41828l 2.33251, -3.92375l 2.33251, -4.43822l
 2.33251, -4.94463l 2.33251, -5.42298l 2.33251, -5.85099l 2.33251, -6.20508l 2.33251, -6.4615l 2.33251, -6.59781l 2.33251, -6.59431l 2.33251, -6.43557l 2.33251, -6.11182l 2.33251, -5.62003l 2.33251, -4.96475l 2.33251, -4.15832" fill="none"
 stroke="#ff0000" stroke-width="2"/>
<path d="M328.153,249.528l 2.33251, -3.22071l 2.33251, -2.17875l 2.33251, -1.06488l 2.33251, 0.0845074l 2.33251, 1.23107l 2.33251, 2.33661l 2.33251, 3.3652l 2.33251, 4.28513l 2.33251, 5.07051l 2.33251, 5.70244l 2.33251, 6.16972l 2.33251, 6.46896l
 2.33251, 6.60421l 2.33251, 6.58616l 2.33251, 6.43096l 2.33251, 6.15878l 2.33251, 5.79238l 2.33251, 5.35554l 2.33251, 4.87174l 2.33251, 4.36296l 2.33251, 3.84882l 2.33251, 3.34591l 2.33251, 2.86749l 2.33251, 2.42341l 2.33251, 2.02025l 2.33251,
 1.66164l 2.33251, 1.34868l 2.33251, 1.08043l 2.33251, 0.854414l 2.33251, 0.667085l 2.33251, 0.514265l 2.33251, 0.3915l 2.33251, 0.294347l 2.33251, 0.218577l 2.33251, 0.160325l 2.33251, 0.116167l 2.33251, 0.0831521l 2.33251, 0.058803l 2.33251,
 0.0410851l 2.33251, 0.0283627l 2.33251, 0.0193469l 2.33251, 0.0375155h 16.3276" fill="none" stroke="#ff0000" stroke-width="2"/>
<path d="M442.446,346.022h 2.33251" fill="none" stroke="#ff0000" stroke-width="2"/>
<path d="M213.86,346.022h 109.628l 2.33251, -0.0437694l 2.33251, -0.0211122" fill="none" stroke="#ff0000" stroke-width="2"/>
<path d="M328.153,345.957l 2.33251, -0.0301608l 2.33251, -0.0425384l 2.33251, -0.0592273l 2.33251, -0.0814018l 2.33251, -0.11043l 2.33251, -0.147856l 2.33251, -0.195367l 2.33251, -0.25473l 2.33251, -0.327696l 2.33251, -0.415879l 2.33251, -0.520599l
 2.33251, -0.642692l 2.33251, -0.782315l 2.33251, -0.938728l 2.33251, -1.1101l 2.33251, -1.29335l 2.33251, -1.48404l 2.33251, -1.67631l 2.33251, -1.86303l 2.33251, -2.03594l 2.33251, -2.18597l 2.33251, -2.3037l 2.33251, -2.37988l 2.33251, -2.40606l
 2.33251, -2.37521l 2.33251, -2.28231l 2.33251, -2.12491l 2.33251, -1.90352l 2.33251, -1.6218l 2.33251, -1.28658l 2.33251, -0.907597l 2.33251, -0.497075l 2.33251, -0.0690495l 2.33251, 0.361421l 2.33251, 0.779131l 2.33251, 1.16963l 2.33251, 1.52003l
 2.33251, 1.81974l 2.33251, 2.06097l 2.33251, 2.23903l 2.33251, 2.35243l 2.33251, 2.40269l 2.33251, 2.39406l 2.33251, 2.333l 2.33251, 2.22757l 2.33251, 2.08684l 2.33251, 1.92024l 2.33251, 1.73699l 2.33251, 1.54565" fill="none" stroke="#ff0000"
 stroke-width="2"/>
<path d="M442.446,338.551l 2.33251, 1.35376" fill="none" stroke="#ff0000" stroke-width="2"/>
<text xml:space="preserve" x="206.582" y="18.7347" fill="black" font-size="18.0316" font-family="Helvetica">Am_009_calibrated</text></svg>
