<?xml version="1.0" standalone="no"?>
<svg width="567.429" height="384.969" viewBox="0 0 567.429 384.969" xmlns="http://www.w3.org/2000/svg" shape-rendering="crispEdges">
<title>
img/week1/calibrated_hist_high_gain/Am_009_calibrated_fit_gaus.svg
</title>
<desc>
Creator: ROOT Version 6.22/09
CreationDate: Wed Jul 14 10:00:32 2021</desc>
<defs>
</defs>
<rect x="0.5" y="0" width="566.929" height="384.469" fill="white"/>
<rect x="57.1929" y="38.4469" width="453.543" height="307.575" fill="white"/>
<rect x="57.1929" y="38.4469" width="453.543" height="307.575" fill="none" stroke="black"/>
<path d="M57.1929,346.022h 61.2486v -0.533568h 0.506187v -0.533568h 0.506187v -5.86925h 0.506187v -18.6749h 0.506187v -28.8127h 0.506187v 1.06714h 0.506187v 9.60423h 0.506187v 4.26854h 0.506187v -1.06714h 0.506187v -5.86925h 0.506187v -6.93639h
 0.506187v -2.13427h 0.506187v 10.1378h 0.506187v 6.40282h 0.506187v -10.1378h 0.506187v 9.60423h 0.506187v -8.53709h 0.506187v 4.26854h 0.506187v -3.20141h 0.506187v -1.6007h 0.506187v 2.66784h 0.506187v 3.20141h 0.506187v -3.20141h 0.506187v
 -2.66784h 0.506187v 2.66784h 0.506187v -9.07066h 0.506187v 18.1413h 0.506187v -0.533568h 0.506187v -3.73498h 0.506187v 3.20141h 0.506187v -7.46995h 0.506187v 3.20141h 0.506187v -6.40282h 0.506187v 11.2049h 0.506187v 7.46995h 0.506187v -13.8728h
 0.506187v 2.13427h 0.506187v -1.06714h 0.506187v -7.46995h 0.506187v 3.20141h 0.506187v 3.20141h 0.506187v 6.40282h 0.506187v -5.86925h 0.506187v -9.07066h 0.506187v 2.66784h 0.506187v 3.20141h 0.506187v 9.07066h 0.506187v -6.93639h 0.506187v
 -3.20141h 0.506187v 4.80211h 0.506187v 6.40282h 0.506187v -4.26854h 0.506187v -2.66784h 1.01237v 5.33568h 0.506187v -3.73498h 0.506187v -0.533568h 0.506187v 1.06714h 0.506187v -1.06714h 1.01237v 2.66784h 0.506187v 0.533568h 0.506187v -2.13427h
 0.506187v -2.66784h 0.506187v 4.26854h 0.506187v -12.2721h 0.506187v 4.80211h 0.506187v 1.06714h 0.506187v 5.33568h 0.506187v -0.533568h 0.506187v 2.13427h 0.506187v -2.66784h 0.506187v 2.66784h 0.506187v -3.73498h 0.506187v 5.86925h 0.506187v
 -4.26854h 0.506187v 2.13427h 0.506187v -11.2049h 0.506187v 6.93639h 0.506187v 7.46995h 0.506187v -8.00352h 0.506187v 2.66784h 0.506187v 3.73498h 0.506187v -2.66784h 0.506187v -6.40282h 0.506187v -1.6007h 0.506187v 4.80211h 0.506187v 6.40282h
 0.506187v 2.13427h 0.506187v -11.2049h 0.506187v 0.533568h 0.506187v 8.53709h 0.506187v -2.13427h 0.506187v -10.6714h 0.506187v 18.1413h 0.506187v -12.8056h 0.506187v 1.6007h 0.506187v -2.13427h 0.506187v 1.06714h 0.506187v 3.73498h 0.506187v
 -7.46995h 0.506187v 18.1413h 0.506187v -10.6714h 0.506187v 2.66784h 0.506187v -6.40282h 0.506187v 1.06714h 0.506187v 6.40282h 0.506187v -2.66784h 0.506187v -4.80211h 0.506187v 3.73498h 0.506187v -2.66784h 0.506187v 5.86925h 0.506187v -13.3392h
 0.506187v 3.73498h 0.506187v 8.00352h 0.506187v 4.26854h 0.506187v -4.26854h 0.506187v -5.86925h 0.506187v 0.533568h 0.506187v -4.26854h 0.506187v 6.93639h 0.506187v 3.20141h 0.506187v 8.00352h 0.506187v -9.07066h 0.506187v -2.66784h 0.506187v
 -8.53709h 0.506187v 17.0742h 0.506187v 0.533568h 0.506187v -8.53709h 0.506187v -0.533568h 0.506187v -7.46995h 0.506187v 1.06714h 0.506187v 4.80211h 0.506187v -0.533568h 0.506187v 5.86925h 0.506187v 5.86925h 0.506187v 0.533568h 0.506187v -9.60423h
 0.506187v -3.73498h 0.506187v 1.06714h 0.506187v -4.26854h 0.506187v 8.00352h 0.506187v 7.46995h 0.506187v 3.73498h 0.506187v -14.4063h 0.506187v 4.26854h 0.506187v -1.06714h 0.506187v 0.533568h 0.506187v 3.20141h 0.506187v 1.06714h 0.506187v
 -6.40282h 0.506187v 3.20141h 0.506187v -5.86925h 0.506187v 1.6007h 0.506187v -8.00352h 0.506187v 13.3392h 0.506187v 3.20141h 0.506187v -5.86925h 0.506187v -3.73498h 0.506187v -3.20141h 0.506187v 9.07066h 0.506187v -1.6007h 0.506187v 9.07066h
 0.506187v -17.6077h 0.506187v -2.66784h 0.506187v 10.1378h 0.506187v -8.53709h 0.506187v 9.07066h 0.506187v -5.33568h 0.506187v 15.4735h 0.506187v -10.6714h 0.506187v 1.06714h 0.506187v -20.2756h 0.506187v 3.20141h 0.506187v 3.73498h 0.506187v
 0.533568h 0.506187v 12.8056h 0.506187v -5.33568h 0.506187v -12.2721h 0.506187v 8.53709h 0.506187v -14.4063h 0.506187v 1.06714h 0.506187v 8.00352h 0.506187v 12.8056h 0.506187v -16.007h 0.506187v -3.73498h 0.506187v -1.6007h 0.506187v -1.06714h
 0.506187v 8.53709h 0.506187v 2.66784h 0.506187v -7.46995h 0.506187v 3.73498h 0.506187v -10.1378h 0.506187v -1.6007h 0.506187v 6.40282h 0.506187v -6.93639h 0.506187v 11.2049h 0.506187v -6.40282h 0.506187v -8.53709h 0.506187v -8.00352h 0.506187v
 6.40282h 0.506187v 7.46995h 0.506187v 12.2721h 0.506187v -18.6749h 0.506187v 1.06714h 0.506187v 0.533568h 0.506187v -6.93639h 0.506187v -4.26854h 0.506187v 12.8056h 0.506187v -6.40282h 0.506187v 8.00352h 0.506187v -17.0742h 0.506187v 7.46995h
 0.506187v 2.13427h 0.506187v -9.07066h 0.506187v 4.80211h 0.506187v 4.80211h 0.506187v -5.33568h 0.506187v 3.20141h 0.506187v -14.9399h 0.506187v 1.6007h 0.506187v 6.40282h 0.506187v 5.86925h 0.506187v 1.06714h 0.506187v -15.4735h 0.506187v 4.80211h
 0.506187v -5.33568h 0.506187v 10.1378h 0.506187v -1.6007h 0.506187v 11.7385h 0.506187v -7.46995h 0.506187v -20.2756h 0.506187v 9.07066h 0.506187v -2.66784h 0.506187v 3.20141h 0.506187v -3.20141h 0.506187v 14.4063h 0.506187v 1.06714h 0.506187v
 -21.8763h 0.506187v 13.8728h 0.506187v -6.40282h 0.506187v -3.73498h 0.506187v 6.93639h 0.506187v 2.13427h 0.506187v -8.53709h 0.506187v -9.07066h 0.506187v -8.53709h 0.506187v -4.26854h 0.506187v 17.0742h 0.506187v 9.07066h 0.506187v -3.20141h
 0.506187v -19.2085h 0.506187v -3.20141h 0.506187v -5.33568h 0.506187v -19.2085h 0.506187v 40.5512h 0.506187v -9.07066h 0.506187v 7.46995h 0.506187v -24.0106h 0.506187v -0.533568h 0.506187v 2.66784h 0.506187v -6.93639h 0.506187v -5.86925h 0.506187v
 16.5406h 0.506187v 13.8728h 0.506187v -15.4735h 0.506187v -36.8162h 0.506187v 16.007h 0.506187v 3.73498h 0.506187v 10.1378h 0.506187v 6.93639h 1.01237v -28.2791h 0.506187v 1.6007h 0.506187v -2.66784h 0.506187v -5.33568h 0.506187v 9.60423h 0.506187v
 8.53709h 0.506187v -18.6749h 0.506187v -16.5406h 0.506187v 6.93639h 0.506187v -11.2049h 0.506187v 14.4063h 0.506187v 21.8763h 0.506187v -26.6784h 0.506187v -19.2085h 0.506187v 4.26854h 0.506187v -27.212h 0.506187v 11.2049h 0.506187v 6.93639h
 0.506187v 28.8127h 0.506187v -26.1448h 0.506187v -29.3462h 0.506187v 14.4063h 0.506187v -1.6007h 0.506187v 5.33568h 0.506187v -31.4805h 0.506187v 45.3533h 0.506187v -22.9434h 0.506187v -8.53709h 0.506187v -21.8763h 0.506187v 21.8763h 0.506187v
 -5.86925h 0.506187v 14.9399h 0.506187v 22.4099h 0.506187v -19.742h 0.506187v -28.8127h 0.506187v -10.6714h 0.506187v 12.2721h 0.506187v 13.8728h 0.506187v -9.07066h 0.506187v 11.2049h 0.506187v -11.2049h 0.506187v 0.533568h 0.506187v -27.212h
 0.506187v -14.4063h 0.506187v 34.6819h 0.506187v 2.13427h 0.506187v 10.6714h 0.506187v -29.8798h 0.506187v -34.6819h 0.506187v 4.80211h 0.506187v 27.212h 0.506187v 35.2155h 0.506187v 12.2721h 0.506187v -29.8798h 0.506187v -30.4134h 0.506187v
 2.13427h 0.506187v -26.1448h 0.506187v 40.5512h 0.506187v 53.3568h 0.506187v -18.6749h 0.506187v -15.4735h 0.506187v -4.26854h 0.506187v -35.7491h 0.506187v 28.2791h 0.506187v 28.8127h 0.506187v 10.1378h 0.506187v -5.86925h 0.506187v 15.4735h
 0.506187v -41.0847h 1.01237v -9.60423h 0.506187v 52.8232h 0.506187v 2.13427h 0.506187v -0.533568h 0.506187v -10.6714h 0.506187v -13.8728h 0.506187v 3.73498h 0.506187v 11.2049h 0.506187v 9.07066h 0.506187v 29.8798h 0.506187v -41.6183h 0.506187v
 -6.93639h 0.506187v 6.40282h 0.506187v 24.0106h 0.506187v -17.6077h 0.506187v 41.6183h 0.506187v -18.1413h 0.506187v -18.6749h 0.506187v 12.2721h 0.506187v -1.6007h 0.506187v 8.53709h 0.506187v 5.33568h 0.506187v 28.2791h 0.506187v 14.4063h
 0.506187v -42.6854h 0.506187v -10.1378h 0.506187v 10.1378h 0.506187v 12.2721h 0.506187v 17.6077h 0.506187v 11.2049h 0.506187v -5.33568h 0.506187v -18.1413h 0.506187v 6.40282h 0.506187v -4.80211h 0.506187v 6.40282h 0.506187v 4.80211h 0.506187v
 19.742h 0.506187v -17.6077h 0.506187v -10.1378h 0.506187v -8.53709h 0.506187v 13.3392h 0.506187v 10.1378h 0.506187v 1.6007h 0.506187v 20.8092h 0.506187v -19.2085h 0.506187v -12.2721h 0.506187v 1.06714h 0.506187v 19.742h 0.506187v -1.6007h 0.506187v
 27.212h 0.506187v -28.2791h 0.506187v 10.6714h 0.506187v -19.742h 0.506187v 2.66784h 0.506187v 3.20141h 0.506187v 21.3427h 0.506187v -9.60423h 0.506187v 6.93639h 0.506187v -23.477h 0.506187v 9.60423h 0.506187v -6.93639h 0.506187v 20.2756h 0.506187v
 1.06714h 0.506187v 3.73498h 0.506187v -18.1413h 0.506187v -5.86925h 0.506187v 3.73498h 0.506187v 3.73498h 0.506187v 11.7385h 0.506187v -4.26854h 0.506187v -2.13427h 0.506187v 14.4063h 0.506187v -25.0777h 0.506187v 5.33568h 0.506187v -1.06714h
 0.506187v 12.8056h 0.506187v 6.93639h 0.506187v -7.46995h 0.506187v 0.533568h 0.506187v -16.007h 0.506187v 14.9399h 0.506187v -0.533568h 0.506187v 4.26854h 0.506187v 26.1448h 0.506187v -22.4099h 0.506187v -14.9399h 0.506187v 3.73498h 0.506187v
 0.533568h 0.506187v 15.4735h 0.506187v 5.86925h 0.506187v -6.40282h 0.506187v 2.13427h 0.506187v -6.93639h 0.506187v -12.2721h 0.506187v 12.8056h 0.506187v 7.46995h 1.01237v 2.13427h 0.506187v 7.46995h 0.506187v -22.4099h 0.506187v 12.8056h
 0.506187v -7.46995h 0.506187v 13.8728h 0.506187v 6.93639h 0.506187v 5.33568h 0.506187v -17.0742h 0.506187v 1.06714h 0.506187v -6.93639h 0.506187v 12.2721h 0.506187v -2.13427h 0.506187v 17.6077h 0.506187v -12.8056h 0.506187v 10.1378h 0.506187v
 -1.06714h 0.506187v -13.3392h 0.506187v 12.8056h 0.506187v 11.7385h 0.506187v -11.7385h 0.506187v 2.66784h 0.506187v 1.06714h 0.506187v 2.13427h 0.506187v -2.13427h 0.506187v 2.66784h 0.506187v 9.07066h 0.506187v -0.533568h 1.01237v 2.66784h
 0.506187v -14.9399h 0.506187v 9.07066h 0.506187v 9.07066h 0.506187v 8.53709h 0.506187v -6.93639h 0.506187v -12.2721h 0.506187v 2.66784h 0.506187v 2.66784h 0.506187v 7.46995h 0.506187v -3.20141h 0.506187v 13.3392h 0.506187v -7.46995h 0.506187v
 -11.2049h 0.506187v 13.8728h 0.506187v -7.46995h 0.506187v 7.46995h 0.506187v 12.2721h 0.506187v -8.53709h 0.506187v 4.26854h 0.506187v -1.6007h 0.506187v -2.66784h 0.506187v 0.533568h 0.506187v 3.73498h 0.506187v 4.26854h 0.506187v 7.46995h
 0.506187v -12.2721h 0.506187v -2.13427h 0.506187v -0.533568h 1.01237v 7.46995h 0.506187v 5.86925h 0.506187v -7.46995h 0.506187v 1.6007h 0.506187v -2.66784h 0.506187v 3.20141h 0.506187v -7.46995h 0.506187v -2.13427h 0.506187v 13.3392h 0.506187v
 -3.20141h 0.506187v -8.00352h 0.506187v 8.53709h 0.506187v -5.33568h 0.506187v 8.53709h 0.506187v -2.13427h 0.506187v -0.533568h 0.506187v -8.53709h 0.506187v 8.00352h 0.506187v -6.40282h 0.506187v 6.40282h 0.506187v 2.13427h 0.506187v 2.13427h
 0.506187v 1.6007h 0.506187v -6.93639h 0.506187v 1.6007h 0.506187v -8.53709h 0.506187v 12.8056h 0.506187v -5.33568h 0.506187v 5.33568h 0.506187v -2.13427h 0.506187v 1.06714h 0.506187v -9.60423h 0.506187v 1.06714h 0.506187v 3.73498h 0.506187v 9.60423h
 0.506187v 1.06714h 0.506187v -11.7385h 0.506187v -6.40282h 0.506187v -0.533568h 0.506187v -9.07066h 0.506187v 19.742h 0.506187v -4.26854h 0.506187v 5.33568h 0.506187v -17.6077h 0.506187v 13.8728h 0.506187v -6.40282h 0.506187v -7.46995h 0.506187v
 13.3392h 0.506187v -2.13427h 0.506187v 2.13427h 0.506187v 4.80211h 0.506187v -8.53709h 0.506187v 1.6007h 0.506187v -7.46995h 0.506187v 10.1378h 0.506187v -9.60423h 0.506187v 8.53709h 0.506187v -4.26854h 0.506187v -3.20141h 0.506187v -4.26854h
 0.506187v 5.86925h 0.506187v 2.66784h 0.506187v 5.86925h 0.506187v -4.80211h 0.506187v -13.8728h 0.506187v 2.66784h 0.506187v 4.26854h 0.506187v 9.07066h 0.506187v 2.66784h 0.506187v -2.13427h 0.506187v -5.33568h 0.506187v 5.33568h 0.506187v
 -1.06714h 0.506187v -2.66784h 0.506187v 1.06714h 0.506187v 2.13427h 0.506187v 0.533568h 0.506187v -1.06714h 0.506187v -4.26854h 0.506187v 4.26854h 0.506187v -4.26854h 0.506187v 9.07066h 0.506187v -1.06714h 0.506187v 0.533568h 0.506187v 5.86925h
 0.506187v -13.3392h 0.506187v 11.2049h 0.506187v -3.20141h 0.506187v -5.33568h 0.506187v 7.46995h 0.506187v 3.73498h 0.506187v -5.86925h 0.506187v -3.20141h 0.506187v 9.07066h 0.506187v -3.20141h 0.506187v 2.13427h 0.506187v 0.533568h 0.506187v
 4.26854h 0.506187v -3.73498h 0.506187v 7.46995h 0.506187v -9.07066h 0.506187v 1.6007h 0.506187v 4.26854h 0.506187v 6.93639h 0.506187v -8.53709h 0.506187v -6.40282h 0.506187v 6.40282h 0.506187v -3.73498h 0.506187v 5.86925h 0.506187v 9.07066h
 0.506187v -2.13427h 0.506187v -8.00352h 0.506187v 3.20141h 1.01237v -5.33568h 0.506187v 10.1378h 0.506187v -0.533568h 0.506187v -2.13427h 0.506187v 0.533568h 0.506187v -1.06714h 0.506187v 2.13427h 0.506187v 2.66784h 0.506187v -1.06714h 0.506187v
 -6.40282h 0.506187v 5.33568h 0.506187v -3.73498h 0.506187v 5.33568h 0.506187v 3.73498h 0.506187v -5.86925h 0.506187v 6.93639h 0.506187v -2.13427h 0.506187v -4.80211h 0.506187v 3.20141h 0.506187v 1.06714h 0.506187v -0.533568h 0.506187v 1.6007h
 0.506187v 0.533568h 0.506187v -2.66784h 0.506187v 2.66784h 0.506187v -2.13427h 0.506187v 3.20141h 0.506187v -0.533568h 0.506187v 0.533568h 0.506187v -0.533568h 0.506187v 1.06714h 0.506187v -1.06714h 0.506187v 1.6007h 0.506187v -1.06714h 0.506187v
 -3.20141h 0.506187v 2.66784h 0.506187v 3.20141h 0.506187v -0.533568h 0.506187v -2.13427h 0.506187v 1.06714h 0.506187v 1.06714h 0.506187v 1.06714h 0.506187v 2.13427h 0.506187v -0.533568h 0.506187v -2.66784h 1.01237v 1.06714h 0.506187v -1.06714h
 0.506187v 2.13427h 0.506187v -2.13427h 0.506187v -0.533568h 0.506187v 0.533568h 0.506187v 1.6007h 0.506187v -1.6007h 0.506187v 1.6007h 1.01237v 0.533568h 0.506187v -1.06714h 1.01237v -1.6007h 0.506187v 2.66784h 1.51856v -1.6007h 0.506187v -0.533568h
 0.506187v 3.73498h 0.506187v -1.06714h 1.01237v -2.66784h 0.506187v 2.66784h 0.506187v -1.6007h 0.506187v 0.533568h 0.506187v -1.06714h 0.506187v 0.533568h 0.506187v 2.66784h 0.506187v -0.533568h 0.506187v -2.13427h 0.506187v 1.06714h 0.506187v
 -1.6007h 0.506187v 1.6007h 0.506187v -2.66784h 0.506187v 1.6007h 0.506187v -1.06714h 0.506187v 2.13427h 0.506187v 2.13427h 0.506187v -1.6007h 0.506187v -0.533568h 1.01237v -0.533568h 0.506187v 2.13427h 0.506187v -3.73498h 0.506187v 1.06714h
 0.506187v 1.6007h 1.01237v 0.533568h 0.506187v -3.20141h 0.506187v 3.20141h 0.506187v -1.06714h 0.506187v -1.06714h 0.506187v -0.533568h 0.506187v 0.533568h 0.506187v 1.06714h 0.506187v 1.6007h 0.506187v 0.533568h 0.506187v -4.80211h 0.506187v
 0.533568h 0.506187v 1.6007h 0.506187v 1.6007h 0.506187v -2.13427h 0.506187v 1.6007h 1.01237v 0.533568h 0.506187v -1.06714h 0.506187v -0.533568h 0.506187v -1.06714h 0.506187v 1.6007h 0.506187v 0.533568h 0.506187v -1.06714h 1.01237v 0.533568h
 0.506187v 0.533568h 0.506187v -1.06714h 0.506187v 1.6007h 0.506187v 1.6007h 0.506187v -3.20141h 0.506187v -1.06714h 1.01237v 1.06714h 0.506187v 1.06714h 0.506187v 0.533568h 0.506187v 1.06714h 0.506187v -0.533568h 0.506187v -1.6007h 0.506187v
 0.533568h 1.01237v -1.06714h 0.506187v 1.06714h 0.506187v 0.533568h 0.506187v -1.06714h 0.506187v -0.533568h 0.506187v 1.06714h 0.506187v -1.06714h 0.506187v -0.533568h 0.506187v 0.533568h 0.506187v 1.06714h 0.506187v -0.533568h 1.01237v -2.13427h
 0.506187v 1.06714h 0.506187v -0.533568h 1.01237v 2.13427h 0.506187v -0.533568h 0.506187v 1.6007h 0.506187v -2.13427h 0.506187v -1.06714h 0.506187v 1.6007h 0.506187v -1.6007h 0.506187v 1.6007h 0.506187v -1.06714h 0.506187v 2.13427h 1.01237v
 -0.533568h 0.506187" fill="none" stroke="#000099"/>
<path d="M57.1929,346.022h 453.543" fill="none" stroke="black"/>
<path d="M57.1929,336.795v 9.22726" fill="none" stroke="black"/>
<path d="M70.1513,341.409v 4.61363" fill="none" stroke="black"/>
<path d="M83.1097,341.409v 4.61363" fill="none" stroke="black"/>
<path d="M96.0681,341.409v 4.61363" fill="none" stroke="black"/>
<path d="M109.026,341.409v 4.61363" fill="none" stroke="black"/>
<path d="M121.985,336.795v 9.22726" fill="none" stroke="black"/>
<path d="M134.943,341.409v 4.61363" fill="none" stroke="black"/>
<path d="M147.902,341.409v 4.61363" fill="none" stroke="black"/>
<path d="M160.86,341.409v 4.61363" fill="none" stroke="black"/>
<path d="M173.818,341.409v 4.61363" fill="none" stroke="black"/>
<path d="M186.777,336.795v 9.22726" fill="none" stroke="black"/>
<path d="M199.735,341.409v 4.61363" fill="none" stroke="black"/>
<path d="M212.693,341.409v 4.61363" fill="none" stroke="black"/>
<path d="M225.652,341.409v 4.61363" fill="none" stroke="black"/>
<path d="M238.61,341.409v 4.61363" fill="none" stroke="black"/>
<path d="M251.569,336.795v 9.22726" fill="none" stroke="black"/>
<path d="M264.527,341.409v 4.61363" fill="none" stroke="black"/>
<path d="M277.485,341.409v 4.61363" fill="none" stroke="black"/>
<path d="M290.444,341.409v 4.61363" fill="none" stroke="black"/>
<path d="M303.402,341.409v 4.61363" fill="none" stroke="black"/>
<path d="M316.361,336.795v 9.22726" fill="none" stroke="black"/>
<path d="M329.319,341.409v 4.61363" fill="none" stroke="black"/>
<path d="M342.277,341.409v 4.61363" fill="none" stroke="black"/>
<path d="M355.236,341.409v 4.61363" fill="none" stroke="black"/>
<path d="M368.194,341.409v 4.61363" fill="none" stroke="black"/>
<path d="M381.152,336.795v 9.22726" fill="none" stroke="black"/>
<path d="M394.111,341.409v 4.61363" fill="none" stroke="black"/>
<path d="M407.069,341.409v 4.61363" fill="none" stroke="black"/>
<path d="M420.028,341.409v 4.61363" fill="none" stroke="black"/>
<path d="M432.986,341.409v 4.61363" fill="none" stroke="black"/>
<path d="M445.944,336.795v 9.22726" fill="none" stroke="black"/>
<path d="M458.903,341.409v 4.61363" fill="none" stroke="black"/>
<path d="M471.861,341.409v 4.61363" fill="none" stroke="black"/>
<path d="M484.819,341.409v 4.61363" fill="none" stroke="black"/>
<path d="M497.778,341.409v 4.61363" fill="none" stroke="black"/>
<path d="M510.736,336.795v 9.22726" fill="none" stroke="black"/>
<text xml:space="preserve" x="53.446" y="358.403" fill="black" font-size="12.8453" font-family="Helvetica">0</text>
<text xml:space="preserve" x="118.61" y="358.403" fill="black" font-size="12.8453" font-family="Helvetica">5</text>
<text xml:space="preserve" x="179.702" y="358.403" fill="black" font-size="12.8453" font-family="Helvetica">10</text>
<text xml:space="preserve" x="244.051" y="358.403" fill="black" font-size="12.8453" font-family="Helvetica">15</text>
<text xml:space="preserve" x="309.216" y="358.403" fill="black" font-size="12.8453" font-family="Helvetica">20</text>
<text xml:space="preserve" x="373.565" y="358.403" fill="black" font-size="12.8453" font-family="Helvetica">25</text>
<text xml:space="preserve" x="438.73" y="358.403" fill="black" font-size="12.8453" font-family="Helvetica">30</text>
<text xml:space="preserve" x="503.079" y="358.403" fill="black" font-size="12.8453" font-family="Helvetica">35</text>
<text xml:space="preserve" x="441.173" y="370.622" fill="black" font-size="12.8453" font-family="Helvetica">Energy [keV]</text>
<path d="M57.1929,346.022v -307.575" fill="none" stroke="black"/>
<path d="M70.7992,346.022h -13.6063" fill="none" stroke="black"/>
<path d="M63.9961,335.351h -6.80315" fill="none" stroke="black"/>
<path d="M63.9961,324.68h -6.80315" fill="none" stroke="black"/>
<path d="M63.9961,314.008h -6.80315" fill="none" stroke="black"/>
<path d="M63.9961,303.337h -6.80315" fill="none" stroke="black"/>
<path d="M70.7992,292.665h -13.6063" fill="none" stroke="black"/>
<path d="M63.9961,281.994h -6.80315" fill="none" stroke="black"/>
<path d="M63.9961,271.323h -6.80315" fill="none" stroke="black"/>
<path d="M63.9961,260.651h -6.80315" fill="none" stroke="black"/>
<path d="M63.9961,249.98h -6.80315" fill="none" stroke="black"/>
<path d="M70.7992,239.309h -13.6063" fill="none" stroke="black"/>
<path d="M63.9961,228.637h -6.80315" fill="none" stroke="black"/>
<path d="M63.9961,217.966h -6.80315" fill="none" stroke="black"/>
<path d="M63.9961,207.295h -6.80315" fill="none" stroke="black"/>
<path d="M63.9961,196.623h -6.80315" fill="none" stroke="black"/>
<path d="M70.7992,185.952h -13.6063" fill="none" stroke="black"/>
<path d="M63.9961,175.28h -6.80315" fill="none" stroke="black"/>
<path d="M63.9961,164.609h -6.80315" fill="none" stroke="black"/>
<path d="M63.9961,153.938h -6.80315" fill="none" stroke="black"/>
<path d="M63.9961,143.266h -6.80315" fill="none" stroke="black"/>
<path d="M70.7992,132.595h -13.6063" fill="none" stroke="black"/>
<path d="M63.9961,121.924h -6.80315" fill="none" stroke="black"/>
<path d="M63.9961,111.252h -6.80315" fill="none" stroke="black"/>
<path d="M63.9961,100.581h -6.80315" fill="none" stroke="black"/>
<path d="M63.9961,89.9096h -6.80315" fill="none" stroke="black"/>
<path d="M70.7992,79.2382h -13.6063" fill="none" stroke="black"/>
<path d="M70.7992,79.2382h -13.6063" fill="none" stroke="black"/>
<path d="M63.9961,68.5668h -6.80315" fill="none" stroke="black"/>
<path d="M63.9961,57.8955h -6.80315" fill="none" stroke="black"/>
<path d="M63.9961,47.2241h -6.80315" fill="none" stroke="black"/>
<text xml:space="preserve" x="47.7441" y="350.258" fill="black" font-size="12.8453" font-family="Helvetica">0</text>
<text xml:space="preserve" x="33.8967" y="297.312" fill="black" font-size="12.8453" font-family="Helvetica">100</text>
<text xml:space="preserve" x="33.8967" y="243.551" fill="black" font-size="12.8453" font-family="Helvetica">200</text>
<text xml:space="preserve" x="33.8967" y="190.605" fill="black" font-size="12.8453" font-family="Helvetica">300</text>
<text xml:space="preserve" x="33.8967" y="136.845" fill="black" font-size="12.8453" font-family="Helvetica">400</text>
<text xml:space="preserve" x="33.8967" y="83.899" fill="black" font-size="12.8453" font-family="Helvetica">500</text>
<g transform="rotate(-90,20.8638,70.0516)">
<text xml:space="preserve" x="20.8638" y="70.0516" fill="black" font-size="12.8453" font-family="Helvetica">Event</text>
</g>
<text xml:space="preserve" x="206.582" y="18.7347" fill="black" font-size="18.0316" font-family="Helvetica">Am_009_calibrated</text>
<rect x="442.705" y="24.9905" width="113.386" height="61.5151" fill="white"/>
<path d="M442.705,86.5056h 113.386" fill="none" stroke="black"/>
<path d="M556.091,86.5056v -61.5151" fill="none" stroke="black"/>
<path d="M556.091,24.9905h -113.386" fill="none" stroke="black"/>
<path d="M442.705,24.9905v 61.5151" fill="none" stroke="black"/>
<text xml:space="preserve" x="446.061" y="36.6549" fill="black" font-size="12.1556" font-family="Helvetica">Am_009_calibrated</text>
<path d="M442.705,40.3693h 113.386" fill="none" stroke="black"/>
<text xml:space="preserve" x="447.69" y="52.946" fill="black" font-size="12.3904" font-family="Helvetica">Entries </text>
<text xml:space="preserve" x="506.338" y="52.946" fill="black" font-size="12.3904" font-family="Helvetica"> 116742</text>
<text xml:space="preserve" x="447.69" y="67.6079" fill="black" font-size="12.3904" font-family="Helvetica">Mean  </text>
<text xml:space="preserve" x="512.854" y="67.6079" fill="black" font-size="12.3904" font-family="Helvetica">  17.22</text>
<text xml:space="preserve" x="447.69" y="83.0844" fill="black" font-size="12.3904" font-family="Helvetica">Std Dev   </text>
<text xml:space="preserve" x="512.854" y="83.0844" fill="black" font-size="12.3904" font-family="Helvetica">  5.254</text>
<path d="M213.86,287.272l 2.33251, -3.73238l 2.33251, -3.58221l 2.33251, -3.40706l 2.33251, -3.22125l 2.33251, -3.04303l 2.33251, -2.89431l 2.33251, -2.80005l 2.33251, -2.78715l 2.33251, -2.88287l 2.33251, -3.1127l 2.33251, -3.49782l 2.33251,
 -4.05211l 2.33251, -4.77914l 2.33251, -5.66931l 2.33251, -6.69754l 2.33251, -7.82192l 2.33251, -8.9838l 2.33251, -10.1096l 2.33251, -11.1142l 2.33251, -11.9067l 2.33251, -12.3976l 2.33251, -12.5062l 2.33251, -12.1698l 2.33251, -11.3506l 2.33251,
 -10.0424l 2.33251, -8.27359l 2.33251, -6.10788l 2.33251, -3.64119l 2.33251, -0.995219l 2.33251, 1.69176l 2.33251, 4.27602l 2.33251, 6.6203l 2.33251, 8.60514l 2.33251, 10.1385l 2.33251, 11.1626l 2.33251, 11.6577l 2.33251, 11.6416l 2.33251, 11.1664l
 2.33251, 10.3119l 2.33251, 9.17768l 2.33251, 7.87322l 2.33251, 6.50883l 2.33251, 5.18705l 2.33251, 3.9957l 2.33251, 3.00293l 2.33251, 2.25445l 2.33251, 1.77284l 2.33251, 1.55876l 2.33251, 1.59361" fill="none" stroke="#0000ff" stroke-width="2"/>
<path d="M328.153,233.89l 2.33251, 1.84326l 2.33251, 2.26235l 2.33251, 2.7988l 2.33251, 3.3981l 2.33251, 4.0072l 2.33251, 4.57774l 2.33251, 5.06851l 2.33251, 5.44716l 2.33251, 5.6911l 2.33251, 5.78772l 2.33251, 5.73397l 2.33251, 5.53549l 2.33251,
 5.20529l 2.33251, 4.76232l 2.33251, 4.22981l 2.33251, 3.6337l 2.33251, 3.00104l 2.33251, 2.35866l 2.33251, 1.73195l 2.33251, 1.14386l 2.33251, 0.614139l 2.33251, 0.158813l 2.33251, -0.21021l 2.33251, -0.485281l 2.33251, -0.663012l 2.33251,
 -0.744125l 2.33251, -0.733159l 2.33251, -0.638057l 2.33251, -0.469645l 2.33251, -0.241021l 2.33251, 0.0331242l 2.33251, 0.337232l 2.33251, 0.655604l 2.33251, 0.973115l 2.33251, 1.27586l 2.33251, 1.55171l 2.33251, 1.79075l 2.33251, 1.98559l 2.33251,
 2.13147l 2.33251, 2.22629l 2.33251, 2.27043l 2.33251, 2.26645l 2.33251, 2.21879l 2.33251, 2.13323l 2.33251, 2.01652l 2.33251, 1.87584l 2.33251, 1.71845l 2.33251, 1.55124l 2.33251, 1.3805" fill="none" stroke="#0000ff" stroke-width="2"/>
<path d="M442.446,339.088l 2.33251, 1.21169" fill="none" stroke="#0000ff" stroke-width="2"/>
<path d="M213.86,287.574l 2.33251, -3.56392l 2.33251, -3.3311l 2.33251, -3.03896l 2.33251, -2.69069l 2.33251, -2.29117l 2.33251, -1.84692l 2.33251, -1.36589l 2.33251, -0.857264l 2.33251, -0.33115l 2.33251, 0.201756l 2.33251, 0.730522l 2.33251,
 1.24436l 2.33251, 1.73298l 2.33251, 2.18697l 2.33251, 2.59802l 2.33251, 2.95927l 2.33251, 3.26542l 2.33251, 3.51286l 2.33251, 3.69975l 2.33251, 3.82594l 2.33251, 3.8929l 2.33251, 3.90356l 2.33251, 3.86212l 2.33251, 3.77378l 2.33251, 3.64454l
 2.33251, 3.48087l 2.33251, 3.28951l 2.33251, 3.07719l 2.33251, 2.85043l 2.33251, 2.61534l 2.33251, 2.37749l 2.33251, 2.1418l 2.33251, 1.91245l 2.33251, 1.69289l 2.33251, 1.48578l 2.33251, 1.29308l 2.33251, 1.11607l 2.33251, 0.955428l 2.33251,
 0.811307l 2.33251, 0.683423l 2.33251, 0.57114l 2.33251, 0.47356l 2.33251, 0.389595l 2.33251, 0.31804l 2.33251, 0.257633l 2.33251, 0.207108l 2.33251, 0.165227l 2.33251, 0.130821l 2.33251, 0.102801" fill="none" stroke="#ff0000" stroke-width="2"/>
<path d="M328.153,345.691l 2.33251, 0.0801783l 2.33251, 0.0620684l 2.33251, 0.0476926l 2.33251, 0.0363755l 2.33251, 0.0275396l 2.33251, 0.0206969l 2.33251, 0.0154405l 2.33251, 0.0411829h 95.6328" fill="none" stroke="#ff0000" stroke-width="2"/>
<path d="M442.446,346.022h 2.33251" fill="none" stroke="#ff0000" stroke-width="2"/>
<path d="M213.86,345.72l 2.33251, -0.16838l 2.33251, -0.250984l 2.33251, -0.367888l 2.33251, -0.530218l 2.33251, -0.751302l 2.33251, -1.0465l 2.33251, -1.43275l 2.33251, -1.92767l 2.33251, -2.54829l 2.33251, -3.30922l 2.33251, -4.22041l 2.33251,
 -5.28459l 2.33251, -6.49456l 2.33251, -7.8306l 2.33251, -9.25844l 2.33251, -10.7282l 2.33251, -12.1744l 2.33251, -13.518l 2.33251, -14.6699l 2.33251, -15.5365l 2.33251, -16.0264l 2.33251, -16.0585l 2.33251, -15.5703l 2.33251, -14.5251l 2.33251,
 -12.9185l 2.33251, -10.7812l 2.33251, -8.18013l 2.33251, -5.21518l 2.33251, -2.01302l 2.33251, 1.28176l 2.33251, 4.51749l 2.33251, 7.54704l 2.33251, 10.2389l 2.33251, 12.4865l 2.33251, 14.2153l 2.33251, 15.3863l 2.33251, 15.9965l 2.33251, 16.0757l
 2.33251, 15.6813l 2.33251, 14.891l 2.33251, 13.7945l 2.33251, 12.4856l 2.33251, 11.055l 2.33251, 9.58429l 2.33251, 8.14223l 2.33251, 6.78224l 2.33251, 5.54199l 2.33251, 4.44431l 2.33251, 3.49896" fill="none" stroke="#ff0000" stroke-width="2"/>
<path d="M328.153,336.03l 2.33251, 2.70521l 2.33251, 2.05448l 2.33251, 1.53297l 2.33251, 1.12404l 2.33251, 0.810069l 2.33251, 0.573869l 2.33251, 0.399681l 2.33251, 0.273699l 2.33251, 0.184305l 2.33251, 0.122052l 2.33251, 0.0794942l 2.33251,
 0.0509257l 2.33251, 0.0320909l 2.33251, 0.0492756h 81.6378" fill="none" stroke="#ff0000" stroke-width="2"/>
<path d="M442.446,346.022h 2.33251" fill="none" stroke="#ff0000" stroke-width="2"/>
<path d="M213.86,346.022h 25.6576l 2.33251, -0.0343878l 2.33251, -0.0175633l 2.33251, -0.025681l 2.33251, -0.0371155l 2.33251, -0.0530176l 2.33251, -0.0748488l 2.33251, -0.104431l 2.33251, -0.143989l 2.33251, -0.196182l 2.33251, -0.264112l 2.33251,
 -0.351309l 2.33251, -0.461663l 2.33251, -0.599319l 2.33251, -0.7685l 2.33251, -0.973276l 2.33251, -1.21725l 2.33251, -1.50319l 2.33251, -1.83261l 2.33251, -2.20531l 2.33251, -2.61892l 2.33251, -3.06847l 2.33251, -3.54607l 2.33251, -4.04069l 2.33251,
 -4.53813l 2.33251, -5.02121l 2.33251, -5.47023l 2.33251, -5.86363l 2.33251, -6.17898l 2.33251, -6.39413l 2.33251, -6.48854l 2.33251, -6.44465l 2.33251, -6.24927l 2.33251, -5.89478l 2.33251, -5.38007l 2.33251, -4.71117l 2.33251, -3.90138l 2.33251,
 -2.97097l 2.33251, -1.94643" fill="none" stroke="#ff0000" stroke-width="2"/>
<path d="M328.153,244.431l 2.33251, -0.85917l 2.33251, 0.256035l 2.33251, 1.3629l 2.33251, 2.42558l 2.33251, 3.41063l 2.33251, 4.28871l 2.33251, 5.03607l 2.33251, 5.63555l 2.33251, 6.07716l 2.33251, 6.35821l 2.33251, 6.48288l 2.33251, 6.46148l
 2.33251, 6.30937l 2.33251, 6.04564l 2.33251, 5.69173l 2.33251, 5.27009l 2.33251, 4.80288l 2.33251, 4.31092l 2.33251, 3.81281l 2.33251, 3.32441l 2.33251, 2.85849l 2.33251, 2.42461l 2.33251, 2.02929l 2.33251, 1.67627l 2.33251, 1.36685l 2.33251,
 1.10041l 2.33251, 0.8748l 2.33251, 0.686814l 2.33251, 0.532596l 2.33251, 0.407973l 2.33251, 0.30873l 2.33251, 0.230822l 2.33251, 0.170515l 2.33251, 0.124469l 2.33251, 0.0897844l 2.33251, 0.0640041l 2.33251, 0.0450925l 2.33251, 0.0313986l 2.33251,
 0.0216096l 2.33251, 0.0430618h 20.9926" fill="none" stroke="#ff0000" stroke-width="2"/>
<path d="M442.446,346.022h 2.33251" fill="none" stroke="#ff0000" stroke-width="2"/>
<path d="M213.86,346.022h 100.298l 2.33251, -0.0370306l 2.33251, -0.0168666l 2.33251, -0.0237291l 2.33251, -0.0330077l 2.33251, -0.0453948l 2.33251, -0.0617211" fill="none" stroke="#ff0000" stroke-width="2"/>
<path d="M328.153,345.805l 2.33251, -0.0829601l 2.33251, -0.110226l 2.33251, -0.144761l 2.33251, -0.187901l 2.33251, -0.241037l 2.33251, -0.305542l 2.33251, -0.382685l 2.33251, -0.473523l 2.33251, -0.578775l 2.33251, -0.698678l 2.33251, -0.832844l
 2.33251, -0.980119l 2.33251, -1.13846l 2.33251, -1.30483l 2.33251, -1.47519l 2.33251, -1.64447l 2.33251, -1.80669l 2.33251, -1.95513l 2.33251, -2.08255l 2.33251, -2.18154l 2.33251, -2.24491l 2.33251, -2.26612l 2.33251, -2.23969l 2.33251, -2.16165l
 2.33251, -2.02992l 2.33251, -1.84457l 2.33251, -1.60798l 2.33251, -1.32488l 2.33251, -1.00225l 2.33251, -0.648998l 2.33251, -0.275608l 2.33251, 0.106408l 2.33251, 0.485089l 2.33251, 0.848645l 2.33251, 1.18607l 2.33251, 1.4877l 2.33251, 1.74566l
 2.33251, 1.95419l 2.33251, 2.10986l 2.33251, 2.21159l 2.33251, 2.26054l 2.33251, 2.25988l 2.33251, 2.21447l 2.33251, 2.13043l 2.33251, 2.01472l 2.33251, 1.8747l 2.33251, 1.71773l 2.33251, 1.55079l 2.33251, 1.38023" fill="none" stroke="#ff0000"
 stroke-width="2"/>
<path d="M442.446,339.089l 2.33251, 1.21153" fill="none" stroke="#ff0000" stroke-width="2"/>
<text xml:space="preserve" x="206.582" y="18.7347" fill="black" font-size="18.0316" font-family="Helvetica">Am_009_calibrated</text></svg>
