<?xml version="1.0" standalone="no"?>
<svg width="567.429" height="384.969" viewBox="0 0 567.429 384.969" xmlns="http://www.w3.org/2000/svg" shape-rendering="crispEdges">
<title>
img/week1/calibrated_hist_high_gain/Am_009.svg
</title>
<desc>
Creator: ROOT Version 6.22/09
CreationDate: Wed Jul 14 09:59:31 2021</desc>
<defs>
</defs>
<rect x="0.5" y="0" width="566.929" height="384.469" fill="white"/>
<rect x="57.1929" y="38.4469" width="453.543" height="307.575" fill="white"/>
<rect x="57.1929" y="38.4469" width="453.543" height="307.575" fill="none" stroke="black"/>
<path d="M57.1929,346.022h 53.5925v -0.136246h 0.442913v -0.136246h 0.442913v -1.49871h 0.442913v -4.76861h 0.442913v -7.35728h 0.442913v 0.272492h 0.442913v 2.45243h 0.442913v 1.08997h 0.442913v -0.272492h 0.442913v -1.49871h 0.442913v -1.7712h
 0.442913v -0.544984h 0.442913v 2.58867h 0.442913v 1.63495h 0.442913v -2.58867h 0.442913v 2.45243h 0.442913v -2.17994h 0.442913v 1.08997h 0.442913v -0.817476h 0.442913v -0.408738h 0.442913v 0.68123h 0.442913v 0.817476h 0.442913v -0.817476h 0.442913v
 -0.68123h 0.442913v 0.68123h 0.442913v -2.31618h 0.442913v 4.63236h 0.442913v -0.136246h 0.442913v -0.953722h 0.442913v 0.817476h 0.442913v -1.90744h 0.442913v 0.817476h 0.442913v -1.63495h 0.442913v 2.86117h 0.442913v 1.90744h 0.442913v -3.5424h
 0.442913v 0.544984h 0.442913v -0.272492h 0.442913v -1.90744h 0.442913v 0.817476h 0.442913v 0.817476h 0.442913v 1.63495h 0.442913v -1.49871h 0.442913v -2.31618h 0.442913v 0.68123h 0.442913v 0.817476h 0.442913v 2.31618h 0.442913v -1.7712h 0.442913v
 -0.817476h 0.442913v 1.22621h 0.442913v 1.63495h 0.442913v -1.08997h 0.442913v -0.68123h 0.885827v 1.36246h 0.442913v -0.953722h 0.442913v -0.136246h 0.442913v 0.272492h 0.442913v -0.272492h 0.885827v 0.68123h 0.442913v 0.136246h 0.442913v
 -0.544984h 0.442913v -0.68123h 0.442913v 1.08997h 0.442913v -3.13366h 0.442913v 1.22621h 0.442913v 0.272492h 0.442913v 1.36246h 0.442913v -0.136246h 0.442913v 0.544984h 0.442913v -0.68123h 0.442913v 0.68123h 0.442913v -0.953722h 0.442913v 1.49871h
 0.442913v -1.08997h 0.442913v 0.544984h 0.442913v -2.86117h 0.442913v 1.7712h 0.442913v 1.90744h 0.442913v -2.04369h 0.442913v 0.68123h 0.442913v 0.953722h 0.442913v -0.68123h 0.442913v -1.63495h 0.442913v -0.408738h 0.442913v 1.22621h 0.442913v
 1.63495h 0.442913v 0.544984h 0.442913v -2.86117h 0.442913v 0.136246h 0.442913v 2.17994h 0.442913v -0.544984h 0.442913v -2.72492h 0.442913v 4.63236h 0.442913v -3.2699h 0.442913v 0.408738h 0.442913v -0.544984h 0.442913v 0.272492h 0.442913v 0.953722h
 0.442913v -1.90744h 0.442913v 4.63236h 0.442913v -2.72492h 0.442913v 0.68123h 0.442913v -1.63495h 0.442913v 0.272492h 0.442913v 1.63495h 0.442913v -0.68123h 0.442913v -1.22621h 0.442913v 0.953722h 0.442913v -0.68123h 0.442913v 1.49871h 0.442913v
 -3.40615h 0.442913v 0.953722h 0.442913v 2.04369h 0.442913v 1.08997h 0.442913v -1.08997h 0.442913v -1.49871h 0.442913v 0.136246h 0.442913v -1.08997h 0.442913v 1.7712h 0.442913v 0.817476h 0.442913v 2.04369h 0.442913v -2.31618h 0.442913v -0.68123h
 0.442913v -2.17994h 0.442913v 4.35987h 0.442913v 0.136246h 0.442913v -2.17994h 0.442913v -0.136246h 0.442913v -1.90744h 0.442913v 0.272492h 0.442913v 1.22621h 0.442913v -0.136246h 0.442913v 1.49871h 0.442913v 1.49871h 0.442913v 0.136246h 0.442913v
 -2.45243h 0.442913v -0.953722h 0.442913v 0.272492h 0.442913v -1.08997h 0.442913v 2.04369h 0.442913v 1.90744h 0.442913v 0.953722h 0.442913v -3.67864h 0.442913v 1.08997h 0.442913v -0.272492h 0.442913v 0.136246h 0.442913v 0.817476h 0.442913v 0.272492h
 0.442913v -1.63495h 0.442913v 0.817476h 0.442913v -1.49871h 0.442913v 0.408738h 0.442913v -2.04369h 0.442913v 3.40615h 0.442913v 0.817476h 0.442913v -1.49871h 0.442913v -0.953722h 0.442913v -0.817476h 0.442913v 2.31618h 0.442913v -0.408738h
 0.442913v 2.31618h 0.442913v -4.49612h 0.442913v -0.68123h 0.442913v 2.58867h 0.442913v -2.17994h 0.442913v 2.31618h 0.442913v -1.36246h 0.442913v 3.95113h 0.442913v -2.72492h 0.442913v 0.272492h 0.442913v -5.17735h 0.442913v 0.817476h 0.442913v
 0.953722h 0.442913v 0.136246h 0.442913v 3.2699h 0.442913v -1.36246h 0.442913v -3.13366h 0.442913v 2.17994h 0.442913v -3.67864h 0.442913v 0.272492h 0.442913v 2.04369h 0.442913v 3.2699h 0.442913v -4.08738h 0.442913v -0.953722h 0.442913v -0.408738h
 0.442913v -0.272492h 0.442913v 2.17994h 0.442913v 0.68123h 0.442913v -1.90744h 0.442913v 0.953722h 0.442913v -2.58867h 0.442913v -0.408738h 0.442913v 1.63495h 0.442913v -1.7712h 0.442913v 2.86117h 0.442913v -1.63495h 0.442913v -2.17994h 0.442913v
 -2.04369h 0.442913v 1.63495h 0.442913v 1.90744h 0.442913v 3.13366h 0.442913v -4.76861h 0.442913v 0.272492h 0.442913v 0.136246h 0.442913v -1.7712h 0.442913v -1.08997h 0.442913v 3.2699h 0.442913v -1.63495h 0.442913v 2.04369h 0.442913v -4.35987h
 0.442913v 1.90744h 0.442913v 0.544984h 0.442913v -2.31618h 0.442913v 1.22621h 0.442913v 1.22621h 0.442913v -1.36246h 0.442913v 0.817476h 0.442913v -3.81489h 0.442913v 0.408738h 0.442913v 1.63495h 0.442913v 1.49871h 0.442913v 0.272492h 0.442913v
 -3.95113h 0.442913v 1.22621h 0.442913v -1.36246h 0.442913v 2.58867h 0.442913v -0.408738h 0.442913v 2.99741h 0.442913v -1.90744h 0.442913v -5.17735h 0.442913v 2.31618h 0.442913v -0.68123h 0.442913v 0.817476h 0.442913v -0.817476h 0.442913v 3.67864h
 0.442913v 0.272492h 0.442913v -5.58609h 0.442913v 3.5424h 0.442913v -1.63495h 0.442913v -0.953722h 0.442913v 1.7712h 0.442913v 0.544984h 0.442913v -2.17994h 0.442913v -2.31618h 0.442913v -2.17994h 0.442913v -1.08997h 0.442913v 4.35987h 0.442913v
 2.31618h 0.442913v -0.817476h 0.442913v -4.90486h 0.442913v -0.817476h 0.442913v -1.36246h 0.442913v -4.90486h 0.442913v 10.3547h 0.442913v -2.31618h 0.442913v 1.90744h 0.442913v -6.13107h 0.442913v -0.136246h 0.442913v 0.68123h 0.442913v -1.7712h
 0.442913v -1.49871h 0.442913v 4.22363h 0.442913v 3.5424h 0.442913v -3.95113h 0.442913v -9.40097h 0.442913v 4.08738h 0.442913v 0.953722h 0.442913v 2.58867h 0.442913v 1.7712h 0.885827v -7.22104h 0.442913v 0.408738h 0.442913v -0.68123h 0.442913v
 -1.36246h 0.442913v 2.45243h 0.442913v 2.17994h 0.442913v -4.76861h 0.442913v -4.22363h 0.442913v 1.7712h 0.442913v -2.86117h 0.442913v 3.67864h 0.442913v 5.58609h 0.442913v -6.8123h 0.442913v -4.90486h 0.442913v 1.08997h 0.442913v -6.94855h
 0.442913v 2.86117h 0.442913v 1.7712h 0.442913v 7.35728h 0.442913v -6.67605h 0.442913v -7.49353h 0.442913v 3.67864h 0.442913v -0.408738h 0.442913v 1.36246h 0.442913v -8.03851h 0.442913v 11.5809h 0.442913v -5.85858h 0.442913v -2.17994h 0.442913v
 -5.58609h 0.442913v 5.58609h 0.442913v -1.49871h 0.442913v 3.81489h 0.442913v 5.72233h 0.442913v -5.0411h 0.442913v -7.35728h 0.442913v -2.72492h 0.442913v 3.13366h 0.442913v 3.5424h 0.442913v -2.31618h 0.442913v 2.86117h 0.442913v -2.86117h
 0.442913v 0.136246h 0.442913v -6.94855h 0.442913v -3.67864h 0.442913v 8.85599h 0.442913v 0.544984h 0.442913v 2.72492h 0.442913v -7.62978h 0.442913v -8.85599h 0.442913v 1.22621h 0.442913v 6.94855h 0.442913v 8.99224h 0.442913v 3.13366h 0.442913v
 -7.62978h 0.442913v -7.76602h 0.442913v 0.544984h 0.442913v -6.67605h 0.442913v 10.3547h 0.442913v 13.6246h 0.442913v -4.76861h 0.442913v -3.95113h 0.442913v -1.08997h 0.442913v -9.12848h 0.442913v 7.22104h 0.442913v 7.35728h 0.442913v 2.58867h
 0.442913v -1.49871h 0.442913v 3.95113h 0.442913v -10.4909h 0.885827v -2.45243h 0.442913v 13.4884h 0.442913v 0.544984h 0.442913v -0.136246h 0.442913v -2.72492h 0.442913v -3.5424h 0.442913v 0.953722h 0.442913v 2.86117h 0.442913v 2.31618h 0.442913v
 7.62978h 0.442913v -10.6272h 0.442913v -1.7712h 0.442913v 1.63495h 0.442913v 6.13107h 0.442913v -4.49612h 0.442913v 10.6272h 0.442913v -4.63236h 0.442913v -4.76861h 0.442913v 3.13366h 0.442913v -0.408738h 0.442913v 2.17994h 0.442913v 1.36246h
 0.442913v 7.22104h 0.442913v 3.67864h 0.442913v -10.8997h 0.442913v -2.58867h 0.442913v 2.58867h 0.442913v 3.13366h 0.442913v 4.49612h 0.442913v 2.86117h 0.442913v -1.36246h 0.442913v -4.63236h 0.442913v 1.63495h 0.442913v -1.22621h 0.442913v
 1.63495h 0.442913v 1.22621h 0.442913v 5.0411h 0.442913v -4.49612h 0.442913v -2.58867h 0.442913v -2.17994h 0.442913v 3.40615h 0.442913v 2.58867h 0.442913v 0.408738h 0.442913v 5.31359h 0.442913v -4.90486h 0.442913v -3.13366h 0.442913v 0.272492h
 0.442913v 5.0411h 0.442913v -0.408738h 0.442913v 6.94855h 0.442913v -7.22104h 0.442913v 2.72492h 0.442913v -5.0411h 0.442913v 0.68123h 0.442913v 0.817476h 0.442913v 5.44984h 0.442913v -2.45243h 0.442913v 1.7712h 0.442913v -5.99482h 0.442913v
 2.45243h 0.442913v -1.7712h 0.442913v 5.17735h 0.442913v 0.272492h 0.442913v 0.953722h 0.442913v -4.63236h 0.442913v -1.49871h 0.442913v 0.953722h 0.442913v 0.953722h 0.442913v 2.99741h 0.442913v -1.08997h 0.442913v -0.544984h 0.442913v 3.67864h
 0.442913v -6.40356h 0.442913v 1.36246h 0.442913v -0.272492h 0.442913v 3.2699h 0.442913v 1.7712h 0.442913v -1.90744h 0.442913v 0.136246h 0.442913v -4.08738h 0.442913v 3.81489h 0.442913v -0.136246h 0.442913v 1.08997h 0.442913v 6.67605h 0.442913v
 -5.72233h 0.442913v -3.81489h 0.442913v 0.953722h 0.442913v 0.136246h 0.442913v 3.95113h 0.442913v 1.49871h 0.442913v -1.63495h 0.442913v 0.544984h 0.442913v -1.7712h 0.442913v -3.13366h 0.442913v 3.2699h 0.442913v 1.90744h 0.885827v 0.544984h
 0.442913v 1.90744h 0.442913v -5.72233h 0.442913v 3.2699h 0.442913v -1.90744h 0.442913v 3.5424h 0.442913v 1.7712h 0.442913v 1.36246h 0.442913v -4.35987h 0.442913v 0.272492h 0.442913v -1.7712h 0.442913v 3.13366h 0.442913v -0.544984h 0.442913v 4.49612h
 0.442913v -3.2699h 0.442913v 2.58867h 0.442913v -0.272492h 0.442913v -3.40615h 0.442913v 3.2699h 0.442913v 2.99741h 0.442913v -2.99741h 0.442913v 0.68123h 0.442913v 0.272492h 0.442913v 0.544984h 0.442913v -0.544984h 0.442913v 0.68123h 0.442913v
 2.31618h 0.442913v -0.136246h 0.885827v 0.68123h 0.442913v -3.81489h 0.442913v 2.31618h 0.442913v 2.31618h 0.442913v 2.17994h 0.442913v -1.7712h 0.442913v -3.13366h 0.442913v 0.68123h 0.442913v 0.68123h 0.442913v 1.90744h 0.442913v -0.817476h
 0.442913v 3.40615h 0.442913v -1.90744h 0.442913v -2.86117h 0.442913v 3.5424h 0.442913v -1.90744h 0.442913v 1.90744h 0.442913v 3.13366h 0.442913v -2.17994h 0.442913v 1.08997h 0.442913v -0.408738h 0.442913v -0.68123h 0.442913v 0.136246h 0.442913v
 0.953722h 0.442913v 1.08997h 0.442913v 1.90744h 0.442913v -3.13366h 0.442913v -0.544984h 0.442913v -0.136246h 0.885827v 1.90744h 0.442913v 1.49871h 0.442913v -1.90744h 0.442913v 0.408738h 0.442913v -0.68123h 0.442913v 0.817476h 0.442913v -1.90744h
 0.442913v -0.544984h 0.442913v 3.40615h 0.442913v -0.817476h 0.442913v -2.04369h 0.442913v 2.17994h 0.442913v -1.36246h 0.442913v 2.17994h 0.442913v -0.544984h 0.442913v -0.136246h 0.442913v -2.17994h 0.442913v 2.04369h 0.442913v -1.63495h 0.442913v
 1.63495h 0.442913v 0.544984h 0.442913v 0.544984h 0.442913v 0.408738h 0.442913v -1.7712h 0.442913v 0.408738h 0.442913v -2.17994h 0.442913v 3.2699h 0.442913v -1.36246h 0.442913v 1.36246h 0.442913v -0.544984h 0.442913v 0.272492h 0.442913v -2.45243h
 0.442913v 0.272492h 0.442913v 0.953722h 0.442913v 2.45243h 0.442913v 0.272492h 0.442913v -2.99741h 0.442913v -1.63495h 0.442913v -0.136246h 0.442913v -2.31618h 0.442913v 5.0411h 0.442913v -1.08997h 0.442913v 1.36246h 0.442913v -4.49612h 0.442913v
 3.5424h 0.442913v -1.63495h 0.442913v -1.90744h 0.442913v 3.40615h 0.442913v -0.544984h 0.442913v 0.544984h 0.442913v 1.22621h 0.442913v -2.17994h 0.442913v 0.408738h 0.442913v -1.90744h 0.442913v 2.58867h 0.442913v -2.45243h 0.442913v 2.17994h
 0.442913v -1.08997h 0.442913v -0.817476h 0.442913v -1.08997h 0.442913v 1.49871h 0.442913v 0.68123h 0.442913v 1.49871h 0.442913v -1.22621h 0.442913v -3.5424h 0.442913v 0.68123h 0.442913v 1.08997h 0.442913v 2.31618h 0.442913v 0.68123h 0.442913v
 -0.544984h 0.442913v -1.36246h 0.442913v 1.36246h 0.442913v -0.272492h 0.442913v -0.68123h 0.442913v 0.272492h 0.442913v 0.544984h 0.442913v 0.136246h 0.442913v -0.272492h 0.442913v -1.08997h 0.442913v 1.08997h 0.442913v -1.08997h 0.442913v 2.31618h
 0.442913v -0.272492h 0.442913v 0.136246h 0.442913v 1.49871h 0.442913v -3.40615h 0.442913v 2.86117h 0.442913v -0.817476h 0.442913v -1.36246h 0.442913v 1.90744h 0.442913v 0.953722h 0.442913v -1.49871h 0.442913v -0.817476h 0.442913v 2.31618h 0.442913v
 -0.817476h 0.442913v 0.544984h 0.442913v 0.136246h 0.442913v 1.08997h 0.442913v -0.953722h 0.442913v 1.90744h 0.442913v -2.31618h 0.442913v 0.408738h 0.442913v 1.08997h 0.442913v 1.7712h 0.442913v -2.17994h 0.442913v -1.63495h 0.442913v 1.63495h
 0.442913v -0.953722h 0.442913v 1.49871h 0.442913v 2.31618h 0.442913v -0.544984h 0.442913v -2.04369h 0.442913v 0.817476h 0.885827v -1.36246h 0.442913v 2.58867h 0.442913v -0.136246h 0.442913v -0.544984h 0.442913v 0.136246h 0.442913v -0.272492h
 0.442913v 0.544984h 0.442913v 0.68123h 0.442913v -0.272492h 0.442913v -1.63495h 0.442913v 1.36246h 0.442913v -0.953722h 0.442913v 1.36246h 0.442913v 0.953722h 0.442913v -1.49871h 0.442913v 1.7712h 0.442913v -0.544984h 0.442913v -1.22621h 0.442913v
 0.817476h 0.442913v 0.272492h 0.442913v -0.136246h 0.442913v 0.408738h 0.442913v 0.136246h 0.442913v -0.68123h 0.442913v 0.68123h 0.442913v -0.544984h 0.442913v 0.817476h 0.442913v -0.136246h 0.442913v 0.136246h 0.442913v -0.136246h 0.442913v
 0.272492h 0.442913v -0.272492h 0.442913v 0.408738h 0.442913v -0.272492h 0.442913v -0.817476h 0.442913v 0.68123h 0.442913v 0.817476h 0.442913v -0.136246h 0.442913v -0.544984h 0.442913v 0.272492h 0.442913v 0.272492h 0.442913v 0.272492h 0.442913v
 0.544984h 0.442913v -0.136246h 0.442913v -0.68123h 0.885827v 0.272492h 0.442913v -0.272492h 0.442913v 0.544984h 0.442913v -0.544984h 0.442913v -0.136246h 0.442913v 0.136246h 0.442913v 0.408738h 0.442913v -0.408738h 0.442913v 0.408738h 0.885827v
 0.136246h 0.442913v -0.272492h 0.885827v -0.408738h 0.442913v 0.68123h 1.32874v -0.408738h 0.442913v -0.136246h 0.442913v 0.953722h 0.442913v -0.272492h 0.885827v -0.68123h 0.442913v 0.68123h 0.442913v -0.408738h 0.442913v 0.136246h 0.442913v
 -0.272492h 0.442913v 0.136246h 0.442913v 0.68123h 0.442913v -0.136246h 0.442913v -0.544984h 0.442913v 0.272492h 0.442913v -0.408738h 0.442913v 0.408738h 0.442913v -0.68123h 0.442913v 0.408738h 0.442913v -0.272492h 0.442913v 0.544984h 0.442913v
 0.544984h 0.442913v -0.408738h 0.442913v -0.136246h 0.885827v -0.136246h 0.442913v 0.544984h 0.442913v -0.953722h 0.442913v 0.272492h 0.442913v 0.408738h 0.885827v 0.136246h 0.442913v -0.817476h 0.442913v 0.817476h 0.442913v -0.272492h 0.442913v
 -0.272492h 0.442913v -0.136246h 0.442913v 0.136246h 0.442913v 0.272492h 0.442913v 0.408738h 0.442913v 0.136246h 0.442913v -1.22621h 0.442913v 0.136246h 0.442913v 0.408738h 0.442913v 0.408738h 0.442913v -0.544984h 0.442913v 0.408738h 0.885827v
 0.136246h 0.442913v -0.272492h 0.442913v -0.136246h 0.442913v -0.272492h 0.442913v 0.408738h 0.442913v 0.136246h 0.442913v -0.272492h 0.885827v 0.136246h 0.442913v 0.136246h 0.442913v -0.272492h 0.442913v 0.408738h 0.442913v 0.408738h 0.442913v
 -0.817476h 0.442913v -0.272492h 0.885827v 0.272492h 0.442913v 0.272492h 0.442913v 0.136246h 0.442913v 0.272492h 0.442913v -0.136246h 0.442913v -0.408738h 0.442913v 0.136246h 0.885827v -0.272492h 0.442913v 0.272492h 0.442913v 0.136246h 0.442913v
 -0.272492h 0.442913v -0.136246h 0.442913v 0.272492h 0.442913v -0.272492h 0.442913v -0.136246h 0.442913v 0.136246h 0.442913v 0.272492h 0.442913v -0.136246h 0.885827v -0.544984h 0.442913v 0.272492h 0.442913v -0.136246h 0.885827v 0.544984h 0.442913v
 -0.136246h 0.442913v 0.408738h 0.442913v -0.544984h 0.442913v -0.272492h 0.442913v 0.408738h 0.442913v -0.408738h 0.442913v 0.408738h 0.442913v -0.272492h 0.442913v 0.544984h 0.885827v -0.136246h 0.442913v 0.272492h 0.442913v -0.408738h 0.442913v
 -0.136246h 0.442913v 0.272492h 0.442913v -0.272492h 0.442913v 0.272492h 0.442913v -0.272492h 0.442913v -0.272492h 0.885827v 0.544984h 0.442913v -0.817476h 0.442913v 0.408738h 0.442913v 0.544984h 0.442913v -0.544984h 0.442913v -0.68123h 0.442913v
 0.544984h 0.442913v 1.08997h 0.442913v -0.544984h 0.442913v 0.408738h 0.442913v -0.68123h 0.442913v 0.136246h 0.442913v 0.544984h 0.885827v -0.136246h 0.442913v -0.272492h 0.442913v -0.136246h 0.442913v 0.272492h 0.885827v -0.136246h 0.885827v
 -0.544984h 0.442913v 0.408738h 0.442913v -0.408738h 0.442913v 0.68123h 0.442913v -0.408738h 0.442913v 0.544984h 0.442913v -0.272492h 0.442913v -0.136246h 0.442913v 0.136246h 0.442913v 0.272492h 0.442913v -0.408738h 0.442913v 0.272492h 0.442913v
 -0.408738h 0.442913v 0.272492h 0.885827v 0.272492h 0.442913v -0.272492h 0.442913v -0.136246h 0.442913v 0.136246h 0.442913v 0.136246h 0.442913v -0.272492h 0.442913v 0.408738h 0.442913v -1.36246h 0.442913v 0.953722h 0.442913v 0.408738h 0.442913v
 -0.272492h 0.442913v 0.272492h 0.442913v -0.408738h 0.442913v -1.08997h 0.442913v 0.68123h 0.442913v 0.817476h 0.885827v -1.49871h 0.442913v -3.2699h 0.442913v -23.4343h 0.442913v -76.5703h 0.442913v -148.917h 0.442913v -38.8301h 0.442913v 84.4725h
 0.442913v 10.3547h 0.442913v 21.3906h 0.442913v 32.5628h 0.442913v 34.4702h 0.442913v 25.0693h 0.442913v 6.13107h 0.442913v 7.35728h 0.442913v -11.9896h 0.442913v -4.49612h 0.442913v 2.58867h 0.442913v 6.40356h 0.442913v 2.99741h 0.442913v 8.99224h
 0.442913v -6.8123h 0.442913v 5.0411h 0.442913v 22.6168h 0.442913v 25.7505h 0.442913v 14.5783h 0.442913v 3.13366h 0.442913v 1.49871h 0.442913v 0.544984h 0.442913v -0.68123h 0.442913v 0.817476h 0.442913v -0.272492h 0.885827v -0.136246h 0.442913v
 0.544984h 2.21457v -0.136246h 0.442913v 0.136246h 6.6437v -0.136246h 0.442913v 0.136246h 4.87205" fill="none" stroke="#000099"/>
<path d="M57.1929,346.022h 453.543" fill="none" stroke="black"/>
<path d="M57.1929,336.795v 9.22726" fill="none" stroke="black"/>
<path d="M68.5315,341.409v 4.61363" fill="none" stroke="black"/>
<path d="M79.8701,341.409v 4.61363" fill="none" stroke="black"/>
<path d="M91.2087,341.409v 4.61363" fill="none" stroke="black"/>
<path d="M102.547,341.409v 4.61363" fill="none" stroke="black"/>
<path d="M113.886,336.795v 9.22726" fill="none" stroke="black"/>
<path d="M125.224,341.409v 4.61363" fill="none" stroke="black"/>
<path d="M136.563,341.409v 4.61363" fill="none" stroke="black"/>
<path d="M147.902,341.409v 4.61363" fill="none" stroke="black"/>
<path d="M159.24,341.409v 4.61363" fill="none" stroke="black"/>
<path d="M170.579,336.795v 9.22726" fill="none" stroke="black"/>
<path d="M181.917,341.409v 4.61363" fill="none" stroke="black"/>
<path d="M193.256,341.409v 4.61363" fill="none" stroke="black"/>
<path d="M204.594,341.409v 4.61363" fill="none" stroke="black"/>
<path d="M215.933,341.409v 4.61363" fill="none" stroke="black"/>
<path d="M227.272,336.795v 9.22726" fill="none" stroke="black"/>
<path d="M238.61,341.409v 4.61363" fill="none" stroke="black"/>
<path d="M249.949,341.409v 4.61363" fill="none" stroke="black"/>
<path d="M261.287,341.409v 4.61363" fill="none" stroke="black"/>
<path d="M272.626,341.409v 4.61363" fill="none" stroke="black"/>
<path d="M283.965,336.795v 9.22726" fill="none" stroke="black"/>
<path d="M295.303,341.409v 4.61363" fill="none" stroke="black"/>
<path d="M306.642,341.409v 4.61363" fill="none" stroke="black"/>
<path d="M317.98,341.409v 4.61363" fill="none" stroke="black"/>
<path d="M329.319,341.409v 4.61363" fill="none" stroke="black"/>
<path d="M340.657,336.795v 9.22726" fill="none" stroke="black"/>
<path d="M351.996,341.409v 4.61363" fill="none" stroke="black"/>
<path d="M363.335,341.409v 4.61363" fill="none" stroke="black"/>
<path d="M374.673,341.409v 4.61363" fill="none" stroke="black"/>
<path d="M386.012,341.409v 4.61363" fill="none" stroke="black"/>
<path d="M397.35,336.795v 9.22726" fill="none" stroke="black"/>
<path d="M408.689,341.409v 4.61363" fill="none" stroke="black"/>
<path d="M420.028,341.409v 4.61363" fill="none" stroke="black"/>
<path d="M431.366,341.409v 4.61363" fill="none" stroke="black"/>
<path d="M442.705,341.409v 4.61363" fill="none" stroke="black"/>
<path d="M454.043,336.795v 9.22726" fill="none" stroke="black"/>
<path d="M465.382,341.409v 4.61363" fill="none" stroke="black"/>
<path d="M476.72,341.409v 4.61363" fill="none" stroke="black"/>
<path d="M488.059,341.409v 4.61363" fill="none" stroke="black"/>
<path d="M499.398,341.409v 4.61363" fill="none" stroke="black"/>
<path d="M510.736,336.795v 9.22726" fill="none" stroke="black"/>
<text xml:space="preserve" x="53.446" y="358.403" fill="black" font-size="12.8453" font-family="Helvetica">0</text>
<text xml:space="preserve" x="110.465" y="358.403" fill="black" font-size="12.8453" font-family="Helvetica">5</text>
<text xml:space="preserve" x="163.411" y="358.403" fill="black" font-size="12.8453" font-family="Helvetica">10</text>
<text xml:space="preserve" x="219.615" y="358.403" fill="black" font-size="12.8453" font-family="Helvetica">15</text>
<text xml:space="preserve" x="277.448" y="358.403" fill="black" font-size="12.8453" font-family="Helvetica">20</text>
<text xml:space="preserve" x="332.838" y="358.403" fill="black" font-size="12.8453" font-family="Helvetica">25</text>
<text xml:space="preserve" x="390.671" y="358.403" fill="black" font-size="12.8453" font-family="Helvetica">30</text>
<text xml:space="preserve" x="446.061" y="358.403" fill="black" font-size="12.8453" font-family="Helvetica">35</text>
<text xml:space="preserve" x="503.894" y="358.403" fill="black" font-size="12.8453" font-family="Helvetica">40</text>
<text xml:space="preserve" x="441.173" y="370.622" fill="black" font-size="12.8453" font-family="Helvetica">Energy [keV]</text>
<path d="M57.1929,346.022v -307.575" fill="none" stroke="black"/>
<path d="M70.7992,346.022h -13.6063" fill="none" stroke="black"/>
<path d="M63.9961,339.21h -6.80315" fill="none" stroke="black"/>
<path d="M63.9961,332.398h -6.80315" fill="none" stroke="black"/>
<path d="M63.9961,325.585h -6.80315" fill="none" stroke="black"/>
<path d="M70.7992,318.773h -13.6063" fill="none" stroke="black"/>
<path d="M63.9961,311.961h -6.80315" fill="none" stroke="black"/>
<path d="M63.9961,305.148h -6.80315" fill="none" stroke="black"/>
<path d="M63.9961,298.336h -6.80315" fill="none" stroke="black"/>
<path d="M70.7992,291.524h -13.6063" fill="none" stroke="black"/>
<path d="M63.9961,284.712h -6.80315" fill="none" stroke="black"/>
<path d="M63.9961,277.899h -6.80315" fill="none" stroke="black"/>
<path d="M63.9961,271.087h -6.80315" fill="none" stroke="black"/>
<path d="M70.7992,264.275h -13.6063" fill="none" stroke="black"/>
<path d="M63.9961,257.462h -6.80315" fill="none" stroke="black"/>
<path d="M63.9961,250.65h -6.80315" fill="none" stroke="black"/>
<path d="M63.9961,243.838h -6.80315" fill="none" stroke="black"/>
<path d="M70.7992,237.025h -13.6063" fill="none" stroke="black"/>
<path d="M63.9961,230.213h -6.80315" fill="none" stroke="black"/>
<path d="M63.9961,223.401h -6.80315" fill="none" stroke="black"/>
<path d="M63.9961,216.589h -6.80315" fill="none" stroke="black"/>
<path d="M70.7992,209.776h -13.6063" fill="none" stroke="black"/>
<path d="M63.9961,202.964h -6.80315" fill="none" stroke="black"/>
<path d="M63.9961,196.152h -6.80315" fill="none" stroke="black"/>
<path d="M63.9961,189.339h -6.80315" fill="none" stroke="black"/>
<path d="M70.7992,182.527h -13.6063" fill="none" stroke="black"/>
<path d="M63.9961,175.715h -6.80315" fill="none" stroke="black"/>
<path d="M63.9961,168.902h -6.80315" fill="none" stroke="black"/>
<path d="M63.9961,162.09h -6.80315" fill="none" stroke="black"/>
<path d="M70.7992,155.278h -13.6063" fill="none" stroke="black"/>
<path d="M63.9961,148.466h -6.80315" fill="none" stroke="black"/>
<path d="M63.9961,141.653h -6.80315" fill="none" stroke="black"/>
<path d="M63.9961,134.841h -6.80315" fill="none" stroke="black"/>
<path d="M70.7992,128.029h -13.6063" fill="none" stroke="black"/>
<path d="M63.9961,121.216h -6.80315" fill="none" stroke="black"/>
<path d="M63.9961,114.404h -6.80315" fill="none" stroke="black"/>
<path d="M63.9961,107.592h -6.80315" fill="none" stroke="black"/>
<path d="M70.7992,100.779h -13.6063" fill="none" stroke="black"/>
<path d="M63.9961,93.9672h -6.80315" fill="none" stroke="black"/>
<path d="M63.9961,87.1549h -6.80315" fill="none" stroke="black"/>
<path d="M63.9961,80.3426h -6.80315" fill="none" stroke="black"/>
<path d="M70.7992,73.5303h -13.6063" fill="none" stroke="black"/>
<path d="M63.9961,66.718h -6.80315" fill="none" stroke="black"/>
<path d="M63.9961,59.9057h -6.80315" fill="none" stroke="black"/>
<path d="M63.9961,53.0934h -6.80315" fill="none" stroke="black"/>
<path d="M70.7992,46.2811h -13.6063" fill="none" stroke="black"/>
<path d="M70.7992,46.2811h -13.6063" fill="none" stroke="black"/>
<path d="M63.9961,39.4688h -6.80315" fill="none" stroke="black"/>
<text xml:space="preserve" x="47.7441" y="350.258" fill="black" font-size="12.8453" font-family="Helvetica">0</text>
<text xml:space="preserve" x="33.8967" y="323.378" fill="black" font-size="12.8453" font-family="Helvetica">200</text>
<text xml:space="preserve" x="33.8967" y="295.683" fill="black" font-size="12.8453" font-family="Helvetica">400</text>
<text xml:space="preserve" x="33.8967" y="268.803" fill="black" font-size="12.8453" font-family="Helvetica">600</text>
<text xml:space="preserve" x="33.8967" y="241.108" fill="black" font-size="12.8453" font-family="Helvetica">800</text>
<text xml:space="preserve" x="27.3803" y="214.228" fill="black" font-size="12.8453" font-family="Helvetica">1000</text>
<text xml:space="preserve" x="27.3803" y="187.347" fill="black" font-size="12.8453" font-family="Helvetica">1200</text>
<text xml:space="preserve" x="27.3803" y="159.652" fill="black" font-size="12.8453" font-family="Helvetica">1400</text>
<text xml:space="preserve" x="27.3803" y="132.772" fill="black" font-size="12.8453" font-family="Helvetica">1600</text>
<text xml:space="preserve" x="27.3803" y="105.077" fill="black" font-size="12.8453" font-family="Helvetica">1800</text>
<text xml:space="preserve" x="27.3803" y="78.1971" fill="black" font-size="12.8453" font-family="Helvetica">2000</text>
<text xml:space="preserve" x="27.3803" y="50.5023" fill="black" font-size="12.8453" font-family="Helvetica">2200</text>
<g transform="rotate(-90,14.3474,70.0516)">
<text xml:space="preserve" x="14.3474" y="70.0516" fill="black" font-size="12.8453" font-family="Helvetica">Event</text>
</g>
<text xml:space="preserve" x="206.582" y="18.7347" fill="black" font-size="18.0316" font-family="Helvetica">Am_009_calibrated</text>
<rect x="442.705" y="24.9905" width="113.386" height="61.5151" fill="white"/>
<path d="M442.705,86.5056h 113.386" fill="none" stroke="black"/>
<path d="M556.091,86.5056v -61.5151" fill="none" stroke="black"/>
<path d="M556.091,24.9905h -113.386" fill="none" stroke="black"/>
<path d="M442.705,24.9905v 61.5151" fill="none" stroke="black"/>
<text xml:space="preserve" x="446.061" y="36.6549" fill="black" font-size="12.1556" font-family="Helvetica">Am_009_calibrated</text>
<path d="M442.705,40.3693h 113.386" fill="none" stroke="black"/>
<text xml:space="preserve" x="447.69" y="52.946" fill="black" font-size="12.3904" font-family="Helvetica">Entries </text>
<text xml:space="preserve" x="506.338" y="52.946" fill="black" font-size="12.3904" font-family="Helvetica"> 116742</text>
<text xml:space="preserve" x="447.69" y="67.6079" fill="black" font-size="12.3904" font-family="Helvetica">Mean  </text>
<text xml:space="preserve" x="512.854" y="67.6079" fill="black" font-size="12.3904" font-family="Helvetica">  20.46</text>
<text xml:space="preserve" x="447.69" y="83.0844" fill="black" font-size="12.3904" font-family="Helvetica">Std Dev   </text>
<text xml:space="preserve" x="512.854" y="83.0844" fill="black" font-size="12.3904" font-family="Helvetica">  8.913</text>
<text xml:space="preserve" x="206.582" y="18.7347" fill="black" font-size="18.0316" font-family="Helvetica">Am_009_calibrated</text></svg>
