<?xml version="1.0" standalone="no"?>
<svg width="567.429" height="384.68" viewBox="0 0 567.429 384.68" xmlns="http://www.w3.org/2000/svg" shape-rendering="crispEdges">
<title>
img/week1/calibrated_hist_high_gain/Bg.svg
</title>
<desc>
Creator: ROOT Version 6.22/09
CreationDate: Tue Jul 13 18:42:20 2021</desc>
<defs>
</defs>
<rect x="0.5" y="0" width="566.929" height="384.18" fill="white"/>
<rect x="57.1929" y="38.418" width="453.543" height="307.344" fill="white"/>
<rect x="57.1929" y="38.418" width="453.543" height="307.344" fill="none" stroke="black"/>
<path d="M57.1929,345.762h 64.2224v -0.0213034h 0.885827v -0.0852135h 0.442913v -3.08899h 0.442913v -39.2408h 0.442913v -125.328h 0.442913v -116.487h 0.442913v -8.45744h 0.442913v 50.1268h 0.442913v 56.1131h 0.442913v 0.617798h 0.442913v 2.70553h
 0.442913v 16.6805h 0.442913v 24.5415h 0.442913v 27.1192h 0.442913v 24.4137h 0.442913v 4.53762h 0.442913v 0.958652h 0.442913v 5.41106h 0.442913v 10.1617h 0.442913v 11.6956h 0.442913v 12.5903h 0.442913v 6.02886h 0.442913v 1.21429h 0.442913v 2.55641h
 0.442913v 4.17546h 0.442913v 5.53888h 0.442913v 3.32333h 0.442913v 4.60153h 0.442913v 1.61906h 0.442913v 0.639101h 0.442913v 0.937349h 0.442913v 1.95991h 0.442913v 2.42859h 0.442913v 1.2782h 0.442913v 2.68423h 0.442913v -0.468674h 0.442913v
 0.0852135h 0.442913v 1.17169h 0.442913v 0.660405h 0.442913v 0.830832h 0.442913v 0.703011h 0.442913v 0.276944h 0.442913v 0.170427h 0.442913v -0.106517h 0.442913v 0.724315h 0.442913v -0.0852135h 0.442913v 0.937349h 0.442913v -0.0426068h 0.885827v
 0.12782h 0.442913v 0.213034h 0.442913v 0.0639101h 0.442913v -0.0852135h 0.442913v 0.404764h 0.442913v -0.12782h 0.442913v 0.276944h 0.442913v -0.319551h 0.442913v 0.340854h 0.885827v -0.12782h 0.442913v 0.106517h 0.442913v 0.0852135h 0.442913v
 0.0426068h 0.442913v -0.149124h 0.442913v 0.0852135h 0.442913v 0.0426068h 0.442913v 0.0213034h 0.442913v -0.0852135h 0.442913v 0.170427h 0.442913v -0.0426068h 0.885827v -0.0213034h 0.442913v 0.0426068h 0.442913v 0.0426068h 0.442913v -0.0852135h
 0.442913v -0.0213034h 0.442913v 0.149124h 0.442913v -0.0852135h 0.885827v 0.0852135h 0.442913v -0.0426068h 0.442913v 0.0213034h 0.442913v -0.0639101h 0.442913v -0.0213034h 0.442913v -0.0852135h 0.442913v 0.149124h 0.442913v -0.0213034h 0.442913v
 0.0426068h 0.442913v -0.0213034h 0.442913v -0.0213034h 0.442913v -0.0213034h 0.442913v 0.0213034h 0.442913v 0.0852135h 0.442913v -0.0426068h 0.442913v 0.0213034h 0.442913v -0.0852135h 0.885827v -0.0213034h 0.442913v 0.0426068h 0.442913v 0.0426068h
 0.442913v -0.0213034h 0.442913v -0.170427h 0.442913v 0.0639101h 0.442913v 0.12782h 0.442913v 0.0213034h 0.442913v -0.0639101h 0.442913v -0.0213034h 0.885827v -0.0426068h 0.442913v 0.149124h 0.442913v -0.106517h 0.442913v 0.0852135h 0.442913v
 -0.0426068h 0.442913v -0.0213034h 0.442913v -0.0213034h 0.442913v 0.0213034h 0.442913v -0.0213034h 0.442913v 0.0213034h 0.442913v 0.0213034h 0.885827v -0.0639101h 0.442913v 0.0852135h 0.885827v -0.0213034h 0.442913v 0.0426068h 0.442913v -0.170427h
 0.442913v 0.0852135h 0.442913v 0.0213034h 0.442913v -0.0213034h 0.442913v 0.0852135h 0.442913v -0.0852135h 0.442913v 0.0639101h 0.442913v -0.0213034h 0.442913v -0.0639101h 0.442913v 0.0639101h 0.442913v -0.0213034h 0.442913v 0.0213034h 0.442913v
 -0.0639101h 0.442913v 0.0852135h 0.442913v -0.0426068h 0.442913v 0.0426068h 0.442913v -0.0213034h 0.442913v -0.0213034h 0.442913v -0.0639101h 0.442913v 0.106517h 0.442913v -0.19173h 0.442913v 0.170427h 0.442913v -0.0426068h 0.442913v -0.0426068h
 0.442913v 0.0852135h 0.442913v 0.0213034h 0.442913v 0.0213034h 0.442913v -0.0639101h 0.442913v -0.0426068h 0.442913v 0.0426068h 0.442913v 0.0639101h 0.442913v -0.0426068h 0.442913v -0.0426068h 0.442913v 0.0852135h 0.442913v -0.170427h 0.442913v
 0.19173h 0.442913v -0.170427h 0.442913v 0.0639101h 0.442913v 0.0639101h 0.442913v -0.12782h 0.442913v 0.106517h 0.442913v 0.0213034h 0.442913v 0.0213034h 0.442913v -0.170427h 0.442913v 0.0852135h 0.442913v 0.106517h 0.442913v -0.0426068h 0.885827v
 0.0213034h 0.442913v -0.12782h 0.442913v 0.0639101h 0.442913v 0.0852135h 0.442913v -0.0213034h 0.442913v -0.0213034h 0.442913v -0.0639101h 0.885827v -0.0852135h 0.442913v 0.0213034h 0.442913v 0.106517h 0.885827v -0.0213034h 0.442913v -0.0213034h
 0.442913v 0.0639101h 0.442913v -0.0639101h 0.442913v -0.0852135h 0.442913v 0.12782h 0.442913v -0.0639101h 0.442913v 0.0426068h 0.442913v 0.0639101h 0.442913v -0.0213034h 0.442913v 0.0213034h 0.442913v -0.170427h 0.442913v 0.106517h 0.885827v
 -0.0426068h 0.442913v 0.0213034h 0.442913v -0.0426068h 0.442913v 0.12782h 0.885827v -0.0426068h 0.442913v 0.0213034h 0.442913v -0.0639101h 0.885827v 0.0213034h 0.442913v 0.0213034h 0.442913v -0.0426068h 0.442913v 0.0426068h 0.442913v 0.0426068h
 0.442913v -0.0639101h 0.442913v -0.0639101h 0.442913v 0.12782h 0.442913v -0.0852135h 0.442913v 0.0426068h 0.442913v 0.0213034h 0.442913v -0.0213034h 0.442913v -0.0639101h 0.442913v 0.0426068h 0.442913v 0.0213034h 0.885827v -0.0426068h 0.442913v
 0.0426068h 0.442913v -0.0213034h 0.442913v 0.0213034h 0.442913v 0.0426068h 0.885827v -0.0852135h 0.442913v -0.0213034h 0.442913v 0.12782h 0.442913v -0.0852135h 0.442913v 0.0852135h 0.442913v -0.106517h 0.442913v 0.0639101h 0.885827v -0.0213034h
 0.442913v 0.0213034h 0.442913v -0.0639101h 0.442913v -0.0639101h 0.442913v 0.0426068h 0.442913v 0.12782h 0.442913v -0.0852135h 0.442913v 0.0426068h 0.442913v -0.0426068h 0.442913v 0.0639101h 0.442913v -0.0639101h 0.442913v 0.0852135h 0.885827v
 -0.0639101h 0.885827v -0.0426068h 0.442913v 0.0639101h 0.442913v -0.0639101h 0.442913v 0.0426068h 0.442913v 0.0426068h 0.885827v 0.0213034h 0.442913v -0.0213034h 0.442913v -0.0426068h 0.442913v -0.0213034h 0.885827v 0.0426068h 0.442913v 0.0213034h
 0.885827v 0.0426068h 0.442913v -0.0426068h 0.442913v -0.0852135h 0.442913v 0.0426068h 0.442913v 0.0213034h 0.442913v 0.0213034h 0.442913v -0.0639101h 0.442913v 0.0426068h 0.442913v -0.0213034h 0.442913v -0.0852135h 0.442913v 0.0213034h 0.442913v
 0.12782h 0.442913v 0.0213034h 0.442913v -0.106517h 0.442913v 0.0639101h 0.442913v -0.0639101h 0.442913v 0.0639101h 0.442913v -0.106517h 0.442913v 0.0852135h 0.442913v -0.0213034h 0.885827v -0.0213034h 0.442913v 0.0213034h 0.442913v 0.0426068h
 0.442913v -0.0639101h 0.442913v 0.106517h 0.442913v -0.0213034h 0.442913v -0.0639101h 0.442913v 0.0426068h 0.442913v -0.0213034h 0.442913v -0.0639101h 0.442913v 0.0639101h 0.442913v -0.0639101h 0.442913v 0.0639101h 0.442913v -0.0213034h 0.442913v
 0.0426068h 0.442913v -0.0639101h 0.442913v 0.0213034h 0.442913v -0.0426068h 0.442913v 0.0639101h 0.442913v -0.0852135h 0.442913v 0.0426068h 0.442913v -0.0639101h 0.442913v 0.12782h 0.442913v -0.0852135h 0.442913v 0.0639101h 0.442913v 0.0213034h
 0.442913v -0.0213034h 0.442913v 0.0213034h 0.885827v -0.0426068h 0.442913v -0.0213034h 0.442913v 0.0426068h 0.442913v 0.0639101h 0.442913v -0.0426068h 0.442913v 0.0213034h 0.442913v -0.149124h 0.442913v 0.0852135h 0.442913v 0.0213034h 0.442913v
 -0.0639101h 0.442913v 0.0426068h 0.442913v 0.0639101h 0.442913v -0.0426068h 0.885827v -0.0213034h 0.442913v 0.0639101h 0.885827v -0.0213034h 0.885827v -0.0852135h 0.442913v 0.0426068h 0.442913v -0.0426068h 0.442913v 0.0852135h 0.442913v -0.0426068h
 0.442913v -0.106517h 0.442913v 0.0852135h 0.442913v 0.0639101h 0.885827v -0.0213034h 0.442913v -0.0213034h 0.442913v 0.0426068h 0.442913v -0.0852135h 0.442913v 0.0213034h 0.442913v 0.0213034h 0.442913v 0.0213034h 0.442913v -0.0426068h 0.442913v
 0.0639101h 0.442913v -0.0426068h 0.442913v 0.0213034h 0.442913v -0.0639101h 0.442913v 0.0426068h 0.442913v 0.0426068h 0.442913v -0.0426068h 0.442913v -0.0426068h 0.442913v 0.0639101h 0.442913v -0.0426068h 0.442913v 0.0213034h 0.442913v 0.0639101h
 0.885827v -0.106517h 0.442913v -0.0213034h 0.442913v 0.0213034h 0.885827v 0.0426068h 0.442913v 0.0426068h 0.442913v -0.0426068h 0.442913v -0.0213034h 0.442913v 0.0426068h 0.442913v 0.0426068h 0.442913v -0.0213034h 0.442913v -0.0639101h 0.442913v
 0.0852135h 0.442913v -0.0426068h 0.442913v -0.0639101h 0.885827v 0.0639101h 0.442913v 0.0213034h 0.442913v -0.0639101h 0.442913v 0.0639101h 0.442913v 0.0213034h 0.885827v -0.0426068h 0.442913v -0.0426068h 0.442913v 0.0852135h 0.442913v -0.12782h
 0.442913v 0.0213034h 0.442913v 0.0426068h 0.442913v 0.0213034h 0.442913v -0.0852135h 0.442913v 0.106517h 0.442913v -0.0639101h 0.442913v 0.0639101h 0.442913v -0.0852135h 0.442913v 0.0639101h 0.442913v 0.0426068h 0.442913v -0.0426068h 0.442913v
 -0.0213034h 0.442913v -0.0426068h 0.442913v 0.106517h 0.442913v -0.0639101h 0.442913v -0.106517h 0.442913v 0.0639101h 0.442913v 0.0426068h 0.442913v -0.0213034h 0.442913v 0.0426068h 0.885827v -0.0852135h 0.442913v 0.106517h 0.442913v -0.0639101h
 0.442913v 0.0852135h 0.442913v -0.0852135h 0.442913v 0.0426068h 0.442913v 0.0213034h 0.885827v -0.106517h 0.442913v 0.0426068h 0.885827v 0.0639101h 0.885827v -0.0639101h 0.885827v 0.0426068h 0.442913v -0.0639101h 0.442913v 0.0639101h 0.442913v
 0.0213034h 0.442913v 0.0213034h 0.442913v -0.0213034h 0.442913v -0.0426068h 0.442913v 0.0213034h 0.442913v -0.0426068h 0.442913v 0.0426068h 0.442913v -0.0639101h 0.442913v 0.0213034h 0.442913v 0.0639101h 0.442913v -0.0639101h 0.442913v 0.0213034h
 0.442913v 0.0426068h 0.442913v -0.106517h 0.442913v 0.0213034h 0.442913v 0.106517h 0.442913v -0.0852135h 0.442913v 0.0213034h 0.442913v -0.0426068h 0.442913v 0.0426068h 0.442913v -0.0213034h 0.885827v 0.0213034h 0.442913v -0.0639101h 0.442913v
 0.0852135h 0.442913v -0.0213034h 0.442913v 0.0213034h 0.442913v -0.0639101h 0.885827v -0.0213034h 0.442913v 0.12782h 0.442913v -0.0426068h 0.442913v -0.0852135h 0.442913v 0.0639101h 0.442913v -0.0213034h 0.442913v 0.0213034h 0.442913v -0.0213034h
 0.442913v 0.0213034h 0.442913v 0.0639101h 0.442913v -0.0852135h 0.442913v -0.0426068h 0.442913v 0.12782h 0.442913v -0.0426068h 0.442913v -0.0213034h 0.442913v 0.0426068h 0.442913v -0.0639101h 0.442913v 0.0213034h 0.442913v -0.0213034h 0.442913v
 0.0426068h 0.442913v -0.0213034h 0.442913v -0.0639101h 0.442913v 0.12782h 0.442913v 0.0213034h 0.442913v -0.0213034h 0.885827v -0.0852135h 0.442913v 0.0426068h 0.885827v 0.0426068h 0.442913v -0.0213034h 0.885827v -0.0213034h 0.442913v 0.0426068h
 0.442913v -0.0213034h 0.442913v -0.0426068h 0.442913v -0.0426068h 0.442913v 0.0852135h 0.885827v -0.0213034h 0.442913v 0.0213034h 0.442913v -0.0213034h 0.442913v 0.0426068h 0.442913v -0.0852135h 0.442913v 0.0852135h 0.442913v -0.0852135h 0.442913v
 0.0852135h 0.442913v -0.106517h 0.442913v 0.0639101h 0.442913v 0.0426068h 0.442913v -0.0213034h 0.442913v -0.0426068h 0.885827v -0.0213034h 0.442913v 0.0213034h 0.442913v 0.0639101h 0.442913v -0.0639101h 0.885827v 0.0426068h 0.442913v -0.0213034h
 0.442913v -0.0213034h 0.442913v 0.0426068h 0.442913v -0.0426068h 0.885827v -0.0213034h 0.885827v 0.0639101h 0.442913v -0.0426068h 0.442913v 0.0639101h 0.442913v -0.0426068h 0.885827v -0.0426068h 0.442913v 0.0426068h 0.442913v -0.0213034h 0.442913v
 0.0426068h 0.442913v -0.0213034h 0.442913v -0.0639101h 0.442913v 0.0852135h 0.442913v -0.0213034h 0.442913v 0.0213034h 0.442913v -0.0213034h 0.442913v 0.0426068h 0.885827v 0.0213034h 0.442913v -0.0639101h 0.442913v 0.0213034h 0.442913v -0.0426068h
 0.442913v 0.0426068h 0.442913v -0.0426068h 0.442913v 0.0639101h 1.32874v -0.0639101h 0.885827v 0.0639101h 0.442913v -0.0213034h 0.442913v 0.0213034h 0.442913v -0.106517h 0.442913v 0.0639101h 0.442913v -0.0426068h 0.442913v 0.0213034h 0.442913v
 0.0852135h 0.442913v -0.0852135h 0.442913v 0.0852135h 0.442913v -0.0426068h 0.442913v -0.0639101h 0.885827v 0.0639101h 0.442913v 0.0213034h 0.885827v -0.0426068h 0.442913v 0.0213034h 0.442913v -0.0426068h 0.442913v 0.0852135h 0.442913v -0.0639101h
 0.885827v 0.0213034h 0.442913v -0.0213034h 0.442913v -0.0213034h 0.442913v 0.0213034h 1.32874v 0.0426068h 0.885827v -0.106517h 0.442913v 0.0639101h 0.442913v 0.0213034h 0.442913v -0.0426068h 0.442913v 0.0213034h 0.442913v 0.0639101h 0.442913v
 -0.0213034h 0.442913v -0.0426068h 0.885827v 0.0213034h 0.442913v 0.0213034h 0.442913v -0.0426068h 0.442913v 0.0426068h 0.885827v -0.0213034h 0.442913v -0.0426068h 0.442913v 0.0852135h 0.442913v -0.0639101h 0.442913v -0.0639101h 0.442913v 0.0213034h
 0.442913v 0.0213034h 0.442913v 0.0639101h 0.442913v -0.0213034h 0.885827v -0.0213034h 0.442913v 0.0213034h 0.442913v 0.0213034h 0.442913v -0.0213034h 0.885827v -0.0426068h 0.885827v 0.0426068h 0.442913v -0.0639101h 0.442913v -0.0213034h 0.442913v
 0.0852135h 0.442913v 0.0213034h 0.442913v -0.0213034h 0.442913v -0.106517h 0.442913v 0.149124h 0.442913v -0.0426068h 0.442913v 0.0213034h 0.442913v -0.0213034h 0.885827v 0.0213034h 0.885827v -0.0213034h 0.442913v -0.0852135h 0.442913v 0.0852135h
 0.442913v 0.0213034h 0.442913v 0.0213034h 0.442913v -0.0852135h 0.442913v 0.0426068h 0.442913v 0.0213034h 0.885827v -0.0639101h 0.442913v 0.0426068h 0.442913v -0.0213034h 0.442913v 0.0213034h 0.442913v -0.0639101h 0.442913v 0.0852135h 0.442913v
 -0.0852135h 0.442913v 0.0426068h 0.442913v 0.0426068h 0.442913v -0.0213034h 0.442913v -0.0213034h 0.885827v 0.0213034h 0.442913v -0.0639101h 0.442913v 0.0639101h 0.885827v -0.170427h 0.442913v 0.170427h 0.442913v 0.0426068h 0.442913v -0.0639101h
 0.442913v 0.0426068h 0.885827v -0.0213034h 0.442913v -0.0639101h 0.885827v 0.0639101h 0.442913v -0.0213034h 0.442913v -0.0213034h 0.442913v 0.0426068h 0.442913v -0.0426068h 0.442913v 0.0639101h 0.442913v -0.0213034h 0.442913v 0.0213034h 0.885827v
 -0.0213034h 0.442913v 0.0426068h 0.885827v -0.0213034h 0.442913v -0.0426068h 0.442913v -0.0213034h 0.442913v 0.0852135h 0.442913v -0.0639101h 0.442913v 0.0213034h 0.885827v -0.0213034h 0.885827v 0.0426068h 1.32874v 0.0213034h 0.442913v -0.0213034h
 0.442913v -0.0213034h 0.442913v 0.0426068h 0.885827v -0.0426068h 0.442913v 0.0213034h 0.442913v -0.0426068h 0.442913v 0.0213034h 0.442913v 0.0213034h 1.32874v -0.0213034h 0.442913v 0.0213034h 0.442913v -0.0213034h 1.32874v 0.0213034h 0.442913v
 -0.0213034h 0.442913v -0.0426068h 0.442913v -0.0213034h 0.442913v 0.0426068h 0.442913v 0.0426068h 0.442913v 0.0213034h 0.442913v -0.0213034h 0.442913v 0.0213034h 0.442913v -0.0213034h 0.442913v -0.0639101h 0.442913v 0.0639101h 0.442913v 0.0213034h
 0.442913v -0.0426068h 1.32874v -0.0852135h 0.442913v 0.0639101h 0.442913v 0.0426068h 0.442913v -0.0213034h 0.442913v 0.0213034h 0.442913v 0.0213034h 0.442913v -0.0213034h 0.442913v -0.0213034h 0.885827v -0.0426068h 0.442913v 0.0639101h 0.442913v
 0.0213034h 0.442913v -0.0639101h 0.442913v 0.0426068h 0.442913v -0.0213034h 1.32874v 0.0426068h 0.442913v -0.0426068h 0.442913v -0.0852135h 0.442913v 0.12782h 0.442913v -0.0639101h 1.32874v 0.0213034h 0.442913v -0.0213034h 0.442913v -0.0213034h
 0.442913v 0.0426068h 0.442913v 0.0426068h 0.442913v -0.0213034h 0.442913v 0.0213034h 0.442913v -0.0426068h 0.442913v 0.0213034h 0.885827v -0.0639101h 0.442913v 0.0426068h 0.442913v 0.0426068h 0.442913v -0.0426068h 0.442913v 0.0426068h 0.885827v
 -0.0213034h 0.442913v -0.0639101h 0.442913v 0.0639101h 0.885827v -0.0426068h 0.442913v 0.0426068h 0.442913v 0.0213034h 0.442913v -0.0213034h 0.885827v -0.0639101h 0.442913v 0.0852135h 0.885827v -0.0213034h 0.442913v -0.0213034h 1.77165v 0.0426068h
 0.442913v -0.12782h 0.442913v 0.0852135h 0.885827v -0.0213034h 0.442913v 0.0426068h 0.885827v -0.0213034h 0.442913v -0.0213034h 0.442913v 0.0213034h 0.442913v 0.0213034h 1.77165v -0.0213034h 0.442913v 0.0426068h 0.442913v -0.0639101h 0.442913v
 0.0639101h 0.442913v -0.0426068h 0.442913v 0.0213034h 0.442913v -0.0213034h 0.442913v -0.0426068h 0.442913v 0.0426068h 0.442913v 0.0213034h 0.442913v 0.0213034h 0.442913v -0.0426068h 0.442913v 0.0213034h 0.442913v 0.0213034h 0.442913v -0.12782h
 0.442913v 0.0639101h 1.32874v -0.0639101h 0.442913v -0.575191h 0.442913v -2.98247h 0.442913v -6.49753h 0.442913v -0.745618h 0.442913v 3.32333h 0.442913v 0.724315h 0.442913v -0.383461h 0.442913v -0.12782h 0.442913v 1.66166h 0.442913v 1.76818h
 0.442913v 1.02256h 0.442913v 0.0426068h 0.442913v 0.511281h 0.442913v 0.319551h 0.442913v 0.0852135h 0.442913v -0.12782h 0.442913v 0.489978h 0.442913v 0.170427h 0.442913v -0.19173h 0.442913v -0.298247h 0.885827v 0.0852135h 0.442913v 0.830832h
 0.442913v -0.12782h 0.442913v -0.170427h 0.442913v 0.213034h 0.442913v -0.340854h 0.442913v -0.362157h 0.442913v 0.298247h 0.442913v 0.12782h 0.442913v -0.0213034h 0.442913v 0.298247h 0.442913v -0.489978h 0.442913v 0.340854h 0.442913v -0.106517h
 0.442913v 0.213034h 0.442913v -0.170427h 0.442913v 0.106517h 0.885827v -0.0426068h 0.442913v -0.0213034h 0.442913v 0.0426068h 0.442913v 0.553888h 0.442913v -0.447371h 0.442913v -0.106517h 0.442913v 0.12782h 0.885827v 0.276944h 0.442913v -0.0213034h
 0.442913v 0.340854h 0.442913v -0.319551h 0.442913v 0.149124h 0.442913v -0.255641h 0.442913v 0.213034h 0.442913v -0.0426068h 0.442913v 0.255641h 0.442913v 0.0213034h 0.442913v -0.0426068h 0.442913v -0.0213034h 0.442913v -0.0852135h 0.442913v
 0.298247h 0.442913v 0.0213034h 0.442913v 0.0852135h 0.442913v 0.149124h 0.885827v 0.0426068h 0.442913v 0.0426068h 0.885827" fill="none" stroke="#000099"/>
<path d="M57.1929,345.762h 453.543" fill="none" stroke="black"/>
<path d="M57.1929,336.541v 9.22031" fill="none" stroke="black"/>
<path d="M68.5315,341.152v 4.61016" fill="none" stroke="black"/>
<path d="M79.8701,341.152v 4.61016" fill="none" stroke="black"/>
<path d="M91.2087,341.152v 4.61016" fill="none" stroke="black"/>
<path d="M102.547,341.152v 4.61016" fill="none" stroke="black"/>
<path d="M113.886,336.541v 9.22031" fill="none" stroke="black"/>
<path d="M125.224,341.152v 4.61016" fill="none" stroke="black"/>
<path d="M136.563,341.152v 4.61016" fill="none" stroke="black"/>
<path d="M147.902,341.152v 4.61016" fill="none" stroke="black"/>
<path d="M159.24,341.152v 4.61016" fill="none" stroke="black"/>
<path d="M170.579,336.541v 9.22031" fill="none" stroke="black"/>
<path d="M181.917,341.152v 4.61016" fill="none" stroke="black"/>
<path d="M193.256,341.152v 4.61016" fill="none" stroke="black"/>
<path d="M204.594,341.152v 4.61016" fill="none" stroke="black"/>
<path d="M215.933,341.152v 4.61016" fill="none" stroke="black"/>
<path d="M227.272,336.541v 9.22031" fill="none" stroke="black"/>
<path d="M238.61,341.152v 4.61016" fill="none" stroke="black"/>
<path d="M249.949,341.152v 4.61016" fill="none" stroke="black"/>
<path d="M261.287,341.152v 4.61016" fill="none" stroke="black"/>
<path d="M272.626,341.152v 4.61016" fill="none" stroke="black"/>
<path d="M283.965,336.541v 9.22031" fill="none" stroke="black"/>
<path d="M295.303,341.152v 4.61016" fill="none" stroke="black"/>
<path d="M306.642,341.152v 4.61016" fill="none" stroke="black"/>
<path d="M317.98,341.152v 4.61016" fill="none" stroke="black"/>
<path d="M329.319,341.152v 4.61016" fill="none" stroke="black"/>
<path d="M340.657,336.541v 9.22031" fill="none" stroke="black"/>
<path d="M351.996,341.152v 4.61016" fill="none" stroke="black"/>
<path d="M363.335,341.152v 4.61016" fill="none" stroke="black"/>
<path d="M374.673,341.152v 4.61016" fill="none" stroke="black"/>
<path d="M386.012,341.152v 4.61016" fill="none" stroke="black"/>
<path d="M397.35,336.541v 9.22031" fill="none" stroke="black"/>
<path d="M408.689,341.152v 4.61016" fill="none" stroke="black"/>
<path d="M420.028,341.152v 4.61016" fill="none" stroke="black"/>
<path d="M431.366,341.152v 4.61016" fill="none" stroke="black"/>
<path d="M442.705,341.152v 4.61016" fill="none" stroke="black"/>
<path d="M454.043,336.541v 9.22031" fill="none" stroke="black"/>
<path d="M465.382,341.152v 4.61016" fill="none" stroke="black"/>
<path d="M476.72,341.152v 4.61016" fill="none" stroke="black"/>
<path d="M488.059,341.152v 4.61016" fill="none" stroke="black"/>
<path d="M499.398,341.152v 4.61016" fill="none" stroke="black"/>
<path d="M510.736,336.541v 9.22031" fill="none" stroke="black"/>
<text xml:space="preserve" x="53.2943" y="358.189" fill="black" font-size="12.836" font-family="Helvetica">0</text>
<text xml:space="preserve" x="110.15" y="358.189" fill="black" font-size="12.836" font-family="Helvetica">5</text>
<text xml:space="preserve" x="163.756" y="358.189" fill="black" font-size="12.836" font-family="Helvetica">10</text>
<text xml:space="preserve" x="219.799" y="358.189" fill="black" font-size="12.836" font-family="Helvetica">15</text>
<text xml:space="preserve" x="277.467" y="358.189" fill="black" font-size="12.836" font-family="Helvetica">20</text>
<text xml:space="preserve" x="332.698" y="358.189" fill="black" font-size="12.836" font-family="Helvetica">25</text>
<text xml:space="preserve" x="390.365" y="358.189" fill="black" font-size="12.836" font-family="Helvetica">30</text>
<text xml:space="preserve" x="446.408" y="358.189" fill="black" font-size="12.836" font-family="Helvetica">35</text>
<text xml:space="preserve" x="504.076" y="358.189" fill="black" font-size="12.836" font-family="Helvetica">40</text>
<text xml:space="preserve" x="441.535" y="370.372" fill="black" font-size="12.836" font-family="Helvetica">Energy [keV]</text>
<path d="M57.1929,345.762v -307.344" fill="none" stroke="black"/>
<path d="M70.7992,345.762h -13.6063" fill="none" stroke="black"/>
<path d="M63.9961,335.11h -6.80315" fill="none" stroke="black"/>
<path d="M63.9961,324.458h -6.80315" fill="none" stroke="black"/>
<path d="M63.9961,313.807h -6.80315" fill="none" stroke="black"/>
<path d="M70.7992,303.155h -13.6063" fill="none" stroke="black"/>
<path d="M63.9961,292.503h -6.80315" fill="none" stroke="black"/>
<path d="M63.9961,281.852h -6.80315" fill="none" stroke="black"/>
<path d="M63.9961,271.2h -6.80315" fill="none" stroke="black"/>
<path d="M70.7992,260.548h -13.6063" fill="none" stroke="black"/>
<path d="M63.9961,249.897h -6.80315" fill="none" stroke="black"/>
<path d="M63.9961,239.245h -6.80315" fill="none" stroke="black"/>
<path d="M63.9961,228.593h -6.80315" fill="none" stroke="black"/>
<path d="M70.7992,217.942h -13.6063" fill="none" stroke="black"/>
<path d="M63.9961,207.29h -6.80315" fill="none" stroke="black"/>
<path d="M63.9961,196.638h -6.80315" fill="none" stroke="black"/>
<path d="M63.9961,185.986h -6.80315" fill="none" stroke="black"/>
<path d="M70.7992,175.335h -13.6063" fill="none" stroke="black"/>
<path d="M63.9961,164.683h -6.80315" fill="none" stroke="black"/>
<path d="M63.9961,154.031h -6.80315" fill="none" stroke="black"/>
<path d="M63.9961,143.38h -6.80315" fill="none" stroke="black"/>
<path d="M70.7992,132.728h -13.6063" fill="none" stroke="black"/>
<path d="M63.9961,122.076h -6.80315" fill="none" stroke="black"/>
<path d="M63.9961,111.425h -6.80315" fill="none" stroke="black"/>
<path d="M63.9961,100.773h -6.80315" fill="none" stroke="black"/>
<path d="M70.7992,90.1213h -13.6063" fill="none" stroke="black"/>
<path d="M63.9961,79.4696h -6.80315" fill="none" stroke="black"/>
<path d="M63.9961,68.8179h -6.80315" fill="none" stroke="black"/>
<path d="M63.9961,58.1662h -6.80315" fill="none" stroke="black"/>
<path d="M70.7992,47.5145h -13.6063" fill="none" stroke="black"/>
<path d="M70.7992,47.5145h -13.6063" fill="none" stroke="black"/>
<text xml:space="preserve" x="47.6087" y="350.067" fill="black" font-size="12.836" font-family="Helvetica">0</text>
<text xml:space="preserve" x="27.3032" y="307.831" fill="black" font-size="12.836" font-family="Helvetica">2000</text>
<text xml:space="preserve" x="27.3032" y="264.784" fill="black" font-size="12.836" font-family="Helvetica">4000</text>
<text xml:space="preserve" x="27.3032" y="222.548" fill="black" font-size="12.836" font-family="Helvetica">6000</text>
<text xml:space="preserve" x="27.3032" y="179.5" fill="black" font-size="12.836" font-family="Helvetica">8000</text>
<text xml:space="preserve" x="20.8055" y="137.265" fill="black" font-size="12.836" font-family="Helvetica">10000</text>
<text xml:space="preserve" x="20.8055" y="94.2175" fill="black" font-size="12.836" font-family="Helvetica">12000</text>
<text xml:space="preserve" x="20.8055" y="51.982" fill="black" font-size="12.836" font-family="Helvetica">14000</text>
<g transform="rotate(-90,7.80997,69.8509)">
<text xml:space="preserve" x="7.80997" y="69.8509" fill="black" font-size="12.836" font-family="Helvetica">Event</text>
</g>
<text xml:space="preserve" x="205.992" y="17.8688" fill="black" font-size="18.7414" font-family="Helvetica">Bg_015_calibrated</text>
<rect x="442.705" y="24.9717" width="113.386" height="61.4688" fill="white"/>
<path d="M442.705,86.4405h 113.386" fill="none" stroke="black"/>
<path d="M556.091,86.4405v -61.4688" fill="none" stroke="black"/>
<path d="M556.091,24.9717h -113.386" fill="none" stroke="black"/>
<path d="M442.705,24.9717v 61.4688" fill="none" stroke="black"/>
<text xml:space="preserve" x="448.033" y="35.7377" fill="black" font-size="12.5745" font-family="Helvetica">Bg_015_calibrated</text>
<path d="M442.705,40.3389h 113.386" fill="none" stroke="black"/>
<text xml:space="preserve" x="448.033" y="52.7943" fill="black" font-size="12.4124" font-family="Helvetica">Entries </text>
<text xml:space="preserve" x="506.513" y="52.7943" fill="black" font-size="12.4124" font-family="Helvetica"> 143352</text>
<text xml:space="preserve" x="448.033" y="68.2264" fill="black" font-size="12.4124" font-family="Helvetica">Mean  </text>
<text xml:space="preserve" x="513.01" y="68.2264" fill="black" font-size="12.4124" font-family="Helvetica">  7.792</text>
<text xml:space="preserve" x="448.033" y="82.8464" fill="black" font-size="12.4124" font-family="Helvetica">Std Dev   </text>
<text xml:space="preserve" x="513.01" y="82.8464" fill="black" font-size="12.4124" font-family="Helvetica">  6.743</text>
<text xml:space="preserve" x="205.992" y="17.8688" fill="black" font-size="18.7414" font-family="Helvetica">Bg_015_calibrated</text></svg>
