<?xml version="1.0" standalone="no"?>
<svg width="567.429" height="384.969" viewBox="0 0 567.429 384.969" xmlns="http://www.w3.org/2000/svg" shape-rendering="crispEdges">
<title>
img/week1/calibrated_hist_high_gain/Bg.svg
</title>
<desc>
Creator: ROOT Version 6.22/09
CreationDate: Tue Jul 13 19:34:21 2021</desc>
<defs>
</defs>
<rect x="0.5" y="0" width="566.929" height="384.469" fill="white"/>
<rect x="57.1929" y="38.4469" width="453.543" height="307.575" fill="white"/>
<rect x="57.1929" y="38.4469" width="453.543" height="307.575" fill="none" stroke="black"/>
<path d="M57.1929,346.022h 64.2224v -0.0213194h 0.885827v -0.0852777h 0.442913v -3.09132h 0.442913v -39.2704h 0.442913v -125.422h 0.442913v -116.575h 0.442913v -8.46381h 0.442913v 50.1646h 0.442913v 56.1554h 0.442913v 0.618263h 0.442913v 2.70757h
 0.442913v 16.6931h 0.442913v 24.56h 0.442913v 27.1396h 0.442913v 24.4321h 0.442913v 4.54104h 0.442913v 0.959374h 0.442913v 5.41513h 0.442913v 10.1694h 0.442913v 11.7044h 0.442913v 12.5998h 0.442913v 6.0334h 0.442913v 1.21521h 0.442913v 2.55833h
 0.442913v 4.17861h 0.442913v 5.54305h 0.442913v 3.32583h 0.442913v 4.605h 0.442913v 1.62028h 0.442913v 0.639583h 0.442913v 0.938055h 0.442913v 1.96139h 0.442913v 2.43041h 0.442913v 1.27917h 0.442913v 2.68625h 0.442913v -0.469027h 0.442913v
 0.0852777h 0.442913v 1.17257h 0.442913v 0.660902h 0.442913v 0.831458h 0.442913v 0.703541h 0.442913v 0.277153h 0.442913v 0.170555h 0.442913v -0.106597h 0.442913v 0.72486h 0.442913v -0.0852777h 0.442913v 0.938055h 0.442913v -0.0426388h 0.885827v
 0.127917h 0.442913v 0.213194h 0.442913v 0.0639583h 0.442913v -0.0852777h 0.442913v 0.405069h 0.442913v -0.127917h 0.442913v 0.277153h 0.442913v -0.319791h 0.442913v 0.341111h 0.885827v -0.127917h 0.442913v 0.106597h 0.442913v 0.0852777h 0.442913v
 0.0426388h 0.442913v -0.149236h 0.442913v 0.0852777h 0.442913v 0.0426388h 0.442913v 0.0213194h 0.442913v -0.0852777h 0.442913v 0.170555h 0.442913v -0.0426388h 0.885827v -0.0213194h 0.442913v 0.0426388h 0.442913v 0.0426388h 0.442913v -0.0852777h
 0.442913v -0.0213194h 0.442913v 0.149236h 0.442913v -0.0852777h 0.885827v 0.0852777h 0.442913v -0.0426388h 0.442913v 0.0213194h 0.442913v -0.0639583h 0.442913v -0.0213194h 0.442913v -0.0852777h 0.442913v 0.149236h 0.442913v -0.0213194h 0.442913v
 0.0426388h 0.442913v -0.0213194h 0.442913v -0.0213194h 0.442913v -0.0213194h 0.442913v 0.0213194h 0.442913v 0.0852777h 0.442913v -0.0426388h 0.442913v 0.0213194h 0.442913v -0.0852777h 0.885827v -0.0213194h 0.442913v 0.0426388h 0.442913v 0.0426388h
 0.442913v -0.0213194h 0.442913v -0.170555h 0.442913v 0.0639583h 0.442913v 0.127917h 0.442913v 0.0213194h 0.442913v -0.0639583h 0.442913v -0.0213194h 0.885827v -0.0426388h 0.442913v 0.149236h 0.442913v -0.106597h 0.442913v 0.0852777h 0.442913v
 -0.0426388h 0.442913v -0.0213194h 0.442913v -0.0213194h 0.442913v 0.0213194h 0.442913v -0.0213194h 0.442913v 0.0213194h 0.442913v 0.0213194h 0.885827v -0.0639583h 0.442913v 0.0852777h 0.885827v -0.0213194h 0.442913v 0.0426388h 0.442913v -0.170555h
 0.442913v 0.0852777h 0.442913v 0.0213194h 0.442913v -0.0213194h 0.442913v 0.0852777h 0.442913v -0.0852777h 0.442913v 0.0639583h 0.442913v -0.0213194h 0.442913v -0.0639583h 0.442913v 0.0639583h 0.442913v -0.0213194h 0.442913v 0.0213194h 0.442913v
 -0.0639583h 0.442913v 0.0852777h 0.442913v -0.0426388h 0.442913v 0.0426388h 0.442913v -0.0213194h 0.442913v -0.0213194h 0.442913v -0.0639583h 0.442913v 0.106597h 0.442913v -0.191875h 0.442913v 0.170555h 0.442913v -0.0426388h 0.442913v -0.0426388h
 0.442913v 0.0852777h 0.442913v 0.0213194h 0.442913v 0.0213194h 0.442913v -0.0639583h 0.442913v -0.0426388h 0.442913v 0.0426388h 0.442913v 0.0639583h 0.442913v -0.0426388h 0.442913v -0.0426388h 0.442913v 0.0852777h 0.442913v -0.170555h 0.442913v
 0.191875h 0.442913v -0.170555h 0.442913v 0.0639583h 0.442913v 0.0639583h 0.442913v -0.127917h 0.442913v 0.106597h 0.442913v 0.0213194h 0.442913v 0.0213194h 0.442913v -0.170555h 0.442913v 0.0852777h 0.442913v 0.106597h 0.442913v -0.0426388h 0.885827v
 0.0213194h 0.442913v -0.127917h 0.442913v 0.0639583h 0.442913v 0.0852777h 0.442913v -0.0213194h 0.442913v -0.0213194h 0.442913v -0.0639583h 0.885827v -0.0852777h 0.442913v 0.0213194h 0.442913v 0.106597h 0.885827v -0.0213194h 0.442913v -0.0213194h
 0.442913v 0.0639583h 0.442913v -0.0639583h 0.442913v -0.0852777h 0.442913v 0.127917h 0.442913v -0.0639583h 0.442913v 0.0426388h 0.442913v 0.0639583h 0.442913v -0.0213194h 0.442913v 0.0213194h 0.442913v -0.170555h 0.442913v 0.106597h 0.885827v
 -0.0426388h 0.442913v 0.0213194h 0.442913v -0.0426388h 0.442913v 0.127917h 0.885827v -0.0426388h 0.442913v 0.0213194h 0.442913v -0.0639583h 0.885827v 0.0213194h 0.442913v 0.0213194h 0.442913v -0.0426388h 0.442913v 0.0426388h 0.442913v 0.0426388h
 0.442913v -0.0639583h 0.442913v -0.0639583h 0.442913v 0.127917h 0.442913v -0.0852777h 0.442913v 0.0426388h 0.442913v 0.0213194h 0.442913v -0.0213194h 0.442913v -0.0639583h 0.442913v 0.0426388h 0.442913v 0.0213194h 0.885827v -0.0426388h 0.442913v
 0.0426388h 0.442913v -0.0213194h 0.442913v 0.0213194h 0.442913v 0.0426388h 0.885827v -0.0852777h 0.442913v -0.0213194h 0.442913v 0.127917h 0.442913v -0.0852777h 0.442913v 0.0852777h 0.442913v -0.106597h 0.442913v 0.0639583h 0.885827v -0.0213194h
 0.442913v 0.0213194h 0.442913v -0.0639583h 0.442913v -0.0639583h 0.442913v 0.0426388h 0.442913v 0.127917h 0.442913v -0.0852777h 0.442913v 0.0426388h 0.442913v -0.0426388h 0.442913v 0.0639583h 0.442913v -0.0639583h 0.442913v 0.0852777h 0.885827v
 -0.0639583h 0.885827v -0.0426388h 0.442913v 0.0639583h 0.442913v -0.0639583h 0.442913v 0.0426388h 0.442913v 0.0426388h 0.885827v 0.0213194h 0.442913v -0.0213194h 0.442913v -0.0426388h 0.442913v -0.0213194h 0.885827v 0.0426388h 0.442913v 0.0213194h
 0.885827v 0.0426388h 0.442913v -0.0426388h 0.442913v -0.0852777h 0.442913v 0.0426388h 0.442913v 0.0213194h 0.442913v 0.0213194h 0.442913v -0.0639583h 0.442913v 0.0426388h 0.442913v -0.0213194h 0.442913v -0.0852777h 0.442913v 0.0213194h 0.442913v
 0.127917h 0.442913v 0.0213194h 0.442913v -0.106597h 0.442913v 0.0639583h 0.442913v -0.0639583h 0.442913v 0.0639583h 0.442913v -0.106597h 0.442913v 0.0852777h 0.442913v -0.0213194h 0.885827v -0.0213194h 0.442913v 0.0213194h 0.442913v 0.0426388h
 0.442913v -0.0639583h 0.442913v 0.106597h 0.442913v -0.0213194h 0.442913v -0.0639583h 0.442913v 0.0426388h 0.442913v -0.0213194h 0.442913v -0.0639583h 0.442913v 0.0639583h 0.442913v -0.0639583h 0.442913v 0.0639583h 0.442913v -0.0213194h 0.442913v
 0.0426388h 0.442913v -0.0639583h 0.442913v 0.0213194h 0.442913v -0.0426388h 0.442913v 0.0639583h 0.442913v -0.0852777h 0.442913v 0.0426388h 0.442913v -0.0639583h 0.442913v 0.127917h 0.442913v -0.0852777h 0.442913v 0.0639583h 0.442913v 0.0213194h
 0.442913v -0.0213194h 0.442913v 0.0213194h 0.885827v -0.0426388h 0.442913v -0.0213194h 0.442913v 0.0426388h 0.442913v 0.0639583h 0.442913v -0.0426388h 0.442913v 0.0213194h 0.442913v -0.149236h 0.442913v 0.0852777h 0.442913v 0.0213194h 0.442913v
 -0.0639583h 0.442913v 0.0426388h 0.442913v 0.0639583h 0.442913v -0.0426388h 0.885827v -0.0213194h 0.442913v 0.0639583h 0.885827v -0.0213194h 0.885827v -0.0852777h 0.442913v 0.0426388h 0.442913v -0.0426388h 0.442913v 0.0852777h 0.442913v -0.0426388h
 0.442913v -0.106597h 0.442913v 0.0852777h 0.442913v 0.0639583h 0.885827v -0.0213194h 0.442913v -0.0213194h 0.442913v 0.0426388h 0.442913v -0.0852777h 0.442913v 0.0213194h 0.442913v 0.0213194h 0.442913v 0.0213194h 0.442913v -0.0426388h 0.442913v
 0.0639583h 0.442913v -0.0426388h 0.442913v 0.0213194h 0.442913v -0.0639583h 0.442913v 0.0426388h 0.442913v 0.0426388h 0.442913v -0.0426388h 0.442913v -0.0426388h 0.442913v 0.0639583h 0.442913v -0.0426388h 0.442913v 0.0213194h 0.442913v 0.0639583h
 0.885827v -0.106597h 0.442913v -0.0213194h 0.442913v 0.0213194h 0.885827v 0.0426388h 0.442913v 0.0426388h 0.442913v -0.0426388h 0.442913v -0.0213194h 0.442913v 0.0426388h 0.442913v 0.0426388h 0.442913v -0.0213194h 0.442913v -0.0639583h 0.442913v
 0.0852777h 0.442913v -0.0426388h 0.442913v -0.0639583h 0.885827v 0.0639583h 0.442913v 0.0213194h 0.442913v -0.0639583h 0.442913v 0.0639583h 0.442913v 0.0213194h 0.885827v -0.0426388h 0.442913v -0.0426388h 0.442913v 0.0852777h 0.442913v -0.127917h
 0.442913v 0.0213194h 0.442913v 0.0426388h 0.442913v 0.0213194h 0.442913v -0.0852777h 0.442913v 0.106597h 0.442913v -0.0639583h 0.442913v 0.0639583h 0.442913v -0.0852777h 0.442913v 0.0639583h 0.442913v 0.0426388h 0.442913v -0.0426388h 0.442913v
 -0.0213194h 0.442913v -0.0426388h 0.442913v 0.106597h 0.442913v -0.0639583h 0.442913v -0.106597h 0.442913v 0.0639583h 0.442913v 0.0426388h 0.442913v -0.0213194h 0.442913v 0.0426388h 0.885827v -0.0852777h 0.442913v 0.106597h 0.442913v -0.0639583h
 0.442913v 0.0852777h 0.442913v -0.0852777h 0.442913v 0.0426388h 0.442913v 0.0213194h 0.885827v -0.106597h 0.442913v 0.0426388h 0.885827v 0.0639583h 0.885827v -0.0639583h 0.885827v 0.0426388h 0.442913v -0.0639583h 0.442913v 0.0639583h 0.442913v
 0.0213194h 0.442913v 0.0213194h 0.442913v -0.0213194h 0.442913v -0.0426388h 0.442913v 0.0213194h 0.442913v -0.0426388h 0.442913v 0.0426388h 0.442913v -0.0639583h 0.442913v 0.0213194h 0.442913v 0.0639583h 0.442913v -0.0639583h 0.442913v 0.0213194h
 0.442913v 0.0426388h 0.442913v -0.106597h 0.442913v 0.0213194h 0.442913v 0.106597h 0.442913v -0.0852777h 0.442913v 0.0213194h 0.442913v -0.0426388h 0.442913v 0.0426388h 0.442913v -0.0213194h 0.885827v 0.0213194h 0.442913v -0.0639583h 0.442913v
 0.0852777h 0.442913v -0.0213194h 0.442913v 0.0213194h 0.442913v -0.0639583h 0.885827v -0.0213194h 0.442913v 0.127917h 0.442913v -0.0426388h 0.442913v -0.0852777h 0.442913v 0.0639583h 0.442913v -0.0213194h 0.442913v 0.0213194h 0.442913v -0.0213194h
 0.442913v 0.0213194h 0.442913v 0.0639583h 0.442913v -0.0852777h 0.442913v -0.0426388h 0.442913v 0.127917h 0.442913v -0.0426388h 0.442913v -0.0213194h 0.442913v 0.0426388h 0.442913v -0.0639583h 0.442913v 0.0213194h 0.442913v -0.0213194h 0.442913v
 0.0426388h 0.442913v -0.0213194h 0.442913v -0.0639583h 0.442913v 0.127917h 0.442913v 0.0213194h 0.442913v -0.0213194h 0.885827v -0.0852777h 0.442913v 0.0426388h 0.885827v 0.0426388h 0.442913v -0.0213194h 0.885827v -0.0213194h 0.442913v 0.0426388h
 0.442913v -0.0213194h 0.442913v -0.0426388h 0.442913v -0.0426388h 0.442913v 0.0852777h 0.885827v -0.0213194h 0.442913v 0.0213194h 0.442913v -0.0213194h 0.442913v 0.0426388h 0.442913v -0.0852777h 0.442913v 0.0852777h 0.442913v -0.0852777h 0.442913v
 0.0852777h 0.442913v -0.106597h 0.442913v 0.0639583h 0.442913v 0.0426388h 0.442913v -0.0213194h 0.442913v -0.0426388h 0.885827v -0.0213194h 0.442913v 0.0213194h 0.442913v 0.0639583h 0.442913v -0.0639583h 0.885827v 0.0426388h 0.442913v -0.0213194h
 0.442913v -0.0213194h 0.442913v 0.0426388h 0.442913v -0.0426388h 0.885827v -0.0213194h 0.885827v 0.0639583h 0.442913v -0.0426388h 0.442913v 0.0639583h 0.442913v -0.0426388h 0.885827v -0.0426388h 0.442913v 0.0426388h 0.442913v -0.0213194h 0.442913v
 0.0426388h 0.442913v -0.0213194h 0.442913v -0.0639583h 0.442913v 0.0852777h 0.442913v -0.0213194h 0.442913v 0.0213194h 0.442913v -0.0213194h 0.442913v 0.0426388h 0.885827v 0.0213194h 0.442913v -0.0639583h 0.442913v 0.0213194h 0.442913v -0.0426388h
 0.442913v 0.0426388h 0.442913v -0.0426388h 0.442913v 0.0639583h 1.32874v -0.0639583h 0.885827v 0.0639583h 0.442913v -0.0213194h 0.442913v 0.0213194h 0.442913v -0.106597h 0.442913v 0.0639583h 0.442913v -0.0426388h 0.442913v 0.0213194h 0.442913v
 0.0852777h 0.442913v -0.0852777h 0.442913v 0.0852777h 0.442913v -0.0426388h 0.442913v -0.0639583h 0.885827v 0.0639583h 0.442913v 0.0213194h 0.885827v -0.0426388h 0.442913v 0.0213194h 0.442913v -0.0426388h 0.442913v 0.0852777h 0.442913v -0.0639583h
 0.885827v 0.0213194h 0.442913v -0.0213194h 0.442913v -0.0213194h 0.442913v 0.0213194h 1.32874v 0.0426388h 0.885827v -0.106597h 0.442913v 0.0639583h 0.442913v 0.0213194h 0.442913v -0.0426388h 0.442913v 0.0213194h 0.442913v 0.0639583h 0.442913v
 -0.0213194h 0.442913v -0.0426388h 0.885827v 0.0213194h 0.442913v 0.0213194h 0.442913v -0.0426388h 0.442913v 0.0426388h 0.885827v -0.0213194h 0.442913v -0.0426388h 0.442913v 0.0852777h 0.442913v -0.0639583h 0.442913v -0.0639583h 0.442913v 0.0213194h
 0.442913v 0.0213194h 0.442913v 0.0639583h 0.442913v -0.0213194h 0.885827v -0.0213194h 0.442913v 0.0213194h 0.442913v 0.0213194h 0.442913v -0.0213194h 0.885827v -0.0426388h 0.885827v 0.0426388h 0.442913v -0.0639583h 0.442913v -0.0213194h 0.442913v
 0.0852777h 0.442913v 0.0213194h 0.442913v -0.0213194h 0.442913v -0.106597h 0.442913v 0.149236h 0.442913v -0.0426388h 0.442913v 0.0213194h 0.442913v -0.0213194h 0.885827v 0.0213194h 0.885827v -0.0213194h 0.442913v -0.0852777h 0.442913v 0.0852777h
 0.442913v 0.0213194h 0.442913v 0.0213194h 0.442913v -0.0852777h 0.442913v 0.0426388h 0.442913v 0.0213194h 0.885827v -0.0639583h 0.442913v 0.0426388h 0.442913v -0.0213194h 0.442913v 0.0213194h 0.442913v -0.0639583h 0.442913v 0.0852777h 0.442913v
 -0.0852777h 0.442913v 0.0426388h 0.442913v 0.0426388h 0.442913v -0.0213194h 0.442913v -0.0213194h 0.885827v 0.0213194h 0.442913v -0.0639583h 0.442913v 0.0639583h 0.885827v -0.170555h 0.442913v 0.170555h 0.442913v 0.0426388h 0.442913v -0.0639583h
 0.442913v 0.0426388h 0.885827v -0.0213194h 0.442913v -0.0639583h 0.885827v 0.0639583h 0.442913v -0.0213194h 0.442913v -0.0213194h 0.442913v 0.0426388h 0.442913v -0.0426388h 0.442913v 0.0639583h 0.442913v -0.0213194h 0.442913v 0.0213194h 0.885827v
 -0.0213194h 0.442913v 0.0426388h 0.885827v -0.0213194h 0.442913v -0.0426388h 0.442913v -0.0213194h 0.442913v 0.0852777h 0.442913v -0.0639583h 0.442913v 0.0213194h 0.885827v -0.0213194h 0.885827v 0.0426388h 1.32874v 0.0213194h 0.442913v -0.0213194h
 0.442913v -0.0213194h 0.442913v 0.0426388h 0.885827v -0.0426388h 0.442913v 0.0213194h 0.442913v -0.0426388h 0.442913v 0.0213194h 0.442913v 0.0213194h 1.32874v -0.0213194h 0.442913v 0.0213194h 0.442913v -0.0213194h 1.32874v 0.0213194h 0.442913v
 -0.0213194h 0.442913v -0.0426388h 0.442913v -0.0213194h 0.442913v 0.0426388h 0.442913v 0.0426388h 0.442913v 0.0213194h 0.442913v -0.0213194h 0.442913v 0.0213194h 0.442913v -0.0213194h 0.442913v -0.0639583h 0.442913v 0.0639583h 0.442913v 0.0213194h
 0.442913v -0.0426388h 1.32874v -0.0852777h 0.442913v 0.0639583h 0.442913v 0.0426388h 0.442913v -0.0213194h 0.442913v 0.0213194h 0.442913v 0.0213194h 0.442913v -0.0213194h 0.442913v -0.0213194h 0.885827v -0.0426388h 0.442913v 0.0639583h 0.442913v
 0.0213194h 0.442913v -0.0639583h 0.442913v 0.0426388h 0.442913v -0.0213194h 1.32874v 0.0426388h 0.442913v -0.0426388h 0.442913v -0.0852777h 0.442913v 0.127917h 0.442913v -0.0639583h 1.32874v 0.0213194h 0.442913v -0.0213194h 0.442913v -0.0213194h
 0.442913v 0.0426388h 0.442913v 0.0426388h 0.442913v -0.0213194h 0.442913v 0.0213194h 0.442913v -0.0426388h 0.442913v 0.0213194h 0.885827v -0.0639583h 0.442913v 0.0426388h 0.442913v 0.0426388h 0.442913v -0.0426388h 0.442913v 0.0426388h 0.885827v
 -0.0213194h 0.442913v -0.0639583h 0.442913v 0.0639583h 0.885827v -0.0426388h 0.442913v 0.0426388h 0.442913v 0.0213194h 0.442913v -0.0213194h 0.885827v -0.0639583h 0.442913v 0.0852777h 0.885827v -0.0213194h 0.442913v -0.0213194h 1.77165v 0.0426388h
 0.442913v -0.127917h 0.442913v 0.0852777h 0.885827v -0.0213194h 0.442913v 0.0426388h 0.885827v -0.0213194h 0.442913v -0.0213194h 0.442913v 0.0213194h 0.442913v 0.0213194h 1.77165v -0.0213194h 0.442913v 0.0426388h 0.442913v -0.0639583h 0.442913v
 0.0639583h 0.442913v -0.0426388h 0.442913v 0.0213194h 0.442913v -0.0213194h 0.442913v -0.0426388h 0.442913v 0.0426388h 0.442913v 0.0213194h 0.442913v 0.0213194h 0.442913v -0.0426388h 0.442913v 0.0213194h 0.442913v 0.0213194h 0.442913v -0.127917h
 0.442913v 0.0639583h 1.32874v -0.0639583h 0.442913v -0.575624h 0.442913v -2.98472h 0.442913v -6.50242h 0.442913v -0.74618h 0.442913v 3.32583h 0.442913v 0.72486h 0.442913v -0.38375h 0.442913v -0.127917h 0.442913v 1.66292h 0.442913v 1.76951h 0.442913v
 1.02333h 0.442913v 0.0426388h 0.442913v 0.511666h 0.442913v 0.319791h 0.442913v 0.0852777h 0.442913v -0.127917h 0.442913v 0.490347h 0.442913v 0.170555h 0.442913v -0.191875h 0.442913v -0.298472h 0.885827v 0.0852777h 0.442913v 0.831458h 0.442913v
 -0.127917h 0.442913v -0.170555h 0.442913v 0.213194h 0.442913v -0.341111h 0.442913v -0.36243h 0.442913v 0.298472h 0.442913v 0.127917h 0.442913v -0.0213194h 0.442913v 0.298472h 0.442913v -0.490347h 0.442913v 0.341111h 0.442913v -0.106597h 0.442913v
 0.213194h 0.442913v -0.170555h 0.442913v 0.106597h 0.885827v -0.0426388h 0.442913v -0.0213194h 0.442913v 0.0426388h 0.442913v 0.554305h 0.442913v -0.447708h 0.442913v -0.106597h 0.442913v 0.127917h 0.885827v 0.277153h 0.442913v -0.0213194h 0.442913v
 0.341111h 0.442913v -0.319791h 0.442913v 0.149236h 0.442913v -0.255833h 0.442913v 0.213194h 0.442913v -0.0426388h 0.442913v 0.255833h 0.442913v 0.0213194h 0.442913v -0.0426388h 0.442913v -0.0213194h 0.442913v -0.0852777h 0.442913v 0.298472h
 0.442913v 0.0213194h 0.442913v 0.0852777h 0.442913v 0.149236h 0.885827v 0.0426388h 0.442913v 0.0426388h 0.885827" fill="none" stroke="#000099"/>
<path d="M57.1929,346.022h 453.543" fill="none" stroke="black"/>
<path d="M57.1929,336.795v 9.22726" fill="none" stroke="black"/>
<path d="M68.5315,341.409v 4.61363" fill="none" stroke="black"/>
<path d="M79.8701,341.409v 4.61363" fill="none" stroke="black"/>
<path d="M91.2087,341.409v 4.61363" fill="none" stroke="black"/>
<path d="M102.547,341.409v 4.61363" fill="none" stroke="black"/>
<path d="M113.886,336.795v 9.22726" fill="none" stroke="black"/>
<path d="M125.224,341.409v 4.61363" fill="none" stroke="black"/>
<path d="M136.563,341.409v 4.61363" fill="none" stroke="black"/>
<path d="M147.902,341.409v 4.61363" fill="none" stroke="black"/>
<path d="M159.24,341.409v 4.61363" fill="none" stroke="black"/>
<path d="M170.579,336.795v 9.22726" fill="none" stroke="black"/>
<path d="M181.917,341.409v 4.61363" fill="none" stroke="black"/>
<path d="M193.256,341.409v 4.61363" fill="none" stroke="black"/>
<path d="M204.594,341.409v 4.61363" fill="none" stroke="black"/>
<path d="M215.933,341.409v 4.61363" fill="none" stroke="black"/>
<path d="M227.272,336.795v 9.22726" fill="none" stroke="black"/>
<path d="M238.61,341.409v 4.61363" fill="none" stroke="black"/>
<path d="M249.949,341.409v 4.61363" fill="none" stroke="black"/>
<path d="M261.287,341.409v 4.61363" fill="none" stroke="black"/>
<path d="M272.626,341.409v 4.61363" fill="none" stroke="black"/>
<path d="M283.965,336.795v 9.22726" fill="none" stroke="black"/>
<path d="M295.303,341.409v 4.61363" fill="none" stroke="black"/>
<path d="M306.642,341.409v 4.61363" fill="none" stroke="black"/>
<path d="M317.98,341.409v 4.61363" fill="none" stroke="black"/>
<path d="M329.319,341.409v 4.61363" fill="none" stroke="black"/>
<path d="M340.657,336.795v 9.22726" fill="none" stroke="black"/>
<path d="M351.996,341.409v 4.61363" fill="none" stroke="black"/>
<path d="M363.335,341.409v 4.61363" fill="none" stroke="black"/>
<path d="M374.673,341.409v 4.61363" fill="none" stroke="black"/>
<path d="M386.012,341.409v 4.61363" fill="none" stroke="black"/>
<path d="M397.35,336.795v 9.22726" fill="none" stroke="black"/>
<path d="M408.689,341.409v 4.61363" fill="none" stroke="black"/>
<path d="M420.028,341.409v 4.61363" fill="none" stroke="black"/>
<path d="M431.366,341.409v 4.61363" fill="none" stroke="black"/>
<path d="M442.705,341.409v 4.61363" fill="none" stroke="black"/>
<path d="M454.043,336.795v 9.22726" fill="none" stroke="black"/>
<path d="M465.382,341.409v 4.61363" fill="none" stroke="black"/>
<path d="M476.72,341.409v 4.61363" fill="none" stroke="black"/>
<path d="M488.059,341.409v 4.61363" fill="none" stroke="black"/>
<path d="M499.398,341.409v 4.61363" fill="none" stroke="black"/>
<path d="M510.736,336.795v 9.22726" fill="none" stroke="black"/>
<text xml:space="preserve" x="53.446" y="358.403" fill="black" font-size="12.8453" font-family="Helvetica">0</text>
<text xml:space="preserve" x="110.465" y="358.403" fill="black" font-size="12.8453" font-family="Helvetica">5</text>
<text xml:space="preserve" x="163.411" y="358.403" fill="black" font-size="12.8453" font-family="Helvetica">10</text>
<text xml:space="preserve" x="219.615" y="358.403" fill="black" font-size="12.8453" font-family="Helvetica">15</text>
<text xml:space="preserve" x="277.448" y="358.403" fill="black" font-size="12.8453" font-family="Helvetica">20</text>
<text xml:space="preserve" x="332.838" y="358.403" fill="black" font-size="12.8453" font-family="Helvetica">25</text>
<text xml:space="preserve" x="390.671" y="358.403" fill="black" font-size="12.8453" font-family="Helvetica">30</text>
<text xml:space="preserve" x="446.061" y="358.403" fill="black" font-size="12.8453" font-family="Helvetica">35</text>
<text xml:space="preserve" x="503.894" y="358.403" fill="black" font-size="12.8453" font-family="Helvetica">40</text>
<text xml:space="preserve" x="441.173" y="370.622" fill="black" font-size="12.8453" font-family="Helvetica">Energy [keV]</text>
<path d="M57.1929,346.022v -307.575" fill="none" stroke="black"/>
<path d="M70.7992,346.022h -13.6063" fill="none" stroke="black"/>
<path d="M63.9961,335.363h -6.80315" fill="none" stroke="black"/>
<path d="M63.9961,324.703h -6.80315" fill="none" stroke="black"/>
<path d="M63.9961,314.043h -6.80315" fill="none" stroke="black"/>
<path d="M70.7992,303.383h -13.6063" fill="none" stroke="black"/>
<path d="M63.9961,292.724h -6.80315" fill="none" stroke="black"/>
<path d="M63.9961,282.064h -6.80315" fill="none" stroke="black"/>
<path d="M63.9961,271.404h -6.80315" fill="none" stroke="black"/>
<path d="M70.7992,260.745h -13.6063" fill="none" stroke="black"/>
<path d="M63.9961,250.085h -6.80315" fill="none" stroke="black"/>
<path d="M63.9961,239.425h -6.80315" fill="none" stroke="black"/>
<path d="M63.9961,228.765h -6.80315" fill="none" stroke="black"/>
<path d="M70.7992,218.106h -13.6063" fill="none" stroke="black"/>
<path d="M63.9961,207.446h -6.80315" fill="none" stroke="black"/>
<path d="M63.9961,196.786h -6.80315" fill="none" stroke="black"/>
<path d="M63.9961,186.127h -6.80315" fill="none" stroke="black"/>
<path d="M70.7992,175.467h -13.6063" fill="none" stroke="black"/>
<path d="M63.9961,164.807h -6.80315" fill="none" stroke="black"/>
<path d="M63.9961,154.147h -6.80315" fill="none" stroke="black"/>
<path d="M63.9961,143.488h -6.80315" fill="none" stroke="black"/>
<path d="M70.7992,132.828h -13.6063" fill="none" stroke="black"/>
<path d="M63.9961,122.168h -6.80315" fill="none" stroke="black"/>
<path d="M63.9961,111.509h -6.80315" fill="none" stroke="black"/>
<path d="M63.9961,100.849h -6.80315" fill="none" stroke="black"/>
<path d="M70.7992,90.1892h -13.6063" fill="none" stroke="black"/>
<path d="M63.9961,79.5294h -6.80315" fill="none" stroke="black"/>
<path d="M63.9961,68.8697h -6.80315" fill="none" stroke="black"/>
<path d="M63.9961,58.21h -6.80315" fill="none" stroke="black"/>
<path d="M70.7992,47.5503h -13.6063" fill="none" stroke="black"/>
<path d="M70.7992,47.5503h -13.6063" fill="none" stroke="black"/>
<text xml:space="preserve" x="47.7441" y="350.258" fill="black" font-size="12.8453" font-family="Helvetica">0</text>
<text xml:space="preserve" x="27.3803" y="307.901" fill="black" font-size="12.8453" font-family="Helvetica">2000</text>
<text xml:space="preserve" x="27.3803" y="265.544" fill="black" font-size="12.8453" font-family="Helvetica">4000</text>
<text xml:space="preserve" x="27.3803" y="222.373" fill="black" font-size="12.8453" font-family="Helvetica">6000</text>
<text xml:space="preserve" x="27.3803" y="180.016" fill="black" font-size="12.8453" font-family="Helvetica">8000</text>
<text xml:space="preserve" x="20.8638" y="137.66" fill="black" font-size="12.8453" font-family="Helvetica">10000</text>
<text xml:space="preserve" x="20.8638" y="94.4882" fill="black" font-size="12.8453" font-family="Helvetica">12000</text>
<text xml:space="preserve" x="20.8638" y="52.1314" fill="black" font-size="12.8453" font-family="Helvetica">14000</text>
<g transform="rotate(-90,7.83098,70.0516)">
<text xml:space="preserve" x="7.83098" y="70.0516" fill="black" font-size="12.8453" font-family="Helvetica">Event</text>
</g>
<text xml:space="preserve" x="205.767" y="17.9202" fill="black" font-size="18.7938" font-family="Helvetica">Bg_015_calibrated</text>
<rect x="442.705" y="24.9905" width="113.386" height="61.5151" fill="white"/>
<path d="M442.705,86.5056h 113.386" fill="none" stroke="black"/>
<path d="M556.091,86.5056v -61.5151" fill="none" stroke="black"/>
<path d="M556.091,24.9905h -113.386" fill="none" stroke="black"/>
<path d="M442.705,24.9905v 61.5151" fill="none" stroke="black"/>
<text xml:space="preserve" x="447.69" y="35.8403" fill="black" font-size="12.5522" font-family="Helvetica">Bg_015_calibrated</text>
<path d="M442.705,40.3693h 113.386" fill="none" stroke="black"/>
<text xml:space="preserve" x="447.69" y="52.946" fill="black" font-size="12.3904" font-family="Helvetica">Entries </text>
<text xml:space="preserve" x="506.338" y="52.946" fill="black" font-size="12.3904" font-family="Helvetica"> 143352</text>
<text xml:space="preserve" x="447.69" y="67.6079" fill="black" font-size="12.3904" font-family="Helvetica">Mean  </text>
<text xml:space="preserve" x="512.854" y="67.6079" fill="black" font-size="12.3904" font-family="Helvetica">  7.792</text>
<text xml:space="preserve" x="447.69" y="83.0844" fill="black" font-size="12.3904" font-family="Helvetica">Std Dev   </text>
<text xml:space="preserve" x="512.854" y="83.0844" fill="black" font-size="12.3904" font-family="Helvetica">  6.743</text>
<text xml:space="preserve" x="205.767" y="17.9202" fill="black" font-size="18.7938" font-family="Helvetica">Bg_015_calibrated</text></svg>
