<?xml version="1.0" standalone="no"?>
<svg width="567.429" height="384.969" viewBox="0 0 567.429 384.969" xmlns="http://www.w3.org/2000/svg" shape-rendering="crispEdges">
<title>
img/week1/calibrated_hist_high_gain/Cs_015.svg
</title>
<desc>
Creator: ROOT Version 6.22/09
CreationDate: Tue Jul 13 19:34:21 2021</desc>
<defs>
</defs>
<rect x="0.5" y="0" width="566.929" height="384.469" fill="white"/>
<rect x="57.1929" y="38.4469" width="453.543" height="307.575" fill="white"/>
<rect x="57.1929" y="38.4469" width="453.543" height="307.575" fill="none" stroke="black"/>
<path d="M57.1929,346.022h 64.6654v -0.0558918h 0.442913v -0.335351h 0.442913v -3.01816h 0.442913v -9.5575h 0.442913v -5.92453h 0.442913v 0.503026h 0.442913v 2.79459h 0.442913v 0.0558918h 0.442913v 2.12389h 0.442913v 2.12389h 0.442913v -0.726593h
 0.442913v 1.84443h 0.442913v 1.17373h 0.442913v 0.558918h 0.442913v 1.95621h 0.442913v 1.11784h 0.442913v -0.391243h 0.442913v -0.279459h 0.442913v 1.17373h 0.442913v 0.335351h 0.442913v 0.726593h 0.442913v 0.558918h 0.442913v -0.894269h 0.442913v
 0.61481h 0.442913v 0.167675h 0.442913v -0.167675h 0.442913v 0.503026h 0.442913v 1.00605h 0.442913v 0.223567h 0.442913v -0.782485h 0.442913v 0.223567h 0.442913v 0.335351h 0.442913v -0.61481h 0.442913v 0.223567h 0.442913v 0.726593h 0.442913v
 -0.670702h 0.442913v 0.167675h 0.442913v -0.335351h 0.442913v 0.558918h 0.442913v 0.391243h 0.442913v 0.279459h 0.442913v -0.61481h 0.442913v -0.670702h 0.442913v -0.111784h 0.442913v 0.558918h 0.442913v 0.167675h 0.442913v 0.0558918h 0.442913v
 0.726593h 0.442913v -0.838377h 0.442913v -0.335351h 0.885827v 0.391243h 0.442913v 0.279459h 0.442913v -0.0558918h 0.442913v 0.391243h 0.442913v -0.335351h 0.442913v -0.503026h 0.442913v 0.111784h 0.885827v -0.0558918h 0.442913v 1.17373h 0.442913v
 -0.558918h 0.442913v -0.670702h 0.442913v 0.558918h 0.442913v -0.111784h 0.442913v 0.0558918h 0.885827v 0.335351h 0.442913v -0.391243h 0.442913v 0.0558918h 0.442913v 0.0558918h 0.442913v -0.167675h 0.442913v -0.391243h 0.442913v 0.223567h 0.442913v
 0.279459h 0.442913v 0.223567h 0.442913v -0.391243h 0.442913v -0.0558918h 0.442913v -0.391243h 0.442913v 0.279459h 0.442913v 0.0558918h 0.442913v 0.335351h 0.442913v -0.558918h 0.442913v -0.279459h 0.442913v 0.894269h 0.442913v -0.111784h 0.442913v
 -0.391243h 0.885827v 0.279459h 0.442913v 0.335351h 0.442913v -0.558918h 0.442913v 0.838377h 0.442913v -0.335351h 0.442913v 0.111784h 0.442913v -0.167675h 0.442913v -0.279459h 0.442913v -0.447134h 0.442913v 0.0558918h 0.442913v 0.0558918h 0.442913v
 0.391243h 0.442913v 0.447134h 0.885827v -0.335351h 0.442913v -0.0558918h 0.442913v -0.167675h 0.442913v -0.726593h 0.442913v 0.950161h 0.442913v 0.167675h 0.442913v -0.61481h 0.442913v 0.279459h 0.442913v 0.111784h 0.442913v -0.335351h 0.442913v
 0.223567h 0.442913v 0.391243h 0.442913v -0.335351h 0.442913v -0.447134h 0.442913v 0.279459h 0.442913v 0.111784h 0.442913v 0.167675h 0.442913v -0.167675h 0.442913v 0.447134h 0.442913v -0.503026h 0.442913v -0.111784h 0.442913v 0.111784h 0.442913v
 -0.223567h 0.442913v 0.0558918h 0.442913v 0.894269h 0.442913v -0.558918h 0.442913v -0.167675h 0.442913v -0.111784h 0.442913v -0.167675h 0.442913v 0.223567h 0.442913v 0.279459h 0.442913v 0.447134h 0.442913v -0.503026h 0.442913v -0.167675h 0.442913v
 0.279459h 0.442913v -0.0558918h 0.442913v -0.558918h 0.442913v 0.782485h 0.442913v -0.279459h 0.442913v -0.0558918h 0.442913v -0.503026h 0.442913v 0.223567h 0.442913v 0.279459h 0.442913v 0.391243h 0.442913v 0.167675h 0.442913v -0.558918h 0.442913v
 0.391243h 0.442913v -0.335351h 0.442913v 0.279459h 0.442913v -0.223567h 0.442913v 0.167675h 0.442913v -0.335351h 0.442913v 0.0558918h 0.442913v 0.279459h 0.442913v -0.167675h 0.442913v -0.279459h 0.442913v 0.111784h 0.442913v 0.447134h 0.885827v
 -0.503026h 0.442913v 0.279459h 0.442913v -0.61481h 0.442913v 0.894269h 0.442913v -0.447134h 0.442913v -0.279459h 0.442913v -0.335351h 0.442913v 0.670702h 0.442913v 0.447134h 0.442913v -0.503026h 0.885827v 0.670702h 0.442913v -0.335351h 0.885827v
 -0.61481h 0.442913v 0.391243h 0.442913v 0.447134h 0.442913v 0.223567h 0.442913v -0.335351h 0.442913v -0.335351h 0.885827v -0.223567h 0.442913v -0.111784h 0.442913v 0.558918h 0.442913v 0.335351h 0.442913v -0.223567h 0.442913v -0.447134h 0.442913v
 -0.335351h 0.442913v 0.111784h 0.442913v 0.61481h 0.442913v 0.167675h 0.442913v -0.167675h 0.885827v -0.670702h 0.442913v 0.670702h 0.442913v -0.0558918h 0.442913v -0.391243h 0.442913v 0.223567h 0.442913v 0.335351h 0.442913v -0.111784h 0.442913v
 0.167675h 0.442913v -0.61481h 0.442913v 0.279459h 0.442913v -0.335351h 0.442913v 0.670702h 0.442913v 0.167675h 0.442913v -0.391243h 0.442913v -0.0558918h 0.442913v -0.167675h 0.442913v 0.503026h 0.442913v 0.279459h 0.442913v -0.223567h 0.442913v
 -0.61481h 0.442913v 0.391243h 0.442913v -0.558918h 0.442913v 0.950161h 0.442913v -0.279459h 0.442913v 0.111784h 0.442913v -0.335351h 0.442913v 0.335351h 0.442913v -0.335351h 0.885827v -0.167675h 0.442913v 0.223567h 0.442913v 0.111784h 0.442913v
 -0.223567h 0.442913v 0.111784h 0.442913v -0.61481h 0.442913v 0.279459h 0.442913v 0.61481h 0.442913v -0.391243h 1.32874v 0.279459h 0.442913v -0.0558918h 0.442913v -0.111784h 0.442913v -0.111784h 0.885827v 0.167675h 0.442913v -0.447134h 0.442913v
 0.335351h 0.442913v 0.447134h 0.442913v -1.00605h 0.442913v 0.670702h 0.442913v -0.335351h 0.442913v 0.223567h 0.442913v -0.61481h 0.442913v 0.838377h 0.442913v -0.61481h 0.885827v 0.447134h 0.442913v -0.279459h 0.442913v 0.335351h 0.442913v
 0.0558918h 0.442913v -0.111784h 0.442913v -0.111784h 0.442913v 0.167675h 0.885827v 0.167675h 0.442913v -0.223567h 0.442913v -0.111784h 0.442913v 0.279459h 0.442913v -0.167675h 0.442913v 0.503026h 0.885827v -0.335351h 0.442913v -0.111784h 0.442913v
 -0.503026h 0.442913v -0.111784h 0.442913v 0.558918h 0.442913v 0.391243h 0.442913v -0.558918h 0.885827v 0.335351h 0.442913v -0.950161h 0.442913v 0.782485h 0.442913v 0.335351h 0.442913v -0.335351h 0.442913v -0.335351h 0.442913v 0.279459h 0.442913v
 -0.223567h 0.442913v 0.279459h 0.442913v -0.223567h 0.442913v 0.61481h 0.442913v -0.782485h 0.442913v -0.447134h 0.442913v 0.726593h 0.442913v -0.335351h 0.442913v 0.111784h 0.442913v 0.61481h 0.442913v 0.279459h 0.442913v -0.447134h 0.442913v
 -0.111784h 0.442913v 0.61481h 0.442913v -0.950161h 0.442913v 0.838377h 0.442913v 0.167675h 0.442913v -0.838377h 0.442913v 0.503026h 0.442913v -0.279459h 0.442913v 0.335351h 0.442913v -0.279459h 0.442913v -0.167675h 0.442913v -0.391243h 0.442913v
 0.335351h 0.885827v -0.503026h 0.442913v 0.447134h 0.442913v -0.223567h 0.442913v 0.167675h 0.442913v 0.726593h 0.442913v -0.670702h 0.442913v -0.223567h 0.442913v 0.0558918h 0.442913v 0.0558918h 0.442913v 0.447134h 0.442913v 0.335351h 0.442913v
 -0.726593h 0.442913v -0.223567h 0.885827v 0.391243h 0.442913v -0.0558918h 0.442913v 0.279459h 0.442913v 0.279459h 0.442913v -0.447134h 0.442913v -0.111784h 0.442913v -0.447134h 0.442913v 0.111784h 0.442913v 0.447134h 0.442913v 0.167675h 0.442913v
 -0.111784h 0.442913v 0.0558918h 0.885827v -0.335351h 0.442913v 0.391243h 0.442913v 0.335351h 0.442913v 0.0558918h 0.442913v -0.447134h 0.442913v -0.558918h 0.442913v 0.167675h 0.442913v 0.447134h 0.442913v -0.391243h 0.442913v 0.391243h 0.442913v
 -0.111784h 0.442913v -0.0558918h 0.442913v 0.0558918h 0.442913v -0.0558918h 0.442913v 0.167675h 0.442913v -0.335351h 0.442913v 0.447134h 0.442913v 0.223567h 0.442913v -0.670702h 0.442913v 0.391243h 0.442913v -0.447134h 0.442913v 0.167675h 0.442913v
 0.167675h 0.442913v -0.111784h 0.442913v -0.279459h 0.442913v -0.223567h 0.442913v 0.670702h 0.442913v 0.0558918h 0.442913v -0.391243h 0.442913v -0.167675h 0.442913v 0.391243h 0.442913v -0.0558918h 0.442913v -0.61481h 0.442913v 0.279459h 0.442913v
 0.391243h 0.442913v -0.61481h 0.442913v 0.335351h 0.442913v -0.167675h 0.442913v -0.558918h 0.442913v 0.167675h 0.442913v 0.391243h 0.442913v -0.0558918h 0.442913v 0.503026h 0.442913v -1.22962h 0.442913v 0.503026h 0.442913v 0.279459h 0.442913v
 -0.167675h 0.442913v 0.503026h 0.442913v -0.558918h 0.442913v 0.447134h 0.442913v 0.391243h 0.442913v -1.22962h 0.442913v 0.167675h 0.442913v 0.335351h 0.442913v 0.111784h 0.442913v 0.223567h 0.442913v 0.279459h 0.442913v -0.670702h 0.442913v
 -0.167675h 0.442913v -0.503026h 0.442913v -0.223567h 0.442913v 1.11784h 0.442913v -0.447134h 0.442913v 0.223567h 0.442913v -0.894269h 0.442913v 0.0558918h 0.442913v 0.279459h 0.442913v -0.391243h 0.442913v 0.894269h 0.442913v -0.279459h 0.442913v
 -0.111784h 0.442913v -0.558918h 0.442913v -0.447134h 0.442913v 0.503026h 0.442913v -0.0558918h 0.442913v 0.558918h 0.442913v 0.279459h 0.442913v -0.838377h 0.442913v -0.0558918h 0.442913v 0.335351h 0.442913v -0.670702h 0.442913v 0.503026h 0.442913v
 0.0558918h 0.442913v -0.391243h 0.442913v -0.111784h 0.442913v -0.726593h 0.442913v 0.335351h 0.442913v 0.894269h 0.885827v 0.894269h 0.442913v -1.00605h 0.442913v -1.06194h 0.442913v 0.447134h 0.442913v 0.503026h 0.442913v -0.503026h 0.442913v
 0.726593h 0.885827v 0.447134h 0.442913v -1.06194h 0.442913v 0.838377h 0.442913v -0.894269h 0.442913v 0.503026h 0.442913v 0.61481h 0.442913v -0.391243h 0.442913v -0.950161h 0.442913v 0.279459h 0.442913v 0.335351h 0.442913v 0.391243h 0.442913v
 -0.335351h 0.442913v 0.0558918h 0.442913v -0.111784h 0.442913v -0.726593h 0.442913v 0.558918h 0.442913v 0.61481h 0.442913v -0.0558918h 0.442913v 0.0558918h 0.442913v -1.00605h 0.442913v 0.279459h 0.442913v 0.726593h 0.442913v -0.0558918h 0.442913v
 -0.223567h 0.442913v 0.838377h 0.442913v -0.447134h 0.442913v -0.111784h 0.885827v 0.223567h 0.442913v -1.00605h 0.442913v 1.11784h 0.442913v 0.503026h 0.442913v -0.950161h 0.442913v -0.447134h 0.442913v 0.335351h 0.442913v -0.167675h 0.442913v
 -0.335351h 0.442913v 1.50908h 0.442913v -0.894269h 0.885827v 0.223567h 0.442913v 0.111784h 0.442913v 0.223567h 0.442913v 0.167675h 0.442913v -0.335351h 0.442913v -0.111784h 0.442913v 0.0558918h 0.885827v -0.223567h 0.442913v 0.894269h 0.442913v
 -0.223567h 0.442913v 0.223567h 0.442913v -0.167675h 0.442913v -0.670702h 0.442913v 0.726593h 0.885827v 0.391243h 0.442913v -0.558918h 0.442913v -0.223567h 0.442913v 0.223567h 0.442913v 0.167675h 0.442913v -0.838377h 0.442913v 0.111784h 0.442913v
 1.00605h 0.442913v -0.0558918h 0.442913v -0.503026h 0.442913v 0.726593h 0.442913v 0.0558918h 0.442913v -0.61481h 0.442913v 0.782485h 0.442913v -0.61481h 0.442913v 0.279459h 0.442913v -0.167675h 0.442913v 0.558918h 0.442913v -0.503026h 0.442913v
 -0.391243h 0.442913v 0.391243h 0.442913v -0.391243h 0.442913v 0.0558918h 0.442913v -0.223567h 0.442913v 0.0558918h 0.442913v 0.223567h 0.442913v 0.335351h 0.442913v 0.391243h 0.442913v -0.167675h 0.442913v 0.111784h 0.442913v -0.279459h 0.442913v
 -0.61481h 0.442913v 0.111784h 0.442913v 1.22962h 0.442913v -1.22962h 0.442913v 0.447134h 0.885827v -0.111784h 0.442913v -0.167675h 0.442913v 0.335351h 0.442913v 0.223567h 0.442913v -0.111784h 0.442913v -0.558918h 0.442913v 0.279459h 0.442913v
 0.167675h 0.442913v 0.111784h 0.442913v 0.167675h 0.442913v 0.335351h 0.442913v -0.391243h 0.442913v -0.782485h 0.442913v 0.391243h 0.442913v -0.279459h 0.442913v 1.17373h 0.442913v -0.670702h 0.442913v -0.223567h 0.442913v -0.167675h 0.442913v
 0.503026h 0.442913v -0.335351h 0.442913v -0.111784h 0.442913v 0.558918h 0.442913v -0.223567h 0.442913v -0.0558918h 0.442913v -0.167675h 0.442913v 0.167675h 0.442913v -0.167675h 0.442913v 0.447134h 0.442913v 0.223567h 0.442913v -0.61481h 0.885827v
 0.447134h 0.442913v -0.558918h 0.442913v 0.61481h 0.442913v -0.335351h 0.885827v -0.167675h 0.442913v -0.0558918h 0.442913v 0.335351h 0.442913v -0.503026h 0.885827v 0.279459h 0.442913v 0.167675h 0.442913v -0.503026h 0.442913v 0.223567h 0.442913v
 -0.0558918h 0.442913v -0.279459h 0.442913v 0.447134h 0.885827v -0.279459h 0.442913v 0.223567h 0.442913v 0.167675h 0.442913v -0.167675h 0.442913v -0.335351h 0.442913v 0.335351h 0.442913v 0.558918h 0.442913v -0.782485h 0.442913v -0.223567h 0.442913v
 0.167675h 0.442913v 0.391243h 0.442913v -0.167675h 0.442913v 0.61481h 0.442913v -0.447134h 0.442913v -0.61481h 0.442913v 0.503026h 0.442913v -0.0558918h 0.442913v -0.503026h 0.442913v 0.447134h 1.32874v -0.894269h 0.442913v 0.670702h 0.442913v
 0.447134h 0.442913v -1.78854h 0.442913v 2.12389h 0.442913v -0.447134h 0.442913v -1.00605h 0.442913v 0.558918h 0.442913v -0.726593h 0.442913v 0.894269h 0.885827v -0.503026h 0.442913v 0.167675h 0.442913v 0.0558918h 0.442913v 0.111784h 0.442913v
 -0.670702h 0.442913v 0.838377h 0.442913v 0.111784h 0.442913v -0.503026h 0.885827v 0.0558918h 0.442913v -0.558918h 0.442913v 0.447134h 0.442913v -0.223567h 0.442913v -0.0558918h 0.442913v -0.726593h 0.442913v 0.447134h 0.442913v 0.447134h 0.442913v
 -1.22962h 0.442913v 0.782485h 0.442913v 0.61481h 0.442913v -0.670702h 0.442913v 0.0558918h 0.442913v -0.503026h 0.442913v -0.111784h 0.442913v -0.335351h 0.442913v 0.111784h 0.442913v 0.61481h 0.442913v 0.447134h 0.442913v -2.068h 0.442913v
 0.167675h 0.442913v 0.894269h 0.442913v -1.00605h 0.442913v 1.06194h 0.442913v -0.0558918h 0.442913v -0.670702h 0.442913v -0.558918h 0.442913v -0.0558918h 0.442913v -0.391243h 0.442913v 0.167675h 0.442913v 1.62086h 0.442913v -0.838377h 0.442913v
 -1.00605h 0.442913v -1.17373h 0.442913v 1.73265h 0.442913v -0.782485h 0.442913v 0.335351h 0.442913v 1.06194h 0.442913v -0.279459h 0.442913v -1.17373h 0.442913v -0.558918h 0.442913v -0.670702h 0.442913v 1.45319h 0.442913v 0.167675h 0.442913v
 -0.279459h 0.442913v -2.068h 0.442913v 0.950161h 0.442913v 0.0558918h 0.442913v -1.3414h 0.442913v 2.0121h 0.442913v -0.279459h 0.442913v -0.950161h 0.442913v 0.391243h 0.442913v -0.391243h 0.442913v -1.3414h 0.442913v 0.670702h 0.442913v 1.45319h
 0.442913v -0.447134h 0.442913v -1.3414h 0.442913v -1.3414h 0.442913v 0.335351h 0.442913v 0.670702h 0.442913v 0.279459h 0.442913v 2.12389h 0.442913v -1.45319h 0.442913v -1.50908h 0.442913v 0.61481h 0.442913v -1.78854h 0.442913v 1.28551h 0.442913v
 0.950161h 0.442913v 0.503026h 0.442913v -2.90637h 0.442913v -0.950161h 0.442913v 1.22962h 0.442913v 0.391243h 0.442913v 0.391243h 0.442913v 1.67675h 0.442913v -0.447134h 0.442913v -0.0558918h 0.442913v -2.90637h 0.442913v 0.894269h 0.442913v
 0.61481h 0.442913v -0.726593h 0.442913v 2.40335h 0.442913v -1.45319h 0.442913v -2.85048h 0.442913v 2.068h 0.442913v 1.00605h 0.442913v 0.279459h 0.442913v 1.62086h 0.442913v -0.558918h 0.442913v -2.62691h 0.442913v 0.61481h 0.442913v -1.00605h
 0.442913v 1.28551h 0.442913v 0.111784h 0.442913v 2.57102h 0.442913v -2.40335h 0.442913v 0.61481h 0.442913v -1.56497h 0.442913v 1.67675h 0.442913v 0.167675h 0.442913v -0.279459h 0.442913v 1.28551h 0.442913v -1.11784h 0.885827v -0.782485h 0.442913v
 -0.670702h 0.442913v 1.45319h 0.442913v 1.22962h 0.442913v 0.894269h 0.442913v -1.39729h 0.442913v 0.558918h 0.442913v -0.782485h 0.442913v 0.558918h 0.442913v 1.28551h 0.442913v 0.838377h 0.442913v -1.28551h 0.442913v -0.447134h 0.442913v -1.06194h
 0.442913v 1.62086h 0.442913v -0.223567h 0.442913v 0.726593h 0.442913v 1.39729h 0.442913v 0.0558918h 0.442913v -1.84443h 0.442913v 0.447134h 0.442913v 0.558918h 0.442913v 0.167675h 0.442913v 1.00605h 0.442913v -0.503026h 0.442913v -0.503026h
 0.442913v -1.39729h 0.442913v 2.23567h 0.442913v 0.111784h 0.885827v 0.279459h 0.442913v -0.111784h 0.442913v -0.558918h 0.442913v 1.28551h 0.442913v -0.61481h 0.442913v 0.167675h 0.442913v 0.391243h 0.442913v 0.670702h 0.442913v -1.11784h 0.442913v
 -0.670702h 0.442913v 0.894269h 0.442913v 0.894269h 0.442913v 0.111784h 0.442913v -0.223567h 0.442913v 0.447134h 0.442913v -1.00605h 0.442913v 1.73265h 0.442913v -1.22962h 0.442913v 0.782485h 0.442913v -0.0558918h 0.442913v -1.11784h 0.442913v
 0.558918h 0.442913v -0.447134h 0.885827v -0.279459h 0.442913v 1.56497h 0.442913v -0.279459h 0.442913v -0.335351h 0.442913v -0.335351h 0.442913v 0.223567h 0.442913v 0.503026h 0.442913v -0.335351h 0.442913v -0.111784h 0.442913v 0.726593h 0.442913v
 -0.726593h 0.442913v -0.503026h 0.442913v 0.894269h 0.442913v -0.223567h 0.442913v 0.167675h 0.442913v 0.167675h 0.442913v 0.503026h 0.442913v -0.782485h 0.442913v -0.111784h 0.442913v -0.279459h 0.442913v 0.279459h 0.442913v 0.670702h 0.442913v
 -0.0558918h 0.442913v -1.17373h 0.442913v 0.335351h 0.442913v 0.335351h 0.442913v 0.167675h 0.442913v -0.0558918h 0.442913v -0.223567h 0.442913v -0.223567h 0.442913v -0.447134h 0.442913v -0.391243h 0.442913v 0.167675h 0.442913v -2.51513h 0.442913v
 -0.447134h 0.442913v -12.5757h 0.442913v -82.664h 0.442913v -190.2h 0.442913v -1.17373h 0.442913v 100.549h 0.442913v 49.0171h 0.442913v 6.70702h 0.442913v -13.3581h 0.442913v 5.19794h 0.442913v 26.4368h 0.442913v 26.325h 0.442913v 22.6362h 0.442913v
 22.748h 0.442913v 7.54539h 0.442913v -6.76291h 0.442913v 5.30972h 0.442913v 1.17373h 0.442913v -0.167675h 0.442913v 5.98042h 0.442913v 1.73265h 0.442913v -3.01816h 0.442913v -3.57707h 0.442913v 1.90032h 0.442913v 0.279459h 0.442913v 0.447134h
 0.442913v 7.21004h 0.442913v -0.782485h 0.442913v -2.23567h 0.442913v -3.96832h 0.442913v 3.52118h 0.442913v -1.50908h 0.442913v 4.30367h 0.442913v 1.95621h 0.442913v -0.726593h 0.442913v -3.85653h 0.442913v -2.0121h 0.442913v 0.503026h 0.442913v
 0.61481h 0.442913v 5.19794h 0.442913v 0.391243h 0.442913v -5.70096h 0.442913v -0.894269h 0.442913v 0.838377h 0.442913v -0.335351h 0.442913v 1.56497h 0.442913v 4.58313h 0.442913v -1.90032h 0.442913v -3.68886h 0.442913v -0.111784h 0.442913v 1.45319h
 0.442913v -2.29156h 0.442913v 8.10431h 0.442913v 3.18583h 0.442913v -6.37166h 0.442913v -1.17373h 0.442913v 4.35956h 0.442913v 2.90637h 0.442913v 4.69491h 0.442913v 5.03026h 0.442913v 3.01816h 0.442913v 1.28551h 0.442913v 3.4094h 0.442913v 2.68281h
 0.442913v 1.17373h 0.442913v 0.950161h 0.442913v 0.279459h 0.442913v 0.167675h 0.885827" fill="none" stroke="#000099"/>
<path d="M57.1929,346.022h 453.543" fill="none" stroke="black"/>
<path d="M57.1929,336.795v 9.22726" fill="none" stroke="black"/>
<path d="M68.5315,341.409v 4.61363" fill="none" stroke="black"/>
<path d="M79.8701,341.409v 4.61363" fill="none" stroke="black"/>
<path d="M91.2087,341.409v 4.61363" fill="none" stroke="black"/>
<path d="M102.547,341.409v 4.61363" fill="none" stroke="black"/>
<path d="M113.886,336.795v 9.22726" fill="none" stroke="black"/>
<path d="M125.224,341.409v 4.61363" fill="none" stroke="black"/>
<path d="M136.563,341.409v 4.61363" fill="none" stroke="black"/>
<path d="M147.902,341.409v 4.61363" fill="none" stroke="black"/>
<path d="M159.24,341.409v 4.61363" fill="none" stroke="black"/>
<path d="M170.579,336.795v 9.22726" fill="none" stroke="black"/>
<path d="M181.917,341.409v 4.61363" fill="none" stroke="black"/>
<path d="M193.256,341.409v 4.61363" fill="none" stroke="black"/>
<path d="M204.594,341.409v 4.61363" fill="none" stroke="black"/>
<path d="M215.933,341.409v 4.61363" fill="none" stroke="black"/>
<path d="M227.272,336.795v 9.22726" fill="none" stroke="black"/>
<path d="M238.61,341.409v 4.61363" fill="none" stroke="black"/>
<path d="M249.949,341.409v 4.61363" fill="none" stroke="black"/>
<path d="M261.287,341.409v 4.61363" fill="none" stroke="black"/>
<path d="M272.626,341.409v 4.61363" fill="none" stroke="black"/>
<path d="M283.965,336.795v 9.22726" fill="none" stroke="black"/>
<path d="M295.303,341.409v 4.61363" fill="none" stroke="black"/>
<path d="M306.642,341.409v 4.61363" fill="none" stroke="black"/>
<path d="M317.98,341.409v 4.61363" fill="none" stroke="black"/>
<path d="M329.319,341.409v 4.61363" fill="none" stroke="black"/>
<path d="M340.657,336.795v 9.22726" fill="none" stroke="black"/>
<path d="M351.996,341.409v 4.61363" fill="none" stroke="black"/>
<path d="M363.335,341.409v 4.61363" fill="none" stroke="black"/>
<path d="M374.673,341.409v 4.61363" fill="none" stroke="black"/>
<path d="M386.012,341.409v 4.61363" fill="none" stroke="black"/>
<path d="M397.35,336.795v 9.22726" fill="none" stroke="black"/>
<path d="M408.689,341.409v 4.61363" fill="none" stroke="black"/>
<path d="M420.028,341.409v 4.61363" fill="none" stroke="black"/>
<path d="M431.366,341.409v 4.61363" fill="none" stroke="black"/>
<path d="M442.705,341.409v 4.61363" fill="none" stroke="black"/>
<path d="M454.043,336.795v 9.22726" fill="none" stroke="black"/>
<path d="M465.382,341.409v 4.61363" fill="none" stroke="black"/>
<path d="M476.72,341.409v 4.61363" fill="none" stroke="black"/>
<path d="M488.059,341.409v 4.61363" fill="none" stroke="black"/>
<path d="M499.398,341.409v 4.61363" fill="none" stroke="black"/>
<path d="M510.736,336.795v 9.22726" fill="none" stroke="black"/>
<text xml:space="preserve" x="53.446" y="358.403" fill="black" font-size="12.8453" font-family="Helvetica">0</text>
<text xml:space="preserve" x="110.465" y="358.403" fill="black" font-size="12.8453" font-family="Helvetica">5</text>
<text xml:space="preserve" x="163.411" y="358.403" fill="black" font-size="12.8453" font-family="Helvetica">10</text>
<text xml:space="preserve" x="219.615" y="358.403" fill="black" font-size="12.8453" font-family="Helvetica">15</text>
<text xml:space="preserve" x="277.448" y="358.403" fill="black" font-size="12.8453" font-family="Helvetica">20</text>
<text xml:space="preserve" x="332.838" y="358.403" fill="black" font-size="12.8453" font-family="Helvetica">25</text>
<text xml:space="preserve" x="390.671" y="358.403" fill="black" font-size="12.8453" font-family="Helvetica">30</text>
<text xml:space="preserve" x="446.061" y="358.403" fill="black" font-size="12.8453" font-family="Helvetica">35</text>
<text xml:space="preserve" x="503.894" y="358.403" fill="black" font-size="12.8453" font-family="Helvetica">40</text>
<text xml:space="preserve" x="441.173" y="370.622" fill="black" font-size="12.8453" font-family="Helvetica">Energy [keV]</text>
<path d="M57.1929,346.022v -307.575" fill="none" stroke="black"/>
<path d="M70.7992,346.022h -13.6063" fill="none" stroke="black"/>
<path d="M63.9961,334.844h -6.80315" fill="none" stroke="black"/>
<path d="M63.9961,323.666h -6.80315" fill="none" stroke="black"/>
<path d="M63.9961,312.487h -6.80315" fill="none" stroke="black"/>
<path d="M63.9961,301.309h -6.80315" fill="none" stroke="black"/>
<path d="M70.7992,290.13h -13.6063" fill="none" stroke="black"/>
<path d="M63.9961,278.952h -6.80315" fill="none" stroke="black"/>
<path d="M63.9961,267.774h -6.80315" fill="none" stroke="black"/>
<path d="M63.9961,256.595h -6.80315" fill="none" stroke="black"/>
<path d="M63.9961,245.417h -6.80315" fill="none" stroke="black"/>
<path d="M70.7992,234.239h -13.6063" fill="none" stroke="black"/>
<path d="M63.9961,223.06h -6.80315" fill="none" stroke="black"/>
<path d="M63.9961,211.882h -6.80315" fill="none" stroke="black"/>
<path d="M63.9961,200.704h -6.80315" fill="none" stroke="black"/>
<path d="M63.9961,189.525h -6.80315" fill="none" stroke="black"/>
<path d="M70.7992,178.347h -13.6063" fill="none" stroke="black"/>
<path d="M63.9961,167.169h -6.80315" fill="none" stroke="black"/>
<path d="M63.9961,155.99h -6.80315" fill="none" stroke="black"/>
<path d="M63.9961,144.812h -6.80315" fill="none" stroke="black"/>
<path d="M63.9961,133.633h -6.80315" fill="none" stroke="black"/>
<path d="M70.7992,122.455h -13.6063" fill="none" stroke="black"/>
<path d="M63.9961,111.277h -6.80315" fill="none" stroke="black"/>
<path d="M63.9961,100.098h -6.80315" fill="none" stroke="black"/>
<path d="M63.9961,88.92h -6.80315" fill="none" stroke="black"/>
<path d="M63.9961,77.7416h -6.80315" fill="none" stroke="black"/>
<path d="M70.7992,66.5633h -13.6063" fill="none" stroke="black"/>
<path d="M70.7992,66.5633h -13.6063" fill="none" stroke="black"/>
<path d="M63.9961,55.3849h -6.80315" fill="none" stroke="black"/>
<path d="M63.9961,44.2066h -6.80315" fill="none" stroke="black"/>
<text xml:space="preserve" x="47.7441" y="350.258" fill="black" font-size="12.8453" font-family="Helvetica">0</text>
<text xml:space="preserve" x="27.3803" y="294.868" fill="black" font-size="12.8453" font-family="Helvetica">1000</text>
<text xml:space="preserve" x="27.3803" y="238.664" fill="black" font-size="12.8453" font-family="Helvetica">2000</text>
<text xml:space="preserve" x="27.3803" y="182.46" fill="black" font-size="12.8453" font-family="Helvetica">3000</text>
<text xml:space="preserve" x="27.3803" y="127.07" fill="black" font-size="12.8453" font-family="Helvetica">4000</text>
<text xml:space="preserve" x="27.3803" y="70.8661" fill="black" font-size="12.8453" font-family="Helvetica">5000</text>
<g transform="rotate(-90,14.3474,70.0516)">
<text xml:space="preserve" x="14.3474" y="70.0516" fill="black" font-size="12.8453" font-family="Helvetica">Event</text>
</g>
<text xml:space="preserve" x="209.026" y="18.7347" fill="black" font-size="18.0316" font-family="Helvetica">Cs_015_calibrated</text>
<rect x="442.705" y="24.9905" width="113.386" height="61.5151" fill="white"/>
<path d="M442.705,86.5056h 113.386" fill="none" stroke="black"/>
<path d="M556.091,86.5056v -61.5151" fill="none" stroke="black"/>
<path d="M556.091,24.9905h -113.386" fill="none" stroke="black"/>
<path d="M442.705,24.9905v 61.5151" fill="none" stroke="black"/>
<text xml:space="preserve" x="447.69" y="36.6549" fill="black" font-size="12.5522" font-family="Helvetica">Cs_015_calibrated</text>
<path d="M442.705,40.3693h 113.386" fill="none" stroke="black"/>
<text xml:space="preserve" x="447.69" y="52.946" fill="black" font-size="12.3904" font-family="Helvetica">Entries </text>
<text xml:space="preserve" x="506.338" y="52.946" fill="black" font-size="12.3904" font-family="Helvetica"> 100820</text>
<text xml:space="preserve" x="447.69" y="67.6079" fill="black" font-size="12.3904" font-family="Helvetica">Mean  </text>
<text xml:space="preserve" x="512.854" y="67.6079" fill="black" font-size="12.3904" font-family="Helvetica">  32.26</text>
<text xml:space="preserve" x="447.69" y="83.0844" fill="black" font-size="12.3904" font-family="Helvetica">Std Dev   </text>
<text xml:space="preserve" x="512.854" y="83.0844" fill="black" font-size="12.3904" font-family="Helvetica">  9.484</text>
<text xml:space="preserve" x="209.026" y="18.7347" fill="black" font-size="18.0316" font-family="Helvetica">Cs_015_calibrated</text></svg>
