<?xml version="1.0" standalone="no"?>
<svg width="567.429" height="384.68" viewBox="0 0 567.429 384.68" xmlns="http://www.w3.org/2000/svg" shape-rendering="crispEdges">
<title>
img/week1/calibrated_hist_high_gain/Cs_015.svg
</title>
<desc>
Creator: ROOT Version 6.22/09
CreationDate: Tue Jul 13 18:42:20 2021</desc>
<defs>
</defs>
<rect x="0.5" y="0" width="566.929" height="384.18" fill="white"/>
<rect x="57.1929" y="38.418" width="453.543" height="307.344" fill="white"/>
<rect x="57.1929" y="38.418" width="453.543" height="307.344" fill="none" stroke="black"/>
<path d="M57.1929,345.762h 65.5512v -0.0533945h 0.442913v -0.907706h 0.442913v -5.33945h 0.442913v -8.86348h 0.442913v -2.61633h 0.442913v 0.747522h 0.442913v 2.29596h 0.442913v 0.640733h 0.442913v 2.56293h 0.442913v 0.213578h 0.442913v 0.0533945h
 0.442913v 1.81541h 0.442913v 1.22807h 0.442913v 0.854311h 0.442913v 1.97559h 0.442913v 0.160183h 0.442913v -0.427156h 0.442913v 0.0533945h 0.442913v 0.9611h 0.442913v 0.48055h 0.442913v 0.747522h 0.885827v -0.427156h 0.442913v 1.01449h 0.442913v
 -0.533945h 0.442913v 0.0533945h 0.442913v 0.854311h 0.442913v 0.48055h 0.442913v 0.160183h 0.442913v -0.747522h 0.442913v 0.373761h 0.442913v 0.266972h 0.442913v -0.800917h 0.442913v 0.747522h 0.442913v 0.533945h 0.442913v -0.800917h 0.442913v
 -0.320367h 0.442913v 0.373761h 0.442913v 0.694128h 0.442913v 0.0533945h 0.442913v 0.106789h 0.442913v -0.907706h 0.442913v -0.373761h 0.442913v 0.160183h 0.442913v 0.587339h 0.442913v 0.213578h 0.442913v 0.213578h 0.442913v -0.373761h 0.442913v
 0.266972h 0.442913v -1.06789h 0.442913v 0.694128h 0.442913v 0.0533945h 0.442913v 0.160183h 0.442913v 0.106789h 0.442913v 0.213578h 0.442913v -0.160183h 0.442913v -0.373761h 0.442913v -0.373761h 0.442913v 0.320367h 0.442913v 0.533945h 0.442913v
 0.266972h 0.442913v -0.800917h 0.442913v 0.266972h 0.442913v 0.213578h 0.442913v -0.213578h 0.442913v -0.0533945h 0.442913v 0.373761h 0.442913v -0.0533945h 0.442913v -0.0533945h 0.442913v -0.213578h 0.442913v 0.0533945h 0.442913v -0.106789h
 0.442913v -0.266972h 0.442913v 0.640733h 0.442913v -0.373761h 0.442913v 0.213578h 0.442913v -0.427156h 0.442913v 0.373761h 0.442913v -0.533945h 0.442913v 0.160183h 0.442913v -0.160183h 0.442913v 0.640733h 0.442913v -0.907706h 0.442913v 0.373761h
 0.442913v 0.533945h 0.442913v 0.106789h 0.442913v -0.747522h 0.442913v 0.160183h 0.442913v 0.587339h 0.442913v -0.320367h 0.885827v 0.373761h 0.442913v 0.213578h 0.442913v -0.373761h 0.442913v 0.0533945h 0.442913v -0.640733h 0.442913v -0.373761h
 0.442913v 0.266972h 0.442913v 0.48055h 0.442913v 0.266972h 0.442913v 0.106789h 0.442913v -0.0533945h 0.442913v 0.106789h 0.442913v -0.747522h 0.885827v -0.533945h 0.442913v 1.38826h 0.442913v -0.747522h 0.442913v 0.213578h 0.442913v 0.0533945h
 0.442913v -0.266972h 0.442913v 0.160183h 0.442913v 0.0533945h 0.442913v -0.106789h 0.442913v 0.160183h 0.442913v -0.427156h 0.442913v 0.427156h 0.442913v -0.160183h 0.442913v 0.0533945h 0.442913v 0.320367h 0.442913v 0.0533945h 0.442913v -0.854311h
 0.442913v 0.48055h 0.885827v -0.427156h 0.442913v 0.9611h 0.442913v -0.266972h 0.442913v -0.427156h 0.442913v 0.213578h 0.442913v -0.266972h 0.442913v -0.0533945h 0.442913v 0.160183h 0.442913v 0.373761h 0.442913v 0.320367h 0.442913v -0.640733h
 0.442913v 0.0533945h 0.442913v 0.106789h 0.442913v -0.266972h 0.442913v 0.373761h 0.442913v -0.213578h 0.442913v 0.266972h 0.442913v -0.48055h 0.442913v -0.106789h 0.442913v 0.160183h 0.442913v 0.533945h 0.442913v 0.106789h 0.442913v -0.106789h
 0.442913v -0.160183h 0.442913v 0.106789h 0.885827v -0.373761h 0.442913v 0.48055h 0.442913v -0.320367h 0.442913v -0.160183h 0.442913v 0.213578h 0.442913v 0.320367h 0.442913v -0.854311h 0.442913v 0.48055h 0.442913v 0.266972h 0.442913v 0.106789h
 0.442913v -0.266972h 0.442913v -0.373761h 0.442913v 0.160183h 0.442913v -0.106789h 0.442913v 0.48055h 0.442913v -0.694128h 0.442913v 0.427156h 0.442913v -0.694128h 0.442913v 1.01449h 0.442913v -0.160183h 0.442913v -0.106789h 0.442913v 0.106789h
 0.442913v 0.266972h 0.442913v 0.213578h 0.442913v -1.17468h 0.442913v 0.694128h 0.442913v 0.0533945h 0.442913v 0.48055h 0.442913v -0.320367h 0.442913v -0.160183h 0.442913v -0.373761h 0.442913v 0.106789h 0.442913v 0.106789h 0.442913v -0.0533945h
 0.442913v 0.587339h 0.442913v -0.213578h 0.442913v -0.266972h 0.442913v -0.587339h 0.442913v 0.320367h 0.442913v 0.213578h 0.442913v 0.694128h 0.442913v -0.587339h 0.442913v 0.106789h 0.442913v -0.48055h 0.442913v 0.320367h 0.442913v 0.266972h
 0.442913v -0.373761h 0.442913v 0.106789h 0.442913v 0.160183h 0.442913v 0.0533945h 0.442913v 0.106789h 0.442913v -0.533945h 0.442913v 0.48055h 0.442913v -0.48055h 0.442913v 0.213578h 0.442913v 0.694128h 0.442913v -0.747522h 0.442913v 0.640733h
 0.442913v -0.907706h 0.442913v 0.640733h 0.442913v 0.373761h 0.442913v -0.213578h 0.442913v -0.48055h 0.442913v 0.160183h 0.442913v -0.160183h 0.442913v 0.266972h 0.442913v 0.266972h 0.442913v 0.266972h 0.442913v -1.12128h 0.442913v 0.907706h
 0.442913v -0.320367h 0.442913v -0.160183h 0.442913v -0.160183h 0.442913v 0.160183h 0.442913v 0.533945h 0.442913v -0.640733h 0.442913v 0.266972h 0.442913v -0.694128h 0.442913v 0.213578h 0.442913v 0.640733h 0.442913v -0.160183h 0.442913v -0.213578h
 0.442913v -0.0533945h 0.442913v 0.587339h 0.442913v -0.373761h 0.442913v -0.106789h 0.442913v 0.106789h 0.442913v -0.160183h 0.442913v 0.160183h 0.442913v -0.373761h 0.442913v 0.48055h 0.442913v 0.106789h 0.442913v -0.587339h 0.442913v 0.106789h
 0.885827v 0.373761h 0.442913v -0.747522h 0.442913v 0.800917h 0.442913v -0.587339h 0.442913v 0.0533945h 0.442913v 0.266972h 0.442913v -0.160183h 0.442913v 0.427156h 0.442913v -0.213578h 0.442913v 0.266972h 0.442913v -0.373761h 0.442913v 0.160183h
 0.442913v 0.106789h 0.885827v -0.0533945h 0.442913v -0.213578h 0.442913v 0.320367h 0.442913v -0.266972h 0.442913v 0.694128h 0.442913v -0.160183h 0.442913v -0.160183h 0.442913v -0.320367h 0.442913v -0.266972h 0.442913v -0.266972h 0.442913v 0.48055h
 0.442913v 0.48055h 0.442913v -0.533945h 0.442913v 0.160183h 0.442913v 0.160183h 0.442913v -1.01449h 0.442913v 0.800917h 0.442913v 0.48055h 0.442913v -0.48055h 0.442913v -0.213578h 0.442913v 0.320367h 0.442913v -0.427156h 0.442913v 0.373761h
 0.442913v -0.266972h 0.442913v 0.587339h 0.442913v -0.694128h 0.442913v -0.373761h 0.442913v 0.587339h 0.442913v -0.160183h 0.885827v 0.48055h 0.442913v 0.373761h 0.442913v -0.427156h 0.442913v -0.106789h 0.442913v 0.587339h 0.442913v -0.907706h
 0.442913v 0.854311h 0.442913v 0.0533945h 0.442913v -0.747522h 0.442913v 0.48055h 0.442913v -0.266972h 0.442913v 0.320367h 0.442913v -0.266972h 0.442913v -0.160183h 0.442913v -0.427156h 0.442913v 0.427156h 0.442913v -0.0533945h 0.442913v -0.533945h
 0.442913v 0.533945h 0.442913v -0.266972h 0.442913v 0.160183h 0.442913v 0.640733h 0.442913v -0.533945h 0.442913v -0.266972h 0.442913v 0.0533945h 0.442913v -0.0533945h 0.442913v 0.587339h 0.442913v 0.266972h 0.442913v -0.694128h 0.442913v -0.160183h
 0.442913v -0.0533945h 0.442913v 0.160183h 0.442913v 0.373761h 0.885827v 0.266972h 0.442913v -0.266972h 0.442913v -0.48055h 0.442913v -0.106789h 0.442913v 0.0533945h 0.442913v 0.640733h 0.442913v -0.160183h 0.442913v -0.0533945h 0.442913v 0.266972h
 0.442913v -0.320367h 0.442913v -0.213578h 0.442913v 0.48055h 0.442913v 0.320367h 0.442913v 0.0533945h 0.442913v -0.587339h 0.442913v -0.427156h 0.442913v 0.160183h 0.442913v 0.533945h 0.442913v -0.48055h 0.442913v 0.373761h 0.442913v -0.160183h
 0.442913v -0.0533945h 0.442913v 0.160183h 0.442913v -0.160183h 0.442913v 0.0533945h 0.442913v -0.0533945h 0.442913v 0.533945h 0.442913v -0.106789h 0.442913v -0.747522h 0.442913v 0.694128h 0.442913v -0.694128h 0.442913v 0.533945h 0.442913v 0.106789h
 0.442913v -0.694128h 0.442913v 0.160183h 0.442913v 0.106789h 0.442913v 0.320367h 0.442913v -0.0533945h 0.442913v -0.266972h 0.442913v -0.320367h 0.442913v 0.694128h 0.442913v -0.427156h 0.442913v -0.160183h 0.442913v -0.0533945h 0.442913v 0.533945h
 0.442913v -0.587339h 0.442913v 0.320367h 0.442913v -0.48055h 0.442913v -0.106789h 0.442913v 0.106789h 0.442913v -0.160183h 0.442913v 0.694128h 0.442913v 0.0533945h 0.442913v -1.12128h 0.442913v 0.800917h 0.442913v -0.160183h 0.442913v 0.266972h
 0.442913v -0.106789h 0.442913v 0.0533945h 0.442913v 0.106789h 0.442913v 0.320367h 0.442913v -1.33486h 0.442913v 0.427156h 0.442913v 0.587339h 0.885827v -0.160183h 0.442913v 0.694128h 0.442913v -1.12128h 0.442913v -0.0533945h 0.442913v -0.427156h
 0.442913v 0.160183h 0.442913v 0.854311h 0.442913v -0.587339h 0.442913v 0.427156h 0.442913v -1.17468h 0.885827v 0.694128h 0.442913v -0.533945h 0.442913v 1.22807h 0.442913v -1.06789h 0.442913v 0.427156h 0.442913v -0.907706h 0.442913v 0.213578h
 0.442913v -0.160183h 0.442913v 0.533945h 0.442913v -0.0533945h 0.442913v 0.800917h 0.442913v -1.22807h 0.885827v 0.427156h 0.442913v -0.694128h 0.442913v 0.587339h 0.442913v -0.213578h 0.442913v -0.106789h 0.442913v -0.266972h 0.442913v -0.48055h
 0.442913v 0.320367h 0.442913v 0.9611h 0.885827v 0.427156h 0.442913v -1.22807h 0.442913v -0.427156h 0.442913v 0.320367h 0.442913v 0.640733h 0.442913v -0.587339h 0.442913v 0.427156h 0.442913v 0.48055h 0.442913v 0.106789h 0.442913v -1.17468h 0.442913v
 1.12128h 0.442913v -0.747522h 0.442913v -0.106789h 0.442913v 1.17468h 0.442913v -0.854311h 0.442913v -0.587339h 0.442913v 0.213578h 0.442913v 0.48055h 0.442913v 0.427156h 0.442913v -0.9611h 0.442913v 0.266972h 0.442913v 0.160183h 0.442913v
 -0.587339h 0.442913v 0.320367h 0.442913v 0.9611h 0.442913v -0.213578h 0.442913v -1.12128h 0.442913v 0.533945h 0.442913v -0.0533945h 0.442913v 0.747522h 0.442913v -0.320367h 0.442913v -0.106789h 0.442913v 0.694128h 0.442913v -0.427156h 0.442913v
 0.0533945h 0.442913v -0.640733h 0.442913v 1.17468h 0.442913v -0.854311h 0.442913v 0.320367h 0.442913v 0.320367h 0.442913v -0.533945h 0.442913v -0.587339h 0.442913v 0.160183h 0.442913v 0.320367h 0.442913v 0.106789h 0.442913v 0.694128h 0.442913v
 -0.747522h 0.442913v 0.106789h 0.442913v -0.106789h 0.442913v 0.533945h 0.442913v 0.427156h 0.442913v -0.373761h 0.442913v -0.320367h 0.442913v 0.160183h 0.442913v -0.0533945h 0.442913v -0.373761h 0.442913v 0.640733h 0.442913v 0.373761h 0.442913v
 -0.0533945h 0.442913v -0.213578h 0.442913v -0.320367h 0.442913v 0.106789h 0.442913v 0.48055h 0.442913v 0.160183h 0.442913v -0.106789h 0.442913v -0.533945h 0.885827v 0.320367h 0.442913v -0.266972h 0.442913v -0.640733h 0.442913v 1.06789h 0.885827v
 -0.160183h 0.442913v 0.213578h 0.442913v 0.160183h 0.442913v -0.160183h 0.885827v 0.213578h 0.442913v 0.106789h 0.442913v -0.266972h 0.442913v -0.0533945h 0.442913v 0.427156h 0.442913v -0.587339h 0.442913v 0.0533945h 0.442913v -0.0533945h 0.442913v
 -0.266972h 0.442913v 0.0533945h 0.442913v -0.106789h 0.442913v 0.48055h 0.442913v -0.373761h 0.442913v 0.694128h 0.885827v 0.266972h 0.442913v -0.427156h 0.442913v -0.0533945h 0.442913v -0.694128h 0.442913v 0.800917h 0.442913v 0.320367h 0.442913v
 -0.747522h 0.442913v 0.48055h 0.442913v -0.427156h 0.442913v 0.48055h 0.442913v -0.800917h 0.442913v 0.640733h 0.442913v 0.427156h 0.442913v -0.587339h 0.442913v -0.373761h 0.442913v 0.533945h 0.442913v 0.320367h 0.442913v -0.320367h 0.442913v
 0.533945h 0.442913v -0.160183h 0.442913v -0.640733h 0.442913v -0.0533945h 0.442913v -0.106789h 0.442913v 0.48055h 0.442913v 0.427156h 0.442913v -0.48055h 0.442913v -0.106789h 0.885827v -0.213578h 0.442913v 0.48055h 0.442913v -0.373761h 0.442913v
 0.320367h 0.442913v 0.213578h 0.442913v -0.48055h 0.885827v -0.160183h 0.442913v 0.640733h 0.442913v -0.160183h 0.442913v 0.266972h 0.442913v -0.907706h 0.442913v 0.854311h 0.442913v -0.106789h 0.442913v -0.533945h 0.442913v 0.48055h 0.442913v
 -0.106789h 0.442913v 0.320367h 0.442913v -0.9611h 0.442913v 0.427156h 0.442913v 0.106789h 0.442913v -0.213578h 0.442913v -0.213578h 0.442913v 0.587339h 0.442913v -0.320367h 0.442913v -0.106789h 0.442913v 0.0533945h 0.442913v -0.106789h 0.442913v
 0.160183h 0.442913v -0.106789h 0.442913v 0.213578h 0.442913v -0.427156h 0.442913v 0.854311h 0.442913v -0.427156h 0.442913v -0.747522h 0.442913v 0.854311h 0.442913v 0.213578h 0.442913v -0.213578h 0.442913v -0.640733h 0.442913v 0.320367h 0.442913v
 0.106789h 0.442913v 0.160183h 0.885827v 0.48055h 0.442913v -1.38826h 0.442913v 0.694128h 0.442913v 0.0533945h 0.442913v -0.0533945h 0.442913v -0.48055h 0.442913v 0.747522h 0.442913v -0.533945h 0.442913v 0.0533945h 0.442913v -0.427156h 0.442913v
 0.907706h 0.442913v -1.01449h 0.442913v 0.213578h 0.442913v 1.01449h 0.442913v -1.01449h 0.442913v -0.213578h 0.442913v 0.0533945h 0.442913v 0.320367h 0.442913v -0.0533945h 0.442913v 0.266972h 0.442913v -0.373761h 0.442913v 0.0533945h 0.442913v
 -0.106789h 0.885827v 0.213578h 0.442913v 0.160183h 0.442913v 0.0533945h 0.442913v -0.854311h 0.442913v 0.587339h 0.442913v -0.106789h 0.442913v -0.320367h 0.442913v -0.266972h 0.442913v 0.48055h 0.442913v -0.427156h 0.442913v -0.106789h 0.442913v
 0.106789h 0.442913v -0.0533945h 0.442913v -0.48055h 0.442913v 0.854311h 0.442913v -0.160183h 0.442913v -0.48055h 0.442913v 0.160183h 0.442913v -0.587339h 0.885827v -0.266972h 0.442913v 0.106789h 0.442913v 1.38826h 0.442913v -1.9222h 0.442913v
 0.266972h 0.442913v 0.106789h 0.442913v -0.800917h 0.442913v 0.640733h 0.442913v 0.694128h 0.442913v -0.800917h 0.442913v -0.533945h 0.442913v 0.427156h 0.442913v -1.44165h 0.442913v 0.48055h 0.442913v 1.44165h 0.442913v -0.320367h 0.442913v
 -0.373761h 0.442913v -2.34936h 0.442913v 1.65523h 0.442913v 0.0533945h 0.442913v -0.640733h 0.442913v 1.44165h 0.442913v 0.373761h 0.442913v -0.9611h 0.442913v -1.70862h 0.442913v 0.373761h 0.442913v 0.266972h 0.442913v 1.12128h 0.442913v -0.854311h
 0.442913v -1.28147h 0.442913v 0.320367h 0.442913v -0.427156h 0.442913v 1.17468h 0.442913v -0.9611h 0.442913v 0.533945h 0.442913v -0.640733h 0.442913v 0.373761h 0.442913v -0.427156h 0.442913v -0.373761h 0.442913v -0.427156h 0.442913v 0.694128h
 0.442913v 0.854311h 0.442913v -1.33486h 0.442913v -1.76202h 0.442913v 0.266972h 0.442913v 1.06789h 0.442913v -0.640733h 0.442913v 3.47064h 0.442913v -2.34936h 0.442913v -1.44165h 0.442913v 1.06789h 0.442913v -1.44165h 0.442913v 0.320367h 0.442913v
 0.907706h 0.442913v 0.9611h 0.442913v -2.50954h 0.442913v -1.17468h 0.442913v 0.9611h 0.442913v 0.0533945h 0.442913v 0.907706h 0.442913v 1.28147h 0.442913v 0.0533945h 0.442913v -0.320367h 0.442913v -1.97559h 0.442913v -0.9611h 0.442913v 1.86881h
 0.442913v -1.38826h 0.442913v 2.40275h 0.442913v -0.694128h 0.442913v -2.56293h 0.442913v 1.33486h 0.442913v 0.907706h 0.442913v 0.266972h 0.442913v 1.33486h 0.442913v 0.160183h 0.442913v -2.72312h 0.442913v 0.427156h 0.442913v -0.640733h 0.442913v
 0.587339h 0.442913v 0.373761h 0.442913v 2.29596h 0.442913v -1.76202h 0.442913v 0.266972h 0.442913v -1.17468h 0.442913v 1.01449h 0.442913v 0.587339h 0.442913v -0.747522h 0.442913v 1.70862h 0.442913v -1.17468h 0.442913v 0.0533945h 0.442913v -0.9611h
 0.442913v -0.213578h 0.442913v 1.17468h 0.442913v 0.907706h 0.442913v 0.9611h 0.442913v -1.12128h 0.442913v 0.320367h 0.442913v -0.640733h 0.442913v 0.320367h 0.442913v 1.44165h 0.442913v 0.640733h 0.442913v -0.48055h 0.442913v -1.22807h 0.442913v
 -0.907706h 0.442913v 1.76202h 0.442913v -0.533945h 0.442913v 0.9611h 0.442913v 1.12128h 0.442913v 0.427156h 0.442913v -2.24257h 0.442913v 0.747522h 0.442913v 0.427156h 0.442913v 0.213578h 0.442913v 1.01449h 0.442913v -0.694128h 0.442913v -0.320367h
 0.442913v -1.33486h 0.442913v 2.13578h 0.442913v 0.160183h 0.442913v 0.0533945h 1.32874v -0.320367h 0.442913v 0.9611h 0.442913v -0.48055h 0.442913v 0.106789h 0.442913v 0.427156h 0.442913v 0.640733h 0.442913v -1.06789h 0.442913v -0.640733h 0.442913v
 0.800917h 0.442913v 0.9611h 0.885827v -0.106789h 0.442913v 0.320367h 0.442913v -0.854311h 0.442913v 1.54844h 0.442913v -1.12128h 0.442913v 0.800917h 0.442913v -0.106789h 0.442913v -1.12128h 0.442913v 0.533945h 0.442913v -0.266972h 0.442913v
 -0.160183h 0.442913v -0.160183h 0.442913v 1.33486h 0.442913v -0.0533945h 0.442913v -0.427156h 0.442913v -0.533945h 0.442913v 0.640733h 0.442913v 0.266972h 0.442913v -0.373761h 0.442913v -0.213578h 0.442913v 0.9611h 0.442913v -1.01449h 0.442913v
 -0.160183h 0.442913v 0.907706h 0.442913v -0.427156h 0.442913v 0.213578h 0.442913v 0.160183h 0.442913v 0.160183h 0.442913v -0.106789h 0.442913v -0.48055h 0.442913v -0.213578h 0.442913v 0.266972h 0.442913v 0.587339h 0.442913v -0.160183h 0.442913v
 -0.694128h 0.442913v 0.0533945h 0.442913v 0.373761h 0.442913v -0.106789h 0.442913v 0.213578h 0.442913v -0.213578h 0.442913v -0.373761h 0.442913v -0.373761h 0.442913v -0.320367h 0.885827v -2.18917h 0.442913v -1.01449h 0.442913v -14.3631h 0.442913v
 -92.853h 0.442913v -178.925h 0.442913v 22.7994h 0.442913v 93.6005h 0.442913v 39.2449h 0.442913v 7.15486h 0.442913v -13.4554h 0.442913v 5.44623h 0.442913v 27.8719h 0.442913v 24.7216h 0.442913v 22.9062h 0.442913v 18.6347h 0.442913v 6.99467h 0.442913v
 -7.36843h 0.442913v 6.14036h 0.442913v -0.533945h 0.442913v 1.97559h 0.442913v 4.96568h 0.442913v 0.694128h 0.442913v -3.52403h 0.442913v -1.65523h 0.442913v 0.160183h 0.442913v 1.9222h 0.442913v 0.160183h 0.442913v 7.6888h 0.442913v -2.82991h
 0.442913v -2.56293h 0.442913v -1.28147h 0.442913v 1.38826h 0.442913v 0.266972h 0.442913v 2.24257h 0.442913v 4.21816h 0.442913v -2.18917h 0.442913v -4.32495h 0.442913v -1.49504h 0.442913v 1.12128h 0.442913v 0.106789h 0.442913v 5.49963h 0.442913v
 -0.587339h 0.442913v -6.03357h 0.442913v 0.800917h 0.442913v 1.44165h 0.442913v -2.72312h 0.442913v 4.27156h 0.442913v 1.70862h 0.442913v -0.907706h 0.442913v -2.99009h 0.442913v -0.0533945h 0.442913v -0.0533945h 0.442913v -0.320367h 0.442913v
 8.22275h 0.442913v 1.28147h 0.442913v -6.14036h 0.442913v 0.160183h 0.442913v 3.41725h 0.442913v 4.27156h 0.442913v 3.8978h 0.442913v 4.59192h 0.442913v 2.61633h 0.442913v 1.54844h 0.442913v 3.15027h 0.442913v 2.34936h 0.442913v 1.12128h 0.442913v
 0.694128h 0.442913v 0.106789h 0.442913v 0.160183h 0.885827" fill="none" stroke="#000099"/>
<path d="M57.1929,345.762h 453.543" fill="none" stroke="black"/>
<path d="M57.1929,336.541v 9.22031" fill="none" stroke="black"/>
<path d="M68.5315,341.152v 4.61016" fill="none" stroke="black"/>
<path d="M79.8701,341.152v 4.61016" fill="none" stroke="black"/>
<path d="M91.2087,341.152v 4.61016" fill="none" stroke="black"/>
<path d="M102.547,341.152v 4.61016" fill="none" stroke="black"/>
<path d="M113.886,336.541v 9.22031" fill="none" stroke="black"/>
<path d="M125.224,341.152v 4.61016" fill="none" stroke="black"/>
<path d="M136.563,341.152v 4.61016" fill="none" stroke="black"/>
<path d="M147.902,341.152v 4.61016" fill="none" stroke="black"/>
<path d="M159.24,341.152v 4.61016" fill="none" stroke="black"/>
<path d="M170.579,336.541v 9.22031" fill="none" stroke="black"/>
<path d="M181.917,341.152v 4.61016" fill="none" stroke="black"/>
<path d="M193.256,341.152v 4.61016" fill="none" stroke="black"/>
<path d="M204.594,341.152v 4.61016" fill="none" stroke="black"/>
<path d="M215.933,341.152v 4.61016" fill="none" stroke="black"/>
<path d="M227.272,336.541v 9.22031" fill="none" stroke="black"/>
<path d="M238.61,341.152v 4.61016" fill="none" stroke="black"/>
<path d="M249.949,341.152v 4.61016" fill="none" stroke="black"/>
<path d="M261.287,341.152v 4.61016" fill="none" stroke="black"/>
<path d="M272.626,341.152v 4.61016" fill="none" stroke="black"/>
<path d="M283.965,336.541v 9.22031" fill="none" stroke="black"/>
<path d="M295.303,341.152v 4.61016" fill="none" stroke="black"/>
<path d="M306.642,341.152v 4.61016" fill="none" stroke="black"/>
<path d="M317.98,341.152v 4.61016" fill="none" stroke="black"/>
<path d="M329.319,341.152v 4.61016" fill="none" stroke="black"/>
<path d="M340.657,336.541v 9.22031" fill="none" stroke="black"/>
<path d="M351.996,341.152v 4.61016" fill="none" stroke="black"/>
<path d="M363.335,341.152v 4.61016" fill="none" stroke="black"/>
<path d="M374.673,341.152v 4.61016" fill="none" stroke="black"/>
<path d="M386.012,341.152v 4.61016" fill="none" stroke="black"/>
<path d="M397.35,336.541v 9.22031" fill="none" stroke="black"/>
<path d="M408.689,341.152v 4.61016" fill="none" stroke="black"/>
<path d="M420.028,341.152v 4.61016" fill="none" stroke="black"/>
<path d="M431.366,341.152v 4.61016" fill="none" stroke="black"/>
<path d="M442.705,341.152v 4.61016" fill="none" stroke="black"/>
<path d="M454.043,336.541v 9.22031" fill="none" stroke="black"/>
<path d="M465.382,341.152v 4.61016" fill="none" stroke="black"/>
<path d="M476.72,341.152v 4.61016" fill="none" stroke="black"/>
<path d="M488.059,341.152v 4.61016" fill="none" stroke="black"/>
<path d="M499.398,341.152v 4.61016" fill="none" stroke="black"/>
<path d="M510.736,336.541v 9.22031" fill="none" stroke="black"/>
<text xml:space="preserve" x="53.2943" y="358.189" fill="black" font-size="12.836" font-family="Helvetica">0</text>
<text xml:space="preserve" x="110.15" y="358.189" fill="black" font-size="12.836" font-family="Helvetica">5</text>
<text xml:space="preserve" x="163.756" y="358.189" fill="black" font-size="12.836" font-family="Helvetica">10</text>
<text xml:space="preserve" x="219.799" y="358.189" fill="black" font-size="12.836" font-family="Helvetica">15</text>
<text xml:space="preserve" x="277.467" y="358.189" fill="black" font-size="12.836" font-family="Helvetica">20</text>
<text xml:space="preserve" x="332.698" y="358.189" fill="black" font-size="12.836" font-family="Helvetica">25</text>
<text xml:space="preserve" x="390.365" y="358.189" fill="black" font-size="12.836" font-family="Helvetica">30</text>
<text xml:space="preserve" x="446.408" y="358.189" fill="black" font-size="12.836" font-family="Helvetica">35</text>
<text xml:space="preserve" x="504.076" y="358.189" fill="black" font-size="12.836" font-family="Helvetica">40</text>
<text xml:space="preserve" x="441.535" y="370.372" fill="black" font-size="12.836" font-family="Helvetica">Energy [keV]</text>
<path d="M57.1929,345.762v -307.344" fill="none" stroke="black"/>
<path d="M70.7992,345.762h -13.6063" fill="none" stroke="black"/>
<path d="M63.9961,335.083h -6.80315" fill="none" stroke="black"/>
<path d="M63.9961,324.404h -6.80315" fill="none" stroke="black"/>
<path d="M63.9961,313.725h -6.80315" fill="none" stroke="black"/>
<path d="M63.9961,303.046h -6.80315" fill="none" stroke="black"/>
<path d="M70.7992,292.367h -13.6063" fill="none" stroke="black"/>
<path d="M63.9961,281.688h -6.80315" fill="none" stroke="black"/>
<path d="M63.9961,271.01h -6.80315" fill="none" stroke="black"/>
<path d="M63.9961,260.331h -6.80315" fill="none" stroke="black"/>
<path d="M63.9961,249.652h -6.80315" fill="none" stroke="black"/>
<path d="M70.7992,238.973h -13.6063" fill="none" stroke="black"/>
<path d="M63.9961,228.294h -6.80315" fill="none" stroke="black"/>
<path d="M63.9961,217.615h -6.80315" fill="none" stroke="black"/>
<path d="M63.9961,206.936h -6.80315" fill="none" stroke="black"/>
<path d="M63.9961,196.257h -6.80315" fill="none" stroke="black"/>
<path d="M70.7992,185.578h -13.6063" fill="none" stroke="black"/>
<path d="M63.9961,174.9h -6.80315" fill="none" stroke="black"/>
<path d="M63.9961,164.221h -6.80315" fill="none" stroke="black"/>
<path d="M63.9961,153.542h -6.80315" fill="none" stroke="black"/>
<path d="M63.9961,142.863h -6.80315" fill="none" stroke="black"/>
<path d="M70.7992,132.184h -13.6063" fill="none" stroke="black"/>
<path d="M63.9961,121.505h -6.80315" fill="none" stroke="black"/>
<path d="M63.9961,110.826h -6.80315" fill="none" stroke="black"/>
<path d="M63.9961,100.147h -6.80315" fill="none" stroke="black"/>
<path d="M63.9961,89.4684h -6.80315" fill="none" stroke="black"/>
<path d="M70.7992,78.7895h -13.6063" fill="none" stroke="black"/>
<path d="M70.7992,78.7895h -13.6063" fill="none" stroke="black"/>
<path d="M63.9961,68.1106h -6.80315" fill="none" stroke="black"/>
<path d="M63.9961,57.4317h -6.80315" fill="none" stroke="black"/>
<path d="M63.9961,46.7529h -6.80315" fill="none" stroke="black"/>
<text xml:space="preserve" x="47.6087" y="350.067" fill="black" font-size="12.836" font-family="Helvetica">0</text>
<text xml:space="preserve" x="27.3032" y="296.46" fill="black" font-size="12.836" font-family="Helvetica">1000</text>
<text xml:space="preserve" x="27.3032" y="243.666" fill="black" font-size="12.836" font-family="Helvetica">2000</text>
<text xml:space="preserve" x="27.3032" y="190.059" fill="black" font-size="12.836" font-family="Helvetica">3000</text>
<text xml:space="preserve" x="27.3032" y="136.453" fill="black" font-size="12.836" font-family="Helvetica">4000</text>
<text xml:space="preserve" x="27.3032" y="83.6586" fill="black" font-size="12.836" font-family="Helvetica">5000</text>
<g transform="rotate(-90,14.3077,69.8509)">
<text xml:space="preserve" x="14.3077" y="69.8509" fill="black" font-size="12.836" font-family="Helvetica">Event</text>
</g>
<text xml:space="preserve" x="209.24" y="18.681" fill="black" font-size="17.9813" font-family="Helvetica">Cs_015_calibrated</text>
<rect x="442.705" y="24.9717" width="113.386" height="61.4688" fill="white"/>
<path d="M442.705,86.4405h 113.386" fill="none" stroke="black"/>
<path d="M556.091,86.4405v -61.4688" fill="none" stroke="black"/>
<path d="M556.091,24.9717h -113.386" fill="none" stroke="black"/>
<path d="M442.705,24.9717v 61.4688" fill="none" stroke="black"/>
<text xml:space="preserve" x="448.033" y="36.5499" fill="black" font-size="12.5745" font-family="Helvetica">Cs_015_calibrated</text>
<path d="M442.705,40.3389h 113.386" fill="none" stroke="black"/>
<text xml:space="preserve" x="448.033" y="52.7943" fill="black" font-size="12.4124" font-family="Helvetica">Entries </text>
<text xml:space="preserve" x="506.513" y="52.7943" fill="black" font-size="12.4124" font-family="Helvetica"> 100820</text>
<text xml:space="preserve" x="448.033" y="68.2264" fill="black" font-size="12.4124" font-family="Helvetica">Mean  </text>
<text xml:space="preserve" x="513.01" y="68.2264" fill="black" font-size="12.4124" font-family="Helvetica">  32.27</text>
<text xml:space="preserve" x="448.033" y="82.8464" fill="black" font-size="12.4124" font-family="Helvetica">Std Dev   </text>
<text xml:space="preserve" x="513.01" y="82.8464" fill="black" font-size="12.4124" font-family="Helvetica">  9.463</text>
<text xml:space="preserve" x="209.24" y="18.681" fill="black" font-size="17.9813" font-family="Helvetica">Cs_015_calibrated</text></svg>
