<?xml version="1.0" standalone="no"?>
<svg width="567.429" height="384.969" viewBox="0 0 567.429 384.969" xmlns="http://www.w3.org/2000/svg" shape-rendering="crispEdges">
<title>
img/week1/calibrated_hist_high_gain/Cs_015.svg
</title>
<desc>
Creator: ROOT Version 6.22/09
CreationDate: Tue Jul 13 15:58:13 2021</desc>
<defs>
</defs>
<rect x="0.5" y="0" width="566.929" height="384.469" fill="white"/>
<rect x="57.1929" y="38.4469" width="453.543" height="307.575" fill="white"/>
<rect x="57.1929" y="38.4469" width="453.543" height="307.575" fill="none" stroke="black"/>
<path d="M57.1929,346.022h 65.5512v -0.0534347h 0.442913v -0.90839h 0.442913v -5.34347h 0.442913v -8.87016h 0.442913v -2.6183h 0.442913v 0.748085h 0.442913v 2.29769h 0.442913v 0.641216h 0.442913v 2.56486h 0.442913v 0.213739h 0.442913v 0.0534347h
 0.442913v 1.81678h 0.442913v 1.229h 0.442913v 0.854955h 0.442913v 1.97708h 0.442913v 0.160304h 0.442913v -0.427477h 0.442913v 0.0534347h 0.442913v 0.961824h 0.442913v 0.480912h 0.442913v 0.748085h 0.885827v -0.427477h 0.442913v 1.01526h 0.442913v
 -0.534347h 0.442913v 0.0534347h 0.442913v 0.854955h 0.442913v 0.480912h 0.442913v 0.160304h 0.442913v -0.748085h 0.442913v 0.374043h 0.442913v 0.267173h 0.442913v -0.80152h 0.442913v 0.748085h 0.442913v 0.534347h 0.442913v -0.80152h 0.442913v
 -0.320608h 0.442913v 0.374043h 0.442913v 0.694651h 0.442913v 0.0534347h 0.442913v 0.106869h 0.442913v -0.90839h 0.442913v -0.374043h 0.442913v 0.160304h 0.442913v 0.587781h 0.442913v 0.213739h 0.442913v 0.213739h 0.442913v -0.374043h 0.442913v
 0.267173h 0.442913v -1.06869h 0.442913v 0.694651h 0.442913v 0.0534347h 0.442913v 0.160304h 0.442913v 0.106869h 0.442913v 0.213739h 0.442913v -0.160304h 0.442913v -0.374043h 0.442913v -0.374043h 0.442913v 0.320608h 0.442913v 0.534347h 0.442913v
 0.267173h 0.442913v -0.80152h 0.442913v 0.267173h 0.442913v 0.213739h 0.442913v -0.213739h 0.442913v -0.0534347h 0.442913v 0.374043h 0.442913v -0.0534347h 0.442913v -0.0534347h 0.442913v -0.213739h 0.442913v 0.0534347h 0.442913v -0.106869h 0.442913v
 -0.267173h 0.442913v 0.641216h 0.442913v -0.374043h 0.442913v 0.213739h 0.442913v -0.427477h 0.442913v 0.374043h 0.442913v -0.534347h 0.442913v 0.160304h 0.442913v -0.160304h 0.442913v 0.641216h 0.442913v -0.90839h 0.442913v 0.374043h 0.442913v
 0.534347h 0.442913v 0.106869h 0.442913v -0.748085h 0.442913v 0.160304h 0.442913v 0.587781h 0.442913v -0.320608h 0.885827v 0.374043h 0.442913v 0.213739h 0.442913v -0.374043h 0.442913v 0.0534347h 0.442913v -0.641216h 0.442913v -0.374043h 0.442913v
 0.267173h 0.442913v 0.480912h 0.442913v 0.267173h 0.442913v 0.106869h 0.442913v -0.0534347h 0.442913v 0.106869h 0.442913v -0.748085h 0.885827v -0.534347h 0.442913v 1.3893h 0.442913v -0.748085h 0.442913v 0.213739h 0.442913v 0.0534347h 0.442913v
 -0.267173h 0.442913v 0.160304h 0.442913v 0.0534347h 0.442913v -0.106869h 0.442913v 0.160304h 0.442913v -0.427477h 0.442913v 0.427477h 0.442913v -0.160304h 0.442913v 0.0534347h 0.442913v 0.320608h 0.442913v 0.0534347h 0.442913v -0.854955h 0.442913v
 0.480912h 0.885827v -0.427477h 0.442913v 0.961824h 0.442913v -0.267173h 0.442913v -0.427477h 0.442913v 0.213739h 0.442913v -0.267173h 0.442913v -0.0534347h 0.442913v 0.160304h 0.442913v 0.374043h 0.442913v 0.320608h 0.442913v -0.641216h 0.442913v
 0.0534347h 0.442913v 0.106869h 0.442913v -0.267173h 0.442913v 0.374043h 0.442913v -0.213739h 0.442913v 0.267173h 0.442913v -0.480912h 0.442913v -0.106869h 0.442913v 0.160304h 0.442913v 0.534347h 0.442913v 0.106869h 0.442913v -0.106869h 0.442913v
 -0.160304h 0.442913v 0.106869h 0.885827v -0.374043h 0.442913v 0.480912h 0.442913v -0.320608h 0.442913v -0.160304h 0.442913v 0.213739h 0.442913v 0.320608h 0.442913v -0.854955h 0.442913v 0.480912h 0.442913v 0.267173h 0.442913v 0.106869h 0.442913v
 -0.267173h 0.442913v -0.374043h 0.442913v 0.160304h 0.442913v -0.106869h 0.442913v 0.480912h 0.442913v -0.694651h 0.442913v 0.427477h 0.442913v -0.694651h 0.442913v 1.01526h 0.442913v -0.160304h 0.442913v -0.106869h 0.442913v 0.106869h 0.442913v
 0.267173h 0.442913v 0.213739h 0.442913v -1.17556h 0.442913v 0.694651h 0.442913v 0.0534347h 0.442913v 0.480912h 0.442913v -0.320608h 0.442913v -0.160304h 0.442913v -0.374043h 0.442913v 0.106869h 0.442913v 0.106869h 0.442913v -0.0534347h 0.442913v
 0.587781h 0.442913v -0.213739h 0.442913v -0.267173h 0.442913v -0.587781h 0.442913v 0.320608h 0.442913v 0.213739h 0.442913v 0.694651h 0.442913v -0.587781h 0.442913v 0.106869h 0.442913v -0.480912h 0.442913v 0.320608h 0.442913v 0.267173h 0.442913v
 -0.374043h 0.442913v 0.106869h 0.442913v 0.160304h 0.442913v 0.0534347h 0.442913v 0.106869h 0.442913v -0.534347h 0.442913v 0.480912h 0.442913v -0.480912h 0.442913v 0.213739h 0.442913v 0.694651h 0.442913v -0.748085h 0.442913v 0.641216h 0.442913v
 -0.90839h 0.442913v 0.641216h 0.442913v 0.374043h 0.442913v -0.213739h 0.442913v -0.480912h 0.442913v 0.160304h 0.442913v -0.160304h 0.442913v 0.267173h 0.442913v 0.267173h 0.442913v 0.267173h 0.442913v -1.12213h 0.442913v 0.90839h 0.442913v
 -0.320608h 0.442913v -0.160304h 0.442913v -0.160304h 0.442913v 0.160304h 0.442913v 0.534347h 0.442913v -0.641216h 0.442913v 0.267173h 0.442913v -0.694651h 0.442913v 0.213739h 0.442913v 0.641216h 0.442913v -0.160304h 0.442913v -0.213739h 0.442913v
 -0.0534347h 0.442913v 0.587781h 0.442913v -0.374043h 0.442913v -0.106869h 0.442913v 0.106869h 0.442913v -0.160304h 0.442913v 0.160304h 0.442913v -0.374043h 0.442913v 0.480912h 0.442913v 0.106869h 0.442913v -0.587781h 0.442913v 0.106869h 0.885827v
 0.374043h 0.442913v -0.748085h 0.442913v 0.80152h 0.442913v -0.587781h 0.442913v 0.0534347h 0.442913v 0.267173h 0.442913v -0.160304h 0.442913v 0.427477h 0.442913v -0.213739h 0.442913v 0.267173h 0.442913v -0.374043h 0.442913v 0.160304h 0.442913v
 0.106869h 0.885827v -0.0534347h 0.442913v -0.213739h 0.442913v 0.320608h 0.442913v -0.267173h 0.442913v 0.694651h 0.442913v -0.160304h 0.442913v -0.160304h 0.442913v -0.320608h 0.442913v -0.267173h 0.442913v -0.267173h 0.442913v 0.480912h 0.442913v
 0.480912h 0.442913v -0.534347h 0.442913v 0.160304h 0.442913v 0.160304h 0.442913v -1.01526h 0.442913v 0.80152h 0.442913v 0.480912h 0.442913v -0.480912h 0.442913v -0.213739h 0.442913v 0.320608h 0.442913v -0.427477h 0.442913v 0.374043h 0.442913v
 -0.267173h 0.442913v 0.587781h 0.442913v -0.694651h 0.442913v -0.374043h 0.442913v 0.587781h 0.442913v -0.160304h 0.885827v 0.480912h 0.442913v 0.374043h 0.442913v -0.427477h 0.442913v -0.106869h 0.442913v 0.587781h 0.442913v -0.90839h 0.442913v
 0.854955h 0.442913v 0.0534347h 0.442913v -0.748085h 0.442913v 0.480912h 0.442913v -0.267173h 0.442913v 0.320608h 0.442913v -0.267173h 0.442913v -0.160304h 0.442913v -0.427477h 0.442913v 0.427477h 0.442913v -0.0534347h 0.442913v -0.534347h 0.442913v
 0.534347h 0.442913v -0.267173h 0.442913v 0.160304h 0.442913v 0.641216h 0.442913v -0.534347h 0.442913v -0.267173h 0.442913v 0.0534347h 0.442913v -0.0534347h 0.442913v 0.587781h 0.442913v 0.267173h 0.442913v -0.694651h 0.442913v -0.160304h 0.442913v
 -0.0534347h 0.442913v 0.160304h 0.442913v 0.374043h 0.885827v 0.267173h 0.442913v -0.267173h 0.442913v -0.480912h 0.442913v -0.106869h 0.442913v 0.0534347h 0.442913v 0.641216h 0.442913v -0.160304h 0.442913v -0.0534347h 0.442913v 0.267173h 0.442913v
 -0.320608h 0.442913v -0.213739h 0.442913v 0.480912h 0.442913v 0.320608h 0.442913v 0.0534347h 0.442913v -0.587781h 0.442913v -0.427477h 0.442913v 0.160304h 0.442913v 0.534347h 0.442913v -0.480912h 0.442913v 0.374043h 0.442913v -0.160304h 0.442913v
 -0.0534347h 0.442913v 0.160304h 0.442913v -0.160304h 0.442913v 0.0534347h 0.442913v -0.0534347h 0.442913v 0.534347h 0.442913v -0.106869h 0.442913v -0.748085h 0.442913v 0.694651h 0.442913v -0.694651h 0.442913v 0.534347h 0.442913v 0.106869h 0.442913v
 -0.694651h 0.442913v 0.160304h 0.442913v 0.106869h 0.442913v 0.320608h 0.442913v -0.0534347h 0.442913v -0.267173h 0.442913v -0.320608h 0.442913v 0.694651h 0.442913v -0.427477h 0.442913v -0.160304h 0.442913v -0.0534347h 0.442913v 0.534347h 0.442913v
 -0.587781h 0.442913v 0.320608h 0.442913v -0.480912h 0.442913v -0.106869h 0.442913v 0.106869h 0.442913v -0.160304h 0.442913v 0.694651h 0.442913v 0.0534347h 0.442913v -1.12213h 0.442913v 0.80152h 0.442913v -0.160304h 0.442913v 0.267173h 0.442913v
 -0.106869h 0.442913v 0.0534347h 0.442913v 0.106869h 0.442913v 0.320608h 0.442913v -1.33587h 0.442913v 0.427477h 0.442913v 0.587781h 0.885827v -0.160304h 0.442913v 0.694651h 0.442913v -1.12213h 0.442913v -0.0534347h 0.442913v -0.427477h 0.442913v
 0.160304h 0.442913v 0.854955h 0.442913v -0.587781h 0.442913v 0.427477h 0.442913v -1.17556h 0.885827v 0.694651h 0.442913v -0.534347h 0.442913v 1.229h 0.442913v -1.06869h 0.442913v 0.427477h 0.442913v -0.90839h 0.442913v 0.213739h 0.442913v -0.160304h
 0.442913v 0.534347h 0.442913v -0.0534347h 0.442913v 0.80152h 0.442913v -1.229h 0.885827v 0.427477h 0.442913v -0.694651h 0.442913v 0.587781h 0.442913v -0.213739h 0.442913v -0.106869h 0.442913v -0.267173h 0.442913v -0.480912h 0.442913v 0.320608h
 0.442913v 0.961824h 0.885827v 0.427477h 0.442913v -1.229h 0.442913v -0.427477h 0.442913v 0.320608h 0.442913v 0.641216h 0.442913v -0.587781h 0.442913v 0.427477h 0.442913v 0.480912h 0.442913v 0.106869h 0.442913v -1.17556h 0.442913v 1.12213h 0.442913v
 -0.748085h 0.442913v -0.106869h 0.442913v 1.17556h 0.442913v -0.854955h 0.442913v -0.587781h 0.442913v 0.213739h 0.442913v 0.480912h 0.442913v 0.427477h 0.442913v -0.961824h 0.442913v 0.267173h 0.442913v 0.160304h 0.442913v -0.587781h 0.442913v
 0.320608h 0.442913v 0.961824h 0.442913v -0.213739h 0.442913v -1.12213h 0.442913v 0.534347h 0.442913v -0.0534347h 0.442913v 0.748085h 0.442913v -0.320608h 0.442913v -0.106869h 0.442913v 0.694651h 0.442913v -0.427477h 0.442913v 0.0534347h 0.442913v
 -0.641216h 0.442913v 1.17556h 0.442913v -0.854955h 0.442913v 0.320608h 0.442913v 0.320608h 0.442913v -0.534347h 0.442913v -0.587781h 0.442913v 0.160304h 0.442913v 0.320608h 0.442913v 0.106869h 0.442913v 0.694651h 0.442913v -0.748085h 0.442913v
 0.106869h 0.442913v -0.106869h 0.442913v 0.534347h 0.442913v 0.427477h 0.442913v -0.374043h 0.442913v -0.320608h 0.442913v 0.160304h 0.442913v -0.0534347h 0.442913v -0.374043h 0.442913v 0.641216h 0.442913v 0.374043h 0.442913v -0.0534347h 0.442913v
 -0.213739h 0.442913v -0.320608h 0.442913v 0.106869h 0.442913v 0.480912h 0.442913v 0.160304h 0.442913v -0.106869h 0.442913v -0.534347h 0.885827v 0.320608h 0.442913v -0.267173h 0.442913v -0.641216h 0.442913v 1.06869h 0.885827v -0.160304h 0.442913v
 0.213739h 0.442913v 0.160304h 0.442913v -0.160304h 0.885827v 0.213739h 0.442913v 0.106869h 0.442913v -0.267173h 0.442913v -0.0534347h 0.442913v 0.427477h 0.442913v -0.587781h 0.442913v 0.0534347h 0.442913v -0.0534347h 0.442913v -0.267173h 0.442913v
 0.0534347h 0.442913v -0.106869h 0.442913v 0.480912h 0.442913v -0.374043h 0.442913v 0.694651h 0.885827v 0.267173h 0.442913v -0.427477h 0.442913v -0.0534347h 0.442913v -0.694651h 0.442913v 0.80152h 0.442913v 0.320608h 0.442913v -0.748085h 0.442913v
 0.480912h 0.442913v -0.427477h 0.442913v 0.480912h 0.442913v -0.80152h 0.442913v 0.641216h 0.442913v 0.427477h 0.442913v -0.587781h 0.442913v -0.374043h 0.442913v 0.534347h 0.442913v 0.320608h 0.442913v -0.320608h 0.442913v 0.534347h 0.442913v
 -0.160304h 0.442913v -0.641216h 0.442913v -0.0534347h 0.442913v -0.106869h 0.442913v 0.480912h 0.442913v 0.427477h 0.442913v -0.480912h 0.442913v -0.106869h 0.885827v -0.213739h 0.442913v 0.480912h 0.442913v -0.374043h 0.442913v 0.320608h 0.442913v
 0.213739h 0.442913v -0.480912h 0.885827v -0.160304h 0.442913v 0.641216h 0.442913v -0.160304h 0.442913v 0.267173h 0.442913v -0.90839h 0.442913v 0.854955h 0.442913v -0.106869h 0.442913v -0.534347h 0.442913v 0.480912h 0.442913v -0.106869h 0.442913v
 0.320608h 0.442913v -0.961824h 0.442913v 0.427477h 0.442913v 0.106869h 0.442913v -0.213739h 0.442913v -0.213739h 0.442913v 0.587781h 0.442913v -0.320608h 0.442913v -0.106869h 0.442913v 0.0534347h 0.442913v -0.106869h 0.442913v 0.160304h 0.442913v
 -0.106869h 0.442913v 0.213739h 0.442913v -0.427477h 0.442913v 0.854955h 0.442913v -0.427477h 0.442913v -0.748085h 0.442913v 0.854955h 0.442913v 0.213739h 0.442913v -0.213739h 0.442913v -0.641216h 0.442913v 0.320608h 0.442913v 0.106869h 0.442913v
 0.160304h 0.885827v 0.480912h 0.442913v -1.3893h 0.442913v 0.694651h 0.442913v 0.0534347h 0.442913v -0.0534347h 0.442913v -0.480912h 0.442913v 0.748085h 0.442913v -0.534347h 0.442913v 0.0534347h 0.442913v -0.427477h 0.442913v 0.90839h 0.442913v
 -1.01526h 0.442913v 0.213739h 0.442913v 1.01526h 0.442913v -1.01526h 0.442913v -0.213739h 0.442913v 0.0534347h 0.442913v 0.320608h 0.442913v -0.0534347h 0.442913v 0.267173h 0.442913v -0.374043h 0.442913v 0.0534347h 0.442913v -0.106869h 0.885827v
 0.213739h 0.442913v 0.160304h 0.442913v 0.0534347h 0.442913v -0.854955h 0.442913v 0.587781h 0.442913v -0.106869h 0.442913v -0.320608h 0.442913v -0.267173h 0.442913v 0.480912h 0.442913v -0.427477h 0.442913v -0.106869h 0.442913v 0.106869h 0.442913v
 -0.0534347h 0.442913v -0.480912h 0.442913v 0.854955h 0.442913v -0.160304h 0.442913v -0.480912h 0.442913v 0.160304h 0.442913v -0.587781h 0.885827v -0.267173h 0.442913v 0.106869h 0.442913v 1.3893h 0.442913v -1.92365h 0.442913v 0.267173h 0.442913v
 0.106869h 0.442913v -0.80152h 0.442913v 0.641216h 0.442913v 0.694651h 0.442913v -0.80152h 0.442913v -0.534347h 0.442913v 0.427477h 0.442913v -1.44274h 0.442913v 0.480912h 0.442913v 1.44274h 0.442913v -0.320608h 0.442913v -0.374043h 0.442913v
 -2.35113h 0.442913v 1.65647h 0.442913v 0.0534347h 0.442913v -0.641216h 0.442913v 1.44274h 0.442913v 0.374043h 0.442913v -0.961824h 0.442913v -1.70991h 0.442913v 0.374043h 0.442913v 0.267173h 0.442913v 1.12213h 0.442913v -0.854955h 0.442913v
 -1.28243h 0.442913v 0.320608h 0.442913v -0.427477h 0.442913v 1.17556h 0.442913v -0.961824h 0.442913v 0.534347h 0.442913v -0.641216h 0.442913v 0.374043h 0.442913v -0.427477h 0.442913v -0.374043h 0.442913v -0.427477h 0.442913v 0.694651h 0.442913v
 0.854955h 0.442913v -1.33587h 0.442913v -1.76334h 0.442913v 0.267173h 0.442913v 1.06869h 0.442913v -0.641216h 0.442913v 3.47325h 0.442913v -2.35113h 0.442913v -1.44274h 0.442913v 1.06869h 0.442913v -1.44274h 0.442913v 0.320608h 0.442913v 0.90839h
 0.442913v 0.961824h 0.442913v -2.51143h 0.442913v -1.17556h 0.442913v 0.961824h 0.442913v 0.0534347h 0.442913v 0.90839h 0.442913v 1.28243h 0.442913v 0.0534347h 0.442913v -0.320608h 0.442913v -1.97708h 0.442913v -0.961824h 0.442913v 1.87021h
 0.442913v -1.3893h 0.442913v 2.40456h 0.442913v -0.694651h 0.442913v -2.56486h 0.442913v 1.33587h 0.442913v 0.90839h 0.442913v 0.267173h 0.442913v 1.33587h 0.442913v 0.160304h 0.442913v -2.72517h 0.442913v 0.427477h 0.442913v -0.641216h 0.442913v
 0.587781h 0.442913v 0.374043h 0.442913v 2.29769h 0.442913v -1.76334h 0.442913v 0.267173h 0.442913v -1.17556h 0.442913v 1.01526h 0.442913v 0.587781h 0.442913v -0.748085h 0.442913v 1.70991h 0.442913v -1.17556h 0.442913v 0.0534347h 0.442913v -0.961824h
 0.442913v -0.213739h 0.442913v 1.17556h 0.442913v 0.90839h 0.442913v 0.961824h 0.442913v -1.12213h 0.442913v 0.320608h 0.442913v -0.641216h 0.442913v 0.320608h 0.442913v 1.44274h 0.442913v 0.641216h 0.442913v -0.480912h 0.442913v -1.229h 0.442913v
 -0.90839h 0.442913v 1.76334h 0.442913v -0.534347h 0.442913v 0.961824h 0.442913v 1.12213h 0.442913v 0.427477h 0.442913v -2.24426h 0.442913v 0.748085h 0.442913v 0.427477h 0.442913v 0.213739h 0.442913v 1.01526h 0.442913v -0.694651h 0.442913v -0.320608h
 0.442913v -1.33587h 0.442913v 2.13739h 0.442913v 0.160304h 0.442913v 0.0534347h 1.32874v -0.320608h 0.442913v 0.961824h 0.442913v -0.480912h 0.442913v 0.106869h 0.442913v 0.427477h 0.442913v 0.641216h 0.442913v -1.06869h 0.442913v -0.641216h
 0.442913v 0.80152h 0.442913v 0.961824h 0.885827v -0.106869h 0.442913v 0.320608h 0.442913v -0.854955h 0.442913v 1.54961h 0.442913v -1.12213h 0.442913v 0.80152h 0.442913v -0.106869h 0.442913v -1.12213h 0.442913v 0.534347h 0.442913v -0.267173h
 0.442913v -0.160304h 0.442913v -0.160304h 0.442913v 1.33587h 0.442913v -0.0534347h 0.442913v -0.427477h 0.442913v -0.534347h 0.442913v 0.641216h 0.442913v 0.267173h 0.442913v -0.374043h 0.442913v -0.213739h 0.442913v 0.961824h 0.442913v -1.01526h
 0.442913v -0.160304h 0.442913v 0.90839h 0.442913v -0.427477h 0.442913v 0.213739h 0.442913v 0.160304h 0.442913v 0.160304h 0.442913v -0.106869h 0.442913v -0.480912h 0.442913v -0.213739h 0.442913v 0.267173h 0.442913v 0.587781h 0.442913v -0.160304h
 0.442913v -0.694651h 0.442913v 0.0534347h 0.442913v 0.374043h 0.442913v -0.106869h 0.442913v 0.213739h 0.442913v -0.213739h 0.442913v -0.374043h 0.442913v -0.374043h 0.442913v -0.320608h 0.885827v -2.19082h 0.442913v -1.01526h 0.442913v -14.3739h
 0.442913v -92.9229h 0.442913v -179.06h 0.442913v 22.8166h 0.442913v 93.671h 0.442913v 39.2745h 0.442913v 7.16025h 0.442913v -13.4655h 0.442913v 5.45034h 0.442913v 27.8929h 0.442913v 24.7403h 0.442913v 22.9235h 0.442913v 18.6487h 0.442913v 6.99994h
 0.442913v -7.37399h 0.442913v 6.14499h 0.442913v -0.534347h 0.442913v 1.97708h 0.442913v 4.96942h 0.442913v 0.694651h 0.442913v -3.52669h 0.442913v -1.65647h 0.442913v 0.160304h 0.442913v 1.92365h 0.442913v 0.160304h 0.442913v 7.69459h 0.442913v
 -2.83204h 0.442913v -2.56486h 0.442913v -1.28243h 0.442913v 1.3893h 0.442913v 0.267173h 0.442913v 2.24426h 0.442913v 4.22134h 0.442913v -2.19082h 0.442913v -4.32821h 0.442913v -1.49617h 0.442913v 1.12213h 0.442913v 0.106869h 0.442913v 5.50377h
 0.442913v -0.587781h 0.442913v -6.03812h 0.442913v 0.80152h 0.442913v 1.44274h 0.442913v -2.72517h 0.442913v 4.27477h 0.442913v 1.70991h 0.442913v -0.90839h 0.442913v -2.99234h 0.442913v -0.0534347h 0.442913v -0.0534347h 0.442913v -0.320608h
 0.442913v 8.22894h 0.442913v 1.28243h 0.442913v -6.14499h 0.442913v 0.160304h 0.442913v 3.41982h 0.442913v 4.27477h 0.442913v 3.90073h 0.442913v 4.59538h 0.442913v 2.6183h 0.442913v 1.54961h 0.442913v 3.15265h 0.442913v 2.35113h 0.442913v 1.12213h
 0.442913v 0.694651h 0.442913v 0.106869h 0.442913v 0.160304h 0.885827" fill="none" stroke="#000099"/>
<path d="M57.1929,346.022h 453.543" fill="none" stroke="black"/>
<path d="M57.1929,336.795v 9.22726" fill="none" stroke="black"/>
<path d="M68.5315,341.409v 4.61363" fill="none" stroke="black"/>
<path d="M79.8701,341.409v 4.61363" fill="none" stroke="black"/>
<path d="M91.2087,341.409v 4.61363" fill="none" stroke="black"/>
<path d="M102.547,341.409v 4.61363" fill="none" stroke="black"/>
<path d="M113.886,336.795v 9.22726" fill="none" stroke="black"/>
<path d="M125.224,341.409v 4.61363" fill="none" stroke="black"/>
<path d="M136.563,341.409v 4.61363" fill="none" stroke="black"/>
<path d="M147.902,341.409v 4.61363" fill="none" stroke="black"/>
<path d="M159.24,341.409v 4.61363" fill="none" stroke="black"/>
<path d="M170.579,336.795v 9.22726" fill="none" stroke="black"/>
<path d="M181.917,341.409v 4.61363" fill="none" stroke="black"/>
<path d="M193.256,341.409v 4.61363" fill="none" stroke="black"/>
<path d="M204.594,341.409v 4.61363" fill="none" stroke="black"/>
<path d="M215.933,341.409v 4.61363" fill="none" stroke="black"/>
<path d="M227.272,336.795v 9.22726" fill="none" stroke="black"/>
<path d="M238.61,341.409v 4.61363" fill="none" stroke="black"/>
<path d="M249.949,341.409v 4.61363" fill="none" stroke="black"/>
<path d="M261.287,341.409v 4.61363" fill="none" stroke="black"/>
<path d="M272.626,341.409v 4.61363" fill="none" stroke="black"/>
<path d="M283.965,336.795v 9.22726" fill="none" stroke="black"/>
<path d="M295.303,341.409v 4.61363" fill="none" stroke="black"/>
<path d="M306.642,341.409v 4.61363" fill="none" stroke="black"/>
<path d="M317.98,341.409v 4.61363" fill="none" stroke="black"/>
<path d="M329.319,341.409v 4.61363" fill="none" stroke="black"/>
<path d="M340.657,336.795v 9.22726" fill="none" stroke="black"/>
<path d="M351.996,341.409v 4.61363" fill="none" stroke="black"/>
<path d="M363.335,341.409v 4.61363" fill="none" stroke="black"/>
<path d="M374.673,341.409v 4.61363" fill="none" stroke="black"/>
<path d="M386.012,341.409v 4.61363" fill="none" stroke="black"/>
<path d="M397.35,336.795v 9.22726" fill="none" stroke="black"/>
<path d="M408.689,341.409v 4.61363" fill="none" stroke="black"/>
<path d="M420.028,341.409v 4.61363" fill="none" stroke="black"/>
<path d="M431.366,341.409v 4.61363" fill="none" stroke="black"/>
<path d="M442.705,341.409v 4.61363" fill="none" stroke="black"/>
<path d="M454.043,336.795v 9.22726" fill="none" stroke="black"/>
<path d="M465.382,341.409v 4.61363" fill="none" stroke="black"/>
<path d="M476.72,341.409v 4.61363" fill="none" stroke="black"/>
<path d="M488.059,341.409v 4.61363" fill="none" stroke="black"/>
<path d="M499.398,341.409v 4.61363" fill="none" stroke="black"/>
<path d="M510.736,336.795v 9.22726" fill="none" stroke="black"/>
<text xml:space="preserve" x="53.446" y="358.403" fill="black" font-size="12.8453" font-family="Helvetica">0</text>
<text xml:space="preserve" x="110.465" y="358.403" fill="black" font-size="12.8453" font-family="Helvetica">5</text>
<text xml:space="preserve" x="163.411" y="358.403" fill="black" font-size="12.8453" font-family="Helvetica">10</text>
<text xml:space="preserve" x="219.615" y="358.403" fill="black" font-size="12.8453" font-family="Helvetica">15</text>
<text xml:space="preserve" x="277.448" y="358.403" fill="black" font-size="12.8453" font-family="Helvetica">20</text>
<text xml:space="preserve" x="332.838" y="358.403" fill="black" font-size="12.8453" font-family="Helvetica">25</text>
<text xml:space="preserve" x="390.671" y="358.403" fill="black" font-size="12.8453" font-family="Helvetica">30</text>
<text xml:space="preserve" x="446.061" y="358.403" fill="black" font-size="12.8453" font-family="Helvetica">35</text>
<text xml:space="preserve" x="503.894" y="358.403" fill="black" font-size="12.8453" font-family="Helvetica">40</text>
<text xml:space="preserve" x="441.173" y="370.622" fill="black" font-size="12.8453" font-family="Helvetica">Energy [keV]</text>
<path d="M57.1929,346.022v -307.575" fill="none" stroke="black"/>
<path d="M70.7992,346.022h -13.6063" fill="none" stroke="black"/>
<path d="M63.9961,335.335h -6.80315" fill="none" stroke="black"/>
<path d="M63.9961,324.648h -6.80315" fill="none" stroke="black"/>
<path d="M63.9961,313.961h -6.80315" fill="none" stroke="black"/>
<path d="M63.9961,303.275h -6.80315" fill="none" stroke="black"/>
<path d="M70.7992,292.588h -13.6063" fill="none" stroke="black"/>
<path d="M63.9961,281.901h -6.80315" fill="none" stroke="black"/>
<path d="M63.9961,271.214h -6.80315" fill="none" stroke="black"/>
<path d="M63.9961,260.527h -6.80315" fill="none" stroke="black"/>
<path d="M63.9961,249.84h -6.80315" fill="none" stroke="black"/>
<path d="M70.7992,239.153h -13.6063" fill="none" stroke="black"/>
<path d="M63.9961,228.466h -6.80315" fill="none" stroke="black"/>
<path d="M63.9961,217.779h -6.80315" fill="none" stroke="black"/>
<path d="M63.9961,207.092h -6.80315" fill="none" stroke="black"/>
<path d="M63.9961,196.405h -6.80315" fill="none" stroke="black"/>
<path d="M70.7992,185.718h -13.6063" fill="none" stroke="black"/>
<path d="M63.9961,175.031h -6.80315" fill="none" stroke="black"/>
<path d="M63.9961,164.344h -6.80315" fill="none" stroke="black"/>
<path d="M63.9961,153.657h -6.80315" fill="none" stroke="black"/>
<path d="M63.9961,142.97h -6.80315" fill="none" stroke="black"/>
<path d="M70.7992,132.284h -13.6063" fill="none" stroke="black"/>
<path d="M63.9961,121.597h -6.80315" fill="none" stroke="black"/>
<path d="M63.9961,110.91h -6.80315" fill="none" stroke="black"/>
<path d="M63.9961,100.223h -6.80315" fill="none" stroke="black"/>
<path d="M63.9961,89.5358h -6.80315" fill="none" stroke="black"/>
<path d="M70.7992,78.8489h -13.6063" fill="none" stroke="black"/>
<path d="M70.7992,78.8489h -13.6063" fill="none" stroke="black"/>
<path d="M63.9961,68.1619h -6.80315" fill="none" stroke="black"/>
<path d="M63.9961,57.475h -6.80315" fill="none" stroke="black"/>
<path d="M63.9961,46.7881h -6.80315" fill="none" stroke="black"/>
<text xml:space="preserve" x="47.7441" y="350.258" fill="black" font-size="12.8453" font-family="Helvetica">0</text>
<text xml:space="preserve" x="27.3803" y="297.312" fill="black" font-size="12.8453" font-family="Helvetica">1000</text>
<text xml:space="preserve" x="27.3803" y="243.551" fill="black" font-size="12.8453" font-family="Helvetica">2000</text>
<text xml:space="preserve" x="27.3803" y="190.605" fill="black" font-size="12.8453" font-family="Helvetica">3000</text>
<text xml:space="preserve" x="27.3803" y="136.845" fill="black" font-size="12.8453" font-family="Helvetica">4000</text>
<text xml:space="preserve" x="27.3803" y="83.0844" fill="black" font-size="12.8453" font-family="Helvetica">5000</text>
<g transform="rotate(-90,14.3474,70.0516)">
<text xml:space="preserve" x="14.3474" y="70.0516" fill="black" font-size="12.8453" font-family="Helvetica">Event</text>
</g>
<text xml:space="preserve" x="209.026" y="18.7347" fill="black" font-size="18.0316" font-family="Helvetica">Cs_015_calibrated</text>
<rect x="442.705" y="24.9905" width="113.386" height="61.5151" fill="white"/>
<path d="M442.705,86.5056h 113.386" fill="none" stroke="black"/>
<path d="M556.091,86.5056v -61.5151" fill="none" stroke="black"/>
<path d="M556.091,24.9905h -113.386" fill="none" stroke="black"/>
<path d="M442.705,24.9905v 61.5151" fill="none" stroke="black"/>
<text xml:space="preserve" x="447.69" y="36.6549" fill="black" font-size="12.5522" font-family="Helvetica">Cs_015_calibrated</text>
<path d="M442.705,40.3693h 113.386" fill="none" stroke="black"/>
<text xml:space="preserve" x="447.69" y="52.946" fill="black" font-size="12.3904" font-family="Helvetica">Entries </text>
<text xml:space="preserve" x="506.338" y="52.946" fill="black" font-size="12.3904" font-family="Helvetica"> 100820</text>
<text xml:space="preserve" x="447.69" y="67.6079" fill="black" font-size="12.3904" font-family="Helvetica">Mean  </text>
<text xml:space="preserve" x="512.854" y="67.6079" fill="black" font-size="12.3904" font-family="Helvetica">  32.27</text>
<text xml:space="preserve" x="447.69" y="83.0844" fill="black" font-size="12.3904" font-family="Helvetica">Std Dev   </text>
<text xml:space="preserve" x="512.854" y="83.0844" fill="black" font-size="12.3904" font-family="Helvetica">  9.463</text>
<text xml:space="preserve" x="209.026" y="18.7347" fill="black" font-size="18.0316" font-family="Helvetica">Cs_015_calibrated</text></svg>
