<?xml version="1.0" standalone="no"?>
<svg width="567.429" height="384.969" viewBox="0 0 567.429 384.969" xmlns="http://www.w3.org/2000/svg" shape-rendering="crispEdges">
<title>
img/week1/calibrated_hist_high_gain/Cs_015.svg
</title>
<desc>
Creator: ROOT Version 6.22/09
CreationDate: Wed Jul 14 10:00:31 2021</desc>
<defs>
</defs>
<rect x="0.5" y="0" width="566.929" height="384.469" fill="white"/>
<rect x="57.1929" y="38.4469" width="453.543" height="307.575" fill="white"/>
<rect x="57.1929" y="38.4469" width="453.543" height="307.575" fill="none" stroke="black"/>
<path d="M57.1929,346.022h 54.0354v -0.0549585h 0.442913v -0.219834h 0.442913v -1.75867h 0.442913v -7.80411h 0.442913v -8.29874h 0.442913v 0.164876h 0.442913v 2.19834h 0.442913v 1.92355h 0.442913v 0.439668h 0.442913v 1.70371h 0.442913v 0.824378h
 0.442913v -0.274793h 0.442913v 2.19834h 0.442913v 0.604544h 0.442913v 1.04421h 0.442913v 2.03347h 0.885827v -0.329751h 0.442913v 0.219834h 0.442913v 0.494627h 0.442913v 0.164876h 0.442913v 1.92355h 0.442913v -0.659502h 0.442913v -0.164876h 0.442913v
 0.219834h 0.442913v 0.109917h 0.885827v 0.549585h 0.442913v 0.659502h 0.442913v 0.274793h 0.442913v -0.38471h 0.442913v -0.329751h 0.442913v 0.824378h 0.442913v -0.824378h 0.442913v 0.329751h 0.442913v 0.439668h 0.442913v 0.0549585h 0.442913v
 -0.494627h 0.442913v -0.494627h 0.442913v 0.604544h 0.442913v 0.659502h 0.442913v 0.109917h 0.442913v -0.219834h 0.442913v -0.604544h 0.442913v -0.38471h 0.442913v 0.109917h 0.442913v 0.494627h 0.442913v 0.164876h 0.442913v 0.329751h 0.442913v
 -0.164876h 0.442913v -0.164876h 0.442913v -0.494627h 0.885827v 0.219834h 0.442913v 0.549585h 0.442913v -0.164876h 0.442913v 0.38471h 0.442913v -0.329751h 0.442913v -0.439668h 0.442913v 0.164876h 0.442913v -0.219834h 0.442913v -0.109917h 0.442913v
 1.48388h 0.442913v -0.659502h 0.442913v -0.659502h 0.442913v 0.439668h 0.442913v -0.109917h 0.442913v 0.0549585h 0.442913v 0.0549585h 0.442913v 0.109917h 1.32874v -0.164876h 1.32874v -0.439668h 0.442913v 0.439668h 0.442913v 0.0549585h 0.442913v
 0.109917h 0.442913v -0.274793h 0.442913v -0.109917h 0.442913v -0.274793h 0.442913v 0.109917h 0.442913v 0.219834h 0.442913v 0.219834h 0.442913v -0.38471h 0.442913v -0.38471h 0.442913v 0.824378h 0.442913v -0.109917h 0.442913v -0.164876h 0.442913v
 -0.219834h 0.442913v 0.219834h 0.442913v 0.274793h 0.442913v -0.0549585h 0.442913v 0.219834h 0.442913v -0.0549585h 0.442913v 0.329751h 0.442913v -0.439668h 0.885827v -0.439668h 0.442913v -0.494627h 0.442913v 0.219834h 0.442913v 0.769419h 0.442913v
 -0.109917h 0.442913v 0.274793h 0.442913v 0.164876h 0.442913v -0.439668h 0.442913v -0.329751h 0.442913v 0.109917h 0.442913v -0.659502h 0.442913v 1.04421h 0.442913v -0.109917h 0.442913v -0.439668h 0.885827v 0.439668h 0.442913v -0.494627h 0.442913v
 0.329751h 0.442913v 0.329751h 0.442913v -0.329751h 0.442913v -0.38471h 0.442913v 0.274793h 0.442913v 0.0549585h 0.442913v 0.109917h 0.442913v -0.109917h 0.442913v 0.274793h 0.442913v 0.164876h 0.442913v -0.989253h 0.442913v 0.549585h 0.885827v
 -0.439668h 0.442913v 0.989253h 0.442913v -0.274793h 0.442913v -0.439668h 0.885827v 0.329751h 0.442913v -0.329751h 0.442913v -0.109917h 0.442913v 0.494627h 0.442913v 0.439668h 0.442913v -0.934295h 0.442913v 0.604544h 0.442913v -0.38471h 0.442913v
 0.329751h 0.442913v -0.549585h 0.442913v 0.494627h 0.885827v -0.164876h 0.442913v -0.549585h 0.442913v 0.274793h 0.442913v 0.329751h 0.442913v 0.219834h 0.442913v 0.329751h 0.442913v -0.494627h 0.442913v 0.0549585h 0.442913v 0.219834h 0.442913v
 -0.219834h 0.442913v -0.274793h 0.442913v 0.439668h 0.442913v -0.219834h 0.442913v -0.219834h 0.442913v 0.38471h 0.885827v -0.494627h 0.442913v 0.38471h 0.442913v -0.274793h 0.442913v 0.38471h 0.442913v 0.109917h 0.442913v -0.329751h 0.442913v
 0.164876h 0.442913v -0.879336h 0.442913v 1.37396h 0.442913v -1.09917h 0.442913v 0.38471h 0.442913v -0.549585h 0.442913v 0.549585h 0.442913v 0.439668h 0.442913v -0.494627h 0.442913v 0.109917h 0.442913v 0.439668h 0.442913v -0.109917h 0.885827v
 -0.659502h 0.442913v 0.494627h 0.442913v 0.109917h 0.442913v 0.38471h 0.442913v -0.329751h 0.442913v -0.109917h 0.442913v -0.274793h 0.442913v 0.0549585h 0.885827v -0.164876h 0.442913v 0.714461h 0.442913v -0.0549585h 0.442913v -0.439668h 0.442913v
 -0.329751h 0.442913v 0.219834h 0.442913v -0.219834h 0.442913v 0.824378h 0.442913v -0.329751h 0.442913v 0.274793h 0.442913v -0.329751h 0.442913v -0.38471h 0.442913v 0.549585h 0.442913v -0.0549585h 0.442913v -0.439668h 0.442913v 0.329751h 0.442913v
 0.274793h 0.442913v -0.219834h 0.442913v 0.274793h 0.442913v -0.549585h 0.442913v 0.439668h 0.442913v -0.659502h 0.442913v 0.439668h 0.442913v 0.659502h 0.442913v -0.769419h 0.442913v 0.604544h 0.442913v -0.879336h 0.442913v 0.659502h 0.442913v
 0.329751h 0.442913v -0.274793h 0.442913v -0.109917h 0.442913v -0.274793h 0.442913v 0.274793h 0.442913v -0.274793h 0.442913v 0.604544h 0.442913v -0.109917h 0.442913v -0.164876h 0.442913v -0.329751h 0.442913v 0.494627h 0.442913v -0.109917h 0.442913v
 -0.494627h 0.442913v -0.109917h 0.442913v 0.714461h 0.442913v -0.219834h 0.442913v -0.0549585h 0.442913v -0.0549585h 0.442913v -0.549585h 0.442913v 0.219834h 0.442913v 0.659502h 0.442913v -0.38471h 0.885827v -0.109917h 0.442913v 0.549585h 0.442913v
 -0.329751h 0.885827v -0.164876h 0.442913v 0.0549585h 0.442913v 0.109917h 0.885827v -0.219834h 0.442913v 0.274793h 0.442913v -0.494627h 0.442913v 0.219834h 0.442913v 0.549585h 0.442913v -0.769419h 0.442913v 0.109917h 0.442913v 0.164876h 0.442913v
 0.109917h 0.442913v -0.549585h 0.442913v 0.38471h 0.442913v 0.219834h 0.442913v -0.274793h 0.442913v 0.38471h 0.442913v -0.0549585h 0.442913v -0.0549585h 0.442913v -0.219834h 0.442913v 0.274793h 0.442913v 0.0549585h 0.442913v 0.0549585h 0.442913v
 -0.164876h 0.442913v -0.164876h 0.442913v 0.329751h 0.442913v -0.38471h 0.442913v 1.04421h 0.442913v -0.439668h 0.442913v -0.274793h 0.442913v -0.164876h 0.442913v -0.0549585h 0.442913v -0.329751h 0.442913v 0.164876h 0.442913v 0.109917h 0.442913v
 0.494627h 0.442913v -0.439668h 0.442913v 0.109917h 0.442913v -0.109917h 0.442913v -0.439668h 0.442913v 0.659502h 0.442913v 0.109917h 0.442913v -0.38471h 0.442913v -0.109917h 0.442913v 0.219834h 0.442913v -0.38471h 0.442913v 0.549585h 0.442913v
 -0.219834h 0.442913v 0.38471h 0.442913v -0.714461h 0.442913v -0.274793h 0.442913v 0.494627h 0.442913v -0.0549585h 0.442913v 0.109917h 0.885827v 0.659502h 0.442913v -0.38471h 0.885827v 0.439668h 0.442913v -0.714461h 0.442913v 0.38471h 0.442913v
 0.38471h 0.442913v -0.494627h 0.442913v 0.109917h 0.442913v 0.0549585h 0.442913v -0.329751h 0.442913v 0.38471h 0.442913v -0.274793h 0.442913v -0.274793h 0.442913v -0.274793h 0.442913v 0.604544h 0.442913v -0.219834h 0.442913v -0.659502h 0.442913v
 0.604544h 0.442913v -0.274793h 0.442913v 0.494627h 0.442913v 0.274793h 0.442913v -0.549585h 0.442913v -0.109917h 1.32874v 0.439668h 0.442913v 0.439668h 0.442913v -0.879336h 0.442913v 0.164876h 0.442913v -0.439668h 0.442913v 0.439668h 0.442913v
 0.164876h 0.442913v -0.109917h 0.442913v 0.659502h 0.442913v -0.219834h 0.442913v -0.879336h 0.442913v 0.38471h 0.442913v -0.439668h 0.442913v 0.329751h 0.442913v 0.934295h 0.442913v -1.15413h 0.442913v 0.934295h 0.442913v -0.494627h 0.442913v
 -0.0549585h 0.885827v 0.329751h 0.442913v 0.274793h 0.885827v -0.439668h 0.442913v -0.549585h 0.442913v 0.274793h 0.442913v 0.494627h 0.442913v -0.549585h 0.442913v 0.439668h 0.442913v -0.164876h 0.442913v -0.0549585h 0.442913v 0.219834h 0.442913v
 -0.109917h 0.442913v -0.219834h 0.885827v 0.659502h 0.442913v -0.109917h 0.442913v -0.274793h 0.442913v -0.219834h 0.442913v 0.164876h 0.442913v -0.329751h 0.442913v 0.274793h 0.442913v 0.164876h 0.442913v -0.494627h 0.442913v -0.0549585h 0.442913v
 0.38471h 0.442913v 0.274793h 0.442913v -0.439668h 0.442913v 0.219834h 0.442913v -0.714461h 0.442913v 0.879336h 0.442913v -0.439668h 0.442913v -0.164876h 0.885827v 0.439668h 0.442913v -0.604544h 0.442913v 0.38471h 0.442913v -0.274793h 0.442913v
 -0.549585h 0.442913v 0.274793h 0.442913v 0.329751h 0.442913v -0.164876h 0.442913v 0.769419h 0.442913v -1.37396h 0.442913v 0.549585h 0.885827v 0.109917h 0.442913v 0.659502h 0.442913v -0.934295h 0.442913v 0.549585h 0.442913v 0.274793h 0.442913v
 -0.604544h 0.442913v -0.38471h 0.442913v 0.549585h 0.442913v -0.0549585h 0.442913v 0.164876h 0.885827v 0.329751h 0.442913v -0.714461h 0.442913v -0.274793h 0.442913v -0.219834h 0.442913v -0.0549585h 0.442913v 0.934295h 0.442913v -0.604544h 0.442913v
 0.439668h 0.442913v -0.989253h 0.442913v -0.164876h 0.442913v 0.714461h 0.442913v -0.604544h 0.442913v 0.879336h 0.442913v -0.329751h 0.885827v -0.274793h 0.442913v -0.824378h 0.442913v 0.604544h 0.442913v 0.0549585h 0.885827v 0.604544h 0.442913v
 -0.219834h 0.442913v -1.04421h 0.442913v 0.769419h 0.442913v -0.109917h 0.442913v -0.164876h 0.442913v 0.164876h 0.442913v -0.274793h 0.442913v -0.0549585h 0.442913v -0.38471h 0.442913v -0.274793h 0.442913v 0.604544h 0.442913v 0.549585h 0.885827v
 0.494627h 0.442913v -1.15413h 0.442913v -0.659502h 0.442913v 0.439668h 0.442913v 0.934295h 0.442913v -1.09917h 0.442913v 1.09917h 0.442913v -0.164876h 0.442913v 0.38471h 0.442913v -1.04421h 0.442913v 0.879336h 0.442913v -0.824378h 0.442913v
 0.439668h 0.442913v 0.219834h 0.885827v -0.824378h 0.442913v 0.659502h 0.442913v -0.824378h 0.442913v 1.20909h 0.442913v -0.274793h 0.442913v -0.494627h 0.885827v 0.164876h 0.442913v -0.329751h 0.442913v 0.219834h 0.442913v 0.989253h 0.442913v
 -0.219834h 0.442913v -1.26405h 0.442913v 0.549585h 0.885827v 0.604544h 0.442913v -0.164876h 0.442913v -0.219834h 0.442913v 0.879336h 0.442913v -0.219834h 0.442913v -0.549585h 0.442913v 0.274793h 0.885827v -0.769419h 0.442913v 1.04421h 0.442913v
 0.494627h 0.442913v -1.04421h 0.442913v -0.274793h 0.442913v 0.109917h 0.442913v -0.0549585h 0.442913v -0.164876h 0.442913v 1.15413h 0.442913v -0.494627h 0.442913v 0.329751h 0.442913v -0.824378h 0.442913v 0.494627h 0.442913v 0.109917h 0.442913v
 0.824378h 0.442913v -0.659502h 0.442913v -0.219834h 0.442913v -0.0549585h 0.442913v 0.219834h 0.442913v -0.439668h 0.442913v 0.604544h 0.442913v 0.329751h 0.885827v -0.0549585h 0.442913v -0.274793h 0.442913v -0.439668h 0.442913v 0.934295h 0.442913v
 -0.164876h 0.442913v 0.164876h 0.442913v -0.274793h 0.442913v -0.329751h 0.442913v 0.219834h 0.442913v 0.109917h 0.442913v -0.439668h 0.442913v -0.329751h 0.442913v 0.934295h 0.442913v 0.164876h 0.442913v -0.549585h 0.442913v 0.439668h 0.442913v
 0.329751h 0.442913v -0.38471h 0.442913v 0.329751h 0.442913v -0.274793h 0.442913v 0.219834h 0.885827v -0.164876h 0.442913v 0.329751h 0.442913v -0.604544h 0.442913v 0.109917h 0.442913v 0.0549585h 0.442913v -0.219834h 0.442913v -0.0549585h 0.442913v
 -0.164876h 0.442913v 0.0549585h 0.442913v 0.219834h 0.442913v 0.439668h 0.442913v 0.164876h 0.885827v 0.164876h 0.442913v -0.38471h 0.442913v -0.659502h 0.442913v 0.219834h 0.442913v 1.04421h 0.442913v -0.934295h 0.442913v 0.164876h 0.442913v
 0.219834h 0.442913v -0.494627h 0.442913v 0.549585h 0.442913v -0.494627h 0.442913v 0.439668h 0.442913v 0.219834h 0.442913v -0.38471h 0.442913v -0.439668h 0.442913v 0.659502h 0.442913v 0.109917h 0.442913v -0.219834h 0.442913v 0.604544h 0.442913v
 -0.274793h 0.442913v -0.494627h 0.442913v -0.219834h 0.442913v 0.0549585h 0.442913v 0.274793h 0.442913v 0.659502h 0.442913v -0.714461h 0.442913v 0.0549585h 0.442913v -0.38471h 0.442913v 0.659502h 0.442913v -0.274793h 0.442913v -0.329751h 0.442913v
 0.549585h 0.442913v -0.0549585h 0.442913v -0.109917h 0.442913v -0.164876h 0.442913v 0.109917h 0.885827v 0.274793h 0.442913v -0.0549585h 0.442913v 0.109917h 0.442913v -0.714461h 0.442913v 0.879336h 0.442913v -0.274793h 0.442913v -0.38471h 0.442913v
 0.439668h 0.442913v -0.109917h 0.442913v 0.329751h 0.442913v -0.989253h 0.442913v 0.494627h 0.442913v -0.0549585h 0.442913v 0.0549585h 0.442913v -0.38471h 0.442913v 0.494627h 0.885827v -0.549585h 0.442913v 0.274793h 0.442913v 0.329751h 0.442913v
 -0.824378h 0.442913v 0.769419h 0.442913v -0.164876h 0.442913v -0.219834h 0.442913v 0.219834h 0.442913v 0.109917h 0.442913v -0.109917h 0.442913v -0.38471h 0.442913v 0.329751h 0.442913v 0.659502h 0.442913v -0.439668h 0.442913v -0.824378h 0.442913v
 0.329751h 0.442913v 0.38471h 0.442913v 0.0549585h 0.442913v 0.0549585h 0.442913v 0.439668h 0.442913v -1.48388h 0.442913v 0.824378h 0.442913v 0.109917h 0.442913v -0.38471h 0.442913v -0.109917h 0.442913v 0.604544h 0.442913v -0.494627h 0.442913v
 0.274793h 0.442913v -1.04421h 0.442913v 1.15413h 0.442913v -0.274793h 0.442913v -1.04421h 0.442913v 1.5938h 0.442913v -0.439668h 0.442913v -0.769419h 0.442913v 0.109917h 0.442913v -0.109917h 0.442913v 0.604544h 0.442913v -0.0549585h 0.442913v
 -0.439668h 0.442913v 0.274793h 0.442913v -0.219834h 0.442913v 0.329751h 0.442913v -0.604544h 0.442913v 0.824378h 0.442913v -0.219834h 0.885827v -0.604544h 0.442913v 0.38471h 0.442913v -0.0549585h 0.442913v -0.109917h 0.442913v -0.38471h 0.442913v
 0.164876h 0.442913v 0.0549585h 0.442913v -0.494627h 0.442913v 0.38471h 0.442913v -0.274793h 0.442913v -0.329751h 0.442913v 0.549585h 0.442913v 0.274793h 0.442913v -0.824378h 0.442913v 0.659502h 0.442913v -0.549585h 0.442913v -0.494627h 0.442913v
 -0.329751h 0.442913v 0.769419h 0.442913v 0.164876h 0.442913v 0.219834h 0.442913v -1.75867h 0.442913v 0.0549585h 0.442913v 1.09917h 0.442913v -1.319h 0.442913v 1.09917h 0.442913v 0.439668h 0.442913v -1.26405h 0.885827v 0.219834h 0.442913v -1.319h
 0.442913v 0.604544h 0.442913v 0.769419h 0.442913v 0.494627h 0.442913v -0.769419h 0.442913v -1.86859h 0.442913v 0.549585h 0.442913v 1.20909h 0.442913v -0.989253h 0.442913v 0.439668h 0.442913v 1.37396h 0.442913v -0.824378h 0.442913v -1.20909h
 0.442913v -0.164876h 0.442913v -0.714461h 0.442913v 1.5938h 0.442913v -0.769419h 0.442913v 0.494627h 0.442913v -1.70371h 0.442913v 0.549585h 0.442913v 0.329751h 0.442913v -1.5938h 0.442913v 2.03347h 0.442913v -0.549585h 0.442913v -0.38471h 0.442913v
 0.219834h 0.442913v -0.659502h 0.442913v -0.274793h 0.442913v -0.604544h 0.442913v 0.989253h 0.442913v 0.989253h 0.442913v -1.5938h 0.442913v -1.20909h 0.442913v -0.219834h 0.442913v 0.659502h 0.442913v 0.109917h 0.442913v 1.92355h 0.442913v
 -0.659502h 0.442913v -0.989253h 0.442913v -0.659502h 0.442913v -0.38471h 0.442913v 0.714461h 0.442913v -0.769419h 0.442913v 1.86859h 0.442913v -0.494627h 0.442913v -2.47313h 0.442913v -0.934295h 0.442913v 1.20909h 0.442913v 0.494627h 0.442913v
 0.494627h 0.442913v 1.81363h 0.442913v -0.714461h 0.885827v -2.14338h 0.442913v -0.824378h 0.442913v 1.92355h 0.442913v -1.319h 0.442913v 1.97851h 0.442913v -0.219834h 0.442913v -2.2533h 0.442913v 0.604544h 0.442913v 0.824378h 0.442913v -0.219834h
 0.442913v 1.86859h 0.442913v 0.934295h 0.442913v -1.97851h 0.442913v -1.15413h 0.442913v -0.549585h 0.442913v 0.934295h 0.442913v 0.219834h 0.442913v 0.714461h 0.442913v 1.15413h 0.442913v -1.15413h 0.442913v 0.274793h 0.442913v -1.81363h 0.442913v
 1.75867h 0.442913v 0.164876h 0.442913v -0.0549585h 0.442913v 1.48388h 0.442913v -1.81363h 0.442913v 0.439668h 0.442913v -0.934295h 0.442913v -0.439668h 0.442913v 1.26405h 0.442913v 0.879336h 0.442913v 1.319h 0.442913v -1.15413h 0.442913v -0.494627h
 0.442913v 0.109917h 0.442913v 0.38471h 0.442913v 0.934295h 0.442913v 0.494627h 0.442913v 0.219834h 0.442913v -1.319h 0.442913v -0.38471h 0.442913v 0.219834h 0.442913v 0.109917h 0.442913v 0.769419h 0.442913v 1.26405h 0.885827v 0.274793h 0.442913v
 -1.70371h 0.442913v 0.659502h 0.442913v 0.329751h 0.442913v 0.769419h 0.442913v 0.109917h 0.442913v -0.109917h 0.442913v -0.769419h 0.442913v -1.09917h 0.442913v 1.92355h 0.442913v 0.604544h 0.442913v -0.274793h 0.442913v 0.38471h 0.442913v
 -0.494627h 0.442913v 0.0549585h 0.442913v 0.549585h 0.442913v -0.219834h 0.442913v 0.0549585h 0.442913v 0.549585h 0.442913v 0.164876h 0.442913v -0.109917h 0.442913v -1.26405h 0.442913v 0.439668h 0.442913v 1.15413h 0.442913v 0.164876h 0.442913v
 0.109917h 0.442913v 0.0549585h 0.442913v -0.439668h 0.442913v 0.164876h 0.442913v 0.989253h 0.442913v -1.09917h 0.442913v 0.824378h 0.442913v -0.38471h 0.442913v -0.824378h 0.442913v 0.824378h 0.442913v -0.879336h 0.442913v 0.219834h 0.442913v
 0.109917h 0.442913v 0.879336h 0.442913v 0.109917h 0.442913v -0.494627h 0.442913v -0.38471h 0.442913v 0.329751h 0.442913v 0.439668h 0.442913v -0.549585h 0.442913v 0.274793h 0.442913v 0.494627h 0.442913v -0.38471h 0.442913v -0.659502h 0.442913v
 0.549585h 0.442913v 0.164876h 0.442913v 0.164876h 0.442913v -0.274793h 0.442913v 0.439668h 0.442913v -0.164876h 0.442913v 0.109917h 0.442913v -0.824378h 0.442913v 0.274793h 0.442913v 0.439668h 0.442913v 0.164876h 0.442913v -0.604544h 0.442913v
 -0.0549585h 0.442913v 0.274793h 0.442913v -0.274793h 0.442913v 0.274793h 0.442913v -0.0549585h 0.442913v -0.0549585h 0.442913v -0.219834h 0.442913v -0.494627h 0.442913v -0.329751h 0.442913v 0.109917h 0.442913v -2.36322h 0.442913v -0.329751h
 0.442913v -10.2223h 0.442913v -67.9287h 0.442913v -176.417h 0.442913v -32.4255h 0.442913v 95.7927h 0.442913v 56.3325h 0.442913v 9.12311h 0.442913v -4.5066h 0.442913v -8.57353h 0.442913v 22.478h 0.442913v 25.9954h 0.442913v 21.3789h 0.442913v 23.797h
 0.442913v 11.4314h 0.442913v -0.439668h 0.442913v -1.20909h 0.442913v 4.34172h 0.442913v -1.81363h 0.442913v 3.13264h 0.442913v 4.72643h 0.442913v 0.0549585h 0.442913v -3.79214h 0.442913v -0.604544h 0.442913v -0.714461h 0.442913v 2.41817h 0.442913v
 -0.219834h 0.442913v 7.19957h 0.442913v -1.75867h 0.442913v -1.81363h 0.442913v -3.79214h 0.442913v 3.29751h 0.442913v -1.15413h 0.442913v 2.9128h 0.442913v 2.74793h 0.442913v 0.714461h 0.442913v -4.34172h 0.442913v -1.04421h 0.442913v -0.659502h
 0.442913v -0.549585h 0.442913v 2.58305h 0.442913v 4.12189h 0.442913v -3.35247h 0.442913v -4.72643h 0.442913v 3.68222h 0.442913v -2.03347h 0.442913v -0.164876h 0.442913v 3.68222h 0.442913v 1.48388h 0.442913v -1.15413h 0.442913v -2.85784h 0.885827v
 -0.164876h 0.442913v -0.38471h 0.442913v 7.74915h 0.442913v 2.63801h 0.442913v -7.25452h 0.442913v 0.274793h 0.442913v 3.46239h 0.442913v 2.80288h 0.442913v 4.5066h 0.442913v 4.67147h 0.442913v 2.74793h 0.442913v 1.42892h 0.442913v 2.63801h
 0.442913" fill="none" stroke="#000099"/>
<path d="M57.1929,346.022h 453.543" fill="none" stroke="black"/>
<path d="M57.1929,336.795v 9.22726" fill="none" stroke="black"/>
<path d="M68.5315,341.409v 4.61363" fill="none" stroke="black"/>
<path d="M79.8701,341.409v 4.61363" fill="none" stroke="black"/>
<path d="M91.2087,341.409v 4.61363" fill="none" stroke="black"/>
<path d="M102.547,341.409v 4.61363" fill="none" stroke="black"/>
<path d="M113.886,336.795v 9.22726" fill="none" stroke="black"/>
<path d="M125.224,341.409v 4.61363" fill="none" stroke="black"/>
<path d="M136.563,341.409v 4.61363" fill="none" stroke="black"/>
<path d="M147.902,341.409v 4.61363" fill="none" stroke="black"/>
<path d="M159.24,341.409v 4.61363" fill="none" stroke="black"/>
<path d="M170.579,336.795v 9.22726" fill="none" stroke="black"/>
<path d="M181.917,341.409v 4.61363" fill="none" stroke="black"/>
<path d="M193.256,341.409v 4.61363" fill="none" stroke="black"/>
<path d="M204.594,341.409v 4.61363" fill="none" stroke="black"/>
<path d="M215.933,341.409v 4.61363" fill="none" stroke="black"/>
<path d="M227.272,336.795v 9.22726" fill="none" stroke="black"/>
<path d="M238.61,341.409v 4.61363" fill="none" stroke="black"/>
<path d="M249.949,341.409v 4.61363" fill="none" stroke="black"/>
<path d="M261.287,341.409v 4.61363" fill="none" stroke="black"/>
<path d="M272.626,341.409v 4.61363" fill="none" stroke="black"/>
<path d="M283.965,336.795v 9.22726" fill="none" stroke="black"/>
<path d="M295.303,341.409v 4.61363" fill="none" stroke="black"/>
<path d="M306.642,341.409v 4.61363" fill="none" stroke="black"/>
<path d="M317.98,341.409v 4.61363" fill="none" stroke="black"/>
<path d="M329.319,341.409v 4.61363" fill="none" stroke="black"/>
<path d="M340.657,336.795v 9.22726" fill="none" stroke="black"/>
<path d="M351.996,341.409v 4.61363" fill="none" stroke="black"/>
<path d="M363.335,341.409v 4.61363" fill="none" stroke="black"/>
<path d="M374.673,341.409v 4.61363" fill="none" stroke="black"/>
<path d="M386.012,341.409v 4.61363" fill="none" stroke="black"/>
<path d="M397.35,336.795v 9.22726" fill="none" stroke="black"/>
<path d="M408.689,341.409v 4.61363" fill="none" stroke="black"/>
<path d="M420.028,341.409v 4.61363" fill="none" stroke="black"/>
<path d="M431.366,341.409v 4.61363" fill="none" stroke="black"/>
<path d="M442.705,341.409v 4.61363" fill="none" stroke="black"/>
<path d="M454.043,336.795v 9.22726" fill="none" stroke="black"/>
<path d="M465.382,341.409v 4.61363" fill="none" stroke="black"/>
<path d="M476.72,341.409v 4.61363" fill="none" stroke="black"/>
<path d="M488.059,341.409v 4.61363" fill="none" stroke="black"/>
<path d="M499.398,341.409v 4.61363" fill="none" stroke="black"/>
<path d="M510.736,336.795v 9.22726" fill="none" stroke="black"/>
<text xml:space="preserve" x="53.446" y="358.403" fill="black" font-size="12.8453" font-family="Helvetica">0</text>
<text xml:space="preserve" x="110.465" y="358.403" fill="black" font-size="12.8453" font-family="Helvetica">5</text>
<text xml:space="preserve" x="163.411" y="358.403" fill="black" font-size="12.8453" font-family="Helvetica">10</text>
<text xml:space="preserve" x="219.615" y="358.403" fill="black" font-size="12.8453" font-family="Helvetica">15</text>
<text xml:space="preserve" x="277.448" y="358.403" fill="black" font-size="12.8453" font-family="Helvetica">20</text>
<text xml:space="preserve" x="332.838" y="358.403" fill="black" font-size="12.8453" font-family="Helvetica">25</text>
<text xml:space="preserve" x="390.671" y="358.403" fill="black" font-size="12.8453" font-family="Helvetica">30</text>
<text xml:space="preserve" x="446.061" y="358.403" fill="black" font-size="12.8453" font-family="Helvetica">35</text>
<text xml:space="preserve" x="503.894" y="358.403" fill="black" font-size="12.8453" font-family="Helvetica">40</text>
<text xml:space="preserve" x="441.173" y="370.622" fill="black" font-size="12.8453" font-family="Helvetica">Energy [keV]</text>
<path d="M57.1929,346.022v -307.575" fill="none" stroke="black"/>
<path d="M70.7992,346.022h -13.6063" fill="none" stroke="black"/>
<path d="M63.9961,335.031h -6.80315" fill="none" stroke="black"/>
<path d="M63.9961,324.039h -6.80315" fill="none" stroke="black"/>
<path d="M63.9961,313.047h -6.80315" fill="none" stroke="black"/>
<path d="M63.9961,302.055h -6.80315" fill="none" stroke="black"/>
<path d="M70.7992,291.064h -13.6063" fill="none" stroke="black"/>
<path d="M63.9961,280.072h -6.80315" fill="none" stroke="black"/>
<path d="M63.9961,269.08h -6.80315" fill="none" stroke="black"/>
<path d="M63.9961,258.089h -6.80315" fill="none" stroke="black"/>
<path d="M63.9961,247.097h -6.80315" fill="none" stroke="black"/>
<path d="M70.7992,236.105h -13.6063" fill="none" stroke="black"/>
<path d="M63.9961,225.114h -6.80315" fill="none" stroke="black"/>
<path d="M63.9961,214.122h -6.80315" fill="none" stroke="black"/>
<path d="M63.9961,203.13h -6.80315" fill="none" stroke="black"/>
<path d="M63.9961,192.138h -6.80315" fill="none" stroke="black"/>
<path d="M70.7992,181.147h -13.6063" fill="none" stroke="black"/>
<path d="M63.9961,170.155h -6.80315" fill="none" stroke="black"/>
<path d="M63.9961,159.163h -6.80315" fill="none" stroke="black"/>
<path d="M63.9961,148.172h -6.80315" fill="none" stroke="black"/>
<path d="M63.9961,137.18h -6.80315" fill="none" stroke="black"/>
<path d="M70.7992,126.188h -13.6063" fill="none" stroke="black"/>
<path d="M63.9961,115.196h -6.80315" fill="none" stroke="black"/>
<path d="M63.9961,104.205h -6.80315" fill="none" stroke="black"/>
<path d="M63.9961,93.2131h -6.80315" fill="none" stroke="black"/>
<path d="M63.9961,82.2214h -6.80315" fill="none" stroke="black"/>
<path d="M70.7992,71.2297h -13.6063" fill="none" stroke="black"/>
<path d="M70.7992,71.2297h -13.6063" fill="none" stroke="black"/>
<path d="M63.9961,60.238h -6.80315" fill="none" stroke="black"/>
<path d="M63.9961,49.2463h -6.80315" fill="none" stroke="black"/>
<text xml:space="preserve" x="47.7441" y="350.258" fill="black" font-size="12.8453" font-family="Helvetica">0</text>
<text xml:space="preserve" x="27.3803" y="295.683" fill="black" font-size="12.8453" font-family="Helvetica">1000</text>
<text xml:space="preserve" x="27.3803" y="240.293" fill="black" font-size="12.8453" font-family="Helvetica">2000</text>
<text xml:space="preserve" x="27.3803" y="185.718" fill="black" font-size="12.8453" font-family="Helvetica">3000</text>
<text xml:space="preserve" x="27.3803" y="130.329" fill="black" font-size="12.8453" font-family="Helvetica">4000</text>
<text xml:space="preserve" x="27.3803" y="75.7535" fill="black" font-size="12.8453" font-family="Helvetica">5000</text>
<g transform="rotate(-90,14.3474,70.0516)">
<text xml:space="preserve" x="14.3474" y="70.0516" fill="black" font-size="12.8453" font-family="Helvetica">Event</text>
</g>
<text xml:space="preserve" x="209.026" y="18.7347" fill="black" font-size="18.0316" font-family="Helvetica">Cs_015_calibrated</text>
<rect x="442.705" y="24.9905" width="113.386" height="61.5151" fill="white"/>
<path d="M442.705,86.5056h 113.386" fill="none" stroke="black"/>
<path d="M556.091,86.5056v -61.5151" fill="none" stroke="black"/>
<path d="M556.091,24.9905h -113.386" fill="none" stroke="black"/>
<path d="M442.705,24.9905v 61.5151" fill="none" stroke="black"/>
<text xml:space="preserve" x="447.69" y="36.6549" fill="black" font-size="12.5522" font-family="Helvetica">Cs_015_calibrated</text>
<path d="M442.705,40.3693h 113.386" fill="none" stroke="black"/>
<text xml:space="preserve" x="447.69" y="52.946" fill="black" font-size="12.3904" font-family="Helvetica">Entries </text>
<text xml:space="preserve" x="506.338" y="52.946" fill="black" font-size="12.3904" font-family="Helvetica"> 100820</text>
<text xml:space="preserve" x="447.69" y="67.6079" fill="black" font-size="12.3904" font-family="Helvetica">Mean  </text>
<text xml:space="preserve" x="512.854" y="67.6079" fill="black" font-size="12.3904" font-family="Helvetica">  32.24</text>
<text xml:space="preserve" x="447.69" y="83.0844" fill="black" font-size="12.3904" font-family="Helvetica">Std Dev   </text>
<text xml:space="preserve" x="512.854" y="83.0844" fill="black" font-size="12.3904" font-family="Helvetica">  9.812</text>
<text xml:space="preserve" x="209.026" y="18.7347" fill="black" font-size="18.0316" font-family="Helvetica">Cs_015_calibrated</text></svg>
