<?xml version="1.0" standalone="no"?>
<svg width="567.429" height="384.68" viewBox="0 0 567.429 384.68" xmlns="http://www.w3.org/2000/svg" shape-rendering="crispEdges">
<title>
img/week1/calibrated_hist_high_gain/Cs_015.svg
</title>
<desc>
Creator: ROOT Version 6.22/09
CreationDate: Mon Jul 12 17:35:39 2021</desc>
<defs>
</defs>
<rect x="0.5" y="0" width="566.929" height="384.18" fill="white"/>
<rect x="57.1929" y="38.418" width="453.543" height="307.344" fill="white"/>
<rect x="57.1929" y="38.418" width="453.543" height="307.344" fill="none" stroke="black"/>
<path d="M57.1929,345.762h 73.0807v -0.0495025h 0.442913v -0.891045h 0.442913v -5.59378h 0.442913v -8.76195h 0.442913v -2.27712h 0.442913v 2.17811h 0.442913v 1.73259h 0.442913v 0.940548h 0.442913v 1.48508h 0.442913v 1.08906h 0.442913v -0.445523h
 0.442913v 1.9306h 0.442913v 0.643533h 0.442913v 2.07911h 0.442913v 0.445523h 0.442913v 0.79204h 0.442913v -1.13856h 0.442913v 1.43557h 0.442913v 0.297015h 0.442913v 0.643533h 0.442913v 0.346518h 0.442913v -0.445523h 0.442913v 0.297015h 0.442913v
 0.148508h 0.442913v -0.099005h 0.442913v 0.693035h 0.442913v 0.59403h 0.442913v 0.495025h 0.442913v -1.13856h 0.442913v 0.39602h 0.442913v 0.445523h 0.442913v -0.940548h 0.442913v 0.940548h 0.442913v 0.099005h 0.442913v -0.445523h 0.442913v
 -0.099005h 0.442913v -0.0495025h 0.442913v 0.79204h 0.442913v 0.099005h 0.442913v -0.0495025h 0.442913v -0.643533h 0.442913v -0.346518h 0.442913v -0.099005h 0.442913v 0.79204h 0.885827v 0.445523h 0.442913v -0.59403h 0.442913v 0.19801h 0.442913v
 -0.693035h 0.442913v 0.445523h 0.442913v 0.19801h 0.442913v 0.247513h 0.442913v -0.099005h 0.442913v 0.099005h 0.442913v -0.346518h 0.442913v -0.0495025h 0.885827v -0.247513h 0.442913v 1.18806h 0.442913v -0.495025h 0.442913v -0.59403h 0.442913v
 0.544528h 0.442913v -0.19801h 0.885827v 0.19801h 0.442913v 0.19801h 0.442913v -0.19801h 0.442913v -0.247513h 0.442913v 0.148508h 0.442913v -0.0495025h 0.442913v -0.346518h 0.442913v 0.39602h 0.885827v 0.0495025h 0.442913v -0.445523h 0.442913v
 0.495025h 0.442913v -0.643533h 0.442913v 0.247513h 0.442913v -0.247513h 0.442913v 0.742538h 0.442913v -0.891045h 0.442913v 0.346518h 0.442913v 0.445523h 0.442913v -0.148508h 0.442913v -0.544528h 0.442913v 0.445523h 0.442913v 0.19801h 0.442913v
 0.0495025h 0.442913v 0.0495025h 0.442913v 0.099005h 0.442913v 0.0495025h 0.442913v -0.19801h 0.442913v -0.247513h 0.442913v -0.346518h 0.885827v -0.0495025h 0.442913v 0.59403h 0.442913v 0.297015h 0.442913v 0.0495025h 0.442913v -0.445523h 0.442913v
 -0.099005h 0.442913v -0.148508h 0.442913v -0.445523h 0.442913v 0.891045h 0.442913v -0.19801h 0.442913v -0.19801h 0.442913v -0.0495025h 0.442913v 0.247513h 0.442913v -0.247513h 0.442913v 0.247513h 0.442913v -0.0495025h 0.885827v -0.247513h 0.442913v
 0.247513h 0.442913v -0.099005h 0.442913v 0.0495025h 0.442913v 0.346518h 0.885827v -0.79204h 0.442913v 0.495025h 0.442913v -0.445523h 0.442913v 0.346518h 0.442913v 0.643533h 0.442913v -0.495025h 0.442913v -0.148508h 0.442913v -0.0495025h 0.442913v
 -0.247513h 0.442913v 0.346518h 0.885827v 0.59403h 0.442913v -0.445523h 0.442913v -0.148508h 0.885827v 0.297015h 0.442913v -0.495025h 0.442913v 0.445523h 0.442913v -0.247513h 0.442913v 0.148508h 0.442913v -0.79204h 0.442913v 0.693035h 0.442913v
 0.148508h 0.442913v 0.247513h 0.442913v 0.0495025h 0.442913v -0.445523h 0.442913v 0.247513h 0.442913v -0.099005h 0.442913v 0.099005h 0.442913v -0.19801h 0.442913v 0.148508h 0.442913v -0.346518h 0.442913v 0.39602h 0.442913v 0.099005h 0.442913v
 -0.742538h 0.442913v 0.59403h 0.442913v -0.0495025h 0.442913v 0.297015h 0.442913v -0.445523h 0.885827v -0.099005h 0.442913v 0.0495025h 0.442913v 0.39602h 0.442913v -0.79204h 0.442913v 0.099005h 0.442913v 0.19801h 0.442913v 0.643533h 0.442913v
 -0.39602h 0.442913v -0.099005h 0.442913v 0.544528h 0.442913v -0.148508h 0.442913v -0.0495025h 0.442913v -0.841543h 0.442913v 0.79204h 0.442913v 0.148508h 0.442913v 0.19801h 0.442913v -0.19801h 0.442913v -0.297015h 0.442913v -0.099005h 0.442913v
 -0.0495025h 0.442913v -0.148508h 0.442913v 0.59403h 0.442913v 0.0495025h 0.442913v -0.297015h 0.442913v -0.346518h 0.442913v 0.099005h 0.442913v -0.099005h 0.442913v 0.79204h 0.442913v -0.297015h 0.442913v 0.0495025h 0.442913v -0.346518h 0.442913v
 -0.148508h 0.442913v 0.544528h 0.442913v -0.247513h 0.442913v -0.19801h 0.442913v 0.39602h 0.442913v -0.099005h 0.442913v 0.19801h 0.442913v -0.495025h 0.442913v 0.39602h 0.442913v -0.544528h 0.442913v 0.495025h 0.442913v 0.39602h 0.442913v
 -0.445523h 0.885827v -0.19801h 0.442913v 0.495025h 0.442913v 0.0495025h 0.885827v -0.544528h 0.442913v 0.346518h 0.442913v -0.297015h 0.442913v 0.544528h 0.442913v -0.19801h 0.442913v 0.0495025h 0.442913v -0.297015h 0.442913v 0.346518h 0.442913v
 -0.297015h 0.442913v -0.099005h 0.442913v -0.0495025h 0.442913v 0.39602h 0.442913v -0.19801h 0.442913v 0.297015h 0.442913v -0.79204h 0.885827v 0.495025h 0.442913v 0.0495025h 0.885827v -0.297015h 0.442913v 0.693035h 0.442913v -0.59403h 0.442913v
 0.19801h 0.442913v -0.19801h 0.442913v 0.099005h 0.442913v 0.099005h 0.442913v -0.39602h 0.442913v 0.445523h 0.442913v 0.148508h 0.442913v -0.742538h 0.442913v 0.544528h 0.442913v -0.297015h 0.442913v 0.148508h 0.442913v -0.297015h 0.442913v
 0.544528h 0.442913v -0.643533h 0.442913v 0.247513h 0.442913v 0.247513h 0.442913v -0.297015h 0.442913v 0.59403h 0.442913v -0.346518h 0.442913v 0.099005h 0.442913v -0.247513h 0.442913v 0.148508h 0.442913v 0.19801h 0.442913v 0.247513h 0.442913v
 -0.544528h 0.442913v 0.099005h 0.442913v 0.0495025h 0.442913v 0.544528h 0.442913v -0.247513h 0.442913v 0.19801h 0.442913v -0.693035h 0.442913v 0.148508h 0.442913v -0.297015h 0.442913v 0.0495025h 0.442913v 0.346518h 0.442913v 0.19801h 0.442913v
 -0.39602h 0.442913v 0.247513h 0.442913v -0.693035h 0.442913v 0.544528h 0.442913v 0.297015h 0.442913v -0.19801h 0.442913v -0.247513h 0.442913v 0.19801h 0.442913v -0.346518h 0.442913v 0.297015h 0.442913v -0.0495025h 0.442913v 0.445523h 0.442913v
 -0.841543h 0.442913v -0.0495025h 0.442913v 0.297015h 0.885827v -0.0495025h 0.442913v 0.693035h 0.442913v -0.0495025h 0.442913v -0.0495025h 0.442913v -0.346518h 0.442913v 0.39602h 0.442913v -0.445523h 0.442913v 0.742538h 0.442913v -0.148508h
 0.442913v -0.544528h 0.442913v 0.346518h 0.442913v -0.247513h 0.442913v 0.247513h 0.442913v -0.247513h 0.442913v -0.247513h 0.442913v -0.148508h 0.442913v 0.297015h 0.442913v -0.19801h 0.442913v -0.247513h 0.442913v 0.0495025h 0.442913v 0.59403h
 0.442913v 0.099005h 0.442913v -0.19801h 0.442913v -0.39602h 0.885827v 0.099005h 0.442913v 0.346518h 0.442913v 0.346518h 0.442913v -0.59403h 0.442913v -0.19801h 0.885827v 0.148508h 0.442913v 0.297015h 0.442913v 0.0495025h 0.442913v 0.297015h
 0.442913v -0.495025h 0.442913v -0.297015h 0.442913v -0.297015h 0.442913v 0.59403h 0.442913v 0.346518h 0.442913v -0.39602h 0.442913v 0.39602h 0.442913v -0.346518h 0.442913v -0.0495025h 0.442913v 0.0495025h 0.442913v 0.445523h 0.442913v 0.099005h
 0.442913v -0.247513h 0.442913v -0.346518h 0.442913v -0.297015h 0.442913v 0.346518h 0.885827v 0.39602h 0.442913v -0.39602h 0.442913v -0.099005h 0.442913v 0.39602h 0.442913v -0.19801h 0.442913v -0.148508h 0.442913v 0.0495025h 0.442913v 0.544528h
 0.442913v -0.099005h 0.442913v -0.643533h 0.442913v 0.544528h 0.442913v -0.346518h 0.442913v -0.099005h 0.442913v 0.297015h 0.442913v -0.247513h 0.442913v -0.297015h 0.442913v 0.247513h 0.442913v 0.346518h 0.442913v -0.0495025h 0.442913v -0.297015h
 0.442913v -0.297015h 0.442913v 0.643533h 0.442913v -0.346518h 0.442913v -0.297015h 0.442913v 0.297015h 0.442913v 0.247513h 0.442913v -0.544528h 0.442913v -0.0495025h 0.885827v -0.445523h 0.442913v 0.693035h 0.442913v -0.297015h 0.442913v 0.544528h
 0.442913v -0.445523h 0.442913v -0.742538h 0.442913v 0.940548h 0.442913v -0.247513h 0.442913v 0.544528h 0.442913v -0.742538h 0.442913v 0.59403h 0.442913v 0.247513h 0.442913v -0.940548h 0.442913v 0.247513h 0.442913v -0.099005h 0.442913v 0.39602h
 0.442913v 0.148508h 0.442913v 0.0495025h 0.442913v -0.39602h 0.442913v -0.19801h 0.442913v -0.39602h 0.442913v -0.39602h 0.442913v 1.18806h 0.442913v -0.445523h 0.442913v 0.297015h 0.442913v -1.08906h 0.442913v 0.0495025h 0.442913v 0.59403h
 0.442913v -0.445523h 0.442913v 0.99005h 0.442913v -0.891045h 0.442913v 0.445523h 0.442913v -0.99005h 0.442913v 0.39602h 0.442913v -0.346518h 0.442913v 0.495025h 0.442913v 0.148508h 0.442913v 0.643533h 0.442913v -1.23756h 0.442913v -0.0495025h
 0.442913v 0.445523h 0.442913v -0.19801h 0.442913v 0.247513h 0.442913v -0.346518h 0.442913v -0.247513h 0.442913v -0.39602h 0.442913v 0.0495025h 0.442913v 0.79204h 0.885827v 0.544528h 0.442913v -0.247513h 0.442913v -1.18806h 0.442913v 0.247513h
 0.442913v 0.544528h 0.442913v -0.495025h 0.442913v 0.59403h 0.442913v 0.19801h 0.442913v 0.148508h 0.442913v -0.79204h 0.442913v 0.643533h 0.442913v -0.59403h 0.442913v 0.19801h 0.442913v 0.742538h 0.442913v -0.495025h 0.442913v -0.841543h 0.442913v
 0.346518h 0.442913v 0.495025h 0.442913v 0.19801h 0.442913v -0.693035h 0.442913v 0.0495025h 0.442913v 0.346518h 0.442913v -0.544528h 0.442913v 0.297015h 0.442913v 0.79204h 0.442913v -0.247513h 0.442913v -0.59403h 0.885827v -0.099005h 0.442913v
 0.940548h 0.442913v -0.544528h 0.442913v 0.59403h 0.885827v -0.495025h 0.442913v 0.297015h 0.442913v 0.247513h 0.442913v -1.03955h 0.442913v 0.99005h 0.442913v 0.247513h 0.442913v -0.742538h 0.442913v -0.19801h 0.442913v 0.099005h 0.885827v
 -0.297015h 0.442913v 1.13856h 0.442913v -0.643533h 0.442913v 0.0495025h 0.885827v 0.297015h 0.442913v 0.297015h 0.442913v 0.0495025h 0.442913v -0.544528h 0.442913v 0.19801h 0.442913v 0.099005h 0.442913v -0.544528h 0.442913v 0.544528h 0.442913v
 0.495025h 0.442913v -0.148508h 0.442913v -0.148508h 0.442913v -0.346518h 0.442913v 0.297015h 0.442913v 0.247513h 0.442913v 0.297015h 0.442913v -0.445523h 0.442913v -0.19801h 0.442913v 0.346518h 0.442913v -0.297015h 0.442913v -0.148508h 0.442913v
 -0.39602h 0.442913v 0.841543h 0.442913v 0.19801h 0.442913v -0.643533h 0.442913v 0.79204h 0.442913v 0.099005h 0.442913v -0.445523h 0.442913v 0.445523h 0.442913v -0.346518h 0.442913v 0.099005h 0.442913v -0.0495025h 0.442913v 0.445523h 0.442913v
 -0.544528h 0.442913v -0.148508h 0.442913v 0.247513h 0.442913v -0.19801h 0.442913v -0.19801h 0.442913v -0.0495025h 0.442913v -0.148508h 0.442913v 0.247513h 0.442913v 0.643533h 0.442913v -0.099005h 0.442913v 0.346518h 0.442913v -0.148508h 0.442913v
 -0.544528h 0.442913v -0.346518h 0.442913v 0.544528h 0.442913v 0.445523h 0.442913v -0.693035h 0.442913v 0.297015h 0.442913v -0.297015h 0.442913v 0.445523h 0.442913v -0.742538h 0.442913v 0.742538h 0.442913v 0.148508h 0.442913v -0.39602h 0.442913v
 -0.297015h 0.442913v 0.39602h 0.442913v 0.19801h 0.442913v 0.0495025h 0.442913v 0.247513h 0.442913v -0.148508h 0.442913v -0.891045h 0.442913v 0.297015h 0.442913v 0.0495025h 0.442913v 0.79204h 0.442913v -0.59403h 0.442913v -0.19801h 0.442913v
 0.0495025h 0.442913v 0.247513h 0.442913v -0.0495025h 0.442913v -0.445523h 0.442913v 0.643533h 0.442913v -0.0495025h 0.442913v -0.148508h 0.442913v -0.495025h 0.442913v 0.297015h 0.442913v 0.445523h 0.442913v -0.148508h 0.442913v 0.346518h 0.442913v
 -0.544528h 0.442913v -0.0495025h 0.442913v 0.39602h 0.442913v -0.445523h 0.442913v 0.346518h 0.442913v -0.148508h 0.442913v 0.39602h 0.442913v -0.891045h 0.442913v 0.297015h 0.442913v 0.19801h 0.442913v -0.445523h 0.442913v 0.297015h 0.442913v
 0.19801h 0.442913v -0.148508h 0.442913v -0.247513h 0.442913v 0.148508h 0.442913v -0.297015h 0.442913v 0.297015h 0.442913v 0.297015h 0.442913v -0.59403h 0.442913v 0.297015h 0.442913v 0.247513h 0.442913v -0.297015h 0.442913v -0.099005h 0.442913v
 0.297015h 0.442913v 0.39602h 0.442913v -0.841543h 0.885827v 0.297015h 0.885827v 0.148508h 0.442913v 0.544528h 0.442913v -0.940548h 0.442913v -0.148508h 0.442913v 0.544528h 0.442913v -0.346518h 0.442913v -0.0495025h 0.442913v 0.297015h 0.442913v
 -0.247513h 0.442913v -0.0495025h 0.442913v -0.39602h 0.442913v 0.79204h 0.442913v -0.643533h 0.442913v -0.346518h 0.442913v 1.33657h 0.442913v -1.13856h 0.442913v 0.0495025h 0.442913v -0.19801h 0.442913v 0.445523h 0.442913v 0.099005h 0.442913v
 -0.297015h 0.442913v 0.099005h 0.442913v -0.19801h 0.442913v 0.247513h 0.442913v -0.445523h 0.442913v 0.544528h 0.442913v 0.247513h 0.442913v -0.445523h 0.442913v -0.0495025h 0.442913v 0.0495025h 0.442913v -0.544528h 0.442913v 0.39602h 0.442913v
 -0.148508h 0.885827v -0.693035h 0.442913v 0.297015h 0.442913v 0.247513h 0.442913v -0.59403h 0.442913v 0.544528h 0.442913v 0.346518h 0.442913v -0.940548h 0.442913v 0.693035h 0.442913v -0.643533h 0.442913v -0.643533h 0.442913v 0.495025h 0.442913v
 -0.346518h 0.442913v 1.33657h 0.442913v -1.53458h 0.442913v -0.0495025h 0.442913v 0.297015h 0.442913v -0.891045h 0.442913v 0.693035h 0.442913v 0.544528h 0.442913v -0.445523h 0.442913v -0.841543h 0.442913v 0.544528h 0.442913v -1.58408h 0.442913v
 0.742538h 0.442913v 1.28707h 0.442913v -0.39602h 0.442913v -0.693035h 0.442913v -1.63358h 0.442913v 1.68309h 0.442913v -0.643533h 0.442913v 0.247513h 0.442913v 1.23756h 0.442913v -0.495025h 0.442913v -1.48508h 0.442913v 0.19801h 0.442913v -0.643533h
 0.442913v 1.08906h 0.442913v -0.693035h 0.442913v 0.693035h 0.442913v -1.58408h 0.442913v 0.148508h 0.442913v 0.544528h 0.442913v -0.841543h 0.442913v 1.18806h 0.442913v -0.19801h 0.442913v -0.891045h 0.442913v -0.099005h 0.442913v -0.0495025h
 0.442913v -0.79204h 0.442913v 0.544528h 0.442913v 1.38607h 0.442913v -1.18806h 0.442913v -1.48508h 0.442913v -0.099005h 0.442913v 0.247513h 0.442913v 0.0495025h 0.442913v 3.16816h 0.442913v -2.22761h 0.442913v -1.03955h 0.442913v 0.495025h 0.442913v
 -1.13856h 0.442913v 0.445523h 0.442913v 0.891045h 0.442913v 0.59403h 0.442913v -2.37612h 0.442913v -1.03955h 0.442913v 0.940548h 0.442913v 0.346518h 0.442913v 0.742538h 0.442913v 1.53458h 0.442913v -0.297015h 0.442913v -1.08906h 0.442913v -2.47513h
 0.442913v 1.9801h 0.442913v -0.445523h 0.442913v 0.79204h 0.442913v 0.247513h 0.442913v -0.940548h 0.442913v -1.63358h 0.442913v 1.63358h 0.442913v 0.39602h 0.442913v 1.13856h 0.442913v 0.891045h 0.442913v -1.23756h 0.442913v -1.58408h 0.442913v
 -0.495025h 0.442913v 0.891045h 0.442913v 0.148508h 0.442913v 1.8811h 0.442913v -0.841543h 0.442913v -0.59403h 0.442913v 0.693035h 0.442913v -1.03955h 0.442913v 1.03955h 0.442913v -0.099005h 0.442913v 1.13856h 0.442913v -0.99005h 0.442913v
 -0.0495025h 0.442913v -0.99005h 0.442913v 0.0495025h 0.442913v 0.841543h 0.442913v 1.03955h 0.442913v 1.08906h 0.442913v -1.53458h 0.442913v 0.841543h 0.442913v -0.891045h 0.442913v 0.643533h 0.442913v 0.79204h 0.442913v 1.33657h 0.442913v -2.12861h
 0.442913v 0.841543h 0.442913v -1.63358h 0.442913v 1.03955h 0.442913v 0.544528h 0.442913v 1.23756h 0.442913v 0.099005h 0.442913v 0.297015h 0.442913v -1.8811h 0.442913v 0.940548h 0.442913v 0.39602h 0.442913v 0.693035h 0.442913v -0.099005h 0.442913v
 -0.742538h 0.442913v -0.495025h 0.442913v 0.643533h 0.442913v 0.99005h 0.885827v 0.099005h 0.442913v -0.099005h 0.442913v -0.247513h 0.442913v 0.79204h 0.442913v -0.495025h 0.442913v 0.247513h 0.442913v 0.346518h 0.442913v 0.643533h 0.442913v
 -0.891045h 0.442913v -0.940548h 0.442913v 1.03955h 0.442913v 0.742538h 0.442913v 0.148508h 0.442913v -0.099005h 0.442913v 0.0495025h 0.442913v -0.39602h 0.442913v 1.38607h 0.442913v -1.38607h 0.442913v 0.891045h 0.442913v -0.346518h 0.442913v
 -0.742538h 0.442913v 0.742538h 0.442913v -0.742538h 0.442913v -0.346518h 0.442913v 1.33657h 0.442913v 0.099005h 0.442913v -0.247513h 0.442913v -0.148508h 0.442913v -0.544528h 0.442913v 0.940548h 0.442913v -0.148508h 0.442913v -0.297015h 0.442913v
 0.495025h 0.442913v -0.099005h 0.442913v -0.742538h 0.442913v 0.445523h 0.442913v 0.247513h 0.442913v 0.148508h 0.442913v -0.19801h 0.442913v 0.445523h 0.442913v -0.297015h 0.442913v -0.445523h 0.442913v -0.0495025h 0.442913v 0.19801h 0.442913v
 0.495025h 0.442913v 0.148508h 0.442913v -1.13856h 0.442913v 0.346518h 0.442913v 0.247513h 0.885827v 0.19801h 0.442913v -0.39602h 0.442913v -0.148508h 0.442913v -0.247513h 0.442913v -0.643533h 0.442913v -0.544528h 0.442913v -0.940548h 0.442913v
 -2.32662h 0.442913v -23.3157h 0.442913v -122.172h 0.442913v -140.043h 0.442913v 64.5018h 0.442913v 80.4416h 0.442913v 19.1575h 0.442913v 2.62363h 0.442913v -12.6726h 0.442913v 18.3654h 0.442913v 27.0779h 0.442913v 22.5731h 0.442913v 22.2761h
 0.442913v 11.3856h 0.442913v -2.0296h 0.442913v -0.445523h 0.442913v 4.65324h 0.442913v -1.8811h 0.442913v 4.20771h 0.442913v 4.60373h 0.442913v -3.21766h 0.442913v -3.8612h 0.442913v 1.53458h 0.442913v -0.19801h 0.442913v 1.03955h 0.442913v
 6.53433h 0.442913v -0.693035h 0.442913v -2.82164h 0.442913v -2.12861h 0.442913v 1.9801h 0.442913v 0.099005h 0.442913v 2.17811h 0.442913v 3.76219h 0.442913v -2.22761h 0.442913v -3.71269h 0.442913v -1.18806h 0.442913v 0.79204h 0.442913v 0.346518h
 0.442913v 4.45523h 0.442913v 0.099005h 0.442913v -7.47488h 0.442913v 3.71269h 0.442913v -1.03955h 0.442913v -0.891045h 0.442913v 4.55423h 0.442913v -0.39602h 0.442913v -0.099005h 0.442913v -3.9602h 0.442913v 2.27712h 0.442913v -2.37612h 0.442913v
 4.75224h 0.442913v 6.18782h 0.442913v -5.19776h 0.442913v -2.42562h 0.442913v 3.21766h 0.442913v 3.61368h 0.442913v 3.61368h 0.442913v 4.40572h 0.442913v 3.31667h 0.442913v 1.48508h 0.442913v 2.92065h 0.442913v 2.52463h 0.442913v 1.08906h 0.442913v
 0.99005h 0.442913v 0.148508h 0.442913v 0.148508h 3.10039" fill="none" stroke="#000099"/>
<path d="M57.1929,345.762h 453.543" fill="none" stroke="black"/>
<path d="M57.1929,336.541v 9.22031" fill="none" stroke="black"/>
<path d="M68.5315,341.152v 4.61016" fill="none" stroke="black"/>
<path d="M79.8701,341.152v 4.61016" fill="none" stroke="black"/>
<path d="M91.2087,341.152v 4.61016" fill="none" stroke="black"/>
<path d="M102.547,341.152v 4.61016" fill="none" stroke="black"/>
<path d="M113.886,336.541v 9.22031" fill="none" stroke="black"/>
<path d="M125.224,341.152v 4.61016" fill="none" stroke="black"/>
<path d="M136.563,341.152v 4.61016" fill="none" stroke="black"/>
<path d="M147.902,341.152v 4.61016" fill="none" stroke="black"/>
<path d="M159.24,341.152v 4.61016" fill="none" stroke="black"/>
<path d="M170.579,336.541v 9.22031" fill="none" stroke="black"/>
<path d="M181.917,341.152v 4.61016" fill="none" stroke="black"/>
<path d="M193.256,341.152v 4.61016" fill="none" stroke="black"/>
<path d="M204.594,341.152v 4.61016" fill="none" stroke="black"/>
<path d="M215.933,341.152v 4.61016" fill="none" stroke="black"/>
<path d="M227.272,336.541v 9.22031" fill="none" stroke="black"/>
<path d="M238.61,341.152v 4.61016" fill="none" stroke="black"/>
<path d="M249.949,341.152v 4.61016" fill="none" stroke="black"/>
<path d="M261.287,341.152v 4.61016" fill="none" stroke="black"/>
<path d="M272.626,341.152v 4.61016" fill="none" stroke="black"/>
<path d="M283.965,336.541v 9.22031" fill="none" stroke="black"/>
<path d="M295.303,341.152v 4.61016" fill="none" stroke="black"/>
<path d="M306.642,341.152v 4.61016" fill="none" stroke="black"/>
<path d="M317.98,341.152v 4.61016" fill="none" stroke="black"/>
<path d="M329.319,341.152v 4.61016" fill="none" stroke="black"/>
<path d="M340.657,336.541v 9.22031" fill="none" stroke="black"/>
<path d="M351.996,341.152v 4.61016" fill="none" stroke="black"/>
<path d="M363.335,341.152v 4.61016" fill="none" stroke="black"/>
<path d="M374.673,341.152v 4.61016" fill="none" stroke="black"/>
<path d="M386.012,341.152v 4.61016" fill="none" stroke="black"/>
<path d="M397.35,336.541v 9.22031" fill="none" stroke="black"/>
<path d="M408.689,341.152v 4.61016" fill="none" stroke="black"/>
<path d="M420.028,341.152v 4.61016" fill="none" stroke="black"/>
<path d="M431.366,341.152v 4.61016" fill="none" stroke="black"/>
<path d="M442.705,341.152v 4.61016" fill="none" stroke="black"/>
<path d="M454.043,336.541v 9.22031" fill="none" stroke="black"/>
<path d="M465.382,341.152v 4.61016" fill="none" stroke="black"/>
<path d="M476.72,341.152v 4.61016" fill="none" stroke="black"/>
<path d="M488.059,341.152v 4.61016" fill="none" stroke="black"/>
<path d="M499.398,341.152v 4.61016" fill="none" stroke="black"/>
<path d="M510.736,336.541v 9.22031" fill="none" stroke="black"/>
<text xml:space="preserve" x="53.2943" y="358.189" fill="black" font-size="12.836" font-family="Helvetica">0</text>
<text xml:space="preserve" x="110.15" y="358.189" fill="black" font-size="12.836" font-family="Helvetica">5</text>
<text xml:space="preserve" x="163.756" y="358.189" fill="black" font-size="12.836" font-family="Helvetica">10</text>
<text xml:space="preserve" x="219.799" y="358.189" fill="black" font-size="12.836" font-family="Helvetica">15</text>
<text xml:space="preserve" x="277.467" y="358.189" fill="black" font-size="12.836" font-family="Helvetica">20</text>
<text xml:space="preserve" x="332.698" y="358.189" fill="black" font-size="12.836" font-family="Helvetica">25</text>
<text xml:space="preserve" x="390.365" y="358.189" fill="black" font-size="12.836" font-family="Helvetica">30</text>
<text xml:space="preserve" x="446.408" y="358.189" fill="black" font-size="12.836" font-family="Helvetica">35</text>
<text xml:space="preserve" x="504.076" y="358.189" fill="black" font-size="12.836" font-family="Helvetica">40</text>
<text xml:space="preserve" x="441.535" y="370.372" fill="black" font-size="12.836" font-family="Helvetica">Energy [keV]</text>
<path d="M57.1929,345.762v -307.344" fill="none" stroke="black"/>
<path d="M70.7992,345.762h -13.6063" fill="none" stroke="black"/>
<path d="M63.9961,335.861h -6.80315" fill="none" stroke="black"/>
<path d="M63.9961,325.961h -6.80315" fill="none" stroke="black"/>
<path d="M63.9961,316.06h -6.80315" fill="none" stroke="black"/>
<path d="M63.9961,306.16h -6.80315" fill="none" stroke="black"/>
<path d="M70.7992,296.259h -13.6063" fill="none" stroke="black"/>
<path d="M63.9961,286.359h -6.80315" fill="none" stroke="black"/>
<path d="M63.9961,276.458h -6.80315" fill="none" stroke="black"/>
<path d="M63.9961,266.558h -6.80315" fill="none" stroke="black"/>
<path d="M63.9961,256.657h -6.80315" fill="none" stroke="black"/>
<path d="M70.7992,246.757h -13.6063" fill="none" stroke="black"/>
<path d="M63.9961,236.856h -6.80315" fill="none" stroke="black"/>
<path d="M63.9961,226.956h -6.80315" fill="none" stroke="black"/>
<path d="M63.9961,217.055h -6.80315" fill="none" stroke="black"/>
<path d="M63.9961,207.155h -6.80315" fill="none" stroke="black"/>
<path d="M70.7992,197.254h -13.6063" fill="none" stroke="black"/>
<path d="M63.9961,187.354h -6.80315" fill="none" stroke="black"/>
<path d="M63.9961,177.453h -6.80315" fill="none" stroke="black"/>
<path d="M63.9961,167.553h -6.80315" fill="none" stroke="black"/>
<path d="M63.9961,157.652h -6.80315" fill="none" stroke="black"/>
<path d="M70.7992,147.752h -13.6063" fill="none" stroke="black"/>
<path d="M63.9961,137.851h -6.80315" fill="none" stroke="black"/>
<path d="M63.9961,127.951h -6.80315" fill="none" stroke="black"/>
<path d="M63.9961,118.05h -6.80315" fill="none" stroke="black"/>
<path d="M63.9961,108.15h -6.80315" fill="none" stroke="black"/>
<path d="M70.7992,98.2492h -13.6063" fill="none" stroke="black"/>
<path d="M63.9961,88.3487h -6.80315" fill="none" stroke="black"/>
<path d="M63.9961,78.4482h -6.80315" fill="none" stroke="black"/>
<path d="M63.9961,68.5477h -6.80315" fill="none" stroke="black"/>
<path d="M63.9961,58.6472h -6.80315" fill="none" stroke="black"/>
<path d="M70.7992,48.7467h -13.6063" fill="none" stroke="black"/>
<path d="M70.7992,48.7467h -13.6063" fill="none" stroke="black"/>
<path d="M63.9961,38.8462h -6.80315" fill="none" stroke="black"/>
<text xml:space="preserve" x="47.6087" y="350.067" fill="black" font-size="12.836" font-family="Helvetica">0</text>
<text xml:space="preserve" x="27.3032" y="300.521" fill="black" font-size="12.836" font-family="Helvetica">1000</text>
<text xml:space="preserve" x="27.3032" y="250.976" fill="black" font-size="12.836" font-family="Helvetica">2000</text>
<text xml:space="preserve" x="27.3032" y="201.43" fill="black" font-size="12.836" font-family="Helvetica">3000</text>
<text xml:space="preserve" x="27.3032" y="151.885" fill="black" font-size="12.836" font-family="Helvetica">4000</text>
<text xml:space="preserve" x="27.3032" y="102.34" fill="black" font-size="12.836" font-family="Helvetica">5000</text>
<text xml:space="preserve" x="27.3032" y="53.6065" fill="black" font-size="12.836" font-family="Helvetica">6000</text>
<g transform="rotate(-90,14.3077,69.8509)">
<text xml:space="preserve" x="14.3077" y="69.8509" fill="black" font-size="12.836" font-family="Helvetica">Event</text>
</g>
<text xml:space="preserve" x="209.24" y="18.681" fill="black" font-size="17.9813" font-family="Helvetica">Cs_015_calibrated</text>
<rect x="442.705" y="24.9717" width="113.386" height="61.4688" fill="white"/>
<path d="M442.705,86.4405h 113.386" fill="none" stroke="black"/>
<path d="M556.091,86.4405v -61.4688" fill="none" stroke="black"/>
<path d="M556.091,24.9717h -113.386" fill="none" stroke="black"/>
<path d="M442.705,24.9717v 61.4688" fill="none" stroke="black"/>
<text xml:space="preserve" x="448.033" y="36.5499" fill="black" font-size="12.5745" font-family="Helvetica">Cs_015_calibrated</text>
<path d="M442.705,40.3389h 113.386" fill="none" stroke="black"/>
<text xml:space="preserve" x="448.033" y="52.7943" fill="black" font-size="12.4124" font-family="Helvetica">Entries </text>
<text xml:space="preserve" x="506.513" y="52.7943" fill="black" font-size="12.4124" font-family="Helvetica"> 100820</text>
<text xml:space="preserve" x="448.033" y="68.2264" fill="black" font-size="12.4124" font-family="Helvetica">Mean  </text>
<text xml:space="preserve" x="513.01" y="68.2264" fill="black" font-size="12.4124" font-family="Helvetica">  32.27</text>
<text xml:space="preserve" x="448.033" y="82.8464" fill="black" font-size="12.4124" font-family="Helvetica">Std Dev   </text>
<text xml:space="preserve" x="513.01" y="82.8464" fill="black" font-size="12.4124" font-family="Helvetica">  9.227</text>
<text xml:space="preserve" x="209.24" y="18.681" fill="black" font-size="17.9813" font-family="Helvetica">Cs_015_calibrated</text></svg>
