<?xml version="1.0" standalone="no"?>
<svg width="567.429" height="384.969" viewBox="0 0 567.429 384.969" xmlns="http://www.w3.org/2000/svg" shape-rendering="crispEdges">
<title>
img/week1/calibrated_hist_high_gain/Cs_015.svg
</title>
<desc>
Creator: ROOT Version 6.22/09
CreationDate: Tue Jul 13 11:43:09 2021</desc>
<defs>
</defs>
<rect x="0.5" y="0" width="566.929" height="384.469" fill="white"/>
<rect x="57.1929" y="38.4469" width="453.543" height="307.575" fill="white"/>
<rect x="57.1929" y="38.4469" width="453.543" height="307.575" fill="none" stroke="black"/>
<path d="M57.1929,346.022h 65.5512v -0.324276h 0.442913v -1.67542h 0.442913v -7.83666h 0.442913v -8.70139h 0.442913v 0.27023h 0.442913v 2.05375h 0.442913v 2.37802h 0.442913v 0.432367h 0.442913v 2.05375h 0.442913v -0.216184h 0.442913v 1.18901h
 0.442913v 1.45924h 0.442913v 0.27023h 0.442913v 2.32397h 0.442913v 0.540459h 0.442913v 0.702597h 0.442913v -1.13496h 0.442913v 1.40519h 0.442913v 0.756643h 0.442913v -0.0540459h 0.442913v 0.702597h 0.442913v -0.108092h 0.442913v -0.27023h 0.442913v
 0.864735h 0.442913v -0.702597h 0.442913v 0.648551h 0.442913v 0.918781h 0.442913v 0.27023h 0.442913v -0.540459h 0.442913v -0.27023h 0.442913v 0.918781h 0.442913v -0.864735h 0.442913v 0.27023h 0.442913v 0.540459h 0.442913v -0.162138h 0.442913v
 -0.540459h 0.442913v -0.216184h 0.442913v 0.918781h 0.442913v 0.162138h 0.442913v 0.27023h 0.442913v -0.216184h 0.442913v -1.24306h 0.442913v 0.27023h 0.442913v 0.108092h 0.442913v 0.756643h 0.442913v -0.486413h 0.442913v 0.972827h 0.442913v
 -0.756643h 0.442913v 0.108092h 0.442913v -0.594505h 0.442913v 0.27023h 0.442913v 0.378321h 0.442913v 0.0540459h 0.442913v 0.216184h 0.442913v -0.108092h 0.442913v -0.324276h 0.442913v -0.108092h 0.442913v -0.0540459h 0.442913v -0.108092h 0.442913v
 1.2971h 0.442913v -0.432367h 0.442913v -0.918781h 0.442913v 0.594505h 0.442913v -0.0540459h 1.32874v 0.378321h 0.442913v -0.378321h 0.442913v 0.27023h 0.442913v -0.432367h 0.442913v 0.108092h 0.442913v -0.27023h 0.442913v 0.108092h 0.442913v
 0.27023h 0.442913v 0.432367h 0.442913v -0.702597h 0.442913v -0.108092h 0.442913v 0.162138h 0.442913v -0.324276h 0.442913v 0.216184h 0.442913v 0.324276h 0.442913v -0.432367h 0.442913v -0.27023h 0.442913v 0.594505h 0.442913v 0.108092h 0.442913v
 -0.162138h 0.442913v -0.324276h 0.442913v 0.27023h 0.442913v 0.378321h 0.442913v -0.27023h 0.442913v 0.432367h 0.442913v -0.108092h 0.442913v 0.0540459h 0.442913v -0.162138h 0.442913v -0.324276h 0.442913v -0.27023h 0.442913v -0.108092h 0.442913v
 0.0540459h 0.442913v 0.540459h 0.442913v 0.27023h 0.885827v -0.216184h 0.442913v 0.108092h 0.442913v -0.540459h 0.442913v -0.594505h 0.442913v 0.972827h 0.442913v 0.162138h 0.442913v -0.540459h 0.442913v 0.162138h 0.442913v 0.162138h 0.442913v
 -0.324276h 0.442913v 0.162138h 0.442913v 0.432367h 0.442913v -0.324276h 0.442913v -0.432367h 0.442913v 0.27023h 0.442913v 0.108092h 0.442913v 0.162138h 0.442913v -0.162138h 0.442913v 0.432367h 0.442913v -0.486413h 0.442913v -0.162138h 0.442913v
 0.378321h 0.442913v -0.540459h 0.442913v 0.0540459h 0.442913v 1.02687h 0.442913v -0.648551h 0.442913v -0.0540459h 0.442913v -0.216184h 0.442913v -0.0540459h 0.442913v 0.108092h 0.442913v 0.324276h 0.442913v 0.432367h 0.442913v -0.486413h 0.442913v
 -0.162138h 0.442913v 0.27023h 0.885827v -0.648551h 0.442913v 0.810689h 0.442913v -0.27023h 0.442913v -0.108092h 0.442913v -0.432367h 0.442913v 0.27023h 0.442913v 0.216184h 0.442913v 0.378321h 0.442913v 0.162138h 0.442913v -0.594505h 0.442913v
 0.432367h 0.442913v -0.27023h 0.442913v 0.108092h 0.442913v -0.108092h 0.442913v 0.27023h 0.442913v -0.432367h 0.442913v 0.0540459h 0.442913v 0.108092h 0.442913v 0.108092h 0.442913v -0.324276h 0.885827v 0.540459h 0.442913v -0.108092h 0.442913v
 -0.432367h 0.442913v 0.324276h 0.442913v -0.702597h 0.442913v 0.918781h 0.442913v -0.540459h 0.442913v -0.0540459h 0.442913v -0.378321h 0.442913v 0.594505h 0.442913v 0.324276h 0.442913v -0.324276h 0.885827v 0.486413h 0.442913v -0.162138h 0.442913v
 -0.0540459h 0.442913v -0.702597h 0.442913v 0.648551h 0.442913v 0.162138h 0.442913v 0.27023h 0.442913v -0.162138h 0.442913v -0.486413h 0.885827v -0.0540459h 0.442913v -0.432367h 0.442913v 1.02687h 0.442913v 0.0540459h 0.442913v -0.216184h 0.442913v
 -0.810689h 0.442913v 0.432367h 0.442913v -0.27023h 0.442913v 0.486413h 0.442913v 0.27023h 0.442913v -0.27023h 0.442913v 0.162138h 0.442913v -0.594505h 0.442913v 0.432367h 0.442913v 0.108092h 0.442913v -0.540459h 0.442913v 0.540459h 0.885827v
 0.108092h 0.442913v -0.0540459h 0.442913v -0.486413h 0.442913v 0.0540459h 0.442913v 0.108092h 0.442913v 0.432367h 0.442913v 0.216184h 0.442913v -0.594505h 0.442913v 0.162138h 0.442913v -0.216184h 0.442913v 0.540459h 0.442913v 0.0540459h 0.442913v
 -0.0540459h 0.442913v -0.540459h 0.442913v 0.378321h 0.442913v -0.432367h 0.442913v 0.702597h 0.442913v -0.27023h 0.442913v 0.108092h 0.442913v -0.378321h 0.442913v 0.540459h 0.442913v -0.378321h 0.442913v -0.162138h 0.442913v -0.27023h 0.442913v
 0.702597h 0.442913v -0.216184h 0.885827v -0.216184h 0.442913v -0.432367h 0.442913v 0.486413h 0.442913v 0.0540459h 0.442913v 0.162138h 0.442913v -0.108092h 0.442913v -0.162138h 0.442913v 0.162138h 0.442913v 0.27023h 0.442913v -0.432367h 0.442913v
 0.0540459h 0.442913v 0.108092h 0.442913v -0.216184h 0.885827v 0.0540459h 0.442913v 0.432367h 0.442913v -0.702597h 0.442913v 0.486413h 0.442913v -0.378321h 0.442913v 0.324276h 0.442913v -0.486413h 0.442913v 0.594505h 0.442913v -0.648551h 0.442913v
 0.27023h 0.442913v 0.216184h 0.442913v -0.27023h 0.442913v 0.540459h 0.442913v -0.27023h 0.442913v 0.216184h 0.442913v -0.432367h 0.885827v 0.648551h 0.442913v -0.0540459h 0.442913v -0.594505h 0.442913v 0.27023h 0.885827v 0.27023h 0.442913v 0.27023h
 0.442913v -0.216184h 0.442913v -0.108092h 0.442913v -0.27023h 0.442913v -0.540459h 0.442913v 0.27023h 0.442913v 0.378321h 0.442913v 0.0540459h 0.442913v -0.162138h 0.885827v 0.162138h 0.442913v -0.702597h 0.442913v 0.594505h 0.442913v 0.216184h
 0.442913v -0.378321h 0.442913v -0.0540459h 0.442913v 0.162138h 0.442913v -0.27023h 0.442913v 0.432367h 0.442913v -0.324276h 0.442913v 0.432367h 0.442913v -0.594505h 0.442913v -0.486413h 0.442913v 0.810689h 0.442913v -0.27023h 0.885827v 0.648551h
 0.442913v 0.0540459h 0.442913v -0.108092h 0.442913v -0.378321h 0.442913v 0.432367h 0.442913v -0.324276h 0.442913v 0.594505h 0.442913v -0.0540459h 0.442913v -0.648551h 0.442913v 0.432367h 0.442913v -0.162138h 0.442913v 0.108092h 0.442913v -0.162138h
 0.442913v -0.324276h 0.442913v -0.162138h 0.442913v 0.378321h 0.442913v -0.162138h 0.442913v -0.540459h 0.442913v 0.486413h 0.442913v -0.108092h 0.442913v 0.432367h 0.442913v 0.324276h 0.442913v -0.756643h 0.885827v -0.216184h 0.442913v 0.162138h
 0.442913v 0.972827h 0.442913v -0.486413h 0.442913v -0.432367h 0.442913v 0.324276h 0.442913v -0.756643h 0.442913v 0.648551h 0.442913v 0.324276h 0.885827v 0.108092h 0.442913v -0.432367h 0.442913v -0.27023h 0.442913v -0.27023h 0.442913v 0.378321h
 0.442913v 0.756643h 0.442913v -0.540459h 0.442913v 0.216184h 0.442913v -0.0540459h 0.442913v -0.378321h 0.442913v 0.216184h 0.442913v 0.27023h 0.442913v 0.324276h 0.885827v -0.540459h 0.442913v -0.540459h 0.442913v 0.432367h 0.442913v 0.108092h
 0.442913v 0.162138h 0.442913v -0.27023h 0.442913v 0.216184h 0.442913v -0.162138h 0.442913v 0.0540459h 0.442913v 0.162138h 0.442913v -0.324276h 0.442913v 0.216184h 0.442913v 0.594505h 0.442913v -0.324276h 0.442913v -0.756643h 0.442913v 0.594505h
 0.442913v -0.378321h 0.442913v 0.486413h 0.442913v -0.432367h 0.442913v -0.162138h 0.442913v 0.0540459h 0.442913v 0.27023h 0.442913v 0.216184h 0.442913v -0.324276h 0.442913v 0.162138h 0.442913v -0.594505h 0.442913v 0.810689h 0.442913v -0.648551h
 0.885827v 0.108092h 0.442913v 0.378321h 0.442913v -0.594505h 0.885827v -0.108092h 0.442913v -0.162138h 0.442913v 0.162138h 0.442913v -0.108092h 0.442913v 0.702597h 0.442913v -0.27023h 0.442913v -1.24306h 0.442913v 1.24306h 0.442913v 0.108092h
 0.442913v -0.108092h 0.442913v -0.540459h 0.442913v 0.540459h 0.442913v 0.486413h 0.442913v -0.324276h 0.442913v -1.02687h 0.442913v 0.324276h 0.442913v 0.486413h 0.442913v 0.216184h 0.442913v -0.27023h 0.442913v 0.486413h 0.442913v -0.756643h
 0.442913v -0.486413h 0.442913v 0.162138h 0.442913v -0.108092h 0.442913v 0.648551h 0.442913v -0.324276h 0.885827v -1.02687h 0.442913v 0.432367h 0.442913v 0.162138h 0.442913v 0.378321h 0.442913v 0.27023h 0.442913v -0.756643h 0.442913v 0.324276h
 0.442913v -0.648551h 0.885827v -0.162138h 0.442913v 0.594505h 0.442913v -0.0540459h 0.442913v 0.810689h 0.442913v -1.24306h 0.442913v -0.162138h 0.442913v 0.594505h 0.442913v -0.594505h 0.442913v 0.594505h 0.442913v -0.432367h 0.885827v -0.378321h
 0.442913v -0.486413h 0.442913v 1.02687h 0.442913v 0.378321h 0.442913v -0.378321h 0.442913v 0.918781h 0.442913v -1.35115h 0.442913v -0.486413h 0.442913v 0.324276h 0.442913v 0.486413h 0.442913v -0.108092h 0.442913v 0.324276h 0.442913v 0.108092h
 0.442913v 0.378321h 0.442913v -1.2971h 0.442913v 1.02687h 0.442913v -0.594505h 0.442913v 0.216184h 0.442913v 0.594505h 0.442913v -0.594505h 0.442913v -0.324276h 0.442913v -0.0540459h 0.442913v 0.486413h 0.442913v 0.108092h 0.442913v -0.432367h
 0.442913v -0.216184h 0.442913v 0.540459h 0.442913v -0.594505h 0.442913v 0.216184h 0.442913v 1.08092h 0.442913v -0.378321h 0.442913v -0.810689h 0.442913v 0.108092h 0.442913v 0.108092h 0.442913v 0.702597h 0.442913v -0.540459h 0.442913v 0.594505h
 0.442913v 0.216184h 0.442913v -0.432367h 0.442913v 0.108092h 0.442913v -0.27023h 0.442913v 0.162138h 0.442913v 0.0540459h 0.442913v 0.27023h 0.442913v 0.162138h 0.442913v -0.918781h 0.442913v -0.216184h 0.442913v 0.108092h 0.442913v 0.0540459h
 0.442913v 0.702597h 0.442913v 0.324276h 0.442913v -0.432367h 0.442913v -0.540459h 0.442913v 0.486413h 0.442913v 0.162138h 0.442913v 0.864735h 0.442913v -0.756643h 0.442913v -0.27023h 0.442913v 0.162138h 0.442913v -0.162138h 0.442913v 0.0540459h
 0.442913v 0.540459h 0.442913v 0.108092h 0.442913v -0.108092h 0.442913v 0.0540459h 0.442913v -0.702597h 0.442913v 0.702597h 0.442913v 0.162138h 0.442913v 0.216184h 0.442913v -0.432367h 0.442913v -0.162138h 0.442913v 0.216184h 0.442913v -0.162138h
 0.442913v -0.108092h 0.442913v -0.702597h 0.442913v 1.24306h 0.442913v -0.162138h 0.442913v -0.27023h 0.442913v 0.486413h 0.442913v 0.0540459h 0.442913v -0.108092h 0.442913v 0.0540459h 0.442913v -0.0540459h 0.442913v 0.162138h 0.442913v -0.0540459h
 0.885827v 0.162138h 0.442913v -0.486413h 0.442913v -0.216184h 0.442913v 0.540459h 0.442913v -0.594505h 0.442913v -0.0540459h 0.442913v -0.0540459h 0.442913v 0.702597h 0.442913v -0.486413h 0.442913v 0.594505h 0.442913v 0.108092h 0.442913v 0.108092h
 0.442913v -0.324276h 0.442913v -0.27023h 0.442913v -0.324276h 0.442913v 0.756643h 0.442913v 0.108092h 0.442913v -0.486413h 0.442913v 0.216184h 0.442913v -0.324276h 0.442913v 0.324276h 0.442913v -0.594505h 0.442913v 0.702597h 0.442913v 0.216184h
 0.442913v -0.378321h 0.442913v -0.432367h 0.442913v 0.486413h 0.442913v 0.108092h 0.442913v 0.108092h 0.442913v 0.216184h 0.442913v -0.108092h 0.442913v -0.648551h 0.442913v 0.108092h 0.442913v -0.216184h 0.442913v 0.756643h 0.442913v 0.0540459h
 0.442913v -0.540459h 0.442913v 0.27023h 0.442913v -0.324276h 0.442913v -0.0540459h 0.442913v 0.324276h 0.442913v -0.108092h 0.442913v 0.108092h 0.885827v -0.0540459h 0.442913v -0.108092h 0.442913v -0.162138h 0.442913v 0.540459h 0.442913v -0.0540459h
 0.442913v 0.216184h 0.442913v -0.918781h 0.442913v 0.810689h 0.442913v -0.108092h 0.442913v -0.378321h 0.442913v 0.378321h 0.442913v -0.108092h 0.442913v 0.108092h 0.442913v -0.540459h 0.442913v 0.108092h 0.442913v 0.27023h 0.442913v -0.486413h
 0.442913v 0.324276h 0.442913v 0.162138h 0.442913v -0.162138h 0.442913v -0.324276h 0.442913v 0.378321h 0.442913v -0.27023h 0.442913v -0.0540459h 0.442913v 0.378321h 0.442913v -0.162138h 0.442913v -0.378321h 0.442913v 1.02687h 0.442913v -0.540459h
 0.442913v -0.756643h 0.442913v 0.918781h 0.442913v 0.216184h 0.442913v -0.432367h 0.442913v -0.432367h 0.442913v 0.108092h 0.442913v 0.324276h 0.442913v 0.162138h 0.442913v -0.0540459h 0.442913v 0.486413h 0.442913v -1.56733h 0.442913v 1.02687h
 0.885827v -0.486413h 0.442913v 0.108092h 0.442913v 0.486413h 0.442913v -0.432367h 0.442913v -0.540459h 0.442913v 0.378321h 0.442913v 0.486413h 0.442913v -1.35115h 0.442913v 1.18901h 0.442913v 0.540459h 0.442913v -1.45924h 0.442913v 0.594505h
 0.442913v -0.486413h 0.442913v 0.432367h 0.442913v 0.108092h 0.442913v -0.216184h 0.442913v 0.108092h 0.442913v -0.108092h 0.885827v -0.432367h 0.442913v 0.756643h 0.442913v -0.0540459h 0.442913v -0.0540459h 0.442913v -0.486413h 0.442913v 0.216184h
 0.442913v -0.324276h 0.442913v 0.216184h 0.442913v -0.324276h 0.442913v 0.27023h 0.442913v -0.594505h 0.442913v 0.216184h 0.442913v 0.0540459h 0.442913v -0.27023h 0.442913v -0.216184h 0.442913v 0.810689h 0.442913v -0.378321h 0.442913v -0.27023h
 0.442913v 0.162138h 0.442913v -0.756643h 0.442913v 0.162138h 0.442913v -0.324276h 0.442913v 0.27023h 0.442913v 1.13496h 0.442913v -1.78352h 0.442913v 0.108092h 0.885827v -0.432367h 0.442913v 0.540459h 0.442913v 0.756643h 0.442913v -1.18901h
 0.442913v -0.0540459h 0.442913v 0.162138h 0.442913v -1.51329h 0.442913v 0.702597h 0.442913v 1.18901h 0.885827v -0.648551h 0.442913v -2.16184h 0.442913v 1.72947h 0.442913v -0.540459h 0.885827v 1.40519h 0.442913v -0.162138h 0.442913v -0.540459h
 0.442913v -1.62138h 0.442913v 0.216184h 0.442913v 0.27023h 0.442913v 1.13496h 0.442913v -0.702597h 0.442913v -1.78352h 0.442913v 0.864735h 0.442913v -0.486413h 0.442913v 0.324276h 0.442913v 0.108092h 0.442913v 0.0540459h 0.442913v -0.432367h
 0.442913v 0.486413h 0.442913v -0.594505h 0.442913v -0.972827h 0.442913v 0.378321h 0.442913v 0.540459h 0.442913v 0.864735h 0.442913v -1.72947h 0.442913v -1.24306h 0.442913v -0.432367h 0.442913v 1.78352h 0.442913v -0.648551h 0.442913v 2.75634h
 0.442913v -1.51329h 0.442913v -1.9997h 0.442913v 1.08092h 0.442913v -1.35115h 0.442913v 0.486413h 0.442913v 0.918781h 0.442913v 0.810689h 0.442913v -2.26993h 0.442913v -1.62138h 0.442913v 0.972827h 0.442913v 0.648551h 0.442913v 0.216184h 0.442913v
 1.78352h 0.442913v -0.162138h 0.442913v -0.324276h 0.442913v -1.78352h 0.442913v -1.18901h 0.442913v 2.21588h 0.442913v -1.83756h 0.442913v 2.7023h 0.442913v -0.972827h 0.442913v -2.43207h 0.442913v 1.35115h 0.442913v 0.918781h 0.442913v 0.324276h
 0.442913v 1.51329h 0.442913v -0.162138h 0.442913v -2.81039h 0.442913v 0.540459h 0.442913v -0.594505h 0.442913v 0.594505h 0.442913v 0.540459h 0.442913v 2.26993h 0.442913v -1.9997h 0.442913v 0.432367h 0.442913v -1.51329h 0.442913v 1.56733h 0.442913v
 0.324276h 0.442913v -0.702597h 0.442913v 1.62138h 0.442913v -0.972827h 0.442913v -0.378321h 0.442913v -0.648551h 0.442913v -0.216184h 0.442913v 0.972827h 0.442913v 1.18901h 0.442913v 0.918781h 0.442913v -1.35115h 0.442913v 0.648551h 0.442913v
 -0.972827h 0.442913v 0.702597h 0.442913v 1.13496h 0.442913v 0.972827h 0.442913v -0.972827h 0.442913v -0.918781h 0.442913v -0.918781h 0.442913v 1.72947h 0.442913v -0.486413h 0.442913v 0.972827h 0.442913v 1.13496h 0.442913v 0.216184h 0.442913v
 -1.94565h 0.442913v 0.594505h 0.442913v 0.378321h 0.442913v 0.324276h 0.442913v 0.972827h 0.442913v -0.702597h 0.442913v -0.324276h 0.442913v -1.35115h 0.442913v 2.21588h 0.885827v 0.216184h 0.442913v -0.0540459h 0.442913v 0.0540459h 0.442913v
 -0.486413h 0.442913v 1.13496h 0.442913v -0.486413h 0.442913v 0.0540459h 0.442913v 0.432367h 0.442913v 0.648551h 0.442913v -1.08092h 0.442913v -0.702597h 0.442913v 0.918781h 0.442913v 0.918781h 0.885827v -0.108092h 0.442913v 0.324276h 0.442913v
 -0.864735h 0.442913v 1.56733h 0.442913v -1.13496h 0.442913v 0.810689h 0.442913v -0.108092h 0.442913v -1.13496h 0.442913v 0.540459h 0.442913v -0.27023h 0.442913v -0.162138h 0.442913v -0.162138h 0.442913v 1.40519h 0.442913v -0.162138h 0.442913v
 -0.378321h 0.442913v -0.432367h 0.442913v 0.432367h 0.442913v 0.378321h 0.442913v -0.324276h 0.442913v -0.324276h 0.442913v 1.02687h 0.442913v -1.02687h 0.442913v -0.0540459h 0.442913v 0.702597h 0.442913v -0.324276h 0.442913v 0.27023h 0.442913v
 0.162138h 1.32874v -0.432367h 0.442913v -0.27023h 0.442913v 0.27023h 0.442913v 0.540459h 0.442913v -0.0540459h 0.442913v -0.810689h 0.442913v 0.162138h 0.442913v 0.27023h 0.442913v -0.0540459h 0.442913v 0.216184h 0.442913v -0.108092h 0.442913v
 -0.486413h 0.442913v -0.378321h 0.442913v -0.324276h 0.442913v -0.0540459h 0.442913v -2.21588h 0.442913v -0.702597h 0.442913v -14.16h 0.442913v -90.3648h 0.442913v -182.027h 0.442913v 16.6461h 0.442913v 96.4179h 0.442913v 40.5344h 0.442913v 8.37712h
 0.442913v -14.4843h 0.442913v 6.21528h 0.442913v 27.3472h 0.442913v 24.6449h 0.442913v 22.6993h 0.442913v 20.051h 0.442913v 7.56643h 0.442913v -8.10689h 0.442913v 6.37742h 0.442913v -0.162138h 0.442913v 1.51329h 0.442913v 5.45864h 0.442913v
 0.432367h 0.442913v -3.13466h 0.442913v -2.26993h 0.442913v 0.324276h 0.442913v 2.26993h 0.442913v 0.27023h 0.442913v 6.91788h 0.442913v -1.9997h 0.442913v -2.97253h 0.442913v -1.62138h 0.442913v 1.9997h 0.442913v 0.0540459h 0.442913v 2.48611h
 0.442913v 4.32367h 0.442913v -2.48611h 0.442913v -4.64795h 0.442913v -1.18901h 0.442913v 1.2971h 0.442913v -0.162138h 0.442913v 5.35055h 0.442913v -0.108092h 0.442913v -6.16123h 0.442913v 0.756643h 0.442913v 0.810689h 0.442913v -2.21588h 0.442913v
 4.48581h 0.442913v 1.94565h 0.442913v -1.51329h 0.442913v -3.02657h 0.885827v 0.378321h 0.442913v -0.540459h 0.442913v 7.78261h 0.442913v 2.43207h 0.442913v -6.86383h 0.442913v 0.108092h 0.442913v 3.51298h 0.442913v 3.35085h 0.442913v 5.13436h
 0.442913v 4.26963h 0.442913v 2.64825h 0.442913v 1.40519h 0.442913v 3.62108h 0.442913v 2.10779h 0.442913v 1.18901h 0.442913v 0.810689h 0.442913v 0.108092h 0.442913v 0.162138h 0.885827" fill="none" stroke="#000099"/>
<path d="M57.1929,346.022h 453.543" fill="none" stroke="black"/>
<path d="M57.1929,336.795v 9.22726" fill="none" stroke="black"/>
<path d="M68.5315,341.409v 4.61363" fill="none" stroke="black"/>
<path d="M79.8701,341.409v 4.61363" fill="none" stroke="black"/>
<path d="M91.2087,341.409v 4.61363" fill="none" stroke="black"/>
<path d="M102.547,341.409v 4.61363" fill="none" stroke="black"/>
<path d="M113.886,336.795v 9.22726" fill="none" stroke="black"/>
<path d="M125.224,341.409v 4.61363" fill="none" stroke="black"/>
<path d="M136.563,341.409v 4.61363" fill="none" stroke="black"/>
<path d="M147.902,341.409v 4.61363" fill="none" stroke="black"/>
<path d="M159.24,341.409v 4.61363" fill="none" stroke="black"/>
<path d="M170.579,336.795v 9.22726" fill="none" stroke="black"/>
<path d="M181.917,341.409v 4.61363" fill="none" stroke="black"/>
<path d="M193.256,341.409v 4.61363" fill="none" stroke="black"/>
<path d="M204.594,341.409v 4.61363" fill="none" stroke="black"/>
<path d="M215.933,341.409v 4.61363" fill="none" stroke="black"/>
<path d="M227.272,336.795v 9.22726" fill="none" stroke="black"/>
<path d="M238.61,341.409v 4.61363" fill="none" stroke="black"/>
<path d="M249.949,341.409v 4.61363" fill="none" stroke="black"/>
<path d="M261.287,341.409v 4.61363" fill="none" stroke="black"/>
<path d="M272.626,341.409v 4.61363" fill="none" stroke="black"/>
<path d="M283.965,336.795v 9.22726" fill="none" stroke="black"/>
<path d="M295.303,341.409v 4.61363" fill="none" stroke="black"/>
<path d="M306.642,341.409v 4.61363" fill="none" stroke="black"/>
<path d="M317.98,341.409v 4.61363" fill="none" stroke="black"/>
<path d="M329.319,341.409v 4.61363" fill="none" stroke="black"/>
<path d="M340.657,336.795v 9.22726" fill="none" stroke="black"/>
<path d="M351.996,341.409v 4.61363" fill="none" stroke="black"/>
<path d="M363.335,341.409v 4.61363" fill="none" stroke="black"/>
<path d="M374.673,341.409v 4.61363" fill="none" stroke="black"/>
<path d="M386.012,341.409v 4.61363" fill="none" stroke="black"/>
<path d="M397.35,336.795v 9.22726" fill="none" stroke="black"/>
<path d="M408.689,341.409v 4.61363" fill="none" stroke="black"/>
<path d="M420.028,341.409v 4.61363" fill="none" stroke="black"/>
<path d="M431.366,341.409v 4.61363" fill="none" stroke="black"/>
<path d="M442.705,341.409v 4.61363" fill="none" stroke="black"/>
<path d="M454.043,336.795v 9.22726" fill="none" stroke="black"/>
<path d="M465.382,341.409v 4.61363" fill="none" stroke="black"/>
<path d="M476.72,341.409v 4.61363" fill="none" stroke="black"/>
<path d="M488.059,341.409v 4.61363" fill="none" stroke="black"/>
<path d="M499.398,341.409v 4.61363" fill="none" stroke="black"/>
<path d="M510.736,336.795v 9.22726" fill="none" stroke="black"/>
<text xml:space="preserve" x="53.446" y="358.403" fill="black" font-size="12.8453" font-family="Helvetica">0</text>
<text xml:space="preserve" x="110.465" y="358.403" fill="black" font-size="12.8453" font-family="Helvetica">5</text>
<text xml:space="preserve" x="163.411" y="358.403" fill="black" font-size="12.8453" font-family="Helvetica">10</text>
<text xml:space="preserve" x="219.615" y="358.403" fill="black" font-size="12.8453" font-family="Helvetica">15</text>
<text xml:space="preserve" x="277.448" y="358.403" fill="black" font-size="12.8453" font-family="Helvetica">20</text>
<text xml:space="preserve" x="332.838" y="358.403" fill="black" font-size="12.8453" font-family="Helvetica">25</text>
<text xml:space="preserve" x="390.671" y="358.403" fill="black" font-size="12.8453" font-family="Helvetica">30</text>
<text xml:space="preserve" x="446.061" y="358.403" fill="black" font-size="12.8453" font-family="Helvetica">35</text>
<text xml:space="preserve" x="503.894" y="358.403" fill="black" font-size="12.8453" font-family="Helvetica">40</text>
<text xml:space="preserve" x="441.173" y="370.622" fill="black" font-size="12.8453" font-family="Helvetica">Energy [keV]</text>
<path d="M57.1929,346.022v -307.575" fill="none" stroke="black"/>
<path d="M70.7992,346.022h -13.6063" fill="none" stroke="black"/>
<path d="M63.9961,335.213h -6.80315" fill="none" stroke="black"/>
<path d="M63.9961,324.404h -6.80315" fill="none" stroke="black"/>
<path d="M63.9961,313.595h -6.80315" fill="none" stroke="black"/>
<path d="M63.9961,302.786h -6.80315" fill="none" stroke="black"/>
<path d="M70.7992,291.976h -13.6063" fill="none" stroke="black"/>
<path d="M63.9961,281.167h -6.80315" fill="none" stroke="black"/>
<path d="M63.9961,270.358h -6.80315" fill="none" stroke="black"/>
<path d="M63.9961,259.549h -6.80315" fill="none" stroke="black"/>
<path d="M63.9961,248.74h -6.80315" fill="none" stroke="black"/>
<path d="M70.7992,237.93h -13.6063" fill="none" stroke="black"/>
<path d="M63.9961,227.121h -6.80315" fill="none" stroke="black"/>
<path d="M63.9961,216.312h -6.80315" fill="none" stroke="black"/>
<path d="M63.9961,205.503h -6.80315" fill="none" stroke="black"/>
<path d="M63.9961,194.694h -6.80315" fill="none" stroke="black"/>
<path d="M70.7992,183.884h -13.6063" fill="none" stroke="black"/>
<path d="M63.9961,173.075h -6.80315" fill="none" stroke="black"/>
<path d="M63.9961,162.266h -6.80315" fill="none" stroke="black"/>
<path d="M63.9961,151.457h -6.80315" fill="none" stroke="black"/>
<path d="M63.9961,140.648h -6.80315" fill="none" stroke="black"/>
<path d="M70.7992,129.839h -13.6063" fill="none" stroke="black"/>
<path d="M63.9961,119.029h -6.80315" fill="none" stroke="black"/>
<path d="M63.9961,108.22h -6.80315" fill="none" stroke="black"/>
<path d="M63.9961,97.411h -6.80315" fill="none" stroke="black"/>
<path d="M63.9961,86.6018h -6.80315" fill="none" stroke="black"/>
<path d="M70.7992,75.7926h -13.6063" fill="none" stroke="black"/>
<path d="M70.7992,75.7926h -13.6063" fill="none" stroke="black"/>
<path d="M63.9961,64.9835h -6.80315" fill="none" stroke="black"/>
<path d="M63.9961,54.1743h -6.80315" fill="none" stroke="black"/>
<path d="M63.9961,43.3651h -6.80315" fill="none" stroke="black"/>
<text xml:space="preserve" x="47.7441" y="350.258" fill="black" font-size="12.8453" font-family="Helvetica">0</text>
<text xml:space="preserve" x="27.3803" y="296.497" fill="black" font-size="12.8453" font-family="Helvetica">1000</text>
<text xml:space="preserve" x="27.3803" y="242.737" fill="black" font-size="12.8453" font-family="Helvetica">2000</text>
<text xml:space="preserve" x="27.3803" y="188.162" fill="black" font-size="12.8453" font-family="Helvetica">3000</text>
<text xml:space="preserve" x="27.3803" y="134.401" fill="black" font-size="12.8453" font-family="Helvetica">4000</text>
<text xml:space="preserve" x="27.3803" y="80.6408" fill="black" font-size="12.8453" font-family="Helvetica">5000</text>
<g transform="rotate(-90,14.3474,70.0516)">
<text xml:space="preserve" x="14.3474" y="70.0516" fill="black" font-size="12.8453" font-family="Helvetica">Event</text>
</g>
<text xml:space="preserve" x="209.026" y="18.7347" fill="black" font-size="18.0316" font-family="Helvetica">Cs_015_calibrated</text>
<rect x="442.705" y="24.9905" width="113.386" height="61.5151" fill="white"/>
<path d="M442.705,86.5056h 113.386" fill="none" stroke="black"/>
<path d="M556.091,86.5056v -61.5151" fill="none" stroke="black"/>
<path d="M556.091,24.9905h -113.386" fill="none" stroke="black"/>
<path d="M442.705,24.9905v 61.5151" fill="none" stroke="black"/>
<text xml:space="preserve" x="447.69" y="36.6549" fill="black" font-size="12.5522" font-family="Helvetica">Cs_015_calibrated</text>
<path d="M442.705,40.3693h 113.386" fill="none" stroke="black"/>
<text xml:space="preserve" x="447.69" y="52.946" fill="black" font-size="12.3904" font-family="Helvetica">Entries </text>
<text xml:space="preserve" x="506.338" y="52.946" fill="black" font-size="12.3904" font-family="Helvetica"> 100820</text>
<text xml:space="preserve" x="447.69" y="67.6079" fill="black" font-size="12.3904" font-family="Helvetica">Mean  </text>
<text xml:space="preserve" x="512.854" y="67.6079" fill="black" font-size="12.3904" font-family="Helvetica">  32.27</text>
<text xml:space="preserve" x="447.69" y="83.0844" fill="black" font-size="12.3904" font-family="Helvetica">Std Dev   </text>
<text xml:space="preserve" x="512.854" y="83.0844" fill="black" font-size="12.3904" font-family="Helvetica">  9.468</text>
<text xml:space="preserve" x="209.026" y="18.7347" fill="black" font-size="18.0316" font-family="Helvetica">Cs_015_calibrated</text></svg>
