<?xml version="1.0" standalone="no"?>
<svg width="567.429" height="384.969" viewBox="0 0 567.429 384.969" xmlns="http://www.w3.org/2000/svg" shape-rendering="crispEdges">
<title>
img/week1/standardizedByTime/Bg_015.svg
</title>
<desc>
Creator: ROOT Version 6.22/09
CreationDate: Wed Jul 14 10:00:32 2021</desc>
<defs>
</defs>
<rect x="0.5" y="0" width="566.929" height="384.469" fill="white"/>
<rect x="57.1929" y="38.4469" width="453.543" height="307.575" fill="white"/>
<rect x="57.1929" y="38.4469" width="453.543" height="307.575" fill="none" stroke="black"/>
<path d="M57.1929,346.022h 63.897v -0.0149134h 1.25288v -0.626363h 0.626441v -31.5866h 0.626441v -163.674h 0.626441v -97.0265h 0.626441v 56.0445h 0.626441v 56.7902h 0.626441v -1.74487h 0.626441v 22.8622h 0.626441v 37.8055h 0.626441v 31.5269h
 0.626441v 4.84685h 0.626441v 6.12941h 0.626441v 13.7501h 0.626441v 17.7022h 0.626441v 8.48572h 0.626441v 3.1169h 0.626441v 4.68281h 0.626441v 7.02421h 0.626441v 5.72674h 0.626441v 2.52036h 0.626441v 0.999197h 0.626441v 2.63967h 0.626441v 2.72915h
 0.626441v 2.77389h 0.626441v 0.208788h 0.626441v 0.462315h 0.626441v 1.47643h 0.626441v 1.04394h 0.626441v 0.626363h 0.626441v 0.0298268h 0.626441v 0.417575h 0.626441v 0.357921h 0.626441v 0.715843h 0.626441v 0.134221h 0.626441v 0.0447402h 0.626441v
 0.178961h 0.626441v 0.074567h 0.626441v 0.268441h 1.25288v 0.0298268h 0.626441v 0.149134h 0.626441v -0.119307h 0.626441v 0.178961h 0.626441v 0.0596536h 0.626441v -0.149134h 0.626441v 0.119307h 0.626441v -0.0447402h 0.626441v 0.119307h 1.25288v
 -0.0447402h 0.626441v 0.0298268h 0.626441v 0.0447402h 0.626441v -0.0596536h 0.626441v 0.104394h 0.626441v -0.0894804h 0.626441v 0.104394h 0.626441v -0.0298268h 0.626441v -0.0298268h 0.626441v -0.0894804h 0.626441v 0.0596536h 0.626441v 0.0596536h
 0.626441v -0.0149134h 1.25288v -0.0298268h 0.626441v 0.0596536h 0.626441v 0.0149134h 0.626441v -0.0447402h 0.626441v -0.0447402h 0.626441v -0.0298268h 0.626441v 0.119307h 0.626441v -0.119307h 0.626441v -0.0149134h 0.626441v 0.074567h 0.626441v
 0.074567h 0.626441v -0.134221h 0.626441v 0.0596536h 0.626441v 0.0149134h 0.626441v -0.0149134h 0.626441v 0.0298268h 1.25288v -0.074567h 0.626441v 0.0447402h 0.626441v 0.0298268h 0.626441v -0.0149134h 0.626441v -0.0596536h 0.626441v 0.104394h
 0.626441v -0.0447402h 0.626441v 0.0149134h 0.626441v -0.119307h 0.626441v 0.104394h 1.25288v -0.0149134h 0.626441v 0.0298268h 0.626441v -0.0298268h 1.25288v -0.0149134h 0.626441v 0.0149134h 0.626441v 0.0149134h 0.626441v 0.0149134h 1.25288v
 -0.074567h 0.626441v 0.0596536h 0.626441v -0.104394h 0.626441v 0.074567h 0.626441v -0.0447402h 0.626441v 0.104394h 1.25288v -0.0596536h 0.626441v 0.0149134h 0.626441v 0.0149134h 1.87932v -0.0149134h 0.626441v -0.0447402h 0.626441v 0.0298268h
 0.626441v -0.0149134h 0.626441v 0.0447402h 0.626441v 0.0447402h 0.626441v -0.149134h 0.626441v 0.134221h 0.626441v 0.0149134h 1.25288v -0.104394h 0.626441v 0.0596536h 0.626441v 0.074567h 0.626441v -0.074567h 0.626441v -0.0447402h 0.626441v
 -0.0149134h 0.626441v -0.0149134h 0.626441v 0.074567h 0.626441v -0.0298268h 0.626441v 0.0298268h 0.626441v -0.0298268h 0.626441v -0.0447402h 0.626441v 0.0596536h 1.25288v 0.0596536h 0.626441v -0.0447402h 0.626441v -0.0894804h 0.626441v 0.104394h
 0.626441v -0.0447402h 0.626441v -0.0298268h 0.626441v 0.0596536h 0.626441v 0.0149134h 0.626441v 0.0149134h 0.626441v -0.074567h 0.626441v 0.0298268h 0.626441v 0.0298268h 0.626441v -0.0596536h 0.626441v 0.074567h 0.626441v -0.0596536h 0.626441v
 0.0298268h 0.626441v -0.0149134h 0.626441v 0.0149134h 0.626441v 0.0149134h 0.626441v -0.0447402h 0.626441v 0.0447402h 0.626441v -0.0447402h 0.626441v 0.0149134h 0.626441v 0.0149134h 0.626441v 0.0149134h 0.626441v 0.0298268h 0.626441v -0.074567h
 0.626441v 0.0298268h 1.25288v 0.0149134h 0.626441v 0.0149134h 0.626441v -0.0149134h 0.626441v 0.0149134h 0.626441v -0.074567h 0.626441v -0.0447402h 0.626441v 0.134221h 0.626441v -0.0596536h 0.626441v 0.0298268h 0.626441v -0.0149134h 0.626441v
 0.0447402h 1.25288v -0.0149134h 0.626441v -0.0596536h 0.626441v 0.0447402h 0.626441v -0.0149134h 0.626441v 0.0298268h 0.626441v 0.0149134h 0.626441v 0.0149134h 0.626441v -0.0447402h 0.626441v -0.0596536h 0.626441v 0.074567h 0.626441v 0.0298268h
 1.25288v -0.0447402h 0.626441v -0.0149134h 0.626441v 0.0447402h 0.626441v -0.0596536h 0.626441v 0.0596536h 0.626441v -0.104394h 0.626441v 0.0149134h 0.626441v 0.119307h 0.626441v -0.0596536h 1.25288v 0.0298268h 0.626441v -0.074567h 0.626441v
 0.0298268h 0.626441v 0.0298268h 0.626441v -0.0596536h 0.626441v 0.074567h 0.626441v -0.0447402h 0.626441v 0.0894804h 0.626441v -0.074567h 2.50576v -0.0447402h 0.626441v 0.0596536h 0.626441v -0.0149134h 1.25288v -0.0447402h 1.25288v 0.0298268h
 0.626441v -0.0447402h 0.626441v 0.0298268h 0.626441v 0.0596536h 0.626441v -0.0149134h 0.626441v 0.0149134h 0.626441v -0.0149134h 0.626441v -0.0447402h 0.626441v 0.0596536h 0.626441v 0.0149134h 1.25288v -0.119307h 0.626441v 0.0894804h 0.626441v
 -0.0298268h 0.626441v 0.0298268h 0.626441v -0.0149134h 0.626441v 0.0149134h 0.626441v 0.0149134h 1.25288v 0.0149134h 0.626441v -0.074567h 0.626441v -0.0149134h 0.626441v 0.074567h 0.626441v -0.0894804h 1.25288v 0.074567h 0.626441v 0.0149134h
 0.626441v -0.0149134h 0.626441v -0.0298268h 0.626441v -0.0149134h 0.626441v 0.0298268h 0.626441v -0.0149134h 0.626441v 0.0298268h 0.626441v -0.0149134h 0.626441v -0.0298268h 0.626441v 0.0149134h 0.626441v 0.0447402h 0.626441v -0.074567h 0.626441v
 0.0298268h 0.626441v 0.0149134h 0.626441v 0.0596536h 0.626441v -0.074567h 0.626441v -0.0894804h 0.626441v 0.0894804h 0.626441v -0.0149134h 0.626441v 0.0298268h 1.25288v 0.0298268h 1.25288v -0.0447402h 0.626441v 0.0596536h 0.626441v -0.074567h
 0.626441v -0.0149134h 0.626441v 0.074567h 0.626441v -0.0447402h 0.626441v 0.0596536h 1.25288v -0.0596536h 0.626441v 0.0596536h 0.626441v -0.104394h 0.626441v 0.0298268h 0.626441v 0.0149134h 0.626441v 0.0149134h 0.626441v -0.0298268h 0.626441v
 0.0447402h 0.626441v -0.0447402h 0.626441v 0.074567h 0.626441v -0.0447402h 0.626441v -0.0298268h 0.626441v 0.0596536h 0.626441v -0.104394h 0.626441v 0.0298268h 0.626441v 0.0149134h 0.626441v 0.0447402h 0.626441v -0.0149134h 0.626441v -0.0298268h
 0.626441v 0.0298268h 0.626441v -0.0149134h 0.626441v 0.0447402h 1.25288v -0.074567h 0.626441v -0.0149134h 0.626441v 0.0894804h 0.626441v 0.0149134h 0.626441v -0.0894804h 0.626441v 0.0447402h 0.626441v -0.0298268h 0.626441v 0.0596536h 1.25288v
 -0.0149134h 1.25288v -0.0447402h 1.25288v 0.0298268h 0.626441v -0.0149134h 1.25288v 0.0298268h 0.626441v -0.0894804h 0.626441v 0.104394h 0.626441v -0.0596536h 0.626441v 0.0149134h 0.626441v -0.0298268h 0.626441v 0.0298268h 0.626441v -0.0298268h
 0.626441v 0.0298268h 0.626441v 0.0149134h 0.626441v -0.0298268h 0.626441v -0.0298268h 0.626441v 0.0596536h 0.626441v 0.0149134h 0.626441v -0.0596536h 1.25288v 0.0596536h 0.626441v -0.0298268h 0.626441v 0.0298268h 0.626441v -0.0298268h 0.626441v
 -0.0149134h 0.626441v 0.0447402h 0.626441v -0.0149134h 0.626441v -0.0149134h 0.626441v 0.0149134h 0.626441v -0.0149134h 0.626441v 0.0149134h 0.626441v -0.0149134h 0.626441v 0.074567h 1.25288v -0.074567h 0.626441v 0.0298268h 0.626441v 0.0149134h
 0.626441v 0.0149134h 0.626441v -0.0447402h 0.626441v 0.0596536h 0.626441v -0.0447402h 0.626441v -0.0596536h 0.626441v 0.0596536h 0.626441v 0.0298268h 0.626441v -0.0298268h 0.626441v 0.0298268h 0.626441v -0.0596536h 0.626441v 0.074567h 0.626441v
 -0.074567h 0.626441v -0.0149134h 0.626441v 0.074567h 0.626441v -0.0298268h 1.25288v -0.0447402h 0.626441v 0.0298268h 0.626441v 0.0298268h 0.626441v -0.0447402h 0.626441v 0.0298268h 1.25288v 0.0149134h 0.626441v -0.0447402h 0.626441v -0.0298268h
 0.626441v 0.0447402h 1.25288v 0.0447402h 0.626441v -0.0298268h 0.626441v -0.0298268h 0.626441v 0.0149134h 0.626441v 0.0149134h 0.626441v -0.0298268h 0.626441v 0.0149134h 0.626441v 0.0298268h 0.626441v -0.0149134h 0.626441v 0.0298268h 0.626441v
 0.0149134h 1.25288v -0.0596536h 0.626441v 0.0298268h 0.626441v -0.0447402h 0.626441v 0.0596536h 0.626441v 0.0149134h 0.626441v -0.0447402h 2.50576v -0.0149134h 0.626441v -0.0149134h 0.626441v 0.0447402h 0.626441v -0.0149134h 0.626441v 0.0447402h
 0.626441v -0.0894804h 0.626441v 0.0298268h 0.626441v 0.0447402h 1.25288v -0.0149134h 0.626441v -0.0298268h 0.626441v 0.0596536h 0.626441v -0.0596536h 0.626441v 0.0149134h 0.626441v -0.0149134h 0.626441v 0.0149134h 0.626441v 0.0149134h 1.25288v
 0.0149134h 0.626441v -0.0596536h 0.626441v 0.0149134h 0.626441v 0.0149134h 0.626441v 0.0298268h 1.25288v -0.0447402h 0.626441v 0.0298268h 0.626441v 0.0447402h 0.626441v -0.0596536h 0.626441v 0.0447402h 0.626441v -0.074567h 0.626441v 0.074567h
 0.626441v -0.074567h 0.626441v -0.0447402h 0.626441v 0.104394h 0.626441v -0.0149134h 0.626441v -0.0149134h 0.626441v 0.0149134h 1.25288v 0.0149134h 0.626441v -0.0298268h 0.626441v -0.0298268h 0.626441v 0.0149134h 0.626441v -0.0298268h 0.626441v
 0.074567h 0.626441v -0.0149134h 0.626441v -0.0447402h 0.626441v 0.0596536h 1.25288v -0.0149134h 0.626441v 0.0298268h 0.626441v -0.0298268h 0.626441v -0.0447402h 0.626441v 0.0596536h 0.626441v 0.0149134h 0.626441v -0.0596536h 0.626441v 0.0596536h
 0.626441v -0.0447402h 0.626441v 0.0149134h 0.626441v -0.0149134h 0.626441v -0.0447402h 0.626441v 0.0894804h 0.626441v -0.0596536h 0.626441v 0.0149134h 0.626441v 0.0298268h 0.626441v -0.0447402h 0.626441v 0.0298268h 0.626441v -0.0447402h 0.626441v
 0.0447402h 0.626441v -0.104394h 0.626441v 0.119307h 0.626441v -0.0149134h 0.626441v 0.0298268h 0.626441v -0.0298268h 0.626441v -0.0596536h 0.626441v 0.0298268h 0.626441v 0.0298268h 0.626441v -0.0298268h 0.626441v 0.0447402h 0.626441v -0.0447402h
 0.626441v 0.0447402h 0.626441v 0.0149134h 0.626441v -0.0149134h 0.626441v 0.0298268h 0.626441v -0.0149134h 0.626441v -0.0894804h 0.626441v 0.104394h 0.626441v -0.0596536h 0.626441v 0.0298268h 0.626441v -0.0596536h 0.626441v 0.0596536h 0.626441v
 0.0149134h 1.87932v -0.0149134h 0.626441v 0.0298268h 0.626441v -0.0298268h 0.626441v -0.0149134h 1.25288v 0.0298268h 0.626441v -0.0149134h 0.626441v -0.0149134h 0.626441v 0.0298268h 0.626441v -0.0298268h 1.25288v 0.0149134h 0.626441v -0.0298268h
 0.626441v -0.0447402h 0.626441v 0.074567h 0.626441v 0.0149134h 0.626441v 0.0149134h 0.626441v -0.0447402h 1.25288v 0.0447402h 0.626441v -0.0447402h 1.25288v -0.0596536h 0.626441v 0.0596536h 0.626441v 0.0149134h 0.626441v 0.0149134h 1.25288v
 -0.0298268h 0.626441v -0.0298268h 0.626441v 0.0596536h 0.626441v -0.0149134h 1.25288v -0.0298268h 0.626441v 0.0447402h 0.626441v -0.0149134h 0.626441v -0.0596536h 0.626441v 0.074567h 0.626441v -0.0596536h 0.626441v 0.0149134h 1.87932v 0.0149134h
 0.626441v 0.0298268h 0.626441v 0.0149134h 0.626441v -0.0447402h 0.626441v 0.0298268h 0.626441v -0.0447402h 0.626441v 0.0298268h 1.25288v 0.0298268h 0.626441v -0.0149134h 0.626441v -0.0596536h 0.626441v 0.0596536h 0.626441v -0.0298268h 0.626441v
 0.0298268h 1.25288v -0.0149134h 0.626441v -0.0149134h 0.626441v 0.0447402h 0.626441v -0.0447402h 0.626441v 0.0149134h 0.626441v -0.0149134h 0.626441v 0.0298268h 0.626441v -0.0894804h 0.626441v 0.0596536h 1.25288v 0.0149134h 1.25288v -0.0298268h
 0.626441v 0.0298268h 0.626441v 0.0149134h 0.626441v -0.0149134h 1.87932v 0.0149134h 0.626441v -0.0149134h 0.626441v -0.0149134h 0.626441v -0.0149134h 0.626441v 0.0149134h 0.626441v 0.0447402h 0.626441v -0.0298268h 0.626441v 0.0149134h 0.626441v
 -0.074567h 0.626441v 0.0149134h 0.626441v 0.0149134h 0.626441v -0.193874h 0.626441v -1.90891h 0.626441v -7.81462h 0.626441v 0.939544h 0.626441v 2.02822h 0.626441v -0.372835h 0.626441v 1.31238h 0.626441v 2.16244h 0.626441v 0.999197h 0.626441v
 0.596536h 0.626441v 0.178961h 0.626441v 0.149134h 0.626441v 0.477229h 0.626441v -0.119307h 0.626441v -0.193874h 0.626441v -0.0149134h 0.626441v 0.536882h 0.626441v 0.074567h 0.626441v 0.193874h 0.626441v -0.596536h 1.25288v 0.283354h 0.626441v
 0.0298268h 0.626441v 0.0149134h 0.626441v -0.104394h 0.626441v 0.178961h 0.626441v -0.074567h 0.626441v 0.0596536h 0.626441v 0.074567h 0.626441v -0.193874h 0.626441v 0.462315h 0.626441v -0.0298268h 0.626441v -0.298268h 0.626441v 0.119307h 0.626441v
 0.149134h 0.626441v 0.447402h 0.626441v -0.268441h 0.626441v -0.0298268h 0.626441v 0.0447402h 0.626441v 0.0894804h 0.626441v 0.149134h 0.626441v 0.0447402h 0.626441v -0.104394h 0.626441v 0.134221h 0.626441v 0.178961h 0.626441v 0.149134h 0.626441v
 0.0447402h 0.626441v 0.0596536h 0.626441" fill="none" stroke="#000099"/>
<path d="M57.1929,346.022h 453.543" fill="none" stroke="black"/>
<path d="M57.8194,336.795v 9.22726" fill="none" stroke="black"/>
<path d="M78.7007,341.409v 4.61363" fill="none" stroke="black"/>
<path d="M99.5821,341.409v 4.61363" fill="none" stroke="black"/>
<path d="M120.463,341.409v 4.61363" fill="none" stroke="black"/>
<path d="M141.345,341.409v 4.61363" fill="none" stroke="black"/>
<path d="M162.226,336.795v 9.22726" fill="none" stroke="black"/>
<path d="M183.108,341.409v 4.61363" fill="none" stroke="black"/>
<path d="M203.989,341.409v 4.61363" fill="none" stroke="black"/>
<path d="M224.87,341.409v 4.61363" fill="none" stroke="black"/>
<path d="M245.752,341.409v 4.61363" fill="none" stroke="black"/>
<path d="M266.633,336.795v 9.22726" fill="none" stroke="black"/>
<path d="M287.514,341.409v 4.61363" fill="none" stroke="black"/>
<path d="M308.396,341.409v 4.61363" fill="none" stroke="black"/>
<path d="M329.277,341.409v 4.61363" fill="none" stroke="black"/>
<path d="M350.159,341.409v 4.61363" fill="none" stroke="black"/>
<path d="M371.04,336.795v 9.22726" fill="none" stroke="black"/>
<path d="M391.921,341.409v 4.61363" fill="none" stroke="black"/>
<path d="M412.803,341.409v 4.61363" fill="none" stroke="black"/>
<path d="M433.684,341.409v 4.61363" fill="none" stroke="black"/>
<path d="M454.565,341.409v 4.61363" fill="none" stroke="black"/>
<path d="M475.447,336.795v 9.22726" fill="none" stroke="black"/>
<path d="M57.8194,336.795v 9.22726" fill="none" stroke="black"/>
<path d="M475.447,336.795v 9.22726" fill="none" stroke="black"/>
<path d="M496.328,341.409v 4.61363" fill="none" stroke="black"/>
<text xml:space="preserve" x="54.2605" y="358.403" fill="black" font-size="12.8453" font-family="Helvetica">0</text>
<text xml:space="preserve" x="151.192" y="358.403" fill="black" font-size="12.8453" font-family="Helvetica">500</text>
<text xml:space="preserve" x="252.197" y="358.403" fill="black" font-size="12.8453" font-family="Helvetica">1000</text>
<text xml:space="preserve" x="356.46" y="358.403" fill="black" font-size="12.8453" font-family="Helvetica">1500</text>
<text xml:space="preserve" x="461.537" y="358.403" fill="black" font-size="12.8453" font-family="Helvetica">2000</text>
<text xml:space="preserve" x="435.471" y="372.251" fill="black" font-size="12.8453" font-family="Helvetica">Entries / Time</text>
<path d="M57.1929,346.022v -307.575" fill="none" stroke="black"/>
<path d="M70.7992,346.022h -13.6063" fill="none" stroke="black"/>
<path d="M63.9961,333.836h -6.80315" fill="none" stroke="black"/>
<path d="M63.9961,321.65h -6.80315" fill="none" stroke="black"/>
<path d="M63.9961,309.464h -6.80315" fill="none" stroke="black"/>
<path d="M63.9961,297.278h -6.80315" fill="none" stroke="black"/>
<path d="M70.7992,285.091h -13.6063" fill="none" stroke="black"/>
<path d="M63.9961,272.905h -6.80315" fill="none" stroke="black"/>
<path d="M63.9961,260.719h -6.80315" fill="none" stroke="black"/>
<path d="M63.9961,248.533h -6.80315" fill="none" stroke="black"/>
<path d="M63.9961,236.347h -6.80315" fill="none" stroke="black"/>
<path d="M70.7992,224.16h -13.6063" fill="none" stroke="black"/>
<path d="M63.9961,211.974h -6.80315" fill="none" stroke="black"/>
<path d="M63.9961,199.788h -6.80315" fill="none" stroke="black"/>
<path d="M63.9961,187.602h -6.80315" fill="none" stroke="black"/>
<path d="M63.9961,175.416h -6.80315" fill="none" stroke="black"/>
<path d="M70.7992,163.23h -13.6063" fill="none" stroke="black"/>
<path d="M63.9961,151.043h -6.80315" fill="none" stroke="black"/>
<path d="M63.9961,138.857h -6.80315" fill="none" stroke="black"/>
<path d="M63.9961,126.671h -6.80315" fill="none" stroke="black"/>
<path d="M63.9961,114.485h -6.80315" fill="none" stroke="black"/>
<path d="M70.7992,102.299h -13.6063" fill="none" stroke="black"/>
<path d="M63.9961,90.1124h -6.80315" fill="none" stroke="black"/>
<path d="M63.9961,77.9263h -6.80315" fill="none" stroke="black"/>
<path d="M63.9961,65.7401h -6.80315" fill="none" stroke="black"/>
<path d="M63.9961,53.5539h -6.80315" fill="none" stroke="black"/>
<path d="M70.7992,41.3677h -13.6063" fill="none" stroke="black"/>
<path d="M70.7992,41.3677h -13.6063" fill="none" stroke="black"/>
<text xml:space="preserve" x="47.7441" y="350.258" fill="black" font-size="12.8453" font-family="Helvetica">0</text>
<text xml:space="preserve" x="30.6385" y="289.166" fill="black" font-size="12.8453" font-family="Helvetica">0.05</text>
<text xml:space="preserve" x="39.5986" y="228.889" fill="black" font-size="12.8453" font-family="Helvetica">0.1</text>
<text xml:space="preserve" x="30.6385" y="167.798" fill="black" font-size="12.8453" font-family="Helvetica">0.15</text>
<text xml:space="preserve" x="37.1549" y="106.706" fill="black" font-size="12.8453" font-family="Helvetica">0.2</text>
<text xml:space="preserve" x="30.6385" y="45.615" fill="black" font-size="12.8453" font-family="Helvetica">0.25</text>
<g transform="rotate(-90,17.6056,70.0516)">
<text xml:space="preserve" x="17.6056" y="70.0516" fill="black" font-size="12.8453" font-family="Helvetica">Event</text>
</g>
<text xml:space="preserve" x="251.382" y="17.9202" fill="black" font-size="18.7938" font-family="Helvetica">Bg_015</text>
<rect x="442.705" y="24.9905" width="113.386" height="92.2726" fill="white"/>
<path d="M442.705,117.263h 113.386" fill="none" stroke="black"/>
<path d="M556.091,117.263v -92.2726" fill="none" stroke="black"/>
<path d="M556.091,24.9905h -113.386" fill="none" stroke="black"/>
<path d="M442.705,24.9905v 92.2726" fill="none" stroke="black"/>
<text xml:space="preserve" x="465.61" y="41.5422" fill="black" font-size="19.9704" font-family="Helvetica">Bg_015</text>
<path d="M442.705,48.0586h 113.386" fill="none" stroke="black"/>
<text xml:space="preserve" x="447.69" y="64.3497" fill="black" font-size="12.6883" font-family="Helvetica">Entries </text>
<text xml:space="preserve" x="506.338" y="64.3497" fill="black" font-size="12.6883" font-family="Helvetica"> 144376</text>
<text xml:space="preserve" x="447.69" y="87.1572" fill="black" font-size="12.6883" font-family="Helvetica">Mean  </text>
<text xml:space="preserve" x="515.298" y="87.1572" fill="black" font-size="12.6883" font-family="Helvetica">  420.1</text>
<text xml:space="preserve" x="447.69" y="109.965" fill="black" font-size="12.6883" font-family="Helvetica">Std Dev   </text>
<text xml:space="preserve" x="512.854" y="109.965" fill="black" font-size="12.6883" font-family="Helvetica">  366.7</text>
<text xml:space="preserve" x="251.382" y="17.9202" fill="black" font-size="18.7938" font-family="Helvetica">Bg_015</text></svg>
