<?xml version="1.0" standalone="no"?>
<svg width="567.429" height="384.68" viewBox="0 0 567.429 384.68" xmlns="http://www.w3.org/2000/svg" shape-rendering="crispEdges">
<title>
img/week1/standardizedByTime/Cs_015.svg
</title>
<desc>
Creator: ROOT Version 6.22/09
CreationDate: Tue Jul 13 18:42:28 2021</desc>
<defs>
</defs>
<rect x="0.5" y="0" width="566.929" height="384.18" fill="white"/>
<rect x="57.1929" y="38.418" width="453.543" height="307.344" fill="white"/>
<rect x="57.1929" y="38.418" width="453.543" height="307.344" fill="none" stroke="black"/>
<path d="M57.1929,345.762h 61.9009v -0.0392739h 0.595201v -0.667656h 0.595201v -7.38349h 0.595201v -10.604h 0.595201v 0.942574h 0.595201v 2.78845h 0.595201v 2.67063h 0.595201v 0.471287h 0.595201v 1.37459h 0.595201v 1.6495h 0.595201v 2.47426h
 0.595201v 0.942574h 0.595201v -0.70693h 0.595201v 1.25676h 0.595201v 0.549835h 0.595201v 0.942574h 0.595201v -0.549835h 0.595201v 0.628382h 0.595201v -0.117822h 0.595201v 0.981848h 0.595201v 0.628382h 0.595201v -1.02112h 0.595201v 0.785478h
 0.595201v -0.549835h 0.595201v 0.746204h 0.595201v -0.432013h 0.595201v -0.19637h 0.595201v 0.510561h 0.595201v 0.471287h 0.595201v -0.314191h 0.595201v -0.824752h 0.595201v 0.117822h 0.595201v 0.70693h 0.595201v 0.235643h 0.595201v -0.274917h
 0.595201v -0.746204h 0.595201v 0.628382h 0.595201v 0.157096h 0.595201v 0.157096h 0.595201v 0.0785478h 0.595201v -0.471287h 0.595201v -0.157096h 0.595201v 0.392739h 0.595201v 0.589109h 0.595201v -0.981848h 0.595201v 0.628382h 0.595201v -0.274917h
 0.595201v 0.19637h 0.595201v 0.0785478h 0.595201v -0.0785478h 0.595201v -0.157096h 0.595201v -0.235643h 0.595201v 0.274917h 0.595201v 0.19637h 0.595201v -0.432013h 0.595201v 0.117822h 0.595201v -0.432013h 0.595201v 0.314191h 0.595201v 0.157096h
 0.595201v -0.589109h 0.595201v 0.942574h 0.595201v -0.510561h 0.595201v -0.0392739h 0.595201v 0.510561h 0.595201v -0.314191h 0.595201v 0.510561h 0.595201v -0.0392739h 0.595201v -0.432013h 0.595201v -0.549835h 1.1904v 0.628382h 0.595201v 0.274917h
 1.1904v -0.314191h 0.595201v -0.314191h 0.595201v -0.0392739h 0.595201v 0.392739h 0.595201v -0.235643h 0.595201v 0.117822h 0.595201v -0.157096h 0.595201v 0.274917h 0.595201v -0.117822h 0.595201v -0.274917h 0.595201v 0.19637h 0.595201v 0.157096h
 0.595201v 0.274917h 0.595201v -0.589109h 0.595201v 0.314191h 0.595201v -0.471287h 0.595201v 0.746204h 0.595201v -0.235643h 0.595201v -0.235643h 0.595201v -0.19637h 0.595201v 0.117822h 0.595201v 0.70693h 0.595201v -0.589109h 0.595201v 0.274917h
 1.1904v -0.392739h 0.595201v 0.392739h 0.595201v -0.314191h 0.595201v -0.353465h 0.595201v 0.70693h 0.595201v 0.19637h 0.595201v -0.235643h 0.595201v 0.157096h 0.595201v -0.117822h 0.595201v -0.235643h 0.595201v 0.235643h 0.595201v -0.117822h
 0.595201v 0.19637h 0.595201v -0.432013h 0.595201v 0.157096h 0.595201v 0.432013h 0.595201v -0.432013h 0.595201v -0.157096h 0.595201v 0.432013h 0.595201v -0.746204h 0.595201v 0.19637h 0.595201v 0.274917h 0.595201v 0.314191h 0.595201v -0.117822h
 0.595201v 0.19637h 1.1904v -0.549835h 0.595201v 0.392739h 0.595201v 0.392739h 0.595201v -0.274917h 0.595201v -0.274917h 0.595201v -0.0785478h 1.1904v 0.628382h 0.595201v -0.392739h 0.595201v -0.549835h 0.595201v 0.235643h 0.595201v 0.628382h
 0.595201v -0.157096h 0.595201v -0.432013h 0.595201v 0.510561h 0.595201v -0.432013h 0.595201v 0.117822h 0.595201v 0.235643h 0.595201v 0.0392739h 0.595201v -0.314191h 0.595201v -0.0785478h 0.595201v 0.353465h 0.595201v 0.19637h 0.595201v -0.353465h
 0.595201v 0.0785478h 0.595201v 0.392739h 0.595201v -0.235643h 0.595201v -0.274917h 0.595201v 0.0392739h 0.595201v 0.471287h 0.595201v -0.0392739h 0.595201v -0.392739h 0.595201v 0.274917h 0.595201v -0.274917h 0.595201v -0.0785478h 0.595201v 0.314191h
 0.595201v 0.0392739h 0.595201v -0.746204h 0.595201v 0.392739h 0.595201v 0.157096h 1.1904v 0.157096h 0.595201v -0.19637h 0.595201v 0.0785478h 0.595201v -0.19637h 0.595201v 0.157096h 0.595201v -0.117822h 0.595201v 0.274917h 0.595201v -0.589109h
 0.595201v 0.157096h 0.595201v 0.432013h 0.595201v -0.471287h 1.1904v 0.0785478h 0.595201v 0.0785478h 0.595201v 0.432013h 0.595201v -0.392739h 0.595201v 0.0785478h 0.595201v 0.0392739h 0.595201v 0.235643h 0.595201v -0.274917h 0.595201v 0.19637h
 0.595201v -0.0785478h 0.595201v 0.471287h 0.595201v -0.353465h 0.595201v -0.117822h 0.595201v -0.628382h 0.595201v 0.471287h 0.595201v 0.274917h 0.595201v -0.274917h 0.595201v -0.157096h 0.595201v 0.0392739h 0.595201v 0.549835h 0.595201v -0.510561h
 1.1904v 0.0785478h 0.595201v -0.157096h 0.595201v 0.471287h 0.595201v -0.824752h 0.595201v 0.314191h 0.595201v -0.0392739h 0.595201v 0.432013h 0.595201v 0.235643h 0.595201v -0.19637h 0.595201v 0.117822h 0.595201v -0.0785478h 0.595201v 0.471287h
 0.595201v -0.70693h 0.595201v 0.235643h 0.595201v 0.117822h 0.595201v -0.274917h 0.595201v -0.353465h 0.595201v 0.19637h 0.595201v -0.274917h 0.595201v -0.0785478h 0.595201v 0.432013h 0.595201v 0.549835h 0.595201v -0.942574h 0.595201v 0.0392739h
 0.595201v 0.274917h 0.595201v 0.628382h 0.595201v -0.746204h 0.595201v -0.157096h 0.595201v 0.235643h 0.595201v 0.157096h 0.595201v 0.432013h 0.595201v -0.432013h 0.595201v -0.392739h 0.595201v -0.0785478h 0.595201v 0.9033h 0.595201v -0.471287h
 0.595201v 0.117822h 0.595201v -0.117822h 0.595201v 0.235643h 0.595201v 0.392739h 0.595201v -0.432013h 0.595201v -0.549835h 0.595201v 0.510561h 1.1904v -0.117822h 0.595201v -0.117822h 0.595201v 0.235643h 0.595201v -0.0785478h 0.595201v 0.0392739h
 0.595201v 0.392739h 0.595201v -0.628382h 0.595201v 0.432013h 0.595201v -0.392739h 0.595201v 0.274917h 0.595201v -0.432013h 0.595201v 0.0392739h 0.595201v 0.432013h 0.595201v -0.235643h 0.595201v -0.157096h 0.595201v 0.117822h 0.595201v -0.353465h
 0.595201v 0.353465h 0.595201v -0.235643h 0.595201v -0.117822h 0.595201v -0.274917h 0.595201v 0.117822h 0.595201v 0.157096h 0.595201v 0.235643h 0.595201v -0.70693h 0.595201v 0.432013h 0.595201v 0.274917h 0.595201v -0.274917h 0.595201v 0.432013h
 0.595201v -0.510561h 0.595201v -0.314191h 0.595201v 0.628382h 0.595201v -0.0785478h 0.595201v 0.353465h 0.595201v -0.785478h 0.595201v -0.392739h 0.595201v 0.274917h 0.595201v 0.19637h 0.595201v 0.0392739h 0.595201v -1.13894h 0.595201v 0.432013h
 0.595201v 0.628382h 0.595201v -0.314191h 0.595201v 0.0785478h 0.595201v -0.981848h 0.595201v 0.432013h 0.595201v 0.235643h 0.595201v 0.549835h 0.595201v -1.21749h 0.595201v 0.70693h 0.595201v -0.510561h 0.595201v 0.117822h 0.595201v 0.0392739h
 0.595201v -0.864026h 0.595201v 0.432013h 0.595201v 0.628382h 0.595201v 0.70693h 0.595201v -1.0604h 0.595201v -0.785478h 0.595201v 0.824752h 0.595201v 0.117822h 0.595201v 0.235643h 0.595201v 0.19637h 0.595201v -0.628382h 0.595201v -0.0785478h
 0.595201v 0.628382h 0.595201v -0.0785478h 0.595201v -0.746204h 0.595201v 0.19637h 0.595201v 0.510561h 0.595201v -0.235643h 0.595201v -0.314191h 0.595201v -0.117822h 0.595201v 0.785478h 0.595201v -0.0392739h 0.595201v -0.785478h 0.595201v 0.274917h
 0.595201v 0.510561h 1.1904v 0.589109h 0.595201v -0.589109h 0.595201v 0.0392739h 0.595201v -0.19637h 0.595201v 0.549835h 0.595201v -0.0392739h 0.595201v -0.942574h 0.595201v 0.353465h 0.595201v -0.117822h 0.595201v 0.981848h 0.595201v -0.589109h
 0.595201v -0.19637h 0.595201v 0.589109h 0.595201v 0.353465h 0.595201v -0.510561h 0.595201v -0.117822h 0.595201v 0.117822h 0.595201v 0.314191h 0.595201v 0.314191h 0.595201v -0.235643h 0.595201v -0.274917h 0.595201v 0.392739h 0.595201v 0.392739h
 0.595201v -0.70693h 0.595201v 0.353465h 0.595201v -0.157096h 0.595201v -0.824752h 0.595201v 1.09967h 0.595201v -0.0392739h 0.595201v -0.0785478h 0.595201v 0.628382h 0.595201v -0.549835h 0.595201v 0.19637h 0.595201v 0.117822h 0.595201v -0.0785478h
 0.595201v -0.0392739h 0.595201v -0.314191h 0.595201v 0.19637h 0.595201v -0.510561h 0.595201v 0.117822h 0.595201v 0.0785478h 0.595201v 0.785478h 0.595201v -0.0785478h 0.595201v -0.0785478h 0.595201v -0.432013h 1.1904v 0.471287h 0.595201v -0.235643h
 0.595201v -0.0785478h 0.595201v -0.0785478h 0.595201v 0.0785478h 0.595201v 0.471287h 0.595201v -0.70693h 0.595201v 0.353465h 0.595201v 0.19637h 0.595201v 0.235643h 0.595201v -0.0392739h 0.595201v -0.824752h 0.595201v 0.0785478h 0.595201v 0.9033h
 0.595201v -0.549835h 0.595201v -0.314191h 0.595201v 0.274917h 1.1904v 0.314191h 0.595201v -0.274917h 0.595201v -0.117822h 1.1904v 0.432013h 0.595201v 0.0785478h 0.595201v -0.746204h 0.595201v 0.824752h 0.595201v -0.549835h 0.595201v 0.314191h
 0.595201v 0.0392739h 0.595201v -0.510561h 0.595201v 0.0392739h 0.595201v 0.0392739h 0.595201v 0.117822h 1.1904v -0.117822h 0.595201v 0.117822h 0.595201v -0.549835h 0.595201v 0.589109h 0.595201v -0.353465h 0.595201v 0.549835h 0.595201v -0.667656h
 0.595201v 0.628382h 0.595201v 0.117822h 0.595201v -0.746204h 0.595201v 0.157096h 0.595201v 0.274917h 0.595201v 0.274917h 0.595201v -0.353465h 0.595201v -0.314191h 0.595201v 0.392739h 0.595201v -0.628382h 0.595201v 0.628382h 0.595201v -0.19637h
 0.595201v -0.667656h 0.595201v 0.746204h 0.595201v -0.824752h 0.595201v 1.0604h 0.595201v -0.942574h 1.1904v 0.19637h 0.595201v 0.157096h 0.595201v -0.274917h 1.1904v 0.0785478h 0.595201v 0.274917h 1.1904v -0.432013h 1.7856v -0.510561h 0.595201v
 0.0392739h 0.595201v 0.117822h 0.595201v -0.0392739h 0.595201v -0.471287h 0.595201v 0.864026h 0.595201v -0.70693h 0.595201v -0.157096h 0.595201v -0.353465h 0.595201v -0.0785478h 0.595201v 0.70693h 0.595201v -1.17822h 0.595201v -0.117822h 1.1904v
 0.314191h 0.595201v 0.392739h 0.595201v -1.53168h 0.595201v 0.353465h 0.595201v -0.70693h 0.595201v 1.76733h 0.595201v -0.942574h 0.595201v -2.04224h 0.595201v 1.8066h 0.595201v -0.70693h 0.595201v 1.25676h 0.595201v -0.510561h 0.595201v -1.68878h
 0.595201v 0.235643h 0.595201v 0.549835h 0.595201v -0.432013h 0.595201v -0.589109h 1.1904v -0.117822h 0.595201v 0.314191h 0.595201v -0.157096h 0.595201v -0.510561h 0.595201v -1.13894h 0.595201v 1.21749h 0.595201v 0.274917h 0.595201v -1.88515h
 0.595201v -0.510561h 0.595201v 0.942574h 0.595201v 1.49241h 0.595201v -1.09967h 0.595201v -0.785478h 0.595201v -0.9033h 0.595201v 0.9033h 0.595201v 1.0604h 0.595201v -2.47426h 0.595201v -0.9033h 0.595201v 1.17822h 0.595201v 1.45313h 0.595201v
 0.432013h 0.595201v -0.746204h 0.595201v -2.39571h 0.595201v 1.41386h 0.595201v 0.392739h 0.595201v 0.353465h 0.595201v -2.19934h 0.595201v 1.45313h 0.595201v 0.942574h 0.595201v 1.41386h 0.595201v -2.31716h 0.595201v -0.785478h 0.595201v 0.746204h
 0.595201v 0.746204h 0.595201v 0.824752h 0.595201v -0.314191h 0.595201v -1.41386h 0.595201v 1.49241h 0.595201v 0.157096h 0.595201v 0.314191h 0.595201v -0.824752h 0.595201v -0.70693h 0.595201v 0.667656h 0.595201v 2.00297h 0.595201v -0.589109h
 0.595201v -0.392739h 0.595201v 0.471287h 0.595201v 0.667656h 0.595201v 1.09967h 0.595201v -1.25676h 0.595201v -0.70693h 0.595201v 0.785478h 0.595201v 1.02112h 0.595201v 1.02112h 0.595201v -1.33531h 0.595201v 0.353465h 0.595201v 0.392739h 0.595201v
 1.02112h 0.595201v -0.981848h 0.595201v -0.864026h 0.595201v 1.88515h 0.595201v 0.0785478h 0.595201v 0.0785478h 0.595201v -0.314191h 0.595201v 0.70693h 0.595201v -0.510561h 0.595201v 0.9033h 0.595201v 0.19637h 0.595201v -1.49241h 0.595201v 1.45313h
 1.1904v 0.628382h 0.595201v -0.589109h 0.595201v 0.942574h 0.595201v -0.589109h 0.595201v 0.70693h 0.595201v -1.45313h 0.595201v 0.628382h 0.595201v -0.432013h 0.595201v 0.589109h 0.595201v 0.353465h 0.595201v -0.157096h 0.595201v -0.353465h
 0.595201v 0.471287h 0.595201v -0.19637h 0.595201v 0.510561h 0.595201v -0.785478h 0.595201v 0.353465h 0.595201v 0.19637h 0.595201v 0.0785478h 0.595201v 0.235643h 0.595201v -0.157096h 0.595201v -0.746204h 0.595201v 0.589109h 0.595201v 0.510561h
 0.595201v -1.21749h 0.595201v 0.746204h 0.595201v -0.314191h 0.595201v 0.117822h 0.595201v -0.0785478h 0.595201v -0.589109h 0.595201v -0.432013h 0.595201v -1.6495h 0.595201v -3.37756h 0.595201v -62.092h 0.595201v -222.094h 0.595201v 57.1435h
 0.595201v 89.191h 0.595201v 7.14785h 0.595201v -7.18712h 0.595201v 33.5792h 0.595201v 36.2498h 0.595201v 29.7303h 0.595201v 5.49835h 0.595201v -0.471287h 0.595201v 2.39571h 0.595201v 4.08449h 0.595201v 3.22046h 0.595201v -4.63432h 0.595201v
 -0.353465h 0.595201v 1.49241h 0.595201v 5.22343h 0.595201v 0.746204h 0.595201v -4.3594h 0.595201v 1.68878h 0.595201v 0.117822h 0.595201v 5.34125h 0.595201v -2.16006h 0.595201v -4.43795h 0.595201v 0.9033h 0.595201v 1.57096h 0.595201v 3.96666h
 0.595201v -7.18712h 0.595201v 1.84587h 0.595201v -0.471287h 0.595201v 4.12376h 0.595201v -0.432013h 0.595201v -3.57393h 0.595201v 1.02112h 0.595201v 0.510561h 0.595201v 8.32607h 0.595201v -5.65544h 0.595201v 0.9033h 0.595201v 4.63432h 0.595201v
 6.79439h 0.595201v 5.65544h 0.595201v 2.19934h 0.595201v 4.94851h 0.595201v 2.08152h 0.595201v 0.981848h 0.595201v 0.314191h 7.14241v -0.0392739h 0.595201v 0.0392739h 14.88v -0.0392739h 0.595201" fill="none" stroke="#000099"/>
<path d="M57.1929,345.762h 453.543" fill="none" stroke="black"/>
<path d="M57.7881,336.541v 9.22031" fill="none" stroke="black"/>
<path d="M77.6282,341.152v 4.61016" fill="none" stroke="black"/>
<path d="M97.4682,341.152v 4.61016" fill="none" stroke="black"/>
<path d="M117.308,341.152v 4.61016" fill="none" stroke="black"/>
<path d="M137.148,341.152v 4.61016" fill="none" stroke="black"/>
<path d="M156.988,336.541v 9.22031" fill="none" stroke="black"/>
<path d="M176.828,341.152v 4.61016" fill="none" stroke="black"/>
<path d="M196.668,341.152v 4.61016" fill="none" stroke="black"/>
<path d="M216.508,341.152v 4.61016" fill="none" stroke="black"/>
<path d="M236.348,341.152v 4.61016" fill="none" stroke="black"/>
<path d="M256.189,336.541v 9.22031" fill="none" stroke="black"/>
<path d="M276.029,341.152v 4.61016" fill="none" stroke="black"/>
<path d="M295.869,341.152v 4.61016" fill="none" stroke="black"/>
<path d="M315.709,341.152v 4.61016" fill="none" stroke="black"/>
<path d="M335.549,341.152v 4.61016" fill="none" stroke="black"/>
<path d="M355.389,336.541v 9.22031" fill="none" stroke="black"/>
<path d="M375.229,341.152v 4.61016" fill="none" stroke="black"/>
<path d="M395.069,341.152v 4.61016" fill="none" stroke="black"/>
<path d="M414.909,341.152v 4.61016" fill="none" stroke="black"/>
<path d="M434.749,341.152v 4.61016" fill="none" stroke="black"/>
<path d="M454.589,336.541v 9.22031" fill="none" stroke="black"/>
<path d="M57.7881,336.541v 9.22031" fill="none" stroke="black"/>
<path d="M454.589,336.541v 9.22031" fill="none" stroke="black"/>
<path d="M474.429,341.152v 4.61016" fill="none" stroke="black"/>
<path d="M494.269,341.152v 4.61016" fill="none" stroke="black"/>
<text xml:space="preserve" x="54.1065" y="358.189" fill="black" font-size="12.836" font-family="Helvetica">0</text>
<text xml:space="preserve" x="145.887" y="358.189" fill="black" font-size="12.836" font-family="Helvetica">500</text>
<text xml:space="preserve" x="241.729" y="358.189" fill="black" font-size="12.836" font-family="Helvetica">1000</text>
<text xml:space="preserve" x="340.82" y="358.189" fill="black" font-size="12.836" font-family="Helvetica">1500</text>
<text xml:space="preserve" x="440.723" y="358.189" fill="black" font-size="12.836" font-family="Helvetica">2000</text>
<text xml:space="preserve" x="435.85" y="371.996" fill="black" font-size="12.836" font-family="Helvetica">Entries / Time</text>
<path d="M57.1929,345.762v -307.344" fill="none" stroke="black"/>
<path d="M70.7992,345.762h -13.6063" fill="none" stroke="black"/>
<path d="M63.9961,338.85h -6.80315" fill="none" stroke="black"/>
<path d="M63.9961,331.937h -6.80315" fill="none" stroke="black"/>
<path d="M63.9961,325.025h -6.80315" fill="none" stroke="black"/>
<path d="M63.9961,318.113h -6.80315" fill="none" stroke="black"/>
<path d="M70.7992,311.201h -13.6063" fill="none" stroke="black"/>
<path d="M63.9961,304.289h -6.80315" fill="none" stroke="black"/>
<path d="M63.9961,297.376h -6.80315" fill="none" stroke="black"/>
<path d="M63.9961,290.464h -6.80315" fill="none" stroke="black"/>
<path d="M63.9961,283.552h -6.80315" fill="none" stroke="black"/>
<path d="M70.7992,276.64h -13.6063" fill="none" stroke="black"/>
<path d="M63.9961,269.728h -6.80315" fill="none" stroke="black"/>
<path d="M63.9961,262.815h -6.80315" fill="none" stroke="black"/>
<path d="M63.9961,255.903h -6.80315" fill="none" stroke="black"/>
<path d="M63.9961,248.991h -6.80315" fill="none" stroke="black"/>
<path d="M70.7992,242.079h -13.6063" fill="none" stroke="black"/>
<path d="M63.9961,235.166h -6.80315" fill="none" stroke="black"/>
<path d="M63.9961,228.254h -6.80315" fill="none" stroke="black"/>
<path d="M63.9961,221.342h -6.80315" fill="none" stroke="black"/>
<path d="M63.9961,214.43h -6.80315" fill="none" stroke="black"/>
<path d="M70.7992,207.518h -13.6063" fill="none" stroke="black"/>
<path d="M63.9961,200.605h -6.80315" fill="none" stroke="black"/>
<path d="M63.9961,193.693h -6.80315" fill="none" stroke="black"/>
<path d="M63.9961,186.781h -6.80315" fill="none" stroke="black"/>
<path d="M63.9961,179.869h -6.80315" fill="none" stroke="black"/>
<path d="M70.7992,172.957h -13.6063" fill="none" stroke="black"/>
<path d="M63.9961,166.044h -6.80315" fill="none" stroke="black"/>
<path d="M63.9961,159.132h -6.80315" fill="none" stroke="black"/>
<path d="M63.9961,152.22h -6.80315" fill="none" stroke="black"/>
<path d="M63.9961,145.308h -6.80315" fill="none" stroke="black"/>
<path d="M70.7992,138.396h -13.6063" fill="none" stroke="black"/>
<path d="M63.9961,131.483h -6.80315" fill="none" stroke="black"/>
<path d="M63.9961,124.571h -6.80315" fill="none" stroke="black"/>
<path d="M63.9961,117.659h -6.80315" fill="none" stroke="black"/>
<path d="M63.9961,110.747h -6.80315" fill="none" stroke="black"/>
<path d="M70.7992,103.835h -13.6063" fill="none" stroke="black"/>
<path d="M63.9961,96.9223h -6.80315" fill="none" stroke="black"/>
<path d="M63.9961,90.0101h -6.80315" fill="none" stroke="black"/>
<path d="M63.9961,83.0979h -6.80315" fill="none" stroke="black"/>
<path d="M63.9961,76.1857h -6.80315" fill="none" stroke="black"/>
<path d="M70.7992,69.2735h -13.6063" fill="none" stroke="black"/>
<path d="M70.7992,69.2735h -13.6063" fill="none" stroke="black"/>
<path d="M63.9961,62.3613h -6.80315" fill="none" stroke="black"/>
<path d="M63.9961,55.4491h -6.80315" fill="none" stroke="black"/>
<path d="M63.9961,48.5369h -6.80315" fill="none" stroke="black"/>
<path d="M63.9961,41.6247h -6.80315" fill="none" stroke="black"/>
<text xml:space="preserve" x="47.6087" y="350.067" fill="black" font-size="12.836" font-family="Helvetica">0</text>
<text xml:space="preserve" x="39.4865" y="315.953" fill="black" font-size="12.836" font-family="Helvetica">0.1</text>
<text xml:space="preserve" x="37.0499" y="281.028" fill="black" font-size="12.836" font-family="Helvetica">0.2</text>
<text xml:space="preserve" x="37.0499" y="246.915" fill="black" font-size="12.836" font-family="Helvetica">0.3</text>
<text xml:space="preserve" x="37.0499" y="211.989" fill="black" font-size="12.836" font-family="Helvetica">0.4</text>
<text xml:space="preserve" x="37.0499" y="177.064" fill="black" font-size="12.836" font-family="Helvetica">0.5</text>
<text xml:space="preserve" x="37.0499" y="142.951" fill="black" font-size="12.836" font-family="Helvetica">0.6</text>
<text xml:space="preserve" x="37.0499" y="108.025" fill="black" font-size="12.836" font-family="Helvetica">0.7</text>
<text xml:space="preserve" x="37.0499" y="73.912" fill="black" font-size="12.836" font-family="Helvetica">0.8</text>
<g transform="rotate(-90,24.0544,69.8509)">
<text xml:space="preserve" x="24.0544" y="69.8509" fill="black" font-size="12.836" font-family="Helvetica">Event</text>
</g>
<text xml:space="preserve" x="253.1" y="18.681" fill="black" font-size="17.9813" font-family="Helvetica">Cs_015</text>
<rect x="442.705" y="24.9717" width="113.386" height="92.2031" fill="white"/>
<path d="M442.705,117.175h 113.386" fill="none" stroke="black"/>
<path d="M556.091,117.175v -92.2031" fill="none" stroke="black"/>
<path d="M556.091,24.9717h -113.386" fill="none" stroke="black"/>
<path d="M442.705,24.9717v 92.2031" fill="none" stroke="black"/>
<text xml:space="preserve" x="465.902" y="41.4232" fill="black" font-size="19.9557" font-family="Helvetica">Cs_015</text>
<path d="M442.705,48.0225h 113.386" fill="none" stroke="black"/>
<text xml:space="preserve" x="448.033" y="64.1653" fill="black" font-size="12.7119" font-family="Helvetica">Entries </text>
<text xml:space="preserve" x="506.513" y="64.1653" fill="black" font-size="12.7119" font-family="Helvetica"> 101844</text>
<text xml:space="preserve" x="448.033" y="86.9075" fill="black" font-size="12.7119" font-family="Helvetica">Mean  </text>
<text xml:space="preserve" x="515.447" y="86.9075" fill="black" font-size="12.7119" font-family="Helvetica">   1751</text>
<text xml:space="preserve" x="448.033" y="110.462" fill="black" font-size="12.7119" font-family="Helvetica">Std Dev   </text>
<text xml:space="preserve" x="513.01" y="110.462" fill="black" font-size="12.7119" font-family="Helvetica">  514.6</text>
<text xml:space="preserve" x="253.1" y="18.681" fill="black" font-size="17.9813" font-family="Helvetica">Cs_015</text></svg>
