<?xml version="1.0" standalone="no"?>
<svg width="567.429" height="384.969" viewBox="0 0 567.429 384.969" xmlns="http://www.w3.org/2000/svg" shape-rendering="crispEdges">
<title>
img/week1/standardizedByTime/Cs_015.svg
</title>
<desc>
Creator: ROOT Version 6.22/09
CreationDate: Wed Jul 14 10:00:32 2021</desc>
<defs>
</defs>
<rect x="0.5" y="0" width="566.929" height="384.469" fill="white"/>
<rect x="57.1929" y="38.4469" width="453.543" height="307.575" fill="white"/>
<rect x="57.1929" y="38.4469" width="453.543" height="307.575" fill="none" stroke="black"/>
<path d="M57.1929,346.022h 61.9009v -0.0393035h 0.595201v -0.668159h 0.595201v -7.38906h 0.595201v -10.6119h 0.595201v 0.943284h 0.595201v 2.79055h 0.595201v 2.67264h 0.595201v 0.471642h 0.595201v 1.37562h 0.595201v 1.65075h 0.595201v 2.47612h
 0.595201v 0.943284h 0.595201v -0.707463h 0.595201v 1.25771h 0.595201v 0.550249h 0.595201v 0.943284h 0.595201v -0.550249h 0.595201v 0.628856h 0.595201v -0.11791h 0.595201v 0.982587h 0.595201v 0.628856h 0.595201v -1.02189h 0.595201v 0.78607h 0.595201v
 -0.550249h 0.595201v 0.746766h 0.595201v -0.432338h 0.595201v -0.196517h 0.595201v 0.510945h 0.595201v 0.471642h 0.595201v -0.314428h 0.595201v -0.825373h 0.595201v 0.11791h 0.595201v 0.707463h 0.595201v 0.235821h 0.595201v -0.275124h 0.595201v
 -0.746766h 0.595201v 0.628856h 0.595201v 0.157214h 0.595201v 0.157214h 0.595201v 0.078607h 0.595201v -0.471642h 0.595201v -0.157214h 0.595201v 0.393035h 0.595201v 0.589552h 0.595201v -0.982587h 0.595201v 0.628856h 0.595201v -0.275124h 0.595201v
 0.196517h 0.595201v 0.078607h 0.595201v -0.078607h 0.595201v -0.157214h 0.595201v -0.235821h 0.595201v 0.275124h 0.595201v 0.196517h 0.595201v -0.432338h 0.595201v 0.11791h 0.595201v -0.432338h 0.595201v 0.314428h 0.595201v 0.157214h 0.595201v
 -0.589552h 0.595201v 0.943284h 0.595201v -0.510945h 0.595201v -0.0393035h 0.595201v 0.510945h 0.595201v -0.314428h 0.595201v 0.510945h 0.595201v -0.0393035h 0.595201v -0.432338h 0.595201v -0.550249h 1.1904v 0.628856h 0.595201v 0.275124h 1.1904v
 -0.314428h 0.595201v -0.314428h 0.595201v -0.0393035h 0.595201v 0.393035h 0.595201v -0.235821h 0.595201v 0.11791h 0.595201v -0.157214h 0.595201v 0.275124h 0.595201v -0.11791h 0.595201v -0.275124h 0.595201v 0.196517h 0.595201v 0.157214h 0.595201v
 0.275124h 0.595201v -0.589552h 0.595201v 0.314428h 0.595201v -0.471642h 0.595201v 0.746766h 0.595201v -0.235821h 0.595201v -0.235821h 0.595201v -0.196517h 0.595201v 0.11791h 0.595201v 0.707463h 0.595201v -0.589552h 0.595201v 0.275124h 1.1904v
 -0.393035h 0.595201v 0.393035h 0.595201v -0.314428h 0.595201v -0.353731h 0.595201v 0.707463h 0.595201v 0.196517h 0.595201v -0.235821h 0.595201v 0.157214h 0.595201v -0.11791h 0.595201v -0.235821h 0.595201v 0.235821h 0.595201v -0.11791h 0.595201v
 0.196517h 0.595201v -0.432338h 0.595201v 0.157214h 0.595201v 0.432338h 0.595201v -0.432338h 0.595201v -0.157214h 0.595201v 0.432338h 0.595201v -0.746766h 0.595201v 0.196517h 0.595201v 0.275124h 0.595201v 0.314428h 0.595201v -0.11791h 0.595201v
 0.196517h 1.1904v -0.550249h 0.595201v 0.393035h 0.595201v 0.393035h 0.595201v -0.275124h 0.595201v -0.275124h 0.595201v -0.078607h 1.1904v 0.628856h 0.595201v -0.393035h 0.595201v -0.550249h 0.595201v 0.235821h 0.595201v 0.628856h 0.595201v
 -0.157214h 0.595201v -0.432338h 0.595201v 0.510945h 0.595201v -0.432338h 0.595201v 0.11791h 0.595201v 0.235821h 0.595201v 0.0393035h 0.595201v -0.314428h 0.595201v -0.078607h 0.595201v 0.353731h 0.595201v 0.196517h 0.595201v -0.353731h 0.595201v
 0.078607h 0.595201v 0.393035h 0.595201v -0.235821h 0.595201v -0.275124h 0.595201v 0.0393035h 0.595201v 0.471642h 0.595201v -0.0393035h 0.595201v -0.393035h 0.595201v 0.275124h 0.595201v -0.275124h 0.595201v -0.078607h 0.595201v 0.314428h 0.595201v
 0.0393035h 0.595201v -0.746766h 0.595201v 0.393035h 0.595201v 0.157214h 1.1904v 0.157214h 0.595201v -0.196517h 0.595201v 0.078607h 0.595201v -0.196517h 0.595201v 0.157214h 0.595201v -0.11791h 0.595201v 0.275124h 0.595201v -0.589552h 0.595201v
 0.157214h 0.595201v 0.432338h 0.595201v -0.471642h 1.1904v 0.078607h 0.595201v 0.078607h 0.595201v 0.432338h 0.595201v -0.393035h 0.595201v 0.078607h 0.595201v 0.0393035h 0.595201v 0.235821h 0.595201v -0.275124h 0.595201v 0.196517h 0.595201v
 -0.078607h 0.595201v 0.471642h 0.595201v -0.353731h 0.595201v -0.11791h 0.595201v -0.628856h 0.595201v 0.471642h 0.595201v 0.275124h 0.595201v -0.275124h 0.595201v -0.157214h 0.595201v 0.0393035h 0.595201v 0.550249h 0.595201v -0.510945h 1.1904v
 0.078607h 0.595201v -0.157214h 0.595201v 0.471642h 0.595201v -0.825373h 0.595201v 0.314428h 0.595201v -0.0393035h 0.595201v 0.432338h 0.595201v 0.235821h 0.595201v -0.196517h 0.595201v 0.11791h 0.595201v -0.078607h 0.595201v 0.471642h 0.595201v
 -0.707463h 0.595201v 0.235821h 0.595201v 0.11791h 0.595201v -0.275124h 0.595201v -0.353731h 0.595201v 0.196517h 0.595201v -0.275124h 0.595201v -0.078607h 0.595201v 0.432338h 0.595201v 0.550249h 0.595201v -0.943284h 0.595201v 0.0393035h 0.595201v
 0.275124h 0.595201v 0.628856h 0.595201v -0.746766h 0.595201v -0.157214h 0.595201v 0.235821h 0.595201v 0.157214h 0.595201v 0.432338h 0.595201v -0.432338h 0.595201v -0.393035h 0.595201v -0.078607h 0.595201v 0.90398h 0.595201v -0.471642h 0.595201v
 0.11791h 0.595201v -0.11791h 0.595201v 0.235821h 0.595201v 0.393035h 0.595201v -0.432338h 0.595201v -0.550249h 0.595201v 0.510945h 1.1904v -0.11791h 0.595201v -0.11791h 0.595201v 0.235821h 0.595201v -0.078607h 0.595201v 0.0393035h 0.595201v
 0.393035h 0.595201v -0.628856h 0.595201v 0.432338h 0.595201v -0.393035h 0.595201v 0.275124h 0.595201v -0.432338h 0.595201v 0.0393035h 0.595201v 0.432338h 0.595201v -0.235821h 0.595201v -0.157214h 0.595201v 0.11791h 0.595201v -0.353731h 0.595201v
 0.353731h 0.595201v -0.235821h 0.595201v -0.11791h 0.595201v -0.275124h 0.595201v 0.11791h 0.595201v 0.157214h 0.595201v 0.235821h 0.595201v -0.707463h 0.595201v 0.432338h 0.595201v 0.275124h 0.595201v -0.275124h 0.595201v 0.432338h 0.595201v
 -0.510945h 0.595201v -0.314428h 0.595201v 0.628856h 0.595201v -0.078607h 0.595201v 0.353731h 0.595201v -0.78607h 0.595201v -0.393035h 0.595201v 0.275124h 0.595201v 0.196517h 0.595201v 0.0393035h 0.595201v -1.1398h 0.595201v 0.432338h 0.595201v
 0.628856h 0.595201v -0.314428h 0.595201v 0.078607h 0.595201v -0.982587h 0.595201v 0.432338h 0.595201v 0.235821h 0.595201v 0.550249h 0.595201v -1.21841h 0.595201v 0.707463h 0.595201v -0.510945h 0.595201v 0.11791h 0.595201v 0.0393035h 0.595201v
 -0.864677h 0.595201v 0.432338h 0.595201v 0.628856h 0.595201v 0.707463h 0.595201v -1.06119h 0.595201v -0.78607h 0.595201v 0.825373h 0.595201v 0.11791h 0.595201v 0.235821h 0.595201v 0.196517h 0.595201v -0.628856h 0.595201v -0.078607h 0.595201v
 0.628856h 0.595201v -0.078607h 0.595201v -0.746766h 0.595201v 0.196517h 0.595201v 0.510945h 0.595201v -0.235821h 0.595201v -0.314428h 0.595201v -0.11791h 0.595201v 0.78607h 0.595201v -0.0393035h 0.595201v -0.78607h 0.595201v 0.275124h 0.595201v
 0.510945h 1.1904v 0.589552h 0.595201v -0.589552h 0.595201v 0.0393035h 0.595201v -0.196517h 0.595201v 0.550249h 0.595201v -0.0393035h 0.595201v -0.943284h 0.595201v 0.353731h 0.595201v -0.11791h 0.595201v 0.982587h 0.595201v -0.589552h 0.595201v
 -0.196517h 0.595201v 0.589552h 0.595201v 0.353731h 0.595201v -0.510945h 0.595201v -0.11791h 0.595201v 0.11791h 0.595201v 0.314428h 0.595201v 0.314428h 0.595201v -0.235821h 0.595201v -0.275124h 0.595201v 0.393035h 0.595201v 0.393035h 0.595201v
 -0.707463h 0.595201v 0.353731h 0.595201v -0.157214h 0.595201v -0.825373h 0.595201v 1.1005h 0.595201v -0.0393035h 0.595201v -0.078607h 0.595201v 0.628856h 0.595201v -0.550249h 0.595201v 0.196517h 0.595201v 0.11791h 0.595201v -0.078607h 0.595201v
 -0.0393035h 0.595201v -0.314428h 0.595201v 0.196517h 0.595201v -0.510945h 0.595201v 0.11791h 0.595201v 0.078607h 0.595201v 0.78607h 0.595201v -0.078607h 0.595201v -0.078607h 0.595201v -0.432338h 1.1904v 0.471642h 0.595201v -0.235821h 0.595201v
 -0.078607h 0.595201v -0.078607h 0.595201v 0.078607h 0.595201v 0.471642h 0.595201v -0.707463h 0.595201v 0.353731h 0.595201v 0.196517h 0.595201v 0.235821h 0.595201v -0.0393035h 0.595201v -0.825373h 0.595201v 0.078607h 0.595201v 0.90398h 0.595201v
 -0.550249h 0.595201v -0.314428h 0.595201v 0.275124h 1.1904v 0.314428h 0.595201v -0.275124h 0.595201v -0.11791h 1.1904v 0.432338h 0.595201v 0.078607h 0.595201v -0.746766h 0.595201v 0.825373h 0.595201v -0.550249h 0.595201v 0.314428h 0.595201v
 0.0393035h 0.595201v -0.510945h 0.595201v 0.0393035h 0.595201v 0.0393035h 0.595201v 0.11791h 1.1904v -0.11791h 0.595201v 0.11791h 0.595201v -0.550249h 0.595201v 0.589552h 0.595201v -0.353731h 0.595201v 0.550249h 0.595201v -0.668159h 0.595201v
 0.628856h 0.595201v 0.11791h 0.595201v -0.746766h 0.595201v 0.157214h 0.595201v 0.275124h 0.595201v 0.275124h 0.595201v -0.353731h 0.595201v -0.314428h 0.595201v 0.393035h 0.595201v -0.628856h 0.595201v 0.628856h 0.595201v -0.196517h 0.595201v
 -0.668159h 0.595201v 0.746766h 0.595201v -0.825373h 0.595201v 1.06119h 0.595201v -0.943284h 1.1904v 0.196517h 0.595201v 0.157214h 0.595201v -0.275124h 1.1904v 0.078607h 0.595201v 0.275124h 1.1904v -0.432338h 1.7856v -0.510945h 0.595201v 0.0393035h
 0.595201v 0.11791h 0.595201v -0.0393035h 0.595201v -0.471642h 0.595201v 0.864677h 0.595201v -0.707463h 0.595201v -0.157214h 0.595201v -0.353731h 0.595201v -0.078607h 0.595201v 0.707463h 0.595201v -1.1791h 0.595201v -0.11791h 1.1904v 0.314428h
 0.595201v 0.393035h 0.595201v -1.53284h 0.595201v 0.353731h 0.595201v -0.707463h 0.595201v 1.76866h 0.595201v -0.943284h 0.595201v -2.04378h 0.595201v 1.80796h 0.595201v -0.707463h 0.595201v 1.25771h 0.595201v -0.510945h 0.595201v -1.69005h
 0.595201v 0.235821h 0.595201v 0.550249h 0.595201v -0.432338h 0.595201v -0.589552h 1.1904v -0.11791h 0.595201v 0.314428h 0.595201v -0.157214h 0.595201v -0.510945h 0.595201v -1.1398h 0.595201v 1.21841h 0.595201v 0.275124h 0.595201v -1.88657h 0.595201v
 -0.510945h 0.595201v 0.943284h 0.595201v 1.49353h 0.595201v -1.1005h 0.595201v -0.78607h 0.595201v -0.90398h 0.595201v 0.90398h 0.595201v 1.06119h 0.595201v -2.47612h 0.595201v -0.90398h 0.595201v 1.1791h 0.595201v 1.45423h 0.595201v 0.432338h
 0.595201v -0.746766h 0.595201v -2.39751h 0.595201v 1.41493h 0.595201v 0.393035h 0.595201v 0.353731h 0.595201v -2.201h 0.595201v 1.45423h 0.595201v 0.943284h 0.595201v 1.41493h 0.595201v -2.31891h 0.595201v -0.78607h 0.595201v 0.746766h 0.595201v
 0.746766h 0.595201v 0.825373h 0.595201v -0.314428h 0.595201v -1.41493h 0.595201v 1.49353h 0.595201v 0.157214h 0.595201v 0.314428h 0.595201v -0.825373h 0.595201v -0.707463h 0.595201v 0.668159h 0.595201v 2.00448h 0.595201v -0.589552h 0.595201v
 -0.393035h 0.595201v 0.471642h 0.595201v 0.668159h 0.595201v 1.1005h 0.595201v -1.25771h 0.595201v -0.707463h 0.595201v 0.78607h 0.595201v 1.02189h 0.595201v 1.02189h 0.595201v -1.33632h 0.595201v 0.353731h 0.595201v 0.393035h 0.595201v 1.02189h
 0.595201v -0.982587h 0.595201v -0.864677h 0.595201v 1.88657h 0.595201v 0.078607h 0.595201v 0.078607h 0.595201v -0.314428h 0.595201v 0.707463h 0.595201v -0.510945h 0.595201v 0.90398h 0.595201v 0.196517h 0.595201v -1.49353h 0.595201v 1.45423h 1.1904v
 0.628856h 0.595201v -0.589552h 0.595201v 0.943284h 0.595201v -0.589552h 0.595201v 0.707463h 0.595201v -1.45423h 0.595201v 0.628856h 0.595201v -0.432338h 0.595201v 0.589552h 0.595201v 0.353731h 0.595201v -0.157214h 0.595201v -0.353731h 0.595201v
 0.471642h 0.595201v -0.196517h 0.595201v 0.510945h 0.595201v -0.78607h 0.595201v 0.353731h 0.595201v 0.196517h 0.595201v 0.078607h 0.595201v 0.235821h 0.595201v -0.157214h 0.595201v -0.746766h 0.595201v 0.589552h 0.595201v 0.510945h 0.595201v
 -1.21841h 0.595201v 0.746766h 0.595201v -0.314428h 0.595201v 0.11791h 0.595201v -0.078607h 0.595201v -0.589552h 0.595201v -0.432338h 0.595201v -1.65075h 0.595201v -3.3801h 0.595201v -62.1388h 0.595201v -222.261h 0.595201v 57.1866h 0.595201v 89.2582h
 0.595201v 7.15323h 0.595201v -7.19254h 0.595201v 33.6045h 0.595201v 36.2771h 0.595201v 29.7527h 0.595201v 5.50249h 0.595201v -0.471642h 0.595201v 2.39751h 0.595201v 4.08756h 0.595201v 3.22289h 0.595201v -4.63781h 0.595201v -0.353731h 0.595201v
 1.49353h 0.595201v 5.22736h 0.595201v 0.746766h 0.595201v -4.36269h 0.595201v 1.69005h 0.595201v 0.11791h 0.595201v 5.34527h 0.595201v -2.16169h 0.595201v -4.44129h 0.595201v 0.90398h 0.595201v 1.57214h 0.595201v 3.96965h 0.595201v -7.19254h
 0.595201v 1.84726h 0.595201v -0.471642h 0.595201v 4.12687h 0.595201v -0.432338h 0.595201v -3.57662h 0.595201v 1.02189h 0.595201v 0.510945h 0.595201v 8.33234h 0.595201v -5.6597h 0.595201v 0.90398h 0.595201v 4.63781h 0.595201v 6.7995h 0.595201v
 5.6597h 0.595201v 2.201h 0.595201v 4.95224h 0.595201v 2.08308h 0.595201v 0.982587h 0.595201v 0.314428h 7.14241v -0.0393035h 0.595201v 0.0393035h 14.88v -0.0393035h 0.595201" fill="none" stroke="#000099"/>
<path d="M57.1929,346.022h 453.543" fill="none" stroke="black"/>
<path d="M57.7881,336.795v 9.22726" fill="none" stroke="black"/>
<path d="M77.6282,341.409v 4.61363" fill="none" stroke="black"/>
<path d="M97.4682,341.409v 4.61363" fill="none" stroke="black"/>
<path d="M117.308,341.409v 4.61363" fill="none" stroke="black"/>
<path d="M137.148,341.409v 4.61363" fill="none" stroke="black"/>
<path d="M156.988,336.795v 9.22726" fill="none" stroke="black"/>
<path d="M176.828,341.409v 4.61363" fill="none" stroke="black"/>
<path d="M196.668,341.409v 4.61363" fill="none" stroke="black"/>
<path d="M216.508,341.409v 4.61363" fill="none" stroke="black"/>
<path d="M236.348,341.409v 4.61363" fill="none" stroke="black"/>
<path d="M256.189,336.795v 9.22726" fill="none" stroke="black"/>
<path d="M276.029,341.409v 4.61363" fill="none" stroke="black"/>
<path d="M295.869,341.409v 4.61363" fill="none" stroke="black"/>
<path d="M315.709,341.409v 4.61363" fill="none" stroke="black"/>
<path d="M335.549,341.409v 4.61363" fill="none" stroke="black"/>
<path d="M355.389,336.795v 9.22726" fill="none" stroke="black"/>
<path d="M375.229,341.409v 4.61363" fill="none" stroke="black"/>
<path d="M395.069,341.409v 4.61363" fill="none" stroke="black"/>
<path d="M414.909,341.409v 4.61363" fill="none" stroke="black"/>
<path d="M434.749,341.409v 4.61363" fill="none" stroke="black"/>
<path d="M454.589,336.795v 9.22726" fill="none" stroke="black"/>
<path d="M57.7881,336.795v 9.22726" fill="none" stroke="black"/>
<path d="M454.589,336.795v 9.22726" fill="none" stroke="black"/>
<path d="M474.429,341.409v 4.61363" fill="none" stroke="black"/>
<path d="M494.269,341.409v 4.61363" fill="none" stroke="black"/>
<text xml:space="preserve" x="54.2605" y="358.403" fill="black" font-size="12.8453" font-family="Helvetica">0</text>
<text xml:space="preserve" x="146.305" y="358.403" fill="black" font-size="12.8453" font-family="Helvetica">500</text>
<text xml:space="preserve" x="241.608" y="358.403" fill="black" font-size="12.8453" font-family="Helvetica">1000</text>
<text xml:space="preserve" x="340.983" y="358.403" fill="black" font-size="12.8453" font-family="Helvetica">1500</text>
<text xml:space="preserve" x="440.359" y="358.403" fill="black" font-size="12.8453" font-family="Helvetica">2000</text>
<text xml:space="preserve" x="435.471" y="372.251" fill="black" font-size="12.8453" font-family="Helvetica">Entries / Time</text>
<path d="M57.1929,346.022v -307.575" fill="none" stroke="black"/>
<path d="M70.7992,346.022h -13.6063" fill="none" stroke="black"/>
<path d="M63.9961,339.105h -6.80315" fill="none" stroke="black"/>
<path d="M63.9961,332.187h -6.80315" fill="none" stroke="black"/>
<path d="M63.9961,325.27h -6.80315" fill="none" stroke="black"/>
<path d="M63.9961,318.353h -6.80315" fill="none" stroke="black"/>
<path d="M70.7992,311.435h -13.6063" fill="none" stroke="black"/>
<path d="M63.9961,304.518h -6.80315" fill="none" stroke="black"/>
<path d="M63.9961,297.6h -6.80315" fill="none" stroke="black"/>
<path d="M63.9961,290.683h -6.80315" fill="none" stroke="black"/>
<path d="M63.9961,283.766h -6.80315" fill="none" stroke="black"/>
<path d="M70.7992,276.848h -13.6063" fill="none" stroke="black"/>
<path d="M63.9961,269.931h -6.80315" fill="none" stroke="black"/>
<path d="M63.9961,263.013h -6.80315" fill="none" stroke="black"/>
<path d="M63.9961,256.096h -6.80315" fill="none" stroke="black"/>
<path d="M63.9961,249.178h -6.80315" fill="none" stroke="black"/>
<path d="M70.7992,242.261h -13.6063" fill="none" stroke="black"/>
<path d="M63.9961,235.344h -6.80315" fill="none" stroke="black"/>
<path d="M63.9961,228.426h -6.80315" fill="none" stroke="black"/>
<path d="M63.9961,221.509h -6.80315" fill="none" stroke="black"/>
<path d="M63.9961,214.591h -6.80315" fill="none" stroke="black"/>
<path d="M70.7992,207.674h -13.6063" fill="none" stroke="black"/>
<path d="M63.9961,200.757h -6.80315" fill="none" stroke="black"/>
<path d="M63.9961,193.839h -6.80315" fill="none" stroke="black"/>
<path d="M63.9961,186.922h -6.80315" fill="none" stroke="black"/>
<path d="M63.9961,180.004h -6.80315" fill="none" stroke="black"/>
<path d="M70.7992,173.087h -13.6063" fill="none" stroke="black"/>
<path d="M63.9961,166.169h -6.80315" fill="none" stroke="black"/>
<path d="M63.9961,159.252h -6.80315" fill="none" stroke="black"/>
<path d="M63.9961,152.335h -6.80315" fill="none" stroke="black"/>
<path d="M63.9961,145.417h -6.80315" fill="none" stroke="black"/>
<path d="M70.7992,138.5h -13.6063" fill="none" stroke="black"/>
<path d="M63.9961,131.582h -6.80315" fill="none" stroke="black"/>
<path d="M63.9961,124.665h -6.80315" fill="none" stroke="black"/>
<path d="M63.9961,117.748h -6.80315" fill="none" stroke="black"/>
<path d="M63.9961,110.83h -6.80315" fill="none" stroke="black"/>
<path d="M70.7992,103.913h -13.6063" fill="none" stroke="black"/>
<path d="M63.9961,96.9954h -6.80315" fill="none" stroke="black"/>
<path d="M63.9961,90.0779h -6.80315" fill="none" stroke="black"/>
<path d="M63.9961,83.1605h -6.80315" fill="none" stroke="black"/>
<path d="M63.9961,76.2431h -6.80315" fill="none" stroke="black"/>
<path d="M70.7992,69.3257h -13.6063" fill="none" stroke="black"/>
<path d="M70.7992,69.3257h -13.6063" fill="none" stroke="black"/>
<path d="M63.9961,62.4083h -6.80315" fill="none" stroke="black"/>
<path d="M63.9961,55.4909h -6.80315" fill="none" stroke="black"/>
<path d="M63.9961,48.5735h -6.80315" fill="none" stroke="black"/>
<path d="M63.9961,41.656h -6.80315" fill="none" stroke="black"/>
<text xml:space="preserve" x="47.7441" y="350.258" fill="black" font-size="12.8453" font-family="Helvetica">0</text>
<text xml:space="preserve" x="39.5986" y="316.047" fill="black" font-size="12.8453" font-family="Helvetica">0.1</text>
<text xml:space="preserve" x="37.1549" y="281.021" fill="black" font-size="12.8453" font-family="Helvetica">0.2</text>
<text xml:space="preserve" x="37.1549" y="246.81" fill="black" font-size="12.8453" font-family="Helvetica">0.3</text>
<text xml:space="preserve" x="37.1549" y="211.784" fill="black" font-size="12.8453" font-family="Helvetica">0.4</text>
<text xml:space="preserve" x="37.1549" y="177.573" fill="black" font-size="12.8453" font-family="Helvetica">0.5</text>
<text xml:space="preserve" x="37.1549" y="143.361" fill="black" font-size="12.8453" font-family="Helvetica">0.6</text>
<text xml:space="preserve" x="37.1549" y="108.336" fill="black" font-size="12.8453" font-family="Helvetica">0.7</text>
<text xml:space="preserve" x="37.1549" y="74.1244" fill="black" font-size="12.8453" font-family="Helvetica">0.8</text>
<g transform="rotate(-90,24.122,70.0516)">
<text xml:space="preserve" x="24.122" y="70.0516" fill="black" font-size="12.8453" font-family="Helvetica">Event</text>
</g>
<text xml:space="preserve" x="253.012" y="18.7347" fill="black" font-size="18.0316" font-family="Helvetica">Cs_015</text>
<rect x="442.705" y="24.9905" width="113.386" height="92.2726" fill="white"/>
<path d="M442.705,117.263h 113.386" fill="none" stroke="black"/>
<path d="M556.091,117.263v -92.2726" fill="none" stroke="black"/>
<path d="M556.091,24.9905h -113.386" fill="none" stroke="black"/>
<path d="M442.705,24.9905v 92.2726" fill="none" stroke="black"/>
<text xml:space="preserve" x="465.61" y="41.5422" fill="black" font-size="19.9704" font-family="Helvetica">Cs_015</text>
<path d="M442.705,48.0586h 113.386" fill="none" stroke="black"/>
<text xml:space="preserve" x="447.69" y="64.3497" fill="black" font-size="12.6883" font-family="Helvetica">Entries </text>
<text xml:space="preserve" x="506.338" y="64.3497" fill="black" font-size="12.6883" font-family="Helvetica"> 101844</text>
<text xml:space="preserve" x="447.69" y="87.1572" fill="black" font-size="12.6883" font-family="Helvetica">Mean  </text>
<text xml:space="preserve" x="515.298" y="87.1572" fill="black" font-size="12.6883" font-family="Helvetica">   1751</text>
<text xml:space="preserve" x="447.69" y="109.965" fill="black" font-size="12.6883" font-family="Helvetica">Std Dev   </text>
<text xml:space="preserve" x="512.854" y="109.965" fill="black" font-size="12.6883" font-family="Helvetica">  514.6</text>
<text xml:space="preserve" x="253.012" y="18.7347" fill="black" font-size="18.0316" font-family="Helvetica">Cs_015</text></svg>
