<?xml version="1.0" standalone="no"?>
<svg width="567.429" height="384.68" viewBox="0 0 567.429 384.68" xmlns="http://www.w3.org/2000/svg" shape-rendering="crispEdges">
<title>
img/week1/low_gain_clb/Am_007.svg
</title>
<desc>
Creator: ROOT Version 6.22/09
CreationDate: Thu Jul  8 21:07:13 2021</desc>
<defs>
</defs>
<rect x="0.5" y="0" width="566.929" height="384.18" fill="white"/>
<rect x="57.1929" y="38.418" width="453.543" height="307.344" fill="white"/>
<rect x="57.1929" y="38.418" width="453.543" height="307.344" fill="none" stroke="black"/>
<path d="M57.1929,345.762h 35.4433v -4.83816h 0.656358v -14.5145h 0.656358v 7.25723h 0.656358v 2.41908h 0.656358v -2.41908h 0.656358v -7.25723h 0.656358v -2.41908h 1.31272v 2.41908h 0.656358v 4.83816h 0.656358v -4.83816h 1.31272v 4.83816h 1.31272v
 -7.25723h 0.656358v -4.83816h 1.31272v 9.67631h 0.656358v 12.0954h 0.656358v -12.0954h 0.656358v -2.41908h 0.656358v -12.0954h 0.656358v 19.3526h 0.656358v -12.0954h 0.656358v 4.83816h 0.656358v 12.0954h 0.656358v -14.5145h 0.656358v 4.83816h
 0.656358v -2.41908h 0.656358v 2.41908h 0.656358v -9.67631h 0.656358v 7.25723h 0.656358v 4.83816h 0.656358v 4.83816h 0.656358v -12.0954h 0.656358v -4.83816h 0.656358v 7.25723h 0.656358v 4.83816h 0.656358v -7.25723h 0.656358v 7.25723h 0.656358v
 -4.83816h 1.31272v 4.83816h 0.656358v -19.3526h 0.656358v 21.7717h 0.656358v -2.41908h 0.656358v -16.9335h 0.656358v -14.5145h 0.656358v 24.1908h 1.31272v -2.41908h 0.656358v 7.25723h 0.656358v -19.3526h 0.656358v 12.0954h 0.656358v -14.5145h
 0.656358v 2.41908h 0.656358v -14.5145h 0.656358v -4.83816h 0.656358v 16.9335h 0.656358v 14.5145h 0.656358v -33.8671h 0.656358v 29.0289h 0.656358v -33.8671h 0.656358v 12.0954h 0.656358v -16.9335h 0.656358v 16.9335h 0.656358v -31.448h 0.656358v
 24.1908h 0.656358v -14.5145h 0.656358v 7.25723h 0.656358v -24.1908h 0.656358v -38.7052h 0.656358v 36.2862h 0.656358v -16.9335h 0.656358v -4.83816h 0.656358v -7.25723h 0.656358v -41.1243h 0.656358v -38.7052h 0.656358v 70.1533h 0.656358v -65.3151h
 0.656358v 16.9335h 0.656358v -60.4769h 0.656358v 67.7342h 0.656358v -99.1822h 0.656358v 19.3526h 0.656358v 12.0954h 0.656358v -7.25723h 0.656358v -4.83816h 0.656358v -2.41908h 0.656358v -19.3526h 0.656358v 12.0954h 0.656358v 29.0289h 0.656358v
 -2.41908h 0.656358v 12.0954h 0.656358v -70.1533h 0.656358v 2.41908h 0.656358v 31.448h 0.656358v 45.9625h 0.656358v -24.1908h 0.656358v -2.41908h 0.656358v 12.0954h 0.656358v 2.41908h 0.656358v -43.5434h 0.656358v 67.7342h 0.656358v -16.9335h
 1.31272v 50.8006h 0.656358v -33.8671h 0.656358v -14.5145h 0.656358v 14.5145h 0.656358v -53.2197h 0.656358v 45.9625h 0.656358v 21.7717h 0.656358v -7.25723h 0.656358v -74.9914h 0.656358v 55.6388h 0.656358v 12.0954h 0.656358v -19.3526h 0.656358v
 14.5145h 0.656358v 33.8671h 0.656358v 36.2862h 0.656358v -43.5434h 0.656358v 4.83816h 0.656358v -36.2862h 0.656358v 113.697h 0.656358v -53.2197h 0.656358v -16.9335h 0.656358v 50.8006h 0.656358v -9.67631h 0.656358v 24.1908h 0.656358v -4.83816h
 0.656358v -16.9335h 0.656358v 41.1243h 0.656358v -9.67631h 0.656358v 21.7717h 0.656358v -16.9335h 0.656358v 12.0954h 0.656358v 9.67631h 0.656358v -12.0954h 0.656358v -21.7717h 0.656358v -2.41908h 0.656358v 4.83816h 0.656358v -14.5145h 0.656358v
 50.8006h 0.656358v -31.448h 0.656358v 33.8671h 0.656358v -45.9625h 0.656358v 12.0954h 0.656358v 21.7717h 0.656358v -31.448h 0.656358v -19.3526h 0.656358v 41.1243h 0.656358v -4.83816h 0.656358v -21.7717h 0.656358v 29.0289h 0.656358v -4.83816h
 0.656358v -26.6099h 0.656358v 50.8006h 0.656358v -26.6099h 0.656358v 19.3526h 0.656358v -19.3526h 0.656358v 33.8671h 0.656358v 4.83816h 0.656358v -16.9335h 0.656358v 16.9335h 0.656358v 2.41908h 0.656358v -9.67631h 0.656358v 21.7717h 0.656358v
 -16.9335h 0.656358v 9.67631h 0.656358v 21.7717h 0.656358v -9.67631h 1.31272v 7.25723h 1.31272v 4.83816h 0.656358v 2.41908h 0.656358v -7.25723h 0.656358v 2.41908h 0.656358v 4.83816h 0.656358v 4.83816h 0.656358v -4.83816h 0.656358v 7.25723h 0.656358v
 -7.25723h 0.656358v -2.41908h 0.656358v 4.83816h 0.656358v 2.41908h 1.31272v -2.41908h 0.656358v 9.67631h 0.656358v -21.7717h 0.656358v 7.25723h 0.656358v 2.41908h 0.656358v 4.83816h 0.656358v -2.41908h 0.656358v -9.67631h 0.656358v 7.25723h
 0.656358v 7.25723h 0.656358v 2.41908h 0.656358v -2.41908h 0.656358v -7.25723h 0.656358v -4.83816h 0.656358v 12.0954h 0.656358v -4.83816h 0.656358v -7.25723h 0.656358v 14.5145h 0.656358v -24.1908h 0.656358v 14.5145h 0.656358v 2.41908h 1.31272v
 2.41908h 0.656358v -12.0954h 0.656358v 2.41908h 0.656358v 14.5145h 0.656358v -4.83816h 0.656358v 7.25723h 1.31272v -7.25723h 1.96907v -12.0954h 0.656358v 14.5145h 0.656358v -2.41908h 0.656358v 2.41908h 1.31272v 2.41908h 0.656358v -4.83816h 0.656358v
 4.83816h 1.31272v -9.67631h 0.656358v 7.25723h 0.656358v -2.41908h 0.656358v 7.25723h 0.656358v -16.9335h 0.656358v 14.5145h 0.656358v -4.83816h 0.656358v 4.83816h 0.656358v -4.83816h 0.656358v -4.83816h 0.656358v 4.83816h 0.656358v 2.41908h
 0.656358v -2.41908h 1.31272v 2.41908h 1.96907v 2.41908h 0.656358v -4.83816h 0.656358v 2.41908h 1.31272v -4.83816h 0.656358v 4.83816h 0.656358v -2.41908h 0.656358v 2.41908h 1.31272v -7.25723h 0.656358v 12.0954h 0.656358v -19.3526h 0.656358v 7.25723h
 0.656358v 9.67631h 1.31272v -7.25723h 0.656358v 2.41908h 1.31272v -4.83816h 0.656358v 4.83816h 0.656358v 2.41908h 0.656358v 4.83816h 0.656358v -7.25723h 0.656358v -4.83816h 0.656358v 2.41908h 0.656358v 2.41908h 1.31272v 2.41908h 0.656358v -9.67631h
 0.656358v 7.25723h 0.656358v 2.41908h 0.656358v -4.83816h 0.656358v 2.41908h 0.656358v -4.83816h 0.656358v 2.41908h 0.656358v 2.41908h 0.656358v 4.83816h 0.656358v -9.67631h 0.656358v 4.83816h 0.656358v -12.0954h 0.656358v 9.67631h 0.656358v
 -2.41908h 0.656358v 2.41908h 0.656358v -2.41908h 0.656358v -4.83816h 0.656358v 2.41908h 0.656358v 7.25723h 0.656358v -2.41908h 0.656358v 2.41908h 0.656358v -4.83816h 1.31272v -7.25723h 0.656358v 2.41908h 0.656358v 7.25723h 0.656358v 2.41908h
 0.656358v -9.67631h 0.656358v 7.25723h 0.656358v 4.83816h 0.656358v -4.83816h 0.656358v -7.25723h 0.656358v 14.5145h 0.656358v -4.83816h 0.656358v 2.41908h 0.656358v -4.83816h 0.656358v 4.83816h 0.656358v -16.9335h 0.656358v 9.67631h 0.656358v
 -21.7717h 0.656358v 12.0954h 1.31272v 7.25723h 0.656358v -7.25723h 0.656358v 2.41908h 0.656358v 4.83816h 0.656358v 2.41908h 0.656358v -21.7717h 0.656358v 9.67631h 0.656358v 2.41908h 0.656358v 2.41908h 0.656358v 2.41908h 0.656358v -9.67631h 0.656358v
 -2.41908h 0.656358v -2.41908h 0.656358v 7.25723h 0.656358v 4.83816h 0.656358v -24.1908h 0.656358v -2.41908h 0.656358v 19.3526h 0.656358v 7.25723h 0.656358v -21.7717h 0.656358v 9.67631h 0.656358v -9.67631h 0.656358v 9.67631h 0.656358v -4.83816h
 0.656358v 4.83816h 0.656358v -9.67631h 0.656358v 16.9335h 0.656358v -7.25723h 0.656358v 16.9335h 0.656358v -36.2862h 0.656358v 31.448h 0.656358v -21.7717h 0.656358v 14.5145h 0.656358v 7.25723h 0.656358v -9.67631h 0.656358v -19.3526h 0.656358v
 24.1908h 0.656358v -4.83816h 0.656358v 9.67631h 0.656358v -16.9335h 0.656358v 9.67631h 0.656358v 2.41908h 0.656358v -9.67631h 1.96907v 7.25723h 0.656358v 7.25723h 0.656358v -12.0954h 0.656358v 14.5145h 0.656358v -12.0954h 0.656358v 4.83816h
 0.656358v 2.41908h 0.656358v 2.41908h 0.656358v -9.67631h 0.656358v 21.7717h 0.656358v -19.3526h 0.656358v 4.83816h 0.656358v -21.7717h 0.656358v 19.3526h 0.656358v 14.5145h 0.656358v -4.83816h 0.656358v -24.1908h 0.656358v 16.9335h 0.656358v
 -4.83816h 1.31272v -21.7717h 0.656358v 29.0289h 0.656358v -16.9335h 0.656358v 2.41908h 0.656358v -7.25723h 0.656358v 14.5145h 0.656358v -29.0289h 0.656358v -7.25723h 0.656358v 19.3526h 1.31272v -24.1908h 0.656358v -21.7717h 0.656358v 21.7717h
 0.656358v -7.25723h 0.656358v -53.2197h 0.656358v 45.9625h 0.656358v -58.0579h 0.656358v 31.448h 0.656358v 9.67631h 0.656358v -38.7052h 0.656358v -26.6099h 0.656358v 24.1908h 0.656358v -21.7717h 0.656358v -31.448h 0.656358v 19.3526h 0.656358v
 9.67631h 0.656358v 7.25723h 0.656358v -33.8671h 0.656358v 12.0954h 0.656358v -21.7717h 0.656358v -38.7052h 0.656358v 50.8006h 0.656358v -29.0289h 0.656358v 4.83816h 0.656358v 41.1243h 0.656358v -50.8006h 0.656358v 38.7052h 0.656358v 2.41908h
 0.656358v -7.25723h 0.656358v 36.2862h 0.656358v 24.1908h 0.656358v 9.67631h 0.656358v -36.2862h 0.656358v 41.1243h 0.656358v 21.7717h 0.656358v -14.5145h 0.656358v 26.6099h 0.656358v -16.9335h 0.656358v 26.6099h 0.656358v 19.3526h 0.656358v
 7.25723h 0.656358v 4.83816h 0.656358v 12.0954h 0.656358v 14.5145h 0.656358v -19.3526h 0.656358v 16.9335h 0.656358v -9.67631h 0.656358v -2.41908h 0.656358v 14.5145h 0.656358v 4.83816h 0.656358v 2.41908h 0.656358v -12.0954h 0.656358v 7.25723h
 0.656358v 2.41908h 0.656358v 4.83816h 3.28179v -4.83816h 0.656358v 4.83816h 1.31272v -2.41908h 0.656358v 2.41908h 0.656358v 2.41908h 0.656358v -9.67631h 0.656358v 9.67631h 0.656358v -2.41908h 0.656358v 2.41908h 0.656358v -4.83816h 1.31272v 2.41908h
 1.31272v -2.41908h 0.656358v 2.41908h 0.656358v 2.41908h 3.28179v -2.41908h 0.656358v 2.41908h 1.96907v -4.83816h 0.656358v 2.41908h 0.656358v 2.41908h 0.656358v -2.41908h 0.656358v 2.41908h 0.656358v -4.83816h 0.656358v 2.41908h 2.62543v 2.41908h
 0.656358v -7.25723h 0.656358v 4.83816h 0.656358v 2.41908h 0.656358v -4.83816h 0.656358v 2.41908h 0.656358v 2.41908h 0.656358v -2.41908h 1.31272v 2.41908h 0.656358v -4.83816h 0.656358v 4.83816h 1.31272v -2.41908h 1.31272v 2.41908h 2.62543v -2.41908h
 1.31272v 2.41908h 0.656358v -4.83816h 1.31272v 2.41908h 0.656358v 2.41908h 0.656358v -2.41908h 1.31272v 2.41908h 0.656358v -2.41908h 0.656358v 2.41908h 0.656358v -4.83816h 0.656358v 4.83816h 1.31272v -2.41908h 0.656358v 2.41908h 1.96907v -2.41908h
 0.656358v 2.41908h 0.656358v -7.25723h 0.656358v 7.25723h 0.656358v -2.41908h 0.656358v 2.41908h 1.31272v -2.41908h 0.656358v 2.41908h 1.31272v -2.41908h 0.656358v 2.41908h 0.656358v -2.41908h 0.656358v 2.41908h 1.31272v -2.41908h 0.656358v 2.41908h
 0.656358v -2.41908h 1.31272v 2.41908h 3.28179v -4.83816h 0.656358v 2.41908h 0.656358v 2.41908h 3.93815v -2.41908h 1.31272v 2.41908h 0.656358v -2.41908h 0.656358v 2.41908h 1.96907v -2.41908h 0.656358v 2.41908h 0.656358v -2.41908h 2.62543v 2.41908h
 0.656358v -2.41908h 0.656358v 2.41908h 1.31272v -2.41908h 0.656358v 2.41908h 21.0035v -2.41908h 0.656358v 2.41908h 7.21994v -2.41908h 0.656358v 2.41908h 6.56358v -2.41908h 0.656358v -2.41908h 1.96907v 2.41908h 1.96907v 2.41908h 0.656358v -2.41908h
 0.656358" fill="none" stroke="#000099"/>
<path d="M57.1929,345.762h 453.543" fill="none" stroke="black"/>
<path d="M57.8493,336.541v 9.22031" fill="none" stroke="black"/>
<path d="M79.7279,341.152v 4.61016" fill="none" stroke="black"/>
<path d="M101.606,341.152v 4.61016" fill="none" stroke="black"/>
<path d="M123.485,341.152v 4.61016" fill="none" stroke="black"/>
<path d="M145.364,341.152v 4.61016" fill="none" stroke="black"/>
<path d="M167.242,336.541v 9.22031" fill="none" stroke="black"/>
<path d="M189.121,341.152v 4.61016" fill="none" stroke="black"/>
<path d="M210.999,341.152v 4.61016" fill="none" stroke="black"/>
<path d="M232.878,341.152v 4.61016" fill="none" stroke="black"/>
<path d="M254.757,341.152v 4.61016" fill="none" stroke="black"/>
<path d="M276.635,336.541v 9.22031" fill="none" stroke="black"/>
<path d="M298.514,341.152v 4.61016" fill="none" stroke="black"/>
<path d="M320.392,341.152v 4.61016" fill="none" stroke="black"/>
<path d="M342.271,341.152v 4.61016" fill="none" stroke="black"/>
<path d="M364.15,341.152v 4.61016" fill="none" stroke="black"/>
<path d="M386.028,336.541v 9.22031" fill="none" stroke="black"/>
<path d="M407.907,341.152v 4.61016" fill="none" stroke="black"/>
<path d="M429.785,341.152v 4.61016" fill="none" stroke="black"/>
<path d="M451.664,341.152v 4.61016" fill="none" stroke="black"/>
<path d="M473.543,341.152v 4.61016" fill="none" stroke="black"/>
<path d="M495.421,336.541v 9.22031" fill="none" stroke="black"/>
<path d="M57.8493,336.541v 9.22031" fill="none" stroke="black"/>
<path d="M495.421,336.541v 9.22031" fill="none" stroke="black"/>
<text xml:space="preserve" x="54.1065" y="358.189" fill="black" font-size="12.836" font-family="Helvetica">0</text>
<text xml:space="preserve" x="156.446" y="358.189" fill="black" font-size="12.836" font-family="Helvetica">500</text>
<text xml:space="preserve" x="262.035" y="358.189" fill="black" font-size="12.836" font-family="Helvetica">1000</text>
<text xml:space="preserve" x="371.684" y="358.189" fill="black" font-size="12.836" font-family="Helvetica">1500</text>
<text xml:space="preserve" x="481.334" y="358.189" fill="black" font-size="12.836" font-family="Helvetica">2000</text>
<text xml:space="preserve" x="452.094" y="371.996" fill="black" font-size="12.836" font-family="Helvetica">ADC value</text>
<path d="M57.1929,345.762v -307.344" fill="none" stroke="black"/>
<path d="M70.7992,345.762h -13.6063" fill="none" stroke="black"/>
<path d="M63.9961,333.666h -6.80315" fill="none" stroke="black"/>
<path d="M63.9961,321.571h -6.80315" fill="none" stroke="black"/>
<path d="M63.9961,309.476h -6.80315" fill="none" stroke="black"/>
<path d="M70.7992,297.38h -13.6063" fill="none" stroke="black"/>
<path d="M63.9961,285.285h -6.80315" fill="none" stroke="black"/>
<path d="M63.9961,273.189h -6.80315" fill="none" stroke="black"/>
<path d="M63.9961,261.094h -6.80315" fill="none" stroke="black"/>
<path d="M70.7992,248.999h -13.6063" fill="none" stroke="black"/>
<path d="M63.9961,236.903h -6.80315" fill="none" stroke="black"/>
<path d="M63.9961,224.808h -6.80315" fill="none" stroke="black"/>
<path d="M63.9961,212.713h -6.80315" fill="none" stroke="black"/>
<path d="M70.7992,200.617h -13.6063" fill="none" stroke="black"/>
<path d="M63.9961,188.522h -6.80315" fill="none" stroke="black"/>
<path d="M63.9961,176.426h -6.80315" fill="none" stroke="black"/>
<path d="M63.9961,164.331h -6.80315" fill="none" stroke="black"/>
<path d="M70.7992,152.236h -13.6063" fill="none" stroke="black"/>
<path d="M63.9961,140.14h -6.80315" fill="none" stroke="black"/>
<path d="M63.9961,128.045h -6.80315" fill="none" stroke="black"/>
<path d="M63.9961,115.949h -6.80315" fill="none" stroke="black"/>
<path d="M70.7992,103.854h -13.6063" fill="none" stroke="black"/>
<path d="M63.9961,91.7586h -6.80315" fill="none" stroke="black"/>
<path d="M63.9961,79.6633h -6.80315" fill="none" stroke="black"/>
<path d="M63.9961,67.5679h -6.80315" fill="none" stroke="black"/>
<path d="M70.7992,55.4725h -13.6063" fill="none" stroke="black"/>
<path d="M70.7992,55.4725h -13.6063" fill="none" stroke="black"/>
<path d="M63.9961,43.3771h -6.80315" fill="none" stroke="black"/>
<text xml:space="preserve" x="47.6087" y="350.067" fill="black" font-size="12.836" font-family="Helvetica">0</text>
<text xml:space="preserve" x="41.111" y="302.146" fill="black" font-size="12.836" font-family="Helvetica">20</text>
<text xml:space="preserve" x="41.111" y="253.412" fill="black" font-size="12.836" font-family="Helvetica">40</text>
<text xml:space="preserve" x="41.111" y="204.679" fill="black" font-size="12.836" font-family="Helvetica">60</text>
<text xml:space="preserve" x="41.111" y="156.758" fill="black" font-size="12.836" font-family="Helvetica">80</text>
<text xml:space="preserve" x="33.801" y="108.025" fill="black" font-size="12.836" font-family="Helvetica">100</text>
<text xml:space="preserve" x="33.801" y="60.1042" fill="black" font-size="12.836" font-family="Helvetica">120</text>
<g transform="rotate(-90,20.8055,69.8509)">
<text xml:space="preserve" x="20.8055" y="69.8509" fill="black" font-size="12.836" font-family="Helvetica">Event</text>
</g>
<text xml:space="preserve" x="250.664" y="18.681" fill="black" font-size="17.9813" font-family="Helvetica">Am_007</text>
<rect x="442.705" y="24.9717" width="113.386" height="61.4688" fill="white"/>
<path d="M442.705,86.4405h 113.386" fill="none" stroke="black"/>
<path d="M556.091,86.4405v -61.4688" fill="none" stroke="black"/>
<path d="M556.091,24.9717h -113.386" fill="none" stroke="black"/>
<path d="M442.705,24.9717v 61.4688" fill="none" stroke="black"/>
<text xml:space="preserve" x="474.836" y="36.5499" fill="black" font-size="13.4705" font-family="Helvetica">Am_007</text>
<path d="M442.705,40.3389h 113.386" fill="none" stroke="black"/>
<text xml:space="preserve" x="448.033" y="52.7943" fill="black" font-size="12.7411" font-family="Helvetica">Entries </text>
<text xml:space="preserve" x="513.01" y="52.7943" fill="black" font-size="12.7411" font-family="Helvetica"> 11066</text>
<text xml:space="preserve" x="448.033" y="68.2264" fill="black" font-size="12.7411" font-family="Helvetica">Mean  </text>
<text xml:space="preserve" x="515.447" y="68.2264" fill="black" font-size="12.7411" font-family="Helvetica">  769.1</text>
<text xml:space="preserve" x="448.033" y="82.8464" fill="black" font-size="12.7411" font-family="Helvetica">Std Dev   </text>
<text xml:space="preserve" x="513.01" y="82.8464" fill="black" font-size="12.7411" font-family="Helvetica">  422.9</text>
<path d="M123.923,332.423l 0.875144, -2.14022l 0.875144, -2.41434l 0.875144, -2.71115l 0.875144, -3.03043l 0.875144, -3.37157l 0.875144, -3.73352l 0.875144, -4.11471l 0.875144, -4.51307l 0.875144, -4.92595l 0.875144, -5.35012l 0.875144, -5.78176l
 0.875144, -6.21648l 0.875144, -6.64933l 0.875144, -7.07481l 0.875144, -7.48698l 0.875144, -7.87947l 0.875144, -8.24563l 0.875144, -8.57857l 0.875144, -8.87133l 0.875144, -9.117l 0.875144, -9.30883l 0.875144, -9.44042l 0.875144, -9.50586l 0.875144,
 -9.49987l 0.875144, -9.41798l 0.875144, -9.25664l 0.875144, -9.01333l 0.875144, -8.68674l 0.875144, -8.27676l 0.875144, -7.78464l 0.875144, -7.21293l 0.875144, -6.56556l 0.875144, -5.84775l 0.875144, -5.06602l 0.875144, -4.22801l 0.875144, -3.34245l
 0.875144, -2.41896l 0.875144, -1.46792l 0.875144, -0.500243l 0.875144, 0.472765l 0.875144, 1.43964l 0.875144, 2.38895l 0.875144, 3.30947l 0.875144, 4.19036l 0.875144, 5.02136l 0.875144, 5.79286l 0.875144, 6.49605l 0.875144, 7.123l 0.875144, 7.6667"
 fill="none" stroke="#ff0000" stroke-width="2"/>
<path d="M166.805,137.277l 0.875144, 8.1211l 0.875144, 8.48114l 0.875144, 8.74276l 0.875144, 8.90295l 0.875144, 8.95972l 0.875144, 8.91223l 0.875144, 8.76087l 0.875144, 8.5074l 0.875144, 8.15511l 0.875144, 7.70905l 0.875144, 7.17628l 0.875144,
 6.56604l 0.875144, 5.88998l 0.875144, 5.16222l 0.875144, 4.39937l 0.875144, 3.62035l 0.875144, 2.84604l 0.875144, 2.0987l 0.875144, 1.40124l 0.875144, 0.776287l 0.875144, 0.245047l 0.875144, -0.173811l 0.875144, -0.465325l 0.875144, -0.619292l
 0.875144, -0.631121l 0.875144, -0.502399l 0.875144, -0.241096l 0.875144, 0.138637l 0.875144, 0.617083l 0.875144, 1.16997l 0.875144, 1.76979l 0.875144, 2.38737l 0.875144, 2.99355l 0.875144, 3.56082l 0.875144, 4.06481l 0.875144, 4.48558l 0.875144,
 4.80848l 0.875144, 5.02466l 0.875144, 5.13114l 0.875144, 5.13049l 0.875144, 5.03019l 0.875144, 4.84172l 0.875144, 4.57944l 0.875144, 4.25947l 0.875144, 3.89856l 0.875144, 3.51308l 0.875144, 3.1182l 0.875144, 2.72718l 0.875144, 2.35106" fill="none"
 stroke="#ff0000" stroke-width="2"/>
<path d="M209.687,335.679l 0.875144, 1.99837" fill="none" stroke="#ff0000" stroke-width="2"/>
<path d="M342.49,334.106l 0.437572, -1.5595l 0.437572, -1.72559l 0.437572, -1.90293l 0.437572, -2.09136l 0.437572, -2.29056l 0.437572, -2.50007l 0.437572, -2.71922l 0.437572, -2.94715l 0.437572, -3.18281l 0.437572, -3.42493l 0.437572, -3.67203l
 0.437572, -3.92241l 0.437572, -4.17416l 0.437572, -4.42518l 0.437572, -4.67315l 0.437572, -4.91559l 0.437572, -5.14986l 0.437572, -5.37319l 0.437572, -5.5827l 0.437572, -5.77544l 0.437572, -5.94847l 0.437572, -6.0988l 0.437572, -6.22354l 0.437572,
 -6.3199l 0.437572, -6.38521l 0.437572, -6.41705l 0.437572, -6.41319l 0.437572, -6.37174l 0.437572, -6.29112l 0.437572, -6.17013l 0.437572, -6.008l 0.437572, -5.80438l 0.437572, -5.55941l 0.437572, -5.27369l 0.437572, -4.94833l 0.437572, -4.58491l
 0.437572, -4.18553l 0.437572, -3.75274l 0.437572, -3.28951l 0.437572, -2.79926l 0.437572, -2.28576l 0.437572, -1.7531l 0.437572, -1.20565l 0.437572, -0.647967l 0.437572, -0.0847714l 0.437572, 0.479146l 0.437572, 1.03898l 0.437572, 1.59l 0.437572,
 2.12757" fill="none" stroke="#ff0000" stroke-width="2"/>
<path d="M363.931,152.511l 0.437572, 2.64727l 0.437572, 3.14492l 0.437572, 3.61663l 0.437572, 4.05891l 0.437572, 4.46861l 0.437572, 4.84307l 0.437572, 5.18005l 0.437572, 5.47782l 0.437572, 5.73512l 0.437572, 5.9512l 0.437572, 6.12577l 0.437572,
 6.25906l 0.437572, 6.3517l 0.437572, 6.40477l 0.437572, 6.41973l 0.437572, 6.3984l 0.437572, 6.34289l 0.437572, 6.25559l 0.437572, 6.13909l 0.437572, 5.99614l 0.437572, 5.82963l 0.437572, 5.64249l 0.437572, 5.43771l 0.437572, 5.21823l 0.437572,
 4.98695l 0.437572, 4.74668l 0.437572, 4.5001l 0.437572, 4.24975l 0.437572, 3.99798l 0.437572, 3.74698l 0.437572, 3.4987l 0.437572, 3.25492l 0.437572, 3.01718l 0.437572, 2.78681l 0.437572, 2.56492l 0.437572, 2.35244l 0.437572, 2.15009l 0.437572,
 1.95838l 0.437572, 1.77769l 0.437572, 1.60821l 0.437572, 1.45l 0.437572, 1.303l 0.437572, 1.16701l 0.437572, 1.04178l 0.437572, 0.926944l 0.437572, 0.822077l 0.437572, 0.726712l 0.437572, 0.640337l 0.437572, 0.562418" fill="none" stroke="#ff0000"
 stroke-width="2"/>
<path d="M385.372,342.294l 0.437572, 0.492401" fill="none" stroke="#ff0000" stroke-width="2"/>
<text xml:space="preserve" x="250.664" y="18.681" fill="black" font-size="17.9813" font-family="Helvetica">Am_007</text></svg>
