<?xml version="1.0" standalone="no"?>
<svg width="567.429" height="384.68" viewBox="0 0 567.429 384.68" xmlns="http://www.w3.org/2000/svg" shape-rendering="crispEdges">
<title>
img/week1/low_gain_clb/Cs_006.svg
</title>
<desc>
Creator: ROOT Version 6.22/09
CreationDate: Thu Jul  8 21:07:02 2021</desc>
<defs>
</defs>
<rect x="0.5" y="0" width="566.929" height="384.18" fill="white"/>
<rect x="57.1929" y="38.418" width="453.543" height="307.344" fill="white"/>
<rect x="57.1929" y="38.418" width="453.543" height="307.344" fill="none" stroke="black"/>
<path d="M57.1929,345.762h 33.3395v -0.465355h 0.629048v -2.32678h 0.629048v -8.84175h 0.629048v 6.04962h 0.629048v -1.39607h 0.629048v 0.93071h 1.2581v -0.465355h 0.629048v -3.25749h 0.629048v 4.1882h 0.629048v -0.93071h 0.629048v 3.25749h 0.629048v
 -4.65355h 0.629048v 4.65355h 0.629048v -2.79213h 0.629048v 3.25749h 0.629048v -2.79213h 0.629048v 0.93071h 0.629048v -2.79213h 0.629048v -1.86142h 0.629048v 3.25749h 0.629048v 0.93071h 0.629048v 0.465355h 0.629048v 1.86142h 0.629048v -4.65355h
 0.629048v 1.86142h 0.629048v 0.465355h 0.629048v -3.72284h 0.629048v 2.79213h 0.629048v 0.465355h 0.629048v 0.465355h 0.629048v 1.86142h 0.629048v -1.39607h 0.629048v -0.465355h 1.2581v -2.32678h 0.629048v 0.93071h 1.2581v -0.465355h 0.629048v
 2.79213h 0.629048v -2.79213h 0.629048v 0.93071h 0.629048v 2.79213h 0.629048v -0.465355h 0.629048v -1.39607h 0.629048v -0.465355h 0.629048v 0.465355h 1.2581v -0.465355h 0.629048v 3.72284h 0.629048v -0.93071h 0.629048v -3.72284h 0.629048v 2.79213h
 0.629048v -0.93071h 0.629048v -1.86142h 0.629048v 1.86142h 1.2581v -1.86142h 0.629048v 1.86142h 0.629048v 1.86142h 0.629048v -1.86142h 0.629048v 0.465355h 1.2581v -0.465355h 0.629048v -2.32678h 0.629048v 3.25749h 0.629048v -0.93071h 0.629048v
 -1.39607h 0.629048v 3.25749h 0.629048v -3.25749h 0.629048v 0.93071h 1.2581v -2.32678h 0.629048v 1.39607h 0.629048v -1.86142h 0.629048v 0.93071h 0.629048v 3.25749h 0.629048v -3.72284h 0.629048v 3.72284h 0.629048v -2.32678h 0.629048v -0.93071h
 0.629048v 3.72284h 0.629048v -0.465355h 0.629048v -3.25749h 0.629048v -1.86142h 0.629048v 6.51497h 0.629048v -0.465355h 1.2581v -1.39607h 0.629048v -2.79213h 0.629048v 3.25749h 0.629048v 0.465355h 0.629048v -2.32678h 0.629048v 0.465355h 1.2581v
 0.465355h 0.629048v 0.465355h 1.2581v -4.1882h 0.629048v 1.39607h 1.2581v 4.65355h 0.629048v -2.32678h 0.629048v -1.86142h 0.629048v 2.79213h 1.88714v -4.65355h 1.2581v -1.39607h 0.629048v 4.1882h 0.629048v -2.79213h 0.629048v -0.93071h 0.629048v
 -1.86142h 0.629048v 6.04962h 0.629048v -1.86142h 0.629048v -0.465355h 0.629048v -4.65355h 0.629048v 3.25749h 0.629048v 0.93071h 0.629048v 0.465355h 0.629048v -2.32678h 0.629048v 1.39607h 0.629048v 0.93071h 0.629048v 0.93071h 0.629048v -1.39607h
 0.629048v -1.39607h 0.629048v -3.25749h 0.629048v 4.65355h 0.629048v -0.465355h 0.629048v -1.86142h 1.2581v 1.39607h 0.629048v 0.93071h 0.629048v 1.39607h 0.629048v -2.79213h 0.629048v 2.79213h 0.629048v 1.86142h 0.629048v -2.79213h 0.629048v
 2.79213h 0.629048v 1.86142h 0.629048v -4.65355h 0.629048v 3.25749h 0.629048v -1.39607h 1.2581v 2.32678h 0.629048v -3.72284h 0.629048v 2.32678h 0.629048v -0.93071h 0.629048v 0.465355h 0.629048v -0.465355h 0.629048v 1.86142h 0.629048v 0.93071h
 0.629048v -3.25749h 0.629048v 2.32678h 0.629048v 0.465355h 0.629048v -1.86142h 0.629048v -0.93071h 0.629048v -1.39607h 0.629048v 2.79213h 0.629048v -0.465355h 0.629048v 3.72284h 0.629048v -3.72284h 0.629048v -3.72284h 0.629048v 4.65355h 0.629048v
 0.465355h 0.629048v -1.86142h 0.629048v -0.465355h 0.629048v 0.93071h 0.629048v -0.93071h 0.629048v 0.93071h 0.629048v -3.72284h 0.629048v 0.465355h 0.629048v 3.25749h 0.629048v -4.1882h 0.629048v 5.11891h 0.629048v -4.65355h 0.629048v 0.465355h
 0.629048v -0.465355h 0.629048v -0.93071h 0.629048v -3.25749h 0.629048v 0.465355h 0.629048v 2.32678h 0.629048v -7.91104h 0.629048v 5.58426h 0.629048v -9.77246h 0.629048v 2.79213h 0.629048v -2.32678h 0.629048v 6.98033h 0.629048v -7.91104h 0.629048v
 -0.93071h 0.629048v -2.79213h 0.629048v -3.25749h 0.629048v 3.25749h 0.629048v -1.39607h 0.629048v -4.65355h 0.629048v 7.91104h 1.2581v -1.86142h 0.629048v -7.91104h 0.629048v -0.93071h 0.629048v -0.93071h 0.629048v 15.3567h 0.629048v -4.1882h
 0.629048v 0.465355h 0.629048v -2.32678h 0.629048v -1.86142h 0.629048v 8.84175h 0.629048v -11.1685h 0.629048v 16.2874h 0.629048v -7.91104h 0.629048v 8.84175h 0.629048v 2.79213h 0.629048v -3.72284h 0.629048v -3.25749h 0.629048v 4.1882h 0.629048v
 6.04962h 0.629048v -4.65355h 0.629048v 0.93071h 1.2581v 4.1882h 0.629048v 2.32678h 0.629048v -3.72284h 0.629048v 6.04962h 0.629048v -2.32678h 0.629048v -2.32678h 1.2581v -4.1882h 0.629048v 1.39607h 0.629048v 3.25749h 0.629048v -1.86142h 0.629048v
 0.93071h 0.629048v 0.465355h 0.629048v 1.39607h 0.629048v 1.86142h 0.629048v -2.79213h 0.629048v -1.39607h 0.629048v 3.72284h 0.629048v -2.79213h 0.629048v 2.79213h 0.629048v -0.93071h 0.629048v -0.93071h 0.629048v 0.93071h 0.629048v 2.32678h
 0.629048v -1.39607h 0.629048v -0.93071h 0.629048v -1.39607h 0.629048v 1.86142h 0.629048v 4.1882h 0.629048v -1.86142h 0.629048v -1.39607h 0.629048v 2.79213h 0.629048v -1.39607h 0.629048v -1.39607h 0.629048v 0.93071h 0.629048v -1.39607h 0.629048v
 2.32678h 0.629048v -1.39607h 0.629048v 0.465355h 0.629048v 2.32678h 0.629048v -1.86142h 0.629048v 0.93071h 0.629048v -0.93071h 1.2581v -0.465355h 0.629048v 1.39607h 1.2581v 1.39607h 0.629048v -3.72284h 0.629048v 1.39607h 0.629048v 0.465355h
 0.629048v 0.93071h 0.629048v 0.465355h 0.629048v -0.465355h 0.629048v -1.39607h 0.629048v 0.93071h 0.629048v 1.86142h 0.629048v -1.39607h 0.629048v 0.465355h 0.629048v -0.465355h 1.2581v -2.79213h 0.629048v 1.86142h 0.629048v -1.86142h 0.629048v
 2.32678h 0.629048v 0.465355h 0.629048v -0.465355h 1.2581v -0.93071h 0.629048v 0.93071h 1.2581v 0.465355h 0.629048v 0.465355h 1.2581v -1.86142h 0.629048v -0.93071h 0.629048v 2.79213h 0.629048v -1.86142h 0.629048v 1.39607h 0.629048v 0.93071h 0.629048v
 -0.465355h 0.629048v -2.79213h 0.629048v 0.93071h 0.629048v 1.86142h 0.629048v -1.86142h 1.2581v 1.86142h 0.629048v -1.39607h 0.629048v 1.86142h 0.629048v -2.32678h 0.629048v -0.465355h 0.629048v 0.93071h 0.629048v 1.39607h 0.629048v -0.93071h
 0.629048v -0.465355h 0.629048v 0.465355h 0.629048v 0.465355h 0.629048v 0.465355h 0.629048v -1.86142h 0.629048v 0.465355h 0.629048v 0.465355h 0.629048v 1.39607h 0.629048v -0.93071h 1.88714v -1.39607h 0.629048v 0.93071h 0.629048v -3.25749h 0.629048v
 3.25749h 0.629048v -0.465355h 0.629048v 0.465355h 1.2581v -0.465355h 0.629048v 0.465355h 0.629048v -0.93071h 0.629048v -0.465355h 0.629048v 2.32678h 0.629048v -1.86142h 0.629048v 1.86142h 0.629048v -1.86142h 0.629048v 1.39607h 0.629048v 0.465355h
 0.629048v -0.93071h 0.629048v 0.465355h 1.2581v 0.465355h 0.629048v -0.93071h 0.629048v 0.93071h 0.629048v -0.465355h 1.2581v -0.93071h 1.2581v 2.32678h 0.629048v -1.39607h 0.629048v -1.86142h 0.629048v 1.39607h 0.629048v 0.465355h 0.629048v
 -0.465355h 0.629048v 0.93071h 0.629048v -0.93071h 0.629048v 0.465355h 1.2581v -1.39607h 0.629048v 1.39607h 0.629048v -0.465355h 0.629048v 1.39607h 0.629048v -2.32678h 1.2581v 0.93071h 0.629048v 1.39607h 0.629048v -0.465355h 0.629048v -0.465355h
 0.629048v -0.93071h 0.629048v 0.465355h 1.2581v 1.39607h 0.629048v -0.465355h 0.629048v -1.39607h 0.629048v 0.93071h 0.629048v 0.465355h 0.629048v -2.79213h 0.629048v 1.86142h 0.629048v 0.465355h 0.629048v -1.39607h 0.629048v 1.39607h 1.88714v
 -0.465355h 0.629048v 0.93071h 0.629048v -0.465355h 0.629048v -0.93071h 0.629048v -0.465355h 0.629048v 1.39607h 0.629048v -0.93071h 0.629048v 1.86142h 0.629048v -0.93071h 1.2581v -0.465355h 1.2581v -0.465355h 0.629048v 1.86142h 0.629048v -1.39607h
 1.2581v 0.465355h 0.629048v -0.465355h 0.629048v 0.93071h 0.629048v -1.39607h 0.629048v -0.93071h 0.629048v 1.86142h 0.629048v -1.39607h 0.629048v 1.39607h 0.629048v -0.465355h 0.629048v -1.39607h 0.629048v 0.93071h 0.629048v 2.32678h 0.629048v
 -2.32678h 0.629048v 1.86142h 0.629048v -1.86142h 0.629048v -0.465355h 0.629048v 1.39607h 0.629048v -1.86142h 0.629048v 1.86142h 0.629048v -2.32678h 0.629048v 3.25749h 0.629048v -0.93071h 0.629048v -0.93071h 0.629048v -0.465355h 1.2581v 1.39607h
 0.629048v -0.93071h 1.2581v 0.93071h 0.629048v -1.39607h 0.629048v 2.32678h 0.629048v -1.86142h 0.629048v 1.39607h 0.629048v -0.93071h 0.629048v 0.465355h 1.2581v -0.465355h 0.629048v 0.93071h 0.629048v -1.39607h 0.629048v 0.465355h 0.629048v
 0.465355h 3.77429v 0.465355h 0.629048v 0.93071h 0.629048v -0.93071h 0.629048v 0.93071h 0.629048v -0.93071h 0.629048v -0.465355h 0.629048v 0.465355h 0.629048v 0.93071h 0.629048v -1.86142h 0.629048v 0.93071h 0.629048v -0.465355h 0.629048v -0.465355h
 0.629048v 0.93071h 0.629048v 0.465355h 0.629048v -0.93071h 1.2581v -1.39607h 0.629048v 0.93071h 1.2581v -0.465355h 0.629048v 0.465355h 0.629048v 0.465355h 0.629048v 0.465355h 0.629048v -1.39607h 1.2581v -0.93071h 0.629048v 1.86142h 0.629048v
 -0.465355h 0.629048v -0.93071h 0.629048v 1.86142h 1.2581v -0.465355h 0.629048v -1.39607h 0.629048v 0.465355h 1.2581v 0.465355h 0.629048v 0.93071h 0.629048v -1.86142h 0.629048v 0.93071h 0.629048v 0.93071h 0.629048v -0.93071h 0.629048v 0.465355h
 0.629048v -0.465355h 0.629048v -0.93071h 0.629048v 1.86142h 0.629048v -0.93071h 0.629048v 0.93071h 0.629048v -0.465355h 0.629048v 0.465355h 0.629048v 0.465355h 0.629048v -1.86142h 0.629048v 1.39607h 0.629048v -0.93071h 0.629048v -0.465355h 0.629048v
 0.465355h 1.2581v 0.465355h 1.2581v -0.465355h 1.2581v 0.465355h 0.629048v -0.93071h 1.2581v 0.465355h 1.2581v -0.465355h 0.629048v 1.86142h 0.629048v -0.93071h 1.88714v -0.93071h 0.629048v 1.86142h 0.629048v -1.86142h 0.629048v 0.93071h 0.629048v
 -1.39607h 0.629048v 1.39607h 0.629048v 1.39607h 0.629048v -1.39607h 0.629048v -0.465355h 1.2581v 0.465355h 0.629048v -0.93071h 0.629048v 1.39607h 0.629048v -3.25749h 0.629048v 0.93071h 0.629048v 1.86142h 0.629048v -0.465355h 0.629048v 0.93071h
 1.2581v 0.465355h 0.629048v -1.86142h 1.2581v 1.86142h 0.629048v -1.86142h 0.629048v 1.39607h 0.629048v -0.93071h 0.629048v -0.93071h 0.629048v 1.39607h 0.629048v 0.465355h 0.629048v -1.86142h 0.629048v 1.39607h 1.2581v 0.465355h 1.2581v -0.93071h
 0.629048v -0.465355h 0.629048v 1.86142h 0.629048v -0.93071h 1.2581v 0.93071h 0.629048v -1.39607h 0.629048v 0.93071h 0.629048v -0.465355h 0.629048v -0.465355h 0.629048v -0.93071h 0.629048v 0.93071h 1.2581v 0.93071h 1.2581v -0.93071h 0.629048v
 -1.39607h 0.629048v 2.32678h 0.629048v -0.465355h 0.629048v -1.39607h 0.629048v 1.86142h 0.629048v 0.465355h 0.629048v -1.39607h 1.2581v 0.465355h 0.629048v -0.465355h 0.629048v -0.465355h 0.629048v 2.32678h 0.629048v -0.93071h 0.629048v -0.465355h
 0.629048v -1.86142h 0.629048v 2.32678h 1.2581v -1.39607h 0.629048v 0.93071h 1.2581v -0.465355h 0.629048v 0.465355h 1.88714v 1.39607h 0.629048v -1.86142h 0.629048v 0.465355h 0.629048v -0.93071h 0.629048v 0.465355h 1.2581v 1.86142h 0.629048v -3.25749h
 0.629048v 1.39607h 0.629048v -0.465355h 0.629048v 2.32678h 0.629048v -1.86142h 0.629048v -0.465355h 0.629048v -0.465355h 0.629048v 1.39607h 0.629048v 0.93071h 0.629048v -0.465355h 0.629048v -1.39607h 0.629048v -0.465355h 0.629048v 0.465355h
 0.629048v 0.93071h 1.2581v -0.465355h 0.629048v 0.465355h 0.629048v 0.465355h 0.629048v -2.79213h 0.629048v 2.79213h 0.629048v -0.465355h 1.2581v 0.93071h 0.629048v -0.93071h 0.629048v 0.465355h 0.629048v -1.39607h 0.629048v -1.39607h 0.629048v
 -3.25749h 0.629048v -6.98033h 0.629048v -132.161h 0.629048v -146.587h 0.629048v 73.9915h 0.629048v 11.6339h 0.629048v 18.1489h 0.629048v 74.9222h 0.629048v 63.7537h 0.629048v -2.32678h 0.629048v -5.11891h 0.629048v 5.11891h 0.629048v 2.32678h
 0.629048v 12.5646h 0.629048v -10.7032h 0.629048v 4.65355h 0.629048v -1.39607h 0.629048v 13.4953h 0.629048v -4.1882h 0.629048v 1.39607h 0.629048v -6.04962h 0.629048v 9.3071h 0.629048v 5.11891h 0.629048v -7.44568h 0.629048v 1.39607h 0.629048v
 -0.465355h 0.629048v 9.77246h 0.629048v -0.93071h 0.629048v -6.51497h 0.629048v 9.77246h 0.629048v -3.25749h 0.629048v 11.6339h 0.629048v -5.58426h 0.629048v 1.39607h 0.629048v 4.1882h 0.629048v -0.465355h 0.629048v 6.51497h 0.629048v 1.86142h
 0.629048v 0.93071h 0.629048v 1.86142h 0.629048v 0.465355h 0.629048" fill="none" stroke="#000099"/>
<path d="M57.1929,345.762h 453.543" fill="none" stroke="black"/>
<path d="M57.822,336.541v 9.22031" fill="none" stroke="black"/>
<path d="M78.7902,341.152v 4.61016" fill="none" stroke="black"/>
<path d="M99.7585,341.152v 4.61016" fill="none" stroke="black"/>
<path d="M120.727,341.152v 4.61016" fill="none" stroke="black"/>
<path d="M141.695,341.152v 4.61016" fill="none" stroke="black"/>
<path d="M162.663,336.541v 9.22031" fill="none" stroke="black"/>
<path d="M183.631,341.152v 4.61016" fill="none" stroke="black"/>
<path d="M204.6,341.152v 4.61016" fill="none" stroke="black"/>
<path d="M225.568,341.152v 4.61016" fill="none" stroke="black"/>
<path d="M246.536,341.152v 4.61016" fill="none" stroke="black"/>
<path d="M267.504,336.541v 9.22031" fill="none" stroke="black"/>
<path d="M288.473,341.152v 4.61016" fill="none" stroke="black"/>
<path d="M309.441,341.152v 4.61016" fill="none" stroke="black"/>
<path d="M330.409,341.152v 4.61016" fill="none" stroke="black"/>
<path d="M351.378,341.152v 4.61016" fill="none" stroke="black"/>
<path d="M372.346,336.541v 9.22031" fill="none" stroke="black"/>
<path d="M393.314,341.152v 4.61016" fill="none" stroke="black"/>
<path d="M414.282,341.152v 4.61016" fill="none" stroke="black"/>
<path d="M435.251,341.152v 4.61016" fill="none" stroke="black"/>
<path d="M456.219,341.152v 4.61016" fill="none" stroke="black"/>
<path d="M477.187,336.541v 9.22031" fill="none" stroke="black"/>
<path d="M57.822,336.541v 9.22031" fill="none" stroke="black"/>
<path d="M477.187,336.541v 9.22031" fill="none" stroke="black"/>
<path d="M498.155,341.152v 4.61016" fill="none" stroke="black"/>
<text xml:space="preserve" x="54.1065" y="358.189" fill="black" font-size="12.836" font-family="Helvetica">0</text>
<text xml:space="preserve" x="151.573" y="358.189" fill="black" font-size="12.836" font-family="Helvetica">500</text>
<text xml:space="preserve" x="253.1" y="358.189" fill="black" font-size="12.836" font-family="Helvetica">1000</text>
<text xml:space="preserve" x="357.877" y="358.189" fill="black" font-size="12.836" font-family="Helvetica">1500</text>
<text xml:space="preserve" x="462.653" y="358.189" fill="black" font-size="12.836" font-family="Helvetica">2000</text>
<text xml:space="preserve" x="452.094" y="371.996" fill="black" font-size="12.836" font-family="Helvetica">ADC value</text>
<path d="M57.1929,345.762v -307.344" fill="none" stroke="black"/>
<path d="M70.7992,345.762h -13.6063" fill="none" stroke="black"/>
<path d="M63.9961,336.455h -6.80315" fill="none" stroke="black"/>
<path d="M63.9961,327.148h -6.80315" fill="none" stroke="black"/>
<path d="M63.9961,317.84h -6.80315" fill="none" stroke="black"/>
<path d="M63.9961,308.533h -6.80315" fill="none" stroke="black"/>
<path d="M70.7992,299.226h -13.6063" fill="none" stroke="black"/>
<path d="M63.9961,289.919h -6.80315" fill="none" stroke="black"/>
<path d="M63.9961,280.612h -6.80315" fill="none" stroke="black"/>
<path d="M63.9961,271.305h -6.80315" fill="none" stroke="black"/>
<path d="M63.9961,261.998h -6.80315" fill="none" stroke="black"/>
<path d="M70.7992,252.691h -13.6063" fill="none" stroke="black"/>
<path d="M63.9961,243.384h -6.80315" fill="none" stroke="black"/>
<path d="M63.9961,234.077h -6.80315" fill="none" stroke="black"/>
<path d="M63.9961,224.769h -6.80315" fill="none" stroke="black"/>
<path d="M63.9961,215.462h -6.80315" fill="none" stroke="black"/>
<path d="M70.7992,206.155h -13.6063" fill="none" stroke="black"/>
<path d="M63.9961,196.848h -6.80315" fill="none" stroke="black"/>
<path d="M63.9961,187.541h -6.80315" fill="none" stroke="black"/>
<path d="M63.9961,178.234h -6.80315" fill="none" stroke="black"/>
<path d="M63.9961,168.927h -6.80315" fill="none" stroke="black"/>
<path d="M70.7992,159.62h -13.6063" fill="none" stroke="black"/>
<path d="M63.9961,150.313h -6.80315" fill="none" stroke="black"/>
<path d="M63.9961,141.006h -6.80315" fill="none" stroke="black"/>
<path d="M63.9961,131.698h -6.80315" fill="none" stroke="black"/>
<path d="M63.9961,122.391h -6.80315" fill="none" stroke="black"/>
<path d="M70.7992,113.084h -13.6063" fill="none" stroke="black"/>
<path d="M63.9961,103.777h -6.80315" fill="none" stroke="black"/>
<path d="M63.9961,94.47h -6.80315" fill="none" stroke="black"/>
<path d="M63.9961,85.1629h -6.80315" fill="none" stroke="black"/>
<path d="M63.9961,75.8558h -6.80315" fill="none" stroke="black"/>
<path d="M70.7992,66.5487h -13.6063" fill="none" stroke="black"/>
<path d="M70.7992,66.5487h -13.6063" fill="none" stroke="black"/>
<path d="M63.9961,57.2416h -6.80315" fill="none" stroke="black"/>
<path d="M63.9961,47.9345h -6.80315" fill="none" stroke="black"/>
<path d="M63.9961,38.6274h -6.80315" fill="none" stroke="black"/>
<text xml:space="preserve" x="47.6087" y="350.067" fill="black" font-size="12.836" font-family="Helvetica">0</text>
<text xml:space="preserve" x="33.801" y="303.77" fill="black" font-size="12.836" font-family="Helvetica">100</text>
<text xml:space="preserve" x="33.801" y="257.474" fill="black" font-size="12.836" font-family="Helvetica">200</text>
<text xml:space="preserve" x="33.801" y="210.365" fill="black" font-size="12.836" font-family="Helvetica">300</text>
<text xml:space="preserve" x="33.801" y="164.068" fill="black" font-size="12.836" font-family="Helvetica">400</text>
<text xml:space="preserve" x="33.801" y="117.772" fill="black" font-size="12.836" font-family="Helvetica">500</text>
<text xml:space="preserve" x="33.801" y="70.6631" fill="black" font-size="12.836" font-family="Helvetica">600</text>
<g transform="rotate(-90,20.8055,69.8509)">
<text xml:space="preserve" x="20.8055" y="69.8509" fill="black" font-size="12.836" font-family="Helvetica">Event</text>
</g>
<text xml:space="preserve" x="253.1" y="18.681" fill="black" font-size="17.9813" font-family="Helvetica">Cs_006</text>
<rect x="442.705" y="24.9717" width="113.386" height="61.4688" fill="white"/>
<path d="M442.705,86.4405h 113.386" fill="none" stroke="black"/>
<path d="M556.091,86.4405v -61.4688" fill="none" stroke="black"/>
<path d="M556.091,24.9717h -113.386" fill="none" stroke="black"/>
<path d="M442.705,24.9717v 61.4688" fill="none" stroke="black"/>
<text xml:space="preserve" x="476.461" y="36.5499" fill="black" font-size="13.4705" font-family="Helvetica">Cs_006</text>
<path d="M442.705,40.3389h 113.386" fill="none" stroke="black"/>
<text xml:space="preserve" x="448.033" y="52.7943" fill="black" font-size="12.7411" font-family="Helvetica">Entries </text>
<text xml:space="preserve" x="513.01" y="52.7943" fill="black" font-size="12.7411" font-family="Helvetica"> 10524</text>
<text xml:space="preserve" x="448.033" y="68.2264" fill="black" font-size="12.7411" font-family="Helvetica">Mean  </text>
<text xml:space="preserve" x="513.01" y="68.2264" fill="black" font-size="12.7411" font-family="Helvetica">   1355</text>
<text xml:space="preserve" x="448.033" y="82.8464" fill="black" font-size="12.7411" font-family="Helvetica">Std Dev   </text>
<text xml:space="preserve" x="513.01" y="82.8464" fill="black" font-size="12.7411" font-family="Helvetica">  707.3</text>
<path d="M204.705,334.378l 0.209683, -0.424087l 0.209683, -0.431006l 0.209683, -0.43754l 0.209683, -0.443663l 0.209683, -0.449345l 0.209683, -0.454558l 0.209683, -0.459276l 0.209683, -0.463472l 0.209683, -0.467119l 0.209683, -0.470192l 0.209683,
 -0.472667l 0.209683, -0.474519l 0.209683, -0.475727l 0.209683, -0.47627l 0.209683, -0.476127l 0.209683, -0.475281l 0.209683, -0.473714l 0.209683, -0.471412l 0.209683, -0.468362l 0.209683, -0.464552l 0.209683, -0.459972l 0.209683, -0.454616l
 0.209683, -0.448477l 0.209683, -0.441554l 0.209683, -0.433845l 0.209683, -0.425351l 0.209683, -0.416077l 0.209683, -0.406028l 0.209683, -0.395212l 0.209683, -0.383642l 0.209683, -0.37133l 0.209683, -0.358291l 0.209683, -0.344544l 0.209683,
 -0.330109l 0.209683, -0.315009l 0.209683, -0.299268l 0.209683, -0.282914l 0.209683, -0.265975l 0.209683, -0.248482l 0.209683, -0.23047l 0.209683, -0.211972l 0.209683, -0.193024l 0.209683, -0.173666l 0.209683, -0.153937l 0.209683, -0.133877l
 0.209683, -0.113529l 0.209683, -0.0929356l 0.209683, -0.0721411l 0.209683, -0.05119" fill="none" stroke="#ff0000" stroke-width="2"/>
<path d="M214.979,316.642l 0.209683, -0.0301278l 0.209683, -0.00900008l 0.209683, 0.0121472l 0.209683, 0.0332681l 0.209683, 0.0543167l 0.209683, 0.0752473l 0.209683, 0.0960146l 0.209683, 0.116574l 0.209683, 0.136882l 0.209683, 0.156895l 0.209683,
 0.176572l 0.209683, 0.195872l 0.209683, 0.214754l 0.209683, 0.233182l 0.209683, 0.25112l 0.209683, 0.268532l 0.209683, 0.285386l 0.209683, 0.301651l 0.209683, 0.317298l 0.209683, 0.332301l 0.209683, 0.346635l 0.209683, 0.360277l 0.209683, 0.373209l
 0.209683, 0.385412l 0.209683, 0.39687l 0.209683, 0.407572l 0.209683, 0.417506l 0.209683, 0.426665l 0.209683, 0.435042l 0.209683, 0.442634l 0.209683, 0.449441l 0.209683, 0.455462l 0.209683, 0.460703l 0.209683, 0.465167l 0.209683, 0.468864l 0.209683,
 0.471802l 0.209683, 0.473994l 0.209683, 0.475452l 0.209683, 0.476193l 0.209683, 0.476232l 0.209683, 0.475589l 0.209683, 0.474284l 0.209683, 0.472337l 0.209683, 0.469772l 0.209683, 0.466612l 0.209683, 0.462882l 0.209683, 0.458607l 0.209683, 0.453813l
 0.209683, 0.448528" fill="none" stroke="#ff0000" stroke-width="2"/>
<path d="M225.253,332.708l 0.209683, 0.442779" fill="none" stroke="#ff0000" stroke-width="2"/>
<text xml:space="preserve" x="253.1" y="18.681" fill="black" font-size="17.9813" font-family="Helvetica">Cs_006</text></svg>
