<?xml version="1.0" standalone="no"?>
<svg width="567.429" height="384.969" viewBox="0 0 567.429 384.969" xmlns="http://www.w3.org/2000/svg" shape-rendering="crispEdges">
<title>
img/week1/low_gain_clb/Cs_006_withpara.svg
</title>
<desc>
Creator: ROOT Version 6.22/09
CreationDate: Tue Jul 13 19:32:07 2021</desc>
<defs>
</defs>
<rect x="0.5" y="0" width="566.929" height="384.469" fill="white"/>
<rect x="57.1929" y="38.4469" width="453.543" height="307.575" fill="white"/>
<rect x="57.1929" y="38.4469" width="453.543" height="307.575" fill="none" stroke="black"/>
<rect x="57.1929" y="38.4469" width="453.543" height="307.575" fill="white"/>
<rect x="57.1929" y="38.4469" width="453.543" height="307.575" fill="none" stroke="black"/>
<path d="M57.1929,346.022h 34.0157v -5.60629h 0.629921v -3.73753h 0.629921v 0.467191h 0.629921v 4.20472h 0.629921v -0.934382h 0.629921v -1.86876h 0.629921v -0.467191h 0.629921v 2.33596h 0.629921v -2.80315h 0.629921v 3.27034h 0.629921v -0.467191h
 0.629921v -0.467191h 0.629921v 1.40157h 0.629921v -0.467191h 0.629921v 1.86876h 0.629921v -3.27034h 0.629921v 2.80315h 0.629921v -3.73753h 0.629921v 0.934382h 0.629921v -0.934382h 0.629921v 0.934382h 0.629921v 3.73753h 0.629921v -4.20472h 0.629921v
 1.40157h 0.629921v -1.40157h 0.629921v 1.86876h 0.629921v -2.33596h 0.629921v 0.467191h 0.629921v 3.73753h 0.629921v -2.33596h 0.629921v 0.934382h 0.629921v 0.467191h 0.629921v -1.40157h 0.629921v -0.467191h 0.629921v -2.33596h 0.629921v 4.20472h
 0.629921v -2.33596h 0.629921v -1.40157h 0.629921v 3.27034h 0.629921v -2.80315h 0.629921v 3.27034h 0.629921v 0.934382h 0.629921v -0.467191h 0.629921v -1.40157h 0.629921v -0.934382h 0.629921v -0.467191h 0.629921v 2.80315h 0.629921v -1.86876h 0.629921v
 3.27034h 0.629921v -1.40157h 0.629921v -1.40157h 0.629921v 0.934382h 0.629921v -0.934382h 0.629921v -1.86876h 0.629921v 3.27034h 0.629921v -1.86876h 1.25984v 0.467191h 0.629921v 0.934382h 0.629921v 0.467191h 1.25984v -0.467191h 0.629921v -1.86876h
 0.629921v 0.934382h 0.629921v 0.934382h 0.629921v -2.33596h 0.629921v 1.86876h 0.629921v -0.934382h 0.629921v 1.86876h 1.25984v -0.467191h 0.629921v -3.73753h 0.629921v 0.934382h 0.629921v -2.33596h 0.629921v 4.20472h 0.629921v -0.934382h 0.629921v
 -0.467191h 0.629921v 3.73753h 0.629921v -4.67191h 0.629921v 1.40157h 0.629921v 3.27034h 0.629921v -1.86876h 0.629921v -0.934382h 0.629921v -2.80315h 0.629921v 3.73753h 0.629921v 2.80315h 0.629921v -0.934382h 0.629921v -2.80315h 0.629921v 1.86876h
 0.629921v -2.80315h 0.629921v 3.27034h 1.25984v -3.27034h 0.629921v -1.40157h 0.629921v 3.73753h 0.629921v 1.86876h 0.629921v -2.80315h 0.629921v -2.80315h 0.629921v 0.467191h 0.629921v 2.33596h 0.629921v 1.86876h 0.629921v -2.33596h 0.629921v
 -1.40157h 0.629921v 3.27034h 1.88976v -3.73753h 0.629921v 0.467191h 0.629921v -1.86876h 0.629921v -0.934382h 0.629921v 4.20472h 0.629921v -7.00787h 0.629921v 5.60629h 1.88976v -1.86876h 0.629921v -3.73753h 0.629921v 3.73753h 0.629921v 3.27034h
 0.629921v -6.07349h 0.629921v 4.20472h 0.629921v -0.934382h 0.629921v -0.467191h 0.629921v 2.33596h 0.629921v -0.467191h 0.629921v -4.20472h 0.629921v -3.27034h 0.629921v 7.47506h 1.25984v -3.27034h 0.629921v -0.467191h 0.629921v -0.467191h
 0.629921v 6.07349h 0.629921v -3.73753h 0.629921v -0.934382h 0.629921v 6.54068h 0.629921v -4.20472h 0.629921v 2.80315h 0.629921v -1.86876h 0.629921v 2.80315h 0.629921v -3.27034h 0.629921v 3.73753h 0.629921v -1.86876h 0.629921v -0.934382h 0.629921v
 0.934382h 0.629921v 2.33596h 0.629921v -4.67191h 0.629921v 1.40157h 1.25984v 2.33596h 0.629921v 0.467191h 0.629921v -2.80315h 0.629921v 2.33596h 0.629921v -1.40157h 0.629921v 2.33596h 0.629921v -1.40157h 0.629921v -0.934382h 0.629921v -2.33596h
 0.629921v 1.40157h 0.629921v 1.86876h 0.629921v 2.33596h 0.629921v -6.07349h 0.629921v 2.33596h 1.25984v 2.33596h 0.629921v -4.20472h 0.629921v 2.33596h 0.629921v -0.934382h 0.629921v 0.467191h 0.629921v 0.934382h 0.629921v -3.73753h 0.629921v
 0.467191h 0.629921v 1.40157h 0.629921v -1.40157h 0.629921v 1.86876h 0.629921v -0.467191h 0.629921v -3.27034h 0.629921v -0.934382h 0.629921v 0.467191h 0.629921v 1.40157h 0.629921v -4.20472h 0.629921v -1.86876h 0.629921v 2.80315h 0.629921v -6.07349h
 0.629921v -0.467191h 0.629921v -5.1391h 0.629921v 4.67191h 0.629921v 6.07349h 0.629921v -12.147h 1.25984v -6.54068h 0.629921v 7.47506h 0.629921v -2.80315h 0.629921v -1.86876h 0.629921v -3.73753h 0.629921v 7.94225h 0.629921v 1.86876h 0.629921v
 -7.00787h 0.629921v -3.27034h 0.629921v -2.80315h 0.629921v -0.467191h 0.629921v 17.2861h 0.629921v -9.81102h 0.629921v 2.33596h 0.629921v 1.86876h 0.629921v -3.27034h 0.629921v 8.40944h 0.629921v -6.54068h 0.629921v 1.86876h 0.629921v 7.47506h
 0.629921v 5.1391h 0.629921v -4.20472h 0.629921v -3.27034h 0.629921v 4.67191h 0.629921v 2.80315h 0.629921v 0.934382h 0.629921v -0.934382h 1.25984v 0.467191h 0.629921v 3.73753h 0.629921v 3.27034h 0.629921v -1.40157h 1.25984v -0.467191h 0.629921v
 -1.40157h 1.25984v -2.80315h 0.629921v 0.467191h 0.629921v 2.33596h 0.629921v -1.40157h 0.629921v -0.467191h 0.629921v 2.80315h 0.629921v 0.467191h 0.629921v 0.934382h 0.629921v -1.40157h 0.629921v -0.467191h 1.25984v 0.934382h 0.629921v 1.40157h
 1.88976v -2.33596h 0.629921v 2.80315h 1.25984v -3.73753h 0.629921v 1.86876h 0.629921v 1.40157h 0.629921v 4.20472h 0.629921v -3.73753h 0.629921v 1.40157h 0.629921v 0.934382h 1.25984v -2.80315h 0.629921v 0.934382h 0.629921v -1.86876h 0.629921v
 2.80315h 0.629921v -0.467191h 0.629921v 1.40157h 0.629921v 0.467191h 0.629921v -0.934382h 0.629921v -0.467191h 1.25984v -0.467191h 0.629921v 0.467191h 0.629921v 0.467191h 0.629921v 1.86876h 0.629921v -2.80315h 0.629921v 0.934382h 0.629921v
 -0.467191h 0.629921v 1.86876h 0.629921v -2.33596h 0.629921v 2.80315h 0.629921v -0.934382h 0.629921v -1.40157h 0.629921v 1.86876h 0.629921v 0.467191h 0.629921v -0.467191h 0.629921v -0.467191h 1.25984v -0.467191h 0.629921v -1.86876h 0.629921v
 0.467191h 0.629921v 0.467191h 0.629921v 0.467191h 0.629921v 0.934382h 0.629921v 0.467191h 0.629921v -2.33596h 0.629921v 0.934382h 0.629921v 0.934382h 0.629921v -1.40157h 0.629921v 2.33596h 0.629921v -0.934382h 0.629921v -0.934382h 0.629921v
 -0.934382h 0.629921v 1.40157h 0.629921v 0.467191h 1.25984v -0.467191h 0.629921v 1.40157h 0.629921v -1.40157h 0.629921v -2.80315h 0.629921v 3.27034h 1.25984v -1.86876h 0.629921v 1.86876h 1.25984v -0.467191h 0.629921v -0.467191h 0.629921v 0.467191h
 0.629921v -0.934382h 1.25984v 1.40157h 0.629921v 0.467191h 0.629921v -1.40157h 0.629921v 0.934382h 0.629921v -0.467191h 1.25984v -0.467191h 0.629921v 0.934382h 0.629921v -0.467191h 0.629921v 0.467191h 0.629921v 0.934382h 0.629921v -1.86876h
 0.629921v 0.467191h 0.629921v 0.467191h 0.629921v -0.934382h 0.629921v -1.86876h 0.629921v 1.40157h 1.25984v 0.934382h 0.629921v 0.467191h 0.629921v -1.86876h 0.629921v 0.467191h 0.629921v -0.467191h 0.629921v 2.33596h 0.629921v -0.934382h 1.25984v
 1.40157h 0.629921v -3.73753h 0.629921v 3.27034h 0.629921v 0.467191h 1.25984v -2.33596h 0.629921v 1.86876h 0.629921v -0.934382h 0.629921v 0.467191h 0.629921v -0.467191h 0.629921v 0.467191h 0.629921v 0.467191h 0.629921v -1.86876h 0.629921v 1.40157h
 0.629921v 0.934382h 0.629921v -2.33596h 0.629921v 0.934382h 1.25984v 0.934382h 0.629921v -0.467191h 0.629921v -0.467191h 0.629921v 0.934382h 0.629921v -1.40157h 0.629921v 0.934382h 0.629921v -1.40157h 0.629921v 1.86876h 1.25984v -0.934382h 0.629921v
 -1.40157h 0.629921v 1.40157h 0.629921v 0.467191h 0.629921v 0.467191h 0.629921v 0.467191h 0.629921v -0.934382h 0.629921v -0.467191h 0.629921v -0.467191h 0.629921v 0.934382h 1.25984v 0.467191h 0.629921v -0.934382h 2.51969v -0.467191h 0.629921v
 -0.934382h 0.629921v 1.40157h 0.629921v 1.86876h 0.629921v -1.40157h 1.25984v -0.467191h 1.25984v -0.934382h 0.629921v 1.40157h 0.629921v -0.467191h 0.629921v -0.934382h 0.629921v 0.934382h 0.629921v 1.40157h 0.629921v -0.934382h 0.629921v
 -0.467191h 0.629921v -1.40157h 0.629921v 2.33596h 1.25984v -0.467191h 1.88976v -1.40157h 0.629921v 2.33596h 0.629921v -1.40157h 0.629921v -0.934382h 0.629921v -0.467191h 0.629921v 1.40157h 0.629921v -1.40157h 0.629921v 1.40157h 0.629921v 0.934382h
 0.629921v -1.40157h 0.629921v 1.40157h 0.629921v -1.86876h 0.629921v 1.40157h 0.629921v 0.467191h 0.629921v -0.467191h 0.629921v -1.86876h 0.629921v 0.467191h 0.629921v 0.934382h 0.629921v -0.934382h 0.629921v 1.40157h 1.25984v 0.467191h 0.629921v
 -1.86876h 1.25984v 0.467191h 0.629921v 0.467191h 0.629921v -1.40157h 0.629921v 0.934382h 0.629921v 0.467191h 0.629921v 0.934382h 0.629921v -0.467191h 0.629921v 0.467191h 0.629921v -0.467191h 0.629921v -0.467191h 0.629921v -0.934382h 0.629921v
 1.40157h 0.629921v -0.467191h 0.629921v 0.467191h 0.629921v 0.467191h 0.629921v -1.86876h 0.629921v 1.86876h 1.25984v -0.467191h 0.629921v -0.467191h 0.629921v 0.934382h 0.629921v -0.934382h 0.629921v 1.86876h 1.25984v -0.934382h 1.25984v -0.467191h
 0.629921v 0.467191h 0.629921v 0.467191h 1.25984v -0.934382h 0.629921v 0.934382h 0.629921v -1.40157h 1.25984v 0.467191h 0.629921v 1.40157h 0.629921v -2.33596h 0.629921v 0.467191h 0.629921v 0.467191h 0.629921v -0.467191h 0.629921v -1.40157h 0.629921v
 1.86876h 0.629921v -0.467191h 0.629921v 0.934382h 0.629921v -1.40157h 1.88976v 0.467191h 0.629921v -0.934382h 0.629921v 1.40157h 0.629921v -0.467191h 0.629921v 0.934382h 0.629921v -0.934382h 1.25984v -0.467191h 0.629921v -0.467191h 0.629921v
 0.934382h 0.629921v 0.467191h 0.629921v -0.934382h 1.25984v 0.934382h 0.629921v 0.467191h 0.629921v 0.934382h 0.629921v -3.27034h 0.629921v 0.934382h 0.629921v 1.40157h 0.629921v -0.934382h 1.25984v 0.467191h 1.25984v 0.934382h 0.629921v -0.934382h
 1.88976v -0.467191h 0.629921v 0.467191h 0.629921v -1.86876h 0.629921v 1.40157h 0.629921v 0.934382h 0.629921v -0.934382h 0.629921v 0.467191h 0.629921v -0.467191h 0.629921v -1.40157h 0.629921v 2.33596h 0.629921v -0.467191h 0.629921v -0.467191h
 0.629921v -1.86876h 0.629921v 2.80315h 1.25984v -0.934382h 0.629921v 0.934382h 0.629921v -0.934382h 0.629921v 0.467191h 1.25984v -0.467191h 0.629921v -0.934382h 0.629921v 0.934382h 0.629921v 0.934382h 1.25984v -0.934382h 0.629921v 0.467191h 1.25984v
 -0.467191h 1.25984v -1.40157h 1.25984v 1.86876h 0.629921v -0.934382h 0.629921v 1.40157h 1.25984v 0.467191h 0.629921v -1.40157h 1.25984v 0.934382h 0.629921v -0.934382h 0.629921v 0.467191h 0.629921v -0.934382h 0.629921v -0.934382h 0.629921v 2.33596h
 1.25984v -1.40157h 1.25984v 0.467191h 0.629921v 1.86876h 0.629921v -1.40157h 1.25984v -0.934382h 0.629921v 1.40157h 0.629921v 0.934382h 0.629921v -1.40157h 0.629921v 0.934382h 0.629921v -1.86876h 0.629921v 1.40157h 1.25984v -0.467191h 0.629921v
 -1.40157h 0.629921v 1.40157h 0.629921v -2.33596h 0.629921v 2.33596h 0.629921v 1.40157h 0.629921v -2.80315h 0.629921v 1.40157h 0.629921v 0.467191h 0.629921v -0.467191h 0.629921v -0.934382h 0.629921v 0.934382h 1.25984v -0.467191h 0.629921v -0.467191h
 0.629921v 1.86876h 0.629921v -1.40157h 1.25984v 0.934382h 0.629921v -0.934382h 0.629921v 0.467191h 1.88976v 0.934382h 0.629921v -2.33596h 0.629921v 1.40157h 1.25984v 0.467191h 0.629921v -0.934382h 0.629921v 0.467191h 0.629921v -0.934382h 0.629921v
 1.86876h 1.25984v -1.40157h 0.629921v -0.467191h 0.629921v 0.934382h 0.629921v -0.934382h 0.629921v 1.86876h 0.629921v -1.40157h 0.629921v -0.934382h 0.629921v 0.467191h 0.629921v 1.86876h 0.629921v -1.40157h 0.629921v 0.467191h 0.629921v -0.467191h
 0.629921v -0.934382h 0.629921v 2.80315h 0.629921v -0.934382h 0.629921v -0.934382h 0.629921v -1.40157h 0.629921v 0.934382h 0.629921v 1.40157h 0.629921v -1.40157h 0.629921v 1.40157h 0.629921v -1.40157h 0.629921v 1.86876h 0.629921v -3.73753h 0.629921v
 3.27034h 1.88976v -0.467191h 0.629921v 0.934382h 0.629921v -1.40157h 0.629921v -0.934382h 0.629921v 1.40157h 0.629921v -4.67191h 0.629921v -4.20472h 0.629921v -160.714h 0.629921v -121.937h 0.629921v 105.585h 0.629921v -39.7113h 0.629921v 16.8189h
 0.629921v 115.396h 0.629921v 48.5879h 0.629921v -4.20472h 0.629921v -9.34382h 0.629921v 10.7454h 0.629921v -1.86876h 0.629921v 11.6798h 0.629921v -7.94225h 0.629921v 4.67191h 1.25984v 8.40944h 0.629921v 1.86876h 0.629921v -2.33596h 0.629921v
 -4.20472h 0.629921v 2.80315h 0.629921v 10.2782h 0.629921v -9.34382h 1.25984v 4.20472h 0.629921v 12.147h 0.629921v -8.40944h 0.629921v -3.73753h 0.629921v 14.4829h 0.629921v -5.1391h 0.629921v 7.94225h 0.629921v -6.54068h 0.629921v 3.73753h 0.629921v
 5.1391h 0.629921v 2.33596h 0.629921v 2.33596h 0.629921v 3.73753h 0.629921v -0.467191h 0.629921v 2.80315h 1.25984" fill="none" stroke="#000099"/>
<rect x="442.705" y="24.9905" width="113.386" height="61.5151" fill="white"/>
<path d="M442.705,86.5056h 113.386" fill="none" stroke="black"/>
<path d="M556.091,86.5056v -61.5151" fill="none" stroke="black"/>
<path d="M556.091,24.9905h -113.386" fill="none" stroke="black"/>
<path d="M442.705,24.9905v 61.5151" fill="none" stroke="black"/>
<text xml:space="preserve" x="489.232" y="30.1385" fill="black" font-size="6.269" font-family="Helvetica">Cs_006</text>
<path d="M442.705,31.8255h 113.386" fill="none" stroke="black"/>
<text xml:space="preserve" x="447.69" y="37.4695" fill="black" font-size="6.269" font-family="Helvetica">Entries </text>
<text xml:space="preserve" x="532.403" y="37.4695" fill="black" font-size="6.269" font-family="Helvetica"> 10524</text>
<text xml:space="preserve" x="447.69" y="43.9859" fill="black" font-size="6.269" font-family="Helvetica">Mean  </text>
<text xml:space="preserve" x="532.403" y="43.9859" fill="black" font-size="6.269" font-family="Helvetica">   1349</text>
<text xml:space="preserve" x="447.69" y="51.3169" fill="black" font-size="6.269" font-family="Helvetica">Std Dev   </text>
<text xml:space="preserve" x="532.403" y="51.3169" fill="black" font-size="6.269" font-family="Helvetica">  706.3</text>
<text xml:space="preserve" x="453.392" y="57.8333" fill="black" font-size="6.269" font-family="Helvetica"> / ndf </text>
<text xml:space="preserve" x="450.948" y="55.3896" fill="black" font-size="4.346" font-family="Helvetica">2</text>
<text xml:space="preserve" x="447.69" y="57.8333" fill="black" font-size="6.269" font-family="Times">&#0967;</text>
<text xml:space="preserve" x="524.258" y="57.8333" fill="black" font-size="6.269" font-family="Helvetica"> 57.76 / 31</text>
<text xml:space="preserve" x="447.69" y="64.3497" fill="black" font-size="6.269" font-family="Helvetica">Prob  </text>
<text xml:space="preserve" x="525.072" y="64.3497" fill="black" font-size="6.269" font-family="Helvetica"> 0.002455</text>
<text xml:space="preserve" x="447.69" y="71.6807" fill="black" font-size="6.269" font-family="Helvetica">Const    </text>
<text xml:space="preserve" x="537.291" y="71.6807" fill="black" font-size="6.269" font-family="Helvetica"> 2.17</text>
<text xml:space="preserve" x="534.032" y="71.6807" fill="black" font-size="6.269" font-family="Times">&#0177;</text>
<text xml:space="preserve" x="516.112" y="71.6807" fill="black" font-size="6.269" font-family="Helvetica"> 61.99 </text>
<text xml:space="preserve" x="447.69" y="78.1971" fill="black" font-size="6.269" font-family="Helvetica">Mean     </text>
<text xml:space="preserve" x="540.549" y="78.1971" fill="black" font-size="6.269" font-family="Helvetica"> 1.4</text>
<text xml:space="preserve" x="537.291" y="78.1971" fill="black" font-size="6.269" font-family="Times">&#0177;</text>
<text xml:space="preserve" x="519.37" y="78.1971" fill="black" font-size="6.269" font-family="Helvetica"> 751.6 </text>
<text xml:space="preserve" x="447.69" y="85.5281" fill="black" font-size="6.269" font-family="Helvetica">Sigma    </text>
<text xml:space="preserve" x="537.291" y="85.5281" fill="black" font-size="6.269" font-family="Helvetica"> 2.09</text>
<text xml:space="preserve" x="534.032" y="85.5281" fill="black" font-size="6.269" font-family="Times">&#0177;</text>
<text xml:space="preserve" x="516.112" y="85.5281" fill="black" font-size="6.269" font-family="Helvetica"> 38.67 </text>
<path d="M57.1929,346.022h 453.543" fill="none" stroke="black"/>
<path d="M57.8228,336.795v 9.22726" fill="none" stroke="black"/>
<path d="M78.8202,341.409v 4.61363" fill="none" stroke="black"/>
<path d="M99.8176,341.409v 4.61363" fill="none" stroke="black"/>
<path d="M120.815,341.409v 4.61363" fill="none" stroke="black"/>
<path d="M141.812,341.409v 4.61363" fill="none" stroke="black"/>
<path d="M162.81,336.795v 9.22726" fill="none" stroke="black"/>
<path d="M183.807,341.409v 4.61363" fill="none" stroke="black"/>
<path d="M204.804,341.409v 4.61363" fill="none" stroke="black"/>
<path d="M225.802,341.409v 4.61363" fill="none" stroke="black"/>
<path d="M246.799,341.409v 4.61363" fill="none" stroke="black"/>
<path d="M267.797,336.795v 9.22726" fill="none" stroke="black"/>
<path d="M288.794,341.409v 4.61363" fill="none" stroke="black"/>
<path d="M309.791,341.409v 4.61363" fill="none" stroke="black"/>
<path d="M330.789,341.409v 4.61363" fill="none" stroke="black"/>
<path d="M351.786,341.409v 4.61363" fill="none" stroke="black"/>
<path d="M372.783,336.795v 9.22726" fill="none" stroke="black"/>
<path d="M393.781,341.409v 4.61363" fill="none" stroke="black"/>
<path d="M414.778,341.409v 4.61363" fill="none" stroke="black"/>
<path d="M435.776,341.409v 4.61363" fill="none" stroke="black"/>
<path d="M456.773,341.409v 4.61363" fill="none" stroke="black"/>
<path d="M477.77,336.795v 9.22726" fill="none" stroke="black"/>
<path d="M57.8228,336.795v 9.22726" fill="none" stroke="black"/>
<path d="M477.77,336.795v 9.22726" fill="none" stroke="black"/>
<path d="M498.768,341.409v 4.61363" fill="none" stroke="black"/>
<text xml:space="preserve" x="54.2605" y="358.403" fill="black" font-size="12.8453" font-family="Helvetica">0</text>
<text xml:space="preserve" x="152.007" y="358.403" fill="black" font-size="12.8453" font-family="Helvetica">500</text>
<text xml:space="preserve" x="253.826" y="358.403" fill="black" font-size="12.8453" font-family="Helvetica">1000</text>
<text xml:space="preserve" x="358.903" y="358.403" fill="black" font-size="12.8453" font-family="Helvetica">1500</text>
<text xml:space="preserve" x="463.166" y="358.403" fill="black" font-size="12.8453" font-family="Helvetica">2000</text>
<text xml:space="preserve" x="451.763" y="372.251" fill="black" font-size="12.8453" font-family="Helvetica">ADC value</text>
<path d="M57.1929,346.022v -307.575" fill="none" stroke="black"/>
<path d="M70.7992,346.022h -13.6063" fill="none" stroke="black"/>
<path d="M63.9961,336.678h -6.80315" fill="none" stroke="black"/>
<path d="M63.9961,327.335h -6.80315" fill="none" stroke="black"/>
<path d="M63.9961,317.991h -6.80315" fill="none" stroke="black"/>
<path d="M63.9961,308.647h -6.80315" fill="none" stroke="black"/>
<path d="M70.7992,299.303h -13.6063" fill="none" stroke="black"/>
<path d="M63.9961,289.959h -6.80315" fill="none" stroke="black"/>
<path d="M63.9961,280.615h -6.80315" fill="none" stroke="black"/>
<path d="M63.9961,271.272h -6.80315" fill="none" stroke="black"/>
<path d="M63.9961,261.928h -6.80315" fill="none" stroke="black"/>
<path d="M70.7992,252.584h -13.6063" fill="none" stroke="black"/>
<path d="M63.9961,243.24h -6.80315" fill="none" stroke="black"/>
<path d="M63.9961,233.896h -6.80315" fill="none" stroke="black"/>
<path d="M63.9961,224.553h -6.80315" fill="none" stroke="black"/>
<path d="M63.9961,215.209h -6.80315" fill="none" stroke="black"/>
<path d="M70.7992,205.865h -13.6063" fill="none" stroke="black"/>
<path d="M63.9961,196.521h -6.80315" fill="none" stroke="black"/>
<path d="M63.9961,187.177h -6.80315" fill="none" stroke="black"/>
<path d="M63.9961,177.833h -6.80315" fill="none" stroke="black"/>
<path d="M63.9961,168.49h -6.80315" fill="none" stroke="black"/>
<path d="M70.7992,159.146h -13.6063" fill="none" stroke="black"/>
<path d="M63.9961,149.802h -6.80315" fill="none" stroke="black"/>
<path d="M63.9961,140.458h -6.80315" fill="none" stroke="black"/>
<path d="M63.9961,131.114h -6.80315" fill="none" stroke="black"/>
<path d="M63.9961,121.77h -6.80315" fill="none" stroke="black"/>
<path d="M70.7992,112.427h -13.6063" fill="none" stroke="black"/>
<path d="M63.9961,103.083h -6.80315" fill="none" stroke="black"/>
<path d="M63.9961,93.739h -6.80315" fill="none" stroke="black"/>
<path d="M63.9961,84.3952h -6.80315" fill="none" stroke="black"/>
<path d="M63.9961,75.0514h -6.80315" fill="none" stroke="black"/>
<path d="M70.7992,65.7075h -13.6063" fill="none" stroke="black"/>
<path d="M70.7992,65.7075h -13.6063" fill="none" stroke="black"/>
<path d="M63.9961,56.3637h -6.80315" fill="none" stroke="black"/>
<path d="M63.9961,47.0199h -6.80315" fill="none" stroke="black"/>
<text xml:space="preserve" x="47.7441" y="350.258" fill="black" font-size="12.8453" font-family="Helvetica">0</text>
<text xml:space="preserve" x="33.8967" y="303.828" fill="black" font-size="12.8453" font-family="Helvetica">100</text>
<text xml:space="preserve" x="33.8967" y="257.399" fill="black" font-size="12.8453" font-family="Helvetica">200</text>
<text xml:space="preserve" x="33.8967" y="210.155" fill="black" font-size="12.8453" font-family="Helvetica">300</text>
<text xml:space="preserve" x="33.8967" y="163.725" fill="black" font-size="12.8453" font-family="Helvetica">400</text>
<text xml:space="preserve" x="33.8967" y="117.296" fill="black" font-size="12.8453" font-family="Helvetica">500</text>
<text xml:space="preserve" x="33.8967" y="70.0516" fill="black" font-size="12.8453" font-family="Helvetica">600</text>
<g transform="rotate(-90,20.8638,70.0516)">
<text xml:space="preserve" x="20.8638" y="70.0516" fill="black" font-size="12.8453" font-family="Helvetica">Event</text>
</g>
<rect x="442.705" y="24.9905" width="113.386" height="61.5151" fill="white"/>
<path d="M442.705,86.5056h 113.386" fill="none" stroke="black"/>
<path d="M556.091,86.5056v -61.5151" fill="none" stroke="black"/>
<path d="M556.091,24.9905h -113.386" fill="none" stroke="black"/>
<path d="M442.705,24.9905v 61.5151" fill="none" stroke="black"/>
<text xml:space="preserve" x="489.232" y="30.1385" fill="black" font-size="6.269" font-family="Helvetica">Cs_006</text>
<path d="M442.705,31.8255h 113.386" fill="none" stroke="black"/>
<text xml:space="preserve" x="447.69" y="37.4695" fill="black" font-size="6.269" font-family="Helvetica">Entries </text>
<text xml:space="preserve" x="532.403" y="37.4695" fill="black" font-size="6.269" font-family="Helvetica"> 10524</text>
<text xml:space="preserve" x="447.69" y="43.9859" fill="black" font-size="6.269" font-family="Helvetica">Mean  </text>
<text xml:space="preserve" x="532.403" y="43.9859" fill="black" font-size="6.269" font-family="Helvetica">   1349</text>
<text xml:space="preserve" x="447.69" y="51.3169" fill="black" font-size="6.269" font-family="Helvetica">Std Dev   </text>
<text xml:space="preserve" x="532.403" y="51.3169" fill="black" font-size="6.269" font-family="Helvetica">  706.3</text>
<text xml:space="preserve" x="453.392" y="57.8333" fill="black" font-size="6.269" font-family="Helvetica"> / ndf </text>
<text xml:space="preserve" x="450.948" y="55.3896" fill="black" font-size="4.346" font-family="Helvetica">2</text>
<text xml:space="preserve" x="447.69" y="57.8333" fill="black" font-size="6.269" font-family="Times">&#0967;</text>
<text xml:space="preserve" x="524.258" y="57.8333" fill="black" font-size="6.269" font-family="Helvetica"> 57.76 / 31</text>
<text xml:space="preserve" x="447.69" y="64.3497" fill="black" font-size="6.269" font-family="Helvetica">Prob  </text>
<text xml:space="preserve" x="525.072" y="64.3497" fill="black" font-size="6.269" font-family="Helvetica"> 0.002455</text>
<text xml:space="preserve" x="447.69" y="71.6807" fill="black" font-size="6.269" font-family="Helvetica">Const    </text>
<text xml:space="preserve" x="537.291" y="71.6807" fill="black" font-size="6.269" font-family="Helvetica"> 2.17</text>
<text xml:space="preserve" x="534.032" y="71.6807" fill="black" font-size="6.269" font-family="Times">&#0177;</text>
<text xml:space="preserve" x="516.112" y="71.6807" fill="black" font-size="6.269" font-family="Helvetica"> 61.99 </text>
<text xml:space="preserve" x="447.69" y="78.1971" fill="black" font-size="6.269" font-family="Helvetica">Mean     </text>
<text xml:space="preserve" x="540.549" y="78.1971" fill="black" font-size="6.269" font-family="Helvetica"> 1.4</text>
<text xml:space="preserve" x="537.291" y="78.1971" fill="black" font-size="6.269" font-family="Times">&#0177;</text>
<text xml:space="preserve" x="519.37" y="78.1971" fill="black" font-size="6.269" font-family="Helvetica"> 751.6 </text>
<text xml:space="preserve" x="447.69" y="85.5281" fill="black" font-size="6.269" font-family="Helvetica">Sigma    </text>
<text xml:space="preserve" x="537.291" y="85.5281" fill="black" font-size="6.269" font-family="Helvetica"> 2.09</text>
<text xml:space="preserve" x="534.032" y="85.5281" fill="black" font-size="6.269" font-family="Times">&#0177;</text>
<text xml:space="preserve" x="516.112" y="85.5281" fill="black" font-size="6.269" font-family="Helvetica"> 38.67 </text>
<path d="M204.909,333.914l 0.209974, -0.416509l 0.209974, -0.422173l 0.209974, -0.427453l 0.209974, -0.432328l 0.209974, -0.436772l 0.209974, -0.440763l 0.209974, -0.44428l 0.209974, -0.447299l 0.209974, -0.449801l 0.209974, -0.451765l 0.209974,
 -0.453172l 0.209974, -0.454003l 0.209974, -0.454241l 0.209974, -0.453869l 0.209974, -0.452874l 0.209974, -0.451241l 0.209974, -0.448958l 0.209974, -0.446014l 0.209974, -0.4424l 0.209974, -0.438108l 0.209974, -0.433132l 0.209974, -0.427469l 0.209974,
 -0.421115l 0.209974, -0.41407l 0.209974, -0.406335l 0.209974, -0.397913l 0.209974, -0.388809l 0.209974, -0.37903l 0.209974, -0.368585l 0.209974, -0.357484l 0.209974, -0.345741l 0.209974, -0.333369l 0.209974, -0.320385l 0.209974, -0.306809l 0.209974,
 -0.292659l 0.209974, -0.277958l 0.209974, -0.262729l 0.209974, -0.246998l 0.209974, -0.230793l 0.209974, -0.21414l 0.209974, -0.197071l 0.209974, -0.179616l 0.209974, -0.161808l 0.209974, -0.143681l 0.209974, -0.12527l 0.209974, -0.106609l 0.209974,
 -0.0877365l 0.209974, -0.0686885l 0.209974, -0.0495031" fill="none" stroke="#ff0000" stroke-width="2"/>
<path d="M215.198,317.104l 0.209974, -0.0302185l 0.209974, -0.0108733l 0.209974, 0.00849361l 0.209974, 0.0278435l 0.209974, 0.0471376l 0.209974, 0.0663373l 0.209974, 0.0854042l 0.209974, 0.104301l 0.209974, 0.122989l 0.209974, 0.141433l 0.209974,
 0.159597l 0.209974, 0.177446l 0.209974, 0.194946l 0.209974, 0.212064l 0.209974, 0.22877l 0.209974, 0.245032l 0.209974, 0.260822l 0.209974, 0.276114l 0.209974, 0.290881l 0.209974, 0.3051l 0.209974, 0.318748l 0.209974, 0.331806l 0.209974, 0.344254l
 0.209974, 0.356075l 0.209974, 0.367256l 0.209974, 0.377782l 0.209974, 0.387643l 0.209974, 0.396831l 0.209974, 0.405337l 0.209974, 0.413157l 0.209974, 0.420287l 0.209974, 0.426725l 0.209974, 0.432474l 0.209974, 0.437533l 0.209974, 0.441909l 0.209974,
 0.445606l 0.209974, 0.448632l 0.209974, 0.450996l 0.209974, 0.452708l 0.209974, 0.453781l 0.209974, 0.454228l 0.209974, 0.454064l 0.209974, 0.453305l 0.209974, 0.451968l 0.209974, 0.450072l 0.209974, 0.447635l 0.209974, 0.444678l 0.209974, 0.441221l
 0.209974, 0.437287" fill="none" stroke="#ff0000" stroke-width="2"/>
<path d="M225.487,332.162l 0.209974, 0.432897" fill="none" stroke="#ff0000" stroke-width="2"/>
<text xml:space="preserve" x="253.012" y="18.7347" fill="black" font-size="18.0316" font-family="Helvetica">Cs_006</text></svg>
