<?xml version="1.0" standalone="no"?>
<svg width="567.429" height="384.68" viewBox="0 0 567.429 384.68" xmlns="http://www.w3.org/2000/svg" shape-rendering="crispEdges">
<title>
img/week1/low_gain_clb/Cs_006.svg
</title>
<desc>
Creator: ROOT Version 6.22/09
CreationDate: Tue Jul 13 18:39:53 2021</desc>
<defs>
</defs>
<rect x="0.5" y="0" width="566.929" height="384.18" fill="white"/>
<rect x="57.1929" y="38.418" width="453.543" height="307.344" fill="white"/>
<rect x="57.1929" y="38.418" width="453.543" height="307.344" fill="none" stroke="black"/>
<rect x="57.1929" y="38.418" width="453.543" height="307.344" fill="white"/>
<rect x="57.1929" y="38.418" width="453.543" height="307.344" fill="none" stroke="black"/>
<path d="M57.1929,345.762h 34.0157v -5.60207h 0.629921v -3.73472h 0.629921v 0.46684h 0.629921v 4.20156h 0.629921v -0.933679h 0.629921v -1.86736h 0.629921v -0.46684h 0.629921v 2.3342h 0.629921v -2.80104h 0.629921v 3.26788h 0.629921v -0.46684h
 0.629921v -0.46684h 0.629921v 1.40052h 0.629921v -0.46684h 0.629921v 1.86736h 0.629921v -3.26788h 0.629921v 2.80104h 0.629921v -3.73472h 0.629921v 0.933679h 0.629921v -0.933679h 0.629921v 0.933679h 0.629921v 3.73472h 0.629921v -4.20156h 0.629921v
 1.40052h 0.629921v -1.40052h 0.629921v 1.86736h 0.629921v -2.3342h 0.629921v 0.46684h 0.629921v 3.73472h 0.629921v -2.3342h 0.629921v 0.933679h 0.629921v 0.46684h 0.629921v -1.40052h 0.629921v -0.46684h 0.629921v -2.3342h 0.629921v 4.20156h
 0.629921v -2.3342h 0.629921v -1.40052h 0.629921v 3.26788h 0.629921v -2.80104h 0.629921v 3.26788h 0.629921v 0.933679h 0.629921v -0.46684h 0.629921v -1.40052h 0.629921v -0.933679h 0.629921v -0.46684h 0.629921v 2.80104h 0.629921v -1.86736h 0.629921v
 3.26788h 0.629921v -1.40052h 0.629921v -1.40052h 0.629921v 0.933679h 0.629921v -0.933679h 0.629921v -1.86736h 0.629921v 3.26788h 0.629921v -1.86736h 1.25984v 0.46684h 0.629921v 0.933679h 0.629921v 0.46684h 1.25984v -0.46684h 0.629921v -1.86736h
 0.629921v 0.933679h 0.629921v 0.933679h 0.629921v -2.3342h 0.629921v 1.86736h 0.629921v -0.933679h 0.629921v 1.86736h 1.25984v -0.46684h 0.629921v -3.73472h 0.629921v 0.933679h 0.629921v -2.3342h 0.629921v 4.20156h 0.629921v -0.933679h 0.629921v
 -0.46684h 0.629921v 3.73472h 0.629921v -4.6684h 0.629921v 1.40052h 0.629921v 3.26788h 0.629921v -1.86736h 0.629921v -0.933679h 0.629921v -2.80104h 0.629921v 3.73472h 0.629921v 2.80104h 0.629921v -0.933679h 0.629921v -2.80104h 0.629921v 1.86736h
 0.629921v -2.80104h 0.629921v 3.26788h 1.25984v -3.26788h 0.629921v -1.40052h 0.629921v 3.73472h 0.629921v 1.86736h 0.629921v -2.80104h 0.629921v -2.80104h 0.629921v 0.46684h 0.629921v 2.3342h 0.629921v 1.86736h 0.629921v -2.3342h 0.629921v
 -1.40052h 0.629921v 3.26788h 1.88976v -3.73472h 0.629921v 0.46684h 0.629921v -1.86736h 0.629921v -0.933679h 0.629921v 4.20156h 0.629921v -7.00259h 0.629921v 5.60207h 1.88976v -1.86736h 0.629921v -3.73472h 0.629921v 3.73472h 0.629921v 3.26788h
 0.629921v -6.06891h 0.629921v 4.20156h 0.629921v -0.933679h 0.629921v -0.46684h 0.629921v 2.3342h 0.629921v -0.46684h 0.629921v -4.20156h 0.629921v -3.26788h 0.629921v 7.46943h 1.25984v -3.26788h 0.629921v -0.46684h 0.629921v -0.46684h 0.629921v
 6.06891h 0.629921v -3.73472h 0.629921v -0.933679h 0.629921v 6.53575h 0.629921v -4.20156h 0.629921v 2.80104h 0.629921v -1.86736h 0.629921v 2.80104h 0.629921v -3.26788h 0.629921v 3.73472h 0.629921v -1.86736h 0.629921v -0.933679h 0.629921v 0.933679h
 0.629921v 2.3342h 0.629921v -4.6684h 0.629921v 1.40052h 1.25984v 2.3342h 0.629921v 0.46684h 0.629921v -2.80104h 0.629921v 2.3342h 0.629921v -1.40052h 0.629921v 2.3342h 0.629921v -1.40052h 0.629921v -0.933679h 0.629921v -2.3342h 0.629921v 1.40052h
 0.629921v 1.86736h 0.629921v 2.3342h 0.629921v -6.06891h 0.629921v 2.3342h 1.25984v 2.3342h 0.629921v -4.20156h 0.629921v 2.3342h 0.629921v -0.933679h 0.629921v 0.46684h 0.629921v 0.933679h 0.629921v -3.73472h 0.629921v 0.46684h 0.629921v 1.40052h
 0.629921v -1.40052h 0.629921v 1.86736h 0.629921v -0.46684h 0.629921v -3.26788h 0.629921v -0.933679h 0.629921v 0.46684h 0.629921v 1.40052h 0.629921v -4.20156h 0.629921v -1.86736h 0.629921v 2.80104h 0.629921v -6.06891h 0.629921v -0.46684h 0.629921v
 -5.13524h 0.629921v 4.6684h 0.629921v 6.06891h 0.629921v -12.1378h 1.25984v -6.53575h 0.629921v 7.46943h 0.629921v -2.80104h 0.629921v -1.86736h 0.629921v -3.73472h 0.629921v 7.93627h 0.629921v 1.86736h 0.629921v -7.00259h 0.629921v -3.26788h
 0.629921v -2.80104h 0.629921v -0.46684h 0.629921v 17.2731h 0.629921v -9.80363h 0.629921v 2.3342h 0.629921v 1.86736h 0.629921v -3.26788h 0.629921v 8.40311h 0.629921v -6.53575h 0.629921v 1.86736h 0.629921v 7.46943h 0.629921v 5.13524h 0.629921v
 -4.20156h 0.629921v -3.26788h 0.629921v 4.6684h 0.629921v 2.80104h 0.629921v 0.933679h 0.629921v -0.933679h 1.25984v 0.46684h 0.629921v 3.73472h 0.629921v 3.26788h 0.629921v -1.40052h 1.25984v -0.46684h 0.629921v -1.40052h 1.25984v -2.80104h
 0.629921v 0.46684h 0.629921v 2.3342h 0.629921v -1.40052h 0.629921v -0.46684h 0.629921v 2.80104h 0.629921v 0.46684h 0.629921v 0.933679h 0.629921v -1.40052h 0.629921v -0.46684h 1.25984v 0.933679h 0.629921v 1.40052h 1.88976v -2.3342h 0.629921v 2.80104h
 1.25984v -3.73472h 0.629921v 1.86736h 0.629921v 1.40052h 0.629921v 4.20156h 0.629921v -3.73472h 0.629921v 1.40052h 0.629921v 0.933679h 1.25984v -2.80104h 0.629921v 0.933679h 0.629921v -1.86736h 0.629921v 2.80104h 0.629921v -0.46684h 0.629921v
 1.40052h 0.629921v 0.46684h 0.629921v -0.933679h 0.629921v -0.46684h 1.25984v -0.46684h 0.629921v 0.46684h 0.629921v 0.46684h 0.629921v 1.86736h 0.629921v -2.80104h 0.629921v 0.933679h 0.629921v -0.46684h 0.629921v 1.86736h 0.629921v -2.3342h
 0.629921v 2.80104h 0.629921v -0.933679h 0.629921v -1.40052h 0.629921v 1.86736h 0.629921v 0.46684h 0.629921v -0.46684h 0.629921v -0.46684h 1.25984v -0.46684h 0.629921v -1.86736h 0.629921v 0.46684h 0.629921v 0.46684h 0.629921v 0.46684h 0.629921v
 0.933679h 0.629921v 0.46684h 0.629921v -2.3342h 0.629921v 0.933679h 0.629921v 0.933679h 0.629921v -1.40052h 0.629921v 2.3342h 0.629921v -0.933679h 0.629921v -0.933679h 0.629921v -0.933679h 0.629921v 1.40052h 0.629921v 0.46684h 1.25984v -0.46684h
 0.629921v 1.40052h 0.629921v -1.40052h 0.629921v -2.80104h 0.629921v 3.26788h 1.25984v -1.86736h 0.629921v 1.86736h 1.25984v -0.46684h 0.629921v -0.46684h 0.629921v 0.46684h 0.629921v -0.933679h 1.25984v 1.40052h 0.629921v 0.46684h 0.629921v
 -1.40052h 0.629921v 0.933679h 0.629921v -0.46684h 1.25984v -0.46684h 0.629921v 0.933679h 0.629921v -0.46684h 0.629921v 0.46684h 0.629921v 0.933679h 0.629921v -1.86736h 0.629921v 0.46684h 0.629921v 0.46684h 0.629921v -0.933679h 0.629921v -1.86736h
 0.629921v 1.40052h 1.25984v 0.933679h 0.629921v 0.46684h 0.629921v -1.86736h 0.629921v 0.46684h 0.629921v -0.46684h 0.629921v 2.3342h 0.629921v -0.933679h 1.25984v 1.40052h 0.629921v -3.73472h 0.629921v 3.26788h 0.629921v 0.46684h 1.25984v -2.3342h
 0.629921v 1.86736h 0.629921v -0.933679h 0.629921v 0.46684h 0.629921v -0.46684h 0.629921v 0.46684h 0.629921v 0.46684h 0.629921v -1.86736h 0.629921v 1.40052h 0.629921v 0.933679h 0.629921v -2.3342h 0.629921v 0.933679h 1.25984v 0.933679h 0.629921v
 -0.46684h 0.629921v -0.46684h 0.629921v 0.933679h 0.629921v -1.40052h 0.629921v 0.933679h 0.629921v -1.40052h 0.629921v 1.86736h 1.25984v -0.933679h 0.629921v -1.40052h 0.629921v 1.40052h 0.629921v 0.46684h 0.629921v 0.46684h 0.629921v 0.46684h
 0.629921v -0.933679h 0.629921v -0.46684h 0.629921v -0.46684h 0.629921v 0.933679h 1.25984v 0.46684h 0.629921v -0.933679h 2.51969v -0.46684h 0.629921v -0.933679h 0.629921v 1.40052h 0.629921v 1.86736h 0.629921v -1.40052h 1.25984v -0.46684h 1.25984v
 -0.933679h 0.629921v 1.40052h 0.629921v -0.46684h 0.629921v -0.933679h 0.629921v 0.933679h 0.629921v 1.40052h 0.629921v -0.933679h 0.629921v -0.46684h 0.629921v -1.40052h 0.629921v 2.3342h 1.25984v -0.46684h 1.88976v -1.40052h 0.629921v 2.3342h
 0.629921v -1.40052h 0.629921v -0.933679h 0.629921v -0.46684h 0.629921v 1.40052h 0.629921v -1.40052h 0.629921v 1.40052h 0.629921v 0.933679h 0.629921v -1.40052h 0.629921v 1.40052h 0.629921v -1.86736h 0.629921v 1.40052h 0.629921v 0.46684h 0.629921v
 -0.46684h 0.629921v -1.86736h 0.629921v 0.46684h 0.629921v 0.933679h 0.629921v -0.933679h 0.629921v 1.40052h 1.25984v 0.46684h 0.629921v -1.86736h 1.25984v 0.46684h 0.629921v 0.46684h 0.629921v -1.40052h 0.629921v 0.933679h 0.629921v 0.46684h
 0.629921v 0.933679h 0.629921v -0.46684h 0.629921v 0.46684h 0.629921v -0.46684h 0.629921v -0.46684h 0.629921v -0.933679h 0.629921v 1.40052h 0.629921v -0.46684h 0.629921v 0.46684h 0.629921v 0.46684h 0.629921v -1.86736h 0.629921v 1.86736h 1.25984v
 -0.46684h 0.629921v -0.46684h 0.629921v 0.933679h 0.629921v -0.933679h 0.629921v 1.86736h 1.25984v -0.933679h 1.25984v -0.46684h 0.629921v 0.46684h 0.629921v 0.46684h 1.25984v -0.933679h 0.629921v 0.933679h 0.629921v -1.40052h 1.25984v 0.46684h
 0.629921v 1.40052h 0.629921v -2.3342h 0.629921v 0.46684h 0.629921v 0.46684h 0.629921v -0.46684h 0.629921v -1.40052h 0.629921v 1.86736h 0.629921v -0.46684h 0.629921v 0.933679h 0.629921v -1.40052h 1.88976v 0.46684h 0.629921v -0.933679h 0.629921v
 1.40052h 0.629921v -0.46684h 0.629921v 0.933679h 0.629921v -0.933679h 1.25984v -0.46684h 0.629921v -0.46684h 0.629921v 0.933679h 0.629921v 0.46684h 0.629921v -0.933679h 1.25984v 0.933679h 0.629921v 0.46684h 0.629921v 0.933679h 0.629921v -3.26788h
 0.629921v 0.933679h 0.629921v 1.40052h 0.629921v -0.933679h 1.25984v 0.46684h 1.25984v 0.933679h 0.629921v -0.933679h 1.88976v -0.46684h 0.629921v 0.46684h 0.629921v -1.86736h 0.629921v 1.40052h 0.629921v 0.933679h 0.629921v -0.933679h 0.629921v
 0.46684h 0.629921v -0.46684h 0.629921v -1.40052h 0.629921v 2.3342h 0.629921v -0.46684h 0.629921v -0.46684h 0.629921v -1.86736h 0.629921v 2.80104h 1.25984v -0.933679h 0.629921v 0.933679h 0.629921v -0.933679h 0.629921v 0.46684h 1.25984v -0.46684h
 0.629921v -0.933679h 0.629921v 0.933679h 0.629921v 0.933679h 1.25984v -0.933679h 0.629921v 0.46684h 1.25984v -0.46684h 1.25984v -1.40052h 1.25984v 1.86736h 0.629921v -0.933679h 0.629921v 1.40052h 1.25984v 0.46684h 0.629921v -1.40052h 1.25984v
 0.933679h 0.629921v -0.933679h 0.629921v 0.46684h 0.629921v -0.933679h 0.629921v -0.933679h 0.629921v 2.3342h 1.25984v -1.40052h 1.25984v 0.46684h 0.629921v 1.86736h 0.629921v -1.40052h 1.25984v -0.933679h 0.629921v 1.40052h 0.629921v 0.933679h
 0.629921v -1.40052h 0.629921v 0.933679h 0.629921v -1.86736h 0.629921v 1.40052h 1.25984v -0.46684h 0.629921v -1.40052h 0.629921v 1.40052h 0.629921v -2.3342h 0.629921v 2.3342h 0.629921v 1.40052h 0.629921v -2.80104h 0.629921v 1.40052h 0.629921v
 0.46684h 0.629921v -0.46684h 0.629921v -0.933679h 0.629921v 0.933679h 1.25984v -0.46684h 0.629921v -0.46684h 0.629921v 1.86736h 0.629921v -1.40052h 1.25984v 0.933679h 0.629921v -0.933679h 0.629921v 0.46684h 1.88976v 0.933679h 0.629921v -2.3342h
 0.629921v 1.40052h 1.25984v 0.46684h 0.629921v -0.933679h 0.629921v 0.46684h 0.629921v -0.933679h 0.629921v 1.86736h 1.25984v -1.40052h 0.629921v -0.46684h 0.629921v 0.933679h 0.629921v -0.933679h 0.629921v 1.86736h 0.629921v -1.40052h 0.629921v
 -0.933679h 0.629921v 0.46684h 0.629921v 1.86736h 0.629921v -1.40052h 0.629921v 0.46684h 0.629921v -0.46684h 0.629921v -0.933679h 0.629921v 2.80104h 0.629921v -0.933679h 0.629921v -0.933679h 0.629921v -1.40052h 0.629921v 0.933679h 0.629921v 1.40052h
 0.629921v -1.40052h 0.629921v 1.40052h 0.629921v -1.40052h 0.629921v 1.86736h 0.629921v -3.73472h 0.629921v 3.26788h 1.88976v -0.46684h 0.629921v 0.933679h 0.629921v -1.40052h 0.629921v -0.933679h 0.629921v 1.40052h 0.629921v -4.6684h 0.629921v
 -4.20156h 0.629921v -160.593h 0.629921v -121.845h 0.629921v 105.506h 0.629921v -39.6814h 0.629921v 16.8062h 0.629921v 115.309h 0.629921v 48.5513h 0.629921v -4.20156h 0.629921v -9.33679h 0.629921v 10.7373h 0.629921v -1.86736h 0.629921v 11.671h
 0.629921v -7.93627h 0.629921v 4.6684h 1.25984v 8.40311h 0.629921v 1.86736h 0.629921v -2.3342h 0.629921v -4.20156h 0.629921v 2.80104h 0.629921v 10.2705h 0.629921v -9.33679h 1.25984v 4.20156h 0.629921v 12.1378h 0.629921v -8.40311h 0.629921v -3.73472h
 0.629921v 14.472h 0.629921v -5.13524h 0.629921v 7.93627h 0.629921v -6.53575h 0.629921v 3.73472h 0.629921v 5.13524h 0.629921v 2.3342h 0.629921v 2.3342h 0.629921v 3.73472h 0.629921v -0.46684h 0.629921v 2.80104h 1.25984" fill="none" stroke="#000099"/>
<rect x="442.705" y="24.9717" width="113.386" height="61.4688" fill="white"/>
<path d="M442.705,86.4405h 113.386" fill="none" stroke="black"/>
<path d="M556.091,86.4405v -61.4688" fill="none" stroke="black"/>
<path d="M556.091,24.9717h -113.386" fill="none" stroke="black"/>
<path d="M442.705,24.9717v 61.4688" fill="none" stroke="black"/>
<text xml:space="preserve" x="476.461" y="36.5499" fill="black" font-size="13.4705" font-family="Helvetica">Cs_006</text>
<path d="M442.705,40.3389h 113.386" fill="none" stroke="black"/>
<text xml:space="preserve" x="448.033" y="52.7943" fill="black" font-size="12.7411" font-family="Helvetica">Entries </text>
<text xml:space="preserve" x="513.01" y="52.7943" fill="black" font-size="12.7411" font-family="Helvetica"> 10524</text>
<text xml:space="preserve" x="448.033" y="68.2264" fill="black" font-size="12.7411" font-family="Helvetica">Mean  </text>
<text xml:space="preserve" x="513.01" y="68.2264" fill="black" font-size="12.7411" font-family="Helvetica">   1349</text>
<text xml:space="preserve" x="448.033" y="82.8464" fill="black" font-size="12.7411" font-family="Helvetica">Std Dev   </text>
<text xml:space="preserve" x="513.01" y="82.8464" fill="black" font-size="12.7411" font-family="Helvetica">  706.3</text>
<path d="M57.1929,345.762h 453.543" fill="none" stroke="black"/>
<path d="M57.8228,336.541v 9.22031" fill="none" stroke="black"/>
<path d="M78.8202,341.152v 4.61016" fill="none" stroke="black"/>
<path d="M99.8176,341.152v 4.61016" fill="none" stroke="black"/>
<path d="M120.815,341.152v 4.61016" fill="none" stroke="black"/>
<path d="M141.812,341.152v 4.61016" fill="none" stroke="black"/>
<path d="M162.81,336.541v 9.22031" fill="none" stroke="black"/>
<path d="M183.807,341.152v 4.61016" fill="none" stroke="black"/>
<path d="M204.804,341.152v 4.61016" fill="none" stroke="black"/>
<path d="M225.802,341.152v 4.61016" fill="none" stroke="black"/>
<path d="M246.799,341.152v 4.61016" fill="none" stroke="black"/>
<path d="M267.797,336.541v 9.22031" fill="none" stroke="black"/>
<path d="M288.794,341.152v 4.61016" fill="none" stroke="black"/>
<path d="M309.791,341.152v 4.61016" fill="none" stroke="black"/>
<path d="M330.789,341.152v 4.61016" fill="none" stroke="black"/>
<path d="M351.786,341.152v 4.61016" fill="none" stroke="black"/>
<path d="M372.783,336.541v 9.22031" fill="none" stroke="black"/>
<path d="M393.781,341.152v 4.61016" fill="none" stroke="black"/>
<path d="M414.778,341.152v 4.61016" fill="none" stroke="black"/>
<path d="M435.776,341.152v 4.61016" fill="none" stroke="black"/>
<path d="M456.773,341.152v 4.61016" fill="none" stroke="black"/>
<path d="M477.77,336.541v 9.22031" fill="none" stroke="black"/>
<path d="M57.8228,336.541v 9.22031" fill="none" stroke="black"/>
<path d="M477.77,336.541v 9.22031" fill="none" stroke="black"/>
<path d="M498.768,341.152v 4.61016" fill="none" stroke="black"/>
<text xml:space="preserve" x="54.1065" y="358.189" fill="black" font-size="12.836" font-family="Helvetica">0</text>
<text xml:space="preserve" x="151.573" y="358.189" fill="black" font-size="12.836" font-family="Helvetica">500</text>
<text xml:space="preserve" x="253.912" y="358.189" fill="black" font-size="12.836" font-family="Helvetica">1000</text>
<text xml:space="preserve" x="358.689" y="358.189" fill="black" font-size="12.836" font-family="Helvetica">1500</text>
<text xml:space="preserve" x="463.465" y="358.189" fill="black" font-size="12.836" font-family="Helvetica">2000</text>
<text xml:space="preserve" x="452.094" y="371.996" fill="black" font-size="12.836" font-family="Helvetica">ADC value</text>
<path d="M57.1929,345.762v -307.344" fill="none" stroke="black"/>
<path d="M70.7992,345.762h -13.6063" fill="none" stroke="black"/>
<path d="M63.9961,336.425h -6.80315" fill="none" stroke="black"/>
<path d="M63.9961,327.088h -6.80315" fill="none" stroke="black"/>
<path d="M63.9961,317.751h -6.80315" fill="none" stroke="black"/>
<path d="M63.9961,308.415h -6.80315" fill="none" stroke="black"/>
<path d="M70.7992,299.078h -13.6063" fill="none" stroke="black"/>
<path d="M63.9961,289.741h -6.80315" fill="none" stroke="black"/>
<path d="M63.9961,280.404h -6.80315" fill="none" stroke="black"/>
<path d="M63.9961,271.067h -6.80315" fill="none" stroke="black"/>
<path d="M63.9961,261.731h -6.80315" fill="none" stroke="black"/>
<path d="M70.7992,252.394h -13.6063" fill="none" stroke="black"/>
<path d="M63.9961,243.057h -6.80315" fill="none" stroke="black"/>
<path d="M63.9961,233.72h -6.80315" fill="none" stroke="black"/>
<path d="M63.9961,224.384h -6.80315" fill="none" stroke="black"/>
<path d="M63.9961,215.047h -6.80315" fill="none" stroke="black"/>
<path d="M70.7992,205.71h -13.6063" fill="none" stroke="black"/>
<path d="M63.9961,196.373h -6.80315" fill="none" stroke="black"/>
<path d="M63.9961,187.036h -6.80315" fill="none" stroke="black"/>
<path d="M63.9961,177.7h -6.80315" fill="none" stroke="black"/>
<path d="M63.9961,168.363h -6.80315" fill="none" stroke="black"/>
<path d="M70.7992,159.026h -13.6063" fill="none" stroke="black"/>
<path d="M63.9961,149.689h -6.80315" fill="none" stroke="black"/>
<path d="M63.9961,140.352h -6.80315" fill="none" stroke="black"/>
<path d="M63.9961,131.016h -6.80315" fill="none" stroke="black"/>
<path d="M63.9961,121.679h -6.80315" fill="none" stroke="black"/>
<path d="M70.7992,112.342h -13.6063" fill="none" stroke="black"/>
<path d="M63.9961,103.005h -6.80315" fill="none" stroke="black"/>
<path d="M63.9961,93.6684h -6.80315" fill="none" stroke="black"/>
<path d="M63.9961,84.3316h -6.80315" fill="none" stroke="black"/>
<path d="M63.9961,74.9949h -6.80315" fill="none" stroke="black"/>
<path d="M70.7992,65.6581h -13.6063" fill="none" stroke="black"/>
<path d="M70.7992,65.6581h -13.6063" fill="none" stroke="black"/>
<path d="M63.9961,56.3213h -6.80315" fill="none" stroke="black"/>
<path d="M63.9961,46.9845h -6.80315" fill="none" stroke="black"/>
<text xml:space="preserve" x="47.6087" y="350.067" fill="black" font-size="12.836" font-family="Helvetica">0</text>
<text xml:space="preserve" x="33.801" y="303.77" fill="black" font-size="12.836" font-family="Helvetica">100</text>
<text xml:space="preserve" x="33.801" y="256.661" fill="black" font-size="12.836" font-family="Helvetica">200</text>
<text xml:space="preserve" x="33.801" y="210.365" fill="black" font-size="12.836" font-family="Helvetica">300</text>
<text xml:space="preserve" x="33.801" y="163.256" fill="black" font-size="12.836" font-family="Helvetica">400</text>
<text xml:space="preserve" x="33.801" y="116.96" fill="black" font-size="12.836" font-family="Helvetica">500</text>
<text xml:space="preserve" x="33.801" y="69.8509" fill="black" font-size="12.836" font-family="Helvetica">600</text>
<g transform="rotate(-90,20.8055,69.8509)">
<text xml:space="preserve" x="20.8055" y="69.8509" fill="black" font-size="12.836" font-family="Helvetica">Event</text>
</g>
<rect x="442.705" y="24.9717" width="113.386" height="61.4688" fill="white"/>
<path d="M442.705,86.4405h 113.386" fill="none" stroke="black"/>
<path d="M556.091,86.4405v -61.4688" fill="none" stroke="black"/>
<path d="M556.091,24.9717h -113.386" fill="none" stroke="black"/>
<path d="M442.705,24.9717v 61.4688" fill="none" stroke="black"/>
<text xml:space="preserve" x="476.461" y="36.5499" fill="black" font-size="13.4705" font-family="Helvetica">Cs_006</text>
<path d="M442.705,40.3389h 113.386" fill="none" stroke="black"/>
<text xml:space="preserve" x="448.033" y="52.7943" fill="black" font-size="12.7411" font-family="Helvetica">Entries </text>
<text xml:space="preserve" x="513.01" y="52.7943" fill="black" font-size="12.7411" font-family="Helvetica"> 10524</text>
<text xml:space="preserve" x="448.033" y="68.2264" fill="black" font-size="12.7411" font-family="Helvetica">Mean  </text>
<text xml:space="preserve" x="513.01" y="68.2264" fill="black" font-size="12.7411" font-family="Helvetica">   1349</text>
<text xml:space="preserve" x="448.033" y="82.8464" fill="black" font-size="12.7411" font-family="Helvetica">Std Dev   </text>
<text xml:space="preserve" x="513.01" y="82.8464" fill="black" font-size="12.7411" font-family="Helvetica">  706.3</text>
<path d="M204.909,333.662l 0.209974, -0.416195l 0.209974, -0.421855l 0.209974, -0.427132l 0.209974, -0.432002l 0.209974, -0.436443l 0.209974, -0.440431l 0.209974, -0.443945l 0.209974, -0.446963l 0.209974, -0.449463l 0.209974, -0.451425l 0.209974,
 -0.452831l 0.209974, -0.453661l 0.209974, -0.453899l 0.209974, -0.453528l 0.209974, -0.452533l 0.209974, -0.450901l 0.209974, -0.44862l 0.209974, -0.445678l 0.209974, -0.442067l 0.209974, -0.437778l 0.209974, -0.432806l 0.209974, -0.427147l
 0.209974, -0.420798l 0.209974, -0.413758l 0.209974, -0.406029l 0.209974, -0.397613l 0.209974, -0.388516l 0.209974, -0.378745l 0.209974, -0.368307l 0.209974, -0.357215l 0.209974, -0.34548l 0.209974, -0.333118l 0.209974, -0.320144l 0.209974,
 -0.306578l 0.209974, -0.292438l 0.209974, -0.277748l 0.209974, -0.262531l 0.209974, -0.246813l 0.209974, -0.230619l 0.209974, -0.213979l 0.209974, -0.196922l 0.209974, -0.179481l 0.209974, -0.161687l 0.209974, -0.143573l 0.209974, -0.125175l
 0.209974, -0.106529l 0.209974, -0.0876704l 0.209974, -0.0686368l 0.209974, -0.0494658" fill="none" stroke="#ff0000" stroke-width="2"/>
<path d="M215.198,316.866l 0.209974, -0.0301957l 0.209974, -0.0108652l 0.209974, 0.00848722l 0.209974, 0.0278226l 0.209974, 0.0471021l 0.209974, 0.0662873l 0.209974, 0.0853399l 0.209974, 0.104222l 0.209974, 0.122897l 0.209974, 0.141327l 0.209974,
 0.159477l 0.209974, 0.177312l 0.209974, 0.194799l 0.209974, 0.211905l 0.209974, 0.228597l 0.209974, 0.244847l 0.209974, 0.260626l 0.209974, 0.275906l 0.209974, 0.290662l 0.209974, 0.30487l 0.209974, 0.318509l 0.209974, 0.331556l 0.209974, 0.343995l
 0.209974, 0.355807l 0.209974, 0.366979l 0.209974, 0.377498l 0.209974, 0.387352l 0.209974, 0.396532l 0.209974, 0.405032l 0.209974, 0.412846l 0.209974, 0.41997l 0.209974, 0.426404l 0.209974, 0.432148l 0.209974, 0.437204l 0.209974, 0.441576l 0.209974,
 0.44527l 0.209974, 0.448294l 0.209974, 0.450656l 0.209974, 0.452367l 0.209974, 0.453439l 0.209974, 0.453886l 0.209974, 0.453722l 0.209974, 0.452964l 0.209974, 0.451628l 0.209974, 0.449733l 0.209974, 0.447298l 0.209974, 0.444343l 0.209974, 0.440889l
 0.209974, 0.436958" fill="none" stroke="#ff0000" stroke-width="2"/>
<path d="M225.487,331.912l 0.209974, 0.432572" fill="none" stroke="#ff0000" stroke-width="2"/>
<text xml:space="preserve" x="253.1" y="18.681" fill="black" font-size="17.9813" font-family="Helvetica">Cs_006</text></svg>
