<?xml version="1.0" standalone="no"?>
<svg width="567.429" height="384.68" viewBox="0 0 567.429 384.68" xmlns="http://www.w3.org/2000/svg" shape-rendering="crispEdges">
<title>
img/week1/low_gain_clb/final.svg
</title>
<desc>
Creator: ROOT Version 6.22/09
CreationDate: Tue Jul 13 18:39:54 2021</desc>
<defs>
</defs>
<rect x="0.5" y="0" width="566.929" height="384.18" fill="white"/>
<rect x="57.1929" y="38.418" width="453.543" height="307.344" fill="white"/>
<rect x="57.1929" y="38.418" width="453.543" height="307.344" fill="none" stroke="black"/>
<rect x="57.1929" y="38.418" width="453.543" height="307.344" fill="white"/>
<rect x="57.1929" y="38.418" width="453.543" height="307.344" fill="none" stroke="black"/>
<path d="M57.1929,345.762h 453.543" fill="none" stroke="black"/>
<path d="M57.1929,336.541v 9.22031" fill="none" stroke="black"/>
<path d="M70.1513,341.152v 4.61016" fill="none" stroke="black"/>
<path d="M83.1097,341.152v 4.61016" fill="none" stroke="black"/>
<path d="M96.0681,341.152v 4.61016" fill="none" stroke="black"/>
<path d="M109.026,341.152v 4.61016" fill="none" stroke="black"/>
<path d="M121.985,336.541v 9.22031" fill="none" stroke="black"/>
<path d="M134.943,341.152v 4.61016" fill="none" stroke="black"/>
<path d="M147.902,341.152v 4.61016" fill="none" stroke="black"/>
<path d="M160.86,341.152v 4.61016" fill="none" stroke="black"/>
<path d="M173.818,341.152v 4.61016" fill="none" stroke="black"/>
<path d="M186.777,336.541v 9.22031" fill="none" stroke="black"/>
<path d="M199.735,341.152v 4.61016" fill="none" stroke="black"/>
<path d="M212.693,341.152v 4.61016" fill="none" stroke="black"/>
<path d="M225.652,341.152v 4.61016" fill="none" stroke="black"/>
<path d="M238.61,341.152v 4.61016" fill="none" stroke="black"/>
<path d="M251.569,336.541v 9.22031" fill="none" stroke="black"/>
<path d="M264.527,341.152v 4.61016" fill="none" stroke="black"/>
<path d="M277.485,341.152v 4.61016" fill="none" stroke="black"/>
<path d="M290.444,341.152v 4.61016" fill="none" stroke="black"/>
<path d="M303.402,341.152v 4.61016" fill="none" stroke="black"/>
<path d="M316.361,336.541v 9.22031" fill="none" stroke="black"/>
<path d="M329.319,341.152v 4.61016" fill="none" stroke="black"/>
<path d="M342.277,341.152v 4.61016" fill="none" stroke="black"/>
<path d="M355.236,341.152v 4.61016" fill="none" stroke="black"/>
<path d="M368.194,341.152v 4.61016" fill="none" stroke="black"/>
<path d="M381.152,336.541v 9.22031" fill="none" stroke="black"/>
<path d="M394.111,341.152v 4.61016" fill="none" stroke="black"/>
<path d="M407.069,341.152v 4.61016" fill="none" stroke="black"/>
<path d="M420.028,341.152v 4.61016" fill="none" stroke="black"/>
<path d="M432.986,341.152v 4.61016" fill="none" stroke="black"/>
<path d="M445.944,336.541v 9.22031" fill="none" stroke="black"/>
<path d="M458.903,341.152v 4.61016" fill="none" stroke="black"/>
<path d="M471.861,341.152v 4.61016" fill="none" stroke="black"/>
<path d="M484.819,341.152v 4.61016" fill="none" stroke="black"/>
<path d="M497.778,341.152v 4.61016" fill="none" stroke="black"/>
<path d="M510.736,336.541v 9.22031" fill="none" stroke="black"/>
<text xml:space="preserve" x="53.2943" y="358.189" fill="black" font-size="12.836" font-family="Helvetica">0</text>
<text xml:space="preserve" x="115.023" y="358.189" fill="black" font-size="12.836" font-family="Helvetica">10</text>
<text xml:space="preserve" x="180" y="358.189" fill="black" font-size="12.836" font-family="Helvetica">20</text>
<text xml:space="preserve" x="244.978" y="358.189" fill="black" font-size="12.836" font-family="Helvetica">30</text>
<text xml:space="preserve" x="309.143" y="358.189" fill="black" font-size="12.836" font-family="Helvetica">40</text>
<text xml:space="preserve" x="374.121" y="358.189" fill="black" font-size="12.836" font-family="Helvetica">50</text>
<text xml:space="preserve" x="439.098" y="358.189" fill="black" font-size="12.836" font-family="Helvetica">60</text>
<text xml:space="preserve" x="504.076" y="358.189" fill="black" font-size="12.836" font-family="Helvetica">70</text>
<text xml:space="preserve" x="441.535" y="370.372" fill="black" font-size="12.836" font-family="Helvetica">Energy [keV]</text>
<path d="M57.1929,345.762v -307.344" fill="none" stroke="black"/>
<path d="M70.7992,345.762h -13.6063" fill="none" stroke="black"/>
<path d="M63.9961,338.078h -6.80315" fill="none" stroke="black"/>
<path d="M63.9961,330.395h -6.80315" fill="none" stroke="black"/>
<path d="M63.9961,322.711h -6.80315" fill="none" stroke="black"/>
<path d="M70.7992,315.027h -13.6063" fill="none" stroke="black"/>
<path d="M63.9961,307.344h -6.80315" fill="none" stroke="black"/>
<path d="M63.9961,299.66h -6.80315" fill="none" stroke="black"/>
<path d="M63.9961,291.977h -6.80315" fill="none" stroke="black"/>
<path d="M70.7992,284.293h -13.6063" fill="none" stroke="black"/>
<path d="M63.9961,276.609h -6.80315" fill="none" stroke="black"/>
<path d="M63.9961,268.926h -6.80315" fill="none" stroke="black"/>
<path d="M63.9961,261.242h -6.80315" fill="none" stroke="black"/>
<path d="M70.7992,253.559h -13.6063" fill="none" stroke="black"/>
<path d="M63.9961,245.875h -6.80315" fill="none" stroke="black"/>
<path d="M63.9961,238.191h -6.80315" fill="none" stroke="black"/>
<path d="M63.9961,230.508h -6.80315" fill="none" stroke="black"/>
<path d="M70.7992,222.824h -13.6063" fill="none" stroke="black"/>
<path d="M63.9961,215.141h -6.80315" fill="none" stroke="black"/>
<path d="M63.9961,207.457h -6.80315" fill="none" stroke="black"/>
<path d="M63.9961,199.773h -6.80315" fill="none" stroke="black"/>
<path d="M70.7992,192.09h -13.6063" fill="none" stroke="black"/>
<path d="M63.9961,184.406h -6.80315" fill="none" stroke="black"/>
<path d="M63.9961,176.723h -6.80315" fill="none" stroke="black"/>
<path d="M63.9961,169.039h -6.80315" fill="none" stroke="black"/>
<path d="M70.7992,161.356h -13.6063" fill="none" stroke="black"/>
<path d="M63.9961,153.672h -6.80315" fill="none" stroke="black"/>
<path d="M63.9961,145.988h -6.80315" fill="none" stroke="black"/>
<path d="M63.9961,138.305h -6.80315" fill="none" stroke="black"/>
<path d="M70.7992,130.621h -13.6063" fill="none" stroke="black"/>
<path d="M63.9961,122.938h -6.80315" fill="none" stroke="black"/>
<path d="M63.9961,115.254h -6.80315" fill="none" stroke="black"/>
<path d="M63.9961,107.57h -6.80315" fill="none" stroke="black"/>
<path d="M70.7992,99.8867h -13.6063" fill="none" stroke="black"/>
<path d="M63.9961,92.2031h -6.80315" fill="none" stroke="black"/>
<path d="M63.9961,84.5196h -6.80315" fill="none" stroke="black"/>
<path d="M63.9961,76.836h -6.80315" fill="none" stroke="black"/>
<path d="M70.7992,69.1524h -13.6063" fill="none" stroke="black"/>
<path d="M63.9961,61.4688h -6.80315" fill="none" stroke="black"/>
<path d="M63.9961,53.7852h -6.80315" fill="none" stroke="black"/>
<path d="M63.9961,46.1016h -6.80315" fill="none" stroke="black"/>
<path d="M70.7992,38.418h -13.6063" fill="none" stroke="black"/>
<text xml:space="preserve" x="47.6087" y="350.067" fill="black" font-size="12.836" font-family="Helvetica">0</text>
<text xml:space="preserve" x="33.801" y="319.202" fill="black" font-size="12.836" font-family="Helvetica">200</text>
<text xml:space="preserve" x="33.801" y="289.15" fill="black" font-size="12.836" font-family="Helvetica">400</text>
<text xml:space="preserve" x="33.801" y="258.286" fill="black" font-size="12.836" font-family="Helvetica">600</text>
<text xml:space="preserve" x="33.801" y="227.421" fill="black" font-size="12.836" font-family="Helvetica">800</text>
<text xml:space="preserve" x="27.3032" y="196.557" fill="black" font-size="12.836" font-family="Helvetica">1000</text>
<text xml:space="preserve" x="27.3032" y="165.693" fill="black" font-size="12.836" font-family="Helvetica">1200</text>
<text xml:space="preserve" x="27.3032" y="134.828" fill="black" font-size="12.836" font-family="Helvetica">1400</text>
<text xml:space="preserve" x="27.3032" y="103.964" fill="black" font-size="12.836" font-family="Helvetica">1600</text>
<text xml:space="preserve" x="27.3032" y="73.912" fill="black" font-size="12.836" font-family="Helvetica">1800</text>
<text xml:space="preserve" x="27.3032" y="43.0476" fill="black" font-size="12.836" font-family="Helvetica">2000</text>
<g transform="rotate(-90,15.1199,101.527)">
<text xml:space="preserve" x="15.1199" y="101.527" fill="black" font-size="12.836" font-family="Helvetica"> ADC Value</text>
</g>
<path d="M171.227,282.622v -0.555073" fill="none" stroke="black"/>
<path d="M169.602,282.067h 3.24888" fill="none" stroke="black"/>
<path d="M171.227,282.622v 0.555073" fill="none" stroke="black"/>
<path d="M169.602,283.177h 3.24888" fill="none" stroke="black"/>
<path d="M227.596,249.166v -0.555073" fill="none" stroke="black"/>
<path d="M225.971,248.611h 3.24888" fill="none" stroke="black"/>
<path d="M227.596,249.166v 0.555073" fill="none" stroke="black"/>
<path d="M225.971,249.721h 3.24888" fill="none" stroke="black"/>
<path d="M442.705,131.808v -0.169304" fill="none" stroke="black"/>
<path d="M441.08,131.638h 3.24888" fill="none" stroke="black"/>
<path d="M442.705,131.808v 0.169304" fill="none" stroke="black"/>
<path d="M441.08,131.977h 3.24888" fill="none" stroke="black"/>
<path d="M270.358,230.268v -0.218433" fill="none" stroke="black"/>
<path d="M268.734,230.049h 3.24888" fill="none" stroke="black"/>
<path d="M270.358,230.268v 0.218433" fill="none" stroke="black"/>
<path d="M268.734,230.486h 3.24888" fill="none" stroke="black"/>
<g fill="black">
<circle cx="171.227" cy="282.622" r="3.24888"/>
<circle cx="227.596" cy="249.166" r="3.24888"/>
<circle cx="442.705" cy="131.808" r="3.24888"/>
<circle cx="270.358" cy="230.268" r="3.24888"/>
</g>
<path d="M62.8404,345.762l 1.15566, -0.65029" fill="none" stroke="#ff0000" stroke-width="2"/>
<path d="M63.9961,345.112l 4.53543, -2.55208l 4.53543, -2.55208l 4.53543, -2.55208l 4.53543, -2.55208l 4.53543, -2.55208l 4.53543, -2.55208l 4.53543, -2.55208l 4.53543, -2.55208l 4.53543, -2.55208l 4.53543, -2.55208l 4.53543, -2.55208l 4.53543,
 -2.55208l 4.53543, -2.55208l 4.53543, -2.55208l 4.53543, -2.55208l 4.53543, -2.55208l 4.53543, -2.55208l 4.53543, -2.55208l 4.53543, -2.55208l 4.53543, -2.55208l 4.53543, -2.55208l 4.53543, -2.55208l 4.53543, -2.55208l 4.53543, -2.55208l 4.53543,
 -2.55208l 4.53543, -2.55208l 4.53543, -2.55208l 4.53543, -2.55208l 4.53543, -2.55208l 4.53543, -2.55208l 4.53543, -2.55208l 4.53543, -2.55208l 4.53543, -2.55208l 4.53543, -2.55208l 4.53543, -2.55208l 4.53543, -2.55208l 4.53543, -2.55208l 4.53543,
 -2.55208l 4.53543, -2.55208l 4.53543, -2.55208l 4.53543, -2.55208l 4.53543, -2.55208l 4.53543, -2.55208l 4.53543, -2.55208l 4.53543, -2.55208l 4.53543, -2.55208l 4.53543, -2.55208l 4.53543, -2.55208" fill="none" stroke="#ff0000" stroke-width="2"/>
<path d="M281.697,222.611l 4.53543, -2.55208l 4.53543, -2.55208l 4.53543, -2.55208l 4.53543, -2.55208l 4.53543, -2.55208l 4.53543, -2.55208l 4.53543, -2.55208l 4.53543, -2.55208l 4.53543, -2.55208l 4.53543, -2.55208l 4.53543, -2.55208l 4.53543,
 -2.55208l 4.53543, -2.55208l 4.53543, -2.55208l 4.53543, -2.55208l 4.53543, -2.55208l 4.53543, -2.55208l 4.53543, -2.55208l 4.53543, -2.55208l 4.53543, -2.55208l 4.53543, -2.55208l 4.53543, -2.55208l 4.53543, -2.55208l 4.53543, -2.55208l 4.53543,
 -2.55208l 4.53543, -2.55208l 4.53543, -2.55208l 4.53543, -2.55208l 4.53543, -2.55208l 4.53543, -2.55208l 4.53543, -2.55208l 4.53543, -2.55208l 4.53543, -2.55208l 4.53543, -2.55208l 4.53543, -2.55208l 4.53543, -2.55208l 4.53543, -2.55208l 4.53543,
 -2.55208l 4.53543, -2.55208l 4.53543, -2.55208l 4.53543, -2.55208l 4.53543, -2.55208l 4.53543, -2.55208l 4.53543, -2.55208l 4.53543, -2.55208l 4.53543, -2.55208l 4.53543, -2.55208l 4.53543, -2.55208l 4.53543, -2.55208" fill="none" stroke="#ff0000"
 stroke-width="2"/>
<path d="M503.933,97.5594l 4.53543, -2.55208" fill="none" stroke="#ff0000" stroke-width="2"/>
<text xml:space="preserve" x="227.109" y="18.681" fill="black" font-size="17.9813" font-family="Helvetica">17.6, 0.0, 26.3</text></svg>
