<?xml version="1.0" standalone="no"?>
<svg width="567.429" height="384.969" viewBox="0 0 567.429 384.969" xmlns="http://www.w3.org/2000/svg" shape-rendering="crispEdges">
<title>
img/week1/low_gain_clb/final.svg
</title>
<desc>
Creator: ROOT Version 6.22/09
CreationDate: Tue Jul 13 19:32:07 2021</desc>
<defs>
</defs>
<rect x="0.5" y="0" width="566.929" height="384.469" fill="white"/>
<rect x="57.1929" y="38.4469" width="453.543" height="307.575" fill="white"/>
<rect x="57.1929" y="38.4469" width="453.543" height="307.575" fill="none" stroke="black"/>
<rect x="57.1929" y="38.4469" width="453.543" height="307.575" fill="white"/>
<rect x="57.1929" y="38.4469" width="453.543" height="307.575" fill="none" stroke="black"/>
<path d="M57.1929,346.022h 453.543" fill="none" stroke="black"/>
<path d="M57.1929,336.795v 9.22726" fill="none" stroke="black"/>
<path d="M70.1513,341.409v 4.61363" fill="none" stroke="black"/>
<path d="M83.1097,341.409v 4.61363" fill="none" stroke="black"/>
<path d="M96.0681,341.409v 4.61363" fill="none" stroke="black"/>
<path d="M109.026,341.409v 4.61363" fill="none" stroke="black"/>
<path d="M121.985,336.795v 9.22726" fill="none" stroke="black"/>
<path d="M134.943,341.409v 4.61363" fill="none" stroke="black"/>
<path d="M147.902,341.409v 4.61363" fill="none" stroke="black"/>
<path d="M160.86,341.409v 4.61363" fill="none" stroke="black"/>
<path d="M173.818,341.409v 4.61363" fill="none" stroke="black"/>
<path d="M186.777,336.795v 9.22726" fill="none" stroke="black"/>
<path d="M199.735,341.409v 4.61363" fill="none" stroke="black"/>
<path d="M212.693,341.409v 4.61363" fill="none" stroke="black"/>
<path d="M225.652,341.409v 4.61363" fill="none" stroke="black"/>
<path d="M238.61,341.409v 4.61363" fill="none" stroke="black"/>
<path d="M251.569,336.795v 9.22726" fill="none" stroke="black"/>
<path d="M264.527,341.409v 4.61363" fill="none" stroke="black"/>
<path d="M277.485,341.409v 4.61363" fill="none" stroke="black"/>
<path d="M290.444,341.409v 4.61363" fill="none" stroke="black"/>
<path d="M303.402,341.409v 4.61363" fill="none" stroke="black"/>
<path d="M316.361,336.795v 9.22726" fill="none" stroke="black"/>
<path d="M329.319,341.409v 4.61363" fill="none" stroke="black"/>
<path d="M342.277,341.409v 4.61363" fill="none" stroke="black"/>
<path d="M355.236,341.409v 4.61363" fill="none" stroke="black"/>
<path d="M368.194,341.409v 4.61363" fill="none" stroke="black"/>
<path d="M381.152,336.795v 9.22726" fill="none" stroke="black"/>
<path d="M394.111,341.409v 4.61363" fill="none" stroke="black"/>
<path d="M407.069,341.409v 4.61363" fill="none" stroke="black"/>
<path d="M420.028,341.409v 4.61363" fill="none" stroke="black"/>
<path d="M432.986,341.409v 4.61363" fill="none" stroke="black"/>
<path d="M445.944,336.795v 9.22726" fill="none" stroke="black"/>
<path d="M458.903,341.409v 4.61363" fill="none" stroke="black"/>
<path d="M471.861,341.409v 4.61363" fill="none" stroke="black"/>
<path d="M484.819,341.409v 4.61363" fill="none" stroke="black"/>
<path d="M497.778,341.409v 4.61363" fill="none" stroke="black"/>
<path d="M510.736,336.795v 9.22726" fill="none" stroke="black"/>
<text xml:space="preserve" x="53.446" y="358.403" fill="black" font-size="12.8453" font-family="Helvetica">0</text>
<text xml:space="preserve" x="115.352" y="358.403" fill="black" font-size="12.8453" font-family="Helvetica">10</text>
<text xml:space="preserve" x="179.702" y="358.403" fill="black" font-size="12.8453" font-family="Helvetica">20</text>
<text xml:space="preserve" x="244.866" y="358.403" fill="black" font-size="12.8453" font-family="Helvetica">30</text>
<text xml:space="preserve" x="309.216" y="358.403" fill="black" font-size="12.8453" font-family="Helvetica">40</text>
<text xml:space="preserve" x="374.38" y="358.403" fill="black" font-size="12.8453" font-family="Helvetica">50</text>
<text xml:space="preserve" x="438.73" y="358.403" fill="black" font-size="12.8453" font-family="Helvetica">60</text>
<text xml:space="preserve" x="503.894" y="358.403" fill="black" font-size="12.8453" font-family="Helvetica">70</text>
<text xml:space="preserve" x="441.173" y="370.622" fill="black" font-size="12.8453" font-family="Helvetica">Energy [keV]</text>
<path d="M57.1929,346.022v -307.575" fill="none" stroke="black"/>
<path d="M70.7992,346.022h -13.6063" fill="none" stroke="black"/>
<path d="M63.9961,338.333h -6.80315" fill="none" stroke="black"/>
<path d="M63.9961,330.643h -6.80315" fill="none" stroke="black"/>
<path d="M63.9961,322.954h -6.80315" fill="none" stroke="black"/>
<path d="M70.7992,315.265h -13.6063" fill="none" stroke="black"/>
<path d="M63.9961,307.575h -6.80315" fill="none" stroke="black"/>
<path d="M63.9961,299.886h -6.80315" fill="none" stroke="black"/>
<path d="M63.9961,292.197h -6.80315" fill="none" stroke="black"/>
<path d="M70.7992,284.507h -13.6063" fill="none" stroke="black"/>
<path d="M63.9961,276.818h -6.80315" fill="none" stroke="black"/>
<path d="M63.9961,269.128h -6.80315" fill="none" stroke="black"/>
<path d="M63.9961,261.439h -6.80315" fill="none" stroke="black"/>
<path d="M70.7992,253.75h -13.6063" fill="none" stroke="black"/>
<path d="M63.9961,246.06h -6.80315" fill="none" stroke="black"/>
<path d="M63.9961,238.371h -6.80315" fill="none" stroke="black"/>
<path d="M63.9961,230.682h -6.80315" fill="none" stroke="black"/>
<path d="M70.7992,222.992h -13.6063" fill="none" stroke="black"/>
<path d="M63.9961,215.303h -6.80315" fill="none" stroke="black"/>
<path d="M63.9961,207.613h -6.80315" fill="none" stroke="black"/>
<path d="M63.9961,199.924h -6.80315" fill="none" stroke="black"/>
<path d="M70.7992,192.235h -13.6063" fill="none" stroke="black"/>
<path d="M63.9961,184.545h -6.80315" fill="none" stroke="black"/>
<path d="M63.9961,176.856h -6.80315" fill="none" stroke="black"/>
<path d="M63.9961,169.166h -6.80315" fill="none" stroke="black"/>
<path d="M70.7992,161.477h -13.6063" fill="none" stroke="black"/>
<path d="M63.9961,153.788h -6.80315" fill="none" stroke="black"/>
<path d="M63.9961,146.098h -6.80315" fill="none" stroke="black"/>
<path d="M63.9961,138.409h -6.80315" fill="none" stroke="black"/>
<path d="M70.7992,130.72h -13.6063" fill="none" stroke="black"/>
<path d="M63.9961,123.03h -6.80315" fill="none" stroke="black"/>
<path d="M63.9961,115.341h -6.80315" fill="none" stroke="black"/>
<path d="M63.9961,107.651h -6.80315" fill="none" stroke="black"/>
<path d="M70.7992,99.962h -13.6063" fill="none" stroke="black"/>
<path d="M63.9961,92.2726h -6.80315" fill="none" stroke="black"/>
<path d="M63.9961,84.5832h -6.80315" fill="none" stroke="black"/>
<path d="M63.9961,76.8938h -6.80315" fill="none" stroke="black"/>
<path d="M70.7992,69.2045h -13.6063" fill="none" stroke="black"/>
<path d="M63.9961,61.5151h -6.80315" fill="none" stroke="black"/>
<path d="M63.9961,53.8257h -6.80315" fill="none" stroke="black"/>
<path d="M63.9961,46.1363h -6.80315" fill="none" stroke="black"/>
<path d="M70.7992,38.4469h -13.6063" fill="none" stroke="black"/>
<text xml:space="preserve" x="47.7441" y="350.258" fill="black" font-size="12.8453" font-family="Helvetica">0</text>
<text xml:space="preserve" x="33.8967" y="320.119" fill="black" font-size="12.8453" font-family="Helvetica">200</text>
<text xml:space="preserve" x="33.8967" y="289.166" fill="black" font-size="12.8453" font-family="Helvetica">400</text>
<text xml:space="preserve" x="33.8967" y="258.213" fill="black" font-size="12.8453" font-family="Helvetica">600</text>
<text xml:space="preserve" x="33.8967" y="227.26" fill="black" font-size="12.8453" font-family="Helvetica">800</text>
<text xml:space="preserve" x="27.3803" y="197.122" fill="black" font-size="12.8453" font-family="Helvetica">1000</text>
<text xml:space="preserve" x="27.3803" y="166.169" fill="black" font-size="12.8453" font-family="Helvetica">1200</text>
<text xml:space="preserve" x="27.3803" y="135.216" fill="black" font-size="12.8453" font-family="Helvetica">1400</text>
<text xml:space="preserve" x="27.3803" y="104.263" fill="black" font-size="12.8453" font-family="Helvetica">1600</text>
<text xml:space="preserve" x="27.3803" y="73.3098" fill="black" font-size="12.8453" font-family="Helvetica">1800</text>
<text xml:space="preserve" x="27.3803" y="43.1713" fill="black" font-size="12.8453" font-family="Helvetica">2000</text>
<g transform="rotate(-90,15.162,101.819)">
<text xml:space="preserve" x="15.162" y="101.819" fill="black" font-size="12.8453" font-family="Helvetica"> ADC Value</text>
</g>
<path d="M171.227,282.835v -0.555492" fill="none" stroke="black"/>
<path d="M169.598,282.279h 3.25821" fill="none" stroke="black"/>
<path d="M171.227,282.835v 0.555492" fill="none" stroke="black"/>
<path d="M169.598,283.39h 3.25821" fill="none" stroke="black"/>
<path d="M227.596,249.354v -0.555492" fill="none" stroke="black"/>
<path d="M225.967,248.798h 3.25821" fill="none" stroke="black"/>
<path d="M227.596,249.354v 0.555492" fill="none" stroke="black"/>
<path d="M225.967,249.909h 3.25821" fill="none" stroke="black"/>
<path d="M442.705,131.907v -0.169431" fill="none" stroke="black"/>
<path d="M441.076,131.738h 3.25821" fill="none" stroke="black"/>
<path d="M442.705,131.907v 0.169431" fill="none" stroke="black"/>
<path d="M441.076,132.076h 3.25821" fill="none" stroke="black"/>
<path d="M270.358,230.441v -0.218597" fill="none" stroke="black"/>
<path d="M268.729,230.223h 3.25821" fill="none" stroke="black"/>
<path d="M270.358,230.441v 0.218597" fill="none" stroke="black"/>
<path d="M268.729,230.66h 3.25821" fill="none" stroke="black"/>
<g fill="black">
<circle cx="171.227" cy="282.835" r="3.25821"/>
<circle cx="227.596" cy="249.354" r="3.25821"/>
<circle cx="442.705" cy="131.907" r="3.25821"/>
<circle cx="270.358" cy="230.441" r="3.25821"/>
</g>
<text xml:space="preserve" x="226.946" y="18.7347" fill="black" font-size="18.0316" font-family="Helvetica">17.6, 0.0, 26.3</text></svg>
