<?xml version="1.0" standalone="no"?>
<svg width="567.429" height="384.68" viewBox="0 0 567.429 384.68" xmlns="http://www.w3.org/2000/svg" shape-rendering="crispEdges">
<title>
img/week1/standardizedHistByTime_OfBg.svg
</title>
<desc>
Creator: ROOT Version 6.22/09
CreationDate: Tue Jul 13 15:06:54 2021</desc>
<defs>
</defs>
<rect x="0.5" y="0" width="566.929" height="384.18" fill="white"/>
<rect x="57.1929" y="38.418" width="453.543" height="307.344" fill="white"/>
<rect x="57.1929" y="38.418" width="453.543" height="307.344" fill="none" stroke="black"/>
<path d="M57.1929,345.762h 63.897v -0.0149022h 1.25288v -0.625891h 0.626441v -31.5628h 0.626441v -163.551h 0.626441v -96.9535h 0.626441v 56.0023h 0.626441v 56.7475h 0.626441v -1.74355h 0.626441v 22.845h 0.626441v 37.777h 0.626441v 31.5032h 0.626441v
 4.8432h 0.626441v 6.12479h 0.626441v 13.7398h 0.626441v 17.6889h 0.626441v 8.47933h 0.626441v 3.11455h 0.626441v 4.67928h 0.626441v 7.01892h 0.626441v 5.72243h 0.626441v 2.51847h 0.626441v 0.998445h 0.626441v 2.63768h 0.626441v 2.7271h 0.626441v
 2.7718h 0.626441v 0.20863h 0.626441v 0.461967h 0.626441v 1.47531h 0.626441v 1.04315h 0.626441v 0.625891h 0.626441v 0.0298043h 0.626441v 0.417261h 0.626441v 0.357652h 0.626441v 0.715304h 0.626441v 0.13412h 0.626441v 0.0447065h 0.626441v 0.178826h
 0.626441v 0.0745108h 0.626441v 0.268239h 1.25288v 0.0298043h 0.626441v 0.149022h 0.626441v -0.119217h 0.626441v 0.178826h 0.626441v 0.0596087h 0.626441v -0.149022h 0.626441v 0.119217h 0.626441v -0.0447065h 0.626441v 0.119217h 1.25288v -0.0447065h
 0.626441v 0.0298043h 0.626441v 0.0447065h 0.626441v -0.0596087h 0.626441v 0.104315h 0.626441v -0.089413h 0.626441v 0.104315h 0.626441v -0.0298043h 0.626441v -0.0298043h 0.626441v -0.089413h 0.626441v 0.0596087h 0.626441v 0.0596087h 0.626441v
 -0.0149022h 1.25288v -0.0298043h 0.626441v 0.0596087h 0.626441v 0.0149022h 0.626441v -0.0447065h 0.626441v -0.0447065h 0.626441v -0.0298043h 0.626441v 0.119217h 0.626441v -0.119217h 0.626441v -0.0149022h 0.626441v 0.0745108h 0.626441v 0.0745108h
 0.626441v -0.13412h 0.626441v 0.0596087h 0.626441v 0.0149022h 0.626441v -0.0149022h 0.626441v 0.0298043h 1.25288v -0.0745108h 0.626441v 0.0447065h 0.626441v 0.0298043h 0.626441v -0.0149022h 0.626441v -0.0596087h 0.626441v 0.104315h 0.626441v
 -0.0447065h 0.626441v 0.0149022h 0.626441v -0.119217h 0.626441v 0.104315h 1.25288v -0.0149022h 0.626441v 0.0298043h 0.626441v -0.0298043h 1.25288v -0.0149022h 0.626441v 0.0149022h 0.626441v 0.0149022h 0.626441v 0.0149022h 1.25288v -0.0745108h
 0.626441v 0.0596087h 0.626441v -0.104315h 0.626441v 0.0745108h 0.626441v -0.0447065h 0.626441v 0.104315h 1.25288v -0.0596087h 0.626441v 0.0149022h 0.626441v 0.0149022h 1.87932v -0.0149022h 0.626441v -0.0447065h 0.626441v 0.0298043h 0.626441v
 -0.0149022h 0.626441v 0.0447065h 0.626441v 0.0447065h 0.626441v -0.149022h 0.626441v 0.13412h 0.626441v 0.0149022h 1.25288v -0.104315h 0.626441v 0.0596087h 0.626441v 0.0745108h 0.626441v -0.0745108h 0.626441v -0.0447065h 0.626441v -0.0149022h
 0.626441v -0.0149022h 0.626441v 0.0745108h 0.626441v -0.0298043h 0.626441v 0.0298043h 0.626441v -0.0298043h 0.626441v -0.0447065h 0.626441v 0.0596087h 1.25288v 0.0596087h 0.626441v -0.0447065h 0.626441v -0.089413h 0.626441v 0.104315h 0.626441v
 -0.0447065h 0.626441v -0.0298043h 0.626441v 0.0596087h 0.626441v 0.0149022h 0.626441v 0.0149022h 0.626441v -0.0745108h 0.626441v 0.0298043h 0.626441v 0.0298043h 0.626441v -0.0596087h 0.626441v 0.0745108h 0.626441v -0.0596087h 0.626441v 0.0298043h
 0.626441v -0.0149022h 0.626441v 0.0149022h 0.626441v 0.0149022h 0.626441v -0.0447065h 0.626441v 0.0447065h 0.626441v -0.0447065h 0.626441v 0.0149022h 0.626441v 0.0149022h 0.626441v 0.0149022h 0.626441v 0.0298043h 0.626441v -0.0745108h 0.626441v
 0.0298043h 1.25288v 0.0149022h 0.626441v 0.0149022h 0.626441v -0.0149022h 0.626441v 0.0149022h 0.626441v -0.0745108h 0.626441v -0.0447065h 0.626441v 0.13412h 0.626441v -0.0596087h 0.626441v 0.0298043h 0.626441v -0.0149022h 0.626441v 0.0447065h
 1.25288v -0.0149022h 0.626441v -0.0596087h 0.626441v 0.0447065h 0.626441v -0.0149022h 0.626441v 0.0298043h 0.626441v 0.0149022h 0.626441v 0.0149022h 0.626441v -0.0447065h 0.626441v -0.0596087h 0.626441v 0.0745108h 0.626441v 0.0298043h 1.25288v
 -0.0447065h 0.626441v -0.0149022h 0.626441v 0.0447065h 0.626441v -0.0596087h 0.626441v 0.0596087h 0.626441v -0.104315h 0.626441v 0.0149022h 0.626441v 0.119217h 0.626441v -0.0596087h 1.25288v 0.0298043h 0.626441v -0.0745108h 0.626441v 0.0298043h
 0.626441v 0.0298043h 0.626441v -0.0596087h 0.626441v 0.0745108h 0.626441v -0.0447065h 0.626441v 0.089413h 0.626441v -0.0745108h 2.50576v -0.0447065h 0.626441v 0.0596087h 0.626441v -0.0149022h 1.25288v -0.0447065h 1.25288v 0.0298043h 0.626441v
 -0.0447065h 0.626441v 0.0298043h 0.626441v 0.0596087h 0.626441v -0.0149022h 0.626441v 0.0149022h 0.626441v -0.0149022h 0.626441v -0.0447065h 0.626441v 0.0596087h 0.626441v 0.0149022h 1.25288v -0.119217h 0.626441v 0.089413h 0.626441v -0.0298043h
 0.626441v 0.0298043h 0.626441v -0.0149022h 0.626441v 0.0149022h 0.626441v 0.0149022h 1.25288v 0.0149022h 0.626441v -0.0745108h 0.626441v -0.0149022h 0.626441v 0.0745108h 0.626441v -0.089413h 1.25288v 0.0745108h 0.626441v 0.0149022h 0.626441v
 -0.0149022h 0.626441v -0.0298043h 0.626441v -0.0149022h 0.626441v 0.0298043h 0.626441v -0.0149022h 0.626441v 0.0298043h 0.626441v -0.0149022h 0.626441v -0.0298043h 0.626441v 0.0149022h 0.626441v 0.0447065h 0.626441v -0.0745108h 0.626441v 0.0298043h
 0.626441v 0.0149022h 0.626441v 0.0596087h 0.626441v -0.0745108h 0.626441v -0.089413h 0.626441v 0.089413h 0.626441v -0.0149022h 0.626441v 0.0298043h 1.25288v 0.0298043h 1.25288v -0.0447065h 0.626441v 0.0596087h 0.626441v -0.0745108h 0.626441v
 -0.0149022h 0.626441v 0.0745108h 0.626441v -0.0447065h 0.626441v 0.0596087h 1.25288v -0.0596087h 0.626441v 0.0596087h 0.626441v -0.104315h 0.626441v 0.0298043h 0.626441v 0.0149022h 0.626441v 0.0149022h 0.626441v -0.0298043h 0.626441v 0.0447065h
 0.626441v -0.0447065h 0.626441v 0.0745108h 0.626441v -0.0447065h 0.626441v -0.0298043h 0.626441v 0.0596087h 0.626441v -0.104315h 0.626441v 0.0298043h 0.626441v 0.0149022h 0.626441v 0.0447065h 0.626441v -0.0149022h 0.626441v -0.0298043h 0.626441v
 0.0298043h 0.626441v -0.0149022h 0.626441v 0.0447065h 1.25288v -0.0745108h 0.626441v -0.0149022h 0.626441v 0.089413h 0.626441v 0.0149022h 0.626441v -0.089413h 0.626441v 0.0447065h 0.626441v -0.0298043h 0.626441v 0.0596087h 1.25288v -0.0149022h
 1.25288v -0.0447065h 1.25288v 0.0298043h 0.626441v -0.0149022h 1.25288v 0.0298043h 0.626441v -0.089413h 0.626441v 0.104315h 0.626441v -0.0596087h 0.626441v 0.0149022h 0.626441v -0.0298043h 0.626441v 0.0298043h 0.626441v -0.0298043h 0.626441v
 0.0298043h 0.626441v 0.0149022h 0.626441v -0.0298043h 0.626441v -0.0298043h 0.626441v 0.0596087h 0.626441v 0.0149022h 0.626441v -0.0596087h 1.25288v 0.0596087h 0.626441v -0.0298043h 0.626441v 0.0298043h 0.626441v -0.0298043h 0.626441v -0.0149022h
 0.626441v 0.0447065h 0.626441v -0.0149022h 0.626441v -0.0149022h 0.626441v 0.0149022h 0.626441v -0.0149022h 0.626441v 0.0149022h 0.626441v -0.0149022h 0.626441v 0.0745108h 1.25288v -0.0745108h 0.626441v 0.0298043h 0.626441v 0.0149022h 0.626441v
 0.0149022h 0.626441v -0.0447065h 0.626441v 0.0596087h 0.626441v -0.0447065h 0.626441v -0.0596087h 0.626441v 0.0596087h 0.626441v 0.0298043h 0.626441v -0.0298043h 0.626441v 0.0298043h 0.626441v -0.0596087h 0.626441v 0.0745108h 0.626441v -0.0745108h
 0.626441v -0.0149022h 0.626441v 0.0745108h 0.626441v -0.0298043h 1.25288v -0.0447065h 0.626441v 0.0298043h 0.626441v 0.0298043h 0.626441v -0.0447065h 0.626441v 0.0298043h 1.25288v 0.0149022h 0.626441v -0.0447065h 0.626441v -0.0298043h 0.626441v
 0.0447065h 1.25288v 0.0447065h 0.626441v -0.0298043h 0.626441v -0.0298043h 0.626441v 0.0149022h 0.626441v 0.0149022h 0.626441v -0.0298043h 0.626441v 0.0149022h 0.626441v 0.0298043h 0.626441v -0.0149022h 0.626441v 0.0298043h 0.626441v 0.0149022h
 1.25288v -0.0596087h 0.626441v 0.0298043h 0.626441v -0.0447065h 0.626441v 0.0596087h 0.626441v 0.0149022h 0.626441v -0.0447065h 2.50576v -0.0149022h 0.626441v -0.0149022h 0.626441v 0.0447065h 0.626441v -0.0149022h 0.626441v 0.0447065h 0.626441v
 -0.089413h 0.626441v 0.0298043h 0.626441v 0.0447065h 1.25288v -0.0149022h 0.626441v -0.0298043h 0.626441v 0.0596087h 0.626441v -0.0596087h 0.626441v 0.0149022h 0.626441v -0.0149022h 0.626441v 0.0149022h 0.626441v 0.0149022h 1.25288v 0.0149022h
 0.626441v -0.0596087h 0.626441v 0.0149022h 0.626441v 0.0149022h 0.626441v 0.0298043h 1.25288v -0.0447065h 0.626441v 0.0298043h 0.626441v 0.0447065h 0.626441v -0.0596087h 0.626441v 0.0447065h 0.626441v -0.0745108h 0.626441v 0.0745108h 0.626441v
 -0.0745108h 0.626441v -0.0447065h 0.626441v 0.104315h 0.626441v -0.0149022h 0.626441v -0.0149022h 0.626441v 0.0149022h 1.25288v 0.0149022h 0.626441v -0.0298043h 0.626441v -0.0298043h 0.626441v 0.0149022h 0.626441v -0.0298043h 0.626441v 0.0745108h
 0.626441v -0.0149022h 0.626441v -0.0447065h 0.626441v 0.0596087h 1.25288v -0.0149022h 0.626441v 0.0298043h 0.626441v -0.0298043h 0.626441v -0.0447065h 0.626441v 0.0596087h 0.626441v 0.0149022h 0.626441v -0.0596087h 0.626441v 0.0596087h 0.626441v
 -0.0447065h 0.626441v 0.0149022h 0.626441v -0.0149022h 0.626441v -0.0447065h 0.626441v 0.089413h 0.626441v -0.0596087h 0.626441v 0.0149022h 0.626441v 0.0298043h 0.626441v -0.0447065h 0.626441v 0.0298043h 0.626441v -0.0447065h 0.626441v 0.0447065h
 0.626441v -0.104315h 0.626441v 0.119217h 0.626441v -0.0149022h 0.626441v 0.0298043h 0.626441v -0.0298043h 0.626441v -0.0596087h 0.626441v 0.0298043h 0.626441v 0.0298043h 0.626441v -0.0298043h 0.626441v 0.0447065h 0.626441v -0.0447065h 0.626441v
 0.0447065h 0.626441v 0.0149022h 0.626441v -0.0149022h 0.626441v 0.0298043h 0.626441v -0.0149022h 0.626441v -0.089413h 0.626441v 0.104315h 0.626441v -0.0596087h 0.626441v 0.0298043h 0.626441v -0.0596087h 0.626441v 0.0596087h 0.626441v 0.0149022h
 1.87932v -0.0149022h 0.626441v 0.0298043h 0.626441v -0.0298043h 0.626441v -0.0149022h 1.25288v 0.0298043h 0.626441v -0.0149022h 0.626441v -0.0149022h 0.626441v 0.0298043h 0.626441v -0.0298043h 1.25288v 0.0149022h 0.626441v -0.0298043h 0.626441v
 -0.0447065h 0.626441v 0.0745108h 0.626441v 0.0149022h 0.626441v 0.0149022h 0.626441v -0.0447065h 1.25288v 0.0447065h 0.626441v -0.0447065h 1.25288v -0.0596087h 0.626441v 0.0596087h 0.626441v 0.0149022h 0.626441v 0.0149022h 1.25288v -0.0298043h
 0.626441v -0.0298043h 0.626441v 0.0596087h 0.626441v -0.0149022h 1.25288v -0.0298043h 0.626441v 0.0447065h 0.626441v -0.0149022h 0.626441v -0.0596087h 0.626441v 0.0745108h 0.626441v -0.0596087h 0.626441v 0.0149022h 1.87932v 0.0149022h 0.626441v
 0.0298043h 0.626441v 0.0149022h 0.626441v -0.0447065h 0.626441v 0.0298043h 0.626441v -0.0447065h 0.626441v 0.0298043h 1.25288v 0.0298043h 0.626441v -0.0149022h 0.626441v -0.0596087h 0.626441v 0.0596087h 0.626441v -0.0298043h 0.626441v 0.0298043h
 1.25288v -0.0149022h 0.626441v -0.0149022h 0.626441v 0.0447065h 0.626441v -0.0447065h 0.626441v 0.0149022h 0.626441v -0.0149022h 0.626441v 0.0298043h 0.626441v -0.089413h 0.626441v 0.0596087h 1.25288v 0.0149022h 1.25288v -0.0298043h 0.626441v
 0.0298043h 0.626441v 0.0149022h 0.626441v -0.0149022h 1.87932v 0.0149022h 0.626441v -0.0149022h 0.626441v -0.0149022h 0.626441v -0.0149022h 0.626441v 0.0149022h 0.626441v 0.0447065h 0.626441v -0.0298043h 0.626441v 0.0149022h 0.626441v -0.0745108h
 0.626441v 0.0149022h 0.626441v 0.0149022h 0.626441v -0.193728h 0.626441v -1.90748h 0.626441v -7.80874h 0.626441v 0.938837h 0.626441v 2.0267h 0.626441v -0.372554h 0.626441v 1.31139h 0.626441v 2.16081h 0.626441v 0.998445h 0.626441v 0.596087h 0.626441v
 0.178826h 0.626441v 0.149022h 0.626441v 0.476869h 0.626441v -0.119217h 0.626441v -0.193728h 0.626441v -0.0149022h 0.626441v 0.536478h 0.626441v 0.0745108h 0.626441v 0.193728h 0.626441v -0.596087h 1.25288v 0.283141h 0.626441v 0.0298043h 0.626441v
 0.0149022h 0.626441v -0.104315h 0.626441v 0.178826h 0.626441v -0.0745108h 0.626441v 0.0596087h 0.626441v 0.0745108h 0.626441v -0.193728h 0.626441v 0.461967h 0.626441v -0.0298043h 0.626441v -0.298043h 0.626441v 0.119217h 0.626441v 0.149022h 0.626441v
 0.447065h 0.626441v -0.268239h 0.626441v -0.0298043h 0.626441v 0.0447065h 0.626441v 0.089413h 0.626441v 0.149022h 0.626441v 0.0447065h 0.626441v -0.104315h 0.626441v 0.13412h 0.626441v 0.178826h 0.626441v 0.149022h 0.626441v 0.0447065h 0.626441v
 0.0596087h 0.626441" fill="none" stroke="#000099"/>
<path d="M57.1929,345.762h 453.543" fill="none" stroke="black"/>
<path d="M57.8194,336.541v 9.22031" fill="none" stroke="black"/>
<path d="M78.7007,341.152v 4.61016" fill="none" stroke="black"/>
<path d="M99.5821,341.152v 4.61016" fill="none" stroke="black"/>
<path d="M120.463,341.152v 4.61016" fill="none" stroke="black"/>
<path d="M141.345,341.152v 4.61016" fill="none" stroke="black"/>
<path d="M162.226,336.541v 9.22031" fill="none" stroke="black"/>
<path d="M183.108,341.152v 4.61016" fill="none" stroke="black"/>
<path d="M203.989,341.152v 4.61016" fill="none" stroke="black"/>
<path d="M224.87,341.152v 4.61016" fill="none" stroke="black"/>
<path d="M245.752,341.152v 4.61016" fill="none" stroke="black"/>
<path d="M266.633,336.541v 9.22031" fill="none" stroke="black"/>
<path d="M287.514,341.152v 4.61016" fill="none" stroke="black"/>
<path d="M308.396,341.152v 4.61016" fill="none" stroke="black"/>
<path d="M329.277,341.152v 4.61016" fill="none" stroke="black"/>
<path d="M350.159,341.152v 4.61016" fill="none" stroke="black"/>
<path d="M371.04,336.541v 9.22031" fill="none" stroke="black"/>
<path d="M391.921,341.152v 4.61016" fill="none" stroke="black"/>
<path d="M412.803,341.152v 4.61016" fill="none" stroke="black"/>
<path d="M433.684,341.152v 4.61016" fill="none" stroke="black"/>
<path d="M454.565,341.152v 4.61016" fill="none" stroke="black"/>
<path d="M475.447,336.541v 9.22031" fill="none" stroke="black"/>
<path d="M57.8194,336.541v 9.22031" fill="none" stroke="black"/>
<path d="M475.447,336.541v 9.22031" fill="none" stroke="black"/>
<path d="M496.328,341.152v 4.61016" fill="none" stroke="black"/>
<text xml:space="preserve" x="54.1065" y="358.189" fill="black" font-size="12.836" font-family="Helvetica">0</text>
<text xml:space="preserve" x="151.573" y="358.189" fill="black" font-size="12.836" font-family="Helvetica">500</text>
<text xml:space="preserve" x="252.288" y="358.189" fill="black" font-size="12.836" font-family="Helvetica">1000</text>
<text xml:space="preserve" x="357.064" y="358.189" fill="black" font-size="12.836" font-family="Helvetica">1500</text>
<text xml:space="preserve" x="461.028" y="358.189" fill="black" font-size="12.836" font-family="Helvetica">2000</text>
<text xml:space="preserve" x="435.85" y="371.996" fill="black" font-size="12.836" font-family="Helvetica">Entries / Time</text>
<path d="M57.1929,345.762v -307.344" fill="none" stroke="black"/>
<path d="M70.7992,345.762h -13.6063" fill="none" stroke="black"/>
<path d="M63.9961,333.585h -6.80315" fill="none" stroke="black"/>
<path d="M63.9961,321.408h -6.80315" fill="none" stroke="black"/>
<path d="M63.9961,309.231h -6.80315" fill="none" stroke="black"/>
<path d="M63.9961,297.054h -6.80315" fill="none" stroke="black"/>
<path d="M70.7992,284.877h -13.6063" fill="none" stroke="black"/>
<path d="M63.9961,272.7h -6.80315" fill="none" stroke="black"/>
<path d="M63.9961,260.523h -6.80315" fill="none" stroke="black"/>
<path d="M63.9961,248.346h -6.80315" fill="none" stroke="black"/>
<path d="M63.9961,236.169h -6.80315" fill="none" stroke="black"/>
<path d="M70.7992,223.992h -13.6063" fill="none" stroke="black"/>
<path d="M63.9961,211.815h -6.80315" fill="none" stroke="black"/>
<path d="M63.9961,199.638h -6.80315" fill="none" stroke="black"/>
<path d="M63.9961,187.461h -6.80315" fill="none" stroke="black"/>
<path d="M63.9961,175.284h -6.80315" fill="none" stroke="black"/>
<path d="M70.7992,163.107h -13.6063" fill="none" stroke="black"/>
<path d="M63.9961,150.93h -6.80315" fill="none" stroke="black"/>
<path d="M63.9961,138.753h -6.80315" fill="none" stroke="black"/>
<path d="M63.9961,126.576h -6.80315" fill="none" stroke="black"/>
<path d="M63.9961,114.399h -6.80315" fill="none" stroke="black"/>
<path d="M70.7992,102.222h -13.6063" fill="none" stroke="black"/>
<path d="M63.9961,90.0446h -6.80315" fill="none" stroke="black"/>
<path d="M63.9961,77.8676h -6.80315" fill="none" stroke="black"/>
<path d="M63.9961,65.6906h -6.80315" fill="none" stroke="black"/>
<path d="M63.9961,53.5136h -6.80315" fill="none" stroke="black"/>
<path d="M70.7992,41.3366h -13.6063" fill="none" stroke="black"/>
<path d="M70.7992,41.3366h -13.6063" fill="none" stroke="black"/>
<text xml:space="preserve" x="47.6087" y="350.067" fill="black" font-size="12.836" font-family="Helvetica">0</text>
<text xml:space="preserve" x="30.5521" y="289.15" fill="black" font-size="12.836" font-family="Helvetica">0.05</text>
<text xml:space="preserve" x="39.4865" y="228.234" fill="black" font-size="12.836" font-family="Helvetica">0.1</text>
<text xml:space="preserve" x="30.5521" y="167.317" fill="black" font-size="12.836" font-family="Helvetica">0.15</text>
<text xml:space="preserve" x="37.0499" y="106.401" fill="black" font-size="12.836" font-family="Helvetica">0.2</text>
<text xml:space="preserve" x="30.5521" y="45.4843" fill="black" font-size="12.836" font-family="Helvetica">0.25</text>
<g transform="rotate(-90,17.5566,69.8509)">
<text xml:space="preserve" x="17.5566" y="69.8509" fill="black" font-size="12.836" font-family="Helvetica">Event</text>
</g>
<text xml:space="preserve" x="251.476" y="17.8688" fill="black" font-size="18.7414" font-family="Helvetica">Bg_015</text>
<rect x="442.705" y="24.9717" width="113.386" height="61.4688" fill="white"/>
<path d="M442.705,86.4405h 113.386" fill="none" stroke="black"/>
<path d="M556.091,86.4405v -61.4688" fill="none" stroke="black"/>
<path d="M556.091,24.9717h -113.386" fill="none" stroke="black"/>
<path d="M442.705,24.9717v 61.4688" fill="none" stroke="black"/>
<text xml:space="preserve" x="476.461" y="36.5499" fill="black" font-size="13.4705" font-family="Helvetica">Bg_015</text>
<path d="M442.705,40.3389h 113.386" fill="none" stroke="black"/>
<text xml:space="preserve" x="448.033" y="52.7943" fill="black" font-size="12.4124" font-family="Helvetica">Entries </text>
<text xml:space="preserve" x="506.513" y="52.7943" fill="black" font-size="12.4124" font-family="Helvetica"> 144376</text>
<text xml:space="preserve" x="448.033" y="68.2264" fill="black" font-size="12.4124" font-family="Helvetica">Mean  </text>
<text xml:space="preserve" x="515.447" y="68.2264" fill="black" font-size="12.4124" font-family="Helvetica">  420.1</text>
<text xml:space="preserve" x="448.033" y="82.8464" fill="black" font-size="12.4124" font-family="Helvetica">Std Dev   </text>
<text xml:space="preserve" x="513.01" y="82.8464" fill="black" font-size="12.4124" font-family="Helvetica">  366.7</text>
<text xml:space="preserve" x="251.476" y="17.8688" fill="black" font-size="18.7414" font-family="Helvetica">Bg_015</text></svg>
