<?xml version="1.0" standalone="no"?>
<svg width="567.429" height="384.969" viewBox="0 0 567.429 384.969" xmlns="http://www.w3.org/2000/svg" shape-rendering="crispEdges">
<title>
img/week1/waveforms/Am_007_1405.svg
</title>
<desc>
Creator: ROOT Version 6.22/09
CreationDate: Sun Jul 11 15:22:40 2021</desc>
<defs>
</defs>
<rect x="0.5" y="0" width="566.929" height="384.469" fill="white"/>
<rect x="57.1929" y="38.4469" width="453.543" height="307.575" fill="white"/>
<rect x="57.1929" y="38.4469" width="453.543" height="307.575" fill="none" stroke="black"/>
<path d="M57.1929,346.022h 453.543" fill="none" stroke="black"/>
<path d="M57.1929,336.795v 9.22726" fill="none" stroke="black"/>
<path d="M77.345,341.409v 4.61363" fill="none" stroke="black"/>
<path d="M97.4971,341.409v 4.61363" fill="none" stroke="black"/>
<path d="M117.649,341.409v 4.61363" fill="none" stroke="black"/>
<path d="M137.801,336.795v 9.22726" fill="none" stroke="black"/>
<path d="M157.953,341.409v 4.61363" fill="none" stroke="black"/>
<path d="M178.106,341.409v 4.61363" fill="none" stroke="black"/>
<path d="M198.258,341.409v 4.61363" fill="none" stroke="black"/>
<path d="M218.41,336.795v 9.22726" fill="none" stroke="black"/>
<path d="M238.562,341.409v 4.61363" fill="none" stroke="black"/>
<path d="M258.714,341.409v 4.61363" fill="none" stroke="black"/>
<path d="M278.866,341.409v 4.61363" fill="none" stroke="black"/>
<path d="M299.018,336.795v 9.22726" fill="none" stroke="black"/>
<path d="M319.17,341.409v 4.61363" fill="none" stroke="black"/>
<path d="M339.322,341.409v 4.61363" fill="none" stroke="black"/>
<path d="M359.475,341.409v 4.61363" fill="none" stroke="black"/>
<path d="M379.627,336.795v 9.22726" fill="none" stroke="black"/>
<path d="M399.779,341.409v 4.61363" fill="none" stroke="black"/>
<path d="M419.931,341.409v 4.61363" fill="none" stroke="black"/>
<path d="M440.083,341.409v 4.61363" fill="none" stroke="black"/>
<path d="M460.235,336.795v 9.22726" fill="none" stroke="black"/>
<path d="M460.235,336.795v 9.22726" fill="none" stroke="black"/>
<path d="M480.387,341.409v 4.61363" fill="none" stroke="black"/>
<path d="M500.539,341.409v 4.61363" fill="none" stroke="black"/>
<text xml:space="preserve" x="53.446" y="358.403" fill="black" font-size="12.8453" font-family="Helvetica">0</text>
<text xml:space="preserve" x="126.756" y="358.403" fill="black" font-size="12.8453" font-family="Helvetica">200</text>
<text xml:space="preserve" x="207.397" y="358.403" fill="black" font-size="12.8453" font-family="Helvetica">400</text>
<text xml:space="preserve" x="288.037" y="358.403" fill="black" font-size="12.8453" font-family="Helvetica">600</text>
<text xml:space="preserve" x="368.678" y="358.403" fill="black" font-size="12.8453" font-family="Helvetica">800</text>
<text xml:space="preserve" x="446.061" y="358.403" fill="black" font-size="12.8453" font-family="Helvetica">1000</text>
<path d="M57.1929,346.022v -307.575" fill="none" stroke="black"/>
<path d="M70.7992,335.496h -13.6063" fill="none" stroke="black"/>
<path d="M63.9961,327.629h -6.80315" fill="none" stroke="black"/>
<path d="M63.9961,319.762h -6.80315" fill="none" stroke="black"/>
<path d="M63.9961,311.894h -6.80315" fill="none" stroke="black"/>
<path d="M70.7992,304.027h -13.6063" fill="none" stroke="black"/>
<path d="M63.9961,296.16h -6.80315" fill="none" stroke="black"/>
<path d="M63.9961,288.293h -6.80315" fill="none" stroke="black"/>
<path d="M63.9961,280.426h -6.80315" fill="none" stroke="black"/>
<path d="M70.7992,272.559h -13.6063" fill="none" stroke="black"/>
<path d="M63.9961,264.691h -6.80315" fill="none" stroke="black"/>
<path d="M63.9961,256.824h -6.80315" fill="none" stroke="black"/>
<path d="M63.9961,248.957h -6.80315" fill="none" stroke="black"/>
<path d="M70.7992,241.09h -13.6063" fill="none" stroke="black"/>
<path d="M63.9961,233.223h -6.80315" fill="none" stroke="black"/>
<path d="M63.9961,225.355h -6.80315" fill="none" stroke="black"/>
<path d="M63.9961,217.488h -6.80315" fill="none" stroke="black"/>
<path d="M70.7992,209.621h -13.6063" fill="none" stroke="black"/>
<path d="M63.9961,201.754h -6.80315" fill="none" stroke="black"/>
<path d="M63.9961,193.887h -6.80315" fill="none" stroke="black"/>
<path d="M63.9961,186.02h -6.80315" fill="none" stroke="black"/>
<path d="M70.7992,178.152h -13.6063" fill="none" stroke="black"/>
<path d="M63.9961,170.285h -6.80315" fill="none" stroke="black"/>
<path d="M63.9961,162.418h -6.80315" fill="none" stroke="black"/>
<path d="M63.9961,154.551h -6.80315" fill="none" stroke="black"/>
<path d="M70.7992,146.684h -13.6063" fill="none" stroke="black"/>
<path d="M63.9961,138.816h -6.80315" fill="none" stroke="black"/>
<path d="M63.9961,130.949h -6.80315" fill="none" stroke="black"/>
<path d="M63.9961,123.082h -6.80315" fill="none" stroke="black"/>
<path d="M70.7992,115.215h -13.6063" fill="none" stroke="black"/>
<path d="M63.9961,107.348h -6.80315" fill="none" stroke="black"/>
<path d="M63.9961,99.4805h -6.80315" fill="none" stroke="black"/>
<path d="M63.9961,91.6133h -6.80315" fill="none" stroke="black"/>
<path d="M70.7992,83.7462h -13.6063" fill="none" stroke="black"/>
<path d="M63.9961,75.879h -6.80315" fill="none" stroke="black"/>
<path d="M63.9961,68.0118h -6.80315" fill="none" stroke="black"/>
<path d="M63.9961,60.1446h -6.80315" fill="none" stroke="black"/>
<path d="M70.7992,52.2774h -13.6063" fill="none" stroke="black"/>
<path d="M70.7992,335.496h -13.6063" fill="none" stroke="black"/>
<path d="M63.9961,343.363h -6.80315" fill="none" stroke="black"/>
<path d="M70.7992,52.2774h -13.6063" fill="none" stroke="black"/>
<path d="M63.9961,44.4102h -6.80315" fill="none" stroke="black"/>
<text xml:space="preserve" x="33.8967" y="339.669" fill="black" font-size="12.8453" font-family="Helvetica">400</text>
<text xml:space="preserve" x="26.5657" y="339.669" fill="black" font-size="12.8453" font-family="Times">&#8722;</text>
<text xml:space="preserve" x="33.8967" y="308.716" fill="black" font-size="12.8453" font-family="Helvetica">200</text>
<text xml:space="preserve" x="26.5657" y="308.716" fill="black" font-size="12.8453" font-family="Times">&#8722;</text>
<text xml:space="preserve" x="47.7441" y="276.948" fill="black" font-size="12.8453" font-family="Helvetica">0</text>
<text xml:space="preserve" x="33.8967" y="245.181" fill="black" font-size="12.8453" font-family="Helvetica">200</text>
<text xml:space="preserve" x="33.8967" y="214.228" fill="black" font-size="12.8453" font-family="Helvetica">400</text>
<text xml:space="preserve" x="33.8967" y="182.46" fill="black" font-size="12.8453" font-family="Helvetica">600</text>
<text xml:space="preserve" x="33.8967" y="151.507" fill="black" font-size="12.8453" font-family="Helvetica">800</text>
<text xml:space="preserve" x="27.3803" y="119.739" fill="black" font-size="12.8453" font-family="Helvetica">1000</text>
<text xml:space="preserve" x="27.3803" y="87.9718" fill="black" font-size="12.8453" font-family="Helvetica">1200</text>
<text xml:space="preserve" x="27.3803" y="57.0187" fill="black" font-size="12.8453" font-family="Helvetica">1400</text>
<text xml:space="preserve" x="252.197" y="18.7347" fill="black" font-size="16.9898" font-family="Helvetica">Ev.1405</text>
<path d="M57.1929,278.38l 0.403042, -1.57344l 0.403042, -2.83219l 0.403042, 4.72031l 0.403042, 5.19234l 0.403042, 1.10141l 0.403042, 1.88812l 0.403042, -2.98953l 0.403042, -3.30422l 0.403042, 0.157344l 0.403042, 0.786718l 0.403042, -2.20281l
 0.403042, -0.314687l 0.403042, 1.73078l 0.403042, -2.83219l 0.403042, -2.67484l 0.403042, -3.77625l 0.403042, -3.77625l 0.403042, -2.04547l 0.403042, 1.25875l 0.403042, 1.10141l 0.403042, 3.46156l 0.403042, 3.77625l 0.403042, -2.98953l 0.403042,
 -2.04547l 0.403042, 2.20281l 0.403042, 1.57344l 0.403042, -1.88812l 0.403042, -1.25875l 0.403042, 1.73078l 0.403042, 1.41609l 0.403042, -0.944062l 0.403042, 2.04547l 0.403042, -0.629375l 0.403042, -0.786718l 0.403042, -0.157344l 0.403042, 3.77625l
 0.403042, -1.57344l 0.403042, -3.46156l 0.403042, -5.035l 0.403042, -0.472031l 0.403042, 0.314687l 0.403042, -0.314687l 0.403042, 2.04547l 0.403042, 4.56297l 0.403042, 4.56297l 0.403042, 1.57344l 0.403042, -2.98953l 0.403042, -0.944062l 0.403042,
 -2.20281l 0.403042, -1.73078l 0.403042, -0.786718l 0.403042, 1.57344l 0.403042, 2.20281l 0.403042, 3.30422l 0.403042, -2.04547l 0.403042, -4.87765l 0.403042, 0.786718l 0.403042, 3.46156l 0.403042, 3.30422l 0.403042, 1.88812l 0.403042, -2.20281l
 0.403042, 2.20281l 0.403042, 1.41609l 0.403042, 0.944062l 0.403042, 2.83219l 0.403042, 3.14687l 0.403042, -2.83219l 0.403042, -2.83219l 0.403042, 1.73078l 0.403042, -0.944062l 0.403042, -3.30422l 0.403042, -2.83219l 0.403042, 0.157344l 0.403042,
 -1.10141l 0.403042, 1.25875l 0.403042, 0.944062l 0.403042, -0.944062l 0.403042, -0.472031l 0.403042, -0.786718l 0.403042, 3.6189l 0.403042, 6.1364l 0.403042, 2.98953l 0.403042, -0.157344l 0.403042, -0.629375l 0.403042, -4.56297l 0.403042, -2.04547l
 0.403042, -1.57344l 0.403042, 1.10141l 0.403042, -1.57344l 0.403042, 2.83219l 0.403042, 1.41609l 0.403042, -2.83219l 0.403042, -0.629375l 0.403042, -2.83219l 0.403042, -3.46156l 0.403042, 2.67484l 0.403042, 2.04547l 0.403042, -0.472031l 0.403042,
 0.472031l 0.403042, -1.25875l 0.403042, 1.88812l 0.403042, 1.25875l 0.403042, 2.04547l 0.403042, -2.98953l 0.403042, -3.77625l 0.403042, -3.93359l 0.403042, -1.25875l 0.403042, 5.035l 0.403042, 2.20281l 0.403042, 0.157344l 0.403042, -2.83219l
 0.403042, -0.157344l 0.403042, 0.944062l 0.403042, 0.472031l 0.403042, -0.944062l 0.403042, -2.36015l 0.403042, 2.83219l 0.403042, 0.786718l 0.403042, -0.157344l 0.403042, -0.629375l 0.403042, -0.472031l 0.403042, -0.629375l 0.403042, -2.98953l
 0.403042, -2.98953l 0.403042, -0.629375l 0.403042, 3.14687l 0.403042, 2.20281l 0.403042, 0.157344l 0.403042, -2.67484l 0.403042, -4.24828l 0.403042, -0.157344l 0.403042, 1.25875l 0.403042, 1.41609l 0.403042, 0.629375l 0.403042, 2.20281l 0.403042,
 0.472031l 0.403042, -1.57344l 0.403042, 2.20281l 0.403042, 2.67484l 0.403042, 4.24828l 0.403042, -1.41609l 0.403042, 0.314687l 0.403042, -1.57344l 0.403042, -1.57344l 0.403042, -0.629375l 0.403042, -0.314687l 0.403042, 2.20281l 0.403042, -0.157344l
 0.403042, -2.04547l 0.403042, -0.786718l 0.403042, 1.10141l 0.403042, 1.41609l 0.403042, 2.83219l 0.403042, 5.66437l 0.403042, 0.472031l 0.403042, -2.98953l 0.403042, -6.1364l 0.403042, -2.83219l 0.403042, -1.41609l 0.403042, 0.157344l 0.403042,
 4.09093l 0.403042, 4.87765l 0.403042, 0.314687l 0.403042, -4.40562l 0.403042, 0.314687l 0.403042, 4.24828l 0.403042, -0.944062l 0.403042, -0.629375l 0.403042, 2.67484l 0.403042, 0.472031l 0.403042, 2.04547l 0.403042, 0.314687l 0.403042, -0.157344l
 0.403042, -1.73078l 0.403042, -1.88812l 0.403042, 0.314687l 0.403042, 1.57344l 0.403042, 1.41609l 0.403042, -1.73078l 0.403042, -0.157344l 0.403042, 0.157344l 0.403042, -1.41609l 0.403042, 1.73078l 0.403042, -0.314687l 0.403042, 0.314687l 0.403042,
 1.88812l 0.403042, -4.09093l 0.403042, -3.77625l 0.403042, -2.5175l 0.403042, 2.83219l 0.403042, 2.20281l 0.403042, -1.41609l 0.403042, 0.944062l 0.403042, -3.14687l 0.403042, -3.30422l 0.403042, -4.09093l 0.403042, 3.30422l 0.403042, -0.157344l
 0.403042, 2.67484l 0.403042, 2.20281l 0.403042, -2.67484l 0.403042, 2.36015l 0.403042, -1.10141l 0.403042, 3.14687l 0.403042, -0.944062l 0.403042, 0.314687l 0.403042, -1.41609l 0.403042, 2.98953l 0.403042, 1.10141l 0.403042, 3.6189l 0.403042,
 -0.786718l 0.403042, 0.314687l 0.403042, 2.04547l 0.403042, -3.77625l 0.403042, -0.629375l 0.403042, -0.786718l 0.403042, -0.314687l 0.403042, -0.786718l 0.403042, -0.944062l 0.403042, -0.629375l 0.403042, -1.41609l 0.403042, -2.20281l 0.403042,
 0.314687l 0.403042, 2.20281l 0.403042, 1.73078l 0.403042, 0.629375l 0.403042, -1.25875l 0.403042, -1.10141h 0.403042l 0.403042, -0.157344l 0.403042, 2.36015l 0.403042, -3.30422l 0.403042, -5.50703l 0.403042, -1.57344l 0.403042, 1.10141l 0.403042,
 2.5175l 0.403042, 1.73078l 0.403042, 1.10141l 0.403042, -0.472031l 0.403042, 0.314687l 0.403042, -1.25875l 0.403042, -4.09093l 0.403042, -2.98953l 0.403042, 2.83219l 0.403042, 0.472031l 0.403042, 0.314687l 0.403042, 3.6189l 0.403042, 5.19234l
 0.403042, 0.157344l 0.403042, -1.73078l 0.403042, 0.157344l 0.403042, 2.20281l 0.403042, -0.629375l 0.403042, -4.72031l 0.403042, -5.82171l 0.403042, -0.314687l 0.403042, 1.73078l 0.403042, 0.314687l 0.403042, -0.314687l 0.403042, -1.10141l
 0.403042, 2.20281l 0.403042, -3.6189l 0.403042, 0.472031l 0.403042, 3.6189l 0.403042, 0.314687l 0.403042, -1.73078l 0.403042, -0.944062l 0.403042, 0.786718l 0.403042, 0.314687l 0.403042, 0.314687l 0.403042, 0.786718l 0.403042, 1.25875l 0.403042,
 1.10141l 0.403042, 3.30422h 0.403042l 0.403042, -0.944062l 0.403042, -0.944062l 0.403042, -0.314687l 0.403042, 1.57344l 0.403042, 0.629375l 0.403042, 3.93359l 0.403042, -3.14687l 0.403042, -0.786718l 0.403042, 0.786718l 0.403042, 0.629375l 0.403042,
 -0.629375l 0.403042, 2.36015l 0.403042, -4.09093l 0.403042, -3.93359l 0.403042, 2.36015l 0.403042, 1.88812l 0.403042, 2.04547l 0.403042, 1.57344l 0.403042, 0.786718l 0.403042, -2.04547l 0.403042, 1.25875l 0.403042, -0.314687l 0.403042, -0.944062l
 0.403042, -1.88812l 0.403042, -4.87765l 0.403042, -0.157344l 0.403042, 1.25875l 0.403042, 1.57344l 0.403042, 0.944062l 0.403042, 0.472031l 0.403042, 0.629375l 0.403042, 1.88812l 0.403042, -0.157344l 0.403042, -1.10141l 0.403042, 1.41609l 0.403042,
 1.73078l 0.403042, -2.36015l 0.403042, -2.83219l 0.403042, -1.57344l 0.403042, 5.34968l 0.403042, 2.83219l 0.403042, 1.57344l 0.403042, -2.5175l 0.403042, 2.36015h 0.403042l 0.403042, -0.944062l 0.403042, -3.14687l 0.403042, -2.67484l 0.403042,
 -0.786718l 0.403042, -0.157344l 0.403042, -3.46156l 0.403042, -0.472031l 0.403042, 2.5175l 0.403042, 2.36015l 0.403042, 3.46156l 0.403042, 0.786718l 0.403042, -1.41609l 0.403042, -4.24828l 0.403042, -7.08046l 0.403042, -2.5175l 0.403042, 0.629375l
 0.403042, 5.19234l 0.403042, 5.035l 0.403042, 5.34968l 0.403042, 1.88812l 0.403042, -5.82171l 0.403042, -1.73078l 0.403042, -0.157344l 0.403042, -2.83219l 0.403042, 1.88812l 0.403042, -2.20281l 0.403042, 4.56297l 0.403042, -0.786718l 0.403042,
 -0.157344l 0.403042, -1.10141l 0.403042, 0.944062l 0.403042, 2.36015h 0.403042l 0.403042, -0.314687l 0.403042, 0.786718l 0.403042, -0.314687l 0.403042, -0.629375l 0.403042, 2.98953l 0.403042, 1.57344l 0.403042, -2.04547l 0.403042, -3.6189l 0.403042,
 1.73078l 0.403042, -2.04547l 0.403042, -0.472031l 0.403042, 2.5175l 0.403042, 1.25875l 0.403042, 0.629375l 0.403042, -1.41609l 0.403042, 0.157344l 0.403042, 3.14687l 0.403042, -6.29375l 0.403042, 0.629375l 0.403042, 3.46156l 0.403042, -1.10141l
 0.403042, 1.41609h 0.403042l 0.403042, 1.73078l 0.403042, -0.157344l 0.403042, -3.93359l 0.403042, -1.73078l 0.403042, -1.73078l 0.403042, -1.73078l 0.403042, 0.786718l 0.403042, 1.10141l 0.403042, -1.10141l 0.403042, -1.10141l 0.403042, 1.57344l
 0.403042, -1.25875l 0.403042, -2.83219l 0.403042, -0.786718h 0.403042l 0.403042, -2.83219h 0.403042l 0.403042, 2.67484l 0.403042, 3.77625l 0.403042, 1.57344l 0.403042, 3.14687l 0.403042, 1.25875l 0.403042, 3.30422l 0.403042, 0.786718l 0.403042,
 -3.6189l 0.403042, -2.5175l 0.403042, 1.73078l 0.403042, -1.88812l 0.403042, -2.5175l 0.403042, -2.04547l 0.403042, 2.20281l 0.403042, -0.786718l 0.403042, -0.157344l 0.403042, 1.73078l 0.403042, -0.944062l 0.403042, -2.5175l 0.403042, 0.157344l
 0.403042, 5.82171l 0.403042, 0.157344l 0.403042, -4.56297l 0.403042, -1.41609l 0.403042, 0.944062l 0.403042, 1.57344l 0.403042, 1.73078l 0.403042, -1.25875l 0.403042, 1.25875l 0.403042, -2.67484l 0.403042, -0.629375l 0.403042, 1.10141l 0.403042,
 3.46156l 0.403042, 3.30422l 0.403042, 1.41609l 0.403042, 4.09093l 0.403042, 2.04547l 0.403042, -0.786718l 0.403042, -5.82171l 0.403042, -2.83219l 0.403042, 3.30422l 0.403042, -2.67484l 0.403042, -2.36015l 0.403042, -1.88812l 0.403042, -2.67484l
 0.403042, -0.786718l 0.403042, 2.83219l 0.403042, 0.314687l 0.403042, 0.944062h 0.403042l 0.403042, 4.56297l 0.403042, 1.25875l 0.403042, -0.314687l 0.403042, -1.88812l 0.403042, -1.57344l 0.403042, -0.786718l 0.403042, -0.944062l 0.403042,
 -1.10141l 0.403042, -3.14687l 0.403042, -2.83219l 0.403042, 0.629375l 0.403042, -2.36015l 0.403042, 2.83219l 0.403042, 4.72031l 0.403042, -1.41609l 0.403042, 0.629375l 0.403042, 1.10141l 0.403042, -1.25875l 0.403042, -1.88812l 0.403042, 0.157344l
 0.403042, -1.88812l 0.403042, 0.157344l 0.403042, 0.786718l 0.403042, -1.25875l 0.403042, -0.472031l 0.403042, 0.472031l 0.403042, 2.04547l 0.403042, 1.41609l 0.403042, 0.786718l 0.403042, 1.41609l 0.403042, 4.24828h 0.403042l 0.403042, -2.83219l
 0.403042, -0.314687l 0.403042, -3.30422l 0.403042, 0.472031l 0.403042, 3.77625l 0.403042, 1.10141l 0.403042, -1.73078l 0.403042, 1.57344l 0.403042, -4.09093l 0.403042, -3.77625l 0.403042, -1.73078l 0.403042, 1.88812l 0.403042, 3.30422l 0.403042,
 -1.57344l 0.403042, 0.314687l 0.403042, 2.5175l 0.403042, 1.88812l 0.403042, 2.67484l 0.403042, -0.472031l 0.403042, -2.67484l 0.403042, -1.73078l 0.403042, -0.157344l 0.403042, 2.67484l 0.403042, -1.73078l 0.403042, -2.36015l 0.403042, -3.93359l
 0.403042, -2.36015l 0.403042, -2.98953l 0.403042, 0.786718l 0.403042, -1.10141l 0.403042, 4.24828l 0.403042, 5.19234l 0.403042, 1.73078l 0.403042, 0.786718l 0.403042, 0.629375l 0.403042, 1.41609l 0.403042, 1.41609l 0.403042, 2.04547l 0.403042,
 -8.96859l 0.403042, -31.4687l 0.403042, -23.9162l 0.403042, -6.60843l 0.403042, 2.36015l 0.403042, 10.2273l 0.403042, 11.3287l 0.403042, 10.542l 0.403042, 7.55249l 0.403042, 5.035l 0.403042, 5.035l 0.403042, 4.24828l 0.403042, 3.77625l 0.403042,
 1.57344l 0.403042, 0.629375l 0.403042, 0.786718l 0.403042, 2.98953l 0.403042, 2.67484l 0.403042, 3.77625l 0.403042, 0.629375l 0.403042, -2.04547l 0.403042, -6.60843l 0.403042, -0.786718l 0.403042, 1.25875l 0.403042, 4.40562l 0.403042, 0.944062l
 0.403042, -0.786718l 0.403042, -2.36015l 0.403042, -3.30422l 0.403042, 0.472031l 0.403042, 1.57344l 0.403042, 1.57344l 0.403042, 0.629375l 0.403042, 3.77625l 0.403042, 2.36015l 0.403042, -3.46156l 0.403042, 2.04547l 0.403042, 1.73078l 0.403042,
 -2.83219l 0.403042, 0.472031l 0.403042, 0.786718l 0.403042, 0.472031l 0.403042, 1.73078l 0.403042, 1.41609l 0.403042, 1.73078l 0.403042, 2.04547l 0.403042, -5.34968l 0.403042, -6.45109l 0.403042, -2.5175l 0.403042, 2.5175l 0.403042, 2.04547l
 0.403042, 2.20281l 0.403042, 1.57344l 0.403042, 1.57344l 0.403042, -5.82171l 0.403042, -3.46156l 0.403042, -2.5175l 0.403042, 0.944062l 0.403042, 4.72031l 0.403042, -1.57344l 0.403042, -2.67484l 0.403042, 3.14687l 0.403042, -1.41609l 0.403042,
 2.20281l 0.403042, 0.157344l 0.403042, 2.98953l 0.403042, -30.9967l 0.403042, -79.6159l 0.403042, -44.6856l 0.403042, -11.8008l 0.403042, 9.44062l 0.403042, 18.0945l 0.403042, 18.8812l 0.403042, 23.9162l 0.403042, 20.14l 0.403042, 14.1609l 0.403042,
 13.6889l 0.403042, 12.2728l 0.403042, 8.81124l 0.403042, 9.12593l 0.403042, 9.44062l 0.403042, 1.88812l 0.403042, 4.24828l 0.403042, 2.5175l 0.403042, 5.97906l 0.403042, 4.87765l 0.403042, 2.67484l 0.403042, -2.04547l 0.403042, -0.157344l 0.403042,
 1.25875l 0.403042, 2.98953l 0.403042, 3.30422l 0.403042, -3.14687l 0.403042, -1.41609l 0.403042, -0.314687l 0.403042, -1.25875l 0.403042, 3.77625l 0.403042, -3.14687l 0.403042, -1.25875l 0.403042, -1.41609l 0.403042, -0.157344l 0.403042, -1.25875l
 0.403042, -0.629375l 0.403042, 0.314687l 0.403042, 4.09093l 0.403042, -0.472031l 0.403042, 1.57344l 0.403042, 2.83219l 0.403042, 1.10141l 0.403042, -0.472031l 0.403042, -2.20281l 0.403042, 1.88812l 0.403042, 2.83219l 0.403042, -1.57344l 0.403042,
 -4.40562l 0.403042, -2.67484l 0.403042, 1.25875l 0.403042, 0.157344l 0.403042, 0.944062h 0.403042l 0.403042, -3.14687l 0.403042, -1.41609l 0.403042, 0.157344l 0.403042, 2.5175l 0.403042, -0.786718l 0.403042, -3.46156l 0.403042, -0.629375l 0.403042,
 -0.786718l 0.403042, 1.88812l 0.403042, 2.36015l 0.403042, -1.73078l 0.403042, -2.20281l 0.403042, -5.035l 0.403042, -0.944062l 0.403042, 1.10141l 0.403042, -3.30422l 0.403042, -4.56297h 0.403042l 0.403042, 1.73078l 0.403042, 6.76578l 0.403042,
 4.72031h 0.403042l 0.403042, -0.944062l 0.403042, 0.629375l 0.403042, -3.77625l 0.403042, -5.50703l 0.403042, -0.157344l 0.403042, -1.10141l 0.403042, 3.46156l 0.403042, 0.944062h 0.403042l 0.403042, -0.944062l 0.403042, 0.157344l 0.403042,
 -3.77625l 0.403042, 0.786718l 0.403042, 1.41609l 0.403042, 1.57344l 0.403042, 3.46156l 0.403042, 0.944062l 0.403042, -2.98953l 0.403042, -12.5875l 0.403042, -30.5247l 0.403042, -18.4092l 0.403042, -3.93359l 0.403042, 0.157344l 0.403042, 5.19234l
 0.403042, 6.29375l 0.403042, 7.23781l 0.403042, 6.76578l 0.403042, 6.45109l 0.403042, 7.39515l 0.403042, 7.23781l 0.403042, 9.75531l 0.403042, 4.40562l 0.403042, 3.77625l 0.403042, -1.57344l 0.403042, -1.41609l 0.403042, 2.36015l 0.403042, 2.5175l
 0.403042, -13.6889l 0.403042, -39.4933l 0.403042, -25.175l 0.403042, -8.02453l 0.403042, -3.46156l 0.403042, 7.55249l 0.403042, 13.0595l 0.403042, 13.2169l 0.403042, 11.8008l 0.403042, 9.28327l 0.403042, 7.55249l 0.403042, 4.72031l 0.403042,
 6.92312l 0.403042, 6.1364l 0.403042, 1.57344l 0.403042, 4.24828l 0.403042, 1.88812l 0.403042, 1.41609l 0.403042, 4.09093l 0.403042, 2.67484l 0.403042, -1.88812l 0.403042, 0.629375l 0.403042, 1.25875l 0.403042, 5.82171l 0.403042, 2.20281h 0.403042l
 0.403042, -1.88812l 0.403042, 2.5175h 0.403042l 0.403042, -1.25875l 0.403042, 0.157344l 0.403042, 0.472031l 0.403042, -1.57344l 0.403042, -0.157344l 0.403042, -3.46156l 0.403042, -1.88812l 0.403042, -0.472031l 0.403042, 0.314687l 0.403042,
 -0.944062l 0.403042, 0.786718l 0.403042, 1.10141l 0.403042, -1.57344l 0.403042, 1.88812l 0.403042, -70.8046l 0.403042, -99.4412l 0.403042, -50.6646l 0.403042, -10.07l 0.403042, 13.5316l 0.403042, 22.9722l 0.403042, 25.4897l 0.403042, 29.5806l
 0.403042, 32.2554l 0.403042, 22.9722l 0.403042, 17.4651l 0.403042, 13.0595l 0.403042, 15.105l 0.403042, 14.3183l 0.403042, 11.0141l 0.403042, 8.18187l 0.403042, 9.28327l 0.403042, 3.46156l 0.403042, 4.24828l 0.403042, 6.45109l 0.403042, 2.04547l
 0.403042, 2.83219l 0.403042, 0.629375l 0.403042, -0.157344h 0.403042l 0.403042, -1.10141l 0.403042, -3.14687l 0.403042, -3.30422l 0.403042, -5.50703l 0.403042, 0.157344l 0.403042, 2.20281l 0.403042, 0.786718l 0.403042, -1.73078l 0.403042, 2.67484l
 0.403042, -1.41609l 0.403042, 0.472031l 0.403042, 4.72031l 0.403042, 4.87765l 0.403042, 1.88812l 0.403042, -2.5175l 0.403042, -2.20281l 0.403042, -4.24828l 0.403042, -4.72031l 0.403042, -0.157344l 0.403042, -2.67484l 0.403042, -1.41609l 0.403042,
 -3.77625l 0.403042, -0.629375l 0.403042, -1.41609l 0.403042, 1.25875l 0.403042, 0.314687h 0.403042l 0.403042, 1.41609h 0.403042l 0.403042, 0.314687l 0.403042, -3.30422l 0.403042, -1.73078l 0.403042, -0.157344l 0.403042, 0.472031l 0.403042, -1.25875l
 0.403042, -0.944062l 0.403042, -1.41609l 0.403042, 0.157344l 0.403042, -1.73078l 0.403042, -1.10141l 0.403042, 0.786718l 0.403042, 2.5175l 0.403042, 0.472031l 0.403042, 2.67484l 0.403042, -0.314687l 0.403042, -2.83219l 0.403042, 1.10141l 0.403042,
 0.944062l 0.403042, 0.157344l 0.403042, -0.786718l 0.403042, 4.09093l 0.403042, 0.786718l 0.403042, 0.629375l 0.403042, -2.67484l 0.403042, -3.30422l 0.403042, -1.41609l 0.403042, 2.20281l 0.403042, 0.944062l 0.403042, -1.25875h 0.403042l 0.403042,
 -1.57344l 0.403042, -4.24828l 0.403042, 0.472031l 0.403042, 4.72031l 0.403042, 2.83219l 0.403042, 3.46156l 0.403042, 2.20281l 0.403042, 0.157344l 0.403042, 0.314687l 0.403042, -2.04547l 0.403042, -0.629375l 0.403042, -1.88812l 0.403042, -4.87765l
 0.403042, -4.72031l 0.403042, -7.23781l 0.403042, -4.09093l 0.403042, -0.472031l 0.403042, -0.472031l 0.403042, 3.93359l 0.403042, 2.20281l 0.403042, 2.36015l 0.403042, 1.57344l 0.403042, 1.57344l 0.403042, 0.472031l 0.403042, -5.34968l 0.403042,
 -0.629375l 0.403042, 1.57344l 0.403042, -4.24828l 0.403042, -28.1645l 0.403042, -22.1855l 0.403042, -9.44062l 0.403042, 0.629375l 0.403042, 1.57344l 0.403042, 6.29375l 0.403042, 7.86718l 0.403042, 8.18187l 0.403042, 7.39515l 0.403042, 8.81124l
 0.403042, 9.91265l 0.403042, 4.56297l 0.403042, 2.83219l 0.403042, 3.30422l 0.403042, 4.56297l 0.403042, 3.30422l 0.403042, -2.36015l 0.403042, -0.472031l 0.403042, 1.88812l 0.403042, -0.629375l 0.403042, 0.314687l 0.403042, 4.24828l 0.403042,
 4.09093l 0.403042, -1.41609l 0.403042, -2.04547l 0.403042, -4.24828l 0.403042, 0.472031l 0.403042, 3.77625l 0.403042, -4.24828l 0.403042, -3.14687l 0.403042, -5.19234l 0.403042, 0.157344l 0.403042, -2.83219l 0.403042, 1.57344l 0.403042, 0.944062l
 0.403042, 0.944062l 0.403042, -2.36015l 0.403042, 3.77625l 0.403042, 4.56297l 0.403042, 0.786718l 0.403042, -2.5175l 0.403042, -0.314687l 0.403042, 2.36015l 0.403042, -2.04547l 0.403042, 1.57344l 0.403042, 3.77625l 0.403042, -2.5175l 0.403042,
 -0.944062l 0.403042, 0.314687l 0.403042, 1.10141l 0.403042, -2.5175l 0.403042, -2.20281l 0.403042, 3.77625l 0.403042, -0.472031l 0.403042, -3.46156l 0.403042, 0.157344l 0.403042, -2.83219h 0.403042l 0.403042, 4.24828l 0.403042, 2.36015l 0.403042,
 0.786718l 0.403042, -1.10141l 0.403042, 1.88812l 0.403042, 3.46156l 0.403042, -0.786718l 0.403042, -2.5175l 0.403042, -4.72031l 0.403042, -1.57344l 0.403042, 1.88812l 0.403042, 0.786718l 0.403042, -0.786718l 0.403042, 0.314687l 0.403042, -0.157344l
 0.403042, 3.46156l 0.403042, 4.09093l 0.403042, 2.36015l 0.403042, -0.944062l 0.403042, -8.6539l 0.403042, -2.98953l 0.403042, 0.157344l 0.403042, 1.10141l 0.403042, -0.157344l 0.403042, -1.10141l 0.403042, 0.944062l 0.403042, 0.786718l 0.403042,
 -1.73078l 0.403042, 2.83219l 0.403042, -3.46156l 0.403042, -1.73078l 0.403042, 3.30422l 0.403042, -0.786718l 0.403042, 2.36015l 0.403042, 2.67484l 0.403042, 0.629375l 0.403042, -3.6189l 0.403042, -0.629375l 0.403042, 3.77625l 0.403042, -0.786718l
 0.403042, -4.09093l 0.403042, -4.72031l 0.403042, -3.93359l 0.403042, 0.472031l 0.403042, -0.157344l 0.403042, 2.04547l 0.403042, 0.944062l 0.403042, 2.20281l 0.403042, 1.10141l 0.403042, 0.786718l 0.403042, 2.20281l 0.403042, -1.41609l 0.403042,
 -1.25875l 0.403042, -1.57344l 0.403042, -2.04547l 0.403042, 0.786718l 0.403042, 2.04547l 0.403042, -0.629375l 0.403042, 4.72031l 0.403042, 1.73078l 0.403042, 0.786718l 0.403042, -2.98953l 0.403042, 0.472031l 0.403042, -2.20281l 0.403042, -2.98953l
 0.403042, -0.157344l 0.403042, -0.786718l 0.403042, 0.314687l 0.403042, -3.46156l 0.403042, 3.77625l 0.403042, 1.10141l 0.403042, -2.98953l 0.403042, -0.944062l 0.403042, 2.36015l 0.403042, 1.25875l 0.403042, 1.88812l 0.403042, 3.6189l 0.403042,
 0.472031l 0.403042, -4.24828l 0.403042, -4.24828l 0.403042, -4.72031l 0.403042, -0.472031l 0.403042, 0.314687l 0.403042, 3.46156l 0.403042, -1.57344l 0.403042, 0.314687l 0.403042, 0.786718l 0.403042, -0.944062l 0.403042, -2.36015h 0.403042l
 0.403042, 2.83219l 0.403042, 0.314687l 0.403042, -0.944062l 0.403042, 2.5175l 0.403042, 2.5175l 0.403042, 3.30422l 0.403042, 1.88812l 0.403042, 0.314687l 0.403042, -5.34968h 0.403042l 0.403042, -2.04547l 0.403042, -0.944062l 0.403042, -1.57344l
 0.403042, -2.20281l 0.403042, 1.25875l 0.403042, 2.67484l 0.403042, 0.314687l 0.403042, 0.472031l 0.403042, 1.73078l 0.403042, 0.157344l 0.403042, 0.786718l 0.403042, -5.97906l 0.403042, -0.472031l 0.403042, 2.20281l 0.403042, 2.36015l 0.403042,
 2.5175l 0.403042, -1.88812" fill="none" stroke="black"/>
<g stroke="black" stroke-width="1" fill="none">
<line x1="56.1929" y1="278.38" x2="57.1929" y2="278.38"/>
<line x1="56.596" y1="276.807" x2="57.596" y2="276.807"/>
<line x1="56.999" y1="273.975" x2="57.999" y2="273.975"/>
<line x1="57.402" y1="278.695" x2="58.402" y2="278.695"/>
<line x1="57.8051" y1="283.887" x2="58.8051" y2="283.887"/>
<line x1="58.2081" y1="284.989" x2="59.2081" y2="284.989"/>
<line x1="58.6112" y1="286.877" x2="59.6112" y2="286.877"/>
<line x1="59.0142" y1="283.887" x2="60.0142" y2="283.887"/>
<line x1="59.4173" y1="280.583" x2="60.4173" y2="280.583"/>
<line x1="59.8203" y1="280.74" x2="60.8203" y2="280.74"/>
<line x1="60.2233" y1="281.527" x2="61.2233" y2="281.527"/>
<line x1="60.6264" y1="279.324" x2="61.6264" y2="279.324"/>
<line x1="61.0294" y1="279.01" x2="62.0294" y2="279.01"/>
<line x1="61.4325" y1="280.74" x2="62.4325" y2="280.74"/>
<line x1="61.8355" y1="277.908" x2="62.8355" y2="277.908"/>
<line x1="62.2385" y1="275.233" x2="63.2385" y2="275.233"/>
<line x1="62.6416" y1="271.457" x2="63.6416" y2="271.457"/>
<line x1="63.0446" y1="267.681" x2="64.0446" y2="267.681"/>
<line x1="63.4477" y1="265.635" x2="64.4477" y2="265.635"/>
<line x1="63.8507" y1="266.894" x2="64.8507" y2="266.894"/>
<line x1="64.2538" y1="267.996" x2="65.2538" y2="267.996"/>
<line x1="64.6568" y1="271.457" x2="65.6568" y2="271.457"/>
<line x1="65.0598" y1="275.233" x2="66.0598" y2="275.233"/>
<line x1="65.4629" y1="272.244" x2="66.4629" y2="272.244"/>
<line x1="65.8659" y1="270.198" x2="66.8659" y2="270.198"/>
<line x1="66.269" y1="272.401" x2="67.269" y2="272.401"/>
<line x1="66.672" y1="273.975" x2="67.672" y2="273.975"/>
<line x1="67.0751" y1="272.086" x2="68.0751" y2="272.086"/>
<line x1="67.4781" y1="270.828" x2="68.4781" y2="270.828"/>
<line x1="67.8811" y1="272.559" x2="68.8811" y2="272.559"/>
<line x1="68.2842" y1="273.975" x2="69.2842" y2="273.975"/>
<line x1="68.6872" y1="273.031" x2="69.6872" y2="273.031"/>
<line x1="69.0903" y1="275.076" x2="70.0903" y2="275.076"/>
<line x1="69.4933" y1="274.447" x2="70.4933" y2="274.447"/>
<line x1="69.8963" y1="273.66" x2="70.8963" y2="273.66"/>
<line x1="70.2994" y1="273.503" x2="71.2994" y2="273.503"/>
<line x1="70.7024" y1="277.279" x2="71.7024" y2="277.279"/>
<line x1="71.1055" y1="275.705" x2="72.1055" y2="275.705"/>
<line x1="71.5085" y1="272.244" x2="72.5085" y2="272.244"/>
<line x1="71.9116" y1="267.209" x2="72.9116" y2="267.209"/>
<line x1="72.3146" y1="266.737" x2="73.3146" y2="266.737"/>
<line x1="72.7176" y1="267.051" x2="73.7176" y2="267.051"/>
<line x1="73.1207" y1="266.737" x2="74.1207" y2="266.737"/>
<line x1="73.5237" y1="268.782" x2="74.5237" y2="268.782"/>
<line x1="73.9268" y1="273.345" x2="74.9268" y2="273.345"/>
<line x1="74.3298" y1="277.908" x2="75.3298" y2="277.908"/>
<line x1="74.7329" y1="279.482" x2="75.7329" y2="279.482"/>
<line x1="75.1359" y1="276.492" x2="76.1359" y2="276.492"/>
<line x1="75.5389" y1="275.548" x2="76.5389" y2="275.548"/>
<line x1="75.942" y1="273.345" x2="76.942" y2="273.345"/>
<line x1="76.345" y1="271.614" x2="77.345" y2="271.614"/>
<line x1="76.7481" y1="270.828" x2="77.7481" y2="270.828"/>
<line x1="77.1511" y1="272.401" x2="78.1511" y2="272.401"/>
<line x1="77.5541" y1="274.604" x2="78.5541" y2="274.604"/>
<line x1="77.9572" y1="277.908" x2="78.9572" y2="277.908"/>
<line x1="78.3602" y1="275.863" x2="79.3602" y2="275.863"/>
<line x1="78.7633" y1="270.985" x2="79.7633" y2="270.985"/>
<line x1="79.1663" y1="271.772" x2="80.1663" y2="271.772"/>
<line x1="79.5694" y1="275.233" x2="80.5694" y2="275.233"/>
<line x1="79.9724" y1="278.538" x2="80.9724" y2="278.538"/>
<line x1="80.3754" y1="280.426" x2="81.3754" y2="280.426"/>
<line x1="80.7785" y1="278.223" x2="81.7785" y2="278.223"/>
<line x1="81.1815" y1="280.426" x2="82.1815" y2="280.426"/>
<line x1="81.5846" y1="281.842" x2="82.5846" y2="281.842"/>
<line x1="81.9876" y1="282.786" x2="82.9876" y2="282.786"/>
<line x1="82.3907" y1="285.618" x2="83.3907" y2="285.618"/>
<line x1="82.7937" y1="288.765" x2="83.7937" y2="288.765"/>
<line x1="83.1967" y1="285.933" x2="84.1967" y2="285.933"/>
<line x1="83.5998" y1="283.101" x2="84.5998" y2="283.101"/>
<line x1="84.0028" y1="284.831" x2="85.0028" y2="284.831"/>
<line x1="84.4059" y1="283.887" x2="85.4059" y2="283.887"/>
<line x1="84.8089" y1="280.583" x2="85.8089" y2="280.583"/>
<line x1="85.212" y1="277.751" x2="86.212" y2="277.751"/>
<line x1="85.615" y1="277.908" x2="86.615" y2="277.908"/>
<line x1="86.018" y1="276.807" x2="87.018" y2="276.807"/>
<line x1="86.4211" y1="278.066" x2="87.4211" y2="278.066"/>
<line x1="86.8241" y1="279.01" x2="87.8241" y2="279.01"/>
<line x1="87.2272" y1="278.066" x2="88.2272" y2="278.066"/>
<line x1="87.6302" y1="277.594" x2="88.6302" y2="277.594"/>
<line x1="88.0332" y1="276.807" x2="89.0332" y2="276.807"/>
<line x1="88.4363" y1="280.426" x2="89.4363" y2="280.426"/>
<line x1="88.8393" y1="286.562" x2="89.8393" y2="286.562"/>
<line x1="89.2424" y1="289.552" x2="90.2424" y2="289.552"/>
<line x1="89.6454" y1="289.394" x2="90.6454" y2="289.394"/>
<line x1="90.0485" y1="288.765" x2="91.0485" y2="288.765"/>
<line x1="90.4515" y1="284.202" x2="91.4515" y2="284.202"/>
<line x1="90.8545" y1="282.156" x2="91.8545" y2="282.156"/>
<line x1="91.2576" y1="280.583" x2="92.2576" y2="280.583"/>
<line x1="91.6606" y1="281.684" x2="92.6606" y2="281.684"/>
<line x1="92.0637" y1="280.111" x2="93.0637" y2="280.111"/>
<line x1="92.4667" y1="282.943" x2="93.4667" y2="282.943"/>
<line x1="92.8698" y1="284.359" x2="93.8698" y2="284.359"/>
<line x1="93.2728" y1="281.527" x2="94.2728" y2="281.527"/>
<line x1="93.6758" y1="280.898" x2="94.6758" y2="280.898"/>
<line x1="94.0789" y1="278.066" x2="95.0789" y2="278.066"/>
<line x1="94.4819" y1="274.604" x2="95.4819" y2="274.604"/>
<line x1="94.885" y1="277.279" x2="95.885" y2="277.279"/>
<line x1="95.288" y1="279.324" x2="96.288" y2="279.324"/>
<line x1="95.691" y1="278.852" x2="96.691" y2="278.852"/>
<line x1="96.0941" y1="279.324" x2="97.0941" y2="279.324"/>
<line x1="96.4971" y1="278.066" x2="97.4971" y2="278.066"/>
<line x1="96.9002" y1="279.954" x2="97.9002" y2="279.954"/>
<line x1="97.3032" y1="281.212" x2="98.3032" y2="281.212"/>
<line x1="97.7063" y1="283.258" x2="98.7063" y2="283.258"/>
<line x1="98.1093" y1="280.268" x2="99.1093" y2="280.268"/>
<line x1="98.5123" y1="276.492" x2="99.5123" y2="276.492"/>
<line x1="98.9154" y1="272.559" x2="99.9154" y2="272.559"/>
<line x1="99.3184" y1="271.3" x2="100.318" y2="271.3"/>
<line x1="99.7215" y1="276.335" x2="100.721" y2="276.335"/>
<line x1="100.125" y1="278.538" x2="101.125" y2="278.538"/>
<line x1="100.528" y1="278.695" x2="101.528" y2="278.695"/>
<line x1="100.931" y1="275.863" x2="101.931" y2="275.863"/>
<line x1="101.334" y1="275.705" x2="102.334" y2="275.705"/>
<line x1="101.737" y1="276.649" x2="102.737" y2="276.649"/>
<line x1="102.14" y1="277.121" x2="103.14" y2="277.121"/>
<line x1="102.543" y1="276.177" x2="103.543" y2="276.177"/>
<line x1="102.946" y1="273.817" x2="103.946" y2="273.817"/>
<line x1="103.349" y1="276.649" x2="104.349" y2="276.649"/>
<line x1="103.752" y1="277.436" x2="104.752" y2="277.436"/>
<line x1="104.155" y1="277.279" x2="105.155" y2="277.279"/>
<line x1="104.558" y1="276.649" x2="105.558" y2="276.649"/>
<line x1="104.961" y1="276.177" x2="105.961" y2="276.177"/>
<line x1="105.364" y1="275.548" x2="106.364" y2="275.548"/>
<line x1="105.767" y1="272.559" x2="106.767" y2="272.559"/>
<line x1="106.17" y1="269.569" x2="107.17" y2="269.569"/>
<line x1="106.573" y1="268.94" x2="107.573" y2="268.94"/>
<line x1="106.976" y1="272.086" x2="107.976" y2="272.086"/>
<line x1="107.379" y1="274.289" x2="108.379" y2="274.289"/>
<line x1="107.782" y1="274.447" x2="108.782" y2="274.447"/>
<line x1="108.185" y1="271.772" x2="109.185" y2="271.772"/>
<line x1="108.588" y1="267.524" x2="109.588" y2="267.524"/>
<line x1="108.991" y1="267.366" x2="109.991" y2="267.366"/>
<line x1="109.394" y1="268.625" x2="110.394" y2="268.625"/>
<line x1="109.798" y1="270.041" x2="110.798" y2="270.041"/>
<line x1="110.201" y1="270.67" x2="111.201" y2="270.67"/>
<line x1="110.604" y1="272.873" x2="111.604" y2="272.873"/>
<line x1="111.007" y1="273.345" x2="112.007" y2="273.345"/>
<line x1="111.41" y1="271.772" x2="112.41" y2="271.772"/>
<line x1="111.813" y1="273.975" x2="112.813" y2="273.975"/>
<line x1="112.216" y1="276.649" x2="113.216" y2="276.649"/>
<line x1="112.619" y1="280.898" x2="113.619" y2="280.898"/>
<line x1="113.022" y1="279.482" x2="114.022" y2="279.482"/>
<line x1="113.425" y1="279.796" x2="114.425" y2="279.796"/>
<line x1="113.828" y1="278.223" x2="114.828" y2="278.223"/>
<line x1="114.231" y1="276.649" x2="115.231" y2="276.649"/>
<line x1="114.634" y1="276.02" x2="115.634" y2="276.02"/>
<line x1="115.037" y1="275.705" x2="116.037" y2="275.705"/>
<line x1="115.44" y1="277.908" x2="116.44" y2="277.908"/>
<line x1="115.843" y1="277.751" x2="116.843" y2="277.751"/>
<line x1="116.246" y1="275.705" x2="117.246" y2="275.705"/>
<line x1="116.649" y1="274.919" x2="117.649" y2="274.919"/>
<line x1="117.052" y1="276.02" x2="118.052" y2="276.02"/>
<line x1="117.455" y1="277.436" x2="118.455" y2="277.436"/>
<line x1="117.858" y1="280.268" x2="118.858" y2="280.268"/>
<line x1="118.261" y1="285.933" x2="119.261" y2="285.933"/>
<line x1="118.664" y1="286.405" x2="119.664" y2="286.405"/>
<line x1="119.067" y1="283.415" x2="120.067" y2="283.415"/>
<line x1="119.471" y1="277.279" x2="120.471" y2="277.279"/>
<line x1="119.874" y1="274.447" x2="120.874" y2="274.447"/>
<line x1="120.277" y1="273.031" x2="121.277" y2="273.031"/>
<line x1="120.68" y1="273.188" x2="121.68" y2="273.188"/>
<line x1="121.083" y1="277.279" x2="122.083" y2="277.279"/>
<line x1="121.486" y1="282.156" x2="122.486" y2="282.156"/>
<line x1="121.889" y1="282.471" x2="122.889" y2="282.471"/>
<line x1="122.292" y1="278.066" x2="123.292" y2="278.066"/>
<line x1="122.695" y1="278.38" x2="123.695" y2="278.38"/>
<line x1="123.098" y1="282.629" x2="124.098" y2="282.629"/>
<line x1="123.501" y1="281.684" x2="124.501" y2="281.684"/>
<line x1="123.904" y1="281.055" x2="124.904" y2="281.055"/>
<line x1="124.307" y1="283.73" x2="125.307" y2="283.73"/>
<line x1="124.71" y1="284.202" x2="125.71" y2="284.202"/>
<line x1="125.113" y1="286.247" x2="126.113" y2="286.247"/>
<line x1="125.516" y1="286.562" x2="126.516" y2="286.562"/>
<line x1="125.919" y1="286.405" x2="126.919" y2="286.405"/>
<line x1="126.322" y1="284.674" x2="127.322" y2="284.674"/>
<line x1="126.725" y1="282.786" x2="127.725" y2="282.786"/>
<line x1="127.128" y1="283.101" x2="128.128" y2="283.101"/>
<line x1="127.531" y1="284.674" x2="128.531" y2="284.674"/>
<line x1="127.934" y1="286.09" x2="128.934" y2="286.09"/>
<line x1="128.337" y1="284.359" x2="129.337" y2="284.359"/>
<line x1="128.74" y1="284.202" x2="129.74" y2="284.202"/>
<line x1="129.144" y1="284.359" x2="130.144" y2="284.359"/>
<line x1="129.547" y1="282.943" x2="130.547" y2="282.943"/>
<line x1="129.95" y1="284.674" x2="130.95" y2="284.674"/>
<line x1="130.353" y1="284.359" x2="131.353" y2="284.359"/>
<line x1="130.756" y1="284.674" x2="131.756" y2="284.674"/>
<line x1="131.159" y1="286.562" x2="132.159" y2="286.562"/>
<line x1="131.562" y1="282.471" x2="132.562" y2="282.471"/>
<line x1="131.965" y1="278.695" x2="132.965" y2="278.695"/>
<line x1="132.368" y1="276.177" x2="133.368" y2="276.177"/>
<line x1="132.771" y1="279.01" x2="133.771" y2="279.01"/>
<line x1="133.174" y1="281.212" x2="134.174" y2="281.212"/>
<line x1="133.577" y1="279.796" x2="134.577" y2="279.796"/>
<line x1="133.98" y1="280.74" x2="134.98" y2="280.74"/>
<line x1="134.383" y1="277.594" x2="135.383" y2="277.594"/>
<line x1="134.786" y1="274.289" x2="135.786" y2="274.289"/>
<line x1="135.189" y1="270.198" x2="136.189" y2="270.198"/>
<line x1="135.592" y1="273.503" x2="136.592" y2="273.503"/>
<line x1="135.995" y1="273.345" x2="136.995" y2="273.345"/>
<line x1="136.398" y1="276.02" x2="137.398" y2="276.02"/>
<line x1="136.801" y1="278.223" x2="137.801" y2="278.223"/>
<line x1="137.204" y1="275.548" x2="138.204" y2="275.548"/>
<line x1="137.607" y1="277.908" x2="138.607" y2="277.908"/>
<line x1="138.01" y1="276.807" x2="139.01" y2="276.807"/>
<line x1="138.414" y1="279.954" x2="139.414" y2="279.954"/>
<line x1="138.817" y1="279.01" x2="139.817" y2="279.01"/>
<line x1="139.22" y1="279.324" x2="140.22" y2="279.324"/>
<line x1="139.623" y1="277.908" x2="140.623" y2="277.908"/>
<line x1="140.026" y1="280.898" x2="141.026" y2="280.898"/>
<line x1="140.429" y1="281.999" x2="141.429" y2="281.999"/>
<line x1="140.832" y1="285.618" x2="141.832" y2="285.618"/>
<line x1="141.235" y1="284.831" x2="142.235" y2="284.831"/>
<line x1="141.638" y1="285.146" x2="142.638" y2="285.146"/>
<line x1="142.041" y1="287.191" x2="143.041" y2="287.191"/>
<line x1="142.444" y1="283.415" x2="143.444" y2="283.415"/>
<line x1="142.847" y1="282.786" x2="143.847" y2="282.786"/>
<line x1="143.25" y1="281.999" x2="144.25" y2="281.999"/>
<line x1="143.653" y1="281.684" x2="144.653" y2="281.684"/>
<line x1="144.056" y1="280.898" x2="145.056" y2="280.898"/>
<line x1="144.459" y1="279.954" x2="145.459" y2="279.954"/>
<line x1="144.862" y1="279.324" x2="145.862" y2="279.324"/>
<line x1="145.265" y1="277.908" x2="146.265" y2="277.908"/>
<line x1="145.668" y1="275.705" x2="146.668" y2="275.705"/>
<line x1="146.071" y1="276.02" x2="147.071" y2="276.02"/>
<line x1="146.474" y1="278.223" x2="147.474" y2="278.223"/>
<line x1="146.877" y1="279.954" x2="147.877" y2="279.954"/>
<line x1="147.28" y1="280.583" x2="148.28" y2="280.583"/>
<line x1="147.683" y1="279.324" x2="148.683" y2="279.324"/>
<line x1="148.087" y1="278.223" x2="149.087" y2="278.223"/>
<line x1="148.49" y1="278.223" x2="149.49" y2="278.223"/>
<line x1="148.893" y1="278.066" x2="149.893" y2="278.066"/>
<line x1="149.296" y1="280.426" x2="150.296" y2="280.426"/>
<line x1="149.699" y1="277.121" x2="150.699" y2="277.121"/>
<line x1="150.102" y1="271.614" x2="151.102" y2="271.614"/>
<line x1="150.505" y1="270.041" x2="151.505" y2="270.041"/>
<line x1="150.908" y1="271.142" x2="151.908" y2="271.142"/>
<line x1="151.311" y1="273.66" x2="152.311" y2="273.66"/>
<line x1="151.714" y1="275.391" x2="152.714" y2="275.391"/>
<line x1="152.117" y1="276.492" x2="153.117" y2="276.492"/>
<line x1="152.52" y1="276.02" x2="153.52" y2="276.02"/>
<line x1="152.923" y1="276.335" x2="153.923" y2="276.335"/>
<line x1="153.326" y1="275.076" x2="154.326" y2="275.076"/>
<line x1="153.729" y1="270.985" x2="154.729" y2="270.985"/>
<line x1="154.132" y1="267.996" x2="155.132" y2="267.996"/>
<line x1="154.535" y1="270.828" x2="155.535" y2="270.828"/>
<line x1="154.938" y1="271.3" x2="155.938" y2="271.3"/>
<line x1="155.341" y1="271.614" x2="156.341" y2="271.614"/>
<line x1="155.744" y1="275.233" x2="156.744" y2="275.233"/>
<line x1="156.147" y1="280.426" x2="157.147" y2="280.426"/>
<line x1="156.55" y1="280.583" x2="157.55" y2="280.583"/>
<line x1="156.953" y1="278.852" x2="157.953" y2="278.852"/>
<line x1="157.356" y1="279.01" x2="158.356" y2="279.01"/>
<line x1="157.76" y1="281.212" x2="158.76" y2="281.212"/>
<line x1="158.163" y1="280.583" x2="159.163" y2="280.583"/>
<line x1="158.566" y1="275.863" x2="159.566" y2="275.863"/>
<line x1="158.969" y1="270.041" x2="159.969" y2="270.041"/>
<line x1="159.372" y1="269.726" x2="160.372" y2="269.726"/>
<line x1="159.775" y1="271.457" x2="160.775" y2="271.457"/>
<line x1="160.178" y1="271.772" x2="161.178" y2="271.772"/>
<line x1="160.581" y1="271.457" x2="161.581" y2="271.457"/>
<line x1="160.984" y1="270.356" x2="161.984" y2="270.356"/>
<line x1="161.387" y1="272.559" x2="162.387" y2="272.559"/>
<line x1="161.79" y1="268.94" x2="162.79" y2="268.94"/>
<line x1="162.193" y1="269.412" x2="163.193" y2="269.412"/>
<line x1="162.596" y1="273.031" x2="163.596" y2="273.031"/>
<line x1="162.999" y1="273.345" x2="163.999" y2="273.345"/>
<line x1="163.402" y1="271.614" x2="164.402" y2="271.614"/>
<line x1="163.805" y1="270.67" x2="164.805" y2="270.67"/>
<line x1="164.208" y1="271.457" x2="165.208" y2="271.457"/>
<line x1="164.611" y1="271.772" x2="165.611" y2="271.772"/>
<line x1="165.014" y1="272.086" x2="166.014" y2="272.086"/>
<line x1="165.417" y1="272.873" x2="166.417" y2="272.873"/>
<line x1="165.82" y1="274.132" x2="166.82" y2="274.132"/>
<line x1="166.223" y1="275.233" x2="167.223" y2="275.233"/>
<line x1="166.626" y1="278.538" x2="167.626" y2="278.538"/>
<line x1="167.029" y1="278.538" x2="168.029" y2="278.538"/>
<line x1="167.433" y1="277.594" x2="168.433" y2="277.594"/>
<line x1="167.836" y1="276.649" x2="168.836" y2="276.649"/>
<line x1="168.239" y1="276.335" x2="169.239" y2="276.335"/>
<line x1="168.642" y1="277.908" x2="169.642" y2="277.908"/>
<line x1="169.045" y1="278.538" x2="170.045" y2="278.538"/>
<line x1="169.448" y1="282.471" x2="170.448" y2="282.471"/>
<line x1="169.851" y1="279.324" x2="170.851" y2="279.324"/>
<line x1="170.254" y1="278.538" x2="171.254" y2="278.538"/>
<line x1="170.657" y1="279.324" x2="171.657" y2="279.324"/>
<line x1="171.06" y1="279.954" x2="172.06" y2="279.954"/>
<line x1="171.463" y1="279.324" x2="172.463" y2="279.324"/>
<line x1="171.866" y1="281.684" x2="172.866" y2="281.684"/>
<line x1="172.269" y1="277.594" x2="173.269" y2="277.594"/>
<line x1="172.672" y1="273.66" x2="173.672" y2="273.66"/>
<line x1="173.075" y1="276.02" x2="174.075" y2="276.02"/>
<line x1="173.478" y1="277.908" x2="174.478" y2="277.908"/>
<line x1="173.881" y1="279.954" x2="174.881" y2="279.954"/>
<line x1="174.284" y1="281.527" x2="175.284" y2="281.527"/>
<line x1="174.687" y1="282.314" x2="175.687" y2="282.314"/>
<line x1="175.09" y1="280.268" x2="176.09" y2="280.268"/>
<line x1="175.493" y1="281.527" x2="176.493" y2="281.527"/>
<line x1="175.896" y1="281.212" x2="176.896" y2="281.212"/>
<line x1="176.299" y1="280.268" x2="177.299" y2="280.268"/>
<line x1="176.703" y1="278.38" x2="177.703" y2="278.38"/>
<line x1="177.106" y1="273.503" x2="178.106" y2="273.503"/>
<line x1="177.509" y1="273.345" x2="178.509" y2="273.345"/>
<line x1="177.912" y1="274.604" x2="178.912" y2="274.604"/>
<line x1="178.315" y1="276.177" x2="179.315" y2="276.177"/>
<line x1="178.718" y1="277.121" x2="179.718" y2="277.121"/>
<line x1="179.121" y1="277.594" x2="180.121" y2="277.594"/>
<line x1="179.524" y1="278.223" x2="180.524" y2="278.223"/>
<line x1="179.927" y1="280.111" x2="180.927" y2="280.111"/>
<line x1="180.33" y1="279.954" x2="181.33" y2="279.954"/>
<line x1="180.733" y1="278.852" x2="181.733" y2="278.852"/>
<line x1="181.136" y1="280.268" x2="182.136" y2="280.268"/>
<line x1="181.539" y1="281.999" x2="182.539" y2="281.999"/>
<line x1="181.942" y1="279.639" x2="182.942" y2="279.639"/>
<line x1="182.345" y1="276.807" x2="183.345" y2="276.807"/>
<line x1="182.748" y1="275.233" x2="183.748" y2="275.233"/>
<line x1="183.151" y1="280.583" x2="184.151" y2="280.583"/>
<line x1="183.554" y1="283.415" x2="184.554" y2="283.415"/>
<line x1="183.957" y1="284.989" x2="184.957" y2="284.989"/>
<line x1="184.36" y1="282.471" x2="185.36" y2="282.471"/>
<line x1="184.763" y1="284.831" x2="185.763" y2="284.831"/>
<line x1="185.166" y1="284.831" x2="186.166" y2="284.831"/>
<line x1="185.569" y1="283.887" x2="186.569" y2="283.887"/>
<line x1="185.972" y1="280.74" x2="186.972" y2="280.74"/>
<line x1="186.376" y1="278.066" x2="187.376" y2="278.066"/>
<line x1="186.779" y1="277.279" x2="187.779" y2="277.279"/>
<line x1="187.182" y1="277.121" x2="188.182" y2="277.121"/>
<line x1="187.585" y1="273.66" x2="188.585" y2="273.66"/>
<line x1="187.988" y1="273.188" x2="188.988" y2="273.188"/>
<line x1="188.391" y1="275.705" x2="189.391" y2="275.705"/>
<line x1="188.794" y1="278.066" x2="189.794" y2="278.066"/>
<line x1="189.197" y1="281.527" x2="190.197" y2="281.527"/>
<line x1="189.6" y1="282.314" x2="190.6" y2="282.314"/>
<line x1="190.003" y1="280.898" x2="191.003" y2="280.898"/>
<line x1="190.406" y1="276.649" x2="191.406" y2="276.649"/>
<line x1="190.809" y1="269.569" x2="191.809" y2="269.569"/>
<line x1="191.212" y1="267.051" x2="192.212" y2="267.051"/>
<line x1="191.615" y1="267.681" x2="192.615" y2="267.681"/>
<line x1="192.018" y1="272.873" x2="193.018" y2="272.873"/>
<line x1="192.421" y1="277.908" x2="193.421" y2="277.908"/>
<line x1="192.824" y1="283.258" x2="193.824" y2="283.258"/>
<line x1="193.227" y1="285.146" x2="194.227" y2="285.146"/>
<line x1="193.63" y1="279.324" x2="194.63" y2="279.324"/>
<line x1="194.033" y1="277.594" x2="195.033" y2="277.594"/>
<line x1="194.436" y1="277.436" x2="195.436" y2="277.436"/>
<line x1="194.839" y1="274.604" x2="195.839" y2="274.604"/>
<line x1="195.242" y1="276.492" x2="196.242" y2="276.492"/>
<line x1="195.645" y1="274.289" x2="196.645" y2="274.289"/>
<line x1="196.049" y1="278.852" x2="197.049" y2="278.852"/>
<line x1="196.452" y1="278.066" x2="197.452" y2="278.066"/>
<line x1="196.855" y1="277.908" x2="197.855" y2="277.908"/>
<line x1="197.258" y1="276.807" x2="198.258" y2="276.807"/>
<line x1="197.661" y1="277.751" x2="198.661" y2="277.751"/>
<line x1="198.064" y1="280.111" x2="199.064" y2="280.111"/>
<line x1="198.467" y1="280.111" x2="199.467" y2="280.111"/>
<line x1="198.87" y1="279.796" x2="199.87" y2="279.796"/>
<line x1="199.273" y1="280.583" x2="200.273" y2="280.583"/>
<line x1="199.676" y1="280.268" x2="200.676" y2="280.268"/>
<line x1="200.079" y1="279.639" x2="201.079" y2="279.639"/>
<line x1="200.482" y1="282.629" x2="201.482" y2="282.629"/>
<line x1="200.885" y1="284.202" x2="201.885" y2="284.202"/>
<line x1="201.288" y1="282.156" x2="202.288" y2="282.156"/>
<line x1="201.691" y1="278.538" x2="202.691" y2="278.538"/>
<line x1="202.094" y1="280.268" x2="203.094" y2="280.268"/>
<line x1="202.497" y1="278.223" x2="203.497" y2="278.223"/>
<line x1="202.9" y1="277.751" x2="203.9" y2="277.751"/>
<line x1="203.303" y1="280.268" x2="204.303" y2="280.268"/>
<line x1="203.706" y1="281.527" x2="204.706" y2="281.527"/>
<line x1="204.109" y1="282.156" x2="205.109" y2="282.156"/>
<line x1="204.512" y1="280.74" x2="205.512" y2="280.74"/>
<line x1="204.915" y1="280.898" x2="205.915" y2="280.898"/>
<line x1="205.318" y1="284.045" x2="206.318" y2="284.045"/>
<line x1="205.722" y1="277.751" x2="206.722" y2="277.751"/>
<line x1="206.125" y1="278.38" x2="207.125" y2="278.38"/>
<line x1="206.528" y1="281.842" x2="207.528" y2="281.842"/>
<line x1="206.931" y1="280.74" x2="207.931" y2="280.74"/>
<line x1="207.334" y1="282.156" x2="208.334" y2="282.156"/>
<line x1="207.737" y1="282.156" x2="208.737" y2="282.156"/>
<line x1="208.14" y1="283.887" x2="209.14" y2="283.887"/>
<line x1="208.543" y1="283.73" x2="209.543" y2="283.73"/>
<line x1="208.946" y1="279.796" x2="209.946" y2="279.796"/>
<line x1="209.349" y1="278.066" x2="210.349" y2="278.066"/>
<line x1="209.752" y1="276.335" x2="210.752" y2="276.335"/>
<line x1="210.155" y1="274.604" x2="211.155" y2="274.604"/>
<line x1="210.558" y1="275.391" x2="211.558" y2="275.391"/>
<line x1="210.961" y1="276.492" x2="211.961" y2="276.492"/>
<line x1="211.364" y1="275.391" x2="212.364" y2="275.391"/>
<line x1="211.767" y1="274.289" x2="212.767" y2="274.289"/>
<line x1="212.17" y1="275.863" x2="213.17" y2="275.863"/>
<line x1="212.573" y1="274.604" x2="213.573" y2="274.604"/>
<line x1="212.976" y1="271.772" x2="213.976" y2="271.772"/>
<line x1="213.379" y1="270.985" x2="214.379" y2="270.985"/>
<line x1="213.782" y1="270.985" x2="214.782" y2="270.985"/>
<line x1="214.185" y1="268.153" x2="215.185" y2="268.153"/>
<line x1="214.588" y1="268.153" x2="215.588" y2="268.153"/>
<line x1="214.992" y1="270.828" x2="215.992" y2="270.828"/>
<line x1="215.395" y1="274.604" x2="216.395" y2="274.604"/>
<line x1="215.798" y1="276.177" x2="216.798" y2="276.177"/>
<line x1="216.201" y1="279.324" x2="217.201" y2="279.324"/>
<line x1="216.604" y1="280.583" x2="217.604" y2="280.583"/>
<line x1="217.007" y1="283.887" x2="218.007" y2="283.887"/>
<line x1="217.41" y1="284.674" x2="218.41" y2="284.674"/>
<line x1="217.813" y1="281.055" x2="218.813" y2="281.055"/>
<line x1="218.216" y1="278.538" x2="219.216" y2="278.538"/>
<line x1="218.619" y1="280.268" x2="219.619" y2="280.268"/>
<line x1="219.022" y1="278.38" x2="220.022" y2="278.38"/>
<line x1="219.425" y1="275.863" x2="220.425" y2="275.863"/>
<line x1="219.828" y1="273.817" x2="220.828" y2="273.817"/>
<line x1="220.231" y1="276.02" x2="221.231" y2="276.02"/>
<line x1="220.634" y1="275.233" x2="221.634" y2="275.233"/>
<line x1="221.037" y1="275.076" x2="222.037" y2="275.076"/>
<line x1="221.44" y1="276.807" x2="222.44" y2="276.807"/>
<line x1="221.843" y1="275.863" x2="222.843" y2="275.863"/>
<line x1="222.246" y1="273.345" x2="223.246" y2="273.345"/>
<line x1="222.649" y1="273.503" x2="223.649" y2="273.503"/>
<line x1="223.052" y1="279.324" x2="224.052" y2="279.324"/>
<line x1="223.455" y1="279.482" x2="224.455" y2="279.482"/>
<line x1="223.858" y1="274.919" x2="224.858" y2="274.919"/>
<line x1="224.261" y1="273.503" x2="225.261" y2="273.503"/>
<line x1="224.665" y1="274.447" x2="225.665" y2="274.447"/>
<line x1="225.068" y1="276.02" x2="226.068" y2="276.02"/>
<line x1="225.471" y1="277.751" x2="226.471" y2="277.751"/>
<line x1="225.874" y1="276.492" x2="226.874" y2="276.492"/>
<line x1="226.277" y1="277.751" x2="227.277" y2="277.751"/>
<line x1="226.68" y1="275.076" x2="227.68" y2="275.076"/>
<line x1="227.083" y1="274.447" x2="228.083" y2="274.447"/>
<line x1="227.486" y1="275.548" x2="228.486" y2="275.548"/>
<line x1="227.889" y1="279.01" x2="228.889" y2="279.01"/>
<line x1="228.292" y1="282.314" x2="229.292" y2="282.314"/>
<line x1="228.695" y1="283.73" x2="229.695" y2="283.73"/>
<line x1="229.098" y1="287.821" x2="230.098" y2="287.821"/>
<line x1="229.501" y1="289.866" x2="230.501" y2="289.866"/>
<line x1="229.904" y1="289.08" x2="230.904" y2="289.08"/>
<line x1="230.307" y1="283.258" x2="231.307" y2="283.258"/>
<line x1="230.71" y1="280.426" x2="231.71" y2="280.426"/>
<line x1="231.113" y1="283.73" x2="232.113" y2="283.73"/>
<line x1="231.516" y1="281.055" x2="232.516" y2="281.055"/>
<line x1="231.919" y1="278.695" x2="232.919" y2="278.695"/>
<line x1="232.322" y1="276.807" x2="233.322" y2="276.807"/>
<line x1="232.725" y1="274.132" x2="233.725" y2="274.132"/>
<line x1="233.128" y1="273.345" x2="234.128" y2="273.345"/>
<line x1="233.531" y1="276.177" x2="234.531" y2="276.177"/>
<line x1="233.934" y1="276.492" x2="234.934" y2="276.492"/>
<line x1="234.338" y1="277.436" x2="235.338" y2="277.436"/>
<line x1="234.741" y1="277.436" x2="235.741" y2="277.436"/>
<line x1="235.144" y1="281.999" x2="236.144" y2="281.999"/>
<line x1="235.547" y1="283.258" x2="236.547" y2="283.258"/>
<line x1="235.95" y1="282.943" x2="236.95" y2="282.943"/>
<line x1="236.353" y1="281.055" x2="237.353" y2="281.055"/>
<line x1="236.756" y1="279.482" x2="237.756" y2="279.482"/>
<line x1="237.159" y1="278.695" x2="238.159" y2="278.695"/>
<line x1="237.562" y1="277.751" x2="238.562" y2="277.751"/>
<line x1="237.965" y1="276.649" x2="238.965" y2="276.649"/>
<line x1="238.368" y1="273.503" x2="239.368" y2="273.503"/>
<line x1="238.771" y1="270.67" x2="239.771" y2="270.67"/>
<line x1="239.174" y1="271.3" x2="240.174" y2="271.3"/>
<line x1="239.577" y1="268.94" x2="240.577" y2="268.94"/>
<line x1="239.98" y1="271.772" x2="240.98" y2="271.772"/>
<line x1="240.383" y1="276.492" x2="241.383" y2="276.492"/>
<line x1="240.786" y1="275.076" x2="241.786" y2="275.076"/>
<line x1="241.189" y1="275.705" x2="242.189" y2="275.705"/>
<line x1="241.592" y1="276.807" x2="242.592" y2="276.807"/>
<line x1="241.995" y1="275.548" x2="242.995" y2="275.548"/>
<line x1="242.398" y1="273.66" x2="243.398" y2="273.66"/>
<line x1="242.801" y1="273.817" x2="243.801" y2="273.817"/>
<line x1="243.204" y1="271.929" x2="244.204" y2="271.929"/>
<line x1="243.607" y1="272.086" x2="244.607" y2="272.086"/>
<line x1="244.011" y1="272.873" x2="245.011" y2="272.873"/>
<line x1="244.414" y1="271.614" x2="245.414" y2="271.614"/>
<line x1="244.817" y1="271.142" x2="245.817" y2="271.142"/>
<line x1="245.22" y1="271.614" x2="246.22" y2="271.614"/>
<line x1="245.623" y1="273.66" x2="246.623" y2="273.66"/>
<line x1="246.026" y1="275.076" x2="247.026" y2="275.076"/>
<line x1="246.429" y1="275.863" x2="247.429" y2="275.863"/>
<line x1="246.832" y1="277.279" x2="247.832" y2="277.279"/>
<line x1="247.235" y1="281.527" x2="248.235" y2="281.527"/>
<line x1="247.638" y1="281.527" x2="248.638" y2="281.527"/>
<line x1="248.041" y1="278.695" x2="249.041" y2="278.695"/>
<line x1="248.444" y1="278.38" x2="249.444" y2="278.38"/>
<line x1="248.847" y1="275.076" x2="249.847" y2="275.076"/>
<line x1="249.25" y1="275.548" x2="250.25" y2="275.548"/>
<line x1="249.653" y1="279.324" x2="250.653" y2="279.324"/>
<line x1="250.056" y1="280.426" x2="251.056" y2="280.426"/>
<line x1="250.459" y1="278.695" x2="251.459" y2="278.695"/>
<line x1="250.862" y1="280.268" x2="251.862" y2="280.268"/>
<line x1="251.265" y1="276.177" x2="252.265" y2="276.177"/>
<line x1="251.668" y1="272.401" x2="252.668" y2="272.401"/>
<line x1="252.071" y1="270.67" x2="253.071" y2="270.67"/>
<line x1="252.474" y1="272.559" x2="253.474" y2="272.559"/>
<line x1="252.877" y1="275.863" x2="253.877" y2="275.863"/>
<line x1="253.281" y1="274.289" x2="254.281" y2="274.289"/>
<line x1="253.684" y1="274.604" x2="254.684" y2="274.604"/>
<line x1="254.087" y1="277.121" x2="255.087" y2="277.121"/>
<line x1="254.49" y1="279.01" x2="255.49" y2="279.01"/>
<line x1="254.893" y1="281.684" x2="255.893" y2="281.684"/>
<line x1="255.296" y1="281.212" x2="256.296" y2="281.212"/>
<line x1="255.699" y1="278.538" x2="256.699" y2="278.538"/>
<line x1="256.102" y1="276.807" x2="257.102" y2="276.807"/>
<line x1="256.505" y1="276.649" x2="257.505" y2="276.649"/>
<line x1="256.908" y1="279.324" x2="257.908" y2="279.324"/>
<line x1="257.311" y1="277.594" x2="258.311" y2="277.594"/>
<line x1="257.714" y1="275.233" x2="258.714" y2="275.233"/>
<line x1="258.117" y1="271.3" x2="259.117" y2="271.3"/>
<line x1="258.52" y1="268.94" x2="259.52" y2="268.94"/>
<line x1="258.923" y1="265.95" x2="259.923" y2="265.95"/>
<line x1="259.326" y1="266.737" x2="260.326" y2="266.737"/>
<line x1="259.729" y1="265.635" x2="260.729" y2="265.635"/>
<line x1="260.132" y1="269.884" x2="261.132" y2="269.884"/>
<line x1="260.535" y1="275.076" x2="261.535" y2="275.076"/>
<line x1="260.938" y1="276.807" x2="261.938" y2="276.807"/>
<line x1="261.341" y1="277.594" x2="262.341" y2="277.594"/>
<line x1="261.744" y1="278.223" x2="262.744" y2="278.223"/>
<line x1="262.147" y1="279.639" x2="263.147" y2="279.639"/>
<line x1="262.55" y1="281.055" x2="263.55" y2="281.055"/>
<line x1="262.954" y1="283.101" x2="263.954" y2="283.101"/>
<line x1="263.357" y1="274.132" x2="264.357" y2="274.132"/>
<line x1="263.76" y1="242.663" x2="264.76" y2="242.663"/>
<line x1="264.163" y1="218.747" x2="265.163" y2="218.747"/>
<line x1="264.566" y1="212.139" x2="265.566" y2="212.139"/>
<line x1="264.969" y1="214.499" x2="265.969" y2="214.499"/>
<line x1="265.372" y1="224.726" x2="266.372" y2="224.726"/>
<line x1="265.775" y1="236.055" x2="266.775" y2="236.055"/>
<line x1="266.178" y1="246.597" x2="267.178" y2="246.597"/>
<line x1="266.581" y1="254.149" x2="267.581" y2="254.149"/>
<line x1="266.984" y1="259.184" x2="267.984" y2="259.184"/>
<line x1="267.387" y1="264.219" x2="268.387" y2="264.219"/>
<line x1="267.79" y1="268.468" x2="268.79" y2="268.468"/>
<line x1="268.193" y1="272.244" x2="269.193" y2="272.244"/>
<line x1="268.596" y1="273.817" x2="269.596" y2="273.817"/>
<line x1="268.999" y1="274.447" x2="269.999" y2="274.447"/>
<line x1="269.402" y1="275.233" x2="270.402" y2="275.233"/>
<line x1="269.805" y1="278.223" x2="270.805" y2="278.223"/>
<line x1="270.208" y1="280.898" x2="271.208" y2="280.898"/>
<line x1="270.611" y1="284.674" x2="271.611" y2="284.674"/>
<line x1="271.014" y1="285.303" x2="272.014" y2="285.303"/>
<line x1="271.417" y1="283.258" x2="272.417" y2="283.258"/>
<line x1="271.82" y1="276.649" x2="272.82" y2="276.649"/>
<line x1="272.223" y1="275.863" x2="273.223" y2="275.863"/>
<line x1="272.627" y1="277.121" x2="273.627" y2="277.121"/>
<line x1="273.03" y1="281.527" x2="274.03" y2="281.527"/>
<line x1="273.433" y1="282.471" x2="274.433" y2="282.471"/>
<line x1="273.836" y1="281.684" x2="274.836" y2="281.684"/>
<line x1="274.239" y1="279.324" x2="275.239" y2="279.324"/>
<line x1="274.642" y1="276.02" x2="275.642" y2="276.02"/>
<line x1="275.045" y1="276.492" x2="276.045" y2="276.492"/>
<line x1="275.448" y1="278.066" x2="276.448" y2="278.066"/>
<line x1="275.851" y1="279.639" x2="276.851" y2="279.639"/>
<line x1="276.254" y1="280.268" x2="277.254" y2="280.268"/>
<line x1="276.657" y1="284.045" x2="277.657" y2="284.045"/>
<line x1="277.06" y1="286.405" x2="278.06" y2="286.405"/>
<line x1="277.463" y1="282.943" x2="278.463" y2="282.943"/>
<line x1="277.866" y1="284.989" x2="278.866" y2="284.989"/>
<line x1="278.269" y1="286.719" x2="279.269" y2="286.719"/>
<line x1="278.672" y1="283.887" x2="279.672" y2="283.887"/>
<line x1="279.075" y1="284.359" x2="280.075" y2="284.359"/>
<line x1="279.478" y1="285.146" x2="280.478" y2="285.146"/>
<line x1="279.881" y1="285.618" x2="280.881" y2="285.618"/>
<line x1="280.284" y1="287.349" x2="281.284" y2="287.349"/>
<line x1="280.687" y1="288.765" x2="281.687" y2="288.765"/>
<line x1="281.09" y1="290.496" x2="282.09" y2="290.496"/>
<line x1="281.493" y1="292.541" x2="282.493" y2="292.541"/>
<line x1="281.897" y1="287.191" x2="282.897" y2="287.191"/>
<line x1="282.3" y1="280.74" x2="283.3" y2="280.74"/>
<line x1="282.703" y1="278.223" x2="283.703" y2="278.223"/>
<line x1="283.106" y1="280.74" x2="284.106" y2="280.74"/>
<line x1="283.509" y1="282.786" x2="284.509" y2="282.786"/>
<line x1="283.912" y1="284.989" x2="284.912" y2="284.989"/>
<line x1="284.315" y1="286.562" x2="285.315" y2="286.562"/>
<line x1="284.718" y1="288.136" x2="285.718" y2="288.136"/>
<line x1="285.121" y1="282.314" x2="286.121" y2="282.314"/>
<line x1="285.524" y1="278.852" x2="286.524" y2="278.852"/>
<line x1="285.927" y1="276.335" x2="286.927" y2="276.335"/>
<line x1="286.33" y1="277.279" x2="287.33" y2="277.279"/>
<line x1="286.733" y1="281.999" x2="287.733" y2="281.999"/>
<line x1="287.136" y1="280.426" x2="288.136" y2="280.426"/>
<line x1="287.539" y1="277.751" x2="288.539" y2="277.751"/>
<line x1="287.942" y1="280.898" x2="288.942" y2="280.898"/>
<line x1="288.345" y1="279.482" x2="289.345" y2="279.482"/>
<line x1="288.748" y1="281.684" x2="289.748" y2="281.684"/>
<line x1="289.151" y1="281.842" x2="290.151" y2="281.842"/>
<line x1="289.554" y1="284.831" x2="290.554" y2="284.831"/>
<line x1="289.957" y1="253.835" x2="290.957" y2="253.835"/>
<line x1="290.36" y1="174.219" x2="291.36" y2="174.219"/>
<line x1="290.763" y1="129.533" x2="291.763" y2="129.533"/>
<line x1="291.166" y1="117.732" x2="292.166" y2="117.732"/>
<line x1="291.57" y1="127.173" x2="292.57" y2="127.173"/>
<line x1="291.973" y1="145.268" x2="292.973" y2="145.268"/>
<line x1="292.376" y1="164.149" x2="293.376" y2="164.149"/>
<line x1="292.779" y1="188.065" x2="293.779" y2="188.065"/>
<line x1="293.182" y1="208.205" x2="294.182" y2="208.205"/>
<line x1="293.585" y1="222.366" x2="294.585" y2="222.366"/>
<line x1="293.988" y1="236.055" x2="294.988" y2="236.055"/>
<line x1="294.391" y1="248.328" x2="295.391" y2="248.328"/>
<line x1="294.794" y1="257.139" x2="295.794" y2="257.139"/>
<line x1="295.197" y1="266.265" x2="296.197" y2="266.265"/>
<line x1="295.6" y1="275.705" x2="296.6" y2="275.705"/>
<line x1="296.003" y1="277.594" x2="297.003" y2="277.594"/>
<line x1="296.406" y1="281.842" x2="297.406" y2="281.842"/>
<line x1="296.809" y1="284.359" x2="297.809" y2="284.359"/>
<line x1="297.212" y1="290.338" x2="298.212" y2="290.338"/>
<line x1="297.615" y1="295.216" x2="298.615" y2="295.216"/>
<line x1="298.018" y1="297.891" x2="299.018" y2="297.891"/>
<line x1="298.421" y1="295.845" x2="299.421" y2="295.845"/>
<line x1="298.824" y1="295.688" x2="299.824" y2="295.688"/>
<line x1="299.227" y1="296.947" x2="300.227" y2="296.947"/>
<line x1="299.63" y1="299.936" x2="300.63" y2="299.936"/>
<line x1="300.033" y1="303.241" x2="301.033" y2="303.241"/>
<line x1="300.436" y1="300.094" x2="301.436" y2="300.094"/>
<line x1="300.839" y1="298.678" x2="301.839" y2="298.678"/>
<line x1="301.243" y1="298.363" x2="302.243" y2="298.363"/>
<line x1="301.646" y1="297.104" x2="302.646" y2="297.104"/>
<line x1="302.049" y1="300.88" x2="303.049" y2="300.88"/>
<line x1="302.452" y1="297.733" x2="303.452" y2="297.733"/>
<line x1="302.855" y1="296.475" x2="303.855" y2="296.475"/>
<line x1="303.258" y1="295.059" x2="304.258" y2="295.059"/>
<line x1="303.661" y1="294.901" x2="304.661" y2="294.901"/>
<line x1="304.064" y1="293.643" x2="305.064" y2="293.643"/>
<line x1="304.467" y1="293.013" x2="305.467" y2="293.013"/>
<line x1="304.87" y1="293.328" x2="305.87" y2="293.328"/>
<line x1="305.273" y1="297.419" x2="306.273" y2="297.419"/>
<line x1="305.676" y1="296.947" x2="306.676" y2="296.947"/>
<line x1="306.079" y1="298.52" x2="307.079" y2="298.52"/>
<line x1="306.482" y1="301.352" x2="307.482" y2="301.352"/>
<line x1="306.885" y1="302.454" x2="307.885" y2="302.454"/>
<line x1="307.288" y1="301.982" x2="308.288" y2="301.982"/>
<line x1="307.691" y1="299.779" x2="308.691" y2="299.779"/>
<line x1="308.094" y1="301.667" x2="309.094" y2="301.667"/>
<line x1="308.497" y1="304.499" x2="309.497" y2="304.499"/>
<line x1="308.9" y1="302.926" x2="309.9" y2="302.926"/>
<line x1="309.303" y1="298.52" x2="310.303" y2="298.52"/>
<line x1="309.706" y1="295.845" x2="310.706" y2="295.845"/>
<line x1="310.109" y1="297.104" x2="311.109" y2="297.104"/>
<line x1="310.512" y1="297.261" x2="311.512" y2="297.261"/>
<line x1="310.916" y1="298.206" x2="311.916" y2="298.206"/>
<line x1="311.319" y1="298.206" x2="312.319" y2="298.206"/>
<line x1="311.722" y1="295.059" x2="312.722" y2="295.059"/>
<line x1="312.125" y1="293.643" x2="313.125" y2="293.643"/>
<line x1="312.528" y1="293.8" x2="313.528" y2="293.8"/>
<line x1="312.931" y1="296.317" x2="313.931" y2="296.317"/>
<line x1="313.334" y1="295.531" x2="314.334" y2="295.531"/>
<line x1="313.737" y1="292.069" x2="314.737" y2="292.069"/>
<line x1="314.14" y1="291.44" x2="315.14" y2="291.44"/>
<line x1="314.543" y1="290.653" x2="315.543" y2="290.653"/>
<line x1="314.946" y1="292.541" x2="315.946" y2="292.541"/>
<line x1="315.349" y1="294.901" x2="316.349" y2="294.901"/>
<line x1="315.752" y1="293.171" x2="316.752" y2="293.171"/>
<line x1="316.155" y1="290.968" x2="317.155" y2="290.968"/>
<line x1="316.558" y1="285.933" x2="317.558" y2="285.933"/>
<line x1="316.961" y1="284.989" x2="317.961" y2="284.989"/>
<line x1="317.364" y1="286.09" x2="318.364" y2="286.09"/>
<line x1="317.767" y1="282.786" x2="318.767" y2="282.786"/>
<line x1="318.17" y1="278.223" x2="319.17" y2="278.223"/>
<line x1="318.573" y1="278.223" x2="319.573" y2="278.223"/>
<line x1="318.976" y1="279.954" x2="319.976" y2="279.954"/>
<line x1="319.379" y1="286.719" x2="320.379" y2="286.719"/>
<line x1="319.782" y1="291.44" x2="320.782" y2="291.44"/>
<line x1="320.186" y1="291.44" x2="321.186" y2="291.44"/>
<line x1="320.589" y1="290.496" x2="321.589" y2="290.496"/>
<line x1="320.992" y1="291.125" x2="321.992" y2="291.125"/>
<line x1="321.395" y1="287.349" x2="322.395" y2="287.349"/>
<line x1="321.798" y1="281.842" x2="322.798" y2="281.842"/>
<line x1="322.201" y1="281.684" x2="323.201" y2="281.684"/>
<line x1="322.604" y1="280.583" x2="323.604" y2="280.583"/>
<line x1="323.007" y1="284.045" x2="324.007" y2="284.045"/>
<line x1="323.41" y1="284.989" x2="324.41" y2="284.989"/>
<line x1="323.813" y1="284.989" x2="324.813" y2="284.989"/>
<line x1="324.216" y1="284.045" x2="325.216" y2="284.045"/>
<line x1="324.619" y1="284.202" x2="325.619" y2="284.202"/>
<line x1="325.022" y1="280.426" x2="326.022" y2="280.426"/>
<line x1="325.425" y1="281.212" x2="326.425" y2="281.212"/>
<line x1="325.828" y1="282.629" x2="326.828" y2="282.629"/>
<line x1="326.231" y1="284.202" x2="327.231" y2="284.202"/>
<line x1="326.634" y1="287.664" x2="327.634" y2="287.664"/>
<line x1="327.037" y1="288.608" x2="328.037" y2="288.608"/>
<line x1="327.44" y1="285.618" x2="328.44" y2="285.618"/>
<line x1="327.843" y1="273.031" x2="328.843" y2="273.031"/>
<line x1="328.246" y1="242.506" x2="329.246" y2="242.506"/>
<line x1="328.649" y1="224.097" x2="329.649" y2="224.097"/>
<line x1="329.052" y1="220.163" x2="330.052" y2="220.163"/>
<line x1="329.455" y1="220.32" x2="330.455" y2="220.32"/>
<line x1="329.859" y1="225.513" x2="330.859" y2="225.513"/>
<line x1="330.262" y1="231.807" x2="331.262" y2="231.807"/>
<line x1="330.665" y1="239.044" x2="331.665" y2="239.044"/>
<line x1="331.068" y1="245.81" x2="332.068" y2="245.81"/>
<line x1="331.471" y1="252.261" x2="332.471" y2="252.261"/>
<line x1="331.874" y1="259.656" x2="332.874" y2="259.656"/>
<line x1="332.277" y1="266.894" x2="333.277" y2="266.894"/>
<line x1="332.68" y1="276.649" x2="333.68" y2="276.649"/>
<line x1="333.083" y1="281.055" x2="334.083" y2="281.055"/>
<line x1="333.486" y1="284.831" x2="334.486" y2="284.831"/>
<line x1="333.889" y1="283.258" x2="334.889" y2="283.258"/>
<line x1="334.292" y1="281.842" x2="335.292" y2="281.842"/>
<line x1="334.695" y1="284.202" x2="335.695" y2="284.202"/>
<line x1="335.098" y1="286.719" x2="336.098" y2="286.719"/>
<line x1="335.501" y1="273.031" x2="336.501" y2="273.031"/>
<line x1="335.904" y1="233.537" x2="336.904" y2="233.537"/>
<line x1="336.307" y1="208.362" x2="337.307" y2="208.362"/>
<line x1="336.71" y1="200.338" x2="337.71" y2="200.338"/>
<line x1="337.113" y1="196.876" x2="338.113" y2="196.876"/>
<line x1="337.516" y1="204.429" x2="338.516" y2="204.429"/>
<line x1="337.919" y1="217.488" x2="338.919" y2="217.488"/>
<line x1="338.322" y1="230.705" x2="339.322" y2="230.705"/>
<line x1="338.725" y1="242.506" x2="339.725" y2="242.506"/>
<line x1="339.128" y1="251.789" x2="340.128" y2="251.789"/>
<line x1="339.532" y1="259.342" x2="340.532" y2="259.342"/>
<line x1="339.935" y1="264.062" x2="340.935" y2="264.062"/>
<line x1="340.338" y1="270.985" x2="341.338" y2="270.985"/>
<line x1="340.741" y1="277.121" x2="341.741" y2="277.121"/>
<line x1="341.144" y1="278.695" x2="342.144" y2="278.695"/>
<line x1="341.547" y1="282.943" x2="342.547" y2="282.943"/>
<line x1="341.95" y1="284.831" x2="342.95" y2="284.831"/>
<line x1="342.353" y1="286.247" x2="343.353" y2="286.247"/>
<line x1="342.756" y1="290.338" x2="343.756" y2="290.338"/>
<line x1="343.159" y1="293.013" x2="344.159" y2="293.013"/>
<line x1="343.562" y1="291.125" x2="344.562" y2="291.125"/>
<line x1="343.965" y1="291.754" x2="344.965" y2="291.754"/>
<line x1="344.368" y1="293.013" x2="345.368" y2="293.013"/>
<line x1="344.771" y1="298.835" x2="345.771" y2="298.835"/>
<line x1="345.174" y1="301.038" x2="346.174" y2="301.038"/>
<line x1="345.577" y1="301.038" x2="346.577" y2="301.038"/>
<line x1="345.98" y1="299.15" x2="346.98" y2="299.15"/>
<line x1="346.383" y1="301.667" x2="347.383" y2="301.667"/>
<line x1="346.786" y1="301.667" x2="347.786" y2="301.667"/>
<line x1="347.189" y1="300.408" x2="348.189" y2="300.408"/>
<line x1="347.592" y1="300.566" x2="348.592" y2="300.566"/>
<line x1="347.995" y1="301.038" x2="348.995" y2="301.038"/>
<line x1="348.398" y1="299.464" x2="349.398" y2="299.464"/>
<line x1="348.801" y1="299.307" x2="349.801" y2="299.307"/>
<line x1="349.205" y1="295.845" x2="350.205" y2="295.845"/>
<line x1="349.608" y1="293.957" x2="350.608" y2="293.957"/>
<line x1="350.011" y1="293.485" x2="351.011" y2="293.485"/>
<line x1="350.414" y1="293.8" x2="351.414" y2="293.8"/>
<line x1="350.817" y1="292.856" x2="351.817" y2="292.856"/>
<line x1="351.22" y1="293.643" x2="352.22" y2="293.643"/>
<line x1="351.623" y1="294.744" x2="352.623" y2="294.744"/>
<line x1="352.026" y1="293.171" x2="353.026" y2="293.171"/>
<line x1="352.429" y1="295.059" x2="353.429" y2="295.059"/>
<line x1="352.832" y1="224.254" x2="353.832" y2="224.254"/>
<line x1="353.235" y1="124.813" x2="354.235" y2="124.813"/>
<line x1="353.638" y1="74.1482" x2="354.638" y2="74.1482"/>
<line x1="354.041" y1="64.0782" x2="355.041" y2="64.0782"/>
<line x1="354.444" y1="77.6097" x2="355.444" y2="77.6097"/>
<line x1="354.847" y1="100.582" x2="355.847" y2="100.582"/>
<line x1="355.25" y1="126.072" x2="356.25" y2="126.072"/>
<line x1="355.653" y1="155.652" x2="356.653" y2="155.652"/>
<line x1="356.056" y1="187.908" x2="357.056" y2="187.908"/>
<line x1="356.459" y1="210.88" x2="357.459" y2="210.88"/>
<line x1="356.862" y1="228.345" x2="357.862" y2="228.345"/>
<line x1="357.265" y1="241.404" x2="358.265" y2="241.404"/>
<line x1="357.668" y1="256.509" x2="358.668" y2="256.509"/>
<line x1="358.071" y1="270.828" x2="359.071" y2="270.828"/>
<line x1="358.475" y1="281.842" x2="359.475" y2="281.842"/>
<line x1="358.878" y1="290.024" x2="359.878" y2="290.024"/>
<line x1="359.281" y1="299.307" x2="360.281" y2="299.307"/>
<line x1="359.684" y1="302.768" x2="360.684" y2="302.768"/>
<line x1="360.087" y1="307.017" x2="361.087" y2="307.017"/>
<line x1="360.49" y1="313.468" x2="361.49" y2="313.468"/>
<line x1="360.893" y1="315.513" x2="361.893" y2="315.513"/>
<line x1="361.296" y1="318.346" x2="362.296" y2="318.346"/>
<line x1="361.699" y1="318.975" x2="362.699" y2="318.975"/>
<line x1="362.102" y1="318.818" x2="363.102" y2="318.818"/>
<line x1="362.505" y1="318.818" x2="363.505" y2="318.818"/>
<line x1="362.908" y1="317.716" x2="363.908" y2="317.716"/>
<line x1="363.311" y1="314.569" x2="364.311" y2="314.569"/>
<line x1="363.714" y1="311.265" x2="364.714" y2="311.265"/>
<line x1="364.117" y1="305.758" x2="365.117" y2="305.758"/>
<line x1="364.52" y1="305.915" x2="365.52" y2="305.915"/>
<line x1="364.923" y1="308.118" x2="365.923" y2="308.118"/>
<line x1="365.326" y1="308.905" x2="366.326" y2="308.905"/>
<line x1="365.729" y1="307.174" x2="366.729" y2="307.174"/>
<line x1="366.132" y1="309.849" x2="367.132" y2="309.849"/>
<line x1="366.535" y1="308.433" x2="367.535" y2="308.433"/>
<line x1="366.938" y1="308.905" x2="367.938" y2="308.905"/>
<line x1="367.341" y1="313.625" x2="368.341" y2="313.625"/>
<line x1="367.744" y1="318.503" x2="368.744" y2="318.503"/>
<line x1="368.148" y1="320.391" x2="369.148" y2="320.391"/>
<line x1="368.551" y1="317.873" x2="369.551" y2="317.873"/>
<line x1="368.954" y1="315.671" x2="369.954" y2="315.671"/>
<line x1="369.357" y1="311.422" x2="370.357" y2="311.422"/>
<line x1="369.76" y1="306.702" x2="370.76" y2="306.702"/>
<line x1="370.163" y1="306.545" x2="371.163" y2="306.545"/>
<line x1="370.566" y1="303.87" x2="371.566" y2="303.87"/>
<line x1="370.969" y1="302.454" x2="371.969" y2="302.454"/>
<line x1="371.372" y1="298.678" x2="372.372" y2="298.678"/>
<line x1="371.775" y1="298.048" x2="372.775" y2="298.048"/>
<line x1="372.178" y1="296.632" x2="373.178" y2="296.632"/>
<line x1="372.581" y1="297.891" x2="373.581" y2="297.891"/>
<line x1="372.984" y1="298.206" x2="373.984" y2="298.206"/>
<line x1="373.387" y1="298.206" x2="374.387" y2="298.206"/>
<line x1="373.79" y1="299.622" x2="374.79" y2="299.622"/>
<line x1="374.193" y1="299.622" x2="375.193" y2="299.622"/>
<line x1="374.596" y1="299.936" x2="375.596" y2="299.936"/>
<line x1="374.999" y1="296.632" x2="375.999" y2="296.632"/>
<line x1="375.402" y1="294.901" x2="376.402" y2="294.901"/>
<line x1="375.805" y1="294.744" x2="376.805" y2="294.744"/>
<line x1="376.208" y1="295.216" x2="377.208" y2="295.216"/>
<line x1="376.611" y1="293.957" x2="377.611" y2="293.957"/>
<line x1="377.014" y1="293.013" x2="378.014" y2="293.013"/>
<line x1="377.417" y1="291.597" x2="378.417" y2="291.597"/>
<line x1="377.821" y1="291.754" x2="378.821" y2="291.754"/>
<line x1="378.224" y1="290.024" x2="379.224" y2="290.024"/>
<line x1="378.627" y1="288.922" x2="379.627" y2="288.922"/>
<line x1="379.03" y1="289.709" x2="380.03" y2="289.709"/>
<line x1="379.433" y1="292.226" x2="380.433" y2="292.226"/>
<line x1="379.836" y1="292.698" x2="380.836" y2="292.698"/>
<line x1="380.239" y1="295.373" x2="381.239" y2="295.373"/>
<line x1="380.642" y1="295.059" x2="381.642" y2="295.059"/>
<line x1="381.045" y1="292.226" x2="382.045" y2="292.226"/>
<line x1="381.448" y1="293.328" x2="382.448" y2="293.328"/>
<line x1="381.851" y1="294.272" x2="382.851" y2="294.272"/>
<line x1="382.254" y1="294.429" x2="383.254" y2="294.429"/>
<line x1="382.657" y1="293.643" x2="383.657" y2="293.643"/>
<line x1="383.06" y1="297.733" x2="384.06" y2="297.733"/>
<line x1="383.463" y1="298.52" x2="384.463" y2="298.52"/>
<line x1="383.866" y1="299.15" x2="384.866" y2="299.15"/>
<line x1="384.269" y1="296.475" x2="385.269" y2="296.475"/>
<line x1="384.672" y1="293.171" x2="385.672" y2="293.171"/>
<line x1="385.075" y1="291.754" x2="386.075" y2="291.754"/>
<line x1="385.478" y1="293.957" x2="386.478" y2="293.957"/>
<line x1="385.881" y1="294.901" x2="386.881" y2="294.901"/>
<line x1="386.284" y1="293.643" x2="387.284" y2="293.643"/>
<line x1="386.687" y1="293.643" x2="387.687" y2="293.643"/>
<line x1="387.09" y1="292.069" x2="388.09" y2="292.069"/>
<line x1="387.494" y1="287.821" x2="388.494" y2="287.821"/>
<line x1="387.897" y1="288.293" x2="388.897" y2="288.293"/>
<line x1="388.3" y1="293.013" x2="389.3" y2="293.013"/>
<line x1="388.703" y1="295.845" x2="389.703" y2="295.845"/>
<line x1="389.106" y1="299.307" x2="390.106" y2="299.307"/>
<line x1="389.509" y1="301.51" x2="390.509" y2="301.51"/>
<line x1="389.912" y1="301.667" x2="390.912" y2="301.667"/>
<line x1="390.315" y1="301.982" x2="391.315" y2="301.982"/>
<line x1="390.718" y1="299.936" x2="391.718" y2="299.936"/>
<line x1="391.121" y1="299.307" x2="392.121" y2="299.307"/>
<line x1="391.524" y1="297.419" x2="392.524" y2="297.419"/>
<line x1="391.927" y1="292.541" x2="392.927" y2="292.541"/>
<line x1="392.33" y1="287.821" x2="393.33" y2="287.821"/>
<line x1="392.733" y1="280.583" x2="393.733" y2="280.583"/>
<line x1="393.136" y1="276.492" x2="394.136" y2="276.492"/>
<line x1="393.539" y1="276.02" x2="394.539" y2="276.02"/>
<line x1="393.942" y1="275.548" x2="394.942" y2="275.548"/>
<line x1="394.345" y1="279.482" x2="395.345" y2="279.482"/>
<line x1="394.748" y1="281.684" x2="395.748" y2="281.684"/>
<line x1="395.151" y1="284.045" x2="396.151" y2="284.045"/>
<line x1="395.554" y1="285.618" x2="396.554" y2="285.618"/>
<line x1="395.957" y1="287.191" x2="396.957" y2="287.191"/>
<line x1="396.36" y1="287.664" x2="397.36" y2="287.664"/>
<line x1="396.764" y1="282.314" x2="397.764" y2="282.314"/>
<line x1="397.167" y1="281.684" x2="398.167" y2="281.684"/>
<line x1="397.57" y1="283.258" x2="398.57" y2="283.258"/>
<line x1="397.973" y1="279.01" x2="398.973" y2="279.01"/>
<line x1="398.376" y1="250.845" x2="399.376" y2="250.845"/>
<line x1="398.779" y1="228.66" x2="399.779" y2="228.66"/>
<line x1="399.182" y1="219.219" x2="400.182" y2="219.219"/>
<line x1="399.585" y1="219.848" x2="400.585" y2="219.848"/>
<line x1="399.988" y1="221.422" x2="400.988" y2="221.422"/>
<line x1="400.391" y1="227.716" x2="401.391" y2="227.716"/>
<line x1="400.794" y1="235.583" x2="401.794" y2="235.583"/>
<line x1="401.197" y1="243.765" x2="402.197" y2="243.765"/>
<line x1="401.6" y1="251.16" x2="402.6" y2="251.16"/>
<line x1="402.003" y1="259.971" x2="403.003" y2="259.971"/>
<line x1="402.406" y1="269.884" x2="403.406" y2="269.884"/>
<line x1="402.809" y1="274.447" x2="403.809" y2="274.447"/>
<line x1="403.212" y1="277.279" x2="404.212" y2="277.279"/>
<line x1="403.615" y1="280.583" x2="404.615" y2="280.583"/>
<line x1="404.018" y1="285.146" x2="405.018" y2="285.146"/>
<line x1="404.421" y1="288.45" x2="405.421" y2="288.45"/>
<line x1="404.824" y1="286.09" x2="405.824" y2="286.09"/>
<line x1="405.227" y1="285.618" x2="406.227" y2="285.618"/>
<line x1="405.63" y1="287.506" x2="406.63" y2="287.506"/>
<line x1="406.033" y1="286.877" x2="407.033" y2="286.877"/>
<line x1="406.437" y1="287.191" x2="407.437" y2="287.191"/>
<line x1="406.84" y1="291.44" x2="407.84" y2="291.44"/>
<line x1="407.243" y1="295.531" x2="408.243" y2="295.531"/>
<line x1="407.646" y1="294.115" x2="408.646" y2="294.115"/>
<line x1="408.049" y1="292.069" x2="409.049" y2="292.069"/>
<line x1="408.452" y1="287.821" x2="409.452" y2="287.821"/>
<line x1="408.855" y1="288.293" x2="409.855" y2="288.293"/>
<line x1="409.258" y1="292.069" x2="410.258" y2="292.069"/>
<line x1="409.661" y1="287.821" x2="410.661" y2="287.821"/>
<line x1="410.064" y1="284.674" x2="411.064" y2="284.674"/>
<line x1="410.467" y1="279.482" x2="411.467" y2="279.482"/>
<line x1="410.87" y1="279.639" x2="411.87" y2="279.639"/>
<line x1="411.273" y1="276.807" x2="412.273" y2="276.807"/>
<line x1="411.676" y1="278.38" x2="412.676" y2="278.38"/>
<line x1="412.079" y1="279.324" x2="413.079" y2="279.324"/>
<line x1="412.482" y1="280.268" x2="413.482" y2="280.268"/>
<line x1="412.885" y1="277.908" x2="413.885" y2="277.908"/>
<line x1="413.288" y1="281.684" x2="414.288" y2="281.684"/>
<line x1="413.691" y1="286.247" x2="414.691" y2="286.247"/>
<line x1="414.094" y1="287.034" x2="415.094" y2="287.034"/>
<line x1="414.497" y1="284.517" x2="415.497" y2="284.517"/>
<line x1="414.9" y1="284.202" x2="415.9" y2="284.202"/>
<line x1="415.303" y1="286.562" x2="416.303" y2="286.562"/>
<line x1="415.706" y1="284.517" x2="416.706" y2="284.517"/>
<line x1="416.11" y1="286.09" x2="417.11" y2="286.09"/>
<line x1="416.513" y1="289.866" x2="417.513" y2="289.866"/>
<line x1="416.916" y1="287.349" x2="417.916" y2="287.349"/>
<line x1="417.319" y1="286.405" x2="418.319" y2="286.405"/>
<line x1="417.722" y1="286.719" x2="418.722" y2="286.719"/>
<line x1="418.125" y1="287.821" x2="419.125" y2="287.821"/>
<line x1="418.528" y1="285.303" x2="419.528" y2="285.303"/>
<line x1="418.931" y1="283.101" x2="419.931" y2="283.101"/>
<line x1="419.334" y1="286.877" x2="420.334" y2="286.877"/>
<line x1="419.737" y1="286.405" x2="420.737" y2="286.405"/>
<line x1="420.14" y1="282.943" x2="421.14" y2="282.943"/>
<line x1="420.543" y1="283.101" x2="421.543" y2="283.101"/>
<line x1="420.946" y1="280.268" x2="421.946" y2="280.268"/>
<line x1="421.349" y1="280.268" x2="422.349" y2="280.268"/>
<line x1="421.752" y1="284.517" x2="422.752" y2="284.517"/>
<line x1="422.155" y1="286.877" x2="423.155" y2="286.877"/>
<line x1="422.558" y1="287.664" x2="423.558" y2="287.664"/>
<line x1="422.961" y1="286.562" x2="423.961" y2="286.562"/>
<line x1="423.364" y1="288.45" x2="424.364" y2="288.45"/>
<line x1="423.767" y1="291.912" x2="424.767" y2="291.912"/>
<line x1="424.17" y1="291.125" x2="425.17" y2="291.125"/>
<line x1="424.573" y1="288.608" x2="425.573" y2="288.608"/>
<line x1="424.976" y1="283.887" x2="425.976" y2="283.887"/>
<line x1="425.379" y1="282.314" x2="426.379" y2="282.314"/>
<line x1="425.783" y1="284.202" x2="426.783" y2="284.202"/>
<line x1="426.186" y1="284.989" x2="427.186" y2="284.989"/>
<line x1="426.589" y1="284.202" x2="427.589" y2="284.202"/>
<line x1="426.992" y1="284.517" x2="427.992" y2="284.517"/>
<line x1="427.395" y1="284.359" x2="428.395" y2="284.359"/>
<line x1="427.798" y1="287.821" x2="428.798" y2="287.821"/>
<line x1="428.201" y1="291.912" x2="429.201" y2="291.912"/>
<line x1="428.604" y1="294.272" x2="429.604" y2="294.272"/>
<line x1="429.007" y1="293.328" x2="430.007" y2="293.328"/>
<line x1="429.41" y1="284.674" x2="430.41" y2="284.674"/>
<line x1="429.813" y1="281.684" x2="430.813" y2="281.684"/>
<line x1="430.216" y1="281.842" x2="431.216" y2="281.842"/>
<line x1="430.619" y1="282.943" x2="431.619" y2="282.943"/>
<line x1="431.022" y1="282.786" x2="432.022" y2="282.786"/>
<line x1="431.425" y1="281.684" x2="432.425" y2="281.684"/>
<line x1="431.828" y1="282.629" x2="432.828" y2="282.629"/>
<line x1="432.231" y1="283.415" x2="433.231" y2="283.415"/>
<line x1="432.634" y1="281.684" x2="433.634" y2="281.684"/>
<line x1="433.037" y1="284.517" x2="434.037" y2="284.517"/>
<line x1="433.44" y1="281.055" x2="434.44" y2="281.055"/>
<line x1="433.843" y1="279.324" x2="434.843" y2="279.324"/>
<line x1="434.246" y1="282.629" x2="435.246" y2="282.629"/>
<line x1="434.649" y1="281.842" x2="435.649" y2="281.842"/>
<line x1="435.053" y1="284.202" x2="436.053" y2="284.202"/>
<line x1="435.456" y1="286.877" x2="436.456" y2="286.877"/>
<line x1="435.859" y1="287.506" x2="436.859" y2="287.506"/>
<line x1="436.262" y1="283.887" x2="437.262" y2="283.887"/>
<line x1="436.665" y1="283.258" x2="437.665" y2="283.258"/>
<line x1="437.068" y1="287.034" x2="438.068" y2="287.034"/>
<line x1="437.471" y1="286.247" x2="438.471" y2="286.247"/>
<line x1="437.874" y1="282.156" x2="438.874" y2="282.156"/>
<line x1="438.277" y1="277.436" x2="439.277" y2="277.436"/>
<line x1="438.68" y1="273.503" x2="439.68" y2="273.503"/>
<line x1="439.083" y1="273.975" x2="440.083" y2="273.975"/>
<line x1="439.486" y1="273.817" x2="440.486" y2="273.817"/>
<line x1="439.889" y1="275.863" x2="440.889" y2="275.863"/>
<line x1="440.292" y1="276.807" x2="441.292" y2="276.807"/>
<line x1="440.695" y1="279.01" x2="441.695" y2="279.01"/>
<line x1="441.098" y1="280.111" x2="442.098" y2="280.111"/>
<line x1="441.501" y1="280.898" x2="442.501" y2="280.898"/>
<line x1="441.904" y1="283.101" x2="442.904" y2="283.101"/>
<line x1="442.307" y1="281.684" x2="443.307" y2="281.684"/>
<line x1="442.71" y1="280.426" x2="443.71" y2="280.426"/>
<line x1="443.113" y1="278.852" x2="444.113" y2="278.852"/>
<line x1="443.516" y1="276.807" x2="444.516" y2="276.807"/>
<line x1="443.919" y1="277.594" x2="444.919" y2="277.594"/>
<line x1="444.322" y1="279.639" x2="445.322" y2="279.639"/>
<line x1="444.726" y1="279.01" x2="445.726" y2="279.01"/>
<line x1="445.129" y1="283.73" x2="446.129" y2="283.73"/>
<line x1="445.532" y1="285.461" x2="446.532" y2="285.461"/>
<line x1="445.935" y1="286.247" x2="446.935" y2="286.247"/>
<line x1="446.338" y1="283.258" x2="447.338" y2="283.258"/>
<line x1="446.741" y1="283.73" x2="447.741" y2="283.73"/>
<line x1="447.144" y1="281.527" x2="448.144" y2="281.527"/>
<line x1="447.547" y1="278.538" x2="448.547" y2="278.538"/>
<line x1="447.95" y1="278.38" x2="448.95" y2="278.38"/>
<line x1="448.353" y1="277.594" x2="449.353" y2="277.594"/>
<line x1="448.756" y1="277.908" x2="449.756" y2="277.908"/>
<line x1="449.159" y1="274.447" x2="450.159" y2="274.447"/>
<line x1="449.562" y1="278.223" x2="450.562" y2="278.223"/>
<line x1="449.965" y1="279.324" x2="450.965" y2="279.324"/>
<line x1="450.368" y1="276.335" x2="451.368" y2="276.335"/>
<line x1="450.771" y1="275.391" x2="451.771" y2="275.391"/>
<line x1="451.174" y1="277.751" x2="452.174" y2="277.751"/>
<line x1="451.577" y1="279.01" x2="452.577" y2="279.01"/>
<line x1="451.98" y1="280.898" x2="452.98" y2="280.898"/>
<line x1="452.383" y1="284.517" x2="453.383" y2="284.517"/>
<line x1="452.786" y1="284.989" x2="453.786" y2="284.989"/>
<line x1="453.189" y1="280.74" x2="454.189" y2="280.74"/>
<line x1="453.592" y1="276.492" x2="454.592" y2="276.492"/>
<line x1="453.995" y1="271.772" x2="454.995" y2="271.772"/>
<line x1="454.399" y1="271.3" x2="455.399" y2="271.3"/>
<line x1="454.802" y1="271.614" x2="455.802" y2="271.614"/>
<line x1="455.205" y1="275.076" x2="456.205" y2="275.076"/>
<line x1="455.608" y1="273.503" x2="456.608" y2="273.503"/>
<line x1="456.011" y1="273.817" x2="457.011" y2="273.817"/>
<line x1="456.414" y1="274.604" x2="457.414" y2="274.604"/>
<line x1="456.817" y1="273.66" x2="457.817" y2="273.66"/>
<line x1="457.22" y1="271.3" x2="458.22" y2="271.3"/>
<line x1="457.623" y1="271.3" x2="458.623" y2="271.3"/>
<line x1="458.026" y1="274.132" x2="459.026" y2="274.132"/>
<line x1="458.429" y1="274.447" x2="459.429" y2="274.447"/>
<line x1="458.832" y1="273.503" x2="459.832" y2="273.503"/>
<line x1="459.235" y1="276.02" x2="460.235" y2="276.02"/>
<line x1="459.638" y1="278.538" x2="460.638" y2="278.538"/>
<line x1="460.041" y1="281.842" x2="461.041" y2="281.842"/>
<line x1="460.444" y1="283.73" x2="461.444" y2="283.73"/>
<line x1="460.847" y1="284.045" x2="461.847" y2="284.045"/>
<line x1="461.25" y1="278.695" x2="462.25" y2="278.695"/>
<line x1="461.653" y1="278.695" x2="462.653" y2="278.695"/>
<line x1="462.056" y1="276.649" x2="463.056" y2="276.649"/>
<line x1="462.459" y1="275.705" x2="463.459" y2="275.705"/>
<line x1="462.862" y1="274.132" x2="463.862" y2="274.132"/>
<line x1="463.265" y1="271.929" x2="464.265" y2="271.929"/>
<line x1="463.668" y1="273.188" x2="464.668" y2="273.188"/>
<line x1="464.072" y1="275.863" x2="465.072" y2="275.863"/>
<line x1="464.475" y1="276.177" x2="465.475" y2="276.177"/>
<line x1="464.878" y1="276.649" x2="465.878" y2="276.649"/>
<line x1="465.281" y1="278.38" x2="466.281" y2="278.38"/>
<line x1="465.684" y1="278.538" x2="466.684" y2="278.538"/>
<line x1="466.087" y1="279.324" x2="467.087" y2="279.324"/>
<line x1="466.49" y1="273.345" x2="467.49" y2="273.345"/>
<line x1="466.893" y1="272.873" x2="467.893" y2="272.873"/>
<line x1="467.296" y1="275.076" x2="468.296" y2="275.076"/>
<line x1="467.699" y1="277.436" x2="468.699" y2="277.436"/>
<line x1="468.102" y1="279.954" x2="469.102" y2="279.954"/>
<line x1="468.505" y1="278.066" x2="469.505" y2="278.066"/>
</g>
<text xml:space="preserve" x="252.197" y="18.7347" fill="black" font-size="16.9898" font-family="Helvetica">Ev.1405</text></svg>
